g _Combined_Vis28_1
v -0.03349395 4.125 -0.1250001
v -0.125 4.216506 -0.1250001
v -0.125 4.216506 -0.3750001
v -0.03349393 4.125 -0.3750001
v 6.258587E-08 4 -0.1250001
v 8.444157E-08 4 -0.3750001
v 8.444157E-08 4 -0.3750001
v -0.03349392 3.875 -0.1250001
v 6.258587E-08 4 -0.1250001
v -0.0334939 3.875 -0.3750001
v -0.25 4.25 -0.3750001
v -0.25 4.25 -0.1250001
v -0.25 4.25 -0.1250001
v -0.375 4.216506 -0.3750001
v -0.25 4.25 -0.3750001
v -0.375 4.216506 -0.1250001
v -0.466506 4.125 -0.3750002
v -0.466506 4.125 -0.1250001
v -0.5 4 -0.1250001
v -0.5 4 -0.3750002
v -0.5 4 -0.1250001
v -0.466506 3.875 -0.3750002
v -0.5 4 -0.3750002
v -0.466506 3.875 -0.1250001
v -0.3749999 3.783494 -0.3750001
v -0.375 3.783494 -0.1250001
v -0.2499999 3.75 -0.3750001
v -0.2499999 3.75 -0.1250001
v -0.2499999 3.75 -0.1250001
v -0.1249999 3.783494 -0.3750001
v -0.2499999 3.75 -0.3750001
v -0.1249999 3.783494 -0.1250001
v -0.1249999 3.783494 -0.3750001
v -0.3749999 3.783494 -0.3750001
v -0.2499999 3.75 -0.3750001
v -0.0334939 3.875 -0.3750001
v -0.466506 3.875 -0.3750002
v 8.444157E-08 4 -0.3750001
v -0.5 4 -0.3750002
v -0.03349393 4.125 -0.3750001
v -0.466506 4.125 -0.3750002
v -0.125 4.216506 -0.3750001
v -0.375 4.216506 -0.3750001
v -0.25 4.25 -0.3750001
v -0.03349395 5.125 -0.1250001
v -0.125 5.216506 -0.1250001
v -0.125 5.216506 -0.3750001
v -0.03349393 5.125 -0.3750001
v 6.258587E-08 5 -0.1250001
v 8.444157E-08 5 -0.3750001
v 8.444157E-08 5 -0.3750001
v -0.03349392 4.875 -0.1250001
v 6.258587E-08 5 -0.1250001
v -0.0334939 4.875 -0.3750001
v -0.25 5.25 -0.3750001
v -0.25 5.25 -0.1250001
v -0.25 5.25 -0.1250001
v -0.375 5.216506 -0.3750001
v -0.25 5.25 -0.3750001
v -0.375 5.216506 -0.1250001
v -0.466506 5.125 -0.3750002
v -0.466506 5.125 -0.1250001
v -0.5 5 -0.1250001
v -0.5 5 -0.3750002
v -0.5 5 -0.1250001
v -0.466506 4.875 -0.3750002
v -0.5 5 -0.3750002
v -0.466506 4.875 -0.1250001
v -0.3749999 4.783494 -0.3750001
v -0.375 4.783494 -0.1250001
v -0.2499999 4.75 -0.3750001
v -0.2499999 4.75 -0.1250001
v -0.2499999 4.75 -0.1250001
v -0.1249999 4.783494 -0.3750001
v -0.2499999 4.75 -0.3750001
v -0.1249999 4.783494 -0.1250001
v -0.1249999 4.783494 -0.3750001
v -0.3749999 4.783494 -0.3750001
v -0.2499999 4.75 -0.3750001
v -0.0334939 4.875 -0.3750001
v -0.466506 4.875 -0.3750002
v 8.444157E-08 5 -0.3750001
v -0.5 5 -0.3750002
v -0.03349393 5.125 -0.3750001
v -0.466506 5.125 -0.3750002
v -0.125 5.216506 -0.3750001
v -0.375 5.216506 -0.3750001
v -0.25 5.25 -0.3750001
v -0.03349395 3.125 -0.1250001
v -0.125 3.216506 -0.1250001
v -0.125 3.216506 -0.3750001
v -0.03349393 3.125 -0.3750001
v 6.258587E-08 3 -0.1250001
v 8.444157E-08 3 -0.3750001
v 8.444157E-08 3 -0.3750001
v -0.03349392 2.875 -0.1250001
v 6.258587E-08 3 -0.1250001
v -0.0334939 2.875 -0.3750001
v -0.25 3.25 -0.3750001
v -0.25 3.25 -0.1250001
v -0.25 3.25 -0.1250001
v -0.375 3.216506 -0.3750001
v -0.25 3.25 -0.3750001
v -0.375 3.216506 -0.1250001
v -0.466506 3.125 -0.3750002
v -0.466506 3.125 -0.1250001
v -0.5 3 -0.1250001
v -0.5 3 -0.3750002
v -0.5 3 -0.1250001
v -0.466506 2.875 -0.3750002
v -0.5 3 -0.3750002
v -0.466506 2.875 -0.1250001
v -0.3749999 2.783494 -0.3750001
v -0.375 2.783494 -0.1250001
v -0.2499999 2.75 -0.3750001
v -0.2499999 2.75 -0.1250001
v -0.2499999 2.75 -0.1250001
v -0.1249999 2.783494 -0.3750001
v -0.2499999 2.75 -0.3750001
v -0.1249999 2.783494 -0.1250001
v -0.1249999 2.783494 -0.3750001
v -0.3749999 2.783494 -0.3750001
v -0.2499999 2.75 -0.3750001
v -0.0334939 2.875 -0.3750001
v -0.466506 2.875 -0.3750002
v 8.444157E-08 3 -0.3750001
v -0.5 3 -0.3750002
v -0.03349393 3.125 -0.3750001
v -0.466506 3.125 -0.3750002
v -0.125 3.216506 -0.3750001
v -0.375 3.216506 -0.3750001
v -0.25 3.25 -0.3750001
vt 0.416675 6.7E-05
vt 0.333353 6.8E-05
vt 0.333354 0.120792
vt 0.416676 0.120792
vt 0.499997 6.7E-05
vt 0.499997 0.120791
vt 0.499997 0.120791
vt 0.583319 6.7E-05
vt 0.499997 6.7E-05
vt 0.583319 0.120792
vt 0.250032 0.120793
vt 0.250031 6.9E-05
vt 0.250031 6.9E-05
vt 0.16671 0.120793
vt 0.250032 0.120793
vt 0.166709 6.9E-05
vt 0.083388 0.120794
vt 0.083388 7E-05
vt 6.6E-05 7E-05
vt 6.7E-05 0.120794
vt 0.999934 6.6E-05
vt 0.916611 0.120792
vt 0.999934 0.120792
vt 0.916611 6.6E-05
vt 0.833288 0.120792
vt 0.833288 6.6E-05
vt 0.749965 0.120792
vt 0.749965 6.6E-05
vt 0.749965 6.6E-05
vt 0.666642 0.120792
vt 0.749965 0.120792
vt 0.666642 6.7E-05
vt 0.02059 0.45551
vt 0.325275 0.150825
vt 0.132113 0.262348
vt 0.02059 0.678554
vt 0.54832 0.150825
vt 0.132113 0.871717
vt 0.741482 0.262348
vt 0.325275 0.983239
vt 0.853004 0.45551
vt 0.54832 0.983239
vt 0.853004 0.678555
vt 0.741482 0.871717
vt 0.416675 6.7E-05
vt 0.333353 6.8E-05
vt 0.333354 0.120792
vt 0.416676 0.120792
vt 0.499997 6.7E-05
vt 0.499997 0.120791
vt 0.499997 0.120791
vt 0.583319 6.7E-05
vt 0.499997 6.7E-05
vt 0.583319 0.120792
vt 0.250032 0.120793
vt 0.250031 6.9E-05
vt 0.250031 6.9E-05
vt 0.16671 0.120793
vt 0.250032 0.120793
vt 0.166709 6.9E-05
vt 0.083388 0.120794
vt 0.083388 7E-05
vt 6.6E-05 7E-05
vt 6.7E-05 0.120794
vt 0.999934 6.6E-05
vt 0.916611 0.120792
vt 0.999934 0.120792
vt 0.916611 6.6E-05
vt 0.833288 0.120792
vt 0.833288 6.6E-05
vt 0.749965 0.120792
vt 0.749965 6.6E-05
vt 0.749965 6.6E-05
vt 0.666642 0.120792
vt 0.749965 0.120792
vt 0.666642 6.7E-05
vt 0.02059 0.45551
vt 0.325275 0.150825
vt 0.132113 0.262348
vt 0.02059 0.678554
vt 0.54832 0.150825
vt 0.132113 0.871717
vt 0.741482 0.262348
vt 0.325275 0.983239
vt 0.853004 0.45551
vt 0.54832 0.983239
vt 0.853004 0.678555
vt 0.741482 0.871717
vt 0.416675 6.7E-05
vt 0.333353 6.8E-05
vt 0.333354 0.120792
vt 0.416676 0.120792
vt 0.499997 6.7E-05
vt 0.499997 0.120791
vt 0.499997 0.120791
vt 0.583319 6.7E-05
vt 0.499997 6.7E-05
vt 0.583319 0.120792
vt 0.250032 0.120793
vt 0.250031 6.9E-05
vt 0.250031 6.9E-05
vt 0.16671 0.120793
vt 0.250032 0.120793
vt 0.166709 6.9E-05
vt 0.083388 0.120794
vt 0.083388 7E-05
vt 6.6E-05 7E-05
vt 6.7E-05 0.120794
vt 0.999934 6.6E-05
vt 0.916611 0.120792
vt 0.999934 0.120792
vt 0.916611 6.6E-05
vt 0.833288 0.120792
vt 0.833288 6.6E-05
vt 0.749965 0.120792
vt 0.749965 6.6E-05
vt 0.749965 6.6E-05
vt 0.666642 0.120792
vt 0.749965 0.120792
vt 0.666642 6.7E-05
vt 0.02059 0.45551
vt 0.325275 0.150825
vt 0.132113 0.262348
vt 0.02059 0.678554
vt 0.54832 0.150825
vt 0.132113 0.871717
vt 0.741482 0.262348
vt 0.325275 0.983239
vt 0.853004 0.45551
vt 0.54832 0.983239
vt 0.853004 0.678555
vt 0.741482 0.871717
vn 0.8660316 0.4999892 7.57109E-08
vn 0.4999892 0.8660316 4.371046E-08
vn 0.4999892 0.8660316 4.371046E-08
vn 0.8660316 0.4999892 7.57109E-08
vn 1 -1.192093E-07 8.742278E-08
vn 1 -1.192093E-07 8.742278E-08
vn 1 -1.192093E-07 8.742278E-08
vn 0.8660315 -0.4999893 7.571089E-08
vn 1 -1.192093E-07 8.742278E-08
vn 0.8660315 -0.4999893 7.571089E-08
vn -1.192093E-07 1 0
vn -1.192093E-07 1 0
vn -1.192093E-07 1 0
vn -0.4999893 0.8660315 -4.371045E-08
vn -1.192093E-07 1 0
vn -0.4999893 0.8660315 -4.371045E-08
vn -0.8660315 0.4999893 -7.571089E-08
vn -0.8660315 0.4999893 -7.571089E-08
vn -1 1.192093E-07 -8.742278E-08
vn -1 1.192093E-07 -8.742278E-08
vn -1 1.192093E-07 -8.742278E-08
vn -0.8660316 -0.4999892 -7.57109E-08
vn -1 1.192093E-07 -8.742278E-08
vn -0.8660316 -0.4999892 -7.57109E-08
vn -0.4999892 -0.8660316 -4.371046E-08
vn -0.4999892 -0.8660316 -4.371046E-08
vn 1.192093E-07 -1 0
vn 1.192093E-07 -1 0
vn 1.192093E-07 -1 0
vn 0.4999893 -0.8660315 4.371045E-08
vn 1.192093E-07 -1 0
vn 0.4999893 -0.8660315 4.371045E-08
vn 8.742277E-08 0 -1
vn 8.742277E-08 0 -1
vn 8.742277E-08 0 -1
vn 8.742277E-08 0 -1
vn 8.742277E-08 0 -1
vn 8.742277E-08 0 -1
vn 8.742277E-08 0 -1
vn 8.742277E-08 0 -1
vn 8.742277E-08 0 -1
vn 8.742277E-08 0 -1
vn 8.742277E-08 0 -1
vn 8.742277E-08 0 -1
vn 0.8660316 0.4999892 7.57109E-08
vn 0.4999892 0.8660316 4.371046E-08
vn 0.4999892 0.8660316 4.371046E-08
vn 0.8660316 0.4999892 7.57109E-08
vn 1 -1.192093E-07 8.742278E-08
vn 1 -1.192093E-07 8.742278E-08
vn 1 -1.192093E-07 8.742278E-08
vn 0.8660315 -0.4999893 7.571089E-08
vn 1 -1.192093E-07 8.742278E-08
vn 0.8660315 -0.4999893 7.571089E-08
vn -1.192093E-07 1 0
vn -1.192093E-07 1 0
vn -1.192093E-07 1 0
vn -0.4999893 0.8660315 -4.371045E-08
vn -1.192093E-07 1 0
vn -0.4999893 0.8660315 -4.371045E-08
vn -0.8660315 0.4999893 -7.571089E-08
vn -0.8660315 0.4999893 -7.571089E-08
vn -1 1.192093E-07 -8.742278E-08
vn -1 1.192093E-07 -8.742278E-08
vn -1 1.192093E-07 -8.742278E-08
vn -0.8660316 -0.4999892 -7.57109E-08
vn -1 1.192093E-07 -8.742278E-08
vn -0.8660316 -0.4999892 -7.57109E-08
vn -0.4999892 -0.8660316 -4.371046E-08
vn -0.4999892 -0.8660316 -4.371046E-08
vn 1.192093E-07 -1 0
vn 1.192093E-07 -1 0
vn 1.192093E-07 -1 0
vn 0.4999893 -0.8660315 4.371045E-08
vn 1.192093E-07 -1 0
vn 0.4999893 -0.8660315 4.371045E-08
vn 8.742277E-08 0 -1
vn 8.742277E-08 0 -1
vn 8.742277E-08 0 -1
vn 8.742277E-08 0 -1
vn 8.742277E-08 0 -1
vn 8.742277E-08 0 -1
vn 8.742277E-08 0 -1
vn 8.742277E-08 0 -1
vn 8.742277E-08 0 -1
vn 8.742277E-08 0 -1
vn 8.742277E-08 0 -1
vn 8.742277E-08 0 -1
vn 0.8660316 0.4999892 7.57109E-08
vn 0.4999892 0.8660316 4.371046E-08
vn 0.4999892 0.8660316 4.371046E-08
vn 0.8660316 0.4999892 7.57109E-08
vn 1 -1.192093E-07 8.742278E-08
vn 1 -1.192093E-07 8.742278E-08
vn 1 -1.192093E-07 8.742278E-08
vn 0.8660315 -0.4999893 7.571089E-08
vn 1 -1.192093E-07 8.742278E-08
vn 0.8660315 -0.4999893 7.571089E-08
vn -1.192093E-07 1 0
vn -1.192093E-07 1 0
vn -1.192093E-07 1 0
vn -0.4999893 0.8660315 -4.371045E-08
vn -1.192093E-07 1 0
vn -0.4999893 0.8660315 -4.371045E-08
vn -0.8660315 0.4999893 -7.571089E-08
vn -0.8660315 0.4999893 -7.571089E-08
vn -1 1.192093E-07 -8.742278E-08
vn -1 1.192093E-07 -8.742278E-08
vn -1 1.192093E-07 -8.742278E-08
vn -0.8660316 -0.4999892 -7.57109E-08
vn -1 1.192093E-07 -8.742278E-08
vn -0.8660316 -0.4999892 -7.57109E-08
vn -0.4999892 -0.8660316 -4.371046E-08
vn -0.4999892 -0.8660316 -4.371046E-08
vn 1.192093E-07 -1 0
vn 1.192093E-07 -1 0
vn 1.192093E-07 -1 0
vn 0.4999893 -0.8660315 4.371045E-08
vn 1.192093E-07 -1 0
vn 0.4999893 -0.8660315 4.371045E-08
vn 8.742277E-08 0 -1
vn 8.742277E-08 0 -1
vn 8.742277E-08 0 -1
vn 8.742277E-08 0 -1
vn 8.742277E-08 0 -1
vn 8.742277E-08 0 -1
vn 8.742277E-08 0 -1
vn 8.742277E-08 0 -1
vn 8.742277E-08 0 -1
vn 8.742277E-08 0 -1
vn 8.742277E-08 0 -1
vn 8.742277E-08 0 -1
g _Combined_Vis28_1_0
f 3/3/3 2/2/2 1/1/1
f 4/4/4 3/3/3 1/1/1
f 4/4/4 1/1/1 5/5/5
f 6/6/6 4/4/4 5/5/5
f 9/9/9 8/8/8 7/7/7
f 8/8/8 10/10/10 7/7/7
f 3/3/3 11/11/11 2/2/2
f 11/11/11 12/12/12 2/2/2
f 15/15/15 14/14/14 13/13/13
f 14/14/14 16/16/16 13/13/13
f 14/14/14 17/17/17 16/16/16
f 17/17/17 18/18/18 16/16/16
f 20/20/20 19/19/19 18/18/18
f 17/17/17 20/20/20 18/18/18
f 23/23/23 22/22/22 21/21/21
f 22/22/22 24/24/24 21/21/21
f 22/22/22 25/25/25 24/24/24
f 25/25/25 26/26/26 24/24/24
f 25/25/25 27/27/27 26/26/26
f 27/27/27 28/28/28 26/26/26
f 31/31/31 30/30/30 29/29/29
f 30/30/30 32/32/32 29/29/29
f 30/30/30 10/10/10 32/32/32
f 10/10/10 8/8/8 32/32/32
f 35/35/35 34/34/34 33/33/33
f 33/33/33 34/34/34 36/36/36
f 34/34/34 37/37/37 36/36/36
f 36/36/36 37/37/37 38/38/38
f 37/37/37 39/39/39 38/38/38
f 38/38/38 39/39/39 40/40/40
f 39/39/39 41/41/41 40/40/40
f 40/40/40 41/41/41 42/42/42
f 41/41/41 43/43/43 42/42/42
f 42/42/42 43/43/43 44/44/44
f 47/47/47 46/46/46 45/45/45
f 48/48/48 47/47/47 45/45/45
f 48/48/48 45/45/45 49/49/49
f 50/50/50 48/48/48 49/49/49
f 53/53/53 52/52/52 51/51/51
f 52/52/52 54/54/54 51/51/51
f 47/47/47 55/55/55 46/46/46
f 55/55/55 56/56/56 46/46/46
f 59/59/59 58/58/58 57/57/57
f 58/58/58 60/60/60 57/57/57
f 58/58/58 61/61/61 60/60/60
f 61/61/61 62/62/62 60/60/60
f 64/64/64 63/63/63 62/62/62
f 61/61/61 64/64/64 62/62/62
f 67/67/67 66/66/66 65/65/65
f 66/66/66 68/68/68 65/65/65
f 66/66/66 69/69/69 68/68/68
f 69/69/69 70/70/70 68/68/68
f 69/69/69 71/71/71 70/70/70
f 71/71/71 72/72/72 70/70/70
f 75/75/75 74/74/74 73/73/73
f 74/74/74 76/76/76 73/73/73
f 74/74/74 54/54/54 76/76/76
f 54/54/54 52/52/52 76/76/76
f 79/79/79 78/78/78 77/77/77
f 77/77/77 78/78/78 80/80/80
f 78/78/78 81/81/81 80/80/80
f 80/80/80 81/81/81 82/82/82
f 81/81/81 83/83/83 82/82/82
f 82/82/82 83/83/83 84/84/84
f 83/83/83 85/85/85 84/84/84
f 84/84/84 85/85/85 86/86/86
f 85/85/85 87/87/87 86/86/86
f 86/86/86 87/87/87 88/88/88
f 91/91/91 90/90/90 89/89/89
f 92/92/92 91/91/91 89/89/89
f 92/92/92 89/89/89 93/93/93
f 94/94/94 92/92/92 93/93/93
f 97/97/97 96/96/96 95/95/95
f 96/96/96 98/98/98 95/95/95
f 91/91/91 99/99/99 90/90/90
f 99/99/99 100/100/100 90/90/90
f 103/103/103 102/102/102 101/101/101
f 102/102/102 104/104/104 101/101/101
f 102/102/102 105/105/105 104/104/104
f 105/105/105 106/106/106 104/104/104
f 108/108/108 107/107/107 106/106/106
f 105/105/105 108/108/108 106/106/106
f 111/111/111 110/110/110 109/109/109
f 110/110/110 112/112/112 109/109/109
f 110/110/110 113/113/113 112/112/112
f 113/113/113 114/114/114 112/112/112
f 113/113/113 115/115/115 114/114/114
f 115/115/115 116/116/116 114/114/114
f 119/119/119 118/118/118 117/117/117
f 118/118/118 120/120/120 117/117/117
f 118/118/118 98/98/98 120/120/120
f 98/98/98 96/96/96 120/120/120
f 123/123/123 122/122/122 121/121/121
f 121/121/121 122/122/122 124/124/124
f 122/122/122 125/125/125 124/124/124
f 124/124/124 125/125/125 126/126/126
f 125/125/125 127/127/127 126/126/126
f 126/126/126 127/127/127 128/128/128
f 127/127/127 129/129/129 128/128/128
f 128/128/128 129/129/129 130/130/130
f 129/129/129 131/131/131 130/130/130
f 130/130/130 131/131/131 132/132/132
