g _Combined_Vis68_0
v -1.590993 0.275 -1.590988
v -4.686415E-07 0.275 -3.278255E-08
v -2.660491 0.2750001 -0.5214878
v -2.236226 0.2750001 -0.09722424
v -2.625134 0.2750001 0.291685
v -1.458406 0.2750001 1.45841
v -0.5214956 0.275 -2.660489
v -0.0972309 0.275 -2.236225
v 0.2916773 0.275 -2.625134
v 1.458405 0.275 -1.45841
v 1.590992 0.275 1.590988
v 0.5214947 0.2750001 2.660489
v 0.09722997 0.2750001 2.236225
v -0.2916782 0.2750001 2.625134
v 2.66049 0.275 0.5214877
v 2.236225 0.275 0.09722418
v 2.625133 0.275 -0.2916851
vt 0.328125 0.1621094
vt 0.328125 0.1328125
vt 0.2851563 0.1621094
vt 0.2851563 0.1542969
vt 0.2695313 0.1542969
vt 0.2695313 0.1328125
vt 0.2851563 0.1621094
vt 0.2851563 0.1542969
vt 0.2695313 0.1542969
vt 0.2695313 0.1328125
vt 0.328125 0.1621094
vt 0.2851563 0.1621094
vt 0.2851563 0.1542969
vt 0.2695313 0.1542969
vt 0.2851563 0.1621094
vt 0.2851563 0.1542969
vt 0.2695313 0.1542969
vn 2.980232E-08 1 -1.192093E-07
vn 2.980232E-08 1 -1.192093E-07
vn 2.980232E-08 1 -1.192093E-07
vn 2.980232E-08 1 -1.192093E-07
vn 2.980232E-08 1 -1.192093E-07
vn 2.980232E-08 1 -1.192093E-07
vn 2.980232E-08 1 -1.192093E-07
vn 2.980232E-08 1 -1.192093E-07
vn 2.980232E-08 1 -1.192093E-07
vn 2.980232E-08 1 -1.192093E-07
vn 2.980232E-08 1 -1.192093E-07
vn 2.980232E-08 1 -1.192093E-07
vn 2.980232E-08 1 -1.192093E-07
vn 2.980232E-08 1 -1.192093E-07
vn 2.980232E-08 1 -1.192093E-07
vn 2.980232E-08 1 -1.192093E-07
vn 2.980232E-08 1 -1.192093E-07
g _Combined_Vis68_0_0
f 3/3/3 2/2/2 1/1/1
f 3/3/3 4/4/4 2/2/2
f 2/2/2 4/4/4 5/5/5
f 2/2/2 5/5/5 6/6/6
f 2/2/2 7/7/7 1/1/1
f 8/8/8 7/7/7 2/2/2
f 8/8/8 2/2/2 9/9/9
f 9/9/9 2/2/2 10/10/10
f 2/2/2 12/12/12 11/11/11
f 13/13/13 12/12/12 2/2/2
f 13/13/13 2/2/2 14/14/14
f 14/14/14 2/2/2 6/6/6
f 15/15/15 2/2/2 11/11/11
f 15/15/15 16/16/16 2/2/2
f 2/2/2 16/16/16 17/17/17
f 2/2/2 17/17/17 10/10/10
