g _Combined_Vis0_0
v -0.5384324 1.390179 2.000004
v -0.5000034 3 2.000004
v -0.5000034 0.9999986 2.000004
v -0.6522437 1.765366 2.000004
v -0.8370635 2.11114 2.000004
v -1.085789 2.414213 2.000004
v -1.388862 2.662939 2.000004
v -1.734636 2.847759 2.000004
v -2.109823 2.961571 2.000004
v -2.500004 3 2.000004
v -2.500005 3.000001 1.000004
v -2.500004 3 2.000004
v -2.109823 2.961571 2.000004
v -2.109823 2.961571 1.000004
v -1.734636 2.847759 2.000004
v -1.734636 2.847759 1.000004
v -1.388862 2.662939 2.000004
v -1.388863 2.662939 1.000004
v -1.085789 2.414213 2.000004
v -1.08579 2.414213 1.000003
v -0.8370635 2.11114 2.000004
v -0.8370637 2.11114 1.000003
v -0.6522437 1.765366 2.000004
v -0.6522442 1.765366 1.000003
v -0.5384324 1.390179 2.000004
v -0.5384331 1.39018 1.000003
v -0.5000034 0.9999986 2.000004
v -0.500004 0.999999 1.000003
v -0.500004 0.999999 1.000003
v -0.5000035 3 1.000003
v -0.5384331 1.39018 1.000003
v -0.6522442 1.765366 1.000003
v -0.8370637 2.11114 1.000003
v -1.08579 2.414213 1.000003
v -1.388863 2.662939 1.000004
v -1.734636 2.847759 1.000004
v -2.109823 2.961571 1.000004
v -2.500005 3.000001 1.000004
v -0.5000035 1.390179 0.9615747
v -0.5000035 3 1.000003
v -0.500004 0.999999 1.000003
v -0.5000035 1.765366 0.8477634
v -0.5000035 2.11114 0.6629435
v -0.5000035 2.414213 0.4142179
v -0.5000037 2.662939 0.1111447
v -0.5000036 2.847759 -0.2346292
v -0.5000038 2.961571 -0.6098155
v -0.5000038 3 -0.9999965
v 0.4999966 3 -0.9999975
v -0.5000038 3 -0.9999965
v -0.5000038 2.961571 -0.6098155
v 0.4999966 2.961571 -0.609816
v -0.5000036 2.847759 -0.2346292
v 0.4999966 2.847759 -0.2346294
v -0.5000037 2.662939 0.1111447
v 0.4999967 2.662939 0.1111442
v -0.5000035 2.414213 0.4142179
v 0.4999968 2.414213 0.4142173
v 0.4999968 2.414213 0.4142173
v -0.5000035 2.414213 0.4142179
v -0.5000035 2.11114 0.6629435
v 0.4999968 2.11114 0.6629433
v -0.5000035 1.765366 0.8477634
v 0.4999968 1.765366 0.8477629
v -0.5000035 1.390179 0.9615747
v 0.4999968 1.39018 0.961574
v -0.500004 0.999999 1.000003
v 0.4999969 0.9999993 1.000003
v 0.4999969 0.9999993 1.000003
v 0.4999969 3 1.000003
v 0.4999968 1.39018 0.961574
v 0.4999968 1.765366 0.8477629
v 0.4999968 2.11114 0.6629433
v 0.4999968 2.414213 0.4142173
v 0.4999967 2.662939 0.1111442
v 0.4999966 2.847759 -0.2346294
v 0.4999966 2.961571 -0.609816
v 0.4999966 3 -0.9999975
v 0.4999958 1.390179 -2.96157
v 0.4999959 3 -2.999998
v 0.4999959 0.9999988 -2.999999
v 0.4999958 1.765366 -2.847758
v 0.4999959 2.11114 -2.662938
v 0.4999959 2.414213 -2.414213
v 0.4999961 2.662939 -2.11114
v 0.4999959 2.847759 -1.765366
v 0.4999962 2.961571 -1.390179
v 0.4999966 3 -0.9999975
v -0.5000038 3 -0.9999965
v 0.4999966 3 -0.9999975
v 0.4999962 2.961571 -1.390179
v -0.5000042 2.961571 -1.390179
v 0.4999959 2.847759 -1.765366
v -0.5000042 2.847759 -1.765365
v 0.4999961 2.662939 -2.11114
v -0.5000044 2.662939 -2.111139
v 0.4999959 2.414213 -2.414213
v -0.5000044 2.414213 -2.414212
v -0.5000044 2.414213 -2.414212
v 0.4999959 2.414213 -2.414213
v 0.4999959 2.11114 -2.662938
v -0.5000044 2.11114 -2.662938
v 0.4999958 1.765366 -2.847758
v -0.5000044 1.765366 -2.847758
v 0.4999958 1.390179 -2.96157
v -0.5000044 1.39018 -2.961569
v 0.4999959 0.9999988 -2.999999
v -0.5000045 0.9999993 -2.999998
v -0.5000045 0.9999993 -2.999998
v -0.5000045 3 -2.999998
v -0.5000044 1.39018 -2.961569
v -0.5000044 1.765366 -2.847758
v -0.5000044 2.11114 -2.662938
v -0.5000044 2.414213 -2.414212
v -0.5000044 2.662939 -2.111139
v -0.5000042 2.847759 -1.765365
v -0.5000042 2.961571 -1.390179
v -0.5000038 3 -0.9999965
v -0.5000037 -9.000001 1.000003
v 0.4999969 -8.999999 1.000003
v 0.499997 -8 1.000003
v -0.5000036 -8 1.000003
v -0.5000036 -8 1.000003
v 0.499997 -8 1.000003
v 0.499997 -7 1.000003
v -0.5000036 -7 1.000003
v 0.499997 -8 1.000003
v 0.4999968 -7.999999 2.000004
v 0.4999968 -7 2.000004
v 0.499997 -7 1.000003
v 0.499997 -7 1.000003
v 0.4999968 -7 2.000004
v 0.4999968 -6 2.000004
v 0.4999968 -6 1.000003
v -0.5000036 -7 1.000003
v 0.499997 -7 1.000003
v 0.4999968 -6 1.000003
v -0.5000036 -6 1.000003
v -0.5000036 -6 1.000003
v 0.4999968 -6 1.000003
v 0.499997 -5 1.000003
v -0.5000036 -5 1.000003
v 0.4999968 -6 1.000003
v 0.4999968 -6 2.000004
v 0.4999968 -5 2.000004
v 0.499997 -5 1.000003
v 0.499997 -5 1.000003
v 0.4999968 -5 2.000004
v 0.4999968 -4 2.000004
v 0.4999968 -4 1.000003
v -0.5000036 -5 1.000003
v 0.499997 -5 1.000003
v 0.4999968 -4 1.000003
v -0.5000036 -4 1.000003
v 0.4999968 -4 1.000003
v 0.4999968 -4 2.000004
v 0.4999968 -3 2.000004
v 0.4999968 -3 1.000003
v 0.4999969 -8.999999 1.000003
v 0.4999968 -8.999999 2.000004
v 0.4999968 -7.999999 2.000004
v 0.499997 -8 1.000003
v 0.4999968 -3 1.000003
v 0.4999968 -3 2.000004
v 0.4999968 -2 2.000004
v 0.4999968 -2 1.000003
v -0.5000037 -3.000001 1.000003
v 0.4999968 -3 1.000003
v 0.4999968 -2 1.000003
v -0.5000036 -2 1.000003
v -0.5000036 -2 1.000003
v 0.4999968 -2 1.000003
v 0.499997 -0.9999999 1.000003
v -0.5000036 -1 1.000003
v 0.4999968 -2 1.000003
v 0.4999968 -2 2.000004
v 0.4999968 -1 2.000004
v 0.499997 -0.9999999 1.000003
v 0.499997 -0.9999999 1.000003
v 0.4999968 -1 2.000004
v 0.4999968 0 2.000004
v 0.4999968 0 1.000003
v -0.5000036 -1 1.000003
v 0.499997 -0.9999999 1.000003
v 0.4999968 0 1.000003
v -0.5000036 0 1.000003
v -0.5000036 0 1.000003
v 0.4999968 0 1.000003
v 0.4999969 0.9999993 1.000003
v -0.500004 0.999999 1.000003
v 0.4999968 0 1.000003
v 0.4999968 0 2.000004
v 0.4999968 1 2.000004
v 0.4999969 0.9999993 1.000003
v -0.5000036 -4 1.000003
v 0.4999968 -4 1.000003
v 0.4999968 -3 1.000003
v -0.5000037 -3.000001 1.000003
v -0.5000046 -1.132488E-06 -3.999999
v 0.4999959 1.013279E-06 -3.999999
v 0.4999961 1 -3.999999
v -0.5000045 1 -3.999999
v 0.4999961 1 -3.999999
v 0.4999959 0.9999988 -2.999999
v 0.4999958 2 -2.999998
v 0.4999958 2 -3.999999
v -0.5000045 1 -3.999999
v 0.4999961 1 -3.999999
v 0.4999958 2 -3.999999
v -0.5000045 2 -3.999999
v -0.5000046 2.999999 -3.999999
v 0.4999959 3.000001 -3.999999
v 0.4999961 4 -3.999999
v -0.5000045 4 -3.999999
v 0.4999959 3.000001 -3.999999
v 0.4999959 3 -2.999998
v 0.4999958 4 -2.999998
v 0.4999961 4 -3.999999
v 0.4999959 3 -2.999998
v 0.4999958 3.000001 -1.999998
v 0.4999958 4 -1.999998
v 0.4999958 4 -2.999998
v 0.4999958 3.000001 -1.999998
v 0.4999966 3 -0.9999975
v 0.4999958 4 -0.9999979
v 0.4999958 4 -1.999998
v 0.4999966 3 -0.9999975
v 0.4999958 3.000001 3.33786E-06
v 0.4999958 4 3.33786E-06
v 0.4999958 4 -0.9999979
v 0.4999958 3.000001 3.33786E-06
v 0.4999969 3 1.000003
v 0.4999968 4 1.000004
v 0.4999958 4 3.33786E-06
v 0.4999969 3 1.000003
v 0.4999968 3.000001 2.000004
v 0.4999968 4 2.000004
v 0.4999968 4 1.000004
v 0.4999968 4 1.000004
v 0.4999968 4 2.000004
v -0.5000036 4 2.000004
v -0.5000036 4 1.000003
v 0.4999958 4 3.33786E-06
v 0.4999968 4 1.000004
v -0.5000036 4 1.000003
v -0.5000036 4 3.039837E-06
v 0.4999958 4 -0.9999979
v 0.4999958 4 3.33786E-06
v -0.5000036 4 3.039837E-06
v -0.5000045 4 -0.9999972
v 0.4999958 4 -1.999998
v 0.4999958 4 -0.9999979
v -0.5000045 4 -0.9999972
v -0.5000045 4 -1.999998
v 0.4999958 4 -2.999998
v 0.4999958 4 -1.999998
v -0.5000045 4 -1.999998
v -0.5000045 4 -2.999999
v 0.4999961 4 -3.999999
v 0.4999958 4 -2.999998
v -0.5000045 4 -2.999999
v -0.5000045 4 -3.999999
v -0.5000036 4 1.000003
v -0.5000036 4 2.000004
v -1.500004 4 2.000004
v -1.500004 4 1.000003
v -1.500004 4 1.000003
v -1.500004 4 2.000004
v -2.500005 4 2.000005
v -2.500005 4 1.000004
v -1.500003 3 1.000004
v -1.500004 4 1.000003
v -2.500005 4 1.000004
v -2.500005 3.000001 1.000004
v -0.5000035 3 1.000003
v -0.5000036 4 1.000003
v -1.500004 4 1.000003
v -1.500003 3 1.000004
v 0.4999958 2 -3.999999
v 0.4999958 2 -2.999998
v 0.4999959 3 -2.999998
v 0.4999959 3.000001 -3.999999
v -0.5000045 2 -3.999999
v 0.4999958 2 -3.999999
v 0.4999959 3.000001 -3.999999
v -0.5000046 2.999999 -3.999999
v 0.4999969 0.9999993 1.000003
v 0.4999968 1 2.000004
v 0.4999968 2 2.000004
v 0.4999968 2 1.000003
v 0.4999968 2 1.000003
v 0.4999968 2 2.000004
v 0.4999968 3.000001 2.000004
v 0.4999969 3 1.000003
vt 0.9565789 0.3112633
vt 0.9062721 0.3124642
vt 0.9687721 0.3124642
vt 0.9448543 0.3077067
vt 0.9340489 0.3019311
vt 0.9245779 0.2941585
vt 0.9168052 0.2846874
vt 0.9110296 0.273882
vt 0.907473 0.2621574
vt 0.9062721 0.2499643
vt 0.8440674 0.3125213
vt 0.9062499 0.3125214
vt 0.9062499 0.2968989
vt 0.8440674 0.2968988
vt 0.9062499 0.2812764
vt 0.8440674 0.2812763
vt 0.90625 0.2656539
vt 0.8440675 0.2656538
vt 0.90625 0.2500314
vt 0.8440675 0.2500313
vt 0.90625 0.2344089
vt 0.8440676 0.2344088
vt 0.9062501 0.2187864
vt 0.8440676 0.2187863
vt 0.9062501 0.2031638
vt 0.8440676 0.2031638
vt 0.9062501 0.1875413
vt 0.8440676 0.1875413
vt 0.968772 0.2499673
vt 0.9062721 0.2499673
vt 0.9565789 0.2487664
vt 0.9448543 0.2452098
vt 0.9340489 0.2394342
vt 0.9245778 0.2316616
vt 0.9168052 0.2221905
vt 0.9110296 0.2113851
vt 0.907473 0.1996605
vt 0.9062721 0.1874674
vt 0.9565789 0.3112633
vt 0.9062721 0.3124642
vt 0.9687721 0.3124642
vt 0.9448543 0.3077067
vt 0.9340489 0.3019311
vt 0.9245779 0.2941585
vt 0.9168052 0.2846874
vt 0.9110296 0.273882
vt 0.907473 0.2621574
vt 0.9062721 0.2499643
vt 0.8440674 0.3125213
vt 0.9062499 0.3125214
vt 0.9062499 0.2968989
vt 0.8440674 0.2968988
vt 0.9062499 0.2812764
vt 0.8440674 0.2812763
vt 0.90625 0.2656539
vt 0.8440675 0.2656538
vt 0.90625 0.2500314
vt 0.8440675 0.2500313
vt 0.8440675 0.2500313
vt 0.90625 0.2500314
vt 0.90625 0.2344089
vt 0.8440676 0.2344088
vt 0.9062501 0.2187864
vt 0.8440676 0.2187863
vt 0.9062501 0.2031638
vt 0.8440676 0.2031638
vt 0.9062501 0.1875413
vt 0.8440676 0.1875413
vt 0.968772 0.2499673
vt 0.9062721 0.2499673
vt 0.9565789 0.2487664
vt 0.9448543 0.2452098
vt 0.9340489 0.2394342
vt 0.9245778 0.2316616
vt 0.9168052 0.2221905
vt 0.9110296 0.2113851
vt 0.907473 0.1996605
vt 0.9062721 0.1874674
vt 0.9565789 0.3112633
vt 0.9062721 0.3124642
vt 0.9687721 0.3124642
vt 0.9448543 0.3077067
vt 0.9340489 0.3019311
vt 0.9245779 0.2941585
vt 0.9168052 0.2846874
vt 0.9110296 0.273882
vt 0.907473 0.2621574
vt 0.9062721 0.2499643
vt 0.8440674 0.3125213
vt 0.9062499 0.3125214
vt 0.9062499 0.2968989
vt 0.8440674 0.2968988
vt 0.9062499 0.2812764
vt 0.8440674 0.2812763
vt 0.90625 0.2656539
vt 0.8440675 0.2656538
vt 0.90625 0.2500314
vt 0.8440675 0.2500313
vt 0.8440675 0.2500313
vt 0.90625 0.2500314
vt 0.90625 0.2344089
vt 0.8440676 0.2344088
vt 0.9062501 0.2187864
vt 0.8440676 0.2187863
vt 0.9062501 0.2031638
vt 0.8440676 0.2031638
vt 0.9062501 0.1875413
vt 0.8440676 0.1875413
vt 0.968772 0.2499673
vt 0.9062721 0.2499673
vt 0.9565789 0.2487664
vt 0.9448543 0.2452098
vt 0.9340489 0.2394342
vt 0.9245778 0.2316616
vt 0.9168052 0.2221905
vt 0.9110296 0.2113851
vt 0.907473 0.1996605
vt 0.9062721 0.1874674
vt 0.96875 0.3125
vt 0.96875 0.1875
vt 0.84375 0.1875
vt 0.84375 0.3125
vt 0.96875 0.3125
vt 0.96875 0.1875
vt 0.84375 0.1875
vt 0.84375 0.3125
vt 0.96875 0.3125
vt 0.96875 0.1875
vt 0.84375 0.1875
vt 0.84375 0.3125
vt 0.96875 0.3125
vt 0.96875 0.1875
vt 0.84375 0.1875
vt 0.84375 0.3125
vt 0.96875 0.3125
vt 0.96875 0.1875
vt 0.84375 0.1875
vt 0.84375 0.3125
vt 0.96875 0.3125
vt 0.96875 0.1875
vt 0.84375 0.1875
vt 0.84375 0.3125
vt 0.96875 0.3125
vt 0.96875 0.1875
vt 0.84375 0.1875
vt 0.84375 0.3125
vt 0.96875 0.3125
vt 0.96875 0.1875
vt 0.84375 0.1875
vt 0.84375 0.3125
vt 0.96875 0.3125
vt 0.96875 0.1875
vt 0.84375 0.1875
vt 0.84375 0.3125
vt 0.96875 0.3125
vt 0.96875 0.1875
vt 0.84375 0.1875
vt 0.84375 0.3125
vt 0.96875 0.3125
vt 0.96875 0.1875
vt 0.84375 0.1875
vt 0.84375 0.3125
vt 0.96875 0.3125
vt 0.96875 0.1875
vt 0.84375 0.1875
vt 0.84375 0.3125
vt 0.96875 0.3125
vt 0.96875 0.1875
vt 0.84375 0.1875
vt 0.84375 0.3125
vt 0.96875 0.3125
vt 0.96875 0.1875
vt 0.84375 0.1875
vt 0.84375 0.3125
vt 0.96875 0.3125
vt 0.96875 0.1875
vt 0.84375 0.1875
vt 0.84375 0.3125
vt 0.96875 0.3125
vt 0.96875 0.1875
vt 0.84375 0.1875
vt 0.84375 0.3125
vt 0.96875 0.3125
vt 0.96875 0.1875
vt 0.84375 0.1875
vt 0.84375 0.3125
vt 0.96875 0.3125
vt 0.96875 0.1875
vt 0.84375 0.1875
vt 0.84375 0.3125
vt 0.96875 0.3125
vt 0.96875 0.1875
vt 0.84375 0.1875
vt 0.84375 0.3125
vt 0.96875 0.3125
vt 0.96875 0.1875
vt 0.84375 0.1875
vt 0.84375 0.3125
vt 0.96875 0.3125
vt 0.96875 0.1875
vt 0.84375 0.1875
vt 0.84375 0.3125
vt 0.96875 0.3125
vt 0.96875 0.1875
vt 0.84375 0.1875
vt 0.84375 0.3125
vt 0.96875 0.3125
vt 0.96875 0.1875
vt 0.84375 0.1875
vt 0.84375 0.3125
vt 0.96875 0.3125
vt 0.96875 0.1875
vt 0.84375 0.1875
vt 0.84375 0.3125
vt 0.96875 0.3125
vt 0.96875 0.1875
vt 0.84375 0.1875
vt 0.84375 0.3125
vt 0.96875 0.3125
vt 0.96875 0.1875
vt 0.84375 0.1875
vt 0.84375 0.3125
vt 0.96875 0.3125
vt 0.96875 0.1875
vt 0.84375 0.1875
vt 0.84375 0.3125
vt 0.96875 0.3125
vt 0.96875 0.1875
vt 0.84375 0.1875
vt 0.84375 0.3125
vt 0.96875 0.3125
vt 0.96875 0.1875
vt 0.84375 0.1875
vt 0.84375 0.3125
vt 0.96875 0.3125
vt 0.96875 0.1875
vt 0.84375 0.1875
vt 0.84375 0.3125
vt 0.78125 0.3125
vt 0.78125 0.1875
vt 0.65625 0.1875
vt 0.65625 0.3125
vt 0.96875 0.3125
vt 0.96875 0.1875
vt 0.84375 0.1875
vt 0.84375 0.3125
vt 0.78125 0.3125
vt 0.78125 0.1875
vt 0.65625 0.1875
vt 0.65625 0.3125
vt 0.96875 0.3125
vt 0.96875 0.1875
vt 0.84375 0.1875
vt 0.84375 0.3125
vt 0.78125 0.3125
vt 0.78125 0.1875
vt 0.65625 0.1875
vt 0.65625 0.3125
vt 0.78125 0.3125
vt 0.78125 0.1875
vt 0.65625 0.1875
vt 0.65625 0.3125
vt 0.78125 0.3125
vt 0.78125 0.1875
vt 0.65625 0.1875
vt 0.65625 0.3125
vt 0.96875 0.3125
vt 0.96875 0.1875
vt 0.84375 0.1875
vt 0.84375 0.3125
vt 0.96875 0.3125
vt 0.96875 0.1875
vt 0.84375 0.1875
vt 0.84375 0.3125
vt 0.96875 0.3125
vt 0.96875 0.1875
vt 0.84375 0.1875
vt 0.84375 0.3125
vt 0.96875 0.3125
vt 0.96875 0.1875
vt 0.84375 0.1875
vt 0.84375 0.3125
vt 0.96875 0.3125
vt 0.96875 0.1875
vt 0.84375 0.1875
vt 0.84375 0.3125
vt 0.96875 0.3125
vt 0.96875 0.1875
vt 0.84375 0.1875
vt 0.84375 0.3125
vt 0.96875 0.3125
vt 0.96875 0.1875
vt 0.84375 0.1875
vt 0.84375 0.3125
vn 0 0 1
vn 0 0 1
vn 0 0 1
vn 0 0 1
vn 0 0 1
vn 0 0 1
vn 0 0 1
vn 0 0 1
vn 0 0 1
vn 0 0 1
vn -1.192093E-07 -1 0
vn -1.192093E-07 -1 0
vn -0.1950906 -0.9807853 0
vn -0.1950906 -0.9807853 0
vn -0.382684 -0.9238793 0
vn -0.382684 -0.9238793 0
vn -0.5555708 -0.8314693 0
vn -0.5555708 -0.8314693 0
vn -0.7071069 -0.7071066 0
vn -0.707107 -0.7071066 0
vn -0.83147 -0.5555697 0
vn -0.83147 -0.5555697 0
vn -0.92388 -0.3826824 0
vn -0.92388 -0.3826825 0
vn -0.9807855 -0.1950893 0
vn -0.9807855 -0.1950893 0
vn -1 1.192092E-07 0
vn -1 1.192092E-07 0
vn 0 0 -1
vn 0 0 -1
vn 0 0 -1
vn 0 0 -1
vn 0 0 -1
vn 0 0 -1
vn 0 0 -1
vn 0 0 -1
vn 0 0 -1
vn 0 0 -1
vn -1 0 0
vn -1 0 0
vn -1 0 0
vn -1 0 0
vn -1 0 0
vn -1 0 0
vn -1 0 0
vn -1 0 0
vn -1 0 0
vn -1 0 0
vn 0 -1 0
vn 0 -1 0
vn 0 -0.9807853 -0.1950905
vn 0 -0.9807853 -0.1950905
vn 0 -0.9238793 -0.3826838
vn 0 -0.9238793 -0.3826838
vn 0 -0.8314694 -0.5555707
vn 0 -0.8314694 -0.5555707
vn 0 -0.7071066 -0.7071069
vn 0 -0.7071066 -0.7071069
vn 0 -0.7071066 -0.7071069
vn 0 -0.7071066 -0.7071069
vn 0 -0.5555698 -0.8314699
vn 0 -0.5555698 -0.8314699
vn 0 -0.3826825 -0.9238799
vn 0 -0.3826826 -0.9238799
vn 0 -0.1950894 -0.9807855
vn 0 -0.1950894 -0.9807855
vn 0 0 -1
vn 0 0 -1
vn 1 0 0
vn 1 0 0
vn 1 0 0
vn 1 0 0
vn 1 0 0
vn 1 0 0
vn 1 0 0
vn 1 0 0
vn 1 0 0
vn 1 0 0
vn 1 0 0
vn 1 0 0
vn 1 0 0
vn 1 0 0
vn 1 0 0
vn 1 0 0
vn 1 0 0
vn 1 0 0
vn 1 0 0
vn 1 0 0
vn 0 -1 0
vn 0 -1 0
vn 0 -0.9807853 0.1950905
vn 0 -0.9807853 0.1950905
vn 0 -0.9238793 0.3826838
vn 0 -0.9238793 0.3826838
vn 0 -0.8314694 0.5555707
vn 0 -0.8314694 0.5555707
vn 0 -0.7071066 0.7071069
vn 0 -0.7071066 0.7071069
vn 0 -0.7071066 0.7071069
vn 0 -0.7071066 0.7071069
vn 0 -0.5555698 0.8314699
vn 0 -0.5555698 0.8314699
vn 0 -0.3826825 0.9238799
vn 0 -0.3826826 0.9238799
vn 0 -0.1950894 0.9807855
vn 0 -0.1950894 0.9807855
vn 0 0 1
vn 0 0 1
vn -1 0 0
vn -1 0 0
vn -1 0 0
vn -1 0 0
vn -1 0 0
vn -1 0 0
vn -1 0 0
vn -1 0 0
vn -1 0 0
vn -1 0 0
vn 8.742276E-08 0 -1
vn 8.742276E-08 0 -1
vn 8.742276E-08 0 -1
vn 8.742276E-08 0 -1
vn 8.742276E-08 0 -1
vn 8.742276E-08 0 -1
vn 8.742276E-08 0 -1
vn 8.742276E-08 0 -1
vn 1 0 0
vn 1 0 0
vn 1 0 0
vn 1 0 0
vn 1 0 0
vn 1 0 0
vn 1 0 0
vn 1 0 0
vn 8.742276E-08 0 -1
vn 8.742276E-08 0 -1
vn 8.742276E-08 0 -1
vn 8.742276E-08 0 -1
vn 8.742276E-08 0 -1
vn 8.742276E-08 0 -1
vn 8.742276E-08 0 -1
vn 8.742276E-08 0 -1
vn 1 0 0
vn 1 0 0
vn 1 0 0
vn 1 0 0
vn 1 0 0
vn 1 0 0
vn 1 0 0
vn 1 0 0
vn 8.742276E-08 0 -1
vn 8.742276E-08 0 -1
vn 8.742276E-08 0 -1
vn 8.742276E-08 0 -1
vn 1 0 0
vn 1 0 0
vn 1 0 0
vn 1 0 0
vn 1 0 0
vn 1 0 0
vn 1 0 0
vn 1 0 0
vn 1 0 0
vn 1 0 0
vn 1 0 0
vn 1 0 0
vn 8.742276E-08 0 -1
vn 8.742276E-08 0 -1
vn 8.742276E-08 0 -1
vn 8.742276E-08 0 -1
vn 8.742276E-08 0 -1
vn 8.742276E-08 0 -1
vn 8.742276E-08 0 -1
vn 8.742276E-08 0 -1
vn 1 0 0
vn 1 0 0
vn 1 0 0
vn 1 0 0
vn 1 0 0
vn 1 0 0
vn 1 0 0
vn 1 0 0
vn 8.742276E-08 0 -1
vn 8.742276E-08 0 -1
vn 8.742276E-08 0 -1
vn 8.742276E-08 0 -1
vn 8.742276E-08 0 -1
vn 8.742276E-08 0 -1
vn 8.742276E-08 0 -1
vn 8.742276E-08 0 -1
vn 1 0 0
vn 1 0 0
vn 1 0 0
vn 1 0 0
vn 8.742276E-08 0 -1
vn 8.742276E-08 0 -1
vn 8.742276E-08 0 -1
vn 8.742276E-08 0 -1
vn 8.742276E-08 0 -1
vn 8.742276E-08 0 -1
vn 8.742276E-08 0 -1
vn 8.742276E-08 0 -1
vn 1 0 0
vn 1 0 0
vn 1 0 0
vn 1 0 0
vn 8.742276E-08 0 -1
vn 8.742276E-08 0 -1
vn 8.742276E-08 0 -1
vn 8.742276E-08 0 -1
vn 8.742276E-08 0 -1
vn 8.742276E-08 0 -1
vn 8.742276E-08 0 -1
vn 8.742276E-08 0 -1
vn 1 0 0
vn 1 0 0
vn 1 0 0
vn 1 0 0
vn 1 0 0
vn 1 0 0
vn 1 0 0
vn 1 0 0
vn 1 0 0
vn 1 0 0
vn 1 0 0
vn 1 0 0
vn 1 0 0
vn 1 0 0
vn 1 0 0
vn 1 0 0
vn 1 0 0
vn 1 0 0
vn 1 0 0
vn 1 0 0
vn 1 0 0
vn 1 0 0
vn 1 0 0
vn 1 0 0
vn 0 1 -1.192093E-07
vn 0 1 -1.192093E-07
vn 0 1 -1.192093E-07
vn 0 1 -1.192093E-07
vn 0 1 -1.192093E-07
vn 0 1 -1.192093E-07
vn 0 1 -1.192093E-07
vn 0 1 -1.192093E-07
vn 0 1 -1.192093E-07
vn 0 1 -1.192093E-07
vn 0 1 -1.192093E-07
vn 0 1 -1.192093E-07
vn 0 1 -1.192093E-07
vn 0 1 -1.192093E-07
vn 0 1 -1.192093E-07
vn 0 1 -1.192093E-07
vn 0 1 -1.192093E-07
vn 0 1 -1.192093E-07
vn 0 1 -1.192093E-07
vn 0 1 -1.192093E-07
vn 0 1 -1.192093E-07
vn 0 1 -1.192093E-07
vn 0 1 -1.192093E-07
vn 0 1 -1.192093E-07
vn 0 1 -1.192093E-07
vn 0 1 -1.192093E-07
vn 0 1 -1.192093E-07
vn 0 1 -1.192093E-07
vn 0 1 -1.192093E-07
vn 0 1 -1.192093E-07
vn 0 1 -1.192093E-07
vn 0 1 -1.192093E-07
vn 8.742278E-08 0 -1
vn 8.742278E-08 0 -1
vn 8.742278E-08 0 -1
vn 8.742278E-08 0 -1
vn 8.742278E-08 0 -1
vn 8.742278E-08 0 -1
vn 8.742278E-08 0 -1
vn 8.742278E-08 0 -1
vn 1 0 0
vn 1 0 0
vn 1 0 0
vn 1 0 0
vn 8.742276E-08 0 -1
vn 8.742276E-08 0 -1
vn 8.742276E-08 0 -1
vn 8.742276E-08 0 -1
vn 1 0 0
vn 1 0 0
vn 1 0 0
vn 1 0 0
vn 1 0 0
vn 1 0 0
vn 1 0 0
vn 1 0 0
g _Combined_Vis0_0_0
f 3/3/3 2/2/2 1/1/1
f 1/1/1 2/2/2 4/4/4
f 4/4/4 2/2/2 5/5/5
f 5/5/5 2/2/2 6/6/6
f 6/6/6 2/2/2 7/7/7
f 7/7/7 2/2/2 8/8/8
f 8/8/8 2/2/2 9/9/9
f 9/9/9 2/2/2 10/10/10
f 13/13/13 12/12/12 11/11/11
f 14/14/14 13/13/13 11/11/11
f 15/15/15 13/13/13 14/14/14
f 16/16/16 15/15/15 14/14/14
f 17/17/17 15/15/15 16/16/16
f 18/18/18 17/17/17 16/16/16
f 19/19/19 17/17/17 18/18/18
f 20/20/20 19/19/19 18/18/18
f 21/21/21 19/19/19 20/20/20
f 22/22/22 21/21/21 20/20/20
f 23/23/23 21/21/21 22/22/22
f 24/24/24 23/23/23 22/22/22
f 25/25/25 23/23/23 24/24/24
f 26/26/26 25/25/25 24/24/24
f 27/27/27 25/25/25 26/26/26
f 28/28/28 27/27/27 26/26/26
f 31/31/31 30/30/30 29/29/29
f 32/32/32 30/30/30 31/31/31
f 33/33/33 30/30/30 32/32/32
f 34/34/34 30/30/30 33/33/33
f 35/35/35 30/30/30 34/34/34
f 36/36/36 30/30/30 35/35/35
f 37/37/37 30/30/30 36/36/36
f 38/38/38 30/30/30 37/37/37
f 41/41/41 40/40/40 39/39/39
f 39/39/39 40/40/40 42/42/42
f 42/42/42 40/40/40 43/43/43
f 43/43/43 40/40/40 44/44/44
f 44/44/44 40/40/40 45/45/45
f 45/45/45 40/40/40 46/46/46
f 46/46/46 40/40/40 47/47/47
f 47/47/47 40/40/40 48/48/48
f 51/51/51 50/50/50 49/49/49
f 52/52/52 51/51/51 49/49/49
f 53/53/53 51/51/51 52/52/52
f 54/54/54 53/53/53 52/52/52
f 55/55/55 53/53/53 54/54/54
f 56/56/56 55/55/55 54/54/54
f 57/57/57 55/55/55 56/56/56
f 58/58/58 57/57/57 56/56/56
f 61/61/61 60/60/60 59/59/59
f 62/62/62 61/61/61 59/59/59
f 63/63/63 61/61/61 62/62/62
f 64/64/64 63/63/63 62/62/62
f 65/65/65 63/63/63 64/64/64
f 66/66/66 65/65/65 64/64/64
f 67/67/67 65/65/65 66/66/66
f 68/68/68 67/67/67 66/66/66
f 71/71/71 70/70/70 69/69/69
f 72/72/72 70/70/70 71/71/71
f 73/73/73 70/70/70 72/72/72
f 74/74/74 70/70/70 73/73/73
f 75/75/75 70/70/70 74/74/74
f 76/76/76 70/70/70 75/75/75
f 77/77/77 70/70/70 76/76/76
f 78/78/78 70/70/70 77/77/77
f 81/81/81 80/80/80 79/79/79
f 79/79/79 80/80/80 82/82/82
f 82/82/82 80/80/80 83/83/83
f 83/83/83 80/80/80 84/84/84
f 84/84/84 80/80/80 85/85/85
f 85/85/85 80/80/80 86/86/86
f 86/86/86 80/80/80 87/87/87
f 87/87/87 80/80/80 88/88/88
f 91/91/91 90/90/90 89/89/89
f 92/92/92 91/91/91 89/89/89
f 93/93/93 91/91/91 92/92/92
f 94/94/94 93/93/93 92/92/92
f 95/95/95 93/93/93 94/94/94
f 96/96/96 95/95/95 94/94/94
f 97/97/97 95/95/95 96/96/96
f 98/98/98 97/97/97 96/96/96
f 101/101/101 100/100/100 99/99/99
f 102/102/102 101/101/101 99/99/99
f 103/103/103 101/101/101 102/102/102
f 104/104/104 103/103/103 102/102/102
f 105/105/105 103/103/103 104/104/104
f 106/106/106 105/105/105 104/104/104
f 107/107/107 105/105/105 106/106/106
f 108/108/108 107/107/107 106/106/106
f 111/111/111 110/110/110 109/109/109
f 112/112/112 110/110/110 111/111/111
f 113/113/113 110/110/110 112/112/112
f 114/114/114 110/110/110 113/113/113
f 115/115/115 110/110/110 114/114/114
f 116/116/116 110/110/110 115/115/115
f 117/117/117 110/110/110 116/116/116
f 118/118/118 110/110/110 117/117/117
f 121/121/121 120/120/120 119/119/119
f 122/122/122 121/121/121 119/119/119
f 125/125/125 124/124/124 123/123/123
f 126/126/126 125/125/125 123/123/123
f 129/129/129 128/128/128 127/127/127
f 130/130/130 129/129/129 127/127/127
f 133/133/133 132/132/132 131/131/131
f 134/134/134 133/133/133 131/131/131
f 137/137/137 136/136/136 135/135/135
f 138/138/138 137/137/137 135/135/135
f 141/141/141 140/140/140 139/139/139
f 142/142/142 141/141/141 139/139/139
f 145/145/145 144/144/144 143/143/143
f 146/146/146 145/145/145 143/143/143
f 149/149/149 148/148/148 147/147/147
f 150/150/150 149/149/149 147/147/147
f 153/153/153 152/152/152 151/151/151
f 154/154/154 153/153/153 151/151/151
f 157/157/157 156/156/156 155/155/155
f 158/158/158 157/157/157 155/155/155
f 161/161/161 160/160/160 159/159/159
f 162/162/162 161/161/161 159/159/159
f 165/165/165 164/164/164 163/163/163
f 166/166/166 165/165/165 163/163/163
f 169/169/169 168/168/168 167/167/167
f 170/170/170 169/169/169 167/167/167
f 173/173/173 172/172/172 171/171/171
f 174/174/174 173/173/173 171/171/171
f 177/177/177 176/176/176 175/175/175
f 178/178/178 177/177/177 175/175/175
f 181/181/181 180/180/180 179/179/179
f 182/182/182 181/181/181 179/179/179
f 185/185/185 184/184/184 183/183/183
f 186/186/186 185/185/185 183/183/183
f 189/189/189 188/188/188 187/187/187
f 190/190/190 189/189/189 187/187/187
f 193/193/193 192/192/192 191/191/191
f 194/194/194 193/193/193 191/191/191
f 197/197/197 196/196/196 195/195/195
f 198/198/198 197/197/197 195/195/195
f 201/201/201 200/200/200 199/199/199
f 202/202/202 201/201/201 199/199/199
f 205/205/205 204/204/204 203/203/203
f 206/206/206 205/205/205 203/203/203
f 209/209/209 208/208/208 207/207/207
f 210/210/210 209/209/209 207/207/207
f 213/213/213 212/212/212 211/211/211
f 214/214/214 213/213/213 211/211/211
f 217/217/217 216/216/216 215/215/215
f 218/218/218 217/217/217 215/215/215
f 221/221/221 220/220/220 219/219/219
f 222/222/222 221/221/221 219/219/219
f 225/225/225 224/224/224 223/223/223
f 226/226/226 225/225/225 223/223/223
f 229/229/229 228/228/228 227/227/227
f 230/230/230 229/229/229 227/227/227
f 233/233/233 232/232/232 231/231/231
f 234/234/234 233/233/233 231/231/231
f 237/237/237 236/236/236 235/235/235
f 238/238/238 237/237/237 235/235/235
f 241/241/241 240/240/240 239/239/239
f 242/242/242 241/241/241 239/239/239
f 245/245/245 244/244/244 243/243/243
f 246/246/246 245/245/245 243/243/243
f 249/249/249 248/248/248 247/247/247
f 250/250/250 249/249/249 247/247/247
f 253/253/253 252/252/252 251/251/251
f 254/254/254 253/253/253 251/251/251
f 257/257/257 256/256/256 255/255/255
f 258/258/258 257/257/257 255/255/255
f 261/261/261 260/260/260 259/259/259
f 262/262/262 261/261/261 259/259/259
f 265/265/265 264/264/264 263/263/263
f 266/266/266 265/265/265 263/263/263
f 269/269/269 268/268/268 267/267/267
f 270/270/270 269/269/269 267/267/267
f 273/273/273 272/272/272 271/271/271
f 274/274/274 273/273/273 271/271/271
f 277/277/277 276/276/276 275/275/275
f 278/278/278 277/277/277 275/275/275
f 281/281/281 280/280/280 279/279/279
f 282/282/282 281/281/281 279/279/279
f 285/285/285 284/284/284 283/283/283
f 286/286/286 285/285/285 283/283/283
f 289/289/289 288/288/288 287/287/287
f 290/290/290 289/289/289 287/287/287
f 293/293/293 292/292/292 291/291/291
f 294/294/294 293/293/293 291/291/291
