g _Combined_Vis16_1
v -0.5 11.75 0.7499999
v -0.5 11.75 1.75
v -1 13.75 1.25
v -0.5 11.75 1.75
v -1.5 11.75 1.75
v -1 13.75 1.25
v -1.5 11.75 1.75
v -1.5 11.75 0.7499999
v -1 13.75 1.25
v -1 13.75 1.25
v -1.5 11.75 0.7499999
v -0.5 11.75 0.7499999
v -0.5 11.75 0.7499999
v -1.5 11.75 0.7499999
v -1.5 11.75 1.75
v -0.5 11.75 1.75
vt 0.890625 0.234375
vt 0.765625 0.234375
vt 0.828125 0.359375
vt 0.890625 0.234375
vt 0.765625 0.234375
vt 0.828125 0.359375
vt 0.765625 0.234375
vt 0.890625 0.234375
vt 0.828125 0.359375
vt 0.828125 0.359375
vt 0.765625 0.234375
vt 0.890625 0.234375
vt 0.890625 0.359375
vt 0.859375 0.359375
vt 0.859375 0.328125
vt 0.890625 0.328125
vn 0.9701445 0.2425278 -2.891157E-08
vn 0.9701445 0.2425278 -2.891157E-08
vn 0.9701445 0.2425278 -2.891157E-08
vn 0 0.2425279 0.9701445
vn 0 0.2425279 0.9701445
vn 0 0.2425279 0.9701445
vn -0.9701445 0.2425278 -2.891157E-08
vn -0.9701445 0.2425278 -2.891157E-08
vn -0.9701445 0.2425278 -2.891157E-08
vn 0 0.2425277 -0.9701445
vn 0 0.2425277 -0.9701445
vn 0 0.2425277 -0.9701445
vn 0 -1 1.192093E-07
vn 0 -1 1.192093E-07
vn 0 -1 1.192093E-07
vn 0 -1 1.192093E-07
g _Combined_Vis16_1_0
f 3/3/3 2/2/2 1/1/1
f 6/6/6 5/5/5 4/4/4
f 9/9/9 8/8/8 7/7/7
f 12/12/12 11/11/11 10/10/10
f 15/15/15 14/14/14 13/13/13
f 16/16/16 15/15/15 13/13/13
