g _Combined_Vis12_0
v 2.5 0.2500001 1.03316E-07
v 2.5 0.2500002 -1
v 2.5 2.086163E-07 -1
v 2.5 8.940697E-08 1.331184E-07
v 1.500001 0.2500002 -1
v 1.499999 0.2500001 1.589316E-08
v 1.5 8.940697E-08 4.569557E-08
v 1.5 2.086163E-07 -1
v 2.5 0.2500002 -1
v 1.500001 0.2500002 -1
v 1.5 2.086163E-07 -1
v 2.5 2.086163E-07 -1
v 1.499999 0.2500001 1.589316E-08
v 2.5 0.2500001 1.03316E-07
v 2.5 8.940697E-08 1.331184E-07
v 1.5 8.940697E-08 4.569557E-08
v 1.5 8.940697E-08 4.569557E-08
v 2.5 8.940697E-08 1.331184E-07
v 2.5 2.086163E-07 -1
v 1.5 2.086163E-07 -1
v -0.2499999 -0.5000002 -1
v 0.2500002 -0.5000001 -1
v 0.2500002 -0.5000001 -1.25
v -0.2499999 -0.5000002 -1.25
v 0.2500001 -4.768373E-07 -1
v -0.25 4.768373E-07 -1
v -0.25 -2.980233E-08 -1.25
v 0.2500001 2.980233E-08 -1.25
v 0.2500002 -0.5000001 -1
v 0.2500001 -4.768373E-07 -1
v 0.2500001 2.980233E-08 -1.25
v 0.2500002 -0.5000001 -1.25
v -0.25 4.768373E-07 -1
v -0.2499999 -0.5000002 -1
v -0.2499999 -0.5000002 -1.25
v -0.25 -2.980233E-08 -1.25
v -0.25 -2.980233E-08 -1.25
v -0.2499999 -0.5000002 -1.25
v 0.2500002 -0.5000001 -1.25
v 0.2500001 2.980233E-08 -1.25
v -1.5 0.2499996 1.03316E-07
v -1.5 0.2499998 -1
v -1.5 -2.682209E-07 -1
v -1.5 -3.874302E-07 1.331184E-07
v -2.499999 0.2499998 -1
v -2.500001 0.2499996 1.589316E-08
v -2.5 -3.874302E-07 4.569557E-08
v -2.5 -2.682209E-07 -1
v -1.5 0.2499998 -1
v -2.499999 0.2499998 -1
v -2.5 -2.682209E-07 -1
v -1.5 -2.682209E-07 -1
v -2.500001 0.2499996 1.589316E-08
v -1.5 0.2499996 1.03316E-07
v -1.5 -3.874302E-07 1.331184E-07
v -2.5 -3.874302E-07 4.569557E-08
v -2.5 -3.874302E-07 4.569557E-08
v -1.5 -3.874302E-07 1.331184E-07
v -1.5 -2.682209E-07 -1
v -2.5 -2.682209E-07 -1
v 1.499999 0.2500001 1.589316E-08
v 1.500001 0.2500002 -1
v 1.5 2.086163E-07 -1
v 1.5 8.940697E-08 4.569557E-08
v 0.5000011 0.2500001 -1
v 0.499999 0.25 1.589316E-08
v 0.5 -2.980232E-08 4.569557E-08
v 0.5000001 8.940697E-08 -1
v 1.500001 0.2500002 -1
v 0.5000011 0.2500001 -1
v 0.5000001 8.940697E-08 -1
v 1.5 2.086163E-07 -1
v 0.499999 0.25 1.589316E-08
v 1.499999 0.2500001 1.589316E-08
v 1.5 8.940697E-08 4.569557E-08
v 0.5 -2.980232E-08 4.569557E-08
v 0.5 -2.980232E-08 4.569557E-08
v 1.5 8.940697E-08 4.569557E-08
v 1.5 2.086163E-07 -1
v 0.5000001 8.940697E-08 -1
v -0.4999999 0.2499998 1.03316E-07
v -0.4999998 0.2499999 -1
v -0.4999998 -1.490116E-07 -1
v -0.4999999 -2.682209E-07 1.331184E-07
v -1.5 0.2499998 -1
v -1.5 0.2499996 1.03316E-07
v -1.5 -3.874302E-07 1.331184E-07
v -1.5 -2.682209E-07 -1
v -0.4999998 0.2499999 -1
v -1.5 0.2499998 -1
v -1.5 -2.682209E-07 -1
v -0.4999998 -1.490116E-07 -1
v -1.5 0.2499996 1.03316E-07
v -0.4999999 0.2499998 1.03316E-07
v -0.4999999 -2.682209E-07 1.331184E-07
v -1.5 -3.874302E-07 1.331184E-07
v -1.5 -3.874302E-07 1.331184E-07
v -0.4999999 -2.682209E-07 1.331184E-07
v -0.4999998 -1.490116E-07 -1
v -1.5 -2.682209E-07 -1
v 0.1250001 -0.1250001 -1
v -0.1249999 -0.125 -1
v -0.1249997 -0.125 -3
v 0.1250003 -0.1250001 -3
v -0.1249999 -0.125 -1
v -0.1249999 -0.3750001 -1
v -0.1249997 -0.3750001 -3
v -0.1249997 -0.125 -3
v -0.1249999 -0.3750001 -1
v 0.1250001 -0.3750001 -1
v 0.1250003 -0.3750001 -3
v -0.1249997 -0.3750001 -3
v 0.1250003 -0.1250001 -3
v 0.1250003 -0.3750001 -3
v 0.1250001 -0.3750001 -1
v 0.1250001 -0.1250001 -1
v 0.1250003 -0.1250001 -3
v -0.1249997 -0.125 -3
v -0.1249997 -0.3750001 -3
v 0.1250003 -0.3750001 -3
v 0.1250001 -0.1250001 4
v -0.1249999 -0.125 4
v -0.1249996 -0.125 -9.646021E-07
v 0.1250005 -0.1250001 -9.427465E-07
v -0.1249999 -0.125 4
v -0.1249999 -0.3750001 4
v -0.1249995 -0.3750001 -9.646021E-07
v -0.1249996 -0.125 -9.646021E-07
v -0.1249999 -0.3750001 4
v 0.1250001 -0.3750001 4
v 0.1250005 -0.3750001 -9.427465E-07
v -0.1249995 -0.3750001 -9.646021E-07
v 0.1250005 -0.1250001 -9.427465E-07
v 0.1250005 -0.3750001 -9.427465E-07
v 0.1250001 -0.3750001 4
v 0.1250001 -0.1250001 4
v 0.1250005 -0.1250001 -9.427465E-07
v -0.1249996 -0.125 -9.646021E-07
v -0.1249995 -0.3750001 -9.646021E-07
v 0.1250005 -0.3750001 -9.427465E-07
v -2.500001 0.2499996 1.589316E-08
v -2.499999 0.2499998 -1
v -1.5 0.2499998 -1
v -1.5 0.2499996 1.03316E-07
v -0.5000009 -0.7500001 -1
v -0.499999 -0.75 1.589334E-08
v 0.5000002 -0.75 1.03316E-07
v 0.5000004 -0.7500001 -1
v -0.4999999 0.2499998 1.03316E-07
v -0.4999998 0.2499999 -1
v 0.5000011 0.2500001 -1
v 0.499999 0.25 1.589316E-08
v 0.499999 0.25 1.589316E-08
v 0.5000011 0.2500001 -1
v 1.500001 0.2500002 -1
v 1.499999 0.2500001 1.589316E-08
v 1.499999 0.2500001 1.589316E-08
v 1.500001 0.2500002 -1
v 2.5 0.2500002 -1
v 2.5 0.2500001 1.03316E-07
v 0.5000011 0.2500001 -1
v 0.5000004 -0.7500001 -1
v 0.5000002 -0.75 1.03316E-07
v 0.499999 0.25 1.589316E-08
v -0.5000009 -0.7500001 -1
v -0.4999998 0.2499999 -1
v -0.4999999 0.2499998 1.03316E-07
v -0.5000009 -0.7500001 -1
v -0.4999999 0.2499998 1.03316E-07
v -0.499999 -0.75 1.589334E-08
v -0.4999998 0.2499999 -1
v -0.5000009 -0.7500001 -1
v 0.5000004 -0.7500001 -1
v 0.5000011 0.2500001 -1
v -0.4999999 0.2499998 1.03316E-07
v -0.499999 -0.75 1.589334E-08
v -0.5000009 -0.7500001 -1
v -0.4999999 0.2499998 1.03316E-07
v -0.5000009 -0.7500001 -1
v -0.4999998 0.2499999 -1
v -1.5 0.2499996 1.03316E-07
v -1.5 0.2499998 -1
v -0.4999998 0.2499999 -1
v -0.4999999 0.2499998 1.03316E-07
vt 0.484375 0.4609375
vt 0.609375 0.4609375
vt 0.609375 0.4453125
vt 0.484375 0.4453125
vt 0.484375 0.4609375
vt 0.609375 0.4609375
vt 0.609375 0.4453125
vt 0.484375 0.4453125
vt 0.484375 0.4609375
vt 0.609375 0.4609375
vt 0.609375 0.4453125
vt 0.484375 0.4453125
vt 0.484375 0.4609375
vt 0.609375 0.4609375
vt 0.609375 0.4453125
vt 0.484375 0.4453125
vt 0.578125 0.4453125
vt 0.484375 0.4453125
vt 0.484375 0.3984375
vt 0.578125 0.3984375
vt 0.484375 0.4609375
vt 0.609375 0.4609375
vt 0.609375 0.4453125
vt 0.484375 0.4453125
vt 0.484375 0.4609375
vt 0.609375 0.4609375
vt 0.609375 0.4453125
vt 0.484375 0.4453125
vt 0.484375 0.4609375
vt 0.609375 0.4609375
vt 0.609375 0.4453125
vt 0.484375 0.4453125
vt 0.484375 0.4609375
vt 0.609375 0.4609375
vt 0.609375 0.4453125
vt 0.484375 0.4453125
vt 0.578125 0.4453125
vt 0.484375 0.4453125
vt 0.484375 0.3984375
vt 0.578125 0.3984375
vt 0.484375 0.4609375
vt 0.609375 0.4609375
vt 0.609375 0.4453125
vt 0.484375 0.4453125
vt 0.484375 0.4609375
vt 0.609375 0.4609375
vt 0.609375 0.4453125
vt 0.484375 0.4453125
vt 0.484375 0.4609375
vt 0.609375 0.4609375
vt 0.609375 0.4453125
vt 0.484375 0.4453125
vt 0.484375 0.4609375
vt 0.609375 0.4609375
vt 0.609375 0.4453125
vt 0.484375 0.4453125
vt 0.578125 0.4453125
vt 0.484375 0.4453125
vt 0.484375 0.3984375
vt 0.578125 0.3984375
vt 0.484375 0.4609375
vt 0.609375 0.4609375
vt 0.609375 0.4453125
vt 0.484375 0.4453125
vt 0.484375 0.4609375
vt 0.609375 0.4609375
vt 0.609375 0.4453125
vt 0.484375 0.4453125
vt 0.484375 0.4609375
vt 0.609375 0.4609375
vt 0.609375 0.4453125
vt 0.484375 0.4453125
vt 0.484375 0.4609375
vt 0.609375 0.4609375
vt 0.609375 0.4453125
vt 0.484375 0.4453125
vt 0.578125 0.4453125
vt 0.484375 0.4453125
vt 0.484375 0.3984375
vt 0.578125 0.3984375
vt 0.484375 0.4609375
vt 0.609375 0.4609375
vt 0.609375 0.4453125
vt 0.484375 0.4453125
vt 0.484375 0.4609375
vt 0.609375 0.4609375
vt 0.609375 0.4453125
vt 0.484375 0.4453125
vt 0.484375 0.4609375
vt 0.609375 0.4609375
vt 0.609375 0.4453125
vt 0.484375 0.4453125
vt 0.484375 0.4609375
vt 0.609375 0.4609375
vt 0.609375 0.4453125
vt 0.484375 0.4453125
vt 0.578125 0.4453125
vt 0.484375 0.4453125
vt 0.484375 0.3984375
vt 0.578125 0.3984375
vt 0.04685 0.4922
vt 0.01565 0.4922
vt 0.01565 0.5546001
vt 0.04685 0.5546001
vt 0.0781 0.4922
vt 0.0469 0.4922
vt 0.0469 0.5546001
vt 0.0781 0.5546001
vt 0.10935 0.4922
vt 0.07815 0.4922
vt 0.07815 0.5546001
vt 0.10935 0.5546001
vt 0.1094 0.5546001
vt 0.1406 0.5546001
vt 0.1406 0.4922
vt 0.1094 0.4922
vt 0.1406 0.5546001
vt 0.04685 0.5546001
vt 0.0781 0.5546001
vt 0.10935 0.5546001
vt 0.04685 0.4922
vt 0.01565 0.4922
vt 0.01565 0.5546001
vt 0.04685 0.5546001
vt 0.0781 0.4922
vt 0.0469 0.4922
vt 0.0469 0.5546001
vt 0.0781 0.5546001
vt 0.10935 0.4922
vt 0.07815 0.4922
vt 0.07815 0.5546001
vt 0.10935 0.5546001
vt 0.1094 0.5546001
vt 0.1406 0.5546001
vt 0.1406 0.4922
vt 0.1094 0.4922
vt 0.1406 0.5546001
vt 0.04685 0.5546001
vt 0.0781 0.5546001
vt 0.10935 0.5546001
vt 0.734375 0.7734375
vt 0.734375 0.7109375
vt 0.609375 0.7109375
vt 0.609375 0.7734375
vt 0.421875 0.8515625
vt 0.421875 0.7890625
vt 0.296875 0.7890625
vt 0.296875 0.8515625
vt 0.734375 0.7734375
vt 0.734375 0.7109375
vt 0.609375 0.7109375
vt 0.609375 0.7734375
vt 0.734375 0.7734375
vt 0.734375 0.7109375
vt 0.609375 0.7109375
vt 0.609375 0.7734375
vt 0.734375 0.7734375
vt 0.734375 0.7109375
vt 0.609375 0.7109375
vt 0.609375 0.7734375
vt 0.609375 0.4609375
vt 0.609375 0.3984375
vt 0.484375 0.3984375
vt 0.484375 0.4609375
vt 0.609375 0.4609375
vt 0.609375 0.3984375
vt 0.484375 0.3984375
vt 0.609375 0.4609375
vt 0.484375 0.3984375
vt 0.484375 0.4609375
vt 0.609375 0.4609375
vt 0.609375 0.3984375
vt 0.484375 0.3984375
vt 0.484375 0.4609375
vt 0.609375 0.4609375
vt 0.609375 0.3984375
vt 0.484375 0.3984375
vt 0.609375 0.4609375
vt 0.484375 0.3984375
vt 0.484375 0.4609375
vt 0.734375 0.7734375
vt 0.734375 0.7109375
vt 0.609375 0.7109375
vt 0.609375 0.7734375
vn 1 -3.388131E-21 8.742277E-08
vn 1 -3.388131E-21 8.742277E-08
vn 1 -3.388131E-21 8.742277E-08
vn 1 -3.388131E-21 8.742277E-08
vn -1 3.388131E-21 -8.742277E-08
vn -1 3.388131E-21 -8.742277E-08
vn -1 3.388131E-21 -8.742277E-08
vn -1 3.388131E-21 -8.742277E-08
vn 8.742278E-08 1.192093E-07 -1
vn 8.742278E-08 1.192093E-07 -1
vn 8.742278E-08 1.192093E-07 -1
vn 8.742278E-08 1.192093E-07 -1
vn -8.742278E-08 -1.192093E-07 1
vn -8.742278E-08 -1.192093E-07 1
vn -8.742278E-08 -1.192093E-07 1
vn -8.742278E-08 -1.192093E-07 1
vn -1.694066E-21 -1 1.192093E-07
vn -1.694066E-21 -1 1.192093E-07
vn -1.694066E-21 -1 1.192093E-07
vn -1.694066E-21 -1 1.192093E-07
vn 1.192093E-07 -1 0
vn 1.192093E-07 -1 0
vn 1.192093E-07 -1 0
vn 1.192093E-07 -1 0
vn -1.192093E-07 1 0
vn -1.192093E-07 1 0
vn -1.192093E-07 1 0
vn -1.192093E-07 1 0
vn 1 1.192093E-07 0
vn 1 1.192093E-07 0
vn 1 1.192093E-07 0
vn 1 1.192093E-07 0
vn -1 -1.192093E-07 0
vn -1 -1.192093E-07 0
vn -1 -1.192093E-07 0
vn -1 -1.192093E-07 0
vn 0 0 -1
vn 0 0 -1
vn 0 0 -1
vn 0 0 -1
vn 1 -3.388131E-21 8.742277E-08
vn 1 -3.388131E-21 8.742277E-08
vn 1 -3.388131E-21 8.742277E-08
vn 1 -3.388131E-21 8.742277E-08
vn -1 3.388131E-21 -8.742277E-08
vn -1 3.388131E-21 -8.742277E-08
vn -1 3.388131E-21 -8.742277E-08
vn -1 3.388131E-21 -8.742277E-08
vn 8.742278E-08 1.192093E-07 -1
vn 8.742278E-08 1.192093E-07 -1
vn 8.742278E-08 1.192093E-07 -1
vn 8.742278E-08 1.192093E-07 -1
vn -8.742278E-08 -1.192093E-07 1
vn -8.742278E-08 -1.192093E-07 1
vn -8.742278E-08 -1.192093E-07 1
vn -8.742278E-08 -1.192093E-07 1
vn -1.694066E-21 -1 1.192093E-07
vn -1.694066E-21 -1 1.192093E-07
vn -1.694066E-21 -1 1.192093E-07
vn -1.694066E-21 -1 1.192093E-07
vn 1 -3.388131E-21 8.742277E-08
vn 1 -3.388131E-21 8.742277E-08
vn 1 -3.388131E-21 8.742277E-08
vn 1 -3.388131E-21 8.742277E-08
vn -1 3.388131E-21 -8.742277E-08
vn -1 3.388131E-21 -8.742277E-08
vn -1 3.388131E-21 -8.742277E-08
vn -1 3.388131E-21 -8.742277E-08
vn 8.742278E-08 1.192093E-07 -1
vn 8.742278E-08 1.192093E-07 -1
vn 8.742278E-08 1.192093E-07 -1
vn 8.742278E-08 1.192093E-07 -1
vn -8.742278E-08 -1.192093E-07 1
vn -8.742278E-08 -1.192093E-07 1
vn -8.742278E-08 -1.192093E-07 1
vn -8.742278E-08 -1.192093E-07 1
vn -1.694066E-21 -1 1.192093E-07
vn -1.694066E-21 -1 1.192093E-07
vn -1.694066E-21 -1 1.192093E-07
vn -1.694066E-21 -1 1.192093E-07
vn 1 -3.388131E-21 8.742277E-08
vn 1 -3.388131E-21 8.742277E-08
vn 1 -3.388131E-21 8.742277E-08
vn 1 -3.388131E-21 8.742277E-08
vn -1 3.388131E-21 -8.742277E-08
vn -1 3.388131E-21 -8.742277E-08
vn -1 3.388131E-21 -8.742277E-08
vn -1 3.388131E-21 -8.742277E-08
vn 8.742278E-08 1.192093E-07 -1
vn 8.742278E-08 1.192093E-07 -1
vn 8.742278E-08 1.192093E-07 -1
vn 8.742278E-08 1.192093E-07 -1
vn -8.742278E-08 -1.192093E-07 1
vn -8.742278E-08 -1.192093E-07 1
vn -8.742278E-08 -1.192093E-07 1
vn -8.742278E-08 -1.192093E-07 1
vn -1.694066E-21 -1 1.192093E-07
vn -1.694066E-21 -1 1.192093E-07
vn -1.694066E-21 -1 1.192093E-07
vn -1.694066E-21 -1 1.192093E-07
vn -1.192093E-07 1 0
vn -1.192093E-07 1 0
vn -1.192093E-07 1 0
vn -1.192093E-07 1 0
vn -1 1.192093E-07 -8.742278E-08
vn -1 1.192093E-07 -8.742278E-08
vn -1 1.192093E-07 -8.742278E-08
vn -1 1.192093E-07 -8.742278E-08
vn 1.192093E-07 -1 0
vn 1.192093E-07 -1 0
vn 1.192093E-07 -1 0
vn 1.192093E-07 -1 0
vn 1 -1.192093E-07 8.742278E-08
vn 1 -1.192093E-07 8.742278E-08
vn 1 -1.192093E-07 8.742278E-08
vn 1 -1.192093E-07 8.742278E-08
vn 8.742277E-08 -3.953195E-22 -1
vn 8.742277E-08 -3.953195E-22 -1
vn 8.742277E-08 -3.953195E-22 -1
vn 8.742277E-08 -3.953195E-22 -1
vn -1.192093E-07 1 0
vn -1.192093E-07 1 0
vn -1.192093E-07 1 0
vn -1.192093E-07 1 0
vn -1 1.192093E-07 -8.742278E-08
vn -1 1.192093E-07 -8.742278E-08
vn -1 1.192093E-07 -8.742278E-08
vn -1 1.192093E-07 -8.742278E-08
vn 1.192093E-07 -1 0
vn 1.192093E-07 -1 0
vn 1.192093E-07 -1 0
vn 1.192093E-07 -1 0
vn 1 -1.192093E-07 8.742278E-08
vn 1 -1.192093E-07 8.742278E-08
vn 1 -1.192093E-07 8.742278E-08
vn 1 -1.192093E-07 8.742278E-08
vn 8.742277E-08 -3.953195E-22 -1
vn 8.742277E-08 -3.953195E-22 -1
vn 8.742277E-08 -3.953195E-22 -1
vn 8.742277E-08 -3.953195E-22 -1
vn 1.694066E-21 1 -1.192093E-07
vn 1.694066E-21 1 -1.192093E-07
vn 1.694066E-21 1 -1.192093E-07
vn 1.694066E-21 1 -1.192093E-07
vn -1.694066E-21 -1 -1.192093E-07
vn -1.694066E-21 -1 -1.192093E-07
vn -1.694066E-21 -1 -1.192093E-07
vn -1.694066E-21 -1 -1.192093E-07
vn 1.694066E-21 1 -1.192093E-07
vn 1.694066E-21 1 -1.192093E-07
vn 1.694066E-21 1 -1.192093E-07
vn 1.694066E-21 1 -1.192093E-07
vn 1.694066E-21 1 -1.192093E-07
vn 1.694066E-21 1 -1.192093E-07
vn 1.694066E-21 1 -1.192093E-07
vn 1.694066E-21 1 -1.192093E-07
vn 1.694066E-21 1 -1.192093E-07
vn 1.694066E-21 1 -1.192093E-07
vn 1.694066E-21 1 -1.192093E-07
vn 1.694066E-21 1 -1.192093E-07
vn 1 -1.694066E-21 -1.192093E-07
vn 1 -1.694066E-21 -1.192093E-07
vn 1 -1.694066E-21 -1.192093E-07
vn 1 -1.694066E-21 -1.192093E-07
vn -1 1.694066E-21 -1.192093E-07
vn -1 1.694066E-21 -1.192093E-07
vn -1 1.694066E-21 -1.192093E-07
vn -1 1.694066E-21 -1.192093E-07
vn -1 1.694066E-21 -1.192093E-07
vn -1 1.694066E-21 -1.192093E-07
vn 8.742278E-08 -3.953194E-22 -1
vn 8.742278E-08 -3.953194E-22 -1
vn 8.742278E-08 -3.953194E-22 -1
vn 8.742278E-08 -3.953194E-22 -1
vn -1 1.694066E-21 -1.192093E-07
vn -1 1.694066E-21 -1.192093E-07
vn -1 1.694066E-21 -1.192093E-07
vn -1 1.694066E-21 -1.192093E-07
vn -1 1.694066E-21 -1.192093E-07
vn -1 1.694066E-21 -1.192093E-07
vn 1.694066E-21 1 -1.192093E-07
vn 1.694066E-21 1 -1.192093E-07
vn 1.694066E-21 1 -1.192093E-07
vn 1.694066E-21 1 -1.192093E-07
g _Combined_Vis12_0_0
f 3/3/3 2/2/2 1/1/1
f 4/4/4 3/3/3 1/1/1
f 7/7/7 6/6/6 5/5/5
f 8/8/8 7/7/7 5/5/5
f 11/11/11 10/10/10 9/9/9
f 12/12/12 11/11/11 9/9/9
f 15/15/15 14/14/14 13/13/13
f 16/16/16 15/15/15 13/13/13
f 19/19/19 18/18/18 17/17/17
f 20/20/20 19/19/19 17/17/17
f 23/23/23 22/22/22 21/21/21
f 24/24/24 23/23/23 21/21/21
f 27/27/27 26/26/26 25/25/25
f 28/28/28 27/27/27 25/25/25
f 31/31/31 30/30/30 29/29/29
f 32/32/32 31/31/31 29/29/29
f 35/35/35 34/34/34 33/33/33
f 36/36/36 35/35/35 33/33/33
f 39/39/39 38/38/38 37/37/37
f 40/40/40 39/39/39 37/37/37
f 43/43/43 42/42/42 41/41/41
f 44/44/44 43/43/43 41/41/41
f 47/47/47 46/46/46 45/45/45
f 48/48/48 47/47/47 45/45/45
f 51/51/51 50/50/50 49/49/49
f 52/52/52 51/51/51 49/49/49
f 55/55/55 54/54/54 53/53/53
f 56/56/56 55/55/55 53/53/53
f 59/59/59 58/58/58 57/57/57
f 60/60/60 59/59/59 57/57/57
f 63/63/63 62/62/62 61/61/61
f 64/64/64 63/63/63 61/61/61
f 67/67/67 66/66/66 65/65/65
f 68/68/68 67/67/67 65/65/65
f 71/71/71 70/70/70 69/69/69
f 72/72/72 71/71/71 69/69/69
f 75/75/75 74/74/74 73/73/73
f 76/76/76 75/75/75 73/73/73
f 79/79/79 78/78/78 77/77/77
f 80/80/80 79/79/79 77/77/77
f 83/83/83 82/82/82 81/81/81
f 84/84/84 83/83/83 81/81/81
f 87/87/87 86/86/86 85/85/85
f 88/88/88 87/87/87 85/85/85
f 91/91/91 90/90/90 89/89/89
f 92/92/92 91/91/91 89/89/89
f 95/95/95 94/94/94 93/93/93
f 96/96/96 95/95/95 93/93/93
f 99/99/99 98/98/98 97/97/97
f 100/100/100 99/99/99 97/97/97
f 103/103/103 102/102/102 101/101/101
f 104/104/104 103/103/103 101/101/101
f 107/107/107 106/106/106 105/105/105
f 108/108/108 107/107/107 105/105/105
f 111/111/111 110/110/110 109/109/109
f 112/112/112 111/111/111 109/109/109
f 115/115/115 114/114/114 113/113/113
f 116/116/116 115/115/115 113/113/113
f 119/119/119 118/118/118 117/117/117
f 120/120/120 119/119/119 117/117/117
f 123/123/123 122/122/122 121/121/121
f 124/124/124 123/123/123 121/121/121
f 127/127/127 126/126/126 125/125/125
f 128/128/128 127/127/127 125/125/125
f 131/131/131 130/130/130 129/129/129
f 132/132/132 131/131/131 129/129/129
f 135/135/135 134/134/134 133/133/133
f 136/136/136 135/135/135 133/133/133
f 139/139/139 138/138/138 137/137/137
f 140/140/140 139/139/139 137/137/137
f 143/143/143 142/142/142 141/141/141
f 144/144/144 143/143/143 141/141/141
f 147/147/147 146/146/146 145/145/145
f 148/148/148 147/147/147 145/145/145
f 151/151/151 150/150/150 149/149/149
f 152/152/152 151/151/151 149/149/149
f 155/155/155 154/154/154 153/153/153
f 156/156/156 155/155/155 153/153/153
f 159/159/159 158/158/158 157/157/157
f 160/160/160 159/159/159 157/157/157
f 163/163/163 162/162/162 161/161/161
f 164/164/164 163/163/163 161/161/161
f 167/167/167 166/166/166 165/165/165
f 170/170/170 169/169/169 168/168/168
f 173/173/173 172/172/172 171/171/171
f 174/174/174 173/173/173 171/171/171
f 177/177/177 176/176/176 175/175/175
f 180/180/180 179/179/179 178/178/178
f 183/183/183 182/182/182 181/181/181
f 184/184/184 183/183/183 181/181/181
