g _Combined_Vis33_0
v -111.3831 -15.84934 -54.27523
v -111.2431 -16.54935 -54.41523
v -111.8031 -16.26934 -53.85522
v -111.5231 -15.98934 -54.97523
v -111.8031 -15.42934 -55.53523
v -112.2231 -15.84934 -55.11523
v -111.9431 -16.40934 -54.55523
v -111.8031 -16.26934 -53.85522
v -111.2431 -16.54935 -54.41523
v -113.2031 -15.98934 -54.13522
v -112.6431 -15.42934 -53.85522
v -112.5031 -16.12934 -53.99522
v -112.6431 -15.42934 -53.85522
v -112.3631 -15.98934 -53.29522
v -112.5031 -16.12934 -53.99522
v -112.0831 -16.54935 -55.25523
v -112.6431 -16.26934 -54.69522
v -111.9431 -16.40934 -54.55523
v -112.3631 -15.14934 -54.97523
v -111.8031 -15.42934 -55.53523
v -111.6631 -15.28934 -54.83523
v -112.5031 -16.12934 -53.99522
v -112.6431 -16.26934 -54.69522
v -113.2031 -15.98934 -54.13522
v -111.6631 -15.28934 -54.83523
v -110.9631 -15.42934 -54.69523
v -111.5231 -15.14934 -54.13523
v -111.9431 -15.56934 -53.71523
v -111.8031 -16.26934 -53.85522
v -112.3631 -15.98934 -53.29522
v -112.2231 -15.00934 -54.27523
v -112.0831 -14.86934 -53.57523
v -112.6431 -15.42934 -53.85522
v -112.2231 -15.00934 -54.27523
v -112.6431 -15.42934 -53.85522
v -112.9231 -14.86934 -54.41523
v -112.3631 -15.98934 -53.29522
v -111.8031 -16.26934 -53.85522
v -112.5031 -16.12934 -53.99522
v -112.3631 -16.82934 -54.13522
v -111.8031 -16.26934 -53.85522
v -111.9431 -16.40934 -54.55523
v -112.7831 -15.56934 -54.55523
v -112.6431 -16.26934 -54.69522
v -112.9231 -15.70934 -55.25523
v -112.5031 -16.12934 -53.99522
v -111.8031 -16.26934 -53.85522
v -112.3631 -16.82934 -54.13522
v -110.9631 -15.42934 -54.69523
v -111.5231 -15.98934 -54.97523
v -111.3831 -15.84934 -54.27523
v -113.2031 -15.98934 -54.13522
v -112.6431 -16.26934 -54.69522
v -112.7831 -15.56934 -54.55523
v -112.9231 -14.86934 -54.41523
v -112.6431 -15.42934 -53.85522
v -112.7831 -15.56934 -54.55523
v -112.3631 -15.14934 -54.97523
v -111.8031 -14.58934 -54.69523
v -112.2231 -15.00934 -54.27523
v -111.8031 -15.42934 -55.53523
v -112.3631 -15.14934 -54.97523
v -112.2231 -15.84934 -55.11523
v -112.6431 -16.26934 -54.69522
v -112.3631 -16.82934 -54.13522
v -111.9431 -16.40934 -54.55523
v -111.5231 -15.98934 -54.97523
v -112.0831 -16.54935 -55.25523
v -111.9431 -16.40934 -54.55523
v -111.3831 -15.84934 -54.27523
v -111.8031 -16.26934 -53.85522
v -111.2431 -15.70934 -53.57523
v -111.2431 -16.54935 -54.41523
v -111.5231 -15.98934 -54.97523
v -111.9431 -16.40934 -54.55523
v -111.9431 -15.56934 -53.71523
v -111.5231 -15.14934 -54.13523
v -111.2431 -15.70934 -53.57523
v -112.9231 -15.70934 -55.25523
v -112.3631 -15.14934 -54.97523
v -112.7831 -15.56934 -54.55523
v -112.2231 -15.00934 -54.27523
v -111.5231 -15.14934 -54.13523
v -112.0831 -14.86934 -53.57523
v -112.7831 -15.56934 -54.55523
v -112.3631 -15.14934 -54.97523
v -112.9231 -14.86934 -54.41523
v -112.6431 -16.26934 -54.69522
v -112.0831 -16.54935 -55.25523
v -112.2231 -15.84934 -55.11523
v -112.0831 -14.86934 -53.57523
v -111.5231 -15.14934 -54.13523
v -111.9431 -15.56934 -53.71523
v -112.6431 -15.42934 -53.85522
v -112.0831 -14.86934 -53.57523
v -111.9431 -15.56934 -53.71523
v -111.3831 -15.84934 -54.27523
v -111.5231 -15.14934 -54.13523
v -110.9631 -15.42934 -54.69523
v -111.6631 -15.28934 -54.83523
v -111.5231 -15.98934 -54.97523
v -110.9631 -15.42934 -54.69523
v -112.2231 -15.84934 -55.11523
v -112.0831 -16.54935 -55.25523
v -111.5231 -15.98934 -54.97523
v -111.9431 -15.56934 -53.71523
v -112.3631 -15.98934 -53.29522
v -112.6431 -15.42934 -53.85522
v -112.9231 -14.86934 -54.41523
v -112.3631 -15.14934 -54.97523
v -112.2231 -15.00934 -54.27523
v -111.6631 -15.28934 -54.83523
v -111.8031 -15.42934 -55.53523
v -111.5231 -15.98934 -54.97523
v -111.3831 -15.84934 -54.27523
v -111.5231 -15.98934 -54.97523
v -111.2431 -16.54935 -54.41523
v -112.7831 -15.56934 -54.55523
v -112.6431 -15.42934 -53.85522
v -113.2031 -15.98934 -54.13522
v -111.5231 -15.14934 -54.13523
v -111.8031 -14.58934 -54.69523
v -111.6631 -15.28934 -54.83523
v -111.8031 -14.58934 -54.69523
v -112.3631 -15.14934 -54.97523
v -111.6631 -15.28934 -54.83523
v -112.2231 -15.84934 -55.11523
v -112.3631 -15.14934 -54.97523
v -112.9231 -15.70934 -55.25523
v -112.2231 -15.00934 -54.27523
v -111.8031 -14.58934 -54.69523
v -111.5231 -15.14934 -54.13523
v -111.9431 -15.56934 -53.71523
v -111.2431 -15.70934 -53.57523
v -111.8031 -16.26934 -53.85522
v -112.5031 -16.12934 -53.99522
v -112.3631 -16.82934 -54.13522
v -112.6431 -16.26934 -54.69522
v -111.2431 -15.70934 -53.57523
v -111.5231 -15.14934 -54.13523
v -111.3831 -15.84934 -54.27523
v -112.9231 -15.70934 -55.25523
v -112.6431 -16.26934 -54.69522
v -112.2231 -15.84934 -55.11523
vt 0.84375 0.28125
vt 0.84375 0.28125
vt 0.84375 0.28125
vt 0.84375 0.28125
vt 0.84375 0.28125
vt 0.84375 0.28125
vt 0.84375 0.28125
vt 0.84375 0.28125
vt 0.84375 0.28125
vt 0.84375 0.28125
vt 0.84375 0.28125
vt 0.84375 0.28125
vt 0.84375 0.28125
vt 0.84375 0.28125
vt 0.84375 0.28125
vt 0.84375 0.28125
vt 0.84375 0.28125
vt 0.84375 0.28125
vt 0.84375 0.28125
vt 0.84375 0.28125
vt 0.84375 0.28125
vt 0.84375 0.28125
vt 0.84375 0.28125
vt 0.84375 0.28125
vt 0.84375 0.28125
vt 0.84375 0.28125
vt 0.84375 0.28125
vt 0.84375 0.28125
vt 0.84375 0.28125
vt 0.84375 0.28125
vt 0.84375 0.28125
vt 0.84375 0.28125
vt 0.84375 0.28125
vt 0.84375 0.28125
vt 0.84375 0.28125
vt 0.84375 0.28125
vt 0.84375 0.28125
vt 0.84375 0.28125
vt 0.84375 0.28125
vt 0.84375 0.28125
vt 0.84375 0.28125
vt 0.84375 0.28125
vt 0.84375 0.28125
vt 0.84375 0.28125
vt 0.84375 0.28125
vt 0.84375 0.28125
vt 0.84375 0.28125
vt 0.84375 0.28125
vt 0.84375 0.28125
vt 0.84375 0.28125
vt 0.84375 0.28125
vt 0.84375 0.28125
vt 0.84375 0.28125
vt 0.84375 0.28125
vt 0.84375 0.28125
vt 0.84375 0.28125
vt 0.84375 0.28125
vt 0.84375 0.28125
vt 0.84375 0.28125
vt 0.84375 0.28125
vt 0.84375 0.28125
vt 0.84375 0.28125
vt 0.84375 0.28125
vt 0.84375 0.28125
vt 0.84375 0.28125
vt 0.84375 0.28125
vt 0.84375 0.28125
vt 0.84375 0.28125
vt 0.84375 0.28125
vt 0.84375 0.28125
vt 0.84375 0.28125
vt 0.84375 0.28125
vt 0.84375 0.28125
vt 0.84375 0.28125
vt 0.84375 0.28125
vt 0.84375 0.28125
vt 0.84375 0.28125
vt 0.84375 0.28125
vt 0.84375 0.28125
vt 0.84375 0.28125
vt 0.84375 0.28125
vt 0.84375 0.28125
vt 0.84375 0.28125
vt 0.84375 0.28125
vt 0.84375 0.28125
vt 0.84375 0.28125
vt 0.84375 0.28125
vt 0.84375 0.28125
vt 0.84375 0.28125
vt 0.84375 0.28125
vt 0.84375 0.28125
vt 0.84375 0.28125
vt 0.84375 0.28125
vt 0.84375 0.28125
vt 0.84375 0.28125
vt 0.84375 0.28125
vt 0.84375 0.28125
vt 0.84375 0.28125
vt 0.84375 0.28125
vt 0.84375 0.28125
vt 0.84375 0.28125
vt 0.84375 0.28125
vt 0.84375 0.28125
vt 0.84375 0.28125
vt 0.84375 0.28125
vt 0.84375 0.28125
vt 0.84375 0.28125
vt 0.84375 0.28125
vt 0.84375 0.28125
vt 0.84375 0.28125
vt 0.84375 0.28125
vt 0.84375 0.28125
vt 0.84375 0.28125
vt 0.84375 0.28125
vt 0.84375 0.28125
vt 0.84375 0.28125
vt 0.84375 0.28125
vt 0.84375 0.28125
vt 0.84375 0.28125
vt 0.84375 0.28125
vt 0.84375 0.28125
vt 0.84375 0.28125
vt 0.84375 0.28125
vt 0.84375 0.28125
vt 0.84375 0.28125
vt 0.84375 0.28125
vt 0.84375 0.28125
vt 0.84375 0.28125
vt 0.84375 0.28125
vt 0.84375 0.28125
vt 0.84375 0.28125
vt 0.84375 0.28125
vt 0.84375 0.28125
vt 0.84375 0.28125
vt 0.84375 0.28125
vt 0.84375 0.28125
vt 0.84375 0.28125
vt 0.84375 0.28125
vt 0.84375 0.28125
vt 0.84375 0.28125
vt 0.84375 0.28125
vt 0.84375 0.28125
vt 0.84375 0.28125
vt 0.84375 0.28125
vn 0.707108 -8.85084E-07 0.7071055
vn 0.707108 -8.85084E-07 0.7071055
vn 0.707108 -8.85084E-07 0.7071055
vn -2.360225E-06 -0.7071072 -0.7071064
vn -2.360225E-06 -0.7071072 -0.7071064
vn -2.360225E-06 -0.7071072 -0.7071064
vn -0.2357038 -0.9428084 0.2357035
vn -0.2357038 -0.9428084 0.2357035
vn -0.2357038 -0.9428084 0.2357035
vn -0.2357014 -0.2357017 0.9428094
vn -0.2357014 -0.2357017 0.9428094
vn -0.2357014 -0.2357017 0.9428094
vn -0.942809 -0.2357007 0.235704
vn -0.942809 -0.2357007 0.235704
vn -0.942809 -0.2357007 0.235704
vn -0.2357038 -0.9428084 0.2357035
vn -0.2357038 -0.9428084 0.2357035
vn -0.2357038 -0.9428084 0.2357035
vn 0.2357038 0.9428084 -0.2357035
vn 0.2357038 0.9428084 -0.2357035
vn 0.2357038 0.9428084 -0.2357035
vn -0.2357038 -0.9428084 0.2357035
vn -0.2357038 -0.9428084 0.2357035
vn -0.2357038 -0.9428084 0.2357035
vn 0.2357038 0.9428084 -0.2357035
vn 0.2357038 0.9428084 -0.2357035
vn 0.2357038 0.9428084 -0.2357035
vn 0.707108 -8.85084E-07 0.7071055
vn 0.707108 -8.85084E-07 0.7071055
vn 0.707108 -8.85084E-07 0.7071055
vn -0.7071057 0.7071078 6.743497E-07
vn -0.7071057 0.7071078 6.743497E-07
vn -0.7071057 0.7071078 6.743497E-07
vn 2.360225E-06 0.7071072 0.7071064
vn 2.360225E-06 0.7071072 0.7071064
vn 2.360225E-06 0.7071072 0.7071064
vn -0.2357043 -0.9428084 0.2357029
vn -0.2357043 -0.9428084 0.2357029
vn -0.2357043 -0.9428084 0.2357029
vn 0.7071058 -0.7071077 -1.34987E-06
vn 0.7071058 -0.7071077 -1.34987E-06
vn 0.7071058 -0.7071077 -1.34987E-06
vn -0.942809 -0.2357007 0.235704
vn -0.942809 -0.2357007 0.235704
vn -0.942809 -0.2357007 0.235704
vn -0.2357014 -0.2357017 0.9428094
vn -0.2357014 -0.2357017 0.9428094
vn -0.2357014 -0.2357017 0.9428094
vn 0.7071055 -0.707108 1.170435E-09
vn 0.7071055 -0.707108 1.170435E-09
vn 0.7071055 -0.707108 1.170435E-09
vn -0.707108 8.85084E-07 -0.7071055
vn -0.707108 8.85084E-07 -0.7071055
vn -0.707108 8.85084E-07 -0.7071055
vn -0.942809 -0.2357007 0.235704
vn -0.942809 -0.2357007 0.235704
vn -0.942809 -0.2357007 0.235704
vn -0.7071058 0.7071077 1.34987E-06
vn -0.7071058 0.7071077 1.34987E-06
vn -0.7071058 0.7071077 1.34987E-06
vn -0.707108 8.85084E-07 -0.7071055
vn -0.707108 8.85084E-07 -0.7071055
vn -0.707108 8.85084E-07 -0.7071055
vn -2.360225E-06 -0.7071072 -0.7071064
vn -2.360225E-06 -0.7071072 -0.7071064
vn -2.360225E-06 -0.7071072 -0.7071064
vn 0.7071057 -0.7071078 -6.743497E-07
vn 0.7071057 -0.7071078 -6.743497E-07
vn 0.7071057 -0.7071078 -6.743497E-07
vn 0.7071057 -0.7071078 -6.743497E-07
vn 0.7071057 -0.7071078 -6.743497E-07
vn 0.7071057 -0.7071078 -6.743497E-07
vn -2.360225E-06 -0.7071072 -0.7071064
vn -2.360225E-06 -0.7071072 -0.7071064
vn -2.360225E-06 -0.7071072 -0.7071064
vn 2.360225E-06 0.7071072 0.7071064
vn 2.360225E-06 0.7071072 0.7071064
vn 2.360225E-06 0.7071072 0.7071064
vn -0.7071057 0.7071078 6.743497E-07
vn -0.7071057 0.7071078 6.743497E-07
vn -0.7071057 0.7071078 6.743497E-07
vn 0.2357038 0.9428084 -0.2357035
vn 0.2357038 0.9428084 -0.2357035
vn 0.2357038 0.9428084 -0.2357035
vn -0.707108 8.85084E-07 -0.7071055
vn -0.707108 8.85084E-07 -0.7071055
vn -0.707108 8.85084E-07 -0.7071055
vn -0.707108 8.85084E-07 -0.7071055
vn -0.707108 8.85084E-07 -0.7071055
vn -0.707108 8.85084E-07 -0.7071055
vn 0.7071079 -1.560604E-06 0.7071056
vn 0.7071079 -1.560604E-06 0.7071056
vn 0.7071079 -1.560604E-06 0.7071056
vn -0.2357014 -0.2357017 0.9428094
vn -0.2357014 -0.2357017 0.9428094
vn -0.2357014 -0.2357017 0.9428094
vn 0.707108 -8.85084E-07 0.7071055
vn 0.707108 -8.85084E-07 0.7071055
vn 0.707108 -8.85084E-07 0.7071055
vn 0.2357014 0.2357017 -0.9428094
vn 0.2357014 0.2357017 -0.9428094
vn 0.2357014 0.2357017 -0.9428094
vn 0.2357009 0.2357022 -0.9428094
vn 0.2357009 0.2357022 -0.9428094
vn 0.2357009 0.2357022 -0.9428094
vn 2.360225E-06 0.7071072 0.7071064
vn 2.360225E-06 0.7071072 0.7071064
vn 2.360225E-06 0.7071072 0.7071064
vn 0.2357038 0.9428084 -0.2357035
vn 0.2357038 0.9428084 -0.2357035
vn 0.2357038 0.9428084 -0.2357035
vn 0.942809 0.2357012 -0.2357036
vn 0.942809 0.2357012 -0.2357036
vn 0.942809 0.2357012 -0.2357036
vn 0.942809 0.2357007 -0.235704
vn 0.942809 0.2357007 -0.235704
vn 0.942809 0.2357007 -0.235704
vn -0.7071057 0.7071078 6.743497E-07
vn -0.7071057 0.7071078 6.743497E-07
vn -0.7071057 0.7071078 6.743497E-07
vn 0.942809 0.2357002 -0.2357046
vn 0.942809 0.2357002 -0.2357046
vn 0.942809 0.2357002 -0.2357046
vn 0.2357014 0.2357017 -0.9428094
vn 0.2357014 0.2357017 -0.9428094
vn 0.2357014 0.2357017 -0.9428094
vn 0.2357014 0.2357017 -0.9428094
vn 0.2357014 0.2357017 -0.9428094
vn 0.2357014 0.2357017 -0.9428094
vn 2.360225E-06 0.7071072 0.7071064
vn 2.360225E-06 0.7071072 0.7071064
vn 2.360225E-06 0.7071072 0.7071064
vn -0.2357009 -0.2357022 0.9428094
vn -0.2357009 -0.2357022 0.9428094
vn -0.2357009 -0.2357022 0.9428094
vn -0.942809 -0.2357012 0.2357036
vn -0.942809 -0.2357012 0.2357036
vn -0.942809 -0.2357012 0.2357036
vn 0.942809 0.2357002 -0.2357046
vn 0.942809 0.2357002 -0.2357046
vn 0.942809 0.2357002 -0.2357046
vn -2.360225E-06 -0.7071072 -0.7071064
vn -2.360225E-06 -0.7071072 -0.7071064
vn -2.360225E-06 -0.7071072 -0.7071064
g _Combined_Vis33_0_0
f 3/3/3 2/2/2 1/1/1
f 6/6/6 5/5/5 4/4/4
f 9/9/9 8/8/8 7/7/7
f 12/12/12 11/11/11 10/10/10
f 15/15/15 14/14/14 13/13/13
f 18/18/18 17/17/17 16/16/16
f 21/21/21 20/20/20 19/19/19
f 24/24/24 23/23/23 22/22/22
f 27/27/27 26/26/26 25/25/25
f 30/30/30 29/29/29 28/28/28
f 33/33/33 32/32/32 31/31/31
f 36/36/36 35/35/35 34/34/34
f 39/39/39 38/38/38 37/37/37
f 42/42/42 41/41/41 40/40/40
f 45/45/45 44/44/44 43/43/43
f 48/48/48 47/47/47 46/46/46
f 51/51/51 50/50/50 49/49/49
f 54/54/54 53/53/53 52/52/52
f 57/57/57 56/56/56 55/55/55
f 60/60/60 59/59/59 58/58/58
f 63/63/63 62/62/62 61/61/61
f 66/66/66 65/65/65 64/64/64
f 69/69/69 68/68/68 67/67/67
f 72/72/72 71/71/71 70/70/70
f 75/75/75 74/74/74 73/73/73
f 78/78/78 77/77/77 76/76/76
f 81/81/81 80/80/80 79/79/79
f 84/84/84 83/83/83 82/82/82
f 87/87/87 86/86/86 85/85/85
f 90/90/90 89/89/89 88/88/88
f 93/93/93 92/92/92 91/91/91
f 96/96/96 95/95/95 94/94/94
f 99/99/99 98/98/98 97/97/97
f 102/102/102 101/101/101 100/100/100
f 105/105/105 104/104/104 103/103/103
f 108/108/108 107/107/107 106/106/106
f 111/111/111 110/110/110 109/109/109
f 114/114/114 113/113/113 112/112/112
f 117/117/117 116/116/116 115/115/115
f 120/120/120 119/119/119 118/118/118
f 123/123/123 122/122/122 121/121/121
f 126/126/126 125/125/125 124/124/124
f 129/129/129 128/128/128 127/127/127
f 132/132/132 131/131/131 130/130/130
f 135/135/135 134/134/134 133/133/133
f 138/138/138 137/137/137 136/136/136
f 141/141/141 140/140/140 139/139/139
f 144/144/144 143/143/143 142/142/142
