g _Combined_Vis63_1
v 5.457542 -4.285209 0.5000055
v 5.499998 -4.394928 0.08663639
v 5.41966 -4.420978 0.08663639
v 5.457542 -4.285209 0.5000055
v 5.41966 -4.420978 0.08663639
v 5.405235 -4.35328 0.5000055
v 5.41966 -4.420978 0.08663639
v 5.41966 -4.5 5.368366E-06
v 5.36196 -4.5 0.5000055
v 5.405235 -4.35328 0.5000055
v 4.499998 -3.5 -0.4999948
v 4.499998 -3.5 0.5000055
v 4.499998 -4.420978 0.5000055
v 4.499998 -4.420978 -0.4999948
v 4.499998 -4.5 -0.4999948
v 4.499998 -4.5 0.5000055
v 5.457542 -4.285209 0.5000055
v 4.499998 -3.5 0.5000055
v 5.499998 -3.5 0.5000055
v 5.405235 -4.35328 0.5000055
v 4.499998 -4.420978 0.5000055
v 4.499998 -4.5 0.5000055
v 5.36196 -4.5 0.5000055
v 5.499998 -4.4698 5.368366E-06
v 5.499997 -4.420978 -0.4999948
v 5.419659 -4.5 -0.4999948
v 5.41966 -4.5 5.368366E-06
v 4.499998 -4.420978 -0.4999948
v 4.499998 -4.5 -0.4999948
v 5.419659 -4.5 -0.4999948
v 4.499998 -3.5 -0.4999948
v 5.499998 -3.5 -0.4999948
v 5.499997 -4.420978 -0.4999948
v 5.41966 -4.5 5.368366E-06
v 5.419659 -4.5 -0.4999948
v 4.499998 -4.5 -0.4999948
v 5.36196 -4.5 0.5000055
v 4.499998 -4.5 0.5000055
v 5.499998 -4.394928 0.08663639
v 5.499998 -4.4698 5.368366E-06
v 5.41966 -4.5 5.368366E-06
v 5.41966 -4.420978 0.08663639
v 5.499998 -3.5 0.5000055
v 5.499998 -4.394928 0.08663639
v 5.457542 -4.285209 0.5000055
v 5.499998 -3.5 -0.4999948
v 5.499997 -4.420978 -0.4999948
v 5.499998 -4.4698 5.368366E-06
v 5.499998 -2.5 -0.4999958
v 5.499998 -3.5 -0.4999948
v 5.499998 -3.5 0.5000055
v 5.499998 -2.5 0.5000056
v 5.249998 -2.5 0.3750055
v 5.249998 -2.625 0.3750055
v 5.374998 -2.625 0.2500055
v 5.374998 -2.5 0.2500055
v 4.749998 -2.5 -0.3749948
v 4.749998 -2.625 -0.3749948
v 4.624998 -2.625 -0.2499947
v 4.624998 -2.5 -0.2499947
v 4.624998 -2.5 0.2500055
v 4.624998 -2.625 0.2500055
v 4.749998 -2.625 0.3750055
v 4.749998 -2.5 0.3750055
v 4.749998 -2.5 0.3750055
v 4.749998 -2.625 0.3750055
v 5.249998 -2.625 0.3750055
v 5.249998 -2.5 0.3750055
v 5.374998 -2.5 -0.2499947
v 5.374998 -2.625 -0.2499947
v 5.249998 -2.625 -0.3749948
v 5.249998 -2.5 -0.3749948
v 4.624998 -2.5 -0.2499947
v 4.624998 -2.625 -0.2499947
v 4.624998 -2.625 0.2500055
v 4.624998 -2.5 0.2500055
v 5.249998 -2.5 -0.3749948
v 5.249998 -2.625 -0.3749948
v 4.749998 -2.625 -0.3749948
v 4.749998 -2.5 -0.3749948
v 5.374998 -2.5 0.2500055
v 5.374998 -2.625 0.2500055
v 5.374998 -2.625 -0.2499947
v 5.374998 -2.5 -0.2499947
v 4.749998 -2.5 0.3750055
v 4.499998 -2.5 0.5000055
v 4.624998 -2.5 0.2500055
v 5.249998 -2.5 0.3750055
v 4.499998 -2.5 -0.4999948
v 4.624998 -2.5 -0.2499947
v 4.749998 -2.5 -0.3749948
v 5.499998 -2.5 0.5000056
v 5.374998 -2.5 0.2500055
v 5.374998 -2.5 -0.2499947
v 5.499998 -2.5 -0.4999958
v 5.249998 -2.5 -0.3749948
vt 0.7057199 0.2109638
vt 0.7030663 0.198046
vt 0.7080875 0.198046
vt 0.7057199 0.2109638
vt 0.7080875 0.198046
vt 0.708989 0.2109638
vt 0.6660156 0.237793
vt 0.6704101 0.2399902
vt 0.644043 0.2399902
vt 0.644043 0.236084
vt 0.6977539 0.2133789
vt 0.644043 0.2131348
vt 0.644043 0.237793
vt 0.6972656 0.237793
vt 0.6972656 0.2399902
vt 0.644043 0.2399902
vt 0.7104492 0.2338867
vt 0.7602539 0.2136231
vt 0.7084961 0.2136231
vt 0.7133789 0.2355957
vt 0.7602539 0.2373047
vt 0.7602539 0.2395019
vt 0.715332 0.2395019
vt 0.7030663 0.1953388
vt 0.7030663 0.1797138
vt 0.7080875 0.1797138
vt 0.7080875 0.1953388
vt 0.7602539 0.2373047
vt 0.7602539 0.2395019
vt 0.7124023 0.2395019
vt 0.7602539 0.2136231
vt 0.7084961 0.2136231
vt 0.7084961 0.2373047
vt 0.7080875 0.1953388
vt 0.7080875 0.1797138
vt 0.7655663 0.1797138
vt 0.7116938 0.2109638
vt 0.7655663 0.2109638
vt 0.7084961 0.2158203
vt 0.7084961 0.2136231
vt 0.7124023 0.2136231
vt 0.7124023 0.2158203
vt 0.644043 0.2131348
vt 0.6660156 0.2370606
vt 0.644043 0.2341309
vt 0.6977539 0.2133789
vt 0.6972656 0.237793
vt 0.6704101 0.2392578
vt 0.765625 0.2421875
vt 0.765625 0.1796875
vt 0.640625 0.1796875
vt 0.640625 0.2421875
vt 0.7228125 0.2132522
vt 0.7228125 0.2083303
vt 0.7326562 0.2083303
vt 0.7326562 0.2132522
vt 0.6834375 0.2132522
vt 0.6834375 0.2083303
vt 0.6735938 0.2083303
vt 0.6735938 0.2132522
vt 0.6735938 0.2132522
vt 0.6735938 0.2083303
vt 0.6834375 0.2083303
vt 0.6834375 0.2132522
vt 0.6834375 0.2132522
vt 0.6834375 0.2083303
vt 0.7228125 0.2083303
vt 0.7228125 0.2132522
vt 0.7326562 0.2132522
vt 0.7326562 0.2083303
vt 0.7228125 0.2083303
vt 0.7228125 0.2132522
vt 0.7228125 0.2132522
vt 0.7228125 0.2083303
vt 0.6834375 0.2083303
vt 0.6834375 0.2132522
vt 0.7228125 0.2132522
vt 0.7228125 0.2083303
vt 0.6834375 0.2083303
vt 0.6834375 0.2132522
vt 0.6834375 0.2132522
vt 0.6834375 0.2083303
vt 0.7228125 0.2083303
vt 0.7228125 0.2132522
vt 0.671875 0.1875
vt 0.640625 0.1796875
vt 0.65625 0.1953125
vt 0.734375 0.1875
vt 0.640625 0.2421875
vt 0.65625 0.2265625
vt 0.671875 0.234375
vt 0.765625 0.1796875
vt 0.75 0.1953125
vt 0.75 0.2265625
vt 0.765625 0.2421875
vt 0.734375 0.234375
vn 0.565783 -0.7973541 0.210038
vn 0.565783 -0.7973541 0.210038
vn 0.565783 -0.7973541 0.210038
vn 0.565783 -0.7973541 0.210038
vn 0.565783 -0.7973541 0.210038
vn 0.565783 -0.7973541 0.210038
vn 0.9706397 -0.221796 0.09308597
vn 0.9706397 -0.221796 0.09308597
vn 0.9706397 -0.221796 0.09308597
vn 0.9706397 -0.221796 0.09308597
vn -1 8.742276E-08 -5.929229E-21
vn -1 8.742276E-08 -5.929229E-21
vn -1 8.742276E-08 -5.929229E-21
vn -1 8.742276E-08 -5.929229E-21
vn -1 8.742276E-08 -5.929229E-21
vn -1 8.742276E-08 -5.929229E-21
vn -5.929229E-21 0 1
vn -5.929229E-21 0 1
vn -5.929229E-21 0 1
vn -5.929229E-21 0 1
vn -5.929229E-21 0 1
vn -5.929229E-21 0 1
vn -5.929229E-21 0 1
vn 0.56172 -0.8263431 -0.040344
vn 0.56172 -0.8263431 -0.040344
vn 0.56172 -0.8263431 -0.040344
vn 0.56172 -0.8263431 -0.040344
vn 5.929229E-21 0 -1
vn 5.929229E-21 0 -1
vn 5.929229E-21 0 -1
vn 5.929229E-21 0 -1
vn 5.929229E-21 0 -1
vn 5.929229E-21 0 -1
vn -8.74228E-08 -1 3.95319E-22
vn -8.74228E-08 -1 3.95319E-22
vn -8.74228E-08 -1 3.95319E-22
vn -8.74228E-08 -1 3.95319E-22
vn -8.74228E-08 -1 3.95319E-22
vn 0.2532129 -0.723294 0.64244
vn 0.2532129 -0.723294 0.64244
vn 0.2532129 -0.723294 0.64244
vn 0.2532129 -0.723294 0.64244
vn 0.9994116 -0.01438308 0.03113799
vn 1 -8.742276E-08 5.929229E-21
vn 0.9994116 -0.01438308 0.03113799
vn 1 -8.742276E-08 5.929229E-21
vn 1 -8.742276E-08 5.929229E-21
vn 1 -8.742276E-08 5.929229E-21
vn 1 0 -1.192093E-07
vn 1 0 -1.192093E-07
vn 1 0 -1.192093E-07
vn 1 0 -1.192093E-07
vn -0.7071068 -8.429367E-08 -0.7071068
vn -0.7071068 -8.429367E-08 -0.7071068
vn -0.7071068 -8.429367E-08 -0.7071068
vn -0.7071068 -8.429367E-08 -0.7071068
vn 0.7071068 8.429367E-08 0.7071068
vn 0.7071068 8.429367E-08 0.7071068
vn 0.7071068 8.429367E-08 0.7071068
vn 0.7071068 8.429367E-08 0.7071068
vn 0.7071068 -8.429367E-08 -0.7071068
vn 0.7071068 -8.429367E-08 -0.7071068
vn 0.7071068 -8.429367E-08 -0.7071068
vn 0.7071068 -8.429367E-08 -0.7071068
vn -7.105422E-15 -1.192092E-07 -1
vn -7.105422E-15 -1.192092E-07 -1
vn -7.105422E-15 -1.192092E-07 -1
vn -7.105422E-15 -1.192092E-07 -1
vn -0.7071068 8.429367E-08 0.7071068
vn -0.7071068 8.429367E-08 0.7071068
vn -0.7071068 8.429367E-08 0.7071068
vn -0.7071068 8.429367E-08 0.7071068
vn 1 0 5.929229E-21
vn 1 0 5.929229E-21
vn 1 0 5.929229E-21
vn 1 0 5.929229E-21
vn 7.105422E-15 1.192092E-07 1
vn 7.105422E-15 1.192092E-07 1
vn 7.105422E-15 1.192092E-07 1
vn 7.105422E-15 1.192092E-07 1
vn -1 0 -5.929229E-21
vn -1 0 -5.929229E-21
vn -1 0 -5.929229E-21
vn -1 0 -5.929229E-21
vn 7.068193E-28 1 -1.192093E-07
vn 7.068193E-28 1 -1.192093E-07
vn 7.068193E-28 1 -1.192093E-07
vn 7.068193E-28 1 -1.192093E-07
vn 7.068193E-28 1 -1.192093E-07
vn 7.068193E-28 1 -1.192093E-07
vn 7.068193E-28 1 -1.192093E-07
vn 7.068193E-28 1 -1.192093E-07
vn 7.068193E-28 1 -1.192093E-07
vn 7.068193E-28 1 -1.192093E-07
vn 7.068193E-28 1 -1.192093E-07
vn 7.068193E-28 1 -1.192093E-07
g _Combined_Vis63_1_0
f 3/3/3 2/2/2 1/1/1
f 6/6/6 5/5/5 4/4/4
f 9/9/9 8/8/8 7/7/7
f 10/10/10 9/9/9 7/7/7
f 13/13/13 12/12/12 11/11/11
f 14/14/14 13/13/13 11/11/11
f 14/14/14 15/15/15 13/13/13
f 15/15/15 16/16/16 13/13/13
f 19/19/19 18/18/18 17/17/17
f 18/18/18 20/20/20 17/17/17
f 18/18/18 21/21/21 20/20/20
f 21/21/21 22/22/22 20/20/20
f 22/22/22 23/23/23 20/20/20
f 26/26/26 25/25/25 24/24/24
f 27/27/27 26/26/26 24/24/24
f 30/30/30 29/29/29 28/28/28
f 30/30/30 28/28/28 31/31/31
f 30/30/30 31/31/31 32/32/32
f 33/33/33 30/30/30 32/32/32
f 36/36/36 35/35/35 34/34/34
f 36/36/36 34/34/34 37/37/37
f 38/38/38 36/36/36 37/37/37
f 41/41/41 40/40/40 39/39/39
f 42/42/42 41/41/41 39/39/39
f 45/45/45 44/44/44 43/43/43
f 44/44/44 46/46/46 43/43/43
f 44/44/44 47/47/47 46/46/46
f 44/44/44 48/48/48 47/47/47
f 51/51/51 50/50/50 49/49/49
f 52/52/52 51/51/51 49/49/49
f 55/55/55 54/54/54 53/53/53
f 56/56/56 55/55/55 53/53/53
f 59/59/59 58/58/58 57/57/57
f 60/60/60 59/59/59 57/57/57
f 63/63/63 62/62/62 61/61/61
f 64/64/64 63/63/63 61/61/61
f 67/67/67 66/66/66 65/65/65
f 68/68/68 67/67/67 65/65/65
f 71/71/71 70/70/70 69/69/69
f 72/72/72 71/71/71 69/69/69
f 75/75/75 74/74/74 73/73/73
f 76/76/76 75/75/75 73/73/73
f 79/79/79 78/78/78 77/77/77
f 80/80/80 79/79/79 77/77/77
f 83/83/83 82/82/82 81/81/81
f 84/84/84 83/83/83 81/81/81
f 87/87/87 86/86/86 85/85/85
f 85/85/85 86/86/86 88/88/88
f 86/86/86 87/87/87 89/89/89
f 87/87/87 90/90/90 89/89/89
f 89/89/89 90/90/90 91/91/91
f 86/86/86 92/92/92 88/88/88
f 88/88/88 92/92/92 93/93/93
f 93/93/93 92/92/92 94/94/94
f 89/89/89 91/91/91 95/95/95
f 92/92/92 95/95/95 94/94/94
f 91/91/91 96/96/96 95/95/95
f 94/94/94 95/95/95 96/96/96
