g _Combined_Vis34_0
v 0.5 -0.4999992 -0.5000023
v 0.5 -0.4999991 0.4999983
v 1.500001 -0.4999992 -0.5000023
v 1.499999 -0.4999991 0.4999983
v -1.5 -0.4999992 -0.5000021
v -1.5 -0.4999991 0.4999985
v -0.499999 -0.4999992 -0.5000021
v -0.500001 -0.4999991 0.4999985
v -0.499999 -0.4999992 -0.5000021
v -0.5 0.5000011 -0.500002
v -1.5 -0.4999992 -0.5000021
v -1.499999 0.5000011 -0.5000021
v -1.5 -0.4999992 -0.5000021
v -1.499999 0.5000011 -0.5000021
v -2.500001 -0.4999994 -0.5000021
v -2.499999 0.5000011 -0.5000021
v 2.5 -0.4999993 -0.5000024
v 2.5 -0.4999993 0.4999981
v 2.5 0.5000022 -0.5000024
v 2.5 0.5000002 0.4999981
v 2.5 -0.4999993 -0.5000024
v 2.5 0.5000022 -0.5000024
v 1.500001 -0.4999992 -0.5000023
v 1.500001 0.5000011 -0.5000023
v 1.500001 -0.4999992 -0.5000023
v 1.500001 0.5000011 -0.5000023
v 0.5 -0.4999992 -0.5000023
v 0.5000009 0.500001 -0.5000023
v -2.5 -0.4999992 0.4999982
v -2.5 0.5000013 0.4999982
v -1.5 -0.4999991 0.4999985
v -1.500001 0.5000013 0.4999982
v -2.499999 0.5000011 -0.5000021
v -2.5 0.5000013 0.4999982
v -2.500001 -0.4999994 -0.5000021
v -2.5 -0.4999992 0.4999982
v -1.500001 0.5000013 0.4999982
v -1.499999 0.5000011 -0.5000021
v -0.499999 0.500001 0.4999982
v -0.5 0.5000011 -0.500002
v -1.5 -0.4999991 0.4999985
v -1.500001 0.5000013 0.4999982
v -0.500001 -0.4999991 0.4999985
v -0.499999 0.500001 0.4999982
v 1.499999 -0.4999991 0.4999983
v 1.5 0.5000013 0.499998
v 2.5 -0.4999993 0.4999981
v 2.5 0.5000002 0.4999981
v 0.5 0.500001 0.4999981
v 0.5000009 0.500001 -0.5000023
v 1.5 0.5000013 0.499998
v 1.500001 0.5000011 -0.5000023
v -0.499999 0.500001 0.4999982
v -0.5 0.5000011 -0.500002
v 0.5 0.500001 0.4999981
v 0.5000009 0.500001 -0.5000023
v -0.500001 -0.4999991 0.4999985
v -0.499999 0.500001 0.4999982
v 0.5 -0.4999991 0.4999983
v 0.5 0.500001 0.4999981
v 0.5 -0.4999991 0.4999983
v 0.5 0.500001 0.4999981
v 1.499999 -0.4999991 0.4999983
v 1.5 0.5000013 0.499998
v -0.499999 -0.4999992 -0.5000021
v -0.500001 -0.4999991 0.4999985
v 0.5 -0.4999992 -0.5000023
v 0.5 -0.4999991 0.4999983
v 0.5 -0.4999992 -0.5000023
v 0.5000009 0.500001 -0.5000023
v -0.499999 -0.4999992 -0.5000021
v -0.5 0.5000011 -0.500002
v -2.5 0.5000013 0.4999982
v -2.499999 0.5000011 -0.5000021
v -1.500001 0.5000013 0.4999982
v -1.499999 0.5000011 -0.5000021
v 1.5 0.5000013 0.499998
v 1.500001 0.5000011 -0.5000023
v 2.5 0.5000002 0.4999981
v 2.5 0.5000022 -0.5000024
v 1.500001 -0.4999992 -0.5000023
v 1.499999 -0.4999991 0.4999983
v 2.5 -0.4999993 -0.5000024
v 2.5 -0.4999993 0.4999981
v -2.500001 -0.4999994 -0.5000021
v -2.5 -0.4999992 0.4999982
v -1.5 -0.4999992 -0.5000021
v -1.5 -0.4999991 0.4999985
vt 0.8828125 0.7265625
vt 0.8828125 0.6640625
vt 0.9453125 0.7265625
vt 0.9453125 0.6640625
vt 0.8828125 0.7265625
vt 0.8828125 0.6640625
vt 0.9453125 0.7265625
vt 0.9453125 0.6640625
vt 0.0078125 0.1953125
vt 0.0078125 0.0703125
vt 0.1328125 0.1953125
vt 0.1328125 0.0703125
vt 0.0078125 0.1953125
vt 0.0078125 0.0703125
vt 0.1328125 0.1953125
vt 0.1328125 0.0703125
vt 0.6640625 0.0859375
vt 0.6640625 0.0234375
vt 0.7265625 0.0859375
vt 0.7265625 0.0234375
vt 0.0078125 0.1953125
vt 0.0078125 0.0703125
vt 0.1328125 0.1953125
vt 0.1328125 0.0703125
vt 0.0078125 0.1953125
vt 0.0078125 0.0703125
vt 0.1328125 0.1953125
vt 0.1328125 0.0703125
vt 0.0078125 0.1953125
vt 0.0078125 0.0703125
vt 0.1328125 0.1953125
vt 0.1328125 0.0703125
vt 0.6640625 0.0859375
vt 0.6640625 0.0234375
vt 0.7265625 0.0859375
vt 0.7265625 0.0234375
vt 0.2734375 0.5859375
vt 0.2734375 0.4609375
vt 0.3984375 0.5859375
vt 0.3984375 0.4609375
vt 0.0078125 0.1953125
vt 0.0078125 0.0703125
vt 0.1328125 0.1953125
vt 0.1328125 0.0703125
vt 0.0078125 0.1953125
vt 0.0078125 0.0703125
vt 0.1328125 0.1953125
vt 0.1328125 0.0703125
vt 0.2734375 0.5859375
vt 0.2734375 0.4609375
vt 0.3984375 0.5859375
vt 0.3984375 0.4609375
vt 0.2734375 0.5859375
vt 0.2734375 0.4609375
vt 0.3984375 0.5859375
vt 0.3984375 0.4609375
vt 0.0078125 0.1953125
vt 0.0078125 0.0703125
vt 0.1328125 0.1953125
vt 0.1328125 0.0703125
vt 0.0078125 0.1953125
vt 0.0078125 0.0703125
vt 0.1328125 0.1953125
vt 0.1328125 0.0703125
vt 0.8828125 0.7265625
vt 0.8828125 0.6640625
vt 0.9453125 0.7265625
vt 0.9453125 0.6640625
vt 0.0078125 0.1953125
vt 0.0078125 0.0703125
vt 0.1328125 0.1953125
vt 0.1328125 0.0703125
vt 0.2734375 0.5859375
vt 0.2734375 0.4609375
vt 0.3984375 0.5859375
vt 0.3984375 0.4609375
vt 0.2734375 0.5859375
vt 0.2734375 0.4609375
vt 0.3984375 0.5859375
vt 0.3984375 0.4609375
vt 0.8828125 0.7265625
vt 0.8828125 0.6640625
vt 0.9453125 0.7265625
vt 0.9453125 0.6640625
vt 0.8828125 0.7265625
vt 0.8828125 0.6640625
vt 0.9453125 0.7265625
vt 0.9453125 0.6640625
vn 0 -1 1.192093E-07
vn 0 -1 1.192093E-07
vn 0 -1 1.192093E-07
vn 0 -1 1.192093E-07
vn 0 -1 1.192093E-07
vn 0 -1 1.192093E-07
vn 0 -1 1.192093E-07
vn 0 -1 1.192093E-07
vn 8.742273E-08 -2.089385E-21 -1
vn 8.742273E-08 -2.089385E-21 -1
vn 8.742273E-08 -2.089385E-21 -1
vn 8.742273E-08 -2.089385E-21 -1
vn 8.742273E-08 -2.089385E-21 -1
vn 8.742273E-08 -2.089385E-21 -1
vn 8.742273E-08 -2.089385E-21 -1
vn 8.742273E-08 -2.089385E-21 -1
vn 1 0 0
vn 1 0 0
vn 1 0 0
vn 1 0 0
vn 8.742273E-08 -2.089385E-21 -1
vn 8.742273E-08 -2.089385E-21 -1
vn 8.742273E-08 -2.089385E-21 -1
vn 8.742273E-08 -2.089385E-21 -1
vn 8.742273E-08 -2.089385E-21 -1
vn 8.742273E-08 -2.089385E-21 -1
vn 8.742273E-08 -2.089385E-21 -1
vn 8.742273E-08 -2.089385E-21 -1
vn 0 8.470328E-22 1
vn 0 8.470328E-22 1
vn 0 8.470328E-22 1
vn 0 8.470328E-22 1
vn -1 0 0
vn -1 0 0
vn -1 0 0
vn -1 0 0
vn 0 1 1.192093E-07
vn 0 1 1.192093E-07
vn 0 1 1.192093E-07
vn 0 1 1.192093E-07
vn 0 8.470328E-22 1
vn 0 8.470328E-22 1
vn 0 8.470328E-22 1
vn 0 8.470328E-22 1
vn 0 8.470328E-22 1
vn 0 8.470328E-22 1
vn 0 8.470328E-22 1
vn 0 8.470328E-22 1
vn 0 1 1.192093E-07
vn 0 1 1.192093E-07
vn 0 1 1.192093E-07
vn 0 1 1.192093E-07
vn 0 1 1.192093E-07
vn 0 1 1.192093E-07
vn 0 1 1.192093E-07
vn 0 1 1.192093E-07
vn 0 8.470328E-22 1
vn 0 8.470328E-22 1
vn 0 8.470328E-22 1
vn 0 8.470328E-22 1
vn 0 8.470328E-22 1
vn 0 8.470328E-22 1
vn 0 8.470328E-22 1
vn 0 8.470328E-22 1
vn 0 -1 1.192093E-07
vn 0 -1 1.192093E-07
vn 0 -1 1.192093E-07
vn 0 -1 1.192093E-07
vn 8.742273E-08 -2.089385E-21 -1
vn 8.742273E-08 -2.089385E-21 -1
vn 8.742273E-08 -2.089385E-21 -1
vn 8.742273E-08 -2.089385E-21 -1
vn 0 1 1.192093E-07
vn 0 1 1.192093E-07
vn 0 1 1.192093E-07
vn 0 1 1.192093E-07
vn 0 1 1.192093E-07
vn 0 1 1.192093E-07
vn 0 1 1.192093E-07
vn 0 1 1.192093E-07
vn 0 -1 1.192093E-07
vn 0 -1 1.192093E-07
vn 0 -1 1.192093E-07
vn 0 -1 1.192093E-07
vn 0 -1 1.192093E-07
vn 0 -1 1.192093E-07
vn 0 -1 1.192093E-07
vn 0 -1 1.192093E-07
g _Combined_Vis34_0_0
f 3/3/3 2/2/2 1/1/1
f 3/3/3 4/4/4 2/2/2
f 7/7/7 6/6/6 5/5/5
f 7/7/7 8/8/8 6/6/6
f 11/11/11 10/10/10 9/9/9
f 11/11/11 12/12/12 10/10/10
f 15/15/15 14/14/14 13/13/13
f 15/15/15 16/16/16 14/14/14
f 19/19/19 18/18/18 17/17/17
f 19/19/19 20/20/20 18/18/18
f 23/23/23 22/22/22 21/21/21
f 23/23/23 24/24/24 22/22/22
f 27/27/27 26/26/26 25/25/25
f 27/27/27 28/28/28 26/26/26
f 31/31/31 30/30/30 29/29/29
f 31/31/31 32/32/32 30/30/30
f 35/35/35 34/34/34 33/33/33
f 35/35/35 36/36/36 34/34/34
f 39/39/39 38/38/38 37/37/37
f 39/39/39 40/40/40 38/38/38
f 43/43/43 42/42/42 41/41/41
f 43/43/43 44/44/44 42/42/42
f 47/47/47 46/46/46 45/45/45
f 47/47/47 48/48/48 46/46/46
f 51/51/51 50/50/50 49/49/49
f 51/51/51 52/52/52 50/50/50
f 55/55/55 54/54/54 53/53/53
f 55/55/55 56/56/56 54/54/54
f 59/59/59 58/58/58 57/57/57
f 59/59/59 60/60/60 58/58/58
f 63/63/63 62/62/62 61/61/61
f 63/63/63 64/64/64 62/62/62
f 67/67/67 66/66/66 65/65/65
f 67/67/67 68/68/68 66/66/66
f 71/71/71 70/70/70 69/69/69
f 71/71/71 72/72/72 70/70/70
f 75/75/75 74/74/74 73/73/73
f 75/75/75 76/76/76 74/74/74
f 79/79/79 78/78/78 77/77/77
f 79/79/79 80/80/80 78/78/78
f 83/83/83 82/82/82 81/81/81
f 83/83/83 84/84/84 82/82/82
f 87/87/87 86/86/86 85/85/85
f 87/87/87 88/88/88 86/86/86
