g _Combined_VisSeparately21_0
v -3.5 0.4999999 -3.500001
v -3.500002 0.5000001 -2.500001
v -4.500001 0.5000001 -2.500001
v -4.500001 0.4999999 -3.500001
v -3.500002 0.5000001 -2.500001
v -3.500002 0.5000001 -1.5
v -4.500001 0.5000001 -1.5
v -4.500001 0.5000001 -2.500001
vt 0.59375 0.203125
vt 0.59375 0.078125
vt 0.34375 0.078125
vt 0.34375 0.203125
vt 0.59375 0.203125
vt 0.59375 0.078125
vt 0.34375 0.078125
vt 0.34375 0.203125
vn 0 1 -1.192093E-07
vn 0 1 -1.192093E-07
vn 0 1 -1.192093E-07
vn 0 1 -1.192093E-07
vn 0 1 -1.192093E-07
vn 0 1 -1.192093E-07
vn 0 1 -1.192093E-07
vn 0 1 -1.192093E-07
g _Combined_VisSeparately21_0_0
f 3/3/3 2/2/2 1/1/1
f 4/4/4 3/3/3 1/1/1
f 7/7/7 6/6/6 5/5/5
f 8/8/8 7/7/7 5/5/5
