g _Combined_Vis24_0
v 18.5 0.5000002 18.5
v 18.5 0.5000001 17.5
v 19.5 0.4999998 17.5
v 19.5 0.4999999 18.5
v 18.5 0.5000001 17.5
v 18.5 0.5000001 16.5
v 19.5 0.5000001 16.5
v 19.5 0.4999998 17.5
v 18.5 0.4999999 12.5
v 18.5 0.5000001 11.5
v 19.5 0.5000001 11.5
v 19.5 0.4999999 12.5
v 18.5 0.5000001 13.5
v 18.5 0.4999999 12.5
v 19.5 0.4999999 12.5
v 19.5 0.5 13.5
v 18.5 0.5000001 11.5
v 18.5 0.5000001 10.5
v 19.5 0.5000001 10.5
v 19.5 0.5000001 11.5
v 16.5 0.4999999 10.5
v 17.5 0.4999998 10.5
v 17.5 0.5000001 11.5
v 16.5 0.5000002 11.5
v 17.5 0.4999998 10.5
v 18.5 0.5000001 10.5
v 18.5 0.5000001 11.5
v 17.5 0.5000001 11.5
v 12.5 0.4999999 10.5
v 13.5 0.5000002 10.50001
v 13.5 0.5000001 11.50001
v 12.5 0.4999998 11.50001
v 11.5 0.4999999 10.5
v 12.5 0.4999999 10.5
v 12.5 0.4999998 11.50001
v 11.5 0.5000002 11.5
v 18.5 0.5000001 16.5
v 18.5 0.5000001 15.5
v 19.5 0.5000001 15.5
v 19.5 0.5000001 16.5
v 18.5 0.5000001 15.5
v 18.5 0.5000001 14.5
v 19.5 0.5000001 14.5
v 19.5 0.5000001 15.5
v 18.5 0.5000001 14.5
v 18.5 0.5000001 13.5
v 19.5 0.5 13.5
v 19.5 0.5000001 14.5
v 15.5 0.5000002 10.5
v 16.5 0.4999999 10.5
v 16.5 0.5000002 11.5
v 15.5 0.5000001 11.5
v 14.5 0.5000002 10.5
v 15.5 0.5000002 10.5
v 15.5 0.5000001 11.5
v 14.5 0.5000001 11.5
v 13.5 0.5000002 10.50001
v 14.5 0.5000002 10.5
v 14.5 0.5000001 11.5
v 13.5 0.5000001 11.50001
vt 0.859375 0.3671875
vt 0.859375 0.3046875
vt 0.734375 0.3046875
vt 0.734375 0.3671875
vt 0.859375 0.3671875
vt 0.859375 0.3046875
vt 0.734375 0.3046875
vt 0.734375 0.3671875
vt 0.859375 0.3671875
vt 0.859375 0.3046875
vt 0.734375 0.3046875
vt 0.734375 0.3671875
vt 0.859375 0.3671875
vt 0.859375 0.3046875
vt 0.734375 0.3046875
vt 0.734375 0.3671875
vt 0.296875 0.3359375
vt 0.296875 0.2734375
vt 0.171875 0.2734375
vt 0.171875 0.3359375
vt 0.859375 0.3671875
vt 0.859375 0.3046875
vt 0.734375 0.3046875
vt 0.734375 0.3671875
vt 0.859375 0.3671875
vt 0.859375 0.3046875
vt 0.734375 0.3046875
vt 0.734375 0.3671875
vt 0.859375 0.3671875
vt 0.859375 0.3046875
vt 0.734375 0.3046875
vt 0.734375 0.3671875
vt 0.859375 0.3671875
vt 0.859375 0.3046875
vt 0.734375 0.3046875
vt 0.734375 0.3671875
vt 0.859375 0.3671875
vt 0.859375 0.3046875
vt 0.734375 0.3046875
vt 0.734375 0.3671875
vt 0.859375 0.3671875
vt 0.859375 0.3046875
vt 0.734375 0.3046875
vt 0.734375 0.3671875
vt 0.859375 0.3671875
vt 0.859375 0.3046875
vt 0.734375 0.3046875
vt 0.734375 0.3671875
vt 0.859375 0.3671875
vt 0.859375 0.3046875
vt 0.734375 0.3046875
vt 0.734375 0.3671875
vt 0.859375 0.3671875
vt 0.859375 0.3046875
vt 0.734375 0.3046875
vt 0.734375 0.3671875
vt 0.859375 0.3671875
vt 0.859375 0.3046875
vt 0.734375 0.3046875
vt 0.734375 0.3671875
vn 3.476861E-07 1 -1.192093E-07
vn 3.476861E-07 1 -1.192093E-07
vn 3.476861E-07 1 -1.192093E-07
vn 3.476861E-07 1 -1.192093E-07
vn 0 1 -1.192093E-07
vn 0 1 -1.192093E-07
vn 0 1 -1.192093E-07
vn 0 1 -1.192093E-07
vn 0 1 -1.192093E-07
vn 0 1 -1.192093E-07
vn 0 1 -1.192093E-07
vn 0 1 -1.192093E-07
vn 2.774979E-08 1 -3.576278E-07
vn 2.774979E-08 1 -3.576278E-07
vn 2.774979E-08 1 -3.576278E-07
vn 2.774979E-08 1 -3.576278E-07
vn 0 1 -1.192093E-07
vn 0 1 -1.192093E-07
vn 0 1 -1.192093E-07
vn 0 1 -1.192093E-07
vn 1.490116E-07 1 -2.384186E-07
vn 1.490116E-07 1 -2.384186E-07
vn 1.490116E-07 1 -2.384186E-07
vn 1.490116E-07 1 -2.384186E-07
vn -3.576279E-07 1 1.192093E-07
vn -3.576279E-07 1 1.192093E-07
vn -3.576279E-07 1 1.192093E-07
vn -3.576279E-07 1 1.192093E-07
vn -3.576279E-07 1 1.192093E-07
vn -3.576279E-07 1 1.192093E-07
vn -3.576279E-07 1 1.192093E-07
vn -3.576279E-07 1 1.192093E-07
vn 1.490116E-07 1 -2.384186E-07
vn 1.490116E-07 1 -2.384186E-07
vn 1.490116E-07 1 -2.384186E-07
vn 1.490116E-07 1 -2.384186E-07
vn 0 1 -1.192093E-07
vn 0 1 -1.192093E-07
vn 0 1 -1.192093E-07
vn 0 1 -1.192093E-07
vn 0 1 -1.192093E-07
vn 0 1 -1.192093E-07
vn 0 1 -1.192093E-07
vn 0 1 -1.192093E-07
vn 0 1 -1.192093E-07
vn 0 1 -1.192093E-07
vn 0 1 -1.192093E-07
vn 0 1 -1.192093E-07
vn 2.682209E-07 1 1.192093E-07
vn 2.682209E-07 1 1.192093E-07
vn 2.682209E-07 1 1.192093E-07
vn 2.682209E-07 1 1.192093E-07
vn 2.682209E-07 1 1.192093E-07
vn 2.682209E-07 1 1.192093E-07
vn 2.682209E-07 1 1.192093E-07
vn 2.682209E-07 1 1.192093E-07
vn 2.682209E-07 1 1.192093E-07
vn 2.682209E-07 1 1.192093E-07
vn 2.682209E-07 1 1.192093E-07
vn 2.682209E-07 1 1.192093E-07
g _Combined_Vis24_0_0
f 3/3/3 2/2/2 1/1/1
f 4/4/4 3/3/3 1/1/1
f 7/7/7 6/6/6 5/5/5
f 8/8/8 7/7/7 5/5/5
f 11/11/11 10/10/10 9/9/9
f 12/12/12 11/11/11 9/9/9
f 15/15/15 14/14/14 13/13/13
f 16/16/16 15/15/15 13/13/13
f 19/19/19 18/18/18 17/17/17
f 20/20/20 19/19/19 17/17/17
f 23/23/23 22/22/22 21/21/21
f 24/24/24 23/23/23 21/21/21
f 27/27/27 26/26/26 25/25/25
f 28/28/28 27/27/27 25/25/25
f 31/31/31 30/30/30 29/29/29
f 32/32/32 31/31/31 29/29/29
f 35/35/35 34/34/34 33/33/33
f 36/36/36 35/35/35 33/33/33
f 39/39/39 38/38/38 37/37/37
f 40/40/40 39/39/39 37/37/37
f 43/43/43 42/42/42 41/41/41
f 44/44/44 43/43/43 41/41/41
f 47/47/47 46/46/46 45/45/45
f 48/48/48 47/47/47 45/45/45
f 51/51/51 50/50/50 49/49/49
f 52/52/52 51/51/51 49/49/49
f 55/55/55 54/54/54 53/53/53
f 56/56/56 55/55/55 53/53/53
f 59/59/59 58/58/58 57/57/57
f 60/60/60 59/59/59 57/57/57
