g _Combined_Vis35_0
v -0.5245836 42.79982 33.65003
v -0.3579171 42.71649 33.48336
v -0.4829173 42.71649 33.35836
v -0.6495838 42.79982 33.52503
v -0.6495838 42.79982 33.52503
v -0.4829173 42.71649 33.35836
v -0.6495842 43.04982 33.02503
v -0.8162507 43.13316 33.1917
v -0.8162507 43.13316 33.1917
v -0.6495842 43.04982 33.02503
v -0.6079174 43.21649 32.98336
v -0.7745839 43.29982 33.15003
v -0.149583 43.29982 33.77503
v 0.0170835 43.21649 33.60836
v -0.02458326 43.04982 33.65003
v -0.1912498 43.13316 33.8167
v -0.3579171 42.71649 33.48336
v -0.6495842 43.04982 33.02503
v -0.4829173 42.71649 33.35836
v -0.6079174 43.21649 32.98336
v -0.02458326 43.04982 33.65003
v -0.2745835 43.54982 33.15003
v -0.1495834 43.54982 33.27503
v 0.0170835 43.21649 33.60836
v -0.7745839 43.29982 33.15003
v -0.6079174 43.21649 32.98336
v -0.2745835 43.54982 33.15003
v -0.4412501 43.63316 33.3167
v -0.3162499 43.63316 33.4417
v -0.1495834 43.54982 33.27503
v 0.0170835 43.21649 33.60836
v -0.149583 43.29982 33.77503
v -0.1912498 43.13316 33.8167
v -0.02458326 43.04982 33.65003
v -0.3579171 42.71649 33.48336
v -0.5245836 42.79982 33.65003
v -0.4412501 43.63316 33.3167
v -0.2745835 43.54982 33.15003
v -0.1495834 43.54982 33.27503
v -0.3162499 43.63316 33.4417
vt 0.085408 0.028138
vt 0.085408 0.221801
vt 0.182239 0.221801
vt 0.182239 0.028138
vt 0.182239 0.028138
vt 0.182239 0.221801
vt 0.569564 0.221801
vt 0.569564 0.028138
vt 0.569564 0.028138
vt 0.569564 0.221801
vt 0.666396 0.221801
vt 0.666396 0.028138
vt 0.182239 0.028138
vt 0.182239 0.221801
vt 0.085408 0.221801
vt 0.085408 0.028138
vt 0.00227 0.37637
vt 0.62387 0.25205
vt 0.12659 0.25205
vt 0.748191 0.37637
vt 0.00227 0.873651
vt 0.748191 0.873651
vt 0.62387 0.997971
vt 0.12659 0.997971
vt 0.666396 0.028138
vt 0.666396 0.221801
vt 0.666396 0.221801
vt 0.666396 0.028138
vt 0.569564 0.028138
vt 0.569564 0.221801
vt 0.182239 0.221801
vt 0.182239 0.028138
vt 0.085408 0.028138
vt 0.085408 0.221801
vt 0.085408 0.221801
vt 0.085408 0.028138
vt 0.666396 0.028138
vt 0.666396 0.221801
vt 0.569564 0.221801
vt 0.569564 0.028138
vn -0.2357026 -0.942809 0.2357019
vn -0.2357026 -0.942809 0.2357019
vn -0.2357026 -0.942809 0.2357019
vn -0.2357026 -0.942809 0.2357019
vn -0.6666675 -0.666666 -0.3333331
vn -0.6666675 -0.666666 -0.3333331
vn -0.6666675 -0.666666 -0.3333331
vn -0.6666675 -0.666666 -0.3333331
vn -0.7071075 1.009114E-06 -0.7071061
vn -0.7071075 1.009114E-06 -0.7071061
vn -0.7071075 1.009114E-06 -0.7071061
vn -0.7071075 1.009114E-06 -0.7071061
vn 0.7071075 -1.009114E-06 0.7071061
vn 0.7071075 -1.009114E-06 0.7071061
vn 0.7071075 -1.009114E-06 0.7071061
vn 0.7071075 -1.009114E-06 0.7071061
vn 0.6666659 -0.3333333 -0.6666675
vn 0.6666659 -0.3333333 -0.6666675
vn 0.6666659 -0.3333333 -0.6666675
vn 0.6666659 -0.3333333 -0.6666675
vn 0.6666659 -0.3333333 -0.6666675
vn 0.6666659 -0.3333333 -0.6666675
vn 0.6666659 -0.3333333 -0.6666675
vn 0.6666659 -0.3333333 -0.6666675
vn -0.3333336 0.6666674 -0.6666659
vn -0.3333336 0.6666674 -0.6666659
vn -0.3333336 0.6666674 -0.6666659
vn -0.3333336 0.6666674 -0.6666659
vn 0.6666675 0.666666 0.3333331
vn 0.6666675 0.666666 0.3333331
vn 0.6666675 0.666666 0.3333331
vn 0.6666675 0.666666 0.3333331
vn 0.3333336 -0.6666674 0.6666659
vn 0.3333336 -0.6666674 0.6666659
vn 0.3333336 -0.6666674 0.6666659
vn 0.3333336 -0.6666674 0.6666659
vn 0.2357026 0.942809 -0.2357019
vn 0.2357026 0.942809 -0.2357019
vn 0.2357026 0.942809 -0.2357019
vn 0.2357026 0.942809 -0.2357019
g _Combined_Vis35_0_0
f 3/3/3 2/2/2 1/1/1
f 4/4/4 3/3/3 1/1/1
f 7/7/7 6/6/6 5/5/5
f 8/8/8 7/7/7 5/5/5
f 11/11/11 10/10/10 9/9/9
f 12/12/12 11/11/11 9/9/9
f 15/15/15 14/14/14 13/13/13
f 16/16/16 15/15/15 13/13/13
f 19/19/19 18/18/18 17/17/17
f 18/18/18 20/20/20 17/17/17
f 21/21/21 17/17/17 20/20/20
f 22/22/22 21/21/21 20/20/20
f 22/22/22 23/23/23 21/21/21
f 23/23/23 24/24/24 21/21/21
f 27/27/27 26/26/26 25/25/25
f 28/28/28 27/27/27 25/25/25
f 31/31/31 30/30/30 29/29/29
f 32/32/32 31/31/31 29/29/29
f 35/35/35 34/34/34 33/33/33
f 36/36/36 35/35/35 33/33/33
f 39/39/39 38/38/38 37/37/37
f 40/40/40 39/39/39 37/37/37
