g _Combined_Vis18_0
v 0.125 0 -0.5
v 0 0 -0.5
v 0.125 -0.125 -0.5
v 0.375 -0.625 -0.5
v 0.25 -0.25 -0.5
v 0.25 -0.125 -0.5
v 0.375 -0.375 -0.5
v 0.375 -0.25 -0.5
v 0.5 -0.375 -0.5
v 0.5 -0.75 -0.5
v -0.5 0.25 -0.5
v -0.125 0.125 -0.5
v 0 0.125 -0.5
v -0.25 0.25 -0.5
v -0.125 0.25 -0.5
v -0.375 0.375 -0.5
v -0.25 0.375 -0.5
v -0.375 0.5 -0.5
v -0.5 0.5 -0.5
v 0.375 -0.375 -0.5
v 0.5 -0.375 -0.5
v 0.5 -0.375 0.5
v 0.375 -0.375 0.5
v 0.375 -0.25 0.5
v 0.25 -0.25 0.5
v 0.25 -0.25 -0.5
v 0.375 -0.25 -0.5
v 0.125 -0.125 -0.5
v 0.25 -0.125 -0.5
v 0.25 -0.125 0.5
v 0.125 -0.125 0.5
v -0.5 0.5 0.5
v -0.5 0.5 -0.5
v -0.375 0.5 -0.5
v -0.375 0.5 0.5
v 0.125 0 0.5
v 0 0 0.5
v 0 0 -0.5
v 0.125 0 -0.5
v -0.125 0.125 -0.5
v 0 0.125 -0.5
v 0 0.125 0.5
v -0.125 0.125 0.5
v -0.375 0.375 0.5
v -0.375 0.375 -0.5
v -0.25 0.375 -0.5
v -0.25 0.375 0.5
v -0.125 0.25 0.5
v -0.25 0.25 0.5
v -0.25 0.25 -0.5
v -0.125 0.25 -0.5
v -0.5 0.25 -0.5
v -0.5 0.5 -0.5
v -0.5 0.5 0.5
v -0.5 0.25 0.5
v 0.375 -0.375 0.5
v 0.375 -0.25 0.5
v 0.375 -0.25 -0.5
v 0.375 -0.375 -0.5
v 0.25 -0.125 -0.5
v 0.25 -0.25 -0.5
v 0.25 -0.25 0.5
v 0.25 -0.125 0.5
v 0.125 0 -0.5
v 0.125 -0.125 -0.5
v 0.125 -0.125 0.5
v 0.125 0 0.5
v 0 0.125 -0.5
v 0 0 -0.5
v 0 0 0.5
v 0 0.125 0.5
v -0.125 0.25 -0.5
v -0.125 0.125 -0.5
v -0.125 0.125 0.5
v -0.125 0.25 0.5
v -0.25 0.375 -0.5
v -0.25 0.25 -0.5
v -0.25 0.25 0.5
v -0.25 0.375 0.5
v -0.375 0.5 0.5
v -0.375 0.5 -0.5
v -0.375 0.375 -0.5
v -0.375 0.375 0.5
v 0.5 -0.375 -0.5
v 0.5 -0.75 -0.5
v 0.5 -0.75 0.5
v 0.5 -0.375 0.5
v 0 0 0.5
v 0.125 0 0.5
v 0.125 -0.125 0.5
v 0.375 -0.625 0.5
v 0.25 -0.25 0.5
v 0.25 -0.125 0.5
v 0.375 -0.375 0.5
v 0.375 -0.25 0.5
v 0.5 -0.375 0.5
v 0.5 -0.75 0.5
v -0.5 0.25 0.5
v -0.125 0.125 0.5
v 0 0.125 0.5
v -0.25 0.25 0.5
v -0.125 0.25 0.5
v -0.375 0.375 0.5
v -0.25 0.375 0.5
v -0.5 0.5 0.5
v -0.375 0.5 0.5
v 0.375 -0.625 -0.5
v 0.375 -0.625 0.5
v 0.5 -0.75 0.5
v 0.5 -0.75 -0.5
v -0.5 0.25 -0.5
v -0.5 0.25 0.5
v 0.375 -0.625 0.5
v 0.375 -0.625 -0.5
vt 0.875 0.1953125
vt 0.875 0.1875
vt 0.8828125 0.1953125
vt 0.90625 0.2109375
vt 0.890625 0.203125
vt 0.8828125 0.203125
vt 0.8984375 0.2109375
vt 0.890625 0.2109375
vt 0.8984375 0.21875
vt 0.9140625 0.21875
vt 0.8515625 0.15625
vt 0.8671875 0.1796875
vt 0.8671875 0.1875
vt 0.859375 0.171875
vt 0.859375 0.1796875
vt 0.8515625 0.1640625
vt 0.8515625 0.171875
vt 0.84375 0.1640625
vt 0.84375 0.15625
vt 0.84375 0.1484375
vt 0.84375 0.15625
vt 0.90625 0.15625
vt 0.90625 0.1484375
vt 0.90625 0.1484375
vt 0.90625 0.140625
vt 0.84375 0.140625
vt 0.84375 0.1484375
vt 0.84375 0.1328125
vt 0.84375 0.140625
vt 0.90625 0.140625
vt 0.90625 0.1328125
vt 0.90625 0.09375
vt 0.84375 0.09375
vt 0.84375 0.1015625
vt 0.90625 0.1015625
vt 0.90625 0.1328125
vt 0.90625 0.125
vt 0.84375 0.125
vt 0.84375 0.1328125
vt 0.84375 0.1171875
vt 0.84375 0.125
vt 0.90625 0.125
vt 0.90625 0.1171875
vt 0.90625 0.1015625
vt 0.84375 0.1015625
vt 0.84375 0.109375
vt 0.90625 0.109375
vt 0.90625 0.1171875
vt 0.90625 0.109375
vt 0.84375 0.109375
vt 0.84375 0.1171875
vt 0.9375 0.2060547
vt 0.9375 0.21875
vt 0.96875 0.21875
vt 0.96875 0.2060547
vt 0.90625 0.1015625
vt 0.90625 0.109375
vt 0.9682617 0.109375
vt 0.9682617 0.1015625
vt 0.9682617 0.1171875
vt 0.9682617 0.109375
vt 0.90625 0.109375
vt 0.90625 0.1171875
vt 0.9682617 0.125
vt 0.9682617 0.1171875
vt 0.90625 0.1171875
vt 0.90625 0.125
vt 0.9682617 0.1328125
vt 0.9682617 0.125
vt 0.90625 0.125
vt 0.90625 0.1328125
vt 0.9682617 0.140625
vt 0.9682617 0.1328125
vt 0.90625 0.1328125
vt 0.90625 0.140625
vt 0.9682617 0.1484375
vt 0.9682617 0.140625
vt 0.90625 0.140625
vt 0.90625 0.1484375
vt 0.90625 0.15625
vt 0.9682617 0.15625
vt 0.9682617 0.1484375
vt 0.90625 0.1484375
vt 0.9682617 0.1015625
vt 0.9682617 0.09375
vt 0.90625 0.09375
vt 0.90625 0.1015625
vt 0.875 0.1875
vt 0.875 0.1953125
vt 0.8828125 0.1953125
vt 0.90625 0.2109375
vt 0.890625 0.203125
vt 0.8828125 0.203125
vt 0.8984375 0.2109375
vt 0.890625 0.2109375
vt 0.8984375 0.21875
vt 0.9140625 0.21875
vt 0.8515625 0.15625
vt 0.8671875 0.1796875
vt 0.8671875 0.1875
vt 0.859375 0.171875
vt 0.859375 0.1796875
vt 0.8515625 0.1640625
vt 0.8515625 0.171875
vt 0.84375 0.15625
vt 0.84375 0.1640625
vt 0.9375 0.1625976
vt 0.96875 0.1625976
vt 0.96875 0.15625
vt 0.9375 0.15625
vt 0.9375 0.1938476
vt 0.96875 0.1938476
vt 0.96875 0.1811524
vt 0.9375 0.1811524
vn 0 0 -1
vn 0 0 -1
vn 0 0 -1
vn 0 0 -1
vn 0 0 -1
vn 0 0 -1
vn 0 0 -1
vn 0 0 -1
vn 0 0 -1
vn 0 0 -1
vn 0 0 -1
vn 0 0 -1
vn 0 0 -1
vn 0 0 -1
vn 0 0 -1
vn 0 0 -1
vn 0 0 -1
vn 0 0 -1
vn 0 0 -1
vn 0 1 0
vn 0 1 0
vn 0 1 0
vn 0 1 0
vn 0 1 0
vn 0 1 0
vn 0 1 0
vn 0 1 0
vn 0 1 0
vn 0 1 0
vn 0 1 0
vn 0 1 0
vn 0 1 0
vn 0 1 0
vn 0 1 0
vn 0 1 0
vn 0 1 0
vn 0 1 0
vn 0 1 0
vn 0 1 0
vn 0 1 0
vn 0 1 0
vn 0 1 0
vn 0 1 0
vn 0 1 0
vn 0 1 0
vn 0 1 0
vn 0 1 0
vn 0 1 0
vn 0 1 0
vn 0 1 0
vn 0 1 0
vn -1 0 0
vn -1 0 0
vn -1 0 0
vn -1 0 0
vn 1 0 0
vn 1 0 0
vn 1 0 0
vn 1 0 0
vn 1 0 0
vn 1 0 0
vn 1 0 0
vn 1 0 0
vn 1 0 0
vn 1 0 0
vn 1 0 0
vn 1 0 0
vn 1 0 0
vn 1 0 0
vn 1 0 0
vn 1 0 0
vn 1 0 0
vn 1 0 0
vn 1 0 0
vn 1 0 0
vn 1 0 0
vn 1 0 0
vn 1 0 0
vn 1 0 0
vn 1 0 0
vn 1 0 0
vn 1 0 0
vn 1 0 0
vn 1 0 0
vn 1 0 0
vn 1 0 0
vn 1 0 0
vn 0 0 1
vn 0 0 1
vn 0 0 1
vn 0 0 1
vn 0 0 1
vn 0 0 1
vn 0 0 1
vn 0 0 1
vn 0 0 1
vn 0 0 1
vn 0 0 1
vn 0 0 1
vn 0 0 1
vn 0 0 1
vn 0 0 1
vn 0 0 1
vn 0 0 1
vn 0 0 1
vn 0 0 1
vn -0.7071068 -0.7071068 0
vn -0.7071068 -0.7071068 0
vn -0.7071068 -0.7071068 0
vn -0.7071068 -0.7071068 0
vn -0.7071068 -0.7071068 0
vn -0.7071068 -0.7071068 0
vn -0.7071068 -0.7071068 0
vn -0.7071068 -0.7071068 0
g _Combined_Vis18_0_0
f 3/3/3 2/2/2 1/1/1
f 4/4/4 2/2/2 3/3/3
f 5/5/5 4/4/4 3/3/3
f 6/6/6 5/5/5 3/3/3
f 7/7/7 4/4/4 5/5/5
f 8/8/8 7/7/7 5/5/5
f 7/7/7 9/9/9 4/4/4
f 9/9/9 10/10/10 4/4/4
f 4/4/4 11/11/11 2/2/2
f 2/2/2 11/11/11 12/12/12
f 13/13/13 2/2/2 12/12/12
f 12/12/12 11/11/11 14/14/14
f 12/12/12 14/14/14 15/15/15
f 14/14/14 11/11/11 16/16/16
f 17/17/17 14/14/14 16/16/16
f 16/16/16 11/11/11 18/18/18
f 11/11/11 19/19/19 18/18/18
f 22/22/22 21/21/21 20/20/20
f 23/23/23 22/22/22 20/20/20
f 26/26/26 25/25/25 24/24/24
f 27/27/27 26/26/26 24/24/24
f 30/30/30 29/29/29 28/28/28
f 31/31/31 30/30/30 28/28/28
f 34/34/34 33/33/33 32/32/32
f 35/35/35 34/34/34 32/32/32
f 38/38/38 37/37/37 36/36/36
f 39/39/39 38/38/38 36/36/36
f 42/42/42 41/41/41 40/40/40
f 43/43/43 42/42/42 40/40/40
f 46/46/46 45/45/45 44/44/44
f 47/47/47 46/46/46 44/44/44
f 50/50/50 49/49/49 48/48/48
f 51/51/51 50/50/50 48/48/48
f 54/54/54 53/53/53 52/52/52
f 55/55/55 54/54/54 52/52/52
f 58/58/58 57/57/57 56/56/56
f 59/59/59 58/58/58 56/56/56
f 62/62/62 61/61/61 60/60/60
f 63/63/63 62/62/62 60/60/60
f 66/66/66 65/65/65 64/64/64
f 67/67/67 66/66/66 64/64/64
f 70/70/70 69/69/69 68/68/68
f 71/71/71 70/70/70 68/68/68
f 74/74/74 73/73/73 72/72/72
f 75/75/75 74/74/74 72/72/72
f 78/78/78 77/77/77 76/76/76
f 79/79/79 78/78/78 76/76/76
f 82/82/82 81/81/81 80/80/80
f 83/83/83 82/82/82 80/80/80
f 86/86/86 85/85/85 84/84/84
f 87/87/87 86/86/86 84/84/84
f 90/90/90 89/89/89 88/88/88
f 91/91/91 90/90/90 88/88/88
f 91/91/91 92/92/92 90/90/90
f 93/93/93 90/90/90 92/92/92
f 94/94/94 92/92/92 91/91/91
f 95/95/95 92/92/92 94/94/94
f 96/96/96 94/94/94 91/91/91
f 97/97/97 96/96/96 91/91/91
f 91/91/91 88/88/88 98/98/98
f 88/88/88 99/99/99 98/98/98
f 88/88/88 100/100/100 99/99/99
f 99/99/99 101/101/101 98/98/98
f 99/99/99 102/102/102 101/101/101
f 98/98/98 101/101/101 103/103/103
f 104/104/104 103/103/103 101/101/101
f 98/98/98 103/103/103 105/105/105
f 103/103/103 106/106/106 105/105/105
f 109/109/109 108/108/108 107/107/107
f 110/110/110 109/109/109 107/107/107
f 113/113/113 112/112/112 111/111/111
f 114/114/114 113/113/113 111/111/111
