g _Combined_Vis13_0
v 2.25 -1.5 -2.5
v 2.25 -1.5 -1.5
v 2.5 -1.5 -1.5
v 2.5 -1.5 -2.5
v 1.5 -0.4999998 -1.500001
v 1.5 -0.7499998 -1.5
v 1.5 -0.75 -2.5
v 1.5 -0.5 -2.500001
v 2.25 -1.5 -2.5
v 2.5 -1.5 -2.5
v 2.5 -0.5000002 -2.5
v 2.19291 -1.214565 -2.5
v 2.03033 -0.9712477 -2.5
v 1.787012 -0.8086681 -2.5
v 1.5 -0.75 -2.5
v 1.5 -0.5 -2.500001
v 2.25 -1.5 -1.5
v 2.5 -0.5 -1.5
v 2.5 -1.5 -1.5
v 2.19291 -1.214565 -1.5
v 2.03033 -0.9712474 -1.5
v 1.787012 -0.808668 -1.5
v 1.5 -0.7499998 -1.5
v 1.5 -0.4999998 -1.500001
v 1.5 -0.7499998 -1.5
v 1.787012 -0.8086681 -2.5
v 1.5 -0.75 -2.5
v 1.787012 -0.808668 -1.5
v 2.03033 -0.9712477 -2.5
v 2.03033 -0.9712474 -1.5
v 2.19291 -1.214565 -2.5
v 2.19291 -1.214565 -1.5
v 2.25 -1.5 -2.5
v 2.25 -1.5 -1.5
v 2.25 -4.5 -2.5
v 2.25 -4.5 -1.5
v 2.5 -4.5 -1.5
v 2.5 -4.5 -2.5
v 1.5 -3.5 -1.5
v 1.5 -3.75 -1.5
v 1.5 -3.75 -2.5
v 1.5 -3.5 -2.5
v 2.25 -4.5 -2.5
v 2.5 -4.5 -2.5
v 2.5 -3.5 -2.5
v 2.192909 -4.214565 -2.5
v 2.03033 -3.971247 -2.5
v 1.787012 -3.808668 -2.5
v 1.5 -3.75 -2.5
v 1.5 -3.5 -2.5
v 2.25 -4.5 -1.5
v 2.5 -3.5 -1.5
v 2.5 -4.5 -1.5
v 2.192909 -4.214565 -1.5
v 2.03033 -3.971247 -1.5
v 1.787012 -3.808668 -1.5
v 1.5 -3.75 -1.5
v 1.5 -3.5 -1.5
v 1.5 -3.75 -1.5
v 1.787012 -3.808668 -2.5
v 1.5 -3.75 -2.5
v 1.787012 -3.808668 -1.5
v 2.03033 -3.971247 -2.5
v 2.03033 -3.971247 -1.5
v 2.192909 -4.214565 -2.5
v 2.192909 -4.214565 -1.5
v 2.25 -4.5 -2.5
v 2.25 -4.5 -1.5
v 0.4999999 -4.500001 2.5
v 1.5 -4.499999 2.5
v 1.5 -3.5 2.5
v 0.5 -3.5 2.5
v -0.5000001 -4.500001 2.5
v 0.4999999 -4.500001 2.5
v 0.5 -3.5 2.5
v -0.5 -3.5 2.5
v -1.5 -4.500001 2.5
v -0.5000001 -4.500001 2.5
v -0.5 -3.5 2.5
v -1.5 -3.5 2.5
v -2.5 -4.500001 2.5
v -1.5 -4.500001 2.5
v -1.5 -3.5 2.5
v -2.5 -3.5 2.5
v 0.4999999 -1.500001 2.5
v 1.5 -1.499999 2.5
v 1.5 -0.4999999 2.5
v 0.5 -0.5 2.5
v -0.5000001 -1.500001 2.5
v 0.4999999 -1.500001 2.5
v 0.5 -0.5 2.5
v -0.5 -0.5 2.5
v -1.5 -1.500001 2.5
v -0.5000001 -1.500001 2.5
v -0.5 -0.5 2.5
v -1.5 -0.5 2.5
v -2.5 -1.500001 2.5
v -1.5 -1.500001 2.5
v -1.5 -0.5 2.5
v -2.5 -0.5 2.5
v -1.5 -3.5 2.5
v -0.5 -3.5 2.5
v -0.4999999 -2.5 2.5
v -1.5 -2.5 2.5
v -0.4999999 -2.5 2.5
v 0.5 -2.499999 2.5
v 0.4999999 -1.500001 2.5
v -0.5000001 -1.500001 2.5
v -2.5 -3.5 2.5
v -1.5 -3.5 2.5
v -1.5 -2.5 2.5
v -2.5 -2.5 2.5
v -2.5 -2.5 2.5
v -1.5 -2.5 2.5
v -1.5 -1.500001 2.5
v -2.5 -1.500001 2.5
v 0.5 -3.5 2.5
v 1.5 -3.5 2.5
v 1.5 -2.5 2.5
v 0.5 -2.499999 2.5
v -0.5 -3.5 2.5
v 0.5 -3.5 2.5
v 0.5 -2.499999 2.5
v -0.4999999 -2.5 2.5
v 0.5 -2.499999 2.5
v 1.5 -2.5 2.5
v 1.5 -1.499999 2.5
v 0.4999999 -1.500001 2.5
v -1.5 -2.5 2.5
v -0.4999999 -2.5 2.5
v -0.5000001 -1.500001 2.5
v -1.5 -1.500001 2.5
v 1.499971 -0.499999 0.5
v 1.499971 -0.500001 -0.5
v 1.499971 -1.5 -0.5
v 1.499971 -1.5 0.5
v 2.5 -1.5 3.5
v 2.5 -1.375 2.625
v 2.5 -1.5 2.5
v 2.5 -0.5 2.5
v 2.5 -1.375 3.375
v 2.5 -0.875 3.375
v 2.5 -0.5 3.5
v 2.5 -0.625 3.125
v 2.5 -0.875 2.625
v 2.5 -0.625 2.875
vt 0.8743361 0.07022859
vt 0.8743361 0.1013682
vt 0.8587468 0.1013682
vt 0.8587468 0.07022859
vt 0.8743758 0.07022864
vt 0.8587078 0.07022864
vt 0.8587077 0.1013683
vt 0.8743758 0.1013683
vt 0.8284245 0.07052664
vt 0.7973961 0.07052664
vt 0.7973961 0.1325056
vt 0.8354623 0.0882176
vt 0.8556154 0.1032982
vt 0.8857765 0.1133747
vt 0.9213539 0.1169131
vt 0.9213539 0.1325056
vt 0.8284245 0.07052664
vt 0.7973961 0.1325056
vt 0.7973961 0.07052664
vt 0.8354623 0.0882176
vt 0.8556154 0.1032982
vt 0.8857765 0.1133747
vt 0.9213539 0.1169131
vt 0.9213539 0.1325056
vt 0.9213031 0.1015855
vt 0.8904455 0.09376372
vt 0.8904454 0.1015855
vt 0.9213031 0.09376374
vt 0.8904454 0.08594193
vt 0.9213031 0.08594193
vt 0.8904454 0.07812013
vt 0.9213031 0.07812012
vt 0.8904454 0.07034133
vt 0.9213031 0.07034131
vt 0.8743361 0.07022859
vt 0.8743361 0.1013682
vt 0.8587468 0.1013682
vt 0.8587468 0.07022859
vt 0.8743758 0.07022864
vt 0.8587078 0.07022864
vt 0.8587077 0.1013683
vt 0.8743758 0.1013683
vt 0.8284245 0.07052664
vt 0.7973961 0.07052664
vt 0.7973961 0.1325056
vt 0.8354623 0.0882176
vt 0.8556154 0.1032982
vt 0.8857765 0.1133747
vt 0.9213539 0.1169131
vt 0.9213539 0.1325056
vt 0.8284245 0.07052664
vt 0.7973961 0.1325056
vt 0.7973961 0.07052664
vt 0.8354623 0.0882176
vt 0.8556154 0.1032982
vt 0.8857765 0.1133747
vt 0.9213539 0.1169131
vt 0.9213539 0.1325056
vt 0.9213031 0.1015855
vt 0.8904455 0.09376372
vt 0.8904454 0.1015855
vt 0.9213031 0.09376374
vt 0.8904454 0.08594193
vt 0.9213031 0.08594193
vt 0.8904454 0.07812013
vt 0.9213031 0.07812012
vt 0.8904454 0.07034133
vt 0.9213031 0.07034131
vt 0.296875 0.2578125
vt 0.296875 0.1953125
vt 0.171875 0.1953125
vt 0.171875 0.2578125
vt 0.296875 0.2578125
vt 0.296875 0.1953125
vt 0.171875 0.1953125
vt 0.171875 0.2578125
vt 0.296875 0.2578125
vt 0.296875 0.1953125
vt 0.171875 0.1953125
vt 0.171875 0.2578125
vt 0.296875 0.2578125
vt 0.296875 0.1953125
vt 0.171875 0.1953125
vt 0.171875 0.2578125
vt 0.296875 0.4921875
vt 0.296875 0.4296875
vt 0.171875 0.4296875
vt 0.171875 0.4921875
vt 0.296875 0.4921875
vt 0.296875 0.4296875
vt 0.171875 0.4296875
vt 0.171875 0.4921875
vt 0.296875 0.4921875
vt 0.296875 0.4296875
vt 0.171875 0.4296875
vt 0.171875 0.4921875
vt 0.296875 0.4921875
vt 0.296875 0.4296875
vt 0.171875 0.4296875
vt 0.171875 0.4921875
vt 0.296875 0.2578125
vt 0.296875 0.1953125
vt 0.171875 0.1953125
vt 0.171875 0.2578125
vt 0.453125 0.2578125
vt 0.453125 0.1953125
vt 0.328125 0.1953125
vt 0.328125 0.2578125
vt 0.296875 0.2578125
vt 0.296875 0.1953125
vt 0.171875 0.1953125
vt 0.171875 0.2578125
vt 0.453125 0.2578125
vt 0.453125 0.1953125
vt 0.328125 0.1953125
vt 0.328125 0.2578125
vt 0.296875 0.2578125
vt 0.296875 0.1953125
vt 0.171875 0.1953125
vt 0.171875 0.2578125
vt 0.296875 0.2578125
vt 0.296875 0.1953125
vt 0.171875 0.1953125
vt 0.171875 0.2578125
vt 0.453125 0.2578125
vt 0.453125 0.1953125
vt 0.328125 0.1953125
vt 0.328125 0.2578125
vt 0.453125 0.2578125
vt 0.453125 0.1953125
vt 0.328125 0.1953125
vt 0.328125 0.2578125
vt 0.453125 0.2578125
vt 0.453125 0.1953125
vt 0.328125 0.1953125
vt 0.328125 0.2578125
vt 0.171875 0.0390625
vt 0.28125 0.046875
vt 0.296875 0.0390625
vt 0.296875 0.1015625
vt 0.1875 0.046875
vt 0.1875 0.078125
vt 0.171875 0.1015625
vt 0.21875 0.09375
vt 0.28125 0.078125
vt 0.25 0.09375
vn -1.604852E-07 -1 3.576279E-07
vn -1.604852E-07 -1 3.576279E-07
vn -1.604852E-07 -1 3.576279E-07
vn -1.604852E-07 -1 3.576279E-07
vn -1 1.604851E-07 -8.102218E-09
vn -1 1.604851E-07 -8.102218E-09
vn -1 1.604851E-07 -8.102218E-09
vn -1 1.604851E-07 -8.102218E-09
vn 8.102177E-09 -1.788139E-07 -1
vn 8.102177E-09 -1.788139E-07 -1
vn 8.102177E-09 -1.788139E-07 -1
vn 8.102177E-09 -1.788139E-07 -1
vn 8.102177E-09 -1.788139E-07 -1
vn 8.102177E-09 -1.788139E-07 -1
vn 8.102177E-09 -1.788139E-07 -1
vn 8.102177E-09 -1.788139E-07 -1
vn -8.102177E-09 1.788139E-07 1
vn -8.102177E-09 1.788139E-07 1
vn -8.102177E-09 1.788139E-07 1
vn -8.102177E-09 1.788139E-07 1
vn -8.102177E-09 1.788139E-07 1
vn -8.102177E-09 1.788139E-07 1
vn -8.102177E-09 1.788139E-07 1
vn -8.102177E-09 1.788139E-07 1
vn -0.2002687 -0.979741 3.487601E-07
vn -0.3851222 -0.9228656 3.269221E-07
vn -0.2002687 -0.979741 3.487601E-07
vn -0.3851222 -0.9228655 3.269221E-07
vn -0.7071066 -0.7071069 2.47152E-07
vn -0.7071068 -0.7071068 2.47152E-07
vn -0.923677 -0.3831719 1.295492E-07
vn -0.923677 -0.3831719 1.295492E-07
vn -0.9805784 -0.1961275 6.219584E-08
vn -0.9805784 -0.1961275 6.219584E-08
vn 0 -1 1.192093E-07
vn 0 -1 1.192093E-07
vn 0 -1 1.192093E-07
vn 0 -1 1.192093E-07
vn -1 0 0
vn -1 0 0
vn -1 0 0
vn -1 0 0
vn 0 1.192093E-07 -1
vn 0 1.192093E-07 -1
vn 0 1.192093E-07 -1
vn 0 1.192093E-07 -1
vn 0 1.192093E-07 -1
vn 0 1.192093E-07 -1
vn 0 1.192093E-07 -1
vn 0 1.192093E-07 -1
vn 0 -1.192093E-07 1
vn 0 -1.192093E-07 1
vn 0 -1.192093E-07 1
vn 0 -1.192093E-07 1
vn 0 -1.192093E-07 1
vn 0 -1.192093E-07 1
vn 0 -1.192093E-07 1
vn 0 -1.192093E-07 1
vn -0.2002685 -0.979741 1.167942E-07
vn -0.385122 -0.9228657 1.100141E-07
vn -0.2002685 -0.979741 1.167942E-07
vn -0.3851221 -0.9228656 1.100141E-07
vn -0.7071065 -0.707107 8.429372E-08
vn -0.7071066 -0.7071069 8.429371E-08
vn -0.923677 -0.3831721 4.567767E-08
vn -0.923677 -0.3831721 4.567766E-08
vn -0.9805784 -0.1961277 2.338023E-08
vn -0.9805784 -0.1961277 2.338023E-08
vn 0 0 -1
vn 0 0 -1
vn 0 0 -1
vn 0 0 -1
vn 0 0 -1
vn 0 0 -1
vn 0 0 -1
vn 0 0 -1
vn 0 0 -1
vn 0 0 -1
vn 0 0 -1
vn 0 0 -1
vn 0 0 -1
vn 0 0 -1
vn 0 0 -1
vn 0 0 -1
vn -1.053671E-08 8.865813E-08 -1
vn -1.053671E-08 8.865813E-08 -1
vn -1.053671E-08 8.865813E-08 -1
vn -1.053671E-08 8.865813E-08 -1
vn -1.053671E-08 8.865813E-08 -1
vn -1.053671E-08 8.865813E-08 -1
vn -1.053671E-08 8.865813E-08 -1
vn -1.053671E-08 8.865813E-08 -1
vn 0 0 -1
vn 0 0 -1
vn 0 0 -1
vn 0 0 -1
vn 0 0 -1
vn 0 0 -1
vn 0 0 -1
vn 0 0 -1
vn 0 0 -1
vn 0 0 -1
vn 0 0 -1
vn 0 0 -1
vn 0 0 -1
vn 0 0 -1
vn 0 0 -1
vn 0 0 -1
vn 0 0 -1
vn 0 0 -1
vn 0 0 -1
vn 0 0 -1
vn 0 0 -1
vn 0 0 -1
vn 0 0 -1
vn 0 0 -1
vn 0 0 -1
vn 0 0 -1
vn 0 0 -1
vn 0 0 -1
vn 0 0 -1
vn 0 0 -1
vn 0 0 -1
vn 0 0 -1
vn 0 0 -1
vn 0 0 -1
vn 0 0 -1
vn 0 0 -1
vn 0 0 -1
vn 0 0 -1
vn 0 0 -1
vn 0 0 -1
vn 1 0 0
vn 1 0 0
vn 1 0 0
vn 1 0 0
vn 1 0 5.960464E-08
vn 1 0 5.960464E-08
vn 1 0 5.960464E-08
vn 1 0 5.960464E-08
vn 1 0 5.960464E-08
vn 1 0 5.960464E-08
vn 1 0 5.960464E-08
vn 1 0 5.960464E-08
vn 1 0 5.960464E-08
vn 1 0 5.960464E-08
g _Combined_Vis13_0_0
f 3/3/3 2/2/2 1/1/1
f 4/4/4 3/3/3 1/1/1
f 7/7/7 6/6/6 5/5/5
f 8/8/8 7/7/7 5/5/5
f 11/11/11 10/10/10 9/9/9
f 12/12/12 11/11/11 9/9/9
f 12/12/12 13/13/13 11/11/11
f 14/14/14 11/11/11 13/13/13
f 11/11/11 14/14/14 15/15/15
f 16/16/16 11/11/11 15/15/15
f 19/19/19 18/18/18 17/17/17
f 18/18/18 20/20/20 17/17/17
f 20/20/20 18/18/18 21/21/21
f 22/22/22 21/21/21 18/18/18
f 23/23/23 22/22/22 18/18/18
f 24/24/24 23/23/23 18/18/18
f 27/27/27 26/26/26 25/25/25
f 26/26/26 28/28/28 25/25/25
f 28/28/28 26/26/26 29/29/29
f 30/30/30 28/28/28 29/29/29
f 30/30/30 29/29/29 31/31/31
f 32/32/32 30/30/30 31/31/31
f 32/32/32 31/31/31 33/33/33
f 34/34/34 32/32/32 33/33/33
f 37/37/37 36/36/36 35/35/35
f 38/38/38 37/37/37 35/35/35
f 41/41/41 40/40/40 39/39/39
f 42/42/42 41/41/41 39/39/39
f 45/45/45 44/44/44 43/43/43
f 46/46/46 45/45/45 43/43/43
f 46/46/46 47/47/47 45/45/45
f 48/48/48 45/45/45 47/47/47
f 45/45/45 48/48/48 49/49/49
f 50/50/50 45/45/45 49/49/49
f 53/53/53 52/52/52 51/51/51
f 52/52/52 54/54/54 51/51/51
f 54/54/54 52/52/52 55/55/55
f 56/56/56 55/55/55 52/52/52
f 57/57/57 56/56/56 52/52/52
f 58/58/58 57/57/57 52/52/52
f 61/61/61 60/60/60 59/59/59
f 60/60/60 62/62/62 59/59/59
f 62/62/62 60/60/60 63/63/63
f 64/64/64 62/62/62 63/63/63
f 64/64/64 63/63/63 65/65/65
f 66/66/66 64/64/64 65/65/65
f 66/66/66 65/65/65 67/67/67
f 68/68/68 66/66/66 67/67/67
f 71/71/71 70/70/70 69/69/69
f 72/72/72 71/71/71 69/69/69
f 75/75/75 74/74/74 73/73/73
f 76/76/76 75/75/75 73/73/73
f 79/79/79 78/78/78 77/77/77
f 80/80/80 79/79/79 77/77/77
f 83/83/83 82/82/82 81/81/81
f 84/84/84 83/83/83 81/81/81
f 87/87/87 86/86/86 85/85/85
f 88/88/88 87/87/87 85/85/85
f 91/91/91 90/90/90 89/89/89
f 92/92/92 91/91/91 89/89/89
f 95/95/95 94/94/94 93/93/93
f 96/96/96 95/95/95 93/93/93
f 99/99/99 98/98/98 97/97/97
f 100/100/100 99/99/99 97/97/97
f 103/103/103 102/102/102 101/101/101
f 104/104/104 103/103/103 101/101/101
f 107/107/107 106/106/106 105/105/105
f 108/108/108 107/107/107 105/105/105
f 111/111/111 110/110/110 109/109/109
f 112/112/112 111/111/111 109/109/109
f 115/115/115 114/114/114 113/113/113
f 116/116/116 115/115/115 113/113/113
f 119/119/119 118/118/118 117/117/117
f 120/120/120 119/119/119 117/117/117
f 123/123/123 122/122/122 121/121/121
f 124/124/124 123/123/123 121/121/121
f 127/127/127 126/126/126 125/125/125
f 128/128/128 127/127/127 125/125/125
f 131/131/131 130/130/130 129/129/129
f 132/132/132 131/131/131 129/129/129
f 135/135/135 134/134/134 133/133/133
f 136/136/136 135/135/135 133/133/133
f 139/139/139 138/138/138 137/137/137
f 139/139/139 140/140/140 138/138/138
f 138/138/138 141/141/141 137/137/137
f 141/141/141 142/142/142 137/137/137
f 142/142/142 143/143/143 137/137/137
f 144/144/144 143/143/143 142/142/142
f 140/140/140 143/143/143 144/144/144
f 140/140/140 145/145/145 138/138/138
f 146/146/146 140/140/140 144/144/144
f 145/145/145 140/140/140 146/146/146
