g _Combined_Vis_Avoid_AO1_0
v 1.907349E-06 0 0.5000004
v -0.9999986 0 0.4999984
v -0.9999986 0 -0.5000011
v 1.907349E-06 0 -0.5000011
v 1.907349E-06 0 -0.5000011
v 1.000002 0 -0.5000003
v 1.000002 0 0.4999989
v 1.907349E-06 0 0.5000004
vt 0.140625 0.171875
vt 0.140625 0.046875
vt 0.015625 0.046875
vt 0.015625 0.171875
vt 0.140625 0.171875
vt 0.140625 0.046875
vt 0.015625 0.046875
vt 0.015625 0.171875
vn 0 1 0
vn 0 1 0
vn 0 1 0
vn 0 1 0
vn 0 1 0
vn 0 1 0
vn 0 1 0
vn 0 1 0
g _Combined_Vis_Avoid_AO1_0_0
f 3/3/3 2/2/2 1/1/1
f 4/4/4 3/3/3 1/1/1
f 7/7/7 6/6/6 5/5/5
f 8/8/8 7/7/7 5/5/5
