g _Combined_Vis6_0
v -2.500025 2.5 2.500004
v -1.500025 2.5 2.500006
v -1.500025 2.5 3.500005
v -2.500025 2.5 3.500005
v 2.499974 2.5 3.500007
v 1.499974 2.5 3.500005
v 1.499974 2.5 2.500006
v 2.499974 2.5 2.500006
v 1.499974 2.5 3.500005
v 0.4999741 2.5 3.500005
v 0.4999745 2.5 2.500006
v 1.499974 2.5 2.500006
v 0.4999741 2.5 3.500005
v -0.500025 2.5 3.500005
v -0.5000245 2.5 2.500005
v 0.4999745 2.5 2.500006
v -0.500025 2.5 3.500005
v -1.500025 2.5 3.500005
v -1.500025 2.5 2.500006
v -0.5000245 2.5 2.500005
v 2.499974 2.5 2.500006
v -2.500025 2.5 2.500004
v -2.500025 -2.5 2.5
v 2.499976 -2.5 2.5
vt 0.765625 0.4140625
vt 0.765625 0.3515625
vt 0.640625 0.3515625
vt 0.640625 0.4140625
vt 0.765625 0.4140625
vt 0.765625 0.3515625
vt 0.640625 0.3515625
vt 0.640625 0.4140625
vt 0.609375 0.4140625
vt 0.609375 0.3515625
vt 0.484375 0.3515625
vt 0.484375 0.4140625
vt 0.609375 0.4140625
vt 0.609375 0.3515625
vt 0.484375 0.3515625
vt 0.484375 0.4140625
vt 0.609375 0.4140625
vt 0.609375 0.3515625
vt 0.484375 0.3515625
vt 0.484375 0.4140625
vt 0.453125 0.2578125
vt 0.453125 0.1953125
vt 0.328125 0.1953125
vt 0.328125 0.2578125
vn -5.960464E-08 1 -4.768372E-07
vn -5.960464E-08 1 -4.768372E-07
vn -5.960464E-08 1 -4.768372E-07
vn -5.960464E-08 1 -4.768372E-07
vn 2.384186E-07 1 -3.576278E-07
vn 2.384186E-07 1 -3.576278E-07
vn 2.384186E-07 1 -3.576278E-07
vn 2.384186E-07 1 -3.576278E-07
vn 2.384186E-07 1 -3.576278E-07
vn 2.384186E-07 1 -3.576278E-07
vn 2.384186E-07 1 -3.576278E-07
vn 2.384186E-07 1 -3.576278E-07
vn 2.384186E-07 1 -3.576278E-07
vn 2.384186E-07 1 -3.576278E-07
vn 2.384186E-07 1 -3.576278E-07
vn 2.384186E-07 1 -3.576278E-07
vn 2.384186E-07 1 -3.576278E-07
vn 2.384186E-07 1 -3.576278E-07
vn 2.384186E-07 1 -3.576278E-07
vn 2.384186E-07 1 -3.576278E-07
vn 1.053671E-08 8.865813E-08 -1
vn 1.053671E-08 8.865813E-08 -1
vn 1.053671E-08 8.865813E-08 -1
vn 1.053671E-08 8.865813E-08 -1
g _Combined_Vis6_0_0
f 3/3/3 2/2/2 1/1/1
f 4/4/4 3/3/3 1/1/1
f 7/7/7 6/6/6 5/5/5
f 8/8/8 7/7/7 5/5/5
f 11/11/11 10/10/10 9/9/9
f 12/12/12 11/11/11 9/9/9
f 15/15/15 14/14/14 13/13/13
f 16/16/16 15/15/15 13/13/13
f 19/19/19 18/18/18 17/17/17
f 20/20/20 19/19/19 17/17/17
f 23/23/23 22/22/22 21/21/21
f 24/24/24 23/23/23 21/21/21
