g _Combined_Vis1_1
v -2.75 2.875 1.5
v -2.625 3 1.5
v -3 3 1.5
v -2.75 2.75 1.5
v -2.75 2.875 1.5
v -2.875 2.75 1.5
v -2.875 2 1.5
v -3 2 1.5
v -3 1 1.5
v -2.875 1 1.5
v -2.125 2 1.5
v -2.125 1 1.5
v -2 1 1.5
v -2 2 1.5
v -2 3 1.5
v -2.125 2.75 1.5
v -2.25 2.75 1.5
v -2.125 2.75 1.5
v -2.25 2.875 1.5
v -2.375 3 1.5
v -2.1875 3 2.4375
v -2.5 3 2.4375
v -2.1875 2 2.4375
v -2.8125 3 2.4375
v -2.8125 2 2.4375
v -2.8125 1.0625 2.4375
v -2.1875 1.0625 2.4375
v -2.1875 3 2.4375
v -2.125 3 1.625
v -2.875 3 1.625
v -2.8125 3 2.4375
v -2.8125 1.0625 2.4375
v -2.125 1 1.625
v -2.1875 1.0625 2.4375
v -2.875 1 1.625
v -2.125 1 1.5
v -2.875 1 1.5
v -2.125 2 1.5
v -2.125 1 1.625
v -2.125 1 1.5
v -2.125 2 1.625
v -2.125 2.75 1.625
v -2.125 2.75 1.5
v -2.125 2 1.625
v -2.125 3 1.625
v -2.1875 3 2.4375
v -2.1875 2 2.4375
v -2.875 2 1.5
v -2.875 2.75 1.625
v -2.875 2.75 1.5
v -2.875 2 1.625
v -2.875 1 1.625
v -2.875 1 1.5
v -2.125 1 1.625
v -2.125 2 1.625
v -2.1875 2 2.4375
v -2.1875 1.0625 2.4375
v -2.875 2 1.625
v -2.875 1 1.625
v -2.8125 1.0625 2.4375
v -2.8125 2 2.4375
v -2.875 3 1.625
v -2.8125 3 2.4375
v -2.875 2.75 1.625
v -2.75 2.75 1.625
v -2.75 2.75 1.5
v -2.875 2.75 1.5
v -2.75 2.75 1.625
v -2.75 2.875 1.625
v -2.75 2.875 1.5
v -2.75 2.75 1.5
v -2.125 2.75 1.5
v -2.25 2.75 1.5
v -2.25 2.75 1.625
v -2.125 2.75 1.625
v -2.25 2.75 1.5
v -2.25 2.875 1.5
v -2.25 2.875 1.625
v -2.25 2.75 1.625
v -2.25 2.875 1.5
v -2.375 3 1.5
v -2.375 3 1.625
v -2.25 2.875 1.625
v -2.625 3 1.5
v -2.625 3 1.625
v -2.375 3 1.625
v -2.375 3 1.5
v -2.75 2.875 1.625
v -2.625 3 1.625
v -2.625 3 1.5
v -2.75 2.875 1.5
v -5 0 0.5
v -6 0 0.5
v -5 -1 0.5
v -5 -1E-06 1.5
v -5.000001 -1.000001 1.5
v -6 0 1.5
v -5 -1 0.5
v -6 0 0.5
v -6 0 1.5
v -5.000001 -1.000001 1.5
v -4 0 1.5
v -3 0 1.5
v -4 -1 1.5
v -4 -1E-06 0.5
v -3.999999 -1.000001 0.5
v -3 0 0.5000001
v -4 -1 1.5
v -3 0 1.5
v -3 0 0.5000001
v -3.999999 -1.000001 0.5
v -2 0 0.5
v -3 0 0.5000001
v -2 -1 0.5
v -2 -1E-06 1.5
v -2.000001 -1.000001 1.5
v -3 0 1.5
v -2 -1 0.5
v -3 0 0.5000001
v -3 0 1.5
v -2.000001 -1.000001 1.5
v -1.000001 3 1.5
v -0.9999991 3 2.5
v 1.192093E-07 3 2.5
v 1.192093E-07 3 1.5
v -2 3 1.5
v -1.999999 3 2.5
v -0.9999991 3 2.5
v -1.000001 3 1.5
v -2 1 1.5
v -1.999999 1 0.4999999
v -0.9999999 1 0.4999999
v -0.9999999 0.9999999 1.5
v -2.000001 1 2.5
v -2 1 1.5
v -0.9999999 0.9999999 1.5
v -0.9999999 0.9999999 2.5
v -2 2.000001 2.5
v -2 2 1.5
v -2 1 1.5
v -2.000001 1 2.5
v -1.999999 3 2.5
v -2 3 1.5
v -2 2 1.5
v -2 2.000001 2.5
v -3.000001 1 0.5
v -3 0 0.5000001
v -2 0 0.5
v -1.999999 1 0.4999999
v -3.000001 1 0.5
v -1.999999 1 0.4999999
v -2 1 1.5
v -3 1 1.5
v -5.000001 1 0.5
v -5 0 0.5
v -4 -1E-06 0.5
v -4 1 0.5000001
v -5.000001 1 0.5
v -4 1 0.5000001
v -4 1 1.5
v -5 1 1.5
v -6.000001 1 0.5
v -6 0 0.5
v -5 0 0.5
v -5.000001 1 0.5
v -6.000001 1 0.5
v -5.000001 1 0.5
v -5 1 1.5
v -6 1 1.5
v -5 -1 0.5
v -4.999999 -2 0.5
v -4 -2 0.5000001
v -3.999999 -1.000001 0.5
v -4.999999 -2 0.5
v -4.999999 -3 0.5
v -4 -3 0.5000001
v -4 -2 0.5000001
v -4.999999 -3 0.5
v -4.999999 -4 0.5
v -4 -4 0.5000001
v -4 -3 0.5000001
v -4.999999 -4 0.5
v -4.999999 -5 0.5
v -4 -5 0.5000001
v -4 -4 0.5000001
v -4.999999 -5 0.5
v -4.999999 -6 0.5
v -4 -6 0.5000001
v -4 -5 0.5000001
v -4.999999 -6 0.5
v -4.999999 -7 0.5
v -4 -7 0.5000001
v -4 -6 0.5000001
v -4 -1 1.5
v -3.999999 -1.000001 0.5
v -4 -2 0.5000001
v -4 -2 1.5
v -4 -3 1.500001
v -4 -2 1.5
v -4 -3 0.5000001
v -4 -3 0.5000001
v -4 -4 0.5000001
v -4 -4 1.5
v -4 -4 1.5
v -4 -4 0.5000001
v -4 -5 0.5000001
v -4 -5 1.5
v -4 -5 1.5
v -4 -5 0.5000001
v -4 -6 0.5000001
v -4 -6 1.5
v -4 -6 1.5
v -4 -6 0.5000001
v -4 -7 0.5000001
v -4 -7 1.5
v -4 1 0.5000001
v -4 -1E-06 0.5
v -3 0 0.5000001
v -3.000001 1 0.5
v -5 0 0.5
v -5 -1 0.5
v -3.999999 -1.000001 0.5
v -4 -1E-06 0.5
v -4 1 0.5000001
v -3.000001 1 0.5
v -3 1 1.5
v -4 1 1.5
vt 0.6875 0.1953125
vt 0.6796875 0.203125
vt 0.6992188 0.203125
vt 0.6875 0.1855469
vt 0.6875 0.1953125
vt 0.6953125 0.1855469
vt 0.6953125 0.140625
vt 0.6992188 0.140625
vt 0.6992188 0.078125
vt 0.6953125 0.078125
vt 0.6484375 0.140625
vt 0.6484375 0.078125
vt 0.640625 0.078125
vt 0.640625 0.140625
vt 0.640625 0.203125
vt 0.6484375 0.1855469
vt 0.65625 0.1855469
vt 0.6484375 0.1855469
vt 0.65625 0.1953125
vt 0.6640625 0.203125
vt 0.7382813 0.1367188
vt 0.75 0.1367188
vt 0.7382813 0.1074219
vt 0.7617188 0.1367188
vt 0.7617188 0.1074219
vt 0.7617188 0.08007813
vt 0.7382813 0.08007813
vt 0.7617188 0.1445313
vt 0.71875 0.1445313
vt 0.71875 0.2011719
vt 0.7617188 0.2011719
vt 0.6855469 0.08007813
vt 0.6582031 0.1367188
vt 0.6582031 0.08007813
vt 0.6855469 0.1367188
vt 0.6582031 0.1386719
vt 0.6855469 0.1386719
vt 0.6972656 0.171875
vt 0.7011719 0.1425781
vt 0.6972656 0.1425781
vt 0.7011719 0.171875
vt 0.7011719 0.1855469
vt 0.6972656 0.1855469
vt 0.71875 0.1445313
vt 0.71875 0.1738281
vt 0.7617188 0.1738281
vt 0.7617188 0.1445313
vt 0.6972656 0.171875
vt 0.7011719 0.1855469
vt 0.6972656 0.1855469
vt 0.7011719 0.171875
vt 0.7011719 0.1425781
vt 0.6972656 0.1425781
vt 0.71875 0.1738281
vt 0.71875 0.2011719
vt 0.7617188 0.2011719
vt 0.7617188 0.1738281
vt 0.71875 0.1738281
vt 0.71875 0.1445313
vt 0.7617188 0.1445313
vt 0.7617188 0.1738281
vt 0.71875 0.2011719
vt 0.7617188 0.2011719
vt 0.7011719 0.1855469
vt 0.7011719 0.1855469
vt 0.6972656 0.1855469
vt 0.6972656 0.1855469
vt 0.7011719 0.1855469
vt 0.7011719 0.1933594
vt 0.6972656 0.1933594
vt 0.6972656 0.1855469
vt 0.6972656 0.1855469
vt 0.6972656 0.1855469
vt 0.7011719 0.1855469
vt 0.7011719 0.1855469
vt 0.6972656 0.1855469
vt 0.6972656 0.1933594
vt 0.7011719 0.1933594
vt 0.7011719 0.1855469
vt 0.6972656 0.1933594
vt 0.6972656 0.1933594
vt 0.7011719 0.1933594
vt 0.7011719 0.1933594
vt 0.6972656 0.2011719
vt 0.7011719 0.2011719
vt 0.7011719 0.2011719
vt 0.6972656 0.2011719
vt 0.7011719 0.1933594
vt 0.7011719 0.1933594
vt 0.6972656 0.1933594
vt 0.6972656 0.1933594
vt 0.828125 0.2968749
vt 0.828125 0.234375
vt 0.8906249 0.2968749
vt 0.7656251 0.296875
vt 0.828125 0.2968749
vt 0.765625 0.234375
vt 0.8540039 0.296875
vt 0.765625 0.296875
vt 0.765625 0.359375
vt 0.8540039 0.359375
vt 0.828125 0.2968749
vt 0.828125 0.234375
vt 0.8906249 0.2968749
vt 0.7656251 0.296875
vt 0.828125 0.2968749
vt 0.765625 0.234375
vt 0.8540039 0.296875
vt 0.765625 0.296875
vt 0.765625 0.359375
vt 0.8540039 0.359375
vt 0.828125 0.2968749
vt 0.828125 0.234375
vt 0.8906249 0.2968749
vt 0.7656251 0.296875
vt 0.828125 0.2968749
vt 0.765625 0.234375
vt 0.8540039 0.296875
vt 0.765625 0.296875
vt 0.765625 0.359375
vt 0.8540039 0.359375
vt 0.890625 0.359375
vt 0.890625 0.234375
vt 0.765625 0.234375
vt 0.765625 0.359375
vt 0.890625 0.359375
vt 0.890625 0.234375
vt 0.765625 0.234375
vt 0.765625 0.359375
vt 0.890625 0.359375
vt 0.890625 0.234375
vt 0.765625 0.234375
vt 0.765625 0.359375
vt 0.890625 0.359375
vt 0.890625 0.234375
vt 0.765625 0.234375
vt 0.765625 0.359375
vt 0.890625 0.359375
vt 0.890625 0.234375
vt 0.765625 0.234375
vt 0.765625 0.359375
vt 0.890625 0.359375
vt 0.890625 0.234375
vt 0.765625 0.234375
vt 0.765625 0.359375
vt 0.609375 0.984375
vt 0.609375 0.859375
vt 0.484375 0.859375
vt 0.484375 0.984375
vt 0.765625 0.984375
vt 0.765625 0.859375
vt 0.640625 0.859375
vt 0.640625 0.984375
vt 0.609375 0.984375
vt 0.609375 0.859375
vt 0.484375 0.859375
vt 0.484375 0.984375
vt 0.890625 0.359375
vt 0.890625 0.234375
vt 0.765625 0.234375
vt 0.765625 0.359375
vt 0.609375 0.984375
vt 0.609375 0.859375
vt 0.484375 0.859375
vt 0.484375 0.984375
vt 0.890625 0.359375
vt 0.890625 0.234375
vt 0.765625 0.234375
vt 0.765625 0.359375
vt 0.890625 0.359375
vt 0.890625 0.234375
vt 0.765625 0.234375
vt 0.765625 0.359375
vt 0.765625 0.984375
vt 0.765625 0.859375
vt 0.640625 0.859375
vt 0.640625 0.984375
vt 0.890625 0.359375
vt 0.890625 0.234375
vt 0.765625 0.234375
vt 0.765625 0.359375
vt 0.890625 0.359375
vt 0.890625 0.234375
vt 0.765625 0.234375
vt 0.765625 0.359375
vt 0.890625 0.359375
vt 0.890625 0.234375
vt 0.765625 0.234375
vt 0.765625 0.359375
vt 0.890625 0.359375
vt 0.890625 0.234375
vt 0.765625 0.234375
vt 0.765625 0.359375
vt 0.765625 0.984375
vt 0.765625 0.859375
vt 0.640625 0.859375
vt 0.640625 0.984375
vt 0.765625 0.984375
vt 0.765625 0.859375
vt 0.640625 0.984375
vt 0.765625 0.859375
vt 0.640625 0.859375
vt 0.640625 0.984375
vt 0.890625 0.359375
vt 0.890625 0.234375
vt 0.765625 0.234375
vt 0.765625 0.359375
vt 0.890625 0.359375
vt 0.890625 0.234375
vt 0.765625 0.234375
vt 0.765625 0.359375
vt 0.890625 0.359375
vt 0.890625 0.234375
vt 0.765625 0.234375
vt 0.765625 0.359375
vt 0.609375 0.984375
vt 0.609375 0.859375
vt 0.484375 0.859375
vt 0.484375 0.984375
vt 0.765625 0.984375
vt 0.765625 0.859375
vt 0.640625 0.859375
vt 0.640625 0.984375
vt 0.765625 0.984375
vt 0.765625 0.859375
vt 0.640625 0.859375
vt 0.640625 0.984375
vn 8.742278E-08 0 -1
vn 8.742278E-08 0 -1
vn 8.742278E-08 0 -1
vn 8.742278E-08 0 -1
vn 8.742278E-08 0 -1
vn 8.742278E-08 0 -1
vn 8.742278E-08 0 -1
vn 8.742278E-08 0 -1
vn 8.742278E-08 0 -1
vn 8.742278E-08 0 -1
vn 8.742278E-08 0 -1
vn 8.742278E-08 0 -1
vn 8.742278E-08 0 -1
vn 8.742278E-08 0 -1
vn 8.742278E-08 0 -1
vn 8.742278E-08 0 -1
vn 8.742278E-08 0 -1
vn 8.742278E-08 0 -1
vn 8.742278E-08 0 -1
vn 8.742278E-08 0 -1
vn 8.742278E-08 0 -1
vn 8.742278E-08 0 -1
vn 8.742278E-08 0 -1
vn 8.742278E-08 0 -1
vn 8.742278E-08 0 -1
vn 8.742278E-08 0 -1
vn 8.742278E-08 0 -1
vn 0 -1 0
vn 0 -1 0
vn 0 -1 0
vn 0 -1 0
vn 6.704817E-09 0.9970547 -0.07669417
vn 3.270989E-09 0.9992998 -0.03741575
vn 6.704817E-09 0.9970547 -0.07669417
vn 3.270989E-09 0.9992998 -0.03741575
vn 0 1 0
vn 0 1 0
vn -1 0 -8.742278E-08
vn -0.9992998 0 -0.03741584
vn -1 0 -8.742278E-08
vn -0.9992639 0 -0.03836288
vn -1 0 -8.742278E-08
vn -1 0 -8.742278E-08
vn -0.9992639 0 -0.03836288
vn -0.9970547 0 -0.07669426
vn -0.9970547 0 -0.07669426
vn -0.9970547 0 -0.07669426
vn 1 0 8.742278E-08
vn 1 0 8.742278E-08
vn 1 0 8.742278E-08
vn 0.9992639 0 -0.03836271
vn 0.9992998 0 -0.03741567
vn 1 0 8.742278E-08
vn -0.9992998 0 -0.03741584
vn -0.9992639 0 -0.03836288
vn -0.9970547 0 -0.07669426
vn -0.9970547 0 -0.07669426
vn 0.9992639 0 -0.03836271
vn 0.9992998 0 -0.03741567
vn 0.9970547 0 -0.07669408
vn 0.9970547 0 -0.07669408
vn 0.9970547 0 -0.07669408
vn 0.9970547 0 -0.07669408
vn 0 -1 0
vn 0 -1 0
vn 0 -1 0
vn 0 -1 0
vn 1 0 8.742278E-08
vn 1 0 8.742278E-08
vn 1 0 8.742278E-08
vn 1 0 8.742278E-08
vn 0 -1 0
vn 0 -1 0
vn 0 -1 0
vn 0 -1 0
vn -1 0 -8.742278E-08
vn -1 0 -8.742278E-08
vn -1 0 -8.742278E-08
vn -1 0 -8.742278E-08
vn -0.7071068 -0.7071068 -6.181724E-08
vn -0.7071068 -0.7071068 -6.181724E-08
vn -0.7071068 -0.7071068 -6.181724E-08
vn -0.7071068 -0.7071068 -6.181724E-08
vn 0 -1 0
vn 0 -1 0
vn 0 -1 0
vn 0 -1 0
vn 0.7071068 -0.7071068 6.181724E-08
vn 0.7071068 -0.7071068 6.181724E-08
vn 0.7071068 -0.7071068 6.181724E-08
vn 0.7071068 -0.7071068 6.181724E-08
vn 0 0 -1
vn 0 0 -1
vn 0 0 -1
vn 0 0 1
vn 0 0 1
vn 0 0 1
vn -0.7071068 -0.7071068 0
vn -0.7071068 -0.7071068 0
vn -0.7071068 -0.7071068 0
vn -0.7071068 -0.7071068 0
vn -8.742278E-08 0 1
vn -8.742278E-08 0 1
vn -8.742278E-08 0 1
vn 8.742278E-08 0 -1
vn 8.742278E-08 0 -1
vn 8.742278E-08 0 -1
vn 0.7071068 -0.7071068 6.181724E-08
vn 0.7071068 -0.7071068 6.181724E-08
vn 0.7071068 -0.7071068 6.181724E-08
vn 0.7071068 -0.7071068 6.181724E-08
vn 0 0 -1
vn 0 0 -1
vn 0 0 -1
vn 0 0 1
vn 0 0 1
vn 0 0 1
vn -0.7071068 -0.7071068 0
vn -0.7071068 -0.7071068 0
vn -0.7071068 -0.7071068 0
vn -0.7071068 -0.7071068 0
vn 0 -1 -1.192093E-07
vn 0 -1 -1.192093E-07
vn 0 -1 -1.192093E-07
vn 0 -1 -1.192093E-07
vn 0 -1 1.788139E-07
vn 0 -1 1.788139E-07
vn 0 -1 1.788139E-07
vn 0 -1 1.788139E-07
vn 0 1 -1.192093E-07
vn 0 1 -1.192093E-07
vn 0 1 -1.192093E-07
vn 0 1 -1.192093E-07
vn 7.684312E-08 1 -1.192093E-07
vn 7.684312E-08 1 -1.192093E-07
vn 7.684312E-08 1 -1.192093E-07
vn 7.684312E-08 1 -1.192093E-07
vn 1 0 0
vn 1 0 0
vn 1 0 0
vn 1 0 0
vn 1 0 0
vn 1 0 0
vn 1 0 0
vn 1 0 0
vn 8.742278E-08 0 -1
vn 8.742278E-08 0 -1
vn 8.742278E-08 0 -1
vn 8.742278E-08 0 -1
vn 0 1 0
vn 0 1 0
vn 0 1 0
vn 0 1 0
vn 8.742278E-08 0 -1
vn 8.742278E-08 0 -1
vn 8.742278E-08 0 -1
vn 8.742278E-08 0 -1
vn 0 1 0
vn 0 1 0
vn 0 1 0
vn 0 1 0
vn 8.742278E-08 0 -1
vn 8.742278E-08 0 -1
vn 8.742278E-08 0 -1
vn 8.742278E-08 0 -1
vn 0 1 0
vn 0 1 0
vn 0 1 0
vn 0 1 0
vn 8.742278E-08 0 -1
vn 8.742278E-08 0 -1
vn 8.742278E-08 0 -1
vn 8.742278E-08 0 -1
vn 8.742278E-08 0 -1
vn 8.742278E-08 0 -1
vn 8.742278E-08 0 -1
vn 8.742278E-08 0 -1
vn 8.742278E-08 0 -1
vn 8.742278E-08 0 -1
vn 8.742278E-08 0 -1
vn 8.742278E-08 0 -1
vn 8.742278E-08 0 -1
vn 8.742278E-08 0 -1
vn 8.742278E-08 0 -1
vn 8.742278E-08 0 -1
vn 8.742278E-08 0 -1
vn 8.742278E-08 0 -1
vn 8.742278E-08 0 -1
vn 8.742278E-08 0 -1
vn 8.742278E-08 0 -1
vn 8.742278E-08 0 -1
vn 8.742278E-08 0 -1
vn 8.742278E-08 0 -1
vn 1 0 0
vn 1 0 0
vn 1 0 0
vn 1 0 0
vn 1 0 -1.192093E-07
vn 1 0 -1.192093E-07
vn 1 0 -1.192093E-07
vn 1 0 0
vn 1 0 0
vn 1 0 0
vn 1 0 0
vn 1 0 0
vn 1 0 0
vn 1 0 0
vn 1 0 0
vn 1 0 0
vn 1 0 0
vn 1 0 0
vn 1 0 0
vn 1 0 0
vn 1 0 0
vn 1 0 0
vn 8.742278E-08 0 -1
vn 8.742278E-08 0 -1
vn 8.742278E-08 0 -1
vn 8.742278E-08 0 -1
vn 8.742278E-08 0 -1
vn 8.742278E-08 0 -1
vn 8.742278E-08 0 -1
vn 8.742278E-08 0 -1
vn 0 1 0
vn 0 1 0
vn 0 1 0
vn 0 1 0
g _Combined_Vis1_1_0
f 3/3/3 2/2/2 1/1/1
f 5/5/5 4/4/4 3/3/3
f 4/4/4 6/6/6 3/3/3
f 6/6/6 7/7/7 3/3/3
f 7/7/7 8/8/8 3/3/3
f 9/9/9 8/8/8 7/7/7
f 10/10/10 9/9/9 7/7/7
f 13/13/13 12/12/12 11/11/11
f 14/14/14 13/13/13 11/11/11
f 14/14/14 11/11/11 15/15/15
f 11/11/11 16/16/16 15/15/15
f 18/18/18 17/17/17 15/15/15
f 17/17/17 19/19/19 15/15/15
f 19/19/19 20/20/20 15/15/15
f 23/23/23 22/22/22 21/21/21
f 24/24/24 22/22/22 23/23/23
f 25/25/25 24/24/24 23/23/23
f 26/26/26 25/25/25 23/23/23
f 27/27/27 26/26/26 23/23/23
f 30/30/30 29/29/29 28/28/28
f 31/31/31 30/30/30 28/28/28
f 34/34/34 33/33/33 32/32/32
f 33/33/33 35/35/35 32/32/32
f 33/33/33 36/36/36 35/35/35
f 36/36/36 37/37/37 35/35/35
f 40/40/40 39/39/39 38/38/38
f 39/39/39 41/41/41 38/38/38
f 41/41/41 42/42/42 38/38/38
f 42/42/42 43/43/43 38/38/38
f 46/46/46 45/45/45 44/44/44
f 47/47/47 46/46/46 44/44/44
f 50/50/50 49/49/49 48/48/48
f 49/49/49 51/51/51 48/48/48
f 51/51/51 52/52/52 48/48/48
f 52/52/52 53/53/53 48/48/48
f 56/56/56 55/55/55 54/54/54
f 57/57/57 56/56/56 54/54/54
f 60/60/60 59/59/59 58/58/58
f 61/61/61 60/60/60 58/58/58
f 61/61/61 58/58/58 62/62/62
f 63/63/63 61/61/61 62/62/62
f 66/66/66 65/65/65 64/64/64
f 67/67/67 66/66/66 64/64/64
f 70/70/70 69/69/69 68/68/68
f 71/71/71 70/70/70 68/68/68
f 74/74/74 73/73/73 72/72/72
f 75/75/75 74/74/74 72/72/72
f 78/78/78 77/77/77 76/76/76
f 79/79/79 78/78/78 76/76/76
f 82/82/82 81/81/81 80/80/80
f 83/83/83 82/82/82 80/80/80
f 86/86/86 85/85/85 84/84/84
f 87/87/87 86/86/86 84/84/84
f 90/90/90 89/89/89 88/88/88
f 91/91/91 90/90/90 88/88/88
f 94/94/94 93/93/93 92/92/92
f 97/97/97 96/96/96 95/95/95
f 100/100/100 99/99/99 98/98/98
f 101/101/101 100/100/100 98/98/98
f 104/104/104 103/103/103 102/102/102
f 107/107/107 106/106/106 105/105/105
f 110/110/110 109/109/109 108/108/108
f 111/111/111 110/110/110 108/108/108
f 114/114/114 113/113/113 112/112/112
f 117/117/117 116/116/116 115/115/115
f 120/120/120 119/119/119 118/118/118
f 121/121/121 120/120/120 118/118/118
f 124/124/124 123/123/123 122/122/122
f 125/125/125 124/124/124 122/122/122
f 128/128/128 127/127/127 126/126/126
f 129/129/129 128/128/128 126/126/126
f 132/132/132 131/131/131 130/130/130
f 133/133/133 132/132/132 130/130/130
f 136/136/136 135/135/135 134/134/134
f 137/137/137 136/136/136 134/134/134
f 140/140/140 139/139/139 138/138/138
f 141/141/141 140/140/140 138/138/138
f 144/144/144 143/143/143 142/142/142
f 145/145/145 144/144/144 142/142/142
f 148/148/148 147/147/147 146/146/146
f 149/149/149 148/148/148 146/146/146
f 152/152/152 151/151/151 150/150/150
f 153/153/153 152/152/152 150/150/150
f 156/156/156 155/155/155 154/154/154
f 157/157/157 156/156/156 154/154/154
f 160/160/160 159/159/159 158/158/158
f 161/161/161 160/160/160 158/158/158
f 164/164/164 163/163/163 162/162/162
f 165/165/165 164/164/164 162/162/162
f 168/168/168 167/167/167 166/166/166
f 169/169/169 168/168/168 166/166/166
f 172/172/172 171/171/171 170/170/170
f 173/173/173 172/172/172 170/170/170
f 176/176/176 175/175/175 174/174/174
f 177/177/177 176/176/176 174/174/174
f 180/180/180 179/179/179 178/178/178
f 181/181/181 180/180/180 178/178/178
f 184/184/184 183/183/183 182/182/182
f 185/185/185 184/184/184 182/182/182
f 188/188/188 187/187/187 186/186/186
f 189/189/189 188/188/188 186/186/186
f 192/192/192 191/191/191 190/190/190
f 193/193/193 192/192/192 190/190/190
f 196/196/196 195/195/195 194/194/194
f 197/197/197 196/196/196 194/194/194
f 196/196/196 199/199/199 198/198/198
f 200/200/200 196/196/196 198/198/198
f 202/202/202 201/201/201 198/198/198
f 203/203/203 202/202/202 198/198/198
f 206/206/206 205/205/205 204/204/204
f 207/207/207 206/206/206 204/204/204
f 210/210/210 209/209/209 208/208/208
f 211/211/211 210/210/210 208/208/208
f 214/214/214 213/213/213 212/212/212
f 215/215/215 214/214/214 212/212/212
f 218/218/218 217/217/217 216/216/216
f 219/219/219 218/218/218 216/216/216
f 222/222/222 221/221/221 220/220/220
f 223/223/223 222/222/222 220/220/220
f 226/226/226 225/225/225 224/224/224
f 227/227/227 226/226/226 224/224/224
