g _Combined_Vis13_1
v 0.2500002 -5.960464E-08 4
v -0.2499999 0 4
v -0.2499999 0 3.75
v 0.2500002 -5.960464E-08 3.75
v -0.2499999 -0.4999996 4
v 0.2500001 -0.5000007 4
v 0.2500001 -0.5000001 3.75
v -0.2499999 -0.5000001 3.75
v -0.2499999 0 4
v -0.2499999 -0.4999996 4
v -0.2499999 -0.5000001 3.75
v -0.2499999 0 3.75
v 0.2500001 -0.5000007 4
v 0.2500002 -5.960464E-08 4
v 0.2500002 -5.960464E-08 3.75
v 0.2500001 -0.5000001 3.75
v 0.2500001 -0.5000001 3.75
v 0.2500002 -5.960464E-08 3.75
v -0.2499999 0 3.75
v -0.2499999 -0.5000001 3.75
vt 0.484375 0.4609375
vt 0.609375 0.4609375
vt 0.609375 0.4453125
vt 0.484375 0.4453125
vt 0.484375 0.4609375
vt 0.609375 0.4609375
vt 0.609375 0.4453125
vt 0.484375 0.4453125
vt 0.484375 0.4609375
vt 0.609375 0.4609375
vt 0.609375 0.4453125
vt 0.484375 0.4453125
vt 0.484375 0.4609375
vt 0.609375 0.4609375
vt 0.609375 0.4453125
vt 0.484375 0.4453125
vt 0.578125 0.4453125
vt 0.484375 0.4453125
vt 0.484375 0.3984375
vt 0.578125 0.3984375
vn 1.192093E-07 1 0
vn 1.192093E-07 1 0
vn 1.192093E-07 1 0
vn 1.192093E-07 1 0
vn -1.192093E-07 -1 0
vn -1.192093E-07 -1 0
vn -1.192093E-07 -1 0
vn -1.192093E-07 -1 0
vn -1 1.192093E-07 0
vn -1 1.192093E-07 0
vn -1 1.192093E-07 0
vn -1 1.192093E-07 0
vn 1 -1.192093E-07 0
vn 1 -1.192093E-07 0
vn 1 -1.192093E-07 0
vn 1 -1.192093E-07 0
vn 0 0 -1
vn 0 0 -1
vn 0 0 -1
vn 0 0 -1
g _Combined_Vis13_1_0
f 3/3/3 2/2/2 1/1/1
f 4/4/4 3/3/3 1/1/1
f 7/7/7 6/6/6 5/5/5
f 8/8/8 7/7/7 5/5/5
f 11/11/11 10/10/10 9/9/9
f 12/12/12 11/11/11 9/9/9
f 15/15/15 14/14/14 13/13/13
f 16/16/16 15/15/15 13/13/13
f 19/19/19 18/18/18 17/17/17
f 20/20/20 19/19/19 17/17/17
