g _Combined_Vis58_0
v -1.000208 -15.49992 1.999653
v -1.000207 -15.49992 0.9996523
v -1.000207 -14.49992 0.9996523
v -1.000208 -14.49992 1.999653
v -1.000207 -13.49992 0.9996523
v -1.000208 -13.49992 1.999653
v -1.000207 -12.49992 0.9996523
v -1.000208 -12.49992 1.999653
v -1.000207 -11.49992 0.9996523
v -1.000208 -11.49992 1.999653
v -1.000207 -10.49992 0.9996523
v -1.000208 -10.49992 1.999653
v -1.000207 -9.499916 0.9996523
v -1.000208 -9.499916 1.999653
v -1.000207 -8.499916 0.9996523
v -1.000208 -8.499916 1.999653
v -1.000207 -7.499916 0.9996523
v -1.000208 -7.499916 1.999653
v -1.000207 -15.49992 0.9996523
v -0.0002072453 -15.49992 0.9996524
v -0.0002072453 -14.49992 0.9996524
v -1.000207 -14.49992 0.9996523
v -0.0002072453 -13.49992 0.9996524
v -1.000207 -13.49992 0.9996523
v -0.0002072453 -12.49992 0.9996524
v -1.000207 -12.49992 0.9996523
v -0.0002072453 -11.49992 0.9996524
v -1.000207 -11.49992 0.9996523
v -0.0002072453 -10.49992 0.9996524
v -1.000207 -10.49992 0.9996523
v -0.0002072453 -9.499916 0.9996524
v -1.000207 -9.499916 0.9996523
v -0.0002072453 -8.499916 0.9996524
v -1.000207 -8.499916 0.9996523
v -0.0002072453 -7.499916 0.9996524
v -1.000207 -7.499916 0.9996523
v -0.4783435 -15 0.5000604
v 0.5216567 -15 0.5000604
v 0.5216567 -14 0.5000604
v -0.4783435 -14 0.5000604
v 0.5216567 -13 0.5000604
v -0.4783435 -13 0.5000604
v 0.5216567 -12 0.5000604
v -0.4783435 -12 0.5000604
v 0.5216567 -11 0.5000604
v -0.4783435 -11 0.5000604
v 0.5216567 -10 0.5000604
v -0.4783435 -10 0.5000604
v 0.5216567 -9 0.5000604
v -0.4783435 -9 0.5000604
v 0.5216567 -8 0.5000604
v -0.4783435 -8 0.5000604
v 0.5216567 -7 0.5000604
v -0.4783435 -7 0.5000604
v -0.4783435 -15 1.500061
v -0.4783435 -15 0.5000604
v -0.4783435 -14 0.5000604
v -0.4783435 -14 1.500061
v -0.4783435 -13 0.5000604
v -0.4783435 -13 1.500061
v -0.4783435 -12 0.5000604
v -0.4783435 -12 1.500061
v -0.4783435 -11 0.5000604
v -0.4783435 -11 1.500061
v -0.4783435 -10 0.5000604
v -0.4783435 -10 1.500061
v -0.4783435 -9 0.5000604
v -0.4783435 -9 1.500061
v -0.4783435 -8 0.5000604
v -0.4783435 -8 1.500061
v -0.4783435 -7 0.5000604
v -0.4783435 -7 1.500061
v -0.5002073 -14.49992 2.499653
v -0.5002072 -14.49992 1.499652
v -0.5002072 -13.49992 1.499652
v -0.5002073 -13.49992 2.499653
v -0.5002072 -12.49992 1.499652
v -0.5002073 -12.49992 2.499653
v -0.5002072 -11.49992 1.499652
v -0.5002073 -11.49992 2.499653
v -0.5002072 -10.49992 1.499652
v -0.5002073 -10.49992 2.499653
v -0.5002072 -9.499916 1.499652
v -0.5002073 -9.499916 2.499653
v -0.5002072 -8.499916 1.499652
v -0.5002073 -8.499916 2.499653
v -0.5002072 -7.499916 1.499652
v -0.5002073 -7.499916 2.499653
v -0.5002072 -6.499916 1.499652
v -0.5002073 -6.499916 2.499653
v -0.5002072 -14.49992 1.499652
v 0.4997929 -14.49992 1.499652
v 0.4997929 -13.49992 1.499652
v -0.5002072 -13.49992 1.499652
v 0.4997929 -12.49992 1.499652
v -0.5002072 -12.49992 1.499652
v 0.4997929 -11.49992 1.499652
v -0.5002072 -11.49992 1.499652
v 0.4997929 -10.49992 1.499652
v -0.5002072 -10.49992 1.499652
v 0.4997929 -9.499916 1.499652
v -0.5002072 -9.499916 1.499652
v 0.4997929 -8.499916 1.499652
v -0.5002072 -8.499916 1.499652
v 0.4997929 -7.499916 1.499652
v -0.5002072 -7.499916 1.499652
v 0.4997929 -6.499916 1.499652
v -0.5002072 -6.499916 1.499652
v -0.9999003 -6.714779 1.04223
v -0.5865312 -6.605061 0.9997743
v -0.5865312 -6.57901 1.080112
v -0.9999003 -6.714779 1.04223
v -0.5865312 -6.57901 1.080112
v -0.9999003 -6.646708 1.094537
v -0.5865312 -6.57901 1.080112
v -0.4999002 -6.499989 1.080112
v -0.9999003 -6.499989 1.137812
v -0.9999003 -6.646708 1.094537
v 9.989738E-05 -7.499989 1.999775
v -1.000208 -7.499916 1.999653
v -0.9999005 -6.57901 1.999775
v 9.989738E-05 -6.57901 1.999775
v 9.989738E-05 -6.499989 1.999775
v -0.9999005 -6.499989 1.999775
v -0.9999003 -6.714779 1.04223
v -1.000208 -7.499916 1.999653
v -1.000207 -7.499916 0.9996523
v -0.9999003 -6.646708 1.094537
v -0.9999005 -6.57901 1.999775
v -0.9999005 -6.499989 1.999775
v -0.9999003 -6.499989 1.137812
v -0.4999002 -6.530189 0.9997743
v 0.0001000166 -6.57901 0.9997754
v 0.000100007 -6.499989 1.080113
v -0.4999002 -6.499989 1.080112
v 9.989738E-05 -6.57901 1.999775
v 9.989738E-05 -6.499989 1.999775
v 0.000100007 -6.499989 1.080113
v 9.989738E-05 -7.499989 1.999775
v -0.0002072453 -7.499916 0.9996524
v 0.0001000166 -6.57901 0.9997754
v -0.4999002 -6.499989 1.080112
v 0.000100007 -6.499989 1.080113
v 9.989738E-05 -6.499989 1.999775
v -0.9999003 -6.499989 1.137812
v -0.9999005 -6.499989 1.999775
v -0.5865312 -6.605061 0.9997743
v -0.4999002 -6.530189 0.9997743
v -0.4999002 -6.499989 1.080112
v -0.5865312 -6.57901 1.080112
v -1.000207 -7.499916 0.9996523
v -0.5865312 -6.605061 0.9997743
v -0.9999003 -6.714779 1.04223
v -0.0002072453 -7.499916 0.9996524
v 0.0001000166 -6.57901 0.9997754
v -0.4999002 -6.530189 0.9997743
v -0.4358875 -6.214791 1.500061
v -0.4783435 -6.105072 1.086691
v -0.3980055 -6.079022 1.086691
v -0.4358875 -6.214791 1.500061
v -0.3980055 -6.079022 1.086691
v -0.3835804 -6.14672 1.500061
v -0.3980055 -6.079022 1.086691
v -0.3980055 -6 1.00006
v -0.3403054 -6 1.500061
v -0.3835804 -6.14672 1.500061
v 0.5216567 -7 0.5000604
v 0.5216568 -7 1.500061
v 0.5216568 -6.079022 1.500061
v 0.5216568 -6.079022 0.5000603
v 0.5216568 -6 0.5000603
v 0.5216568 -6 1.500061
v -0.4358875 -6.214791 1.500061
v 0.5216568 -7 1.500061
v -0.4783435 -7 1.500061
v -0.3835804 -6.14672 1.500061
v 0.5216568 -6.079022 1.500061
v 0.5216568 -6 1.500061
v -0.3403054 -6 1.500061
v -0.4783435 -6.0302 1.00006
v -0.4783425 -6.079022 0.5000603
v -0.3980044 -6 0.5000603
v -0.3980055 -6 1.00006
v 0.5216568 -6.079022 0.5000603
v 0.5216568 -6 0.5000603
v -0.3980044 -6 0.5000603
v 0.5216567 -7 0.5000604
v -0.4783435 -7 0.5000604
v -0.4783425 -6.079022 0.5000603
v -0.3980055 -6 1.00006
v -0.3980044 -6 0.5000603
v 0.5216568 -6 0.5000603
v -0.3403054 -6 1.500061
v 0.5216568 -6 1.500061
v -0.4783435 -6.105072 1.086691
v -0.4783435 -6.0302 1.00006
v -0.3980055 -6 1.00006
v -0.3980055 -6.079022 1.086691
v -0.4783435 -7 1.500061
v -0.4783435 -6.105072 1.086691
v -0.4358875 -6.214791 1.500061
v -0.4783435 -7 0.5000604
v -0.4783425 -6.079022 0.5000603
v -0.4783435 -6.0302 1.00006
v 0.4576441 -5.714779 1.499774
v 0.5001 -5.605061 1.913144
v 0.419762 -5.57901 1.913144
v 0.4576441 -5.714779 1.499774
v 0.419762 -5.57901 1.913144
v 0.4053371 -5.646708 1.499774
v 0.419762 -5.57901 1.913144
v 0.419762 -5.499989 1.999775
v 0.3620621 -5.499989 1.499774
v 0.4053371 -5.646708 1.499774
v -0.5002073 -6.499916 2.499653
v -0.5002072 -6.499916 1.499652
v -0.4999001 -5.57901 1.499774
v -0.4999003 -5.57901 2.499774
v -0.4999003 -5.499989 2.499774
v -0.4999001 -5.499989 1.499774
v 0.4576441 -5.714779 1.499774
v -0.5002072 -6.499916 1.499652
v 0.4997929 -6.499916 1.499652
v 0.4053371 -5.646708 1.499774
v -0.4999001 -5.57901 1.499774
v -0.4999001 -5.499989 1.499774
v 0.3620621 -5.499989 1.499774
v 0.5001 -5.530189 1.999775
v 0.5000989 -5.57901 2.499775
v 0.4197609 -5.499989 2.499775
v 0.419762 -5.499989 1.999775
v -0.4999003 -5.57901 2.499774
v -0.4999003 -5.499989 2.499774
v 0.4197609 -5.499989 2.499775
v -0.5002073 -6.499916 2.499653
v 0.5000999 -6.499989 2.499775
v 0.5000989 -5.57901 2.499775
v 0.419762 -5.499989 1.999775
v 0.4197609 -5.499989 2.499775
v -0.4999003 -5.499989 2.499774
v 0.3620621 -5.499989 1.499774
v -0.4999001 -5.499989 1.499774
v 0.5001 -5.605061 1.913144
v 0.5001 -5.530189 1.999775
v 0.419762 -5.499989 1.999775
v 0.419762 -5.57901 1.913144
v 0.4997929 -6.499916 1.499652
v 0.5001 -5.605061 1.913144
v 0.4576441 -5.714779 1.499774
v 0.5000999 -6.499989 2.499775
v 0.5000989 -5.57901 2.499775
v 0.5001 -5.530189 1.999775
vt 0.953125 0.4921875
vt 0.828125 0.4921875
vt 0.828125 0.5546875
vt 0.953125 0.5546875
vt 0.828125 0.6171875
vt 0.953125 0.6171875
vt 0.828125 0.6796875
vt 0.953125 0.6796875
vt 0.828125 0.7421875
vt 0.953125 0.7421875
vt 0.828125 0.8046875
vt 0.953125 0.8046875
vt 0.828125 0.8671875
vt 0.953125 0.8671875
vt 0.828125 0.9296875
vt 0.953125 0.9296875
vt 0.828125 0.9921875
vt 0.953125 0.9921875
vt 0.953125 0.4921875
vt 0.828125 0.4921875
vt 0.828125 0.5546875
vt 0.953125 0.5546875
vt 0.828125 0.6171875
vt 0.953125 0.6171875
vt 0.828125 0.6796875
vt 0.953125 0.6796875
vt 0.828125 0.7421875
vt 0.953125 0.7421875
vt 0.828125 0.8046875
vt 0.953125 0.8046875
vt 0.828125 0.8671875
vt 0.953125 0.8671875
vt 0.828125 0.9296875
vt 0.953125 0.9296875
vt 0.828125 0.9921875
vt 0.953125 0.9921875
vt 0.953125 0.4921875
vt 0.828125 0.4921875
vt 0.828125 0.5546875
vt 0.953125 0.5546875
vt 0.828125 0.6171875
vt 0.953125 0.6171875
vt 0.828125 0.6796875
vt 0.953125 0.6796875
vt 0.828125 0.7421875
vt 0.953125 0.7421875
vt 0.828125 0.8046875
vt 0.953125 0.8046875
vt 0.828125 0.8671875
vt 0.953125 0.8671875
vt 0.828125 0.9296875
vt 0.953125 0.9296875
vt 0.828125 0.9921875
vt 0.953125 0.9921875
vt 0.953125 0.4921875
vt 0.828125 0.4921875
vt 0.828125 0.5546875
vt 0.953125 0.5546875
vt 0.828125 0.6171875
vt 0.953125 0.6171875
vt 0.828125 0.6796875
vt 0.953125 0.6796875
vt 0.828125 0.7421875
vt 0.953125 0.7421875
vt 0.828125 0.8046875
vt 0.953125 0.8046875
vt 0.828125 0.8671875
vt 0.953125 0.8671875
vt 0.828125 0.9296875
vt 0.953125 0.9296875
vt 0.828125 0.9921875
vt 0.953125 0.9921875
vt 0.953125 0.4921875
vt 0.828125 0.4921875
vt 0.828125 0.5546875
vt 0.953125 0.5546875
vt 0.828125 0.6171875
vt 0.953125 0.6171875
vt 0.828125 0.6796875
vt 0.953125 0.6796875
vt 0.828125 0.7421875
vt 0.953125 0.7421875
vt 0.828125 0.8046875
vt 0.953125 0.8046875
vt 0.828125 0.8671875
vt 0.953125 0.8671875
vt 0.828125 0.9296875
vt 0.953125 0.9296875
vt 0.828125 0.9921875
vt 0.953125 0.9921875
vt 0.953125 0.4921875
vt 0.828125 0.4921875
vt 0.828125 0.5546875
vt 0.953125 0.5546875
vt 0.828125 0.6171875
vt 0.953125 0.6171875
vt 0.828125 0.6796875
vt 0.953125 0.6796875
vt 0.828125 0.7421875
vt 0.953125 0.7421875
vt 0.828125 0.8046875
vt 0.953125 0.8046875
vt 0.828125 0.8671875
vt 0.953125 0.8671875
vt 0.828125 0.9296875
vt 0.953125 0.9296875
vt 0.828125 0.9921875
vt 0.953125 0.9921875
vt 0.4270647 0.507865
vt 0.4217578 0.4820295
vt 0.4318 0.4820295
vt 0.4270647 0.507865
vt 0.4318 0.4820295
vt 0.433603 0.507865
vt 0.3476563 0.5615235
vt 0.3564453 0.565918
vt 0.303711 0.565918
vt 0.303711 0.5581055
vt 0.4111328 0.5126953
vt 0.303711 0.512207
vt 0.303711 0.5615235
vt 0.4101563 0.5615235
vt 0.4101563 0.565918
vt 0.303711 0.565918
vt 0.4365235 0.553711
vt 0.5361328 0.5131836
vt 0.4326172 0.5131836
vt 0.4423828 0.5571289
vt 0.5361328 0.5605469
vt 0.5361328 0.5649414
vt 0.446289 0.5649414
vt 0.4217578 0.476615
vt 0.4217578 0.445365
vt 0.4318 0.445365
vt 0.4318 0.476615
vt 0.5361328 0.5605469
vt 0.5361328 0.5649414
vt 0.4404297 0.5649414
vt 0.5361328 0.5131836
vt 0.4326172 0.5131836
vt 0.4326172 0.5605469
vt 0.4318 0.476615
vt 0.4318 0.445365
vt 0.5467578 0.445365
vt 0.4390125 0.507865
vt 0.5467578 0.507865
vt 0.4326172 0.5175781
vt 0.4326172 0.5131836
vt 0.4404297 0.5131836
vt 0.4404297 0.5175781
vt 0.303711 0.512207
vt 0.3476563 0.5600586
vt 0.303711 0.5541992
vt 0.4111328 0.5126953
vt 0.4101563 0.5615235
vt 0.3564453 0.5644531
vt 0.4270647 0.507865
vt 0.4217578 0.4820295
vt 0.4318 0.4820295
vt 0.4270647 0.507865
vt 0.4318 0.4820295
vt 0.433603 0.507865
vt 0.3476563 0.5615235
vt 0.3564453 0.565918
vt 0.303711 0.565918
vt 0.303711 0.5581055
vt 0.4111328 0.5126953
vt 0.303711 0.512207
vt 0.303711 0.5615235
vt 0.4101563 0.5615235
vt 0.4101563 0.565918
vt 0.303711 0.565918
vt 0.4365235 0.553711
vt 0.5361328 0.5131836
vt 0.4326172 0.5131836
vt 0.4423828 0.5571289
vt 0.5361328 0.5605469
vt 0.5361328 0.5649414
vt 0.446289 0.5649414
vt 0.4217578 0.476615
vt 0.4217578 0.445365
vt 0.4318 0.445365
vt 0.4318 0.476615
vt 0.5361328 0.5605469
vt 0.5361328 0.5649414
vt 0.4404297 0.5649414
vt 0.5361328 0.5131836
vt 0.4326172 0.5131836
vt 0.4326172 0.5605469
vt 0.4318 0.476615
vt 0.4318 0.445365
vt 0.5467578 0.445365
vt 0.4390125 0.507865
vt 0.5467578 0.507865
vt 0.4326172 0.5175781
vt 0.4326172 0.5131836
vt 0.4404297 0.5131836
vt 0.4404297 0.5175781
vt 0.303711 0.512207
vt 0.3476563 0.5600586
vt 0.303711 0.5541992
vt 0.4111328 0.5126953
vt 0.4101563 0.5615235
vt 0.3564453 0.5644531
vt 0.4270647 0.507865
vt 0.4217578 0.4820295
vt 0.4318 0.4820295
vt 0.4270647 0.507865
vt 0.4318 0.4820295
vt 0.433603 0.507865
vt 0.3476563 0.5615235
vt 0.3564453 0.565918
vt 0.303711 0.565918
vt 0.303711 0.5581055
vt 0.4111328 0.5126953
vt 0.303711 0.512207
vt 0.303711 0.5615235
vt 0.4101563 0.5615235
vt 0.4101563 0.565918
vt 0.303711 0.565918
vt 0.4365235 0.553711
vt 0.5361328 0.5131836
vt 0.4326172 0.5131836
vt 0.4423828 0.5571289
vt 0.5361328 0.5605469
vt 0.5361328 0.5649414
vt 0.446289 0.5649414
vt 0.4217578 0.476615
vt 0.4217578 0.445365
vt 0.4318 0.445365
vt 0.4318 0.476615
vt 0.5361328 0.5605469
vt 0.5361328 0.5649414
vt 0.4404297 0.5649414
vt 0.5361328 0.5131836
vt 0.4326172 0.5131836
vt 0.4326172 0.5605469
vt 0.4318 0.476615
vt 0.4318 0.445365
vt 0.5467578 0.445365
vt 0.4390125 0.507865
vt 0.5467578 0.507865
vt 0.4326172 0.5175781
vt 0.4326172 0.5131836
vt 0.4404297 0.5131836
vt 0.4404297 0.5175781
vt 0.303711 0.512207
vt 0.3476563 0.5600586
vt 0.303711 0.5541992
vt 0.4111328 0.5126953
vt 0.4101563 0.5615235
vt 0.3564453 0.5644531
vn -1 0 -1.192093E-07
vn -1 0 -1.192093E-07
vn -1 0 -1.192093E-07
vn -1 0 -1.192093E-07
vn -1 0 -1.192093E-07
vn -1 0 -1.192093E-07
vn -1 0 -1.192093E-07
vn -1 0 -1.192093E-07
vn -1 0 -1.192093E-07
vn -1 0 -1.192093E-07
vn -1 0 -1.192093E-07
vn -1 0 -1.192093E-07
vn -1 0 -1.192093E-07
vn -1 0 -1.192093E-07
vn -1 0 -1.192093E-07
vn -1 0 -1.192093E-07
vn -1 0 -1.192093E-07
vn -1 0 -1.192093E-07
vn 2.384185E-07 0 -1
vn 2.384185E-07 0 -1
vn 2.384185E-07 0 -1
vn 2.384185E-07 0 -1
vn 2.384185E-07 0 -1
vn 2.384185E-07 0 -1
vn 2.384185E-07 0 -1
vn 2.384185E-07 0 -1
vn 2.384185E-07 0 -1
vn 2.384185E-07 0 -1
vn 2.384185E-07 0 -1
vn 2.384185E-07 0 -1
vn 2.384185E-07 0 -1
vn 2.384185E-07 0 -1
vn 2.384185E-07 0 -1
vn 2.384185E-07 0 -1
vn 2.384185E-07 0 -1
vn 2.384185E-07 0 -1
vn 0 0 -1
vn 0 0 -1
vn 0 0 -1
vn 0 0 -1
vn 0 0 -1
vn 0 0 -1
vn 0 0 -1
vn 0 0 -1
vn 0 0 -1
vn 0 0 -1
vn 0 0 -1
vn 0 0 -1
vn 0 0 -1
vn 0 0 -1
vn 0 0 -1
vn 0 0 -1
vn 0 0 -1
vn 0 0 -1
vn -1 0 -1.192093E-07
vn -1 0 -1.192093E-07
vn -1 0 -1.192093E-07
vn -1 0 -1.192093E-07
vn -1 0 -1.192093E-07
vn -1 0 -1.192093E-07
vn -1 0 -1.192093E-07
vn -1 0 -1.192093E-07
vn -1 0 -1.192093E-07
vn -1 0 -1.192093E-07
vn -1 0 -1.192093E-07
vn -1 0 -1.192093E-07
vn -1 0 -1.192093E-07
vn -1 0 -1.192093E-07
vn -1 0 -1.192093E-07
vn -1 0 -1.192093E-07
vn -1 0 -1.192093E-07
vn -1 0 -1.192093E-07
vn -1 0 -1.192093E-07
vn -1 0 -1.192093E-07
vn -1 0 -1.192093E-07
vn -1 0 -1.192093E-07
vn -1 0 -1.192093E-07
vn -1 0 -1.192093E-07
vn -1 0 -1.192093E-07
vn -1 0 -1.192093E-07
vn -1 0 -1.192093E-07
vn -1 0 -1.192093E-07
vn -1 0 -1.192093E-07
vn -1 0 -1.192093E-07
vn -1 0 -1.192093E-07
vn -1 0 -1.192093E-07
vn -1 0 -1.192093E-07
vn -1 0 -1.192093E-07
vn -1 0 -1.192093E-07
vn -1 0 -1.192093E-07
vn 0 0 -1
vn 0 0 -1
vn 0 0 -1
vn 0 0 -1
vn 0 0 -1
vn 0 0 -1
vn 0 0 -1
vn 0 0 -1
vn 0 0 -1
vn 0 0 -1
vn 0 0 -1
vn 0 0 -1
vn 0 0 -1
vn 0 0 -1
vn 0 0 -1
vn 0 0 -1
vn 0 0 -1
vn 0 0 -1
vn -0.210038 0.7973541 -0.5657831
vn -0.210038 0.7973541 -0.5657831
vn -0.210038 0.7973541 -0.5657831
vn -0.210038 0.7973541 -0.5657831
vn -0.210038 0.7973541 -0.5657831
vn -0.210038 0.7973541 -0.5657831
vn -0.09308586 0.221796 -0.9706398
vn -0.09308586 0.221796 -0.9706398
vn -0.09308586 0.221796 -0.9706398
vn -0.09308586 0.221796 -0.9706398
vn -1.192093E-07 0 1
vn -1.192093E-07 0 1
vn -1.192093E-07 0 1
vn -1.192093E-07 0 1
vn -1.192093E-07 0 1
vn -1.192093E-07 0 1
vn -1 0 -1.192093E-07
vn -1 0 -1.192093E-07
vn -1 0 -1.192093E-07
vn -1 0 -1.192093E-07
vn -1 0 -1.192093E-07
vn -1 0 -1.192093E-07
vn -1 0 -1.192093E-07
vn 0.04034407 0.8263431 -0.5617201
vn 0.04034407 0.8263431 -0.5617201
vn 0.04034407 0.8263431 -0.5617201
vn 0.04034407 0.8263431 -0.5617201
vn 1 0 1.192093E-07
vn 1 0 1.192093E-07
vn 1 0 1.192093E-07
vn 1 0 1.192093E-07
vn 1 0 1.192093E-07
vn 1 0 1.192093E-07
vn 0 1 0
vn 0 1 0
vn 0 1 0
vn 0 1 0
vn 0 1 0
vn -0.64244 0.723294 -0.253213
vn -0.64244 0.723294 -0.253213
vn -0.64244 0.723294 -0.253213
vn -0.64244 0.723294 -0.253213
vn -0.03113787 0.01438299 -0.9994116
vn 1.192093E-07 0 -1
vn -0.03113787 0.01438299 -0.9994116
vn 1.192093E-07 0 -1
vn 1.192093E-07 0 -1
vn 1.192093E-07 0 -1
vn -0.5657831 0.7973541 0.210038
vn -0.5657831 0.7973541 0.210038
vn -0.5657831 0.7973541 0.210038
vn -0.5657831 0.7973541 0.210038
vn -0.5657831 0.7973541 0.210038
vn -0.5657831 0.7973541 0.210038
vn -0.9706398 0.221796 0.09308598
vn -0.9706398 0.221796 0.09308598
vn -0.9706398 0.221796 0.09308598
vn -0.9706398 0.221796 0.09308598
vn 1 0 0
vn 1 0 0
vn 1 0 0
vn 1 0 0
vn 1 0 0
vn 1 0 0
vn 0 0 1
vn 0 0 1
vn 0 0 1
vn 0 0 1
vn 0 0 1
vn 0 0 1
vn 0 0 1
vn -0.5617201 0.8263431 -0.040344
vn -0.5617201 0.8263431 -0.040344
vn -0.5617201 0.8263431 -0.040344
vn -0.5617201 0.8263431 -0.040344
vn 0 0 -1
vn 0 0 -1
vn 0 0 -1
vn 0 0 -1
vn 0 0 -1
vn 0 0 -1
vn 0 1 0
vn 0 1 0
vn 0 1 0
vn 0 1 0
vn 0 1 0
vn -0.2532129 0.7232939 0.64244
vn -0.2532129 0.7232939 0.64244
vn -0.2532129 0.7232939 0.64244
vn -0.2532129 0.7232939 0.64244
vn -0.9994116 0.01438299 0.03113799
vn -1 0 0
vn -0.9994116 0.01438299 0.03113799
vn -1 0 0
vn -1 0 0
vn -1 0 0
vn 0.5657831 0.797354 -0.2100379
vn 0.5657831 0.797354 -0.2100379
vn 0.5657831 0.797354 -0.2100379
vn 0.5657831 0.797354 -0.2100379
vn 0.5657831 0.797354 -0.2100379
vn 0.5657831 0.797354 -0.2100379
vn 0.9706398 0.221796 -0.09308575
vn 0.9706398 0.221796 -0.09308575
vn 0.9706398 0.221796 -0.09308575
vn 0.9706398 0.221796 -0.09308575
vn -1 0 -2.384185E-07
vn -1 0 -2.384185E-07
vn -1 0 -2.384185E-07
vn -1 0 -2.384185E-07
vn -1 0 -2.384185E-07
vn -1 0 -2.384185E-07
vn 2.384185E-07 0 -1
vn 2.384185E-07 0 -1
vn 2.384185E-07 0 -1
vn 2.384185E-07 0 -1
vn 2.384185E-07 0 -1
vn 2.384185E-07 0 -1
vn 2.384185E-07 0 -1
vn 0.5617201 0.8263431 0.04034414
vn 0.5617201 0.8263431 0.04034414
vn 0.5617201 0.8263431 0.04034414
vn 0.5617201 0.8263431 0.04034414
vn -2.384185E-07 0 1
vn -2.384185E-07 0 1
vn -2.384185E-07 0 1
vn -2.384185E-07 0 1
vn -2.384185E-07 0 1
vn -2.384185E-07 0 1
vn 0 1 0
vn 0 1 0
vn 0 1 0
vn 0 1 0
vn 0 1 0
vn 0.2532131 0.7232939 -0.6424399
vn 0.2532131 0.7232939 -0.6424399
vn 0.2532131 0.7232939 -0.6424399
vn 0.2532131 0.7232939 -0.6424399
vn 0.9994116 0.01438299 -0.03113775
vn 1 0 2.384185E-07
vn 0.9994116 0.01438299 -0.03113775
vn 1 0 2.384185E-07
vn 1 0 2.384185E-07
vn 1 0 2.384185E-07
g _Combined_Vis58_0_0
f 3/3/3 2/2/2 1/1/1
f 4/4/4 3/3/3 1/1/1
f 5/5/5 3/3/3 4/4/4
f 6/6/6 5/5/5 4/4/4
f 7/7/7 5/5/5 6/6/6
f 8/8/8 7/7/7 6/6/6
f 9/9/9 7/7/7 8/8/8
f 10/10/10 9/9/9 8/8/8
f 11/11/11 9/9/9 10/10/10
f 12/12/12 11/11/11 10/10/10
f 13/13/13 11/11/11 12/12/12
f 14/14/14 13/13/13 12/12/12
f 15/15/15 13/13/13 14/14/14
f 16/16/16 15/15/15 14/14/14
f 17/17/17 15/15/15 16/16/16
f 18/18/18 17/17/17 16/16/16
f 21/21/21 20/20/20 19/19/19
f 22/22/22 21/21/21 19/19/19
f 23/23/23 21/21/21 22/22/22
f 24/24/24 23/23/23 22/22/22
f 25/25/25 23/23/23 24/24/24
f 26/26/26 25/25/25 24/24/24
f 27/27/27 25/25/25 26/26/26
f 28/28/28 27/27/27 26/26/26
f 29/29/29 27/27/27 28/28/28
f 30/30/30 29/29/29 28/28/28
f 31/31/31 29/29/29 30/30/30
f 32/32/32 31/31/31 30/30/30
f 33/33/33 31/31/31 32/32/32
f 34/34/34 33/33/33 32/32/32
f 35/35/35 33/33/33 34/34/34
f 36/36/36 35/35/35 34/34/34
f 39/39/39 38/38/38 37/37/37
f 40/40/40 39/39/39 37/37/37
f 41/41/41 39/39/39 40/40/40
f 42/42/42 41/41/41 40/40/40
f 43/43/43 41/41/41 42/42/42
f 44/44/44 43/43/43 42/42/42
f 45/45/45 43/43/43 44/44/44
f 46/46/46 45/45/45 44/44/44
f 47/47/47 45/45/45 46/46/46
f 48/48/48 47/47/47 46/46/46
f 49/49/49 47/47/47 48/48/48
f 50/50/50 49/49/49 48/48/48
f 51/51/51 49/49/49 50/50/50
f 52/52/52 51/51/51 50/50/50
f 53/53/53 51/51/51 52/52/52
f 54/54/54 53/53/53 52/52/52
f 57/57/57 56/56/56 55/55/55
f 58/58/58 57/57/57 55/55/55
f 59/59/59 57/57/57 58/58/58
f 60/60/60 59/59/59 58/58/58
f 61/61/61 59/59/59 60/60/60
f 62/62/62 61/61/61 60/60/60
f 63/63/63 61/61/61 62/62/62
f 64/64/64 63/63/63 62/62/62
f 65/65/65 63/63/63 64/64/64
f 66/66/66 65/65/65 64/64/64
f 67/67/67 65/65/65 66/66/66
f 68/68/68 67/67/67 66/66/66
f 69/69/69 67/67/67 68/68/68
f 70/70/70 69/69/69 68/68/68
f 71/71/71 69/69/69 70/70/70
f 72/72/72 71/71/71 70/70/70
f 75/75/75 74/74/74 73/73/73
f 76/76/76 75/75/75 73/73/73
f 77/77/77 75/75/75 76/76/76
f 78/78/78 77/77/77 76/76/76
f 79/79/79 77/77/77 78/78/78
f 80/80/80 79/79/79 78/78/78
f 81/81/81 79/79/79 80/80/80
f 82/82/82 81/81/81 80/80/80
f 83/83/83 81/81/81 82/82/82
f 84/84/84 83/83/83 82/82/82
f 85/85/85 83/83/83 84/84/84
f 86/86/86 85/85/85 84/84/84
f 87/87/87 85/85/85 86/86/86
f 88/88/88 87/87/87 86/86/86
f 89/89/89 87/87/87 88/88/88
f 90/90/90 89/89/89 88/88/88
f 93/93/93 92/92/92 91/91/91
f 94/94/94 93/93/93 91/91/91
f 95/95/95 93/93/93 94/94/94
f 96/96/96 95/95/95 94/94/94
f 97/97/97 95/95/95 96/96/96
f 98/98/98 97/97/97 96/96/96
f 99/99/99 97/97/97 98/98/98
f 100/100/100 99/99/99 98/98/98
f 101/101/101 99/99/99 100/100/100
f 102/102/102 101/101/101 100/100/100
f 103/103/103 101/101/101 102/102/102
f 104/104/104 103/103/103 102/102/102
f 105/105/105 103/103/103 104/104/104
f 106/106/106 105/105/105 104/104/104
f 107/107/107 105/105/105 106/106/106
f 108/108/108 107/107/107 106/106/106
f 111/111/111 110/110/110 109/109/109
f 114/114/114 113/113/113 112/112/112
f 117/117/117 116/116/116 115/115/115
f 118/118/118 117/117/117 115/115/115
f 121/121/121 120/120/120 119/119/119
f 122/122/122 121/121/121 119/119/119
f 122/122/122 123/123/123 121/121/121
f 123/123/123 124/124/124 121/121/121
f 127/127/127 126/126/126 125/125/125
f 126/126/126 128/128/128 125/125/125
f 126/126/126 129/129/129 128/128/128
f 129/129/129 130/130/130 128/128/128
f 130/130/130 131/131/131 128/128/128
f 134/134/134 133/133/133 132/132/132
f 135/135/135 134/134/134 132/132/132
f 138/138/138 137/137/137 136/136/136
f 138/138/138 136/136/136 139/139/139
f 138/138/138 139/139/139 140/140/140
f 141/141/141 138/138/138 140/140/140
f 144/144/144 143/143/143 142/142/142
f 144/144/144 142/142/142 145/145/145
f 146/146/146 144/144/144 145/145/145
f 149/149/149 148/148/148 147/147/147
f 150/150/150 149/149/149 147/147/147
f 153/153/153 152/152/152 151/151/151
f 152/152/152 154/154/154 151/151/151
f 152/152/152 155/155/155 154/154/154
f 152/152/152 156/156/156 155/155/155
f 159/159/159 158/158/158 157/157/157
f 162/162/162 161/161/161 160/160/160
f 165/165/165 164/164/164 163/163/163
f 166/166/166 165/165/165 163/163/163
f 169/169/169 168/168/168 167/167/167
f 170/170/170 169/169/169 167/167/167
f 170/170/170 171/171/171 169/169/169
f 171/171/171 172/172/172 169/169/169
f 175/175/175 174/174/174 173/173/173
f 174/174/174 176/176/176 173/173/173
f 174/174/174 177/177/177 176/176/176
f 177/177/177 178/178/178 176/176/176
f 178/178/178 179/179/179 176/176/176
f 182/182/182 181/181/181 180/180/180
f 183/183/183 182/182/182 180/180/180
f 186/186/186 185/185/185 184/184/184
f 186/186/186 184/184/184 187/187/187
f 186/186/186 187/187/187 188/188/188
f 189/189/189 186/186/186 188/188/188
f 192/192/192 191/191/191 190/190/190
f 192/192/192 190/190/190 193/193/193
f 194/194/194 192/192/192 193/193/193
f 197/197/197 196/196/196 195/195/195
f 198/198/198 197/197/197 195/195/195
f 201/201/201 200/200/200 199/199/199
f 200/200/200 202/202/202 199/199/199
f 200/200/200 203/203/203 202/202/202
f 200/200/200 204/204/204 203/203/203
f 207/207/207 206/206/206 205/205/205
f 210/210/210 209/209/209 208/208/208
f 213/213/213 212/212/212 211/211/211
f 214/214/214 213/213/213 211/211/211
f 217/217/217 216/216/216 215/215/215
f 218/218/218 217/217/217 215/215/215
f 218/218/218 219/219/219 217/217/217
f 219/219/219 220/220/220 217/217/217
f 223/223/223 222/222/222 221/221/221
f 222/222/222 224/224/224 221/221/221
f 222/222/222 225/225/225 224/224/224
f 225/225/225 226/226/226 224/224/224
f 226/226/226 227/227/227 224/224/224
f 230/230/230 229/229/229 228/228/228
f 231/231/231 230/230/230 228/228/228
f 234/234/234 233/233/233 232/232/232
f 234/234/234 232/232/232 235/235/235
f 234/234/234 235/235/235 236/236/236
f 237/237/237 234/234/234 236/236/236
f 240/240/240 239/239/239 238/238/238
f 240/240/240 238/238/238 241/241/241
f 242/242/242 240/240/240 241/241/241
f 245/245/245 244/244/244 243/243/243
f 246/246/246 245/245/245 243/243/243
f 249/249/249 248/248/248 247/247/247
f 248/248/248 250/250/250 247/247/247
f 248/248/248 251/251/251 250/250/250
f 248/248/248 252/252/252 251/251/251
