g _Combined_Vis30_0
v 17.49995 63 -9.600002
v 16.99995 63 -9.500003
v 17.49995 63.06219 -9.500003
v 16.49995 63.65795 -10.5
v 16.63849 64 -10.5
v 16.49995 64 -10.35717
v 17.49995 64 -9.500003
v 16.63849 64 -10.5
v 17.49995 64 -10.5
v 16.49995 64 -9.500003
v 16.49995 64 -10.35717
v 16.49995 63 -9.500003
v 17.49995 63 -10.5
v 16.49995 63 -10.5
v 16.99995 63 -9.500003
v 17.49995 63 -9.600002
v 16.49995 64 -9.500003
v 17.49995 64 -9.500003
v 16.49995 63 -9.500003
v 17.49995 63.06219 -9.500003
v 16.99995 63 -9.500003
v 17.49995 64 -10.5
v 17.49995 63.06219 -9.500003
v 17.49995 64 -9.500003
v 17.49995 63 -10.5
v 17.49995 63 -9.600002
v 16.63849 64 -10.5
v 17.49995 63 -10.5
v 17.49995 64 -10.5
v 16.49995 63.65795 -10.5
v 16.49995 63 -10.5
v 16.49995 64 -9.500003
v 16.49995 63.65795 -10.5
v 16.49995 64 -10.35717
v 16.49995 63 -9.500003
v 16.49995 63 -10.5
v 17.42018 61 -9.656008
v 16.92018 61 -9.556008
v 17.42018 61.12438 -9.556008
v 16.42018 62.3159 -10.55601
v 16.55872 63 -10.55601
v 16.42018 63 -10.41317
v 17.42018 63 -9.556008
v 16.55872 63 -10.55601
v 17.42018 63 -10.55601
v 16.42018 63 -9.556008
v 16.42018 63 -10.41317
v 16.42018 61 -9.556008
v 17.42018 61 -10.55601
v 16.42018 61 -10.55601
v 16.92018 61 -9.556008
v 17.42018 61 -9.656008
v 16.42018 63 -9.556008
v 17.42018 63 -9.556008
v 16.42018 61 -9.556008
v 17.42018 61.12438 -9.556008
v 16.92018 61 -9.556008
v 17.42018 63 -10.55601
v 17.42018 61.12438 -9.556008
v 17.42018 63 -9.556008
v 17.42018 61 -10.55601
v 17.42018 61 -9.656008
v 16.55872 63 -10.55601
v 17.42018 61 -10.55601
v 17.42018 63 -10.55601
v 16.42018 62.3159 -10.55601
v 16.42018 61 -10.55601
v 16.42018 63 -9.556008
v 16.42018 62.3159 -10.55601
v 16.42018 63 -10.41317
v 16.42018 61 -9.556008
v 16.42018 61 -10.55601
v 16.49995 58 -10.4
v 16.99995 58 -10.5
v 16.49995 58.18657 -10.5
v 17.49995 59.97384 -9.500003
v 17.36141 61 -9.500003
v 17.49995 61 -9.642838
v 16.49995 61 -10.5
v 17.36141 61 -9.500003
v 16.49995 61 -9.500003
v 17.49995 61 -10.5
v 17.49995 61 -9.642838
v 17.49995 58 -10.5
v 16.49995 58 -9.500003
v 17.49995 58 -9.500003
v 16.99995 58 -10.5
v 16.49995 58 -10.4
v 17.49995 61 -10.5
v 16.49995 61 -10.5
v 17.49995 58 -10.5
v 16.49995 58.18657 -10.5
v 16.99995 58 -10.5
v 16.49995 61 -9.500003
v 16.49995 58.18657 -10.5
v 16.49995 61 -10.5
v 16.49995 58 -9.500003
v 16.49995 58 -10.4
v 17.36141 61 -9.500003
v 16.49995 58 -9.500003
v 16.49995 61 -9.500003
v 17.49995 59.97384 -9.500003
v 17.49995 58 -9.500003
v 17.49995 61 -10.5
v 17.49995 59.97384 -9.500003
v 17.49995 61 -9.642838
v 17.49995 58 -10.5
v 17.49995 58 -9.500003
v 16.59995 54 -9.533521
v 16.49995 54 -10.03352
v 16.49995 54.24876 -9.533521
v 17.49995 56.63179 -10.53352
v 17.49995 58 -10.39498
v 17.35711 58 -10.53352
v 16.49995 58 -9.533521
v 17.49995 58 -10.39498
v 17.49995 58 -9.533521
v 16.49995 58 -10.53352
v 17.35711 58 -10.53352
v 16.49995 54 -10.53352
v 17.49995 54 -9.533521
v 17.49995 54 -10.53352
v 16.49995 54 -10.03352
v 16.59995 54 -9.533521
v 16.49995 58 -10.53352
v 16.49995 58 -9.533521
v 16.49995 54 -10.53352
v 16.49995 54.24876 -9.533521
v 16.49995 54 -10.03352
v 17.49995 58 -9.533521
v 16.49995 54.24876 -9.533521
v 16.49995 58 -9.533521
v 17.49995 54 -9.533521
v 16.59995 54 -9.533521
v 17.49995 58 -10.39498
v 17.49995 54 -9.533521
v 17.49995 58 -9.533521
v 17.49995 56.63179 -10.53352
v 17.49995 54 -10.53352
v 16.49995 58 -10.53352
v 17.49995 56.63179 -10.53352
v 17.35711 58 -10.53352
v 16.49995 54 -10.53352
v 17.49995 54 -10.53352
v 17.52164 24 -9.600002
v 17.02164 24 -9.500003
v 17.52164 25.86573 -9.500003
v 16.52164 43.73844 -10.5
v 16.66019 54 -10.5
v 16.52164 54 -10.35717
v 17.52164 54 -9.500003
v 16.66019 54 -10.5
v 17.52164 54 -10.5
v 16.52164 54 -9.500003
v 16.52164 54 -10.35717
v 16.52164 24 -9.500003
v 17.52164 24 -10.5
v 16.52164 24 -10.5
v 17.02164 24 -9.500003
v 17.52164 24 -9.600002
v 16.52164 54 -9.500003
v 17.52164 54 -9.500003
v 16.52164 24 -9.500003
v 17.52164 25.86573 -9.500003
v 17.02164 24 -9.500003
v 17.52164 54 -10.5
v 17.52164 25.86573 -9.500003
v 17.52164 54 -9.500003
v 17.52164 24 -10.5
v 17.52164 24 -9.600002
v 16.66019 54 -10.5
v 17.52164 24 -10.5
v 17.52164 54 -10.5
v 16.52164 43.73844 -10.5
v 16.52164 24 -10.5
v 16.52164 54 -9.500003
v 16.52164 43.73844 -10.5
v 16.52164 54 -10.35717
v 16.52164 24 -9.500003
v 16.52164 24 -10.5
v 17.49995 64.5 -10.5
v 16.49995 64.5 -10.5
v 16.49995 64 -10.5
v 17.49995 64 -10.5
v 16.49995 64.5 -9.500004
v 17.49995 64.5 -9.500002
v 17.49995 64 -9.500003
v 16.49995 64 -9.500003
v 16.49995 64.5 -10.5
v 16.49995 64.5 -9.500004
v 16.49995 64 -9.500003
v 16.49995 64 -10.5
v 17.49995 64.5 -9.500002
v 17.49995 64.5 -10.5
v 17.49995 64 -10.5
v 17.49995 64 -9.500003
v 17.49995 64 -9.500003
v 17.49995 64 -10.5
v 16.49995 64 -10.5
v 16.49995 64 -9.500003
v 16.62495 64.5 -9.750003
v 16.62495 64.375 -9.750003
v 16.74995 64.375 -9.625003
v 16.74995 64.5 -9.625003
v 17.37495 64.5 -10.25
v 17.37495 64.375 -10.25
v 17.24995 64.375 -10.375
v 17.24995 64.5 -10.375
v 16.74995 64.5 -10.375
v 16.74995 64.375 -10.375
v 16.62495 64.375 -10.25
v 16.62495 64.5 -10.25
v 16.62495 64.5 -10.25
v 16.62495 64.375 -10.25
v 16.62495 64.375 -9.750003
v 16.62495 64.5 -9.750003
v 17.24995 64.5 -9.625003
v 17.24995 64.375 -9.625003
v 17.37495 64.375 -9.750003
v 17.37495 64.5 -9.750003
v 17.24995 64.5 -10.375
v 17.24995 64.375 -10.375
v 16.74995 64.375 -10.375
v 16.74995 64.5 -10.375
v 17.37495 64.5 -9.750003
v 17.37495 64.375 -9.750003
v 17.37495 64.375 -10.25
v 17.37495 64.5 -10.25
v 16.74995 64.5 -9.625003
v 16.74995 64.375 -9.625003
v 17.24995 64.375 -9.625003
v 17.24995 64.5 -9.625003
v 16.62495 64.5 -10.25
v 16.49995 64.5 -10.5
v 16.74995 64.5 -10.375
v 16.62495 64.5 -9.750003
v 17.49995 64.5 -10.5
v 17.24995 64.5 -10.375
v 17.37495 64.5 -10.25
v 16.49995 64.5 -9.500004
v 16.74995 64.5 -9.625003
v 17.24995 64.5 -9.625003
v 17.49995 64.5 -9.500002
v 17.37495 64.5 -9.750003
vt 0.8999321 0.1676086
vt 0.8483171 0.1700099
vt 0.8981889 0.1797981
vt 0.8956146 0.2081751
vt 0.8552164 0.1905135
vt 0.8519499 0.2142449
vt 0.96875 0.09375
vt 0.90625 0.147591
vt 0.90625 0.09375
vt 0.96875 0.15625
vt 0.9151772 0.15625
vt 0.96875 0.15625
vt 0.90625 0.09375
vt 0.90625 0.15625
vt 0.96875 0.125
vt 0.9625 0.09375
vt 0.90625 0.15625
vt 0.90625 0.09375
vt 0.84375 0.15625
vt 0.8476369 0.09375
vt 0.84375 0.125
vt 0.96875 0.15625
vt 0.90625 0.2148631
vt 0.90625 0.15625
vt 0.96875 0.21875
vt 0.9125 0.21875
vt 0.90625 0.147591
vt 0.84375 0.09375
vt 0.90625 0.09375
vt 0.8848717 0.15625
vt 0.84375 0.15625
vt 0.96875 0.21875
vt 0.90625 0.1973718
vt 0.9151772 0.21875
vt 0.96875 0.15625
vt 0.90625 0.15625
vt 0.8999321 0.1676086
vt 0.8483171 0.1700099
vt 0.8981889 0.1797981
vt 0.8956146 0.2081751
vt 0.8552164 0.1905135
vt 0.8519499 0.2142449
vt 0.96875 0.09375
vt 0.90625 0.147591
vt 0.90625 0.09375
vt 0.96875 0.15625
vt 0.9151772 0.15625
vt 0.96875 0.15625
vt 0.90625 0.09375
vt 0.90625 0.15625
vt 0.96875 0.125
vt 0.9625 0.09375
vt 0.90625 0.15625
vt 0.90625 0.09375
vt 0.84375 0.15625
vt 0.8476369 0.09375
vt 0.84375 0.125
vt 0.96875 0.15625
vt 0.90625 0.2148631
vt 0.90625 0.15625
vt 0.96875 0.21875
vt 0.9125 0.21875
vt 0.90625 0.147591
vt 0.84375 0.09375
vt 0.90625 0.09375
vt 0.8848717 0.15625
vt 0.84375 0.15625
vt 0.96875 0.21875
vt 0.90625 0.1973718
vt 0.9151772 0.21875
vt 0.96875 0.15625
vt 0.90625 0.15625
vt 0.8999321 0.1676086
vt 0.8483171 0.1700099
vt 0.8981889 0.1797981
vt 0.8956146 0.2081751
vt 0.8552164 0.1905135
vt 0.8519499 0.2142449
vt 0.96875 0.09375
vt 0.90625 0.147591
vt 0.90625 0.09375
vt 0.96875 0.15625
vt 0.9151772 0.15625
vt 0.96875 0.15625
vt 0.90625 0.09375
vt 0.90625 0.15625
vt 0.96875 0.125
vt 0.9625 0.09375
vt 0.90625 0.15625
vt 0.90625 0.09375
vt 0.84375 0.15625
vt 0.8476369 0.09375
vt 0.84375 0.125
vt 0.96875 0.15625
vt 0.90625 0.2148631
vt 0.90625 0.15625
vt 0.96875 0.21875
vt 0.9125 0.21875
vt 0.90625 0.147591
vt 0.84375 0.09375
vt 0.90625 0.09375
vt 0.8848717 0.15625
vt 0.84375 0.15625
vt 0.96875 0.21875
vt 0.90625 0.1973718
vt 0.9151772 0.21875
vt 0.96875 0.15625
vt 0.90625 0.15625
vt 0.8999321 0.1676086
vt 0.8483171 0.1700099
vt 0.8981889 0.1797981
vt 0.8956146 0.2081751
vt 0.8552164 0.1905135
vt 0.8519499 0.2142449
vt 0.96875 0.09375
vt 0.90625 0.147591
vt 0.90625 0.09375
vt 0.96875 0.15625
vt 0.9151772 0.15625
vt 0.96875 0.15625
vt 0.90625 0.09375
vt 0.90625 0.15625
vt 0.96875 0.125
vt 0.9625 0.09375
vt 0.90625 0.15625
vt 0.90625 0.09375
vt 0.84375 0.15625
vt 0.8476369 0.09375
vt 0.84375 0.125
vt 0.96875 0.15625
vt 0.90625 0.2148631
vt 0.90625 0.15625
vt 0.96875 0.21875
vt 0.9125 0.21875
vt 0.90625 0.147591
vt 0.84375 0.09375
vt 0.90625 0.09375
vt 0.8848717 0.15625
vt 0.84375 0.15625
vt 0.96875 0.21875
vt 0.90625 0.1973718
vt 0.9151772 0.21875
vt 0.96875 0.15625
vt 0.90625 0.15625
vt 0.8999321 0.1676086
vt 0.8483171 0.1700099
vt 0.8981889 0.1797981
vt 0.8956146 0.2081751
vt 0.8552164 0.1905135
vt 0.8519499 0.2142449
vt 0.96875 0.09375
vt 0.90625 0.147591
vt 0.90625 0.09375
vt 0.96875 0.15625
vt 0.9151772 0.15625
vt 0.96875 0.15625
vt 0.90625 0.09375
vt 0.90625 0.15625
vt 0.96875 0.125
vt 0.9625 0.09375
vt 0.90625 0.15625
vt 0.90625 0.09375
vt 0.84375 0.15625
vt 0.8476369 0.09375
vt 0.84375 0.125
vt 0.96875 0.15625
vt 0.90625 0.2148631
vt 0.90625 0.15625
vt 0.96875 0.21875
vt 0.9125 0.21875
vt 0.90625 0.147591
vt 0.84375 0.09375
vt 0.90625 0.09375
vt 0.8848717 0.15625
vt 0.84375 0.15625
vt 0.96875 0.21875
vt 0.90625 0.1973718
vt 0.9151772 0.21875
vt 0.96875 0.15625
vt 0.90625 0.15625
vt 0.84375 0.21875
vt 0.96875 0.21875
vt 0.96875 0.1875
vt 0.84375 0.1875
vt 0.84375 0.21875
vt 0.96875 0.21875
vt 0.96875 0.1875
vt 0.84375 0.1875
vt 0.84375 0.21875
vt 0.96875 0.21875
vt 0.96875 0.1875
vt 0.84375 0.1875
vt 0.84375 0.21875
vt 0.96875 0.21875
vt 0.96875 0.1875
vt 0.84375 0.1875
vt 0.9375 0.1875
vt 0.84375 0.1875
vt 0.84375 0.09375
vt 0.9375 0.09375
vt 0.9259375 0.1608794
vt 0.9259375 0.1510356
vt 0.9357812 0.1510356
vt 0.9357812 0.1608794
vt 0.8865625 0.1608794
vt 0.8865625 0.1510356
vt 0.8767188 0.1510356
vt 0.8767188 0.1608794
vt 0.8767188 0.1608794
vt 0.8767188 0.1510356
vt 0.8865625 0.1510356
vt 0.8865625 0.1608794
vt 0.8865625 0.1608794
vt 0.8865625 0.1510356
vt 0.9259375 0.1510356
vt 0.9259375 0.1608794
vt 0.9357812 0.1608794
vt 0.9357812 0.1510356
vt 0.9259375 0.1510356
vt 0.9259375 0.1608794
vt 0.9259375 0.1608794
vt 0.9259375 0.1510356
vt 0.8865625 0.1510356
vt 0.8865625 0.1608794
vt 0.9259375 0.1608794
vt 0.9259375 0.1510356
vt 0.8865625 0.1510356
vt 0.8865625 0.1608794
vt 0.8865625 0.1608794
vt 0.8865625 0.1510356
vt 0.9259375 0.1510356
vt 0.9259375 0.1608794
vt 0.875 0.109375
vt 0.84375 0.09375
vt 0.859375 0.125
vt 0.9375 0.109375
vt 0.84375 0.21875
vt 0.859375 0.1875
vt 0.875 0.203125
vt 0.96875 0.09375
vt 0.953125 0.125
vt 0.953125 0.1875
vt 0.96875 0.21875
vt 0.9375 0.203125
vn 0.1050159 -0.844492 0.5251714
vn 0.1050159 -0.844492 0.5251714
vn 0.1050159 -0.844492 0.5251714
vn -0.6892777 0.2791598 -0.6685552
vn -0.6892777 0.2791598 -0.6685552
vn -0.6892777 0.2791598 -0.6685552
vn 0 1 0
vn 0 1 0
vn 0 1 0
vn 0 1 0
vn 0 1 0
vn 0 -1 0
vn 0 -1 0
vn 0 -1 0
vn 0 -1 0
vn 0 -1 0
vn -1.192093E-07 0 1
vn -1.192093E-07 0 1
vn -1.192093E-07 0 1
vn -1.192093E-07 0 1
vn -1.192093E-07 0 1
vn 1 0 1.192093E-07
vn 1 0 1.192093E-07
vn 1 0 1.192093E-07
vn 1 0 1.192093E-07
vn 1 0 1.192093E-07
vn 1.192093E-07 0 -1
vn 1.192093E-07 0 -1
vn 1.192093E-07 0 -1
vn 1.192093E-07 0 -1
vn 1.192093E-07 0 -1
vn -1 0 -1.192093E-07
vn -1 0 -1.192093E-07
vn -1 0 -1.192093E-07
vn -1 0 -1.192093E-07
vn -1 0 -1.192093E-07
vn 0.1539821 -0.6191283 0.7700452
vn 0.1539821 -0.6191283 0.7700452
vn 0.1539821 -0.6191283 0.7700452
vn -0.7103494 0.1438469 -0.6889933
vn -0.7103494 0.1438469 -0.6889933
vn -0.7103494 0.1438469 -0.6889933
vn 0 1 0
vn 0 1 0
vn 0 1 0
vn 0 1 0
vn 0 1 0
vn 0 -1 0
vn 0 -1 0
vn 0 -1 0
vn 0 -1 0
vn 0 -1 0
vn -1.192093E-07 0 1
vn -1.192093E-07 0 1
vn -1.192093E-07 0 1
vn -1.192093E-07 0 1
vn -1.192093E-07 0 1
vn 1 0 1.192093E-07
vn 1 0 1.192093E-07
vn 1 0 1.192093E-07
vn 1 0 1.192093E-07
vn 1 0 1.192093E-07
vn 1.192093E-07 0 -1
vn 1.192093E-07 0 -1
vn 1.192093E-07 0 -1
vn 1.192093E-07 0 -1
vn 1.192093E-07 0 -1
vn -1 0 -1.192093E-07
vn -1 0 -1.192093E-07
vn -1 0 -1.192093E-07
vn -1 0 -1.192093E-07
vn -1 0 -1.192093E-07
vn -0.1735683 -0.4652537 -0.8679937
vn -0.1735683 -0.4652537 -0.8679937
vn -0.1735683 -0.4652537 -0.8679937
vn 0.7144678 0.09645396 0.692988
vn 0.7144678 0.09645396 0.692988
vn 0.7144678 0.09645396 0.692988
vn 0 1 0
vn 0 1 0
vn 0 1 0
vn 0 1 0
vn 0 1 0
vn 0 -1 0
vn 0 -1 0
vn 0 -1 0
vn 0 -1 0
vn 0 -1 0
vn 1.788139E-07 0 -1
vn 1.788139E-07 0 -1
vn 1.788139E-07 0 -1
vn 1.788139E-07 0 -1
vn 1.788139E-07 0 -1
vn -1 0 -1.788139E-07
vn -1 0 -1.788139E-07
vn -1 0 -1.788139E-07
vn -1 0 -1.788139E-07
vn -1 0 -1.788139E-07
vn -1.788139E-07 0 1
vn -1.788139E-07 0 1
vn -1.788139E-07 0 1
vn -1.788139E-07 0 1
vn -1.788139E-07 0 1
vn 1 0 1.788139E-07
vn 1 0 1.788139E-07
vn 1 0 1.788139E-07
vn 1 0 1.788139E-07
vn 1 0 1.788139E-07
vn -0.9122644 -0.3667374 0.1824211
vn -0.9122644 -0.3667374 0.1824211
vn -0.9122644 -0.3667374 0.1824211
vn 0.6944025 0.07248814 -0.7159263
vn 0.6944025 0.07248814 -0.7159263
vn 0.6944025 0.07248814 -0.7159263
vn 0 1 0
vn 0 1 0
vn 0 1 0
vn 0 1 0
vn 0 1 0
vn 0 -1 0
vn 0 -1 0
vn 0 -1 0
vn 0 -1 0
vn 0 -1 0
vn -1 0 0
vn -1 0 0
vn -1 0 0
vn -1 0 0
vn -1 0 0
vn 0 0 1
vn 0 0 1
vn 0 0 1
vn 0 0 1
vn 0 0 1
vn 1 0 0
vn 1 0 0
vn 1 0 0
vn 1 0 0
vn 1 0 0
vn 0 0 -1
vn 0 0 -1
vn 0 0 -1
vn 0 0 -1
vn 0 0 -1
vn 0.1958129 -0.05248804 0.9792356
vn 0.1958129 -0.05248804 0.9792356
vn 0.1958129 -0.05248804 0.9792356
vn -0.7177809 0.009690124 -0.6962015
vn -0.7177809 0.009690124 -0.6962015
vn -0.7177809 0.009690124 -0.6962015
vn 0 1 0
vn 0 1 0
vn 0 1 0
vn 0 1 0
vn 0 1 0
vn 0 -1 0
vn 0 -1 0
vn 0 -1 0
vn 0 -1 0
vn 0 -1 0
vn -1.192093E-07 0 1
vn -1.192093E-07 0 1
vn -1.192093E-07 0 1
vn -1.192093E-07 0 1
vn -1.192093E-07 0 1
vn 1 0 1.192093E-07
vn 1 0 1.192093E-07
vn 1 0 1.192093E-07
vn 1 0 1.192093E-07
vn 1 0 1.192093E-07
vn 1.192093E-07 0 -1
vn 1.192093E-07 0 -1
vn 1.192093E-07 0 -1
vn 1.192093E-07 0 -1
vn 1.192093E-07 0 -1
vn -1 0 -1.192093E-07
vn -1 0 -1.192093E-07
vn -1 0 -1.192093E-07
vn -1 0 -1.192093E-07
vn -1 0 -1.192093E-07
vn 0 0 -1
vn 0 0 -1
vn 0 0 -1
vn 0 0 -1
vn 0 0 1
vn 0 0 1
vn 0 0 1
vn 0 0 1
vn -1 0 0
vn -1 0 0
vn -1 0 0
vn -1 0 0
vn 1 0 0
vn 1 0 0
vn 1 0 0
vn 1 0 0
vn 0 -1 0
vn 0 -1 0
vn 0 -1 0
vn 0 -1 0
vn 0.7071069 2.107342E-08 -0.7071066
vn 0.7071069 2.107342E-08 -0.7071066
vn 0.7071069 2.107342E-08 -0.7071066
vn 0.7071069 2.107342E-08 -0.7071066
vn -0.7071069 -2.107342E-08 0.7071066
vn -0.7071069 -2.107342E-08 0.7071066
vn -0.7071069 -2.107342E-08 0.7071066
vn -0.7071069 -2.107342E-08 0.7071066
vn 0.7071066 -6.954227E-07 0.7071069
vn 0.7071066 -6.954227E-07 0.7071069
vn 0.7071066 -6.954227E-07 0.7071069
vn 0.7071066 -6.954227E-07 0.7071069
vn 1 -4.768369E-07 1.788139E-07
vn 1 -4.768369E-07 1.788139E-07
vn 1 -4.768369E-07 1.788139E-07
vn 1 -4.768369E-07 1.788139E-07
vn -0.7071066 6.954227E-07 -0.7071069
vn -0.7071066 6.954227E-07 -0.7071069
vn -0.7071066 6.954227E-07 -0.7071069
vn -0.7071066 6.954227E-07 -0.7071069
vn -2.384186E-07 -5.066392E-07 1
vn -2.384186E-07 -5.066392E-07 1
vn -2.384186E-07 -5.066392E-07 1
vn -2.384186E-07 -5.066392E-07 1
vn -1 4.768369E-07 -1.788139E-07
vn -1 4.768369E-07 -1.788139E-07
vn -1 4.768369E-07 -1.788139E-07
vn -1 4.768369E-07 -1.788139E-07
vn 2.384186E-07 5.066392E-07 -1
vn 2.384186E-07 5.066392E-07 -1
vn 2.384186E-07 5.066392E-07 -1
vn 2.384186E-07 5.066392E-07 -1
vn 3.874304E-07 1 4.172327E-07
vn 3.874304E-07 1 4.172327E-07
vn 3.874304E-07 1 4.172327E-07
vn 3.874304E-07 1 4.172327E-07
vn 3.874304E-07 1 4.172327E-07
vn 3.874304E-07 1 4.172327E-07
vn 3.874304E-07 1 4.172327E-07
vn 3.874304E-07 1 4.172327E-07
vn 3.874304E-07 1 4.172327E-07
vn 3.874304E-07 1 4.172327E-07
vn 3.874304E-07 1 4.172327E-07
vn 3.874304E-07 1 4.172327E-07
g _Combined_Vis30_0_0
f 3/3/3 2/2/2 1/1/1
f 6/6/6 5/5/5 4/4/4
f 9/9/9 8/8/8 7/7/7
f 7/7/7 8/8/8 10/10/10
f 10/10/10 8/8/8 11/11/11
f 14/14/14 13/13/13 12/12/12
f 13/13/13 15/15/15 12/12/12
f 16/16/16 15/15/15 13/13/13
f 19/19/19 18/18/18 17/17/17
f 20/20/20 18/18/18 19/19/19
f 21/21/21 20/20/20 19/19/19
f 24/24/24 23/23/23 22/22/22
f 22/22/22 23/23/23 25/25/25
f 23/23/23 26/26/26 25/25/25
f 29/29/29 28/28/28 27/27/27
f 27/27/27 28/28/28 30/30/30
f 30/30/30 28/28/28 31/31/31
f 34/34/34 33/33/33 32/32/32
f 32/32/32 33/33/33 35/35/35
f 33/33/33 36/36/36 35/35/35
f 39/39/39 38/38/38 37/37/37
f 42/42/42 41/41/41 40/40/40
f 45/45/45 44/44/44 43/43/43
f 43/43/43 44/44/44 46/46/46
f 46/46/46 44/44/44 47/47/47
f 50/50/50 49/49/49 48/48/48
f 49/49/49 51/51/51 48/48/48
f 52/52/52 51/51/51 49/49/49
f 55/55/55 54/54/54 53/53/53
f 56/56/56 54/54/54 55/55/55
f 57/57/57 56/56/56 55/55/55
f 60/60/60 59/59/59 58/58/58
f 58/58/58 59/59/59 61/61/61
f 59/59/59 62/62/62 61/61/61
f 65/65/65 64/64/64 63/63/63
f 63/63/63 64/64/64 66/66/66
f 66/66/66 64/64/64 67/67/67
f 70/70/70 69/69/69 68/68/68
f 68/68/68 69/69/69 71/71/71
f 69/69/69 72/72/72 71/71/71
f 75/75/75 74/74/74 73/73/73
f 78/78/78 77/77/77 76/76/76
f 81/81/81 80/80/80 79/79/79
f 79/79/79 80/80/80 82/82/82
f 82/82/82 80/80/80 83/83/83
f 86/86/86 85/85/85 84/84/84
f 85/85/85 87/87/87 84/84/84
f 88/88/88 87/87/87 85/85/85
f 91/91/91 90/90/90 89/89/89
f 92/92/92 90/90/90 91/91/91
f 93/93/93 92/92/92 91/91/91
f 96/96/96 95/95/95 94/94/94
f 94/94/94 95/95/95 97/97/97
f 95/95/95 98/98/98 97/97/97
f 101/101/101 100/100/100 99/99/99
f 99/99/99 100/100/100 102/102/102
f 102/102/102 100/100/100 103/103/103
f 106/106/106 105/105/105 104/104/104
f 104/104/104 105/105/105 107/107/107
f 105/105/105 108/108/108 107/107/107
f 111/111/111 110/110/110 109/109/109
f 114/114/114 113/113/113 112/112/112
f 117/117/117 116/116/116 115/115/115
f 115/115/115 116/116/116 118/118/118
f 118/118/118 116/116/116 119/119/119
f 122/122/122 121/121/121 120/120/120
f 121/121/121 123/123/123 120/120/120
f 124/124/124 123/123/123 121/121/121
f 127/127/127 126/126/126 125/125/125
f 128/128/128 126/126/126 127/127/127
f 129/129/129 128/128/128 127/127/127
f 132/132/132 131/131/131 130/130/130
f 130/130/130 131/131/131 133/133/133
f 131/131/131 134/134/134 133/133/133
f 137/137/137 136/136/136 135/135/135
f 135/135/135 136/136/136 138/138/138
f 138/138/138 136/136/136 139/139/139
f 142/142/142 141/141/141 140/140/140
f 140/140/140 141/141/141 143/143/143
f 141/141/141 144/144/144 143/143/143
f 147/147/147 146/146/146 145/145/145
f 150/150/150 149/149/149 148/148/148
f 153/153/153 152/152/152 151/151/151
f 151/151/151 152/152/152 154/154/154
f 154/154/154 152/152/152 155/155/155
f 158/158/158 157/157/157 156/156/156
f 157/157/157 159/159/159 156/156/156
f 160/160/160 159/159/159 157/157/157
f 163/163/163 162/162/162 161/161/161
f 164/164/164 162/162/162 163/163/163
f 165/165/165 164/164/164 163/163/163
f 168/168/168 167/167/167 166/166/166
f 166/166/166 167/167/167 169/169/169
f 167/167/167 170/170/170 169/169/169
f 173/173/173 172/172/172 171/171/171
f 171/171/171 172/172/172 174/174/174
f 174/174/174 172/172/172 175/175/175
f 178/178/178 177/177/177 176/176/176
f 176/176/176 177/177/177 179/179/179
f 177/177/177 180/180/180 179/179/179
f 183/183/183 182/182/182 181/181/181
f 184/184/184 183/183/183 181/181/181
f 187/187/187 186/186/186 185/185/185
f 188/188/188 187/187/187 185/185/185
f 191/191/191 190/190/190 189/189/189
f 192/192/192 191/191/191 189/189/189
f 195/195/195 194/194/194 193/193/193
f 196/196/196 195/195/195 193/193/193
f 199/199/199 198/198/198 197/197/197
f 200/200/200 199/199/199 197/197/197
f 203/203/203 202/202/202 201/201/201
f 204/204/204 203/203/203 201/201/201
f 207/207/207 206/206/206 205/205/205
f 208/208/208 207/207/207 205/205/205
f 211/211/211 210/210/210 209/209/209
f 212/212/212 211/211/211 209/209/209
f 215/215/215 214/214/214 213/213/213
f 216/216/216 215/215/215 213/213/213
f 219/219/219 218/218/218 217/217/217
f 220/220/220 219/219/219 217/217/217
f 223/223/223 222/222/222 221/221/221
f 224/224/224 223/223/223 221/221/221
f 227/227/227 226/226/226 225/225/225
f 228/228/228 227/227/227 225/225/225
f 231/231/231 230/230/230 229/229/229
f 232/232/232 231/231/231 229/229/229
f 235/235/235 234/234/234 233/233/233
f 233/233/233 234/234/234 236/236/236
f 234/234/234 235/235/235 237/237/237
f 235/235/235 238/238/238 237/237/237
f 237/237/237 238/238/238 239/239/239
f 234/234/234 240/240/240 236/236/236
f 236/236/236 240/240/240 241/241/241
f 241/241/241 240/240/240 242/242/242
f 237/237/237 239/239/239 243/243/243
f 240/240/240 243/243/243 242/242/242
f 239/239/239 244/244/244 243/243/243
f 242/242/242 243/243/243 244/244/244
