g _Combined_Vis51_0
v -0.4999989 1.639128E-06 -0.4999964
v -0.4999988 1.847744E-06 0.5000041
v -0.4999988 -0.2499982 0.5000041
v -0.4999989 -0.2499984 -0.4999964
v 0.5000005 1.907349E-06 0.5000042
v 0.5000024 1.698732E-06 -0.4999963
v 0.5000014 -0.2499984 -0.4999963
v 0.5000015 -0.2499982 0.5000042
v -0.4999988 1.847744E-06 0.5000041
v 0.5000005 1.907349E-06 0.5000042
v 0.5000015 -0.2499982 0.5000042
v -0.4999988 -0.2499982 0.5000041
v 0.5000024 1.698732E-06 -0.4999963
v -0.4999989 1.639128E-06 -0.4999964
v -0.4999989 -0.2499984 -0.4999964
v 0.5000014 -0.2499984 -0.4999963
v 0.5000014 -0.2499984 -0.4999963
v -0.4999989 -0.2499984 -0.4999964
v -0.4999988 -0.2499982 0.5000041
v 0.5000015 -0.2499982 0.5000042
v 0.2500014 1.86637E-06 0.3750041
v 0.2500014 -0.1249982 0.3750041
v 0.3750015 -0.1249982 0.250004
v 0.3750015 1.847744E-06 0.250004
v -0.2499988 1.680106E-06 -0.3749962
v -0.2499988 -0.1249984 -0.3749962
v -0.3749988 -0.1249983 -0.2499962
v -0.3749988 1.698732E-06 -0.2499962
v -0.3749988 1.80304E-06 0.250004
v -0.3749988 -0.1249982 0.250004
v -0.2499987 -0.1249982 0.375004
v -0.2499987 1.836568E-06 0.375004
v -0.2499987 1.836568E-06 0.375004
v -0.2499987 -0.1249982 0.375004
v 0.2500014 -0.1249982 0.3750041
v 0.2500014 1.86637E-06 0.3750041
v 0.3750014 1.743436E-06 -0.2499962
v 0.3750014 -0.1249983 -0.2499962
v 0.2500014 -0.1249983 -0.3749962
v 0.2500014 1.709908E-06 -0.3749962
v -0.3749988 1.698732E-06 -0.2499962
v -0.3749988 -0.1249983 -0.2499962
v -0.3749988 -0.1249982 0.250004
v -0.3749988 1.80304E-06 0.250004
v 0.2500014 1.709908E-06 -0.3749962
v 0.2500014 -0.1249983 -0.3749962
v -0.2499988 -0.1249984 -0.3749962
v -0.2499988 1.680106E-06 -0.3749962
v 0.3750015 1.847744E-06 0.250004
v 0.3750015 -0.1249982 0.250004
v 0.3750014 -0.1249983 -0.2499962
v 0.3750014 1.743436E-06 -0.2499962
v -0.2499987 1.836568E-06 0.375004
v -0.4999988 1.847744E-06 0.5000041
v -0.3749988 1.80304E-06 0.250004
v 0.2500014 1.86637E-06 0.3750041
v -0.4999989 1.639128E-06 -0.4999964
v -0.3749988 1.698732E-06 -0.2499962
v -0.2499988 1.680106E-06 -0.3749962
v 0.5000005 1.907349E-06 0.5000042
v 0.3750015 1.847744E-06 0.250004
v 0.3750014 1.743436E-06 -0.2499962
v 0.5000024 1.698732E-06 -0.4999963
v 0.2500014 1.709908E-06 -0.3749962
vt 0.21875 0.328125
vt 0.34375 0.328125
vt 0.34375 0.3125
vt 0.21875 0.3125
vt 0.21875 0.328125
vt 0.34375 0.328125
vt 0.34375 0.3125
vt 0.21875 0.3125
vt 0.21875 0.328125
vt 0.34375 0.328125
vt 0.34375 0.3125
vt 0.21875 0.3125
vt 0.21875 0.328125
vt 0.34375 0.328125
vt 0.34375 0.3125
vt 0.21875 0.3125
vt 0.3125 0.3125
vt 0.21875 0.3125
vt 0.21875 0.265625
vt 0.3125 0.265625
vt 0.3009375 0.2991897
vt 0.3009375 0.2942678
vt 0.3107812 0.2942678
vt 0.3107812 0.2991897
vt 0.2615625 0.2991897
vt 0.2615625 0.2942678
vt 0.2517188 0.2942678
vt 0.2517188 0.2991897
vt 0.2517188 0.2991897
vt 0.2517188 0.2942678
vt 0.2615625 0.2942678
vt 0.2615625 0.2991897
vt 0.2615625 0.2991897
vt 0.2615625 0.2942678
vt 0.3009375 0.2942678
vt 0.3009375 0.2991897
vt 0.3107812 0.2991897
vt 0.3107812 0.2942678
vt 0.3009375 0.2942678
vt 0.3009375 0.2991897
vt 0.3009375 0.2991897
vt 0.3009375 0.2942678
vt 0.2615625 0.2942678
vt 0.2615625 0.2991897
vt 0.3009375 0.2991897
vt 0.3009375 0.2942678
vt 0.2615625 0.2942678
vt 0.2615625 0.2991897
vt 0.2615625 0.2991897
vt 0.2615625 0.2942678
vt 0.3009375 0.2942678
vt 0.3009375 0.2991897
vt 0.25 0.2734375
vt 0.21875 0.265625
vt 0.234375 0.28125
vt 0.3125 0.2734375
vt 0.21875 0.328125
vt 0.234375 0.3125
vt 0.25 0.3203125
vt 0.34375 0.265625
vt 0.328125 0.28125
vt 0.328125 0.3125
vt 0.34375 0.328125
vt 0.3125 0.3203125
vn -1 -5.960463E-08 -5.960464E-08
vn -1 -5.960463E-08 -5.960464E-08
vn -1 -5.960463E-08 -5.960464E-08
vn -1 -5.960463E-08 -5.960464E-08
vn 1 5.960463E-08 5.960464E-08
vn 1 5.960463E-08 5.960464E-08
vn 1 5.960463E-08 5.960464E-08
vn 1 5.960463E-08 5.960464E-08
vn 1.192093E-07 2.086162E-07 1
vn 1.192093E-07 2.086162E-07 1
vn 1.192093E-07 2.086162E-07 1
vn 1.192093E-07 2.086162E-07 1
vn -1.192093E-07 -2.086162E-07 -1
vn -1.192093E-07 -2.086162E-07 -1
vn -1.192093E-07 -2.086162E-07 -1
vn -1.192093E-07 -2.086162E-07 -1
vn 7.105427E-15 -1 2.980235E-08
vn 7.105427E-15 -1 2.980235E-08
vn 7.105427E-15 -1 2.980235E-08
vn 7.105427E-15 -1 2.980235E-08
vn -0.7071068 -1.896608E-07 -0.7071068
vn -0.7071068 -1.896608E-07 -0.7071068
vn -0.7071068 -1.896608E-07 -0.7071068
vn -0.7071068 -1.896608E-07 -0.7071068
vn 0.7071068 1.896608E-07 0.7071068
vn 0.7071068 1.896608E-07 0.7071068
vn 0.7071068 1.896608E-07 0.7071068
vn 0.7071068 1.896608E-07 0.7071068
vn 0.7071067 -1.053671E-07 -0.7071068
vn 0.7071067 -1.053671E-07 -0.7071068
vn 0.7071067 -1.053671E-07 -0.7071068
vn 0.7071067 -1.053671E-07 -0.7071068
vn -5.960464E-08 -2.086162E-07 -1
vn -5.960464E-08 -2.086162E-07 -1
vn -5.960464E-08 -2.086162E-07 -1
vn -5.960464E-08 -2.086162E-07 -1
vn -0.7071067 1.053671E-07 0.7071068
vn -0.7071067 1.053671E-07 0.7071068
vn -0.7071067 1.053671E-07 0.7071068
vn -0.7071067 1.053671E-07 0.7071068
vn 1 5.960463E-08 5.960464E-08
vn 1 5.960463E-08 5.960464E-08
vn 1 5.960463E-08 5.960464E-08
vn 1 5.960463E-08 5.960464E-08
vn 5.960464E-08 2.086162E-07 1
vn 5.960464E-08 2.086162E-07 1
vn 5.960464E-08 2.086162E-07 1
vn 5.960464E-08 2.086162E-07 1
vn -1 -5.960463E-08 -5.960464E-08
vn -1 -5.960463E-08 -5.960464E-08
vn -1 -5.960463E-08 -5.960464E-08
vn -1 -5.960463E-08 -5.960464E-08
vn -7.105427E-15 1 -2.980235E-08
vn -7.105427E-15 1 -2.980235E-08
vn -7.105427E-15 1 -2.980235E-08
vn -7.105427E-15 1 -2.980235E-08
vn -7.105427E-15 1 -2.980235E-08
vn -7.105427E-15 1 -2.980235E-08
vn -7.105427E-15 1 -2.980235E-08
vn -7.105427E-15 1 -2.980235E-08
vn -7.105427E-15 1 -2.980235E-08
vn -7.105427E-15 1 -2.980235E-08
vn -7.105427E-15 1 -2.980235E-08
vn -7.105427E-15 1 -2.980235E-08
g _Combined_Vis51_0_0
f 3/3/3 2/2/2 1/1/1
f 4/4/4 3/3/3 1/1/1
f 7/7/7 6/6/6 5/5/5
f 8/8/8 7/7/7 5/5/5
f 11/11/11 10/10/10 9/9/9
f 12/12/12 11/11/11 9/9/9
f 15/15/15 14/14/14 13/13/13
f 16/16/16 15/15/15 13/13/13
f 19/19/19 18/18/18 17/17/17
f 20/20/20 19/19/19 17/17/17
f 23/23/23 22/22/22 21/21/21
f 24/24/24 23/23/23 21/21/21
f 27/27/27 26/26/26 25/25/25
f 28/28/28 27/27/27 25/25/25
f 31/31/31 30/30/30 29/29/29
f 32/32/32 31/31/31 29/29/29
f 35/35/35 34/34/34 33/33/33
f 36/36/36 35/35/35 33/33/33
f 39/39/39 38/38/38 37/37/37
f 40/40/40 39/39/39 37/37/37
f 43/43/43 42/42/42 41/41/41
f 44/44/44 43/43/43 41/41/41
f 47/47/47 46/46/46 45/45/45
f 48/48/48 47/47/47 45/45/45
f 51/51/51 50/50/50 49/49/49
f 52/52/52 51/51/51 49/49/49
f 55/55/55 54/54/54 53/53/53
f 53/53/53 54/54/54 56/56/56
f 54/54/54 55/55/55 57/57/57
f 55/55/55 58/58/58 57/57/57
f 57/57/57 58/58/58 59/59/59
f 54/54/54 60/60/60 56/56/56
f 56/56/56 60/60/60 61/61/61
f 61/61/61 60/60/60 62/62/62
f 57/57/57 59/59/59 63/63/63
f 60/60/60 63/63/63 62/62/62
f 59/59/59 64/64/64 63/63/63
f 62/62/62 63/63/63 64/64/64
