g _Combined_VisMain8_1
v 7.9 -0.2 -5.6
v 8.1 -0.2 -5.6
v 8 0 -5.5
v 8.1 -0.2 -5.6
v 8.1 -0.2 -5.4
v 8 0 -5.5
v 7.9 -0.2 -5.6
v 8 0 -5.5
v 7.9 -0.2 -5.4
v 7.9 -0.8 -5.4
v 8 -0.4000001 -5.5
v 8.1 -0.8 -5.4
v 7.9 -0.8 -5.6
v 8 -0.4000001 -5.5
v 7.9 -0.8 -5.4
v 8.6 -2.5 -4.9
v 8.6 -2.5 -6.1
v 7.4 -2.5 -6.1
v 7.4 -2.5 -4.9
v 7.9 -0.2 -5.4
v 8 0 -5.5
v 8.1 -0.2 -5.4
v 7.9 -0.8 -5.6
v 8.1 -0.8 -5.6
v 8 -0.4000001 -5.5
v 8.1 -0.8 -5.6
v 8.1 -0.8 -5.4
v 8 -0.4000001 -5.5
v 8 -0.4000001 -5.5
v 8.1 -0.2 -5.4
v 8.1 -0.2 -5.6
v 8 -0.4000001 -5.5
v 7.9 -0.2 -5.6
v 7.9 -0.2 -5.4
v 8 -0.4000001 -5.5
v 8.1 -0.2 -5.6
v 7.9 -0.2 -5.6
v 8 -0.4000001 -5.5
v 7.9 -0.2 -5.4
v 8.1 -0.2 -5.4
v 8.6 -2.5 -4.9
v 8.6 -2.4 -4.9
v 8.6 -2.4 -6.1
v 8.6 -2.5 -6.1
v 8.7 -2.1 -4.8
v 8.7 -2.1 -6.2
v 8.5 -2.4 -6
v 8.5 -2.4 -5
v 8.7 -1.8 -6.2
v 8.7 -1.8 -4.8
v 8.6 -1.5 -4.9
v 8.6 -1.5 -6.1
v 8.6 -2.5 -4.9
v 7.4 -2.5 -4.9
v 7.4 -2.4 -4.9
v 8.6 -2.4 -4.9
v 7.6 -1.3 -5.9
v 8.2 -1.1 -5.7
v 7.8 -1.1 -5.7
v 8.4 -1.3 -5.9
v 7.4 -1.5 -6.1
v 8.6 -1.5 -6.1
v 8.4 -1.3 -5.9
v 8.2 -1.1 -5.3
v 8.2 -1.1 -5.7
v 8.4 -1.3 -5.1
v 8.6 -1.5 -6.1
v 8.6 -1.5 -4.9
v 7.4 -2.5 -4.9
v 7.4 -2.5 -6.1
v 7.4 -2.4 -6.1
v 7.4 -2.4 -4.9
v 8.6 -2.5 -6.1
v 8.6 -2.4 -6.1
v 7.4 -2.4 -6.1
v 7.4 -2.5 -6.1
v 7.5 -2.4 -6
v 7.3 -2.1 -6.2
v 7.3 -2.1 -4.8
v 7.5 -2.4 -5
v 7.3 -1.8 -6.2
v 7.4 -1.5 -6.1
v 7.4 -1.5 -4.9
v 7.3 -1.8 -4.8
v 7.3 -1.8 -6.2
v 8.7 -1.8 -6.2
v 8.6 -1.5 -6.1
v 7.4 -1.5 -6.1
v 7.5 -2.4 -6
v 8.5 -2.4 -6
v 8.7 -2.1 -6.2
v 7.3 -2.1 -6.2
v 7.4 -2.4 -6.1
v 7.5 -2.4 -6
v 7.5 -2.4 -5
v 7.4 -2.4 -4.9
v 8.6 -2.4 -6.1
v 8.6 -2.4 -4.9
v 8.5 -2.4 -5
v 8.5 -2.4 -6
v 7.6 -1.3 -5.9
v 7.8 -1.1 -5.7
v 7.8 -1.1 -5.3
v 7.6 -1.3 -5.1
v 7.4 -1.5 -6.1
v 7.4 -1.5 -4.9
v 8.2 -1.1 -5.7
v 8.2 -1.1 -5.3
v 8.1 -0.8 -5.4
v 8.1 -0.8 -5.6
v 8.7 -2.1 -6.2
v 8.7 -2.1 -4.8
v 8.7 -1.8 -4.8
v 8.7 -1.8 -6.2
v 7.8 -1.1 -5.7
v 7.9 -0.8 -5.6
v 7.9 -0.8 -5.4
v 7.8 -1.1 -5.3
v 7.3 -2.1 -6.2
v 7.3 -1.8 -6.2
v 7.3 -1.8 -4.8
v 7.3 -2.1 -4.8
v 7.5 -2.4 -5
v 7.3 -2.1 -4.8
v 8.7 -2.1 -4.8
v 8.5 -2.4 -5
v 7.3 -1.8 -4.8
v 7.4 -1.5 -4.9
v 8.6 -1.5 -4.9
v 8.7 -1.8 -4.8
v 7.4 -2.4 -4.9
v 7.5 -2.4 -5
v 8.5 -2.4 -5
v 8.6 -2.4 -4.9
v 7.4 -2.4 -6.1
v 8.6 -2.4 -6.1
v 8.5 -2.4 -6
v 7.5 -2.4 -6
v 7.6 -1.3 -5.1
v 7.8 -1.1 -5.3
v 8.2 -1.1 -5.3
v 8.4 -1.3 -5.1
v 7.4 -1.5 -4.9
v 8.6 -1.5 -4.9
v 7.8 -1.1 -5.7
v 8.2 -1.1 -5.7
v 8.1 -0.8 -5.6
v 7.9 -0.8 -5.6
v 7.3 -2.1 -6.2
v 8.7 -2.1 -6.2
v 8.7 -1.8 -6.2
v 7.3 -1.8 -6.2
v 7.8 -1.1 -5.3
v 7.9 -0.8 -5.4
v 8.1 -0.8 -5.4
v 8.2 -1.1 -5.3
v 7.3 -2.1 -4.8
v 7.3 -1.8 -4.8
v 8.7 -1.8 -4.8
v 8.7 -2.1 -4.8
v 7.5 -3.500001 -6
v 8.5 -3.499999 -6
v 8.5 -2.5 -6
v 7.5 -2.5 -6
v 7.5 -4.500001 -6
v 8.5 -4.499999 -6
v 8.5 -3.499999 -6
v 7.5 -3.500001 -6
v 8.5 -3.499999 -6
v 8.5 -3.499999 -5
v 8.5 -2.5 -5
v 8.5 -2.5 -6
vt 0.9148671 0.3014036
vt 0.8973654 0.3014036
vt 0.9061162 0.3112106
vt 0.9149485 0.3014393
vt 0.897403 0.3014393
vt 0.9061757 0.3112706
vt 0.9149485 0.3014393
vt 0.9061757 0.3112706
vt 0.897403 0.3014393
vt 0.9148671 0.2719828
vt 0.9061162 0.2915966
vt 0.8973654 0.2719828
vt 0.9149485 0.271945
vt 0.9061757 0.2916079
vt 0.897403 0.271945
vt 0.8536108 0.1886235
vt 0.958812 0.1883781
vt 0.9061757 0.1883781
vt 0.9586216 0.1886235
vt 0.9148671 0.3014036
vt 0.9061162 0.3112106
vt 0.8973654 0.3014036
vt 0.9148671 0.2719828
vt 0.8973654 0.2719828
vt 0.9061162 0.2915966
vt 0.9149485 0.271945
vt 0.897403 0.271945
vt 0.9061757 0.2916079
vt 0.9061757 0.2916079
vt 0.897403 0.3014393
vt 0.9149485 0.3014393
vt 0.9061757 0.2916079
vt 0.9149485 0.3014393
vt 0.897403 0.3014393
vt 0.9061162 0.2915966
vt 0.8973654 0.3014036
vt 0.9148671 0.3014036
vt 0.9061162 0.2915966
vt 0.9148671 0.3014036
vt 0.8973654 0.3014036
vt 0.8535395 0.1883781
vt 0.8535395 0.1932939
vt 0.958812 0.1932939
vt 0.958812 0.1883781
vt 0.8447667 0.208041
vt 0.9675847 0.208041
vt 0.9500393 0.1932939
vt 0.8623121 0.1932939
vt 0.9675847 0.2227881
vt 0.8447667 0.2227881
vt 0.8535395 0.2375351
vt 0.958812 0.2375351
vt 0.8536108 0.1886235
vt 0.9586216 0.1886235
vt 0.9586216 0.193527
vt 0.8536108 0.193527
vt 0.9411198 0.2474654
vt 0.8886144 0.2572722
vt 0.923618 0.2572722
vt 0.8711126 0.2474654
vt 0.9586216 0.2376584
vt 0.8536108 0.2376584
vt 0.9412667 0.2473666
vt 0.8886304 0.257198
vt 0.9237211 0.257198
vt 0.8710849 0.2473666
vt 0.958812 0.2375351
vt 0.8535395 0.2375351
vt 0.8535395 0.1883781
vt 0.958812 0.1883781
vt 0.958812 0.1932939
vt 0.8535395 0.1932939
vt 0.8536108 0.1886235
vt 0.8536108 0.193527
vt 0.9586216 0.193527
vt 0.9586216 0.1886235
vt 0.9500393 0.1932939
vt 0.9675847 0.208041
vt 0.8447667 0.208041
vt 0.8623121 0.1932939
vt 0.9675847 0.2227881
vt 0.958812 0.2375351
vt 0.8535395 0.2375351
vt 0.8447667 0.2227881
vt 0.9673727 0.2229479
vt 0.8448599 0.2229479
vt 0.8536108 0.2376584
vt 0.9586216 0.2376584
vt 0.9498708 0.193527
vt 0.8623617 0.193527
vt 0.8448599 0.2082375
vt 0.9673727 0.2082375
vt 0.958812 0.1932939
vt 0.9500393 0.1932939
vt 0.8623121 0.1932939
vt 0.8535395 0.1932939
vt 0.958812 0.1932939
vt 0.8535395 0.1932939
vt 0.8623121 0.1932939
vt 0.9500393 0.1932939
vt 0.9412667 0.2473666
vt 0.9237211 0.257198
vt 0.8886304 0.257198
vt 0.8710849 0.2473666
vt 0.958812 0.2375351
vt 0.8535395 0.2375351
vt 0.9237211 0.257198
vt 0.8886304 0.257198
vt 0.897403 0.271945
vt 0.9149485 0.271945
vt 0.9675847 0.208041
vt 0.8447667 0.208041
vt 0.8447667 0.2227881
vt 0.9675847 0.2227881
vt 0.9237211 0.257198
vt 0.9149485 0.271945
vt 0.897403 0.271945
vt 0.8886304 0.257198
vt 0.9675847 0.208041
vt 0.9675847 0.2227881
vt 0.8447667 0.2227881
vt 0.8447667 0.208041
vt 0.9498708 0.193527
vt 0.9673727 0.2082375
vt 0.8448599 0.2082375
vt 0.8623617 0.193527
vt 0.9673727 0.2229479
vt 0.9586216 0.2376584
vt 0.8536108 0.2376584
vt 0.8448599 0.2229479
vt 0.9586216 0.193527
vt 0.9498708 0.193527
vt 0.8623617 0.193527
vt 0.8536108 0.193527
vt 0.9586216 0.193527
vt 0.8536108 0.193527
vt 0.8623617 0.193527
vt 0.9498708 0.193527
vt 0.9411198 0.2474654
vt 0.923618 0.2572722
vt 0.8886144 0.2572722
vt 0.8711126 0.2474654
vt 0.9586216 0.2376584
vt 0.8536108 0.2376584
vt 0.923618 0.2572722
vt 0.8886144 0.2572722
vt 0.8973654 0.2719828
vt 0.9148671 0.2719828
vt 0.9673727 0.2082375
vt 0.8448599 0.2082375
vt 0.8448599 0.2229479
vt 0.9673727 0.2229479
vt 0.923618 0.2572722
vt 0.9148671 0.2719828
vt 0.8973654 0.2719828
vt 0.8886144 0.2572722
vt 0.9673727 0.2082375
vt 0.9673727 0.2229479
vt 0.8448599 0.2229479
vt 0.8448599 0.2082375
vt 0.96875 0.3125
vt 0.96875 0.1875
vt 0.84375 0.1875
vt 0.84375 0.3125
vt 0.96875 0.3125
vt 0.96875 0.1875
vt 0.84375 0.1875
vt 0.84375 0.3125
vt 0.96875 0.3125
vt 0.96875 0.1875
vt 0.84375 0.1875
vt 0.84375 0.3125
vn 0 0.4472014 -0.8944333
vn 0 0.4472014 -0.8944333
vn 0 0.4472014 -0.8944333
vn 0.8944333 0.4472014 0
vn 0.8944333 0.4472014 0
vn 0.8944333 0.4472014 0
vn -0.8944333 0.4472014 0
vn -0.8944333 0.4472014 0
vn -0.8944333 0.4472014 0
vn 0 0.2425356 0.9701425
vn 0 0.2425356 0.9701425
vn 0 0.2425356 0.9701425
vn -0.9701425 0.2425356 0
vn -0.9701425 0.2425356 0
vn -0.9701425 0.2425356 0
vn 0 -1 0
vn 0 -1 0
vn 0 -1 0
vn 0 -1 0
vn 0 0.4472014 0.8944333
vn 0 0.4472014 0.8944333
vn 0 0.4472014 0.8944333
vn 0 0.2425356 -0.9701425
vn 0 0.2425356 -0.9701425
vn 0 0.2425356 -0.9701425
vn 0.9701425 0.2425356 0
vn 0.9701425 0.2425356 0
vn 0.9701425 0.2425356 0
vn 0.8944333 -0.4472014 0
vn 0.8944333 -0.4472014 0
vn 0.8944333 -0.4472014 0
vn -0.8944333 -0.4472014 0
vn -0.8944333 -0.4472014 0
vn -0.8944333 -0.4472014 0
vn 0 -0.4472014 -0.8944333
vn 0 -0.4472014 -0.8944333
vn 0 -0.4472014 -0.8944333
vn 0 -0.4472014 0.8944333
vn 0 -0.4472014 0.8944333
vn 0 -0.4472014 0.8944333
vn 1 0 0
vn 1 0 0
vn 1 0 0
vn 1 0 0
vn 0.8320549 -0.5546932 0
vn 0.8320549 -0.5546932 0
vn 0.8320549 -0.5546932 0
vn 0.8320549 -0.5546932 0
vn 0.9486894 0.3162095 0
vn 0.9486894 0.3162095 0
vn 0.9486894 0.3162095 0
vn 0.9486894 0.3162095 0
vn 0 0 1
vn 0 0 1
vn 0 0 1
vn 0 0 1
vn 0 0.7071068 -0.7071068
vn 0 0.7071068 -0.7071068
vn 0 0.7071068 -0.7071068
vn 0 0.7071068 -0.7071068
vn 0 0.7071068 -0.7071068
vn 0 0.7071068 -0.7071068
vn 0.7071068 0.7071068 0
vn 0.7071068 0.7071068 0
vn 0.7071068 0.7071068 0
vn 0.7071068 0.7071068 0
vn 0.7071068 0.7071068 0
vn 0.7071068 0.7071068 0
vn -1 0 0
vn -1 0 0
vn -1 0 0
vn -1 0 0
vn 0 0 -1
vn 0 0 -1
vn 0 0 -1
vn 0 0 -1
vn -0.8320549 -0.5546932 0
vn -0.8320549 -0.5546932 0
vn -0.8320549 -0.5546932 0
vn -0.8320549 -0.5546932 0
vn -0.9486894 0.3162095 0
vn -0.9486894 0.3162095 0
vn -0.9486894 0.3162095 0
vn -0.9486894 0.3162095 0
vn 0 0.3162095 -0.9486894
vn 0 0.3162095 -0.9486894
vn 0 0.3162095 -0.9486894
vn 0 0.3162095 -0.9486894
vn 0 -0.5546932 -0.8320549
vn 0 -0.5546932 -0.8320549
vn 0 -0.5546932 -0.8320549
vn 0 -0.5546932 -0.8320549
vn 0 1 0
vn 0 1 0
vn 0 1 0
vn 0 1 0
vn 0 1 0
vn 0 1 0
vn 0 1 0
vn 0 1 0
vn -0.7071068 0.7071068 0
vn -0.7071068 0.7071068 0
vn -0.7071068 0.7071068 0
vn -0.7071068 0.7071068 0
vn -0.7071068 0.7071068 0
vn -0.7071068 0.7071068 0
vn 0.9486894 0.3162095 0
vn 0.9486894 0.3162095 0
vn 0.9486894 0.3162095 0
vn 0.9486894 0.3162095 0
vn 1 0 0
vn 1 0 0
vn 1 0 0
vn 1 0 0
vn -0.9486894 0.3162095 0
vn -0.9486894 0.3162095 0
vn -0.9486894 0.3162095 0
vn -0.9486894 0.3162095 0
vn -1 0 0
vn -1 0 0
vn -1 0 0
vn -1 0 0
vn 0 -0.5546932 0.8320549
vn 0 -0.5546932 0.8320549
vn 0 -0.5546932 0.8320549
vn 0 -0.5546932 0.8320549
vn 0 0.3162095 0.9486894
vn 0 0.3162095 0.9486894
vn 0 0.3162095 0.9486894
vn 0 0.3162095 0.9486894
vn 0 1 0
vn 0 1 0
vn 0 1 0
vn 0 1 0
vn 0 1 0
vn 0 1 0
vn 0 1 0
vn 0 1 0
vn 0 0.7071068 0.7071068
vn 0 0.7071068 0.7071068
vn 0 0.7071068 0.7071068
vn 0 0.7071068 0.7071068
vn 0 0.7071068 0.7071068
vn 0 0.7071068 0.7071068
vn 0 0.3162095 -0.9486894
vn 0 0.3162095 -0.9486894
vn 0 0.3162095 -0.9486894
vn 0 0.3162095 -0.9486894
vn 0 0 -1
vn 0 0 -1
vn 0 0 -1
vn 0 0 -1
vn 0 0.3162095 0.9486894
vn 0 0.3162095 0.9486894
vn 0 0.3162095 0.9486894
vn 0 0.3162095 0.9486894
vn 0 0 1
vn 0 0 1
vn 0 0 1
vn 0 0 1
vn 8.742277E-08 0 -1
vn 8.742277E-08 0 -1
vn 8.742277E-08 0 -1
vn 8.742277E-08 0 -1
vn 8.742277E-08 0 -1
vn 8.742277E-08 0 -1
vn 8.742277E-08 0 -1
vn 8.742277E-08 0 -1
vn 1 0 0
vn 1 0 0
vn 1 0 0
vn 1 0 0
g _Combined_VisMain8_1_0
f 3/3/3 2/2/2 1/1/1
f 6/6/6 5/5/5 4/4/4
f 9/9/9 8/8/8 7/7/7
f 12/12/12 11/11/11 10/10/10
f 15/15/15 14/14/14 13/13/13
f 18/18/18 17/17/17 16/16/16
f 19/19/19 18/18/18 16/16/16
f 22/22/22 21/21/21 20/20/20
f 25/25/25 24/24/24 23/23/23
f 28/28/28 27/27/27 26/26/26
f 31/31/31 30/30/30 29/29/29
f 34/34/34 33/33/33 32/32/32
f 37/37/37 36/36/36 35/35/35
f 40/40/40 39/39/39 38/38/38
f 43/43/43 42/42/42 41/41/41
f 44/44/44 43/43/43 41/41/41
f 47/47/47 46/46/46 45/45/45
f 48/48/48 47/47/47 45/45/45
f 51/51/51 50/50/50 49/49/49
f 52/52/52 51/51/51 49/49/49
f 55/55/55 54/54/54 53/53/53
f 56/56/56 55/55/55 53/53/53
f 59/59/59 58/58/58 57/57/57
f 58/58/58 60/60/60 57/57/57
f 57/57/57 60/60/60 61/61/61
f 60/60/60 62/62/62 61/61/61
f 65/65/65 64/64/64 63/63/63
f 64/64/64 66/66/66 63/63/63
f 63/63/63 66/66/66 67/67/67
f 66/66/66 68/68/68 67/67/67
f 71/71/71 70/70/70 69/69/69
f 72/72/72 71/71/71 69/69/69
f 75/75/75 74/74/74 73/73/73
f 76/76/76 75/75/75 73/73/73
f 79/79/79 78/78/78 77/77/77
f 80/80/80 79/79/79 77/77/77
f 83/83/83 82/82/82 81/81/81
f 84/84/84 83/83/83 81/81/81
f 87/87/87 86/86/86 85/85/85
f 88/88/88 87/87/87 85/85/85
f 91/91/91 90/90/90 89/89/89
f 92/92/92 91/91/91 89/89/89
f 95/95/95 94/94/94 93/93/93
f 96/96/96 95/95/95 93/93/93
f 99/99/99 98/98/98 97/97/97
f 100/100/100 99/99/99 97/97/97
f 103/103/103 102/102/102 101/101/101
f 104/104/104 103/103/103 101/101/101
f 104/104/104 101/101/101 105/105/105
f 106/106/106 104/104/104 105/105/105
f 109/109/109 108/108/108 107/107/107
f 110/110/110 109/109/109 107/107/107
f 113/113/113 112/112/112 111/111/111
f 114/114/114 113/113/113 111/111/111
f 117/117/117 116/116/116 115/115/115
f 118/118/118 117/117/117 115/115/115
f 121/121/121 120/120/120 119/119/119
f 122/122/122 121/121/121 119/119/119
f 125/125/125 124/124/124 123/123/123
f 126/126/126 125/125/125 123/123/123
f 129/129/129 128/128/128 127/127/127
f 130/130/130 129/129/129 127/127/127
f 133/133/133 132/132/132 131/131/131
f 134/134/134 133/133/133 131/131/131
f 137/137/137 136/136/136 135/135/135
f 138/138/138 137/137/137 135/135/135
f 141/141/141 140/140/140 139/139/139
f 142/142/142 141/141/141 139/139/139
f 142/142/142 139/139/139 143/143/143
f 144/144/144 142/142/142 143/143/143
f 147/147/147 146/146/146 145/145/145
f 148/148/148 147/147/147 145/145/145
f 151/151/151 150/150/150 149/149/149
f 152/152/152 151/151/151 149/149/149
f 155/155/155 154/154/154 153/153/153
f 156/156/156 155/155/155 153/153/153
f 159/159/159 158/158/158 157/157/157
f 160/160/160 159/159/159 157/157/157
f 163/163/163 162/162/162 161/161/161
f 164/164/164 163/163/163 161/161/161
f 167/167/167 166/166/166 165/165/165
f 168/168/168 167/167/167 165/165/165
f 171/171/171 170/170/170 169/169/169
f 172/172/172 171/171/171 169/169/169
