g _Combined_Vis33_0
v -4.5 1.499999 -1.5
v -3.5 1.500001 -1.5
v -3.5 2.5 -1.5
v -4.5 2.5 -1.5
v -3.5 1.500001 -1.5
v -2.5 1.500001 -1.5
v -2.5 2.5 -1.5
v -3.5 2.5 -1.5
v -2.5 1.500001 -1.5
v -1.5 1.500001 -1.5
v -1.5 2.5 -1.5
v -2.5 2.5 -1.5
v -1.5 1.500001 -1.5
v -1.5 1.500001 -0.5
v -1.5 2.5 -0.5
v -1.5 2.5 -1.5
v -4.5 1.499999 -1.5
v -4.499999 1.5 -0.5
v -3.5 1.5 -0.4999999
v -3.5 1.500001 -1.5
v -3.5 1.500001 -1.5
v -3.5 1.5 -0.4999999
v -2.5 1.5 -0.4999999
v -2.5 1.500001 -1.5
v -2.5 1.500001 -1.5
v -2.5 1.5 -0.4999999
v -1.5 1.500001 -0.5
v -1.5 1.500001 -1.5
v -1.5 1.500001 -0.5
v -2.5 1.5 -0.4999999
v -2.5 2.5 -0.5
v -1.5 2.5 -0.5
vt 0.328125 0.1640625
vt 0.328125 0.1328125
vt 0.265625 0.1328125
vt 0.265625 0.1640625
vt 0.328125 0.2109375
vt 0.328125 0.1796875
vt 0.265625 0.1796875
vt 0.265625 0.2109375
vt 0.328125 0.2109375
vt 0.328125 0.1796875
vt 0.265625 0.1796875
vt 0.265625 0.2109375
vt 0.328125 0.2109375
vt 0.328125 0.1796875
vt 0.265625 0.1796875
vt 0.265625 0.2109375
vt 0.328125 0.1640625
vt 0.328125 0.1328125
vt 0.265625 0.1328125
vt 0.265625 0.1640625
vt 0.328125 0.1640625
vt 0.328125 0.1328125
vt 0.265625 0.1328125
vt 0.265625 0.1640625
vt 0.328125 0.1640625
vt 0.328125 0.1328125
vt 0.265625 0.1328125
vt 0.265625 0.1640625
vt 0.328125 0.1640625
vt 0.328125 0.1328125
vt 0.265625 0.1328125
vt 0.265625 0.1640625
vn 8.742277E-08 0 -1
vn 8.742277E-08 0 -1
vn 8.742277E-08 0 -1
vn 8.742277E-08 0 -1
vn 8.742277E-08 0 -1
vn 8.742277E-08 0 -1
vn 8.742277E-08 0 -1
vn 8.742277E-08 0 -1
vn 8.742277E-08 0 -1
vn 8.742277E-08 0 -1
vn 8.742277E-08 0 -1
vn 8.742277E-08 0 -1
vn 1 0 0
vn 1 0 0
vn 1 0 0
vn 1 0 0
vn 0 -1 -1.192093E-07
vn 0 -1 -1.192093E-07
vn 0 -1 -1.192093E-07
vn 0 -1 -1.192093E-07
vn 0 -1 -1.192093E-07
vn 0 -1 -1.192093E-07
vn 0 -1 -1.192093E-07
vn 0 -1 -1.192093E-07
vn 0 -1 -1.192093E-07
vn 0 -1 -1.192093E-07
vn 0 -1 -1.192093E-07
vn 0 -1 -1.192093E-07
vn 0 0 1
vn 0 0 1
vn 0 0 1
vn 0 0 1
g _Combined_Vis33_0_0
f 3/3/3 2/2/2 1/1/1
f 4/4/4 3/3/3 1/1/1
f 7/7/7 6/6/6 5/5/5
f 8/8/8 7/7/7 5/5/5
f 11/11/11 10/10/10 9/9/9
f 12/12/12 11/11/11 9/9/9
f 15/15/15 14/14/14 13/13/13
f 16/16/16 15/15/15 13/13/13
f 19/19/19 18/18/18 17/17/17
f 20/20/20 19/19/19 17/17/17
f 23/23/23 22/22/22 21/21/21
f 24/24/24 23/23/23 21/21/21
f 27/27/27 26/26/26 25/25/25
f 28/28/28 27/27/27 25/25/25
f 31/31/31 30/30/30 29/29/29
f 32/32/32 31/31/31 29/29/29
