g _Combined_Vis35_0
v -0.6255827 0.1234855 -0.4988268
v -0.6255829 0.1234849 0.5011739
v -0.625583 -0.00151511 0.5011739
v -0.6255828 -0.001514603 -0.4988268
v -0.5005828 -0.1265147 -0.4988269
v -0.5005828 -0.001514636 -0.4988269
v -0.5005829 -0.001515144 0.5011739
v -0.500583 -0.1265152 0.5011738
v -0.375583 -0.1265153 0.5011738
v -0.375583 -0.2515153 0.5011737
v -0.3755828 -0.2515148 -0.498827
v -0.3755827 -0.1265147 -0.498827
v -0.2505828 -0.3765149 -0.498827
v -0.2505828 -0.2515149 -0.498827
v -0.250583 -0.2515154 0.5011737
v -0.250583 -0.3765154 0.5011737
v -0.7505827 0.2500176 -0.4988267
v -0.7505829 0.250017 0.501174
v -0.750583 0.123485 0.501174
v -0.7505828 0.1234855 -0.4988268
v -0.125583 -0.3765155 0.5011736
v -0.125583 -0.5015156 0.5011736
v -0.1255828 -0.501515 -0.4988271
v -0.1255828 -0.376515 -0.4988271
v -0.0005827916 -0.6265152 -0.4988272
v -0.0005827432 -0.5015151 -0.4988271
v -0.000582961 -0.5015156 0.5011736
v -0.0005830094 -0.6265157 0.5011736
v 0.124417 -0.6265157 0.5011735
v 0.124417 -0.7499858 0.5011735
v 0.1244172 -0.7499843 -0.4988272
v 0.1244173 -0.6265152 -0.4988272
v 0.1244172 -0.7499843 -0.4988272
v 0.2494172 -0.7499843 -0.4988273
v 0.2494176 0.2500173 -0.4988271
v 0.1244173 -0.6265152 -0.4988272
v -0.0005827916 -0.6265152 -0.4988272
v -0.0005827432 -0.5015151 -0.4988271
v -0.1255828 -0.501515 -0.4988271
v -0.1255828 -0.376515 -0.4988271
v -0.2505828 -0.3765149 -0.498827
v -0.2505828 -0.2515149 -0.498827
v -0.3755828 -0.2515148 -0.498827
v -0.3755827 -0.1265147 -0.498827
v -0.5005828 -0.1265147 -0.4988269
v -0.5005828 -0.001514636 -0.4988269
v -0.6255828 -0.001514603 -0.4988268
v -0.6255827 0.1234855 -0.4988268
v -0.7505828 0.1234855 -0.4988268
v -0.7505827 0.2500176 -0.4988267
v 0.1244173 -0.6265152 -0.4988272
v -0.0005827916 -0.6265152 -0.4988272
v -0.0005830094 -0.6265157 0.5011736
v 0.124417 -0.6265157 0.5011735
v -0.375583 -0.1265153 0.5011738
v -0.250583 -0.2515154 0.5011737
v -0.375583 -0.2515153 0.5011737
v 0.2494174 0.2500168 0.5011736
v -0.5005829 -0.001515144 0.5011739
v -0.500583 -0.1265152 0.5011738
v -0.125583 -0.3765155 0.5011736
v -0.250583 -0.3765154 0.5011737
v -0.6255829 0.1234849 0.5011739
v -0.625583 -0.00151511 0.5011739
v -0.7505829 0.250017 0.501174
v -0.750583 0.123485 0.501174
v -0.000582961 -0.5015156 0.5011736
v -0.125583 -0.5015156 0.5011736
v 0.124417 -0.6265157 0.5011735
v -0.0005830094 -0.6265157 0.5011736
v 0.249417 -0.7499858 0.5011734
v 0.124417 -0.7499858 0.5011735
v -0.125583 -0.5015156 0.5011736
v -0.000582961 -0.5015156 0.5011736
v -0.0005827432 -0.5015151 -0.4988271
v -0.1255828 -0.501515 -0.4988271
v -0.250583 -0.3765154 0.5011737
v -0.125583 -0.3765155 0.5011736
v -0.1255828 -0.376515 -0.4988271
v -0.2505828 -0.3765149 -0.498827
v -0.375583 -0.2515153 0.5011737
v -0.250583 -0.2515154 0.5011737
v -0.2505828 -0.2515149 -0.498827
v -0.3755828 -0.2515148 -0.498827
v -0.500583 -0.1265152 0.5011738
v -0.375583 -0.1265153 0.5011738
v -0.3755827 -0.1265147 -0.498827
v -0.5005828 -0.1265147 -0.4988269
v -0.625583 -0.00151511 0.5011739
v -0.5005829 -0.001515144 0.5011739
v -0.5005828 -0.001514636 -0.4988269
v -0.6255828 -0.001514603 -0.4988268
v -0.7505828 0.1234855 -0.4988268
v -0.750583 0.123485 0.501174
v -0.6255829 0.1234849 0.5011739
v -0.6255827 0.1234855 -0.4988268
v 0.124417 -0.7499858 0.5011735
v 0.249417 -0.7499858 0.5011734
v 0.2494172 -0.7499843 -0.4988273
v 0.1244172 -0.7499843 -0.4988272
v 0.2494176 0.2500173 -0.4988271
v 0.2494172 -0.7499843 -0.4988273
v 0.249417 -0.7499858 0.5011734
v 0.2494174 0.2500168 0.5011736
v -0.7505829 0.250017 0.501174
v -0.7505827 0.2500176 -0.4988267
v 0.2494176 0.2500173 -0.4988271
v 0.2494174 0.2500168 0.5011736
vt 0.6875 0.04374575
vt 0.625 0.04374575
vt 0.625 0.05004188
vt 0.6875 0.05004188
vt 0.6875 0.056338
vt 0.6875 0.05004188
vt 0.625 0.05004188
vt 0.625 0.056338
vt 0.625 0.056338
vt 0.625 0.06263424
vt 0.6875 0.06263424
vt 0.6875 0.056338
vt 0.6875 0.06893037
vt 0.6875 0.06263424
vt 0.625 0.06263424
vt 0.625 0.06893037
vt 0.6875 0.0374495
vt 0.625 0.0374495
vt 0.625 0.04374575
vt 0.6875 0.04374575
vt 0.625 0.06893037
vt 0.625 0.0752265
vt 0.6875 0.0752265
vt 0.6875 0.06893037
vt 0.6875 0.08152275
vt 0.6875 0.0752265
vt 0.625 0.0752265
vt 0.625 0.08152275
vt 0.625 0.08152275
vt 0.625 0.08781888
vt 0.6875 0.08781888
vt 0.6875 0.08152275
vt 0.75 0.1015625
vt 0.75 0.09375
vt 0.6875 0.09375
vt 0.7421875 0.1015625
vt 0.7421875 0.109375
vt 0.734375 0.109375
vt 0.734375 0.1171875
vt 0.7265625 0.1171875
vt 0.7265625 0.125
vt 0.71875 0.125
vt 0.71875 0.1328125
vt 0.7109375 0.1328125
vt 0.7109375 0.140625
vt 0.703125 0.140625
vt 0.703125 0.1484375
vt 0.6953125 0.1484375
vt 0.6953125 0.15625
vt 0.6875 0.15625
vt 0.6875 0.04374575
vt 0.6875 0.05004188
vt 0.75 0.05004188
vt 0.75 0.04374575
vt 0.7109375 0.1328125
vt 0.71875 0.125
vt 0.71875 0.1328125
vt 0.6875 0.09375
vt 0.703125 0.140625
vt 0.7109375 0.140625
vt 0.7265625 0.1171875
vt 0.7265625 0.125
vt 0.6953125 0.1484375
vt 0.703125 0.1484375
vt 0.6875 0.15625
vt 0.6953125 0.15625
vt 0.734375 0.109375
vt 0.734375 0.1171875
vt 0.7421875 0.1015625
vt 0.7421875 0.109375
vt 0.75 0.09375
vt 0.75 0.1015625
vt 0.75 0.056338
vt 0.75 0.05004188
vt 0.6875 0.05004188
vt 0.6875 0.056338
vt 0.75 0.06263424
vt 0.75 0.056338
vt 0.6875 0.056338
vt 0.6875 0.06263424
vt 0.75 0.06893037
vt 0.75 0.06263424
vt 0.6875 0.06263424
vt 0.6875 0.06893037
vt 0.75 0.0752265
vt 0.75 0.06893037
vt 0.6875 0.06893037
vt 0.6875 0.0752265
vt 0.75 0.08152275
vt 0.75 0.0752265
vt 0.6875 0.0752265
vt 0.6875 0.08152275
vt 0.6875 0.08781888
vt 0.75 0.08781888
vt 0.75 0.08152275
vt 0.6875 0.08152275
vt 0.75 0.04374575
vt 0.75 0.0374495
vt 0.6875 0.0374495
vt 0.6875 0.04374575
vt 0.75 0.15625
vt 0.75 0.03125
vt 0.625 0.03125
vt 0.625 0.15625
vt 0.75 0.15625
vt 0.75 0.03125
vt 0.625 0.03125
vt 0.625 0.15625
vn -1 2.682209E-07 3.782974E-07
vn -1 2.682209E-07 3.782974E-07
vn -1 2.682209E-07 3.782974E-07
vn -1 2.682209E-07 3.782974E-07
vn -1 2.682209E-07 3.782974E-07
vn -1 2.682209E-07 3.782974E-07
vn -1 2.682209E-07 3.782974E-07
vn -1 2.682209E-07 3.782974E-07
vn -1 2.682209E-07 3.782974E-07
vn -1 2.682209E-07 3.782974E-07
vn -1 2.682209E-07 3.782974E-07
vn -1 2.682209E-07 3.782974E-07
vn -1 2.682209E-07 3.782974E-07
vn -1 2.682209E-07 3.782974E-07
vn -1 2.682209E-07 3.782974E-07
vn -1 2.682209E-07 3.782974E-07
vn -1 2.682209E-07 3.782974E-07
vn -1 2.682209E-07 3.782974E-07
vn -1 2.682209E-07 3.782974E-07
vn -1 2.682209E-07 3.782974E-07
vn -1 2.682209E-07 3.782974E-07
vn -1 2.682209E-07 3.782974E-07
vn -1 2.682209E-07 3.782974E-07
vn -1 2.682209E-07 3.782974E-07
vn -1 2.682209E-07 3.782974E-07
vn -1 2.682209E-07 3.782974E-07
vn -1 2.682209E-07 3.782974E-07
vn -1 2.682209E-07 3.782974E-07
vn -1 2.682209E-07 3.782974E-07
vn -1 2.682209E-07 3.782974E-07
vn -1 2.682209E-07 3.782974E-07
vn -1 2.682209E-07 3.782974E-07
vn 2.177491E-07 5.076957E-07 -1
vn 2.177491E-07 5.076957E-07 -1
vn 2.177491E-07 5.076957E-07 -1
vn 2.177491E-07 5.076957E-07 -1
vn 2.177491E-07 5.076957E-07 -1
vn 2.177491E-07 5.076957E-07 -1
vn 2.177491E-07 5.076957E-07 -1
vn 2.177491E-07 5.076957E-07 -1
vn 2.177491E-07 5.076957E-07 -1
vn 2.177491E-07 5.076957E-07 -1
vn 2.177491E-07 5.076957E-07 -1
vn 2.177491E-07 5.076957E-07 -1
vn 2.177491E-07 5.076957E-07 -1
vn 2.177491E-07 5.076957E-07 -1
vn 2.177491E-07 5.076957E-07 -1
vn 2.177491E-07 5.076957E-07 -1
vn 2.177491E-07 5.076957E-07 -1
vn 2.177491E-07 5.076957E-07 -1
vn -3.874299E-07 -1 -1.500677E-07
vn -3.874299E-07 -1 -1.500677E-07
vn -3.874299E-07 -1 -1.500677E-07
vn -3.874299E-07 -1 -1.500677E-07
vn -2.177491E-07 -5.076957E-07 1
vn -2.177491E-07 -5.076957E-07 1
vn -2.177491E-07 -5.076957E-07 1
vn -2.177491E-07 -5.076957E-07 1
vn -2.177491E-07 -5.076957E-07 1
vn -2.177491E-07 -5.076957E-07 1
vn -2.177491E-07 -5.076957E-07 1
vn -2.177491E-07 -5.076957E-07 1
vn -2.177491E-07 -5.076957E-07 1
vn -2.177491E-07 -5.076957E-07 1
vn -2.177491E-07 -5.076957E-07 1
vn -2.177491E-07 -5.076957E-07 1
vn -2.177491E-07 -5.076957E-07 1
vn -2.177491E-07 -5.076957E-07 1
vn -2.177491E-07 -5.076957E-07 1
vn -2.177491E-07 -5.076957E-07 1
vn -2.177491E-07 -5.076957E-07 1
vn -2.177491E-07 -5.076957E-07 1
vn -3.874299E-07 -1 -1.500677E-07
vn -3.874299E-07 -1 -1.500677E-07
vn -3.874299E-07 -1 -1.500677E-07
vn -3.874299E-07 -1 -1.500677E-07
vn -3.874299E-07 -1 -1.500677E-07
vn -3.874299E-07 -1 -1.500677E-07
vn -3.874299E-07 -1 -1.500677E-07
vn -3.874299E-07 -1 -1.500677E-07
vn -3.874299E-07 -1 -1.500677E-07
vn -3.874299E-07 -1 -1.500677E-07
vn -3.874299E-07 -1 -1.500677E-07
vn -3.874299E-07 -1 -1.500677E-07
vn -3.874299E-07 -1 -1.500677E-07
vn -3.874299E-07 -1 -1.500677E-07
vn -3.874299E-07 -1 -1.500677E-07
vn -3.874299E-07 -1 -1.500677E-07
vn -3.874299E-07 -1 -1.500677E-07
vn -3.874299E-07 -1 -1.500677E-07
vn -3.874299E-07 -1 -1.500677E-07
vn -3.874299E-07 -1 -1.500677E-07
vn -3.874299E-07 -1 -1.500677E-07
vn -3.874299E-07 -1 -1.500677E-07
vn -3.874299E-07 -1 -1.500677E-07
vn -3.874299E-07 -1 -1.500677E-07
vn -3.874299E-07 -1 -1.500677E-07
vn -3.874299E-07 -1 -1.500677E-07
vn -3.874299E-07 -1 -1.500677E-07
vn -3.874299E-07 -1 -1.500677E-07
vn 1 1.674277E-06 5.960462E-07
vn 1 1.674277E-06 5.960462E-07
vn 1 1.674277E-06 5.960462E-07
vn 1 1.674277E-06 5.960462E-07
vn -5.300014E-07 1 -2.98023E-07
vn -5.300014E-07 1 -2.98023E-07
vn -5.300014E-07 1 -2.98023E-07
vn -5.300014E-07 1 -2.98023E-07
g _Combined_Vis35_0_0
f 3/3/3 2/2/2 1/1/1
f 4/4/4 3/3/3 1/1/1
f 7/7/7 6/6/6 5/5/5
f 8/8/8 7/7/7 5/5/5
f 11/11/11 10/10/10 9/9/9
f 12/12/12 11/11/11 9/9/9
f 15/15/15 14/14/14 13/13/13
f 16/16/16 15/15/15 13/13/13
f 19/19/19 18/18/18 17/17/17
f 20/20/20 19/19/19 17/17/17
f 23/23/23 22/22/22 21/21/21
f 24/24/24 23/23/23 21/21/21
f 27/27/27 26/26/26 25/25/25
f 28/28/28 27/27/27 25/25/25
f 31/31/31 30/30/30 29/29/29
f 32/32/32 31/31/31 29/29/29
f 35/35/35 34/34/34 33/33/33
f 36/36/36 35/35/35 33/33/33
f 35/35/35 36/36/36 37/37/37
f 38/38/38 35/35/35 37/37/37
f 35/35/35 38/38/38 39/39/39
f 40/40/40 35/35/35 39/39/39
f 35/35/35 40/40/40 41/41/41
f 42/42/42 35/35/35 41/41/41
f 35/35/35 42/42/42 43/43/43
f 44/44/44 35/35/35 43/43/43
f 35/35/35 44/44/44 45/45/45
f 46/46/46 35/35/35 45/45/45
f 35/35/35 46/46/46 47/47/47
f 48/48/48 35/35/35 47/47/47
f 35/35/35 48/48/48 49/49/49
f 50/50/50 35/35/35 49/49/49
f 53/53/53 52/52/52 51/51/51
f 54/54/54 53/53/53 51/51/51
f 57/57/57 56/56/56 55/55/55
f 56/56/56 58/58/58 55/55/55
f 55/55/55 58/58/58 59/59/59
f 60/60/60 55/55/55 59/59/59
f 61/61/61 58/58/58 56/56/56
f 62/62/62 61/61/61 56/56/56
f 59/59/59 58/58/58 63/63/63
f 64/64/64 59/59/59 63/63/63
f 63/63/63 58/58/58 65/65/65
f 66/66/66 63/63/63 65/65/65
f 67/67/67 58/58/58 61/61/61
f 68/68/68 67/67/67 61/61/61
f 58/58/58 67/67/67 69/69/69
f 67/67/67 70/70/70 69/69/69
f 71/71/71 58/58/58 69/69/69
f 72/72/72 71/71/71 69/69/69
f 75/75/75 74/74/74 73/73/73
f 76/76/76 75/75/75 73/73/73
f 79/79/79 78/78/78 77/77/77
f 80/80/80 79/79/79 77/77/77
f 83/83/83 82/82/82 81/81/81
f 84/84/84 83/83/83 81/81/81
f 87/87/87 86/86/86 85/85/85
f 88/88/88 87/87/87 85/85/85
f 91/91/91 90/90/90 89/89/89
f 92/92/92 91/91/91 89/89/89
f 95/95/95 94/94/94 93/93/93
f 96/96/96 95/95/95 93/93/93
f 99/99/99 98/98/98 97/97/97
f 100/100/100 99/99/99 97/97/97
f 103/103/103 102/102/102 101/101/101
f 104/104/104 103/103/103 101/101/101
f 107/107/107 106/106/106 105/105/105
f 108/108/108 107/107/107 105/105/105
