g _Combined_Vis39_0
v 45.5 -79.5 -30.5
v 46.5 -79.5 -30.5
v 46.5 -79.5 -29.5
v 45.5 -79.5 -29.5
v 46.5 -79.5 -30.5
v 47.5 -79.5 -30.5
v 47.5 -79.5 -29.5
v 46.5 -79.5 -29.5
v 47.5 -79.5 -30.5
v 47.5 -80.5 -30.5
v 47.5 -80.5 -29.5
v 47.5 -79.5 -29.5
v 47.5 -80.5 -30.5
v 47.5 -81.5 -30.5
v 47.5 -81.5 -29.5
v 47.5 -80.5 -29.5
v 47.5 -81.5 -30.5
v 47.5 -82.5 -30.5
v 47.5 -82.5 -29.5
v 47.5 -81.5 -29.5
vt 0.4921875 0.7265625
vt 0.4921875 0.6640625
vt 0.4296875 0.6640625
vt 0.4296875 0.7265625
vt 0.4921875 0.7265625
vt 0.4921875 0.6640625
vt 0.4296875 0.6640625
vt 0.4296875 0.7265625
vt 0.4921875 0.7265625
vt 0.4921875 0.6640625
vt 0.4296875 0.6640625
vt 0.4296875 0.7265625
vt 0.4921875 0.7265625
vt 0.4921875 0.6640625
vt 0.4296875 0.6640625
vt 0.4296875 0.7265625
vt 0.4921875 0.7265625
vt 0.4921875 0.6640625
vt 0.4296875 0.6640625
vt 0.4296875 0.7265625
vn 0 1 0
vn 0 1 0
vn 0 1 0
vn 0 1 0
vn 0 1 0
vn 0 1 0
vn 0 1 0
vn 0 1 0
vn 1 7.375699E-08 -1.192093E-07
vn 1 7.375699E-08 -1.192093E-07
vn 1 7.375699E-08 -1.192093E-07
vn 1 7.375699E-08 -1.192093E-07
vn 1 0 -1.192093E-07
vn 1 0 -1.192093E-07
vn 1 0 -1.192093E-07
vn 1 0 -1.192093E-07
vn 1 0 -1.192093E-07
vn 1 0 -1.192093E-07
vn 1 0 -1.192093E-07
vn 1 0 -1.192093E-07
g _Combined_Vis39_0_0
f 3/3/3 2/2/2 1/1/1
f 4/4/4 3/3/3 1/1/1
f 7/7/7 6/6/6 5/5/5
f 8/8/8 7/7/7 5/5/5
f 11/11/11 10/10/10 9/9/9
f 12/12/12 11/11/11 9/9/9
f 15/15/15 14/14/14 13/13/13
f 16/16/16 15/15/15 13/13/13
f 19/19/19 18/18/18 17/17/17
f 20/20/20 19/19/19 17/17/17
