g _Combined_Vis62_0
v 0.53844 -1.109821 -0.5000053
v 0.5000114 0.5 -0.5000058
v 0.5000109 -1.500001 -0.5000058
v 0.6522513 -0.7346343 -0.500004
v 0.8370711 -0.3888602 -0.5000019
v 1.085797 -0.08578676 -0.4999991
v 1.38887 0.1629389 -0.4999958
v 1.734644 0.3477592 -0.4999917
v 2.10983 0.4615708 -0.4999877
v 2.500011 0.5000005 -0.4999833
v 2.5 0.5000007 0.5000169
v 2.500011 0.5000005 -0.4999833
v 2.10983 0.4615708 -0.4999877
v 2.109819 0.4615712 0.5000125
v 1.734644 0.3477592 -0.4999917
v 1.734632 0.3477595 0.5000082
v 1.38887 0.1629389 -0.4999958
v 1.388859 0.1629393 0.5000044
v 1.085797 -0.08578676 -0.4999991
v 1.085786 -0.08578652 0.500001
v 0.8370711 -0.3888602 -0.5000019
v 0.8370599 -0.3888599 0.4999981
v 0.6522513 -0.7346343 -0.500004
v 0.6522403 -0.7346339 0.499996
v 0.53844 -1.109821 -0.5000053
v 0.5384293 -1.10982 0.4999948
v 0.5000109 -1.500001 -0.5000058
v 0.5000001 -1.500001 0.4999944
v 0.5000001 -1.500001 0.4999944
v 0.5000001 0.5 0.4999944
v 0.5384293 -1.10982 0.4999948
v 0.6522403 -0.7346339 0.499996
v 0.8370599 -0.3888599 0.4999981
v 1.085786 -0.08578652 0.500001
v 1.388859 0.1629393 0.5000044
v 1.734632 0.3477595 0.5000082
v 2.109819 0.4615712 0.5000125
v 2.5 0.5000007 0.5000169
v 2.500001 1.5 -0.4999998
v 2.499999 1.5 0.5000004
v 1.5 1.5 0.4999998
v 1.5 1.5 -0.5000004
v 1.500001 0.5 -0.4999973
v 1.5 1.5 -0.5000004
v 0.5 1.5 -0.4999989
v 0.5000114 0.5 -0.5000058
v 1.499999 0.5 0.5000002
v 1.5 1.5 0.4999998
v 2.499999 1.5 0.5000004
v 2.5 0.5000007 0.5000169
v 0.5000001 0.5 0.4999944
v 0.500001 1.5 0.5000002
v 1.5 1.5 0.4999998
v 1.499999 0.5 0.5000002
v -0.500001 -3.5 0.5000002
v -0.499999 -2.5 0.5000002
v 0.5 -2.5 0.4999998
v 0.5 -3.5 0.4999998
v -0.5000007 -3.5 -0.500001
v -0.5000007 -2.5 -0.499999
v -0.499999 -2.5 0.5000002
v -0.500001 -3.5 0.5000002
v 0.5 -3.5 0.4999998
v 0.5 -2.5 0.4999998
v 0.5000002 -2.5 -0.5000001
v 0.5000002 -3.5 -0.5000001
v 0.5000002 -3.5 -0.5000001
v 0.5000002 -2.5 -0.5000001
v -0.5000007 -2.5 -0.499999
v -0.5000007 -3.5 -0.500001
v -0.499999 -2.5 0.5000002
v -0.499999 -1.5 0.5000001
v 0.5000001 -1.500001 0.4999944
v 0.5 -2.5 0.4999998
v -0.499999 -1.5 0.5000001
v -0.499999 -0.5 0.5000001
v 0.5 -0.5 0.5
v 0.5000001 -1.500001 0.4999944
v -0.499999 -0.5 0.5000001
v -0.499999 0.5 0.5000001
v 0.5000001 0.5 0.4999944
v 0.5 -0.5 0.5
v -0.499999 0.5 0.5000001
v -0.499999 1.5 0.5000004
v 0.500001 1.5 0.5000002
v 0.5000001 0.5 0.4999944
v -0.5000004 0.5 -0.500001
v -0.5000004 1.5 -0.499999
v -0.499999 1.5 0.5000004
v -0.499999 0.5 0.5000001
v -0.5000004 -0.5 -0.500001
v -0.5000004 0.5 -0.500001
v -0.499999 0.5 0.5000001
v -0.499999 -0.5 0.5000001
v -0.5000007 -2.5 -0.499999
v -0.5000004 -1.5 -0.499999
v -0.499999 -1.5 0.5000001
v -0.499999 -2.5 0.5000002
v -0.5000004 -1.5 -0.499999
v -0.5000004 -0.5 -0.500001
v -0.499999 -0.5 0.5000001
v -0.499999 -1.5 0.5000001
v 0.5 -2.5 0.4999998
v 0.5000001 -1.500001 0.4999944
v 0.5000109 -1.500001 -0.5000058
v 0.5000002 -2.5 -0.5000001
v 0.5000002 -2.5 -0.5000001
v 0.5000109 -1.500001 -0.5000058
v -0.5000004 -1.5 -0.499999
v -0.5000007 -2.5 -0.499999
v 0.5000109 -1.500001 -0.5000058
v 0.499999 -0.5 -0.5000001
v -0.5000004 -0.5 -0.500001
v -0.5000004 -1.5 -0.499999
v 0.499999 -0.5 -0.5000001
v 0.5000114 0.5 -0.5000058
v -0.5000004 0.5 -0.500001
v -0.5000004 -0.5 -0.500001
v 0.5000114 0.5 -0.5000058
v 0.5 1.5 -0.4999989
v -0.5000004 1.5 -0.499999
v -0.5000004 0.5 -0.500001
v 0.5 1.5 -0.4999989
v 0.500001 1.5 0.5000002
v -0.499999 1.5 0.5000004
v -0.5000004 1.5 -0.499999
v 1.5 1.5 -0.5000004
v 1.5 1.5 0.4999998
v 0.500001 1.5 0.5000002
v 0.5 1.5 -0.4999989
v 2.500011 0.5000005 -0.4999833
v 2.500001 1.5 -0.4999998
v 1.5 1.5 -0.5000004
v 1.500001 0.5 -0.4999973
v 2.5 0.5000007 0.5000169
v 2.499999 1.5 0.5000004
v 2.500001 1.5 -0.4999998
v 2.500011 0.5000005 -0.4999833
vt 0.3220395 0.1637533
vt 0.296886 0.1640536
vt 0.328136 0.1640536
vt 0.3161772 0.1628642
vt 0.3107744 0.1614203
vt 0.3060389 0.1594771
vt 0.3021526 0.1571093
vt 0.2992648 0.154408
vt 0.2974865 0.1514769
vt 0.296886 0.1484286
vt 0.2657837 0.1640678
vt 0.296875 0.1640678
vt 0.296875 0.1601622
vt 0.2657837 0.1601622
vt 0.296875 0.1562566
vt 0.2657837 0.1562566
vt 0.296875 0.152351
vt 0.2657837 0.1523509
vt 0.296875 0.1484454
vt 0.2657838 0.1484453
vt 0.296875 0.1445397
vt 0.2657838 0.1445397
vt 0.296875 0.1406341
vt 0.2657838 0.1406341
vt 0.296875 0.1367285
vt 0.2657838 0.1367285
vt 0.296875 0.1328228
vt 0.2657838 0.1328228
vt 0.328136 0.1484293
vt 0.296886 0.1484293
vt 0.3220395 0.1481291
vt 0.3161772 0.14724
vt 0.3107744 0.1457961
vt 0.3060389 0.1438529
vt 0.3021526 0.1414851
vt 0.2992648 0.1387838
vt 0.2974865 0.1358526
vt 0.296886 0.1328043
vt 0.140625 0.3359375
vt 0.140625 0.2734375
vt 0.015625 0.2734375
vt 0.015625 0.3359375
vt 0.328125 0.1640625
vt 0.328125 0.1328125
vt 0.265625 0.1328125
vt 0.265625 0.1640625
vt 0.328125 0.1640625
vt 0.328125 0.1328125
vt 0.265625 0.1328125
vt 0.265625 0.1640625
vt 0.328125 0.1640625
vt 0.328125 0.1328125
vt 0.265625 0.1328125
vt 0.265625 0.1640625
vt 0.328125 0.1640625
vt 0.328125 0.1328125
vt 0.265625 0.1328125
vt 0.265625 0.1640625
vt 0.328125 0.1640625
vt 0.328125 0.1328125
vt 0.265625 0.1328125
vt 0.265625 0.1640625
vt 0.328125 0.1640625
vt 0.328125 0.1328125
vt 0.265625 0.1328125
vt 0.265625 0.1640625
vt 0.328125 0.1640625
vt 0.328125 0.1328125
vt 0.265625 0.1328125
vt 0.265625 0.1640625
vt 0.328125 0.1640625
vt 0.328125 0.1328125
vt 0.265625 0.1328125
vt 0.265625 0.1640625
vt 0.328125 0.1640625
vt 0.328125 0.1328125
vt 0.265625 0.1328125
vt 0.265625 0.1640625
vt 0.328125 0.1640625
vt 0.328125 0.1328125
vt 0.265625 0.1328125
vt 0.265625 0.1640625
vt 0.328125 0.1640625
vt 0.328125 0.1328125
vt 0.265625 0.1328125
vt 0.265625 0.1640625
vt 0.328125 0.1640625
vt 0.328125 0.1328125
vt 0.265625 0.1328125
vt 0.265625 0.1640625
vt 0.328125 0.1640625
vt 0.328125 0.1328125
vt 0.265625 0.1328125
vt 0.265625 0.1640625
vt 0.328125 0.1640625
vt 0.328125 0.1328125
vt 0.265625 0.1328125
vt 0.265625 0.1640625
vt 0.328125 0.1640625
vt 0.328125 0.1328125
vt 0.265625 0.1328125
vt 0.265625 0.1640625
vt 0.328125 0.1640625
vt 0.328125 0.1328125
vt 0.265625 0.1328125
vt 0.265625 0.1640625
vt 0.328125 0.1640625
vt 0.328125 0.1328125
vt 0.265625 0.1328125
vt 0.265625 0.1640625
vt 0.328125 0.1640625
vt 0.328125 0.1328125
vt 0.265625 0.1328125
vt 0.265625 0.1640625
vt 0.328125 0.1640625
vt 0.328125 0.1328125
vt 0.265625 0.1328125
vt 0.265625 0.1640625
vt 0.328125 0.1640625
vt 0.328125 0.1328125
vt 0.265625 0.1328125
vt 0.265625 0.1640625
vt 0.140625 0.3359375
vt 0.140625 0.2734375
vt 0.015625 0.2734375
vt 0.015625 0.3359375
vt 0.140625 0.3359375
vt 0.140625 0.2734375
vt 0.015625 0.2734375
vt 0.015625 0.3359375
vt 0.328125 0.1640625
vt 0.328125 0.1328125
vt 0.265625 0.1328125
vt 0.265625 0.1640625
vt 0.328125 0.1640625
vt 0.328125 0.1328125
vt 0.265625 0.1328125
vt 0.265625 0.1640625
vn 1.141627E-05 0 -1
vn 1.141627E-05 0 -1
vn 1.141627E-05 0 -1
vn 1.141627E-05 0 -1
vn 1.141627E-05 0 -1
vn 1.141627E-05 0 -1
vn 1.141627E-05 0 -1
vn 1.141627E-05 0 -1
vn 1.141627E-05 0 -1
vn 1.141627E-05 0 -1
vn -1.192093E-07 -1 0
vn -1.192093E-07 -1 0
vn 0.1950904 -0.9807853 2.227206E-06
vn 0.1950904 -0.9807853 2.227206E-06
vn 0.3826838 -0.9238794 4.368824E-06
vn 0.3826838 -0.9238794 4.368824E-06
vn 0.5555706 -0.8314694 6.342547E-06
vn 0.5555706 -0.8314694 6.342547E-06
vn 0.7071069 -0.7071066 8.072526E-06
vn 0.7071069 -0.7071066 8.072526E-06
vn 0.83147 -0.5555697 9.492288E-06
vn 0.83147 -0.5555698 9.492288E-06
vn 0.9238799 -0.3826824 1.054727E-05
vn 0.9238799 -0.3826825 1.054727E-05
vn 0.9807855 -0.1950893 1.119691E-05
vn 0.9807855 -0.1950893 1.119691E-05
vn 1 1.192093E-07 1.141627E-05
vn 1 1.192093E-07 1.141627E-05
vn -1.141627E-05 0 1
vn -1.141627E-05 0 1
vn -1.141627E-05 0 1
vn -1.141627E-05 0 1
vn -1.141627E-05 0 1
vn -1.141627E-05 0 1
vn -1.141627E-05 0 1
vn -1.141627E-05 0 1
vn -1.141627E-05 0 1
vn -1.141627E-05 0 1
vn 0 1 -1.192093E-07
vn 0 1 -1.192093E-07
vn 0 1 -1.192093E-07
vn 0 1 -1.192093E-07
vn 1.535482E-06 0 -1
vn 1.535482E-06 0 -1
vn 1.535482E-06 0 -1
vn 1.535482E-06 0 -1
vn 4.64519E-07 0 1
vn 4.64519E-07 0 1
vn 4.64519E-07 0 1
vn 4.64519E-07 0 1
vn 4.64519E-07 0 1
vn 4.64519E-07 0 1
vn 4.64519E-07 0 1
vn 4.64519E-07 0 1
vn 4.64519E-07 0 1
vn 4.64519E-07 0 1
vn 4.64519E-07 0 1
vn 4.64519E-07 0 1
vn -1 0 1.192093E-06
vn -1 0 1.192093E-06
vn -1 0 1.192093E-06
vn -1 0 1.192093E-06
vn 1 0 5.960463E-08
vn 1 0 5.960463E-08
vn 1 0 5.960463E-08
vn 1 0 5.960463E-08
vn -4.64519E-07 0 -1
vn -4.64519E-07 0 -1
vn -4.64519E-07 0 -1
vn -4.64519E-07 0 -1
vn 7.907329E-08 0 1
vn 7.907329E-08 0 1
vn 7.907329E-08 0 1
vn 7.907329E-08 0 1
vn 7.907329E-08 0 1
vn 7.907329E-08 0 1
vn 7.907329E-08 0 1
vn 7.907329E-08 0 1
vn 7.907329E-08 0 1
vn 7.907329E-08 0 1
vn 7.907329E-08 0 1
vn 7.907329E-08 0 1
vn 7.152557E-07 0 1
vn 7.152557E-07 0 1
vn 7.152557E-07 0 1
vn 7.152557E-07 0 1
vn -1 0 7.152557E-07
vn -1 0 7.152557E-07
vn -1 0 7.152557E-07
vn -1 0 7.152557E-07
vn -1 0 7.152557E-07
vn -1 0 7.152557E-07
vn -1 0 7.152557E-07
vn -1 0 7.152557E-07
vn -1 0 7.152557E-07
vn -1 0 7.152557E-07
vn -1 0 7.152557E-07
vn -1 0 7.152557E-07
vn -1 0 5.364417E-07
vn -1 0 5.364417E-07
vn -1 0 5.364417E-07
vn -1 0 5.364417E-07
vn 1 0 -3.576279E-07
vn 1 0 -3.576279E-07
vn 1 0 -3.576279E-07
vn 1 0 -3.576279E-07
vn -7.907329E-08 0 -1
vn -7.907329E-08 0 -1
vn -7.907329E-08 0 -1
vn -7.907329E-08 0 -1
vn -7.907329E-08 0 -1
vn -7.907329E-08 0 -1
vn -7.907329E-08 0 -1
vn -7.907329E-08 0 -1
vn -7.907329E-08 0 -1
vn -7.907329E-08 0 -1
vn -7.907329E-08 0 -1
vn -7.907329E-08 0 -1
vn 6.072196E-07 2.980232E-07 -1
vn 6.072196E-07 2.980232E-07 -1
vn 6.072196E-07 2.980232E-07 -1
vn 6.072196E-07 2.980232E-07 -1
vn 0 1 -1.192093E-07
vn 0 1 -1.192093E-07
vn 0 1 -1.192093E-07
vn 0 1 -1.192093E-07
vn 0 1 -1.192093E-07
vn 0 1 -1.192093E-07
vn 0 1 -1.192093E-07
vn 0 1 -1.192093E-07
vn 1.535482E-06 0 -1
vn 1.535482E-06 0 -1
vn 1.535482E-06 0 -1
vn 1.535482E-06 0 -1
vn 1 -7.105427E-15 1.132488E-05
vn 1 -7.105427E-15 1.132488E-05
vn 1 -7.105427E-15 1.132488E-05
vn 1 -7.105427E-15 1.132488E-05
g _Combined_Vis62_0_0
f 3/3/3 2/2/2 1/1/1
f 1/1/1 2/2/2 4/4/4
f 4/4/4 2/2/2 5/5/5
f 5/5/5 2/2/2 6/6/6
f 6/6/6 2/2/2 7/7/7
f 7/7/7 2/2/2 8/8/8
f 8/8/8 2/2/2 9/9/9
f 9/9/9 2/2/2 10/10/10
f 13/13/13 12/12/12 11/11/11
f 14/14/14 13/13/13 11/11/11
f 15/15/15 13/13/13 14/14/14
f 16/16/16 15/15/15 14/14/14
f 17/17/17 15/15/15 16/16/16
f 18/18/18 17/17/17 16/16/16
f 19/19/19 17/17/17 18/18/18
f 20/20/20 19/19/19 18/18/18
f 21/21/21 19/19/19 20/20/20
f 22/22/22 21/21/21 20/20/20
f 23/23/23 21/21/21 22/22/22
f 24/24/24 23/23/23 22/22/22
f 25/25/25 23/23/23 24/24/24
f 26/26/26 25/25/25 24/24/24
f 27/27/27 25/25/25 26/26/26
f 28/28/28 27/27/27 26/26/26
f 31/31/31 30/30/30 29/29/29
f 32/32/32 30/30/30 31/31/31
f 33/33/33 30/30/30 32/32/32
f 34/34/34 30/30/30 33/33/33
f 35/35/35 30/30/30 34/34/34
f 36/36/36 30/30/30 35/35/35
f 37/37/37 30/30/30 36/36/36
f 38/38/38 30/30/30 37/37/37
f 41/41/41 40/40/40 39/39/39
f 42/42/42 41/41/41 39/39/39
f 45/45/45 44/44/44 43/43/43
f 46/46/46 45/45/45 43/43/43
f 49/49/49 48/48/48 47/47/47
f 50/50/50 49/49/49 47/47/47
f 53/53/53 52/52/52 51/51/51
f 54/54/54 53/53/53 51/51/51
f 57/57/57 56/56/56 55/55/55
f 58/58/58 57/57/57 55/55/55
f 61/61/61 60/60/60 59/59/59
f 62/62/62 61/61/61 59/59/59
f 65/65/65 64/64/64 63/63/63
f 66/66/66 65/65/65 63/63/63
f 69/69/69 68/68/68 67/67/67
f 70/70/70 69/69/69 67/67/67
f 73/73/73 72/72/72 71/71/71
f 74/74/74 73/73/73 71/71/71
f 77/77/77 76/76/76 75/75/75
f 78/78/78 77/77/77 75/75/75
f 81/81/81 80/80/80 79/79/79
f 82/82/82 81/81/81 79/79/79
f 85/85/85 84/84/84 83/83/83
f 86/86/86 85/85/85 83/83/83
f 89/89/89 88/88/88 87/87/87
f 90/90/90 89/89/89 87/87/87
f 93/93/93 92/92/92 91/91/91
f 94/94/94 93/93/93 91/91/91
f 97/97/97 96/96/96 95/95/95
f 98/98/98 97/97/97 95/95/95
f 101/101/101 100/100/100 99/99/99
f 102/102/102 101/101/101 99/99/99
f 105/105/105 104/104/104 103/103/103
f 106/106/106 105/105/105 103/103/103
f 109/109/109 108/108/108 107/107/107
f 110/110/110 109/109/109 107/107/107
f 113/113/113 112/112/112 111/111/111
f 114/114/114 113/113/113 111/111/111
f 117/117/117 116/116/116 115/115/115
f 118/118/118 117/117/117 115/115/115
f 121/121/121 120/120/120 119/119/119
f 122/122/122 121/121/121 119/119/119
f 125/125/125 124/124/124 123/123/123
f 126/126/126 125/125/125 123/123/123
f 129/129/129 128/128/128 127/127/127
f 130/130/130 129/129/129 127/127/127
f 133/133/133 132/132/132 131/131/131
f 134/134/134 133/133/133 131/131/131
f 137/137/137 136/136/136 135/135/135
f 138/138/138 137/137/137 135/135/135
