g _Combined_Vis22_0
v -9.5 92.5 7.499999
v -8.5 92.5 7.5
v -8.5 92.5 8.5
v -9.5 92.5 8.5
v -8.5 92.5 7.5
v -8.5 91.5 7.5
v -8.5 91.5 8.499999
v -8.5 92.5 8.5
v -8.5 91.5 8.499999
v -8.5 91.5 7.5
v -8.5 90.5 7.499999
v -8.5 90.5 8.499999
v -9.500001 90.5 7.5
v -9.499999 89.5 7.5
v -8.5 89.5 7.5
v -8.5 90.5 7.499999
v -10.5 90.5 7.5
v -10.5 89.5 7.5
v -9.499999 89.5 7.5
v -9.500001 90.5 7.5
v -10.5 89.5 7.5
v -10.5 88.5 7.5
v -9.5 88.5 7.5
v -9.499999 89.5 7.5
v -10.5 91.5 7.5
v -10.5 90.5 7.5
v -9.500001 90.5 7.5
v -9.5 91.5 7.5
v -10.5 92.5 7.5
v -10.5 91.5 7.5
v -9.5 91.5 7.5
v -9.5 92.5 7.499999
v -10.5 93.5 7.5
v -10.5 92.5 7.5
v -9.5 92.5 7.499999
v -9.5 93.5 7.5
v -10.5 96.5 7.5
v -10.5 93.5 7.5
v -9.5 93.5 7.5
v -9.5 96.5 7.5
v -9.5 96.5 7.5
v -9.5 94.5 7.5
v -9.5 94.5 8.499999
v -9.5 96.5 8.499999
v -9.5 93.5 7.5
v -9.5 92.5 7.499999
v -9.5 92.5 8.5
v -9.5 93.5 8.499999
v -9.5 94.5 7.5
v -9.5 93.5 7.5
v -9.5 93.5 8.499999
v -9.5 94.5 8.499999
v -9.5 91.5 7.5
v -9.500001 90.5 7.5
v -8.5 90.5 7.499999
v -8.5 91.5 7.5
v -9.5 92.5 7.499999
v -9.5 91.5 7.5
v -8.5 91.5 7.5
v -8.5 92.5 7.5
v -10.25 96.5 7.624999
v -10.25 96.375 7.624999
v -10.375 96.375 7.749999
v -10.375 96.5 7.749999
v -9.75 96.5 8.374999
v -9.75 96.375 8.374999
v -9.625 96.375 8.249999
v -9.625 96.5 8.249999
v -9.625 96.5 7.749999
v -9.625 96.375 7.749999
v -9.75 96.375 7.624999
v -9.625 96.5 7.749999
v -9.75 96.375 7.624999
v -9.75 96.5 7.624999
v -9.75 96.5 7.624999
v -9.75 96.375 7.624999
v -10.25 96.375 7.624999
v -10.25 96.5 7.624999
v -10.375 96.5 8.249999
v -10.375 96.375 8.249999
v -10.25 96.375 8.374999
v -10.375 96.5 8.249999
v -10.25 96.375 8.374999
v -10.25 96.5 8.374999
v -9.625 96.5 8.249999
v -9.625 96.375 8.249999
v -9.625 96.375 7.749999
v -9.625 96.5 7.749999
v -10.25 96.5 8.374999
v -10.25 96.375 8.374999
v -9.75 96.375 8.374999
v -9.75 96.5 8.374999
v -10.375 96.5 7.749999
v -10.375 96.375 7.749999
v -10.375 96.375 8.249999
v -10.375 96.5 8.249999
v -9.75 96.5 7.624999
v -9.5 96.5 7.5
v -9.625 96.5 7.749999
v -10.25 96.5 7.624999
v -9.5 96.5 8.499999
v -9.625 96.5 8.249999
v -9.75 96.5 8.374999
v -10.5 96.5 7.5
v -10.375 96.5 7.749999
v -10.375 96.5 8.249999
v -10.5 96.5 8.499999
v -10.25 96.5 8.374999
vt 0.90625 0.78125
vt 0.90625 0.65625
vt 0.78125 0.65625
vt 0.78125 0.78125
vt 0.90625 0.59375
vt 0.90625 0.46875
vt 0.78125 0.46875
vt 0.78125 0.59375
vt 0.78125 0.21875
vt 0.78125 0.09375
vt 0.65625 0.09375
vt 0.65625 0.21875
vt 0.78125 0.21875
vt 0.78125 0.09375
vt 0.65625 0.09375
vt 0.65625 0.21875
vt 0.78125 0.21875
vt 0.78125 0.09375
vt 0.65625 0.09375
vt 0.65625 0.21875
vt 0.78125 0.21875
vt 0.78125 0.09375
vt 0.65625 0.09375
vt 0.65625 0.21875
vt 0.78125 0.21875
vt 0.78125 0.09375
vt 0.65625 0.09375
vt 0.65625 0.21875
vt 0.78125 0.21875
vt 0.78125 0.09375
vt 0.65625 0.09375
vt 0.65625 0.21875
vt 0.78125 0.21875
vt 0.78125 0.09375
vt 0.65625 0.09375
vt 0.65625 0.21875
vt 0.90625 0.59375
vt 0.90625 0.46875
vt 0.78125 0.46875
vt 0.78125 0.59375
vt 0.90625 0.59375
vt 0.90625 0.46875
vt 0.78125 0.46875
vt 0.78125 0.59375
vt 0.78125 0.21875
vt 0.78125 0.09375
vt 0.65625 0.09375
vt 0.65625 0.21875
vt 0.78125 0.21875
vt 0.78125 0.09375
vt 0.65625 0.09375
vt 0.65625 0.21875
vt 0.78125 0.21875
vt 0.78125 0.09375
vt 0.65625 0.09375
vt 0.65625 0.21875
vt 0.78125 0.21875
vt 0.78125 0.09375
vt 0.65625 0.09375
vt 0.65625 0.21875
vt 0.7384375 0.1608794
vt 0.7384375 0.1510356
vt 0.7482812 0.1510356
vt 0.7482812 0.1608794
vt 0.6990625 0.1608794
vt 0.6990625 0.1510356
vt 0.6892188 0.1510356
vt 0.6892188 0.1608794
vt 0.6892188 0.1608794
vt 0.6892188 0.1510356
vt 0.6990625 0.1510356
vt 0.6892188 0.1608794
vt 0.6990625 0.1510356
vt 0.6990625 0.1608794
vt 0.6990625 0.1608794
vt 0.6990625 0.1510356
vt 0.7384375 0.1510356
vt 0.7384375 0.1608794
vt 0.7482812 0.1608794
vt 0.7482812 0.1510356
vt 0.7384375 0.1510356
vt 0.7482812 0.1608794
vt 0.7384375 0.1510356
vt 0.7384375 0.1608794
vt 0.7384375 0.1608794
vt 0.7384375 0.1510356
vt 0.6990625 0.1510356
vt 0.6990625 0.1608794
vt 0.7384375 0.1608794
vt 0.7384375 0.1510356
vt 0.6990625 0.1510356
vt 0.6990625 0.1608794
vt 0.6990625 0.1608794
vt 0.6990625 0.1510356
vt 0.7384375 0.1510356
vt 0.7384375 0.1608794
vt 0.6875 0.109375
vt 0.65625 0.09375
vt 0.671875 0.125
vt 0.75 0.109375
vt 0.65625 0.21875
vt 0.671875 0.1875
vt 0.6875 0.203125
vt 0.78125 0.09375
vt 0.765625 0.125
vt 0.765625 0.1875
vt 0.78125 0.21875
vt 0.75 0.203125
vn 0 1 0
vn 0 1 0
vn 0 1 0
vn 0 1 0
vn 1 0 -1.192093E-07
vn 1 0 -1.192093E-07
vn 1 0 -1.192093E-07
vn 1 0 -1.192093E-07
vn 1 0 0
vn 1 0 0
vn 1 0 0
vn 1 0 0
vn 8.742279E-08 0 -1
vn 8.742279E-08 0 -1
vn 8.742279E-08 0 -1
vn 8.742279E-08 0 -1
vn 8.742279E-08 0 -1
vn 8.742279E-08 0 -1
vn 8.742279E-08 0 -1
vn 8.742279E-08 0 -1
vn 8.742279E-08 0 -1
vn 8.742279E-08 0 -1
vn 8.742279E-08 0 -1
vn 8.742279E-08 0 -1
vn 8.742279E-08 0 -1
vn 8.742279E-08 0 -1
vn 8.742279E-08 0 -1
vn 8.742279E-08 0 -1
vn 8.742279E-08 0 -1
vn 8.742279E-08 0 -1
vn 8.742279E-08 0 -1
vn 8.742279E-08 0 -1
vn 8.742279E-08 0 -1
vn 8.742279E-08 0 -1
vn 8.742279E-08 0 -1
vn 8.742279E-08 0 -1
vn 8.742279E-08 0 -1
vn 8.742279E-08 0 -1
vn 8.742279E-08 0 -1
vn 8.742279E-08 0 -1
vn 1 0 -1.192093E-07
vn 1 0 -1.192093E-07
vn 1 0 -1.192093E-07
vn 1 0 -1.192093E-07
vn 1 0 -1.192093E-07
vn 1 0 -1.192093E-07
vn 1 0 -1.192093E-07
vn 1 0 -1.192093E-07
vn 1 0 -1.192093E-07
vn 1 0 -1.192093E-07
vn 1 0 -1.192093E-07
vn 1 0 -1.192093E-07
vn 8.742279E-08 0 -1
vn 8.742279E-08 0 -1
vn 8.742279E-08 0 -1
vn 8.742279E-08 0 -1
vn 8.742279E-08 0 -1
vn 8.742279E-08 0 -1
vn 8.742279E-08 0 -1
vn 8.742279E-08 0 -1
vn 0.7071067 -8.429369E-08 0.7071068
vn 0.7071067 -8.429369E-08 0.7071068
vn 0.7071067 -8.429369E-08 0.7071068
vn 0.7071067 -8.429369E-08 0.7071068
vn -0.7071067 8.429369E-08 -0.7071068
vn -0.7071067 8.429369E-08 -0.7071068
vn -0.7071067 8.429369E-08 -0.7071068
vn -0.7071067 8.429369E-08 -0.7071068
vn -0.7071068 -8.429369E-08 0.7071067
vn -0.7071068 -8.429369E-08 0.7071067
vn -0.7071068 -8.429369E-08 0.7071067
vn -0.7071068 -8.429369E-08 0.7071067
vn -0.7071068 -8.429369E-08 0.7071067
vn -0.7071068 -8.429369E-08 0.7071067
vn -8.74228E-08 -1.192093E-07 1
vn -8.74228E-08 -1.192093E-07 1
vn -8.74228E-08 -1.192093E-07 1
vn -8.74228E-08 -1.192093E-07 1
vn 0.7071068 8.429369E-08 -0.7071067
vn 0.7071068 8.429369E-08 -0.7071067
vn 0.7071068 8.429369E-08 -0.7071067
vn 0.7071068 8.429369E-08 -0.7071067
vn 0.7071068 8.429369E-08 -0.7071067
vn 0.7071068 8.429369E-08 -0.7071067
vn -1 0 -8.74228E-08
vn -1 0 -8.74228E-08
vn -1 0 -8.74228E-08
vn -1 0 -8.74228E-08
vn 8.74228E-08 1.192093E-07 -1
vn 8.74228E-08 1.192093E-07 -1
vn 8.74228E-08 1.192093E-07 -1
vn 8.74228E-08 1.192093E-07 -1
vn 1 0 8.74228E-08
vn 1 0 8.74228E-08
vn 1 0 8.74228E-08
vn 1 0 8.74228E-08
vn 0 1 -1.192093E-07
vn 0 1 -1.192093E-07
vn 0 1 -1.192093E-07
vn 0 1 -1.192093E-07
vn 0 1 -1.192093E-07
vn 0 1 -1.192093E-07
vn 0 1 -1.192093E-07
vn 0 1 -1.192093E-07
vn 0 1 -1.192093E-07
vn 0 1 -1.192093E-07
vn 0 1 -1.192093E-07
vn 0 1 -1.192093E-07
g _Combined_Vis22_0_0
f 3/3/3 2/2/2 1/1/1
f 4/4/4 3/3/3 1/1/1
f 7/7/7 6/6/6 5/5/5
f 8/8/8 7/7/7 5/5/5
f 11/11/11 10/10/10 9/9/9
f 12/12/12 11/11/11 9/9/9
f 15/15/15 14/14/14 13/13/13
f 16/16/16 15/15/15 13/13/13
f 19/19/19 18/18/18 17/17/17
f 20/20/20 19/19/19 17/17/17
f 23/23/23 22/22/22 21/21/21
f 24/24/24 23/23/23 21/21/21
f 27/27/27 26/26/26 25/25/25
f 28/28/28 27/27/27 25/25/25
f 31/31/31 30/30/30 29/29/29
f 32/32/32 31/31/31 29/29/29
f 35/35/35 34/34/34 33/33/33
f 36/36/36 35/35/35 33/33/33
f 39/39/39 38/38/38 37/37/37
f 40/40/40 39/39/39 37/37/37
f 43/43/43 42/42/42 41/41/41
f 44/44/44 43/43/43 41/41/41
f 47/47/47 46/46/46 45/45/45
f 48/48/48 47/47/47 45/45/45
f 51/51/51 50/50/50 49/49/49
f 52/52/52 51/51/51 49/49/49
f 55/55/55 54/54/54 53/53/53
f 56/56/56 55/55/55 53/53/53
f 59/59/59 58/58/58 57/57/57
f 60/60/60 59/59/59 57/57/57
f 63/63/63 62/62/62 61/61/61
f 64/64/64 63/63/63 61/61/61
f 67/67/67 66/66/66 65/65/65
f 68/68/68 67/67/67 65/65/65
f 71/71/71 70/70/70 69/69/69
f 74/74/74 73/73/73 72/72/72
f 77/77/77 76/76/76 75/75/75
f 78/78/78 77/77/77 75/75/75
f 81/81/81 80/80/80 79/79/79
f 84/84/84 83/83/83 82/82/82
f 87/87/87 86/86/86 85/85/85
f 88/88/88 87/87/87 85/85/85
f 91/91/91 90/90/90 89/89/89
f 92/92/92 91/91/91 89/89/89
f 95/95/95 94/94/94 93/93/93
f 96/96/96 95/95/95 93/93/93
f 99/99/99 98/98/98 97/97/97
f 97/97/97 98/98/98 100/100/100
f 98/98/98 99/99/99 101/101/101
f 99/99/99 102/102/102 101/101/101
f 101/101/101 102/102/102 103/103/103
f 98/98/98 104/104/104 100/100/100
f 100/100/100 104/104/104 105/105/105
f 105/105/105 104/104/104 106/106/106
f 101/101/101 103/103/103 107/107/107
f 104/104/104 107/107/107 106/106/106
f 103/103/103 108/108/108 107/107/107
f 106/106/106 107/107/107 108/108/108
