g _Combined_WaterVis26_0
v 2.375 -0.5 6.75
v 2.375 -2.5 6.75
v 1.625 -2.5 6.75
v 1.625 -0.5 6.75
v 2.375 0.5 6.75
v 1.625 0.5 6.75
v 2.375 1 6.71875
v 1.625 1 6.71875
v 2.375 1.375 6.625
v 1.625 1.375 6.625
v 2.375 1.5 6.5
v 1.625 1.5 6.5
v 2.07288 -0.111308 6.800012
v 2 -0.888692 6.800012
v 1.92712 -0.111308 6.800012
v -3.5 -0.5 2.625
v -2.5 -0.5 2.625
v -2.5 -0.5 3.375
v -3.5 -0.5 3.375
v -3.097173 -0.449989 2.92712
v -2.902828 -0.449989 3
v -3.097173 -0.449989 3.07288
v -2.5 -0.5 2.625
v -1.5 -0.5 2.625
v -1.5 -0.5 3.375
v -2.5 -0.5 3.375
v -2.097173 -0.449989 2.92712
v -1.902828 -0.449989 3
v -2.097173 -0.449989 3.07288
v -1.5 -0.5 2.625
v -0.5000005 -0.5 2.625
v -0.5000007 -0.5 3.375
v -1.5 -0.5 3.375
v -1.097174 -0.449989 2.927119
v -0.9028276 -0.449989 3
v -1.097174 -0.449989 3.07288
v 2.375 1.5 5.5
v 2.375 1.5 6.5
v 1.625 1.5 6.5
v 1.625 1.5 5.5
v 2.07288 1.550011 5.902826
v 2 1.550011 6.097173
v 1.927119 1.550011 5.902826
v 0.3749994 -0.5000001 3.125
v 0.3749994 -0.5000001 3.5
v -0.3750006 -0.5 3.5
v -0.3750006 -0.5 3.4375
v 0.3749994 -0.5000001 2.625
v -0.3750006 -0.5 3.375
v -0.1250006 -0.5 2.625
v -0.4375006 -0.5 3.375
v -0.5000005 -0.5 2.625
v -0.5000007 -0.5 3.375
v 0.0728794 -0.550011 2.902827
v -6.062105E-07 -0.550011 3.097172
v -0.0728806 -0.550011 2.902827
v 2.375 -2.5 6.75
v 2.375 -6.5 6.750001
v 1.625 -6.5 6.750001
v 1.625 -2.5 6.75
v 2.07288 -4.111308 6.800013
v 2 -4.888692 6.800013
v 1.92712 -4.111308 6.800013
vt 0.875 0.499942
vt 0.875 0
vt 0.125 0
vt 0.125 0.499942
vt 0.875 0.749928
vt 0.125 0.749928
vt 0.875 0.8286
vt 0.125 0.8286
vt 0.875 0.9135
vt 0.125 0.9135
vt 0.875 0.999885
vt 0.125 0.999885
vt 0 0
vt 0 0
vt 0 0
vt 0.875 0.999885
vt 0.875 0
vt 0.125 0
vt 0.125 0.999885
vt 0 0
vt 0 0
vt 0 0
vt 0.875 0.999885
vt 0.875 0
vt 0.125 0
vt 0.125 0.999885
vt 0 0
vt 0 0
vt 0 0
vt 0.875 0.999885
vt 0.875 0
vt 0.125 0
vt 0.125 0.999885
vt 0 0
vt 0 0
vt 0 0
vt 0.875 0.999885
vt 0.875 0
vt 0.125 0
vt 0.125 0.999885
vt 0 0
vt 0 0
vt 0 0
vt 0.875 0.249971
vt 0.875 0
vt 0.125 0
vt 0.125 0.249971
vt 0.875 0.499942
vt 0.125 0.499942
vt 0.875 0.749914
vt 0.125 0.749914
vt 0.875 0.999885
vt 0.125 0.999885
vt 0 0
vt 0 0
vt 0 0
vt 0.875 0.999885
vt 0.875 0
vt 0.125 0
vt 0.125 0.999885
vt 0 0
vt 0 0
vt 0 0
vn 1.788139E-07 0 1
vn 1.788139E-07 0 1
vn 1.788139E-07 0 1
vn 1.788139E-07 0 1
vn 1.787293E-07 0.03076176 0.9995267
vn 1.787293E-07 0.03076176 0.9995267
vn 1.770491E-07 0.1401506 0.9901302
vn 1.770491E-07 0.1401506 0.9901302
vn 1.635776E-07 0.4039243 0.9147925
vn 1.635776E-07 0.4039243 0.9147925
vn 1.264404E-07 0.7071079 0.7071057
vn 1.264404E-07 0.7071079 0.7071057
vn 1.788139E-07 0 1
vn 1.788139E-07 0 1
vn 1.788139E-07 0 1
vn 0 1 0
vn 0 1 0
vn 0 1 0
vn 0 1 0
vn 0 1 0
vn 0 1 0
vn 0 1 0
vn 0 1 0
vn 0 1 0
vn 0 1 0
vn 0 1 0
vn 0 1 0
vn 0 1 0
vn 0 1 0
vn 0 1 0
vn 0 1 0
vn 0 1 0
vn 0 1 0
vn 0 1 0
vn 0 1 0
vn 0 1 0
vn 0 1 0
vn 0 1 0
vn 0 1 0
vn 0 1 0
vn 0 1 0
vn 0 1 0
vn 0 1 0
vn 8.742278E-08 1 6.158115E-15
vn 8.742278E-08 1 6.158115E-15
vn 8.742278E-08 1 6.158115E-15
vn 8.742278E-08 1 6.158115E-15
vn 8.742278E-08 1 6.158115E-15
vn 8.742278E-08 1 6.158115E-15
vn 8.742278E-08 1 6.158115E-15
vn 8.742278E-08 1 6.158115E-15
vn 8.742278E-08 1 6.158115E-15
vn 8.742278E-08 1 6.158115E-15
vn 8.742278E-08 1 6.158115E-15
vn 8.742278E-08 1 6.158115E-15
vn 8.742278E-08 1 6.158115E-15
vn 1.788139E-07 0 1
vn 1.788139E-07 0 1
vn 1.788139E-07 0 1
vn 1.788139E-07 0 1
vn 1.788139E-07 0 1
vn 1.788139E-07 0 1
vn 1.788139E-07 0 1
g _Combined_WaterVis26_0_0
f 3/3/3 2/2/2 1/1/1
f 4/4/4 3/3/3 1/1/1
f 4/4/4 1/1/1 5/5/5
f 6/6/6 4/4/4 5/5/5
f 6/6/6 5/5/5 7/7/7
f 8/8/8 6/6/6 7/7/7
f 8/8/8 7/7/7 9/9/9
f 10/10/10 8/8/8 9/9/9
f 10/10/10 9/9/9 11/11/11
f 12/12/12 10/10/10 11/11/11
f 15/15/15 14/14/14 13/13/13
f 18/18/18 17/17/17 16/16/16
f 19/19/19 18/18/18 16/16/16
f 22/22/22 21/21/21 20/20/20
f 25/25/25 24/24/24 23/23/23
f 26/26/26 25/25/25 23/23/23
f 29/29/29 28/28/28 27/27/27
f 32/32/32 31/31/31 30/30/30
f 33/33/33 32/32/32 30/30/30
f 36/36/36 35/35/35 34/34/34
f 39/39/39 38/38/38 37/37/37
f 40/40/40 39/39/39 37/37/37
f 43/43/43 42/42/42 41/41/41
f 46/46/46 45/45/45 44/44/44
f 47/47/47 46/46/46 44/44/44
f 47/47/47 44/44/44 48/48/48
f 49/49/49 47/47/47 48/48/48
f 49/49/49 48/48/48 50/50/50
f 51/51/51 49/49/49 50/50/50
f 51/51/51 50/50/50 52/52/52
f 53/53/53 51/51/51 52/52/52
f 56/56/56 55/55/55 54/54/54
f 59/59/59 58/58/58 57/57/57
f 60/60/60 59/59/59 57/57/57
f 63/63/63 62/62/62 61/61/61
