g _Combined_Vis11_0
v 0.5025674 -2.000026 -0.4310427
v -0.4974328 -2.000026 -0.4310408
v -0.4974328 -2.000027 0.5689583
v 0.5025674 -2.000027 0.5689584
v 0.5025674 -2.163999 0.5689592
v -0.4974327 -2.163999 0.5689573
v -0.4974327 -2.163999 -0.4310417
v 0.5025673 -2.163999 -0.4310418
v -0.4974325 -3.164001 -0.4310415
v 0.5025676 -3.163999 -0.4310416
v 0.5025673 -2.163999 -0.4310418
v -0.4974327 -2.163999 -0.4310417
v 0.5025673 -2.163999 -0.4310418
v 0.5025676 -3.163999 -0.4310416
v 0.5025674 -3.164 0.568958
v 0.5025674 -2.163999 0.5689592
v 0.5025676 -3.163999 -0.4310416
v -0.4974325 -3.164001 -0.4310415
v -0.4974328 -3.163999 0.5689583
v 0.5025674 -3.164 0.568958
v 0.5025674 -3.260999 0.5689592
v -0.4974327 -3.260999 0.5689573
v -0.4974327 -3.260999 -0.4310417
v 0.5025673 -3.260999 -0.4310418
v -0.4974327 -3.260999 -0.4310417
v -0.4974319 -4.261 -0.4310416
v 0.5025671 -4.261 -0.4310419
v 0.5025673 -3.260999 -0.4310418
v 0.5025673 -4.261 0.5689594
v 0.5025674 -3.260999 0.5689592
v 0.5025673 -3.260999 -0.4310418
v 0.5025671 -4.261 -0.4310419
v 0.5025671 -4.261 -0.4310419
v -0.4974319 -4.261 -0.4310416
v -0.4974328 -4.260999 0.5689583
v 0.5025673 -4.261 0.5689594
v 0.5025674 -4.38 0.5689592
v -0.4974327 -4.38 0.5689573
v -0.4974327 -4.38 -0.4310417
v 0.5025673 -4.38 -0.4310418
v 0.5025673 -4.38 -0.4310418
v -0.4974327 -4.38 -0.4310417
v -0.4974328 -5.380001 -0.4310419
v 0.5025673 -5.380001 -0.4310418
v 0.5025674 -4.38 0.5689592
v 0.5025673 -4.38 -0.4310418
v 0.5025673 -5.380001 -0.4310418
v 0.5025676 -5.380001 0.5689583
v 0.5025673 -5.380001 -0.4310418
v -0.4974328 -5.380001 -0.4310419
v -0.4974328 -5.380001 0.5689583
v 0.5025676 -5.380001 0.5689583
v 0.5025674 -5.504999 0.5689592
v -0.4974327 -5.504999 0.5689573
v -0.4974327 -5.504999 -0.4310417
v 0.5025673 -5.504999 -0.4310418
v 0.5025673 -5.504999 -0.4310418
v -0.4974327 -5.504999 -0.4310417
v -0.4974328 -6.505 -0.4310419
v 0.5025673 -6.505 -0.4310418
v 0.5025674 -5.504999 0.5689592
v 0.5025673 -5.504999 -0.4310418
v 0.5025673 -6.505 -0.4310418
v 0.5025676 -6.505 0.5689583
vt 0.984375 0.984375
vt 0.984375 0.921875
vt 0.921875 0.921875
vt 0.921875 0.984375
vt 0.984375 0.984375
vt 0.984375 0.921875
vt 0.921875 0.921875
vt 0.921875 0.984375
vt 0.484375 0.546875
vt 0.484375 0.484375
vt 0.421875 0.484375
vt 0.421875 0.546875
vt 0.984375 0.796875
vt 0.984375 0.734375
vt 0.921875 0.734375
vt 0.921875 0.796875
vt 0.984375 0.984375
vt 0.984375 0.921875
vt 0.921875 0.921875
vt 0.921875 0.984375
vt 0.984375 0.984375
vt 0.984375 0.921875
vt 0.921875 0.921875
vt 0.921875 0.984375
vt 0.390625 0.546875
vt 0.390625 0.484375
vt 0.328125 0.484375
vt 0.328125 0.546875
vt 0.984375 0.890625
vt 0.984375 0.828125
vt 0.921875 0.828125
vt 0.921875 0.890625
vt 0.984375 0.984375
vt 0.984375 0.921875
vt 0.921875 0.921875
vt 0.921875 0.984375
vt 0.984375 0.984375
vt 0.984375 0.921875
vt 0.921875 0.921875
vt 0.921875 0.984375
vt 0.484375 0.546875
vt 0.484375 0.484375
vt 0.421875 0.484375
vt 0.421875 0.546875
vt 0.484375 0.546875
vt 0.484375 0.484375
vt 0.421875 0.484375
vt 0.421875 0.546875
vt 0.984375 0.984375
vt 0.984375 0.921875
vt 0.921875 0.921875
vt 0.921875 0.984375
vt 0.984375 0.984375
vt 0.984375 0.921875
vt 0.921875 0.921875
vt 0.921875 0.984375
vt 0.984375 0.984375
vt 0.984375 0.921875
vt 0.921875 0.921875
vt 0.921875 0.984375
vt 0.984375 0.984375
vt 0.984375 0.921875
vt 0.921875 0.921875
vt 0.921875 0.984375
vn 1.192093E-07 -1 -7.152557E-07
vn 1.192093E-07 -1 -7.152557E-07
vn 1.192093E-07 -1 -7.152557E-07
vn 1.192093E-07 -1 -7.152557E-07
vn 0 1 -1.192093E-07
vn 0 1 -1.192093E-07
vn 0 1 -1.192093E-07
vn 0 1 -1.192093E-07
vn -6.322007E-08 -2.739545E-07 -1
vn -6.322007E-08 -2.739545E-07 -1
vn -6.322007E-08 -2.739545E-07 -1
vn -6.322007E-08 -2.739545E-07 -1
vn 1 -2.52881E-07 -3.576279E-07
vn 1 -2.52881E-07 -3.576279E-07
vn 1 -2.52881E-07 -3.576279E-07
vn 1 -2.52881E-07 -3.576279E-07
vn 1.192093E-07 -1 -7.152557E-07
vn 1.192093E-07 -1 -7.152557E-07
vn 1.192093E-07 -1 -7.152557E-07
vn 1.192093E-07 -1 -7.152557E-07
vn 0 1 -1.192093E-07
vn 0 1 -1.192093E-07
vn 0 1 -1.192093E-07
vn 0 1 -1.192093E-07
vn -2.739544E-07 6.322038E-08 -1
vn -2.739544E-07 6.322038E-08 -1
vn -2.739544E-07 6.322038E-08 -1
vn -2.739544E-07 6.322038E-08 -1
vn 1 3.582482E-07 1.788139E-07
vn 1 3.582482E-07 1.788139E-07
vn 1 3.582482E-07 1.788139E-07
vn 1 3.582482E-07 1.788139E-07
vn 1.192093E-07 -1 -7.152557E-07
vn 1.192093E-07 -1 -7.152557E-07
vn 1.192093E-07 -1 -7.152557E-07
vn 1.192093E-07 -1 -7.152557E-07
vn 0 1 -1.192093E-07
vn 0 1 -1.192093E-07
vn 0 1 -1.192093E-07
vn 0 1 -1.192093E-07
vn 6.322028E-08 2.739545E-07 -1
vn 6.322028E-08 2.739545E-07 -1
vn 6.322028E-08 2.739545E-07 -1
vn 6.322028E-08 2.739545E-07 -1
vn 1 2.682209E-07 -3.576278E-07
vn 1 2.682209E-07 -3.576278E-07
vn 1 2.682209E-07 -3.576278E-07
vn 1 2.682209E-07 -3.576278E-07
vn 1.192093E-07 -1 -7.152557E-07
vn 1.192093E-07 -1 -7.152557E-07
vn 1.192093E-07 -1 -7.152557E-07
vn 1.192093E-07 -1 -7.152557E-07
vn 0 1 -1.192093E-07
vn 0 1 -1.192093E-07
vn 0 1 -1.192093E-07
vn 0 1 -1.192093E-07
vn 6.322028E-08 2.739545E-07 -1
vn 6.322028E-08 2.739545E-07 -1
vn 6.322028E-08 2.739545E-07 -1
vn 6.322028E-08 2.739545E-07 -1
vn 1 2.682209E-07 -3.576278E-07
vn 1 2.682209E-07 -3.576278E-07
vn 1 2.682209E-07 -3.576278E-07
vn 1 2.682209E-07 -3.576278E-07
g _Combined_Vis11_0_0
f 3/3/3 2/2/2 1/1/1
f 4/4/4 3/3/3 1/1/1
f 7/7/7 6/6/6 5/5/5
f 8/8/8 7/7/7 5/5/5
f 11/11/11 10/10/10 9/9/9
f 12/12/12 11/11/11 9/9/9
f 15/15/15 14/14/14 13/13/13
f 16/16/16 15/15/15 13/13/13
f 19/19/19 18/18/18 17/17/17
f 20/20/20 19/19/19 17/17/17
f 23/23/23 22/22/22 21/21/21
f 24/24/24 23/23/23 21/21/21
f 27/27/27 26/26/26 25/25/25
f 28/28/28 27/27/27 25/25/25
f 31/31/31 30/30/30 29/29/29
f 32/32/32 31/31/31 29/29/29
f 35/35/35 34/34/34 33/33/33
f 36/36/36 35/35/35 33/33/33
f 39/39/39 38/38/38 37/37/37
f 40/40/40 39/39/39 37/37/37
f 43/43/43 42/42/42 41/41/41
f 44/44/44 43/43/43 41/41/41
f 47/47/47 46/46/46 45/45/45
f 48/48/48 47/47/47 45/45/45
f 51/51/51 50/50/50 49/49/49
f 52/52/52 51/51/51 49/49/49
f 55/55/55 54/54/54 53/53/53
f 56/56/56 55/55/55 53/53/53
f 59/59/59 58/58/58 57/57/57
f 60/60/60 59/59/59 57/57/57
f 63/63/63 62/62/62 61/61/61
f 64/64/64 63/63/63 61/61/61
