g _Combined_Vis34_1
v -1.499999 2.5 -1.5
v -1.500001 2.5 -0.4999999
v -2.5 2.5 -0.4999999
v -2.5 2.5 -1.5
v -3.499999 2.5 -1.5
v -3.500001 2.5 -0.4999999
v -4.5 2.5 -0.4999999
v -4.5 2.5 -1.5
v -2.75 2.5 -0.6249999
v -2.75 2.375 -0.6249999
v -2.625 2.375 -0.7499999
v -2.625 2.5 -0.75
v -3.25 2.5 -1.375
v -3.25 2.375 -1.375
v -3.375 2.375 -1.25
v -3.375 2.5 -1.25
v -3.375 2.5 -0.75
v -3.375 2.375 -0.7499999
v -3.25 2.375 -0.6249999
v -3.25 2.5 -0.6249999
v -3.25 2.5 -0.6249999
v -3.25 2.375 -0.6249999
v -2.75 2.375 -0.6249999
v -2.75 2.5 -0.6249999
v -2.625 2.5 -1.25
v -2.625 2.375 -1.25
v -2.75 2.375 -1.375
v -2.75 2.5 -1.375
v -3.375 2.5 -1.25
v -3.375 2.375 -1.25
v -3.375 2.375 -0.7499999
v -3.375 2.5 -0.75
v -2.75 2.5 -1.375
v -2.75 2.375 -1.375
v -3.25 2.375 -1.375
v -3.25 2.5 -1.375
v -2.625 2.5 -0.75
v -2.625 2.375 -0.7499999
v -2.625 2.375 -1.25
v -2.625 2.5 -1.25
v -3.25 2.5 -0.6249999
v -3.500001 2.5 -0.4999999
v -3.375 2.5 -0.75
v -2.75 2.5 -0.6249999
v -3.499999 2.5 -1.5
v -3.375 2.5 -1.25
v -3.25 2.5 -1.375
v -2.5 2.5 -0.4999999
v -2.625 2.5 -0.75
v -2.625 2.5 -1.25
v -2.5 2.5 -1.5
v -2.75 2.5 -1.375
vt 0.328125 0.1640625
vt 0.328125 0.1328125
vt 0.265625 0.1328125
vt 0.265625 0.1640625
vt 0.328125 0.1640625
vt 0.328125 0.1328125
vt 0.265625 0.1328125
vt 0.265625 0.1640625
vt 0.3067188 0.1495948
vt 0.3067188 0.1471339
vt 0.3116406 0.1471339
vt 0.3116406 0.1495948
vt 0.2870313 0.1495948
vt 0.2870313 0.1471339
vt 0.2821094 0.1471339
vt 0.2821094 0.1495948
vt 0.2821094 0.1495948
vt 0.2821094 0.1471339
vt 0.2870313 0.1471339
vt 0.2870313 0.1495948
vt 0.2870313 0.1495948
vt 0.2870313 0.1471339
vt 0.3067188 0.1471339
vt 0.3067188 0.1495948
vt 0.3116406 0.1495948
vt 0.3116406 0.1471339
vt 0.3067188 0.1471339
vt 0.3067188 0.1495948
vt 0.3067188 0.1495948
vt 0.3067188 0.1471339
vt 0.2870313 0.1471339
vt 0.2870313 0.1495948
vt 0.3067188 0.1495948
vt 0.3067188 0.1471339
vt 0.2870313 0.1471339
vt 0.2870313 0.1495948
vt 0.2870313 0.1495948
vt 0.2870313 0.1471339
vt 0.3067188 0.1471339
vt 0.3067188 0.1495948
vt 0.28125 0.1367188
vt 0.265625 0.1328125
vt 0.2734375 0.140625
vt 0.3125 0.1367188
vt 0.265625 0.1640625
vt 0.2734375 0.15625
vt 0.28125 0.1601563
vt 0.328125 0.1328125
vt 0.3203125 0.140625
vt 0.3203125 0.15625
vt 0.328125 0.1640625
vt 0.3125 0.1601563
vn 0 1 -1.192093E-07
vn 0 1 -1.192093E-07
vn 0 1 -1.192093E-07
vn 0 1 -1.192093E-07
vn 0 1 -1.192093E-07
vn 0 1 -1.192093E-07
vn 0 1 -1.192093E-07
vn 0 1 -1.192093E-07
vn -0.7071068 -8.429369E-08 -0.7071068
vn -0.7071068 -8.429369E-08 -0.7071068
vn -0.7071068 -8.429369E-08 -0.7071068
vn -0.7071068 -8.429369E-08 -0.7071068
vn 0.7071068 8.429369E-08 0.7071068
vn 0.7071068 8.429369E-08 0.7071068
vn 0.7071068 8.429369E-08 0.7071068
vn 0.7071068 8.429369E-08 0.7071068
vn 0.7071068 -8.429369E-08 -0.7071068
vn 0.7071068 -8.429369E-08 -0.7071068
vn 0.7071068 -8.429369E-08 -0.7071068
vn 0.7071068 -8.429369E-08 -0.7071068
vn 0 -1.192093E-07 -1
vn 0 -1.192093E-07 -1
vn 0 -1.192093E-07 -1
vn 0 -1.192093E-07 -1
vn -0.7071068 8.429369E-08 0.7071068
vn -0.7071068 8.429369E-08 0.7071068
vn -0.7071068 8.429369E-08 0.7071068
vn -0.7071068 8.429369E-08 0.7071068
vn 1 0 0
vn 1 0 0
vn 1 0 0
vn 1 0 0
vn 0 1.192093E-07 1
vn 0 1.192093E-07 1
vn 0 1.192093E-07 1
vn 0 1.192093E-07 1
vn -1 0 0
vn -1 0 0
vn -1 0 0
vn -1 0 0
vn 0 1 -1.192093E-07
vn 0 1 -1.192093E-07
vn 0 1 -1.192093E-07
vn 0 1 -1.192093E-07
vn 0 1 -1.192093E-07
vn 0 1 -1.192093E-07
vn 0 1 -1.192093E-07
vn 0 1 -1.192093E-07
vn 0 1 -1.192093E-07
vn 0 1 -1.192093E-07
vn 0 1 -1.192093E-07
vn 0 1 -1.192093E-07
g _Combined_Vis34_1_0
f 3/3/3 2/2/2 1/1/1
f 4/4/4 3/3/3 1/1/1
f 7/7/7 6/6/6 5/5/5
f 8/8/8 7/7/7 5/5/5
f 11/11/11 10/10/10 9/9/9
f 12/12/12 11/11/11 9/9/9
f 15/15/15 14/14/14 13/13/13
f 16/16/16 15/15/15 13/13/13
f 19/19/19 18/18/18 17/17/17
f 20/20/20 19/19/19 17/17/17
f 23/23/23 22/22/22 21/21/21
f 24/24/24 23/23/23 21/21/21
f 27/27/27 26/26/26 25/25/25
f 28/28/28 27/27/27 25/25/25
f 31/31/31 30/30/30 29/29/29
f 32/32/32 31/31/31 29/29/29
f 35/35/35 34/34/34 33/33/33
f 36/36/36 35/35/35 33/33/33
f 39/39/39 38/38/38 37/37/37
f 40/40/40 39/39/39 37/37/37
f 43/43/43 42/42/42 41/41/41
f 41/41/41 42/42/42 44/44/44
f 42/42/42 43/43/43 45/45/45
f 43/43/43 46/46/46 45/45/45
f 45/45/45 46/46/46 47/47/47
f 42/42/42 48/48/48 44/44/44
f 44/44/44 48/48/48 49/49/49
f 49/49/49 48/48/48 50/50/50
f 45/45/45 47/47/47 51/51/51
f 48/48/48 51/51/51 50/50/50
f 47/47/47 52/52/52 51/51/51
f 50/50/50 51/51/51 52/52/52
