g _CombinedLessRain63_0
v -0.1724042 -0.1289176 4.331921E-07
v -0.1691254 -0.4376386 7.772071E-07
v -0.1756824 -0.4376386 7.744908E-07
v 0.2605645 -0.7292529 1.278881E-06
v 0.2638433 -1.037975 1.622897E-06
v 0.2572863 -1.037975 1.620181E-06
v 0.5767941 0.158848 4.241585E-07
v 0.5800729 -0.1498731 7.681735E-07
v 0.5735149 -0.1498731 7.654568E-07
v -0.856422 0.5660159 -6.214934E-07
v -0.8531432 0.2572949 -2.774784E-07
v -0.8597012 0.2572949 -2.801951E-07
v -0.2145733 1.509926 -1.403268E-06
v -0.2112944 1.308158 -1.177962E-06
v -0.2178514 1.308158 -1.180679E-06
v 0.5700043 2.297908 -1.952848E-06
v 0.5732832 1.989187 -1.608833E-06
v 0.5667262 1.989187 -1.611549E-06
v -0.4192151 3.587503 -3.793995E-06
v -0.4159363 3.278781 -3.449979E-06
v -0.4224943 3.278781 -3.452696E-06
v 0.1673982 3.770004 -3.753546E-06
v 0.170677 3.461283 -3.40953E-06
v 0.164119 3.461283 -3.412247E-06
v -0.8885049 4.052784 -4.50483E-06
v -0.8852271 3.671861 -4.080677E-06
v -0.8917841 3.671861 -4.083393E-06
v 0.6627603 3.822147 -3.606211E-06
v 0.6660392 3.513425 -3.262195E-06
v 0.6594812 3.513425 -3.264912E-06
v -0.1976051 5.177875 -5.467382E-06
v -0.1943263 4.869154 -5.123367E-06
v -0.2008833 4.869154 -5.126083E-06
v 1.8163 -6.125464 1.41298E-05
v 1.819579 -6.434186 1.447382E-05
v 1.813022 -6.434186 1.44711E-05
v 2.249269 -6.7258 1.497549E-05
v 2.252547 -7.034522 1.531951E-05
v 2.24599 -7.034522 1.531679E-05
v 2.565498 -5.837699 1.412077E-05
v 2.568777 -6.14642 1.446479E-05
v 2.562219 -6.14642 1.446207E-05
v 1.132282 -5.430531 1.307512E-05
v 1.135561 -5.739252 1.341913E-05
v 1.129003 -5.739252 1.341642E-05
v 1.774131 -4.486621 1.229335E-05
v 1.77741 -4.688389 1.251865E-05
v 1.770853 -4.688389 1.251593E-05
v 2.558708 -3.698639 1.174376E-05
v 2.561987 -4.00736 1.208778E-05
v 2.55543 -4.00736 1.208506E-05
v 1.569489 -2.409044 9.902617E-06
v 1.572768 -2.717766 1.024663E-05
v 1.56621 -2.717766 1.024392E-05
v 2.156102 -2.226543 9.943067E-06
v 2.159381 -2.535264 1.028708E-05
v 2.152823 -2.535264 1.028437E-05
v 1.100199 -1.943763 9.191782E-06
v 1.103477 -2.324686 9.615936E-06
v 1.09692 -2.324686 9.613219E-06
v 2.651464 -2.1744 1.00904E-05
v 2.654743 -2.483122 1.043442E-05
v 2.648185 -2.483122 1.04317E-05
v 1.791099 -0.8186719 8.229231E-06
v 1.794378 -1.127393 8.573245E-06
v 1.787821 -1.127393 8.57053E-06
v -0.1724274 -6.125463 1.452825E-05
v -0.1691486 -6.434184 1.487226E-05
v -0.1757056 -6.434184 1.486955E-05
v 0.2605413 -6.725799 1.537394E-05
v 0.2638202 -7.034521 1.571795E-05
v 0.2572632 -7.034521 1.571524E-05
v 0.576771 -5.837698 1.451921E-05
v 0.5800498 -6.146419 1.486323E-05
v 0.5734918 -6.146419 1.486051E-05
v -0.8564452 -5.43053 1.347356E-05
v -0.8531663 -5.739251 1.381758E-05
v -0.8597243 -5.739251 1.381486E-05
v -0.2145964 -4.48662 1.269179E-05
v -0.2113176 -4.688388 1.291709E-05
v -0.2178746 -4.688388 1.291438E-05
v 0.5699812 -3.698637 1.214221E-05
v 0.57326 -4.007359 1.248622E-05
v 0.566703 -4.007359 1.248351E-05
v -0.4192382 -2.409043 1.030106E-05
v -0.4159594 -2.717765 1.064508E-05
v -0.4225174 -2.717765 1.064236E-05
v 0.167375 -2.226542 1.034151E-05
v 0.1706538 -2.535263 1.068553E-05
v 0.1640958 -2.535263 1.068281E-05
v -0.8885281 -1.943761 9.590225E-06
v -0.8852503 -2.324684 1.001438E-05
v -0.8918073 -2.324684 1.001166E-05
v 0.6627371 -2.174398 1.048884E-05
v 0.666016 -2.48312 1.083286E-05
v 0.659458 -2.48312 1.083014E-05
v -0.1976282 -0.8186705 8.627674E-06
v -0.1943494 -1.127392 8.971689E-06
v -0.2009064 -1.127392 8.968973E-06
v 1.816305 -0.1289181 2.016125E-07
v 1.819584 -0.4376391 3.516214E-07
v 1.813028 -0.4376391 3.487417E-07
v 2.249275 -0.7292527 6.806703E-07
v 2.252554 -1.037975 8.306797E-07
v 2.245997 -1.037975 8.278E-07
v 2.565503 0.1588488 3.921631E-07
v 2.568782 -0.1498723 5.421721E-07
v 2.562224 -0.1498723 5.392919E-07
v 1.132286 0.5660142 -4.332262E-07
v 1.135566 0.2572932 -2.832173E-07
v 1.129008 0.2572932 -2.860974E-07
v 1.774133 1.509925 -6.055845E-07
v 1.777413 1.308157 -5.070456E-07
v 1.770856 1.308157 -5.099254E-07
v 2.55871 2.297909 -6.402205E-07
v 2.561989 1.989188 -4.902114E-07
v 2.555432 1.989188 -4.930912E-07
v 1.569488 3.587502 -1.695273E-06
v 1.572767 3.27878 -1.545264E-06
v 1.56621 3.27878 -1.548144E-06
v 2.156101 3.770004 -1.52547E-06
v 2.15938 3.461283 -1.375461E-06
v 2.152822 3.461283 -1.378341E-06
v 1.100198 4.052783 -2.125289E-06
v 1.103476 3.67186 -1.940534E-06
v 1.096919 3.67186 -1.943414E-06
v 2.651463 3.822148 -1.333009E-06
v 2.654742 3.513426 -1.182999E-06
v 2.648185 3.513426 -1.185879E-06
v 1.791095 5.177875 -2.363297E-06
v 1.794375 4.869153 -2.213288E-06
v 1.787818 4.869153 -2.216168E-06
v -2.161113 -0.1289175 3.774028E-07
v -2.157834 -0.4376385 7.214178E-07
v -2.164391 -0.4376385 7.187015E-07
v -1.728144 -0.7292528 1.223092E-06
v -1.724865 -1.037975 1.567108E-06
v -1.731422 -1.037975 1.564391E-06
v -1.411914 0.1588481 3.683692E-07
v -1.408636 -0.1498729 7.123843E-07
v -1.415194 -0.1498729 7.096675E-07
v -2.84513 0.566016 -6.772827E-07
v -2.841852 0.257295 -3.332676E-07
v -2.84841 0.257295 -3.359843E-07
v -2.203282 1.509926 -1.459057E-06
v -2.200003 1.308158 -1.233752E-06
v -2.20656 1.308158 -1.236468E-06
v -1.418704 2.297909 -2.008637E-06
v -1.415425 1.989187 -1.664622E-06
v -1.421982 1.989187 -1.667338E-06
v -2.407923 3.587503 -3.849784E-06
v -2.404645 3.278781 -3.505768E-06
v -2.411203 3.278781 -3.508485E-06
v -1.82131 3.770004 -3.809335E-06
v -1.818032 3.461283 -3.46532E-06
v -1.824589 3.461283 -3.468036E-06
v -2.877213 4.052784 -4.56062E-06
v -2.873936 3.671861 -4.136466E-06
v -2.880493 3.671861 -4.139183E-06
v -1.325948 3.822147 -3.662001E-06
v -1.322669 3.513426 -3.317984E-06
v -1.329227 3.513426 -3.320701E-06
v -2.186314 5.177875 -5.523171E-06
v -2.183035 4.869154 -5.179156E-06
v -2.189592 4.869154 -5.181872E-06
v -2.161159 -6.125465 1.10328E-05
v -2.15788 -6.434186 1.137681E-05
v -2.164437 -6.434186 1.137409E-05
v -1.72819 -6.725801 1.187848E-05
v -1.724911 -7.034523 1.22225E-05
v -1.731468 -7.034523 1.221978E-05
v -1.41196 -5.837699 1.102376E-05
v -1.408682 -6.14642 1.136778E-05
v -1.41524 -6.14642 1.136506E-05
v -2.845177 -5.430532 9.978111E-06
v -2.841898 -5.739253 1.032213E-05
v -2.848456 -5.739253 1.031941E-05
v -2.203328 -4.486622 9.196337E-06
v -2.200049 -4.68839 9.421642E-06
v -2.206606 -4.68839 9.418925E-06
v -1.41875 -3.698639 8.646756E-06
v -1.415471 -4.00736 8.990772E-06
v -1.422028 -4.00736 8.988055E-06
v -2.40797 -2.409045 6.805609E-06
v -2.404691 -2.717767 7.149625E-06
v -2.411249 -2.717767 7.146909E-06
v -1.821356 -2.226544 6.846059E-06
v -1.818078 -2.535265 7.190074E-06
v -1.824636 -2.535265 7.187357E-06
v -2.877259 -1.943763 6.094773E-06
v -2.873982 -2.324686 6.518927E-06
v -2.880539 -2.324686 6.51621E-06
v -1.325994 -2.1744 6.993393E-06
v -1.322716 -2.483122 7.337409E-06
v -1.329273 -2.483122 7.334692E-06
v -2.18636 -0.8186724 5.132222E-06
v -2.183081 -1.127393 5.476237E-06
v -2.189638 -1.127393 5.473521E-06
vt 0 0
vt 0 0
vt 0 0
vt 0 0
vt 0 0
vt 0 0
vt 0 0
vt 0 0
vt 0 0
vt 0 0
vt 0 0
vt 0 0
vt 0 0
vt 0 0
vt 0 0
vt 0 0
vt 0 0
vt 0 0
vt 0 0
vt 0 0
vt 0 0
vt 0 0
vt 0 0
vt 0 0
vt 0 0
vt 0 0
vt 0 0
vt 0 0
vt 0 0
vt 0 0
vt 0 0
vt 0 0
vt 0 0
vt 0 0
vt 0 0
vt 0 0
vt 0 0
vt 0 0
vt 0 0
vt 0 0
vt 0 0
vt 0 0
vt 0 0
vt 0 0
vt 0 0
vt 0 0
vt 0 0
vt 0 0
vt 0 0
vt 0 0
vt 0 0
vt 0 0
vt 0 0
vt 0 0
vt 0 0
vt 0 0
vt 0 0
vt 0 0
vt 0 0
vt 0 0
vt 0 0
vt 0 0
vt 0 0
vt 0 0
vt 0 0
vt 0 0
vt 0 0
vt 0 0
vt 0 0
vt 0 0
vt 0 0
vt 0 0
vt 0 0
vt 0 0
vt 0 0
vt 0 0
vt 0 0
vt 0 0
vt 0 0
vt 0 0
vt 0 0
vt 0 0
vt 0 0
vt 0 0
vt 0 0
vt 0 0
vt 0 0
vt 0 0
vt 0 0
vt 0 0
vt 0 0
vt 0 0
vt 0 0
vt 0 0
vt 0 0
vt 0 0
vt 0 0
vt 0 0
vt 0 0
vt 0 0
vt 0 0
vt 0 0
vt 0 0
vt 0 0
vt 0 0
vt 0 0
vt 0 0
vt 0 0
vt 0 0
vt 0 0
vt 0 0
vt 0 0
vt 0 0
vt 0 0
vt 0 0
vt 0 0
vt 0 0
vt 0 0
vt 0 0
vt 0 0
vt 0 0
vt 0 0
vt 0 0
vt 0 0
vt 0 0
vt 0 0
vt 0 0
vt 0 0
vt 0 0
vt 0 0
vt 0 0
vt 0 0
vt 0 0
vt 0 0
vt 0 0
vt 0 0
vt 0 0
vt 0 0
vt 0 0
vt 0 0
vt 0 0
vt 0 0
vt 0 0
vt 0 0
vt 0 0
vt 0 0
vt 0 0
vt 0 0
vt 0 0
vt 0 0
vt 0 0
vt 0 0
vt 0 0
vt 0 0
vt 0 0
vt 0 0
vt 0 0
vt 0 0
vt 0 0
vt 0 0
vt 0 0
vt 0 0
vt 0 0
vt 0 0
vt 0 0
vt 0 0
vt 0 0
vt 0 0
vt 0 0
vt 0 0
vt 0 0
vt 0 0
vt 0 0
vt 0 0
vt 0 0
vt 0 0
vt 0 0
vt 0 0
vt 0 0
vt 0 0
vt 0 0
vt 0 0
vt 0 0
vt 0 0
vt 0 0
vt 0 0
vt 0 0
vt 0 0
vt 0 0
vt 0 0
vt 0 0
vt 0 0
vt 0 0
vt 0 0
vt 0 0
vt 0 0
vt 0 0
vt 0 0
vn -4.891296E-07 1.022527E-06 1
vn -4.891296E-07 1.022527E-06 1
vn -4.891296E-07 1.022527E-06 1
vn -4.891296E-07 1.022527E-06 1
vn -4.891296E-07 1.022527E-06 1
vn -4.891296E-07 1.022527E-06 1
vn -4.891296E-07 1.022527E-06 1
vn -4.891296E-07 1.022527E-06 1
vn -4.891296E-07 1.022527E-06 1
vn -4.891296E-07 1.022527E-06 1
vn -4.891296E-07 1.022527E-06 1
vn -4.891296E-07 1.022527E-06 1
vn -4.891296E-07 1.022527E-06 1
vn -4.891296E-07 1.022527E-06 1
vn -4.891296E-07 1.022527E-06 1
vn -4.891296E-07 1.022527E-06 1
vn -4.891296E-07 1.022527E-06 1
vn -4.891296E-07 1.022527E-06 1
vn -4.891296E-07 1.022527E-06 1
vn -4.891296E-07 1.022527E-06 1
vn -4.891296E-07 1.022527E-06 1
vn -4.891296E-07 1.022527E-06 1
vn -4.891296E-07 1.022527E-06 1
vn -4.891296E-07 1.022527E-06 1
vn -4.891296E-07 1.022527E-06 1
vn -4.891296E-07 1.022527E-06 1
vn -4.891296E-07 1.022527E-06 1
vn -4.891296E-07 1.022527E-06 1
vn -4.891296E-07 1.022527E-06 1
vn -4.891296E-07 1.022527E-06 1
vn -4.891296E-07 1.022527E-06 1
vn -4.891296E-07 1.022527E-06 1
vn -4.891296E-07 1.022527E-06 1
vn -4.891296E-07 1.022527E-06 1
vn -4.891296E-07 1.022527E-06 1
vn -4.891296E-07 1.022527E-06 1
vn -4.891296E-07 1.022527E-06 1
vn -4.891296E-07 1.022527E-06 1
vn -4.891296E-07 1.022527E-06 1
vn -4.891296E-07 1.022527E-06 1
vn -4.891296E-07 1.022527E-06 1
vn -4.891296E-07 1.022527E-06 1
vn -4.891296E-07 1.022527E-06 1
vn -4.891296E-07 1.022527E-06 1
vn -4.891296E-07 1.022527E-06 1
vn -4.891296E-07 1.022527E-06 1
vn -4.891296E-07 1.022527E-06 1
vn -4.891296E-07 1.022527E-06 1
vn -4.891296E-07 1.022527E-06 1
vn -4.891296E-07 1.022527E-06 1
vn -4.891296E-07 1.022527E-06 1
vn -4.891296E-07 1.022527E-06 1
vn -4.891296E-07 1.022527E-06 1
vn -4.891296E-07 1.022527E-06 1
vn -4.891296E-07 1.022527E-06 1
vn -4.891296E-07 1.022527E-06 1
vn -4.891296E-07 1.022527E-06 1
vn -4.891296E-07 1.022527E-06 1
vn -4.891296E-07 1.022527E-06 1
vn -4.891296E-07 1.022527E-06 1
vn -4.891296E-07 1.022527E-06 1
vn -4.891296E-07 1.022527E-06 1
vn -4.891296E-07 1.022527E-06 1
vn -4.891296E-07 1.022527E-06 1
vn -4.891296E-07 1.022527E-06 1
vn -4.891296E-07 1.022527E-06 1
vn -4.891296E-07 1.022527E-06 1
vn -4.891296E-07 1.022527E-06 1
vn -4.891296E-07 1.022527E-06 1
vn -4.891296E-07 1.022527E-06 1
vn -4.891296E-07 1.022527E-06 1
vn -4.891296E-07 1.022527E-06 1
vn -4.891296E-07 1.022527E-06 1
vn -4.891296E-07 1.022527E-06 1
vn -4.891296E-07 1.022527E-06 1
vn -4.891296E-07 1.022527E-06 1
vn -4.891296E-07 1.022527E-06 1
vn -4.891296E-07 1.022527E-06 1
vn -4.891296E-07 1.022527E-06 1
vn -4.891296E-07 1.022527E-06 1
vn -4.891296E-07 1.022527E-06 1
vn -4.891296E-07 1.022527E-06 1
vn -4.891296E-07 1.022527E-06 1
vn -4.891296E-07 1.022527E-06 1
vn -4.891296E-07 1.022527E-06 1
vn -4.891296E-07 1.022527E-06 1
vn -4.891296E-07 1.022527E-06 1
vn -4.891296E-07 1.022527E-06 1
vn -4.891296E-07 1.022527E-06 1
vn -4.891296E-07 1.022527E-06 1
vn -4.891296E-07 1.022527E-06 1
vn -4.891296E-07 1.022527E-06 1
vn -4.891296E-07 1.022527E-06 1
vn -4.891296E-07 1.022527E-06 1
vn -4.891296E-07 1.022527E-06 1
vn -4.891296E-07 1.022527E-06 1
vn -4.891296E-07 1.022527E-06 1
vn -4.891296E-07 1.022527E-06 1
vn -4.891296E-07 1.022527E-06 1
vn -4.770355E-07 4.792269E-07 1
vn -4.770355E-07 4.792269E-07 1
vn -4.770355E-07 4.792269E-07 1
vn -4.770355E-07 4.792269E-07 1
vn -4.770355E-07 4.792269E-07 1
vn -4.770355E-07 4.792269E-07 1
vn -4.770355E-07 4.792269E-07 1
vn -4.770355E-07 4.792269E-07 1
vn -4.770355E-07 4.792269E-07 1
vn -4.770355E-07 4.792269E-07 1
vn -4.770355E-07 4.792269E-07 1
vn -4.770355E-07 4.792269E-07 1
vn -4.770355E-07 4.792269E-07 1
vn -4.770355E-07 4.792269E-07 1
vn -4.770355E-07 4.792269E-07 1
vn -4.770355E-07 4.792269E-07 1
vn -4.770355E-07 4.792269E-07 1
vn -4.770355E-07 4.792269E-07 1
vn -4.770355E-07 4.792269E-07 1
vn -4.770355E-07 4.792269E-07 1
vn -4.770355E-07 4.792269E-07 1
vn -4.770355E-07 4.792269E-07 1
vn -4.770355E-07 4.792269E-07 1
vn -4.770355E-07 4.792269E-07 1
vn -4.770355E-07 4.792269E-07 1
vn -4.770355E-07 4.792269E-07 1
vn -4.770355E-07 4.792269E-07 1
vn -4.770355E-07 4.792269E-07 1
vn -4.770355E-07 4.792269E-07 1
vn -4.770355E-07 4.792269E-07 1
vn -4.770355E-07 4.792269E-07 1
vn -4.770355E-07 4.792269E-07 1
vn -4.770355E-07 4.792269E-07 1
vn -4.891296E-07 1.022527E-06 1
vn -4.891296E-07 1.022527E-06 1
vn -4.891296E-07 1.022527E-06 1
vn -4.891296E-07 1.022527E-06 1
vn -4.891296E-07 1.022527E-06 1
vn -4.891296E-07 1.022527E-06 1
vn -4.891296E-07 1.022527E-06 1
vn -4.891296E-07 1.022527E-06 1
vn -4.891296E-07 1.022527E-06 1
vn -4.891296E-07 1.022527E-06 1
vn -4.891296E-07 1.022527E-06 1
vn -4.891296E-07 1.022527E-06 1
vn -4.891296E-07 1.022527E-06 1
vn -4.891296E-07 1.022527E-06 1
vn -4.891296E-07 1.022527E-06 1
vn -4.891296E-07 1.022527E-06 1
vn -4.891296E-07 1.022527E-06 1
vn -4.891296E-07 1.022527E-06 1
vn -4.891296E-07 1.022527E-06 1
vn -4.891296E-07 1.022527E-06 1
vn -4.891296E-07 1.022527E-06 1
vn -4.891296E-07 1.022527E-06 1
vn -4.891296E-07 1.022527E-06 1
vn -4.891296E-07 1.022527E-06 1
vn -4.891296E-07 1.022527E-06 1
vn -4.891296E-07 1.022527E-06 1
vn -4.891296E-07 1.022527E-06 1
vn -4.891296E-07 1.022527E-06 1
vn -4.891296E-07 1.022527E-06 1
vn -4.891296E-07 1.022527E-06 1
vn -4.891296E-07 1.022527E-06 1
vn -4.891296E-07 1.022527E-06 1
vn -4.891296E-07 1.022527E-06 1
vn -4.891296E-07 1.022527E-06 1
vn -4.891296E-07 1.022527E-06 1
vn -4.891296E-07 1.022527E-06 1
vn -4.891296E-07 1.022527E-06 1
vn -4.891296E-07 1.022527E-06 1
vn -4.891296E-07 1.022527E-06 1
vn -4.891296E-07 1.022527E-06 1
vn -4.891296E-07 1.022527E-06 1
vn -4.891296E-07 1.022527E-06 1
vn -4.891296E-07 1.022527E-06 1
vn -4.891296E-07 1.022527E-06 1
vn -4.891296E-07 1.022527E-06 1
vn -4.891296E-07 1.022527E-06 1
vn -4.891296E-07 1.022527E-06 1
vn -4.891296E-07 1.022527E-06 1
vn -4.891296E-07 1.022527E-06 1
vn -4.891296E-07 1.022527E-06 1
vn -4.891296E-07 1.022527E-06 1
vn -4.891296E-07 1.022527E-06 1
vn -4.891296E-07 1.022527E-06 1
vn -4.891296E-07 1.022527E-06 1
vn -4.891296E-07 1.022527E-06 1
vn -4.891296E-07 1.022527E-06 1
vn -4.891296E-07 1.022527E-06 1
vn -4.891296E-07 1.022527E-06 1
vn -4.891296E-07 1.022527E-06 1
vn -4.891296E-07 1.022527E-06 1
vn -4.891296E-07 1.022527E-06 1
vn -4.891296E-07 1.022527E-06 1
vn -4.891296E-07 1.022527E-06 1
vn -4.891296E-07 1.022527E-06 1
vn -4.891296E-07 1.022527E-06 1
vn -4.891296E-07 1.022527E-06 1
g _CombinedLessRain63_0_0
f 3/3/3 2/2/2 1/1/1
f 6/6/6 5/5/5 4/4/4
f 9/9/9 8/8/8 7/7/7
f 12/12/12 11/11/11 10/10/10
f 15/15/15 14/14/14 13/13/13
f 18/18/18 17/17/17 16/16/16
f 21/21/21 20/20/20 19/19/19
f 24/24/24 23/23/23 22/22/22
f 27/27/27 26/26/26 25/25/25
f 30/30/30 29/29/29 28/28/28
f 33/33/33 32/32/32 31/31/31
f 36/36/36 35/35/35 34/34/34
f 39/39/39 38/38/38 37/37/37
f 42/42/42 41/41/41 40/40/40
f 45/45/45 44/44/44 43/43/43
f 48/48/48 47/47/47 46/46/46
f 51/51/51 50/50/50 49/49/49
f 54/54/54 53/53/53 52/52/52
f 57/57/57 56/56/56 55/55/55
f 60/60/60 59/59/59 58/58/58
f 63/63/63 62/62/62 61/61/61
f 66/66/66 65/65/65 64/64/64
f 69/69/69 68/68/68 67/67/67
f 72/72/72 71/71/71 70/70/70
f 75/75/75 74/74/74 73/73/73
f 78/78/78 77/77/77 76/76/76
f 81/81/81 80/80/80 79/79/79
f 84/84/84 83/83/83 82/82/82
f 87/87/87 86/86/86 85/85/85
f 90/90/90 89/89/89 88/88/88
f 93/93/93 92/92/92 91/91/91
f 96/96/96 95/95/95 94/94/94
f 99/99/99 98/98/98 97/97/97
f 102/102/102 101/101/101 100/100/100
f 105/105/105 104/104/104 103/103/103
f 108/108/108 107/107/107 106/106/106
f 111/111/111 110/110/110 109/109/109
f 114/114/114 113/113/113 112/112/112
f 117/117/117 116/116/116 115/115/115
f 120/120/120 119/119/119 118/118/118
f 123/123/123 122/122/122 121/121/121
f 126/126/126 125/125/125 124/124/124
f 129/129/129 128/128/128 127/127/127
f 132/132/132 131/131/131 130/130/130
f 135/135/135 134/134/134 133/133/133
f 138/138/138 137/137/137 136/136/136
f 141/141/141 140/140/140 139/139/139
f 144/144/144 143/143/143 142/142/142
f 147/147/147 146/146/146 145/145/145
f 150/150/150 149/149/149 148/148/148
f 153/153/153 152/152/152 151/151/151
f 156/156/156 155/155/155 154/154/154
f 159/159/159 158/158/158 157/157/157
f 162/162/162 161/161/161 160/160/160
f 165/165/165 164/164/164 163/163/163
f 168/168/168 167/167/167 166/166/166
f 171/171/171 170/170/170 169/169/169
f 174/174/174 173/173/173 172/172/172
f 177/177/177 176/176/176 175/175/175
f 180/180/180 179/179/179 178/178/178
f 183/183/183 182/182/182 181/181/181
f 186/186/186 185/185/185 184/184/184
f 189/189/189 188/188/188 187/187/187
f 192/192/192 191/191/191 190/190/190
f 195/195/195 194/194/194 193/193/193
f 198/198/198 197/197/197 196/196/196
