g _CombinedLessRain12_0
v 1.636046 -1.285416 1.992326E-06
v 1.612927 -1.593288 2.27347E-06
v 1.606394 -1.592728 2.270028E-06
v 2.016121 -1.92056 2.762963E-06
v 1.993002 -2.228433 3.044108E-06
v 1.986469 -2.227872 3.040666E-06
v 2.407098 -1.062736 2.125142E-06
v 2.383979 -1.370608 2.406286E-06
v 2.377445 -1.370047 2.402843E-06
v 1.013926 -0.5345643 1.004288E-06
v 0.9908071 -0.8424359 1.285431E-06
v 0.984273 -0.8418754 1.281989E-06
v 1.7341 0.351034 4.868789E-07
v 1.720122 0.149724 6.712197E-07
v 1.713589 0.1502844 6.677778E-07
v 2.583154 1.069077 1.855209E-07
v 2.560035 0.7612053 4.666646E-07
v 2.553502 0.7617658 4.632227E-07
v 1.707774 2.438499 -1.500951E-06
v 1.684654 2.130627 -1.219807E-06
v 1.67812 2.131187 -1.223249E-06
v 2.307838 2.570196 -1.358205E-06
v 2.284719 2.262324 -1.077062E-06
v 2.278185 2.262885 -1.080504E-06
v 1.279968 2.942188 -2.168417E-06
v 1.250677 2.562378 -1.821924E-06
v 1.244144 2.562938 -1.825366E-06
v 2.805844 2.579811 -1.145373E-06
v 2.782725 2.271938 -8.64229E-07
v 2.776191 2.272499 -8.676715E-07
v 2.064499 4.004111 -2.824064E-06
v 2.04138 3.69624 -2.54292E-06
v 2.034847 3.6968 -2.546362E-06
v 2.796473 -7.366094 1.040064E-05
v 2.773354 -7.673965 1.068179E-05
v 2.766821 -7.673405 1.067835E-05
v 3.176548 -8.001237 1.117128E-05
v 3.153429 -8.30911 1.145243E-05
v 3.146896 -8.308549 1.144898E-05
v 3.567525 -7.143413 1.053346E-05
v 3.544406 -7.451285 1.08146E-05
v 3.537872 -7.450725 1.081116E-05
v 2.174353 -6.615241 9.412606E-06
v 2.151234 -6.923113 9.69375E-06
v 2.1447 -6.922552 9.690308E-06
v 2.894527 -5.729643 8.895197E-06
v 2.880549 -5.930953 9.079538E-06
v 2.874016 -5.930393 9.076096E-06
v 3.743581 -5.0116 8.593839E-06
v 3.720462 -5.319471 8.874983E-06
v 3.713929 -5.318911 8.871541E-06
v 2.868201 -3.642178 6.907367E-06
v 2.845082 -3.95005 7.188512E-06
v 2.838547 -3.94949 7.18507E-06
v 3.468265 -3.510481 7.050113E-06
v 3.445146 -3.818353 7.331257E-06
v 3.438612 -3.817792 7.327814E-06
v 2.440395 -3.138489 6.239902E-06
v 2.411104 -3.518299 6.586395E-06
v 2.404571 -3.517738 6.582953E-06
v 3.966271 -3.500866 7.262945E-06
v 3.943152 -3.808738 7.544089E-06
v 3.936618 -3.808178 7.540647E-06
v 3.224926 -2.076566 5.584255E-06
v 3.201807 -2.384437 5.865398E-06
v 3.195274 -2.383877 5.861956E-06
v 0.8150238 -7.260008 1.557442E-05
v 0.7919049 -7.56788 1.585556E-05
v 0.7853719 -7.567319 1.585212E-05
v 1.195099 -7.895152 1.634506E-05
v 1.17198 -8.203024 1.66262E-05
v 1.165447 -8.202464 1.662276E-05
v 1.586075 -7.037328 1.570724E-05
v 1.562956 -7.3452 1.598838E-05
v 1.556422 -7.344639 1.598494E-05
v 0.1929038 -6.509156 1.458638E-05
v 0.1697848 -6.817028 1.486753E-05
v 0.1632508 -6.816467 1.486408E-05
v 0.9130778 -5.623558 1.406897E-05
v 0.8991 -5.824868 1.425332E-05
v 0.892567 -5.824307 1.424987E-05
v 1.762132 -4.905515 1.376762E-05
v 1.739013 -5.213386 1.404876E-05
v 1.73248 -5.212826 1.404532E-05
v 0.8867514 -3.536092 1.208114E-05
v 0.8636323 -3.843965 1.236229E-05
v 0.8570983 -3.843404 1.235885E-05
v 1.486816 -3.404396 1.222389E-05
v 1.463697 -3.712268 1.250503E-05
v 1.457163 -3.711707 1.250159E-05
v 0.4589455 -3.032404 1.141368E-05
v 0.4296545 -3.412214 1.176017E-05
v 0.4231215 -3.411653 1.175673E-05
v 1.984822 -3.394781 1.243672E-05
v 1.961703 -3.702653 1.271787E-05
v 1.955169 -3.702093 1.271442E-05
v 1.243476 -1.97048 1.075803E-05
v 1.220357 -2.278352 1.103918E-05
v 1.213824 -2.277791 1.103573E-05
v 3.617495 -1.391512 -1.469808E-05
v 3.594377 -1.699384 -1.454993E-05
v 3.587844 -1.698824 -1.455317E-05
v 3.997571 -2.026655 -1.419923E-05
v 3.974453 -2.334528 -1.405107E-05
v 3.96792 -2.333967 -1.405431E-05
v 4.388546 -1.168831 -1.446452E-05
v 4.365428 -1.476703 -1.431637E-05
v 4.358894 -1.476142 -1.431961E-05
v 2.995374 -0.6406613 -1.536587E-05
v 2.972256 -0.9485329 -1.521772E-05
v 2.965722 -0.9479724 -1.522096E-05
v 3.715547 0.2449382 -1.549678E-05
v 3.701569 0.0436282 -1.539939E-05
v 3.695036 0.04418861 -1.540263E-05
v 4.564599 0.9629827 -1.548316E-05
v 4.541481 0.655111 -1.533501E-05
v 4.534948 0.6556714 -1.533825E-05
v 3.689217 2.332403 -1.658399E-05
v 3.666098 2.024531 -1.643584E-05
v 3.659564 2.025091 -1.643907E-05
v 4.289281 2.464101 -1.638079E-05
v 4.266162 2.156229 -1.623264E-05
v 4.259628 2.15679 -1.623588E-05
v 3.26141 2.836091 -1.703668E-05
v 3.23212 2.456281 -1.685426E-05
v 3.225586 2.456842 -1.68575E-05
v 4.787287 2.473717 -1.61608E-05
v 4.764168 2.165844 -1.601265E-05
v 4.757634 2.166405 -1.601589E-05
v 4.045939 3.898016 -1.722936E-05
v 4.02282 3.590144 -1.708121E-05
v 4.016287 3.590705 -1.708445E-05
v -0.3453821 -1.179312 4.995304E-06
v -0.368501 -1.487184 5.276448E-06
v -0.375034 -1.486624 5.273006E-06
v 0.03469281 -1.814456 5.765941E-06
v 0.01157377 -2.122329 6.047086E-06
v 0.005040743 -2.121768 6.043644E-06
v 0.4256695 -0.9566324 5.12812E-06
v 0.4025505 -1.264504 5.409263E-06
v 0.3960165 -1.263943 5.405821E-06
v -0.9675022 -0.4284603 4.007265E-06
v -0.9906211 -0.7363319 4.288409E-06
v -0.9971551 -0.7357714 4.284967E-06
v -0.2473281 0.457138 3.489857E-06
v -0.2613059 0.255828 3.674197E-06
v -0.2678389 0.2563884 3.670756E-06
v 0.6017258 1.175181 3.188499E-06
v 0.5786068 0.8673093 3.469642E-06
v 0.5720739 0.8678698 3.4662E-06
v -0.2736546 2.544603 1.502027E-06
v -0.2967736 2.236731 1.783171E-06
v -0.3033077 2.237291 1.779729E-06
v 0.32641 2.6763 1.644773E-06
v 0.303291 2.368428 1.925916E-06
v 0.296757 2.368989 1.922474E-06
v -0.7014604 3.048291 8.345609E-07
v -0.7307514 2.668482 1.181054E-06
v -0.7372844 2.669043 1.177612E-06
v 0.824416 2.685915 1.857605E-06
v 0.801297 2.378042 2.138749E-06
v 0.794763 2.378603 2.135306E-06
v 0.08307043 4.110216 1.789138E-07
v 0.05995147 3.802344 4.600575E-07
v 0.05341846 3.802904 4.566155E-07
v -1.166428 -7.153892 9.795309E-06
v -1.189547 -7.461763 1.007645E-05
v -1.19608 -7.461203 1.007301E-05
v -0.7863528 -7.789035 1.056595E-05
v -0.8094718 -8.096908 1.084709E-05
v -0.8160049 -8.096347 1.084365E-05
v -0.3953761 -6.931211 9.928124E-06
v -0.4184951 -7.239083 1.020927E-05
v -0.4250291 -7.238523 1.020583E-05
v -1.788548 -6.403039 8.80727E-06
v -1.811667 -6.710911 9.088414E-06
v -1.818201 -6.71035 9.084972E-06
v -1.068374 -5.517441 8.289861E-06
v -1.082352 -5.718751 8.474202E-06
v -1.088884 -5.718191 8.47076E-06
v -0.2193198 -4.799398 7.988503E-06
v -0.2424387 -5.107269 8.269647E-06
v -0.2489717 -5.106709 8.266205E-06
v -1.0947 -3.429976 6.302031E-06
v -1.117819 -3.737848 6.583176E-06
v -1.124353 -3.737288 6.579734E-06
v -0.4946356 -3.298279 6.444777E-06
v -0.5177546 -3.606151 6.725921E-06
v -0.5242886 -3.60559 6.722478E-06
v -1.522506 -2.926287 5.634566E-06
v -1.551797 -3.306097 5.981059E-06
v -1.55833 -3.305536 5.977617E-06
v 0.003370432 -3.288664 6.657609E-06
v -0.01974856 -3.596536 6.938753E-06
v -0.02628257 -3.595976 6.935311E-06
v -0.7379752 -1.864363 4.978919E-06
v -0.7610942 -2.172235 5.260062E-06
v -0.7676271 -2.171674 5.25662E-06
vt 0 0
vt 0 0
vt 0 0
vt 0 0
vt 0 0
vt 0 0
vt 0 0
vt 0 0
vt 0 0
vt 0 0
vt 0 0
vt 0 0
vt 0 0
vt 0 0
vt 0 0
vt 0 0
vt 0 0
vt 0 0
vt 0 0
vt 0 0
vt 0 0
vt 0 0
vt 0 0
vt 0 0
vt 0 0
vt 0 0
vt 0 0
vt 0 0
vt 0 0
vt 0 0
vt 0 0
vt 0 0
vt 0 0
vt 0 0
vt 0 0
vt 0 0
vt 0 0
vt 0 0
vt 0 0
vt 0 0
vt 0 0
vt 0 0
vt 0 0
vt 0 0
vt 0 0
vt 0 0
vt 0 0
vt 0 0
vt 0 0
vt 0 0
vt 0 0
vt 0 0
vt 0 0
vt 0 0
vt 0 0
vt 0 0
vt 0 0
vt 0 0
vt 0 0
vt 0 0
vt 0 0
vt 0 0
vt 0 0
vt 0 0
vt 0 0
vt 0 0
vt 0 0
vt 0 0
vt 0 0
vt 0 0
vt 0 0
vt 0 0
vt 0 0
vt 0 0
vt 0 0
vt 0 0
vt 0 0
vt 0 0
vt 0 0
vt 0 0
vt 0 0
vt 0 0
vt 0 0
vt 0 0
vt 0 0
vt 0 0
vt 0 0
vt 0 0
vt 0 0
vt 0 0
vt 0 0
vt 0 0
vt 0 0
vt 0 0
vt 0 0
vt 0 0
vt 0 0
vt 0 0
vt 0 0
vt 0 0
vt 0 0
vt 0 0
vt 0 0
vt 0 0
vt 0 0
vt 0 0
vt 0 0
vt 0 0
vt 0 0
vt 0 0
vt 0 0
vt 0 0
vt 0 0
vt 0 0
vt 0 0
vt 0 0
vt 0 0
vt 0 0
vt 0 0
vt 0 0
vt 0 0
vt 0 0
vt 0 0
vt 0 0
vt 0 0
vt 0 0
vt 0 0
vt 0 0
vt 0 0
vt 0 0
vt 0 0
vt 0 0
vt 0 0
vt 0 0
vt 0 0
vt 0 0
vt 0 0
vt 0 0
vt 0 0
vt 0 0
vt 0 0
vt 0 0
vt 0 0
vt 0 0
vt 0 0
vt 0 0
vt 0 0
vt 0 0
vt 0 0
vt 0 0
vt 0 0
vt 0 0
vt 0 0
vt 0 0
vt 0 0
vt 0 0
vt 0 0
vt 0 0
vt 0 0
vt 0 0
vt 0 0
vt 0 0
vt 0 0
vt 0 0
vt 0 0
vt 0 0
vt 0 0
vt 0 0
vt 0 0
vt 0 0
vt 0 0
vt 0 0
vt 0 0
vt 0 0
vt 0 0
vt 0 0
vt 0 0
vt 0 0
vt 0 0
vt 0 0
vt 0 0
vt 0 0
vt 0 0
vt 0 0
vt 0 0
vt 0 0
vt 0 0
vt 0 0
vt 0 0
vt 0 0
vt 0 0
vt 0 0
vt 0 0
vt 0 0
vt 0 0
vt 0 0
vt 0 0
vt 0 0
vn -5.13292E-07 1.009194E-06 1
vn -5.13292E-07 1.009194E-06 1
vn -5.13292E-07 1.009194E-06 1
vn -5.13292E-07 1.009194E-06 1
vn -5.13292E-07 1.009194E-06 1
vn -5.13292E-07 1.009194E-06 1
vn -5.13292E-07 1.009194E-06 1
vn -5.13292E-07 1.009194E-06 1
vn -5.13292E-07 1.009194E-06 1
vn -5.13292E-07 1.009194E-06 1
vn -5.13292E-07 1.009194E-06 1
vn -5.13292E-07 1.009194E-06 1
vn -5.13292E-07 1.009194E-06 1
vn -5.13292E-07 1.009194E-06 1
vn -5.13292E-07 1.009194E-06 1
vn -5.13292E-07 1.009194E-06 1
vn -5.13292E-07 1.009194E-06 1
vn -5.13292E-07 1.009194E-06 1
vn -5.13292E-07 1.009194E-06 1
vn -5.13292E-07 1.009194E-06 1
vn -5.13292E-07 1.009194E-06 1
vn -5.13292E-07 1.009194E-06 1
vn -5.13292E-07 1.009194E-06 1
vn -5.13292E-07 1.009194E-06 1
vn -5.13292E-07 1.009194E-06 1
vn -5.13292E-07 1.009194E-06 1
vn -5.13292E-07 1.009194E-06 1
vn -5.13292E-07 1.009194E-06 1
vn -5.13292E-07 1.009194E-06 1
vn -5.13292E-07 1.009194E-06 1
vn -5.13292E-07 1.009194E-06 1
vn -5.13292E-07 1.009194E-06 1
vn -5.13292E-07 1.009194E-06 1
vn -5.13292E-07 1.009194E-06 1
vn -5.13292E-07 1.009194E-06 1
vn -5.13292E-07 1.009194E-06 1
vn -5.13292E-07 1.009194E-06 1
vn -5.13292E-07 1.009194E-06 1
vn -5.13292E-07 1.009194E-06 1
vn -5.13292E-07 1.009194E-06 1
vn -5.13292E-07 1.009194E-06 1
vn -5.13292E-07 1.009194E-06 1
vn -5.13292E-07 1.009194E-06 1
vn -5.13292E-07 1.009194E-06 1
vn -5.13292E-07 1.009194E-06 1
vn -5.13292E-07 1.009194E-06 1
vn -5.13292E-07 1.009194E-06 1
vn -5.13292E-07 1.009194E-06 1
vn -5.13292E-07 1.009194E-06 1
vn -5.13292E-07 1.009194E-06 1
vn -5.13292E-07 1.009194E-06 1
vn -5.13292E-07 1.009194E-06 1
vn -5.13292E-07 1.009194E-06 1
vn -5.13292E-07 1.009194E-06 1
vn -5.13292E-07 1.009194E-06 1
vn -5.13292E-07 1.009194E-06 1
vn -5.13292E-07 1.009194E-06 1
vn -5.13292E-07 1.009194E-06 1
vn -5.13292E-07 1.009194E-06 1
vn -5.13292E-07 1.009194E-06 1
vn -5.13292E-07 1.009194E-06 1
vn -5.13292E-07 1.009194E-06 1
vn -5.13292E-07 1.009194E-06 1
vn -5.13292E-07 1.009194E-06 1
vn -5.13292E-07 1.009194E-06 1
vn -5.13292E-07 1.009194E-06 1
vn -5.13292E-07 1.009194E-06 1
vn -5.13292E-07 1.009194E-06 1
vn -5.13292E-07 1.009194E-06 1
vn -5.13292E-07 1.009194E-06 1
vn -5.13292E-07 1.009194E-06 1
vn -5.13292E-07 1.009194E-06 1
vn -5.13292E-07 1.009194E-06 1
vn -5.13292E-07 1.009194E-06 1
vn -5.13292E-07 1.009194E-06 1
vn -5.13292E-07 1.009194E-06 1
vn -5.13292E-07 1.009194E-06 1
vn -5.13292E-07 1.009194E-06 1
vn -5.13292E-07 1.009194E-06 1
vn -5.13292E-07 1.009194E-06 1
vn -5.13292E-07 1.009194E-06 1
vn -5.13292E-07 1.009194E-06 1
vn -5.13292E-07 1.009194E-06 1
vn -5.13292E-07 1.009194E-06 1
vn -5.13292E-07 1.009194E-06 1
vn -5.13292E-07 1.009194E-06 1
vn -5.13292E-07 1.009194E-06 1
vn -5.13292E-07 1.009194E-06 1
vn -5.13292E-07 1.009194E-06 1
vn -5.13292E-07 1.009194E-06 1
vn -5.13292E-07 1.009194E-06 1
vn -5.13292E-07 1.009194E-06 1
vn -5.13292E-07 1.009194E-06 1
vn -5.13292E-07 1.009194E-06 1
vn -5.13292E-07 1.009194E-06 1
vn -5.13292E-07 1.009194E-06 1
vn -5.13292E-07 1.009194E-06 1
vn -5.13292E-07 1.009194E-06 1
vn -5.13292E-07 1.009194E-06 1
vn -5.266223E-07 4.600423E-07 1
vn -5.266223E-07 4.600423E-07 1
vn -5.266223E-07 4.600423E-07 1
vn -5.266223E-07 4.600423E-07 1
vn -5.266223E-07 4.600423E-07 1
vn -5.266223E-07 4.600423E-07 1
vn -5.266223E-07 4.600423E-07 1
vn -5.266223E-07 4.600423E-07 1
vn -5.266223E-07 4.600423E-07 1
vn -5.266223E-07 4.600423E-07 1
vn -5.266223E-07 4.600423E-07 1
vn -5.266223E-07 4.600423E-07 1
vn -5.266223E-07 4.600423E-07 1
vn -5.266223E-07 4.600423E-07 1
vn -5.266223E-07 4.600423E-07 1
vn -5.266223E-07 4.600423E-07 1
vn -5.266223E-07 4.600423E-07 1
vn -5.266223E-07 4.600423E-07 1
vn -5.266223E-07 4.600423E-07 1
vn -5.266223E-07 4.600423E-07 1
vn -5.266223E-07 4.600423E-07 1
vn -5.266223E-07 4.600423E-07 1
vn -5.266223E-07 4.600423E-07 1
vn -5.266223E-07 4.600423E-07 1
vn -5.266223E-07 4.600423E-07 1
vn -5.266223E-07 4.600423E-07 1
vn -5.266223E-07 4.600423E-07 1
vn -5.266223E-07 4.600423E-07 1
vn -5.266223E-07 4.600423E-07 1
vn -5.266223E-07 4.600423E-07 1
vn -5.266223E-07 4.600423E-07 1
vn -5.266223E-07 4.600423E-07 1
vn -5.266223E-07 4.600423E-07 1
vn -5.13292E-07 1.009194E-06 1
vn -5.13292E-07 1.009194E-06 1
vn -5.13292E-07 1.009194E-06 1
vn -5.13292E-07 1.009194E-06 1
vn -5.13292E-07 1.009194E-06 1
vn -5.13292E-07 1.009194E-06 1
vn -5.13292E-07 1.009194E-06 1
vn -5.13292E-07 1.009194E-06 1
vn -5.13292E-07 1.009194E-06 1
vn -5.13292E-07 1.009194E-06 1
vn -5.13292E-07 1.009194E-06 1
vn -5.13292E-07 1.009194E-06 1
vn -5.13292E-07 1.009194E-06 1
vn -5.13292E-07 1.009194E-06 1
vn -5.13292E-07 1.009194E-06 1
vn -5.13292E-07 1.009194E-06 1
vn -5.13292E-07 1.009194E-06 1
vn -5.13292E-07 1.009194E-06 1
vn -5.13292E-07 1.009194E-06 1
vn -5.13292E-07 1.009194E-06 1
vn -5.13292E-07 1.009194E-06 1
vn -5.13292E-07 1.009194E-06 1
vn -5.13292E-07 1.009194E-06 1
vn -5.13292E-07 1.009194E-06 1
vn -5.13292E-07 1.009194E-06 1
vn -5.13292E-07 1.009194E-06 1
vn -5.13292E-07 1.009194E-06 1
vn -5.13292E-07 1.009194E-06 1
vn -5.13292E-07 1.009194E-06 1
vn -5.13292E-07 1.009194E-06 1
vn -5.13292E-07 1.009194E-06 1
vn -5.13292E-07 1.009194E-06 1
vn -5.13292E-07 1.009194E-06 1
vn -5.13292E-07 1.009194E-06 1
vn -5.13292E-07 1.009194E-06 1
vn -5.13292E-07 1.009194E-06 1
vn -5.13292E-07 1.009194E-06 1
vn -5.13292E-07 1.009194E-06 1
vn -5.13292E-07 1.009194E-06 1
vn -5.13292E-07 1.009194E-06 1
vn -5.13292E-07 1.009194E-06 1
vn -5.13292E-07 1.009194E-06 1
vn -5.13292E-07 1.009194E-06 1
vn -5.13292E-07 1.009194E-06 1
vn -5.13292E-07 1.009194E-06 1
vn -5.13292E-07 1.009194E-06 1
vn -5.13292E-07 1.009194E-06 1
vn -5.13292E-07 1.009194E-06 1
vn -5.13292E-07 1.009194E-06 1
vn -5.13292E-07 1.009194E-06 1
vn -5.13292E-07 1.009194E-06 1
vn -5.13292E-07 1.009194E-06 1
vn -5.13292E-07 1.009194E-06 1
vn -5.13292E-07 1.009194E-06 1
vn -5.13292E-07 1.009194E-06 1
vn -5.13292E-07 1.009194E-06 1
vn -5.13292E-07 1.009194E-06 1
vn -5.13292E-07 1.009194E-06 1
vn -5.13292E-07 1.009194E-06 1
vn -5.13292E-07 1.009194E-06 1
vn -5.13292E-07 1.009194E-06 1
vn -5.13292E-07 1.009194E-06 1
vn -5.13292E-07 1.009194E-06 1
vn -5.13292E-07 1.009194E-06 1
vn -5.13292E-07 1.009194E-06 1
vn -5.13292E-07 1.009194E-06 1
g _CombinedLessRain12_0_0
f 3/3/3 2/2/2 1/1/1
f 6/6/6 5/5/5 4/4/4
f 9/9/9 8/8/8 7/7/7
f 12/12/12 11/11/11 10/10/10
f 15/15/15 14/14/14 13/13/13
f 18/18/18 17/17/17 16/16/16
f 21/21/21 20/20/20 19/19/19
f 24/24/24 23/23/23 22/22/22
f 27/27/27 26/26/26 25/25/25
f 30/30/30 29/29/29 28/28/28
f 33/33/33 32/32/32 31/31/31
f 36/36/36 35/35/35 34/34/34
f 39/39/39 38/38/38 37/37/37
f 42/42/42 41/41/41 40/40/40
f 45/45/45 44/44/44 43/43/43
f 48/48/48 47/47/47 46/46/46
f 51/51/51 50/50/50 49/49/49
f 54/54/54 53/53/53 52/52/52
f 57/57/57 56/56/56 55/55/55
f 60/60/60 59/59/59 58/58/58
f 63/63/63 62/62/62 61/61/61
f 66/66/66 65/65/65 64/64/64
f 69/69/69 68/68/68 67/67/67
f 72/72/72 71/71/71 70/70/70
f 75/75/75 74/74/74 73/73/73
f 78/78/78 77/77/77 76/76/76
f 81/81/81 80/80/80 79/79/79
f 84/84/84 83/83/83 82/82/82
f 87/87/87 86/86/86 85/85/85
f 90/90/90 89/89/89 88/88/88
f 93/93/93 92/92/92 91/91/91
f 96/96/96 95/95/95 94/94/94
f 99/99/99 98/98/98 97/97/97
f 102/102/102 101/101/101 100/100/100
f 105/105/105 104/104/104 103/103/103
f 108/108/108 107/107/107 106/106/106
f 111/111/111 110/110/110 109/109/109
f 114/114/114 113/113/113 112/112/112
f 117/117/117 116/116/116 115/115/115
f 120/120/120 119/119/119 118/118/118
f 123/123/123 122/122/122 121/121/121
f 126/126/126 125/125/125 124/124/124
f 129/129/129 128/128/128 127/127/127
f 132/132/132 131/131/131 130/130/130
f 135/135/135 134/134/134 133/133/133
f 138/138/138 137/137/137 136/136/136
f 141/141/141 140/140/140 139/139/139
f 144/144/144 143/143/143 142/142/142
f 147/147/147 146/146/146 145/145/145
f 150/150/150 149/149/149 148/148/148
f 153/153/153 152/152/152 151/151/151
f 156/156/156 155/155/155 154/154/154
f 159/159/159 158/158/158 157/157/157
f 162/162/162 161/161/161 160/160/160
f 165/165/165 164/164/164 163/163/163
f 168/168/168 167/167/167 166/166/166
f 171/171/171 170/170/170 169/169/169
f 174/174/174 173/173/173 172/172/172
f 177/177/177 176/176/176 175/175/175
f 180/180/180 179/179/179 178/178/178
f 183/183/183 182/182/182 181/181/181
f 186/186/186 185/185/185 184/184/184
f 189/189/189 188/188/188 187/187/187
f 192/192/192 191/191/191 190/190/190
f 195/195/195 194/194/194 193/193/193
f 198/198/198 197/197/197 196/196/196
