g _CombinedVis17_0
v -4.500073 -3.5 -2.499962
v -3.500073 -3.5 -2.499962
v -4.500073 -3.5 -1.499961
v -4.500073 -6.5 -2.49996
v -4.500072 -6.5 -1.49996
v -3.500072 -6.5 -2.499961
v -4.500073 -3.5 -1.499961
v -3.500073 -3.5 -2.499962
v -3.500072 -6.5 -2.499961
v -4.500072 -6.5 -1.49996
v -7.500085 -3.500001 -2.49997
v -7.500085 -3.5 -1.49997
v -8.500086 -3.500001 -2.49997
v -7.500085 -6.500001 -2.49997
v -8.500086 -6.500001 -2.499969
v -7.500084 -6.500001 -1.49997
v -8.500086 -3.500001 -2.49997
v -7.500085 -3.5 -1.49997
v -7.500084 -6.500001 -1.49997
v -8.500086 -6.500001 -2.499969
v -4.500073 -3.5 -5.499967
v -4.500073 -3.5 -6.499967
v -3.500073 -3.499999 -5.499967
v -4.500071 -6.5 -5.499966
v -3.500071 -6.5 -5.499967
v -4.500072 -6.5 -6.499966
v -3.500073 -3.499999 -5.499967
v -4.500073 -3.5 -6.499967
v -4.500072 -6.5 -6.499966
v -3.500071 -6.5 -5.499967
v -7.500082 -3.5 -5.499969
v -8.500082 -3.5 -5.499969
v -7.500082 -3.5 -6.499969
v -7.50008 -6.5 -5.49997
v -7.500081 -6.5 -6.49997
v -8.50008 -6.500001 -5.499969
v -7.500082 -3.5 -6.499969
v -8.500082 -3.5 -5.499969
v -8.50008 -6.500001 -5.499969
v -7.500081 -6.5 -6.49997
v -9.500063 -6.500004 -7.499959
v -9.500038 -26.5 -7.499955
v -2.500043 -26.5 -7.499955
v -2.500054 -6.5 -7.499959
v -2.500054 -6.5 -7.499959
v -2.500043 -26.5 -7.499955
v -2.499955 -26.50001 -0.5
v -2.499955 -6.50001 -0.5
v -7.500085 -3.5 -1.49997
v -4.500073 -3.5 -1.499961
v -4.500072 -6.5 -1.49996
v -7.500084 -6.500001 -1.49997
v -4.500073 -3.5 -6.499967
v -7.500082 -3.5 -6.499969
v -7.500081 -6.5 -6.49997
v -4.500072 -6.5 -6.499966
v -9.500063 -6.500004 -7.499959
v -2.500054 -6.5 -7.499959
v -2.499955 -6.50001 -0.5
v -9.500066 -6.500009 -0.4999699
v -3.500073 -3.5 -2.499962
v -3.500073 -3.499999 -5.499967
v -3.500071 -6.5 -5.499967
v -3.500072 -6.5 -2.499961
v -8.500082 -3.5 -5.499969
v -8.500086 -3.500001 -2.49997
v -8.500086 -6.500001 -2.499969
v -8.50008 -6.500001 -5.499969
v -2.499955 -6.50001 -0.5
v -2.499955 -26.50001 -0.5
v -9.500046 -26.5 -0.4999511
v -9.500066 -6.500009 -0.4999699
v -9.500066 -6.500009 -0.4999699
v -9.500046 -26.5 -0.4999511
v -9.500038 -26.5 -7.499955
v -9.500063 -6.500004 -7.499959
vt 0.9140625 0.6953124
vt 0.9140625 0.6640625
vt 0.9453124 0.6953124
vt 0.8828126 0.6953125
vt 0.9140625 0.6953124
vt 0.8828125 0.6640625
vt 0.927002 0.6953125
vt 0.8828125 0.6953125
vt 0.8828125 0.7265625
vt 0.927002 0.7265625
vt 0.9140625 0.6953124
vt 0.9140625 0.6640625
vt 0.9453124 0.6953124
vt 0.8828126 0.6953125
vt 0.9140625 0.6953124
vt 0.8828125 0.6640625
vt 0.927002 0.6953125
vt 0.8828125 0.6953125
vt 0.8828125 0.7265625
vt 0.927002 0.7265625
vt 0.9140625 0.6953124
vt 0.9140625 0.6640625
vt 0.9453124 0.6953124
vt 0.8828126 0.6953125
vt 0.9140625 0.6953124
vt 0.8828125 0.6640625
vt 0.927002 0.6953125
vt 0.8828125 0.6953125
vt 0.8828125 0.7265625
vt 0.927002 0.7265625
vt 0.9140625 0.6953124
vt 0.9140625 0.6640625
vt 0.9453124 0.6953124
vt 0.8828126 0.6953125
vt 0.9140625 0.6953124
vt 0.8828125 0.6640625
vt 0.927002 0.6953125
vt 0.8828125 0.6953125
vt 0.8828125 0.7265625
vt 0.927002 0.7265625
vt 0.7265625 0.0859375
vt 0.7265625 0.0234375
vt 0.6640625 0.0234375
vt 0.6640625 0.0859375
vt 0.7265625 0.0859375
vt 0.7265625 0.0234375
vt 0.6640625 0.0234375
vt 0.6640625 0.0859375
vt 0.7265625 0.0859375
vt 0.7265625 0.0234375
vt 0.6640625 0.0234375
vt 0.6640625 0.0859375
vt 0.7265625 0.0859375
vt 0.7265625 0.0234375
vt 0.6640625 0.0234375
vt 0.6640625 0.0859375
vt 0.7265625 0.0859375
vt 0.7265625 0.0234375
vt 0.6640625 0.0234375
vt 0.6640625 0.0859375
vt 0.7265625 0.0859375
vt 0.7265625 0.0234375
vt 0.6640625 0.0234375
vt 0.6640625 0.0859375
vt 0.7265625 0.0859375
vt 0.7265625 0.0234375
vt 0.6640625 0.0234375
vt 0.6640625 0.0859375
vt 0.7265625 0.0859375
vt 0.7265625 0.0234375
vt 0.6640625 0.0234375
vt 0.6640625 0.0859375
vt 0.7265625 0.0859375
vt 0.7265625 0.0234375
vt 0.6640625 0.0234375
vt 0.6640625 0.0859375
vn -8.787475E-08 1 -5.96046E-08
vn -8.787475E-08 1 -5.96046E-08
vn -8.787475E-08 1 -5.96046E-08
vn 8.787475E-08 -1 5.96046E-08
vn 8.787475E-08 -1 5.96046E-08
vn 8.787475E-08 -1 5.96046E-08
vn 0.7071067 1.464307E-07 0.7071068
vn 0.7071067 1.464307E-07 0.7071068
vn 0.7071067 1.464307E-07 0.7071068
vn 0.7071067 1.464307E-07 0.7071068
vn -3.576278E-07 1 7.234331E-14
vn -3.576278E-07 1 7.234331E-14
vn -3.576278E-07 1 7.234331E-14
vn 3.576278E-07 -1 -7.234331E-14
vn 3.576278E-07 -1 -7.234331E-14
vn 3.576278E-07 -1 -7.234331E-14
vn -0.7071066 -8.42937E-08 0.7071069
vn -0.7071066 -8.42937E-08 0.7071069
vn -0.7071066 -8.42937E-08 0.7071069
vn -0.7071066 -8.42937E-08 0.7071069
vn -5.364418E-07 1 -2.384186E-07
vn -5.364418E-07 1 -2.384186E-07
vn -5.364418E-07 1 -2.384186E-07
vn 5.364418E-07 -1 2.384186E-07
vn 5.364418E-07 -1 2.384186E-07
vn 5.364418E-07 -1 2.384186E-07
vn 0.7071067 2.107342E-07 -0.7071069
vn 0.7071067 2.107342E-07 -0.7071069
vn 0.7071067 2.107342E-07 -0.7071069
vn 0.7071067 2.107342E-07 -0.7071069
vn -6.851619E-07 1 -5.960459E-08
vn -6.851619E-07 1 -5.960459E-08
vn -6.851619E-07 1 -5.960459E-08
vn 6.851619E-07 -1 5.960459E-08
vn 6.851619E-07 -1 5.960459E-08
vn 6.851619E-07 -1 5.960459E-08
vn -0.7071068 -5.266295E-07 -0.7071068
vn -0.7071068 -5.266295E-07 -0.7071068
vn -0.7071068 -5.266295E-07 -0.7071068
vn -0.7071068 -5.266295E-07 -0.7071068
vn 5.684348E-14 -2.384187E-07 -1
vn 5.684348E-14 -2.384187E-07 -1
vn 5.684348E-14 -2.384187E-07 -1
vn 5.684348E-14 -2.384187E-07 -1
vn 1 1.825822E-13 -1.192093E-07
vn 1 1.825822E-13 -1.192093E-07
vn 1 1.825822E-13 -1.192093E-07
vn 1 1.825822E-13 -1.192093E-07
vn -7.224207E-08 -2.651405E-08 1
vn -7.224207E-08 -2.651405E-08 1
vn -7.224207E-08 -2.651405E-08 1
vn -7.224207E-08 -2.651405E-08 1
vn -1.928279E-08 -4.021855E-07 -1
vn -1.928279E-08 -4.021855E-07 -1
vn -1.928279E-08 -4.021855E-07 -1
vn -1.928279E-08 -4.021855E-07 -1
vn 9.947598E-14 1 -1.192092E-07
vn 9.947598E-14 1 -1.192092E-07
vn 9.947598E-14 1 -1.192092E-07
vn 9.947598E-14 1 -1.192092E-07
vn 1 5.364418E-07 -2.384186E-07
vn 1 5.364418E-07 -2.384186E-07
vn 1 5.364418E-07 -2.384186E-07
vn 1 5.364418E-07 -2.384186E-07
vn -1 -4.768372E-07 2.384186E-07
vn -1 -4.768372E-07 2.384186E-07
vn -1 -4.768372E-07 2.384186E-07
vn -1 -4.768372E-07 2.384186E-07
vn 4.946499E-15 6.286935E-14 1
vn 4.946499E-15 6.286935E-14 1
vn 4.946499E-15 6.286935E-14 1
vn 4.946499E-15 6.286935E-14 1
vn -1 -5.273867E-07 5.960464E-08
vn -1 -5.273867E-07 5.960464E-08
vn -1 -5.273867E-07 5.960464E-08
vn -1 -5.273867E-07 5.960464E-08
g _CombinedVis17_0_0
f 3/3/3 2/2/2 1/1/1
f 6/6/6 5/5/5 4/4/4
f 9/9/9 8/8/8 7/7/7
f 10/10/10 9/9/9 7/7/7
f 13/13/13 12/12/12 11/11/11
f 16/16/16 15/15/15 14/14/14
f 19/19/19 18/18/18 17/17/17
f 20/20/20 19/19/19 17/17/17
f 23/23/23 22/22/22 21/21/21
f 26/26/26 25/25/25 24/24/24
f 29/29/29 28/28/28 27/27/27
f 30/30/30 29/29/29 27/27/27
f 33/33/33 32/32/32 31/31/31
f 36/36/36 35/35/35 34/34/34
f 39/39/39 38/38/38 37/37/37
f 40/40/40 39/39/39 37/37/37
f 43/43/43 42/42/42 41/41/41
f 44/44/44 43/43/43 41/41/41
f 47/47/47 46/46/46 45/45/45
f 48/48/48 47/47/47 45/45/45
f 51/51/51 50/50/50 49/49/49
f 52/52/52 51/51/51 49/49/49
f 55/55/55 54/54/54 53/53/53
f 56/56/56 55/55/55 53/53/53
f 59/59/59 58/58/58 57/57/57
f 60/60/60 59/59/59 57/57/57
f 63/63/63 62/62/62 61/61/61
f 64/64/64 63/63/63 61/61/61
f 67/67/67 66/66/66 65/65/65
f 68/68/68 67/67/67 65/65/65
f 71/71/71 70/70/70 69/69/69
f 72/72/72 71/71/71 69/69/69
f 75/75/75 74/74/74 73/73/73
f 76/76/76 75/75/75 73/73/73
