g _Combined_AutoVis45_1
v 6.500001 -12.53843 -10.10982
v 7.500002 -12.5 -10.5
v 6.500001 -12.5 -10.5
v 7.500002 -12.53843 -10.10982
v 6.500001 -12.65224 -9.734634
v 7.500001 -12.65224 -9.734634
v 6.500001 -12.83706 -9.388861
v 7.500001 -12.83706 -9.388861
v 6.500001 -13.08579 -9.085788
v 7.500002 -13.08579 -9.085788
v 6.500001 -13.38886 -8.837063
v 7.500002 -13.38886 -8.837063
v 6.500001 -13.73464 -8.652243
v 7.500002 -13.73464 -8.652243
v 6.500001 -14.10983 -8.538431
v 7.500002 -14.10983 -8.538431
v 6.500001 -14.50001 -8.500003
v 7.500001 -14.50001 -8.500003
v 6.500001 -12.83706 -9.388861
v 6.500001 -12.65224 -9.734634
v 6.500001 -12.5 -8.5
v 6.500001 -12.53843 -10.10982
v 6.500001 -12.5 -10.5
v 6.500001 -13.08579 -9.085788
v 6.500001 -12.5 -8.5
v 6.500001 -13.38886 -8.837063
v 6.500001 -13.73464 -8.652243
v 6.500001 -14.10983 -8.538431
v 6.500001 -12.5 -8.5
v 6.500001 -14.50001 -8.500003
v 7.500001 -14.50001 -8.500003
v 6.500001 -14.50001 -8.500003
v 6.500001 -12.5 -8.5
v 7.500002 -12.5 -8.5
v 6.500001 -12.5 -10.5
v 7.500002 -12.5 -10.5
v 7.500002 -12.5 -8.5
v 6.500001 -12.5 -8.5
v 7.500002 -12.5 -10.5
v 7.500002 -12.53843 -10.10982
v 7.500002 -12.5 -8.5
v 7.500001 -12.65224 -9.734634
v 7.500001 -12.83706 -9.388861
v 7.500002 -12.5 -8.5
v 7.500002 -13.08579 -9.085788
v 7.500002 -13.38886 -8.837063
v 7.500002 -13.73464 -8.652243
v 7.500002 -12.5 -8.5
v 7.500002 -14.10983 -8.538431
v 7.500001 -14.50001 -8.500003
v 7.500001 -12.53843 -5.89018
v 6.500001 -12.5 -5.499999
v 7.500001 -12.5 -5.499999
v 6.500001 -12.53843 -5.89018
v 7.500001 -12.65224 -6.265366
v 6.500001 -12.65224 -6.265366
v 7.500001 -12.83706 -6.611139
v 6.500001 -12.83706 -6.61114
v 7.500001 -13.08579 -6.914212
v 6.500001 -13.08579 -6.914213
v 7.500001 -13.38886 -7.162938
v 6.500001 -13.38886 -7.162938
v 7.500001 -13.73464 -7.347758
v 6.500001 -13.73464 -7.347758
v 7.500001 -14.10983 -7.461569
v 6.500001 -14.10983 -7.461569
v 7.500001 -14.50001 -7.499998
v 6.500001 -14.50001 -7.499998
v 7.500001 -12.83706 -6.611139
v 7.500001 -12.65224 -6.265366
v 7.500001 -12.5 -7.5
v 7.500001 -12.53843 -5.89018
v 7.500001 -12.5 -5.499999
v 7.500001 -13.08579 -6.914212
v 7.500001 -12.5 -7.5
v 7.500001 -13.38886 -7.162938
v 7.500001 -13.73464 -7.347758
v 7.500001 -14.10983 -7.461569
v 7.500001 -12.5 -7.5
v 7.500001 -14.50001 -7.499998
v 6.500001 -14.50001 -7.499998
v 7.500001 -14.50001 -7.499998
v 7.500001 -12.5 -7.5
v 6.500001 -12.5 -7.5
v 7.500001 -12.5 -5.499999
v 6.500001 -12.5 -5.499999
v 6.500001 -12.5 -7.5
v 7.500001 -12.5 -7.5
v 6.500001 -12.5 -5.499999
v 6.500001 -12.53843 -5.89018
v 6.500001 -12.5 -7.5
v 6.500001 -12.65224 -6.265366
v 6.500001 -12.83706 -6.61114
v 6.500001 -12.5 -7.5
v 6.500001 -13.08579 -6.914213
v 6.500001 -13.38886 -7.162938
v 6.500001 -13.73464 -7.347758
v 6.500001 -12.5 -7.5
v 6.500001 -14.10983 -7.461569
v 6.500001 -14.50001 -7.499998
v 7.500001 -11.5 -8.5
v 7.500001 -11.5 -9.5
v 7.500001 -12.5 -9.5
v 7.500002 -12.5 -8.5
v 7.500001 -12.5 -5.499999
v 6.500001 -12.5 -5.499999
v 6.500001 -11.5 -5.500001
v 7.500001 -11.5 -5.500001
v 6.500001 -12.5 -9.5
v 6.500001 -12.5 -10.5
v 6.500001 -11.5 -10.5
v 6.500001 -11.5 -9.5
v 6.500001 -12.5 -8.5
v 6.500001 -12.5 -9.5
v 6.500001 -11.5 -9.5
v 6.500001 -11.5 -8.5
v 6.500001 -12.5 -5.499999
v 6.500001 -12.5 -6.5
v 6.500001 -11.5 -6.5
v 6.500001 -11.5 -5.500001
v 6.500001 -12.5 -6.5
v 6.500001 -12.5 -7.5
v 6.500001 -11.5 -7.5
v 6.500001 -11.5 -6.5
v 6.500001 -12.5 -7.5
v 6.500001 -12.5 -8.5
v 6.500001 -11.5 -8.5
v 6.500001 -11.5 -7.5
v 6.500001 -13.5 -7.500001
v 6.500001 -13.5 -8.500001
v 6.500001 -12.5 -8.5
v 6.500001 -12.5 -7.5
v 7.500001 -11.5 -10.5
v 6.500001 -11.5 -10.5
v 6.500001 -12.5 -10.5
v 7.500002 -12.5 -10.5
v 6.500001 -14.50001 -7.499998
v 6.500001 -14.50001 -8.500003
v 6.500001 -13.5 -8.500001
v 6.500001 -13.5 -7.500001
v 6.500001 -15.5 -7.5
v 6.500001 -15.5 -8.5
v 6.500001 -14.50001 -8.500003
v 6.500001 -14.50001 -7.499998
v 7.500001 -11.5 -6.5
v 7.500001 -11.5 -7.5
v 7.500001 -12.5 -7.5
v 7.500001 -12.5 -6.5
v 7.500001 -14.50001 -8.500003
v 7.500001 -15.5 -8.499999
v 7.500001 -15.5 -7.5
v 7.500001 -14.50001 -7.499998
v 6.500001 -15.5 -8.5
v 7.500001 -15.5 -8.499999
v 7.500001 -14.50001 -8.500003
v 6.500001 -14.50001 -8.500003
v 7.500001 -11.5 -5.500001
v 7.500001 -11.5 -6.5
v 7.500001 -12.5 -6.5
v 7.500001 -12.5 -5.499999
v 7.500001 -11.5 -9.5
v 7.500001 -11.5 -10.5
v 7.500002 -12.5 -10.5
v 7.500001 -12.5 -9.5
v 7.500002 -12.5 -8.5
v 7.500001 -13.5 -8.5
v 7.500001 -13.5 -7.500001
v 7.500001 -12.5 -7.5
v 7.500001 -11.5 -7.5
v 7.500001 -11.5 -8.5
v 7.500002 -12.5 -8.5
v 7.500001 -13.5 -8.5
v 7.500001 -14.50001 -8.500003
v 7.500001 -14.50001 -7.499998
v 7.500001 -13.5 -7.500001
v 7.500001 -15.5 -7.5
v 6.500001 -15.5 -7.5
v 6.500001 -14.50001 -7.499998
v 7.500001 -14.50001 -7.499998
v 7.500001 -15.5 -8.499999
v 6.500001 -15.5 -8.5
v 6.500001 -15.5 -7.5
v 7.500001 -15.5 -7.5
vt 0.96875 0.1054688
vt 0.9375 0.09375
vt 0.96875 0.09375
vt 0.9375 0.1054688
vt 0.96875 0.1171875
vt 0.9375 0.1171875
vt 0.96875 0.1289063
vt 0.9375 0.1289063
vt 0.96875 0.140625
vt 0.9375 0.140625
vt 0.96875 0.1523438
vt 0.9375 0.1523438
vt 0.96875 0.1640625
vt 0.9375 0.1640625
vt 0.96875 0.1757813
vt 0.9375 0.1757813
vt 0.96875 0.1875
vt 0.9375 0.1875
vt 0.8648163 0.1631962
vt 0.853265 0.1415854
vt 0.84375 0.125
vt 0.8461518 0.1181363
vt 0.84375 0.09375
vt 0.8803617 0.1821383
vt 0.84375 0.21875
vt 0.8993037 0.1976836
vt 0.9209146 0.2092348
vt 0.9443637 0.2163481
vt 0.9375 0.21875
vt 0.96875 0.2187499
vt 0.875 0.125
vt 0.90625 0.125
vt 0.90625 0.09375
vt 0.875 0.09375
vt 0.875 0.125
vt 0.90625 0.125
vt 0.90625 0.09375
vt 0.875 0.09375
vt 0.84375 0.09375
vt 0.8461518 0.1181363
vt 0.84375 0.125
vt 0.853265 0.1415854
vt 0.8648163 0.1631962
vt 0.84375 0.21875
vt 0.8803617 0.1821383
vt 0.8993037 0.1976836
vt 0.9209146 0.2092348
vt 0.9375 0.21875
vt 0.9443637 0.2163481
vt 0.96875 0.2187499
vt 0.96875 0.1054688
vt 0.9375 0.09375
vt 0.96875 0.09375
vt 0.9375 0.1054688
vt 0.96875 0.1171875
vt 0.9375 0.1171875
vt 0.96875 0.1289063
vt 0.9375 0.1289063
vt 0.96875 0.140625
vt 0.9375 0.140625
vt 0.96875 0.1523438
vt 0.9375 0.1523438
vt 0.96875 0.1640625
vt 0.9375 0.1640625
vt 0.96875 0.1757813
vt 0.9375 0.1757813
vt 0.96875 0.1875
vt 0.9375 0.1875
vt 0.8648163 0.1631962
vt 0.853265 0.1415854
vt 0.84375 0.125
vt 0.8461518 0.1181363
vt 0.84375 0.09375
vt 0.8803617 0.1821383
vt 0.84375 0.21875
vt 0.8993037 0.1976836
vt 0.9209146 0.2092348
vt 0.9443637 0.2163481
vt 0.9375 0.21875
vt 0.96875 0.2187499
vt 0.875 0.125
vt 0.90625 0.125
vt 0.90625 0.09375
vt 0.875 0.09375
vt 0.875 0.125
vt 0.90625 0.125
vt 0.90625 0.09375
vt 0.875 0.09375
vt 0.84375 0.09375
vt 0.8461518 0.1181363
vt 0.84375 0.125
vt 0.853265 0.1415854
vt 0.8648163 0.1631962
vt 0.84375 0.21875
vt 0.8803617 0.1821383
vt 0.8993037 0.1976836
vt 0.9209146 0.2092348
vt 0.9375 0.21875
vt 0.9443637 0.2163481
vt 0.96875 0.2187499
vt 0.96875 0.21875
vt 0.96875 0.09375
vt 0.84375 0.09375
vt 0.84375 0.21875
vt 0.96875 0.21875
vt 0.96875 0.09375
vt 0.84375 0.09375
vt 0.84375 0.21875
vt 0.96875 0.21875
vt 0.96875 0.09375
vt 0.84375 0.09375
vt 0.84375 0.21875
vt 0.96875 0.21875
vt 0.96875 0.09375
vt 0.84375 0.09375
vt 0.84375 0.21875
vt 0.96875 0.21875
vt 0.96875 0.09375
vt 0.84375 0.09375
vt 0.84375 0.21875
vt 0.96875 0.21875
vt 0.96875 0.09375
vt 0.84375 0.09375
vt 0.84375 0.21875
vt 0.96875 0.21875
vt 0.96875 0.09375
vt 0.84375 0.09375
vt 0.84375 0.21875
vt 0.96875 0.21875
vt 0.96875 0.09375
vt 0.84375 0.09375
vt 0.84375 0.21875
vt 0.96875 0.21875
vt 0.96875 0.09375
vt 0.84375 0.09375
vt 0.84375 0.21875
vt 0.96875 0.21875
vt 0.96875 0.09375
vt 0.84375 0.09375
vt 0.84375 0.21875
vt 0.96875 0.21875
vt 0.96875 0.09375
vt 0.84375 0.09375
vt 0.84375 0.21875
vt 0.96875 0.21875
vt 0.96875 0.09375
vt 0.84375 0.09375
vt 0.84375 0.21875
vt 0.96875 0.21875
vt 0.96875 0.09375
vt 0.84375 0.09375
vt 0.84375 0.21875
vt 0.96875 0.21875
vt 0.96875 0.09375
vt 0.84375 0.09375
vt 0.84375 0.21875
vt 0.96875 0.21875
vt 0.96875 0.09375
vt 0.84375 0.09375
vt 0.84375 0.21875
vt 0.96875 0.21875
vt 0.96875 0.09375
vt 0.84375 0.09375
vt 0.84375 0.21875
vt 0.96875 0.21875
vt 0.96875 0.09375
vt 0.84375 0.09375
vt 0.84375 0.21875
vt 0.96875 0.21875
vt 0.96875 0.09375
vt 0.84375 0.09375
vt 0.96875 0.21875
vt 0.96875 0.09375
vt 0.84375 0.09375
vt 0.84375 0.21875
vt 0.96875 0.21875
vt 0.96875 0.09375
vt 0.84375 0.09375
vt 0.84375 0.21875
vt 0.96875 0.21875
vt 0.96875 0.09375
vt 0.84375 0.09375
vt 0.84375 0.21875
vn -8.57429E-08 -0.9807851 -0.195091
vn -8.742271E-08 -1 -2.131865E-14
vn -8.742271E-08 -1 -2.131865E-14
vn -8.57429E-08 -0.9807852 -0.1950909
vn -8.076804E-08 -0.9238793 -0.3826838
vn -8.076805E-08 -0.9238794 -0.3826838
vn -7.26893E-08 -0.8314694 -0.5555707
vn -7.26893E-08 -0.8314694 -0.5555707
vn -6.181716E-08 -0.7071064 -0.7071072
vn -6.181716E-08 -0.7071064 -0.7071071
vn -4.856943E-08 -0.5555699 -0.8314699
vn -4.856943E-08 -0.5555699 -0.8314699
vn -3.345516E-08 -0.3826827 -0.9238798
vn -3.345516E-08 -0.3826827 -0.9238798
vn -1.705525E-08 -0.1950894 -0.9807855
vn -1.705525E-08 -0.1950894 -0.9807855
vn -7.54702E-23 -2.368635E-14 -1
vn -7.54702E-23 -2.368635E-14 -1
vn -1 8.742282E-08 -1.7318E-21
vn -1 8.742282E-08 -1.7318E-21
vn -1 8.742282E-08 -1.7318E-21
vn -1 8.742282E-08 -1.7318E-21
vn -1 8.742282E-08 -1.7318E-21
vn -1 8.742282E-08 -1.7318E-21
vn -1 8.742282E-08 -1.7318E-21
vn -1 8.742282E-08 -1.7318E-21
vn -1 8.742282E-08 -1.7318E-21
vn -1 8.742282E-08 -1.7318E-21
vn -1 8.742282E-08 -1.7318E-21
vn -1 8.742282E-08 -1.7318E-21
vn 7.54702E-23 2.368635E-14 1
vn 7.54702E-23 2.368635E-14 1
vn 7.54702E-23 2.368635E-14 1
vn 7.54702E-23 2.368635E-14 1
vn 8.742271E-08 1 2.131865E-14
vn 8.742271E-08 1 2.131865E-14
vn 8.742271E-08 1 2.131865E-14
vn 8.742271E-08 1 2.131865E-14
vn 1 -8.742282E-08 1.7318E-21
vn 1 -8.742282E-08 1.7318E-21
vn 1 -8.742282E-08 1.7318E-21
vn 1 -8.742282E-08 1.7318E-21
vn 1 -8.742282E-08 1.7318E-21
vn 1 -8.742282E-08 1.7318E-21
vn 1 -8.742282E-08 1.7318E-21
vn 1 -8.742282E-08 1.7318E-21
vn 1 -8.742282E-08 1.7318E-21
vn 1 -8.742282E-08 1.7318E-21
vn 1 -8.742282E-08 1.7318E-21
vn 1 -8.742282E-08 1.7318E-21
vn 6.868762E-08 -0.9807851 0.195091
vn 8.742283E-08 -1 -1.184318E-14
vn 8.742283E-08 -1 -1.184318E-14
vn 6.868763E-08 -0.9807852 0.1950909
vn 4.731286E-08 -0.9238793 0.3826838
vn 4.731287E-08 -0.9238794 0.3826838
vn 2.411987E-08 -0.8314694 0.5555707
vn 2.411987E-08 -0.8314694 0.5555707
vn -4.2619E-14 -0.7071064 0.7071072
vn -3.740819E-14 -0.7071064 0.7071071
vn -2.411993E-08 -0.5555699 0.8314699
vn -2.411993E-08 -0.5555699 0.8314699
vn -4.731295E-08 -0.3826827 0.9238798
vn -4.731295E-08 -0.3826827 0.9238798
vn -6.868775E-08 -0.1950894 0.9807855
vn -6.868775E-08 -0.1950894 0.9807855
vn -8.74228E-08 2.368635E-14 1
vn -8.74228E-08 2.368635E-14 1
vn 1 8.742272E-08 8.742277E-08
vn 1 8.742272E-08 8.742277E-08
vn 1 8.742272E-08 8.742277E-08
vn 1 8.742272E-08 8.742277E-08
vn 1 8.742272E-08 8.742277E-08
vn 1 8.742272E-08 8.742277E-08
vn 1 8.742272E-08 8.742277E-08
vn 1 8.742272E-08 8.742277E-08
vn 1 8.742272E-08 8.742277E-08
vn 1 8.742272E-08 8.742277E-08
vn 1 8.742272E-08 8.742277E-08
vn 1 8.742272E-08 8.742277E-08
vn 8.74228E-08 -2.368635E-14 -1
vn 8.74228E-08 -2.368635E-14 -1
vn 8.74228E-08 -2.368635E-14 -1
vn 8.74228E-08 -2.368635E-14 -1
vn -8.742283E-08 1 1.184318E-14
vn -8.742283E-08 1 1.184318E-14
vn -8.742283E-08 1 1.184318E-14
vn -8.742283E-08 1 1.184318E-14
vn -1 -8.742272E-08 -8.742277E-08
vn -1 -8.742272E-08 -8.742277E-08
vn -1 -8.742272E-08 -8.742277E-08
vn -1 -8.742272E-08 -8.742277E-08
vn -1 -8.742272E-08 -8.742277E-08
vn -1 -8.742272E-08 -8.742277E-08
vn -1 -8.742272E-08 -8.742277E-08
vn -1 -8.742272E-08 -8.742277E-08
vn -1 -8.742272E-08 -8.742277E-08
vn -1 -8.742272E-08 -8.742277E-08
vn -1 -8.742272E-08 -8.742277E-08
vn -1 -8.742272E-08 -8.742277E-08
vn 1 -5.684341E-14 7.547018E-23
vn 1 -5.684341E-14 7.547018E-23
vn 1 -5.684341E-14 7.547018E-23
vn 1 -5.684341E-14 7.547018E-23
vn 7.54702E-23 2.368635E-14 1
vn 7.54702E-23 2.368635E-14 1
vn 7.54702E-23 2.368635E-14 1
vn 7.54702E-23 2.368635E-14 1
vn -1 5.684341E-14 -7.547018E-23
vn -1 5.684341E-14 -7.547018E-23
vn -1 5.684341E-14 -7.547018E-23
vn -1 5.684341E-14 -7.547018E-23
vn -1 5.684341E-14 -7.547018E-23
vn -1 5.684341E-14 -7.547018E-23
vn -1 5.684341E-14 -7.547018E-23
vn -1 5.684341E-14 -7.547018E-23
vn -1 5.684341E-14 -7.547018E-23
vn -1 5.684341E-14 -7.547018E-23
vn -1 5.684341E-14 -7.547018E-23
vn -1 5.684341E-14 -7.547018E-23
vn -1 5.684341E-14 -7.547018E-23
vn -1 5.684341E-14 -7.547018E-23
vn -1 5.684341E-14 -7.547018E-23
vn -1 5.684341E-14 -7.547018E-23
vn -1 5.684341E-14 -7.547018E-23
vn -1 5.684341E-14 -7.547018E-23
vn -1 5.684341E-14 -7.547018E-23
vn -1 5.684341E-14 -7.547018E-23
vn -1 5.684341E-14 -7.547018E-23
vn -1 5.684341E-14 -7.547018E-23
vn -1 5.684341E-14 -7.547018E-23
vn -1 5.684341E-14 -7.547018E-23
vn 8.742279E-08 -2.368636E-14 -1
vn 8.742279E-08 -2.368636E-14 -1
vn 8.742279E-08 -2.368636E-14 -1
vn 8.742279E-08 -2.368636E-14 -1
vn -1 5.684341E-14 -7.547018E-23
vn -1 5.684341E-14 -7.547018E-23
vn -1 5.684341E-14 -7.547018E-23
vn -1 5.684341E-14 -7.547018E-23
vn -1 5.684341E-14 -7.547018E-23
vn -1 5.684341E-14 -7.547018E-23
vn -1 5.684341E-14 -7.547018E-23
vn -1 5.684341E-14 -7.547018E-23
vn 1 -5.684341E-14 7.547018E-23
vn 1 -5.684341E-14 7.547018E-23
vn 1 -5.684341E-14 7.547018E-23
vn 1 -5.684341E-14 7.547018E-23
vn 1 -3.505407E-14 -1.192092E-07
vn 1 -3.505407E-14 -1.192092E-07
vn 1 -3.505407E-14 -1.192092E-07
vn 1 -3.505407E-14 -1.192092E-07
vn 8.742279E-08 -2.368636E-14 -1
vn 8.742279E-08 -2.368636E-14 -1
vn 8.742279E-08 -2.368636E-14 -1
vn 8.742279E-08 -2.368636E-14 -1
vn 1 -5.684341E-14 7.547018E-23
vn 1 -5.684341E-14 7.547018E-23
vn 1 -5.684341E-14 7.547018E-23
vn 1 -5.684341E-14 7.547018E-23
vn 1 -5.684341E-14 7.547018E-23
vn 1 -5.684341E-14 7.547018E-23
vn 1 -5.684341E-14 7.547018E-23
vn 1 -5.684341E-14 7.547018E-23
vn 1 -3.505407E-14 -1.192092E-07
vn 1 -3.505407E-14 -1.192092E-07
vn 1 -3.505407E-14 -1.192092E-07
vn 1 -3.505407E-14 -1.192092E-07
vn 1 -5.684341E-14 7.547018E-23
vn 1 -5.684341E-14 7.547018E-23
vn 1 -5.684341E-14 7.547018E-23
vn 1 -3.505407E-14 -1.192092E-07
vn 1 -3.505407E-14 -1.192092E-07
vn 1 -3.505407E-14 -1.192092E-07
vn 1 -3.505407E-14 -1.192092E-07
vn 7.54702E-23 2.368635E-14 1
vn 7.54702E-23 2.368635E-14 1
vn 7.54702E-23 2.368635E-14 1
vn 7.54702E-23 2.368635E-14 1
vn 5.684341E-14 -1 -2.368634E-14
vn 5.684341E-14 -1 -2.368634E-14
vn 5.684341E-14 -1 -2.368634E-14
vn 5.684341E-14 -1 -2.368634E-14
g _Combined_AutoVis45_1_0
f 3/3/3 2/2/2 1/1/1
f 2/2/2 4/4/4 1/1/1
f 1/1/1 4/4/4 5/5/5
f 4/4/4 6/6/6 5/5/5
f 5/5/5 6/6/6 7/7/7
f 6/6/6 8/8/8 7/7/7
f 7/7/7 8/8/8 9/9/9
f 8/8/8 10/10/10 9/9/9
f 9/9/9 10/10/10 11/11/11
f 10/10/10 12/12/12 11/11/11
f 11/11/11 12/12/12 13/13/13
f 12/12/12 14/14/14 13/13/13
f 13/13/13 14/14/14 15/15/15
f 14/14/14 16/16/16 15/15/15
f 15/15/15 16/16/16 17/17/17
f 16/16/16 18/18/18 17/17/17
f 21/21/21 20/20/20 19/19/19
f 21/21/21 22/22/22 20/20/20
f 21/21/21 23/23/23 22/22/22
f 25/25/25 19/19/19 24/24/24
f 25/25/25 24/24/24 26/26/26
f 25/25/25 26/26/26 27/27/27
f 29/29/29 27/27/27 28/28/28
f 29/29/29 28/28/28 30/30/30
f 33/33/33 32/32/32 31/31/31
f 34/34/34 33/33/33 31/31/31
f 37/37/37 36/36/36 35/35/35
f 38/38/38 37/37/37 35/35/35
f 41/41/41 40/40/40 39/39/39
f 41/41/41 42/42/42 40/40/40
f 44/44/44 43/43/43 42/42/42
f 44/44/44 45/45/45 43/43/43
f 44/44/44 46/46/46 45/45/45
f 48/48/48 47/47/47 46/46/46
f 48/48/48 49/49/49 47/47/47
f 48/48/48 50/50/50 49/49/49
f 53/53/53 52/52/52 51/51/51
f 52/52/52 54/54/54 51/51/51
f 51/51/51 54/54/54 55/55/55
f 54/54/54 56/56/56 55/55/55
f 55/55/55 56/56/56 57/57/57
f 56/56/56 58/58/58 57/57/57
f 57/57/57 58/58/58 59/59/59
f 58/58/58 60/60/60 59/59/59
f 59/59/59 60/60/60 61/61/61
f 60/60/60 62/62/62 61/61/61
f 61/61/61 62/62/62 63/63/63
f 62/62/62 64/64/64 63/63/63
f 63/63/63 64/64/64 65/65/65
f 64/64/64 66/66/66 65/65/65
f 65/65/65 66/66/66 67/67/67
f 66/66/66 68/68/68 67/67/67
f 71/71/71 70/70/70 69/69/69
f 71/71/71 72/72/72 70/70/70
f 71/71/71 73/73/73 72/72/72
f 75/75/75 69/69/69 74/74/74
f 75/75/75 74/74/74 76/76/76
f 75/75/75 76/76/76 77/77/77
f 79/79/79 77/77/77 78/78/78
f 79/79/79 78/78/78 80/80/80
f 83/83/83 82/82/82 81/81/81
f 84/84/84 83/83/83 81/81/81
f 87/87/87 86/86/86 85/85/85
f 88/88/88 87/87/87 85/85/85
f 91/91/91 90/90/90 89/89/89
f 91/91/91 92/92/92 90/90/90
f 94/94/94 93/93/93 92/92/92
f 94/94/94 95/95/95 93/93/93
f 94/94/94 96/96/96 95/95/95
f 98/98/98 97/97/97 96/96/96
f 98/98/98 99/99/99 97/97/97
f 98/98/98 100/100/100 99/99/99
f 103/103/103 102/102/102 101/101/101
f 104/104/104 103/103/103 101/101/101
f 107/107/107 106/106/106 105/105/105
f 108/108/108 107/107/107 105/105/105
f 111/111/111 110/110/110 109/109/109
f 112/112/112 111/111/111 109/109/109
f 115/115/115 114/114/114 113/113/113
f 116/116/116 115/115/115 113/113/113
f 119/119/119 118/118/118 117/117/117
f 120/120/120 119/119/119 117/117/117
f 123/123/123 122/122/122 121/121/121
f 124/124/124 123/123/123 121/121/121
f 127/127/127 126/126/126 125/125/125
f 128/128/128 127/127/127 125/125/125
f 131/131/131 130/130/130 129/129/129
f 132/132/132 131/131/131 129/129/129
f 135/135/135 134/134/134 133/133/133
f 136/136/136 135/135/135 133/133/133
f 139/139/139 138/138/138 137/137/137
f 140/140/140 139/139/139 137/137/137
f 143/143/143 142/142/142 141/141/141
f 144/144/144 143/143/143 141/141/141
f 147/147/147 146/146/146 145/145/145
f 148/148/148 147/147/147 145/145/145
f 151/151/151 150/150/150 149/149/149
f 152/152/152 151/151/151 149/149/149
f 155/155/155 154/154/154 153/153/153
f 156/156/156 155/155/155 153/153/153
f 159/159/159 158/158/158 157/157/157
f 160/160/160 159/159/159 157/157/157
f 163/163/163 162/162/162 161/161/161
f 164/164/164 163/163/163 161/161/161
f 167/167/167 166/166/166 165/165/165
f 168/168/168 167/167/167 165/165/165
f 171/171/171 170/170/170 169/169/169
f 168/168/168 171/171/171 169/169/169
f 174/174/174 173/173/173 172/172/172
f 175/175/175 174/174/174 172/172/172
f 178/178/178 177/177/177 176/176/176
f 179/179/179 178/178/178 176/176/176
f 182/182/182 181/181/181 180/180/180
f 183/183/183 182/182/182 180/180/180
