g _Combined_Vis61_1
v -0.5015779 -5.114769 -0.2499998
v -0.5586681 -4.990914 0.2500002
v -0.5015779 -6.999998 0.2500002
v -0.5015779 -6.902816 2.384186E-07
v -0.7212475 -1.834272 -0.7499999
v -0.5586681 -4.990914 -0.3139684
v -0.5586681 -2.391658 -0.7499999
v -0.7212475 -3.287691 -0.6306903
v -0.5586681 -4.990914 -0.3139684
v -0.7212475 -1.834272 -0.7499999
v -0.9645651 -2.149633 -0.75
v -0.7212475 -3.287691 -0.6306903
v -0.7212475 -1.834272 -0.7499999
v -1.25 -1.752197 0.2499999
v -1.25 -1.752197 -0.7500001
v -1.25 -1.251698E-06 -0.7500001
v -1.25 8.34465E-07 0.2499999
v -0.25 -6.902815 3.278255E-07
v -0.5015779 -6.902816 2.384186E-07
v -0.5015779 -6.999998 0.2500002
v -0.25 -6.999998 0.2500004
v -1.25 -1.752197 0.2499999
v -1.25 8.34465E-07 0.2499999
v -0.25 1.66893E-06 0.2499999
v -0.9645652 -2.149633 0.2499999
v -0.7212476 -3.287691 0.25
v -0.5586681 -4.990914 0.2500002
v -0.5015779 -6.999998 0.2500002
v -0.25 -6.999998 0.2500004
v -1.25 -1.752197 -0.7500001
v -0.25 -2.086163E-07 -0.75
v -1.25 -1.251698E-06 -0.7500001
v -0.9645651 -2.149633 -0.75
v -0.7212475 -1.834272 -0.7499999
v -0.5586681 -2.391658 -0.7499999
v -0.3353969 -4.329833 -0.7499998
v -0.25 -4.514338 -0.7499998
v -0.7212476 -3.287691 0.25
v -0.5586681 -4.990914 0.2500002
v -0.5586681 -4.990914 -0.3139684
v -0.7212475 -3.287691 -0.6306903
v -0.9645652 -2.149633 0.2499999
v -0.9645651 -2.149633 -0.75
v -1.25 -1.752197 0.2499999
v -1.25 -1.752197 -0.7500001
v -0.25 -4.514338 -0.7499998
v -0.25 -5.079736 -0.4999997
v -0.25 -4.969936 -0.2499997
v -0.25 1.66893E-06 0.2499999
v -0.25 -2.086163E-07 -0.75
v -0.25 -6.902815 3.278255E-07
v -0.25 -6.999998 0.2500004
v -0.25 -5.079736 -0.4999997
v -0.5015779 -5.114769 -0.2499998
v -0.25 -4.969936 -0.2499997
v -0.4204658 -5.079735 -0.4999998
v -0.25 -4.514338 -0.7499998
v -0.4204658 -5.079735 -0.4999998
v -0.25 -5.079736 -0.4999997
v -0.3353969 -4.329833 -0.7499998
v -0.25 -4.969936 -0.2499997
v -0.5015779 -5.114769 -0.2499998
v -0.5015779 -6.902816 2.384186E-07
v -0.25 -6.902815 3.278255E-07
v -0.3353969 -4.329833 -0.7499998
v -0.5586681 -2.391658 -0.7499999
v -0.5586681 -4.990914 -0.3139684
v -0.4204658 -5.079735 -0.4999998
v -0.4204658 -5.079735 -0.4999998
v -0.5586681 -4.990914 -0.3139684
v -0.5015779 -5.114769 -0.2499998
v -0.5586681 -4.990914 0.2500002
v 0.001577854 -3.114769 -0.2499998
v 0.05866808 -2.990914 0.2500002
v 0.05866808 -2.990914 -0.3139684
v -0.07953423 -3.079735 -0.4999998
v -0.07953423 -3.079735 -0.4999998
v 0.05866808 -2.990914 -0.3139684
v -0.1646031 -2.329833 -0.7499998
v 0.05866808 -0.3916583 -0.7499999
v -0.25 -4.902815 3.278255E-07
v 0.001577854 -4.902816 2.384186E-07
v -0.25 -2.969936 -0.2499997
v 0.001577854 -3.114769 -0.2499998
v -0.07953423 -3.079735 -0.4999998
v -0.1646031 -2.329833 -0.7499998
v -0.25 -2.514337 -0.7499998
v -0.25 -3.079736 -0.4999997
v 0.001577854 -3.114769 -0.2499998
v -0.07953423 -3.079735 -0.4999998
v -0.25 -3.079736 -0.4999997
v -0.25 -2.969936 -0.2499997
v -0.25 2.000002 0.2499999
v -0.25 -4.999998 0.2500004
v -0.25 -4.902815 3.278255E-07
v -0.25 -2.969936 -0.2499997
v -0.25 -2.514337 -0.7499998
v -0.25 2 -0.75
v -0.25 -3.079736 -0.4999997
v 0.75 0.2478027 -0.7500001
v 0.4645651 -0.1496332 -0.75
v 0.75 0.2478026 0.2499999
v 0.4645652 -0.1496332 0.2499999
v 0.2212475 -1.287691 -0.6306903
v 0.2212476 -1.287691 0.25
v 0.05866808 -2.990914 -0.3139684
v 0.05866808 -2.990914 0.2500002
v -0.25 -2.514337 -0.7499998
v -0.1646031 -2.329833 -0.7499998
v -0.25 2 -0.75
v 0.05866808 -0.3916583 -0.7499999
v 0.2212475 0.1657282 -0.7499999
v 0.4645651 -0.1496332 -0.75
v 0.75 0.2478027 -0.7500001
v 0.75 1.999999 -0.7500001
v -0.25 -4.999998 0.2500004
v -0.25 2.000002 0.2499999
v 0.001577854 -4.999998 0.2500002
v 0.05866808 -2.990914 0.2500002
v 0.2212476 -1.287691 0.25
v 0.4645652 -0.1496332 0.2499999
v 0.75 0.2478026 0.2499999
v 0.75 2.000001 0.2499999
v -0.25 -4.999998 0.2500004
v 0.001577854 -4.999998 0.2500002
v -0.25 -4.902815 3.278255E-07
v 0.001577854 -4.902816 2.384186E-07
v 0.75 2.000001 0.2499999
v 0.75 1.999999 -0.7500001
v 0.75 0.2478026 0.2499999
v 0.75 0.2478027 -0.7500001
v 0.2212475 0.1657282 -0.7499999
v 0.2212475 -1.287691 -0.6306903
v 0.4645651 -0.1496332 -0.75
v 0.2212475 0.1657282 -0.7499999
v 0.05866808 -2.990914 -0.3139684
v 0.2212475 -1.287691 -0.6306903
v 0.05866808 -0.3916583 -0.7499999
v 0.05866808 -2.990914 -0.3139684
v 0.2212475 0.1657282 -0.7499999
v 0.001577854 -4.902816 2.384186E-07
v 0.001577854 -4.999998 0.2500002
v 0.001577854 -3.114769 -0.2499998
v 0.05866808 -2.990914 0.2500002
v 0.2500001 -2.653407 0.9984221
v 0.7500001 -2.564939 0.9413319
v 0.1860314 -2.564939 0.9413319
v 4.430031E-08 -2.628382 1.079534
v 4.430031E-08 -2.628382 1.079534
v 0.1860314 -2.564939 0.9413319
v -0.25 -2.092738 1.164603
v -0.2499999 -0.7083272 0.9413319
v 0.5000001 -3.930583 1.25
v 0.5 -3.930583 0.9984221
v 0.2500002 -2.549954 1.25
v 0.2500001 -2.653407 0.9984221
v 4.430031E-08 -2.628382 1.079534
v -0.25 -2.092738 1.164603
v -0.2499999 -2.224527 1.25
v 1.039049E-07 -2.628383 1.25
v 0.2500001 -2.653407 0.9984221
v 4.430031E-08 -2.628382 1.079534
v 1.039049E-07 -2.628383 1.25
v 0.2500002 -2.549954 1.25
v 0.7500002 1.000001 1.25
v 0.7500001 -3.999999 1.25
v 0.5000001 -3.930583 1.25
v 0.2500002 -2.549954 1.25
v -0.2499999 -2.224527 1.25
v -0.2499998 1 1.25
v 1.039049E-07 -2.628383 1.25
v -0.25 -0.2515693 0.25
v -0.2499999 -0.5354521 0.5354349
v 0.7500001 -0.2515695 0.25
v 0.7500001 -0.5354522 0.5354348
v -0.1306904 -1.348351 0.7787525
v 0.7500001 -1.348351 0.7787524
v 0.1860314 -2.564939 0.9413319
v 0.7500001 -2.564939 0.9413319
v -0.2499999 -2.224527 1.25
v -0.25 -2.092738 1.164603
v -0.2499998 1 1.25
v -0.2499999 -0.7083272 0.9413319
v -0.2499999 -0.310194 0.7787525
v -0.2499999 -0.5354521 0.5354349
v -0.25 -0.2515693 0.25
v -0.2499999 0.9999994 0.25
v 0.7500001 -3.999999 1.25
v 0.7500002 1.000001 1.25
v 0.75 -3.999999 0.9984221
v 0.7500001 -2.564939 0.9413319
v 0.7500001 -1.348351 0.7787524
v 0.7500001 -0.5354522 0.5354348
v 0.7500001 -0.2515695 0.25
v 0.7500003 1.000001 0.25
v 0.7500001 -3.999999 1.25
v 0.75 -3.999999 0.9984221
v 0.5000001 -3.930583 1.25
v 0.5 -3.930583 0.9984221
v 0.7500003 1.000001 0.25
v -0.2499999 0.9999994 0.25
v 0.7500001 -0.2515695 0.25
v -0.25 -0.2515693 0.25
v -0.2499999 -0.310194 0.7787525
v -0.1306904 -1.348351 0.7787525
v -0.2499999 -0.5354521 0.5354349
v -0.2499999 -0.310194 0.7787525
v 0.1860314 -2.564939 0.9413319
v -0.1306904 -1.348351 0.7787525
v -0.2499999 -0.7083272 0.9413319
v 0.1860314 -2.564939 0.9413319
v -0.2499999 -0.310194 0.7787525
v 0.5 -3.930583 0.9984221
v 0.75 -3.999999 0.9984221
v 0.2500001 -2.653407 0.9984221
v 0.7500001 -2.564939 0.9413319
v 0.75 2.000001 0.2499999
v 0.7500003 1.000001 0.25
v 0.7500002 1.000001 1.25
v 0.7500001 2 1.25
vt 0.890625 0.15625
vt 0.8754883 0.140625
vt 0.8754883 0.15625
vt 0.8828125 0.15625
vt 0.90625 0.125
vt 0.9003906 0.140625
vt 0.90625 0.140625
vt 0.9023438 0.125
vt 0.9003906 0.140625
vt 0.90625 0.125
vt 0.90625 0.109375
vt 0.9023438 0.125
vt 0.90625 0.125
vt 0.859375 0.09375
vt 0.859375 0.1557617
vt 0.84375 0.1557617
vt 0.84375 0.09375
vt 0.859375 0.1401367
vt 0.84375 0.1401367
vt 0.84375 0.1557617
vt 0.859375 0.1557617
vt 0.8595247 0.1564178
vt 0.8440105 0.1564178
vt 0.8440105 0.2183967
vt 0.8630437 0.1741087
vt 0.8731202 0.1891893
vt 0.8882008 0.1992658
vt 0.9059895 0.2028042
vt 0.9059895 0.2183967
vt 0.8595247 0.1564178
vt 0.8440105 0.2183967
vt 0.8440105 0.1564178
vt 0.8630437 0.1741087
vt 0.8731202 0.1891893
vt 0.8882008 0.1992658
vt 0.9059895 0.2028042
vt 0.9059895 0.2183967
vt 0.8754883 0.125
vt 0.8754883 0.140625
vt 0.9003906 0.140625
vt 0.9023438 0.125
vt 0.8754883 0.109375
vt 0.90625 0.109375
vt 0.8754883 0.09375
vt 0.90625 0.09375
vt 0.9467773 0.15625
vt 0.9516602 0.140625
vt 0.9506836 0.125
vt 0.90625 0.09375
vt 0.90625 0.15625
vt 0.9677734 0.109375
vt 0.96875 0.09375
vt 0.859375 0.109375
vt 0.84375 0.1245117
vt 0.859375 0.1245117
vt 0.84375 0.109375
vt 0.859375 0.09375
vt 0.84375 0.109375
vt 0.859375 0.109375
vt 0.84375 0.09375
vt 0.859375 0.1245117
vt 0.84375 0.1245117
vt 0.84375 0.1401367
vt 0.859375 0.1401367
vt 0.90625 0.15625
vt 0.90625 0.140625
vt 0.9003906 0.140625
vt 0.8984375 0.15625
vt 0.8984375 0.15625
vt 0.9003906 0.140625
vt 0.890625 0.15625
vt 0.8754883 0.140625
vt 0.890625 0.15625
vt 0.8754883 0.140625
vt 0.9003906 0.140625
vt 0.8984375 0.15625
vt 0.8984375 0.15625
vt 0.9003906 0.140625
vt 0.90625 0.15625
vt 0.90625 0.140625
vt 0.859375 0.1401367
vt 0.84375 0.1401367
vt 0.859375 0.1245117
vt 0.84375 0.1245117
vt 0.84375 0.109375
vt 0.84375 0.09375
vt 0.859375 0.09375
vt 0.859375 0.109375
vt 0.84375 0.1245117
vt 0.84375 0.109375
vt 0.859375 0.109375
vt 0.859375 0.1245117
vt 0.90625 0.09375
vt 0.96875 0.09375
vt 0.9677734 0.109375
vt 0.9506836 0.125
vt 0.9467773 0.15625
vt 0.90625 0.15625
vt 0.9516602 0.140625
vt 0.90625 0.09375
vt 0.90625 0.109375
vt 0.8754883 0.09375
vt 0.8754883 0.109375
vt 0.9023438 0.125
vt 0.8754883 0.125
vt 0.9003906 0.140625
vt 0.8754883 0.140625
vt 0.9059895 0.2183967
vt 0.9059895 0.2028042
vt 0.8440105 0.2183967
vt 0.8882008 0.1992658
vt 0.8731202 0.1891893
vt 0.8630437 0.1741087
vt 0.8595247 0.1564178
vt 0.8440105 0.1564178
vt 0.9059895 0.2183967
vt 0.8440105 0.2183967
vt 0.9059895 0.2028042
vt 0.8882008 0.1992658
vt 0.8731202 0.1891893
vt 0.8630437 0.1741087
vt 0.8595247 0.1564178
vt 0.8440105 0.1564178
vt 0.859375 0.1557617
vt 0.84375 0.1557617
vt 0.859375 0.1401367
vt 0.84375 0.1401367
vt 0.84375 0.09375
vt 0.84375 0.1557617
vt 0.859375 0.09375
vt 0.859375 0.1557617
vt 0.90625 0.125
vt 0.9023438 0.125
vt 0.90625 0.109375
vt 0.90625 0.125
vt 0.9003906 0.140625
vt 0.9023438 0.125
vt 0.90625 0.140625
vt 0.9003906 0.140625
vt 0.90625 0.125
vt 0.8828125 0.15625
vt 0.8754883 0.15625
vt 0.890625 0.15625
vt 0.8754883 0.140625
vt 0.890625 0.15625
vt 0.8754883 0.140625
vt 0.9003906 0.140625
vt 0.8984375 0.15625
vt 0.8984375 0.15625
vt 0.9003906 0.140625
vt 0.90625 0.15625
vt 0.90625 0.140625
vt 0.859375 0.1401367
vt 0.84375 0.1401367
vt 0.859375 0.1245117
vt 0.84375 0.1245117
vt 0.84375 0.109375
vt 0.84375 0.09375
vt 0.859375 0.09375
vt 0.859375 0.109375
vt 0.84375 0.1245117
vt 0.84375 0.109375
vt 0.859375 0.109375
vt 0.859375 0.1245117
vt 0.90625 0.09375
vt 0.96875 0.09375
vt 0.9677734 0.109375
vt 0.9506836 0.125
vt 0.9467773 0.15625
vt 0.90625 0.15625
vt 0.9516602 0.140625
vt 0.90625 0.09375
vt 0.90625 0.109375
vt 0.8754883 0.09375
vt 0.8754883 0.109375
vt 0.9023438 0.125
vt 0.8754883 0.125
vt 0.9003906 0.140625
vt 0.8754883 0.140625
vt 0.9059895 0.2183967
vt 0.9059895 0.2028042
vt 0.8440105 0.2183967
vt 0.8882008 0.1992658
vt 0.8731202 0.1891893
vt 0.8630437 0.1741087
vt 0.8595247 0.1564178
vt 0.8440105 0.1564178
vt 0.9059895 0.2183967
vt 0.8440105 0.2183967
vt 0.9059895 0.2028042
vt 0.8882008 0.1992658
vt 0.8731202 0.1891893
vt 0.8630437 0.1741087
vt 0.8595247 0.1564178
vt 0.8440105 0.1564178
vt 0.859375 0.1557617
vt 0.84375 0.1557617
vt 0.859375 0.1401367
vt 0.84375 0.1401367
vt 0.84375 0.09375
vt 0.84375 0.1557617
vt 0.859375 0.09375
vt 0.859375 0.1557617
vt 0.90625 0.125
vt 0.9023438 0.125
vt 0.90625 0.109375
vt 0.90625 0.125
vt 0.9003906 0.140625
vt 0.9023438 0.125
vt 0.90625 0.140625
vt 0.9003906 0.140625
vt 0.90625 0.125
vt 0.8828125 0.15625
vt 0.8754883 0.15625
vt 0.890625 0.15625
vt 0.8754883 0.140625
vt 0.96875 0.96875
vt 0.96875 0.84375
vt 0.84375 0.84375
vt 0.84375 0.96875
vn -0.9969706 -0.01993938 -0.07518058
vn -0.9969706 -0.01993938 -0.07518058
vn -0.9969706 -0.01993938 -0.07518058
vn -0.9969706 -0.01993938 -0.07518058
vn -0.4933608 -0.1439044 -0.8578384
vn -0.7692157 -0.1057617 -0.630176
vn -0.6388269 -0.1273052 -0.7587448
vn 0.7351589 -0.0554612 -0.6756223
vn 0.7351589 -0.0554612 -0.6756223
vn 0.7351589 -0.0554612 -0.6756223
vn 0.1054472 -0.08135763 -0.9910912
vn 0.1054472 -0.08135763 -0.9910912
vn 0.1054472 -0.08135763 -0.9910912
vn -1 0 0
vn -1 0 0
vn -1 0 0
vn -1 0 0
vn 0 -0.9320551 -0.3623164
vn 0 -0.9320551 -0.3623164
vn 0 -0.9320551 -0.3623164
vn 0 -0.9320551 -0.3623164
vn 0 0 1
vn 0 0 1
vn 0 0 1
vn 0 0 1
vn 0 0 1
vn 0 0 1
vn 0 0 1
vn 0 0 1
vn 0 0 -1
vn 0 0 -1
vn 0 0 -1
vn 0 0 -1
vn 0 0 -1
vn 0 0 -1
vn 0 0 -1
vn 0 0 -1
vn -0.9899495 -0.1414213 0
vn -0.9954752 -0.09502213 0
vn -0.9954752 -0.09502213 0
vn -0.9857208 -0.1683879 0
vn -0.9453555 -0.3260413 0
vn -0.936596 -0.3504113 0
vn -0.8122305 -0.5833367 0
vn -0.8122305 -0.5833367 0
vn 1 0 0
vn 1 0 0
vn 1 0 0
vn 1 0 0
vn 1 0 0
vn 1 0 0
vn 1 0 0
vn -0.1066277 -0.6307175 -0.768652
vn -0.7918187 -0.608583 -0.0514762
vn 0.3186427 -0.9285274 0.1905355
vn -0.1479064 -0.7345039 -0.6622897
vn -0.2390371 -0.3314859 -0.9126765
vn -0.1479064 -0.7345039 -0.6622897
vn -0.1066277 -0.6307175 -0.768652
vn -0.2390371 -0.3314859 -0.9126765
vn 0.0383075 -0.1330804 -0.9903647
vn 0.0383075 -0.1330804 -0.9903647
vn 0.0383075 -0.1330804 -0.9903647
vn 0.0383075 -0.1330804 -0.9903647
vn -0.8205941 -0.09460841 -0.5636263
vn -0.6388269 -0.1273052 -0.7587448
vn -0.7692157 -0.1057617 -0.630176
vn -0.8205941 -0.09460841 -0.5636263
vn -0.1479064 -0.7345039 -0.6622897
vn -0.8387572 -0.4990763 -0.2177368
vn -0.7918187 -0.608583 -0.0514762
vn -0.9081652 -0.418612 0
vn 0.7918187 -0.608583 -0.0514762
vn 0.9081652 -0.418612 0
vn 0.8387572 -0.4990763 -0.2177368
vn 0.1479064 -0.7345039 -0.6622897
vn 0.8205941 -0.09460841 -0.5636263
vn 0.7692157 -0.1057617 -0.630176
vn 0.8205941 -0.09460841 -0.5636263
vn 0.6388269 -0.1273052 -0.7587448
vn -0.0383075 -0.1330804 -0.9903647
vn -0.0383075 -0.1330804 -0.9903647
vn -0.0383075 -0.1330804 -0.9903647
vn -0.0383075 -0.1330804 -0.9903647
vn 0.1479064 -0.7345039 -0.6622897
vn 0.2390371 -0.3314859 -0.9126765
vn 0.2390371 -0.3314859 -0.9126765
vn 0.1066277 -0.6307175 -0.768652
vn 0.7918187 -0.608583 -0.0514762
vn 0.1479064 -0.7345039 -0.6622897
vn 0.1066277 -0.6307175 -0.768652
vn -0.3186427 -0.9285274 0.1905355
vn -1 0 0
vn -1 0 0
vn -1 0 0
vn -1 0 0
vn -1 0 0
vn -1 0 0
vn -1 0 0
vn 0.8122305 -0.5833367 0
vn 0.936596 -0.3504113 0
vn 0.8122305 -0.5833367 0
vn 0.9453555 -0.3260413 0
vn 0.9857208 -0.1683879 0
vn 0.9899495 -0.1414213 0
vn 0.9954752 -0.09502213 0
vn 0.9954752 -0.09502213 0
vn 0 0 -1
vn 0 0 -1
vn 0 0 -1
vn 0 0 -1
vn 0 0 -1
vn 0 0 -1
vn 0 0 -1
vn 0 0 -1
vn 0 0 1
vn 0 0 1
vn 0 0 1
vn 0 0 1
vn 0 0 1
vn 0 0 1
vn 0 0 1
vn 0 0 1
vn 0 -0.9320551 -0.3623164
vn 0 -0.9320551 -0.3623164
vn 0 -0.9320551 -0.3623164
vn 0 -0.9320551 -0.3623164
vn 1 0 0
vn 1 0 0
vn 1 0 0
vn 1 0 0
vn -0.1054472 -0.08135763 -0.9910912
vn -0.1054472 -0.08135763 -0.9910912
vn -0.1054472 -0.08135763 -0.9910912
vn -0.7351589 -0.0554612 -0.6756223
vn -0.7351589 -0.0554612 -0.6756223
vn -0.7351589 -0.0554612 -0.6756223
vn 0.6388269 -0.1273052 -0.7587448
vn 0.7692157 -0.1057617 -0.630176
vn 0.4933608 -0.1439044 -0.8578384
vn 0.9969706 -0.01993938 -0.07518058
vn 0.9969706 -0.01993938 -0.07518058
vn 0.9969706 -0.01993938 -0.07518058
vn 0.9969706 -0.01993938 -0.07518058
vn -0.04421281 -0.7317939 -0.6800904
vn -6.463775E-08 -0.5422208 -0.8402361
vn -0.1956033 -0.6276816 -0.7534953
vn -0.5375566 -0.8346381 -0.1200502
vn -0.5612202 -0.1318863 -0.817091
vn -0.6268196 -0.1472776 -0.7651187
vn -0.5612202 -0.1318863 -0.817091
vn -0.7529104 -0.1768567 -0.6339146
vn -0.9820514 -0.1847485 0.03798594
vn -0.9820514 -0.1847485 0.03798594
vn -0.9820514 -0.1847485 0.03798594
vn -0.9820514 -0.1847485 0.03798594
vn -0.5375566 -0.8346381 -0.1200502
vn -0.8680404 -0.4413835 -0.2273465
vn -0.8680404 -0.4413835 -0.2273465
vn -0.653872 -0.7511485 -0.0907054
vn -0.04421281 -0.7317939 -0.6800904
vn -0.5375566 -0.8346381 -0.1200502
vn -0.653872 -0.7511485 -0.0907054
vn 0.1409373 -0.9615527 0.2356971
vn 0 0 1
vn 0 0 1
vn 0 0 1
vn 0 0 1
vn 0 0 1
vn 0 0 1
vn 0 0 1
vn -8.452317E-08 -0.7090319 -0.7051764
vn -5.531198E-08 -0.4639906 -0.8858401
vn -8.452317E-08 -0.7090319 -0.7051764
vn -5.183342E-08 -0.4348103 -0.9005221
vn -2.77279E-08 -0.2325985 -0.9725729
vn -2.337885E-08 -0.1961161 -0.9805807
vn -1.579024E-08 -0.1324581 -0.9911886
vn -1.579024E-08 -0.1324581 -0.9911886
vn -1 1.192093E-07 0
vn -1 1.192093E-07 0
vn -1 1.192093E-07 0
vn -1 1.192093E-07 0
vn -1 1.192093E-07 0
vn -1 1.192093E-07 0
vn -1 1.192093E-07 0
vn -1 1.192093E-07 0
vn 1 -1.192093E-07 0
vn 1 -1.192093E-07 0
vn 1 -1.192093E-07 0
vn 1 -1.192093E-07 0
vn 1 -1.192093E-07 0
vn 1 -1.192093E-07 0
vn 1 -1.192093E-07 0
vn 1 -1.192093E-07 0
vn -0.2675415 -0.9635463 0
vn -0.2675415 -0.9635463 0
vn -0.2675415 -0.9635463 0
vn -0.2675415 -0.9635463 0
vn 0 0 -1
vn 0 0 -1
vn 0 0 -1
vn 0 0 -1
vn -0.9879574 -0.1135404 0.1051138
vn -0.9879574 -0.1135404 0.1051138
vn -0.9879574 -0.1135404 0.1051138
vn -0.6746269 -0.07753122 0.7340758
vn -0.6746269 -0.07753122 0.7340758
vn -0.6746269 -0.07753122 0.7340758
vn -0.7529104 -0.1768567 -0.6339146
vn -0.6268196 -0.1472776 -0.7651187
vn -0.8494365 -0.1994929 -0.4885287
vn -0.07516623 -0.02790979 -0.9967803
vn -0.07516623 -0.02790979 -0.9967803
vn -0.07516623 -0.02790979 -0.9967803
vn -0.07516623 -0.02790979 -0.9967803
vn 1 0 -1.192093E-07
vn 1 0 -1.192093E-07
vn 1 0 -1.192093E-07
vn 1 0 -1.192093E-07
g _Combined_Vis61_1_0
f 3/3/3 2/2/2 1/1/1
f 4/4/4 3/3/3 1/1/1
f 7/7/7 6/6/6 5/5/5
f 10/10/10 9/9/9 8/8/8
f 13/13/13 12/12/12 11/11/11
f 16/16/16 15/15/15 14/14/14
f 17/17/17 16/16/16 14/14/14
f 20/20/20 19/19/19 18/18/18
f 21/21/21 20/20/20 18/18/18
f 24/24/24 23/23/23 22/22/22
f 25/25/25 24/24/24 22/22/22
f 25/25/25 26/26/26 24/24/24
f 27/27/27 24/24/24 26/26/26
f 24/24/24 27/27/27 28/28/28
f 29/29/29 24/24/24 28/28/28
f 32/32/32 31/31/31 30/30/30
f 31/31/31 33/33/33 30/30/30
f 33/33/33 31/31/31 34/34/34
f 35/35/35 34/34/34 31/31/31
f 36/36/36 35/35/35 31/31/31
f 37/37/37 36/36/36 31/31/31
f 40/40/40 39/39/39 38/38/38
f 41/41/41 40/40/40 38/38/38
f 41/41/41 38/38/38 42/42/42
f 43/43/43 41/41/41 42/42/42
f 43/43/43 42/42/42 44/44/44
f 45/45/45 43/43/43 44/44/44
f 48/48/48 47/47/47 46/46/46
f 48/48/48 46/46/46 49/49/49
f 46/46/46 50/50/50 49/49/49
f 51/51/51 48/48/48 49/49/49
f 49/49/49 52/52/52 51/51/51
f 55/55/55 54/54/54 53/53/53
f 54/54/54 56/56/56 53/53/53
f 59/59/59 58/58/58 57/57/57
f 58/58/58 60/60/60 57/57/57
f 63/63/63 62/62/62 61/61/61
f 64/64/64 63/63/63 61/61/61
f 67/67/67 66/66/66 65/65/65
f 68/68/68 67/67/67 65/65/65
f 71/71/71 70/70/70 69/69/69
f 71/71/71 72/72/72 70/70/70
f 75/75/75 74/74/74 73/73/73
f 76/76/76 75/75/75 73/73/73
f 79/79/79 78/78/78 77/77/77
f 79/79/79 80/80/80 78/78/78
f 83/83/83 82/82/82 81/81/81
f 83/83/83 84/84/84 82/82/82
f 87/87/87 86/86/86 85/85/85
f 87/87/87 85/85/85 88/88/88
f 91/91/91 90/90/90 89/89/89
f 91/91/91 89/89/89 92/92/92
f 95/95/95 94/94/94 93/93/93
f 93/93/93 96/96/96 95/95/95
f 93/93/93 98/98/98 97/97/97
f 93/93/93 97/97/97 96/96/96
f 97/97/97 99/99/99 96/96/96
f 102/102/102 101/101/101 100/100/100
f 102/102/102 103/103/103 101/101/101
f 103/103/103 104/104/104 101/101/101
f 103/103/103 105/105/105 104/104/104
f 105/105/105 106/106/106 104/104/104
f 105/105/105 107/107/107 106/106/106
f 110/110/110 109/109/109 108/108/108
f 110/110/110 111/111/111 109/109/109
f 110/110/110 112/112/112 111/111/111
f 112/112/112 110/110/110 113/113/113
f 114/114/114 113/113/113 110/110/110
f 114/114/114 110/110/110 115/115/115
f 118/118/118 117/117/117 116/116/116
f 118/118/118 119/119/119 117/117/117
f 120/120/120 117/117/117 119/119/119
f 117/117/117 120/120/120 121/121/121
f 122/122/122 117/117/117 121/121/121
f 122/122/122 123/123/123 117/117/117
f 126/126/126 125/125/125 124/124/124
f 126/126/126 127/127/127 125/125/125
f 130/130/130 129/129/129 128/128/128
f 130/130/130 131/131/131 129/129/129
f 134/134/134 133/133/133 132/132/132
f 137/137/137 136/136/136 135/135/135
f 140/140/140 139/139/139 138/138/138
f 143/143/143 142/142/142 141/141/141
f 143/143/143 144/144/144 142/142/142
f 147/147/147 146/146/146 145/145/145
f 148/148/148 147/147/147 145/145/145
f 151/151/151 150/150/150 149/149/149
f 151/151/151 152/152/152 150/150/150
f 155/155/155 154/154/154 153/153/153
f 155/155/155 156/156/156 154/154/154
f 159/159/159 158/158/158 157/157/157
f 159/159/159 157/157/157 160/160/160
f 163/163/163 162/162/162 161/161/161
f 163/163/163 161/161/161 164/164/164
f 167/167/167 166/166/166 165/165/165
f 165/165/165 168/168/168 167/167/167
f 165/165/165 170/170/170 169/169/169
f 165/165/165 169/169/169 168/168/168
f 169/169/169 171/171/171 168/168/168
f 174/174/174 173/173/173 172/172/172
f 174/174/174 175/175/175 173/173/173
f 175/175/175 176/176/176 173/173/173
f 175/175/175 177/177/177 176/176/176
f 177/177/177 178/178/178 176/176/176
f 177/177/177 179/179/179 178/178/178
f 182/182/182 181/181/181 180/180/180
f 182/182/182 183/183/183 181/181/181
f 182/182/182 184/184/184 183/183/183
f 184/184/184 182/182/182 185/185/185
f 186/186/186 185/185/185 182/182/182
f 186/186/186 182/182/182 187/187/187
f 190/190/190 189/189/189 188/188/188
f 190/190/190 191/191/191 189/189/189
f 192/192/192 189/189/189 191/191/191
f 189/189/189 192/192/192 193/193/193
f 194/194/194 189/189/189 193/193/193
f 194/194/194 195/195/195 189/189/189
f 198/198/198 197/197/197 196/196/196
f 198/198/198 199/199/199 197/197/197
f 202/202/202 201/201/201 200/200/200
f 202/202/202 203/203/203 201/201/201
f 206/206/206 205/205/205 204/204/204
f 209/209/209 208/208/208 207/207/207
f 212/212/212 211/211/211 210/210/210
f 215/215/215 214/214/214 213/213/213
f 215/215/215 216/216/216 214/214/214
f 219/219/219 218/218/218 217/217/217
f 220/220/220 219/219/219 217/217/217
