g _Combined_Vis18_0
v -0.4999979 1.639128E-06 -0.4999944
v -0.4999979 1.847744E-06 0.500006
v -0.4999979 -0.2499982 0.500006
v -0.4999979 -0.2499984 -0.4999944
v 0.5000015 1.907348E-06 0.500006
v 0.5000035 1.698732E-06 -0.4999943
v 0.5000024 -0.2499983 -0.4999943
v 0.5000024 -0.2499981 0.500006
v -0.4999979 1.847744E-06 0.500006
v 0.5000015 1.907348E-06 0.500006
v 0.5000024 -0.2499981 0.500006
v -0.4999979 -0.2499982 0.500006
v 0.5000035 1.698732E-06 -0.4999943
v -0.4999979 1.639128E-06 -0.4999944
v -0.4999979 -0.2499984 -0.4999944
v 0.5000024 -0.2499983 -0.4999943
v 0.5000024 -0.2499983 -0.4999943
v -0.4999979 -0.2499984 -0.4999944
v -0.4999979 -0.2499982 0.500006
v 0.5000024 -0.2499981 0.500006
vt 0.21875 0.328125
vt 0.34375 0.328125
vt 0.34375 0.3125
vt 0.21875 0.3125
vt 0.21875 0.328125
vt 0.34375 0.328125
vt 0.34375 0.3125
vt 0.21875 0.3125
vt 0.21875 0.328125
vt 0.34375 0.328125
vt 0.34375 0.3125
vt 0.21875 0.3125
vt 0.21875 0.328125
vt 0.34375 0.328125
vt 0.34375 0.3125
vt 0.21875 0.3125
vt 0.3125 0.3125
vt 0.21875 0.3125
vt 0.21875 0.265625
vt 0.3125 0.265625
vn -1 -5.960463E-08 -5.960464E-08
vn -1 -5.960463E-08 -5.960464E-08
vn -1 -5.960463E-08 -5.960464E-08
vn -1 -5.960463E-08 -5.960464E-08
vn 1 5.960463E-08 5.960464E-08
vn 1 5.960463E-08 5.960464E-08
vn 1 5.960463E-08 5.960464E-08
vn 1 5.960463E-08 5.960464E-08
vn 5.960464E-08 2.086162E-07 1
vn 5.960464E-08 2.086162E-07 1
vn 5.960464E-08 2.086162E-07 1
vn 5.960464E-08 2.086162E-07 1
vn -5.960464E-08 -2.086162E-07 -1
vn -5.960464E-08 -2.086162E-07 -1
vn -5.960464E-08 -2.086162E-07 -1
vn -5.960464E-08 -2.086162E-07 -1
vn -2.980233E-08 -1 3.552714E-14
vn -2.980233E-08 -1 3.552714E-14
vn -2.980233E-08 -1 3.552714E-14
vn -2.980233E-08 -1 3.552714E-14
g _Combined_Vis18_0_0
f 3/3/3 2/2/2 1/1/1
f 4/4/4 3/3/3 1/1/1
f 7/7/7 6/6/6 5/5/5
f 8/8/8 7/7/7 5/5/5
f 11/11/11 10/10/10 9/9/9
f 12/12/12 11/11/11 9/9/9
f 15/15/15 14/14/14 13/13/13
f 16/16/16 15/15/15 13/13/13
f 19/19/19 18/18/18 17/17/17
f 20/20/20 19/19/19 17/17/17
