g _Combined_Vis16_0
v 9.040101E-05 0.5006719 -0.500349
v 9.04167E-05 -0.4993289 -0.5003485
v 0.2500907 -0.4993289 -0.5003486
v 0.2500907 0.5006719 -0.500349
v 9.04763E-05 -0.4993294 0.499651
v 9.046061E-05 0.5006714 0.4996526
v 0.2500908 0.5006714 0.4996516
v 0.2500908 -0.4993294 0.4996521
v 9.04167E-05 -0.4993289 -0.5003485
v 9.04763E-05 -0.4993294 0.499651
v 0.2500908 -0.4993294 0.4996521
v 0.2500907 -0.4993289 -0.5003486
v 9.046061E-05 0.5006714 0.4996526
v 9.040101E-05 0.5006719 -0.500349
v 0.2500907 0.5006719 -0.500349
v 0.2500908 0.5006714 0.4996516
v 0.2500908 0.5006714 0.4996516
v 0.2500907 0.5006719 -0.500349
v 0.2500907 -0.4993289 -0.5003486
v 0.2500908 -0.4993294 0.4996521
v 9.037094E-05 -0.3743291 0.249652
v 0.1250906 -0.3743291 0.249652
v 0.1250905 -0.2493291 0.3746521
v 9.0319E-05 -0.2493291 0.374652
v 9.050637E-05 0.3756717 -0.2503489
v 0.1250907 0.3756717 -0.2503489
v 0.1250907 0.2506716 -0.3753489
v 9.055831E-05 0.2506716 -0.3753489
v 9.058722E-05 -0.2493288 -0.3753486
v 0.1250908 -0.2493288 -0.3753486
v 0.1250907 -0.374329 -0.2503484
v 9.054975E-05 -0.374329 -0.2503484
v 9.054975E-05 -0.374329 -0.2503484
v 0.1250907 -0.374329 -0.2503484
v 0.1250906 -0.3743291 0.249652
v 9.037094E-05 -0.3743291 0.249652
v 9.029009E-05 0.2506713 0.3746517
v 0.1250905 0.2506713 0.3746517
v 0.1250905 0.3756715 0.2496516
v 9.032756E-05 0.3756715 0.2496515
v 9.055831E-05 0.2506716 -0.3753489
v 0.1250907 0.2506716 -0.3753489
v 0.1250908 -0.2493288 -0.3753486
v 9.058722E-05 -0.2493288 -0.3753486
v 9.032756E-05 0.3756715 0.2496515
v 0.1250905 0.3756715 0.2496516
v 0.1250907 0.3756717 -0.2503489
v 9.050637E-05 0.3756717 -0.2503489
v 9.0319E-05 -0.2493291 0.374652
v 0.1250905 -0.2493291 0.3746521
v 0.1250905 0.2506713 0.3746517
v 9.029009E-05 0.2506713 0.3746517
v 9.054975E-05 -0.374329 -0.2503484
v 9.04167E-05 -0.4993289 -0.5003485
v 9.058722E-05 -0.2493288 -0.3753486
v 9.037094E-05 -0.3743291 0.249652
v 9.040101E-05 0.5006719 -0.500349
v 9.055831E-05 0.2506716 -0.3753489
v 9.050637E-05 0.3756717 -0.2503489
v 9.04763E-05 -0.4993294 0.499651
v 9.0319E-05 -0.2493291 0.374652
v 9.029009E-05 0.2506713 0.3746517
v 9.046061E-05 0.5006714 0.4996526
v 9.032756E-05 0.3756715 0.2496515
vt 0.65625 0.40625
vt 0.78125 0.40625
vt 0.78125 0.375
vt 0.65625 0.375
vt 0.65625 0.40625
vt 0.78125 0.40625
vt 0.78125 0.375
vt 0.65625 0.375
vt 0.65625 0.40625
vt 0.78125 0.40625
vt 0.78125 0.375
vt 0.65625 0.375
vt 0.65625 0.40625
vt 0.78125 0.40625
vt 0.78125 0.375
vt 0.65625 0.375
vt 0.75 0.375
vt 0.65625 0.375
vt 0.65625 0.28125
vt 0.75 0.28125
vt 0.7384375 0.3483794
vt 0.7384375 0.3385356
vt 0.7482812 0.3385356
vt 0.7482812 0.3483794
vt 0.6990625 0.3483794
vt 0.6990625 0.3385356
vt 0.6892188 0.3385356
vt 0.6892188 0.3483794
vt 0.6892188 0.3483794
vt 0.6892188 0.3385356
vt 0.6990625 0.3385356
vt 0.6990625 0.3483794
vt 0.6990625 0.3483794
vt 0.6990625 0.3385356
vt 0.7384375 0.3385356
vt 0.7384375 0.3483794
vt 0.7482812 0.3483794
vt 0.7482812 0.3385356
vt 0.7384375 0.3385356
vt 0.7384375 0.3483794
vt 0.7384375 0.3483794
vt 0.7384375 0.3385356
vt 0.6990625 0.3385356
vt 0.6990625 0.3483794
vt 0.7384375 0.3483794
vt 0.7384375 0.3385356
vt 0.6990625 0.3385356
vt 0.6990625 0.3483794
vt 0.6990625 0.3483794
vt 0.6990625 0.3385356
vt 0.7384375 0.3385356
vt 0.7384375 0.3483794
vt 0.6875 0.296875
vt 0.65625 0.28125
vt 0.671875 0.3125
vt 0.75 0.296875
vt 0.65625 0.40625
vt 0.671875 0.375
vt 0.6875 0.390625
vt 0.78125 0.28125
vt 0.765625 0.3125
vt 0.765625 0.375
vt 0.78125 0.40625
vt 0.75 0.390625
vn -5.960467E-08 4.76837E-07 -1
vn -5.960467E-08 4.76837E-07 -1
vn -5.960467E-08 4.76837E-07 -1
vn -5.960467E-08 4.76837E-07 -1
vn 5.960467E-08 -4.76837E-07 1
vn 5.960467E-08 -4.76837E-07 1
vn 5.960467E-08 -4.76837E-07 1
vn 5.960467E-08 -4.76837E-07 1
vn 1.568981E-08 -1 4.768369E-07
vn 1.568981E-08 -1 4.768369E-07
vn 1.568981E-08 -1 4.768369E-07
vn 1.568981E-08 -1 4.768369E-07
vn -1.568981E-08 1 -4.768369E-07
vn -1.568981E-08 1 -4.768369E-07
vn -1.568981E-08 1 -4.768369E-07
vn -1.568981E-08 1 -4.768369E-07
vn 1 1.568976E-08 -5.960462E-08
vn 1 1.568976E-08 -5.960462E-08
vn 1 1.568976E-08 -5.960462E-08
vn 1 1.568976E-08 -5.960462E-08
vn 2.119845E-07 0.7071068 -0.7071068
vn 2.119845E-07 0.7071068 -0.7071068
vn 2.119845E-07 0.7071068 -0.7071068
vn 2.119845E-07 0.7071068 -0.7071068
vn -2.119845E-07 -0.7071068 0.7071068
vn -2.119845E-07 -0.7071068 0.7071068
vn -2.119845E-07 -0.7071068 0.7071068
vn -2.119845E-07 -0.7071068 0.7071068
vn -2.937781E-07 0.7071069 0.7071066
vn -2.937781E-07 0.7071069 0.7071066
vn -2.937781E-07 0.7071069 0.7071066
vn -2.937781E-07 0.7071069 0.7071066
vn -5.783666E-08 1 -6.032774E-07
vn -5.783666E-08 1 -6.032774E-07
vn -5.783666E-08 1 -6.032774E-07
vn -5.783666E-08 1 -6.032774E-07
vn 2.937781E-07 -0.7071069 -0.7071066
vn 2.937781E-07 -0.7071069 -0.7071066
vn 2.937781E-07 -0.7071069 -0.7071066
vn 2.937781E-07 -0.7071069 -0.7071066
vn -3.576282E-07 -3.503966E-07 1
vn -3.576282E-07 -3.503966E-07 1
vn -3.576282E-07 -3.503966E-07 1
vn -3.576282E-07 -3.503966E-07 1
vn 5.783666E-08 -1 6.032774E-07
vn 5.783666E-08 -1 6.032774E-07
vn 5.783666E-08 -1 6.032774E-07
vn 5.783666E-08 -1 6.032774E-07
vn 3.576282E-07 3.503966E-07 -1
vn 3.576282E-07 3.503966E-07 -1
vn 3.576282E-07 3.503966E-07 -1
vn 3.576282E-07 3.503966E-07 -1
vn -1 -5.783642E-08 -3.576276E-07
vn -1 -5.783642E-08 -3.576276E-07
vn -1 -5.783642E-08 -3.576276E-07
vn -1 -5.783642E-08 -3.576276E-07
vn -1 -5.783642E-08 -3.576276E-07
vn -1 -5.783642E-08 -3.576276E-07
vn -1 -5.783642E-08 -3.576276E-07
vn -1 -5.783642E-08 -3.576276E-07
vn -1 -5.783642E-08 -3.576276E-07
vn -1 -5.783642E-08 -3.576276E-07
vn -1 -5.783642E-08 -3.576276E-07
vn -1 -5.783642E-08 -3.576276E-07
g _Combined_Vis16_0_0
f 3/3/3 2/2/2 1/1/1
f 4/4/4 3/3/3 1/1/1
f 7/7/7 6/6/6 5/5/5
f 8/8/8 7/7/7 5/5/5
f 11/11/11 10/10/10 9/9/9
f 12/12/12 11/11/11 9/9/9
f 15/15/15 14/14/14 13/13/13
f 16/16/16 15/15/15 13/13/13
f 19/19/19 18/18/18 17/17/17
f 20/20/20 19/19/19 17/17/17
f 23/23/23 22/22/22 21/21/21
f 24/24/24 23/23/23 21/21/21
f 27/27/27 26/26/26 25/25/25
f 28/28/28 27/27/27 25/25/25
f 31/31/31 30/30/30 29/29/29
f 32/32/32 31/31/31 29/29/29
f 35/35/35 34/34/34 33/33/33
f 36/36/36 35/35/35 33/33/33
f 39/39/39 38/38/38 37/37/37
f 40/40/40 39/39/39 37/37/37
f 43/43/43 42/42/42 41/41/41
f 44/44/44 43/43/43 41/41/41
f 47/47/47 46/46/46 45/45/45
f 48/48/48 47/47/47 45/45/45
f 51/51/51 50/50/50 49/49/49
f 52/52/52 51/51/51 49/49/49
f 55/55/55 54/54/54 53/53/53
f 53/53/53 54/54/54 56/56/56
f 54/54/54 55/55/55 57/57/57
f 55/55/55 58/58/58 57/57/57
f 57/57/57 58/58/58 59/59/59
f 54/54/54 60/60/60 56/56/56
f 56/56/56 60/60/60 61/61/61
f 61/61/61 60/60/60 62/62/62
f 57/57/57 59/59/59 63/63/63
f 60/60/60 63/63/63 62/62/62
f 59/59/59 64/64/64 63/63/63
f 62/62/62 63/63/63 64/64/64
