g _Combined_WaterVis7_0
v 0.124988 -1.147688E-05 0.6250758
v 0.4999881 -1.147688E-05 0.6250758
v 0.499988 -1.141131E-05 1.375076
v 0.437488 -1.141131E-05 1.375076
v -0.3750122 -1.147688E-05 0.6250759
v 0.374988 -1.141131E-05 1.375076
v -0.3750122 -1.143316E-05 1.125076
v 0.374988 -1.140584E-05 1.437576
v -0.3750123 -1.140038E-05 1.500076
v 0.374988 -1.140038E-05 1.500076
v -0.09718512 -0.05002246 0.9271959
v 0.09716094 -0.05002246 1.000076
v -0.09718514 -0.05002245 1.072956
v 6.625003 0 5.500001
v 6.625003 0 4.500001
v 7.375003 0 4.500001
v 7.375003 0 5.500001
v 6.927124 0.050011 5.097174
v 7.000003 0.050011 4.902828
v 7.072883 0.050011 5.097174
v 0.3750028 0 4.5
v 0.3750028 0 5.5
v -0.3749974 0 5.5
v -0.3749974 0 4.5
v 0.0728827 0.050011 4.902827
v 2.682209E-06 0.050011 5.097173
v -0.07287733 0.050011 4.902827
v 6.625003 0 8.500001
v 6.625003 0 7.500001
v 7.375003 0 7.500001
v 7.375003 0 8.500001
v 6.927124 0.050011 8.097174
v 7.000003 0.050011 7.902828
v 7.072883 0.050011 8.097174
v 6.625003 0 6.500001
v 6.625003 0 5.500001
v 7.375003 0 5.500001
v 7.375003 0 6.500001
v 6.927124 0.050011 6.097174
v 7.000003 0.050011 5.902828
v 7.072883 0.050011 6.097174
v 6.625003 0 7.500001
v 6.625003 0 6.500001
v 7.375003 0 6.500001
v 7.375003 0 7.500001
v 6.927124 0.050011 7.097174
v 7.000003 0.050011 6.902828
v 7.072883 0.050011 7.097174
v 6.624988 -1.144409E-05 8.875077
v 6.625003 0 8.500001
v 7.375003 0 8.500001
v 7.374988 -1.144409E-05 8.562577
v 6.624988 -1.144409E-05 9.375077
v 7.374988 -1.144409E-05 8.625077
v 7.124988 -1.144409E-05 9.375077
v 7.437488 -1.144409E-05 8.625077
v 7.499988 -1.144409E-05 9.375077
v 7.499988 -1.144409E-05 8.625077
v 6.927108 -0.05002245 9.09725
v 6.999988 -0.05002245 8.902905
v 7.072867 -0.05002245 9.09725
v 14.5 0 9.375002
v 13.5 0 9.375002
v 13.5 0 8.625002
v 14.5 0 8.625002
v 14.09718 0.050011 9.072882
v 13.90283 0.050011 9.000002
v 14.09718 0.050011 8.927122
v 12.5 0 9.375002
v 11.5 0 9.375002
v 11.5 0 8.625002
v 12.5 0 8.625002
v 12.09718 0.050011 9.072882
v 11.90283 0.050011 9.000002
v 12.09718 0.050011 8.927122
v 11.5 0 9.375002
v 10.5 0 9.375002
v 10.5 0 8.625002
v 11.5 0 8.625002
v 11.09718 0.050011 9.072882
v 10.90283 0.050011 9.000002
v 11.09718 0.050011 8.927122
v 10.5 0 9.375002
v 9.500004 0 9.375002
v 9.500004 0 8.625002
v 10.5 0 8.625002
v 10.09718 0.050011 9.072882
v 9.902831 0.050011 9.000002
v 10.09718 0.050011 8.927122
v 0.3750029 0 3.5
v 0.3750028 0 4.5
v -0.3749974 0 4.5
v -0.3749973 0 3.5
v 0.07288282 0.050011 3.902827
v 2.801418E-06 0.050011 4.097173
v -0.07287721 0.050011 3.902827
v 13.5 0 9.375002
v 12.5 0 9.375002
v 12.5 0 8.625002
v 13.5 0 8.625002
v 13.09718 0.050011 9.072882
v 12.90283 0.050011 9.000002
v 13.09718 0.050011 8.927122
v 0.374988 -1.140038E-05 1.500076
v 0.3750031 0 2.5
v -0.374997 0 2.5
v -0.3750123 -1.140038E-05 1.500076
v 0.07288305 0.050011 1.902827
v 3.039837E-06 0.050011 2.097173
v -0.07287697 0.050011 1.902827
v 1.500004 0 1.375
v 0.499988 -1.141131E-05 1.375076
v 0.4999881 -1.147688E-05 0.6250758
v 1.500003 0 0.6249995
v 1.097176 0.050011 1.07288
v 0.9028303 0.050011 0.9999997
v 1.097176 0.050011 0.9271197
v 7.374989 -1.144409E-05 1.125077
v 7.374989 -1.144409E-05 1.500077
v 6.624989 -1.144409E-05 1.500077
v 6.624989 -1.144409E-05 1.437577
v 7.374989 -1.144409E-05 0.6250766
v 6.624989 -1.144409E-05 1.375077
v 6.874989 -1.144409E-05 0.6250767
v 6.562489 -1.144409E-05 1.375077
v 6.499989 -1.144409E-05 0.6250768
v 6.499989 -1.144409E-05 1.375077
v 7.072868 0.04999956 0.9029037
v 6.999989 0.04999956 1.09725
v 6.927108 0.04999956 0.9029038
v 2.500004 0 1.375
v 1.500004 0 1.375
v 1.500003 0 0.6249995
v 2.500004 0 0.6249996
v 2.097176 0.050011 1.07288
v 1.90283 0.050011 0.9999998
v 2.097176 0.050011 0.9271198
v 3.500004 0 1.375
v 2.500004 0 1.375
v 2.500004 0 0.6249996
v 3.500004 0 0.6249998
v 3.097177 0.050011 1.07288
v 2.902831 0.050011 0.9999999
v 3.097177 0.050011 0.9271199
v 4.500004 0 1.375
v 3.500004 0 1.375
v 3.500004 0 0.6249998
v 4.500004 0 0.6249998
v 4.097177 0.050011 1.07288
v 3.902831 0.050011 1
v 4.097177 0.050011 0.92712
v 5.500004 0 1.375
v 4.500004 0 1.375
v 4.500004 0 0.6249998
v 5.500004 0 0.6250001
v 5.097177 0.050011 1.07288
v 4.902831 0.050011 1
v 5.097177 0.050011 0.9271202
v 6.499989 -1.144409E-05 1.375077
v 5.500004 0 1.375
v 5.500004 0 0.6250001
v 6.499989 -1.144409E-05 0.6250768
v 6.097177 0.050011 1.07288
v 5.902831 0.050011 1
v 6.097177 0.050011 0.9271202
v 9.500004 0 9.375002
v 8.500003 0 9.375002
v 8.500003 0 8.625002
v 9.500004 0 8.625002
v 9.097176 0.050011 9.072882
v 8.90283 0.050011 9.000002
v 9.097176 0.050011 8.927122
v 6.625004 0 2.5
v 6.624989 -1.144409E-05 1.500077
v 7.374989 -1.144409E-05 1.500077
v 7.375004 0 2.5
v 6.927124 0.050011 2.097173
v 7.000004 0.050011 1.902828
v 7.072884 0.050011 2.097173
v 6.625003 0 3.500001
v 6.625004 0 2.5
v 7.375004 0 2.5
v 7.375004 0 3.500001
v 6.927124 0.050011 3.097174
v 7.000004 0.050011 2.902828
v 7.072884 0.050011 3.097174
v 6.625003 0 4.500001
v 6.625003 0 3.500001
v 7.375004 0 3.500001
v 7.375003 0 4.500001
v 6.927124 0.050011 4.097174
v 7.000004 0.050011 3.902828
v 7.072884 0.050011 4.097174
v 0.3750031 0 2.5
v 0.3750029 0 3.5
v -0.3749973 0 3.5
v -0.374997 0 2.5
v 0.07288294 0.050011 2.902827
v 2.920628E-06 0.050011 3.097173
v -0.07287709 0.050011 2.902827
v 8.500003 0 9.375002
v 7.499988 -1.144409E-05 9.375077
v 7.499988 -1.144409E-05 8.625077
v 8.500003 0 8.625002
v 8.097176 0.050011 9.072882
v 7.90283 0.050011 9.000002
v 8.097176 0.050011 8.927122
vt 0.875 0.249971
vt 0.875 0
vt 0.125 0
vt 0.125 0.249971
vt 0.875 0.499942
vt 0.125 0.499942
vt 0.875 0.749914
vt 0.125 0.749914
vt 0.875 0.999885
vt 0.125 0.999885
vt 0 0
vt 0 0
vt 0 0
vt 0.875 0.999885
vt 0.875 0
vt 0.125 0
vt 0.125 0.999885
vt 0 0
vt 0 0
vt 0 0
vt 0.875 0.999885
vt 0.875 0
vt 0.125 0
vt 0.125 0.999885
vt 0 0
vt 0 0
vt 0 0
vt 0.875 0.999885
vt 0.875 0
vt 0.125 0
vt 0.125 0.999885
vt 0 0
vt 0 0
vt 0 0
vt 0.875 0.999885
vt 0.875 0
vt 0.125 0
vt 0.125 0.999885
vt 0 0
vt 0 0
vt 0 0
vt 0.875 0.999885
vt 0.875 0
vt 0.125 0
vt 0.125 0.999885
vt 0 0
vt 0 0
vt 0 0
vt 0.875 0.249971
vt 0.875 0
vt 0.125 0
vt 0.125 0.249971
vt 0.875 0.499942
vt 0.125 0.499942
vt 0.875 0.749914
vt 0.125 0.749914
vt 0.875 0.999885
vt 0.125 0.999885
vt 0 0
vt 0 0
vt 0 0
vt 0.875 0.999885
vt 0.875 0
vt 0.125 0
vt 0.125 0.999885
vt 0 0
vt 0 0
vt 0 0
vt 0.875 0.999885
vt 0.875 0
vt 0.125 0
vt 0.125 0.999885
vt 0 0
vt 0 0
vt 0 0
vt 0.875 0.999885
vt 0.875 0
vt 0.125 0
vt 0.125 0.999885
vt 0 0
vt 0 0
vt 0 0
vt 0.875 0.999885
vt 0.875 0
vt 0.125 0
vt 0.125 0.999885
vt 0 0
vt 0 0
vt 0 0
vt 0.875 0.999885
vt 0.875 0
vt 0.125 0
vt 0.125 0.999885
vt 0 0
vt 0 0
vt 0 0
vt 0.875 0.999885
vt 0.875 0
vt 0.125 0
vt 0.125 0.999885
vt 0 0
vt 0 0
vt 0 0
vt 0.875 0.999885
vt 0.875 0
vt 0.125 0
vt 0.125 0.999885
vt 0 0
vt 0 0
vt 0 0
vt 0.875 0.999885
vt 0.875 0
vt 0.125 0
vt 0.125 0.999885
vt 0 0
vt 0 0
vt 0 0
vt 0.125 0.749914
vt 0.125 0.999885
vt 0.875 0.999885
vt 0.875 0.749914
vt 0.125 0.499942
vt 0.875 0.499942
vt 0.125 0.249971
vt 0.875 0.249971
vt 0.125 0
vt 0.875 0
vt 0 0.999885
vt 0 0.999885
vt 0 0.999885
vt 0.875 0.999885
vt 0.875 0
vt 0.125 0
vt 0.125 0.999885
vt 0 0
vt 0 0
vt 0 0
vt 0.875 0.999885
vt 0.875 0
vt 0.125 0
vt 0.125 0.999885
vt 0 0
vt 0 0
vt 0 0
vt 0.875 0.999885
vt 0.875 0
vt 0.125 0
vt 0.125 0.999885
vt 0 0
vt 0 0
vt 0 0
vt 0.875 0.999885
vt 0.875 0
vt 0.125 0
vt 0.125 0.999885
vt 0 0
vt 0 0
vt 0 0
vt 0.875 0.999885
vt 0.875 0
vt 0.125 0
vt 0.125 0.999885
vt 0 0
vt 0 0
vt 0 0
vt 0.875 0.999885
vt 0.875 0
vt 0.125 0
vt 0.125 0.999885
vt 0 0
vt 0 0
vt 0 0
vt 0.875 0.999885
vt 0.875 0
vt 0.125 0
vt 0.125 0.999885
vt 0 0
vt 0 0
vt 0 0
vt 0.875 0.999885
vt 0.875 0
vt 0.125 0
vt 0.125 0.999885
vt 0 0
vt 0 0
vt 0 0
vt 0.875 0.999885
vt 0.875 0
vt 0.125 0
vt 0.125 0.999885
vt 0 0
vt 0 0
vt 0 0
vt 0.875 0.999885
vt 0.875 0
vt 0.125 0
vt 0.125 0.999885
vt 0 0
vt 0 0
vt 0 0
vt 0.875 0.999885
vt 0.875 0
vt 0.125 0
vt 0.125 0.999885
vt 0 0
vt 0 0
vt 0 0
vn -3.953195E-22 1 -8.742278E-08
vn -3.953195E-22 1 -8.742278E-08
vn -3.953195E-22 1 -8.742278E-08
vn -3.953195E-22 1 -8.742278E-08
vn -3.953195E-22 1 -8.742278E-08
vn -3.953195E-22 1 -8.742278E-08
vn -3.953195E-22 1 -8.742278E-08
vn -3.953195E-22 1 -8.742278E-08
vn -3.953195E-22 1 -8.742278E-08
vn -3.953195E-22 1 -8.742278E-08
vn -3.953195E-22 1 -8.742278E-08
vn -3.953195E-22 1 -8.742278E-08
vn -3.953195E-22 1 -8.742278E-08
vn 0 1 0
vn 0 1 0
vn 0 1 0
vn 0 1 0
vn 0 1 0
vn 0 1 0
vn 0 1 0
vn 0 1 0
vn 0 1 0
vn 0 1 0
vn 0 1 0
vn 0 1 0
vn 0 1 0
vn 0 1 0
vn 0 1 0
vn 0 1 0
vn 0 1 0
vn 0 1 0
vn 0 1 0
vn 0 1 0
vn 0 1 0
vn 0 1 0
vn 0 1 0
vn 0 1 0
vn 0 1 0
vn 0 1 0
vn 0 1 0
vn 0 1 0
vn 0 1 0
vn 0 1 0
vn 0 1 0
vn 0 1 0
vn 0 1 0
vn 0 1 0
vn 0 1 0
vn 0 1 0
vn 0 1 0
vn 0 1 0
vn 0 1 0
vn 0 1 0
vn 0 1 0
vn 0 1 0
vn 0 1 0
vn 0 1 0
vn 0 1 0
vn 0 1 0
vn 0 1 0
vn 0 1 0
vn 0 1 0
vn 0 1 0
vn 0 1 0
vn 0 1 0
vn 0 1 0
vn 0 1 0
vn 0 1 0
vn 0 1 0
vn 0 1 0
vn 0 1 0
vn 0 1 0
vn 0 1 0
vn 0 1 0
vn 0 1 0
vn 0 1 0
vn 0 1 0
vn 0 1 0
vn 0 1 0
vn 0 1 0
vn 0 1 0
vn 0 1 0
vn 0 1 0
vn 0 1 0
vn 0 1 0
vn 0 1 0
vn 0 1 0
vn 0 1 0
vn 0 1 0
vn 0 1 0
vn 0 1 0
vn 0 1 0
vn 0 1 0
vn 0 1 0
vn 0 1 0
vn 0 1 0
vn 0 1 0
vn 0 1 0
vn 0 1 0
vn 0 1 0
vn 0 1 0
vn 0 1 0
vn 0 1 0
vn 0 1 0
vn 0 1 0
vn 0 1 0
vn 0 1 0
vn 0 1 0
vn 0 1 0
vn 0 1 0
vn 0 1 0
vn 0 1 0
vn 0 1 0
vn 0 1 0
vn 0 1 0
vn 0 1 0
vn 0 1 0
vn 0 1 0
vn 0 1 0
vn 0 1 0
vn 0 1 0
vn 0 1 0
vn 0 1 0
vn 0 1 0
vn 0 1 0
vn 0 1 0
vn 0 1 0
vn 0 1 0
vn 0 1 0
vn 0 1 0
vn 0 1 0
vn 0 1 0
vn 0 1 0
vn 0 1 0
vn 0 1 0
vn 0 1 0
vn 0 1 0
vn 0 1 0
vn 0 1 0
vn 0 1 0
vn 0 1 0
vn 0 1 0
vn 0 1 0
vn 0 1 0
vn 0 1 0
vn 0 1 0
vn 0 1 0
vn 0 1 0
vn 0 1 0
vn 0 1 0
vn 0 1 0
vn 0 1 0
vn 0 1 0
vn 0 1 0
vn 0 1 0
vn 0 1 0
vn 0 1 0
vn 0 1 0
vn 0 1 0
vn 0 1 0
vn 0 1 0
vn 0 1 0
vn 0 1 0
vn 0 1 0
vn 0 1 0
vn 0 1 0
vn 0 1 0
vn 0 1 0
vn 0 1 0
vn 0 1 0
vn 0 1 0
vn 0 1 0
vn 0 1 0
vn 0 1 0
vn 0 1 0
vn 0 1 0
vn 0 1 0
vn 0 1 0
vn 0 1 0
vn 0 1 0
vn 0 1 0
vn 0 1 0
vn 0 1 0
vn 0 1 0
vn 0 1 0
vn 0 1 0
vn 0 1 0
vn 0 1 0
vn 0 1 0
vn 0 1 0
vn 0 1 0
vn 0 1 0
vn 0 1 0
vn 0 1 0
vn 0 1 0
vn 0 1 0
vn 0 1 0
vn 0 1 0
vn 0 1 0
vn 0 1 0
vn 0 1 0
vn 0 1 0
vn 0 1 0
vn 0 1 0
vn 0 1 0
vn 0 1 0
vn 0 1 0
g _Combined_WaterVis7_0_0
f 3/3/3 2/2/2 1/1/1
f 4/4/4 3/3/3 1/1/1
f 4/4/4 1/1/1 5/5/5
f 6/6/6 4/4/4 5/5/5
f 6/6/6 5/5/5 7/7/7
f 8/8/8 6/6/6 7/7/7
f 8/8/8 7/7/7 9/9/9
f 10/10/10 8/8/8 9/9/9
f 13/13/13 12/12/12 11/11/11
f 16/16/16 15/15/15 14/14/14
f 17/17/17 16/16/16 14/14/14
f 20/20/20 19/19/19 18/18/18
f 23/23/23 22/22/22 21/21/21
f 24/24/24 23/23/23 21/21/21
f 27/27/27 26/26/26 25/25/25
f 30/30/30 29/29/29 28/28/28
f 31/31/31 30/30/30 28/28/28
f 34/34/34 33/33/33 32/32/32
f 37/37/37 36/36/36 35/35/35
f 38/38/38 37/37/37 35/35/35
f 41/41/41 40/40/40 39/39/39
f 44/44/44 43/43/43 42/42/42
f 45/45/45 44/44/44 42/42/42
f 48/48/48 47/47/47 46/46/46
f 51/51/51 50/50/50 49/49/49
f 52/52/52 51/51/51 49/49/49
f 52/52/52 49/49/49 53/53/53
f 54/54/54 52/52/52 53/53/53
f 54/54/54 53/53/53 55/55/55
f 56/56/56 54/54/54 55/55/55
f 56/56/56 55/55/55 57/57/57
f 58/58/58 56/56/56 57/57/57
f 61/61/61 60/60/60 59/59/59
f 64/64/64 63/63/63 62/62/62
f 65/65/65 64/64/64 62/62/62
f 68/68/68 67/67/67 66/66/66
f 71/71/71 70/70/70 69/69/69
f 72/72/72 71/71/71 69/69/69
f 75/75/75 74/74/74 73/73/73
f 78/78/78 77/77/77 76/76/76
f 79/79/79 78/78/78 76/76/76
f 82/82/82 81/81/81 80/80/80
f 85/85/85 84/84/84 83/83/83
f 86/86/86 85/85/85 83/83/83
f 89/89/89 88/88/88 87/87/87
f 92/92/92 91/91/91 90/90/90
f 93/93/93 92/92/92 90/90/90
f 96/96/96 95/95/95 94/94/94
f 99/99/99 98/98/98 97/97/97
f 100/100/100 99/99/99 97/97/97
f 103/103/103 102/102/102 101/101/101
f 106/106/106 105/105/105 104/104/104
f 107/107/107 106/106/106 104/104/104
f 110/110/110 109/109/109 108/108/108
f 113/113/113 112/112/112 111/111/111
f 114/114/114 113/113/113 111/111/111
f 117/117/117 116/116/116 115/115/115
f 120/120/120 119/119/119 118/118/118
f 121/121/121 120/120/120 118/118/118
f 121/121/121 118/118/118 122/122/122
f 123/123/123 121/121/121 122/122/122
f 123/123/123 122/122/122 124/124/124
f 125/125/125 123/123/123 124/124/124
f 125/125/125 124/124/124 126/126/126
f 127/127/127 125/125/125 126/126/126
f 130/130/130 129/129/129 128/128/128
f 133/133/133 132/132/132 131/131/131
f 134/134/134 133/133/133 131/131/131
f 137/137/137 136/136/136 135/135/135
f 140/140/140 139/139/139 138/138/138
f 141/141/141 140/140/140 138/138/138
f 144/144/144 143/143/143 142/142/142
f 147/147/147 146/146/146 145/145/145
f 148/148/148 147/147/147 145/145/145
f 151/151/151 150/150/150 149/149/149
f 154/154/154 153/153/153 152/152/152
f 155/155/155 154/154/154 152/152/152
f 158/158/158 157/157/157 156/156/156
f 161/161/161 160/160/160 159/159/159
f 162/162/162 161/161/161 159/159/159
f 165/165/165 164/164/164 163/163/163
f 168/168/168 167/167/167 166/166/166
f 169/169/169 168/168/168 166/166/166
f 172/172/172 171/171/171 170/170/170
f 175/175/175 174/174/174 173/173/173
f 176/176/176 175/175/175 173/173/173
f 179/179/179 178/178/178 177/177/177
f 182/182/182 181/181/181 180/180/180
f 183/183/183 182/182/182 180/180/180
f 186/186/186 185/185/185 184/184/184
f 189/189/189 188/188/188 187/187/187
f 190/190/190 189/189/189 187/187/187
f 193/193/193 192/192/192 191/191/191
f 196/196/196 195/195/195 194/194/194
f 197/197/197 196/196/196 194/194/194
f 200/200/200 199/199/199 198/198/198
f 203/203/203 202/202/202 201/201/201
f 204/204/204 203/203/203 201/201/201
f 207/207/207 206/206/206 205/205/205
