g _Combined_AutoVis8_0
v 34.62653 -51.625 -11.5
v 34.62653 -51.625 -12.5
v 34.75153 -51.625 -12.5
v 34.75153 -51.625 -11.5
v 34.87653 -51.75 -11.5
v 34.75153 -51.75 -11.5
v 34.75153 -51.75 -12.5
v 34.87653 -51.75 -12.5
v 34.87653 -51.875 -12.5
v 35.00153 -51.875 -12.5
v 35.00153 -51.875 -11.5
v 34.87653 -51.875 -11.5
v 35.12653 -52 -11.5
v 35.00153 -52 -11.5
v 35.00153 -52 -12.5
v 35.12653 -52 -12.5
v 34.5 -51.5 -11.5
v 34.5 -51.5 -12.5
v 34.62653 -51.5 -12.5
v 34.62653 -51.5 -11.5
v 35.12653 -52.125 -12.5
v 35.25153 -52.125 -12.5
v 35.25153 -52.125 -11.5
v 35.12653 -52.125 -11.5
v 35.37653 -52.25 -11.5
v 35.25153 -52.25 -11.5
v 35.25153 -52.25 -12.5
v 35.37653 -52.25 -12.5
v 35.37653 -52.375 -12.5
v 35.5 -52.375 -12.5
v 35.5 -52.375 -11.5
v 35.37653 -52.375 -11.5
v 35.5 -52.375 -11.5
v 35.5 -52.5 -11.5
v 34.5 -52.5 -11.5
v 35.37653 -52.375 -11.5
v 35.37653 -52.25 -11.5
v 35.25153 -52.25 -11.5
v 35.25153 -52.125 -11.5
v 35.12653 -52.125 -11.5
v 35.12653 -52 -11.5
v 35.00153 -52 -11.5
v 35.00153 -51.875 -11.5
v 34.87653 -51.875 -11.5
v 34.87653 -51.75 -11.5
v 34.75153 -51.75 -11.5
v 34.75153 -51.625 -11.5
v 34.62653 -51.625 -11.5
v 34.62653 -51.5 -11.5
v 34.5 -51.5 -11.5
v 35.37653 -52.375 -11.5
v 35.37653 -52.25 -11.5
v 35.37653 -52.25 -12.5
v 35.37653 -52.375 -12.5
v 34.87653 -51.875 -12.5
v 35.00153 -52 -12.5
v 35.00153 -51.875 -12.5
v 34.5 -52.5 -12.5
v 34.75153 -51.75 -12.5
v 34.87653 -51.75 -12.5
v 35.12653 -52.125 -12.5
v 35.12653 -52 -12.5
v 34.62653 -51.625 -12.5
v 34.75153 -51.625 -12.5
v 34.5 -51.5 -12.5
v 34.62653 -51.5 -12.5
v 35.25153 -52.25 -12.5
v 35.25153 -52.125 -12.5
v 35.37653 -52.375 -12.5
v 35.37653 -52.25 -12.5
v 35.5 -52.5 -12.5
v 35.5 -52.375 -12.5
v 35.25153 -52.125 -12.5
v 35.25153 -52.25 -12.5
v 35.25153 -52.25 -11.5
v 35.25153 -52.125 -11.5
v 35.12653 -52 -12.5
v 35.12653 -52.125 -12.5
v 35.12653 -52.125 -11.5
v 35.12653 -52 -11.5
v 35.00153 -51.875 -12.5
v 35.00153 -52 -12.5
v 35.00153 -52 -11.5
v 35.00153 -51.875 -11.5
v 34.87653 -51.75 -12.5
v 34.87653 -51.875 -12.5
v 34.87653 -51.875 -11.5
v 34.87653 -51.75 -11.5
v 34.75153 -51.625 -12.5
v 34.75153 -51.75 -12.5
v 34.75153 -51.75 -11.5
v 34.75153 -51.625 -11.5
v 34.62653 -51.5 -11.5
v 34.62653 -51.5 -12.5
v 34.62653 -51.625 -12.5
v 34.62653 -51.625 -11.5
v 35.5 -52.375 -12.5
v 35.5 -52.5 -12.5
v 35.5 -52.5 -11.5
v 35.5 -52.375 -11.5
v 34.5 -51.5 -10.5
v 35.5 -51.5 -10.5
v 35.5 -51.5 -9.499999
v 34.5 -51.5 -9.499999
v 34.5 -52.5 -11.5
v 34.5 -52.5 -12.5
v 33.5 -52.5 -12.5
v 33.5 -52.5 -11.5
v 33.5 -52.5 -11.5
v 33.5 -52.5 -12.5
v 32.5 -52.5 -12.5
v 32.5 -52.5 -11.5
v 33.5 -52.5 -10.5
v 33.5 -52.5 -11.5
v 32.5 -52.5 -11.5
v 32.5 -52.5 -10.5
v 33.5 -52.5 -9.5
v 33.5 -52.5 -10.5
v 32.5 -52.5 -10.5
v 32.5 -52.5 -9.5
v 34.5 -52.5 -9.5
v 34.5 -52.5 -10.5
v 33.5 -52.5 -10.5
v 33.5 -52.5 -9.5
v 35.5 -52.5 -9.5
v 35.5 -52.5 -10.5
v 34.5 -52.5 -10.5
v 34.5 -52.5 -9.5
v 34.5 -51.5 -10.5
v 34.5 -52.5 -10.5
v 34.5 -52.5 -11.5
v 34.5 -51.5 -11.5
v 32.5 -51.5 -9.499999
v 32.5 -52.5 -9.5
v 32.5 -52.5 -10.5
v 32.5 -51.5 -10.5
v 32.5 -51.5 -10.5
v 32.5 -52.5 -10.5
v 32.5 -52.5 -11.5
v 32.5 -51.5 -11.5
v 32.5 -51.5 -11.5
v 32.5 -52.5 -11.5
v 32.5 -52.5 -12.5
v 32.5 -51.5 -12.5
v 33.5 -51.5 -9.5
v 33.5 -52.5 -9.5
v 32.5 -52.5 -9.5
v 32.5 -51.5 -9.499999
v 35.5 -51.5 -9.499999
v 35.5 -52.5 -9.5
v 34.5 -52.5 -9.5
v 34.5 -51.5 -9.499999
v 34.5 -51.5 -9.499999
v 34.5 -52.5 -9.5
v 33.5 -52.5 -9.5
v 33.5 -51.5 -9.5
v 34.5 -51.5 -11.5
v 34.5 -52.5 -11.5
v 33.5 -52.5 -11.5
v 33.5 -51.5 -11.5
v 33.5 -51.5 -10.5
v 33.5 -52.5 -10.5
v 34.5 -52.5 -10.5
v 34.5 -51.5 -10.5
v 33.5 -51.5 -11.5
v 33.5 -52.5 -11.5
v 33.5 -52.5 -10.5
v 33.5 -51.5 -10.5
v 35.5 -51.5 -10.5
v 35.5 -52.5 -10.5
v 35.5 -52.5 -9.5
v 35.5 -51.5 -9.499999
v 35.5 -51.5 -11.5
v 35.5 -52.5 -11.5
v 35.5 -52.5 -10.5
v 35.5 -51.5 -10.5
v 32.5 -51.5 -12.5
v 32.5 -52.5 -12.5
v 33.5 -52.5 -12.5
v 33.5 -51.5 -12.5
v 33.5 -51.5 -12.5
v 33.5 -52.5 -12.5
v 34.5 -52.5 -12.5
v 34.5 -51.5 -12.5
v 34.5 -51.5 -11.5
v 34.5 -52.5 -11.5
v 35.5 -52.5 -11.5
v 35.5 -51.5 -11.5
v 34.5 -51.5 -11.5
v 35.5 -51.5 -11.5
v 35.5 -51.5 -10.5
v 34.5 -51.5 -10.5
v 33.5 -51.5 -10.5
v 34.5 -51.5 -10.5
v 34.5 -51.5 -9.499999
v 33.5 -51.5 -9.5
v 32.5 -51.5 -12.5
v 33.5 -51.5 -12.5
v 33.5 -51.5 -11.5
v 32.5 -51.5 -11.5
v 32.5 -51.5 -11.5
v 33.5 -51.5 -11.5
v 33.5 -51.5 -10.5
v 32.5 -51.5 -10.5
v 33.5 -51.5 -12.5
v 34.5 -51.5 -12.5
v 34.5 -51.5 -11.5
v 33.5 -51.5 -11.5
v 32.5 -51.5 -10.5
v 33.5 -51.5 -10.5
v 33.5 -51.5 -9.5
v 32.5 -51.5 -9.499999
v 35.5 -52.5 -10.5
v 35.5 -52.5 -11.5
v 34.5 -52.5 -11.5
v 34.5 -52.5 -10.5
v 35.5 -52.5 -11.5
v 35.5 -52.5 -12.5
v 34.5 -52.5 -12.5
v 34.5 -52.5 -11.5
vt 0.7734375 0.04531037
vt 0.7421875 0.04531037
vt 0.7421875 0.04845844
vt 0.7734375 0.04845844
vt 0.7734375 0.0516065
vt 0.7734375 0.04845844
vt 0.7421875 0.04845844
vt 0.7421875 0.0516065
vt 0.7421875 0.0516065
vt 0.7421875 0.05475462
vt 0.7734375 0.05475462
vt 0.7734375 0.0516065
vt 0.7734375 0.05790269
vt 0.7734375 0.05475462
vt 0.7421875 0.05475462
vt 0.7421875 0.05790269
vt 0.7734375 0.04216225
vt 0.7421875 0.04216225
vt 0.7421875 0.04531037
vt 0.7734375 0.04531037
vt 0.7421875 0.05790269
vt 0.7421875 0.06105075
vt 0.7734375 0.06105075
vt 0.7734375 0.05790269
vt 0.7734375 0.06419887
vt 0.7734375 0.06105075
vt 0.7421875 0.06105075
vt 0.7421875 0.06419887
vt 0.7421875 0.06419887
vt 0.7421875 0.06734694
vt 0.7734375 0.06734694
vt 0.7734375 0.06419887
vt 0.8046875 0.07421875
vt 0.8046875 0.0703125
vt 0.7734375 0.0703125
vt 0.8007813 0.07421875
vt 0.8007813 0.078125
vt 0.796875 0.078125
vt 0.796875 0.08203125
vt 0.7929688 0.08203125
vt 0.7929688 0.0859375
vt 0.7890625 0.0859375
vt 0.7890625 0.08984375
vt 0.7851563 0.08984375
vt 0.7851563 0.09375
vt 0.78125 0.09375
vt 0.78125 0.09765625
vt 0.7773438 0.09765625
vt 0.7773438 0.1015625
vt 0.7734375 0.1015625
vt 0.7734375 0.04531037
vt 0.7734375 0.04845844
vt 0.8046875 0.04845844
vt 0.8046875 0.04531037
vt 0.7851563 0.08984375
vt 0.7890625 0.0859375
vt 0.7890625 0.08984375
vt 0.7734375 0.0703125
vt 0.78125 0.09375
vt 0.7851563 0.09375
vt 0.7929688 0.08203125
vt 0.7929688 0.0859375
vt 0.7773438 0.09765625
vt 0.78125 0.09765625
vt 0.7734375 0.1015625
vt 0.7773438 0.1015625
vt 0.796875 0.078125
vt 0.796875 0.08203125
vt 0.8007813 0.07421875
vt 0.8007813 0.078125
vt 0.8046875 0.0703125
vt 0.8046875 0.07421875
vt 0.8046875 0.0516065
vt 0.8046875 0.04845844
vt 0.7734375 0.04845844
vt 0.7734375 0.0516065
vt 0.8046875 0.05475462
vt 0.8046875 0.0516065
vt 0.7734375 0.0516065
vt 0.7734375 0.05475462
vt 0.8046875 0.05790269
vt 0.8046875 0.05475462
vt 0.7734375 0.05475462
vt 0.7734375 0.05790269
vt 0.8046875 0.06105075
vt 0.8046875 0.05790269
vt 0.7734375 0.05790269
vt 0.7734375 0.06105075
vt 0.8046875 0.06419887
vt 0.8046875 0.06105075
vt 0.7734375 0.06105075
vt 0.7734375 0.06419887
vt 0.7734375 0.06734694
vt 0.8046875 0.06734694
vt 0.8046875 0.06419887
vt 0.7734375 0.06419887
vt 0.8046875 0.04531037
vt 0.8046875 0.04216225
vt 0.7734375 0.04216225
vt 0.7734375 0.04531037
vt 0.4140625 0.2109375
vt 0.4140625 0.0859375
vt 0.2890625 0.0859375
vt 0.2890625 0.2109375
vt 0.4140625 0.2109375
vt 0.4140625 0.0859375
vt 0.2890625 0.0859375
vt 0.2890625 0.2109375
vt 0.4140625 0.2109375
vt 0.4140625 0.0859375
vt 0.2890625 0.0859375
vt 0.2890625 0.2109375
vt 0.4140625 0.2109375
vt 0.4140625 0.0859375
vt 0.2890625 0.0859375
vt 0.2890625 0.2109375
vt 0.4140625 0.2109375
vt 0.4140625 0.0859375
vt 0.2890625 0.0859375
vt 0.2890625 0.2109375
vt 0.4140625 0.2109375
vt 0.4140625 0.0859375
vt 0.2890625 0.0859375
vt 0.2890625 0.2109375
vt 0.4140625 0.2109375
vt 0.4140625 0.0859375
vt 0.2890625 0.0859375
vt 0.2890625 0.2109375
vt 0.4140625 0.2109375
vt 0.4140625 0.0859375
vt 0.2890625 0.0859375
vt 0.2890625 0.2109375
vt 0.4140625 0.2109375
vt 0.4140625 0.0859375
vt 0.2890625 0.0859375
vt 0.2890625 0.2109375
vt 0.4140625 0.2109375
vt 0.4140625 0.0859375
vt 0.2890625 0.0859375
vt 0.2890625 0.2109375
vt 0.4140625 0.2109375
vt 0.4140625 0.0859375
vt 0.2890625 0.0859375
vt 0.2890625 0.2109375
vt 0.4140625 0.2109375
vt 0.4140625 0.0859375
vt 0.2890625 0.0859375
vt 0.2890625 0.2109375
vt 0.4140625 0.2109375
vt 0.4140625 0.0859375
vt 0.2890625 0.0859375
vt 0.2890625 0.2109375
vt 0.4140625 0.2109375
vt 0.4140625 0.0859375
vt 0.2890625 0.0859375
vt 0.2890625 0.2109375
vt 0.4140625 0.2109375
vt 0.4140625 0.0859375
vt 0.2890625 0.0859375
vt 0.2890625 0.2109375
vt 0.4140625 0.2109375
vt 0.4140625 0.0859375
vt 0.2890625 0.0859375
vt 0.2890625 0.2109375
vt 0.4140625 0.2109375
vt 0.4140625 0.0859375
vt 0.2890625 0.0859375
vt 0.2890625 0.2109375
vt 0.4140625 0.2109375
vt 0.4140625 0.0859375
vt 0.2890625 0.0859375
vt 0.2890625 0.2109375
vt 0.4140625 0.2109375
vt 0.4140625 0.0859375
vt 0.2890625 0.0859375
vt 0.2890625 0.2109375
vt 0.4140625 0.2109375
vt 0.4140625 0.0859375
vt 0.2890625 0.0859375
vt 0.2890625 0.2109375
vt 0.4140625 0.2109375
vt 0.4140625 0.0859375
vt 0.2890625 0.0859375
vt 0.2890625 0.2109375
vt 0.4140625 0.2109375
vt 0.4140625 0.0859375
vt 0.2890625 0.0859375
vt 0.2890625 0.2109375
vt 0.4140625 0.2109375
vt 0.4140625 0.0859375
vt 0.2890625 0.0859375
vt 0.2890625 0.2109375
vt 0.4140625 0.2109375
vt 0.4140625 0.0859375
vt 0.2890625 0.0859375
vt 0.2890625 0.2109375
vt 0.4140625 0.2109375
vt 0.4140625 0.0859375
vt 0.2890625 0.0859375
vt 0.2890625 0.2109375
vt 0.4140625 0.2109375
vt 0.4140625 0.0859375
vt 0.2890625 0.0859375
vt 0.2890625 0.2109375
vt 0.4140625 0.2109375
vt 0.4140625 0.0859375
vt 0.2890625 0.0859375
vt 0.2890625 0.2109375
vt 0.4140625 0.2109375
vt 0.4140625 0.0859375
vt 0.2890625 0.0859375
vt 0.2890625 0.2109375
vt 0.4140625 0.2109375
vt 0.4140625 0.0859375
vt 0.2890625 0.0859375
vt 0.2890625 0.2109375
vt 0.4140625 0.2109375
vt 0.4140625 0.0859375
vt 0.2890625 0.0859375
vt 0.2890625 0.2109375
vn 0 1 -1.326472E-14
vn 0 1 -1.326472E-14
vn 0 1 -1.326472E-14
vn 0 1 -1.326472E-14
vn 0 1 -1.326472E-14
vn 0 1 -1.326472E-14
vn 0 1 -1.326472E-14
vn 0 1 -1.326472E-14
vn 0 1 -1.326472E-14
vn 0 1 -1.326472E-14
vn 0 1 -1.326472E-14
vn 0 1 -1.326472E-14
vn 0 1 -1.326472E-14
vn 0 1 -1.326472E-14
vn 0 1 -1.326472E-14
vn 0 1 -1.326472E-14
vn 0 1 -1.326472E-14
vn 0 1 -1.326472E-14
vn 0 1 -1.326472E-14
vn 0 1 -1.326472E-14
vn 0 1 -1.326472E-14
vn 0 1 -1.326472E-14
vn 0 1 -1.326472E-14
vn 0 1 -1.326472E-14
vn 0 1 -1.326472E-14
vn 0 1 -1.326472E-14
vn 0 1 -1.326472E-14
vn 0 1 -1.326472E-14
vn 0 1 -1.326472E-14
vn 0 1 -1.326472E-14
vn 0 1 -1.326472E-14
vn 0 1 -1.326472E-14
vn 0 1.326472E-14 1
vn 0 1.326472E-14 1
vn 0 1.326472E-14 1
vn 0 1.326472E-14 1
vn 0 1.326472E-14 1
vn 0 1.326472E-14 1
vn 0 1.326472E-14 1
vn 0 1.326472E-14 1
vn 0 1.326472E-14 1
vn 0 1.326472E-14 1
vn 0 1.326472E-14 1
vn 0 1.326472E-14 1
vn 0 1.326472E-14 1
vn 0 1.326472E-14 1
vn 0 1.326472E-14 1
vn 0 1.326472E-14 1
vn 0 1.326472E-14 1
vn 0 1.326472E-14 1
vn 1 0 0
vn 1 0 0
vn 1 0 0
vn 1 0 0
vn 0 -1.326472E-14 -1
vn 0 -1.326472E-14 -1
vn 0 -1.326472E-14 -1
vn 0 -1.326472E-14 -1
vn 0 -1.326472E-14 -1
vn 0 -1.326472E-14 -1
vn 0 -1.326472E-14 -1
vn 0 -1.326472E-14 -1
vn 0 -1.326472E-14 -1
vn 0 -1.326472E-14 -1
vn 0 -1.326472E-14 -1
vn 0 -1.326472E-14 -1
vn 0 -1.326472E-14 -1
vn 0 -1.326472E-14 -1
vn 0 -1.326472E-14 -1
vn 0 -1.326472E-14 -1
vn 0 -1.326472E-14 -1
vn 0 -1.326472E-14 -1
vn 1 0 0
vn 1 0 0
vn 1 0 0
vn 1 0 0
vn 1 0 0
vn 1 0 0
vn 1 0 0
vn 1 0 0
vn 1 0 0
vn 1 0 0
vn 1 0 0
vn 1 0 0
vn 1 0 0
vn 1 0 0
vn 1 0 0
vn 1 0 0
vn 1 0 0
vn 1 0 0
vn 1 0 0
vn 1 0 0
vn 1 0 0
vn 1 0 0
vn 1 0 0
vn 1 0 0
vn 1 0 0
vn 1 0 0
vn 1 0 0
vn 1 0 0
vn 0 1 -6.63236E-15
vn 0 1 -6.63236E-15
vn 0 1 -6.63236E-15
vn 0 1 -6.63236E-15
vn 0 -1 -1.192092E-07
vn 0 -1 -1.192092E-07
vn 0 -1 -1.192092E-07
vn 0 -1 -1.192092E-07
vn 0 -1 -1.192092E-07
vn 0 -1 -1.192092E-07
vn 0 -1 -1.192092E-07
vn 0 -1 -1.192092E-07
vn 0 -1 -1.192092E-07
vn 0 -1 -1.192092E-07
vn 0 -1 -1.192092E-07
vn 0 -1 -1.192092E-07
vn 0 -1 -1.192092E-07
vn 0 -1 -1.192092E-07
vn 0 -1 -1.192092E-07
vn 0 -1 -1.192092E-07
vn 0 -1 -1.192092E-07
vn 0 -1 -1.192092E-07
vn 0 -1 -1.192092E-07
vn 0 -1 -1.192092E-07
vn 0 -1 -1.192092E-07
vn 0 -1 -1.192092E-07
vn 0 -1 -1.192092E-07
vn 0 -1 -1.192092E-07
vn -1 -1.581278E-21 -1.192093E-07
vn -1 -1.581278E-21 -1.192093E-07
vn -1 -1.581278E-21 -1.192093E-07
vn -1 -1.581278E-21 -1.192093E-07
vn -1 -1.581278E-21 -1.192093E-07
vn -1 -1.581278E-21 -1.192093E-07
vn -1 -1.581278E-21 -1.192093E-07
vn -1 -1.581278E-21 -1.192093E-07
vn -1 -1.581278E-21 -1.192093E-07
vn -1 -1.581278E-21 -1.192093E-07
vn -1 -1.581278E-21 -1.192093E-07
vn -1 -1.581278E-21 -1.192093E-07
vn -1 -1.581278E-21 -1.192093E-07
vn -1 -1.581278E-21 -1.192093E-07
vn -1 -1.581278E-21 -1.192093E-07
vn -1 -1.581278E-21 -1.192093E-07
vn 0 -1.748455E-07 1
vn 0 -1.748455E-07 1
vn 0 -1.748455E-07 1
vn 0 -1.748455E-07 1
vn 0 -1.748455E-07 1
vn 0 -1.748455E-07 1
vn 0 -1.748455E-07 1
vn 0 -1.748455E-07 1
vn 0 -1.748455E-07 1
vn 0 -1.748455E-07 1
vn 0 -1.748455E-07 1
vn 0 -1.748455E-07 1
vn 0 -1.748455E-07 1
vn 0 -1.748455E-07 1
vn 0 -1.748455E-07 1
vn 0 -1.748455E-07 1
vn 8.742278E-08 -1.748456E-07 -1
vn 8.742278E-08 -1.748456E-07 -1
vn 8.742278E-08 -1.748456E-07 -1
vn 8.742278E-08 -1.748456E-07 -1
vn 1 -1.581278E-21 -1.192093E-07
vn 1 -1.581278E-21 -1.192093E-07
vn 1 -1.581278E-21 -1.192093E-07
vn 1 -1.581278E-21 -1.192093E-07
vn 1 -1.581278E-21 -1.192093E-07
vn 1 -1.581278E-21 -1.192093E-07
vn 1 -1.581278E-21 -1.192093E-07
vn 1 -1.581278E-21 -1.192093E-07
vn 1 -1.581278E-21 -1.192093E-07
vn 1 -1.581278E-21 -1.192093E-07
vn 1 -1.581278E-21 -1.192093E-07
vn 1 -1.581278E-21 -1.192093E-07
vn 8.742278E-08 -1.748456E-07 -1
vn 8.742278E-08 -1.748456E-07 -1
vn 8.742278E-08 -1.748456E-07 -1
vn 8.742278E-08 -1.748456E-07 -1
vn 8.742278E-08 -1.748456E-07 -1
vn 8.742278E-08 -1.748456E-07 -1
vn 8.742278E-08 -1.748456E-07 -1
vn 8.742278E-08 -1.748456E-07 -1
vn 8.742278E-08 -1.748456E-07 -1
vn 8.742278E-08 -1.748456E-07 -1
vn 8.742278E-08 -1.748456E-07 -1
vn 8.742278E-08 -1.748456E-07 -1
vn 0 1 -6.63236E-15
vn 0 1 -6.63236E-15
vn 0 1 -6.63236E-15
vn 0 1 -6.63236E-15
vn 0 1 -6.63236E-15
vn 0 1 -6.63236E-15
vn 0 1 -6.63236E-15
vn 0 1 -6.63236E-15
vn 0 1 -6.63236E-15
vn 0 1 -6.63236E-15
vn 0 1 -6.63236E-15
vn 0 1 -6.63236E-15
vn 0 1 -6.63236E-15
vn 0 1 -6.63236E-15
vn 0 1 -6.63236E-15
vn 0 1 -6.63236E-15
vn 0 1 -6.63236E-15
vn 0 1 -6.63236E-15
vn 0 1 -6.63236E-15
vn 0 1 -6.63236E-15
vn 0 1 -6.63236E-15
vn 0 1 -6.63236E-15
vn 0 1 -6.63236E-15
vn 0 1 -6.63236E-15
vn 0 -1 -1.192092E-07
vn 0 -1 -1.192092E-07
vn 0 -1 -1.192092E-07
vn 0 -1 -1.192092E-07
vn 0 -1 -1.192092E-07
vn 0 -1 -1.192092E-07
vn 0 -1 -1.192092E-07
vn 0 -1 -1.192092E-07
g _Combined_AutoVis8_0_0
f 3/3/3 2/2/2 1/1/1
f 4/4/4 3/3/3 1/1/1
f 7/7/7 6/6/6 5/5/5
f 8/8/8 7/7/7 5/5/5
f 11/11/11 10/10/10 9/9/9
f 12/12/12 11/11/11 9/9/9
f 15/15/15 14/14/14 13/13/13
f 16/16/16 15/15/15 13/13/13
f 19/19/19 18/18/18 17/17/17
f 20/20/20 19/19/19 17/17/17
f 23/23/23 22/22/22 21/21/21
f 24/24/24 23/23/23 21/21/21
f 27/27/27 26/26/26 25/25/25
f 28/28/28 27/27/27 25/25/25
f 31/31/31 30/30/30 29/29/29
f 32/32/32 31/31/31 29/29/29
f 35/35/35 34/34/34 33/33/33
f 36/36/36 35/35/35 33/33/33
f 35/35/35 36/36/36 37/37/37
f 38/38/38 35/35/35 37/37/37
f 35/35/35 38/38/38 39/39/39
f 40/40/40 35/35/35 39/39/39
f 35/35/35 40/40/40 41/41/41
f 42/42/42 35/35/35 41/41/41
f 35/35/35 42/42/42 43/43/43
f 44/44/44 35/35/35 43/43/43
f 35/35/35 44/44/44 45/45/45
f 46/46/46 35/35/35 45/45/45
f 35/35/35 46/46/46 47/47/47
f 48/48/48 35/35/35 47/47/47
f 35/35/35 48/48/48 49/49/49
f 50/50/50 35/35/35 49/49/49
f 53/53/53 52/52/52 51/51/51
f 54/54/54 53/53/53 51/51/51
f 57/57/57 56/56/56 55/55/55
f 56/56/56 58/58/58 55/55/55
f 55/55/55 58/58/58 59/59/59
f 60/60/60 55/55/55 59/59/59
f 61/61/61 58/58/58 56/56/56
f 62/62/62 61/61/61 56/56/56
f 59/59/59 58/58/58 63/63/63
f 64/64/64 59/59/59 63/63/63
f 63/63/63 58/58/58 65/65/65
f 66/66/66 63/63/63 65/65/65
f 67/67/67 58/58/58 61/61/61
f 68/68/68 67/67/67 61/61/61
f 58/58/58 67/67/67 69/69/69
f 67/67/67 70/70/70 69/69/69
f 71/71/71 58/58/58 69/69/69
f 72/72/72 71/71/71 69/69/69
f 75/75/75 74/74/74 73/73/73
f 76/76/76 75/75/75 73/73/73
f 79/79/79 78/78/78 77/77/77
f 80/80/80 79/79/79 77/77/77
f 83/83/83 82/82/82 81/81/81
f 84/84/84 83/83/83 81/81/81
f 87/87/87 86/86/86 85/85/85
f 88/88/88 87/87/87 85/85/85
f 91/91/91 90/90/90 89/89/89
f 92/92/92 91/91/91 89/89/89
f 95/95/95 94/94/94 93/93/93
f 96/96/96 95/95/95 93/93/93
f 99/99/99 98/98/98 97/97/97
f 100/100/100 99/99/99 97/97/97
f 103/103/103 102/102/102 101/101/101
f 104/104/104 103/103/103 101/101/101
f 107/107/107 106/106/106 105/105/105
f 108/108/108 107/107/107 105/105/105
f 111/111/111 110/110/110 109/109/109
f 112/112/112 111/111/111 109/109/109
f 115/115/115 114/114/114 113/113/113
f 116/116/116 115/115/115 113/113/113
f 119/119/119 118/118/118 117/117/117
f 120/120/120 119/119/119 117/117/117
f 123/123/123 122/122/122 121/121/121
f 124/124/124 123/123/123 121/121/121
f 127/127/127 126/126/126 125/125/125
f 128/128/128 127/127/127 125/125/125
f 131/131/131 130/130/130 129/129/129
f 132/132/132 131/131/131 129/129/129
f 135/135/135 134/134/134 133/133/133
f 136/136/136 135/135/135 133/133/133
f 139/139/139 138/138/138 137/137/137
f 140/140/140 139/139/139 137/137/137
f 143/143/143 142/142/142 141/141/141
f 144/144/144 143/143/143 141/141/141
f 147/147/147 146/146/146 145/145/145
f 148/148/148 147/147/147 145/145/145
f 151/151/151 150/150/150 149/149/149
f 152/152/152 151/151/151 149/149/149
f 155/155/155 154/154/154 153/153/153
f 156/156/156 155/155/155 153/153/153
f 159/159/159 158/158/158 157/157/157
f 160/160/160 159/159/159 157/157/157
f 163/163/163 162/162/162 161/161/161
f 164/164/164 163/163/163 161/161/161
f 167/167/167 166/166/166 165/165/165
f 168/168/168 167/167/167 165/165/165
f 171/171/171 170/170/170 169/169/169
f 172/172/172 171/171/171 169/169/169
f 175/175/175 174/174/174 173/173/173
f 176/176/176 175/175/175 173/173/173
f 179/179/179 178/178/178 177/177/177
f 180/180/180 179/179/179 177/177/177
f 183/183/183 182/182/182 181/181/181
f 184/184/184 183/183/183 181/181/181
f 187/187/187 186/186/186 185/185/185
f 188/188/188 187/187/187 185/185/185
f 191/191/191 190/190/190 189/189/189
f 192/192/192 191/191/191 189/189/189
f 195/195/195 194/194/194 193/193/193
f 196/196/196 195/195/195 193/193/193
f 199/199/199 198/198/198 197/197/197
f 200/200/200 199/199/199 197/197/197
f 203/203/203 202/202/202 201/201/201
f 204/204/204 203/203/203 201/201/201
f 207/207/207 206/206/206 205/205/205
f 208/208/208 207/207/207 205/205/205
f 211/211/211 210/210/210 209/209/209
f 212/212/212 211/211/211 209/209/209
f 215/215/215 214/214/214 213/213/213
f 216/216/216 215/215/215 213/213/213
f 219/219/219 218/218/218 217/217/217
f 220/220/220 219/219/219 217/217/217
