g _Combined_Vis5_0
v 0.2499987 -0.2499999 -1.880791E-06
v 0.2499985 0.7500002 -1.761582E-06
v -0.7500027 0.75 -1.761582E-06
v -0.7500025 -0.2500001 -1.880791E-06
v 0.249999 -1.25 -2E-06
v -0.7500023 -1.25 -2E-06
v 0.2499993 -2.25 1.880791E-06
v -0.7499999 -2.25 1.880791E-06
v 0.2499996 -3.25 1.761582E-06
v -0.7499997 -3.25 1.761582E-06
v 1.249998 6.75 1.761582E-06
v 0.2499987 6.75 1.761582E-06
v 0.2499989 5.75 1.880791E-06
v 1.249998 5.75 1.880791E-06
v 0.249997 4.75 -2E-06
v 1.249998 4.75 -2E-06
v 0.2499972 3.75 -1.880791E-06
v 1.249998 3.75 -1.880791E-06
v 0.2499973 2.75 -1.761582E-06
v 1.249998 2.75 -1.761582E-06
v 1.249999 -1.25 1.761582E-06
v 0.249999 -1.25 -2E-06
v 0.2499993 -2.25 1.880791E-06
v 1.249999 -2.25 1.880791E-06
v 0.2499996 -3.25 1.761582E-06
v 1.249999 -3.25 -2E-06
v 0.2499983 -4.25 -1.880791E-06
v 1.249999 -4.25 -1.880791E-06
v 0.2499985 -5.25 -1.761582E-06
v 1.249999 -5.25 -1.761582E-06
v -1.750001 -4.25 -1.880791E-06
v -1.750001 -5.25 -1.761582E-06
v -0.7499995 -5.25 -1.761582E-06
v -0.7499997 -4.25 -1.880791E-06
v -1.750001 -3.25 -2E-06
v -0.7499997 -3.25 1.761582E-06
v -1.750001 -2.25 1.880791E-06
v -0.7499999 -2.25 1.880791E-06
v -1.750001 -1.25 1.761582E-06
v -0.7500023 -1.25 -2E-06
v -0.7500017 3.75 -1.880791E-06
v -0.7500015 2.75 -1.761582E-06
v 0.2499973 2.75 -1.761582E-06
v 0.2499972 3.75 -1.880791E-06
v -0.750002 4.75 -2E-06
v 0.249997 4.75 -2E-06
v -0.7500023 5.75 1.880791E-06
v 0.2499989 5.75 1.880791E-06
v -0.7500025 6.75 1.761582E-06
v 0.2499987 6.75 1.761582E-06
v -1.750002 3.749999 -1.880791E-06
v -1.750002 2.749999 -1.761582E-06
v -0.7500015 2.75 -1.761582E-06
v -0.7500017 3.75 -1.880791E-06
v -1.750002 4.75 -2E-06
v -0.750002 4.75 -2E-06
v -1.750002 5.75 1.880791E-06
v -0.7500023 5.75 1.880791E-06
v -1.750002 6.75 1.761582E-06
v -0.7500025 6.75 1.761582E-06
v 1.249998 5.75 1.880791E-06
v 1.249998 4.75 -2E-06
v 1.249998 4.75 1
v 1.249998 5.75 1
v 1.249998 6.75 1.761582E-06
v 1.249998 5.75 1.880791E-06
v 1.249998 5.75 1
v 1.249998 6.75 1
v -0.7499994 -6.25 0
v -0.7499995 -5.25 -1.761582E-06
v -1.750001 -5.25 -1.761582E-06
v -1.75 -6.25 0
v 1.249999 -5.25 -1.761582E-06
v 0.2499985 -5.25 -1.761582E-06
v 0.2499997 -6.25 0
v 1.25 -6.25 0
v 0.2499984 1.750001 0
v -0.7500017 1.749999 0
v -0.7500027 0.75 -1.761582E-06
v 0.2499985 0.7500002 -1.761582E-06
v 1.249998 3.75 -1.880791E-06
v 1.249998 2.75 -1.761582E-06
v 1.249998 2.75 1
v 1.249998 3.75 1
v 1.249998 2.75 -1.761582E-06
v 1.249998 1.75 9.536744E-07
v 1.249998 1.75 1
v 1.249998 2.75 1
v 1.249998 4.75 -2E-06
v 1.249998 3.75 -1.880791E-06
v 1.249998 3.75 1
v 1.249998 4.75 1
v 1.249998 1.75 9.536744E-07
v 1.249999 0.75 9.536744E-07
v 1.249999 0.75 1
v 1.249998 1.75 1
v 1.249999 0.75 9.536744E-07
v 1.249999 -0.2499999 9.536744E-07
v 1.249999 -0.2499999 1
v 1.249999 0.75 1
v 1.249999 -0.2499999 9.536744E-07
v 1.249999 -1.25 1.761582E-06
v 1.249999 -1.25 1
v 1.249999 -0.2499999 1
v 1.249999 -1.25 1.761582E-06
v 1.249999 -2.25 1.880791E-06
v 1.249999 -2.25 1
v 1.249999 -1.25 1
v 0.2499973 2.75 -1.761582E-06
v -0.7500015 2.75 -1.761582E-06
v -0.7500017 1.749999 0
v 0.2499984 1.750001 0
v 1.249998 6.75 1
v 0.2499977 6.75 0.999999
v 0.2499987 6.75 1.761582E-06
v 1.249998 6.75 1.761582E-06
v 1.25 -8.25 4.371139E-08
v 1.25 -7.25 -4.371139E-08
v 0.2499989 -8.25 4.371139E-08
v 0.2500008 -7.25 -4.371139E-08
v -0.749999 -8.25 4.371139E-08
v -0.7500012 -7.25 -4.371139E-08
v -1.75 -7.25 -4.371139E-08
v -1.75 -8.250001 4.371139E-08
v 0.2499977 6.75 0.999999
v -0.7500023 6.75 0.999999
v -0.7500025 6.75 1.761582E-06
v 0.2499987 6.75 1.761582E-06
v -0.7500023 6.75 0.999999
v -1.750002 6.75 0.999999
v -1.750002 6.75 1.761582E-06
v -0.7500025 6.75 1.761582E-06
v -0.7500017 1.749999 0
v -0.7500015 2.75 -1.761582E-06
v -1.750002 2.749999 -1.761582E-06
v -1.750002 1.75 4.371139E-08
v 1.249998 2.75 -1.761582E-06
v 0.2499973 2.75 -1.761582E-06
v 0.2499984 1.750001 0
v 1.249998 1.75 9.536744E-07
v -1.750002 0.7499985 -4.37114E-08
v -0.7500027 0.75 -1.761582E-06
v -0.7500017 1.749999 0
v -1.750002 1.75 4.371139E-08
v 0.2499985 0.7500002 -1.761582E-06
v 0.2499987 -0.2499999 -1.880791E-06
v 1.249999 -0.2499999 9.536744E-07
v 1.249999 0.75 9.536744E-07
v -0.7500025 -0.2500001 -1.880791E-06
v -0.7500027 0.75 -1.761582E-06
v -1.750002 0.7499985 -4.37114E-08
v -1.750001 -0.2500004 4.371139E-08
v -0.7500023 -1.25 -2E-06
v -0.7500025 -0.2500001 -1.880791E-06
v -1.750001 -0.2500004 4.371139E-08
v -1.750001 -1.25 1.761582E-06
v 0.2499987 -0.2499999 -1.880791E-06
v 0.249999 -1.25 -2E-06
v 1.249999 -1.25 1.761582E-06
v 1.249999 -0.2499999 9.536744E-07
v 1.249998 1.75 9.536744E-07
v 0.2499984 1.750001 0
v 1.249999 0.75 9.536744E-07
v 0.2499985 0.7500002 -1.761582E-06
v 0.2499996 -3.25 1.761582E-06
v -0.7499997 -3.25 1.761582E-06
v -0.7499997 -4.25 -1.880791E-06
v 0.2499983 -4.25 -1.880791E-06
v 0.2499983 -4.25 -1.880791E-06
v -0.7499997 -4.25 -1.880791E-06
v -0.7499995 -5.25 -1.761582E-06
v 0.2499985 -5.25 -1.761582E-06
v 0.2499985 -5.25 -1.761582E-06
v -0.7499995 -5.25 -1.761582E-06
v -0.7499994 -6.25 0
v 0.2499997 -6.25 0
v 1.25 -6.25 0
v 0.2499997 -6.25 0
v 1.25 -7.25 -4.371139E-08
v -1.75 -7.25 -4.371139E-08
v -0.7499994 -6.25 0
v -1.75 -6.25 0
v 0.2499997 -6.25 0
v -0.7499994 -6.25 0
v -0.7500012 -7.25 -4.371139E-08
v 0.2500008 -7.25 -4.371139E-08
v 0.2500008 -7.25 -4.371139E-08
v -0.7500012 -7.25 -4.371139E-08
v -0.749999 -8.25 4.371139E-08
v 0.2499989 -8.25 4.371139E-08
v 1.249999 -2.25 1.880791E-06
v 1.249999 -3.25 -2E-06
v 1.249999 -3.25 1
v 1.249999 -2.25 1
v 1.249999 -3.25 -2E-06
v 1.249999 -4.25 -1.880791E-06
v 1.249999 -4.25 1
v 1.249999 -3.25 1
vt 0.84375 0.875
vt 0.84375 0.84375
vt 0.875 0.84375
vt 0.875 0.875
vt 0.84375 0.90625
vt 0.875 0.90625
vt 0.84375 0.9375
vt 0.8749999 0.9375
vt 0.84375 0.96875
vt 0.8749999 0.96875
vt 0.59375 0.96875
vt 0.6249999 0.96875
vt 0.6249999 0.9375
vt 0.59375 0.9375
vt 0.625 0.90625
vt 0.59375 0.90625
vt 0.625 0.875
vt 0.59375 0.875
vt 0.625 0.84375
vt 0.59375 0.84375
vt 0.59375 0.96875
vt 0.6249999 0.96875
vt 0.6249999 0.9375
vt 0.59375 0.9375
vt 0.625 0.90625
vt 0.59375 0.90625
vt 0.625 0.875
vt 0.59375 0.875
vt 0.625 0.84375
vt 0.59375 0.84375
vt 0.59375 0.875
vt 0.59375 0.84375
vt 0.625 0.84375
vt 0.625 0.875
vt 0.59375 0.90625
vt 0.625 0.90625
vt 0.59375 0.9375
vt 0.6249999 0.9375
vt 0.59375 0.96875
vt 0.6249999 0.96875
vt 0.84375 0.875
vt 0.84375 0.84375
vt 0.875 0.84375
vt 0.875 0.875
vt 0.84375 0.90625
vt 0.875 0.90625
vt 0.84375 0.9375
vt 0.8749999 0.9375
vt 0.84375 0.96875
vt 0.8749999 0.96875
vt 0.59375 0.875
vt 0.59375 0.84375
vt 0.625 0.84375
vt 0.625 0.875
vt 0.59375 0.90625
vt 0.625 0.90625
vt 0.59375 0.9375
vt 0.6249999 0.9375
vt 0.59375 0.96875
vt 0.6249999 0.96875
vt 0.96875 0.96875
vt 0.96875 0.9375
vt 0.9375 0.9375
vt 0.9375 0.96875
vt 0.75 0.796875
vt 0.75 0.765625
vt 0.71875 0.765625
vt 0.71875 0.796875
vt 0.75 0.890625
vt 0.75 0.859375
vt 0.71875 0.859375
vt 0.71875 0.890625
vt 0.75 0.890625
vt 0.75 0.859375
vt 0.71875 0.859375
vt 0.71875 0.890625
vt 0.75 0.796875
vt 0.75 0.765625
vt 0.71875 0.765625
vt 0.71875 0.796875
vt 0.75 0.796875
vt 0.75 0.765625
vt 0.71875 0.765625
vt 0.71875 0.796875
vt 0.96875 0.96875
vt 0.96875 0.9375
vt 0.9375 0.9375
vt 0.9375 0.96875
vt 0.96875 0.96875
vt 0.96875 0.9375
vt 0.9375 0.9375
vt 0.9375 0.96875
vt 0.96875 0.96875
vt 0.96875 0.9375
vt 0.9375 0.9375
vt 0.9375 0.96875
vt 0.96875 0.96875
vt 0.96875 0.9375
vt 0.9375 0.9375
vt 0.9375 0.96875
vt 0.96875 0.96875
vt 0.96875 0.9375
vt 0.9375 0.9375
vt 0.9375 0.96875
vt 0.96875 0.96875
vt 0.96875 0.9375
vt 0.9375 0.9375
vt 0.9375 0.96875
vt 0.96875 0.875
vt 0.96875 0.84375
vt 0.9375 0.84375
vt 0.9375 0.875
vt 0.625 0.59375
vt 0.625 0.5625
vt 0.59375 0.5625
vt 0.59375 0.59375
vt 0.59375 0.78125
vt 0.59375 0.75
vt 0.625 0.78125
vt 0.625 0.75
vt 0.625 0.78125
vt 0.625 0.75
vt 0.59375 0.75
vt 0.59375 0.78125
vt 0.625 0.59375
vt 0.625 0.5625
vt 0.59375 0.5625
vt 0.59375 0.59375
vt 0.625 0.59375
vt 0.625 0.5625
vt 0.59375 0.5625
vt 0.59375 0.59375
vt 0.75 0.890625
vt 0.75 0.859375
vt 0.71875 0.859375
vt 0.71875 0.890625
vt 0.75 0.890625
vt 0.75 0.859375
vt 0.71875 0.859375
vt 0.71875 0.890625
vt 0.625 0.78125
vt 0.625 0.75
vt 0.59375 0.75
vt 0.59375 0.78125
vt 0.84375 0.78125
vt 0.84375 0.75
vt 0.8125 0.75
vt 0.8125 0.78125
vt 0.84375 0.78125
vt 0.84375 0.75
vt 0.8125 0.75
vt 0.8125 0.78125
vt 0.84375 0.78125
vt 0.84375 0.75
vt 0.8125 0.75
vt 0.8125 0.78125
vt 0.84375 0.78125
vt 0.84375 0.75
vt 0.8125 0.75
vt 0.8125 0.78125
vt 0.59375 0.78125
vt 0.59375 0.75
vt 0.625 0.78125
vt 0.625 0.75
vt 0.84375 0.78125
vt 0.84375 0.75
vt 0.8125 0.75
vt 0.8125 0.78125
vt 0.84375 0.78125
vt 0.84375 0.75
vt 0.8125 0.75
vt 0.8125 0.78125
vt 0.84375 0.78125
vt 0.84375 0.75
vt 0.8125 0.75
vt 0.8125 0.78125
vt 0.59375 0.78125
vt 0.59375 0.75
vt 0.625 0.78125
vt 0.625 0.78125
vt 0.59375 0.75
vt 0.59375 0.78125
vt 0.96875 0.875
vt 0.96875 0.84375
vt 0.9375 0.84375
vt 0.9375 0.875
vt 0.84375 0.78125
vt 0.84375 0.75
vt 0.8125 0.75
vt 0.8125 0.78125
vt 0.96875 0.96875
vt 0.96875 0.9375
vt 0.9375 0.9375
vt 0.9375 0.96875
vt 0.96875 0.96875
vt 0.96875 0.9375
vt 0.9375 0.9375
vt 0.9375 0.96875
vn 0 -1.192093E-07 -1
vn 0 -1.192093E-07 -1
vn 0 -1.192093E-07 -1
vn 0 -1.192093E-07 -1
vn 0 -1.192093E-07 -1
vn 0 -1.192093E-07 -1
vn 0 -1.192093E-07 -1
vn 0 -1.192093E-07 -1
vn 0 -1.192093E-07 -1
vn 0 -1.192093E-07 -1
vn 0 -1.192093E-07 -1
vn 0 -1.192093E-07 -1
vn 0 -1.192093E-07 -1
vn 0 -1.192093E-07 -1
vn 0 -1.192093E-07 -1
vn 0 -1.192093E-07 -1
vn 0 -1.192093E-07 -1
vn 0 -1.192093E-07 -1
vn 0 -1.192093E-07 -1
vn 0 -1.192093E-07 -1
vn 0 -1.192093E-07 -1
vn 0 -1.192093E-07 -1
vn 0 -1.192093E-07 -1
vn 0 -1.192093E-07 -1
vn 0 -1.192093E-07 -1
vn 0 -1.192093E-07 -1
vn 0 -1.192093E-07 -1
vn 0 -1.192093E-07 -1
vn 0 -1.192093E-07 -1
vn 0 -1.192093E-07 -1
vn 0 -1.192093E-07 -1
vn 0 -1.192093E-07 -1
vn 0 -1.192093E-07 -1
vn 0 -1.192093E-07 -1
vn 0 -1.192093E-07 -1
vn 0 -1.192093E-07 -1
vn 0 -1.192093E-07 -1
vn 0 -1.192093E-07 -1
vn 0 -1.192093E-07 -1
vn 0 -1.192093E-07 -1
vn 0 -1.192093E-07 -1
vn 0 -1.192093E-07 -1
vn 0 -1.192093E-07 -1
vn 0 -1.192093E-07 -1
vn 0 -1.192093E-07 -1
vn 0 -1.192093E-07 -1
vn 0 -1.192093E-07 -1
vn 0 -1.192093E-07 -1
vn 0 -1.192093E-07 -1
vn 0 -1.192093E-07 -1
vn 0 -1.192093E-07 -1
vn 0 -1.192093E-07 -1
vn 0 -1.192093E-07 -1
vn 0 -1.192093E-07 -1
vn 0 -1.192093E-07 -1
vn 0 -1.192093E-07 -1
vn 0 -1.192093E-07 -1
vn 0 -1.192093E-07 -1
vn 0 -1.192093E-07 -1
vn 0 -1.192093E-07 -1
vn 1 1.81943E-07 5.960464E-08
vn 1 1.81943E-07 5.960464E-08
vn 1 1.81943E-07 5.960464E-08
vn 1 1.81943E-07 5.960464E-08
vn 1 1.81943E-07 5.960464E-08
vn 1 1.81943E-07 5.960464E-08
vn 1 1.81943E-07 5.960464E-08
vn 1 1.81943E-07 5.960464E-08
vn 0 0 -1
vn 0 0 -1
vn 0 0 -1
vn 0 0 -1
vn 0 0 -1
vn 0 0 -1
vn 0 0 -1
vn 0 0 -1
vn 0 0 -1
vn 0 0 -1
vn 0 0 -1
vn 0 0 -1
vn 1 1.470274E-07 -1.192093E-07
vn 1 1.470274E-07 -1.192093E-07
vn 1 1.470274E-07 -1.192093E-07
vn 1 1.470274E-07 -1.192093E-07
vn 1 1.470274E-07 -1.192093E-07
vn 1 1.470274E-07 -1.192093E-07
vn 1 1.470274E-07 -1.192093E-07
vn 1 1.470274E-07 -1.192093E-07
vn 1 1.470274E-07 -1.192093E-07
vn 1 1.470274E-07 -1.192093E-07
vn 1 1.470274E-07 -1.192093E-07
vn 1 1.470274E-07 -1.192093E-07
vn 1 1.470274E-07 -1.192093E-07
vn 1 1.470274E-07 -1.192093E-07
vn 1 1.470274E-07 -1.192093E-07
vn 1 1.470274E-07 -1.192093E-07
vn 1 1.470274E-07 -1.192093E-07
vn 1 1.470274E-07 -1.192093E-07
vn 1 1.470274E-07 -1.192093E-07
vn 1 1.470274E-07 -1.192093E-07
vn 1 1.470274E-07 -1.192093E-07
vn 1 1.470274E-07 -1.192093E-07
vn 1 1.470274E-07 -1.192093E-07
vn 1 1.470274E-07 -1.192093E-07
vn 1 1.470274E-07 -1.192093E-07
vn 1 1.470274E-07 -1.192093E-07
vn 1 1.470274E-07 -1.192093E-07
vn 1 1.470274E-07 -1.192093E-07
vn 0 0 -1
vn 0 0 -1
vn 0 0 -1
vn 0 0 -1
vn 0 1 0
vn 0 1 0
vn 0 1 0
vn 0 1 0
vn 1.451154E-14 -8.742278E-08 -1
vn 1.451154E-14 -8.742278E-08 -1
vn 1.451154E-14 -8.742278E-08 -1
vn 1.451154E-14 -8.742278E-08 -1
vn 1.451154E-14 -8.742278E-08 -1
vn 1.451154E-14 -8.742278E-08 -1
vn 1.451154E-14 -8.742278E-08 -1
vn 1.451154E-14 -8.742278E-08 -1
vn 0 1 0
vn 0 1 0
vn 0 1 0
vn 0 1 0
vn 0 1 0
vn 0 1 0
vn 0 1 0
vn 0 1 0
vn 1.451154E-14 -8.742278E-08 -1
vn 1.451154E-14 -8.742278E-08 -1
vn 1.451154E-14 -8.742278E-08 -1
vn 1.451154E-14 -8.742278E-08 -1
vn 1.421085E-14 -8.742277E-08 -1
vn 1.421085E-14 -8.742277E-08 -1
vn 1.421085E-14 -8.742277E-08 -1
vn 1.421085E-14 -8.742277E-08 -1
vn 8.742277E-08 3.984764E-22 -1
vn 8.742277E-08 3.984764E-22 -1
vn 8.742277E-08 3.984764E-22 -1
vn 8.742277E-08 3.984764E-22 -1
vn 1.451154E-14 -8.742278E-08 -1
vn 1.451154E-14 -8.742278E-08 -1
vn 1.451154E-14 -8.742278E-08 -1
vn 1.451154E-14 -8.742278E-08 -1
vn 1.451154E-14 -8.742278E-08 -1
vn 1.451154E-14 -8.742278E-08 -1
vn 1.451154E-14 -8.742278E-08 -1
vn 1.451154E-14 -8.742278E-08 -1
vn 1.451154E-14 -8.742278E-08 -1
vn 1.451154E-14 -8.742278E-08 -1
vn 1.451154E-14 -8.742278E-08 -1
vn 1.451154E-14 -8.742278E-08 -1
vn 1.451154E-14 -8.742278E-08 -1
vn 1.451154E-14 -8.742278E-08 -1
vn 1.451154E-14 -8.742278E-08 -1
vn 1.451154E-14 -8.742278E-08 -1
vn 8.742277E-08 3.984764E-22 -1
vn 8.742277E-08 3.984764E-22 -1
vn 8.742277E-08 3.984764E-22 -1
vn 8.742277E-08 3.984764E-22 -1
vn 8.742277E-08 3.984764E-22 -1
vn 8.742277E-08 3.984764E-22 -1
vn 8.742277E-08 3.984764E-22 -1
vn 8.742277E-08 3.984764E-22 -1
vn 8.742277E-08 3.984764E-22 -1
vn 8.742277E-08 3.984764E-22 -1
vn 8.742277E-08 3.984764E-22 -1
vn 8.742277E-08 3.984764E-22 -1
vn 8.742277E-08 3.984764E-22 -1
vn 8.742277E-08 3.984764E-22 -1
vn 8.742277E-08 3.984764E-22 -1
vn 8.742277E-08 3.984764E-22 -1
vn 1.421085E-14 -8.742277E-08 -1
vn 1.421085E-14 -8.742277E-08 -1
vn 1.421085E-14 -8.742277E-08 -1
vn 1.776357E-14 -8.742277E-08 -1
vn 1.776357E-14 -8.742277E-08 -1
vn 1.776357E-14 -8.742277E-08 -1
vn 8.742277E-08 3.984764E-22 -1
vn 8.742277E-08 3.984764E-22 -1
vn 8.742277E-08 3.984764E-22 -1
vn 8.742277E-08 3.984764E-22 -1
vn 8.742277E-08 3.984764E-22 -1
vn 8.742277E-08 3.984764E-22 -1
vn 8.742277E-08 3.984764E-22 -1
vn 8.742277E-08 3.984764E-22 -1
vn 1 1.470274E-07 -1.192093E-07
vn 1 1.470274E-07 -1.192093E-07
vn 1 1.470274E-07 -1.192093E-07
vn 1 1.470274E-07 -1.192093E-07
vn 1 1.470274E-07 -1.192093E-07
vn 1 1.470274E-07 -1.192093E-07
vn 1 1.470274E-07 -1.192093E-07
vn 1 1.470274E-07 -1.192093E-07
g _Combined_Vis5_0_0
f 3/3/3 2/2/2 1/1/1
f 4/4/4 3/3/3 1/1/1
f 4/4/4 1/1/1 5/5/5
f 6/6/6 4/4/4 5/5/5
f 6/6/6 5/5/5 7/7/7
f 8/8/8 6/6/6 7/7/7
f 7/7/7 9/9/9 8/8/8
f 9/9/9 10/10/10 8/8/8
f 13/13/13 12/12/12 11/11/11
f 13/13/13 11/11/11 14/14/14
f 14/14/14 15/15/15 13/13/13
f 14/14/14 16/16/16 15/15/15
f 16/16/16 17/17/17 15/15/15
f 16/16/16 18/18/18 17/17/17
f 18/18/18 19/19/19 17/17/17
f 18/18/18 20/20/20 19/19/19
f 23/23/23 22/22/22 21/21/21
f 23/23/23 21/21/21 24/24/24
f 24/24/24 25/25/25 23/23/23
f 24/24/24 26/26/26 25/25/25
f 26/26/26 27/27/27 25/25/25
f 26/26/26 28/28/28 27/27/27
f 28/28/28 29/29/29 27/27/27
f 28/28/28 30/30/30 29/29/29
f 33/33/33 32/32/32 31/31/31
f 34/34/34 33/33/33 31/31/31
f 34/34/34 31/31/31 35/35/35
f 36/36/36 34/34/34 35/35/35
f 36/36/36 35/35/35 37/37/37
f 38/38/38 36/36/36 37/37/37
f 37/37/37 39/39/39 38/38/38
f 39/39/39 40/40/40 38/38/38
f 43/43/43 42/42/42 41/41/41
f 44/44/44 43/43/43 41/41/41
f 44/44/44 41/41/41 45/45/45
f 46/46/46 44/44/44 45/45/45
f 46/46/46 45/45/45 47/47/47
f 48/48/48 46/46/46 47/47/47
f 47/47/47 49/49/49 48/48/48
f 49/49/49 50/50/50 48/48/48
f 53/53/53 52/52/52 51/51/51
f 54/54/54 53/53/53 51/51/51
f 54/54/54 51/51/51 55/55/55
f 56/56/56 54/54/54 55/55/55
f 56/56/56 55/55/55 57/57/57
f 58/58/58 56/56/56 57/57/57
f 57/57/57 59/59/59 58/58/58
f 59/59/59 60/60/60 58/58/58
f 63/63/63 62/62/62 61/61/61
f 64/64/64 63/63/63 61/61/61
f 67/67/67 66/66/66 65/65/65
f 68/68/68 67/67/67 65/65/65
f 71/71/71 70/70/70 69/69/69
f 72/72/72 71/71/71 69/69/69
f 75/75/75 74/74/74 73/73/73
f 76/76/76 75/75/75 73/73/73
f 79/79/79 78/78/78 77/77/77
f 80/80/80 79/79/79 77/77/77
f 83/83/83 82/82/82 81/81/81
f 84/84/84 83/83/83 81/81/81
f 87/87/87 86/86/86 85/85/85
f 88/88/88 87/87/87 85/85/85
f 91/91/91 90/90/90 89/89/89
f 92/92/92 91/91/91 89/89/89
f 95/95/95 94/94/94 93/93/93
f 96/96/96 95/95/95 93/93/93
f 99/99/99 98/98/98 97/97/97
f 100/100/100 99/99/99 97/97/97
f 103/103/103 102/102/102 101/101/101
f 104/104/104 103/103/103 101/101/101
f 107/107/107 106/106/106 105/105/105
f 108/108/108 107/107/107 105/105/105
f 111/111/111 110/110/110 109/109/109
f 112/112/112 111/111/111 109/109/109
f 115/115/115 114/114/114 113/113/113
f 116/116/116 115/115/115 113/113/113
f 119/119/119 118/118/118 117/117/117
f 119/119/119 120/120/120 118/118/118
f 123/123/123 122/122/122 121/121/121
f 124/124/124 123/123/123 121/121/121
f 127/127/127 126/126/126 125/125/125
f 128/128/128 127/127/127 125/125/125
f 131/131/131 130/130/130 129/129/129
f 132/132/132 131/131/131 129/129/129
f 135/135/135 134/134/134 133/133/133
f 136/136/136 135/135/135 133/133/133
f 139/139/139 138/138/138 137/137/137
f 140/140/140 139/139/139 137/137/137
f 143/143/143 142/142/142 141/141/141
f 144/144/144 143/143/143 141/141/141
f 147/147/147 146/146/146 145/145/145
f 148/148/148 147/147/147 145/145/145
f 151/151/151 150/150/150 149/149/149
f 152/152/152 151/151/151 149/149/149
f 155/155/155 154/154/154 153/153/153
f 156/156/156 155/155/155 153/153/153
f 159/159/159 158/158/158 157/157/157
f 160/160/160 159/159/159 157/157/157
f 163/163/163 162/162/162 161/161/161
f 163/163/163 164/164/164 162/162/162
f 167/167/167 166/166/166 165/165/165
f 168/168/168 167/167/167 165/165/165
f 171/171/171 170/170/170 169/169/169
f 172/172/172 171/171/171 169/169/169
f 175/175/175 174/174/174 173/173/173
f 176/176/176 175/175/175 173/173/173
f 179/179/179 178/178/178 177/177/177
f 179/179/179 120/120/120 178/178/178
f 181/181/181 122/122/122 180/180/180
f 182/182/182 181/181/181 180/180/180
f 185/185/185 184/184/184 183/183/183
f 186/186/186 185/185/185 183/183/183
f 189/189/189 188/188/188 187/187/187
f 190/190/190 189/189/189 187/187/187
f 193/193/193 192/192/192 191/191/191
f 194/194/194 193/193/193 191/191/191
f 197/197/197 196/196/196 195/195/195
f 198/198/198 197/197/197 195/195/195
