g _Combined_Vis1_0
v 0.4999959 2 0.3999968
v -4.321348E-06 2 0.4999968
v 0.4999959 2.062191 0.4999968
v -0.5000044 2.657948 -0.5000036
v -0.3614593 3 -0.5000036
v -0.5000044 3 -0.3571676
v 0.4999959 3 0.4999968
v -0.3614593 3 -0.5000036
v 0.499996 3 -0.5000035
v -0.5000045 3 0.4999967
v -0.5000044 3 -0.3571676
v -0.5000045 2 0.4999967
v 0.499996 2 -0.5000035
v -0.5000044 2 -0.5000036
v -4.321348E-06 2 0.4999968
v 0.4999959 2 0.3999968
v -0.5000045 3 0.4999967
v 0.4999959 3 0.4999968
v -0.5000045 2 0.4999967
v 0.4999959 2.062191 0.4999968
v -4.321348E-06 2 0.4999968
v 0.499996 3 -0.5000035
v 0.4999959 2.062191 0.4999968
v 0.4999959 3 0.4999968
v 0.499996 2 -0.5000035
v 0.4999959 2 0.3999968
v -0.3614593 3 -0.5000036
v 0.499996 2 -0.5000035
v 0.499996 3 -0.5000035
v -0.5000044 2.657948 -0.5000036
v -0.5000044 2 -0.5000036
v -0.5000045 3 0.4999967
v -0.5000044 2.657948 -0.5000036
v -0.5000044 3 -0.3571676
v -0.5000045 2 0.4999967
v -0.5000044 2 -0.5000036
v -0.5000006 1.9 0.5000007
v -0.5000007 2 4.521518E-07
v -0.4378096 2 0.5000007
v 0.1579476 0.9999999 -0.4999999
v 0.4999998 0.9999999 -0.3614548
v 0.4999997 1.142836 -0.4999999
v 0.4999997 2 0.5000006
v 0.4999998 0.9999999 -0.3614548
v 0.4999999 0.9999999 0.5000005
v 0.499996 2 -0.5000035
v 0.4999997 1.142836 -0.4999999
v -0.5000044 2 -0.5000036
v -0.5000005 1 0.5000007
v -0.5000006 1 -0.4999998
v -0.5000007 2 4.521518E-07
v -0.5000006 1.9 0.5000007
v 0.499996 2 -0.5000035
v 0.4999997 2 0.5000006
v -0.5000044 2 -0.5000036
v -0.4378096 2 0.5000007
v -0.5000007 2 4.521518E-07
v 0.4999999 0.9999999 0.5000005
v -0.4378096 2 0.5000007
v 0.4999997 2 0.5000006
v -0.5000005 1 0.5000007
v -0.5000006 1.9 0.5000007
v 0.4999998 0.9999999 -0.3614548
v -0.5000005 1 0.5000007
v 0.4999999 0.9999999 0.5000005
v 0.1579476 0.9999999 -0.4999999
v -0.5000005 1 0.5000007
v 0.4999998 0.9999999 -0.3614548
v -0.5000006 1 -0.4999998
v 0.499996 2 -0.5000035
v 0.1579476 0.9999999 -0.4999999
v 0.4999997 1.142836 -0.4999999
v -0.5000044 2 -0.5000036
v -0.5000006 1 -0.4999998
v -0.4000005 0 0.5000005
v -0.5000006 0 3.874338E-07
v -0.5000006 0.06219101 0.5000005
v 0.4999997 0.657948 -0.4999997
v 0.4999998 0.9999999 -0.3614548
v 0.3571636 1 -0.4999997
v -0.5000005 1 0.5000007
v 0.4999998 0.9999999 -0.3614548
v 0.4999999 0.9999999 0.5000005
v -0.5000006 1 -0.4999998
v 0.4999998 0.9999999 -0.3614548
v -0.5000005 1 0.5000007
v 0.3571636 1 -0.4999997
v -0.5000006 0 -0.4999997
v 0.4999997 0 0.5000005
v 0.4999997 0 -0.4999997
v -0.5000006 0 3.874338E-07
v -0.4000005 0 0.5000005
v -0.5000006 1 -0.4999998
v -0.5000005 1 0.5000007
v -0.5000006 0 -0.4999997
v -0.5000006 0.06219101 0.5000005
v -0.5000006 0 3.874338E-07
v 0.4999999 0.9999999 0.5000005
v -0.5000006 0.06219101 0.5000005
v -0.5000005 1 0.5000007
v 0.4999997 0 0.5000005
v -0.4000005 0 0.5000005
v 0.4999998 0.9999999 -0.3614548
v 0.4999997 0 0.5000005
v 0.4999999 0.9999999 0.5000005
v 0.4999997 0.657948 -0.4999997
v 0.4999997 0 -0.4999997
v -0.5000006 1 -0.4999998
v 0.4999997 0.657948 -0.4999997
v 0.3571636 1 -0.4999997
v -0.5000006 0 -0.4999997
v 0.4999997 0 -0.4999997
v -0.4000005 -3 0.5000005
v -0.5000006 -3 3.874338E-07
v -0.5000006 -2.813427 0.5000005
v 0.4999997 -1.026156 -0.4999997
v 0.4999997 0 -0.3614547
v 0.3571636 0 -0.4999997
v -0.5000006 0 0.5000005
v 0.4999997 0 -0.3614547
v 0.4999997 0 0.5000005
v -0.5000006 0 -0.4999997
v 0.3571636 0 -0.4999997
v -0.5000006 -3 -0.4999997
v 0.4999997 -3 0.5000005
v 0.4999997 -3 -0.4999997
v -0.5000006 -3 3.874338E-07
v -0.4000005 -3 0.5000005
v -0.5000006 0 -0.4999997
v -0.5000006 0 0.5000005
v -0.5000006 -3 -0.4999997
v -0.5000006 -2.813427 0.5000005
v -0.5000006 -3 3.874338E-07
v 0.4999997 0 0.5000005
v -0.5000006 -2.813427 0.5000005
v -0.5000006 0 0.5000005
v 0.4999997 -3 0.5000005
v -0.4000005 -3 0.5000005
v 0.4999997 0 -0.3614547
v 0.4999997 -3 0.5000005
v 0.4999997 0 0.5000005
v 0.4999997 -1.026156 -0.4999997
v 0.4999997 -3 -0.4999997
v -0.5000006 0 -0.4999997
v 0.4999997 -1.026156 -0.4999997
v 0.3571636 0 -0.4999997
v -0.5000006 -3 -0.4999997
v 0.4999997 -3 -0.4999997
v 1.249998 2.75 -0.5000018
v 1.374998 2.75 -0.2500017
v 1.374998 2.875 -0.2500018
v 1.374998 2.875 -0.2500018
v 0.9118189 3 -0.5000018
v 1.249998 2.75 -0.5000018
v 1.374998 2.875 -0.2500018
v 0.999998 3 -1.683079E-06
v 0.9118189 3 -0.5000018
v 1.124998 3 0.2499984
v 0.6249978 3 0.0749984
v 1.124998 2.875 0.1249984
v 1.374998 2.75 -0.2500017
v 0.999998 2.75 -1.593672E-06
v 0.999998 3 -1.683079E-06
v 1.374998 2.875 -0.2500018
v 0.4999976 2.75 -0.5000017
v 1.249998 2.75 -0.5000018
v 0.9118189 3 -0.5000018
v 0.499996 3 -0.5000035
v 1.124998 2.75 0.2499985
v 0.999998 2.75 0.4999986
v 0.999998 3 0.4999985
v 1.124998 3 0.2499984
v 0.6249978 3 0.0749984
v 0.9118189 3 -0.5000018
v 0.999998 3 -1.683079E-06
v 0.499996 3 -0.5000035
v 0.4999959 3 0.4999968
v 1.124998 3 0.2499984
v 0.999998 3 0.4999985
v 1.124998 2.75 0.1249984
v 1.124998 2.75 0.2499985
v 1.124998 3 0.2499984
v 1.124998 2.875 0.1249984
v 0.6249978 2.75 0.07499849
v 1.124998 2.75 0.1249984
v 1.124998 2.875 0.1249984
v 0.6249978 3 0.0749984
v 0.999998 2.75 -1.593672E-06
v 0.6249978 2.75 0.07499849
v 0.6249978 3 0.0749984
v 0.999998 3 -1.683079E-06
v 0.4999959 3 0.4999968
v 0.999998 3 0.4999985
v 0.999998 2.75 0.4999986
v 0.4999978 2.75 0.4999987
v 1.249998 2.75 -0.5000018
v 0.999998 2.75 -1.593672E-06
v 1.374998 2.75 -0.2500017
v 0.4999976 2.75 -0.5000017
v 0.6249978 2.75 0.07499849
v 0.4999978 2.75 0.4999987
v 0.999998 2.75 0.4999986
v 1.124998 2.75 0.1249984
v 1.124998 2.75 0.2499985
vt 0.4092392 0.3508422
vt 0.3060093 0.3556448
vt 0.4057527 0.3752213
vt 0.4006042 0.4319752
vt 0.3198077 0.396652
vt 0.3132747 0.4441147
vt 0.546875 0.203125
vt 0.421875 0.310807
vt 0.421875 0.203125
vt 0.546875 0.328125
vt 0.4397295 0.328125
vt 0.546875 0.328125
vt 0.421875 0.203125
vt 0.421875 0.328125
vt 0.546875 0.265625
vt 0.534375 0.203125
vt 0.421875 0.328125
vt 0.421875 0.203125
vt 0.296875 0.328125
vt 0.3046488 0.203125
vt 0.296875 0.265625
vt 0.546875 0.328125
vt 0.421875 0.4453512
vt 0.421875 0.328125
vt 0.546875 0.453125
vt 0.434375 0.453125
vt 0.421875 0.310807
vt 0.296875 0.203125
vt 0.421875 0.203125
vt 0.3791185 0.328125
vt 0.296875 0.328125
vt 0.546875 0.453125
vt 0.421875 0.4103685
vt 0.4397295 0.453125
vt 0.546875 0.328125
vt 0.421875 0.328125
vt 0.6999661 0.6775543
vt 0.6741586 0.6787549
vt 0.6990944 0.6836491
vt 0.6978073 0.6978376
vt 0.6776082 0.6890067
vt 0.675975 0.7008724
vt 0.734375 0.640625
vt 0.703125 0.6675455
vt 0.703125 0.640625
vt 0.734375 0.671875
vt 0.7075886 0.671875
vt 0.734375 0.671875
vt 0.703125 0.640625
vt 0.703125 0.671875
vt 0.734375 0.65625
vt 0.73125 0.640625
vt 0.703125 0.671875
vt 0.703125 0.640625
vt 0.671875 0.671875
vt 0.6738184 0.640625
vt 0.671875 0.65625
vt 0.734375 0.671875
vt 0.703125 0.7011815
vt 0.703125 0.671875
vt 0.734375 0.703125
vt 0.70625 0.703125
vt 0.703125 0.6675455
vt 0.671875 0.640625
vt 0.703125 0.640625
vt 0.6924359 0.671875
vt 0.671875 0.640625
vt 0.703125 0.6675455
vt 0.671875 0.671875
vt 0.734375 0.703125
vt 0.703125 0.6924359
vt 0.7075886 0.703125
vt 0.734375 0.671875
vt 0.703125 0.671875
vt 0.6999661 0.6775543
vt 0.6741586 0.6787549
vt 0.6990944 0.6836491
vt 0.6978073 0.6978376
vt 0.6776082 0.6890067
vt 0.675975 0.7008724
vt 0.734375 0.640625
vt 0.703125 0.6675455
vt 0.703125 0.640625
vt 0.734375 0.671875
vt 0.703125 0.6675455
vt 0.734375 0.640625
vt 0.7075886 0.671875
vt 0.734375 0.671875
vt 0.703125 0.640625
vt 0.703125 0.671875
vt 0.734375 0.65625
vt 0.73125 0.640625
vt 0.703125 0.671875
vt 0.703125 0.640625
vt 0.671875 0.671875
vt 0.6738184 0.640625
vt 0.671875 0.65625
vt 0.734375 0.671875
vt 0.703125 0.7011815
vt 0.703125 0.671875
vt 0.734375 0.703125
vt 0.70625 0.703125
vt 0.703125 0.6675455
vt 0.671875 0.640625
vt 0.703125 0.640625
vt 0.6924359 0.671875
vt 0.671875 0.671875
vt 0.734375 0.703125
vt 0.703125 0.6924359
vt 0.7075886 0.703125
vt 0.734375 0.671875
vt 0.703125 0.671875
vt 0.6999661 0.6775543
vt 0.6741586 0.6787549
vt 0.6990944 0.6836491
vt 0.6978073 0.6978376
vt 0.6776082 0.6890067
vt 0.675975 0.7008724
vt 0.734375 0.640625
vt 0.703125 0.6675455
vt 0.703125 0.640625
vt 0.734375 0.671875
vt 0.7075886 0.671875
vt 0.734375 0.671875
vt 0.703125 0.640625
vt 0.703125 0.671875
vt 0.734375 0.65625
vt 0.73125 0.640625
vt 0.703125 0.671875
vt 0.703125 0.640625
vt 0.671875 0.671875
vt 0.6738184 0.640625
vt 0.671875 0.65625
vt 0.734375 0.671875
vt 0.703125 0.7011815
vt 0.703125 0.671875
vt 0.734375 0.703125
vt 0.70625 0.703125
vt 0.703125 0.6675455
vt 0.671875 0.640625
vt 0.703125 0.640625
vt 0.6924359 0.671875
vt 0.671875 0.671875
vt 0.734375 0.703125
vt 0.703125 0.6924359
vt 0.7075886 0.703125
vt 0.734375 0.671875
vt 0.703125 0.671875
vt 0.6806567 0.6876724
vt 0.6730321 0.6876724
vt 0.6730321 0.695297
vt 0.6737704 0.6523715
vt 0.6954305 0.6406804
vt 0.6796159 0.6406804
vt 0.6737704 0.6523715
vt 0.6913069 0.6640625
vt 0.6954305 0.6406804
vt 0.6854614 0.6757536
vt 0.7088434 0.6675698
vt 0.6854614 0.669908
vt 0.6730321 0.6876724
vt 0.6959059 0.6876724
vt 0.6959059 0.7029216
vt 0.6730321 0.695297
vt 0.7264042 0.6876724
vt 0.6806567 0.6876724
vt 0.7012845 0.7029216
vt 0.7264042 0.7029216
vt 0.6882813 0.6876724
vt 0.6959059 0.6876724
vt 0.6959059 0.7029216
vt 0.6882813 0.7029216
vt 0.7088434 0.6675698
vt 0.6954305 0.6406804
vt 0.6913069 0.6640625
vt 0.714689 0.6406804
vt 0.714689 0.6874446
vt 0.6854614 0.6757536
vt 0.6913069 0.6874446
vt 0.6882813 0.6876724
vt 0.6882813 0.6876724
vt 0.6882813 0.7029216
vt 0.6882813 0.695297
vt 0.7187797 0.6876724
vt 0.6882813 0.6876724
vt 0.6882813 0.695297
vt 0.7187797 0.7029216
vt 0.6959059 0.6876724
vt 0.7187797 0.6876724
vt 0.7187797 0.7029216
vt 0.6959059 0.7029216
vt 0.7264042 0.7029216
vt 0.6959059 0.7029216
vt 0.6959059 0.6876724
vt 0.7264042 0.6876724
vt 0.7188568 0.6428608
vt 0.7234139 0.651975
vt 0.7165782 0.647418
vt 0.732528 0.6428608
vt 0.7302495 0.6533421
vt 0.732528 0.6610892
vt 0.7234139 0.6610892
vt 0.7211353 0.6542535
vt 0.7211353 0.656532
vn 0.1050159 -0.844492 0.5251714
vn 0.1050159 -0.844492 0.5251714
vn 0.1050159 -0.844492 0.5251714
vn -0.6892777 0.2791598 -0.6685552
vn -0.6892777 0.2791598 -0.6685552
vn -0.6892777 0.2791598 -0.6685552
vn 0 1 0
vn 0 1 0
vn 0 1 0
vn 0 1 0
vn 0 1 0
vn 0 -1 0
vn 0 -1 0
vn 0 -1 0
vn 0 -1 0
vn 0 -1 0
vn -1.192093E-07 0 1
vn -1.192093E-07 0 1
vn -1.192093E-07 0 1
vn -1.192093E-07 0 1
vn -1.192093E-07 0 1
vn 1 0 1.192093E-07
vn 1 0 1.192093E-07
vn 1 0 1.192093E-07
vn 1 0 1.192093E-07
vn 1 0 1.192093E-07
vn 1.192093E-07 0 -1
vn 1.192093E-07 0 -1
vn 1.192093E-07 0 -1
vn 1.192093E-07 0 -1
vn 1.192093E-07 0 -1
vn -1 0 -1.192093E-07
vn -1 0 -1.192093E-07
vn -1 0 -1.192093E-07
vn -1 0 -1.192093E-07
vn -1 0 -1.192093E-07
vn -0.8444919 0.5251715 0.1050161
vn -0.8444919 0.5251715 0.1050161
vn -0.8444919 0.5251715 0.1050161
vn 0.2791598 -0.6685551 -0.6892778
vn 0.2791598 -0.6685551 -0.6892778
vn 0.2791598 -0.6685551 -0.6892778
vn 1 -1.192092E-07 -9.96335E-08
vn 1 -1.192092E-07 -9.96335E-08
vn 1 -1.192092E-07 -9.96335E-08
vn 1 -1.192092E-07 -9.96335E-08
vn 1 -1.192092E-07 -9.96335E-08
vn -1 1.192092E-07 9.96335E-08
vn -1 1.192092E-07 9.96335E-08
vn -1 1.192092E-07 9.96335E-08
vn -1 1.192092E-07 9.96335E-08
vn -1 1.192092E-07 9.96335E-08
vn -1.192093E-07 1 2.980233E-08
vn -1.192093E-07 1 2.980233E-08
vn -1.192093E-07 1 2.980233E-08
vn -1.192093E-07 1 2.980233E-08
vn -1.192093E-07 1 2.980233E-08
vn 9.963347E-08 -2.980231E-08 1
vn 9.963347E-08 -2.980231E-08 1
vn 9.963347E-08 -2.980231E-08 1
vn 9.963347E-08 -2.980231E-08 1
vn 9.963347E-08 -2.980231E-08 1
vn 1.192093E-07 -1 -2.980233E-08
vn 1.192093E-07 -1 -2.980233E-08
vn 1.192093E-07 -1 -2.980233E-08
vn 1.192093E-07 -1 -2.980233E-08
vn 1.192093E-07 -1 -2.980233E-08
vn 1.192093E-07 -1 -2.980233E-08
vn 1.192093E-07 -1 -2.980233E-08
vn -9.963347E-08 2.980231E-08 -1
vn -9.963347E-08 2.980231E-08 -1
vn -9.963347E-08 2.980231E-08 -1
vn -9.963347E-08 2.980231E-08 -1
vn -9.963347E-08 2.980231E-08 -1
vn -0.5251714 -0.844492 0.105016
vn -0.5251714 -0.844492 0.105016
vn -0.5251714 -0.844492 0.105016
vn 0.6685551 0.2791598 -0.6892778
vn 0.6685551 0.2791598 -0.6892778
vn 0.6685551 0.2791598 -0.6892778
vn 0 1 0
vn 0 1 0
vn 0 1 0
vn 0 1 0
vn 0 1 0
vn 0 1 0
vn 0 1 0
vn 0 -1 0
vn 0 -1 0
vn 0 -1 0
vn 0 -1 0
vn 0 -1 0
vn -1 0 0
vn -1 0 0
vn -1 0 0
vn -1 0 0
vn -1 0 0
vn 0 0 1
vn 0 0 1
vn 0 0 1
vn 0 0 1
vn 0 0 1
vn 1 0 0
vn 1 0 0
vn 1 0 0
vn 1 0 0
vn 1 0 0
vn 0 0 -1
vn 0 0 -1
vn 0 0 -1
vn 0 0 -1
vn 0 0 -1
vn -0.8679937 -0.4652537 0.1735685
vn -0.8679937 -0.4652537 0.1735685
vn -0.8679937 -0.4652537 0.1735685
vn 0.6929879 0.09645396 -0.7144679
vn 0.6929879 0.09645396 -0.7144679
vn 0.6929879 0.09645396 -0.7144679
vn 0 1 0
vn 0 1 0
vn 0 1 0
vn 0 1 0
vn 0 1 0
vn 0 -1 0
vn 0 -1 0
vn 0 -1 0
vn 0 -1 0
vn 0 -1 0
vn -1 0 0
vn -1 0 0
vn -1 0 0
vn -1 0 0
vn -1 0 0
vn 0 0 1
vn 0 0 1
vn 0 0 1
vn 0 0 1
vn 0 0 1
vn 1 0 0
vn 1 0 0
vn 1 0 0
vn 1 0 0
vn 1 0 0
vn 0 0 -1
vn 0 0 -1
vn 0 0 -1
vn 0 0 -1
vn 0 0 -1
vn 0.8944333 -7.806514E-09 -0.4472015
vn 0.8944333 -7.806514E-09 -0.4472015
vn 0.8944333 -7.806514E-09 -0.4472015
vn 0.4871493 0.6590037 -0.5730616
vn 0.4871493 0.6590037 -0.5730616
vn 0.4871493 0.6590037 -0.5730616
vn 0.2854434 0.9570733 -0.05032608
vn 0.2854434 0.9570733 -0.05032608
vn 0.2854434 0.9570733 -0.05032608
vn 0.2402148 0.6864024 -0.6864027
vn 0.2402148 0.6864024 -0.6864027
vn 0.2402148 0.6864024 -0.6864027
vn 0.5546933 6.128359E-08 0.8320549
vn 0.5546933 6.128359E-08 0.8320549
vn 0.5546933 6.128359E-08 0.8320549
vn 0.5546933 6.128359E-08 0.8320549
vn -1.475139E-07 -5.960462E-08 -1
vn -1.475139E-07 -5.960462E-08 -1
vn -1.475139E-07 -5.960462E-08 -1
vn -1.475139E-07 -5.960462E-08 -1
vn 0.8944334 4.550403E-08 0.4472013
vn 0.8944334 4.550403E-08 0.4472013
vn 0.8944334 4.550403E-08 0.4472013
vn 0.8944334 4.550403E-08 0.4472013
vn -2.107345E-08 1 -3.576279E-07
vn -2.107345E-08 1 -3.576279E-07
vn -2.107345E-08 1 -3.576279E-07
vn -2.107345E-08 1 -3.576279E-07
vn -2.107345E-08 1 -3.576279E-07
vn -2.107345E-08 1 -3.576279E-07
vn -2.107345E-08 1 -3.576279E-07
vn 1 2.107341E-08 -1.475139E-07
vn 1 2.107341E-08 -1.475139E-07
vn 1 2.107341E-08 -1.475139E-07
vn 1 2.107341E-08 -1.475139E-07
vn 0.09949149 -5.721226E-08 -0.9950384
vn 0.09949149 -5.721226E-08 -0.9950384
vn 0.09949149 -5.721226E-08 -0.9950384
vn 0.09949149 -5.721226E-08 -0.9950384
vn 0.1961163 6.257998E-08 0.9805807
vn 0.1961163 6.257998E-08 0.9805807
vn 0.1961163 6.257998E-08 0.9805807
vn 0.1961163 6.257998E-08 0.9805807
vn 1.475139E-07 5.960462E-08 1
vn 1.475139E-07 5.960462E-08 1
vn 1.475139E-07 5.960462E-08 1
vn 1.475139E-07 5.960462E-08 1
vn 2.107345E-08 -1 3.576279E-07
vn 2.107345E-08 -1 3.576279E-07
vn 2.107345E-08 -1 3.576279E-07
vn 2.107345E-08 -1 3.576279E-07
vn 2.107345E-08 -1 3.576279E-07
vn 2.107345E-08 -1 3.576279E-07
vn 2.107345E-08 -1 3.576279E-07
vn 2.107345E-08 -1 3.576279E-07
vn 2.107345E-08 -1 3.576279E-07
g _Combined_Vis1_0_0
f 3/3/3 2/2/2 1/1/1
f 6/6/6 5/5/5 4/4/4
f 9/9/9 8/8/8 7/7/7
f 7/7/7 8/8/8 10/10/10
f 10/10/10 8/8/8 11/11/11
f 14/14/14 13/13/13 12/12/12
f 13/13/13 15/15/15 12/12/12
f 16/16/16 15/15/15 13/13/13
f 19/19/19 18/18/18 17/17/17
f 20/20/20 18/18/18 19/19/19
f 21/21/21 20/20/20 19/19/19
f 24/24/24 23/23/23 22/22/22
f 22/22/22 23/23/23 25/25/25
f 23/23/23 26/26/26 25/25/25
f 29/29/29 28/28/28 27/27/27
f 27/27/27 28/28/28 30/30/30
f 30/30/30 28/28/28 31/31/31
f 34/34/34 33/33/33 32/32/32
f 32/32/32 33/33/33 35/35/35
f 33/33/33 36/36/36 35/35/35
f 39/39/39 38/38/38 37/37/37
f 42/42/42 41/41/41 40/40/40
f 45/45/45 44/44/44 43/43/43
f 43/43/43 44/44/44 46/46/46
f 46/46/46 44/44/44 47/47/47
f 50/50/50 49/49/49 48/48/48
f 49/49/49 51/51/51 48/48/48
f 52/52/52 51/51/51 49/49/49
f 55/55/55 54/54/54 53/53/53
f 56/56/56 54/54/54 55/55/55
f 57/57/57 56/56/56 55/55/55
f 60/60/60 59/59/59 58/58/58
f 58/58/58 59/59/59 61/61/61
f 59/59/59 62/62/62 61/61/61
f 65/65/65 64/64/64 63/63/63
f 68/68/68 67/67/67 66/66/66
f 66/66/66 67/67/67 69/69/69
f 72/72/72 71/71/71 70/70/70
f 70/70/70 71/71/71 73/73/73
f 71/71/71 74/74/74 73/73/73
f 77/77/77 76/76/76 75/75/75
f 80/80/80 79/79/79 78/78/78
f 83/83/83 82/82/82 81/81/81
f 86/86/86 85/85/85 84/84/84
f 84/84/84 85/85/85 87/87/87
f 90/90/90 89/89/89 88/88/88
f 89/89/89 91/91/91 88/88/88
f 92/92/92 91/91/91 89/89/89
f 95/95/95 94/94/94 93/93/93
f 96/96/96 94/94/94 95/95/95
f 97/97/97 96/96/96 95/95/95
f 100/100/100 99/99/99 98/98/98
f 98/98/98 99/99/99 101/101/101
f 99/99/99 102/102/102 101/101/101
f 105/105/105 104/104/104 103/103/103
f 103/103/103 104/104/104 106/106/106
f 106/106/106 104/104/104 107/107/107
f 110/110/110 109/109/109 108/108/108
f 108/108/108 109/109/109 111/111/111
f 109/109/109 112/112/112 111/111/111
f 115/115/115 114/114/114 113/113/113
f 118/118/118 117/117/117 116/116/116
f 121/121/121 120/120/120 119/119/119
f 119/119/119 120/120/120 122/122/122
f 122/122/122 120/120/120 123/123/123
f 126/126/126 125/125/125 124/124/124
f 125/125/125 127/127/127 124/124/124
f 128/128/128 127/127/127 125/125/125
f 131/131/131 130/130/130 129/129/129
f 132/132/132 130/130/130 131/131/131
f 133/133/133 132/132/132 131/131/131
f 136/136/136 135/135/135 134/134/134
f 134/134/134 135/135/135 137/137/137
f 135/135/135 138/138/138 137/137/137
f 141/141/141 140/140/140 139/139/139
f 139/139/139 140/140/140 142/142/142
f 142/142/142 140/140/140 143/143/143
f 146/146/146 145/145/145 144/144/144
f 144/144/144 145/145/145 147/147/147
f 145/145/145 148/148/148 147/147/147
f 151/151/151 150/150/150 149/149/149
f 154/154/154 153/153/153 152/152/152
f 157/157/157 156/156/156 155/155/155
f 160/160/160 159/159/159 158/158/158
f 163/163/163 162/162/162 161/161/161
f 164/164/164 163/163/163 161/161/161
f 167/167/167 166/166/166 165/165/165
f 168/168/168 167/167/167 165/165/165
f 171/171/171 170/170/170 169/169/169
f 172/172/172 171/171/171 169/169/169
f 175/175/175 174/174/174 173/173/173
f 174/174/174 176/176/176 173/173/173
f 173/173/173 176/176/176 177/177/177
f 173/173/173 177/177/177 178/178/178
f 177/177/177 179/179/179 178/178/178
f 182/182/182 181/181/181 180/180/180
f 183/183/183 182/182/182 180/180/180
f 186/186/186 185/185/185 184/184/184
f 187/187/187 186/186/186 184/184/184
f 190/190/190 189/189/189 188/188/188
f 191/191/191 190/190/190 188/188/188
f 194/194/194 193/193/193 192/192/192
f 195/195/195 194/194/194 192/192/192
f 198/198/198 197/197/197 196/196/196
f 197/197/197 199/199/199 196/196/196
f 199/199/199 197/197/197 200/200/200
f 199/199/199 200/200/200 201/201/201
f 202/202/202 201/201/201 200/200/200
f 202/202/202 200/200/200 203/203/203
f 204/204/204 202/202/202 203/203/203
