g _Combined_Vis52_0
v 29.50004 -48.5 -7.500011
v 29.50004 -49.5 -7.500009
v 29.50003 -49.5 -6.50001
v 29.50003 -48.5 -6.50001
v 29.50004 -48.5 -7.500011
v 28.50002 -48.5 -7.500018
v 28.50002 -49.5 -7.500018
v 29.50004 -49.5 -7.500009
v 28.50002 -47.5 -6.500018
v 28.50002 -47.5 -7.500019
v 29.50002 -47.5 -7.500016
v 29.50002 -47.5 -6.500015
v 29.50002 -47.5 -7.500016
v 28.50002 -47.5 -7.500019
v 28.50002 -48.5 -7.500018
v 29.50004 -48.5 -7.500011
v 29.50002 -47.5 -7.500016
v 29.50004 -48.5 -7.500011
v 29.50003 -48.5 -6.50001
v 29.50002 -47.5 -6.500015
vt 0.7578125 0.4140625
vt 0.7578125 0.3515625
vt 0.6953125 0.3515625
vt 0.6953125 0.4140625
vt 0.7578125 0.4140625
vt 0.7578125 0.3515625
vt 0.6953125 0.3515625
vt 0.6953125 0.4140625
vt 0.7265625 0.1640625
vt 0.7265625 0.1015625
vt 0.6640625 0.1015625
vt 0.6640625 0.1640625
vt 0.7578125 0.4140625
vt 0.7578125 0.3515625
vt 0.6953125 0.3515625
vt 0.6953125 0.4140625
vt 0.7578125 0.4140625
vt 0.7578125 0.3515625
vt 0.6953125 0.3515625
vt 0.6953125 0.4140625
vn 1 0 2.741813E-06
vn 1 0 2.741813E-06
vn 1 0 2.741813E-06
vn 1 0 2.741813E-06
vn 2.865985E-06 0 -1
vn 2.865985E-06 0 -1
vn 2.865985E-06 0 -1
vn 2.865985E-06 0 -1
vn 0 1 -1.192093E-07
vn 0 1 -1.192093E-07
vn 0 1 -1.192093E-07
vn 0 1 -1.192093E-07
vn 2.828426E-06 0 -1
vn 2.828426E-06 0 -1
vn 2.828426E-06 0 -1
vn 2.828426E-06 0 -1
vn 1 0 2.741813E-06
vn 1 0 2.741813E-06
vn 1 0 2.741813E-06
vn 1 0 2.741813E-06
g _Combined_Vis52_0_0
f 3/3/3 2/2/2 1/1/1
f 4/4/4 3/3/3 1/1/1
f 7/7/7 6/6/6 5/5/5
f 8/8/8 7/7/7 5/5/5
f 11/11/11 10/10/10 9/9/9
f 12/12/12 11/11/11 9/9/9
f 15/15/15 14/14/14 13/13/13
f 16/16/16 15/15/15 13/13/13
f 19/19/19 18/18/18 17/17/17
f 20/20/20 19/19/19 17/17/17
