g _Combined_Vis42_1
v 0.2499998 0.9615705 1.359821
v -0.7500002 1 1.750002
v 0.2499998 1 1.750002
v -0.7500002 0.9615705 1.359821
v 0.25 0.8477588 0.9846346
v -0.75 0.8477588 0.9846346
v 0.25 0.6629388 0.6388609
v -0.75 0.6629388 0.6388609
v 0.2499998 0.4142129 0.335788
v -0.7500002 0.4142128 0.335788
v 0.2499998 0.1111397 0.08706236
v -0.7500002 0.1111397 0.08706236
v 0.2499998 -0.2346343 -0.09775734
v -0.7500002 -0.2346343 -0.09775734
v 0.2499998 -0.6098207 -0.2115686
v -0.7500002 -0.6098207 -0.2115686
v 0.2499998 -1.000002 -0.2499976
v -0.7500002 -1.000002 -0.2499976
v 0.25 0.6629388 0.6388609
v 0.25 0.8477588 0.9846346
v 0.25 1 -0.25
v 0.2499998 0.9615705 1.359821
v 0.2499998 1 1.750002
v 0.2499998 0.4142129 0.335788
v 0.25 1 -0.25
v 0.2499998 0.1111397 0.08706236
v 0.2499998 -0.2346343 -0.09775734
v 0.2499998 -0.6098207 -0.2115686
v 0.25 1 -0.25
v 0.2499998 -1.000002 -0.2499976
v -0.7500002 -1.000002 -0.2499976
v 0.2499998 -1.000002 -0.2499976
v 0.25 1 -0.25
v -0.7500002 1 -0.25
v 0.2499998 1 1.750002
v -0.7500002 1 1.750002
v -0.7500002 1 -0.25
v 0.25 1 -0.25
v -0.7500002 1 1.750002
v -0.7500002 0.9615705 1.359821
v -0.7500002 1 -0.25
v -0.75 0.8477588 0.9846346
v -0.75 0.6629388 0.6388609
v -0.7500002 1 -0.25
v -0.7500002 0.4142128 0.335788
v -0.7500002 0.1111397 0.08706236
v -0.7500002 -0.2346343 -0.09775734
v -0.7500002 1 -0.25
v -0.7500002 -0.6098207 -0.2115686
v -0.7500002 -1.000002 -0.2499976
v 0.25 2.000001 1.75
v 0.25 1.999999 0.75
v 0.25 1 0.75
v 0.2499998 1 1.750002
v 0.25 2.000001 -0.25
v 0.25 1.999999 -1.25
v 0.25 1 -1.25
v 0.25 1 -0.25
v 0.25 1.999999 0.75
v 0.25 2.000001 -0.25
v 0.25 1 -0.25
v 0.25 1 0.75
v 0.25 1 -1.25
v 0.2499999 -14 -1.249999
v 0.2500001 -14 -0.2499999
vt 0.96875 0.1054688
vt 0.9375 0.09375
vt 0.96875 0.09375
vt 0.9375 0.1054688
vt 0.96875 0.1171875
vt 0.9375 0.1171875
vt 0.96875 0.1289063
vt 0.9375 0.1289063
vt 0.96875 0.140625
vt 0.9375 0.140625
vt 0.96875 0.1523438
vt 0.9375 0.1523438
vt 0.96875 0.1640625
vt 0.9375 0.1640625
vt 0.96875 0.1757813
vt 0.9375 0.1757813
vt 0.96875 0.1875
vt 0.9375 0.1875
vt 0.8648163 0.1631962
vt 0.853265 0.1415854
vt 0.84375 0.125
vt 0.8461518 0.1181363
vt 0.84375 0.09375
vt 0.8803617 0.1821383
vt 0.84375 0.21875
vt 0.8993037 0.1976836
vt 0.9209146 0.2092348
vt 0.9443637 0.2163481
vt 0.9375 0.21875
vt 0.96875 0.2187499
vt 0.875 0.125
vt 0.90625 0.125
vt 0.90625 0.09375
vt 0.875 0.09375
vt 0.875 0.125
vt 0.90625 0.125
vt 0.90625 0.09375
vt 0.875 0.09375
vt 0.84375 0.09375
vt 0.8461518 0.1181363
vt 0.84375 0.125
vt 0.853265 0.1415854
vt 0.8648163 0.1631962
vt 0.84375 0.21875
vt 0.8803617 0.1821383
vt 0.8993037 0.1976836
vt 0.9209146 0.2092348
vt 0.9375 0.21875
vt 0.9443637 0.2163481
vt 0.96875 0.2187499
vt 0.96875 0.21875
vt 0.96875 0.09375
vt 0.84375 0.09375
vt 0.84375 0.21875
vt 0.96875 0.21875
vt 0.96875 0.09375
vt 0.84375 0.09375
vt 0.84375 0.21875
vt 0.96875 0.21875
vt 0.96875 0.09375
vt 0.84375 0.09375
vt 0.84375 0.21875
vt 0.96875 0.21875
vt 0.96875 0.09375
vt 0.84375 0.09375
vn 0 -0.9807851 0.195091
vn 0 -1 0
vn 0 -1 0
vn 0 -0.9807852 0.1950909
vn 0 -0.9238793 0.3826838
vn 0 -0.9238794 0.3826838
vn 0 -0.8314694 0.5555707
vn 0 -0.8314694 0.5555707
vn 0 -0.7071064 0.7071072
vn 0 -0.7071064 0.7071071
vn 0 -0.5555699 0.8314699
vn 0 -0.5555699 0.8314699
vn 0 -0.3826827 0.9238798
vn 0 -0.3826827 0.9238798
vn 0 -0.1950894 0.9807855
vn 0 -0.1950894 0.9807855
vn 0 0 1
vn 0 0 1
vn 1 0 0
vn 1 0 0
vn 1 0 0
vn 1 0 0
vn 1 0 0
vn 1 0 0
vn 1 0 0
vn 1 0 0
vn 1 0 0
vn 1 0 0
vn 1 0 0
vn 1 0 0
vn 0 0 -1
vn 0 0 -1
vn 0 0 -1
vn 0 0 -1
vn 0 1 0
vn 0 1 0
vn 0 1 0
vn 0 1 0
vn -1 0 0
vn -1 0 0
vn -1 0 0
vn -1 0 0
vn -1 0 0
vn -1 0 0
vn -1 0 0
vn -1 0 0
vn -1 0 0
vn -1 0 0
vn -1 0 0
vn -1 0 0
vn 1 0 0
vn 1 0 0
vn 1 0 0
vn 1 0 0
vn 1 0 0
vn 1 0 0
vn 1 0 0
vn 1 0 0
vn 1 0 0
vn 1 0 0
vn 1 0 0
vn 1 0 0
vn 1 0 -1.192093E-07
vn 1 0 -1.192093E-07
vn 1 0 -1.192093E-07
g _Combined_Vis42_1_0
f 3/3/3 2/2/2 1/1/1
f 2/2/2 4/4/4 1/1/1
f 1/1/1 4/4/4 5/5/5
f 4/4/4 6/6/6 5/5/5
f 5/5/5 6/6/6 7/7/7
f 6/6/6 8/8/8 7/7/7
f 7/7/7 8/8/8 9/9/9
f 8/8/8 10/10/10 9/9/9
f 9/9/9 10/10/10 11/11/11
f 10/10/10 12/12/12 11/11/11
f 11/11/11 12/12/12 13/13/13
f 12/12/12 14/14/14 13/13/13
f 13/13/13 14/14/14 15/15/15
f 14/14/14 16/16/16 15/15/15
f 15/15/15 16/16/16 17/17/17
f 16/16/16 18/18/18 17/17/17
f 21/21/21 20/20/20 19/19/19
f 21/21/21 22/22/22 20/20/20
f 21/21/21 23/23/23 22/22/22
f 25/25/25 19/19/19 24/24/24
f 25/25/25 24/24/24 26/26/26
f 25/25/25 26/26/26 27/27/27
f 29/29/29 27/27/27 28/28/28
f 29/29/29 28/28/28 30/30/30
f 33/33/33 32/32/32 31/31/31
f 34/34/34 33/33/33 31/31/31
f 37/37/37 36/36/36 35/35/35
f 38/38/38 37/37/37 35/35/35
f 41/41/41 40/40/40 39/39/39
f 41/41/41 42/42/42 40/40/40
f 44/44/44 43/43/43 42/42/42
f 44/44/44 45/45/45 43/43/43
f 44/44/44 46/46/46 45/45/45
f 48/48/48 47/47/47 46/46/46
f 48/48/48 49/49/49 47/47/47
f 48/48/48 50/50/50 49/49/49
f 53/53/53 52/52/52 51/51/51
f 54/54/54 53/53/53 51/51/51
f 57/57/57 56/56/56 55/55/55
f 58/58/58 57/57/57 55/55/55
f 61/61/61 60/60/60 59/59/59
f 62/62/62 61/61/61 59/59/59
f 65/65/65 64/64/64 63/63/63
f 58/58/58 65/65/65 63/63/63
