g _Combined_Vis57_0
v -0.5002995 -0.2851253 0.4571888
v -0.08693035 -0.3948443 0.4996449
v -0.08693036 -0.4208943 0.4193069
v -0.5002995 -0.2851253 0.4571888
v -0.08693036 -0.4208943 0.4193069
v -0.5002995 -0.3531963 0.4048818
v -0.08693036 -0.4208943 0.4193069
v -0.000299322 -0.4999163 0.4193069
v -0.5002995 -0.4999163 0.3616068
v -0.5002995 -0.3531963 0.4048818
v 0.4997007 0.500084 -0.5003554
v -0.5002997 0.5000839 -0.5003555
v -0.5002996 -0.4208944 -0.5003555
v 0.4997008 -0.4208943 -0.5003554
v 0.4997008 -0.4999163 -0.5003554
v -0.5002996 -0.4999163 -0.5003555
v -0.5002995 -0.2851253 0.4571888
v -0.5002997 0.5000839 -0.5003555
v -0.5002996 0.5000839 0.4996449
v -0.5002995 -0.3531963 0.4048818
v -0.5002996 -0.4208944 -0.5003555
v -0.5002996 -0.4999163 -0.5003555
v -0.5002995 -0.4999163 0.3616068
v -0.0002993149 -0.4697163 0.4996449
v 0.4997009 -0.4208943 0.499644
v 0.4997008 -0.4999163 0.419306
v -0.000299322 -0.4999163 0.4193069
v 0.4997008 -0.4208943 -0.5003554
v 0.4997008 -0.4999163 -0.5003554
v 0.4997008 -0.4999163 0.419306
v 0.4997007 0.500084 -0.5003554
v 0.4997008 0.500084 0.499645
v 0.4997009 -0.4208943 0.499644
v -0.000299322 -0.4999163 0.4193069
v 0.4997008 -0.4999163 0.419306
v 0.4997008 -0.4999163 -0.5003554
v -0.5002995 -0.4999163 0.3616068
v -0.5002996 -0.4999163 -0.5003555
v -0.08693035 -0.3948443 0.4996449
v -0.0002993149 -0.4697163 0.4996449
v -0.000299322 -0.4999163 0.4193069
v -0.08693036 -0.4208943 0.4193069
v -0.5002996 0.5000839 0.4996449
v -0.08693035 -0.3948443 0.4996449
v -0.5002995 -0.2851253 0.4571888
v 0.4997008 0.500084 0.499645
v 0.4997009 -0.4208943 0.499644
v -0.0002993149 -0.4697163 0.4996449
v -0.5002996 0.5000839 0.4996449
v -0.5002997 0.5000839 -0.5003555
v 0.4997007 0.500084 -0.5003554
v 0.4997008 0.500084 0.499645
vt 0.4270647 0.507865
vt 0.4217578 0.4820295
vt 0.4318 0.4820295
vt 0.4270647 0.507865
vt 0.4318 0.4820295
vt 0.433603 0.507865
vt 0.3476563 0.5615235
vt 0.3564453 0.565918
vt 0.303711 0.565918
vt 0.303711 0.5581055
vt 0.4111328 0.5126953
vt 0.303711 0.512207
vt 0.303711 0.5615235
vt 0.4101563 0.5615235
vt 0.4101563 0.565918
vt 0.303711 0.565918
vt 0.4365235 0.553711
vt 0.5361328 0.5131836
vt 0.4326172 0.5131836
vt 0.4423828 0.5571289
vt 0.5361328 0.5605469
vt 0.5361328 0.5649414
vt 0.446289 0.5649414
vt 0.4217578 0.476615
vt 0.4217578 0.445365
vt 0.4318 0.445365
vt 0.4318 0.476615
vt 0.5361328 0.5605469
vt 0.5361328 0.5649414
vt 0.4404297 0.5649414
vt 0.5361328 0.5131836
vt 0.4326172 0.5131836
vt 0.4326172 0.5605469
vt 0.4318 0.476615
vt 0.4318 0.445365
vt 0.5467578 0.445365
vt 0.4390125 0.507865
vt 0.5467578 0.507865
vt 0.4326172 0.5175781
vt 0.4326172 0.5131836
vt 0.4404297 0.5131836
vt 0.4404297 0.5175781
vt 0.303711 0.512207
vt 0.3476563 0.5600586
vt 0.303711 0.5541992
vt 0.4111328 0.5126953
vt 0.4101563 0.5615235
vt 0.3564453 0.5644531
vt 0.453125 0.4296875
vt 0.453125 0.3671875
vt 0.328125 0.3671875
vt 0.328125 0.4296875
vn -0.2100379 -0.7973541 0.5657831
vn -0.2100379 -0.7973541 0.5657831
vn -0.2100379 -0.7973541 0.5657831
vn -0.2100379 -0.7973541 0.5657831
vn -0.2100379 -0.7973541 0.5657831
vn -0.2100379 -0.7973541 0.5657831
vn -0.09308585 -0.221796 0.9706398
vn -0.09308585 -0.221796 0.9706398
vn -0.09308585 -0.221796 0.9706398
vn -0.09308585 -0.221796 0.9706398
vn -1.192093E-07 0 -1
vn -1.192093E-07 0 -1
vn -1.192093E-07 0 -1
vn -1.192093E-07 0 -1
vn -1.192093E-07 0 -1
vn -1.192093E-07 0 -1
vn -1 -8.429367E-08 -1.192093E-07
vn -1 -8.429367E-08 -1.192093E-07
vn -1 -8.429367E-08 -1.192093E-07
vn -1 -8.429367E-08 -1.192093E-07
vn -1 -8.429367E-08 -1.192093E-07
vn -1 -8.429367E-08 -1.192093E-07
vn -1 -8.429367E-08 -1.192093E-07
vn 0.04034414 -0.8263431 0.5617201
vn 0.04034414 -0.8263431 0.5617201
vn 0.04034414 -0.8263431 0.5617201
vn 0.04034414 -0.8263431 0.5617201
vn 1 8.429367E-08 1.192093E-07
vn 1 8.429367E-08 1.192093E-07
vn 1 8.429367E-08 1.192093E-07
vn 1 8.429367E-08 1.192093E-07
vn 1 8.429367E-08 1.192093E-07
vn 1 8.429367E-08 1.192093E-07
vn 8.42937E-08 -1 -3.508525E-22
vn 8.42937E-08 -1 -3.508525E-22
vn 8.42937E-08 -1 -3.508525E-22
vn 8.42937E-08 -1 -3.508525E-22
vn 8.42937E-08 -1 -3.508525E-22
vn -0.6424399 -0.723294 0.2532129
vn -0.6424399 -0.723294 0.2532129
vn -0.6424399 -0.723294 0.2532129
vn -0.6424399 -0.723294 0.2532129
vn -0.03113787 -0.014383 0.9994116
vn 1.192093E-07 0 1
vn -0.03113787 -0.014383 0.9994116
vn 1.192093E-07 0 1
vn 1.192093E-07 0 1
vn 1.192093E-07 0 1
vn 0 1 -1.192093E-07
vn 0 1 -1.192093E-07
vn 0 1 -1.192093E-07
vn 0 1 -1.192093E-07
g _Combined_Vis57_0_0
f 3/3/3 2/2/2 1/1/1
f 6/6/6 5/5/5 4/4/4
f 9/9/9 8/8/8 7/7/7
f 10/10/10 9/9/9 7/7/7
f 13/13/13 12/12/12 11/11/11
f 14/14/14 13/13/13 11/11/11
f 14/14/14 15/15/15 13/13/13
f 15/15/15 16/16/16 13/13/13
f 19/19/19 18/18/18 17/17/17
f 18/18/18 20/20/20 17/17/17
f 18/18/18 21/21/21 20/20/20
f 21/21/21 22/22/22 20/20/20
f 22/22/22 23/23/23 20/20/20
f 26/26/26 25/25/25 24/24/24
f 27/27/27 26/26/26 24/24/24
f 30/30/30 29/29/29 28/28/28
f 30/30/30 28/28/28 31/31/31
f 30/30/30 31/31/31 32/32/32
f 33/33/33 30/30/30 32/32/32
f 36/36/36 35/35/35 34/34/34
f 36/36/36 34/34/34 37/37/37
f 38/38/38 36/36/36 37/37/37
f 41/41/41 40/40/40 39/39/39
f 42/42/42 41/41/41 39/39/39
f 45/45/45 44/44/44 43/43/43
f 44/44/44 46/46/46 43/43/43
f 44/44/44 47/47/47 46/46/46
f 44/44/44 48/48/48 47/47/47
f 51/51/51 50/50/50 49/49/49
f 52/52/52 51/51/51 49/49/49
