g _Combined_Vis5_0
v 0.4999998 8.500002 0.5000026
v 0.4999996 8.500002 -0.4999975
v 0.4999996 7.500002 -0.4999975
v 0.4999998 7.500001 0.5000026
v 0.4999996 6.500001 -0.4999975
v 0.4999998 6.500001 0.5000026
v 0.4999996 5.500001 -0.4999975
v 0.4999998 5.500001 0.5000026
v 0.4999996 4.500001 -0.4999975
v 0.4999998 4.500001 0.5000026
v 0.4999996 3.500001 -0.4999975
v 0.4999998 3.500001 0.5000026
v 0.4999996 2.5 -0.4999975
v 0.4999998 2.5 0.5000026
v 0.4999996 1.5 -0.4999975
v 0.4999998 1.5 0.5000026
v 0.4999996 0.5 -0.4999975
v 0.4999998 0.5 0.5000026
v 0.4999998 16.50001 0.5000027
v 0.4999996 16.50001 -0.4999976
v 0.4999996 15.50001 -0.4999976
v 0.4999998 15.50001 0.5000027
v 0.4999996 14.50001 -0.4999976
v 0.4999998 14.50001 0.5000027
v 0.4999996 13.50001 -0.4999976
v 0.4999998 13.50001 0.5000027
v 0.4999996 12.50001 -0.4999976
v 0.4999998 12.50001 0.5000027
v 0.4999996 11.50001 -0.4999976
v 0.4999998 11.50001 0.5000027
v 0.4999996 10.50001 -0.4999976
v 0.4999998 10.50001 0.5000027
v 0.4999996 9.500007 -0.4999976
v 0.4999998 9.500007 0.5000027
v 0.4999996 8.500002 -0.4999975
v 0.4999998 8.500002 0.5000026
v 0.4795002 -0.5000544 -0.2857252
v 0.5219562 -0.08668523 -0.3954443
v 0.4416182 -0.08668524 -0.4214943
v 0.4795002 -0.5000544 -0.2857252
v 0.4416182 -0.08668524 -0.4214943
v 0.4271932 -0.5000544 -0.3537962
v 0.4416182 -0.08668524 -0.4214943
v 0.4416181 -5.422516E-05 -0.5005164
v 0.3839181 -0.5000545 -0.5005163
v 0.4271932 -0.5000544 -0.3537962
v -0.4780441 0.4999463 0.4994835
v -0.4780441 -0.5000541 0.4994837
v -0.4780442 -0.5000545 -0.4214945
v -0.4780443 0.499946 -0.4214947
v -0.4780443 0.499946 -0.5005167
v -0.4780443 -0.5000545 -0.5005165
v 0.4795002 -0.5000544 -0.2857252
v -0.4780441 -0.5000541 0.4994837
v 0.5219564 -0.5000541 0.499484
v 0.4271932 -0.5000544 -0.3537962
v -0.4780442 -0.5000545 -0.4214945
v -0.4780443 -0.5000545 -0.5005165
v 0.3839181 -0.5000545 -0.5005163
v 0.5219562 -5.421147E-05 -0.4703163
v 0.5219552 0.4999461 -0.4214944
v 0.4416171 0.499946 -0.5005164
v 0.4416181 -5.422516E-05 -0.5005164
v -0.4780443 0.499946 -0.4214947
v -0.4780443 0.499946 -0.5005167
v 0.4416171 0.499946 -0.5005164
v -0.4780441 0.4999463 0.4994835
v 0.5219564 0.4999464 0.4994838
v 0.5219552 0.4999461 -0.4214944
v 0.4416181 -5.422516E-05 -0.5005164
v 0.4416171 0.499946 -0.5005164
v -0.4780443 0.499946 -0.5005167
v 0.3839181 -0.5000545 -0.5005163
v -0.4780443 -0.5000545 -0.5005165
v 0.5219562 -0.08668523 -0.3954443
v 0.5219562 -5.421147E-05 -0.4703163
v 0.4416181 -5.422516E-05 -0.5005164
v 0.4416182 -0.08668524 -0.4214943
v 0.5219564 -0.5000541 0.499484
v 0.5219562 -0.08668523 -0.3954443
v 0.4795002 -0.5000544 -0.2857252
v 0.5219564 0.4999464 0.4994838
v 0.5219552 0.4999461 -0.4214944
v 0.5219562 -5.421147E-05 -0.4703163
vt 0.484375 0.6015625
vt 0.453125 0.6015625
vt 0.453125 0.6171875
vt 0.484375 0.6171875
vt 0.453125 0.6328125
vt 0.484375 0.6328125
vt 0.453125 0.6484375
vt 0.484375 0.6484375
vt 0.453125 0.6640625
vt 0.484375 0.6640625
vt 0.453125 0.6796875
vt 0.484375 0.6796875
vt 0.453125 0.6953125
vt 0.484375 0.6953125
vt 0.453125 0.7109375
vt 0.484375 0.7109375
vt 0.453125 0.7265625
vt 0.484375 0.7265625
vt 0.484375 0.6015625
vt 0.453125 0.6015625
vt 0.453125 0.6171875
vt 0.484375 0.6171875
vt 0.453125 0.6328125
vt 0.484375 0.6328125
vt 0.453125 0.6484375
vt 0.484375 0.6484375
vt 0.453125 0.6640625
vt 0.484375 0.6640625
vt 0.453125 0.6796875
vt 0.484375 0.6796875
vt 0.453125 0.6953125
vt 0.484375 0.6953125
vt 0.453125 0.7109375
vt 0.484375 0.7109375
vt 0.453125 0.7265625
vt 0.484375 0.7265625
vt 0.7057199 0.2109638
vt 0.7030663 0.198046
vt 0.7080875 0.198046
vt 0.7057199 0.2109638
vt 0.7080875 0.198046
vt 0.708989 0.2109638
vt 0.6660156 0.237793
vt 0.6704101 0.2399902
vt 0.644043 0.2399902
vt 0.644043 0.236084
vt 0.6977539 0.2133789
vt 0.644043 0.2131348
vt 0.644043 0.237793
vt 0.6972656 0.237793
vt 0.6972656 0.2399902
vt 0.644043 0.2399902
vt 0.7104492 0.2338867
vt 0.7602539 0.2136231
vt 0.7084961 0.2136231
vt 0.7133789 0.2355957
vt 0.7602539 0.2373047
vt 0.7602539 0.2395019
vt 0.715332 0.2395019
vt 0.7030663 0.1953388
vt 0.7030663 0.1797138
vt 0.7080875 0.1797138
vt 0.7080875 0.1953388
vt 0.7602539 0.2373047
vt 0.7602539 0.2395019
vt 0.7124023 0.2395019
vt 0.7602539 0.2136231
vt 0.7084961 0.2136231
vt 0.7084961 0.2373047
vt 0.7080875 0.1953388
vt 0.7080875 0.1797138
vt 0.7655663 0.1797138
vt 0.7116938 0.2109638
vt 0.7655663 0.2109638
vt 0.7084961 0.2158203
vt 0.7084961 0.2136231
vt 0.7124023 0.2136231
vt 0.7124023 0.2158203
vt 0.644043 0.2131348
vt 0.6660156 0.2370606
vt 0.644043 0.2341309
vt 0.6977539 0.2133789
vt 0.6972656 0.237793
vt 0.6704101 0.2392578
vn 1 7.105427E-15 1.192093E-07
vn 1 7.105427E-15 1.192093E-07
vn 1 7.105427E-15 1.192093E-07
vn 1 7.105427E-15 1.192093E-07
vn 1 7.105427E-15 1.192093E-07
vn 1 7.105427E-15 1.192093E-07
vn 1 7.105427E-15 1.192093E-07
vn 1 7.105427E-15 1.192093E-07
vn 1 7.105427E-15 1.192093E-07
vn 1 7.105427E-15 1.192093E-07
vn 1 7.105427E-15 1.192093E-07
vn 1 7.105427E-15 1.192093E-07
vn 1 7.105427E-15 1.192093E-07
vn 1 7.105427E-15 1.192093E-07
vn 1 7.105427E-15 1.192093E-07
vn 1 7.105427E-15 1.192093E-07
vn 1 7.105427E-15 1.192093E-07
vn 1 7.105427E-15 1.192093E-07
vn 1 7.105427E-15 1.192093E-07
vn 1 7.105427E-15 1.192093E-07
vn 1 7.105427E-15 1.192093E-07
vn 1 7.105427E-15 1.192093E-07
vn 1 7.105427E-15 1.192093E-07
vn 1 7.105427E-15 1.192093E-07
vn 1 7.105427E-15 1.192093E-07
vn 1 7.105427E-15 1.192093E-07
vn 1 7.105427E-15 1.192093E-07
vn 1 7.105427E-15 1.192093E-07
vn 1 7.105427E-15 1.192093E-07
vn 1 7.105427E-15 1.192093E-07
vn 1 7.105427E-15 1.192093E-07
vn 1 7.105427E-15 1.192093E-07
vn 1 7.105427E-15 1.192093E-07
vn 1 7.105427E-15 1.192093E-07
vn 1 7.105427E-15 1.192093E-07
vn 1 7.105427E-15 1.192093E-07
vn 0.5657831 -0.2100383 -0.797354
vn 0.5657831 -0.2100383 -0.797354
vn 0.5657831 -0.2100383 -0.797354
vn 0.5657831 -0.2100383 -0.797354
vn 0.5657831 -0.2100383 -0.797354
vn 0.5657831 -0.2100383 -0.797354
vn 0.9706398 -0.09308603 -0.2217957
vn 0.9706398 -0.09308603 -0.2217957
vn 0.9706398 -0.09308603 -0.2217957
vn 0.9706398 -0.09308603 -0.2217957
vn -1 -3.594016E-08 -2.867721E-07
vn -1 -3.594016E-08 -2.867721E-07
vn -1 -3.594016E-08 -2.867721E-07
vn -1 -3.594016E-08 -2.867721E-07
vn -1 -3.594016E-08 -2.867721E-07
vn -1 -3.594016E-08 -2.867721E-07
vn 3.594017E-08 -1 1.788139E-07
vn 3.594017E-08 -1 1.788139E-07
vn 3.594017E-08 -1 1.788139E-07
vn 3.594017E-08 -1 1.788139E-07
vn 3.594017E-08 -1 1.788139E-07
vn 3.594017E-08 -1 1.788139E-07
vn 3.594017E-08 -1 1.788139E-07
vn 0.5617201 0.04034374 -0.8263431
vn 0.5617201 0.04034374 -0.8263431
vn 0.5617201 0.04034374 -0.8263431
vn 0.5617201 0.04034374 -0.8263431
vn -3.594017E-08 1 -1.788139E-07
vn -3.594017E-08 1 -1.788139E-07
vn -3.594017E-08 1 -1.788139E-07
vn -3.594017E-08 1 -1.788139E-07
vn -3.594017E-08 1 -1.788139E-07
vn -3.594017E-08 1 -1.788139E-07
vn -1.90065E-07 -3.57628E-07 -1
vn -1.90065E-07 -3.57628E-07 -1
vn -1.90065E-07 -3.57628E-07 -1
vn -1.90065E-07 -3.57628E-07 -1
vn -1.90065E-07 -3.57628E-07 -1
vn 0.2532128 -0.6424402 -0.7232937
vn 0.2532128 -0.6424402 -0.7232937
vn 0.2532128 -0.6424402 -0.7232937
vn 0.2532128 -0.6424402 -0.7232937
vn 0.9994116 -0.03113795 -0.0143827
vn 1 3.594016E-08 2.867721E-07
vn 0.9994116 -0.03113795 -0.0143827
vn 1 3.594016E-08 2.867721E-07
vn 1 3.594016E-08 2.867721E-07
vn 1 3.594016E-08 2.867721E-07
g _Combined_Vis5_0_0
f 3/3/3 2/2/2 1/1/1
f 4/4/4 3/3/3 1/1/1
f 5/5/5 3/3/3 4/4/4
f 6/6/6 5/5/5 4/4/4
f 7/7/7 5/5/5 6/6/6
f 8/8/8 7/7/7 6/6/6
f 9/9/9 7/7/7 8/8/8
f 10/10/10 9/9/9 8/8/8
f 11/11/11 9/9/9 10/10/10
f 12/12/12 11/11/11 10/10/10
f 13/13/13 11/11/11 12/12/12
f 14/14/14 13/13/13 12/12/12
f 15/15/15 13/13/13 14/14/14
f 16/16/16 15/15/15 14/14/14
f 17/17/17 15/15/15 16/16/16
f 18/18/18 17/17/17 16/16/16
f 21/21/21 20/20/20 19/19/19
f 22/22/22 21/21/21 19/19/19
f 23/23/23 21/21/21 22/22/22
f 24/24/24 23/23/23 22/22/22
f 25/25/25 23/23/23 24/24/24
f 26/26/26 25/25/25 24/24/24
f 27/27/27 25/25/25 26/26/26
f 28/28/28 27/27/27 26/26/26
f 29/29/29 27/27/27 28/28/28
f 30/30/30 29/29/29 28/28/28
f 31/31/31 29/29/29 30/30/30
f 32/32/32 31/31/31 30/30/30
f 33/33/33 31/31/31 32/32/32
f 34/34/34 33/33/33 32/32/32
f 35/35/35 33/33/33 34/34/34
f 36/36/36 35/35/35 34/34/34
f 39/39/39 38/38/38 37/37/37
f 42/42/42 41/41/41 40/40/40
f 45/45/45 44/44/44 43/43/43
f 46/46/46 45/45/45 43/43/43
f 49/49/49 48/48/48 47/47/47
f 50/50/50 49/49/49 47/47/47
f 50/50/50 51/51/51 49/49/49
f 51/51/51 52/52/52 49/49/49
f 55/55/55 54/54/54 53/53/53
f 54/54/54 56/56/56 53/53/53
f 54/54/54 57/57/57 56/56/56
f 57/57/57 58/58/58 56/56/56
f 58/58/58 59/59/59 56/56/56
f 62/62/62 61/61/61 60/60/60
f 63/63/63 62/62/62 60/60/60
f 66/66/66 65/65/65 64/64/64
f 66/66/66 64/64/64 67/67/67
f 66/66/66 67/67/67 68/68/68
f 69/69/69 66/66/66 68/68/68
f 72/72/72 71/71/71 70/70/70
f 72/72/72 70/70/70 73/73/73
f 74/74/74 72/72/72 73/73/73
f 77/77/77 76/76/76 75/75/75
f 78/78/78 77/77/77 75/75/75
f 81/81/81 80/80/80 79/79/79
f 80/80/80 82/82/82 79/79/79
f 80/80/80 83/83/83 82/82/82
f 80/80/80 84/84/84 83/83/83
