g _Combined_Vis18_0
v 2.000001 0.4999998 4.500012
v -1.999999 0.5000002 4.499994
v -1.999997 0.5000002 -4.499998
v 2.000003 0.4999998 -4.499998
v 2.000001 -0.5000004 4.500011
v 2.000001 0.4999998 4.500012
v 2.000003 0.4999998 -4.499998
v 2.000002 -0.4999999 -4.499999
vt 0.328125 0.1640625
vt 0.328125 0.1328125
vt 0.265625 0.1328125
vt 0.265625 0.1640625
vt 0.328125 0.1640625
vt 0.328125 0.1328125
vt 0.265625 0.1328125
vt 0.265625 0.1640625
vn 0 1 -1.192093E-07
vn 0 1 -1.192093E-07
vn 0 1 -1.192093E-07
vn 0 1 -1.192093E-07
vn 1 3.552713E-15 -1.192093E-07
vn 1 3.552713E-15 -1.192093E-07
vn 1 3.552713E-15 -1.192093E-07
vn 1 3.552713E-15 -1.192093E-07
g _Combined_Vis18_0_0
f 3/3/3 2/2/2 1/1/1
f 4/4/4 3/3/3 1/1/1
f 7/7/7 6/6/6 5/5/5
f 8/8/8 7/7/7 5/5/5
