g _Combined_Vis50_0
v -0.4984224 -1.211363 -1.730795E-07
v -0.4413319 -1.175976 -0.5000001
v -0.4984219 -1.75 -0.5000003
v -0.4984221 -1.722233 -0.2500003
v -0.2787532 -0.2740779 0.5000004
v -0.4413322 -1.175976 0.06396857
v -0.4413326 -0.4333313 0.5000001
v -0.278753 -0.6893405 0.3806907
v -0.4413322 -1.175976 0.06396857
v -0.2787532 -0.2740779 0.5000004
v -0.03543555 -0.3641811 0.5000005
v -0.278753 -0.6893405 0.3806907
v -0.2787532 -0.2740779 0.5000004
v 0.2499999 -0.2506276 -0.4999993
v 0.2499994 -0.2506278 0.5000009
v 0.2499992 0.2499996 0.500001
v 0.2499998 0.2500005 -0.4999992
v -0.75 -1.722233 -0.2500005
v -0.4984221 -1.722233 -0.2500003
v -0.4984219 -1.75 -0.5000003
v -0.7499998 -1.75 -0.5000006
v 0.2499999 -0.2506276 -0.4999993
v 0.2499998 0.2500005 -0.4999992
v -0.7500003 0.2500004 -0.4999999
v -0.03543492 -0.3641809 -0.4999995
v -0.2787525 -0.6893403 -0.4999998
v -0.4413319 -1.175976 -0.5000001
v -0.4984219 -1.75 -0.5000003
v -0.7499998 -1.75 -0.5000006
v 0.2499994 -0.2506278 0.5000009
v -0.7500009 0.2499996 0.5000001
v 0.2499992 0.2499996 0.500001
v -0.03543555 -0.3641811 0.5000005
v -0.2787532 -0.2740779 0.5000004
v -0.4413326 -0.4333313 0.5000001
v -0.6646037 -0.9870956 0.4999999
v -0.7500006 -1.039811 0.4999997
v -0.2787525 -0.6893403 -0.4999998
v -0.4413319 -1.175976 -0.5000001
v -0.4413322 -1.175976 0.06396857
v -0.278753 -0.6893405 0.3806907
v -0.03543492 -0.3641809 -0.4999995
v -0.03543555 -0.3641811 0.5000005
v 0.2499999 -0.2506276 -0.4999993
v 0.2499994 -0.2506278 0.5000009
v -0.7500006 -1.039811 0.4999997
v -0.7500004 -1.201353 0.2499996
v -0.7500002 -1.169982 -4.076936E-07
v -0.7500003 0.2500004 -0.4999999
v -0.7500009 0.2499996 0.5000001
v -0.75 -1.722233 -0.2500005
v -0.7499998 -1.75 -0.5000006
v -0.7500004 -1.201353 0.2499996
v -0.4984224 -1.211363 -1.730795E-07
v -0.7500002 -1.169982 -4.076936E-07
v -0.7500004 -1.201353 0.2499996
v -0.5795346 -1.201353 0.2499998
v -0.4984224 -1.211363 -1.730795E-07
v -0.7500006 -1.039811 0.4999997
v -0.6646037 -0.9870956 0.4999999
v -0.7500002 -1.169982 -4.076936E-07
v -0.4984224 -1.211363 -1.730795E-07
v -0.4984221 -1.722233 -0.2500003
v -0.75 -1.722233 -0.2500005
v -0.6646037 -0.9870956 0.4999999
v -0.4413326 -0.4333313 0.5000001
v -0.4413322 -1.175976 0.06396857
v -0.5795346 -1.201353 0.2499998
v -0.5795346 -1.201353 0.2499998
v -0.4413322 -1.175976 0.06396857
v -0.4984224 -1.211363 -1.730795E-07
v -0.4413319 -1.175976 -0.5000001
v -0.623471 1.124997 0.5
v -0.623471 1.124997 -0.5
v -0.498471 1.124997 -0.5
v -0.498471 1.124997 0.5
v -0.373471 0.999997 0.5
v -0.498471 0.999997 0.5
v -0.498471 0.999997 -0.5
v -0.373471 0.999997 -0.5
v -0.373471 0.874997 -0.5
v -0.248471 0.874997 -0.5
v -0.248471 0.874997 0.5
v -0.373471 0.874997 0.5
v -0.123471 0.749997 0.5
v -0.248471 0.749997 0.5
v -0.248471 0.749997 -0.5
v -0.123471 0.749997 -0.5
v -0.750003 1.249997 0.5
v -0.750003 1.249997 -0.5
v -0.623471 1.249997 -0.5
v -0.623471 1.249997 0.5
v -0.123471 0.624997 -0.5
v 0.001529008 0.624997 -0.5
v 0.001529008 0.624997 0.5
v -0.123471 0.624997 0.5
v 0.126529 0.499997 0.5
v 0.001529008 0.499997 0.5
v 0.001529008 0.499997 -0.5
v 0.126529 0.499997 -0.5
v 0.126529 0.374997 -0.5
v 0.249999 0.374997 -0.5
v 0.249998 0.374997 0.5
v 0.126529 0.374997 0.5
v 0.249998 0.374997 0.5
v 0.2499992 0.2499996 0.500001
v -0.7500009 0.2499996 0.5000001
v 0.126529 0.374997 0.5
v 0.126529 0.499997 0.5
v 0.001529008 0.499997 0.5
v 0.001529008 0.624997 0.5
v -0.123471 0.624997 0.5
v -0.123471 0.749997 0.5
v -0.248471 0.749997 0.5
v -0.248471 0.874997 0.5
v -0.373471 0.874997 0.5
v -0.373471 0.999997 0.5
v -0.498471 0.999997 0.5
v -0.498471 1.124997 0.5
v -0.623471 1.124997 0.5
v -0.623471 1.249997 0.5
v -0.750003 1.249997 0.5
v 0.126529 0.374997 0.5
v 0.126529 0.499997 0.5
v 0.126529 0.499997 -0.5
v 0.126529 0.374997 -0.5
v -0.373471 0.874997 -0.5
v -0.248471 0.749997 -0.5
v -0.248471 0.874997 -0.5
v -0.7500003 0.2500004 -0.4999999
v -0.498471 0.999997 -0.5
v -0.373471 0.999997 -0.5
v -0.123471 0.624997 -0.5
v -0.123471 0.749997 -0.5
v -0.623471 1.124997 -0.5
v -0.498471 1.124997 -0.5
v -0.750003 1.249997 -0.5
v -0.623471 1.249997 -0.5
v 0.001529008 0.499997 -0.5
v 0.001529008 0.624997 -0.5
v 0.126529 0.374997 -0.5
v 0.126529 0.499997 -0.5
v 0.2499998 0.2500005 -0.4999992
v 0.249999 0.374997 -0.5
v 0.001529008 0.624997 -0.5
v 0.001529008 0.499997 -0.5
v 0.001529008 0.499997 0.5
v 0.001529008 0.624997 0.5
v -0.123471 0.749997 -0.5
v -0.123471 0.624997 -0.5
v -0.123471 0.624997 0.5
v -0.123471 0.749997 0.5
v -0.248471 0.874997 -0.5
v -0.248471 0.749997 -0.5
v -0.248471 0.749997 0.5
v -0.248471 0.874997 0.5
v -0.373471 0.999997 -0.5
v -0.373471 0.874997 -0.5
v -0.373471 0.874997 0.5
v -0.373471 0.999997 0.5
v -0.498471 1.124997 -0.5
v -0.498471 0.999997 -0.5
v -0.498471 0.999997 0.5
v -0.498471 1.124997 0.5
v -0.623471 1.249997 0.5
v -0.623471 1.249997 -0.5
v -0.623471 1.124997 -0.5
v -0.623471 1.124997 0.5
v 0.249999 0.374997 -0.5
v 0.2499998 0.2500005 -0.4999992
v 0.2499992 0.2499996 0.500001
v 0.249998 0.374997 0.5
vt 0.890625 0.15625
vt 0.8754883 0.140625
vt 0.8754883 0.15625
vt 0.8828125 0.15625
vt 0.90625 0.125
vt 0.9003906 0.140625
vt 0.90625 0.140625
vt 0.9023438 0.125
vt 0.9003906 0.140625
vt 0.90625 0.125
vt 0.90625 0.109375
vt 0.9023438 0.125
vt 0.90625 0.125
vt 0.859375 0.09375
vt 0.859375 0.1557617
vt 0.84375 0.1557617
vt 0.84375 0.09375
vt 0.859375 0.1401367
vt 0.84375 0.1401367
vt 0.84375 0.1557617
vt 0.859375 0.1557617
vt 0.8595247 0.1564178
vt 0.8440105 0.1564178
vt 0.8440105 0.2183967
vt 0.8630437 0.1741087
vt 0.8731202 0.1891893
vt 0.8882008 0.1992658
vt 0.9059895 0.2028042
vt 0.9059895 0.2183967
vt 0.8595247 0.1564178
vt 0.8440105 0.2183967
vt 0.8440105 0.1564178
vt 0.8630437 0.1741087
vt 0.8731202 0.1891893
vt 0.8882008 0.1992658
vt 0.9059895 0.2028042
vt 0.9059895 0.2183967
vt 0.8754883 0.125
vt 0.8754883 0.140625
vt 0.9003906 0.140625
vt 0.9023438 0.125
vt 0.8754883 0.109375
vt 0.90625 0.109375
vt 0.8754883 0.09375
vt 0.90625 0.09375
vt 0.9467773 0.15625
vt 0.9516602 0.140625
vt 0.9506836 0.125
vt 0.90625 0.09375
vt 0.90625 0.15625
vt 0.9677734 0.109375
vt 0.96875 0.09375
vt 0.859375 0.109375
vt 0.84375 0.1245117
vt 0.859375 0.1245117
vt 0.859375 0.109375
vt 0.84375 0.109375
vt 0.84375 0.1245117
vt 0.859375 0.09375
vt 0.84375 0.09375
vt 0.859375 0.1245117
vt 0.84375 0.1245117
vt 0.84375 0.1401367
vt 0.859375 0.1401367
vt 0.90625 0.15625
vt 0.90625 0.140625
vt 0.9003906 0.140625
vt 0.8984375 0.15625
vt 0.8984375 0.15625
vt 0.9003906 0.140625
vt 0.890625 0.15625
vt 0.8754883 0.140625
vt 0.90625 0.1062457
vt 0.84375 0.1062457
vt 0.84375 0.1125419
vt 0.90625 0.1125419
vt 0.90625 0.118838
vt 0.90625 0.1125419
vt 0.84375 0.1125419
vt 0.84375 0.118838
vt 0.84375 0.118838
vt 0.84375 0.1251342
vt 0.90625 0.1251342
vt 0.90625 0.118838
vt 0.90625 0.1314304
vt 0.90625 0.1251342
vt 0.84375 0.1251342
vt 0.84375 0.1314304
vt 0.90625 0.0999495
vt 0.84375 0.0999495
vt 0.84375 0.1062457
vt 0.90625 0.1062457
vt 0.84375 0.1314304
vt 0.84375 0.1377265
vt 0.90625 0.1377265
vt 0.90625 0.1314304
vt 0.90625 0.1440227
vt 0.90625 0.1377265
vt 0.84375 0.1377265
vt 0.84375 0.1440227
vt 0.84375 0.1440227
vt 0.84375 0.1503189
vt 0.90625 0.1503189
vt 0.90625 0.1440227
vt 0.96875 0.1640625
vt 0.96875 0.15625
vt 0.90625 0.15625
vt 0.9609375 0.1640625
vt 0.9609375 0.171875
vt 0.953125 0.171875
vt 0.953125 0.1796875
vt 0.9453125 0.1796875
vt 0.9453125 0.1875
vt 0.9375 0.1875
vt 0.9375 0.1953125
vt 0.9296875 0.1953125
vt 0.9296875 0.203125
vt 0.921875 0.203125
vt 0.921875 0.2109375
vt 0.9140625 0.2109375
vt 0.9140625 0.21875
vt 0.90625 0.21875
vt 0.90625 0.1062457
vt 0.90625 0.1125419
vt 0.96875 0.1125419
vt 0.96875 0.1062457
vt 0.9296875 0.1953125
vt 0.9375 0.1875
vt 0.9375 0.1953125
vt 0.90625 0.15625
vt 0.921875 0.203125
vt 0.9296875 0.203125
vt 0.9453125 0.1796875
vt 0.9453125 0.1875
vt 0.9140625 0.2109375
vt 0.921875 0.2109375
vt 0.90625 0.21875
vt 0.9140625 0.21875
vt 0.953125 0.171875
vt 0.953125 0.1796875
vt 0.9609375 0.1640625
vt 0.9609375 0.171875
vt 0.96875 0.15625
vt 0.96875 0.1640625
vt 0.96875 0.118838
vt 0.96875 0.1125419
vt 0.90625 0.1125419
vt 0.90625 0.118838
vt 0.96875 0.1251342
vt 0.96875 0.118838
vt 0.90625 0.118838
vt 0.90625 0.1251342
vt 0.96875 0.1314304
vt 0.96875 0.1251342
vt 0.90625 0.1251342
vt 0.90625 0.1314304
vt 0.96875 0.1377265
vt 0.96875 0.1314304
vt 0.90625 0.1314304
vt 0.90625 0.1377265
vt 0.96875 0.1440227
vt 0.96875 0.1377265
vt 0.90625 0.1377265
vt 0.90625 0.1440227
vt 0.90625 0.1503189
vt 0.96875 0.1503189
vt 0.96875 0.1440227
vt 0.90625 0.1440227
vt 0.96875 0.1062457
vt 0.96875 0.0999495
vt 0.90625 0.0999495
vt 0.90625 0.1062457
vn 0.9947484 -0.06963193 0.07501371
vn 0.9947484 -0.06963193 0.07501371
vn 0.9947484 -0.06963193 0.07501371
vn 0.9947484 -0.06963193 0.07501371
vn 0.4443119 -0.4535925 0.7725547
vn 0.7249535 -0.3488658 0.5939151
vn 0.5875091 -0.4097753 0.6977946
vn -0.7227603 -0.1908408 0.6642269
vn -0.7227603 -0.1908408 0.6642269
vn -0.7227603 -0.1908408 0.6642269
vn -0.1017282 -0.2747076 0.9561313
vn -0.1017282 -0.2747076 0.9561313
vn -0.1017282 -0.2747076 0.9561313
vn 1 3.576278E-07 7.152557E-07
vn 1 3.576278E-07 7.152557E-07
vn 1 3.576278E-07 7.152557E-07
vn 1 3.576278E-07 7.152557E-07
vn 1.744558E-07 -0.9938887 0.1103864
vn 1.744558E-07 -0.9938887 0.1103864
vn 1.744558E-07 -0.9938887 0.1103864
vn 1.744558E-07 -0.9938887 0.1103864
vn 5.662441E-07 2.384186E-07 -1
vn 5.662441E-07 2.384186E-07 -1
vn 5.662441E-07 2.384186E-07 -1
vn 5.662441E-07 2.384186E-07 -1
vn 5.662441E-07 2.384186E-07 -1
vn 5.662441E-07 2.384186E-07 -1
vn 5.662441E-07 2.384186E-07 -1
vn 5.662441E-07 2.384186E-07 -1
vn -5.662441E-07 -2.384186E-07 1
vn -5.662441E-07 -2.384186E-07 1
vn -5.662441E-07 -2.384186E-07 1
vn -5.662441E-07 -2.384186E-07 1
vn -5.662441E-07 -2.384186E-07 1
vn -5.662441E-07 -2.384186E-07 1
vn -5.662441E-07 -2.384186E-07 1
vn -5.662441E-07 -2.384186E-07 1
vn 0.8944274 -0.4472132 5.864322E-07
vn 0.9484681 -0.3168725 6.40623E-07
vn 0.9484681 -0.3168725 6.40623E-07
vn 0.8582892 -0.5131663 5.527219E-07
vn 0.6379524 -0.7700758 3.644987E-07
vn 0.6069311 -0.7947545 3.393687E-07
vn 0.369648 -0.9291719 1.536268E-07
vn 0.369648 -0.9291719 1.536268E-07
vn -1 -3.576278E-07 -7.152557E-07
vn -1 -3.576278E-07 -7.152557E-07
vn -1 -3.576278E-07 -7.152557E-07
vn -1 -3.576278E-07 -7.152557E-07
vn -1 -3.576278E-07 -7.152557E-07
vn -1 -3.576278E-07 -7.152557E-07
vn -1 -3.576278E-07 -7.152557E-07
vn 0.0455687 -0.9434066 0.3284926
vn 0.3483529 -0.9370899 0.02264657
vn -0.09741467 -0.9935377 -0.0582504
vn 0.0455687 -0.9434066 0.3284926
vn 0.05562864 -0.966881 0.2490914
vn 0.3483529 -0.9370899 0.02264657
vn 0.1598494 -0.7758531 0.6103279
vn 0.1598494 -0.7758531 0.6103279
vn -0.03498127 -0.4253328 0.9043607
vn -0.03498127 -0.4253328 0.9043607
vn -0.03498127 -0.4253328 0.9043607
vn -0.03498127 -0.4253328 0.9043607
vn 0.7821581 -0.3156195 0.5372272
vn 0.5875091 -0.4097753 0.6977946
vn 0.7249535 -0.3488658 0.5939151
vn 0.7821581 -0.3156195 0.5372272
vn 0.05562864 -0.966881 0.2490914
vn 0.4301536 -0.8958229 0.1116657
vn 0.3483529 -0.9370899 0.02264657
vn 0.5268465 -0.8499604 2.755067E-07
vn 0 1 0
vn 0 1 0
vn 0 1 0
vn 0 1 0
vn 0 1 0
vn 0 1 0
vn 0 1 0
vn 0 1 0
vn 0 1 0
vn 0 1 0
vn 0 1 0
vn 0 1 0
vn 0 1 0
vn 0 1 0
vn 0 1 0
vn 0 1 0
vn 0 1 0
vn 0 1 0
vn 0 1 0
vn 0 1 0
vn 0 1 0
vn 0 1 0
vn 0 1 0
vn 0 1 0
vn 0 1 0
vn 0 1 0
vn 0 1 0
vn 0 1 0
vn 0 1 0
vn 0 1 0
vn 0 1 0
vn 0 1 0
vn 0 0 1
vn 0 0 1
vn 0 0 1
vn 0 0 1
vn 0 0 1
vn 0 0 1
vn 0 0 1
vn 0 0 1
vn 0 0 1
vn 0 0 1
vn 0 0 1
vn 0 0 1
vn 0 0 1
vn 0 0 1
vn 0 0 1
vn 0 0 1
vn 0 0 1
vn 0 0 1
vn 1 0 0
vn 1 0 0
vn 1 0 0
vn 1 0 0
vn 0 0 -1
vn 0 0 -1
vn 0 0 -1
vn 0 0 -1
vn 0 0 -1
vn 0 0 -1
vn 0 0 -1
vn 0 0 -1
vn 0 0 -1
vn 0 0 -1
vn 0 0 -1
vn 0 0 -1
vn 0 0 -1
vn 0 0 -1
vn 0 0 -1
vn 0 0 -1
vn 0 0 -1
vn 0 0 -1
vn 1 0 0
vn 1 0 0
vn 1 0 0
vn 1 0 0
vn 1 0 0
vn 1 0 0
vn 1 0 0
vn 1 0 0
vn 1 0 0
vn 1 0 0
vn 1 0 0
vn 1 0 0
vn 1 0 0
vn 1 0 0
vn 1 0 0
vn 1 0 0
vn 1 0 0
vn 1 0 0
vn 1 0 0
vn 1 0 0
vn 1 0 0
vn 1 0 0
vn 1 0 0
vn 1 0 0
vn 1 0 0
vn 1 0 0
vn 1 0 0
vn 1 0 0
g _Combined_Vis50_0_0
f 3/3/3 2/2/2 1/1/1
f 4/4/4 3/3/3 1/1/1
f 7/7/7 6/6/6 5/5/5
f 10/10/10 9/9/9 8/8/8
f 13/13/13 12/12/12 11/11/11
f 16/16/16 15/15/15 14/14/14
f 17/17/17 16/16/16 14/14/14
f 20/20/20 19/19/19 18/18/18
f 21/21/21 20/20/20 18/18/18
f 24/24/24 23/23/23 22/22/22
f 25/25/25 24/24/24 22/22/22
f 25/25/25 26/26/26 24/24/24
f 27/27/27 24/24/24 26/26/26
f 24/24/24 27/27/27 28/28/28
f 29/29/29 24/24/24 28/28/28
f 32/32/32 31/31/31 30/30/30
f 31/31/31 33/33/33 30/30/30
f 33/33/33 31/31/31 34/34/34
f 35/35/35 34/34/34 31/31/31
f 36/36/36 35/35/35 31/31/31
f 37/37/37 36/36/36 31/31/31
f 40/40/40 39/39/39 38/38/38
f 41/41/41 40/40/40 38/38/38
f 41/41/41 38/38/38 42/42/42
f 43/43/43 41/41/41 42/42/42
f 43/43/43 42/42/42 44/44/44
f 45/45/45 43/43/43 44/44/44
f 48/48/48 47/47/47 46/46/46
f 48/48/48 46/46/46 49/49/49
f 46/46/46 50/50/50 49/49/49
f 51/51/51 48/48/48 49/49/49
f 49/49/49 52/52/52 51/51/51
f 55/55/55 54/54/54 53/53/53
f 58/58/58 57/57/57 56/56/56
f 56/56/56 57/57/57 59/59/59
f 57/57/57 60/60/60 59/59/59
f 63/63/63 62/62/62 61/61/61
f 64/64/64 63/63/63 61/61/61
f 67/67/67 66/66/66 65/65/65
f 68/68/68 67/67/67 65/65/65
f 71/71/71 70/70/70 69/69/69
f 71/71/71 72/72/72 70/70/70
f 75/75/75 74/74/74 73/73/73
f 76/76/76 75/75/75 73/73/73
f 79/79/79 78/78/78 77/77/77
f 80/80/80 79/79/79 77/77/77
f 83/83/83 82/82/82 81/81/81
f 84/84/84 83/83/83 81/81/81
f 87/87/87 86/86/86 85/85/85
f 88/88/88 87/87/87 85/85/85
f 91/91/91 90/90/90 89/89/89
f 92/92/92 91/91/91 89/89/89
f 95/95/95 94/94/94 93/93/93
f 96/96/96 95/95/95 93/93/93
f 99/99/99 98/98/98 97/97/97
f 100/100/100 99/99/99 97/97/97
f 103/103/103 102/102/102 101/101/101
f 104/104/104 103/103/103 101/101/101
f 107/107/107 106/106/106 105/105/105
f 108/108/108 107/107/107 105/105/105
f 107/107/107 108/108/108 109/109/109
f 110/110/110 107/107/107 109/109/109
f 107/107/107 110/110/110 111/111/111
f 112/112/112 107/107/107 111/111/111
f 107/107/107 112/112/112 113/113/113
f 114/114/114 107/107/107 113/113/113
f 107/107/107 114/114/114 115/115/115
f 116/116/116 107/107/107 115/115/115
f 107/107/107 116/116/116 117/117/117
f 118/118/118 107/107/107 117/117/117
f 107/107/107 118/118/118 119/119/119
f 120/120/120 107/107/107 119/119/119
f 107/107/107 120/120/120 121/121/121
f 122/122/122 107/107/107 121/121/121
f 125/125/125 124/124/124 123/123/123
f 126/126/126 125/125/125 123/123/123
f 129/129/129 128/128/128 127/127/127
f 128/128/128 130/130/130 127/127/127
f 127/127/127 130/130/130 131/131/131
f 132/132/132 127/127/127 131/131/131
f 133/133/133 130/130/130 128/128/128
f 134/134/134 133/133/133 128/128/128
f 131/131/131 130/130/130 135/135/135
f 136/136/136 131/131/131 135/135/135
f 135/135/135 130/130/130 137/137/137
f 138/138/138 135/135/135 137/137/137
f 139/139/139 130/130/130 133/133/133
f 140/140/140 139/139/139 133/133/133
f 130/130/130 139/139/139 141/141/141
f 139/139/139 142/142/142 141/141/141
f 143/143/143 130/130/130 141/141/141
f 144/144/144 143/143/143 141/141/141
f 147/147/147 146/146/146 145/145/145
f 148/148/148 147/147/147 145/145/145
f 151/151/151 150/150/150 149/149/149
f 152/152/152 151/151/151 149/149/149
f 155/155/155 154/154/154 153/153/153
f 156/156/156 155/155/155 153/153/153
f 159/159/159 158/158/158 157/157/157
f 160/160/160 159/159/159 157/157/157
f 163/163/163 162/162/162 161/161/161
f 164/164/164 163/163/163 161/161/161
f 167/167/167 166/166/166 165/165/165
f 168/168/168 167/167/167 165/165/165
f 171/171/171 170/170/170 169/169/169
f 172/172/172 171/171/171 169/169/169
