g _Combined_Vis34_0
v 1.500057 0.4999994 1.499997
v 1.500059 -0.5000006 1.499997
v 2.500058 -0.5000006 1.499998
v 2.500058 0.4999994 1.499997
v -1.499944 0.4999981 -2.500004
v -1.499942 -0.5000019 -2.500003
v -0.4999428 -0.5000019 -2.500003
v -0.4999428 0.4999981 -2.500004
v -2.499942 0.5000032 1.499997
v -2.499942 -0.4999968 1.499995
v -2.499942 -0.4999971 0.4999961
v -2.499942 0.5000029 0.4999958
v -2.499942 0.5000025 -0.5000032
v -2.499942 -0.4999975 -0.5000049
v -2.499941 -0.4999978 -1.500004
v -2.499941 0.5000022 -1.500004
v -2.499942 0.5000029 0.4999958
v -2.499942 -0.4999971 0.4999961
v -2.499942 -0.4999975 -0.5000049
v -2.499942 0.5000025 -0.5000032
v 0.5000587 -0.4999965 2.500005
v 0.5000569 -0.4999967 1.500005
v -0.4999423 -0.4999967 1.500004
v -0.4999426 -0.4999965 2.500005
v -2.499942 -0.4999971 0.4999961
v -1.499942 -0.4999972 0.500003
v -1.499942 -0.4999974 -0.499996
v -2.499942 -0.4999975 -0.5000049
v -1.499942 -0.5000019 -2.500003
v -1.49994 -0.4999977 -1.499996
v -0.4999411 -0.4999977 -1.499996
v -0.4999428 -0.5000019 -2.500003
v 1.500059 -0.4999965 2.500005
v 1.500059 -0.5000006 1.499997
v 0.5000569 -0.4999967 1.500005
v 0.5000587 -0.4999965 2.500005
v 0.5000582 -0.4999982 -2.499995
v 0.5000598 -0.4999977 -1.499995
v 1.500059 -0.4999977 -1.499995
v 1.500059 -0.4999982 -2.499995
v -2.499942 -0.4999968 1.499995
v -1.499942 -0.4999969 1.500003
v -1.499942 -0.4999972 0.500003
v -2.499942 -0.4999971 0.4999961
v -0.4999426 -0.4999965 2.500005
v -0.4999423 -0.4999967 1.500004
v -1.499942 -0.4999969 1.500003
v -1.499943 -0.4999965 2.500004
v -0.4999428 -0.5000019 -2.500003
v -0.4999411 -0.4999977 -1.499996
v 0.5000598 -0.4999977 -1.499995
v 0.5000582 -0.4999982 -2.499995
v 0.50006 0.4999981 -2.500003
v 0.5000582 -0.4999982 -2.499995
v 1.500059 -0.4999982 -2.499995
v 1.500061 0.4999981 -2.500003
v -2.499942 -0.4999975 -0.5000049
v -1.499942 -0.4999974 -0.499996
v -1.49994 -0.4999977 -1.499996
v -2.499941 -0.4999978 -1.500004
v 1.500061 0.4999981 -2.500003
v 1.500059 -0.4999982 -2.499995
v 2.500059 -0.5000019 -2.500002
v 2.500059 0.4999981 -2.500003
v -2.499941 0.5000022 -1.500004
v -2.499941 -0.4999978 -1.500004
v -2.499941 -0.4999981 -2.500004
v -2.499941 0.5000019 -2.500004
v -2.499943 0.5000036 2.499997
v -2.499943 -0.4999964 2.499995
v -2.499942 -0.4999968 1.499995
v -2.499942 0.5000032 1.499997
v -1.499943 -0.4999965 2.500004
v -1.499942 -0.4999969 1.500003
v -2.499942 -0.4999968 1.499995
v -2.499943 -0.4999964 2.499995
v 2.500058 -0.5000006 1.499998
v 1.500059 -0.5000006 1.499997
v 1.500059 -0.4999965 2.500005
v 2.500057 -0.4999965 2.500005
v -2.499941 -0.4999978 -1.500004
v -1.49994 -0.4999977 -1.499996
v -1.499942 -0.5000019 -2.500003
v -2.499941 -0.4999981 -2.500004
v 1.500059 -0.4999982 -2.499995
v 1.500059 -0.4999977 -1.499995
v 2.500059 -0.4999977 -1.499995
v 2.500059 -0.5000019 -2.500002
v 2.500058 0.4999994 1.499997
v 2.500058 -0.5000006 1.499998
v 2.500057 -0.4999965 2.500005
v 2.500058 0.4999997 2.499998
v 2.500059 0.4999981 -2.500003
v 2.500059 -0.5000019 -2.500002
v 2.500059 -0.4999977 -1.499995
v 2.500059 0.4999985 -1.500003
v 0.5000587 0.4999994 1.499997
v 0.5000569 -0.4999967 1.500005
v 1.500059 -0.5000006 1.499997
v 1.500057 0.4999994 1.499997
v -0.4999432 0.4999994 1.499996
v -0.4999423 -0.4999967 1.500004
v 0.5000569 -0.4999967 1.500005
v 0.5000587 0.4999994 1.499997
v -1.499945 0.4999994 1.499996
v -1.499942 -0.4999969 1.500003
v -0.4999423 -0.4999967 1.500004
v -0.4999432 0.4999994 1.499996
v -2.499941 0.5000019 -2.500004
v -2.499941 -0.4999981 -2.500004
v -1.499942 -0.5000019 -2.500003
v -1.499944 0.4999981 -2.500004
v -0.4999428 0.4999981 -2.500004
v -0.4999428 -0.5000019 -2.500003
v 0.5000582 -0.4999982 -2.499995
v 0.50006 0.4999981 -2.500003
vt 0.921875 0.3671875
vt 0.921875 0.3046875
vt 0.796875 0.3046875
vt 0.796875 0.3671875
vt 0.921875 0.3671875
vt 0.921875 0.3046875
vt 0.796875 0.3046875
vt 0.796875 0.3671875
vt 0.921875 0.3671875
vt 0.921875 0.3046875
vt 0.796875 0.3046875
vt 0.796875 0.3671875
vt 0.921875 0.3671875
vt 0.921875 0.3046875
vt 0.796875 0.3046875
vt 0.796875 0.3671875
vt 0.921875 0.3671875
vt 0.921875 0.3046875
vt 0.796875 0.3046875
vt 0.796875 0.3671875
vt 0.296875 0.3359375
vt 0.296875 0.2734375
vt 0.171875 0.2734375
vt 0.171875 0.3359375
vt 0.296875 0.3359375
vt 0.296875 0.2734375
vt 0.171875 0.2734375
vt 0.171875 0.3359375
vt 0.296875 0.3359375
vt 0.296875 0.2734375
vt 0.171875 0.2734375
vt 0.171875 0.3359375
vt 0.296875 0.3359375
vt 0.296875 0.2734375
vt 0.171875 0.2734375
vt 0.171875 0.3359375
vt 0.296875 0.3359375
vt 0.296875 0.2734375
vt 0.171875 0.2734375
vt 0.171875 0.3359375
vt 0.296875 0.3359375
vt 0.296875 0.2734375
vt 0.171875 0.2734375
vt 0.171875 0.3359375
vt 0.296875 0.3359375
vt 0.296875 0.2734375
vt 0.171875 0.2734375
vt 0.171875 0.3359375
vt 0.296875 0.3359375
vt 0.296875 0.2734375
vt 0.171875 0.2734375
vt 0.171875 0.3359375
vt 0.921875 0.3671875
vt 0.921875 0.3046875
vt 0.796875 0.3046875
vt 0.796875 0.3671875
vt 0.296875 0.3359375
vt 0.296875 0.2734375
vt 0.171875 0.2734375
vt 0.171875 0.3359375
vt 0.921875 0.3671875
vt 0.921875 0.3046875
vt 0.796875 0.3046875
vt 0.796875 0.3671875
vt 0.921875 0.3671875
vt 0.921875 0.3046875
vt 0.796875 0.3046875
vt 0.796875 0.3671875
vt 0.921875 0.3671875
vt 0.921875 0.3046875
vt 0.796875 0.3046875
vt 0.796875 0.3671875
vt 0.453125 0.3359375
vt 0.453125 0.2734375
vt 0.328125 0.2734375
vt 0.328125 0.3359375
vt 0.453125 0.3359375
vt 0.453125 0.2734375
vt 0.328125 0.2734375
vt 0.328125 0.3359375
vt 0.453125 0.3359375
vt 0.453125 0.2734375
vt 0.328125 0.2734375
vt 0.328125 0.3359375
vt 0.453125 0.3359375
vt 0.453125 0.2734375
vt 0.328125 0.2734375
vt 0.328125 0.3359375
vt 0.921875 0.3671875
vt 0.921875 0.3046875
vt 0.796875 0.3046875
vt 0.796875 0.3671875
vt 0.921875 0.3671875
vt 0.921875 0.3046875
vt 0.796875 0.3046875
vt 0.796875 0.3671875
vt 0.921875 0.3671875
vt 0.921875 0.3046875
vt 0.796875 0.3046875
vt 0.796875 0.3671875
vt 0.921875 0.3671875
vt 0.921875 0.3046875
vt 0.796875 0.3046875
vt 0.796875 0.3671875
vt 0.921875 0.3671875
vt 0.921875 0.3046875
vt 0.796875 0.3046875
vt 0.796875 0.3671875
vt 0.921875 0.3671875
vt 0.921875 0.3046875
vt 0.796875 0.3046875
vt 0.796875 0.3671875
vt 0.921875 0.3671875
vt 0.921875 0.3046875
vt 0.796875 0.3046875
vt 0.796875 0.3671875
vn 3.258414E-07 -3.258414E-07 -1
vn 3.258414E-07 -3.258414E-07 -1
vn 3.258414E-07 -3.258414E-07 -1
vn 3.258414E-07 -3.258414E-07 -1
vn 5.960464E-08 -3.258414E-07 -1
vn 5.960464E-08 -3.258414E-07 -1
vn 5.960464E-08 -3.258414E-07 -1
vn 5.960464E-08 -3.258414E-07 -1
vn -1 1.300871E-07 -4.768372E-07
vn -1 1.300871E-07 -4.768372E-07
vn -1 1.300871E-07 -4.768372E-07
vn -1 1.300871E-07 -4.768372E-07
vn -1 1.300871E-07 -4.768372E-07
vn -1 1.300871E-07 -4.768372E-07
vn -1 1.300871E-07 -4.768372E-07
vn -1 1.300871E-07 -4.768372E-07
vn -1 1.300871E-07 -4.768372E-07
vn -1 1.300871E-07 -4.768372E-07
vn -1 1.300871E-07 -4.768372E-07
vn -1 1.300871E-07 -4.768372E-07
vn -9.566634E-22 -1 1.788139E-07
vn -9.566634E-22 -1 1.788139E-07
vn -9.566634E-22 -1 1.788139E-07
vn -9.566634E-22 -1 1.788139E-07
vn -2.980232E-08 -1 2.980232E-07
vn -2.980232E-08 -1 2.980232E-07
vn -2.980232E-08 -1 2.980232E-07
vn -2.980232E-08 -1 2.980232E-07
vn -9.566634E-22 -1 1.788139E-07
vn -9.566634E-22 -1 1.788139E-07
vn -9.566634E-22 -1 1.788139E-07
vn -9.566634E-22 -1 1.788139E-07
vn -9.566634E-22 -1 1.788139E-07
vn -9.566634E-22 -1 1.788139E-07
vn -9.566634E-22 -1 1.788139E-07
vn -9.566634E-22 -1 1.788139E-07
vn -9.566634E-22 -1 1.788139E-07
vn -9.566634E-22 -1 1.788139E-07
vn -9.566634E-22 -1 1.788139E-07
vn -9.566634E-22 -1 1.788139E-07
vn -2.980232E-08 -1 2.980232E-07
vn -2.980232E-08 -1 2.980232E-07
vn -2.980232E-08 -1 2.980232E-07
vn -2.980232E-08 -1 2.980232E-07
vn -9.566634E-22 -1 1.788139E-07
vn -9.566634E-22 -1 1.788139E-07
vn -9.566634E-22 -1 1.788139E-07
vn -9.566634E-22 -1 1.788139E-07
vn -9.566634E-22 -1 1.788139E-07
vn -9.566634E-22 -1 1.788139E-07
vn -9.566634E-22 -1 1.788139E-07
vn -9.566634E-22 -1 1.788139E-07
vn 5.960464E-08 -3.258414E-07 -1
vn 5.960464E-08 -3.258414E-07 -1
vn 5.960464E-08 -3.258414E-07 -1
vn 5.960464E-08 -3.258414E-07 -1
vn -2.980232E-08 -1 2.980232E-07
vn -2.980232E-08 -1 2.980232E-07
vn -2.980232E-08 -1 2.980232E-07
vn -2.980232E-08 -1 2.980232E-07
vn 5.960464E-08 -3.258414E-07 -1
vn 5.960464E-08 -3.258414E-07 -1
vn 5.960464E-08 -3.258414E-07 -1
vn 5.960464E-08 -3.258414E-07 -1
vn -1 1.300871E-07 -4.768372E-07
vn -1 1.300871E-07 -4.768372E-07
vn -1 1.300871E-07 -4.768372E-07
vn -1 1.300871E-07 -4.768372E-07
vn -1 -2.46892E-08 -4.768372E-07
vn -1 -2.46892E-08 -4.768372E-07
vn -1 -2.46892E-08 -4.768372E-07
vn -1 -2.46892E-08 -4.768372E-07
vn -9.566634E-22 -1 1.788139E-07
vn -9.566634E-22 -1 1.788139E-07
vn -9.566634E-22 -1 1.788139E-07
vn -9.566634E-22 -1 1.788139E-07
vn -5.323683E-23 -1 3.576279E-07
vn -5.323683E-23 -1 3.576279E-07
vn -5.323683E-23 -1 3.576279E-07
vn -5.323683E-23 -1 3.576279E-07
vn -2.980232E-08 -1 2.980232E-07
vn -2.980232E-08 -1 2.980232E-07
vn -2.980232E-08 -1 2.980232E-07
vn -2.980232E-08 -1 2.980232E-07
vn -9.566634E-22 -1 1.788139E-07
vn -9.566634E-22 -1 1.788139E-07
vn -9.566634E-22 -1 1.788139E-07
vn -9.566634E-22 -1 1.788139E-07
vn 1 1.136868E-13 1.788139E-07
vn 1 1.136868E-13 1.788139E-07
vn 1 1.136868E-13 1.788139E-07
vn 1 1.136868E-13 1.788139E-07
vn 1 1.136868E-13 1.788139E-07
vn 1 1.136868E-13 1.788139E-07
vn 1 1.136868E-13 1.788139E-07
vn 1 1.136868E-13 1.788139E-07
vn 3.258414E-07 -3.258414E-07 -1
vn 3.258414E-07 -3.258414E-07 -1
vn 3.258414E-07 -3.258414E-07 -1
vn 3.258414E-07 -3.258414E-07 -1
vn 3.258414E-07 -3.258414E-07 -1
vn 3.258414E-07 -3.258414E-07 -1
vn 3.258414E-07 -3.258414E-07 -1
vn 3.258414E-07 -3.258414E-07 -1
vn 3.258414E-07 -3.258414E-07 -1
vn 3.258414E-07 -3.258414E-07 -1
vn 3.258414E-07 -3.258414E-07 -1
vn 3.258414E-07 -3.258414E-07 -1
vn 3.258414E-07 -2.384186E-07 -1
vn 3.258414E-07 -2.384186E-07 -1
vn 3.258414E-07 -2.384186E-07 -1
vn 3.258414E-07 -2.384186E-07 -1
vn 5.960464E-08 -3.258414E-07 -1
vn 5.960464E-08 -3.258414E-07 -1
vn 5.960464E-08 -3.258414E-07 -1
vn 5.960464E-08 -3.258414E-07 -1
g _Combined_Vis34_0_0
f 3/3/3 2/2/2 1/1/1
f 4/4/4 3/3/3 1/1/1
f 7/7/7 6/6/6 5/5/5
f 8/8/8 7/7/7 5/5/5
f 11/11/11 10/10/10 9/9/9
f 12/12/12 11/11/11 9/9/9
f 15/15/15 14/14/14 13/13/13
f 16/16/16 15/15/15 13/13/13
f 19/19/19 18/18/18 17/17/17
f 20/20/20 19/19/19 17/17/17
f 23/23/23 22/22/22 21/21/21
f 24/24/24 23/23/23 21/21/21
f 27/27/27 26/26/26 25/25/25
f 28/28/28 27/27/27 25/25/25
f 31/31/31 30/30/30 29/29/29
f 32/32/32 31/31/31 29/29/29
f 35/35/35 34/34/34 33/33/33
f 36/36/36 35/35/35 33/33/33
f 39/39/39 38/38/38 37/37/37
f 40/40/40 39/39/39 37/37/37
f 43/43/43 42/42/42 41/41/41
f 44/44/44 43/43/43 41/41/41
f 47/47/47 46/46/46 45/45/45
f 48/48/48 47/47/47 45/45/45
f 51/51/51 50/50/50 49/49/49
f 52/52/52 51/51/51 49/49/49
f 55/55/55 54/54/54 53/53/53
f 56/56/56 55/55/55 53/53/53
f 59/59/59 58/58/58 57/57/57
f 60/60/60 59/59/59 57/57/57
f 63/63/63 62/62/62 61/61/61
f 64/64/64 63/63/63 61/61/61
f 67/67/67 66/66/66 65/65/65
f 68/68/68 67/67/67 65/65/65
f 71/71/71 70/70/70 69/69/69
f 72/72/72 71/71/71 69/69/69
f 75/75/75 74/74/74 73/73/73
f 76/76/76 75/75/75 73/73/73
f 79/79/79 78/78/78 77/77/77
f 80/80/80 79/79/79 77/77/77
f 83/83/83 82/82/82 81/81/81
f 84/84/84 83/83/83 81/81/81
f 87/87/87 86/86/86 85/85/85
f 88/88/88 87/87/87 85/85/85
f 91/91/91 90/90/90 89/89/89
f 92/92/92 91/91/91 89/89/89
f 95/95/95 94/94/94 93/93/93
f 96/96/96 95/95/95 93/93/93
f 99/99/99 98/98/98 97/97/97
f 100/100/100 99/99/99 97/97/97
f 103/103/103 102/102/102 101/101/101
f 104/104/104 103/103/103 101/101/101
f 107/107/107 106/106/106 105/105/105
f 108/108/108 107/107/107 105/105/105
f 111/111/111 110/110/110 109/109/109
f 112/112/112 111/111/111 109/109/109
f 115/115/115 114/114/114 113/113/113
f 116/116/116 115/115/115 113/113/113
