g _Combined_Vis2_0
v -2.5 0.5000003 0.500001
v -3.5 0.5000004 0.4999989
v -3.5 0.5000003 -0.5000003
v -2.5 0.5000002 -0.5000002
v -1.5 -0.4999999 -0.5000013
v -2.5 -0.4999998 -0.4999993
v -2.5 -0.4999997 0.4999999
v -1.5 -0.4999998 0.5
v -0.5000002 -0.5 -0.5000012
v -1.5 -0.4999999 -0.5000013
v -1.5 -0.4999998 0.5
v -0.5000001 -0.4999999 0.5000001
v -0.5000001 -0.4999999 0.5000001
v -1.5 -0.4999998 0.5
v -1.5 0.5000003 0.5000001
v -0.5000001 0.5000001 0.5000001
v 0.4999999 -0.5000001 -0.5000011
v -0.5000002 -0.5 -0.5000012
v -0.5000001 -0.4999999 0.5000001
v 0.5 -0.5 0.5000001
v -3.5 -0.4999997 -0.5000015
v -3.5 0.5000003 -0.5000003
v -3.5 0.5000004 0.4999989
v -3.5 -0.4999998 0.4999999
v -0.5000001 -0.4999999 0.5000001
v -0.5000001 0.5000001 0.5000001
v -0.5 0.5000002 1.5
v -0.4999999 -0.5 1.5
v -1.5 -0.4999998 0.5
v -2.5 -0.4999997 0.4999999
v -2.5 0.5000003 0.500001
v -1.5 0.5000003 0.5000001
v 1.75 0.1249997 0.1250005
v 0.2499997 0.1249999 0.1249999
v 0.2499997 0.1249999 -0.125
v 1.75 0.1249997 -0.1249999
v 0.5000001 -0.5 1.499999
v -0.4999999 -0.5 1.5
v -0.4999999 -0.4999998 2.5
v 0.5000001 -0.4999999 2.500001
v -0.4999999 -0.5 1.5
v -0.5 0.5000002 1.5
v -0.4999999 0.5000004 2.500001
v -0.4999999 -0.4999998 2.5
v -0.4999999 -0.4999998 2.5
v -0.4999999 0.5000004 2.500001
v -0.4999999 0.5000004 3.500001
v -0.4999998 -0.4999999 3.500001
v 0.5000001 -0.4999999 2.500001
v -0.4999999 -0.4999998 2.5
v -0.4999998 -0.4999999 3.500001
v 0.5000002 -0.4999998 3.500001
v -1.5 0.5000011 -0.5000001
v -2.5 0.5000002 -0.5000002
v -2.5 -0.4999998 -0.4999993
v -1.5 -0.4999999 -0.5000013
v -0.5000002 0.500001 -0.5000001
v -1.5 0.5000011 -0.5000001
v -1.5 -0.4999999 -0.5000013
v -0.5000002 -0.5 -0.5000012
v 0.5 -0.5 0.5000001
v -0.5000001 -0.4999999 0.5000001
v -0.4999999 -0.5 1.5
v 0.5000001 -0.5 1.499999
v -2.5 -0.4999997 0.4999999
v -3.5 -0.4999998 0.4999999
v -3.5 0.5000004 0.4999989
v -2.5 0.5000003 0.500001
v -2.5 -0.4999998 -0.4999993
v -3.5 -0.4999997 -0.5000015
v -3.5 -0.4999998 0.4999999
v -2.5 -0.4999997 0.4999999
v -0.4999999 0.5000004 3.500001
v 0.5000001 0.4999992 3.500001
v 0.5000002 -0.4999998 3.500001
v -0.4999998 -0.4999999 3.500001
v 0.5000001 0.4999992 3.500001
v 0.5 0.4999991 2.500001
v 0.5000001 -0.4999999 2.500001
v 0.5000002 -0.4999998 3.500001
v 0.5000001 0.4999992 3.500001
v -0.4999999 0.5000004 3.500001
v -0.4999999 0.5000004 2.500001
v 0.5 0.4999991 2.500001
v 0.5 0.4999991 2.500001
v -0.4999999 0.5000004 2.500001
v -0.5 0.5000002 1.5
v 0.5000002 0.5000001 1.5
v 0.5 0.4999991 2.500001
v 0.5000002 0.5000001 1.5
v 0.5000001 -0.5 1.499999
v 0.5000001 -0.4999999 2.500001
v 0.5000002 0.5000001 1.5
v 0.4999999 0.499999 0.5000001
v 0.5 -0.5 0.5000001
v 0.5000001 -0.5 1.499999
v 0.5000002 0.5000001 1.5
v -0.5 0.5000002 1.5
v -0.5000001 0.5000001 0.5000001
v 0.4999999 0.499999 0.5000001
v -2.5 0.5000002 -0.5000002
v -3.5 0.5000003 -0.5000003
v -3.5 -0.4999997 -0.5000015
v -2.5 -0.4999998 -0.4999993
v -1.5 0.5000003 0.5000001
v -2.5 0.5000003 0.500001
v -2.5 0.5000002 -0.5000002
v -1.5 0.5000011 -0.5000001
v 0.4999998 0.5000009 -0.5
v -0.5000002 0.500001 -0.5000001
v -0.5000002 -0.5 -0.5000012
v 0.4999999 -0.5000001 -0.5000011
v 0.4999999 0.499999 0.5000001
v 0.4999998 0.5000009 -0.5
v 0.4999999 -0.5000001 -0.5000011
v 0.5 -0.5 0.5000001
v 1.75 -0.1250003 -0.1250001
v 0.2499999 -0.1250001 -0.1249997
v 0.25 -0.1250001 0.1250001
v 1.75 -0.1250003 0.1250002
v 1.75 -0.1250003 0.1250002
v 0.25 -0.1250001 0.1250001
v 0.2499997 0.1249999 0.1249999
v 1.75 0.1249997 0.1250005
v 1.75 0.1249997 -0.1249999
v 0.2499997 0.1249999 -0.125
v 0.2499999 -0.1250001 -0.1249997
v 1.75 -0.1250003 -0.1250001
v -0.5000001 0.5000001 0.5000001
v -1.5 0.5000003 0.5000001
v -1.5 0.5000011 -0.5000001
v -0.5000002 0.500001 -0.5000001
v 0.4999999 0.499999 0.5000001
v -0.5000001 0.5000001 0.5000001
v -0.5000002 0.500001 -0.5000001
v 0.4999998 0.5000009 -0.5
vt 0.2734375 0.1132813
vt 0.2734375 0.08203125
vt 0.2109375 0.08203125
vt 0.2109375 0.1132813
vt 0.2734375 0.1132813
vt 0.2734375 0.08203125
vt 0.2109375 0.08203125
vt 0.2109375 0.1132813
vt 0.2734375 0.1132813
vt 0.2734375 0.08203125
vt 0.2109375 0.08203125
vt 0.2109375 0.1132813
vt 0.2734375 0.1132813
vt 0.2734375 0.08203125
vt 0.2109375 0.08203125
vt 0.2109375 0.1132813
vt 0.2734375 0.1132813
vt 0.2734375 0.08203125
vt 0.2109375 0.08203125
vt 0.2109375 0.1132813
vt 0.2734375 0.1132813
vt 0.2734375 0.08203125
vt 0.2109375 0.08203125
vt 0.2109375 0.1132813
vt 0.2734375 0.1132813
vt 0.2734375 0.08203125
vt 0.2109375 0.08203125
vt 0.2109375 0.1132813
vt 0.2734375 0.1132813
vt 0.2734375 0.08203125
vt 0.2109375 0.08203125
vt 0.2109375 0.1132813
vt 0.2734375 0.03515625
vt 0.2734375 0.00390625
vt 0.2109375 0.00390625
vt 0.2109375 0.03515625
vt 0.2734375 0.1132813
vt 0.2734375 0.08203125
vt 0.2109375 0.08203125
vt 0.2109375 0.1132813
vt 0.2734375 0.1132813
vt 0.2734375 0.08203125
vt 0.2109375 0.08203125
vt 0.2109375 0.1132813
vt 0.2734375 0.1132813
vt 0.2734375 0.08203125
vt 0.2109375 0.08203125
vt 0.2109375 0.1132813
vt 0.2734375 0.1132813
vt 0.2734375 0.08203125
vt 0.2109375 0.08203125
vt 0.2109375 0.1132813
vt 0.2734375 0.1132813
vt 0.2734375 0.08203125
vt 0.2109375 0.08203125
vt 0.2109375 0.1132813
vt 0.2734375 0.1132813
vt 0.2734375 0.08203125
vt 0.2109375 0.08203125
vt 0.2109375 0.1132813
vt 0.2734375 0.1132813
vt 0.2734375 0.08203125
vt 0.2109375 0.08203125
vt 0.2109375 0.1132813
vt 0.2734375 0.1132813
vt 0.2734375 0.08203125
vt 0.2109375 0.08203125
vt 0.2109375 0.1132813
vt 0.2734375 0.1132813
vt 0.2734375 0.08203125
vt 0.2109375 0.08203125
vt 0.2109375 0.1132813
vt 0.2734375 0.1132813
vt 0.2734375 0.08203125
vt 0.2109375 0.08203125
vt 0.2109375 0.1132813
vt 0.2734375 0.1132813
vt 0.2734375 0.08203125
vt 0.2109375 0.08203125
vt 0.2109375 0.1132813
vt 0.2734375 0.1132813
vt 0.2734375 0.08203125
vt 0.2109375 0.08203125
vt 0.2109375 0.1132813
vt 0.2734375 0.1132813
vt 0.2734375 0.08203125
vt 0.2109375 0.08203125
vt 0.2109375 0.1132813
vt 0.2734375 0.1132813
vt 0.2734375 0.08203125
vt 0.2109375 0.08203125
vt 0.2109375 0.1132813
vt 0.2734375 0.1132813
vt 0.2734375 0.08203125
vt 0.2109375 0.08203125
vt 0.2109375 0.1132813
vt 0.2734375 0.1132813
vt 0.2734375 0.08203125
vt 0.2109375 0.08203125
vt 0.2109375 0.1132813
vt 0.2734375 0.1132813
vt 0.2734375 0.08203125
vt 0.2109375 0.08203125
vt 0.2109375 0.1132813
vt 0.2734375 0.1132813
vt 0.2734375 0.08203125
vt 0.2109375 0.08203125
vt 0.2109375 0.1132813
vt 0.2734375 0.1132813
vt 0.2734375 0.08203125
vt 0.2109375 0.08203125
vt 0.2109375 0.1132813
vt 0.2734375 0.1132813
vt 0.2734375 0.08203125
vt 0.2109375 0.08203125
vt 0.2109375 0.1132813
vt 0.2734375 0.03515625
vt 0.2734375 0.00390625
vt 0.2109375 0.00390625
vt 0.2109375 0.03515625
vt 0.2734375 0.03515625
vt 0.2734375 0.00390625
vt 0.2109375 0.00390625
vt 0.2109375 0.03515625
vt 0.2734375 0.03515625
vt 0.2734375 0.00390625
vt 0.2109375 0.00390625
vt 0.2109375 0.03515625
vt 0.2734375 0.1132813
vt 0.2734375 0.08203125
vt 0.2109375 0.08203125
vt 0.2109375 0.1132813
vt 0.2734375 0.1132813
vt 0.2734375 0.08203125
vt 0.2109375 0.08203125
vt 0.2109375 0.1132813
vn -8.940696E-08 1 5.960466E-08
vn -8.940696E-08 1 5.960466E-08
vn -8.940696E-08 1 5.960466E-08
vn -8.940696E-08 1 5.960466E-08
vn 8.940696E-08 -1 -5.960466E-08
vn 8.940696E-08 -1 -5.960466E-08
vn 8.940696E-08 -1 -5.960466E-08
vn 8.940696E-08 -1 -5.960466E-08
vn 8.940696E-08 -1 -5.960466E-08
vn 8.940696E-08 -1 -5.960466E-08
vn 8.940696E-08 -1 -5.960466E-08
vn 8.940696E-08 -1 -5.960466E-08
vn 5.960467E-08 5.960464E-08 1
vn 5.960467E-08 5.960464E-08 1
vn 5.960467E-08 5.960464E-08 1
vn 5.960467E-08 5.960464E-08 1
vn 8.940696E-08 -1 -5.960466E-08
vn 8.940696E-08 -1 -5.960466E-08
vn 8.940696E-08 -1 -5.960466E-08
vn 8.940696E-08 -1 -5.960466E-08
vn -1 8.940693E-08 -1.78814E-07
vn -1 8.940693E-08 -1.78814E-07
vn -1 8.940693E-08 -1.78814E-07
vn -1 8.940693E-08 -1.78814E-07
vn -1 8.940693E-08 -1.78814E-07
vn -1 8.940693E-08 -1.78814E-07
vn -1 8.940693E-08 -1.78814E-07
vn -1 8.940693E-08 -1.78814E-07
vn 5.960467E-08 5.960464E-08 1
vn 5.960467E-08 5.960464E-08 1
vn 5.960467E-08 5.960464E-08 1
vn 5.960467E-08 5.960464E-08 1
vn -8.940696E-08 1 5.960466E-08
vn -8.940696E-08 1 5.960466E-08
vn -8.940696E-08 1 5.960466E-08
vn -8.940696E-08 1 5.960466E-08
vn 8.940696E-08 -1 -5.960466E-08
vn 8.940696E-08 -1 -5.960466E-08
vn 8.940696E-08 -1 -5.960466E-08
vn 8.940696E-08 -1 -5.960466E-08
vn -1 8.940693E-08 -1.78814E-07
vn -1 8.940693E-08 -1.78814E-07
vn -1 8.940693E-08 -1.78814E-07
vn -1 8.940693E-08 -1.78814E-07
vn -1 8.940693E-08 -1.78814E-07
vn -1 8.940693E-08 -1.78814E-07
vn -1 8.940693E-08 -1.78814E-07
vn -1 8.940693E-08 -1.78814E-07
vn 8.940696E-08 -1 -5.960466E-08
vn 8.940696E-08 -1 -5.960466E-08
vn 8.940696E-08 -1 -5.960466E-08
vn 8.940696E-08 -1 -5.960466E-08
vn 2.781808E-08 -5.960465E-08 -1
vn 2.781808E-08 -5.960465E-08 -1
vn 2.781808E-08 -5.960465E-08 -1
vn 2.781808E-08 -5.960465E-08 -1
vn 2.781808E-08 -5.960465E-08 -1
vn 2.781808E-08 -5.960465E-08 -1
vn 2.781808E-08 -5.960465E-08 -1
vn 2.781808E-08 -5.960465E-08 -1
vn 8.940696E-08 -1 -5.960466E-08
vn 8.940696E-08 -1 -5.960466E-08
vn 8.940696E-08 -1 -5.960466E-08
vn 8.940696E-08 -1 -5.960466E-08
vn 5.960467E-08 5.960464E-08 1
vn 5.960467E-08 5.960464E-08 1
vn 5.960467E-08 5.960464E-08 1
vn 5.960467E-08 5.960464E-08 1
vn 8.940696E-08 -1 -5.960466E-08
vn 8.940696E-08 -1 -5.960466E-08
vn 8.940696E-08 -1 -5.960466E-08
vn 8.940696E-08 -1 -5.960466E-08
vn 5.960467E-08 5.960464E-08 1
vn 5.960467E-08 5.960464E-08 1
vn 5.960467E-08 5.960464E-08 1
vn 5.960467E-08 5.960464E-08 1
vn 1 -8.940696E-08 5.960469E-08
vn 1 -8.940696E-08 5.960469E-08
vn 1 -8.940696E-08 5.960469E-08
vn 1 -8.940696E-08 5.960469E-08
vn -8.940696E-08 1 5.960466E-08
vn -8.940696E-08 1 5.960466E-08
vn -8.940696E-08 1 5.960466E-08
vn -8.940696E-08 1 5.960466E-08
vn -8.940696E-08 1 5.960466E-08
vn -8.940696E-08 1 5.960466E-08
vn -8.940696E-08 1 5.960466E-08
vn -8.940696E-08 1 5.960466E-08
vn 1 -8.940696E-08 5.960469E-08
vn 1 -8.940696E-08 5.960469E-08
vn 1 -8.940696E-08 5.960469E-08
vn 1 -8.940696E-08 5.960469E-08
vn 1 -8.940696E-08 5.960469E-08
vn 1 -8.940696E-08 5.960469E-08
vn 1 -8.940696E-08 5.960469E-08
vn 1 -8.940696E-08 5.960469E-08
vn -8.940696E-08 1 5.960466E-08
vn -8.940696E-08 1 5.960466E-08
vn -8.940696E-08 1 5.960466E-08
vn -8.940696E-08 1 5.960466E-08
vn 2.781808E-08 -5.960465E-08 -1
vn 2.781808E-08 -5.960465E-08 -1
vn 2.781808E-08 -5.960465E-08 -1
vn 2.781808E-08 -5.960465E-08 -1
vn -8.940696E-08 1 5.960466E-08
vn -8.940696E-08 1 5.960466E-08
vn -8.940696E-08 1 5.960466E-08
vn -8.940696E-08 1 5.960466E-08
vn 2.781808E-08 -5.960465E-08 -1
vn 2.781808E-08 -5.960465E-08 -1
vn 2.781808E-08 -5.960465E-08 -1
vn 2.781808E-08 -5.960465E-08 -1
vn 1 -8.940696E-08 5.960469E-08
vn 1 -8.940696E-08 5.960469E-08
vn 1 -8.940696E-08 5.960469E-08
vn 1 -8.940696E-08 5.960469E-08
vn 8.940696E-08 -1 -5.960466E-08
vn 8.940696E-08 -1 -5.960466E-08
vn 8.940696E-08 -1 -5.960466E-08
vn 8.940696E-08 -1 -5.960466E-08
vn 5.960467E-08 5.960464E-08 1
vn 5.960467E-08 5.960464E-08 1
vn 5.960467E-08 5.960464E-08 1
vn 5.960467E-08 5.960464E-08 1
vn 2.781808E-08 -5.960465E-08 -1
vn 2.781808E-08 -5.960465E-08 -1
vn 2.781808E-08 -5.960465E-08 -1
vn 2.781808E-08 -5.960465E-08 -1
vn -8.940696E-08 1 5.960466E-08
vn -8.940696E-08 1 5.960466E-08
vn -8.940696E-08 1 5.960466E-08
vn -8.940696E-08 1 5.960466E-08
vn -8.940696E-08 1 5.960466E-08
vn -8.940696E-08 1 5.960466E-08
vn -8.940696E-08 1 5.960466E-08
vn -8.940696E-08 1 5.960466E-08
g _Combined_Vis2_0_0
f 3/3/3 2/2/2 1/1/1
f 4/4/4 3/3/3 1/1/1
f 7/7/7 6/6/6 5/5/5
f 8/8/8 7/7/7 5/5/5
f 11/11/11 10/10/10 9/9/9
f 12/12/12 11/11/11 9/9/9
f 15/15/15 14/14/14 13/13/13
f 16/16/16 15/15/15 13/13/13
f 19/19/19 18/18/18 17/17/17
f 20/20/20 19/19/19 17/17/17
f 23/23/23 22/22/22 21/21/21
f 24/24/24 23/23/23 21/21/21
f 27/27/27 26/26/26 25/25/25
f 28/28/28 27/27/27 25/25/25
f 31/31/31 30/30/30 29/29/29
f 32/32/32 31/31/31 29/29/29
f 35/35/35 34/34/34 33/33/33
f 36/36/36 35/35/35 33/33/33
f 39/39/39 38/38/38 37/37/37
f 40/40/40 39/39/39 37/37/37
f 43/43/43 42/42/42 41/41/41
f 44/44/44 43/43/43 41/41/41
f 47/47/47 46/46/46 45/45/45
f 48/48/48 47/47/47 45/45/45
f 51/51/51 50/50/50 49/49/49
f 52/52/52 51/51/51 49/49/49
f 55/55/55 54/54/54 53/53/53
f 56/56/56 55/55/55 53/53/53
f 59/59/59 58/58/58 57/57/57
f 60/60/60 59/59/59 57/57/57
f 63/63/63 62/62/62 61/61/61
f 64/64/64 63/63/63 61/61/61
f 67/67/67 66/66/66 65/65/65
f 68/68/68 67/67/67 65/65/65
f 71/71/71 70/70/70 69/69/69
f 72/72/72 71/71/71 69/69/69
f 75/75/75 74/74/74 73/73/73
f 76/76/76 75/75/75 73/73/73
f 79/79/79 78/78/78 77/77/77
f 80/80/80 79/79/79 77/77/77
f 83/83/83 82/82/82 81/81/81
f 84/84/84 83/83/83 81/81/81
f 87/87/87 86/86/86 85/85/85
f 88/88/88 87/87/87 85/85/85
f 91/91/91 90/90/90 89/89/89
f 92/92/92 91/91/91 89/89/89
f 95/95/95 94/94/94 93/93/93
f 96/96/96 95/95/95 93/93/93
f 99/99/99 98/98/98 97/97/97
f 100/100/100 99/99/99 97/97/97
f 103/103/103 102/102/102 101/101/101
f 104/104/104 103/103/103 101/101/101
f 107/107/107 106/106/106 105/105/105
f 108/108/108 107/107/107 105/105/105
f 111/111/111 110/110/110 109/109/109
f 112/112/112 111/111/111 109/109/109
f 115/115/115 114/114/114 113/113/113
f 116/116/116 115/115/115 113/113/113
f 119/119/119 118/118/118 117/117/117
f 120/120/120 119/119/119 117/117/117
f 123/123/123 122/122/122 121/121/121
f 124/124/124 123/123/123 121/121/121
f 127/127/127 126/126/126 125/125/125
f 128/128/128 127/127/127 125/125/125
f 131/131/131 130/130/130 129/129/129
f 132/132/132 131/131/131 129/129/129
f 135/135/135 134/134/134 133/133/133
f 136/136/136 135/135/135 133/133/133
