g _Combined_Vis8_0
v 18.5 -29.5 13.5
v 18.5 -29.5 14.5
v 17.5 -29.5 14.5
v 17.5 -29.5 13.5
v 11.5 -29.5 12.5
v 11.5 -29.5 11.5
v 12.5 -29.5 11.5
v 12.5 -29.5 12.5
v 12.5 -29.5 14.5
v 12.5 -29.5 15.5
v 11.5 -29.5 15.5
v 11.5 -29.5 14.5
v 13.5 -29.5 13.5
v 13.5 -29.5 14.5
v 12.5 -29.5 14.5
v 12.5 -29.5 13.5
v 12.5 -29.5 18.5
v 12.5 -29.5 17.5
v 13.5 -29.5 17.5
v 13.5 -29.5 18.5
v 13.5 -29.5 11.5
v 13.5 -29.5 12.5
v 12.5 -29.5 12.5
v 12.5 -29.5 11.5
v 12.5 -29.5 14.5
v 13.5 -29.5 14.5
v 13.5 -29.5 15.5
v 12.5 -29.5 15.5
v 13.5 -29.5 12.5
v 13.5 -29.5 13.5
v 12.5 -29.5 13.5
v 13.5 -29.5 16.5
v 12.5 -29.5 16.5
v 12.5 -29.5 15.5
v 13.5 -29.5 15.5
v 12.5 -29.5 16.5
v 13.5 -29.5 16.5
v 12.5 -29.5 17.5
v 14.5 -29.5 16.5
v 15.5 -29.5 16.5
v 15.5 -29.5 17.5
v 14.5 -29.5 17.5
v 15.5 -29.5 16.5
v 14.5 -29.5 16.5
v 14.5 -29.5 15.5
v 15.5 -29.5 15.5
v 15.5 -29.5 12.5
v 15.5 -29.5 13.5
v 14.5 -29.5 13.5
v 14.5 -29.5 12.5
v 14.5 -29.5 14.5
v 15.5 -29.5 14.5
v 15.5 -29.5 15.5
v 14.5 -29.5 15.5
v 15.5 -29.5 11.5
v 15.5 -29.5 12.5
v 14.5 -29.5 12.5
v 14.5 -29.5 11.5
v 14.5 -29.5 18.5
v 14.5 -29.5 17.5
v 15.5 -29.5 18.5
v 15.5 -29.5 13.5
v 15.5 -29.5 14.5
v 14.5 -29.5 14.5
v 14.5 -29.5 13.5
v 17.5 -29.5 13.5
v 17.5 -29.5 14.5
v 16.5 -29.5 14.5
v 16.5 -29.5 13.5
v 16.5 -29.5 18.5
v 16.5 -29.5 17.5
v 17.5 -29.5 17.5
v 17.5 -29.5 18.5
v 17.49998 -29.5 11.5
v 17.49998 -29.5 12.5
v 16.49998 -29.5 12.5
v 16.49998 -29.5 11.5
v 16.5 -29.5 14.5
v 17.5 -29.5 14.5
v 17.5 -29.5 15.5
v 16.5 -29.5 15.5
v 17.49998 -29.5 12.5
v 17.5 -29.5 13.5
v 16.5 -29.5 13.5
v 16.49998 -29.5 12.5
v 12.5 -29.5 12.5
v 12.5 -29.5 13.5
v 11.5 -29.5 13.5
v 11.5 -29.5 12.5
v 17.5 -29.5 16.5
v 16.5 -29.5 16.5
v 16.5 -29.5 15.5
v 17.5 -29.5 15.5
v 11.5 -29.5 15.5
v 12.5 -29.5 15.5
v 12.5 -29.5 16.5
v 11.5 -29.5 16.5
v 12.5 -29.5 17.5
v 11.5 -29.5 17.5
v 11.5 -29.5 16.5
v 12.5 -29.5 16.5
v 17.49998 -29.5 11.5
v 18.5 -29.5 11.5
v 18.5 -29.5 12.5
v 18.5 -29.5 12.5
v 18.5 -29.5 13.5
v 17.5 -29.5 13.5
v 17.49998 -29.5 12.5
v 17.5 -29.5 15.5
v 18.5 -29.5 15.5
v 18.5 -29.5 16.5
v 17.5 -29.5 16.5
v 18.5 -29.5 14.5
v 18.5 -29.5 15.5
v 17.5 -29.5 15.5
v 17.5 -29.5 14.5
v 18.5 -29.5 17.5
v 17.5 -29.5 17.5
v 17.5 -29.5 16.5
v 18.5 -29.5 16.5
v 17.5 -29.5 17.5
v 18.5 -29.5 17.5
v 18.5 -29.5 18.5
v 15.5 -29.5 17.5
v 16.5 -29.5 18.5
v 16.5 -29.5 17.5
v 15.5 -29.5 17.5
v 15.5 -29.5 16.5
v 16.5 -29.5 16.5
v 16.5 -29.5 13.5
v 16.5 -29.5 14.5
v 15.5 -29.5 14.5
v 15.5 -29.5 13.5
v 15.5 -29.5 15.5
v 16.5 -29.5 15.5
v 16.5 -29.5 16.5
v 15.5 -29.5 16.5
v 16.49998 -29.5 12.5
v 16.5 -29.5 13.5
v 15.5 -29.5 13.5
v 15.5 -29.5 12.5
v 15.5 -29.5 11.5
v 16.49998 -29.5 11.5
v 16.5 -29.5 14.5
v 16.5 -29.5 15.5
v 15.5 -29.5 15.5
v 15.5 -29.5 14.5
v 14.5 -29.5 14.5
v 14.5 -29.5 15.5
v 13.5 -29.5 15.5
v 13.5 -29.5 14.5
v 13.5 -29.5 11.5
v 14.5 -29.5 11.5
v 14.5 -29.5 12.5
v 14.5 -29.5 13.5
v 13.5 -29.5 13.5
v 13.5 -29.5 12.5
v 13.5 -29.5 15.5
v 14.5 -29.5 15.5
v 14.5 -29.5 16.5
v 13.5 -29.5 16.5
v 14.5 -29.5 13.5
v 14.5 -29.5 14.5
v 13.5 -29.5 14.5
v 13.5 -29.5 13.5
v 14.5 -29.5 17.5
v 13.5 -29.5 17.5
v 13.5 -29.5 16.5
v 14.5 -29.5 16.5
v 13.5 -29.5 17.5
v 14.5 -29.5 18.5
v 11.5 -29.5 17.5
v 12.5 -29.5 18.5
v 11.5 -29.5 18.5
v 12.5 -29.5 13.5
v 12.5 -29.5 14.5
v 11.5 -29.5 14.5
v 11.5 -29.5 13.5
v 16.5 -29.5 16.5
v 17.5 -29.5 16.5
v 16.5 -29.5 17.5
vt 0.984375 0.7578125
vt 0.984375 0.6953125
vt 0.859375 0.6953125
vt 0.859375 0.7578125
vt 0.984375 0.7578125
vt 0.984375 0.6953125
vt 0.859375 0.6953125
vt 0.859375 0.7578125
vt 0.703125 0.7109375
vt 0.703125 0.6484375
vt 0.578125 0.6484375
vt 0.578125 0.7109375
vt 0.703125 0.7109375
vt 0.703125 0.6484375
vt 0.578125 0.6484375
vt 0.578125 0.7109375
vt 0.984375 0.7578125
vt 0.984375 0.6953125
vt 0.859375 0.6953125
vt 0.859375 0.7578125
vt 0.703125 0.7109375
vt 0.703125 0.6484375
vt 0.578125 0.6484375
vt 0.578125 0.7109375
vt 0.984375 0.7578125
vt 0.984375 0.6953125
vt 0.859375 0.6953125
vt 0.859375 0.7578125
vt 0.984375 0.7578125
vt 0.984375 0.6953125
vt 0.859375 0.6953125
vt 0.703125 0.7109375
vt 0.703125 0.6484375
vt 0.578125 0.6484375
vt 0.578125 0.7109375
vt 0.984375 0.7578125
vt 0.984375 0.6953125
vt 0.859375 0.7578125
vt 0.984375 0.7578125
vt 0.984375 0.6953125
vt 0.859375 0.6953125
vt 0.859375 0.7578125
vt 0.703125 0.7109375
vt 0.703125 0.6484375
vt 0.578125 0.6484375
vt 0.578125 0.7109375
vt 0.984375 0.7578125
vt 0.984375 0.6953125
vt 0.859375 0.6953125
vt 0.859375 0.7578125
vt 0.984375 0.7578125
vt 0.984375 0.6953125
vt 0.859375 0.6953125
vt 0.859375 0.7578125
vt 0.703125 0.7109375
vt 0.703125 0.6484375
vt 0.578125 0.6484375
vt 0.578125 0.7109375
vt 0.984375 0.7578125
vt 0.984375 0.6953125
vt 0.859375 0.7578125
vt 0.703125 0.7109375
vt 0.703125 0.6484375
vt 0.578125 0.6484375
vt 0.578125 0.7109375
vt 0.703125 0.7109375
vt 0.703125 0.6484375
vt 0.578125 0.6484375
vt 0.578125 0.7109375
vt 0.984375 0.7578125
vt 0.984375 0.6953125
vt 0.859375 0.6953125
vt 0.859375 0.7578125
vt 0.703125 0.7109375
vt 0.703125 0.6484375
vt 0.578125 0.6484375
vt 0.578125 0.7109375
vt 0.984375 0.7578125
vt 0.984375 0.6953125
vt 0.859375 0.6953125
vt 0.859375 0.7578125
vt 0.984375 0.7578125
vt 0.984375 0.6953125
vt 0.859375 0.6953125
vt 0.859375 0.7578125
vt 0.703125 0.7109375
vt 0.703125 0.6484375
vt 0.578125 0.6484375
vt 0.578125 0.7109375
vt 0.703125 0.7109375
vt 0.703125 0.6484375
vt 0.578125 0.6484375
vt 0.578125 0.7109375
vt 0.984375 0.7578125
vt 0.984375 0.6953125
vt 0.859375 0.6953125
vt 0.859375 0.7578125
vt 0.703125 0.7109375
vt 0.703125 0.6484375
vt 0.578125 0.6484375
vt 0.578125 0.7109375
vt 0.984375 0.6953125
vt 0.859375 0.6953125
vt 0.859375 0.7578125
vt 0.703125 0.7109375
vt 0.703125 0.6484375
vt 0.578125 0.6484375
vt 0.578125 0.7109375
vt 0.984375 0.7578125
vt 0.984375 0.6953125
vt 0.859375 0.6953125
vt 0.859375 0.7578125
vt 0.703125 0.7109375
vt 0.703125 0.6484375
vt 0.578125 0.6484375
vt 0.578125 0.7109375
vt 0.703125 0.7109375
vt 0.703125 0.6484375
vt 0.578125 0.6484375
vt 0.578125 0.7109375
vt 0.984375 0.7578125
vt 0.984375 0.6953125
vt 0.859375 0.6953125
vt 0.984375 0.7578125
vt 0.859375 0.6953125
vt 0.703125 0.7109375
vt 0.703125 0.6484375
vt 0.578125 0.6484375
vt 0.578125 0.7109375
vt 0.984375 0.7578125
vt 0.984375 0.6953125
vt 0.859375 0.6953125
vt 0.859375 0.7578125
vt 0.984375 0.7578125
vt 0.984375 0.6953125
vt 0.859375 0.6953125
vt 0.859375 0.7578125
vt 0.703125 0.7109375
vt 0.703125 0.6484375
vt 0.578125 0.6484375
vt 0.578125 0.7109375
vt 0.984375 0.6953125
vt 0.859375 0.6953125
vt 0.703125 0.7109375
vt 0.703125 0.6484375
vt 0.578125 0.6484375
vt 0.578125 0.7109375
vt 0.703125 0.7109375
vt 0.703125 0.6484375
vt 0.578125 0.6484375
vt 0.578125 0.7109375
vt 0.984375 0.6953125
vt 0.859375 0.6953125
vt 0.703125 0.7109375
vt 0.703125 0.6484375
vt 0.578125 0.6484375
vt 0.578125 0.7109375
vt 0.984375 0.7578125
vt 0.984375 0.6953125
vt 0.859375 0.6953125
vt 0.859375 0.7578125
vt 0.984375 0.7578125
vt 0.984375 0.6953125
vt 0.859375 0.6953125
vt 0.859375 0.7578125
vt 0.703125 0.7109375
vt 0.703125 0.6484375
vt 0.578125 0.6484375
vt 0.578125 0.7109375
vt 0.984375 0.7578125
vt 0.859375 0.6953125
vt 0.984375 0.7578125
vt 0.859375 0.6953125
vt 0.859375 0.7578125
vt 0.984375 0.7578125
vt 0.984375 0.6953125
vt 0.859375 0.6953125
vt 0.859375 0.7578125
vt 0.984375 0.7578125
vt 0.984375 0.6953125
vt 0.859375 0.7578125
vn 0 1 -1.192093E-07
vn 0 1 -1.192093E-07
vn 0 1 -1.192093E-07
vn 0 1 -1.192093E-07
vn 0 1 -1.192093E-07
vn 0 1 -1.192093E-07
vn 0 1 -1.192093E-07
vn 0 1 -1.192093E-07
vn 0 1 -1.192093E-07
vn 0 1 -1.192093E-07
vn 0 1 -1.192093E-07
vn 0 1 -1.192093E-07
vn 0 1 -1.192093E-07
vn 0 1 -1.192093E-07
vn 0 1 -1.192093E-07
vn 0 1 -1.192093E-07
vn 0 1 -1.192093E-07
vn 0 1 -1.192093E-07
vn 0 1 -1.192093E-07
vn 0 1 -1.192093E-07
vn 0 1 -1.192093E-07
vn 0 1 -1.192093E-07
vn 0 1 -1.192093E-07
vn 0 1 -1.192093E-07
vn 0 1 0
vn 0 1 0
vn 0 1 0
vn 0 1 0
vn 0 1 -1.192093E-07
vn 0 1 -1.192093E-07
vn 0 1 -1.192093E-07
vn 0 1 0
vn 0 1 0
vn 0 1 0
vn 0 1 0
vn 0 1 0
vn 0 1 0
vn 0 1 0
vn 0 1 0
vn 0 1 0
vn 0 1 0
vn 0 1 0
vn 0 1 0
vn 0 1 0
vn 0 1 0
vn 0 1 0
vn 0 1 -1.192093E-07
vn 0 1 -1.192093E-07
vn 0 1 -1.192093E-07
vn 0 1 -1.192093E-07
vn 0 1 0
vn 0 1 0
vn 0 1 0
vn 0 1 0
vn 0 1 -1.192093E-07
vn 0 1 -1.192093E-07
vn 0 1 -1.192093E-07
vn 0 1 -1.192093E-07
vn 0 1 -1.192093E-07
vn 0 1 -1.192093E-07
vn 0 1 -1.192093E-07
vn 0 1 -1.192093E-07
vn 0 1 -1.192093E-07
vn 0 1 -1.192093E-07
vn 0 1 -1.192093E-07
vn 0 1 -1.192093E-07
vn 0 1 -1.192093E-07
vn 0 1 -1.192093E-07
vn 0 1 -1.192093E-07
vn 0 1 -1.192093E-07
vn 0 1 -1.192093E-07
vn 0 1 -1.192093E-07
vn 0 1 -1.192093E-07
vn 0 1 -1.192093E-07
vn 0 1 -1.192093E-07
vn 0 1 -1.192093E-07
vn 0 1 -1.192093E-07
vn 0 1 0
vn 0 1 0
vn 0 1 0
vn 0 1 0
vn 0 1 -1.192093E-07
vn 0 1 -1.192093E-07
vn 0 1 -1.192093E-07
vn 0 1 -1.192093E-07
vn 0 1 -1.192093E-07
vn 0 1 -1.192093E-07
vn 0 1 -1.192093E-07
vn 0 1 -1.192093E-07
vn 0 1 0
vn 0 1 0
vn 0 1 0
vn 0 1 0
vn 0 1 0
vn 0 1 0
vn 0 1 0
vn 0 1 0
vn 0 1 0
vn 0 1 0
vn 0 1 0
vn 0 1 0
vn 0 1 -1.192093E-07
vn 0 1 -1.192093E-07
vn 0 1 -1.192093E-07
vn 0 1 -1.192093E-07
vn 0 1 -1.192093E-07
vn 0 1 -1.192093E-07
vn 0 1 -1.192093E-07
vn 0 1 0
vn 0 1 0
vn 0 1 0
vn 0 1 0
vn 0 1 -1.192093E-07
vn 0 1 -1.192093E-07
vn 0 1 -1.192093E-07
vn 0 1 -1.192093E-07
vn 0 1 0
vn 0 1 0
vn 0 1 0
vn 0 1 0
vn 0 1 0
vn 0 1 0
vn 0 1 0
vn 0 1 0
vn 0 1 0
vn 0 1 0
vn 0 1 0
vn 0 1 0
vn 0 1 0
vn 0 1 -1.192093E-07
vn 0 1 -1.192093E-07
vn 0 1 -1.192093E-07
vn 0 1 -1.192093E-07
vn 0 1 0
vn 0 1 0
vn 0 1 0
vn 0 1 0
vn 0 1 -1.192093E-07
vn 0 1 -1.192093E-07
vn 0 1 -1.192093E-07
vn 0 1 -1.192093E-07
vn 0 1 -1.192093E-07
vn 0 1 -1.192093E-07
vn 0 1 -1.192093E-07
vn 0 1 -1.192093E-07
vn 0 1 -1.192093E-07
vn 0 1 -1.192093E-07
vn 0 1 -1.192093E-07
vn 0 1 -1.192093E-07
vn 0 1 -1.192093E-07
vn 0 1 -1.192093E-07
vn 0 1 -1.192093E-07
vn 0 1 -1.192093E-07
vn 0 1 -1.192093E-07
vn 0 1 -1.192093E-07
vn 0 1 -1.192093E-07
vn 0 1 -1.192093E-07
vn 0 1 0
vn 0 1 0
vn 0 1 0
vn 0 1 0
vn 0 1 -1.192093E-07
vn 0 1 -1.192093E-07
vn 0 1 -1.192093E-07
vn 0 1 -1.192093E-07
vn 0 1 0
vn 0 1 0
vn 0 1 0
vn 0 1 0
vn 0 1 0
vn 0 1 0
vn 0 1 0
vn 0 1 0
vn 0 1 0
vn 0 1 -1.192093E-07
vn 0 1 -1.192093E-07
vn 0 1 -1.192093E-07
vn 0 1 -1.192093E-07
vn 0 1 0
vn 0 1 0
vn 0 1 0
g _Combined_Vis8_0_0
f 3/3/3 2/2/2 1/1/1
f 4/4/4 3/3/3 1/1/1
f 7/7/7 6/6/6 5/5/5
f 8/8/8 7/7/7 5/5/5
f 11/11/11 10/10/10 9/9/9
f 12/12/12 11/11/11 9/9/9
f 15/15/15 14/14/14 13/13/13
f 16/16/16 15/15/15 13/13/13
f 19/19/19 18/18/18 17/17/17
f 20/20/20 19/19/19 17/17/17
f 23/23/23 22/22/22 21/21/21
f 24/24/24 23/23/23 21/21/21
f 27/27/27 26/26/26 25/25/25
f 28/28/28 27/27/27 25/25/25
f 31/31/31 30/30/30 29/29/29
f 8/8/8 31/31/31 29/29/29
f 34/34/34 33/33/33 32/32/32
f 35/35/35 34/34/34 32/32/32
f 19/19/19 37/37/37 36/36/36
f 38/38/38 19/19/19 36/36/36
f 41/41/41 40/40/40 39/39/39
f 42/42/42 41/41/41 39/39/39
f 45/45/45 44/44/44 43/43/43
f 46/46/46 45/45/45 43/43/43
f 49/49/49 48/48/48 47/47/47
f 50/50/50 49/49/49 47/47/47
f 53/53/53 52/52/52 51/51/51
f 54/54/54 53/53/53 51/51/51
f 57/57/57 56/56/56 55/55/55
f 58/58/58 57/57/57 55/55/55
f 41/41/41 60/60/60 59/59/59
f 61/61/61 41/41/41 59/59/59
f 64/64/64 63/63/63 62/62/62
f 65/65/65 64/64/64 62/62/62
f 68/68/68 67/67/67 66/66/66
f 69/69/69 68/68/68 66/66/66
f 72/72/72 71/71/71 70/70/70
f 73/73/73 72/72/72 70/70/70
f 76/76/76 75/75/75 74/74/74
f 77/77/77 76/76/76 74/74/74
f 80/80/80 79/79/79 78/78/78
f 81/81/81 80/80/80 78/78/78
f 84/84/84 83/83/83 82/82/82
f 85/85/85 84/84/84 82/82/82
f 88/88/88 87/87/87 86/86/86
f 89/89/89 88/88/88 86/86/86
f 92/92/92 91/91/91 90/90/90
f 93/93/93 92/92/92 90/90/90
f 96/96/96 95/95/95 94/94/94
f 97/97/97 96/96/96 94/94/94
f 100/100/100 99/99/99 98/98/98
f 101/101/101 100/100/100 98/98/98
f 103/103/103 102/102/102 82/82/82
f 104/104/104 103/103/103 82/82/82
f 107/107/107 106/106/106 105/105/105
f 108/108/108 107/107/107 105/105/105
f 111/111/111 110/110/110 109/109/109
f 112/112/112 111/111/111 109/109/109
f 115/115/115 114/114/114 113/113/113
f 116/116/116 115/115/115 113/113/113
f 119/119/119 118/118/118 117/117/117
f 120/120/120 119/119/119 117/117/117
f 123/123/123 122/122/122 121/121/121
f 73/73/73 123/123/123 121/121/121
f 125/125/125 71/71/71 124/124/124
f 61/61/61 125/125/125 124/124/124
f 128/128/128 127/127/127 126/126/126
f 129/129/129 128/128/128 126/126/126
f 132/132/132 131/131/131 130/130/130
f 133/133/133 132/132/132 130/130/130
f 136/136/136 135/135/135 134/134/134
f 137/137/137 136/136/136 134/134/134
f 140/140/140 139/139/139 138/138/138
f 141/141/141 140/140/140 138/138/138
f 143/143/143 142/142/142 47/47/47
f 85/85/85 143/143/143 47/47/47
f 146/146/146 145/145/145 144/144/144
f 147/147/147 146/146/146 144/144/144
f 150/150/150 149/149/149 148/148/148
f 151/151/151 150/150/150 148/148/148
f 153/153/153 152/152/152 29/29/29
f 50/50/50 153/153/153 29/29/29
f 156/156/156 155/155/155 154/154/154
f 157/157/157 156/156/156 154/154/154
f 160/160/160 159/159/159 158/158/158
f 161/161/161 160/160/160 158/158/158
f 164/164/164 163/163/163 162/162/162
f 165/165/165 164/164/164 162/162/162
f 168/168/168 167/167/167 166/166/166
f 169/169/169 168/168/168 166/166/166
f 171/171/171 60/60/60 170/170/170
f 20/20/20 171/171/171 170/170/170
f 173/173/173 18/18/18 172/172/172
f 174/174/174 173/173/173 172/172/172
f 177/177/177 176/176/176 175/175/175
f 178/178/178 177/177/177 175/175/175
f 72/72/72 180/180/180 179/179/179
f 181/181/181 72/72/72 179/179/179
