g _Combined_Vis48_0
v -8.149829 46.79966 40.14983
v -7.48316 47.46633 40.48317
v -7.149828 46.79966 41.14983
v -7.816496 46.133 40.8165
v -8.149829 46.79966 40.14983
v -7.483153 46.46632 39.48317
v -6.816486 47.13299 39.8165
v -7.48316 47.46633 40.48317
v -7.149828 46.79966 41.14983
v -6.483157 46.46633 40.48317
v -7.149823 45.79966 40.14984
v -7.816496 46.133 40.8165
v -7.48316 47.46633 40.48317
v -6.816486 47.13299 39.8165
v -6.483157 46.46633 40.48317
v -7.149828 46.79966 41.14983
v -7.816496 46.133 40.8165
v -7.149823 45.79966 40.14984
v -7.483153 46.46632 39.48317
v -8.149829 46.79966 40.14983
v -7.31649 46.383 39.69151
v -7.399824 46.42466 39.77484
v -7.358157 46.59133 39.73317
v -7.274823 46.54966 39.64984
v -6.649823 46.54966 40.27484
v -6.733157 46.59133 40.35817
v -6.774824 46.42466 40.39984
v -6.69149 46.383 40.31651
v -7.024824 46.04966 40.14984
v -7.108157 46.09133 40.23317
v -7.233157 46.09133 40.10817
v -7.149824 46.04966 40.02484
v -7.149824 46.04966 40.02484
v -7.233157 46.09133 40.10817
v -7.399824 46.42466 39.77484
v -7.31649 46.383 39.69151
v -6.94149 46.883 39.81651
v -7.024823 46.92466 39.89984
v -6.899823 46.92466 40.02484
v -6.81649 46.883 39.94151
v -6.69149 46.383 40.31651
v -6.774824 46.42466 40.39984
v -7.108157 46.09133 40.23317
v -7.024824 46.04966 40.14984
v -6.81649 46.883 39.94151
v -6.899823 46.92466 40.02484
v -6.733157 46.59133 40.35817
v -6.649823 46.54966 40.27484
v -7.274823 46.54966 39.64984
v -7.358157 46.59133 39.73317
v -7.024823 46.92466 39.89984
v -6.94149 46.883 39.81651
v -7.149824 46.04966 40.02484
v -7.149823 45.79966 40.14984
v -7.024824 46.04966 40.14984
v -7.31649 46.383 39.69151
v -6.483157 46.46633 40.48317
v -6.69149 46.383 40.31651
v -6.649823 46.54966 40.27484
v -7.483153 46.46632 39.48317
v -7.274823 46.54966 39.64984
v -6.94149 46.883 39.81651
v -6.816486 47.13299 39.8165
v -6.81649 46.883 39.94151
vt 0.90625 0.546875
vt 0.90625 0.484375
vt 0.78125 0.484375
vt 0.78125 0.546875
vt 0.34375 0.609375
vt 0.34375 0.546875
vt 0.21875 0.546875
vt 0.21875 0.609375
vt 0.90625 0.546875
vt 0.90625 0.484375
vt 0.78125 0.484375
vt 0.78125 0.546875
vt 0.34375 0.609375
vt 0.34375 0.546875
vt 0.21875 0.546875
vt 0.21875 0.609375
vt 0.90625 0.546875
vt 0.90625 0.484375
vt 0.78125 0.484375
vt 0.78125 0.546875
vt 0.3009375 0.2991897
vt 0.3009375 0.2942678
vt 0.3107812 0.2942678
vt 0.3107812 0.2991897
vt 0.2615625 0.2991897
vt 0.2615625 0.2942678
vt 0.2517188 0.2942678
vt 0.2517188 0.2991897
vt 0.2517188 0.2991897
vt 0.2517188 0.2942678
vt 0.2615625 0.2942678
vt 0.2615625 0.2991897
vt 0.2615625 0.2991897
vt 0.2615625 0.2942678
vt 0.3009375 0.2942678
vt 0.3009375 0.2991897
vt 0.3107812 0.2991897
vt 0.3107812 0.2942678
vt 0.3009375 0.2942678
vt 0.3009375 0.2991897
vt 0.3009375 0.2991897
vt 0.3009375 0.2942678
vt 0.2615625 0.2942678
vt 0.2615625 0.2991897
vt 0.3009375 0.2991897
vt 0.3009375 0.2942678
vt 0.2615625 0.2942678
vt 0.2615625 0.2991897
vt 0.2615625 0.2991897
vt 0.2615625 0.2942678
vt 0.3009375 0.2942678
vt 0.3009375 0.2991897
vt 0.25 0.2734375
vt 0.21875 0.265625
vt 0.234375 0.28125
vt 0.3125 0.2734375
vt 0.21875 0.328125
vt 0.234375 0.3125
vt 0.25 0.3203125
vt 0.34375 0.265625
vt 0.328125 0.28125
vt 0.328125 0.3125
vt 0.34375 0.328125
vt 0.3125 0.3203125
vn -0.6666671 0.3333339 0.666666
vn -0.6666671 0.3333339 0.666666
vn -0.6666671 0.3333339 0.666666
vn -0.6666671 0.3333339 0.666666
vn -0.3333315 0.6666659 -0.6666684
vn -0.3333315 0.6666659 -0.6666684
vn -0.3333315 0.6666659 -0.6666684
vn -0.3333315 0.6666659 -0.6666684
vn 0.3333322 -0.6666673 0.6666666
vn 0.3333322 -0.6666673 0.6666666
vn 0.3333322 -0.6666673 0.6666666
vn 0.3333322 -0.6666673 0.6666666
vn 0.6666664 0.6666671 0.3333331
vn 0.6666664 0.6666671 0.3333331
vn 0.6666664 0.6666671 0.3333331
vn 0.6666664 0.6666671 0.3333331
vn -0.6666666 -0.6666661 -0.3333347
vn -0.6666666 -0.6666661 -0.3333347
vn -0.6666666 -0.6666661 -0.3333347
vn -0.6666666 -0.6666661 -0.3333347
vn 0.7071058 3.769111E-07 0.7071078
vn 0.7071058 3.769111E-07 0.7071078
vn 0.7071058 3.769111E-07 0.7071078
vn 0.7071058 3.769111E-07 0.7071078
vn -0.7071058 -3.769111E-07 -0.7071078
vn -0.7071058 -3.769111E-07 -0.7071078
vn -0.7071058 -3.769111E-07 -0.7071078
vn -0.7071058 -3.769111E-07 -0.7071078
vn 0.2357031 0.9428087 -0.2357029
vn 0.2357031 0.9428087 -0.2357029
vn 0.2357031 0.9428087 -0.2357029
vn 0.2357031 0.9428087 -0.2357029
vn 0.6666666 0.6666665 0.3333338
vn 0.6666666 0.6666665 0.3333338
vn 0.6666666 0.6666665 0.3333338
vn 0.6666666 0.6666665 0.3333338
vn -0.2357031 -0.9428087 0.2357029
vn -0.2357031 -0.9428087 0.2357029
vn -0.2357031 -0.9428087 0.2357029
vn -0.2357031 -0.9428087 0.2357029
vn -0.3333322 0.666666 -0.6666679
vn -0.3333322 0.666666 -0.6666679
vn -0.3333322 0.666666 -0.6666679
vn -0.3333322 0.666666 -0.6666679
vn -0.6666666 -0.6666665 -0.3333338
vn -0.6666666 -0.6666665 -0.3333338
vn -0.6666666 -0.6666665 -0.3333338
vn -0.6666666 -0.6666665 -0.3333338
vn 0.3333322 -0.666666 0.6666679
vn 0.3333322 -0.666666 0.6666679
vn 0.3333322 -0.666666 0.6666679
vn 0.3333322 -0.666666 0.6666679
vn 0.6666676 -0.3333336 -0.6666656
vn 0.6666676 -0.3333336 -0.6666656
vn 0.6666676 -0.3333336 -0.6666656
vn 0.6666676 -0.3333336 -0.6666656
vn 0.6666676 -0.3333336 -0.6666656
vn 0.6666676 -0.3333336 -0.6666656
vn 0.6666676 -0.3333336 -0.6666656
vn 0.6666676 -0.3333336 -0.6666656
vn 0.6666676 -0.3333336 -0.6666656
vn 0.6666676 -0.3333336 -0.6666656
vn 0.6666676 -0.3333336 -0.6666656
vn 0.6666676 -0.3333336 -0.6666656
g _Combined_Vis48_0_0
f 3/3/3 2/2/2 1/1/1
f 4/4/4 3/3/3 1/1/1
f 7/7/7 6/6/6 5/5/5
f 8/8/8 7/7/7 5/5/5
f 11/11/11 10/10/10 9/9/9
f 12/12/12 11/11/11 9/9/9
f 15/15/15 14/14/14 13/13/13
f 16/16/16 15/15/15 13/13/13
f 19/19/19 18/18/18 17/17/17
f 20/20/20 19/19/19 17/17/17
f 23/23/23 22/22/22 21/21/21
f 24/24/24 23/23/23 21/21/21
f 27/27/27 26/26/26 25/25/25
f 28/28/28 27/27/27 25/25/25
f 31/31/31 30/30/30 29/29/29
f 32/32/32 31/31/31 29/29/29
f 35/35/35 34/34/34 33/33/33
f 36/36/36 35/35/35 33/33/33
f 39/39/39 38/38/38 37/37/37
f 40/40/40 39/39/39 37/37/37
f 43/43/43 42/42/42 41/41/41
f 44/44/44 43/43/43 41/41/41
f 47/47/47 46/46/46 45/45/45
f 48/48/48 47/47/47 45/45/45
f 51/51/51 50/50/50 49/49/49
f 52/52/52 51/51/51 49/49/49
f 55/55/55 54/54/54 53/53/53
f 53/53/53 54/54/54 56/56/56
f 54/54/54 55/55/55 57/57/57
f 55/55/55 58/58/58 57/57/57
f 57/57/57 58/58/58 59/59/59
f 54/54/54 60/60/60 56/56/56
f 56/56/56 60/60/60 61/61/61
f 61/61/61 60/60/60 62/62/62
f 57/57/57 59/59/59 63/63/63
f 60/60/60 63/63/63 62/62/62
f 59/59/59 64/64/64 63/63/63
f 62/62/62 63/63/63 64/64/64
