g _Combined_AutoVis26_0
v 0.499994 0.2500025 0.5000103
v 0.499994 0.2500005 -0.4999897
v 0.499994 -0.7499985 -0.4999897
v 0.499994 -0.7499985 0.5000103
v 0.499994 0.2500005 -0.4999897
v 0.499994 0.2500025 0.5000103
v -0.5000064 0.2500011 0.5000111
v -0.5000064 0.250001 -0.4999889
v -0.5000064 0.250001 -0.4999889
v -0.5000064 0.2500011 0.5000111
v -0.500006 -0.7499995 0.500012
v -0.500006 -0.7499995 -0.499988
v 0.3749936 0.2500011 0.5000111
v 0.3749936 0.250001 0.1250111
v 0.3749936 0.5000011 0.1250111
v 0.3749936 0.5000011 0.5000111
v 0.4999936 0.5000011 0.1250111
v 0.3749936 0.5000011 0.1250111
v 0.3749936 0.250001 0.1250111
v 0.4999936 0.250001 0.1250111
v 0.3749936 0.5000011 0.5000111
v 0.3749936 0.5000011 0.1250111
v 0.4999936 0.5000011 0.1250111
v 0.4999936 0.5000011 0.5000111
v 0.4999936 0.250001 -0.1249889
v 0.3749936 0.250001 -0.1249889
v 0.3749936 0.500001 -0.1249889
v 0.4999936 0.500001 -0.1249889
v 0.4999936 0.250001 0.1250111
v 0.499994 0.2500025 0.5000103
v 0.4999936 0.5000011 0.5000111
v 0.4999936 0.5000011 0.1250111
v 0.3749936 0.500001 -0.1249889
v 0.3749936 0.500001 -0.499989
v 0.4999936 0.500001 -0.499989
v 0.4999936 0.500001 -0.1249889
v 0.499994 0.2500005 -0.4999897
v 0.4999936 0.250001 -0.1249889
v 0.4999936 0.500001 -0.1249889
v 0.4999936 0.500001 -0.499989
v 0.3749936 0.250001 -0.1249889
v 0.3749936 0.250001 -0.4999889
v 0.3749936 0.500001 -0.499989
v 0.3749936 0.500001 -0.1249889
v 0.3749936 0.250001 -0.4999889
v 0.499994 0.2500005 -0.4999897
v 0.4999936 0.500001 -0.499989
v 0.3749936 0.500001 -0.499989
v 0.499994 0.2500025 0.5000103
v 0.3749936 0.2500011 0.5000111
v 0.3749936 0.5000011 0.5000111
v 0.4999936 0.5000011 0.5000111
vt 0.765625 0.4453125
vt 0.765625 0.3828125
vt 0.640625 0.3828125
vt 0.640625 0.4453125
vt 0.734375 0.7734375
vt 0.734375 0.7109375
vt 0.609375 0.7109375
vt 0.609375 0.7734375
vt 0.765625 0.4453125
vt 0.765625 0.3828125
vt 0.640625 0.3828125
vt 0.640625 0.4453125
vt 0.640625 0.4453125
vt 0.734375 0.4453125
vt 0.734375 0.4140625
vt 0.640625 0.4140625
vt 0.765625 0.4296875
vt 0.734375 0.4296875
vt 0.734375 0.4453125
vt 0.765625 0.4453125
vt 0.765625 0.4296875
vt 0.765625 0.3828125
vt 0.734375 0.3828125
vt 0.734375 0.4296875
vt 0.765625 0.4296875
vt 0.734375 0.4296875
vt 0.734375 0.4453125
vt 0.765625 0.4453125
vt 0.734375 0.3828125
vt 0.640625 0.3828125
vt 0.640625 0.4140625
vt 0.734375 0.4140625
vt 0.765625 0.4296875
vt 0.765625 0.3828125
vt 0.734375 0.3828125
vt 0.734375 0.4296875
vt 0.734375 0.3828125
vt 0.640625 0.3828125
vt 0.640625 0.4140625
vt 0.734375 0.4140625
vt 0.640625 0.4453125
vt 0.734375 0.4453125
vt 0.734375 0.4140625
vt 0.640625 0.4140625
vt 0.734375 0.4453125
vt 0.765625 0.4453125
vt 0.765625 0.4296875
vt 0.734375 0.4296875
vt 0.765625 0.4296875
vt 0.734375 0.4296875
vt 0.734375 0.4453125
vt 0.765625 0.4453125
vn 1 2.794025E-18 -8.449154E-20
vn 1 2.794025E-18 -8.449154E-20
vn 1 2.794025E-18 -8.449154E-20
vn 1 2.794025E-18 -8.449154E-20
vn 1.761613E-14 1 -1.192093E-07
vn 1.761613E-14 1 -1.192093E-07
vn 1.761613E-14 1 -1.192093E-07
vn 1.761613E-14 1 -1.192093E-07
vn -1 -2.794025E-18 8.449154E-20
vn -1 -2.794025E-18 8.449154E-20
vn -1 -2.794025E-18 8.449154E-20
vn -1 -2.794025E-18 8.449154E-20
vn -1 -2.794025E-18 8.449154E-20
vn -1 -2.794025E-18 8.449154E-20
vn -1 -2.794025E-18 8.449154E-20
vn -1 -2.794025E-18 8.449154E-20
vn 2.471885E-14 -1.192093E-07 -1
vn 2.471885E-14 -1.192093E-07 -1
vn 2.471885E-14 -1.192093E-07 -1
vn 2.471885E-14 -1.192093E-07 -1
vn 1.761613E-14 1 -1.192093E-07
vn 1.761613E-14 1 -1.192093E-07
vn 1.761613E-14 1 -1.192093E-07
vn 1.761613E-14 1 -1.192093E-07
vn -2.471885E-14 1.192093E-07 1
vn -2.471885E-14 1.192093E-07 1
vn -2.471885E-14 1.192093E-07 1
vn -2.471885E-14 1.192093E-07 1
vn 1 2.794025E-18 -8.449154E-20
vn 1 2.794025E-18 -8.449154E-20
vn 1 2.794025E-18 -8.449154E-20
vn 1 2.794025E-18 -8.449154E-20
vn 1.761613E-14 1 -1.192093E-07
vn 1.761613E-14 1 -1.192093E-07
vn 1.761613E-14 1 -1.192093E-07
vn 1.761613E-14 1 -1.192093E-07
vn 1 2.794025E-18 -8.449154E-20
vn 1 2.794025E-18 -8.449154E-20
vn 1 2.794025E-18 -8.449154E-20
vn 1 2.794025E-18 -8.449154E-20
vn -1 -2.794025E-18 8.449154E-20
vn -1 -2.794025E-18 8.449154E-20
vn -1 -2.794025E-18 8.449154E-20
vn -1 -2.794025E-18 8.449154E-20
vn 2.471885E-14 -1.192093E-07 -1
vn 2.471885E-14 -1.192093E-07 -1
vn 2.471885E-14 -1.192093E-07 -1
vn 2.471885E-14 -1.192093E-07 -1
vn -2.471885E-14 1.192093E-07 1
vn -2.471885E-14 1.192093E-07 1
vn -2.471885E-14 1.192093E-07 1
vn -2.471885E-14 1.192093E-07 1
g _Combined_AutoVis26_0_0
f 3/3/3 2/2/2 1/1/1
f 4/4/4 3/3/3 1/1/1
f 7/7/7 6/6/6 5/5/5
f 8/8/8 7/7/7 5/5/5
f 11/11/11 10/10/10 9/9/9
f 12/12/12 11/11/11 9/9/9
f 15/15/15 14/14/14 13/13/13
f 16/16/16 15/15/15 13/13/13
f 19/19/19 18/18/18 17/17/17
f 20/20/20 19/19/19 17/17/17
f 23/23/23 22/22/22 21/21/21
f 24/24/24 23/23/23 21/21/21
f 27/27/27 26/26/26 25/25/25
f 28/28/28 27/27/27 25/25/25
f 31/31/31 30/30/30 29/29/29
f 32/32/32 31/31/31 29/29/29
f 35/35/35 34/34/34 33/33/33
f 36/36/36 35/35/35 33/33/33
f 39/39/39 38/38/38 37/37/37
f 40/40/40 39/39/39 37/37/37
f 43/43/43 42/42/42 41/41/41
f 44/44/44 43/43/43 41/41/41
f 47/47/47 46/46/46 45/45/45
f 48/48/48 47/47/47 45/45/45
f 51/51/51 50/50/50 49/49/49
f 52/52/52 51/51/51 49/49/49
