g _Combined_WaterVis17_0
v 0.2500002 -2 -0.3749987
v 0.2500002 -4 -0.3749987
v 0.2500001 -4 0.3750016
v 0.2500001 -2 0.3750016
v 0.2500002 -1 -0.3749987
v 0.2500001 -1 0.3750016
v 0.2187502 -0.5 -0.3749987
v 0.2187501 -0.5 0.3750016
v 0.1250001 -0.125 -0.3749987
v 0.125 -0.125 0.3750015
v 8.482759E-08 0 -0.3749987
v -4.579407E-09 0 0.3750015
v 0.3000112 -1.611308 -0.07287858
v 0.3000112 -2.388692 1.442426E-06
v 0.3000112 -1.611308 0.07288147
v 0.2500002 -4 -0.3749987
v 0.2500002 -8 -0.3749987
v 0.2500001 -8 0.3750016
v 0.2500001 -4 0.3750016
v 0.3000112 -5.611308 -0.07287858
v 0.3000112 -6.388692 1.442426E-06
v 0.3000112 -5.611308 0.07288147
v -1.000001 0 -0.3749987
v 8.482759E-08 0 -0.3749987
v -4.579407E-09 0 0.3750015
v -1.000001 0 0.3750016
v -0.5971735 0.050011 -0.07287852
v -0.4028274 0.050011 1.521562E-06
v -0.5971735 0.050011 0.07288153
v 0.2500002 -8 -0.3749987
v 0.25 -12 -0.3749988
v 0.2500003 -12 0.3750015
v 0.2500001 -8 0.3750016
v 0.3000111 -9.611308 -0.07287873
v 0.3000112 -10.38869 1.299369E-06
v 0.3000112 -9.611308 0.07288133
v 0.25 -12 -0.3749988
v 0.25 -16 -0.3749988
v 0.2500003 -16 0.3750015
v 0.2500003 -12 0.3750015
v 0.3000111 -13.61131 -0.07287873
v 0.3000112 -14.38869 1.299369E-06
v 0.3000112 -13.61131 0.07288133
vt 0.875 0.499942
vt 0.875 0
vt 0.125 0
vt 0.125 0.499942
vt 0.875 0.749928
vt 0.125 0.749928
vt 0.875 0.8286
vt 0.125 0.8286
vt 0.875 0.9135
vt 0.125 0.9135
vt 0.875 0.999885
vt 0.125 0.999885
vt 0 0
vt 0 0
vt 0 0
vt 0.875 0.999885
vt 0.875 0
vt 0.125 0
vt 0.125 0.999885
vt 0 0
vt 0 0
vt 0 0
vt 0.875 0.999885
vt 0.875 0
vt 0.125 0
vt 0.125 0.999885
vt 0 0
vt 0 0
vt 0 0
vt 0.875 0.999885
vt 0.875 0
vt 0.125 0
vt 0.125 0.999885
vt 0 0
vt 0 0
vt 0 0
vt 0.875 0.999885
vt 0.875 0
vt 0.125 0
vt 0.125 0.999885
vt 0 0
vt 0 0
vt 0 0
vn 1 0 1.192093E-07
vn 1 0 1.192093E-07
vn 1 0 1.192093E-07
vn 1 0 1.192093E-07
vn 0.9995267 0.03076176 1.191529E-07
vn 0.9995267 0.03076176 1.191529E-07
vn 0.9901302 0.1401506 1.180327E-07
vn 0.9901302 0.1401506 1.180327E-07
vn 0.9147925 0.4039243 1.090518E-07
vn 0.9147925 0.4039243 1.090518E-07
vn 0.7071057 0.7071079 8.429357E-08
vn 0.7071057 0.7071079 8.429357E-08
vn 1 0 1.192093E-07
vn 1 0 1.192093E-07
vn 1 0 1.192093E-07
vn 1 0 1.192093E-07
vn 1 0 1.192093E-07
vn 1 0 1.192093E-07
vn 1 0 1.192093E-07
vn 1 0 1.192093E-07
vn 1 0 1.192093E-07
vn 1 0 1.192093E-07
vn 0 1 0
vn 0 1 0
vn 0 1 0
vn 0 1 0
vn 0 1 0
vn 0 1 0
vn 0 1 0
vn 1 0 -3.576278E-07
vn 1 0 -3.576278E-07
vn 1 0 -3.576278E-07
vn 1 0 -3.576278E-07
vn 1 0 -3.576278E-07
vn 1 0 -3.576278E-07
vn 1 0 -3.576278E-07
vn 1 0 -3.576278E-07
vn 1 0 -3.576278E-07
vn 1 0 -3.576278E-07
vn 1 0 -3.576278E-07
vn 1 0 -3.576278E-07
vn 1 0 -3.576278E-07
vn 1 0 -3.576278E-07
g _Combined_WaterVis17_0_0
f 3/3/3 2/2/2 1/1/1
f 4/4/4 3/3/3 1/1/1
f 4/4/4 1/1/1 5/5/5
f 6/6/6 4/4/4 5/5/5
f 6/6/6 5/5/5 7/7/7
f 8/8/8 6/6/6 7/7/7
f 8/8/8 7/7/7 9/9/9
f 10/10/10 8/8/8 9/9/9
f 10/10/10 9/9/9 11/11/11
f 12/12/12 10/10/10 11/11/11
f 15/15/15 14/14/14 13/13/13
f 18/18/18 17/17/17 16/16/16
f 19/19/19 18/18/18 16/16/16
f 22/22/22 21/21/21 20/20/20
f 25/25/25 24/24/24 23/23/23
f 26/26/26 25/25/25 23/23/23
f 29/29/29 28/28/28 27/27/27
f 32/32/32 31/31/31 30/30/30
f 33/33/33 32/32/32 30/30/30
f 36/36/36 35/35/35 34/34/34
f 39/39/39 38/38/38 37/37/37
f 40/40/40 39/39/39 37/37/37
f 43/43/43 42/42/42 41/41/41
