g _Combined_Vis38_0
v 6.999999 1.5 122.5
v 7.000001 0.5 122.5
v 8 0.5 122.5
v 8 1.5 122.5
v 8 1.5 122.5
v 8 0.5 122.5
v 8 0.5000001 123.5
v 8 1.5 123.5
v 8.000001 -1.5 122.5
v 7.999999 -0.5000001 122.5
v 7 -0.4999999 122.5
v 7 -1.5 122.5
v 7.000001 0.5 122.5
v 7 -0.4999999 122.5
v 7.999999 -0.5000001 122.5
v 8 0.5 122.5
v 8 -1.5 123.5
v 8 -0.5 123.5
v 7.999999 -0.5000001 122.5
v 8.000001 -1.5 122.5
v 8 0.5 122.5
v 7.999999 -0.5000001 122.5
v 8 -0.5 123.5
v 8 0.5000001 123.5
v 7.25 1.5 122.625
v 7.25 1.375 122.625
v 7.125 1.375 122.75
v 7.125 1.5 122.75
v 7.75 1.5 123.375
v 7.75 1.375 123.375
v 7.875 1.375 123.25
v 7.875 1.5 123.25
v 7.875 1.5 122.75
v 7.875 1.375 122.75
v 7.75 1.375 122.625
v 7.75 1.5 122.625
v 7.75 1.5 122.625
v 7.75 1.375 122.625
v 7.25 1.375 122.625
v 7.25 1.5 122.625
v 7.125 1.5 123.25
v 7.125 1.375 123.25
v 7.25 1.375 123.375
v 7.25 1.5 123.375
v 7.875 1.5 123.25
v 7.875 1.375 123.25
v 7.875 1.375 122.75
v 7.875 1.5 122.75
v 7.25 1.5 123.375
v 7.25 1.375 123.375
v 7.75 1.375 123.375
v 7.75 1.5 123.375
v 7.125 1.5 122.75
v 7.125 1.375 122.75
v 7.125 1.375 123.25
v 7.125 1.5 123.25
v 7.75 1.5 122.625
v 8 1.5 122.5
v 7.875 1.5 122.75
v 7.25 1.5 122.625
v 8 1.5 123.5
v 7.875 1.5 123.25
v 7.75 1.5 123.375
v 6.999999 1.5 122.5
v 7.125 1.5 122.75
v 7.125 1.5 123.25
v 7 1.5 123.5
v 7.25 1.5 123.375
vt 0.15625 0.609375
vt 0.15625 0.546875
vt 0.03125 0.546875
vt 0.03125 0.609375
vt 0.15625 0.609375
vt 0.15625 0.546875
vt 0.03125 0.546875
vt 0.03125 0.609375
vt 0.34375 0.703125
vt 0.34375 0.640625
vt 0.21875 0.640625
vt 0.21875 0.703125
vt 0.34375 0.703125
vt 0.34375 0.640625
vt 0.21875 0.640625
vt 0.21875 0.703125
vt 0.34375 0.703125
vt 0.34375 0.640625
vt 0.21875 0.640625
vt 0.21875 0.703125
vt 0.34375 0.703125
vt 0.34375 0.640625
vt 0.21875 0.640625
vt 0.21875 0.703125
vt 0.6759375 0.2679397
vt 0.6759375 0.2630178
vt 0.6857812 0.2630178
vt 0.6857812 0.2679397
vt 0.6365625 0.2679397
vt 0.6365625 0.2630178
vt 0.6267188 0.2630178
vt 0.6267188 0.2679397
vt 0.6267188 0.2679397
vt 0.6267188 0.2630178
vt 0.6365625 0.2630178
vt 0.6365625 0.2679397
vt 0.6365625 0.2679397
vt 0.6365625 0.2630178
vt 0.6759375 0.2630178
vt 0.6759375 0.2679397
vt 0.6857812 0.2679397
vt 0.6857812 0.2630178
vt 0.6759375 0.2630178
vt 0.6759375 0.2679397
vt 0.6759375 0.2679397
vt 0.6759375 0.2630178
vt 0.6365625 0.2630178
vt 0.6365625 0.2679397
vt 0.6759375 0.2679397
vt 0.6759375 0.2630178
vt 0.6365625 0.2630178
vt 0.6365625 0.2679397
vt 0.6365625 0.2679397
vt 0.6365625 0.2630178
vt 0.6759375 0.2630178
vt 0.6759375 0.2679397
vt 0.625 0.2421875
vt 0.59375 0.234375
vt 0.609375 0.25
vt 0.6875 0.2421875
vt 0.59375 0.296875
vt 0.609375 0.28125
vt 0.625 0.2890625
vt 0.71875 0.234375
vt 0.703125 0.25
vt 0.703125 0.28125
vt 0.71875 0.296875
vt 0.6875 0.2890625
vn 1.788139E-07 -5.960465E-08 -1
vn 1.788139E-07 -5.960465E-08 -1
vn 1.788139E-07 -5.960465E-08 -1
vn 1.788139E-07 -5.960465E-08 -1
vn 1 -3.37597E-08 5.960464E-08
vn 1 -3.37597E-08 5.960464E-08
vn 1 -3.37597E-08 5.960464E-08
vn 1 -3.37597E-08 5.960464E-08
vn 1.788139E-07 -5.960462E-08 -1
vn 1.788139E-07 -5.960462E-08 -1
vn 1.788139E-07 -5.960462E-08 -1
vn 1.788139E-07 -5.960462E-08 -1
vn 1.788139E-07 -5.960465E-08 -1
vn 1.788139E-07 -5.960465E-08 -1
vn 1.788139E-07 -5.960465E-08 -1
vn 1.788139E-07 -5.960465E-08 -1
vn 1 6.322026E-08 5.960464E-08
vn 1 6.322026E-08 5.960464E-08
vn 1 6.322026E-08 5.960464E-08
vn 1 6.322026E-08 5.960464E-08
vn 1 -3.37597E-08 5.960464E-08
vn 1 -3.37597E-08 5.960464E-08
vn 1 -3.37597E-08 5.960464E-08
vn 1 -3.37597E-08 5.960464E-08
vn 0.7071068 -1.461109E-07 0.7071068
vn 0.7071068 -1.461109E-07 0.7071068
vn 0.7071068 -1.461109E-07 0.7071068
vn 0.7071068 -1.461109E-07 0.7071068
vn -0.7071068 1.461109E-07 -0.7071068
vn -0.7071068 1.461109E-07 -0.7071068
vn -0.7071068 1.461109E-07 -0.7071068
vn -0.7071068 1.461109E-07 -0.7071068
vn -0.7071068 -2.247645E-08 0.7071068
vn -0.7071068 -2.247645E-08 0.7071068
vn -0.7071068 -2.247645E-08 0.7071068
vn -0.7071068 -2.247645E-08 0.7071068
vn 3.552713E-15 -1.192093E-07 1
vn 3.552713E-15 -1.192093E-07 1
vn 3.552713E-15 -1.192093E-07 1
vn 3.552713E-15 -1.192093E-07 1
vn 0.7071068 2.247645E-08 -0.7071068
vn 0.7071068 2.247645E-08 -0.7071068
vn 0.7071068 2.247645E-08 -0.7071068
vn 0.7071068 2.247645E-08 -0.7071068
vn -1 8.742277E-08 3.552713E-15
vn -1 8.742277E-08 3.552713E-15
vn -1 8.742277E-08 3.552713E-15
vn -1 8.742277E-08 3.552713E-15
vn -3.552713E-15 1.192093E-07 -1
vn -3.552713E-15 1.192093E-07 -1
vn -3.552713E-15 1.192093E-07 -1
vn -3.552713E-15 1.192093E-07 -1
vn 1 -8.742277E-08 -3.552713E-15
vn 1 -8.742277E-08 -3.552713E-15
vn 1 -8.742277E-08 -3.552713E-15
vn 1 -8.742277E-08 -3.552713E-15
vn 8.742278E-08 1 -1.192093E-07
vn 8.742278E-08 1 -1.192093E-07
vn 8.742278E-08 1 -1.192093E-07
vn 8.742278E-08 1 -1.192093E-07
vn 8.742278E-08 1 -1.192093E-07
vn 8.742278E-08 1 -1.192093E-07
vn 8.742278E-08 1 -1.192093E-07
vn 8.742278E-08 1 -1.192093E-07
vn 8.742278E-08 1 -1.192093E-07
vn 8.742278E-08 1 -1.192093E-07
vn 8.742278E-08 1 -1.192093E-07
vn 8.742278E-08 1 -1.192093E-07
g _Combined_Vis38_0_0
f 3/3/3 2/2/2 1/1/1
f 4/4/4 3/3/3 1/1/1
f 7/7/7 6/6/6 5/5/5
f 8/8/8 7/7/7 5/5/5
f 11/11/11 10/10/10 9/9/9
f 12/12/12 11/11/11 9/9/9
f 15/15/15 14/14/14 13/13/13
f 16/16/16 15/15/15 13/13/13
f 19/19/19 18/18/18 17/17/17
f 20/20/20 19/19/19 17/17/17
f 23/23/23 22/22/22 21/21/21
f 24/24/24 23/23/23 21/21/21
f 27/27/27 26/26/26 25/25/25
f 28/28/28 27/27/27 25/25/25
f 31/31/31 30/30/30 29/29/29
f 32/32/32 31/31/31 29/29/29
f 35/35/35 34/34/34 33/33/33
f 36/36/36 35/35/35 33/33/33
f 39/39/39 38/38/38 37/37/37
f 40/40/40 39/39/39 37/37/37
f 43/43/43 42/42/42 41/41/41
f 44/44/44 43/43/43 41/41/41
f 47/47/47 46/46/46 45/45/45
f 48/48/48 47/47/47 45/45/45
f 51/51/51 50/50/50 49/49/49
f 52/52/52 51/51/51 49/49/49
f 55/55/55 54/54/54 53/53/53
f 56/56/56 55/55/55 53/53/53
f 59/59/59 58/58/58 57/57/57
f 57/57/57 58/58/58 60/60/60
f 58/58/58 59/59/59 61/61/61
f 59/59/59 62/62/62 61/61/61
f 61/61/61 62/62/62 63/63/63
f 58/58/58 64/64/64 60/60/60
f 60/60/60 64/64/64 65/65/65
f 65/65/65 64/64/64 66/66/66
f 61/61/61 63/63/63 67/67/67
f 64/64/64 67/67/67 66/66/66
f 63/63/63 68/68/68 67/67/67
f 66/66/66 67/67/67 68/68/68
