g _Combined_Vis75_0
v -32.50014 -0.1000166 27.50004
v -32.00014 -1.740456E-05 27.50004
v -32.50014 -1.651049E-05 27.56223
v -31.50014 -1.000019 28.15799
v -31.63869 -1.000019 28.50004
v -31.50014 -0.8571829 28.50004
v -32.50014 -1.651049E-05 28.50004
v -31.63869 -1.000019 28.50004
v -32.50014 -1.000017 28.50004
v -31.50014 -1.829863E-05 28.50004
v -31.50014 -0.8571829 28.50004
v -31.50014 -1.829863E-05 27.50004
v -32.50014 -1.000017 27.50004
v -31.50014 -1.000019 27.50004
v -32.00014 -1.740456E-05 27.50004
v -32.50014 -0.1000166 27.50004
v -31.50014 -1.829863E-05 28.50004
v -32.50014 -1.651049E-05 28.50004
v -31.50014 -1.829863E-05 27.50004
v -32.50014 -1.651049E-05 27.56223
v -32.00014 -1.740456E-05 27.50004
v -32.50014 -1.000017 28.50004
v -32.50014 -1.651049E-05 27.56223
v -32.50014 -1.651049E-05 28.50004
v -32.50014 -1.000017 27.50004
v -32.50014 -0.1000166 27.50004
v -31.63869 -1.000019 28.50004
v -32.50014 -1.000017 27.50004
v -32.50014 -1.000017 28.50004
v -31.50014 -1.000019 28.15799
v -31.50014 -1.000019 27.50004
v -31.50014 -1.829863E-05 28.50004
v -31.50014 -1.000019 28.15799
v -31.50014 -0.8571829 28.50004
v -31.50014 -1.829863E-05 27.50004
v -31.50014 -1.000019 27.50004
v -32.5001 -0.000115633 27.5004
v -33.5001 -0.0001171827 27.5004
v -33.5001 -1.000117 27.5004
v -32.50014 -1.000017 27.50004
v -32.50014 -1.651049E-05 28.50004
v -32.5001 -0.000115633 27.5004
v -32.50014 -1.000017 27.50004
v -32.50014 -1.000017 28.50004
v -32.50014 -1.000017 27.50004
v -33.5001 -1.000117 27.5004
v -33.50021 -1.000195 28.50042
v -32.50014 -1.000017 28.50004
v -33.5001 -1.000117 27.5004
v -38.50024 -1.000202 27.50042
v -38.50024 -1.000202 28.50042
v -33.50021 -1.000195 28.50042
v -33.5001 -0.0001171827 27.5004
v -38.50013 -0.0001066327 27.5004
v -38.50024 -1.000202 27.50042
v -33.5001 -1.000117 27.5004
vt 0.6999661 0.6775543
vt 0.6741586 0.6787549
vt 0.6990944 0.6836491
vt 0.6978073 0.6978376
vt 0.6776082 0.6890067
vt 0.675975 0.7008724
vt 0.734375 0.640625
vt 0.703125 0.6675455
vt 0.703125 0.640625
vt 0.734375 0.671875
vt 0.7075886 0.671875
vt 0.734375 0.671875
vt 0.703125 0.640625
vt 0.703125 0.671875
vt 0.734375 0.65625
vt 0.73125 0.640625
vt 0.703125 0.671875
vt 0.703125 0.640625
vt 0.671875 0.671875
vt 0.6738184 0.640625
vt 0.671875 0.65625
vt 0.734375 0.671875
vt 0.703125 0.7011815
vt 0.703125 0.671875
vt 0.734375 0.703125
vt 0.70625 0.703125
vt 0.703125 0.6675455
vt 0.671875 0.640625
vt 0.703125 0.640625
vt 0.6924359 0.671875
vt 0.671875 0.671875
vt 0.734375 0.703125
vt 0.703125 0.6924359
vt 0.7075886 0.703125
vt 0.734375 0.671875
vt 0.703125 0.671875
vt 0.734375 0.703125
vt 0.734375 0.640625
vt 0.671875 0.640625
vt 0.671875 0.703125
vt 0.734375 0.703125
vt 0.734375 0.640625
vt 0.671875 0.640625
vt 0.671875 0.703125
vt 0.734375 0.703125
vt 0.734375 0.640625
vt 0.671875 0.640625
vt 0.671875 0.703125
vt 0.734375 0.703125
vt 0.734375 0.640625
vt 0.671875 0.640625
vt 0.671875 0.703125
vt 0.734375 0.703125
vt 0.734375 0.640625
vt 0.671875 0.640625
vt 0.671875 0.703125
vn -0.1050155 0.5251716 -0.8444919
vn -0.1050155 0.5251716 -0.8444919
vn -0.1050155 0.5251716 -0.8444919
vn 0.6892768 -0.6685564 0.2791594
vn 0.6892768 -0.6685564 0.2791594
vn 0.6892768 -0.6685564 0.2791594
vn 5.960463E-07 3.557537E-20 1
vn 5.960463E-07 3.557537E-20 1
vn 5.960463E-07 3.557537E-20 1
vn 5.960463E-07 3.557537E-20 1
vn 5.960463E-07 3.557537E-20 1
vn -5.960463E-07 -3.557537E-20 -1
vn -5.960463E-07 -3.557537E-20 -1
vn -5.960463E-07 -3.557537E-20 -1
vn -5.960463E-07 -3.557537E-20 -1
vn -5.960463E-07 -3.557537E-20 -1
vn 1.788139E-06 1 0
vn 1.788139E-06 1 0
vn 1.788139E-06 1 0
vn 1.788139E-06 1 0
vn 1.788139E-06 1 0
vn -1 1.78814E-06 5.960466E-07
vn -1 1.78814E-06 5.960466E-07
vn -1 1.78814E-06 5.960466E-07
vn -1 1.78814E-06 5.960466E-07
vn -1 1.78814E-06 5.960466E-07
vn -1.788139E-06 -1 0
vn -1.788139E-06 -1 0
vn -1.788139E-06 -1 0
vn -1.788139E-06 -1 0
vn -1.788139E-06 -1 0
vn 1 -1.78814E-06 -5.960466E-07
vn 1 -1.78814E-06 -5.960466E-07
vn 1 -1.78814E-06 -5.960466E-07
vn 1 -1.78814E-06 -5.960466E-07
vn 1 -1.78814E-06 -5.960466E-07
vn -8.429364E-08 -8.429365E-08 -1
vn -8.429364E-08 -8.429365E-08 -1
vn -8.429364E-08 -8.429365E-08 -1
vn -8.429364E-08 -8.429365E-08 -1
vn 1 -1.788139E-07 -2.384187E-07
vn 1 -1.788139E-07 -2.384187E-07
vn 1 -1.788139E-07 -2.384187E-07
vn 1 -1.788139E-07 -2.384187E-07
vn -1.78814E-07 -1 -2.384185E-07
vn -1.78814E-07 -1 -2.384185E-07
vn -1.78814E-07 -1 -2.384185E-07
vn -1.78814E-07 -1 -2.384185E-07
vn -1.192093E-07 -1 -1.192092E-07
vn -1.192093E-07 -1 -1.192092E-07
vn -1.192093E-07 -1 -1.192092E-07
vn -1.192093E-07 -1 -1.192092E-07
vn 3.517007E-14 0 -1
vn 3.517007E-14 0 -1
vn 3.517007E-14 0 -1
vn 3.517007E-14 0 -1
g _Combined_Vis75_0_0
f 3/3/3 2/2/2 1/1/1
f 6/6/6 5/5/5 4/4/4
f 9/9/9 8/8/8 7/7/7
f 7/7/7 8/8/8 10/10/10
f 10/10/10 8/8/8 11/11/11
f 14/14/14 13/13/13 12/12/12
f 13/13/13 15/15/15 12/12/12
f 16/16/16 15/15/15 13/13/13
f 19/19/19 18/18/18 17/17/17
f 20/20/20 18/18/18 19/19/19
f 21/21/21 20/20/20 19/19/19
f 24/24/24 23/23/23 22/22/22
f 22/22/22 23/23/23 25/25/25
f 23/23/23 26/26/26 25/25/25
f 29/29/29 28/28/28 27/27/27
f 27/27/27 28/28/28 30/30/30
f 30/30/30 28/28/28 31/31/31
f 34/34/34 33/33/33 32/32/32
f 32/32/32 33/33/33 35/35/35
f 33/33/33 36/36/36 35/35/35
f 39/39/39 38/38/38 37/37/37
f 40/40/40 39/39/39 37/37/37
f 43/43/43 42/42/42 41/41/41
f 44/44/44 43/43/43 41/41/41
f 47/47/47 46/46/46 45/45/45
f 48/48/48 47/47/47 45/45/45
f 51/51/51 50/50/50 49/49/49
f 52/52/52 51/51/51 49/49/49
f 55/55/55 54/54/54 53/53/53
f 56/56/56 55/55/55 53/53/53
