g _Combined_WaterVis9_0
v 16.625 11 9.500004
v 16.625 11 8.500004
v 17.375 11 8.500004
v 17.375 11 9.500004
v 16.92712 11.05001 9.097177
v 17 11.05001 8.902831
v 17.07288 11.05001 9.097177
v 16.625 11 8.500004
v 16.625 11 7.500003
v 17.375 11 7.500004
v 17.375 11 8.500004
v 16.92712 11.05001 8.097177
v 17 11.05001 7.902831
v 17.07288 11.05001 8.097177
v 16.625 11 7.500003
v 16.625 11 6.500003
v 17.375 11 6.500003
v 17.375 11 7.500004
v 16.92712 11.05001 7.097177
v 17 11.05001 6.90283
v 17.07288 11.05001 7.097177
v 16.625 11 6.500003
v 16.625 11 5.500003
v 17.375 11 5.500003
v 17.375 11 6.500003
v 16.92712 11.05001 6.097177
v 17 11.05001 5.90283
v 17.07288 11.05001 6.097177
v 16.625 11 5.500003
v 16.625 11 4.500003
v 17.375 11 4.500003
v 17.375 11 5.500003
v 16.92712 11.05001 5.097176
v 17 11.05001 4.90283
v 17.07288 11.05001 5.097176
v 16.625 11 4.500003
v 16.625 11 3.500003
v 17.375 11 3.500003
v 17.375 11 4.500003
v 16.92712 11.05001 4.097176
v 17 11.05001 3.90283
v 17.07288 11.05001 4.097176
vt 0.875 0.999885
vt 0.875 0
vt 0.125 0
vt 0.125 0.999885
vt 0 0
vt 0 0
vt 0 0
vt 0.875 0.999885
vt 0.875 0
vt 0.125 0
vt 0.125 0.999885
vt 0 0
vt 0 0
vt 0 0
vt 0.875 0.999885
vt 0.875 0
vt 0.125 0
vt 0.125 0.999885
vt 0 0
vt 0 0
vt 0 0
vt 0.875 0.999885
vt 0.875 0
vt 0.125 0
vt 0.125 0.999885
vt 0 0
vt 0 0
vt 0 0
vt 0.875 0.999885
vt 0.875 0
vt 0.125 0
vt 0.125 0.999885
vt 0 0
vt 0 0
vt 0 0
vt 0.875 0.999885
vt 0.875 0
vt 0.125 0
vt 0.125 0.999885
vt 0 0
vt 0 0
vt 0 0
vn 0 1 0
vn 0 1 0
vn 0 1 0
vn 0 1 0
vn 0 1 0
vn 0 1 0
vn 0 1 0
vn 0 1 0
vn 0 1 0
vn 0 1 0
vn 0 1 0
vn 0 1 0
vn 0 1 0
vn 0 1 0
vn 0 1 0
vn 0 1 0
vn 0 1 0
vn 0 1 0
vn 0 1 0
vn 0 1 0
vn 0 1 0
vn 0 1 0
vn 0 1 0
vn 0 1 0
vn 0 1 0
vn 0 1 0
vn 0 1 0
vn 0 1 0
vn 0 1 0
vn 0 1 0
vn 0 1 0
vn 0 1 0
vn 0 1 0
vn 0 1 0
vn 0 1 0
vn 0 1 0
vn 0 1 0
vn 0 1 0
vn 0 1 0
vn 0 1 0
vn 0 1 0
vn 0 1 0
g _Combined_WaterVis9_0_0
f 3/3/3 2/2/2 1/1/1
f 4/4/4 3/3/3 1/1/1
f 7/7/7 6/6/6 5/5/5
f 10/10/10 9/9/9 8/8/8
f 11/11/11 10/10/10 8/8/8
f 14/14/14 13/13/13 12/12/12
f 17/17/17 16/16/16 15/15/15
f 18/18/18 17/17/17 15/15/15
f 21/21/21 20/20/20 19/19/19
f 24/24/24 23/23/23 22/22/22
f 25/25/25 24/24/24 22/22/22
f 28/28/28 27/27/27 26/26/26
f 31/31/31 30/30/30 29/29/29
f 32/32/32 31/31/31 29/29/29
f 35/35/35 34/34/34 33/33/33
f 38/38/38 37/37/37 36/36/36
f 39/39/39 38/38/38 36/36/36
f 42/42/42 41/41/41 40/40/40
