g _Combined_Vis13_0
v 0.2500018 0.25 -0.2500005
v 0.2500018 -0.75 -0.2499985
v 0.2500019 -0.75 0.7500009
v 0.2500019 0.25 0.7500009
v 0.2500018 -0.75 -0.2499985
v 0.2500018 0.25 -0.2500005
v -0.7499985 0.25 -0.2499994
v -0.7499983 -0.75 -0.2499994
v 0.2500018 -0.75 -0.2499985
v 0.2500017 -1.75 -0.2499984
v 0.2500018 -1.75 0.750001
v 0.2500019 -0.75 0.7500009
v 1.817942E-06 0.2500002 0.6250009
v 1.817942E-06 0.1250002 0.6250009
v 0.1250018 0.1250002 0.5000008
v 0.1250018 0.2500002 0.5000008
v -0.4999983 0.2500001 -0.1249994
v -0.4999983 0.1250001 -0.1249994
v -0.6249983 0.1250001 6.705523E-07
v -0.6249983 0.2500001 6.556511E-07
v -0.6249983 0.2500002 0.5000008
v -0.6249983 0.1250002 0.5000008
v -0.4999983 0.1250002 0.6250009
v -0.4999983 0.2500002 0.6250009
v -0.4999983 0.2500002 0.6250009
v -0.4999983 0.1250002 0.6250009
v 1.817942E-06 0.1250002 0.6250009
v 1.817942E-06 0.2500002 0.6250009
v 0.1250018 0.2500001 6.556511E-07
v 0.1250018 0.1250001 6.705523E-07
v 1.817942E-06 0.1250001 -0.1249994
v 1.817942E-06 0.2500001 -0.1249994
v -0.6249983 0.2500001 6.556511E-07
v -0.6249983 0.1250001 6.705523E-07
v -0.6249983 0.1250002 0.5000008
v -0.6249983 0.2500002 0.5000008
v 1.817942E-06 0.2500001 -0.1249994
v 1.817942E-06 0.1250001 -0.1249994
v -0.4999983 0.1250001 -0.1249994
v -0.4999983 0.2500001 -0.1249994
v 0.1250018 0.2500002 0.5000008
v 0.1250018 0.1250002 0.5000008
v 0.1250018 0.1250001 6.705523E-07
v 0.1250018 0.2500001 6.556511E-07
v -0.4999983 0.2500002 0.6250009
v -0.7499984 0.2500002 0.750001
v -0.6249983 0.2500002 0.5000008
v 1.817942E-06 0.2500002 0.6250009
v -0.7499985 0.25 -0.2499994
v -0.6249983 0.2500001 6.556511E-07
v -0.4999983 0.2500001 -0.1249994
v 0.2500019 0.25 0.7500009
v 0.1250018 0.2500002 0.5000008
v 0.1250018 0.2500001 6.556511E-07
v 0.2500018 0.25 -0.2500005
v 1.817942E-06 0.2500001 -0.1249994
vt 0.9375 0.75
vt 0.9375 0.625
vt 0.8125 0.625
vt 0.8125 0.75
vt 0.9375 0.75
vt 0.9375 0.625
vt 0.8125 0.625
vt 0.8125 0.75
vt 0.96875 0.3125
vt 0.96875 0.1875
vt 0.84375 0.1875
vt 0.84375 0.3125
vt 0.9259375 0.2546294
vt 0.9259375 0.2447856
vt 0.9357812 0.2447856
vt 0.9357812 0.2546294
vt 0.8865625 0.2546294
vt 0.8865625 0.2447856
vt 0.8767188 0.2447856
vt 0.8767188 0.2546294
vt 0.8767188 0.2546294
vt 0.8767188 0.2447856
vt 0.8865625 0.2447856
vt 0.8865625 0.2546294
vt 0.8865625 0.2546294
vt 0.8865625 0.2447856
vt 0.9259375 0.2447856
vt 0.9259375 0.2546294
vt 0.9357812 0.2546294
vt 0.9357812 0.2447856
vt 0.9259375 0.2447856
vt 0.9259375 0.2546294
vt 0.9259375 0.2546294
vt 0.9259375 0.2447856
vt 0.8865625 0.2447856
vt 0.8865625 0.2546294
vt 0.9259375 0.2546294
vt 0.9259375 0.2447856
vt 0.8865625 0.2447856
vt 0.8865625 0.2546294
vt 0.8865625 0.2546294
vt 0.8865625 0.2447856
vt 0.9259375 0.2447856
vt 0.9259375 0.2546294
vt 0.875 0.203125
vt 0.84375 0.1875
vt 0.859375 0.21875
vt 0.9375 0.203125
vt 0.84375 0.3125
vt 0.859375 0.28125
vt 0.875 0.296875
vt 0.96875 0.1875
vt 0.953125 0.21875
vt 0.953125 0.28125
vt 0.96875 0.3125
vt 0.9375 0.296875
vn 1 -4.929708E-16 -1.192093E-07
vn 1 -4.929708E-16 -1.192093E-07
vn 1 -4.929708E-16 -1.192093E-07
vn 1 -4.929708E-16 -1.192093E-07
vn 8.742277E-08 9.718041E-16 -1
vn 8.742277E-08 9.718041E-16 -1
vn 8.742277E-08 9.718041E-16 -1
vn 8.742277E-08 9.718041E-16 -1
vn 1 -4.929708E-16 -1.192093E-07
vn 1 -4.929708E-16 -1.192093E-07
vn 1 -4.929708E-16 -1.192093E-07
vn 1 -4.929708E-16 -1.192093E-07
vn -0.7071068 -8.429367E-08 -0.7071068
vn -0.7071068 -8.429367E-08 -0.7071068
vn -0.7071068 -8.429367E-08 -0.7071068
vn -0.7071068 -8.429367E-08 -0.7071068
vn 0.7071068 8.429367E-08 0.7071068
vn 0.7071068 8.429367E-08 0.7071068
vn 0.7071068 8.429367E-08 0.7071068
vn 0.7071068 8.429367E-08 0.7071068
vn 0.7071068 -8.429367E-08 -0.7071068
vn 0.7071068 -8.429367E-08 -0.7071068
vn 0.7071068 -8.429367E-08 -0.7071068
vn 0.7071068 -8.429367E-08 -0.7071068
vn 5.013759E-15 -1.192092E-07 -1
vn 5.013759E-15 -1.192092E-07 -1
vn 5.013759E-15 -1.192092E-07 -1
vn 5.013759E-15 -1.192092E-07 -1
vn -0.7071068 8.429367E-08 0.7071068
vn -0.7071068 8.429367E-08 0.7071068
vn -0.7071068 8.429367E-08 0.7071068
vn -0.7071068 8.429367E-08 0.7071068
vn 1 -2.269326E-15 -1.839479E-16
vn 1 -2.269326E-15 -1.839479E-16
vn 1 -2.269326E-15 -1.839479E-16
vn 1 -2.269326E-15 -1.839479E-16
vn -5.013759E-15 1.192092E-07 1
vn -5.013759E-15 1.192092E-07 1
vn -5.013759E-15 1.192092E-07 1
vn -5.013759E-15 1.192092E-07 1
vn -1 2.269326E-15 1.839479E-16
vn -1 2.269326E-15 1.839479E-16
vn -1 2.269326E-15 1.839479E-16
vn -1 2.269326E-15 1.839479E-16
vn -1.297003E-15 1 -1.192093E-07
vn -1.297003E-15 1 -1.192093E-07
vn -1.297003E-15 1 -1.192093E-07
vn -1.297003E-15 1 -1.192093E-07
vn -1.297003E-15 1 -1.192093E-07
vn -1.297003E-15 1 -1.192093E-07
vn -1.297003E-15 1 -1.192093E-07
vn -1.297003E-15 1 -1.192093E-07
vn -1.297003E-15 1 -1.192093E-07
vn -1.297003E-15 1 -1.192093E-07
vn -1.297003E-15 1 -1.192093E-07
vn -1.297003E-15 1 -1.192093E-07
g _Combined_Vis13_0_0
f 3/3/3 2/2/2 1/1/1
f 4/4/4 3/3/3 1/1/1
f 7/7/7 6/6/6 5/5/5
f 8/8/8 7/7/7 5/5/5
f 11/11/11 10/10/10 9/9/9
f 12/12/12 11/11/11 9/9/9
f 15/15/15 14/14/14 13/13/13
f 16/16/16 15/15/15 13/13/13
f 19/19/19 18/18/18 17/17/17
f 20/20/20 19/19/19 17/17/17
f 23/23/23 22/22/22 21/21/21
f 24/24/24 23/23/23 21/21/21
f 27/27/27 26/26/26 25/25/25
f 28/28/28 27/27/27 25/25/25
f 31/31/31 30/30/30 29/29/29
f 32/32/32 31/31/31 29/29/29
f 35/35/35 34/34/34 33/33/33
f 36/36/36 35/35/35 33/33/33
f 39/39/39 38/38/38 37/37/37
f 40/40/40 39/39/39 37/37/37
f 43/43/43 42/42/42 41/41/41
f 44/44/44 43/43/43 41/41/41
f 47/47/47 46/46/46 45/45/45
f 45/45/45 46/46/46 48/48/48
f 46/46/46 47/47/47 49/49/49
f 47/47/47 50/50/50 49/49/49
f 49/49/49 50/50/50 51/51/51
f 46/46/46 52/52/52 48/48/48
f 48/48/48 52/52/52 53/53/53
f 53/53/53 52/52/52 54/54/54
f 49/49/49 51/51/51 55/55/55
f 52/52/52 55/55/55 54/54/54
f 51/51/51 56/56/56 55/55/55
f 54/54/54 55/55/55 56/56/56
