g _Combined_Vis12_0
v 0.5000021 2.500003 -0.4999999
v -0.4999982 2.500001 -0.4999994
v -0.4999981 1.500002 -0.4999997
v 0.5000023 1.500002 -0.5000002
v 0.5000023 1.500002 -0.5000002
v -0.4999981 1.500002 -0.4999997
v -0.499998 0.500002 -0.4999999
v 0.5000023 0.5000019 -0.5000004
v 0.5000023 0.5000019 -0.5000004
v -0.499998 0.500002 -0.4999999
v -0.499998 -0.499998 -0.5000002
v 0.5000024 -0.4999981 -0.5000007
vt 0.296875 0.5703125
vt 0.296875 0.5078125
vt 0.171875 0.5078125
vt 0.171875 0.5703125
vt 0.296875 0.5703125
vt 0.296875 0.5078125
vt 0.171875 0.5078125
vt 0.171875 0.5703125
vt 0.546875 0.8515625
vt 0.546875 0.7265625
vt 0.296875 0.7265625
vt 0.296875 0.8515625
vn -5.044387E-07 2.515576E-07 -1
vn -5.044387E-07 2.515576E-07 -1
vn -5.044387E-07 2.515576E-07 -1
vn -5.044387E-07 2.515576E-07 -1
vn -5.044387E-07 2.515576E-07 -1
vn -5.044387E-07 2.515576E-07 -1
vn -5.044387E-07 2.515576E-07 -1
vn -5.044387E-07 2.515576E-07 -1
vn -5.044387E-07 2.515576E-07 -1
vn -5.044387E-07 2.515576E-07 -1
vn -5.044387E-07 2.515576E-07 -1
vn -5.044387E-07 2.515576E-07 -1
g _Combined_Vis12_0_0
f 3/3/3 2/2/2 1/1/1
f 4/4/4 3/3/3 1/1/1
f 7/7/7 6/6/6 5/5/5
f 8/8/8 7/7/7 5/5/5
f 11/11/11 10/10/10 9/9/9
f 12/12/12 11/11/11 9/9/9
