g _Combined_Vis4_1
v -32.76098 4.5625 -31.95312
v -32.97624 4.519682 -31.95312
v -32.97624 4.519682 -32.04687
v -32.76098 4.5625 -32.04687
v -32.97624 4.519682 -31.95312
v -33.15873 4.397748 -31.95312
v -33.15873 4.397747 -32.04687
v -32.97624 4.519682 -32.04687
v -33.15873 4.397748 -31.95312
v -33.28066 4.21526 -31.95312
v -33.28066 4.21526 -32.04687
v -33.15873 4.397747 -32.04687
v -33.28066 4.21526 -31.95312
v -33.32348 4 -31.95312
v -33.32348 4 -32.04687
v -33.28066 4.21526 -32.04687
v -33.32348 4 -31.95312
v -33.28066 3.78474 -31.95312
v -33.28066 3.78474 -32.04687
v -33.32348 4 -32.04687
v -33.28066 3.78474 -31.95312
v -33.15873 3.602252 -31.95312
v -33.15873 3.602252 -32.04687
v -33.28066 3.78474 -32.04687
v -33.15873 3.602252 -31.95312
v -32.97624 3.480317 -31.95312
v -32.97624 3.480317 -32.04687
v -33.15873 3.602252 -32.04687
v -32.97624 3.480317 -31.95312
v -32.76098 3.4375 -31.95312
v -32.76098 3.4375 -32.04687
v -32.97624 3.480317 -32.04687
v -32.76098 3.4375 -31.95312
v -32.54572 3.480317 -31.95312
v -32.54572 3.480317 -32.04687
v -32.76098 3.4375 -32.04687
v -32.54572 3.480317 -31.95312
v -32.36323 3.602252 -31.95312
v -32.36323 3.602252 -32.04687
v -32.54572 3.480317 -32.04687
v -32.36323 3.602252 -31.95312
v -32.2413 3.78474 -31.95312
v -32.2413 3.78474 -32.04687
v -32.36323 3.602252 -32.04687
v -32.2413 3.78474 -31.95312
v -32.19848 4 -31.95312
v -32.19848 4 -32.04687
v -32.2413 3.78474 -32.04687
v -32.19848 4 -31.95312
v -32.2413 4.21526 -31.95312
v -32.2413 4.21526 -32.04687
v -32.19848 4 -32.04687
v -32.2413 4.21526 -31.95312
v -32.36323 4.397748 -31.95312
v -32.36323 4.397748 -32.04687
v -32.2413 4.21526 -32.04687
v -32.54572 4.519682 -31.95312
v -32.76098 4.5625 -31.95312
v -32.76098 4.5625 -32.04687
v -32.54572 4.519682 -32.04687
v -32.36323 4.397748 -31.95312
v -32.54572 4.519682 -31.95312
v -32.54572 4.519682 -32.04687
v -32.36323 4.397748 -32.04687
v -32.9064 4.351079 -31.95312
v -32.9064 4.351079 -32.04687
v -33.02968 4.268704 -32.04687
v -33.02968 4.268704 -31.95312
v -32.49228 4.268704 -31.95312
v -32.49228 4.268704 -32.04687
v -32.61556 4.351079 -32.04687
v -32.61556 4.351079 -31.95312
v -32.76098 3.619994 -31.95312
v -32.76098 3.619994 -32.04687
v -32.61556 3.64892 -32.04687
v -32.61556 3.64892 -31.95312
v -33.02968 4.268704 -31.95312
v -33.02968 4.268704 -32.04687
v -33.11206 4.145422 -32.04687
v -33.11206 4.145422 -31.95312
v -32.61556 4.351079 -31.95312
v -32.61556 4.351079 -32.04687
v -32.76098 4.380005 -32.04687
v -32.76098 4.380005 -31.95312
v -32.61556 3.64892 -31.95312
v -32.61556 3.64892 -32.04687
v -32.49228 3.731295 -32.04687
v -32.49228 3.731295 -31.95312
v -33.11206 4.145422 -31.95312
v -33.11206 4.145422 -32.04687
v -33.14098 4 -32.04687
v -33.11206 4.145422 -31.95312
v -33.14098 4 -32.04687
v -33.14098 4 -31.95312
v -32.49228 3.731295 -31.95312
v -32.49228 3.731295 -32.04687
v -32.4099 3.854578 -32.04687
v -32.4099 3.854578 -31.95312
v -33.14098 4 -31.95312
v -33.14098 4 -32.04687
v -33.11206 3.854578 -32.04687
v -33.11206 3.854578 -31.95312
v -32.4099 3.854578 -31.95312
v -32.4099 3.854578 -32.04687
v -32.38097 4 -32.04687
v -32.38097 4 -31.95312
v -33.11206 3.854578 -31.95312
v -33.11206 3.854578 -32.04687
v -33.02968 3.731295 -32.04687
v -33.02968 3.731295 -31.95312
v -32.38097 4 -31.95312
v -32.38097 4 -32.04687
v -32.4099 4.145422 -32.04687
v -32.4099 4.145422 -31.95312
v -33.02968 3.731295 -31.95312
v -33.02968 3.731295 -32.04687
v -32.9064 3.64892 -32.04687
v -32.9064 3.64892 -31.95312
v -32.76098 4.380005 -31.95312
v -32.76098 4.380005 -32.04687
v -32.9064 4.351079 -32.04687
v -32.9064 4.351079 -31.95312
v -32.4099 4.145422 -31.95312
v -32.4099 4.145422 -32.04687
v -32.49228 4.268704 -32.04687
v -32.49228 4.268704 -31.95312
v -32.9064 3.64892 -31.95312
v -32.9064 3.64892 -32.04687
v -32.76098 3.619994 -32.04687
v -32.76098 3.619994 -31.95312
v -33.03379 3.911446 -32.05652
v -33.03379 3.911446 -31.94347
v -33.03379 4.088554 -31.94347
v -33.03379 4.088554 -32.05652
v -33.95278 4.088554 -32.13767
v -33.95278 4.088554 -31.86231
v -33.95278 3.911446 -31.86231
v -33.95278 3.911446 -32.13767
v -33.03379 4.088554 -31.94347
v -33.03379 3.911446 -31.94347
v -33.11895 3.911446 -31.86231
v -33.11895 4.088554 -31.86231
v -33.11895 3.911446 -31.86231
v -33.95278 3.911446 -31.86231
v -33.95278 4.088554 -31.86231
v -33.11895 4.088554 -31.86231
v -33.95278 4.088554 -31.86231
v -33.03379 4.088554 -31.94347
v -33.11895 4.088554 -31.86231
v -33.03379 4.088554 -32.05652
v -33.95278 4.088554 -32.13767
v -33.11895 4.088554 -32.13767
v -33.95278 3.911446 -32.13767
v -33.11895 3.911446 -32.13767
v -33.11895 4.088554 -32.13767
v -33.95278 4.088554 -32.13767
v -33.03379 3.911446 -31.94347
v -33.95278 3.911446 -31.86231
v -33.11895 3.911446 -31.86231
v -33.95278 3.911446 -32.13767
v -33.03379 3.911446 -32.05652
v -33.11895 3.911446 -32.13767
v -33.03379 3.911446 -32.05652
v -33.03379 4.088554 -32.05652
v -33.11895 4.088554 -32.13767
v -33.11895 3.911446 -32.13767
v -32.61556 4.351079 -32.04687
v -32.36323 4.397748 -32.04687
v -32.54572 4.519682 -32.04687
v -32.49228 4.268704 -32.04687
v -32.76098 4.380005 -32.04687
v -32.2413 4.21526 -32.04687
v -32.76098 4.5625 -32.04687
v -32.4099 4.145422 -32.04687
v -32.9064 4.351079 -32.04687
v -32.19848 4 -32.04687
v -32.97624 4.519682 -32.04687
v -32.38097 4 -32.04687
v -33.02968 4.268704 -32.04687
v -32.2413 3.78474 -32.04687
v -33.15873 4.397747 -32.04687
v -32.4099 3.854578 -32.04687
v -33.11206 4.145422 -32.04687
v -32.36323 3.602252 -32.04687
v -33.28066 4.21526 -32.04687
v -32.49228 3.731295 -32.04687
v -33.14098 4 -32.04687
v -32.54572 3.480317 -32.04687
v -33.32348 4 -32.04687
v -32.61556 3.64892 -32.04687
v -33.11206 3.854578 -32.04687
v -32.76098 3.4375 -32.04687
v -33.28066 3.78474 -32.04687
v -32.76098 3.619994 -32.04687
v -33.02968 3.731295 -32.04687
v -32.97624 3.480317 -32.04687
v -33.15873 3.602252 -32.04687
v -32.9064 3.64892 -32.04687
v -32.76098 4.5625 -31.95312
v -32.76098 4.380005 -31.95312
v -32.9064 4.351079 -31.95312
v -32.97624 4.519682 -31.95312
v -32.54572 4.519682 -31.95312
v -33.02968 4.268704 -31.95312
v -32.61556 4.351079 -31.95312
v -33.15873 4.397748 -31.95312
v -32.36323 4.397748 -31.95312
v -33.11206 4.145422 -31.95312
v -32.49228 4.268704 -31.95312
v -33.28066 4.21526 -31.95312
v -32.2413 4.21526 -31.95312
v -33.14098 4 -31.95312
v -32.4099 4.145422 -31.95312
v -33.32348 4 -31.95312
v -32.19848 4 -31.95312
v -33.11206 3.854578 -31.95312
v -32.38097 4 -31.95312
v -33.28066 3.78474 -31.95312
v -32.2413 3.78474 -31.95312
v -33.02968 3.731295 -31.95312
v -32.4099 3.854578 -31.95312
v -33.15873 3.602252 -31.95312
v -32.36323 3.602252 -31.95312
v -32.9064 3.64892 -31.95312
v -32.49228 3.731295 -31.95312
v -32.97624 3.480317 -31.95312
v -32.54572 3.480317 -31.95312
v -32.76098 3.619994 -31.95312
v -32.61556 3.64892 -31.95312
v -32.76098 3.4375 -31.95312
vt 0.600485 0.508374
vt 0.592836 0.508374
vt 0.592836 0.491626
vt 0.600485 0.491626
vt 0.592836 0.508374
vt 0.571054 0.508374
vt 0.571054 0.491626
vt 0.592836 0.491626
vt 0.571054 0.508374
vt 0.538454 0.508374
vt 0.538454 0.491626
vt 0.571054 0.491626
vt 0.538454 0.508374
vt 0.5 0.508374
vt 0.5 0.491626
vt 0.538454 0.491626
vt 0.5 0.508374
vt 0.461546 0.508374
vt 0.461546 0.491626
vt 0.5 0.491626
vt 0.461546 0.508374
vt 0.428946 0.508374
vt 0.428946 0.491626
vt 0.461546 0.491626
vt 0.428946 0.508374
vt 0.407164 0.508374
vt 0.407164 0.491626
vt 0.428946 0.491626
vt 0.407164 0.508374
vt 0.399515 0.508374
vt 0.399515 0.491626
vt 0.407164 0.491626
vt 0.399515 0.508374
vt 0.407164 0.508374
vt 0.407164 0.491626
vt 0.399515 0.491626
vt 0.407164 0.508374
vt 0.428946 0.508374
vt 0.428946 0.491626
vt 0.407164 0.491626
vt 0.428946 0.508374
vt 0.461546 0.508374
vt 0.461546 0.491626
vt 0.428946 0.491626
vt 0.461546 0.508374
vt 0.5 0.508374
vt 0.5 0.491626
vt 0.461546 0.491626
vt 0.5 0.508374
vt 0.538454 0.508374
vt 0.538454 0.491626
vt 0.5 0.491626
vt 0.538454 0.508374
vt 0.571054 0.508374
vt 0.571054 0.491626
vt 0.538454 0.491626
vt 0.592836 0.508374
vt 0.600485 0.508374
vt 0.600485 0.491626
vt 0.592836 0.491626
vt 0.571054 0.508374
vt 0.592836 0.508374
vt 0.592836 0.491626
vt 0.571054 0.491626
vt 0.562717 0.508374
vt 0.562717 0.491626
vt 0.548001 0.491626
vt 0.548001 0.508374
vt 0.548001 0.508374
vt 0.548001 0.491626
vt 0.562717 0.491626
vt 0.562717 0.508374
vt 0.432116 0.508374
vt 0.432116 0.491626
vt 0.437283 0.491626
vt 0.437283 0.508374
vt 0.548001 0.508374
vt 0.548001 0.491626
vt 0.525978 0.491626
vt 0.525978 0.508374
vt 0.562717 0.508374
vt 0.562717 0.491626
vt 0.567884 0.491626
vt 0.567884 0.508374
vt 0.437283 0.508374
vt 0.437283 0.491626
vt 0.451999 0.491626
vt 0.451999 0.508374
vt 0.525978 0.508374
vt 0.525978 0.491626
vt 0.5 0.491626
vt 0.525978 0.508374
vt 0.5 0.491626
vt 0.5 0.508374
vt 0.451999 0.508374
vt 0.451999 0.491626
vt 0.474022 0.491626
vt 0.474022 0.508374
vt 0.5 0.508374
vt 0.5 0.491626
vt 0.474022 0.491626
vt 0.474022 0.508374
vt 0.474022 0.508374
vt 0.474022 0.491626
vt 0.5 0.491626
vt 0.5 0.508374
vt 0.474022 0.508374
vt 0.474022 0.491626
vt 0.451999 0.491626
vt 0.451999 0.508374
vt 0.5 0.508374
vt 0.5 0.491626
vt 0.525978 0.491626
vt 0.525978 0.508374
vt 0.451999 0.508374
vt 0.451999 0.491626
vt 0.437283 0.491626
vt 0.437283 0.508374
vt 0.567884 0.508374
vt 0.567884 0.491626
vt 0.562717 0.491626
vt 0.562717 0.508374
vt 0.525978 0.508374
vt 0.525978 0.491626
vt 0.548001 0.491626
vt 0.548001 0.508374
vt 0.437283 0.508374
vt 0.437283 0.491626
vt 0.432116 0.491626
vt 0.432116 0.508374
vt 0.041826 0.945473
vt 0.041826 0.934527
vt 0.058976 0.934527
vt 0.058976 0.945473
vt 0.058976 0.953332
vt 0.058976 0.926668
vt 0.041826 0.926668
vt 0.041826 0.953332
vt 0.020928 0.948575
vt 0.020928 0.931425
vt 0.029174 0.931425
vt 0.029174 0.948575
vt 0.029174 0.931425
vt 0.109919 0.931425
vt 0.109919 0.948575
vt 0.029174 0.948575
vt 0.951438 0.930205
vt 0.899409 0.9348
vt 0.90423 0.930205
vt 0.899409 0.9412
vt 0.951438 0.945795
vt 0.90423 0.945795
vt 0.109919 0.931425
vt 0.029174 0.931425
vt 0.029174 0.948575
vt 0.109919 0.948575
vt 0.899409 0.9348
vt 0.951438 0.930205
vt 0.90423 0.930205
vt 0.951438 0.945795
vt 0.899409 0.9412
vt 0.90423 0.945795
vt 0.020928 0.931425
vt 0.020928 0.948575
vt 0.029174 0.948575
vt 0.029174 0.931425
vt 0.370736 0.81207
vt 0.146447 0.853553
vt 0.308658 0.96194
vt 0.261152 0.738848
vt 0.5 0.837783
vt 0.03806 0.691342
vt 0.5 1
vt 0.18793 0.629264
vt 0.629264 0.81207
vt 0 0.5
vt 0.691342 0.96194
vt 0.162217 0.5
vt 0.738848 0.738848
vt 0.03806 0.308658
vt 0.853553 0.853553
vt 0.187929 0.370736
vt 0.81207 0.629264
vt 0.146447 0.146447
vt 0.96194 0.691342
vt 0.261152 0.261151
vt 0.837783 0.5
vt 0.308658 0.03806
vt 1 0.5
vt 0.370736 0.18793
vt 0.81207 0.370736
vt 0.5 0
vt 0.96194 0.308658
vt 0.5 0.162217
vt 0.738848 0.261152
vt 0.691342 0.03806
vt 0.853553 0.146447
vt 0.629264 0.18793
vt 0.5 1
vt 0.5 0.837783
vt 0.629264 0.81207
vt 0.691342 0.96194
vt 0.308658 0.96194
vt 0.738848 0.738848
vt 0.370736 0.81207
vt 0.853553 0.853553
vt 0.146447 0.853553
vt 0.81207 0.629264
vt 0.261152 0.738848
vt 0.96194 0.691342
vt 0.03806 0.691342
vt 0.837783 0.5
vt 0.18793 0.629264
vt 1 0.5
vt 0 0.5
vt 0.81207 0.370736
vt 0.162217 0.5
vt 0.96194 0.308658
vt 0.03806 0.308658
vt 0.738848 0.261152
vt 0.187929 0.370736
vt 0.853553 0.146447
vt 0.146447 0.146447
vt 0.629264 0.18793
vt 0.261152 0.261151
vt 0.691342 0.03806
vt 0.308658 0.03806
vt 0.5 0.162217
vt 0.370736 0.18793
vt 0.5 0
vn -0.19509 0.9807854 1.699512E-07
vn -0.19509 0.9807854 1.699512E-07
vn -0.19509 0.9807854 1.699512E-07
vn -0.19509 0.9807854 1.699512E-07
vn -0.5555698 0.8314699 1.332236E-07
vn -0.5555698 0.8314699 1.332236E-07
vn -0.5555698 0.8314699 1.332236E-07
vn -0.5555698 0.8314699 1.332236E-07
vn -0.8314699 0.5555698 7.621373E-08
vn -0.8314699 0.5555698 7.621373E-08
vn -0.8314699 0.5555698 7.621373E-08
vn -0.8314699 0.5555698 7.621373E-08
vn -0.9807854 0.19509 7.601149E-09
vn -0.9807854 0.19509 7.601149E-09
vn -0.9807854 0.19509 7.601149E-09
vn -0.9807854 0.19509 7.601149E-09
vn -0.9807853 -0.1950901 -6.216856E-08
vn -0.9807853 -0.1950901 -6.216856E-08
vn -0.9807853 -0.1950901 -6.216856E-08
vn -0.9807853 -0.1950901 -6.216856E-08
vn -0.8314699 -0.5555699 -1.224737E-07
vn -0.8314699 -0.5555699 -1.224737E-07
vn -0.8314699 -0.5555699 -1.224737E-07
vn -0.8314699 -0.5555699 -1.224737E-07
vn -0.5555699 -0.8314699 -1.641335E-07
vn -0.5555699 -0.8314699 -1.641335E-07
vn -0.5555699 -0.8314699 -1.641335E-07
vn -0.5555699 -0.8314699 -1.641335E-07
vn -0.1950911 -0.9807851 -1.808053E-07
vn -0.1950911 -0.9807851 -1.808053E-07
vn -0.1950911 -0.9807851 -1.808053E-07
vn -0.1950911 -0.9807851 -1.808053E-07
vn 0.19509 -0.9807854 -1.699512E-07
vn 0.19509 -0.9807854 -1.699512E-07
vn 0.19509 -0.9807854 -1.699512E-07
vn 0.19509 -0.9807854 -1.699512E-07
vn 0.5555698 -0.8314699 -1.332236E-07
vn 0.5555698 -0.8314699 -1.332236E-07
vn 0.5555698 -0.8314699 -1.332236E-07
vn 0.5555698 -0.8314699 -1.332236E-07
vn 0.8314695 -0.5555703 -7.621382E-08
vn 0.8314695 -0.5555703 -7.621382E-08
vn 0.8314695 -0.5555703 -7.621382E-08
vn 0.8314695 -0.5555703 -7.621382E-08
vn 0.9807854 -0.19509 -7.601149E-09
vn 0.9807854 -0.19509 -7.601149E-09
vn 0.9807854 -0.19509 -7.601149E-09
vn 0.9807854 -0.19509 -7.601149E-09
vn 0.9807853 0.1950901 6.216856E-08
vn 0.9807853 0.1950901 6.216856E-08
vn 0.9807853 0.1950901 6.216856E-08
vn 0.9807853 0.1950901 6.216856E-08
vn 0.8314691 0.5555711 1.224739E-07
vn 0.8314691 0.5555711 1.224739E-07
vn 0.8314691 0.5555711 1.224739E-07
vn 0.8314691 0.5555711 1.224739E-07
vn 0.1950901 0.9807853 1.808053E-07
vn 0.1950901 0.9807853 1.808053E-07
vn 0.1950901 0.9807853 1.808053E-07
vn 0.1950901 0.9807853 1.808053E-07
vn 0.5555699 0.8314699 1.641335E-07
vn 0.5555699 0.8314699 1.641335E-07
vn 0.5555699 0.8314699 1.641335E-07
vn 0.5555699 0.8314699 1.641335E-07
vn 0.5555698 -0.8314699 -1.332236E-07
vn 0.5555698 -0.8314699 -1.332236E-07
vn 0.5555698 -0.8314699 -1.332236E-07
vn 0.5555698 -0.8314699 -1.332236E-07
vn -0.5555699 -0.8314699 -1.641335E-07
vn -0.5555699 -0.8314699 -1.641335E-07
vn -0.5555699 -0.8314699 -1.641335E-07
vn -0.5555699 -0.8314699 -1.641335E-07
vn -0.19509 0.9807854 1.699512E-07
vn -0.19509 0.9807854 1.699512E-07
vn -0.19509 0.9807854 1.699512E-07
vn -0.19509 0.9807854 1.699512E-07
vn 0.8314699 -0.5555698 -7.621373E-08
vn 0.8314699 -0.5555698 -7.621373E-08
vn 0.8314699 -0.5555698 -7.621373E-08
vn 0.8314699 -0.5555698 -7.621373E-08
vn -0.1950901 -0.9807853 -1.808053E-07
vn -0.1950901 -0.9807853 -1.808053E-07
vn -0.1950901 -0.9807853 -1.808053E-07
vn -0.1950901 -0.9807853 -1.808053E-07
vn -0.5555698 0.8314699 1.332236E-07
vn -0.5555698 0.8314699 1.332236E-07
vn -0.5555698 0.8314699 1.332236E-07
vn -0.5555698 0.8314699 1.332236E-07
vn 0.9807854 -0.19509 -7.601149E-09
vn 0.9807854 -0.19509 -7.601149E-09
vn 0.9807854 -0.19509 -7.601149E-09
vn 0.9807854 -0.19509 -7.601149E-09
vn 0.9807854 -0.19509 -7.601149E-09
vn 0.9807854 -0.19509 -7.601149E-09
vn -0.8314699 0.5555698 7.621373E-08
vn -0.8314699 0.5555698 7.621373E-08
vn -0.8314699 0.5555698 7.621373E-08
vn -0.8314699 0.5555698 7.621373E-08
vn 0.9807853 0.1950901 6.216856E-08
vn 0.9807853 0.1950901 6.216856E-08
vn 0.9807853 0.1950901 6.216856E-08
vn 0.9807853 0.1950901 6.216856E-08
vn -0.9807852 0.1950909 7.601328E-09
vn -0.9807852 0.1950909 7.601328E-09
vn -0.9807852 0.1950909 7.601328E-09
vn -0.9807852 0.1950909 7.601328E-09
vn 0.8314695 0.5555704 1.224738E-07
vn 0.8314695 0.5555704 1.224738E-07
vn 0.8314695 0.5555704 1.224738E-07
vn 0.8314695 0.5555704 1.224738E-07
vn -0.9807851 -0.1950911 -6.216873E-08
vn -0.9807851 -0.1950911 -6.216873E-08
vn -0.9807851 -0.1950911 -6.216873E-08
vn -0.9807851 -0.1950911 -6.216873E-08
vn 0.5555699 0.8314699 1.641335E-07
vn 0.5555699 0.8314699 1.641335E-07
vn 0.5555699 0.8314699 1.641335E-07
vn 0.5555699 0.8314699 1.641335E-07
vn 0.1950909 -0.9807852 -1.699512E-07
vn 0.1950909 -0.9807852 -1.699512E-07
vn 0.1950909 -0.9807852 -1.699512E-07
vn 0.1950909 -0.9807852 -1.699512E-07
vn -0.8314699 -0.5555699 -1.224737E-07
vn -0.8314699 -0.5555699 -1.224737E-07
vn -0.8314699 -0.5555699 -1.224737E-07
vn -0.8314699 -0.5555699 -1.224737E-07
vn 0.1950911 0.9807851 1.808053E-07
vn 0.1950911 0.9807851 1.808053E-07
vn 0.1950911 0.9807851 1.808053E-07
vn 0.1950911 0.9807851 1.808053E-07
vn 1 8.940689E-08 2.781823E-08
vn 1 8.940689E-08 2.781823E-08
vn 1 8.940689E-08 2.781823E-08
vn 1 8.940689E-08 2.781823E-08
vn -1 -8.940689E-08 -2.781823E-08
vn -1 -8.940689E-08 -2.781823E-08
vn -1 -8.940689E-08 -2.781823E-08
vn -1 -8.940689E-08 -2.781823E-08
vn 0.6899131 1.911251E-07 0.7238922
vn 0.6899131 1.911251E-07 0.7238922
vn 0.6899131 1.911251E-07 0.7238922
vn 0.6899131 1.911251E-07 0.7238922
vn -1.470273E-07 1.788141E-07 1
vn -1.470273E-07 1.788141E-07 1
vn -1.470273E-07 1.788141E-07 1
vn -1.470273E-07 1.788141E-07 1
vn 8.940683E-08 1 1.788141E-07
vn 8.940683E-08 1 1.788141E-07
vn 8.940683E-08 1 1.788141E-07
vn 8.940683E-08 1 1.788141E-07
vn 8.940683E-08 1 1.788141E-07
vn 8.940683E-08 1 1.788141E-07
vn 1.470273E-07 -1.788141E-07 -1
vn 1.470273E-07 -1.788141E-07 -1
vn 1.470273E-07 -1.788141E-07 -1
vn 1.470273E-07 -1.788141E-07 -1
vn -8.940683E-08 -1 -1.788141E-07
vn -8.940683E-08 -1 -1.788141E-07
vn -8.940683E-08 -1 -1.788141E-07
vn -8.940683E-08 -1 -1.788141E-07
vn -8.940683E-08 -1 -1.788141E-07
vn -8.940683E-08 -1 -1.788141E-07
vn 0.6899132 -6.775912E-08 -0.7238921
vn 0.6899132 -6.775912E-08 -0.7238921
vn 0.6899132 -6.775912E-08 -0.7238921
vn 0.6899132 -6.775912E-08 -0.7238921
vn 1.470273E-07 -1.788141E-07 -1
vn 1.470273E-07 -1.788141E-07 -1
vn 1.470273E-07 -1.788141E-07 -1
vn 1.470273E-07 -1.788141E-07 -1
vn 1.470273E-07 -1.788141E-07 -1
vn 1.470273E-07 -1.788141E-07 -1
vn 1.470273E-07 -1.788141E-07 -1
vn 1.470273E-07 -1.788141E-07 -1
vn 1.470273E-07 -1.788141E-07 -1
vn 1.470273E-07 -1.788141E-07 -1
vn 1.470273E-07 -1.788141E-07 -1
vn 1.470273E-07 -1.788141E-07 -1
vn 1.470273E-07 -1.788141E-07 -1
vn 1.470273E-07 -1.788141E-07 -1
vn 1.470273E-07 -1.788141E-07 -1
vn 1.470273E-07 -1.788141E-07 -1
vn 1.470273E-07 -1.788141E-07 -1
vn 1.470273E-07 -1.788141E-07 -1
vn 1.470273E-07 -1.788141E-07 -1
vn 1.470273E-07 -1.788141E-07 -1
vn 1.470273E-07 -1.788141E-07 -1
vn 1.470273E-07 -1.788141E-07 -1
vn 1.470273E-07 -1.788141E-07 -1
vn 1.470273E-07 -1.788141E-07 -1
vn 1.470273E-07 -1.788141E-07 -1
vn 1.470273E-07 -1.788141E-07 -1
vn 1.470273E-07 -1.788141E-07 -1
vn 1.470273E-07 -1.788141E-07 -1
vn 1.470273E-07 -1.788141E-07 -1
vn 1.470273E-07 -1.788141E-07 -1
vn 1.470273E-07 -1.788141E-07 -1
vn 1.470273E-07 -1.788141E-07 -1
vn -1.470273E-07 1.788141E-07 1
vn -1.470273E-07 1.788141E-07 1
vn -1.470273E-07 1.788141E-07 1
vn -1.470273E-07 1.788141E-07 1
vn -1.470273E-07 1.788141E-07 1
vn -1.470273E-07 1.788141E-07 1
vn -1.470273E-07 1.788141E-07 1
vn -1.470273E-07 1.788141E-07 1
vn -1.470273E-07 1.788141E-07 1
vn -1.470273E-07 1.788141E-07 1
vn -1.470273E-07 1.788141E-07 1
vn -1.470273E-07 1.788141E-07 1
vn -1.470273E-07 1.788141E-07 1
vn -1.470273E-07 1.788141E-07 1
vn -1.470273E-07 1.788141E-07 1
vn -1.470273E-07 1.788141E-07 1
vn -1.470273E-07 1.788141E-07 1
vn -1.470273E-07 1.788141E-07 1
vn -1.470273E-07 1.788141E-07 1
vn -1.470273E-07 1.788141E-07 1
vn -1.470273E-07 1.788141E-07 1
vn -1.470273E-07 1.788141E-07 1
vn -1.470273E-07 1.788141E-07 1
vn -1.470273E-07 1.788141E-07 1
vn -1.470273E-07 1.788141E-07 1
vn -1.470273E-07 1.788141E-07 1
vn -1.470273E-07 1.788141E-07 1
vn -1.470273E-07 1.788141E-07 1
vn -1.470273E-07 1.788141E-07 1
vn -1.470273E-07 1.788141E-07 1
vn -1.470273E-07 1.788141E-07 1
vn -1.470273E-07 1.788141E-07 1
g _Combined_Vis4_1_0
f 3/3/3 2/2/2 1/1/1
f 4/4/4 3/3/3 1/1/1
f 7/7/7 6/6/6 5/5/5
f 8/8/8 7/7/7 5/5/5
f 11/11/11 10/10/10 9/9/9
f 12/12/12 11/11/11 9/9/9
f 15/15/15 14/14/14 13/13/13
f 16/16/16 15/15/15 13/13/13
f 19/19/19 18/18/18 17/17/17
f 20/20/20 19/19/19 17/17/17
f 23/23/23 22/22/22 21/21/21
f 24/24/24 23/23/23 21/21/21
f 27/27/27 26/26/26 25/25/25
f 28/28/28 27/27/27 25/25/25
f 31/31/31 30/30/30 29/29/29
f 32/32/32 31/31/31 29/29/29
f 35/35/35 34/34/34 33/33/33
f 36/36/36 35/35/35 33/33/33
f 39/39/39 38/38/38 37/37/37
f 40/40/40 39/39/39 37/37/37
f 43/43/43 42/42/42 41/41/41
f 44/44/44 43/43/43 41/41/41
f 47/47/47 46/46/46 45/45/45
f 48/48/48 47/47/47 45/45/45
f 51/51/51 50/50/50 49/49/49
f 52/52/52 51/51/51 49/49/49
f 55/55/55 54/54/54 53/53/53
f 56/56/56 55/55/55 53/53/53
f 59/59/59 58/58/58 57/57/57
f 60/60/60 59/59/59 57/57/57
f 63/63/63 62/62/62 61/61/61
f 64/64/64 63/63/63 61/61/61
f 67/67/67 66/66/66 65/65/65
f 68/68/68 67/67/67 65/65/65
f 71/71/71 70/70/70 69/69/69
f 72/72/72 71/71/71 69/69/69
f 75/75/75 74/74/74 73/73/73
f 76/76/76 75/75/75 73/73/73
f 79/79/79 78/78/78 77/77/77
f 80/80/80 79/79/79 77/77/77
f 83/83/83 82/82/82 81/81/81
f 84/84/84 83/83/83 81/81/81
f 87/87/87 86/86/86 85/85/85
f 88/88/88 87/87/87 85/85/85
f 91/91/91 90/90/90 89/89/89
f 94/94/94 93/93/93 92/92/92
f 97/97/97 96/96/96 95/95/95
f 98/98/98 97/97/97 95/95/95
f 101/101/101 100/100/100 99/99/99
f 102/102/102 101/101/101 99/99/99
f 105/105/105 104/104/104 103/103/103
f 106/106/106 105/105/105 103/103/103
f 109/109/109 108/108/108 107/107/107
f 110/110/110 109/109/109 107/107/107
f 113/113/113 112/112/112 111/111/111
f 114/114/114 113/113/113 111/111/111
f 117/117/117 116/116/116 115/115/115
f 118/118/118 117/117/117 115/115/115
f 121/121/121 120/120/120 119/119/119
f 122/122/122 121/121/121 119/119/119
f 125/125/125 124/124/124 123/123/123
f 126/126/126 125/125/125 123/123/123
f 129/129/129 128/128/128 127/127/127
f 130/130/130 129/129/129 127/127/127
f 133/133/133 132/132/132 131/131/131
f 134/134/134 133/133/133 131/131/131
f 137/137/137 136/136/136 135/135/135
f 138/138/138 137/137/137 135/135/135
f 141/141/141 140/140/140 139/139/139
f 142/142/142 141/141/141 139/139/139
f 145/145/145 144/144/144 143/143/143
f 146/146/146 145/145/145 143/143/143
f 149/149/149 148/148/148 147/147/147
f 147/147/147 148/148/148 150/150/150
f 151/151/151 147/147/147 150/150/150
f 152/152/152 151/151/151 150/150/150
f 155/155/155 154/154/154 153/153/153
f 156/156/156 155/155/155 153/153/153
f 159/159/159 158/158/158 157/157/157
f 157/157/157 158/158/158 160/160/160
f 161/161/161 157/157/157 160/160/160
f 162/162/162 161/161/161 160/160/160
f 165/165/165 164/164/164 163/163/163
f 166/166/166 165/165/165 163/163/163
f 169/169/169 168/168/168 167/167/167
f 168/168/168 170/170/170 167/167/167
f 169/169/169 167/167/167 171/171/171
f 168/168/168 172/172/172 170/170/170
f 173/173/173 169/169/169 171/171/171
f 172/172/172 174/174/174 170/170/170
f 173/173/173 171/171/171 175/175/175
f 172/172/172 176/176/176 174/174/174
f 177/177/177 173/173/173 175/175/175
f 176/176/176 178/178/178 174/174/174
f 177/177/177 175/175/175 179/179/179
f 176/176/176 180/180/180 178/178/178
f 181/181/181 177/177/177 179/179/179
f 180/180/180 182/182/182 178/178/178
f 181/181/181 179/179/179 183/183/183
f 180/180/180 184/184/184 182/182/182
f 185/185/185 181/181/181 183/183/183
f 184/184/184 186/186/186 182/182/182
f 185/185/185 183/183/183 187/187/187
f 184/184/184 188/188/188 186/186/186
f 189/189/189 185/185/185 187/187/187
f 188/188/188 190/190/190 186/186/186
f 189/189/189 187/187/187 191/191/191
f 188/188/188 192/192/192 190/190/190
f 193/193/193 189/189/189 191/191/191
f 192/192/192 194/194/194 190/190/190
f 193/193/193 191/191/191 195/195/195
f 192/192/192 196/196/196 194/194/194
f 197/197/197 193/193/193 195/195/195
f 196/196/196 198/198/198 194/194/194
f 197/197/197 195/195/195 198/198/198
f 196/196/196 197/197/197 198/198/198
f 201/201/201 200/200/200 199/199/199
f 202/202/202 201/201/201 199/199/199
f 199/199/199 200/200/200 203/203/203
f 204/204/204 201/201/201 202/202/202
f 200/200/200 205/205/205 203/203/203
f 206/206/206 204/204/204 202/202/202
f 203/203/203 205/205/205 207/207/207
f 208/208/208 204/204/204 206/206/206
f 205/205/205 209/209/209 207/207/207
f 210/210/210 208/208/208 206/206/206
f 207/207/207 209/209/209 211/211/211
f 212/212/212 208/208/208 210/210/210
f 209/209/209 213/213/213 211/211/211
f 214/214/214 212/212/212 210/210/210
f 211/211/211 213/213/213 215/215/215
f 216/216/216 212/212/212 214/214/214
f 213/213/213 217/217/217 215/215/215
f 218/218/218 216/216/216 214/214/214
f 215/215/215 217/217/217 219/219/219
f 220/220/220 216/216/216 218/218/218
f 217/217/217 221/221/221 219/219/219
f 222/222/222 220/220/220 218/218/218
f 219/219/219 221/221/221 223/223/223
f 224/224/224 220/220/220 222/222/222
f 221/221/221 225/225/225 223/223/223
f 226/226/226 224/224/224 222/222/222
f 223/223/223 225/225/225 227/227/227
f 228/228/228 224/224/224 226/226/226
f 225/225/225 229/229/229 227/227/227
f 230/230/230 228/228/228 226/226/226
f 227/227/227 229/229/229 230/230/230
f 229/229/229 228/228/228 230/230/230
