g _Combined_WaterVis29_0
v -0.375 -2.5 1.25
v -0.375 -4.5 1.25
v 0.375 -4.5 1.25
v 0.375 -2.5 1.25
v -0.375 -1.5 1.25
v 0.375 -1.5 1.25
v -0.375 -1 1.28125
v 0.375 -1 1.28125
v -0.375 -0.625 1.375
v 0.375 -0.625 1.375
v -0.375 -0.5 1.5
v 0.375 -0.5 1.5
v -0.07288 -2.111308 1.199989
v 0 -2.888692 1.199989
v 0.07288 -2.111308 1.199989
v -0.375 -0.5 2.5
v -0.375 -0.5 1.5
v 0.375 -0.5 1.5
v 0.375 -0.5 2.5
v -0.07288 -0.449989 2.097173
v 0 -0.449989 1.902827
v 0.07288 -0.449989 2.097173
v -0.125 -0.5 3.375
v -0.4999999 -0.4999999 3.375
v -0.5000001 -0.5 2.625
v -0.4375001 -0.5 2.625
v 0.3750001 -0.5 3.375
v -0.3750001 -0.5 2.625
v 0.375 -0.5000001 2.875
v -0.3750001 -0.5 2.5625
v 0.375 -0.5 2.5
v -0.375 -0.5 2.5
v 0.09717301 -0.449989 3.07288
v -0.09717299 -0.449989 3
v 0.09717299 -0.449989 2.92712
v -0.375 -4.5 1.25
v -0.375 -8.5 1.25
v 0.375 -8.5 1.25
v 0.375 -4.5 1.25
v -0.07288 -6.111308 1.199989
v 0 -6.888692 1.199989
v 0.07288 -6.111308 1.199989
vt 0.875 0.499942
vt 0.875 0
vt 0.125 0
vt 0.125 0.499942
vt 0.875 0.749928
vt 0.125 0.749928
vt 0.875 0.8286
vt 0.125 0.8286
vt 0.875 0.9135
vt 0.125 0.9135
vt 0.875 0.999885
vt 0.125 0.999885
vt 0 0
vt 0 0
vt 0 0
vt 0.875 0.999885
vt 0.875 0
vt 0.125 0
vt 0.125 0.999885
vt 0 0
vt 0 0
vt 0 0
vt 0.125 0.749914
vt 0.125 0.999885
vt 0.875 0.999885
vt 0.875 0.749914
vt 0.125 0.499942
vt 0.875 0.499942
vt 0.125 0.249971
vt 0.875 0.249971
vt 0.125 0
vt 0.875 0
vt 0 0.999885
vt 0 0.999885
vt 0 0.999885
vt 0.875 0.999885
vt 0.875 0
vt 0.125 0
vt 0.125 0.999885
vt 0 0
vt 0 0
vt 0 0
vn 0 0 -1
vn 0 0 -1
vn 0 0 -1
vn 0 0 -1
vn 0 0.03076176 -0.9995267
vn 0 0.03076176 -0.9995267
vn 0 0.1401506 -0.9901302
vn 0 0.1401506 -0.9901302
vn 0 0.4039243 -0.9147925
vn 0 0.4039243 -0.9147925
vn 0 0.7071079 -0.7071057
vn 0 0.7071079 -0.7071057
vn 0 0 -1
vn 0 0 -1
vn 0 0 -1
vn 0 1 0
vn 0 1 0
vn 0 1 0
vn 0 1 0
vn 0 1 0
vn 0 1 0
vn 0 1 0
vn 8.742279E-08 1 -5.960465E-08
vn 8.742279E-08 1 -5.960465E-08
vn 8.742279E-08 1 -5.960465E-08
vn 8.742279E-08 1 -5.960465E-08
vn 8.742279E-08 1 -5.960465E-08
vn 8.742279E-08 1 -5.960465E-08
vn 8.742279E-08 1 -5.960465E-08
vn 8.742279E-08 1 -5.960465E-08
vn 8.742279E-08 1 -5.960465E-08
vn 8.742279E-08 1 -5.960465E-08
vn 8.742279E-08 1 -5.960465E-08
vn 8.742279E-08 1 -5.960465E-08
vn 8.742279E-08 1 -5.960465E-08
vn 0 5.960464E-08 -1
vn 0 5.960464E-08 -1
vn 0 5.960464E-08 -1
vn 0 5.960464E-08 -1
vn 0 5.960464E-08 -1
vn 0 5.960464E-08 -1
vn 0 5.960464E-08 -1
g _Combined_WaterVis29_0_0
f 3/3/3 2/2/2 1/1/1
f 4/4/4 3/3/3 1/1/1
f 4/4/4 1/1/1 5/5/5
f 6/6/6 4/4/4 5/5/5
f 6/6/6 5/5/5 7/7/7
f 8/8/8 6/6/6 7/7/7
f 8/8/8 7/7/7 9/9/9
f 10/10/10 8/8/8 9/9/9
f 10/10/10 9/9/9 11/11/11
f 12/12/12 10/10/10 11/11/11
f 15/15/15 14/14/14 13/13/13
f 18/18/18 17/17/17 16/16/16
f 19/19/19 18/18/18 16/16/16
f 22/22/22 21/21/21 20/20/20
f 25/25/25 24/24/24 23/23/23
f 26/26/26 25/25/25 23/23/23
f 26/26/26 23/23/23 27/27/27
f 28/28/28 26/26/26 27/27/27
f 28/28/28 27/27/27 29/29/29
f 30/30/30 28/28/28 29/29/29
f 30/30/30 29/29/29 31/31/31
f 32/32/32 30/30/30 31/31/31
f 35/35/35 34/34/34 33/33/33
f 38/38/38 37/37/37 36/36/36
f 39/39/39 38/38/38 36/36/36
f 42/42/42 41/41/41 40/40/40
