g _Combined_Vis54_0
v 15.5001 -6.500145 -18.50023
v 15.5001 -6.500143 -17.50023
v 15.5001 -5.500144 -17.50023
v 15.5001 -5.500144 -18.50023
v 14.50001 -6.500354 -12.50044
v 14.50001 -6.500354 -11.50044
v 15.50001 -6.500354 -11.50044
v 15.50001 -6.500354 -12.50044
v 15.50011 -6.500156 -14.50023
v 15.50011 -6.500154 -13.50023
v 15.50011 -5.500154 -13.50023
v 15.50011 -5.500155 -14.50023
v 15.50011 -5.500155 -14.50023
v 15.50011 -5.500154 -13.50023
v 14.50016 -5.500194 -13.50029
v 14.50016 -5.500194 -14.50029
v 14.50003 -6.500342 -14.50044
v 14.50003 -6.500342 -13.50044
v 15.50011 -6.500154 -13.50023
v 15.50011 -6.500156 -14.50023
v 14.50003 -6.500342 -13.50044
v 14.50001 -6.500354 -12.50044
v 15.50001 -6.500354 -12.50044
v 15.50011 -6.500154 -13.50023
v 15.50011 -5.500154 -13.50023
v 15.50015 -5.500183 -12.50029
v 14.50015 -5.500183 -12.50029
v 14.50016 -5.500194 -13.50029
v 15.50011 -6.500154 -13.50023
v 15.50001 -6.500354 -12.50044
v 15.50015 -5.500183 -12.50029
v 15.50011 -5.500154 -13.50023
v 15.50011 -6.500163 -16.50023
v 15.50011 -6.500161 -15.50023
v 15.50011 -5.500161 -15.50023
v 15.50011 -5.500162 -16.50023
v 15.50015 -5.500183 -12.50029
v 15.50016 -5.500174 -11.50029
v 14.50016 -5.500174 -11.50029
v 14.50015 -5.500183 -12.50029
v 15.50011 -5.500162 -16.50023
v 15.50011 -5.500161 -15.50023
v 14.50016 -5.500199 -15.5003
v 14.50016 -5.500199 -16.5003
v 14.50004 -6.500352 -15.50045
v 14.50003 -6.500342 -14.50044
v 15.50011 -6.500156 -14.50023
v 15.50011 -6.500161 -15.50023
v 15.50011 -5.500161 -15.50023
v 15.50011 -5.500155 -14.50023
v 14.50016 -5.500194 -14.50029
v 14.50016 -5.500199 -15.5003
v 15.50011 -6.500161 -15.50023
v 15.50011 -6.500156 -14.50023
v 15.50011 -5.500155 -14.50023
v 15.50011 -5.500161 -15.50023
v 15.5001 -6.500143 -17.50023
v 15.50011 -6.500163 -16.50023
v 15.50011 -5.500162 -16.50023
v 15.5001 -5.500144 -17.50023
v 15.5001 -5.500144 -17.50023
v 15.50011 -5.500162 -16.50023
v 14.50016 -5.500199 -16.5003
v 14.50016 -5.500202 -17.5003
v 14.50003 -6.500344 -17.50045
v 14.50003 -6.500344 -16.50045
v 15.50011 -6.500163 -16.50023
v 15.5001 -6.500143 -17.50023
v 14.50003 -6.500331 -18.50044
v 14.50003 -6.500344 -17.50045
v 15.5001 -6.500143 -17.50023
v 15.5001 -6.500145 -18.50023
v 15.5001 -5.500144 -18.50023
v 15.5001 -5.500144 -17.50023
v 14.50016 -5.500202 -17.5003
v 14.50016 -5.500208 -18.50029
v 14.50003 -6.500344 -16.50045
v 14.50004 -6.500352 -15.50045
v 15.50011 -6.500161 -15.50023
v 15.50011 -6.500163 -16.50023
v 15.50001 -6.500354 -12.50044
v 15.50001 -6.500354 -11.50044
v 15.50016 -5.500174 -11.50029
v 15.50015 -5.500183 -12.50029
v 15.25014 -5.625316 -18.5003
v 15.25014 -5.625316 -18.3753
v 15.37514 -5.750316 -18.3753
v 15.37514 -5.750316 -18.5003
v 14.75014 -6.375316 -18.5003
v 14.75014 -6.375316 -18.3753
v 14.62514 -6.250316 -18.3753
v 14.62514 -6.250316 -18.5003
v 14.62514 -5.750316 -18.5003
v 14.62514 -5.750316 -18.3753
v 14.75014 -5.625316 -18.3753
v 14.75014 -5.625316 -18.5003
v 14.75014 -5.625316 -18.5003
v 14.75014 -5.625316 -18.3753
v 15.25014 -5.625316 -18.3753
v 15.25014 -5.625316 -18.5003
v 15.37514 -6.250316 -18.5003
v 15.37514 -6.250316 -18.3753
v 15.25014 -6.375316 -18.3753
v 15.25014 -6.375316 -18.5003
v 14.62514 -6.250316 -18.5003
v 14.62514 -6.250316 -18.3753
v 14.62514 -5.750316 -18.3753
v 14.62514 -5.750316 -18.5003
v 15.25014 -6.375316 -18.5003
v 15.25014 -6.375316 -18.3753
v 14.75014 -6.375316 -18.3753
v 14.75014 -6.375316 -18.5003
v 15.37514 -5.750316 -18.5003
v 15.37514 -5.750316 -18.3753
v 15.37514 -6.250316 -18.3753
v 15.37514 -6.250316 -18.5003
v 14.75014 -5.625316 -18.5003
v 14.50016 -5.500208 -18.50029
v 14.62514 -5.750316 -18.5003
v 15.25014 -5.625316 -18.5003
v 14.50003 -6.500331 -18.50044
v 14.62514 -6.250316 -18.5003
v 14.75014 -6.375316 -18.5003
v 15.5001 -5.500144 -18.50023
v 15.37514 -5.750316 -18.5003
v 15.37514 -6.250316 -18.5003
v 15.5001 -6.500145 -18.50023
v 15.25014 -6.375316 -18.5003
vt 0.734375 0.703125
vt 0.734375 0.640625
vt 0.671875 0.640625
vt 0.671875 0.703125
vt 0.734375 0.703125
vt 0.734375 0.640625
vt 0.671875 0.640625
vt 0.671875 0.703125
vt 0.734375 0.703125
vt 0.734375 0.640625
vt 0.671875 0.640625
vt 0.671875 0.703125
vt 0.734375 0.703125
vt 0.734375 0.640625
vt 0.671875 0.640625
vt 0.671875 0.703125
vt 0.734375 0.703125
vt 0.734375 0.640625
vt 0.671875 0.640625
vt 0.671875 0.703125
vt 0.734375 0.703125
vt 0.734375 0.640625
vt 0.671875 0.640625
vt 0.671875 0.703125
vt 0.734375 0.703125
vt 0.734375 0.640625
vt 0.671875 0.640625
vt 0.671875 0.703125
vt 0.734375 0.703125
vt 0.734375 0.640625
vt 0.671875 0.640625
vt 0.671875 0.703125
vt 0.734375 0.703125
vt 0.734375 0.640625
vt 0.671875 0.640625
vt 0.671875 0.703125
vt 0.734375 0.703125
vt 0.734375 0.640625
vt 0.671875 0.640625
vt 0.671875 0.703125
vt 0.734375 0.703125
vt 0.734375 0.640625
vt 0.671875 0.640625
vt 0.671875 0.703125
vt 0.734375 0.703125
vt 0.734375 0.640625
vt 0.671875 0.640625
vt 0.671875 0.703125
vt 0.734375 0.703125
vt 0.734375 0.640625
vt 0.671875 0.640625
vt 0.671875 0.703125
vt 0.734375 0.703125
vt 0.734375 0.640625
vt 0.671875 0.640625
vt 0.671875 0.703125
vt 0.734375 0.703125
vt 0.734375 0.640625
vt 0.671875 0.640625
vt 0.671875 0.703125
vt 0.734375 0.703125
vt 0.734375 0.640625
vt 0.671875 0.640625
vt 0.671875 0.703125
vt 0.734375 0.703125
vt 0.734375 0.640625
vt 0.671875 0.640625
vt 0.671875 0.703125
vt 0.734375 0.703125
vt 0.734375 0.640625
vt 0.671875 0.640625
vt 0.671875 0.703125
vt 0.734375 0.703125
vt 0.734375 0.640625
vt 0.671875 0.640625
vt 0.671875 0.703125
vt 0.734375 0.703125
vt 0.734375 0.640625
vt 0.671875 0.640625
vt 0.671875 0.703125
vt 0.734375 0.703125
vt 0.734375 0.640625
vt 0.671875 0.640625
vt 0.671875 0.703125
vt 0.7129688 0.6741897
vt 0.7129688 0.6692678
vt 0.7178906 0.6692678
vt 0.7178906 0.6741897
vt 0.6932812 0.6741897
vt 0.6932812 0.6692678
vt 0.6883594 0.6692678
vt 0.6883594 0.6741897
vt 0.6883594 0.6741897
vt 0.6883594 0.6692678
vt 0.6932812 0.6692678
vt 0.6932812 0.6741897
vt 0.6932812 0.6741897
vt 0.6932812 0.6692678
vt 0.7129688 0.6692678
vt 0.7129688 0.6741897
vt 0.7178906 0.6741897
vt 0.7178906 0.6692678
vt 0.7129688 0.6692678
vt 0.7129688 0.6741897
vt 0.7129688 0.6741897
vt 0.7129688 0.6692678
vt 0.6932812 0.6692678
vt 0.6932812 0.6741897
vt 0.7129688 0.6741897
vt 0.7129688 0.6692678
vt 0.6932812 0.6692678
vt 0.6932812 0.6741897
vt 0.6932812 0.6741897
vt 0.6932812 0.6692678
vt 0.7129688 0.6692678
vt 0.7129688 0.6741897
vt 0.6875 0.6484375
vt 0.671875 0.640625
vt 0.6796875 0.65625
vt 0.71875 0.6484375
vt 0.671875 0.703125
vt 0.6796875 0.6875
vt 0.6875 0.6953125
vt 0.734375 0.640625
vt 0.7265625 0.65625
vt 0.7265625 0.6875
vt 0.734375 0.703125
vt 0.71875 0.6953125
vn 1 -2.980231E-07 5.381389E-15
vn 1 -2.980231E-07 5.381389E-15
vn 1 -2.980231E-07 5.381389E-15
vn 1 -2.980231E-07 5.381389E-15
vn 1.490114E-07 -1 -2.384186E-07
vn 1.490114E-07 -1 -2.384186E-07
vn 1.490114E-07 -1 -2.384186E-07
vn 1.490114E-07 -1 -2.384186E-07
vn 1 -1.192091E-07 1.192093E-07
vn 1 -1.192091E-07 1.192093E-07
vn 1 -1.192091E-07 1.192093E-07
vn 1 -1.192091E-07 1.192093E-07
vn -1.490114E-07 1 -5.727442E-14
vn -1.490114E-07 1 -5.727442E-14
vn -1.490114E-07 1 -5.727442E-14
vn -1.490114E-07 1 -5.727442E-14
vn 1.490114E-07 -1 -2.384186E-07
vn 1.490114E-07 -1 -2.384186E-07
vn 1.490114E-07 -1 -2.384186E-07
vn 1.490114E-07 -1 -2.384186E-07
vn 1.490114E-07 -1 -2.384186E-07
vn 1.490114E-07 -1 -2.384186E-07
vn 1.490114E-07 -1 -2.384186E-07
vn 1.490114E-07 -1 -2.384186E-07
vn -1.490114E-07 1 -5.727442E-14
vn -1.490114E-07 1 -5.727442E-14
vn -1.490114E-07 1 -5.727442E-14
vn -1.490114E-07 1 -5.727442E-14
vn 1 -1.192091E-07 1.192093E-07
vn 1 -1.192091E-07 1.192093E-07
vn 1 -1.192091E-07 1.192093E-07
vn 1 -1.192091E-07 1.192093E-07
vn 1 -1.192091E-07 1.192093E-07
vn 1 -1.192091E-07 1.192093E-07
vn 1 -1.192091E-07 1.192093E-07
vn 1 -1.192091E-07 1.192093E-07
vn -1.490114E-07 1 -5.727442E-14
vn -1.490114E-07 1 -5.727442E-14
vn -1.490114E-07 1 -5.727442E-14
vn -1.490114E-07 1 -5.727442E-14
vn -1.490114E-07 1 -5.727442E-14
vn -1.490114E-07 1 -5.727442E-14
vn -1.490114E-07 1 -5.727442E-14
vn -1.490114E-07 1 -5.727442E-14
vn 1.490114E-07 -1 -2.384186E-07
vn 1.490114E-07 -1 -2.384186E-07
vn 1.490114E-07 -1 -2.384186E-07
vn 1.490114E-07 -1 -2.384186E-07
vn -1.490114E-07 1 -5.727442E-14
vn -1.490114E-07 1 -5.727442E-14
vn -1.490114E-07 1 -5.727442E-14
vn -1.490114E-07 1 -5.727442E-14
vn 1 -1.192091E-07 1.192093E-07
vn 1 -1.192091E-07 1.192093E-07
vn 1 -1.192091E-07 1.192093E-07
vn 1 -1.192091E-07 1.192093E-07
vn 1 -1.192091E-07 1.192093E-07
vn 1 -1.192091E-07 1.192093E-07
vn 1 -1.192091E-07 1.192093E-07
vn 1 -1.192091E-07 1.192093E-07
vn -1.490114E-07 1 -5.727442E-14
vn -1.490114E-07 1 -5.727442E-14
vn -1.490114E-07 1 -5.727442E-14
vn -1.490114E-07 1 -5.727442E-14
vn 1.490114E-07 -1 -2.384186E-07
vn 1.490114E-07 -1 -2.384186E-07
vn 1.490114E-07 -1 -2.384186E-07
vn 1.490114E-07 -1 -2.384186E-07
vn 1.81305E-07 -1 4.172326E-07
vn 1.81305E-07 -1 4.172326E-07
vn 1.81305E-07 -1 4.172326E-07
vn 1.81305E-07 -1 4.172326E-07
vn -1.446315E-07 1 -2.384186E-07
vn -1.446315E-07 1 -2.384186E-07
vn -1.446315E-07 1 -2.384186E-07
vn -1.446315E-07 1 -2.384186E-07
vn 1.490114E-07 -1 -2.384186E-07
vn 1.490114E-07 -1 -2.384186E-07
vn 1.490114E-07 -1 -2.384186E-07
vn 1.490114E-07 -1 -2.384186E-07
vn 1 -1.192091E-07 1.192093E-07
vn 1 -1.192091E-07 1.192093E-07
vn 1 -1.192091E-07 1.192093E-07
vn 1 -1.192091E-07 1.192093E-07
vn -0.7071066 -0.7071068 -6.293877E-08
vn -0.7071066 -0.7071068 -6.293877E-08
vn -0.7071066 -0.7071068 -6.293877E-08
vn -0.7071066 -0.7071068 -6.293877E-08
vn 0.7071066 0.7071068 6.293877E-08
vn 0.7071066 0.7071068 6.293877E-08
vn 0.7071066 0.7071068 6.293877E-08
vn 0.7071066 0.7071068 6.293877E-08
vn 0.7071069 -0.7071067 -1.056485E-07
vn 0.7071069 -0.7071067 -1.056485E-07
vn 0.7071069 -0.7071067 -1.056485E-07
vn 0.7071069 -0.7071067 -1.056485E-07
vn 2.468394E-07 -1 -1.192092E-07
vn 2.468394E-07 -1 -1.192092E-07
vn 2.468394E-07 -1 -1.192092E-07
vn 2.468394E-07 -1 -1.192092E-07
vn -0.7071069 0.7071067 1.056485E-07
vn -0.7071069 0.7071067 1.056485E-07
vn -0.7071069 0.7071067 1.056485E-07
vn -0.7071069 0.7071067 1.056485E-07
vn 1 8.421046E-09 -3.020038E-08
vn 1 8.421046E-09 -3.020038E-08
vn 1 8.421046E-09 -3.020038E-08
vn 1 8.421046E-09 -3.020038E-08
vn -2.468394E-07 1 1.192092E-07
vn -2.468394E-07 1 1.192092E-07
vn -2.468394E-07 1 1.192092E-07
vn -2.468394E-07 1 1.192092E-07
vn -1 -8.421046E-09 3.020038E-08
vn -1 -8.421046E-09 3.020038E-08
vn -1 -8.421046E-09 3.020038E-08
vn -1 -8.421046E-09 3.020038E-08
vn -2.686191E-07 -1.192091E-07 -1
vn -2.686191E-07 -1.192091E-07 -1
vn -2.686191E-07 -1.192091E-07 -1
vn -2.686191E-07 -1.192091E-07 -1
vn -2.686191E-07 -1.192091E-07 -1
vn -2.686191E-07 -1.192091E-07 -1
vn -2.686191E-07 -1.192091E-07 -1
vn -2.686191E-07 -1.192091E-07 -1
vn -2.686191E-07 -1.192091E-07 -1
vn -2.686191E-07 -1.192091E-07 -1
vn -2.686191E-07 -1.192091E-07 -1
vn -2.686191E-07 -1.192091E-07 -1
g _Combined_Vis54_0_0
f 3/3/3 2/2/2 1/1/1
f 4/4/4 3/3/3 1/1/1
f 7/7/7 6/6/6 5/5/5
f 8/8/8 7/7/7 5/5/5
f 11/11/11 10/10/10 9/9/9
f 12/12/12 11/11/11 9/9/9
f 15/15/15 14/14/14 13/13/13
f 16/16/16 15/15/15 13/13/13
f 19/19/19 18/18/18 17/17/17
f 20/20/20 19/19/19 17/17/17
f 23/23/23 22/22/22 21/21/21
f 24/24/24 23/23/23 21/21/21
f 27/27/27 26/26/26 25/25/25
f 28/28/28 27/27/27 25/25/25
f 31/31/31 30/30/30 29/29/29
f 32/32/32 31/31/31 29/29/29
f 35/35/35 34/34/34 33/33/33
f 36/36/36 35/35/35 33/33/33
f 39/39/39 38/38/38 37/37/37
f 40/40/40 39/39/39 37/37/37
f 43/43/43 42/42/42 41/41/41
f 44/44/44 43/43/43 41/41/41
f 47/47/47 46/46/46 45/45/45
f 48/48/48 47/47/47 45/45/45
f 51/51/51 50/50/50 49/49/49
f 52/52/52 51/51/51 49/49/49
f 55/55/55 54/54/54 53/53/53
f 56/56/56 55/55/55 53/53/53
f 59/59/59 58/58/58 57/57/57
f 60/60/60 59/59/59 57/57/57
f 63/63/63 62/62/62 61/61/61
f 64/64/64 63/63/63 61/61/61
f 67/67/67 66/66/66 65/65/65
f 68/68/68 67/67/67 65/65/65
f 71/71/71 70/70/70 69/69/69
f 72/72/72 71/71/71 69/69/69
f 75/75/75 74/74/74 73/73/73
f 76/76/76 75/75/75 73/73/73
f 79/79/79 78/78/78 77/77/77
f 80/80/80 79/79/79 77/77/77
f 83/83/83 82/82/82 81/81/81
f 84/84/84 83/83/83 81/81/81
f 87/87/87 86/86/86 85/85/85
f 88/88/88 87/87/87 85/85/85
f 91/91/91 90/90/90 89/89/89
f 92/92/92 91/91/91 89/89/89
f 95/95/95 94/94/94 93/93/93
f 96/96/96 95/95/95 93/93/93
f 99/99/99 98/98/98 97/97/97
f 100/100/100 99/99/99 97/97/97
f 103/103/103 102/102/102 101/101/101
f 104/104/104 103/103/103 101/101/101
f 107/107/107 106/106/106 105/105/105
f 108/108/108 107/107/107 105/105/105
f 111/111/111 110/110/110 109/109/109
f 112/112/112 111/111/111 109/109/109
f 115/115/115 114/114/114 113/113/113
f 116/116/116 115/115/115 113/113/113
f 119/119/119 118/118/118 117/117/117
f 117/117/117 118/118/118 120/120/120
f 118/118/118 119/119/119 121/121/121
f 119/119/119 122/122/122 121/121/121
f 121/121/121 122/122/122 123/123/123
f 118/118/118 124/124/124 120/120/120
f 120/120/120 124/124/124 125/125/125
f 125/125/125 124/124/124 126/126/126
f 121/121/121 123/123/123 127/127/127
f 124/124/124 127/127/127 126/126/126
f 123/123/123 128/128/128 127/127/127
f 126/126/126 127/127/127 128/128/128
