g _Combined_AutoVis4_0
v -0.1234708 -0.624997 -0.4999907
v -0.1234708 -0.6249969 0.50001
v 0.00152921 -0.6249969 0.50001
v 0.001529208 -0.624997 -0.4999907
v 0.1265292 -0.499997 -0.4999907
v 0.001529186 -0.499997 -0.4999907
v 0.001529188 -0.4999968 0.50001
v 0.1265292 -0.4999968 0.50001
v 0.1265292 -0.3749968 0.5000101
v 0.2515292 -0.3749968 0.5000101
v 0.2515292 -0.3749969 -0.4999906
v 0.1265292 -0.3749969 -0.4999907
v 0.3765292 -0.2499968 -0.4999906
v 0.2515292 -0.2499968 -0.4999906
v 0.2515292 -0.2499967 0.5000101
v 0.3765292 -0.2499967 0.5000101
v -0.2500028 -0.7499971 -0.4999908
v -0.2500028 -0.749997 0.50001
v -0.1234708 -0.749997 0.50001
v -0.1234708 -0.7499971 -0.4999908
v 0.3765292 -0.1249966 0.5000101
v 0.5015293 -0.1249966 0.5000101
v 0.5015293 -0.1249967 -0.4999906
v 0.3765292 -0.1249967 -0.4999906
v 0.6265293 3.39672E-06 -0.4999905
v 0.5015292 3.396968E-06 -0.4999906
v 0.5015292 3.516177E-06 0.5000101
v 0.6265293 3.515929E-06 0.5000102
v 0.6265292 0.1250036 0.5000102
v 0.7499992 0.1250036 0.5000102
v 0.7499983 0.1250035 -0.4999905
v 0.6265292 0.1250035 -0.4999905
v 0.7499983 0.1250035 -0.4999905
v 0.7499982 0.2500035 -0.4999905
v -0.250003 0.2500035 -0.4999907
v 0.6265292 0.1250035 -0.4999905
v 0.6265293 3.39672E-06 -0.4999905
v 0.5015292 3.396968E-06 -0.4999906
v 0.5015293 -0.1249967 -0.4999906
v 0.3765292 -0.1249967 -0.4999906
v 0.3765292 -0.2499968 -0.4999906
v 0.2515292 -0.2499968 -0.4999906
v 0.2515292 -0.3749969 -0.4999906
v 0.1265292 -0.3749969 -0.4999907
v 0.1265292 -0.499997 -0.4999907
v 0.001529186 -0.499997 -0.4999907
v 0.001529208 -0.624997 -0.4999907
v -0.1234708 -0.624997 -0.4999907
v -0.1234708 -0.7499971 -0.4999908
v -0.2500028 -0.7499971 -0.4999908
v 0.6265292 0.1250035 -0.4999905
v 0.6265293 3.39672E-06 -0.4999905
v 0.6265293 3.515929E-06 0.5000102
v 0.6265292 0.1250036 0.5000102
v 0.1265292 -0.3749968 0.5000101
v 0.2515292 -0.2499967 0.5000101
v 0.2515292 -0.3749968 0.5000101
v -0.250003 0.2500037 0.5000101
v 0.001529188 -0.4999968 0.50001
v 0.1265292 -0.4999968 0.50001
v 0.3765292 -0.1249966 0.5000101
v 0.3765292 -0.2499967 0.5000101
v -0.1234708 -0.6249969 0.50001
v 0.00152921 -0.6249969 0.50001
v -0.2500028 -0.749997 0.50001
v -0.1234708 -0.749997 0.50001
v 0.5015292 3.516177E-06 0.5000101
v 0.5015293 -0.1249966 0.5000101
v 0.6265292 0.1250036 0.5000102
v 0.6265293 3.515929E-06 0.5000102
v 0.7499992 0.2500037 0.5000103
v 0.7499992 0.1250036 0.5000102
v 0.5015293 -0.1249966 0.5000101
v 0.5015292 3.516177E-06 0.5000101
v 0.5015292 3.396968E-06 -0.4999906
v 0.5015293 -0.1249967 -0.4999906
v 0.3765292 -0.2499967 0.5000101
v 0.3765292 -0.1249966 0.5000101
v 0.3765292 -0.1249967 -0.4999906
v 0.3765292 -0.2499968 -0.4999906
v 0.2515292 -0.3749968 0.5000101
v 0.2515292 -0.2499967 0.5000101
v 0.2515292 -0.2499968 -0.4999906
v 0.2515292 -0.3749969 -0.4999906
v 0.1265292 -0.4999968 0.50001
v 0.1265292 -0.3749968 0.5000101
v 0.1265292 -0.3749969 -0.4999907
v 0.1265292 -0.499997 -0.4999907
v 0.00152921 -0.6249969 0.50001
v 0.001529188 -0.4999968 0.50001
v 0.001529186 -0.499997 -0.4999907
v 0.001529208 -0.624997 -0.4999907
v -0.1234708 -0.7499971 -0.4999908
v -0.1234708 -0.749997 0.50001
v -0.1234708 -0.6249969 0.50001
v -0.1234708 -0.624997 -0.4999907
v 0.7499992 0.1250036 0.5000102
v 0.7499992 0.2500037 0.5000103
v 0.7499982 0.2500035 -0.4999905
v 0.7499983 0.1250035 -0.4999905
v 0.7499982 0.2500035 -0.4999905
v 0.7499992 0.2500037 0.5000103
v -0.250003 0.2500037 0.5000101
v -0.250003 0.2500035 -0.4999907
v -0.250003 0.2500035 -0.4999907
v -0.250003 0.2500037 0.5000101
v -0.2500028 -0.749997 0.50001
v -0.2500028 -0.7499971 -0.4999908
vt 0.703125 0.5593708
vt 0.640625 0.5593708
vt 0.640625 0.5656669
vt 0.703125 0.5656669
vt 0.703125 0.571963
vt 0.703125 0.5656669
vt 0.640625 0.5656669
vt 0.640625 0.571963
vt 0.640625 0.571963
vt 0.640625 0.5782592
vt 0.703125 0.5782592
vt 0.703125 0.571963
vt 0.703125 0.5845554
vt 0.703125 0.5782592
vt 0.640625 0.5782592
vt 0.640625 0.5845554
vt 0.703125 0.5530745
vt 0.640625 0.5530745
vt 0.640625 0.5593708
vt 0.703125 0.5593708
vt 0.640625 0.5845554
vt 0.640625 0.5908515
vt 0.703125 0.5908515
vt 0.703125 0.5845554
vt 0.703125 0.5971478
vt 0.703125 0.5908515
vt 0.640625 0.5908515
vt 0.640625 0.5971478
vt 0.640625 0.5971478
vt 0.640625 0.6034439
vt 0.703125 0.6034439
vt 0.703125 0.5971478
vt 0.765625 0.6171875
vt 0.765625 0.609375
vt 0.703125 0.609375
vt 0.7578125 0.6171875
vt 0.7578125 0.625
vt 0.75 0.625
vt 0.75 0.6328125
vt 0.7421875 0.6328125
vt 0.7421875 0.640625
vt 0.734375 0.640625
vt 0.734375 0.6484375
vt 0.7265625 0.6484375
vt 0.7265625 0.65625
vt 0.71875 0.65625
vt 0.71875 0.6640625
vt 0.7109375 0.6640625
vt 0.7109375 0.671875
vt 0.703125 0.671875
vt 0.703125 0.5593708
vt 0.703125 0.5656669
vt 0.765625 0.5656669
vt 0.765625 0.5593708
vt 0.7265625 0.6484375
vt 0.734375 0.640625
vt 0.734375 0.6484375
vt 0.703125 0.609375
vt 0.71875 0.65625
vt 0.7265625 0.65625
vt 0.7421875 0.6328125
vt 0.7421875 0.640625
vt 0.7109375 0.6640625
vt 0.71875 0.6640625
vt 0.703125 0.671875
vt 0.7109375 0.671875
vt 0.75 0.625
vt 0.75 0.6328125
vt 0.7578125 0.6171875
vt 0.7578125 0.625
vt 0.765625 0.609375
vt 0.765625 0.6171875
vt 0.765625 0.571963
vt 0.765625 0.5656669
vt 0.703125 0.5656669
vt 0.703125 0.571963
vt 0.765625 0.5782592
vt 0.765625 0.571963
vt 0.703125 0.571963
vt 0.703125 0.5782592
vt 0.765625 0.5845554
vt 0.765625 0.5782592
vt 0.703125 0.5782592
vt 0.703125 0.5845554
vt 0.765625 0.5908515
vt 0.765625 0.5845554
vt 0.703125 0.5845554
vt 0.703125 0.5908515
vt 0.765625 0.5971478
vt 0.765625 0.5908515
vt 0.703125 0.5908515
vt 0.703125 0.5971478
vt 0.703125 0.6034439
vt 0.765625 0.6034439
vt 0.765625 0.5971478
vt 0.703125 0.5971478
vt 0.765625 0.5593708
vt 0.765625 0.5530745
vt 0.703125 0.5530745
vt 0.703125 0.5593708
vt 0.890625 0.359375
vt 0.890625 0.234375
vt 0.765625 0.234375
vt 0.765625 0.359375
vt 0.890625 0.359375
vt 0.890625 0.234375
vt 0.765625 0.234375
vt 0.765625 0.359375
vn 1.768287E-07 -1 -1.192092E-07
vn 1.768287E-07 -1 -1.192092E-07
vn 1.768287E-07 -1 -1.192092E-07
vn 1.768287E-07 -1 -1.192092E-07
vn 1.768287E-07 -1 -1.192092E-07
vn 1.768287E-07 -1 -1.192092E-07
vn 1.768287E-07 -1 -1.192092E-07
vn 1.768287E-07 -1 -1.192092E-07
vn 1.768287E-07 -1 -1.192092E-07
vn 1.768287E-07 -1 -1.192092E-07
vn 1.768287E-07 -1 -1.192092E-07
vn 1.768287E-07 -1 -1.192092E-07
vn 1.768287E-07 -1 -1.192092E-07
vn 1.768287E-07 -1 -1.192092E-07
vn 1.768287E-07 -1 -1.192092E-07
vn 1.768287E-07 -1 -1.192092E-07
vn 1.768287E-07 -1 -1.192092E-07
vn 1.768287E-07 -1 -1.192092E-07
vn 1.768287E-07 -1 -1.192092E-07
vn 1.768287E-07 -1 -1.192092E-07
vn 1.768287E-07 -1 -1.192092E-07
vn 1.768287E-07 -1 -1.192092E-07
vn 1.768287E-07 -1 -1.192092E-07
vn 1.768287E-07 -1 -1.192092E-07
vn 1.768287E-07 -1 -1.192092E-07
vn 1.768287E-07 -1 -1.192092E-07
vn 1.768287E-07 -1 -1.192092E-07
vn 1.768287E-07 -1 -1.192092E-07
vn 1.768287E-07 -1 -1.192092E-07
vn 1.768287E-07 -1 -1.192092E-07
vn 1.768287E-07 -1 -1.192092E-07
vn 1.768287E-07 -1 -1.192092E-07
vn -1.991123E-09 -1.192093E-07 -1
vn -1.991123E-09 -1.192093E-07 -1
vn -1.991123E-09 -1.192093E-07 -1
vn -1.991123E-09 -1.192093E-07 -1
vn -1.991123E-09 -1.192093E-07 -1
vn -1.991123E-09 -1.192093E-07 -1
vn -1.991123E-09 -1.192093E-07 -1
vn -1.991123E-09 -1.192093E-07 -1
vn -1.991123E-09 -1.192093E-07 -1
vn -1.991123E-09 -1.192093E-07 -1
vn -1.991123E-09 -1.192093E-07 -1
vn -1.991123E-09 -1.192093E-07 -1
vn -1.991123E-09 -1.192093E-07 -1
vn -1.991123E-09 -1.192093E-07 -1
vn -1.991123E-09 -1.192093E-07 -1
vn -1.991123E-09 -1.192093E-07 -1
vn -1.991123E-09 -1.192093E-07 -1
vn -1.991123E-09 -1.192093E-07 -1
vn 1 -1.983209E-09 1.768367E-07
vn 1 -1.983209E-09 1.768367E-07
vn 1 -1.983209E-09 1.768367E-07
vn 1 -1.983209E-09 1.768367E-07
vn 1.991123E-09 1.192093E-07 1
vn 1.991123E-09 1.192093E-07 1
vn 1.991123E-09 1.192093E-07 1
vn 1.991123E-09 1.192093E-07 1
vn 1.991123E-09 1.192093E-07 1
vn 1.991123E-09 1.192093E-07 1
vn 1.991123E-09 1.192093E-07 1
vn 1.991123E-09 1.192093E-07 1
vn 1.991123E-09 1.192093E-07 1
vn 1.991123E-09 1.192093E-07 1
vn 1.991123E-09 1.192093E-07 1
vn 1.991123E-09 1.192093E-07 1
vn 1.991123E-09 1.192093E-07 1
vn 1.991123E-09 1.192093E-07 1
vn 1.991123E-09 1.192093E-07 1
vn 1.991123E-09 1.192093E-07 1
vn 1.991123E-09 1.192093E-07 1
vn 1.991123E-09 1.192093E-07 1
vn 1 -1.983209E-09 1.768367E-07
vn 1 -1.983209E-09 1.768367E-07
vn 1 -1.983209E-09 1.768367E-07
vn 1 -1.983209E-09 1.768367E-07
vn 1 -1.983209E-09 1.768367E-07
vn 1 -1.983209E-09 1.768367E-07
vn 1 -1.983209E-09 1.768367E-07
vn 1 -1.983209E-09 1.768367E-07
vn 1 -1.983209E-09 1.768367E-07
vn 1 -1.983209E-09 1.768367E-07
vn 1 -1.983209E-09 1.768367E-07
vn 1 -1.983209E-09 1.768367E-07
vn 1 -1.983209E-09 1.768367E-07
vn 1 -1.983209E-09 1.768367E-07
vn 1 -1.983209E-09 1.768367E-07
vn 1 -1.983209E-09 1.768367E-07
vn 1 -1.983209E-09 1.768367E-07
vn 1 -1.983209E-09 1.768367E-07
vn 1 -1.983209E-09 1.768367E-07
vn 1 -1.983209E-09 1.768367E-07
vn 1 -1.983209E-09 1.768367E-07
vn 1 -1.983209E-09 1.768367E-07
vn 1 -1.983209E-09 1.768367E-07
vn 1 -1.983209E-09 1.768367E-07
vn 1 -1.983209E-09 1.768367E-07
vn 1 -1.983209E-09 1.768367E-07
vn 1 -1.983209E-09 1.768367E-07
vn 1 -1.983209E-09 1.768367E-07
vn -8.940599E-08 1 -5.701459E-14
vn -8.940599E-08 1 -5.701459E-14
vn -8.940599E-08 1 -5.701459E-14
vn -8.940599E-08 1 -5.701459E-14
vn -1 8.940603E-08 -8.941388E-08
vn -1 8.940603E-08 -8.941388E-08
vn -1 8.940603E-08 -8.941388E-08
vn -1 8.940603E-08 -8.941388E-08
g _Combined_AutoVis4_0_0
f 3/3/3 2/2/2 1/1/1
f 4/4/4 3/3/3 1/1/1
f 7/7/7 6/6/6 5/5/5
f 8/8/8 7/7/7 5/5/5
f 11/11/11 10/10/10 9/9/9
f 12/12/12 11/11/11 9/9/9
f 15/15/15 14/14/14 13/13/13
f 16/16/16 15/15/15 13/13/13
f 19/19/19 18/18/18 17/17/17
f 20/20/20 19/19/19 17/17/17
f 23/23/23 22/22/22 21/21/21
f 24/24/24 23/23/23 21/21/21
f 27/27/27 26/26/26 25/25/25
f 28/28/28 27/27/27 25/25/25
f 31/31/31 30/30/30 29/29/29
f 32/32/32 31/31/31 29/29/29
f 35/35/35 34/34/34 33/33/33
f 36/36/36 35/35/35 33/33/33
f 35/35/35 36/36/36 37/37/37
f 38/38/38 35/35/35 37/37/37
f 35/35/35 38/38/38 39/39/39
f 40/40/40 35/35/35 39/39/39
f 35/35/35 40/40/40 41/41/41
f 42/42/42 35/35/35 41/41/41
f 35/35/35 42/42/42 43/43/43
f 44/44/44 35/35/35 43/43/43
f 35/35/35 44/44/44 45/45/45
f 46/46/46 35/35/35 45/45/45
f 35/35/35 46/46/46 47/47/47
f 48/48/48 35/35/35 47/47/47
f 35/35/35 48/48/48 49/49/49
f 50/50/50 35/35/35 49/49/49
f 53/53/53 52/52/52 51/51/51
f 54/54/54 53/53/53 51/51/51
f 57/57/57 56/56/56 55/55/55
f 56/56/56 58/58/58 55/55/55
f 55/55/55 58/58/58 59/59/59
f 60/60/60 55/55/55 59/59/59
f 61/61/61 58/58/58 56/56/56
f 62/62/62 61/61/61 56/56/56
f 59/59/59 58/58/58 63/63/63
f 64/64/64 59/59/59 63/63/63
f 63/63/63 58/58/58 65/65/65
f 66/66/66 63/63/63 65/65/65
f 67/67/67 58/58/58 61/61/61
f 68/68/68 67/67/67 61/61/61
f 58/58/58 67/67/67 69/69/69
f 67/67/67 70/70/70 69/69/69
f 71/71/71 58/58/58 69/69/69
f 72/72/72 71/71/71 69/69/69
f 75/75/75 74/74/74 73/73/73
f 76/76/76 75/75/75 73/73/73
f 79/79/79 78/78/78 77/77/77
f 80/80/80 79/79/79 77/77/77
f 83/83/83 82/82/82 81/81/81
f 84/84/84 83/83/83 81/81/81
f 87/87/87 86/86/86 85/85/85
f 88/88/88 87/87/87 85/85/85
f 91/91/91 90/90/90 89/89/89
f 92/92/92 91/91/91 89/89/89
f 95/95/95 94/94/94 93/93/93
f 96/96/96 95/95/95 93/93/93
f 99/99/99 98/98/98 97/97/97
f 100/100/100 99/99/99 97/97/97
f 103/103/103 102/102/102 101/101/101
f 104/104/104 103/103/103 101/101/101
f 107/107/107 106/106/106 105/105/105
f 108/108/108 107/107/107 105/105/105
