g _Combined_Vis337_0
v -101.5 -7.499999 5
v -101.5 -7.500001 4
v -101.5 -8.5 4
v -101.5 -8.5 5
v -101.5 -9.499999 5
v -101.5 -9.500001 4
v -101.5 -10.5 4
v -101.5 -10.5 5
v -101.5 -8.5 5
v -101.5 -8.5 4
v -101.5 -9.500001 4
v -101.5 -9.499999 5
v -101.5 -10.5 4
v -101.5 -9.500001 4
v -102.5 -9.5 4
v -102.5 -10.5 4
v -102.5 -6.5 3.999999
v -101.5 -6.5 4.000001
v -101.5 -6.5 5
v -102.5 -6.5 5
v -102.5 -9.5 4
v -102.5 -8.5 4.000001
v -102.5 -8.5 5
v -102.5 -9.5 5
v -102.5 -9.5 5
v -102.5 -10.5 4.999999
v -102.5 -10.5 4
v -102.5 -9.5 4
v -102.5 -6.5 5
v -102.5 -7.5 4.999999
v -102.5 -7.5 4
v -102.5 -6.5 3.999999
v -102.5 -9.5 5
v -101.5 -9.499999 5
v -101.5 -10.5 5
v -102.5 -10.5 4.999999
v -102.5 -6.5 3.999999
v -102.5 -7.5 4
v -101.5 -7.500001 4
v -101.5 -6.5 4.000001
v -102.5 -8.5 5
v -101.5 -8.5 5
v -101.5 -9.499999 5
v -102.5 -9.5 5
v -102.5 -8.5 4.000001
v -102.5 -9.5 4
v -101.5 -9.500001 4
v -101.5 -8.5 4
v -101.5 -6.5 5
v -101.5 -7.499999 5
v -102.5 -7.5 4.999999
v -102.5 -6.5 5
v -102.5 -7.5 4.999999
v -101.5 -7.499999 5
v -101.5 -8.5 5
v -102.5 -8.5 5
v -102.5 -7.5 4
v -102.5 -7.5 4.999999
v -102.5 -8.5 5
v -102.5 -8.5 4.000001
v -102.5 -7.5 4
v -102.5 -8.5 4.000001
v -101.5 -8.5 4
v -101.5 -7.500001 4
v -101.5 -6.5 4.000001
v -101.5 -7.500001 4
v -101.5 -7.499999 5
v -101.5 -6.5 5
vt 0.890625 0.359375
vt 0.890625 0.234375
vt 0.765625 0.234375
vt 0.765625 0.359375
vt 0.890625 0.359375
vt 0.890625 0.234375
vt 0.765625 0.234375
vt 0.765625 0.359375
vt 0.890625 0.359375
vt 0.890625 0.234375
vt 0.765625 0.234375
vt 0.765625 0.359375
vt 0.890625 0.359375
vt 0.890625 0.234375
vt 0.765625 0.234375
vt 0.765625 0.359375
vt 0.609375 0.828125
vt 0.609375 0.703125
vt 0.484375 0.703125
vt 0.484375 0.828125
vt 0.765625 0.984375
vt 0.765625 0.859375
vt 0.640625 0.859375
vt 0.640625 0.984375
vt 0.765625 0.984375
vt 0.765625 0.859375
vt 0.640625 0.859375
vt 0.640625 0.984375
vt 0.609375 0.984375
vt 0.609375 0.859375
vt 0.484375 0.859375
vt 0.484375 0.984375
vt 0.890625 0.359375
vt 0.890625 0.234375
vt 0.765625 0.234375
vt 0.765625 0.359375
vt 0.609375 0.984375
vt 0.609375 0.859375
vt 0.484375 0.859375
vt 0.484375 0.984375
vt 0.890625 0.359375
vt 0.890625 0.234375
vt 0.765625 0.234375
vt 0.765625 0.359375
vt 0.890625 0.359375
vt 0.890625 0.234375
vt 0.765625 0.234375
vt 0.765625 0.359375
vt 0.609375 0.984375
vt 0.609375 0.859375
vt 0.484375 0.859375
vt 0.484375 0.984375
vt 0.890625 0.359375
vt 0.890625 0.234375
vt 0.765625 0.234375
vt 0.765625 0.359375
vt 0.890625 0.359375
vt 0.890625 0.234375
vt 0.765625 0.234375
vt 0.765625 0.359375
vt 0.765625 0.984375
vt 0.765625 0.859375
vt 0.640625 0.859375
vt 0.640625 0.984375
vt 0.609375 0.984375
vt 0.609375 0.859375
vt 0.484375 0.859375
vt 0.484375 0.984375
vn 1 0 0
vn 1 0 0
vn 1 0 0
vn 1 0 0
vn 1 0 0
vn 1 0 0
vn 1 0 0
vn 1 0 0
vn 1 0 0
vn 1 0 0
vn 1 0 0
vn 1 0 0
vn 8.742278E-08 0 -1
vn 8.742278E-08 0 -1
vn 8.742278E-08 0 -1
vn 8.742278E-08 0 -1
vn 0 1 0
vn 0 1 0
vn 0 1 0
vn 0 1 0
vn -1 0 -1.192093E-07
vn -1 0 -1.192093E-07
vn -1 0 -1.192093E-07
vn -1 0 -1.192093E-07
vn -1 0 -1.192093E-07
vn -1 0 -1.192093E-07
vn -1 0 -1.192093E-07
vn -1 0 -1.192093E-07
vn -1 0 -1.192093E-07
vn -1 0 -1.192093E-07
vn -1 0 -1.192093E-07
vn -1 0 -1.192093E-07
vn 0 0 1
vn 0 0 1
vn 0 0 1
vn 0 0 1
vn 8.742278E-08 0 -1
vn 8.742278E-08 0 -1
vn 8.742278E-08 0 -1
vn 8.742278E-08 0 -1
vn 0 0 1
vn 0 0 1
vn 0 0 1
vn 0 0 1
vn 8.742278E-08 0 -1
vn 8.742278E-08 0 -1
vn 8.742278E-08 0 -1
vn 8.742278E-08 0 -1
vn 0 0 1
vn 0 0 1
vn 0 0 1
vn 0 0 1
vn 0 0 1
vn 0 0 1
vn 0 0 1
vn 0 0 1
vn -1 0 0
vn -1 0 0
vn -1 0 0
vn -1 0 0
vn 8.742278E-08 0 -1
vn 8.742278E-08 0 -1
vn 8.742278E-08 0 -1
vn 8.742278E-08 0 -1
vn 1 0 -1.192093E-07
vn 1 0 -1.192093E-07
vn 1 0 -1.192093E-07
vn 1 0 -1.192093E-07
g _Combined_Vis337_0_0
f 3/3/3 2/2/2 1/1/1
f 4/4/4 3/3/3 1/1/1
f 7/7/7 6/6/6 5/5/5
f 8/8/8 7/7/7 5/5/5
f 11/11/11 10/10/10 9/9/9
f 12/12/12 11/11/11 9/9/9
f 15/15/15 14/14/14 13/13/13
f 16/16/16 15/15/15 13/13/13
f 19/19/19 18/18/18 17/17/17
f 20/20/20 19/19/19 17/17/17
f 23/23/23 22/22/22 21/21/21
f 24/24/24 23/23/23 21/21/21
f 27/27/27 26/26/26 25/25/25
f 28/28/28 27/27/27 25/25/25
f 31/31/31 30/30/30 29/29/29
f 32/32/32 31/31/31 29/29/29
f 35/35/35 34/34/34 33/33/33
f 36/36/36 35/35/35 33/33/33
f 39/39/39 38/38/38 37/37/37
f 40/40/40 39/39/39 37/37/37
f 43/43/43 42/42/42 41/41/41
f 44/44/44 43/43/43 41/41/41
f 47/47/47 46/46/46 45/45/45
f 48/48/48 47/47/47 45/45/45
f 51/51/51 50/50/50 49/49/49
f 52/52/52 51/51/51 49/49/49
f 55/55/55 54/54/54 53/53/53
f 56/56/56 55/55/55 53/53/53
f 59/59/59 58/58/58 57/57/57
f 60/60/60 59/59/59 57/57/57
f 63/63/63 62/62/62 61/61/61
f 64/64/64 63/63/63 61/61/61
f 67/67/67 66/66/66 65/65/65
f 68/68/68 67/67/67 65/65/65
