g _Combined_Vis25_0
v -1.590992 0.275 -1.590991
v 5.148351E-07 0.275 -3.251433E-06
v -2.66049 0.2750001 -0.521491
v -2.236225 0.2750001 -0.09722745
v -2.625133 0.2750001 0.2916818
v -1.458405 0.2750001 1.458407
v -0.5214943 0.275 -2.660492
v -0.09722967 0.275 -2.236228
v 0.2916786 0.275 -2.625138
v 1.458406 0.275 -1.458413
v 1.590993 0.275 1.590985
v 0.5214954 0.2750001 2.660486
v 0.0972307 0.2750001 2.236222
v -0.2916775 0.2750001 2.625131
v 2.660491 0.275 0.5214845
v 2.236226 0.275 0.09722096
v 2.625134 0.275 -0.2916883
vt 0.328125 0.1621094
vt 0.328125 0.1328125
vt 0.2851563 0.1621094
vt 0.2851563 0.1542969
vt 0.2695313 0.1542969
vt 0.2695313 0.1328125
vt 0.2851563 0.1621094
vt 0.2851563 0.1542969
vt 0.2695313 0.1542969
vt 0.2695313 0.1328125
vt 0.328125 0.1621094
vt 0.2851563 0.1621094
vt 0.2851563 0.1542969
vt 0.2695313 0.1542969
vt 0.2851563 0.1621094
vt 0.2851563 0.1542969
vt 0.2695313 0.1542969
vn 2.980232E-08 1 -1.192093E-07
vn 2.980232E-08 1 -1.192093E-07
vn 2.980232E-08 1 -1.192093E-07
vn 2.980232E-08 1 -1.192093E-07
vn 2.980232E-08 1 -1.192093E-07
vn 2.980232E-08 1 -1.192093E-07
vn 2.980232E-08 1 -1.192093E-07
vn 2.980232E-08 1 -1.192093E-07
vn 2.980232E-08 1 -1.192093E-07
vn 2.980232E-08 1 -1.192093E-07
vn 2.980232E-08 1 -1.192093E-07
vn 2.980232E-08 1 -1.192093E-07
vn 2.980232E-08 1 -1.192093E-07
vn 2.980232E-08 1 -1.192093E-07
vn 2.980232E-08 1 -1.192093E-07
vn 2.980232E-08 1 -1.192093E-07
vn 2.980232E-08 1 -1.192093E-07
g _Combined_Vis25_0_0
f 3/3/3 2/2/2 1/1/1
f 3/3/3 4/4/4 2/2/2
f 2/2/2 4/4/4 5/5/5
f 2/2/2 5/5/5 6/6/6
f 2/2/2 7/7/7 1/1/1
f 8/8/8 7/7/7 2/2/2
f 8/8/8 2/2/2 9/9/9
f 9/9/9 2/2/2 10/10/10
f 2/2/2 12/12/12 11/11/11
f 13/13/13 12/12/12 2/2/2
f 13/13/13 2/2/2 14/14/14
f 14/14/14 2/2/2 6/6/6
f 15/15/15 2/2/2 11/11/11
f 15/15/15 16/16/16 2/2/2
f 2/2/2 16/16/16 17/17/17
f 2/2/2 17/17/17 10/10/10
