g _Combined_Vis29_1
v -36.12508 0.2164717 35.37524
v -36.12508 0.1249657 35.28373
v -35.87508 0.1249657 35.28373
v -35.87508 0.2164717 35.37524
v -36.12508 0.2499657 35.50024
v -35.87508 0.2499657 35.50024
v -35.87508 0.2499657 35.50024
v -36.12508 0.2164717 35.62524
v -36.12508 0.2499657 35.50024
v -35.87508 0.2164717 35.62524
v -35.87508 -3.433228E-05 35.25024
v -36.12508 -3.433228E-05 35.25024
v -36.12508 -3.433228E-05 35.25024
v -35.87508 -0.1250343 35.28373
v -35.87508 -3.433228E-05 35.25024
v -36.12508 -0.1250343 35.28373
v -35.87508 -0.2165403 35.37524
v -36.12508 -0.2165403 35.37524
v -36.12508 -0.2500343 35.50024
v -35.87508 -0.2500343 35.50024
v -36.12508 -0.2500343 35.50024
v -35.87508 -0.2165403 35.62524
v -35.87508 -0.2500343 35.50024
v -36.12508 -0.2165403 35.62524
v -35.87508 -0.1250343 35.71675
v -36.12508 -0.1250343 35.71675
v -35.87508 -3.433228E-05 35.75024
v -36.12508 -3.433228E-05 35.75024
v -36.12508 -3.433228E-05 35.75024
v -35.87508 0.1249657 35.71675
v -35.87508 -3.433228E-05 35.75024
v -36.12508 0.1249657 35.71675
v -35.87508 0.1249657 35.71675
v -35.87508 -0.1250343 35.71675
v -35.87508 -3.433228E-05 35.75024
v -35.87508 0.2164717 35.62524
v -35.87508 -0.2165403 35.62524
v -35.87508 0.2499657 35.50024
v -35.87508 -0.2500343 35.50024
v -35.87508 0.2164717 35.37524
v -35.87508 -0.2165403 35.37524
v -35.87508 0.1249657 35.28373
v -35.87508 -0.1250343 35.28373
v -35.87508 -3.433228E-05 35.25024
v -36.12508 3.216472 35.37524
v -36.12508 3.124966 35.28374
v -35.87508 3.124966 35.28374
v -35.87508 3.216472 35.37524
v -36.12508 3.249966 35.50024
v -35.87508 3.249966 35.50024
v -35.87508 3.249966 35.50024
v -36.12508 3.216472 35.62524
v -36.12508 3.249966 35.50024
v -35.87508 3.216472 35.62524
v -35.87508 2.999966 35.25024
v -36.12508 2.999966 35.25024
v -36.12508 2.999966 35.25024
v -35.87508 2.874966 35.28374
v -35.87508 2.999966 35.25024
v -36.12508 2.874966 35.28374
v -35.87508 2.78346 35.37524
v -36.12508 2.78346 35.37524
v -36.12508 2.749966 35.50024
v -35.87508 2.749966 35.50024
v -36.12508 2.749966 35.50024
v -35.87508 2.78346 35.62524
v -35.87508 2.749966 35.50024
v -36.12508 2.78346 35.62524
v -35.87508 2.874966 35.71675
v -36.12508 2.874966 35.71675
v -35.87508 2.999966 35.75024
v -36.12508 2.999966 35.75024
v -36.12508 2.999966 35.75024
v -35.87508 3.124966 35.71675
v -35.87508 2.999966 35.75024
v -36.12508 3.124966 35.71675
v -35.87508 3.124966 35.71675
v -35.87508 2.874966 35.71675
v -35.87508 2.999966 35.75024
v -35.87508 3.216472 35.62524
v -35.87508 2.78346 35.62524
v -35.87508 3.249966 35.50024
v -35.87508 2.749966 35.50024
v -35.87508 3.216472 35.37524
v -35.87508 2.78346 35.37524
v -35.87508 3.124966 35.28374
v -35.87508 2.874966 35.28374
v -35.87508 2.999966 35.25024
v -36.12508 2.216472 35.37525
v -36.12508 2.124966 35.28374
v -35.87508 2.124966 35.28374
v -35.87508 2.216472 35.37525
v -36.12508 2.249966 35.50025
v -35.87508 2.249966 35.50025
v -35.87508 2.249966 35.50025
v -36.12508 2.216472 35.62525
v -36.12508 2.249966 35.50025
v -35.87508 2.216472 35.62525
v -35.87508 1.999966 35.25025
v -36.12508 1.999966 35.25025
v -36.12508 1.999966 35.25025
v -35.87508 1.874966 35.28374
v -35.87508 1.999966 35.25025
v -36.12508 1.874966 35.28374
v -35.87508 1.78346 35.37525
v -36.12508 1.78346 35.37525
v -36.12508 1.749966 35.50025
v -35.87508 1.749966 35.50025
v -36.12508 1.749966 35.50025
v -35.87508 1.78346 35.62525
v -35.87508 1.749966 35.50025
v -36.12508 1.78346 35.62525
v -35.87508 1.874966 35.71676
v -36.12508 1.874966 35.71676
v -35.87508 1.999966 35.75025
v -36.12508 1.999966 35.75025
v -36.12508 1.999966 35.75025
v -35.87508 2.124966 35.71676
v -35.87508 1.999966 35.75025
v -36.12508 2.124966 35.71676
v -35.87508 2.124966 35.71676
v -35.87508 1.874966 35.71676
v -35.87508 1.999966 35.75025
v -35.87508 2.216472 35.62525
v -35.87508 1.78346 35.62525
v -35.87508 2.249966 35.50025
v -35.87508 1.749966 35.50025
v -35.87508 2.216472 35.37525
v -35.87508 1.78346 35.37525
v -35.87508 2.124966 35.28374
v -35.87508 1.874966 35.28374
v -35.87508 1.999966 35.25025
v -36.12508 1.216472 35.37526
v -36.12508 1.124966 35.28375
v -35.87508 1.124966 35.28375
v -35.87508 1.216472 35.37526
v -36.12508 1.249966 35.50026
v -35.87508 1.249966 35.50026
v -35.87508 1.249966 35.50026
v -36.12508 1.216472 35.62526
v -36.12508 1.249966 35.50026
v -35.87508 1.216472 35.62526
v -35.87508 0.9999661 35.25026
v -36.12508 0.9999661 35.25026
v -36.12508 0.9999661 35.25026
v -35.87508 0.8749661 35.28375
v -35.87508 0.9999661 35.25026
v -36.12508 0.8749661 35.28375
v -35.87508 0.7834601 35.37526
v -36.12508 0.7834601 35.37526
v -36.12508 0.7499661 35.50026
v -35.87508 0.7499661 35.50026
v -36.12508 0.7499661 35.50026
v -35.87508 0.7834601 35.62526
v -35.87508 0.7499661 35.50026
v -36.12508 0.7834601 35.62526
v -35.87508 0.8749661 35.71677
v -36.12508 0.8749661 35.71677
v -35.87508 0.9999661 35.75026
v -36.12508 0.9999661 35.75026
v -36.12508 0.9999661 35.75026
v -35.87508 1.124966 35.71677
v -35.87508 0.9999661 35.75026
v -36.12508 1.124966 35.71677
v -35.87508 1.124966 35.71677
v -35.87508 0.8749661 35.71677
v -35.87508 0.9999661 35.75026
v -35.87508 1.216472 35.62526
v -35.87508 0.7834601 35.62526
v -35.87508 1.249966 35.50026
v -35.87508 0.7499661 35.50026
v -35.87508 1.216472 35.37526
v -35.87508 0.7834601 35.37526
v -35.87508 1.124966 35.28375
v -35.87508 0.8749661 35.28375
v -35.87508 0.9999661 35.25026
vt 0.416675 6.7E-05
vt 0.333353 6.8E-05
vt 0.333354 0.120792
vt 0.416676 0.120792
vt 0.499997 6.7E-05
vt 0.499997 0.120791
vt 0.499997 0.120791
vt 0.583319 6.7E-05
vt 0.499997 6.7E-05
vt 0.583319 0.120792
vt 0.250032 0.120793
vt 0.250031 6.9E-05
vt 0.250031 6.9E-05
vt 0.16671 0.120793
vt 0.250032 0.120793
vt 0.166709 6.9E-05
vt 0.083388 0.120794
vt 0.083388 7E-05
vt 6.6E-05 7E-05
vt 6.7E-05 0.120794
vt 0.999934 6.6E-05
vt 0.916611 0.120792
vt 0.999934 0.120792
vt 0.916611 6.6E-05
vt 0.833288 0.120792
vt 0.833288 6.6E-05
vt 0.749965 0.120792
vt 0.749965 6.6E-05
vt 0.749965 6.6E-05
vt 0.666642 0.120792
vt 0.749965 0.120792
vt 0.666642 6.7E-05
vt 0.02059 0.45551
vt 0.325275 0.150825
vt 0.132113 0.262348
vt 0.02059 0.678554
vt 0.54832 0.150825
vt 0.132113 0.871717
vt 0.741482 0.262348
vt 0.325275 0.983239
vt 0.853004 0.45551
vt 0.54832 0.983239
vt 0.853004 0.678555
vt 0.741482 0.871717
vt 0.416675 6.7E-05
vt 0.333353 6.8E-05
vt 0.333354 0.120792
vt 0.416676 0.120792
vt 0.499997 6.7E-05
vt 0.499997 0.120791
vt 0.499997 0.120791
vt 0.583319 6.7E-05
vt 0.499997 6.7E-05
vt 0.583319 0.120792
vt 0.250032 0.120793
vt 0.250031 6.9E-05
vt 0.250031 6.9E-05
vt 0.16671 0.120793
vt 0.250032 0.120793
vt 0.166709 6.9E-05
vt 0.083388 0.120794
vt 0.083388 7E-05
vt 6.6E-05 7E-05
vt 6.7E-05 0.120794
vt 0.999934 6.6E-05
vt 0.916611 0.120792
vt 0.999934 0.120792
vt 0.916611 6.6E-05
vt 0.833288 0.120792
vt 0.833288 6.6E-05
vt 0.749965 0.120792
vt 0.749965 6.6E-05
vt 0.749965 6.6E-05
vt 0.666642 0.120792
vt 0.749965 0.120792
vt 0.666642 6.7E-05
vt 0.02059 0.45551
vt 0.325275 0.150825
vt 0.132113 0.262348
vt 0.02059 0.678554
vt 0.54832 0.150825
vt 0.132113 0.871717
vt 0.741482 0.262348
vt 0.325275 0.983239
vt 0.853004 0.45551
vt 0.54832 0.983239
vt 0.853004 0.678555
vt 0.741482 0.871717
vt 0.416675 6.7E-05
vt 0.333353 6.8E-05
vt 0.333354 0.120792
vt 0.416676 0.120792
vt 0.499997 6.7E-05
vt 0.499997 0.120791
vt 0.499997 0.120791
vt 0.583319 6.7E-05
vt 0.499997 6.7E-05
vt 0.583319 0.120792
vt 0.250032 0.120793
vt 0.250031 6.9E-05
vt 0.250031 6.9E-05
vt 0.16671 0.120793
vt 0.250032 0.120793
vt 0.166709 6.9E-05
vt 0.083388 0.120794
vt 0.083388 7E-05
vt 6.6E-05 7E-05
vt 6.7E-05 0.120794
vt 0.999934 6.6E-05
vt 0.916611 0.120792
vt 0.999934 0.120792
vt 0.916611 6.6E-05
vt 0.833288 0.120792
vt 0.833288 6.6E-05
vt 0.749965 0.120792
vt 0.749965 6.6E-05
vt 0.749965 6.6E-05
vt 0.666642 0.120792
vt 0.749965 0.120792
vt 0.666642 6.7E-05
vt 0.02059 0.45551
vt 0.325275 0.150825
vt 0.132113 0.262348
vt 0.02059 0.678554
vt 0.54832 0.150825
vt 0.132113 0.871717
vt 0.741482 0.262348
vt 0.325275 0.983239
vt 0.853004 0.45551
vt 0.54832 0.983239
vt 0.853004 0.678555
vt 0.741482 0.871717
vt 0.416675 6.7E-05
vt 0.333353 6.8E-05
vt 0.333354 0.120792
vt 0.416676 0.120792
vt 0.499997 6.7E-05
vt 0.499997 0.120791
vt 0.499997 0.120791
vt 0.583319 6.7E-05
vt 0.499997 6.7E-05
vt 0.583319 0.120792
vt 0.250032 0.120793
vt 0.250031 6.9E-05
vt 0.250031 6.9E-05
vt 0.16671 0.120793
vt 0.250032 0.120793
vt 0.166709 6.9E-05
vt 0.083388 0.120794
vt 0.083388 7E-05
vt 6.6E-05 7E-05
vt 6.7E-05 0.120794
vt 0.999934 6.6E-05
vt 0.916611 0.120792
vt 0.999934 0.120792
vt 0.916611 6.6E-05
vt 0.833288 0.120792
vt 0.833288 6.6E-05
vt 0.749965 0.120792
vt 0.749965 6.6E-05
vt 0.749965 6.6E-05
vt 0.666642 0.120792
vt 0.749965 0.120792
vt 0.666642 6.7E-05
vt 0.02059 0.45551
vt 0.325275 0.150825
vt 0.132113 0.262348
vt 0.02059 0.678554
vt 0.54832 0.150825
vt 0.132113 0.871717
vt 0.741482 0.262348
vt 0.325275 0.983239
vt 0.853004 0.45551
vt 0.54832 0.983239
vt 0.853004 0.678555
vt 0.741482 0.871717
vn -1.788101E-07 0.8660316 -0.4999893
vn -3.09717E-07 0.4999893 -0.8660316
vn -3.09717E-07 0.4999893 -0.8660316
vn -1.788101E-07 0.8660316 -0.4999893
vn -2.374506E-22 1 -1.315681E-22
vn -2.374506E-22 1 -1.315681E-22
vn -2.374506E-22 1 -1.315681E-22
vn 1.788101E-07 0.8660316 0.4999893
vn -2.374506E-22 1 -1.315681E-22
vn 1.788101E-07 0.8660316 0.4999893
vn -3.576279E-07 1.845092E-22 -1
vn -3.576279E-07 1.845092E-22 -1
vn -3.576279E-07 1.845092E-22 -1
vn -3.09717E-07 -0.4999893 -0.8660316
vn -3.576279E-07 1.845092E-22 -1
vn -3.09717E-07 -0.4999893 -0.8660316
vn -1.788101E-07 -0.8660316 -0.4999893
vn -1.788101E-07 -0.8660316 -0.4999893
vn 2.374506E-22 -1 1.315681E-22
vn 2.374506E-22 -1 1.315681E-22
vn 2.374506E-22 -1 1.315681E-22
vn 1.788101E-07 -0.8660316 0.4999893
vn 2.374506E-22 -1 1.315681E-22
vn 1.788101E-07 -0.8660316 0.4999893
vn 3.09717E-07 -0.4999893 0.8660316
vn 3.09717E-07 -0.4999893 0.8660316
vn 3.576279E-07 -1.845092E-22 1
vn 3.576279E-07 -1.845092E-22 1
vn 3.576279E-07 -1.845092E-22 1
vn 3.09717E-07 0.4999893 0.8660316
vn 3.576279E-07 -1.845092E-22 1
vn 3.09717E-07 0.4999893 0.8660316
vn 1 -2.646991E-22 -3.576279E-07
vn 1 -2.646991E-22 -3.576279E-07
vn 1 -2.646991E-22 -3.576279E-07
vn 1 -2.646991E-22 -3.576279E-07
vn 1 -2.646991E-22 -3.576279E-07
vn 1 -2.646991E-22 -3.576279E-07
vn 1 -2.646991E-22 -3.576279E-07
vn 1 -2.646991E-22 -3.576279E-07
vn 1 -2.646991E-22 -3.576279E-07
vn 1 -2.646991E-22 -3.576279E-07
vn 1 -2.646991E-22 -3.576279E-07
vn 1 -2.646991E-22 -3.576279E-07
vn -5.960336E-08 0.8660316 -0.4999893
vn -1.03239E-07 0.4999893 -0.8660316
vn -1.03239E-07 0.4999893 -0.8660316
vn -5.960336E-08 0.8660316 -0.4999893
vn 6.280396E-16 1 6.280352E-16
vn 6.280396E-16 1 6.280352E-16
vn 6.280396E-16 1 6.280352E-16
vn 5.960336E-08 0.8660316 0.4999893
vn 6.280396E-16 1 6.280352E-16
vn 5.960336E-08 0.8660316 0.4999893
vn -1.192093E-07 6.280342E-16 -1
vn -1.192093E-07 6.280342E-16 -1
vn -1.192093E-07 6.280342E-16 -1
vn -1.03239E-07 -0.4999893 -0.8660316
vn -1.192093E-07 6.280342E-16 -1
vn -1.03239E-07 -0.4999893 -0.8660316
vn -5.960336E-08 -0.8660316 -0.4999893
vn -5.960336E-08 -0.8660316 -0.4999893
vn -6.280396E-16 -1 -6.280352E-16
vn -6.280396E-16 -1 -6.280352E-16
vn -6.280396E-16 -1 -6.280352E-16
vn 5.960336E-08 -0.8660316 0.4999893
vn -6.280396E-16 -1 -6.280352E-16
vn 5.960336E-08 -0.8660316 0.4999893
vn 1.03239E-07 -0.4999893 0.8660316
vn 1.03239E-07 -0.4999893 0.8660316
vn 1.192093E-07 -6.280342E-16 1
vn 1.192093E-07 -6.280342E-16 1
vn 1.192093E-07 -6.280342E-16 1
vn 1.03239E-07 0.4999893 0.8660316
vn 1.192093E-07 -6.280342E-16 1
vn 1.03239E-07 0.4999893 0.8660316
vn 1 -6.280389E-16 -1.192093E-07
vn 1 -6.280389E-16 -1.192093E-07
vn 1 -6.280389E-16 -1.192093E-07
vn 1 -6.280389E-16 -1.192093E-07
vn 1 -6.280389E-16 -1.192093E-07
vn 1 -6.280389E-16 -1.192093E-07
vn 1 -6.280389E-16 -1.192093E-07
vn 1 -6.280389E-16 -1.192093E-07
vn 1 -6.280389E-16 -1.192093E-07
vn 1 -6.280389E-16 -1.192093E-07
vn 1 -6.280389E-16 -1.192093E-07
vn 1 -6.280389E-16 -1.192093E-07
vn -5.960336E-08 0.8660316 -0.4999893
vn -1.03239E-07 0.4999893 -0.8660316
vn -1.03239E-07 0.4999893 -0.8660316
vn -5.960336E-08 0.8660316 -0.4999893
vn 6.280396E-16 1 6.280352E-16
vn 6.280396E-16 1 6.280352E-16
vn 6.280396E-16 1 6.280352E-16
vn 5.960336E-08 0.8660316 0.4999893
vn 6.280396E-16 1 6.280352E-16
vn 5.960336E-08 0.8660316 0.4999893
vn -1.192093E-07 6.280342E-16 -1
vn -1.192093E-07 6.280342E-16 -1
vn -1.192093E-07 6.280342E-16 -1
vn -1.03239E-07 -0.4999893 -0.8660316
vn -1.192093E-07 6.280342E-16 -1
vn -1.03239E-07 -0.4999893 -0.8660316
vn -5.960336E-08 -0.8660316 -0.4999893
vn -5.960336E-08 -0.8660316 -0.4999893
vn -6.280396E-16 -1 -6.280352E-16
vn -6.280396E-16 -1 -6.280352E-16
vn -6.280396E-16 -1 -6.280352E-16
vn 5.960336E-08 -0.8660316 0.4999893
vn -6.280396E-16 -1 -6.280352E-16
vn 5.960336E-08 -0.8660316 0.4999893
vn 1.03239E-07 -0.4999893 0.8660316
vn 1.03239E-07 -0.4999893 0.8660316
vn 1.192093E-07 -6.280342E-16 1
vn 1.192093E-07 -6.280342E-16 1
vn 1.192093E-07 -6.280342E-16 1
vn 1.03239E-07 0.4999893 0.8660316
vn 1.192093E-07 -6.280342E-16 1
vn 1.03239E-07 0.4999893 0.8660316
vn 1 -6.280389E-16 -1.192093E-07
vn 1 -6.280389E-16 -1.192093E-07
vn 1 -6.280389E-16 -1.192093E-07
vn 1 -6.280389E-16 -1.192093E-07
vn 1 -6.280389E-16 -1.192093E-07
vn 1 -6.280389E-16 -1.192093E-07
vn 1 -6.280389E-16 -1.192093E-07
vn 1 -6.280389E-16 -1.192093E-07
vn 1 -6.280389E-16 -1.192093E-07
vn 1 -6.280389E-16 -1.192093E-07
vn 1 -6.280389E-16 -1.192093E-07
vn 1 -6.280389E-16 -1.192093E-07
vn -5.960336E-08 0.8660316 -0.4999893
vn -1.03239E-07 0.4999893 -0.8660316
vn -1.03239E-07 0.4999893 -0.8660316
vn -5.960336E-08 0.8660316 -0.4999893
vn 6.280396E-16 1 6.280352E-16
vn 6.280396E-16 1 6.280352E-16
vn 6.280396E-16 1 6.280352E-16
vn 5.960336E-08 0.8660316 0.4999893
vn 6.280396E-16 1 6.280352E-16
vn 5.960336E-08 0.8660316 0.4999893
vn -1.192093E-07 6.280342E-16 -1
vn -1.192093E-07 6.280342E-16 -1
vn -1.192093E-07 6.280342E-16 -1
vn -1.03239E-07 -0.4999893 -0.8660316
vn -1.192093E-07 6.280342E-16 -1
vn -1.03239E-07 -0.4999893 -0.8660316
vn -5.960336E-08 -0.8660316 -0.4999893
vn -5.960336E-08 -0.8660316 -0.4999893
vn -6.280396E-16 -1 -6.280352E-16
vn -6.280396E-16 -1 -6.280352E-16
vn -6.280396E-16 -1 -6.280352E-16
vn 5.960336E-08 -0.8660316 0.4999893
vn -6.280396E-16 -1 -6.280352E-16
vn 5.960336E-08 -0.8660316 0.4999893
vn 1.03239E-07 -0.4999893 0.8660316
vn 1.03239E-07 -0.4999893 0.8660316
vn 1.192093E-07 -6.280342E-16 1
vn 1.192093E-07 -6.280342E-16 1
vn 1.192093E-07 -6.280342E-16 1
vn 1.03239E-07 0.4999893 0.8660316
vn 1.192093E-07 -6.280342E-16 1
vn 1.03239E-07 0.4999893 0.8660316
vn 1 -6.280389E-16 -1.192093E-07
vn 1 -6.280389E-16 -1.192093E-07
vn 1 -6.280389E-16 -1.192093E-07
vn 1 -6.280389E-16 -1.192093E-07
vn 1 -6.280389E-16 -1.192093E-07
vn 1 -6.280389E-16 -1.192093E-07
vn 1 -6.280389E-16 -1.192093E-07
vn 1 -6.280389E-16 -1.192093E-07
vn 1 -6.280389E-16 -1.192093E-07
vn 1 -6.280389E-16 -1.192093E-07
vn 1 -6.280389E-16 -1.192093E-07
vn 1 -6.280389E-16 -1.192093E-07
g _Combined_Vis29_1_0
f 3/3/3 2/2/2 1/1/1
f 4/4/4 3/3/3 1/1/1
f 4/4/4 1/1/1 5/5/5
f 6/6/6 4/4/4 5/5/5
f 9/9/9 8/8/8 7/7/7
f 8/8/8 10/10/10 7/7/7
f 3/3/3 11/11/11 2/2/2
f 11/11/11 12/12/12 2/2/2
f 15/15/15 14/14/14 13/13/13
f 14/14/14 16/16/16 13/13/13
f 14/14/14 17/17/17 16/16/16
f 17/17/17 18/18/18 16/16/16
f 20/20/20 19/19/19 18/18/18
f 17/17/17 20/20/20 18/18/18
f 23/23/23 22/22/22 21/21/21
f 22/22/22 24/24/24 21/21/21
f 22/22/22 25/25/25 24/24/24
f 25/25/25 26/26/26 24/24/24
f 25/25/25 27/27/27 26/26/26
f 27/27/27 28/28/28 26/26/26
f 31/31/31 30/30/30 29/29/29
f 30/30/30 32/32/32 29/29/29
f 30/30/30 10/10/10 32/32/32
f 10/10/10 8/8/8 32/32/32
f 35/35/35 34/34/34 33/33/33
f 33/33/33 34/34/34 36/36/36
f 34/34/34 37/37/37 36/36/36
f 36/36/36 37/37/37 38/38/38
f 37/37/37 39/39/39 38/38/38
f 38/38/38 39/39/39 40/40/40
f 39/39/39 41/41/41 40/40/40
f 40/40/40 41/41/41 42/42/42
f 41/41/41 43/43/43 42/42/42
f 42/42/42 43/43/43 44/44/44
f 47/47/47 46/46/46 45/45/45
f 48/48/48 47/47/47 45/45/45
f 48/48/48 45/45/45 49/49/49
f 50/50/50 48/48/48 49/49/49
f 53/53/53 52/52/52 51/51/51
f 52/52/52 54/54/54 51/51/51
f 47/47/47 55/55/55 46/46/46
f 55/55/55 56/56/56 46/46/46
f 59/59/59 58/58/58 57/57/57
f 58/58/58 60/60/60 57/57/57
f 58/58/58 61/61/61 60/60/60
f 61/61/61 62/62/62 60/60/60
f 64/64/64 63/63/63 62/62/62
f 61/61/61 64/64/64 62/62/62
f 67/67/67 66/66/66 65/65/65
f 66/66/66 68/68/68 65/65/65
f 66/66/66 69/69/69 68/68/68
f 69/69/69 70/70/70 68/68/68
f 69/69/69 71/71/71 70/70/70
f 71/71/71 72/72/72 70/70/70
f 75/75/75 74/74/74 73/73/73
f 74/74/74 76/76/76 73/73/73
f 74/74/74 54/54/54 76/76/76
f 54/54/54 52/52/52 76/76/76
f 79/79/79 78/78/78 77/77/77
f 77/77/77 78/78/78 80/80/80
f 78/78/78 81/81/81 80/80/80
f 80/80/80 81/81/81 82/82/82
f 81/81/81 83/83/83 82/82/82
f 82/82/82 83/83/83 84/84/84
f 83/83/83 85/85/85 84/84/84
f 84/84/84 85/85/85 86/86/86
f 85/85/85 87/87/87 86/86/86
f 86/86/86 87/87/87 88/88/88
f 91/91/91 90/90/90 89/89/89
f 92/92/92 91/91/91 89/89/89
f 92/92/92 89/89/89 93/93/93
f 94/94/94 92/92/92 93/93/93
f 97/97/97 96/96/96 95/95/95
f 96/96/96 98/98/98 95/95/95
f 91/91/91 99/99/99 90/90/90
f 99/99/99 100/100/100 90/90/90
f 103/103/103 102/102/102 101/101/101
f 102/102/102 104/104/104 101/101/101
f 102/102/102 105/105/105 104/104/104
f 105/105/105 106/106/106 104/104/104
f 108/108/108 107/107/107 106/106/106
f 105/105/105 108/108/108 106/106/106
f 111/111/111 110/110/110 109/109/109
f 110/110/110 112/112/112 109/109/109
f 110/110/110 113/113/113 112/112/112
f 113/113/113 114/114/114 112/112/112
f 113/113/113 115/115/115 114/114/114
f 115/115/115 116/116/116 114/114/114
f 119/119/119 118/118/118 117/117/117
f 118/118/118 120/120/120 117/117/117
f 118/118/118 98/98/98 120/120/120
f 98/98/98 96/96/96 120/120/120
f 123/123/123 122/122/122 121/121/121
f 121/121/121 122/122/122 124/124/124
f 122/122/122 125/125/125 124/124/124
f 124/124/124 125/125/125 126/126/126
f 125/125/125 127/127/127 126/126/126
f 126/126/126 127/127/127 128/128/128
f 127/127/127 129/129/129 128/128/128
f 128/128/128 129/129/129 130/130/130
f 129/129/129 131/131/131 130/130/130
f 130/130/130 131/131/131 132/132/132
f 135/135/135 134/134/134 133/133/133
f 136/136/136 135/135/135 133/133/133
f 136/136/136 133/133/133 137/137/137
f 138/138/138 136/136/136 137/137/137
f 141/141/141 140/140/140 139/139/139
f 140/140/140 142/142/142 139/139/139
f 135/135/135 143/143/143 134/134/134
f 143/143/143 144/144/144 134/134/134
f 147/147/147 146/146/146 145/145/145
f 146/146/146 148/148/148 145/145/145
f 146/146/146 149/149/149 148/148/148
f 149/149/149 150/150/150 148/148/148
f 152/152/152 151/151/151 150/150/150
f 149/149/149 152/152/152 150/150/150
f 155/155/155 154/154/154 153/153/153
f 154/154/154 156/156/156 153/153/153
f 154/154/154 157/157/157 156/156/156
f 157/157/157 158/158/158 156/156/156
f 157/157/157 159/159/159 158/158/158
f 159/159/159 160/160/160 158/158/158
f 163/163/163 162/162/162 161/161/161
f 162/162/162 164/164/164 161/161/161
f 162/162/162 142/142/142 164/164/164
f 142/142/142 140/140/140 164/164/164
f 167/167/167 166/166/166 165/165/165
f 165/165/165 166/166/166 168/168/168
f 166/166/166 169/169/169 168/168/168
f 168/168/168 169/169/169 170/170/170
f 169/169/169 171/171/171 170/170/170
f 170/170/170 171/171/171 172/172/172
f 171/171/171 173/173/173 172/172/172
f 172/172/172 173/173/173 174/174/174
f 173/173/173 175/175/175 174/174/174
f 174/174/174 175/175/175 176/176/176
