g _Combined_AutoVis25_0
v 12.125 -5.75 -6.5
v 12 -5.75 -6.5
v 12 -5.25 -6.5
v 12.125 -5.25 -6.5
v 12.25 -5.75 -6.5
v 12.25 -5.25 -6.5
v 12.375 -5.75 -6.5
v 12.375 -5.25 -6.5
v 12.5 -5.75 -6.5
v 12.5 -5.25 -6.5
v 12.625 -5.75 -6.5
v 12.625 -5.25 -6.5
v 12.75 -5.75 -6.5
v 12.75 -5.25 -6.5
v 12.875 -5.75 -6.5
v 12.875 -5.25 -6.5
v 13 -5.75 -6.5
v 13 -5.25 -6.5
v 13.125 -5.25 -6.5
v 13.125 -5.75 -6.5
v 13.25 -5.25 -6.5
v 13.25 -5.75 -6.5
v 13.375 -5.25 -6.5
v 13.375 -5.75 -6.5
v 13.5 -5.25 -6.5
v 13.5 -5.75 -6.5
v 13.625 -5.25 -6.5
v 13.625 -5.75 -6.5
v 13.75 -5.25 -6.5
v 13.75 -5.75 -6.5
v 13.875 -5.25 -6.5
v 13.875 -5.75 -6.5
v 14 -5.25 -6.5
v 14 -5.75 -6.5
v 14.125 -5.25 -6.5
v 14.125 -5.75 -6.5
v 14.25 -5.25 -6.5
v 14.25 -5.75 -6.5
v 14.375 -5.25 -6.5
v 14.375 -5.75 -6.5
v 14.5 -5.25 -6.5
v 14.5 -5.75 -6.5
v 14.625 -5.25 -6.5
v 14.625 -5.75 -6.5
v 14.75 -5.25 -6.5
v 14.75 -5.75 -6.5
v 14.875 -5.25 -6.5
v 14.875 -5.75 -6.5
v 15 -5.25 -6.5
v 15 -5.75 -6.5
vt 0.041667 0
vt 0 0
vt 0 1
vt 0.041667 1
vt 0.083334 0
vt 0.083334 1
vt 0.125 0
vt 0.125 1
vt 0.166667 0
vt 0.166667 1
vt 0.208333 0
vt 0.208333 1
vt 0.25 0
vt 0.25 1
vt 0.291667 0
vt 0.291667 1
vt 0.333333 0
vt 0.333333 1
vt 0.375 1
vt 0.375 0
vt 0.416667 1
vt 0.416667 0
vt 0.458333 1
vt 0.458333 0
vt 0.5 1
vt 0.5 0
vt 0.541667 1
vt 0.541667 0
vt 0.583333 1
vt 0.583333 0
vt 0.625 1
vt 0.625 0
vt 0.666667 1
vt 0.666667 0
vt 0.708333 1
vt 0.708333 0
vt 0.75 1
vt 0.75 0
vt 0.791667 1
vt 0.791667 0
vt 0.833333 1
vt 0.833333 0
vt 0.875 1
vt 0.875 0
vt 0.916667 1
vt 0.916667 0
vt 0.958333 1
vt 0.958333 0
vt 1 1
vt 1 0
vn -1.192093E-07 0 1
vn -1.192093E-07 0 1
vn -1.192093E-07 0 1
vn -1.192093E-07 0 1
vn -1.192093E-07 0 1
vn -1.192093E-07 0 1
vn -1.192093E-07 0 1
vn -1.192093E-07 0 1
vn -1.192093E-07 0 1
vn -1.192093E-07 0 1
vn -1.192093E-07 0 1
vn -1.192093E-07 0 1
vn -1.192093E-07 0 1
vn -1.192093E-07 0 1
vn -1.192093E-07 0 1
vn -1.192093E-07 0 1
vn -1.192093E-07 0 1
vn -1.192093E-07 0 1
vn -1.192093E-07 0 1
vn -1.192093E-07 0 1
vn -1.192093E-07 0 1
vn -1.192093E-07 0 1
vn -1.192093E-07 0 1
vn -1.192093E-07 0 1
vn -1.192093E-07 0 1
vn -1.192093E-07 0 1
vn -1.192093E-07 0 1
vn -1.192093E-07 0 1
vn -1.192093E-07 0 1
vn -1.192093E-07 0 1
vn -1.192093E-07 0 1
vn -1.192093E-07 0 1
vn -1.192093E-07 0 1
vn -1.192093E-07 0 1
vn -1.192093E-07 0 1
vn -1.192093E-07 0 1
vn -1.192093E-07 0 1
vn -1.192093E-07 0 1
vn -1.192093E-07 0 1
vn -1.192093E-07 0 1
vn -1.192093E-07 0 1
vn -1.192093E-07 0 1
vn -1.192093E-07 0 1
vn -1.192093E-07 0 1
vn -1.192093E-07 0 1
vn -1.192093E-07 0 1
vn -1.192093E-07 0 1
vn -1.192093E-07 0 1
vn -1.192093E-07 0 1
vn -1.192093E-07 0 1
g _Combined_AutoVis25_0_0
f 3/3/3 2/2/2 1/1/1
f 4/4/4 3/3/3 1/1/1
f 4/4/4 1/1/1 5/5/5
f 6/6/6 4/4/4 5/5/5
f 6/6/6 5/5/5 7/7/7
f 8/8/8 6/6/6 7/7/7
f 8/8/8 7/7/7 9/9/9
f 10/10/10 8/8/8 9/9/9
f 10/10/10 9/9/9 11/11/11
f 12/12/12 10/10/10 11/11/11
f 12/12/12 11/11/11 13/13/13
f 14/14/14 12/12/12 13/13/13
f 14/14/14 13/13/13 15/15/15
f 16/16/16 14/14/14 15/15/15
f 16/16/16 15/15/15 17/17/17
f 18/18/18 16/16/16 17/17/17
f 19/19/19 18/18/18 17/17/17
f 20/20/20 19/19/19 17/17/17
f 21/21/21 19/19/19 20/20/20
f 22/22/22 21/21/21 20/20/20
f 23/23/23 21/21/21 22/22/22
f 24/24/24 23/23/23 22/22/22
f 25/25/25 23/23/23 24/24/24
f 26/26/26 25/25/25 24/24/24
f 27/27/27 25/25/25 26/26/26
f 28/28/28 27/27/27 26/26/26
f 29/29/29 27/27/27 28/28/28
f 30/30/30 29/29/29 28/28/28
f 31/31/31 29/29/29 30/30/30
f 32/32/32 31/31/31 30/30/30
f 33/33/33 31/31/31 32/32/32
f 34/34/34 33/33/33 32/32/32
f 35/35/35 33/33/33 34/34/34
f 36/36/36 35/35/35 34/34/34
f 37/37/37 35/35/35 36/36/36
f 38/38/38 37/37/37 36/36/36
f 39/39/39 37/37/37 38/38/38
f 40/40/40 39/39/39 38/38/38
f 41/41/41 39/39/39 40/40/40
f 42/42/42 41/41/41 40/40/40
f 43/43/43 41/41/41 42/42/42
f 44/44/44 43/43/43 42/42/42
f 45/45/45 43/43/43 44/44/44
f 46/46/46 45/45/45 44/44/44
f 47/47/47 45/45/45 46/46/46
f 48/48/48 47/47/47 46/46/46
f 49/49/49 47/47/47 48/48/48
f 50/50/50 49/49/49 48/48/48
