g _Combined_AutoVis32_0
v 0.1249988 0.9999996 -1.25
v 0.1249988 0.9999996 -1
v 0.1249988 0.1249996 -1
v 0.1249988 0.1249996 -1.25
v 0.1249988 0.1249996 -1.25
v 0.1249988 0.1249996 -1
v -0.1250012 0.1249996 -1
v -0.1250012 0.1249996 -1.25
v -0.1250012 0.1249996 -1.25
v -0.1250012 0.1249996 -1
v -0.1250012 0.9999996 -1
v -0.1250012 0.9999996 -1.25
v -0.1250012 0.9999996 -1.25
v -0.1250012 0.9999996 -1
v -1.213949E-06 1.125 -1
v -1.192093E-06 1.125 -1.25
v -1.192093E-06 1.125 -1.25
v -1.213949E-06 1.125 -1
v 0.1249988 0.9999996 -1
v 0.1249988 0.9999996 -1.25
v -0.1250012 0.9999996 -1
v 0.1249988 0.9999996 -1
v -1.213949E-06 1.125 -1
v 0.1249988 0.1249996 -1
v -0.1250012 0.1249996 -1
v -0.1250012 0.1249996 -1.25
v -0.5000012 0.4999996 -1.25
v -0.5000012 -0.5000004 -1.25
v 0.4999988 -0.5000004 -1.25
v -0.1250012 0.9999996 -1.25
v 0.1249988 0.1249996 -1.25
v -0.5000012 1.5 -1.25
v 0.4999988 0.4999996 -1.25
v -1.192093E-06 1.125 -1.25
v 0.1249988 0.9999996 -1.25
v 0.4999988 1.5 -1.25
v -0.5000005 2.5 -1.250001
v 0.4999996 2.5 -1.249999
v 0.4999996 2.5 -0.25
v -0.5000005 2.5 -0.25
v -0.5000017 1.5 -0.25
v -0.5000005 2.5 -0.25
v 0.4999996 2.5 -0.25
v 0.4999994 1.5 -0.25
v -0.5000005 2.5 -0.25
v -0.5000017 1.5 -0.25
v -0.5000012 1.5 -1.25
v -0.5000005 2.5 -1.250001
v -0.5000009 0.4999987 -0.25
v -0.5000012 0.4999996 -1.25
v -0.5000012 1.5 -1.25
v -0.5000017 1.5 -0.25
v -0.5000016 -0.4999995 2.75
v 0.4999985 -0.5000014 2.75
v 0.4999986 -1.5 2.75
v -0.5000015 -1.500001 2.75
v -0.5000015 -0.5000002 1.750001
v -0.5000015 -1.5 1.749999
v -0.5000014 -1.5 0.7499999
v -0.5000014 -0.5000002 0.7499999
v -0.5000015 -1.5 1.749999
v -0.5000015 -0.5000002 1.750001
v -0.5000016 -0.4999995 2.75
v -0.5000015 -1.500001 2.75
v -0.5000012 -0.5000004 -1.25
v -0.5000016 -0.5000013 -0.25
v -0.5000014 -1.5 -0.25
v -0.5000014 -1.5 -1.25
v -0.5000014 -0.5000002 0.7499999
v -0.5000014 -1.5 0.7499999
v -0.5000014 -1.5 -0.25
v -0.5000016 -0.5000013 -0.25
v 0.4999985 -0.5000006 -0.2500011
v 0.4999985 -1.500001 -0.249999
v 0.4999986 -1.500001 0.7500001
v 0.4999986 -0.5000006 0.7500001
v -0.5000016 -0.5000013 -0.25
v 0.4999985 -0.5000006 -0.2500011
v 0.4999986 -0.5000006 0.7500001
v -0.5000014 -0.5000002 0.7499999
v -0.5000012 -0.5000004 -1.25
v -0.5000014 -1.5 -1.25
v 0.4999985 -1.5 -1.25
v 0.4999988 -0.5000004 -1.25
v 0.4999985 -1.500001 -0.249999
v 0.4999985 -0.5000006 -0.2500011
v 0.4999988 -0.5000004 -1.25
v 0.4999985 -1.5 -1.25
v -0.5000016 -0.5000013 -0.25
v -0.5000012 -0.5000004 -1.25
v -0.5000012 0.4999996 -1.25
v -0.5000009 0.4999987 -0.25
v 0.4999985 -0.5000014 2.75
v 0.4999985 -0.5000016 1.75
v 0.4999985 -1.500001 1.75
v 0.4999986 -1.5 2.75
v 0.4999985 -0.5000016 1.75
v 0.4999985 -0.5000014 2.75
v -0.5000016 -0.4999995 2.75
v -0.5000015 -0.5000002 1.750001
v 0.4999988 0.5000005 -0.25
v 0.4999988 0.4999996 -1.25
v 0.4999988 -0.5000004 -1.25
v 0.4999985 -0.5000006 -0.2500011
v 0.4999986 -0.5000006 0.7500001
v 0.4999986 -1.500001 0.7500001
v 0.4999985 -1.500001 1.75
v 0.4999985 -0.5000016 1.75
v -0.5000015 -0.5000002 1.750001
v -0.5000014 -0.5000002 0.7499999
v 0.4999986 -0.5000006 0.7500001
v 0.4999985 -0.5000016 1.75
v -0.5000005 2.5 -1.250001
v -0.5000012 1.5 -1.25
v 0.4999988 1.5 -1.25
v 0.4999996 2.5 -1.249999
v 0.4999988 1.5 -1.25
v 0.4999994 1.5 -0.25
v 0.4999996 2.5 -0.25
v 0.4999996 2.5 -1.249999
v 0.4999994 1.5 -0.25
v 0.4999988 1.5 -1.25
v 0.4999988 0.4999996 -1.25
v 0.4999988 0.5000005 -0.25
v -0.5000017 1.5 -0.25
v 0.4999994 1.5 -0.25
v 0.4999988 0.5000005 -0.25
v -0.5000009 0.4999987 -0.25
v -0.5000009 0.4999987 -0.25
v 0.4999988 0.5000005 -0.25
v 0.4999985 -0.5000006 -0.2500011
v -0.5000016 -0.5000013 -0.25
vt 0.1330531 0.1277263
vt 0.1174281 0.1277263
vt 0.1174281 0.07303875
vt 0.1330531 0.07303875
vt 0.1173109 0.06455525
vt 0.1173109 0.04893025
vt 0.1329359 0.04893025
vt 0.1329359 0.06455525
vt 0.1330531 0.1277263
vt 0.1174281 0.1277263
vt 0.1174281 0.07303875
vt 0.1330531 0.07303875
vt 0.1330531 0.1277263
vt 0.1174281 0.1277263
vt 0.1174281 0.1355388
vt 0.1330531 0.1355388
vt 0.1330531 0.1355388
vt 0.1174281 0.1355388
vt 0.1174281 0.1277263
vt 0.1330531 0.1277263
vt 0.1037436 0.129404
vt 0.0881185 0.129404
vt 0.095931 0.1372165
vt 0.0881185 0.0747165
vt 0.1037435 0.0747165
vt 0.05358375 0.05651075
vt 0.07370988 0.078125
vt 0.07370988 0.020487
vt 0.02004012 0.020487
vt 0.05358375 0.106944
vt 0.04016625 0.05651075
vt 0.07370988 0.135763
vt 0.02004012 0.078125
vt 0.046875 0.1141488
vt 0.04016625 0.106944
vt 0.02004012 0.135763
vt 0.890625 0.359375
vt 0.890625 0.234375
vt 0.765625 0.234375
vt 0.765625 0.359375
vt 0.421875 0.515625
vt 0.421875 0.390625
vt 0.296875 0.390625
vt 0.296875 0.515625
vt 0.421875 0.359375
vt 0.421875 0.234375
vt 0.296875 0.234375
vt 0.296875 0.359375
vt 0.921875 0.828125
vt 0.921875 0.703125
vt 0.796875 0.703125
vt 0.796875 0.828125
vt 0.890625 0.359375
vt 0.890625 0.234375
vt 0.765625 0.234375
vt 0.765625 0.359375
vt 0.921875 0.828125
vt 0.921875 0.703125
vt 0.796875 0.703125
vt 0.796875 0.828125
vt 0.421875 0.359375
vt 0.421875 0.234375
vt 0.296875 0.234375
vt 0.296875 0.359375
vt 0.421875 0.359375
vt 0.421875 0.234375
vt 0.296875 0.234375
vt 0.296875 0.359375
vt 0.921875 0.828125
vt 0.921875 0.703125
vt 0.796875 0.703125
vt 0.796875 0.828125
vt 0.921875 0.828125
vt 0.921875 0.703125
vt 0.796875 0.703125
vt 0.796875 0.828125
vt 0.921875 0.203125
vt 0.921875 0.078125
vt 0.796875 0.078125
vt 0.796875 0.203125
vt 0.890625 0.359375
vt 0.890625 0.234375
vt 0.765625 0.234375
vt 0.765625 0.359375
vt 0.421875 0.359375
vt 0.421875 0.234375
vt 0.296875 0.234375
vt 0.296875 0.359375
vt 0.921875 0.828125
vt 0.921875 0.703125
vt 0.796875 0.703125
vt 0.796875 0.828125
vt 0.421875 0.359375
vt 0.421875 0.234375
vt 0.296875 0.234375
vt 0.296875 0.359375
vt 0.421875 0.515625
vt 0.421875 0.390625
vt 0.296875 0.390625
vt 0.296875 0.515625
vt 0.921875 0.828125
vt 0.921875 0.703125
vt 0.796875 0.703125
vt 0.796875 0.828125
vt 0.921875 0.828125
vt 0.921875 0.703125
vt 0.796875 0.703125
vt 0.796875 0.828125
vt 0.609375 0.828125
vt 0.609375 0.703125
vt 0.484375 0.703125
vt 0.484375 0.828125
vt 0.890625 0.359375
vt 0.890625 0.234375
vt 0.765625 0.234375
vt 0.765625 0.359375
vt 0.421875 0.359375
vt 0.421875 0.234375
vt 0.296875 0.234375
vt 0.296875 0.359375
vt 0.921875 0.828125
vt 0.921875 0.703125
vt 0.796875 0.703125
vt 0.796875 0.828125
vt 0.609375 0.828125
vt 0.609375 0.703125
vt 0.484375 0.703125
vt 0.484375 0.828125
vt 0.921875 0.203125
vt 0.921875 0.078125
vt 0.796875 0.078125
vt 0.796875 0.203125
vn -1 0 -8.742278E-08
vn -1 0 -8.742278E-08
vn -1 0 -8.742278E-08
vn -1 0 -8.742278E-08
vn 0 1 0
vn 0 1 0
vn 0 1 0
vn 0 1 0
vn 1 0 8.742278E-08
vn 1 0 8.742278E-08
vn 1 0 8.742278E-08
vn 1 0 8.742278E-08
vn 0.7071068 -0.7071068 6.181724E-08
vn 0.7071068 -0.7071068 6.181724E-08
vn 0.7071068 -0.7071068 6.181724E-08
vn 0.7071068 -0.7071068 6.181724E-08
vn -0.7071068 -0.7071068 -6.181724E-08
vn -0.7071068 -0.7071068 -6.181724E-08
vn -0.7071068 -0.7071068 -6.181724E-08
vn -0.7071068 -0.7071068 -6.181724E-08
vn 8.742278E-08 8.470329E-22 -1
vn 8.742278E-08 8.470329E-22 -1
vn 8.742278E-08 8.470329E-22 -1
vn 8.742278E-08 8.470329E-22 -1
vn 8.742278E-08 8.470329E-22 -1
vn 8.742278E-08 8.470329E-22 -1
vn 8.742278E-08 8.470329E-22 -1
vn 8.742278E-08 8.470329E-22 -1
vn 8.742278E-08 8.470329E-22 -1
vn 8.742278E-08 8.470329E-22 -1
vn 8.742278E-08 8.470329E-22 -1
vn 8.742278E-08 8.470329E-22 -1
vn 8.742278E-08 8.470329E-22 -1
vn 8.742278E-08 8.470329E-22 -1
vn 8.742278E-08 8.470329E-22 -1
vn 8.742278E-08 8.470329E-22 -1
vn 0 1 0
vn 0 1 0
vn 0 1 0
vn 0 1 0
vn 0 0 1
vn 0 0 1
vn 0 0 1
vn 0 0 1
vn -1 7.105427E-15 -1.192093E-07
vn -1 7.105427E-15 -1.192093E-07
vn -1 7.105427E-15 -1.192093E-07
vn -1 7.105427E-15 -1.192093E-07
vn -1 0 0
vn -1 0 0
vn -1 0 0
vn -1 0 0
vn 0 0 1
vn 0 0 1
vn 0 0 1
vn 0 0 1
vn -1 7.105427E-15 -1.192093E-07
vn -1 7.105427E-15 -1.192093E-07
vn -1 7.105427E-15 -1.192093E-07
vn -1 7.105427E-15 -1.192093E-07
vn -1 7.105427E-15 -1.192093E-07
vn -1 7.105427E-15 -1.192093E-07
vn -1 7.105427E-15 -1.192093E-07
vn -1 7.105427E-15 -1.192093E-07
vn -1 -1.788139E-07 0
vn -1 -1.788139E-07 0
vn -1 -1.788139E-07 0
vn -1 -1.788139E-07 0
vn -1 7.105427E-15 -1.192093E-07
vn -1 7.105427E-15 -1.192093E-07
vn -1 7.105427E-15 -1.192093E-07
vn -1 7.105427E-15 -1.192093E-07
vn 1 -7.105427E-15 -1.192093E-07
vn 1 -7.105427E-15 -1.192093E-07
vn 1 -7.105427E-15 -1.192093E-07
vn 1 -7.105427E-15 -1.192093E-07
vn 0 1 0
vn 0 1 0
vn 0 1 0
vn 0 1 0
vn 8.742278E-08 8.470329E-22 -1
vn 8.742278E-08 8.470329E-22 -1
vn 8.742278E-08 8.470329E-22 -1
vn 8.742278E-08 8.470329E-22 -1
vn 1 -7.105427E-15 -1.192093E-07
vn 1 -7.105427E-15 -1.192093E-07
vn 1 -7.105427E-15 -1.192093E-07
vn 1 -7.105427E-15 -1.192093E-07
vn -1 0 0
vn -1 0 0
vn -1 0 0
vn -1 0 0
vn 1 0 0
vn 1 0 0
vn 1 0 0
vn 1 0 0
vn 7.105427E-15 1 -1.192093E-07
vn 7.105427E-15 1 -1.192093E-07
vn 7.105427E-15 1 -1.192093E-07
vn 7.105427E-15 1 -1.192093E-07
vn 1 0 0
vn 1 0 0
vn 1 0 0
vn 1 0 0
vn 1 -7.105427E-15 -1.192093E-07
vn 1 -7.105427E-15 -1.192093E-07
vn 1 -7.105427E-15 -1.192093E-07
vn 1 -7.105427E-15 -1.192093E-07
vn 7.105427E-15 1 -1.192093E-07
vn 7.105427E-15 1 -1.192093E-07
vn 7.105427E-15 1 -1.192093E-07
vn 7.105427E-15 1 -1.192093E-07
vn 8.742278E-08 8.470329E-22 -1
vn 8.742278E-08 8.470329E-22 -1
vn 8.742278E-08 8.470329E-22 -1
vn 8.742278E-08 8.470329E-22 -1
vn 1 0 0
vn 1 0 0
vn 1 0 0
vn 1 0 0
vn 1 0 0
vn 1 0 0
vn 1 0 0
vn 1 0 0
vn 0 0 1
vn 0 0 1
vn 0 0 1
vn 0 0 1
vn 0 0 1
vn 0 0 1
vn 0 0 1
vn 0 0 1
g _Combined_AutoVis32_0_0
f 3/3/3 2/2/2 1/1/1
f 4/4/4 3/3/3 1/1/1
f 7/7/7 6/6/6 5/5/5
f 8/8/8 7/7/7 5/5/5
f 11/11/11 10/10/10 9/9/9
f 12/12/12 11/11/11 9/9/9
f 15/15/15 14/14/14 13/13/13
f 16/16/16 15/15/15 13/13/13
f 19/19/19 18/18/18 17/17/17
f 20/20/20 19/19/19 17/17/17
f 23/23/23 22/22/22 21/21/21
f 22/22/22 24/24/24 21/21/21
f 24/24/24 25/25/25 21/21/21
f 28/28/28 27/27/27 26/26/26
f 29/29/29 28/28/28 26/26/26
f 26/26/26 27/27/27 30/30/30
f 31/31/31 29/29/29 26/26/26
f 30/30/30 27/27/27 32/32/32
f 31/31/31 33/33/33 29/29/29
f 30/30/30 32/32/32 34/34/34
f 35/35/35 33/33/33 31/31/31
f 32/32/32 36/36/36 34/34/34
f 36/36/36 33/33/33 35/35/35
f 34/34/34 36/36/36 35/35/35
f 39/39/39 38/38/38 37/37/37
f 40/40/40 39/39/39 37/37/37
f 43/43/43 42/42/42 41/41/41
f 44/44/44 43/43/43 41/41/41
f 47/47/47 46/46/46 45/45/45
f 48/48/48 47/47/47 45/45/45
f 51/51/51 50/50/50 49/49/49
f 52/52/52 51/51/51 49/49/49
f 55/55/55 54/54/54 53/53/53
f 56/56/56 55/55/55 53/53/53
f 59/59/59 58/58/58 57/57/57
f 60/60/60 59/59/59 57/57/57
f 63/63/63 62/62/62 61/61/61
f 64/64/64 63/63/63 61/61/61
f 67/67/67 66/66/66 65/65/65
f 68/68/68 67/67/67 65/65/65
f 71/71/71 70/70/70 69/69/69
f 72/72/72 71/71/71 69/69/69
f 75/75/75 74/74/74 73/73/73
f 76/76/76 75/75/75 73/73/73
f 79/79/79 78/78/78 77/77/77
f 80/80/80 79/79/79 77/77/77
f 83/83/83 82/82/82 81/81/81
f 84/84/84 83/83/83 81/81/81
f 87/87/87 86/86/86 85/85/85
f 88/88/88 87/87/87 85/85/85
f 91/91/91 90/90/90 89/89/89
f 92/92/92 91/91/91 89/89/89
f 95/95/95 94/94/94 93/93/93
f 96/96/96 95/95/95 93/93/93
f 99/99/99 98/98/98 97/97/97
f 100/100/100 99/99/99 97/97/97
f 103/103/103 102/102/102 101/101/101
f 104/104/104 103/103/103 101/101/101
f 107/107/107 106/106/106 105/105/105
f 108/108/108 107/107/107 105/105/105
f 111/111/111 110/110/110 109/109/109
f 112/112/112 111/111/111 109/109/109
f 115/115/115 114/114/114 113/113/113
f 116/116/116 115/115/115 113/113/113
f 119/119/119 118/118/118 117/117/117
f 120/120/120 119/119/119 117/117/117
f 123/123/123 122/122/122 121/121/121
f 124/124/124 123/123/123 121/121/121
f 127/127/127 126/126/126 125/125/125
f 128/128/128 127/127/127 125/125/125
f 131/131/131 130/130/130 129/129/129
f 132/132/132 131/131/131 129/129/129
