g _Combined_Vis22_1
v 38.5 -65.5 -15.5
v 37.625 -65.375 -15.5
v 37.5 -65.5 -15.5
v 37.5 -64.5 -15.5
v 38.375 -65.375 -15.5
v 38.375 -64.875 -15.5
v 38.5 -64.5 -15.5
v 38.125 -64.625 -15.5
v 37.625 -64.875 -15.5
v 37.875 -64.625 -15.5
v 32.5 -62.5 -17.5
v 32.5 -62.375 -18.375
v 32.5 -62.5 -18.5
v 32.5 -61.5 -18.5
v 32.5 -62.375 -17.625
v 32.5 -61.875 -17.625
v 32.5 -61.5 -17.5
v 32.5 -61.625 -17.875
v 32.5 -61.875 -18.375
v 32.5 -61.625 -18.125
vt 0.5546875 0.2578125
vt 0.6640625 0.2734375
vt 0.6796875 0.2578125
vt 0.6796875 0.3828125
vt 0.5703125 0.2734375
vt 0.5703125 0.3359375
vt 0.5546875 0.3828125
vt 0.6015625 0.3671875
vt 0.6640625 0.3359375
vt 0.6328125 0.3671875
vt 0.5546875 0.2578125
vt 0.6640625 0.2734375
vt 0.6796875 0.2578125
vt 0.6796875 0.3828125
vt 0.5703125 0.2734375
vt 0.5703125 0.3359375
vt 0.5546875 0.3828125
vt 0.6015625 0.3671875
vt 0.6640625 0.3359375
vt 0.6328125 0.3671875
vn 0 0 -1
vn 0 0 -1
vn 0 0 -1
vn 0 0 -1
vn 0 0 -1
vn 0 0 -1
vn 0 0 -1
vn 0 0 -1
vn 0 0 -1
vn 0 0 -1
vn 1 0 -1.192093E-07
vn 1 0 -1.192093E-07
vn 1 0 -1.192093E-07
vn 1 0 -1.192093E-07
vn 1 0 -1.192093E-07
vn 1 0 -1.192093E-07
vn 1 0 -1.192093E-07
vn 1 0 -1.192093E-07
vn 1 0 -1.192093E-07
vn 1 0 -1.192093E-07
g _Combined_Vis22_1_0
f 3/3/3 2/2/2 1/1/1
f 3/3/3 4/4/4 2/2/2
f 2/2/2 5/5/5 1/1/1
f 5/5/5 6/6/6 1/1/1
f 6/6/6 7/7/7 1/1/1
f 8/8/8 7/7/7 6/6/6
f 4/4/4 7/7/7 8/8/8
f 4/4/4 9/9/9 2/2/2
f 10/10/10 4/4/4 8/8/8
f 9/9/9 4/4/4 10/10/10
f 13/13/13 12/12/12 11/11/11
f 13/13/13 14/14/14 12/12/12
f 12/12/12 15/15/15 11/11/11
f 15/15/15 16/16/16 11/11/11
f 16/16/16 17/17/17 11/11/11
f 18/18/18 17/17/17 16/16/16
f 14/14/14 17/17/17 18/18/18
f 14/14/14 19/19/19 12/12/12
f 20/20/20 14/14/14 18/18/18
f 19/19/19 14/14/14 20/20/20
