g _Combined_WaterVis0_0
v -0.2500001 4 0.375
v -0.2500001 2 0.375
v -0.25 2 -0.3750001
v -0.25 4 -0.3750001
v -0.2500001 5 0.375
v -0.25 5 -0.3750001
v -0.21875 5.5 0.375
v -0.21875 5.5 -0.3750001
v -0.125 5.875 0.375
v -0.125 5.875 -0.3750001
v -2.235174E-08 6 0.3750001
v 2.235174E-08 6 -0.3750001
v -0.300011 4.388692 0.07287999
v -0.300011 3.611308 -1.788205E-08
v -0.300011 4.388692 -0.07288003
vt 0.875 0.499942
vt 0.875 0
vt 0.125 0
vt 0.125 0.499942
vt 0.875 0.749928
vt 0.125 0.749928
vt 0.875 0.8286
vt 0.125 0.8286
vt 0.875 0.9135
vt 0.125 0.9135
vt 0.875 0.999885
vt 0.125 0.999885
vt 0 0
vt 0 0
vt 0 0
vn -1 0 -5.960464E-08
vn -1 0 -5.960464E-08
vn -1 0 -5.960464E-08
vn -1 0 -5.960464E-08
vn -0.9995267 0.03076176 -5.957643E-08
vn -0.9995267 0.03076176 -5.957643E-08
vn -0.9901302 0.1401506 -5.901635E-08
vn -0.9901302 0.1401506 -5.901635E-08
vn -0.9147925 0.4039243 -5.452587E-08
vn -0.9147925 0.4039243 -5.452587E-08
vn -0.7071057 0.7071079 -4.214678E-08
vn -0.7071057 0.7071079 -4.214678E-08
vn -1 0 -5.960464E-08
vn -1 0 -5.960464E-08
vn -1 0 -5.960464E-08
g _Combined_WaterVis0_0_0
f 3/3/3 2/2/2 1/1/1
f 4/4/4 3/3/3 1/1/1
f 4/4/4 1/1/1 5/5/5
f 6/6/6 4/4/4 5/5/5
f 6/6/6 5/5/5 7/7/7
f 8/8/8 6/6/6 7/7/7
f 8/8/8 7/7/7 9/9/9
f 10/10/10 8/8/8 9/9/9
f 10/10/10 9/9/9 11/11/11
f 12/12/12 10/10/10 11/11/11
f 15/15/15 14/14/14 13/13/13
