g _Combined_Vis29_0
v 44.5 -75.5 -21.50003
v 43.5 -75.5 -21.50003
v 43.5 -75.5 -22.50003
v 44.5 -75.5 -22.50003
v 44.5 -75.5 -20.50003
v 43.5 -75.5 -20.50003
v 43.5 -75.5 -21.50003
v 44.5 -75.5 -21.50003
v 43.5 -75.5 -23.50003
v 43.5 -76.5 -23.50003
v 44.5 -76.5 -23.50003
v 44.5 -75.5 -23.50003
v 43.5 -76.5 -23.50003
v 43.5 -77.5 -23.50003
v 44.5 -77.5 -23.50003
v 44.5 -76.5 -23.50003
v 43.5 -77.5 -23.50003
v 43.5 -78.5 -23.50003
v 44.5 -78.5 -23.50003
v 44.5 -77.5 -23.50003
v 43.625 -75.5 -22.75003
v 43.625 -75.625 -22.75003
v 43.75 -75.625 -22.62503
v 43.75 -75.5 -22.62503
v 44.375 -75.5 -23.25003
v 44.375 -75.625 -23.25003
v 44.25 -75.625 -23.37503
v 44.25 -75.5 -23.37503
v 43.75 -75.5 -23.37503
v 43.75 -75.625 -23.37503
v 43.625 -75.625 -23.25003
v 43.625 -75.5 -23.25003
v 43.625 -75.5 -23.25003
v 43.625 -75.625 -23.25003
v 43.625 -75.625 -22.75003
v 43.625 -75.5 -22.75003
v 44.25 -75.5 -22.62503
v 44.25 -75.625 -22.62503
v 44.375 -75.625 -22.75003
v 44.375 -75.5 -22.75003
v 44.25 -75.5 -23.37503
v 44.25 -75.625 -23.37503
v 43.75 -75.625 -23.37503
v 43.75 -75.5 -23.37503
v 44.375 -75.5 -22.75003
v 44.375 -75.625 -22.75003
v 44.375 -75.625 -23.25003
v 44.375 -75.5 -23.25003
v 43.75 -75.5 -22.62503
v 43.75 -75.625 -22.62503
v 44.25 -75.625 -22.62503
v 44.25 -75.5 -22.62503
v 43.625 -75.5 -23.25003
v 43.5 -75.5 -23.50003
v 43.75 -75.5 -23.37503
v 43.625 -75.5 -22.75003
v 44.5 -75.5 -23.50003
v 44.25 -75.5 -23.37503
v 44.375 -75.5 -23.25003
v 43.5 -75.5 -22.50003
v 43.75 -75.5 -22.62503
v 44.25 -75.5 -22.62503
v 44.5 -75.5 -22.50003
v 44.375 -75.5 -22.75003
vt 0.7109375 0.2421875
vt 0.7109375 0.1796875
vt 0.6484375 0.1796875
vt 0.6484375 0.2421875
vt 0.7109375 0.2421875
vt 0.7109375 0.1796875
vt 0.6484375 0.1796875
vt 0.6484375 0.2421875
vt 0.7109375 0.2421875
vt 0.7109375 0.1796875
vt 0.6484375 0.1796875
vt 0.6484375 0.2421875
vt 0.7109375 0.2421875
vt 0.7109375 0.1796875
vt 0.6484375 0.1796875
vt 0.6484375 0.2421875
vt 0.7109375 0.2421875
vt 0.7109375 0.1796875
vt 0.6484375 0.1796875
vt 0.6484375 0.2421875
vt 0.6739063 0.9632522
vt 0.6739063 0.9583303
vt 0.6788281 0.9583303
vt 0.6788281 0.9632522
vt 0.6542187 0.9632522
vt 0.6542187 0.9583303
vt 0.6492969 0.9583303
vt 0.6492969 0.9632522
vt 0.6492969 0.9632522
vt 0.6492969 0.9583303
vt 0.6542187 0.9583303
vt 0.6542187 0.9632522
vt 0.6542187 0.9632522
vt 0.6542187 0.9583303
vt 0.6739063 0.9583303
vt 0.6739063 0.9632522
vt 0.6788281 0.9632522
vt 0.6788281 0.9583303
vt 0.6739063 0.9583303
vt 0.6739063 0.9632522
vt 0.6739063 0.9632522
vt 0.6739063 0.9583303
vt 0.6542187 0.9583303
vt 0.6542187 0.9632522
vt 0.6739063 0.9632522
vt 0.6739063 0.9583303
vt 0.6542187 0.9583303
vt 0.6542187 0.9632522
vt 0.6542187 0.9632522
vt 0.6542187 0.9583303
vt 0.6739063 0.9583303
vt 0.6739063 0.9632522
vt 0.6484375 0.9375
vt 0.6328125 0.9296875
vt 0.640625 0.9453125
vt 0.6796875 0.9375
vt 0.6328125 0.9921875
vt 0.640625 0.9765625
vt 0.6484375 0.984375
vt 0.6953125 0.9296875
vt 0.6875 0.9453125
vt 0.6875 0.9765625
vt 0.6953125 0.9921875
vt 0.6796875 0.984375
vn 0 1 0
vn 0 1 0
vn 0 1 0
vn 0 1 0
vn 0 1 0
vn 0 1 0
vn 0 1 0
vn 0 1 0
vn -6.290182E-16 -8.742278E-08 -1
vn -6.290182E-16 -8.742278E-08 -1
vn -6.290182E-16 -8.742278E-08 -1
vn -6.290182E-16 -8.742278E-08 -1
vn 0 0 -1
vn 0 0 -1
vn 0 0 -1
vn 0 0 -1
vn 0 0 -1
vn 0 0 -1
vn 0 0 -1
vn 0 0 -1
vn 0.7071068 0 -0.7071068
vn 0.7071068 0 -0.7071068
vn 0.7071068 0 -0.7071068
vn 0.7071068 0 -0.7071068
vn -0.7071068 0 0.7071068
vn -0.7071068 0 0.7071068
vn -0.7071068 0 0.7071068
vn -0.7071068 0 0.7071068
vn 0.7071068 0 0.7071068
vn 0.7071068 0 0.7071068
vn 0.7071068 0 0.7071068
vn 0.7071068 0 0.7071068
vn 1 0 0
vn 1 0 0
vn 1 0 0
vn 1 0 0
vn -0.7071068 0 -0.7071068
vn -0.7071068 0 -0.7071068
vn -0.7071068 0 -0.7071068
vn -0.7071068 0 -0.7071068
vn 0 0 1
vn 0 0 1
vn 0 0 1
vn 0 0 1
vn -1 0 0
vn -1 0 0
vn -1 0 0
vn -1 0 0
vn 0 0 -1
vn 0 0 -1
vn 0 0 -1
vn 0 0 -1
vn 0 1 0
vn 0 1 0
vn 0 1 0
vn 0 1 0
vn 0 1 0
vn 0 1 0
vn 0 1 0
vn 0 1 0
vn 0 1 0
vn 0 1 0
vn 0 1 0
vn 0 1 0
g _Combined_Vis29_0_0
f 3/3/3 2/2/2 1/1/1
f 4/4/4 3/3/3 1/1/1
f 7/7/7 6/6/6 5/5/5
f 8/8/8 7/7/7 5/5/5
f 11/11/11 10/10/10 9/9/9
f 12/12/12 11/11/11 9/9/9
f 15/15/15 14/14/14 13/13/13
f 16/16/16 15/15/15 13/13/13
f 19/19/19 18/18/18 17/17/17
f 20/20/20 19/19/19 17/17/17
f 23/23/23 22/22/22 21/21/21
f 24/24/24 23/23/23 21/21/21
f 27/27/27 26/26/26 25/25/25
f 28/28/28 27/27/27 25/25/25
f 31/31/31 30/30/30 29/29/29
f 32/32/32 31/31/31 29/29/29
f 35/35/35 34/34/34 33/33/33
f 36/36/36 35/35/35 33/33/33
f 39/39/39 38/38/38 37/37/37
f 40/40/40 39/39/39 37/37/37
f 43/43/43 42/42/42 41/41/41
f 44/44/44 43/43/43 41/41/41
f 47/47/47 46/46/46 45/45/45
f 48/48/48 47/47/47 45/45/45
f 51/51/51 50/50/50 49/49/49
f 52/52/52 51/51/51 49/49/49
f 55/55/55 54/54/54 53/53/53
f 53/53/53 54/54/54 56/56/56
f 54/54/54 55/55/55 57/57/57
f 55/55/55 58/58/58 57/57/57
f 57/57/57 58/58/58 59/59/59
f 54/54/54 60/60/60 56/56/56
f 56/56/56 60/60/60 61/61/61
f 61/61/61 60/60/60 62/62/62
f 57/57/57 59/59/59 63/63/63
f 60/60/60 63/63/63 62/62/62
f 59/59/59 64/64/64 63/63/63
f 62/62/62 63/63/63 64/64/64
