g _Combined_Vis65_0
v -0.4999931 -2.3125 -0.2499801
v -0.6874933 -2.5 -0.2499802
v -0.6596393 -2.5 -0.2499802
v -3.75577E-06 -2.499999 -0.2499799
v -0.6596393 -2.5 -0.2499802
v -0.6874933 -2.5 -0.2499802
v 0.1875073 -3 -0.2499798
v -3.75577E-06 -2.499999 -0.2499799
v 7.162283E-06 -3.1875 -0.2499798
v 0.5000076 -2.6875 -0.2499797
v 0.5000076 -3 -0.2499797
v 0.6875078 -2.5 -0.2499797
v 0.1875074 -3 2.04439E-05
v 7.200032E-06 -3.1875 2.041559E-05
v -0.1874929 -3 2.032171E-05
v 0.3750075 -2.875 2.048314E-05
v 0.5000076 -3 2.054573E-05
v 0.5000077 -2.6875 2.049109E-05
v -0.3749931 -2.875 2.023876E-05
v -0.4999932 -3 2.021988E-05
v -0.4999931 -2.6875 2.016524E-05
v 0.3750076 -2.125 2.0352E-05
v -0.4999931 -2.3125 2.009968E-05
v -0.6874933 -2.5 2.007137E-05
v -0.374993 -2.125 2.010762E-05
v -0.4999931 -2 2.004504E-05
v -0.1874928 -2 2.014686E-05
v 0.1875075 -2 2.026905E-05
v 7.363945E-06 -1.812499 2.017518E-05
v 0.5000077 -1.999999 2.037088E-05
v 0.5000077 -2.3125 2.042552E-05
v 0.6875079 -2.5 2.05194E-05
v 0.3750077 -2.125 0.2500206
v 0.3750076 -2.125 2.0352E-05
v 0.3750075 -2.875 2.048314E-05
v 0.3750076 -2.875 0.2500207
v 0.5000077 -2.6875 2.049109E-05
v 0.5000076 -2.6875 -0.2499797
v 0.5000076 -3 -0.2499797
v 0.5000076 -3 2.054573E-05
v 0.3750076 -2.875 0.2500207
v 0.3750075 -2.875 2.048314E-05
v -0.3749931 -2.875 2.023876E-05
v -0.374993 -2.875 0.2500205
v -0.374993 -2.875 0.2500205
v -0.3749931 -2.875 2.023876E-05
v -0.374993 -2.125 2.010762E-05
v -0.3749929 -2.125 0.2500204
v -0.4999932 -2.6875 -0.2499801
v -0.187493 -3 -0.2499799
v -0.4999932 -3 -0.24998
v -0.3749929 -2.125 0.2500204
v -0.374993 -2.125 2.010762E-05
v 0.3750076 -2.125 2.0352E-05
v 0.3750077 -2.125 0.2500206
v 7.326196E-06 -1.812499 -0.2499801
v -0.1874928 -2 -0.2499801
v -0.4999931 -2 -0.2499802
v 0.1875075 -2 -0.24998
v 0.5000077 -2.3125 -0.2499798
v 0.5000077 -2 -0.2499799
v 0.5000077 -1.999999 2.037088E-05
v 0.5000077 -2 -0.2499799
v 0.5000077 -2.3125 -0.2499798
v 0.5000077 -2.3125 2.042552E-05
v 0.1875075 -2 2.026905E-05
v 0.1875075 -2 -0.24998
v 0.5000077 -2 -0.2499799
v 0.5000077 -1.999999 2.037088E-05
v -0.4999932 -3 2.021988E-05
v -0.4999932 -3 -0.24998
v -0.4999932 -2.6875 -0.2499801
v -0.4999931 -2.6875 2.016524E-05
v 7.363945E-06 -1.812499 2.017518E-05
v 7.326196E-06 -1.812499 -0.2499801
v 0.1875075 -2 -0.24998
v 0.1875075 -2 2.026905E-05
v 0.5000076 -3 2.054573E-05
v 0.5000076 -3 -0.2499797
v 0.1875073 -3 -0.2499798
v 0.1875074 -3 2.04439E-05
v -0.4999931 -2.6875 2.016524E-05
v -0.4999932 -2.6875 -0.2499801
v -0.6874933 -2.5 -0.2499802
v -0.6874933 -2.5 2.007137E-05
v 0.1875074 -3 2.04439E-05
v 0.1875073 -3 -0.2499798
v 7.162283E-06 -3.1875 -0.2499798
v 7.200032E-06 -3.1875 2.041559E-05
v -0.1874929 -3 2.032171E-05
v -0.187493 -3 -0.2499799
v -0.4999932 -3 -0.24998
v -0.4999932 -3 2.021988E-05
v -0.4999931 -2.3125 2.009968E-05
v -0.4999931 -2.3125 -0.2499801
v -0.4999931 -2 -0.2499802
v -0.4999931 -2 2.004504E-05
v -0.6874933 -2.5 2.007137E-05
v -0.6874933 -2.5 -0.2499802
v -0.4999931 -2.3125 -0.2499801
v -0.4999931 -2.3125 2.009968E-05
v 0.6875079 -2.5 2.05194E-05
v 0.6875078 -2.5 -0.2499797
v 0.5000076 -2.6875 -0.2499797
v 0.5000077 -2.6875 2.049109E-05
v -0.4999931 -2 2.004504E-05
v -0.4999931 -2 -0.2499802
v -0.1874928 -2 -0.2499801
v -0.1874928 -2 2.014686E-05
v 7.200032E-06 -3.1875 2.041559E-05
v 7.162283E-06 -3.1875 -0.2499798
v -0.187493 -3 -0.2499799
v -0.1874929 -3 2.032171E-05
v 0.5000077 -2.3125 2.042552E-05
v 0.5000077 -2.3125 -0.2499798
v 0.6875078 -2.5 -0.2499797
v 0.6875079 -2.5 2.05194E-05
v -0.1874928 -2 2.014686E-05
v -0.1874928 -2 -0.2499801
v 7.326196E-06 -1.812499 -0.2499801
v 7.363945E-06 -1.812499 2.017518E-05
v -0.4999931 -2 2.004504E-05
v 0.5000077 -1.999999 2.037088E-05
v 0.500007 -1.999999 0.2500208
v -0.4999938 -2 0.2500204
v 0.5000076 -3 2.054573E-05
v -0.4999932 -3 2.021988E-05
v -0.499994 -3 0.2500206
v 0.5000069 -3 0.2500209
v 0.5000077 -1.999999 2.037088E-05
v 0.5000076 -3 2.054573E-05
v 0.5000069 -3 0.2500209
v 0.500007 -1.999999 0.2500208
v -0.4999932 -3 2.021988E-05
v -0.4999931 -2 2.004504E-05
v -0.4999938 -2 0.2500204
v -0.499994 -3 0.2500206
v -0.499994 -3 0.2500206
v -0.4999938 -2 0.2500204
v 0.500007 -1.999999 0.2500208
v 0.5000069 -3 0.2500209
v -0.499994 -0.9999993 2.019388E-05
v 0.5000069 -0.9999992 2.051972E-05
v 0.5000069 -0.9999991 0.2500208
v -0.4999939 -0.9999992 0.2500204
v 0.5000077 -1.999999 2.037088E-05
v -0.4999931 -2 2.004504E-05
v -0.4999938 -2 0.2500204
v 0.500007 -1.999999 0.2500208
v 0.5000069 -0.9999992 2.051972E-05
v 0.5000077 -1.999999 2.037088E-05
v 0.500007 -1.999999 0.2500208
v 0.5000069 -0.9999991 0.2500208
v -0.4999931 -2 2.004504E-05
v -0.499994 -0.9999993 2.019388E-05
v -0.4999939 -0.9999992 0.2500204
v -0.4999938 -2 0.2500204
v -0.4999938 -2 0.2500204
v -0.4999939 -0.9999992 0.2500204
v 0.5000069 -0.9999991 0.2500208
v 0.500007 -1.999999 0.2500208
v -0.499994 9.238719E-07 2.019388E-05
v 0.5000068 1.043081E-06 2.051972E-05
v 0.5000069 1.086793E-06 0.2500208
v -0.499994 9.675833E-07 0.2500204
v 0.5000069 -0.9999992 2.051972E-05
v -0.499994 -0.9999993 2.019388E-05
v -0.4999939 -0.9999992 0.2500204
v 0.5000069 -0.9999991 0.2500208
v 0.5000068 1.043081E-06 2.051972E-05
v 0.5000069 -0.9999992 2.051972E-05
v 0.5000069 -0.9999991 0.2500208
v 0.5000069 1.086793E-06 0.2500208
v -0.499994 -0.9999993 2.019388E-05
v -0.499994 9.238719E-07 2.019388E-05
v -0.499994 9.675833E-07 0.2500204
v -0.4999939 -0.9999992 0.2500204
v -0.4999939 -0.9999992 0.2500204
v -0.499994 9.675833E-07 0.2500204
v 0.5000069 1.086793E-06 0.2500208
v 0.5000069 -0.9999991 0.2500208
v -0.499994 -0.9999993 2.019388E-05
v 0.5000069 -0.9999992 2.051972E-05
v 0.5000068 1.043081E-06 2.051972E-05
v -0.499994 9.238719E-07 2.019388E-05
v -0.4999931 -2 2.004504E-05
v 0.5000077 -1.999999 2.037088E-05
v 0.5000069 -0.9999992 2.051972E-05
v -0.499994 -0.9999993 2.019388E-05
v -0.4999932 -3 2.021988E-05
v 0.5000076 -3 2.054573E-05
v 0.5000077 -1.999999 2.037088E-05
v -0.4999931 -2 2.004504E-05
vt 0.28125 0.78125
vt 0.375 0.734375
vt 0.375 0.734375
vt 0.375 0.90625
vt 0.375 0.734375
vt 0.375 0.734375
vt 0.125 0.859375
vt 0.375 0.90625
vt 0.03125 0.90625
vt 0.28125 0.78125
vt 0.125 0.78125
vt 0.375 0.734375
vt 0.4887695 0.949707
vt 0.498535 0.9536133
vt 0.4887695 0.9575195
vt 0.482422 0.946045
vt 0.4887695 0.9436035
vt 0.4731445 0.9436035
vt 0.482422 0.9611818
vt 0.4887695 0.963623
vt 0.4731445 0.963623
vt 0.444336 0.946045
vt 0.4541015 0.963623
vt 0.463379 0.9675292
vt 0.444336 0.9611818
vt 0.4379885 0.963623
vt 0.4379885 0.9575195
vt 0.4379885 0.949707
vt 0.428711 0.9536133
vt 0.4379885 0.9436035
vt 0.4541015 0.9436035
vt 0.463379 0.9396973
vt 0.419922 0.9067383
vt 0.51709 0.9067383
vt 0.51709 0.7495118
vt 0.419922 0.7495118
vt 0.40625 0.9282228
vt 0.40625 0.9777833
vt 0.5307615 0.9777833
vt 0.5307615 0.9282228
vt 0.419922 0.9067383
vt 0.51709 0.9067383
vt 0.51709 0.7495118
vt 0.419922 0.7495118
vt 0.51709 0.7495118
vt 0.419922 0.7495118
vt 0.419922 0.9067383
vt 0.51709 0.9067383
vt 0.28125 0.78125
vt 0.125 0.859375
vt 0.125 0.78125
vt 0.51709 0.7495118
vt 0.419922 0.7495118
vt 0.419922 0.9067383
vt 0.51709 0.9067383
vt 0.03125 0.90625
vt 0.125 0.859375
vt 0.125 0.78125
vt 0.125 0.859375
vt 0.28125 0.78125
vt 0.125 0.78125
vt 0.03125 0.9282228
vt 0.03125 0.9777833
vt 0.28125 0.9777833
vt 0.28125 0.9282228
vt 0.15625 0.9777833
vt 0.15625 0.9282228
vt 0.03125 0.9282228
vt 0.03125 0.9777833
vt 0.5307615 0.9777833
vt 0.5307615 0.9282228
vt 0.40625 0.9282228
vt 0.40625 0.9777833
vt 0.21875 0.9777833
vt 0.21875 0.9282228
vt 0.15625 0.9282228
vt 0.15625 0.9777833
vt 0.03125 0.9282228
vt 0.03125 0.9777833
vt 0.15625 0.9777833
vt 0.15625 0.9282228
vt 0.40625 0.9777833
vt 0.40625 0.9282228
vt 0.34375 0.9282228
vt 0.34375 0.9777833
vt 0.15625 0.9282228
vt 0.15625 0.9777833
vt 0.21875 0.9777833
vt 0.21875 0.9282228
vt 0.28125 0.9282228
vt 0.28125 0.9777833
vt 0.5307615 0.9777833
vt 0.5307615 0.9282228
vt 0.28125 0.9777833
vt 0.28125 0.9282228
vt 0.03125 0.9282228
vt 0.03125 0.9777833
vt 0.34375 0.9777833
vt 0.34375 0.9282228
vt 0.28125 0.9282228
vt 0.28125 0.9777833
vt 0.34375 0.9282228
vt 0.34375 0.9777833
vt 0.40625 0.9777833
vt 0.40625 0.9282228
vt 0.5307615 0.9777833
vt 0.5307615 0.9282228
vt 0.28125 0.9282228
vt 0.28125 0.9777833
vt 0.21875 0.9282228
vt 0.21875 0.9777833
vt 0.28125 0.9777833
vt 0.28125 0.9282228
vt 0.28125 0.9282228
vt 0.28125 0.9777833
vt 0.34375 0.9777833
vt 0.34375 0.9282228
vt 0.28125 0.9777833
vt 0.28125 0.9282228
vt 0.21875 0.9282228
vt 0.21875 0.9777833
vt 0.84375 0.171875
vt 0.96875 0.171875
vt 0.96875 0.15625
vt 0.84375 0.15625
vt 0.84375 0.171875
vt 0.96875 0.171875
vt 0.96875 0.15625
vt 0.84375 0.15625
vt 0.84375 0.171875
vt 0.96875 0.171875
vt 0.96875 0.15625
vt 0.84375 0.15625
vt 0.84375 0.171875
vt 0.96875 0.171875
vt 0.96875 0.15625
vt 0.84375 0.15625
vt 0.9375 0.15625
vt 0.84375 0.15625
vt 0.84375 0.109375
vt 0.9375 0.109375
vt 0.84375 0.171875
vt 0.96875 0.171875
vt 0.96875 0.15625
vt 0.84375 0.15625
vt 0.84375 0.171875
vt 0.96875 0.171875
vt 0.96875 0.15625
vt 0.84375 0.15625
vt 0.84375 0.171875
vt 0.96875 0.171875
vt 0.96875 0.15625
vt 0.84375 0.15625
vt 0.84375 0.171875
vt 0.96875 0.171875
vt 0.96875 0.15625
vt 0.84375 0.15625
vt 0.9375 0.15625
vt 0.84375 0.15625
vt 0.84375 0.109375
vt 0.9375 0.109375
vt 0.84375 0.171875
vt 0.96875 0.171875
vt 0.96875 0.15625
vt 0.84375 0.15625
vt 0.84375 0.171875
vt 0.96875 0.171875
vt 0.96875 0.15625
vt 0.84375 0.15625
vt 0.84375 0.171875
vt 0.96875 0.171875
vt 0.96875 0.15625
vt 0.84375 0.15625
vt 0.84375 0.171875
vt 0.96875 0.171875
vt 0.96875 0.15625
vt 0.84375 0.15625
vt 0.9375 0.15625
vt 0.84375 0.15625
vt 0.84375 0.109375
vt 0.9375 0.109375
vt 0.96875 0.171875
vt 0.96875 0.109375
vt 0.84375 0.109375
vt 0.84375 0.171875
vt 0.96875 0.171875
vt 0.96875 0.109375
vt 0.84375 0.109375
vt 0.84375 0.171875
vt 0.96875 0.171875
vt 0.96875 0.109375
vt 0.84375 0.109375
vt 0.84375 0.171875
vn -1.509959E-07 -1.748455E-07 -1
vn -1.509959E-07 -1.748455E-07 -1
vn -1.509959E-07 -1.748455E-07 -1
vn -1.509959E-07 -1.748455E-07 -1
vn -1.509959E-07 -1.748455E-07 -1
vn -1.509959E-07 -1.748455E-07 -1
vn -1.509959E-07 -1.748455E-07 -1
vn -1.509959E-07 -1.748455E-07 -1
vn -1.509959E-07 -1.748455E-07 -1
vn -1.509959E-07 -1.748455E-07 -1
vn -1.509959E-07 -1.748455E-07 -1
vn -1.509959E-07 -1.748455E-07 -1
vn 1.509959E-07 1.748455E-07 1
vn 1.509959E-07 1.748455E-07 1
vn 1.509959E-07 1.748455E-07 1
vn 1.509959E-07 1.748455E-07 1
vn 1.509959E-07 1.748455E-07 1
vn 1.509959E-07 1.748455E-07 1
vn 1.509959E-07 1.748455E-07 1
vn 1.509959E-07 1.748455E-07 1
vn 1.509959E-07 1.748455E-07 1
vn 1.509959E-07 1.748455E-07 1
vn 1.509959E-07 1.748455E-07 1
vn 1.509959E-07 1.748455E-07 1
vn 1.509959E-07 1.748455E-07 1
vn 1.509959E-07 1.748455E-07 1
vn 1.509959E-07 1.748455E-07 1
vn 1.509959E-07 1.748455E-07 1
vn 1.509959E-07 1.748455E-07 1
vn 1.509959E-07 1.748455E-07 1
vn 1.509959E-07 1.748455E-07 1
vn 1.509959E-07 1.748455E-07 1
vn 1 1.192093E-07 3.258412E-07
vn 1 1.192093E-07 3.258412E-07
vn 1 1.192093E-07 3.258412E-07
vn 1 1.192093E-07 3.258412E-07
vn 1 1.192093E-07 3.258412E-07
vn 1 1.192093E-07 3.258412E-07
vn 1 1.192093E-07 3.258412E-07
vn 1 1.192093E-07 3.258412E-07
vn -1.192093E-07 -1 1.748455E-07
vn -1.192093E-07 -1 1.748455E-07
vn -1.192093E-07 -1 1.748455E-07
vn -1.192093E-07 -1 1.748455E-07
vn -1 -1.192093E-07 -3.258412E-07
vn -1 -1.192093E-07 -3.258412E-07
vn -1 -1.192093E-07 -3.258412E-07
vn -1 -1.192093E-07 -3.258412E-07
vn -1.509959E-07 -1.748455E-07 -1
vn -1.509959E-07 -1.748455E-07 -1
vn -1.509959E-07 -1.748455E-07 -1
vn 1.192093E-07 1 -1.748455E-07
vn 1.192093E-07 1 -1.748455E-07
vn 1.192093E-07 1 -1.748455E-07
vn 1.192093E-07 1 -1.748455E-07
vn -1.509959E-07 -1.748455E-07 -1
vn -1.509959E-07 -1.748455E-07 -1
vn -1.509959E-07 -1.748455E-07 -1
vn -1.509959E-07 -1.748455E-07 -1
vn -1.509959E-07 -1.748455E-07 -1
vn -1.509959E-07 -1.748455E-07 -1
vn 1 1.192093E-07 3.258412E-07
vn 1 1.192093E-07 3.258412E-07
vn 1 1.192093E-07 3.258412E-07
vn 1 1.192093E-07 3.258412E-07
vn 1.192093E-07 1 -1.748455E-07
vn 1.192093E-07 1 -1.748455E-07
vn 1.192093E-07 1 -1.748455E-07
vn 1.192093E-07 1 -1.748455E-07
vn -1 -1.192093E-07 -3.258412E-07
vn -1 -1.192093E-07 -3.258412E-07
vn -1 -1.192093E-07 -3.258412E-07
vn -1 -1.192093E-07 -3.258412E-07
vn 0.7071068 0.7071068 1.0677E-07
vn 0.7071068 0.7071068 1.0677E-07
vn 0.7071068 0.7071068 1.0677E-07
vn 0.7071068 0.7071068 1.0677E-07
vn -1.192093E-07 -1 1.748455E-07
vn -1.192093E-07 -1 1.748455E-07
vn -1.192093E-07 -1 1.748455E-07
vn -1.192093E-07 -1 1.748455E-07
vn -0.7071068 -0.7071068 -1.0677E-07
vn -0.7071068 -0.7071068 -1.0677E-07
vn -0.7071068 -0.7071068 -1.0677E-07
vn -0.7071068 -0.7071068 -1.0677E-07
vn 0.7071068 -0.7071068 3.54039E-07
vn 0.7071068 -0.7071068 3.54039E-07
vn 0.7071068 -0.7071068 3.54039E-07
vn 0.7071068 -0.7071068 3.54039E-07
vn -1.192093E-07 -1 1.748455E-07
vn -1.192093E-07 -1 1.748455E-07
vn -1.192093E-07 -1 1.748455E-07
vn -1.192093E-07 -1 1.748455E-07
vn -1 -1.192093E-07 -3.258412E-07
vn -1 -1.192093E-07 -3.258412E-07
vn -1 -1.192093E-07 -3.258412E-07
vn -1 -1.192093E-07 -3.258412E-07
vn -0.7071068 0.7071068 -3.54039E-07
vn -0.7071068 0.7071068 -3.54039E-07
vn -0.7071068 0.7071068 -3.54039E-07
vn -0.7071068 0.7071068 -3.54039E-07
vn 0.7071068 -0.7071068 3.54039E-07
vn 0.7071068 -0.7071068 3.54039E-07
vn 0.7071068 -0.7071068 3.54039E-07
vn 0.7071068 -0.7071068 3.54039E-07
vn 1.192093E-07 1 -1.748455E-07
vn 1.192093E-07 1 -1.748455E-07
vn 1.192093E-07 1 -1.748455E-07
vn 1.192093E-07 1 -1.748455E-07
vn -0.7071068 -0.7071068 -1.0677E-07
vn -0.7071068 -0.7071068 -1.0677E-07
vn -0.7071068 -0.7071068 -1.0677E-07
vn -0.7071068 -0.7071068 -1.0677E-07
vn 0.7071068 0.7071068 1.0677E-07
vn 0.7071068 0.7071068 1.0677E-07
vn 0.7071068 0.7071068 1.0677E-07
vn 0.7071068 0.7071068 1.0677E-07
vn -0.7071068 0.7071068 -3.54039E-07
vn -0.7071068 0.7071068 -3.54039E-07
vn -0.7071068 0.7071068 -3.54039E-07
vn -0.7071068 0.7071068 -3.54039E-07
vn 1.192093E-07 1 -1.748455E-07
vn 1.192093E-07 1 -1.748455E-07
vn 1.192093E-07 1 -1.748455E-07
vn 1.192093E-07 1 -1.748455E-07
vn -1.192093E-07 -1 1.748455E-07
vn -1.192093E-07 -1 1.748455E-07
vn -1.192093E-07 -1 1.748455E-07
vn -1.192093E-07 -1 1.748455E-07
vn 1 1.192093E-07 3.258412E-07
vn 1 1.192093E-07 3.258412E-07
vn 1 1.192093E-07 3.258412E-07
vn 1 1.192093E-07 3.258412E-07
vn -1 -1.192093E-07 -3.258412E-07
vn -1 -1.192093E-07 -3.258412E-07
vn -1 -1.192093E-07 -3.258412E-07
vn -1 -1.192093E-07 -3.258412E-07
vn 1.509959E-07 1.748455E-07 1
vn 1.509959E-07 1.748455E-07 1
vn 1.509959E-07 1.748455E-07 1
vn 1.509959E-07 1.748455E-07 1
vn 1.192093E-07 1 -1.748455E-07
vn 1.192093E-07 1 -1.748455E-07
vn 1.192093E-07 1 -1.748455E-07
vn 1.192093E-07 1 -1.748455E-07
vn -1.192093E-07 -1 1.748455E-07
vn -1.192093E-07 -1 1.748455E-07
vn -1.192093E-07 -1 1.748455E-07
vn -1.192093E-07 -1 1.748455E-07
vn 1 1.192093E-07 3.258412E-07
vn 1 1.192093E-07 3.258412E-07
vn 1 1.192093E-07 3.258412E-07
vn 1 1.192093E-07 3.258412E-07
vn -1 -1.192093E-07 -3.258412E-07
vn -1 -1.192093E-07 -3.258412E-07
vn -1 -1.192093E-07 -3.258412E-07
vn -1 -1.192093E-07 -3.258412E-07
vn 1.509959E-07 1.748455E-07 1
vn 1.509959E-07 1.748455E-07 1
vn 1.509959E-07 1.748455E-07 1
vn 1.509959E-07 1.748455E-07 1
vn 1.192093E-07 1 -1.748455E-07
vn 1.192093E-07 1 -1.748455E-07
vn 1.192093E-07 1 -1.748455E-07
vn 1.192093E-07 1 -1.748455E-07
vn -1.192093E-07 -1 1.748455E-07
vn -1.192093E-07 -1 1.748455E-07
vn -1.192093E-07 -1 1.748455E-07
vn -1.192093E-07 -1 1.748455E-07
vn 1 1.192093E-07 3.258412E-07
vn 1 1.192093E-07 3.258412E-07
vn 1 1.192093E-07 3.258412E-07
vn 1 1.192093E-07 3.258412E-07
vn -1 -1.192093E-07 -3.258412E-07
vn -1 -1.192093E-07 -3.258412E-07
vn -1 -1.192093E-07 -3.258412E-07
vn -1 -1.192093E-07 -3.258412E-07
vn 1.509959E-07 1.748455E-07 1
vn 1.509959E-07 1.748455E-07 1
vn 1.509959E-07 1.748455E-07 1
vn 1.509959E-07 1.748455E-07 1
vn -1.509959E-07 -1.748455E-07 -1
vn -1.509959E-07 -1.748455E-07 -1
vn -1.509959E-07 -1.748455E-07 -1
vn -1.509959E-07 -1.748455E-07 -1
vn -1.509959E-07 -1.748455E-07 -1
vn -1.509959E-07 -1.748455E-07 -1
vn -1.509959E-07 -1.748455E-07 -1
vn -1.509959E-07 -1.748455E-07 -1
vn -1.509959E-07 -1.748455E-07 -1
vn -1.509959E-07 -1.748455E-07 -1
vn -1.509959E-07 -1.748455E-07 -1
vn -1.509959E-07 -1.748455E-07 -1
g _Combined_Vis65_0_0
f 3/3/3 2/2/2 1/1/1
f 6/6/6 5/5/5 4/4/4
f 9/9/9 8/8/8 7/7/7
f 8/8/8 10/10/10 7/7/7
f 7/7/7 10/10/10 11/11/11
f 8/8/8 12/12/12 10/10/10
f 15/15/15 14/14/14 13/13/13
f 15/15/15 13/13/13 16/16/16
f 16/16/16 13/13/13 17/17/17
f 17/17/17 18/18/18 16/16/16
f 19/19/19 15/15/15 16/16/16
f 20/20/20 15/15/15 19/19/19
f 19/19/19 21/21/21 20/20/20
f 16/16/16 18/18/18 22/22/22
f 23/23/23 21/21/21 19/19/19
f 23/23/23 24/24/24 21/21/21
f 25/25/25 23/23/23 19/19/19
f 26/26/26 23/23/23 25/25/25
f 25/25/25 27/27/27 26/26/26
f 28/28/28 27/27/27 25/25/25
f 22/22/22 28/28/28 25/25/25
f 28/28/28 29/29/29 27/27/27
f 30/30/30 28/28/28 22/22/22
f 22/22/22 31/31/31 30/30/30
f 18/18/18 31/31/31 22/22/22
f 18/18/18 32/32/32 31/31/31
f 35/35/35 34/34/34 33/33/33
f 36/36/36 35/35/35 33/33/33
f 39/39/39 38/38/38 37/37/37
f 40/40/40 39/39/39 37/37/37
f 43/43/43 42/42/42 41/41/41
f 44/44/44 43/43/43 41/41/41
f 47/47/47 46/46/46 45/45/45
f 48/48/48 47/47/47 45/45/45
f 49/49/49 2/2/2 8/8/8
f 50/50/50 49/49/49 8/8/8
f 50/50/50 8/8/8 9/9/9
f 50/50/50 51/51/51 49/49/49
f 54/54/54 53/53/53 52/52/52
f 55/55/55 54/54/54 52/52/52
f 57/57/57 56/56/56 8/8/8
f 1/1/1 57/57/57 8/8/8
f 8/8/8 3/3/3 1/1/1
f 1/1/1 58/58/58 57/57/57
f 8/8/8 56/56/56 59/59/59
f 8/8/8 59/59/59 60/60/60
f 59/59/59 61/61/61 60/60/60
f 60/60/60 12/12/12 8/8/8
f 64/64/64 63/63/63 62/62/62
f 65/65/65 64/64/64 62/62/62
f 68/68/68 67/67/67 66/66/66
f 69/69/69 68/68/68 66/66/66
f 72/72/72 71/71/71 70/70/70
f 73/73/73 72/72/72 70/70/70
f 76/76/76 75/75/75 74/74/74
f 77/77/77 76/76/76 74/74/74
f 80/80/80 79/79/79 78/78/78
f 81/81/81 80/80/80 78/78/78
f 84/84/84 83/83/83 82/82/82
f 85/85/85 84/84/84 82/82/82
f 88/88/88 87/87/87 86/86/86
f 89/89/89 88/88/88 86/86/86
f 92/92/92 91/91/91 90/90/90
f 93/93/93 92/92/92 90/90/90
f 96/96/96 95/95/95 94/94/94
f 97/97/97 96/96/96 94/94/94
f 100/100/100 99/99/99 98/98/98
f 101/101/101 100/100/100 98/98/98
f 104/104/104 103/103/103 102/102/102
f 105/105/105 104/104/104 102/102/102
f 108/108/108 107/107/107 106/106/106
f 109/109/109 108/108/108 106/106/106
f 112/112/112 111/111/111 110/110/110
f 113/113/113 112/112/112 110/110/110
f 116/116/116 115/115/115 114/114/114
f 117/117/117 116/116/116 114/114/114
f 120/120/120 119/119/119 118/118/118
f 121/121/121 120/120/120 118/118/118
f 124/124/124 123/123/123 122/122/122
f 125/125/125 124/124/124 122/122/122
f 128/128/128 127/127/127 126/126/126
f 129/129/129 128/128/128 126/126/126
f 132/132/132 131/131/131 130/130/130
f 133/133/133 132/132/132 130/130/130
f 136/136/136 135/135/135 134/134/134
f 137/137/137 136/136/136 134/134/134
f 140/140/140 139/139/139 138/138/138
f 141/141/141 140/140/140 138/138/138
f 144/144/144 143/143/143 142/142/142
f 145/145/145 144/144/144 142/142/142
f 148/148/148 147/147/147 146/146/146
f 149/149/149 148/148/148 146/146/146
f 152/152/152 151/151/151 150/150/150
f 153/153/153 152/152/152 150/150/150
f 156/156/156 155/155/155 154/154/154
f 157/157/157 156/156/156 154/154/154
f 160/160/160 159/159/159 158/158/158
f 161/161/161 160/160/160 158/158/158
f 164/164/164 163/163/163 162/162/162
f 165/165/165 164/164/164 162/162/162
f 168/168/168 167/167/167 166/166/166
f 169/169/169 168/168/168 166/166/166
f 172/172/172 171/171/171 170/170/170
f 173/173/173 172/172/172 170/170/170
f 176/176/176 175/175/175 174/174/174
f 177/177/177 176/176/176 174/174/174
f 180/180/180 179/179/179 178/178/178
f 181/181/181 180/180/180 178/178/178
f 184/184/184 183/183/183 182/182/182
f 185/185/185 184/184/184 182/182/182
f 188/188/188 187/187/187 186/186/186
f 189/189/189 188/188/188 186/186/186
f 192/192/192 191/191/191 190/190/190
f 193/193/193 192/192/192 190/190/190
