g _Combined_Vis31_0
v 0.4999993 0.374997 -0.1265305
v -0.500001 0.374997 -0.1265303
v -0.500001 0.374997 -0.2515304
v 0.4999993 0.374997 -0.2515305
v 0.4999992 0.249997 -0.3765305
v 0.4999993 0.249997 -0.2515305
v -0.500001 0.249997 -0.2515304
v -0.500001 0.249997 -0.3765304
v -0.500001 0.124997 -0.3765304
v -0.500001 0.124997 -0.5015304
v 0.4999992 0.124997 -0.5015305
v 0.4999992 0.124997 -0.3765305
v 0.4999992 -3E-06 -0.6265306
v 0.4999992 -3E-06 -0.5015305
v -0.500001 -3E-06 -0.5015304
v -0.500001 -3E-06 -0.6265305
v 0.4999993 0.499997 1.549721E-06
v -0.500001 0.499997 1.668931E-06
v -0.500001 0.499997 -0.1265303
v 0.4999993 0.499997 -0.1265305
v -0.500001 -0.125003 -0.6265305
v -0.5000011 -0.125003 -0.7515305
v 0.4999992 -0.125003 -0.7515306
v 0.4999992 -0.125003 -0.6265306
v 0.4999992 -0.250003 -0.8765306
v 0.4999992 -0.250003 -0.7515306
v -0.5000011 -0.250003 -0.7515305
v -0.5000011 -0.250003 -0.8765305
v -0.5000011 -0.375003 -0.8765305
v -0.5000011 -0.375003 -1
v 0.4999992 -0.375003 -0.9999996
v 0.4999992 -0.375003 -0.8765306
v 0.4999992 -0.375003 -0.9999996
v 0.4999992 -0.500003 -0.9999996
v 0.4999993 -0.500003 1.549721E-06
v 0.4999992 -0.375003 -0.8765306
v 0.4999992 -0.250003 -0.8765306
v 0.4999992 -0.250003 -0.7515306
v 0.4999992 -0.125003 -0.7515306
v 0.4999992 -0.125003 -0.6265306
v 0.4999992 -3E-06 -0.6265306
v 0.4999992 -3E-06 -0.5015305
v 0.4999992 0.124997 -0.5015305
v 0.4999992 0.124997 -0.3765305
v 0.4999992 0.249997 -0.3765305
v 0.4999993 0.249997 -0.2515305
v 0.4999993 0.374997 -0.2515305
v 0.4999993 0.374997 -0.1265305
v 0.4999993 0.499997 -0.1265305
v 0.4999993 0.499997 1.549721E-06
v 0.4999992 -0.375003 -0.8765306
v 0.4999992 -0.250003 -0.8765306
v -0.5000011 -0.250003 -0.8765305
v -0.5000011 -0.375003 -0.8765305
v -0.500001 0.124997 -0.3765304
v -0.500001 -3E-06 -0.5015304
v -0.500001 0.124997 -0.5015304
v -0.500001 -0.500003 1.668931E-06
v -0.500001 0.249997 -0.2515304
v -0.500001 0.249997 -0.3765304
v -0.500001 -0.125003 -0.6265305
v -0.500001 -3E-06 -0.6265305
v -0.500001 0.374997 -0.1265303
v -0.500001 0.374997 -0.2515304
v -0.500001 0.499997 1.668931E-06
v -0.500001 0.499997 -0.1265303
v -0.5000011 -0.250003 -0.7515305
v -0.5000011 -0.125003 -0.7515305
v -0.5000011 -0.375003 -0.8765305
v -0.5000011 -0.250003 -0.8765305
v -0.5000011 -0.500003 -1
v -0.5000011 -0.375003 -1
v -0.5000011 -0.125003 -0.7515305
v -0.5000011 -0.250003 -0.7515305
v 0.4999992 -0.250003 -0.7515306
v 0.4999992 -0.125003 -0.7515306
v -0.500001 -3E-06 -0.6265305
v -0.500001 -0.125003 -0.6265305
v 0.4999992 -0.125003 -0.6265306
v 0.4999992 -3E-06 -0.6265306
v -0.500001 0.124997 -0.5015304
v -0.500001 -3E-06 -0.5015304
v 0.4999992 -3E-06 -0.5015305
v 0.4999992 0.124997 -0.5015305
v -0.500001 0.249997 -0.3765304
v -0.500001 0.124997 -0.3765304
v 0.4999992 0.124997 -0.3765305
v 0.4999992 0.249997 -0.3765305
v -0.500001 0.374997 -0.2515304
v -0.500001 0.249997 -0.2515304
v 0.4999993 0.249997 -0.2515305
v 0.4999993 0.374997 -0.2515305
v 0.4999993 0.499997 -0.1265305
v -0.500001 0.499997 -0.1265303
v -0.500001 0.374997 -0.1265303
v 0.4999993 0.374997 -0.1265305
v -0.5000011 -0.375003 -1
v -0.5000011 -0.500003 -1
v 0.4999992 -0.500003 -0.9999996
v 0.4999992 -0.375003 -0.9999996
v 0.4999989 -2.109821 -0.9615727
v 0.4999992 -0.500003 -0.9999996
v 0.499999 -2.500001 -1.000002
v 0.4999989 -1.734634 -0.8477615
v 0.499999 -1.38886 -0.6629416
v 0.499999 -1.085787 -0.414216
v 0.4999991 -0.8370612 -0.1111429
v 0.499999 -0.652241 0.2346307
v 0.4999993 -0.5384294 0.609817
v 0.4999993 -0.4999998 0.9999979
v -0.5000008 -0.4999995 0.9999988
v 0.4999993 -0.4999998 0.9999979
v 0.4999993 -0.5384294 0.609817
v -0.5000008 -0.538429 0.6098174
v 0.499999 -0.652241 0.2346307
v -0.5000008 -0.6522406 0.234631
v 0.4999991 -0.8370612 -0.1111429
v -0.5000009 -0.8370607 -0.1111425
v 0.499999 -1.085787 -0.414216
v -0.500001 -1.085787 -0.4142155
v 0.499999 -1.38886 -0.6629416
v -0.500001 -1.38886 -0.6629414
v 0.4999989 -1.734634 -0.8477615
v -0.500001 -1.734634 -0.847761
v 0.4999989 -2.109821 -0.9615727
v -0.500001 -2.10982 -0.961572
v 0.499999 -2.500001 -1.000002
v -0.5000011 -2.500001 -1.000001
v -0.5000011 -2.500001 -1.000001
v -0.5000011 -0.500003 -1
v -0.500001 -2.10982 -0.961572
v -0.500001 -1.734634 -0.847761
v -0.500001 -1.38886 -0.6629414
v -0.500001 -1.085787 -0.4142155
v -0.5000009 -0.8370607 -0.1111425
v -0.5000008 -0.6522406 0.234631
v -0.5000008 -0.538429 0.6098174
v -0.5000008 -0.4999995 0.9999988
v 0.4999994 0.500001 0.9999983
v 0.4999993 0.499997 1.549721E-06
v 0.4999993 -0.500003 1.549721E-06
v 0.4999993 -0.4999998 0.9999979
v -0.5000018 0.4999999 0.9999985
v -0.500001 0.499997 1.668931E-06
v 0.4999993 0.499997 1.549721E-06
v 0.4999994 0.500001 0.9999983
vt 0.90625 0.1062457
vt 0.84375 0.1062457
vt 0.84375 0.1125419
vt 0.90625 0.1125419
vt 0.90625 0.118838
vt 0.90625 0.1125419
vt 0.84375 0.1125419
vt 0.84375 0.118838
vt 0.84375 0.118838
vt 0.84375 0.1251342
vt 0.90625 0.1251342
vt 0.90625 0.118838
vt 0.90625 0.1314304
vt 0.90625 0.1251342
vt 0.84375 0.1251342
vt 0.84375 0.1314304
vt 0.90625 0.0999495
vt 0.84375 0.0999495
vt 0.84375 0.1062457
vt 0.90625 0.1062457
vt 0.84375 0.1314304
vt 0.84375 0.1377265
vt 0.90625 0.1377265
vt 0.90625 0.1314304
vt 0.90625 0.1440227
vt 0.90625 0.1377265
vt 0.84375 0.1377265
vt 0.84375 0.1440227
vt 0.84375 0.1440227
vt 0.84375 0.1503189
vt 0.90625 0.1503189
vt 0.90625 0.1440227
vt 0.96875 0.1640625
vt 0.96875 0.15625
vt 0.90625 0.15625
vt 0.9609375 0.1640625
vt 0.9609375 0.171875
vt 0.953125 0.171875
vt 0.953125 0.1796875
vt 0.9453125 0.1796875
vt 0.9453125 0.1875
vt 0.9375 0.1875
vt 0.9375 0.1953125
vt 0.9296875 0.1953125
vt 0.9296875 0.203125
vt 0.921875 0.203125
vt 0.921875 0.2109375
vt 0.9140625 0.2109375
vt 0.9140625 0.21875
vt 0.90625 0.21875
vt 0.90625 0.1062457
vt 0.90625 0.1125419
vt 0.96875 0.1125419
vt 0.96875 0.1062457
vt 0.9296875 0.1953125
vt 0.9375 0.1875
vt 0.9375 0.1953125
vt 0.90625 0.15625
vt 0.921875 0.203125
vt 0.9296875 0.203125
vt 0.9453125 0.1796875
vt 0.9453125 0.1875
vt 0.9140625 0.2109375
vt 0.921875 0.2109375
vt 0.90625 0.21875
vt 0.9140625 0.21875
vt 0.953125 0.171875
vt 0.953125 0.1796875
vt 0.9609375 0.1640625
vt 0.9609375 0.171875
vt 0.96875 0.15625
vt 0.96875 0.1640625
vt 0.96875 0.118838
vt 0.96875 0.1125419
vt 0.90625 0.1125419
vt 0.90625 0.118838
vt 0.96875 0.1251342
vt 0.96875 0.118838
vt 0.90625 0.118838
vt 0.90625 0.1251342
vt 0.96875 0.1314304
vt 0.96875 0.1251342
vt 0.90625 0.1251342
vt 0.90625 0.1314304
vt 0.96875 0.1377265
vt 0.96875 0.1314304
vt 0.90625 0.1314304
vt 0.90625 0.1377265
vt 0.96875 0.1440227
vt 0.96875 0.1377265
vt 0.90625 0.1377265
vt 0.90625 0.1440227
vt 0.90625 0.1503189
vt 0.96875 0.1503189
vt 0.96875 0.1440227
vt 0.90625 0.1440227
vt 0.96875 0.1062457
vt 0.96875 0.0999495
vt 0.90625 0.0999495
vt 0.90625 0.1062457
vt 0.9565789 0.2175133
vt 0.9062721 0.2187142
vt 0.9687721 0.2187143
vt 0.9448543 0.2139567
vt 0.9340489 0.2081811
vt 0.9245779 0.2004084
vt 0.9168052 0.1909374
vt 0.9110296 0.180132
vt 0.907473 0.1684074
vt 0.9062721 0.1562143
vt 0.8440674 0.2187713
vt 0.9062499 0.2187714
vt 0.9062499 0.2031489
vt 0.8440674 0.2031488
vt 0.9062499 0.1875264
vt 0.8440674 0.1875263
vt 0.90625 0.1719039
vt 0.8440675 0.1719038
vt 0.90625 0.1562814
vt 0.8440675 0.1562813
vt 0.90625 0.1406589
vt 0.8440676 0.1406588
vt 0.9062501 0.1250364
vt 0.8440676 0.1250363
vt 0.9062501 0.1094138
vt 0.8440676 0.1094138
vt 0.9062501 0.09379134
vt 0.8440676 0.09379133
vt 0.968772 0.1562173
vt 0.9062721 0.1562173
vt 0.9565789 0.1550164
vt 0.9448543 0.1514598
vt 0.9340489 0.1456842
vt 0.9245778 0.1379116
vt 0.9168052 0.1284405
vt 0.9110296 0.1176351
vt 0.907473 0.1059105
vt 0.9062721 0.09371737
vt 0.96875 0.21875
vt 0.96875 0.09375
vt 0.84375 0.09375
vt 0.84375 0.21875
vt 0.71875 0.78125
vt 0.71875 0.65625
vt 0.59375 0.65625
vt 0.59375 0.78125
vn 0 1 0
vn 0 1 0
vn 0 1 0
vn 0 1 0
vn 0 1 0
vn 0 1 0
vn 0 1 0
vn 0 1 0
vn 0 1 0
vn 0 1 0
vn 0 1 0
vn 0 1 0
vn 0 1 0
vn 0 1 0
vn 0 1 0
vn 0 1 0
vn 0 1 0
vn 0 1 0
vn 0 1 0
vn 0 1 0
vn 0 1 0
vn 0 1 0
vn 0 1 0
vn 0 1 0
vn 0 1 0
vn 0 1 0
vn 0 1 0
vn 0 1 0
vn 0 1 0
vn 0 1 0
vn 0 1 0
vn 0 1 0
vn 1 0 -1.192093E-07
vn 1 0 -1.192093E-07
vn 1 0 -1.192093E-07
vn 1 0 -1.192093E-07
vn 1 0 -1.192093E-07
vn 1 0 -1.192093E-07
vn 1 0 -1.192093E-07
vn 1 0 -1.192093E-07
vn 1 0 -1.192093E-07
vn 1 0 -1.192093E-07
vn 1 0 -1.192093E-07
vn 1 0 -1.192093E-07
vn 1 0 -1.192093E-07
vn 1 0 -1.192093E-07
vn 1 0 -1.192093E-07
vn 1 0 -1.192093E-07
vn 1 0 -1.192093E-07
vn 1 0 -1.192093E-07
vn -1.192093E-07 0 -1
vn -1.192093E-07 0 -1
vn -1.192093E-07 0 -1
vn -1.192093E-07 0 -1
vn -1 0 1.192093E-07
vn -1 0 1.192093E-07
vn -1 0 1.192093E-07
vn -1 0 1.192093E-07
vn -1 0 1.192093E-07
vn -1 0 1.192093E-07
vn -1 0 1.192093E-07
vn -1 0 1.192093E-07
vn -1 0 1.192093E-07
vn -1 0 1.192093E-07
vn -1 0 1.192093E-07
vn -1 0 1.192093E-07
vn -1 0 1.192093E-07
vn -1 0 1.192093E-07
vn -1 0 1.192093E-07
vn -1 0 1.192093E-07
vn -1 0 1.192093E-07
vn -1 0 1.192093E-07
vn -1.192093E-07 0 -1
vn -1.192093E-07 0 -1
vn -1.192093E-07 0 -1
vn -1.192093E-07 0 -1
vn -1.192093E-07 0 -1
vn -1.192093E-07 0 -1
vn -1.192093E-07 0 -1
vn -1.192093E-07 0 -1
vn -1.192093E-07 0 -1
vn -1.192093E-07 0 -1
vn -1.192093E-07 0 -1
vn -1.192093E-07 0 -1
vn -1.192093E-07 0 -1
vn -1.192093E-07 0 -1
vn -1.192093E-07 0 -1
vn -1.192093E-07 0 -1
vn -1.192093E-07 0 -1
vn -1.192093E-07 0 -1
vn -1.192093E-07 0 -1
vn -1.192093E-07 0 -1
vn -1.192093E-07 0 -1
vn -1.192093E-07 0 -1
vn -1.192093E-07 0 -1
vn -1.192093E-07 0 -1
vn -1.192093E-07 0 -1
vn -1.192093E-07 0 -1
vn -1.192093E-07 0 -1
vn -1.192093E-07 0 -1
vn 1 0 3.197442E-14
vn 1 0 3.197442E-14
vn 1 0 3.197442E-14
vn 1 0 3.197442E-14
vn 1 0 3.197442E-14
vn 1 0 3.197442E-14
vn 1 0 3.197442E-14
vn 1 0 3.197442E-14
vn 1 0 3.197442E-14
vn 1 0 3.197442E-14
vn 0 -1 0
vn 0 -1 0
vn -6.237905E-15 -0.9807853 0.1950905
vn -6.237905E-15 -0.9807853 0.1950905
vn -1.223609E-14 -0.9238793 0.3826838
vn -1.223609E-14 -0.9238793 0.3826838
vn -1.776405E-14 -0.8314694 0.5555707
vn -1.776405E-14 -0.8314694 0.5555707
vn -2.260933E-14 -0.7071066 0.7071069
vn -2.260933E-14 -0.7071066 0.7071069
vn -2.658577E-14 -0.5555698 0.8314699
vn -2.658577E-14 -0.5555698 0.8314699
vn -2.954052E-14 -0.3826825 0.9238799
vn -2.954052E-14 -0.3826826 0.9238799
vn -3.136005E-14 -0.1950894 0.9807855
vn -3.136005E-14 -0.1950894 0.9807855
vn -3.197442E-14 0 1
vn -3.197442E-14 0 1
vn -1 0 -3.197442E-14
vn -1 0 -3.197442E-14
vn -1 0 -3.197442E-14
vn -1 0 -3.197442E-14
vn -1 0 -3.197442E-14
vn -1 0 -3.197442E-14
vn -1 0 -3.197442E-14
vn -1 0 -3.197442E-14
vn -1 0 -3.197442E-14
vn -1 0 -3.197442E-14
vn 1 0 3.197442E-14
vn 1 0 3.197442E-14
vn 1 0 3.197442E-14
vn 1 0 3.197442E-14
vn 3.811648E-21 1 -1.192093E-07
vn 3.811648E-21 1 -1.192093E-07
vn 3.811648E-21 1 -1.192093E-07
vn 3.811648E-21 1 -1.192093E-07
g _Combined_Vis31_0_0
f 3/3/3 2/2/2 1/1/1
f 4/4/4 3/3/3 1/1/1
f 7/7/7 6/6/6 5/5/5
f 8/8/8 7/7/7 5/5/5
f 11/11/11 10/10/10 9/9/9
f 12/12/12 11/11/11 9/9/9
f 15/15/15 14/14/14 13/13/13
f 16/16/16 15/15/15 13/13/13
f 19/19/19 18/18/18 17/17/17
f 20/20/20 19/19/19 17/17/17
f 23/23/23 22/22/22 21/21/21
f 24/24/24 23/23/23 21/21/21
f 27/27/27 26/26/26 25/25/25
f 28/28/28 27/27/27 25/25/25
f 31/31/31 30/30/30 29/29/29
f 32/32/32 31/31/31 29/29/29
f 35/35/35 34/34/34 33/33/33
f 36/36/36 35/35/35 33/33/33
f 35/35/35 36/36/36 37/37/37
f 38/38/38 35/35/35 37/37/37
f 35/35/35 38/38/38 39/39/39
f 40/40/40 35/35/35 39/39/39
f 35/35/35 40/40/40 41/41/41
f 42/42/42 35/35/35 41/41/41
f 35/35/35 42/42/42 43/43/43
f 44/44/44 35/35/35 43/43/43
f 35/35/35 44/44/44 45/45/45
f 46/46/46 35/35/35 45/45/45
f 35/35/35 46/46/46 47/47/47
f 48/48/48 35/35/35 47/47/47
f 35/35/35 48/48/48 49/49/49
f 50/50/50 35/35/35 49/49/49
f 53/53/53 52/52/52 51/51/51
f 54/54/54 53/53/53 51/51/51
f 57/57/57 56/56/56 55/55/55
f 56/56/56 58/58/58 55/55/55
f 55/55/55 58/58/58 59/59/59
f 60/60/60 55/55/55 59/59/59
f 61/61/61 58/58/58 56/56/56
f 62/62/62 61/61/61 56/56/56
f 59/59/59 58/58/58 63/63/63
f 64/64/64 59/59/59 63/63/63
f 63/63/63 58/58/58 65/65/65
f 66/66/66 63/63/63 65/65/65
f 67/67/67 58/58/58 61/61/61
f 68/68/68 67/67/67 61/61/61
f 58/58/58 67/67/67 69/69/69
f 67/67/67 70/70/70 69/69/69
f 71/71/71 58/58/58 69/69/69
f 72/72/72 71/71/71 69/69/69
f 75/75/75 74/74/74 73/73/73
f 76/76/76 75/75/75 73/73/73
f 79/79/79 78/78/78 77/77/77
f 80/80/80 79/79/79 77/77/77
f 83/83/83 82/82/82 81/81/81
f 84/84/84 83/83/83 81/81/81
f 87/87/87 86/86/86 85/85/85
f 88/88/88 87/87/87 85/85/85
f 91/91/91 90/90/90 89/89/89
f 92/92/92 91/91/91 89/89/89
f 95/95/95 94/94/94 93/93/93
f 96/96/96 95/95/95 93/93/93
f 99/99/99 98/98/98 97/97/97
f 100/100/100 99/99/99 97/97/97
f 103/103/103 102/102/102 101/101/101
f 101/101/101 102/102/102 104/104/104
f 104/104/104 102/102/102 105/105/105
f 105/105/105 102/102/102 106/106/106
f 106/106/106 102/102/102 107/107/107
f 107/107/107 102/102/102 108/108/108
f 108/108/108 102/102/102 109/109/109
f 109/109/109 102/102/102 110/110/110
f 113/113/113 112/112/112 111/111/111
f 114/114/114 113/113/113 111/111/111
f 115/115/115 113/113/113 114/114/114
f 116/116/116 115/115/115 114/114/114
f 117/117/117 115/115/115 116/116/116
f 118/118/118 117/117/117 116/116/116
f 119/119/119 117/117/117 118/118/118
f 120/120/120 119/119/119 118/118/118
f 121/121/121 119/119/119 120/120/120
f 122/122/122 121/121/121 120/120/120
f 123/123/123 121/121/121 122/122/122
f 124/124/124 123/123/123 122/122/122
f 125/125/125 123/123/123 124/124/124
f 126/126/126 125/125/125 124/124/124
f 127/127/127 125/125/125 126/126/126
f 128/128/128 127/127/127 126/126/126
f 131/131/131 130/130/130 129/129/129
f 132/132/132 130/130/130 131/131/131
f 133/133/133 130/130/130 132/132/132
f 134/134/134 130/130/130 133/133/133
f 135/135/135 130/130/130 134/134/134
f 136/136/136 130/130/130 135/135/135
f 137/137/137 130/130/130 136/136/136
f 138/138/138 130/130/130 137/137/137
f 141/141/141 140/140/140 139/139/139
f 142/142/142 141/141/141 139/139/139
f 145/145/145 144/144/144 143/143/143
f 146/146/146 145/145/145 143/143/143
