g _Combined_Vis15_0
v 9.999998 -4.5 123.5
v 11 -4.5 123.5
v 11 -4.75 123.5
v 9.999998 -4.75 123.5
v 11 -4.5 122.5
v 9.999998 -4.5 122.5
v 9.999998 -4.75 122.5
v 11 -4.75 122.5
v 11 -4.5 123.5
v 11 -4.5 122.5
v 11 -4.75 122.5
v 11 -4.75 123.5
v 9.999998 -4.5 122.5
v 9.999998 -4.5 123.5
v 9.999998 -4.75 123.5
v 9.999998 -4.75 122.5
v 9.999998 -4.75 122.5
v 9.999998 -4.75 123.5
v 11 -4.75 123.5
v 11 -4.75 122.5
v 9.999998 -4.5 122.5
v 11 -4.5 122.5
v 11 -4.5 123.5
v 9.999998 -4.5 123.5
vt 0.78125 0.296875
vt 0.90625 0.296875
vt 0.90625 0.28125
vt 0.78125 0.28125
vt 0.78125 0.296875
vt 0.90625 0.296875
vt 0.90625 0.28125
vt 0.78125 0.28125
vt 0.78125 0.296875
vt 0.90625 0.296875
vt 0.90625 0.28125
vt 0.78125 0.28125
vt 0.78125 0.296875
vt 0.90625 0.296875
vt 0.90625 0.28125
vt 0.78125 0.28125
vt 0.875 0.28125
vt 0.78125 0.28125
vt 0.78125 0.234375
vt 0.875 0.234375
vt 0.53125 0.703125
vt 0.53125 0.640625
vt 0.40625 0.640625
vt 0.40625 0.703125
vn 0 0 1
vn 0 0 1
vn 0 0 1
vn 0 0 1
vn 0 0 -1
vn 0 0 -1
vn 0 0 -1
vn 0 0 -1
vn 1 0 0
vn 1 0 0
vn 1 0 0
vn 1 0 0
vn -1 0 0
vn -1 0 0
vn -1 0 0
vn -1 0 0
vn 0 -1 0
vn 0 -1 0
vn 0 -1 0
vn 0 -1 0
vn 0 1 0
vn 0 1 0
vn 0 1 0
vn 0 1 0
g _Combined_Vis15_0_0
f 3/3/3 2/2/2 1/1/1
f 4/4/4 3/3/3 1/1/1
f 7/7/7 6/6/6 5/5/5
f 8/8/8 7/7/7 5/5/5
f 11/11/11 10/10/10 9/9/9
f 12/12/12 11/11/11 9/9/9
f 15/15/15 14/14/14 13/13/13
f 16/16/16 15/15/15 13/13/13
f 19/19/19 18/18/18 17/17/17
f 20/20/20 19/19/19 17/17/17
f 23/23/23 22/22/22 21/21/21
f 24/24/24 23/23/23 21/21/21
