g _Combined_WaterVis18_0
v 0.2500001 -2 -0.3749986
v 0.2500001 -4 -0.3749986
v 0.25 -4 0.3750017
v 0.25 -2 0.3750017
v 0.2500001 -1 -0.3749986
v 0.25 -1 0.3750017
v 0.2187501 -0.5 -0.3749986
v 0.21875 -0.5 0.3750017
v 0.1250001 -0.125 -0.3749986
v 0.125 -0.125 0.3750017
v 2.919129E-08 0 -0.3749986
v -6.02157E-08 0 0.3750017
v 0.3000111 -1.611308 -0.07287847
v 0.3000111 -2.388692 1.561635E-06
v 0.3000111 -1.611308 0.07288159
v 0.2500001 -4 -0.3749986
v 0.2500001 -8 -0.3749986
v 0.25 -8 0.3750017
v 0.25 -4 0.3750017
v 0.3000111 -5.611308 -0.07287847
v 0.3000111 -6.388692 1.561635E-06
v 0.3000111 -5.611308 0.07288159
v -1 0 -0.3749986
v 2.919129E-08 0 -0.3749986
v -6.02157E-08 0 0.3750017
v -1 0 0.3750016
v -0.5971733 0.050011 -0.07287847
v -0.4028273 0.050011 1.581166E-06
v -0.5971733 0.050011 0.07288159
v 0.2500001 -8 -0.3749986
v 0.2499999 -12 -0.3749987
v 0.2500002 -12 0.3750016
v 0.25 -8 0.3750017
v 0.3000111 -9.611308 -0.07287861
v 0.3000111 -10.38869 1.418579E-06
v 0.3000111 -9.611308 0.07288145
v 0.2499999 -12 -0.3749987
v 0.2499999 -16 -0.3749987
v 0.2500002 -16 0.3750016
v 0.2500002 -12 0.3750016
v 0.3000111 -13.61131 -0.07287861
v 0.3000111 -14.38869 1.418579E-06
v 0.3000111 -13.61131 0.07288145
vt 0.875 0.499942
vt 0.875 0
vt 0.125 0
vt 0.125 0.499942
vt 0.875 0.749928
vt 0.125 0.749928
vt 0.875 0.8286
vt 0.125 0.8286
vt 0.875 0.9135
vt 0.125 0.9135
vt 0.875 0.999885
vt 0.125 0.999885
vt 0 0
vt 0 0
vt 0 0
vt 0.875 0.999885
vt 0.875 0
vt 0.125 0
vt 0.125 0.999885
vt 0 0
vt 0 0
vt 0 0
vt 0.875 0.999885
vt 0.875 0
vt 0.125 0
vt 0.125 0.999885
vt 0 0
vt 0 0
vt 0 0
vt 0.875 0.999885
vt 0.875 0
vt 0.125 0
vt 0.125 0.999885
vt 0 0
vt 0 0
vt 0 0
vt 0.875 0.999885
vt 0.875 0
vt 0.125 0
vt 0.125 0.999885
vt 0 0
vt 0 0
vt 0 0
vn 1 0 1.192093E-07
vn 1 0 1.192093E-07
vn 1 0 1.192093E-07
vn 1 0 1.192093E-07
vn 0.9995267 0.03076176 1.191529E-07
vn 0.9995267 0.03076176 1.191529E-07
vn 0.9901302 0.1401506 1.180327E-07
vn 0.9901302 0.1401506 1.180327E-07
vn 0.9147925 0.4039243 1.090517E-07
vn 0.9147925 0.4039243 1.090517E-07
vn 0.7071057 0.7071079 8.429355E-08
vn 0.7071057 0.7071079 8.429355E-08
vn 1 0 1.192093E-07
vn 1 0 1.192093E-07
vn 1 0 1.192093E-07
vn 1 0 1.192093E-07
vn 1 0 1.192093E-07
vn 1 0 1.192093E-07
vn 1 0 1.192093E-07
vn 1 0 1.192093E-07
vn 1 0 1.192093E-07
vn 1 0 1.192093E-07
vn 0 1 0
vn 0 1 0
vn 0 1 0
vn 0 1 0
vn 0 1 0
vn 0 1 0
vn 0 1 0
vn 1 0 -3.576279E-07
vn 1 0 -3.576279E-07
vn 1 0 -3.576279E-07
vn 1 0 -3.576279E-07
vn 1 0 -3.576279E-07
vn 1 0 -3.576279E-07
vn 1 0 -3.576279E-07
vn 1 0 -3.576279E-07
vn 1 0 -3.576279E-07
vn 1 0 -3.576279E-07
vn 1 0 -3.576279E-07
vn 1 0 -3.576279E-07
vn 1 0 -3.576279E-07
vn 1 0 -3.576279E-07
g _Combined_WaterVis18_0_0
f 3/3/3 2/2/2 1/1/1
f 4/4/4 3/3/3 1/1/1
f 4/4/4 1/1/1 5/5/5
f 6/6/6 4/4/4 5/5/5
f 6/6/6 5/5/5 7/7/7
f 8/8/8 6/6/6 7/7/7
f 8/8/8 7/7/7 9/9/9
f 10/10/10 8/8/8 9/9/9
f 10/10/10 9/9/9 11/11/11
f 12/12/12 10/10/10 11/11/11
f 15/15/15 14/14/14 13/13/13
f 18/18/18 17/17/17 16/16/16
f 19/19/19 18/18/18 16/16/16
f 22/22/22 21/21/21 20/20/20
f 25/25/25 24/24/24 23/23/23
f 26/26/26 25/25/25 23/23/23
f 29/29/29 28/28/28 27/27/27
f 32/32/32 31/31/31 30/30/30
f 33/33/33 32/32/32 30/30/30
f 36/36/36 35/35/35 34/34/34
f 39/39/39 38/38/38 37/37/37
f 40/40/40 39/39/39 37/37/37
f 43/43/43 42/42/42 41/41/41
