g _Combined_Vis72_0
v -32.50002 -1.000006 27.60006
v -32.00002 -1.000006 27.50006
v -32.50002 -0.9378152 27.50006
v -31.50002 -0.3420579 28.50006
v -31.63856 -5.602837E-06 28.50006
v -31.50002 -5.602837E-06 28.35722
v -32.50002 -5.602837E-06 27.50006
v -31.63856 -5.602837E-06 28.50006
v -32.50002 -5.602837E-06 28.50006
v -31.50002 -5.602837E-06 27.50006
v -31.50002 -5.602837E-06 28.35722
v -31.50002 -1.000006 27.50006
v -32.50002 -1.000006 28.50006
v -31.50002 -1.000006 28.50006
v -32.00002 -1.000006 27.50006
v -32.50002 -1.000006 27.60006
v -31.50002 -5.602837E-06 27.50006
v -32.50002 -5.602837E-06 27.50006
v -31.50002 -1.000006 27.50006
v -32.50002 -0.9378152 27.50006
v -32.00002 -1.000006 27.50006
v -32.50002 -5.602837E-06 28.50006
v -32.50002 -0.9378152 27.50006
v -32.50002 -5.602837E-06 27.50006
v -32.50002 -1.000006 28.50006
v -32.50002 -1.000006 27.60006
v -31.63856 -5.602837E-06 28.50006
v -32.50002 -1.000006 28.50006
v -32.50002 -5.602837E-06 28.50006
v -31.50002 -0.3420579 28.50006
v -31.50002 -1.000006 28.50006
v -31.50002 -5.602837E-06 27.50006
v -31.50002 -0.3420579 28.50006
v -31.50002 -5.602837E-06 28.35722
v -31.50002 -1.000006 27.50006
v -31.50002 -1.000006 28.50006
v -32.50002 -5.602837E-06 27.50006
v -33.5001 -0.0001111031 27.50037
v -33.5001 -1.000111 27.50037
v -32.5001 -1.000111 27.50037
v -32.50002 -5.602837E-06 28.50006
v -32.50002 -5.602837E-06 27.50006
v -32.5001 -1.000111 27.50037
v -32.50002 -1.000006 28.50006
v -33.5001 -0.0001111031 27.50037
v -38.50016 -0.0001100898 27.50037
v -38.50016 -1.00011 27.50037
v -33.5001 -1.000111 27.50037
vt 0.6999661 0.6775543
vt 0.6741586 0.6787549
vt 0.6990944 0.6836491
vt 0.6978073 0.6978376
vt 0.6776082 0.6890067
vt 0.675975 0.7008724
vt 0.734375 0.640625
vt 0.703125 0.6675455
vt 0.703125 0.640625
vt 0.734375 0.671875
vt 0.7075886 0.671875
vt 0.734375 0.671875
vt 0.703125 0.640625
vt 0.703125 0.671875
vt 0.734375 0.65625
vt 0.73125 0.640625
vt 0.703125 0.671875
vt 0.703125 0.640625
vt 0.671875 0.671875
vt 0.6738184 0.640625
vt 0.671875 0.65625
vt 0.734375 0.671875
vt 0.703125 0.7011815
vt 0.703125 0.671875
vt 0.734375 0.703125
vt 0.70625 0.703125
vt 0.703125 0.6675455
vt 0.671875 0.640625
vt 0.703125 0.640625
vt 0.6924359 0.671875
vt 0.671875 0.671875
vt 0.734375 0.703125
vt 0.703125 0.6924359
vt 0.7075886 0.703125
vt 0.734375 0.671875
vt 0.703125 0.671875
vt 0.734375 0.703125
vt 0.734375 0.640625
vt 0.671875 0.640625
vt 0.671875 0.703125
vt 0.734375 0.703125
vt 0.734375 0.640625
vt 0.671875 0.640625
vt 0.671875 0.703125
vt 0.734375 0.703125
vt 0.734375 0.640625
vt 0.671875 0.640625
vt 0.671875 0.703125
vn -0.105016 -0.844492 -0.5251714
vn -0.105016 -0.844492 -0.5251714
vn -0.105016 -0.844492 -0.5251714
vn 0.6892778 0.2791598 0.6685551
vn 0.6892778 0.2791598 0.6685551
vn 0.6892778 0.2791598 0.6685551
vn 9.947594E-14 1 0
vn 9.947594E-14 1 0
vn 9.947594E-14 1 0
vn 9.947594E-14 1 0
vn 9.947594E-14 1 0
vn -9.947594E-14 -1 0
vn -9.947594E-14 -1 0
vn -9.947594E-14 -1 0
vn -9.947594E-14 -1 0
vn -9.947594E-14 -1 0
vn -1.192092E-07 -6.77626E-21 -1
vn -1.192092E-07 -6.77626E-21 -1
vn -1.192092E-07 -6.77626E-21 -1
vn -1.192092E-07 -6.77626E-21 -1
vn -1.192092E-07 -6.77626E-21 -1
vn -1 -1.278977E-13 1.192093E-07
vn -1 -1.278977E-13 1.192093E-07
vn -1 -1.278977E-13 1.192093E-07
vn -1 -1.278977E-13 1.192093E-07
vn -1 -1.278977E-13 1.192093E-07
vn 1.192092E-07 6.77626E-21 1
vn 1.192092E-07 6.77626E-21 1
vn 1.192092E-07 6.77626E-21 1
vn 1.192092E-07 6.77626E-21 1
vn 1.192092E-07 6.77626E-21 1
vn 1 1.278977E-13 -1.192093E-07
vn 1 1.278977E-13 -1.192093E-07
vn 1 1.278977E-13 -1.192093E-07
vn 1 1.278977E-13 -1.192093E-07
vn 1 1.278977E-13 -1.192093E-07
vn -8.429364E-08 -8.429365E-08 -1
vn -8.429364E-08 -8.429365E-08 -1
vn -8.429364E-08 -8.429365E-08 -1
vn -8.429364E-08 -8.429365E-08 -1
vn 1 -1.788139E-07 -2.384187E-07
vn 1 -1.788139E-07 -2.384187E-07
vn 1 -1.788139E-07 -2.384187E-07
vn 1 -1.788139E-07 -2.384187E-07
vn 3.517007E-14 0 -1
vn 3.517007E-14 0 -1
vn 3.517007E-14 0 -1
vn 3.517007E-14 0 -1
g _Combined_Vis72_0_0
f 3/3/3 2/2/2 1/1/1
f 6/6/6 5/5/5 4/4/4
f 9/9/9 8/8/8 7/7/7
f 7/7/7 8/8/8 10/10/10
f 10/10/10 8/8/8 11/11/11
f 14/14/14 13/13/13 12/12/12
f 13/13/13 15/15/15 12/12/12
f 16/16/16 15/15/15 13/13/13
f 19/19/19 18/18/18 17/17/17
f 20/20/20 18/18/18 19/19/19
f 21/21/21 20/20/20 19/19/19
f 24/24/24 23/23/23 22/22/22
f 22/22/22 23/23/23 25/25/25
f 23/23/23 26/26/26 25/25/25
f 29/29/29 28/28/28 27/27/27
f 27/27/27 28/28/28 30/30/30
f 30/30/30 28/28/28 31/31/31
f 34/34/34 33/33/33 32/32/32
f 32/32/32 33/33/33 35/35/35
f 33/33/33 36/36/36 35/35/35
f 39/39/39 38/38/38 37/37/37
f 40/40/40 39/39/39 37/37/37
f 43/43/43 42/42/42 41/41/41
f 44/44/44 43/43/43 41/41/41
f 47/47/47 46/46/46 45/45/45
f 48/48/48 47/47/47 45/45/45
