g _CombinedMountain_PCPORT16_0
v -20.45097 30.07502 2.748237
v -20.18593 31.03815 2.702054
v -18.1285 29.79581 -0.5726311
v -20.18593 31.03815 2.702054
v -20.90903 31.20499 2.03176
v -18.1285 29.79581 -0.5726311
v -20.90903 31.20499 2.03176
v -21.17407 30.24186 2.077944
v -18.1285 29.79581 -0.5726311
v -18.1285 29.79581 -0.5726311
v -21.17407 30.24186 2.077944
v -20.45097 30.07502 2.748237
v -20.45097 30.07502 2.748237
v -21.17407 30.24186 2.077944
v -20.90903 31.20499 2.03176
v -20.18593 31.03815 2.702054
v -21.21097 34.28502 5.288237
v -20.94593 35.24815 5.242053
v -18.8885 34.00581 1.967368
v -20.94593 35.24815 5.242053
v -21.66903 35.41499 4.571759
v -18.8885 34.00581 1.967368
v -21.66903 35.41499 4.571759
v -21.93407 34.45186 4.617943
v -18.8885 34.00581 1.967368
v -18.8885 34.00581 1.967368
v -21.93407 34.45186 4.617943
v -21.21097 34.28502 5.288237
v -21.21097 34.28502 5.288237
v -21.93407 34.45186 4.617943
v -21.66903 35.41499 4.571759
v -20.94593 35.24815 5.242053
v -36.90097 18.40502 -8.091766
v -36.63593 19.36815 -8.13795
v -34.5785 18.12581 -11.41264
v -36.63593 19.36815 -8.13795
v -37.35903 19.53499 -8.808245
v -34.5785 18.12581 -11.41264
v -37.35903 19.53499 -8.808245
v -37.62407 18.57186 -8.762061
v -34.5785 18.12581 -11.41264
v -34.5785 18.12581 -11.41264
v -37.62407 18.57186 -8.762061
v -36.90097 18.40502 -8.091766
v -36.90097 18.40502 -8.091766
v -37.62407 18.57186 -8.762061
v -37.35903 19.53499 -8.808245
v -36.63593 19.36815 -8.13795
v -41.85096 19.78502 -8.351761
v -41.58592 20.74815 -8.397944
v -39.52849 19.50581 -11.67263
v -41.58592 20.74815 -8.397944
v -42.30902 20.91499 -9.068239
v -39.52849 19.50581 -11.67263
v -42.30902 20.91499 -9.068239
v -42.57406 19.95186 -9.022056
v -39.52849 19.50581 -11.67263
v -39.52849 19.50581 -11.67263
v -42.57406 19.95186 -9.022056
v -41.85096 19.78502 -8.351761
v -41.85096 19.78502 -8.351761
v -42.57406 19.95186 -9.022056
v -42.30902 20.91499 -9.068239
v -41.58592 20.74815 -8.397944
vt 0.765625 0.5390625
vt 0.640625 0.5390625
vt 0.703125 0.6015625
vt 0.765625 0.5390625
vt 0.640625 0.5390625
vt 0.703125 0.6015625
vt 0.640625 0.5390625
vt 0.765625 0.5390625
vt 0.703125 0.6015625
vt 0.703125 0.6015625
vt 0.640625 0.5390625
vt 0.765625 0.5390625
vt 0.765625 0.6015625
vt 0.734375 0.6015625
vt 0.734375 0.5859375
vt 0.765625 0.5859375
vt 0.765625 0.5390625
vt 0.640625 0.5390625
vt 0.703125 0.6015625
vt 0.765625 0.5390625
vt 0.640625 0.5390625
vt 0.703125 0.6015625
vt 0.640625 0.5390625
vt 0.765625 0.5390625
vt 0.703125 0.6015625
vt 0.703125 0.6015625
vt 0.640625 0.5390625
vt 0.765625 0.5390625
vt 0.765625 0.6015625
vt 0.734375 0.6015625
vt 0.734375 0.5859375
vt 0.765625 0.5859375
vt 0.765625 0.5390625
vt 0.640625 0.5390625
vt 0.703125 0.6015625
vt 0.765625 0.5390625
vt 0.640625 0.5390625
vt 0.703125 0.6015625
vt 0.640625 0.5390625
vt 0.765625 0.5390625
vt 0.703125 0.6015625
vt 0.703125 0.6015625
vt 0.640625 0.5390625
vt 0.765625 0.5390625
vt 0.765625 0.6015625
vt 0.734375 0.6015625
vt 0.734375 0.5859375
vt 0.765625 0.5859375
vt 0.765625 0.5390625
vt 0.640625 0.5390625
vt 0.703125 0.6015625
vt 0.765625 0.5390625
vt 0.640625 0.5390625
vt 0.703125 0.6015625
vt 0.640625 0.5390625
vt 0.765625 0.5390625
vt 0.703125 0.6015625
vt 0.703125 0.6015625
vt 0.640625 0.5390625
vt 0.765625 0.5390625
vt 0.765625 0.6015625
vt 0.734375 0.6015625
vt 0.734375 0.5859375
vt 0.765625 0.5859375
vn 0.7966293 -0.1917328 0.5732541
vn 0.7966293 -0.1917328 0.5732541
vn 0.7966293 -0.1917328 0.5732541
vn 0.3421093 0.9295173 -0.1376911
vn 0.3421093 0.9295173 -0.1376911
vn 0.3421093 0.9295173 -0.1376911
vn -0.6383972 0.1393796 -0.7569824
vn -0.6383972 0.1393796 -0.7569824
vn -0.6383972 0.1393796 -0.7569824
vn -0.1838772 -0.9818705 -0.04603722
vn -0.1838772 -0.9818705 -0.04603722
vn -0.1838772 -0.9818705 -0.04603722
vn -0.6378752 0.2110496 0.7406573
vn -0.6378752 0.2110496 0.7406573
vn -0.6378752 0.2110496 0.7406573
vn -0.6378752 0.2110496 0.7406573
vn 0.7966293 -0.1917328 0.5732541
vn 0.7966293 -0.1917328 0.5732541
vn 0.7966293 -0.1917328 0.5732541
vn 0.3421093 0.9295173 -0.1376911
vn 0.3421093 0.9295173 -0.1376911
vn 0.3421093 0.9295173 -0.1376911
vn -0.6383972 0.1393796 -0.7569824
vn -0.6383972 0.1393796 -0.7569824
vn -0.6383972 0.1393796 -0.7569824
vn -0.1838772 -0.9818705 -0.04603722
vn -0.1838772 -0.9818705 -0.04603722
vn -0.1838772 -0.9818705 -0.04603722
vn -0.6378752 0.2110496 0.7406573
vn -0.6378752 0.2110496 0.7406573
vn -0.6378752 0.2110496 0.7406573
vn -0.6378752 0.2110496 0.7406573
vn 0.7966293 -0.1917328 0.5732541
vn 0.7966293 -0.1917328 0.5732541
vn 0.7966293 -0.1917328 0.5732541
vn 0.3421093 0.9295173 -0.1376911
vn 0.3421093 0.9295173 -0.1376911
vn 0.3421093 0.9295173 -0.1376911
vn -0.6383972 0.1393796 -0.7569824
vn -0.6383972 0.1393796 -0.7569824
vn -0.6383972 0.1393796 -0.7569824
vn -0.1838772 -0.9818705 -0.04603722
vn -0.1838772 -0.9818705 -0.04603722
vn -0.1838772 -0.9818705 -0.04603722
vn -0.6378752 0.2110496 0.7406573
vn -0.6378752 0.2110496 0.7406573
vn -0.6378752 0.2110496 0.7406573
vn -0.6378752 0.2110496 0.7406573
vn 0.7966293 -0.1917328 0.5732541
vn 0.7966293 -0.1917328 0.5732541
vn 0.7966293 -0.1917328 0.5732541
vn 0.3421093 0.9295173 -0.1376911
vn 0.3421093 0.9295173 -0.1376911
vn 0.3421093 0.9295173 -0.1376911
vn -0.6383972 0.1393796 -0.7569824
vn -0.6383972 0.1393796 -0.7569824
vn -0.6383972 0.1393796 -0.7569824
vn -0.1838772 -0.9818705 -0.04603722
vn -0.1838772 -0.9818705 -0.04603722
vn -0.1838772 -0.9818705 -0.04603722
vn -0.6378752 0.2110496 0.7406573
vn -0.6378752 0.2110496 0.7406573
vn -0.6378752 0.2110496 0.7406573
vn -0.6378752 0.2110496 0.7406573
g _CombinedMountain_PCPORT16_0_0
f 3/3/3 2/2/2 1/1/1
f 6/6/6 5/5/5 4/4/4
f 9/9/9 8/8/8 7/7/7
f 12/12/12 11/11/11 10/10/10
f 15/15/15 14/14/14 13/13/13
f 16/16/16 15/15/15 13/13/13
f 19/19/19 18/18/18 17/17/17
f 22/22/22 21/21/21 20/20/20
f 25/25/25 24/24/24 23/23/23
f 28/28/28 27/27/27 26/26/26
f 31/31/31 30/30/30 29/29/29
f 32/32/32 31/31/31 29/29/29
f 35/35/35 34/34/34 33/33/33
f 38/38/38 37/37/37 36/36/36
f 41/41/41 40/40/40 39/39/39
f 44/44/44 43/43/43 42/42/42
f 47/47/47 46/46/46 45/45/45
f 48/48/48 47/47/47 45/45/45
f 51/51/51 50/50/50 49/49/49
f 54/54/54 53/53/53 52/52/52
f 57/57/57 56/56/56 55/55/55
f 60/60/60 59/59/59 58/58/58
f 63/63/63 62/62/62 61/61/61
f 64/64/64 63/63/63 61/61/61
