g _Combined_AutoVis64_0
v 116.7607 28.7287 -112.7799
v 116.2607 28.7287 -112.7799
v 116.2607 28.2287 -112.7799
v 116.7607 28.2287 -112.7799
v 116.2607 28.2287 -112.7799
v 116.2607 28.7287 -112.7799
v 116.2607 28.7287 -112.2799
v 116.2607 28.2287 -112.2799
v 116.7607 28.7287 -112.7799
v 116.7607 28.2287 -112.7799
v 116.7607 28.2287 -112.2799
v 116.7607 28.7287 -112.2799
v 116.7607 28.2287 -112.7799
v 116.2607 28.2287 -112.7799
v 116.2607 28.2287 -112.2799
v 116.7607 28.2287 -112.2799
v 116.2607 28.7287 -112.7799
v 116.7607 28.7287 -112.7799
v 116.7607 28.7287 -112.2799
v 116.2607 28.7287 -112.2799
v 116.7607 28.7287 -112.2799
v 116.7607 28.2287 -112.2799
v 116.2607 28.2287 -112.2799
v 116.2607 28.7287 -112.2799
v 114.7607 28.72873 -114.7799
v 114.2607 28.72873 -114.7799
v 114.2607 28.22873 -114.7799
v 114.7607 28.22873 -114.7799
v 114.2607 28.22873 -114.7799
v 114.2607 28.72873 -114.7799
v 114.2607 28.72873 -114.2799
v 114.2607 28.22873 -114.2799
v 114.7607 28.72873 -114.7799
v 114.7607 28.22873 -114.7799
v 114.7607 28.22873 -114.2799
v 114.7607 28.72873 -114.2799
v 114.7607 28.22873 -114.7799
v 114.2607 28.22873 -114.7799
v 114.2607 28.22873 -114.2799
v 114.7607 28.22873 -114.2799
v 114.2607 28.72873 -114.7799
v 114.7607 28.72873 -114.7799
v 114.7607 28.72873 -114.2799
v 114.2607 28.72873 -114.2799
v 114.7607 28.72873 -114.2799
v 114.7607 28.22873 -114.2799
v 114.2607 28.22873 -114.2799
v 114.2607 28.72873 -114.2799
v 114.2607 28.72873 -114.2799
v 114.2607 28.72873 -114.7799
v 114.5107 29.22872 -114.5299
v 114.2607 28.72873 -114.7799
v 114.7607 28.72873 -114.7799
v 114.5107 29.22872 -114.5299
v 114.7607 28.72873 -114.7799
v 114.7607 28.72873 -114.2799
v 114.5107 29.22872 -114.5299
v 114.5107 29.22872 -114.5299
v 114.7607 28.72873 -114.2799
v 114.2607 28.72873 -114.2799
v 114.2607 28.72873 -114.2799
v 114.7607 28.72873 -114.2799
v 114.7607 28.72873 -114.7799
v 114.2607 28.72873 -114.7799
v 116.2607 28.7287 -112.2799
v 116.2607 28.7287 -112.7799
v 116.5107 29.2287 -112.5299
v 116.2607 28.7287 -112.7799
v 116.7607 28.7287 -112.7799
v 116.5107 29.2287 -112.5299
v 116.7607 28.7287 -112.7799
v 116.7607 28.7287 -112.2799
v 116.5107 29.2287 -112.5299
v 116.5107 29.2287 -112.5299
v 116.7607 28.7287 -112.2799
v 116.2607 28.7287 -112.2799
v 116.2607 28.7287 -112.2799
v 116.7607 28.7287 -112.2799
v 116.7607 28.7287 -112.7799
v 116.2607 28.7287 -112.7799
v 114.4009 28.22873 -115.0683
v 116.0107 28.22873 -115.0299
v 114.0107 28.22873 -115.0299
v 114.7761 28.22873 -115.1821
v 115.1219 28.22873 -115.367
v 115.425 28.22873 -115.6157
v 115.6737 28.22873 -115.9188
v 115.8585 28.22873 -116.2645
v 115.9723 28.22873 -116.6397
v 116.0107 28.22873 -117.0299
v 116.0107 27.22873 -117.0299
v 116.0107 28.22873 -117.0299
v 115.9723 28.22873 -116.6397
v 115.9723 27.22873 -116.6397
v 115.8585 28.22873 -116.2645
v 115.8585 27.22873 -116.2645
v 115.6737 28.22873 -115.9188
v 115.6737 27.22873 -115.9188
v 115.425 28.22873 -115.6157
v 115.425 27.22873 -115.6157
v 115.1219 28.22873 -115.367
v 115.1219 27.22873 -115.367
v 114.7761 28.22873 -115.1821
v 114.7761 27.22873 -115.1821
v 114.4009 28.22873 -115.0683
v 114.4009 27.22873 -115.0683
v 114.0107 28.22873 -115.0299
v 114.0107 27.22873 -115.0299
v 114.0107 27.22873 -115.0299
v 116.0107 27.22873 -115.0299
v 114.4009 27.22873 -115.0683
v 114.7761 27.22873 -115.1821
v 115.1219 27.22873 -115.367
v 115.425 27.22873 -115.6157
v 115.6737 27.22873 -115.9188
v 115.8585 27.22873 -116.2645
v 115.9723 27.22873 -116.6397
v 116.0107 27.22873 -117.0299
v 116.0107 28.22871 -112.0299
v 116.0107 28.22871 -113.0299
v 117.0107 28.22871 -113.0299
v 117.0107 28.22871 -112.0299
v 118.0107 28.22874 -114.0299
v 118.0107 27.22874 -114.0299
v 117.0107 27.22874 -114.0299
v 117.0107 28.22874 -114.0299
v 119.0107 28.22874 -114.0299
v 119.0107 27.22874 -114.0299
v 118.0107 27.22874 -114.0299
v 118.0107 28.22874 -114.0299
v 119.0107 28.22873 -115.0299
v 119.0107 27.22873 -115.0299
v 119.0107 27.22874 -114.0299
v 119.0107 28.22874 -114.0299
v 118.0107 28.22873 -115.0299
v 118.0107 27.22873 -115.0299
v 119.0107 27.22873 -115.0299
v 119.0107 28.22873 -115.0299
v 117.0107 28.22873 -115.0299
v 117.0107 27.22873 -115.0299
v 118.0107 27.22873 -115.0299
v 118.0107 28.22873 -115.0299
v 117.0107 28.22871 -112.0299
v 117.0107 27.22876 -112.0299
v 116.0107 27.22876 -112.0299
v 116.0107 28.22871 -112.0299
v 115.0107 28.22877 -114.0299
v 115.0107 27.22877 -114.0299
v 114.0107 27.22877 -114.0299
v 114.0107 28.22877 -114.0299
v 116.0107 28.22876 -114.0299
v 116.0107 27.22876 -114.0299
v 115.0107 27.22877 -114.0299
v 115.0107 28.22877 -114.0299
v 115.0107 28.22877 -114.0299
v 115.0107 28.22872 -115.0299
v 116.0107 28.22873 -115.0299
v 116.0107 28.22876 -114.0299
v 116.0107 28.22876 -114.0299
v 116.0107 28.22873 -115.0299
v 117.0107 28.22873 -115.0299
v 117.0107 28.22874 -114.0299
v 114.0107 28.22877 -114.0299
v 114.0107 28.22873 -115.0299
v 115.0107 28.22872 -115.0299
v 115.0107 28.22877 -114.0299
v 116.0107 28.22871 -112.0299
v 116.0107 27.22876 -112.0299
v 116.0107 27.22875 -113.0299
v 116.0107 28.22871 -113.0299
v 114.0107 28.22877 -114.0299
v 114.0107 27.22877 -114.0299
v 114.0107 27.22873 -115.0299
v 114.0107 28.22873 -115.0299
v 116.0107 28.22873 -117.0299
v 116.0107 27.22873 -117.0299
v 117.0107 27.22873 -117.0299
v 117.0107 28.22873 -117.0299
v 117.0107 28.22873 -117.0299
v 117.0107 27.22873 -117.0299
v 117.0107 27.22873 -116.0299
v 117.0107 28.22873 -116.0299
v 116.0107 28.22872 -116.0299
v 116.0107 28.22873 -117.0299
v 117.0107 28.22873 -117.0299
v 117.0107 28.22873 -116.0299
v 117.0107 28.22871 -113.0299
v 117.0107 27.22871 -113.0299
v 117.0107 27.22876 -112.0299
v 117.0107 28.22871 -113.0299
v 117.0107 27.22876 -112.0299
v 117.0107 28.22871 -112.0299
v 117.0107 28.22871 -113.0299
v 117.0107 27.22871 -113.0299
v 117.0107 27.22876 -112.0299
v 117.0107 28.22871 -113.0299
v 117.0107 27.22876 -112.0299
v 117.0107 28.22871 -112.0299
v 118.0107 28.22874 -114.0299
v 118.0107 28.22873 -115.0299
v 119.0107 28.22873 -115.0299
v 119.0107 28.22874 -114.0299
v 117.0107 28.22874 -114.0299
v 117.0107 28.22873 -115.0299
v 118.0107 28.22873 -115.0299
v 118.0107 28.22874 -114.0299
v 117.0107 28.22873 -116.0299
v 117.0107 27.22873 -116.0299
v 117.0107 27.22873 -115.0299
v 117.0107 28.22873 -116.0299
v 117.0107 27.22873 -115.0299
v 117.0107 28.22873 -115.0299
v 117.0107 28.22873 -116.0299
v 117.0107 27.22873 -116.0299
v 117.0107 27.22873 -115.0299
v 117.0107 28.22873 -116.0299
v 117.0107 27.22873 -115.0299
v 117.0107 28.22873 -115.0299
v 116.0107 28.22873 -115.0299
v 116.0107 28.22872 -116.0299
v 117.0107 28.22873 -116.0299
v 117.0107 28.22873 -115.0299
v 117.0107 28.22874 -114.0299
v 117.0107 27.22874 -114.0299
v 117.0107 27.22871 -113.0299
v 117.0107 28.22874 -114.0299
v 117.0107 27.22871 -113.0299
v 117.0107 28.22871 -113.0299
v 117.0107 28.22874 -114.0299
v 117.0107 27.22874 -114.0299
v 117.0107 27.22871 -113.0299
v 117.0107 28.22874 -114.0299
v 117.0107 27.22871 -113.0299
v 117.0107 28.22871 -113.0299
v 116.0107 28.22871 -113.0299
v 116.0107 27.22875 -113.0299
v 116.0107 27.22876 -114.0299
v 116.0107 28.22876 -114.0299
v 116.0107 28.22871 -113.0299
v 116.0107 28.22876 -114.0299
v 117.0107 28.22874 -114.0299
v 117.0107 28.22871 -113.0299
vt 0.484375 0.08593863
vt 0.609375 0.08593863
vt 0.609375 0.0234375
vt 0.484375 0.0234375
vt 0.484375 0.08593169
vt 0.609375 0.08593169
vt 0.609375 0.0234375
vt 0.484375 0.0234375
vt 0.609375 0.08595268
vt 0.484375 0.08595268
vt 0.484375 0.0234375
vt 0.609375 0.0234375
vt 0.484375 0.08593169
vt 0.609375 0.08593169
vt 0.609375 0.0234375
vt 0.484375 0.0234375
vt 0.609375 0.08593169
vt 0.484375 0.08593169
vt 0.484375 0.0234375
vt 0.609375 0.0234375
vt 0.484375 0.08593863
vt 0.484375 0.0234375
vt 0.609375 0.0234375
vt 0.609375 0.08593863
vt 0.484375 0.08593863
vt 0.609375 0.08593863
vt 0.609375 0.0234375
vt 0.484375 0.0234375
vt 0.484375 0.08593169
vt 0.609375 0.08593169
vt 0.609375 0.0234375
vt 0.484375 0.0234375
vt 0.609375 0.08595268
vt 0.484375 0.08595268
vt 0.484375 0.0234375
vt 0.609375 0.0234375
vt 0.484375 0.08593169
vt 0.609375 0.08593169
vt 0.609375 0.0234375
vt 0.484375 0.0234375
vt 0.609375 0.08593169
vt 0.484375 0.08593169
vt 0.484375 0.0234375
vt 0.609375 0.0234375
vt 0.484375 0.08593863
vt 0.484375 0.0234375
vt 0.609375 0.0234375
vt 0.609375 0.08593863
vt 0.609375 0.0234375
vt 0.484375 0.0234375
vt 0.546875 0.0859375
vt 0.609375 0.0234375
vt 0.484375 0.0234375
vt 0.546875 0.0859375
vt 0.484375 0.0234375
vt 0.609375 0.0234375
vt 0.546875 0.0859375
vt 0.546875 0.0859375
vt 0.484375 0.0234375
vt 0.609375 0.0234375
vt 0.609375 0.0859375
vt 0.578125 0.0859375
vt 0.578125 0.0703125
vt 0.609375 0.0703125
vt 0.609375 0.0234375
vt 0.484375 0.0234375
vt 0.546875 0.0859375
vt 0.609375 0.0234375
vt 0.484375 0.0234375
vt 0.546875 0.0859375
vt 0.484375 0.0234375
vt 0.609375 0.0234375
vt 0.546875 0.0859375
vt 0.546875 0.0859375
vt 0.484375 0.0234375
vt 0.609375 0.0234375
vt 0.609375 0.0859375
vt 0.578125 0.0859375
vt 0.578125 0.0703125
vt 0.609375 0.0703125
vt 0.4669406 0.9897141
vt 0.2657132 0.992116
vt 0.5157132 0.992116
vt 0.4200423 0.982601
vt 0.3768207 0.9710497
vt 0.3389365 0.9555044
vt 0.3078458 0.9365623
vt 0.2847434 0.9149514
vt 0.2705169 0.8915023
vt 0.2657132 0.867116
vt 0.01689451 0.9922301
vt 0.2656247 0.9922303
vt 0.2656248 0.9609852
vt 0.01689461 0.9609851
vt 0.2656248 0.9297403
vt 0.01689466 0.9297401
vt 0.2656249 0.8984953
vt 0.01689479 0.898495
vt 0.265625 0.8672504
vt 0.01689505 0.86725
vt 0.2656251 0.8360053
vt 0.01689526 0.836005
vt 0.2656252 0.8047602
vt 0.01689539 0.8047601
vt 0.2656252 0.7735152
vt 0.01689545 0.7735151
vt 0.2656252 0.7422702
vt 0.01689551 0.7422702
vt 0.515713 0.8671222
vt 0.2657132 0.8671222
vt 0.4669406 0.8647203
vt 0.4200423 0.8576072
vt 0.3768206 0.846056
vt 0.3389364 0.8305106
vt 0.3078458 0.8115685
vt 0.2847433 0.7899576
vt 0.2705169 0.7665085
vt 0.2657132 0.7421222
vt 0.140625 0.0703125
vt 0.140625 0.0078125
vt 0.015625 0.0078125
vt 0.015625 0.0703125
vt 0.734375 0.3203125
vt 0.734375 0.2578125
vt 0.609375 0.2578125
vt 0.609375 0.3203125
vt 0.734375 0.3203125
vt 0.734375 0.2578125
vt 0.609375 0.2578125
vt 0.609375 0.3203125
vt 0.296875 0.1171875
vt 0.296875 0.0546875
vt 0.171875 0.0546875
vt 0.171875 0.1171875
vt 0.734375 0.3203125
vt 0.734375 0.2578125
vt 0.609375 0.2578125
vt 0.609375 0.3203125
vt 0.734375 0.3203125
vt 0.734375 0.2578125
vt 0.609375 0.2578125
vt 0.609375 0.3203125
vt 0.296875 0.1171875
vt 0.296875 0.0546875
vt 0.171875 0.0546875
vt 0.171875 0.1171875
vt 0.734375 0.3203125
vt 0.734375 0.2578125
vt 0.609375 0.2578125
vt 0.609375 0.3203125
vt 0.734375 0.3203125
vt 0.734375 0.2578125
vt 0.609375 0.2578125
vt 0.609375 0.3203125
vt 0.890625 0.3203125
vt 0.890625 0.2578125
vt 0.765625 0.2578125
vt 0.765625 0.3203125
vt 0.890625 0.3203125
vt 0.890625 0.2578125
vt 0.765625 0.2578125
vt 0.765625 0.3203125
vt 0.140625 0.0703125
vt 0.140625 0.0078125
vt 0.015625 0.0078125
vt 0.015625 0.0703125
vt 0.734375 0.3203125
vt 0.734375 0.2578125
vt 0.609375 0.2578125
vt 0.609375 0.3203125
vt 0.296875 0.1171875
vt 0.296875 0.0546875
vt 0.171875 0.0546875
vt 0.171875 0.1171875
vt 0.296875 0.1171875
vt 0.296875 0.0546875
vt 0.171875 0.0546875
vt 0.171875 0.1171875
vt 0.734375 0.3203125
vt 0.734375 0.2578125
vt 0.609375 0.2578125
vt 0.609375 0.3203125
vt 0.890625 0.3203125
vt 0.890625 0.2578125
vt 0.765625 0.2578125
vt 0.765625 0.3203125
vt 0.734375 0.3203125
vt 0.734375 0.2578125
vt 0.609375 0.2578125
vt 0.734375 0.3203125
vt 0.609375 0.2578125
vt 0.609375 0.3203125
vt 0.734375 0.3203125
vt 0.734375 0.2578125
vt 0.609375 0.2578125
vt 0.734375 0.3203125
vt 0.609375 0.2578125
vt 0.609375 0.3203125
vt 0.890625 0.3203125
vt 0.890625 0.2578125
vt 0.765625 0.2578125
vt 0.765625 0.3203125
vt 0.890625 0.3203125
vt 0.890625 0.2578125
vt 0.765625 0.2578125
vt 0.765625 0.3203125
vt 0.609375 0.0859375
vt 0.609375 0.0234375
vt 0.484375 0.0234375
vt 0.609375 0.0859375
vt 0.484375 0.0234375
vt 0.484375 0.0859375
vt 0.734375 0.3203125
vt 0.734375 0.2578125
vt 0.609375 0.2578125
vt 0.734375 0.3203125
vt 0.609375 0.2578125
vt 0.609375 0.3203125
vt 0.890625 0.3203125
vt 0.890625 0.2578125
vt 0.765625 0.2578125
vt 0.765625 0.3203125
vt 0.734375 0.3203125
vt 0.734375 0.2578125
vt 0.609375 0.2578125
vt 0.734375 0.3203125
vt 0.609375 0.2578125
vt 0.609375 0.3203125
vt 0.734375 0.3203125
vt 0.734375 0.2578125
vt 0.609375 0.2578125
vt 0.734375 0.3203125
vt 0.609375 0.2578125
vt 0.609375 0.3203125
vt 0.734375 0.3203125
vt 0.734375 0.2578125
vt 0.609375 0.2578125
vt 0.609375 0.3203125
vt 0.890625 0.3203125
vt 0.890625 0.2578125
vt 0.765625 0.2578125
vt 0.765625 0.3203125
vn -2.664534E-14 5.011783E-15 -1
vn -2.664534E-14 5.011783E-15 -1
vn -2.664534E-14 5.011783E-15 -1
vn -2.664534E-14 5.011783E-15 -1
vn -1 8.742282E-08 -1.598721E-14
vn -1 8.742282E-08 -1.598721E-14
vn -1 8.742282E-08 -1.598721E-14
vn -1 8.742282E-08 -1.598721E-14
vn 1 -8.742282E-08 1.598721E-14
vn 1 -8.742282E-08 1.598721E-14
vn 1 -8.742282E-08 1.598721E-14
vn 1 -8.742282E-08 1.598721E-14
vn -8.742277E-08 -1 -8.008125E-15
vn -8.742277E-08 -1 -8.008125E-15
vn -8.742277E-08 -1 -8.008125E-15
vn -8.742277E-08 -1 -8.008125E-15
vn 8.742277E-08 1 8.008125E-15
vn 8.742277E-08 1 8.008125E-15
vn 8.742277E-08 1 8.008125E-15
vn 8.742277E-08 1 8.008125E-15
vn 2.664534E-14 -5.011783E-15 1
vn 2.664534E-14 -5.011783E-15 1
vn 2.664534E-14 -5.011783E-15 1
vn 2.664534E-14 -5.011783E-15 1
vn -2.664534E-14 5.011783E-15 -1
vn -2.664534E-14 5.011783E-15 -1
vn -2.664534E-14 5.011783E-15 -1
vn -2.664534E-14 5.011783E-15 -1
vn -1 8.742282E-08 -1.598721E-14
vn -1 8.742282E-08 -1.598721E-14
vn -1 8.742282E-08 -1.598721E-14
vn -1 8.742282E-08 -1.598721E-14
vn 1 -8.742282E-08 1.598721E-14
vn 1 -8.742282E-08 1.598721E-14
vn 1 -8.742282E-08 1.598721E-14
vn 1 -8.742282E-08 1.598721E-14
vn -8.742277E-08 -1 -8.008125E-15
vn -8.742277E-08 -1 -8.008125E-15
vn -8.742277E-08 -1 -8.008125E-15
vn -8.742277E-08 -1 -8.008125E-15
vn 8.742277E-08 1 8.008125E-15
vn 8.742277E-08 1 8.008125E-15
vn 8.742277E-08 1 8.008125E-15
vn 8.742277E-08 1 8.008125E-15
vn 2.664534E-14 -5.011783E-15 1
vn 2.664534E-14 -5.011783E-15 1
vn 2.664534E-14 -5.011783E-15 1
vn 2.664534E-14 -5.011783E-15 1
vn -0.8944333 0.4472014 -5.331057E-08
vn -0.8944333 0.4472014 -5.331057E-08
vn -0.8944333 0.4472014 -5.331057E-08
vn -9.533315E-15 0.4472014 -0.8944332
vn -9.533315E-15 0.4472014 -0.8944332
vn -9.533315E-15 0.4472014 -0.8944332
vn 0.8944333 0.4472014 -5.331054E-08
vn 0.8944333 0.4472014 -5.331054E-08
vn 0.8944333 0.4472014 -5.331054E-08
vn 2.859865E-14 0.4472013 0.8944333
vn 2.859865E-14 0.4472013 0.8944333
vn 2.859865E-14 0.4472013 0.8944333
vn -2.131627E-14 -1 1.192093E-07
vn -2.131627E-14 -1 1.192093E-07
vn -2.131627E-14 -1 1.192093E-07
vn -2.131627E-14 -1 1.192093E-07
vn -0.8944333 0.4472014 2.817689E-08
vn -0.8944333 0.4472014 2.817689E-08
vn -0.8944333 0.4472014 2.817689E-08
vn -8.148739E-08 0.4472014 -0.8944332
vn -8.148739E-08 0.4472014 -0.8944332
vn -8.148739E-08 0.4472014 -0.8944332
vn 0.8944333 0.4472014 -1.34798E-07
vn 0.8944333 0.4472014 -1.34798E-07
vn 0.8944333 0.4472014 -1.34798E-07
vn 8.148743E-08 0.4472013 0.8944333
vn 8.148743E-08 0.4472013 0.8944333
vn 8.148743E-08 0.4472013 0.8944333
vn -2.131627E-14 -1 1.192093E-07
vn -2.131627E-14 -1 1.192093E-07
vn -2.131627E-14 -1 1.192093E-07
vn -2.131627E-14 -1 1.192093E-07
vn 2.131627E-14 1 -1.192093E-07
vn 2.131627E-14 1 -1.192093E-07
vn 2.131627E-14 1 -1.192093E-07
vn 2.131627E-14 1 -1.192093E-07
vn 2.131627E-14 1 -1.192093E-07
vn 2.131627E-14 1 -1.192093E-07
vn 2.131627E-14 1 -1.192093E-07
vn 2.131627E-14 1 -1.192093E-07
vn 2.131627E-14 1 -1.192093E-07
vn 2.131627E-14 1 -1.192093E-07
vn -1 -1.421086E-14 -2.042811E-14
vn -1 -1.421086E-14 -2.042811E-14
vn -0.9807853 2.325658E-08 -0.1950905
vn -0.9807853 2.325658E-08 -0.1950905
vn -0.9238793 4.561945E-08 -0.3826838
vn -0.9238793 4.561945E-08 -0.3826838
vn -0.8314694 6.622916E-08 -0.5555707
vn -0.8314694 6.622916E-08 -0.5555707
vn -0.7071066 8.429369E-08 -0.7071069
vn -0.7071066 8.42937E-08 -0.7071069
vn -0.5555698 9.911891E-08 -0.8314699
vn -0.5555698 9.911891E-08 -0.8314699
vn -0.3826825 1.10135E-07 -0.9238799
vn -0.3826826 1.10135E-07 -0.9238799
vn -0.1950894 1.169187E-07 -0.9807855
vn -0.1950894 1.169187E-07 -0.9807855
vn -2.131627E-14 1.192093E-07 -1
vn -2.131627E-14 1.192093E-07 -1
vn -2.131627E-14 -1 1.192093E-07
vn -2.131627E-14 -1 1.192093E-07
vn -2.131627E-14 -1 1.192093E-07
vn -2.131627E-14 -1 1.192093E-07
vn -2.131627E-14 -1 1.192093E-07
vn -2.131627E-14 -1 1.192093E-07
vn -2.131627E-14 -1 1.192093E-07
vn -2.131627E-14 -1 1.192093E-07
vn -2.131627E-14 -1 1.192093E-07
vn -2.131627E-14 -1 1.192093E-07
vn 2.131627E-14 1 -1.192093E-07
vn 2.131627E-14 1 -1.192093E-07
vn 2.131627E-14 1 -1.192093E-07
vn 2.131627E-14 1 -1.192093E-07
vn 2.131627E-14 2.093644E-15 1
vn 2.131627E-14 2.093644E-15 1
vn 2.131627E-14 2.093644E-15 1
vn 2.131627E-14 2.093644E-15 1
vn 8.429365E-08 -9.637348E-08 1
vn 8.429365E-08 -9.637348E-08 1
vn 8.429365E-08 -9.637348E-08 1
vn 8.429365E-08 -9.637348E-08 1
vn 1 1.421086E-14 5.960468E-08
vn 1 1.421086E-14 5.960468E-08
vn 1 1.421086E-14 5.960468E-08
vn 1 1.421086E-14 5.960468E-08
vn -2.131627E-14 -2.093644E-15 -1
vn -2.131627E-14 -2.093644E-15 -1
vn -2.131627E-14 -2.093644E-15 -1
vn -2.131627E-14 -2.093644E-15 -1
vn -8.429365E-08 9.637348E-08 -1
vn -8.429365E-08 9.637348E-08 -1
vn -8.429365E-08 9.637348E-08 -1
vn -8.429365E-08 9.637348E-08 -1
vn 8.429365E-08 -9.637348E-08 1
vn 8.429365E-08 -9.637348E-08 1
vn 8.429365E-08 -9.637348E-08 1
vn 8.429365E-08 -9.637348E-08 1
vn 2.131627E-14 2.093644E-15 1
vn 2.131627E-14 2.093644E-15 1
vn 2.131627E-14 2.093644E-15 1
vn 2.131627E-14 2.093644E-15 1
vn 2.131627E-14 2.093644E-15 1
vn 2.131627E-14 2.093644E-15 1
vn 2.131627E-14 2.093644E-15 1
vn 2.131627E-14 2.093644E-15 1
vn 2.131627E-14 1 -1.192093E-07
vn 2.131627E-14 1 -1.192093E-07
vn 2.131627E-14 1 -1.192093E-07
vn 2.131627E-14 1 -1.192093E-07
vn 2.131627E-14 1 -1.192093E-07
vn 2.131627E-14 1 -1.192093E-07
vn 2.131627E-14 1 -1.192093E-07
vn 2.131627E-14 1 -1.192093E-07
vn 2.131627E-14 1 -1.192093E-07
vn 2.131627E-14 1 -1.192093E-07
vn 2.131627E-14 1 -1.192093E-07
vn 2.131627E-14 1 -1.192093E-07
vn -1 -1.421086E-14 -1.192094E-07
vn -1 -1.421086E-14 -1.192094E-07
vn -1 -1.421086E-14 -1.192094E-07
vn -1 -1.421086E-14 -1.192094E-07
vn -1 -1.421086E-14 -1.192094E-07
vn -1 -1.421086E-14 -1.192094E-07
vn -1 -1.421086E-14 -1.192094E-07
vn -1 -1.421086E-14 -1.192094E-07
vn -8.429365E-08 9.637348E-08 -1
vn -8.429365E-08 9.637348E-08 -1
vn -8.429365E-08 9.637348E-08 -1
vn -8.429365E-08 9.637348E-08 -1
vn 1 2.131629E-14 -3.57628E-07
vn 1 2.131629E-14 -3.57628E-07
vn 1 2.131629E-14 -3.57628E-07
vn 1 2.131629E-14 -3.57628E-07
vn 2.131627E-14 1 -1.192093E-07
vn 2.131627E-14 1 -1.192093E-07
vn 2.131627E-14 1 -1.192093E-07
vn 2.131627E-14 1 -1.192093E-07
vn 1 2.131629E-14 -3.57628E-07
vn 1 2.131629E-14 -3.57628E-07
vn 1 2.131629E-14 -3.57628E-07
vn 1 2.131629E-14 -3.57628E-07
vn 1 2.131629E-14 -3.57628E-07
vn 1 2.131629E-14 -3.57628E-07
vn 1 2.131629E-14 -3.57628E-07
vn 1 2.131629E-14 -3.57628E-07
vn 1 2.131629E-14 -3.57628E-07
vn 1 2.131629E-14 -3.57628E-07
vn 1 2.131629E-14 -3.57628E-07
vn 1 2.131629E-14 -3.57628E-07
vn 2.131627E-14 1 -1.192093E-07
vn 2.131627E-14 1 -1.192093E-07
vn 2.131627E-14 1 -1.192093E-07
vn 2.131627E-14 1 -1.192093E-07
vn 2.131627E-14 1 -1.192093E-07
vn 2.131627E-14 1 -1.192093E-07
vn 2.131627E-14 1 -1.192093E-07
vn 2.131627E-14 1 -1.192093E-07
vn 1 2.131629E-14 -3.57628E-07
vn 1 2.131629E-14 -3.57628E-07
vn 1 2.131629E-14 -3.57628E-07
vn 1 2.131629E-14 -3.57628E-07
vn 1 2.131629E-14 -3.57628E-07
vn 1 2.131629E-14 -3.57628E-07
vn 1 2.131629E-14 -3.57628E-07
vn 1 2.131629E-14 -3.57628E-07
vn 1 2.131629E-14 -3.57628E-07
vn 1 2.131629E-14 -3.57628E-07
vn 1 2.131629E-14 -3.57628E-07
vn 1 2.131629E-14 -3.57628E-07
vn 2.131627E-14 1 -1.192093E-07
vn 2.131627E-14 1 -1.192093E-07
vn 2.131627E-14 1 -1.192093E-07
vn 2.131627E-14 1 -1.192093E-07
vn 1 2.131629E-14 -3.57628E-07
vn 1 2.131629E-14 -3.57628E-07
vn 1 2.131629E-14 -3.57628E-07
vn 1 2.131629E-14 -3.57628E-07
vn 1 2.131629E-14 -3.57628E-07
vn 1 2.131629E-14 -3.57628E-07
vn 1 2.131629E-14 -3.57628E-07
vn 1 2.131629E-14 -3.57628E-07
vn 1 2.131629E-14 -3.57628E-07
vn 1 2.131629E-14 -3.57628E-07
vn 1 2.131629E-14 -3.57628E-07
vn 1 2.131629E-14 -3.57628E-07
vn -1 -1.421086E-14 -1.192094E-07
vn -1 -1.421086E-14 -1.192094E-07
vn -1 -1.421086E-14 -1.192094E-07
vn -1 -1.421086E-14 -1.192094E-07
vn 2.131627E-14 1 -1.192093E-07
vn 2.131627E-14 1 -1.192093E-07
vn 2.131627E-14 1 -1.192093E-07
vn 2.131627E-14 1 -1.192093E-07
g _Combined_AutoVis64_0_0
f 3/3/3 2/2/2 1/1/1
f 4/4/4 3/3/3 1/1/1
f 7/7/7 6/6/6 5/5/5
f 8/8/8 7/7/7 5/5/5
f 11/11/11 10/10/10 9/9/9
f 12/12/12 11/11/11 9/9/9
f 15/15/15 14/14/14 13/13/13
f 16/16/16 15/15/15 13/13/13
f 19/19/19 18/18/18 17/17/17
f 20/20/20 19/19/19 17/17/17
f 23/23/23 22/22/22 21/21/21
f 24/24/24 23/23/23 21/21/21
f 27/27/27 26/26/26 25/25/25
f 28/28/28 27/27/27 25/25/25
f 31/31/31 30/30/30 29/29/29
f 32/32/32 31/31/31 29/29/29
f 35/35/35 34/34/34 33/33/33
f 36/36/36 35/35/35 33/33/33
f 39/39/39 38/38/38 37/37/37
f 40/40/40 39/39/39 37/37/37
f 43/43/43 42/42/42 41/41/41
f 44/44/44 43/43/43 41/41/41
f 47/47/47 46/46/46 45/45/45
f 48/48/48 47/47/47 45/45/45
f 51/51/51 50/50/50 49/49/49
f 54/54/54 53/53/53 52/52/52
f 57/57/57 56/56/56 55/55/55
f 60/60/60 59/59/59 58/58/58
f 63/63/63 62/62/62 61/61/61
f 64/64/64 63/63/63 61/61/61
f 67/67/67 66/66/66 65/65/65
f 70/70/70 69/69/69 68/68/68
f 73/73/73 72/72/72 71/71/71
f 76/76/76 75/75/75 74/74/74
f 79/79/79 78/78/78 77/77/77
f 80/80/80 79/79/79 77/77/77
f 83/83/83 82/82/82 81/81/81
f 81/81/81 82/82/82 84/84/84
f 84/84/84 82/82/82 85/85/85
f 85/85/85 82/82/82 86/86/86
f 86/86/86 82/82/82 87/87/87
f 87/87/87 82/82/82 88/88/88
f 88/88/88 82/82/82 89/89/89
f 89/89/89 82/82/82 90/90/90
f 93/93/93 92/92/92 91/91/91
f 94/94/94 93/93/93 91/91/91
f 95/95/95 93/93/93 94/94/94
f 96/96/96 95/95/95 94/94/94
f 97/97/97 95/95/95 96/96/96
f 98/98/98 97/97/97 96/96/96
f 99/99/99 97/97/97 98/98/98
f 100/100/100 99/99/99 98/98/98
f 101/101/101 99/99/99 100/100/100
f 102/102/102 101/101/101 100/100/100
f 103/103/103 101/101/101 102/102/102
f 104/104/104 103/103/103 102/102/102
f 105/105/105 103/103/103 104/104/104
f 106/106/106 105/105/105 104/104/104
f 107/107/107 105/105/105 106/106/106
f 108/108/108 107/107/107 106/106/106
f 111/111/111 110/110/110 109/109/109
f 112/112/112 110/110/110 111/111/111
f 113/113/113 110/110/110 112/112/112
f 114/114/114 110/110/110 113/113/113
f 115/115/115 110/110/110 114/114/114
f 116/116/116 110/110/110 115/115/115
f 117/117/117 110/110/110 116/116/116
f 118/118/118 110/110/110 117/117/117
f 121/121/121 120/120/120 119/119/119
f 122/122/122 121/121/121 119/119/119
f 125/125/125 124/124/124 123/123/123
f 126/126/126 125/125/125 123/123/123
f 129/129/129 128/128/128 127/127/127
f 130/130/130 129/129/129 127/127/127
f 133/133/133 132/132/132 131/131/131
f 134/134/134 133/133/133 131/131/131
f 137/137/137 136/136/136 135/135/135
f 138/138/138 137/137/137 135/135/135
f 141/141/141 140/140/140 139/139/139
f 142/142/142 141/141/141 139/139/139
f 145/145/145 144/144/144 143/143/143
f 146/146/146 145/145/145 143/143/143
f 149/149/149 148/148/148 147/147/147
f 150/150/150 149/149/149 147/147/147
f 153/153/153 152/152/152 151/151/151
f 154/154/154 153/153/153 151/151/151
f 157/157/157 156/156/156 155/155/155
f 158/158/158 157/157/157 155/155/155
f 161/161/161 160/160/160 159/159/159
f 162/162/162 161/161/161 159/159/159
f 165/165/165 164/164/164 163/163/163
f 166/166/166 165/165/165 163/163/163
f 169/169/169 168/168/168 167/167/167
f 170/170/170 169/169/169 167/167/167
f 173/173/173 172/172/172 171/171/171
f 174/174/174 173/173/173 171/171/171
f 177/177/177 176/176/176 175/175/175
f 178/178/178 177/177/177 175/175/175
f 181/181/181 180/180/180 179/179/179
f 182/182/182 181/181/181 179/179/179
f 185/185/185 184/184/184 183/183/183
f 186/186/186 185/185/185 183/183/183
f 189/189/189 188/188/188 187/187/187
f 192/192/192 191/191/191 190/190/190
f 195/195/195 194/194/194 193/193/193
f 198/198/198 197/197/197 196/196/196
f 201/201/201 200/200/200 199/199/199
f 202/202/202 201/201/201 199/199/199
f 205/205/205 204/204/204 203/203/203
f 206/206/206 205/205/205 203/203/203
f 209/209/209 208/208/208 207/207/207
f 212/212/212 211/211/211 210/210/210
f 215/215/215 214/214/214 213/213/213
f 218/218/218 217/217/217 216/216/216
f 221/221/221 220/220/220 219/219/219
f 222/222/222 221/221/221 219/219/219
f 225/225/225 224/224/224 223/223/223
f 228/228/228 227/227/227 226/226/226
f 231/231/231 230/230/230 229/229/229
f 234/234/234 233/233/233 232/232/232
f 237/237/237 236/236/236 235/235/235
f 238/238/238 237/237/237 235/235/235
f 241/241/241 240/240/240 239/239/239
f 242/242/242 241/241/241 239/239/239
