g _Combined_Vis19_0
v -11.875 4 -12.5
v -11.875 4 -12.25
v -11.875 3.125 -12.25
v -11.875 3.125 -12.5
v -11.875 3.125 -12.5
v -11.875 3.125 -12.25
v -12.125 3.125 -12.25
v -12.125 3.125 -12.5
v -12.125 3.125 -12.5
v -12.125 3.125 -12.25
v -12.125 4 -12.25
v -12.125 4 -12.5
v -12.125 4 -12.5
v -12.125 4 -12.25
v -12 4.125 -12.25
v -12 4.125 -12.5
v -12 4.125 -12.5
v -12 4.125 -12.25
v -11.875 4 -12.25
v -11.875 4 -12.5
v -12.125 4 -12.25
v -11.875 4 -12.25
v -12 4.125 -12.25
v -11.875 3.125 -12.25
v -12.125 3.125 -12.25
v -12.125 3.125 -12.5
v -12.5 3.5 -12.5
v -12.5 2.5 -12.5
v -11.5 2.5 -12.5
v -12.125 4 -12.5
v -11.875 3.125 -12.5
v -12.5 4.5 -12.5
v -11.5 3.5 -12.5
v -12 4.125 -12.5
v -11.875 4 -12.5
v -11.5 4.5 -12.5
v -11.5 4 -11.875
v -11.75 4 -11.875
v -11.75 3.125 -11.875
v -11.5 3.125 -11.875
v -11.5 3.125 -11.875
v -11.75 3.125 -11.875
v -11.75 3.125 -12.125
v -11.5 3.125 -12.125
v -11.5 3.125 -12.125
v -11.75 3.125 -12.125
v -11.75 4 -12.125
v -11.5 4 -12.125
v -11.5 4 -12.125
v -11.75 4 -12.125
v -11.75 4.125 -12
v -11.5 4.125 -12
v -11.5 4.125 -12
v -11.75 4.125 -12
v -11.75 4 -11.875
v -11.5 4 -11.875
v -11.75 4 -12.125
v -11.75 4 -11.875
v -11.75 4.125 -12
v -11.75 3.125 -11.875
v -11.75 3.125 -12.125
v -11.5 3.125 -12.125
v -11.5 3.5 -12.5
v -11.5 2.5 -12.5
v -11.5 2.5 -11.5
v -11.5 4 -12.125
v -11.5 3.125 -11.875
v -11.5 4.5 -12.5
v -11.5 3.5 -11.5
v -11.5 4.125 -12
v -11.5 4 -11.875
v -11.5 4.5 -11.5
v -11.5 0.5000009 -12.5
v -12.5 0.499999 -12.5
v -12.5 -0.5000001 -12.5
v -11.5 -0.5000002 -12.5
v -12.5 0.499999 -12.5
v -12.5 0.4999989 -11.5
v -12.5 -0.5000001 -11.5
v -12.5 -0.5000001 -12.5
v -11.5 0.5000009 -11.5
v -11.5 0.5000009 -12.5
v -11.5 -0.5000002 -12.5
v -11.5 -0.5000001 -11.5
v -11.5 0.5000009 -11.5
v -11.5 1.5 -11.5
v -11.5 1.5 -12.5
v -11.5 0.5000009 -12.5
v -12.5 1.500001 -12.5
v -12.5 1.499999 -11.5
v -12.5 0.4999989 -11.5
v -12.5 0.499999 -12.5
v -11.5 0.5000009 -12.5
v -11.5 1.5 -12.5
v -12.5 1.500001 -12.5
v -12.5 0.499999 -12.5
v -11.5 2.5 -12.5
v -12.5 2.5 -12.5
v -12.5 1.500001 -12.5
v -11.5 1.5 -12.5
v -12.5 2.5 -12.5
v -12.5 2.499999 -11.5
v -12.5 1.499999 -11.5
v -12.5 1.500001 -12.5
v -11.5 2.5 -11.5
v -11.5 2.5 -12.5
v -11.5 1.5 -12.5
v -11.5 1.5 -11.5
v -12.5 3.5 -12.5
v -12.5 3.499999 -11.5
v -12.5 2.499999 -11.5
v -12.5 2.5 -12.5
v -12.5 4.5 -12.5
v -12.5 4.499999 -11.5
v -12.5 3.499999 -11.5
v -12.5 3.5 -12.5
v -12.5 5.500001 -12.5
v -12.5 5.499999 -11.5
v -12.5 4.499999 -11.5
v -12.5 4.5 -12.5
v -12.5 5.500001 -12.5
v -12.5 4.5 -12.5
v -11.5 4.5 -12.5
v -11.5 5.5 -12.5
v -11.5 5.5 -12.5
v -11.5 4.5 -12.5
v -11.5 4.5 -11.5
v -11.5 5.5 -11.5
v -12.25 5.5 -12.375
v -12.25 5.375 -12.375
v -12.375 5.375 -12.25
v -12.375 5.5 -12.25
v -11.75 5.5 -11.625
v -11.75 5.375 -11.625
v -11.625 5.375 -11.75
v -11.625 5.5 -11.75
v -11.625 5.5 -12.25
v -11.625 5.375 -12.25
v -11.75 5.375 -12.375
v -11.75 5.5 -12.375
v -11.75 5.5 -12.375
v -11.75 5.375 -12.375
v -12.25 5.375 -12.375
v -12.25 5.5 -12.375
v -12.375 5.5 -11.75
v -12.375 5.375 -11.75
v -12.25 5.375 -11.625
v -12.25 5.5 -11.625
v -11.625 5.5 -11.75
v -11.625 5.375 -11.75
v -11.625 5.375 -12.25
v -11.625 5.5 -12.25
v -12.25 5.5 -11.625
v -12.25 5.375 -11.625
v -11.75 5.375 -11.625
v -11.75 5.5 -11.625
v -12.375 5.5 -12.25
v -12.375 5.375 -12.25
v -12.375 5.375 -11.75
v -12.375 5.5 -11.75
v -11.75 5.5 -12.375
v -11.5 5.5 -12.5
v -11.625 5.5 -12.25
v -12.25 5.5 -12.375
v -11.5 5.5 -11.5
v -11.625 5.5 -11.75
v -11.75 5.5 -11.625
v -12.5 5.500001 -12.5
v -12.375 5.5 -12.25
v -12.375 5.5 -11.75
v -12.5 5.499999 -11.5
v -12.25 5.5 -11.625
vt 0.793089 0.6295878
vt 0.7852765 0.6295878
vt 0.7852765 0.615916
vt 0.793089 0.615916
vt 0.7852179 0.613795
vt 0.7852179 0.6098888
vt 0.7930304 0.6098888
vt 0.7930304 0.613795
vt 0.793089 0.6295878
vt 0.7852765 0.6295878
vt 0.7852765 0.615916
vt 0.793089 0.615916
vt 0.793089 0.6295878
vt 0.7852765 0.6295878
vt 0.7852765 0.631541
vt 0.793089 0.631541
vt 0.793089 0.631541
vt 0.7852765 0.631541
vt 0.7852765 0.6295878
vt 0.793089 0.6295878
vt 0.7784343 0.6300073
vt 0.7706218 0.6300073
vt 0.774528 0.6319604
vt 0.7706218 0.6163354
vt 0.7784343 0.6163354
vt 0.7533544 0.6117839
vt 0.7634174 0.6171875
vt 0.7634174 0.602778
vt 0.7365826 0.602778
vt 0.7533544 0.6243923
vt 0.7466456 0.6117839
vt 0.7634174 0.631597
vt 0.7365826 0.6171875
vt 0.75 0.6261935
vt 0.7466456 0.6243923
vt 0.7365826 0.631597
vt 0.793089 0.6295878
vt 0.7852765 0.6295878
vt 0.7852765 0.615916
vt 0.793089 0.615916
vt 0.7852179 0.613795
vt 0.7852179 0.6098888
vt 0.7930304 0.6098888
vt 0.7930304 0.613795
vt 0.793089 0.6295878
vt 0.7852765 0.6295878
vt 0.7852765 0.615916
vt 0.793089 0.615916
vt 0.793089 0.6295878
vt 0.7852765 0.6295878
vt 0.7852765 0.631541
vt 0.793089 0.631541
vt 0.793089 0.631541
vt 0.7852765 0.631541
vt 0.7852765 0.6295878
vt 0.793089 0.6295878
vt 0.7784343 0.6300073
vt 0.7706218 0.6300073
vt 0.774528 0.6319604
vt 0.7706218 0.6163354
vt 0.7784343 0.6163354
vt 0.7533544 0.6117839
vt 0.7634174 0.6171875
vt 0.7634174 0.602778
vt 0.7365826 0.602778
vt 0.7533544 0.6243923
vt 0.7466456 0.6117839
vt 0.7634174 0.631597
vt 0.7365826 0.6171875
vt 0.75 0.6261935
vt 0.7466456 0.6243923
vt 0.7365826 0.631597
vt 0.421875 0.2109375
vt 0.421875 0.1796875
vt 0.359375 0.1796875
vt 0.359375 0.2109375
vt 0.421875 0.2109375
vt 0.421875 0.1796875
vt 0.359375 0.1796875
vt 0.359375 0.2109375
vt 0.421875 0.2109375
vt 0.421875 0.1796875
vt 0.359375 0.1796875
vt 0.359375 0.2109375
vt 0.984375 0.8359375
vt 0.984375 0.7734375
vt 0.859375 0.7734375
vt 0.859375 0.8359375
vt 0.421875 0.2109375
vt 0.421875 0.1796875
vt 0.359375 0.1796875
vt 0.359375 0.2109375
vt 0.984375 0.8359375
vt 0.984375 0.7734375
vt 0.859375 0.7734375
vt 0.859375 0.8359375
vt 0.421875 0.2109375
vt 0.421875 0.1796875
vt 0.359375 0.1796875
vt 0.359375 0.2109375
vt 0.421875 0.2109375
vt 0.421875 0.1796875
vt 0.359375 0.1796875
vt 0.359375 0.2109375
vt 0.421875 0.2109375
vt 0.421875 0.1796875
vt 0.359375 0.1796875
vt 0.359375 0.2109375
vt 0.421875 0.2109375
vt 0.421875 0.1796875
vt 0.359375 0.1796875
vt 0.359375 0.2109375
vt 0.421875 0.2109375
vt 0.421875 0.1796875
vt 0.359375 0.1796875
vt 0.359375 0.2109375
vt 0.421875 0.2109375
vt 0.421875 0.1796875
vt 0.359375 0.1796875
vt 0.359375 0.2109375
vt 0.984375 0.9140625
vt 0.984375 0.8515625
vt 0.859375 0.8515625
vt 0.859375 0.9140625
vt 0.984375 0.9140625
vt 0.984375 0.8515625
vt 0.859375 0.8515625
vt 0.859375 0.9140625
vt 0.3067188 0.1495948
vt 0.3067188 0.1471339
vt 0.3116406 0.1471339
vt 0.3116406 0.1495948
vt 0.2870313 0.1495948
vt 0.2870313 0.1471339
vt 0.2821094 0.1471339
vt 0.2821094 0.1495948
vt 0.2821094 0.1495948
vt 0.2821094 0.1471339
vt 0.2870313 0.1471339
vt 0.2870313 0.1495948
vt 0.2870313 0.1495948
vt 0.2870313 0.1471339
vt 0.3067188 0.1471339
vt 0.3067188 0.1495948
vt 0.3116406 0.1495948
vt 0.3116406 0.1471339
vt 0.3067188 0.1471339
vt 0.3067188 0.1495948
vt 0.3067188 0.1495948
vt 0.3067188 0.1471339
vt 0.2870313 0.1471339
vt 0.2870313 0.1495948
vt 0.3067188 0.1495948
vt 0.3067188 0.1471339
vt 0.2870313 0.1471339
vt 0.2870313 0.1495948
vt 0.2870313 0.1495948
vt 0.2870313 0.1471339
vt 0.3067188 0.1471339
vt 0.3067188 0.1495948
vt 0.28125 0.1367188
vt 0.265625 0.1328125
vt 0.2734375 0.140625
vt 0.3125 0.1367188
vt 0.265625 0.1640625
vt 0.2734375 0.15625
vt 0.28125 0.1601563
vt 0.328125 0.1328125
vt 0.3203125 0.140625
vt 0.3203125 0.15625
vt 0.328125 0.1640625
vt 0.3125 0.1601563
vn -1 0 0
vn -1 0 0
vn -1 0 0
vn -1 0 0
vn 0 1 0
vn 0 1 0
vn 0 1 0
vn 0 1 0
vn 1 0 0
vn 1 0 0
vn 1 0 0
vn 1 0 0
vn 0.7071068 -0.7071068 0
vn 0.7071068 -0.7071068 0
vn 0.7071068 -0.7071068 0
vn 0.7071068 -0.7071068 0
vn -0.7071068 -0.7071068 0
vn -0.7071068 -0.7071068 0
vn -0.7071068 -0.7071068 0
vn -0.7071068 -0.7071068 0
vn 0 0 -1
vn 0 0 -1
vn 0 0 -1
vn 0 0 -1
vn 0 0 -1
vn 0 0 -1
vn 0 0 -1
vn 0 0 -1
vn 0 0 -1
vn 0 0 -1
vn 0 0 -1
vn 0 0 -1
vn 0 0 -1
vn 0 0 -1
vn 0 0 -1
vn 0 0 -1
vn -1.192093E-07 0 -1
vn -1.192093E-07 0 -1
vn -1.192093E-07 0 -1
vn -1.192093E-07 0 -1
vn 0 1 0
vn 0 1 0
vn 0 1 0
vn 0 1 0
vn 1.192093E-07 0 1
vn 1.192093E-07 0 1
vn 1.192093E-07 0 1
vn 1.192093E-07 0 1
vn 8.429369E-08 -0.7071068 0.7071068
vn 8.429369E-08 -0.7071068 0.7071068
vn 8.429369E-08 -0.7071068 0.7071068
vn 8.429369E-08 -0.7071068 0.7071068
vn -8.429369E-08 -0.7071068 -0.7071068
vn -8.429369E-08 -0.7071068 -0.7071068
vn -8.429369E-08 -0.7071068 -0.7071068
vn -8.429369E-08 -0.7071068 -0.7071068
vn 1 0 -1.192093E-07
vn 1 0 -1.192093E-07
vn 1 0 -1.192093E-07
vn 1 0 -1.192093E-07
vn 1 0 -1.192093E-07
vn 1 0 -1.192093E-07
vn 1 0 -1.192093E-07
vn 1 0 -1.192093E-07
vn 1 0 -1.192093E-07
vn 1 0 -1.192093E-07
vn 1 0 -1.192093E-07
vn 1 0 -1.192093E-07
vn 1 0 -1.192093E-07
vn 1 0 -1.192093E-07
vn 1 0 -1.192093E-07
vn 1 0 -1.192093E-07
vn 0 0 -1
vn 0 0 -1
vn 0 0 -1
vn 0 0 -1
vn -1 0 0
vn -1 0 0
vn -1 0 0
vn -1 0 0
vn 1 0 0
vn 1 0 0
vn 1 0 0
vn 1 0 0
vn 1 0 -1.192093E-07
vn 1 0 -1.192093E-07
vn 1 0 -1.192093E-07
vn 1 0 -1.192093E-07
vn -1 0 0
vn -1 0 0
vn -1 0 0
vn -1 0 0
vn -6.290182E-16 -8.742278E-08 -1
vn -6.290182E-16 -8.742278E-08 -1
vn -6.290182E-16 -8.742278E-08 -1
vn -6.290182E-16 -8.742278E-08 -1
vn 0 0 -1
vn 0 0 -1
vn 0 0 -1
vn 0 0 -1
vn -1 0 0
vn -1 0 0
vn -1 0 0
vn -1 0 0
vn 1 0 0
vn 1 0 0
vn 1 0 0
vn 1 0 0
vn -1 0 0
vn -1 0 0
vn -1 0 0
vn -1 0 0
vn -1 0 0
vn -1 0 0
vn -1 0 0
vn -1 0 0
vn -1 0 0
vn -1 0 0
vn -1 0 0
vn -1 0 0
vn -6.290182E-16 -8.742278E-08 -1
vn -6.290182E-16 -8.742278E-08 -1
vn -6.290182E-16 -8.742278E-08 -1
vn -6.290182E-16 -8.742278E-08 -1
vn 1 0 5.960464E-08
vn 1 0 5.960464E-08
vn 1 0 5.960464E-08
vn 1 0 5.960464E-08
vn 0.7071068 -8.429369E-08 0.7071068
vn 0.7071068 -8.429369E-08 0.7071068
vn 0.7071068 -8.429369E-08 0.7071068
vn 0.7071068 -8.429369E-08 0.7071068
vn -0.7071068 8.429369E-08 -0.7071068
vn -0.7071068 8.429369E-08 -0.7071068
vn -0.7071068 8.429369E-08 -0.7071068
vn -0.7071068 8.429369E-08 -0.7071068
vn -0.7071068 -8.429369E-08 0.7071068
vn -0.7071068 -8.429369E-08 0.7071068
vn -0.7071068 -8.429369E-08 0.7071068
vn -0.7071068 -8.429369E-08 0.7071068
vn 0 -1.192093E-07 1
vn 0 -1.192093E-07 1
vn 0 -1.192093E-07 1
vn 0 -1.192093E-07 1
vn 0.7071068 8.429369E-08 -0.7071068
vn 0.7071068 8.429369E-08 -0.7071068
vn 0.7071068 8.429369E-08 -0.7071068
vn 0.7071068 8.429369E-08 -0.7071068
vn -1 0 0
vn -1 0 0
vn -1 0 0
vn -1 0 0
vn 0 1.192093E-07 -1
vn 0 1.192093E-07 -1
vn 0 1.192093E-07 -1
vn 0 1.192093E-07 -1
vn 1 0 0
vn 1 0 0
vn 1 0 0
vn 1 0 0
vn 0 1 -1.192093E-07
vn 0 1 -1.192093E-07
vn 0 1 -1.192093E-07
vn 0 1 -1.192093E-07
vn 0 1 -1.192093E-07
vn 0 1 -1.192093E-07
vn 0 1 -1.192093E-07
vn 0 1 -1.192093E-07
vn 0 1 -1.192093E-07
vn 0 1 -1.192093E-07
vn 0 1 -1.192093E-07
vn 0 1 -1.192093E-07
g _Combined_Vis19_0_0
f 3/3/3 2/2/2 1/1/1
f 4/4/4 3/3/3 1/1/1
f 7/7/7 6/6/6 5/5/5
f 8/8/8 7/7/7 5/5/5
f 11/11/11 10/10/10 9/9/9
f 12/12/12 11/11/11 9/9/9
f 15/15/15 14/14/14 13/13/13
f 16/16/16 15/15/15 13/13/13
f 19/19/19 18/18/18 17/17/17
f 20/20/20 19/19/19 17/17/17
f 23/23/23 22/22/22 21/21/21
f 22/22/22 24/24/24 21/21/21
f 24/24/24 25/25/25 21/21/21
f 28/28/28 27/27/27 26/26/26
f 29/29/29 28/28/28 26/26/26
f 26/26/26 27/27/27 30/30/30
f 31/31/31 29/29/29 26/26/26
f 30/30/30 27/27/27 32/32/32
f 31/31/31 33/33/33 29/29/29
f 30/30/30 32/32/32 34/34/34
f 35/35/35 33/33/33 31/31/31
f 32/32/32 36/36/36 34/34/34
f 36/36/36 33/33/33 35/35/35
f 34/34/34 36/36/36 35/35/35
f 39/39/39 38/38/38 37/37/37
f 40/40/40 39/39/39 37/37/37
f 43/43/43 42/42/42 41/41/41
f 44/44/44 43/43/43 41/41/41
f 47/47/47 46/46/46 45/45/45
f 48/48/48 47/47/47 45/45/45
f 51/51/51 50/50/50 49/49/49
f 52/52/52 51/51/51 49/49/49
f 55/55/55 54/54/54 53/53/53
f 56/56/56 55/55/55 53/53/53
f 59/59/59 58/58/58 57/57/57
f 58/58/58 60/60/60 57/57/57
f 60/60/60 61/61/61 57/57/57
f 64/64/64 63/63/63 62/62/62
f 65/65/65 64/64/64 62/62/62
f 62/62/62 63/63/63 66/66/66
f 67/67/67 65/65/65 62/62/62
f 66/66/66 63/63/63 68/68/68
f 67/67/67 69/69/69 65/65/65
f 66/66/66 68/68/68 70/70/70
f 71/71/71 69/69/69 67/67/67
f 68/68/68 72/72/72 70/70/70
f 72/72/72 69/69/69 71/71/71
f 70/70/70 72/72/72 71/71/71
f 75/75/75 74/74/74 73/73/73
f 76/76/76 75/75/75 73/73/73
f 79/79/79 78/78/78 77/77/77
f 80/80/80 79/79/79 77/77/77
f 83/83/83 82/82/82 81/81/81
f 84/84/84 83/83/83 81/81/81
f 87/87/87 86/86/86 85/85/85
f 88/88/88 87/87/87 85/85/85
f 91/91/91 90/90/90 89/89/89
f 92/92/92 91/91/91 89/89/89
f 95/95/95 94/94/94 93/93/93
f 96/96/96 95/95/95 93/93/93
f 99/99/99 98/98/98 97/97/97
f 100/100/100 99/99/99 97/97/97
f 103/103/103 102/102/102 101/101/101
f 104/104/104 103/103/103 101/101/101
f 107/107/107 106/106/106 105/105/105
f 108/108/108 107/107/107 105/105/105
f 111/111/111 110/110/110 109/109/109
f 112/112/112 111/111/111 109/109/109
f 115/115/115 114/114/114 113/113/113
f 116/116/116 115/115/115 113/113/113
f 119/119/119 118/118/118 117/117/117
f 120/120/120 119/119/119 117/117/117
f 123/123/123 122/122/122 121/121/121
f 124/124/124 123/123/123 121/121/121
f 127/127/127 126/126/126 125/125/125
f 128/128/128 127/127/127 125/125/125
f 131/131/131 130/130/130 129/129/129
f 132/132/132 131/131/131 129/129/129
f 135/135/135 134/134/134 133/133/133
f 136/136/136 135/135/135 133/133/133
f 139/139/139 138/138/138 137/137/137
f 140/140/140 139/139/139 137/137/137
f 143/143/143 142/142/142 141/141/141
f 144/144/144 143/143/143 141/141/141
f 147/147/147 146/146/146 145/145/145
f 148/148/148 147/147/147 145/145/145
f 151/151/151 150/150/150 149/149/149
f 152/152/152 151/151/151 149/149/149
f 155/155/155 154/154/154 153/153/153
f 156/156/156 155/155/155 153/153/153
f 159/159/159 158/158/158 157/157/157
f 160/160/160 159/159/159 157/157/157
f 163/163/163 162/162/162 161/161/161
f 161/161/161 162/162/162 164/164/164
f 162/162/162 163/163/163 165/165/165
f 163/163/163 166/166/166 165/165/165
f 165/165/165 166/166/166 167/167/167
f 162/162/162 168/168/168 164/164/164
f 164/164/164 168/168/168 169/169/169
f 169/169/169 168/168/168 170/170/170
f 165/165/165 167/167/167 171/171/171
f 168/168/168 171/171/171 170/170/170
f 167/167/167 172/172/172 171/171/171
f 170/170/170 171/171/171 172/172/172
