g _Combined_Vis83_1
v -0.4999881 1.5 -0.9999827
v -0.4999948 1.5 -0.4999827
v -0.9999943 1.5 -0.4999883
v -0.9999886 1.5 -0.9999884
v 1.000006 1.5 -0.4999647
v 0.5000061 1.5 -0.4999716
v 0.5000119 1.5 -0.9999712
v 1.000012 1.5 -0.9999654
v 0.4999883 1.5 1.000029
v 0.499995 1.5 0.5000291
v 0.9999946 1.5 0.5000348
v 0.999989 1.5 1.000035
v -1.000006 1.5 0.5000111
v -0.5000058 1.5 0.5000179
v -0.5000114 1.5 1.000017
v -1.000012 1.5 1.000012
v -0.5000058 1.5 0.5000179
v -1.000006 1.5 0.5000111
v -0.9999943 1.5 -0.4999883
v -0.4999948 1.5 -0.4999827
v 0.499995 1.5 0.5000291
v 0.4999883 1.5 1.000029
v -0.5000114 1.5 1.000017
v -0.5000058 1.5 0.5000179
v -0.4999948 1.5 -0.4999827
v -0.4999881 1.5 -0.9999827
v 0.5000119 1.5 -0.9999712
v 0.5000061 1.5 -0.4999716
v 0.5000061 1.5 -0.4999716
v 1.000006 1.5 -0.4999647
v 0.9999946 1.5 0.5000348
v 0.499995 1.5 0.5000291
vt 0.703125 0.4296875
vt 0.703125 0.3984375
vt 0.640625 0.3984375
vt 0.640625 0.4296875
vt 0.703125 0.4296875
vt 0.703125 0.3984375
vt 0.640625 0.3984375
vt 0.640625 0.4296875
vt 0.703125 0.4296875
vt 0.703125 0.3984375
vt 0.640625 0.3984375
vt 0.640625 0.4296875
vt 0.703125 0.4296875
vt 0.703125 0.3984375
vt 0.640625 0.3984375
vt 0.640625 0.4296875
vt 0.171875 0.2265625
vt 0.171875 0.2578125
vt 0.296875 0.2578125
vt 0.296875 0.2265625
vt 0.171875 0.2265625
vt 0.171875 0.2578125
vt 0.296875 0.2578125
vt 0.296875 0.2265625
vt 0.171875 0.2265625
vt 0.171875 0.2578125
vt 0.296875 0.2578125
vt 0.296875 0.2265625
vt 0.171875 0.2265625
vt 0.171875 0.2578125
vt 0.296875 0.2578125
vt 0.296875 0.2265625
vn 0 1 -1.192093E-07
vn 0 1 -1.192093E-07
vn 0 1 -1.192093E-07
vn 0 1 -1.192093E-07
vn 0 1 0
vn 0 1 0
vn 0 1 0
vn 0 1 0
vn 0 1 -1.192093E-07
vn 0 1 -1.192093E-07
vn 0 1 -1.192093E-07
vn 0 1 -1.192093E-07
vn 0 1 -1.192093E-07
vn 0 1 -1.192093E-07
vn 0 1 -1.192093E-07
vn 0 1 -1.192093E-07
vn 0 1 -1.192093E-07
vn 0 1 -1.192093E-07
vn 0 1 -1.192093E-07
vn 0 1 -1.192093E-07
vn 0 1 -1.192093E-07
vn 0 1 -1.192093E-07
vn 0 1 -1.192093E-07
vn 0 1 -1.192093E-07
vn 0 1 -1.192093E-07
vn 0 1 -1.192093E-07
vn 0 1 -1.192093E-07
vn 0 1 -1.192093E-07
vn 0 1 0
vn 0 1 0
vn 0 1 0
vn 0 1 0
g _Combined_Vis83_1_0
f 3/3/3 2/2/2 1/1/1
f 4/4/4 3/3/3 1/1/1
f 7/7/7 6/6/6 5/5/5
f 8/8/8 7/7/7 5/5/5
f 11/11/11 10/10/10 9/9/9
f 12/12/12 11/11/11 9/9/9
f 15/15/15 14/14/14 13/13/13
f 16/16/16 15/15/15 13/13/13
f 19/19/19 18/18/18 17/17/17
f 20/20/20 19/19/19 17/17/17
f 23/23/23 22/22/22 21/21/21
f 24/24/24 23/23/23 21/21/21
f 27/27/27 26/26/26 25/25/25
f 28/28/28 27/27/27 25/25/25
f 31/31/31 30/30/30 29/29/29
f 32/32/32 31/31/31 29/29/29
