g _Combined_Vis42_0
v -25.5 -0.4999966 -29.5
v -25.5 -0.499994 -28.5
v -25.5 0.5000049 -28.5
v -25.5 0.5000044 -29.5
v -25.5 -0.4999962 -30.5
v -25.5 -0.4999966 -29.5
v -25.5 0.5000044 -29.5
v -25.5 0.5000048 -30.5
v -25.5 -0.4999958 -31.5
v -25.5 -0.4999962 -30.5
v -25.5 0.5000048 -30.5
v -25.5 0.5000052 -31.5
v -25.5 0.5000044 -29.5
v -25.5 0.5000049 -28.5
v -26.5 0.5000046 -28.5
v -26.5 0.5000043 -29.5
v -25.5 0.5000048 -30.5
v -25.5 0.5000044 -29.5
v -26.5 0.5000043 -29.5
v -26.5 0.5000047 -30.5
v -25.5 0.5000052 -31.5
v -25.5 0.5000048 -30.5
v -26.5 0.5000047 -30.5
v -26.5 0.5000051 -31.5
v -26.5 -0.4999985 -30.5
v -25.5 -0.4999962 -30.5
v -25.5 -0.4999958 -31.5
v -26.5 -0.4999984 -31.5
v -26.5 -0.4999951 -29.5
v -25.5 -0.4999966 -29.5
v -25.5 -0.4999962 -30.5
v -26.5 -0.4999985 -30.5
v -26.5 -0.4999993 -28.5
v -25.5 -0.499994 -28.5
v -25.5 -0.4999966 -29.5
v -26.5 -0.4999951 -29.5
v -26.5 0.5000043 -29.5
v -26.5 0.5000046 -28.5
v -26.5 -0.4999993 -28.5
v -26.5 -0.4999951 -29.5
v -26.5 0.5000047 -30.5
v -26.5 0.5000043 -29.5
v -26.5 -0.4999951 -29.5
v -26.5 -0.4999985 -30.5
v -26.5 0.5000051 -31.5
v -26.5 0.5000047 -30.5
v -26.5 -0.4999985 -30.5
v -26.5 -0.4999984 -31.5
v -25.5 -0.4999958 -31.5
v -25.5 0.5000052 -31.5
v -26.5 0.5000051 -31.5
v -26.5 -0.4999984 -31.5
vt 0.859375 0.3671875
vt 0.859375 0.3046875
vt 0.734375 0.3046875
vt 0.734375 0.3671875
vt 0.859375 0.3671875
vt 0.859375 0.3046875
vt 0.734375 0.3046875
vt 0.734375 0.3671875
vt 0.859375 0.3671875
vt 0.859375 0.3046875
vt 0.734375 0.3046875
vt 0.734375 0.3671875
vt 0.328125 0.1640625
vt 0.328125 0.1328125
vt 0.265625 0.1328125
vt 0.265625 0.1640625
vt 0.328125 0.1640625
vt 0.328125 0.1328125
vt 0.265625 0.1328125
vt 0.265625 0.1640625
vt 0.328125 0.1640625
vt 0.328125 0.1328125
vt 0.265625 0.1328125
vt 0.265625 0.1640625
vt 0.328125 0.1640625
vt 0.328125 0.1328125
vt 0.265625 0.1328125
vt 0.265625 0.1640625
vt 0.328125 0.1640625
vt 0.328125 0.1328125
vt 0.265625 0.1328125
vt 0.265625 0.1640625
vt 0.328125 0.1640625
vt 0.328125 0.1328125
vt 0.265625 0.1328125
vt 0.265625 0.1640625
vt 0.859375 0.3671875
vt 0.859375 0.3046875
vt 0.734375 0.3046875
vt 0.734375 0.3671875
vt 0.859375 0.3671875
vt 0.859375 0.3046875
vt 0.734375 0.3046875
vt 0.734375 0.3671875
vt 0.859375 0.3671875
vt 0.859375 0.3046875
vt 0.734375 0.3046875
vt 0.734375 0.3671875
vt 0.328125 0.1640625
vt 0.328125 0.1328125
vt 0.265625 0.1328125
vt 0.265625 0.1640625
vn 1 5.960465E-08 4.768371E-07
vn 1 5.960465E-08 4.768371E-07
vn 1 5.960465E-08 4.768371E-07
vn 1 5.960465E-08 4.768371E-07
vn 1 5.960465E-08 4.768371E-07
vn 1 5.960465E-08 4.768371E-07
vn 1 5.960465E-08 4.768371E-07
vn 1 5.960465E-08 4.768371E-07
vn 1 5.960465E-08 4.768371E-07
vn 1 5.960465E-08 4.768371E-07
vn 1 5.960465E-08 4.768371E-07
vn 1 5.960465E-08 4.768371E-07
vn -8.429363E-08 1 -3.576279E-07
vn -8.429363E-08 1 -3.576279E-07
vn -8.429363E-08 1 -3.576279E-07
vn -8.429363E-08 1 -3.576279E-07
vn -8.429363E-08 1 -3.576279E-07
vn -8.429363E-08 1 -3.576279E-07
vn -8.429363E-08 1 -3.576279E-07
vn -8.429363E-08 1 -3.576279E-07
vn -8.429363E-08 1 -3.576279E-07
vn -8.429363E-08 1 -3.576279E-07
vn -8.429363E-08 1 -3.576279E-07
vn -8.429363E-08 1 -3.576279E-07
vn -5.960466E-08 -1 -1.192093E-07
vn -5.960466E-08 -1 -1.192093E-07
vn -5.960466E-08 -1 -1.192093E-07
vn -5.960466E-08 -1 -1.192093E-07
vn -5.960466E-08 -1 -1.192093E-07
vn -5.960466E-08 -1 -1.192093E-07
vn -5.960466E-08 -1 -1.192093E-07
vn -5.960466E-08 -1 -1.192093E-07
vn -5.960466E-08 -1 -1.192093E-07
vn -5.960466E-08 -1 -1.192093E-07
vn -5.960466E-08 -1 -1.192093E-07
vn -5.960466E-08 -1 -1.192093E-07
vn -1 5.662441E-07 -3.576278E-07
vn -1 5.662441E-07 -3.576278E-07
vn -1 5.662441E-07 -3.576278E-07
vn -1 5.662441E-07 -3.576278E-07
vn -1 5.662441E-07 -3.576278E-07
vn -1 5.662441E-07 -3.576278E-07
vn -1 5.662441E-07 -3.576278E-07
vn -1 5.662441E-07 -3.576278E-07
vn -1 5.662441E-07 -3.576278E-07
vn -1 5.662441E-07 -3.576278E-07
vn -1 5.662441E-07 -3.576278E-07
vn -1 5.662441E-07 -3.576278E-07
vn 6.591874E-09 2.980233E-07 -1
vn 6.591874E-09 2.980233E-07 -1
vn 6.591874E-09 2.980233E-07 -1
vn 6.591874E-09 2.980233E-07 -1
g _Combined_Vis42_0_0
f 3/3/3 2/2/2 1/1/1
f 4/4/4 3/3/3 1/1/1
f 7/7/7 6/6/6 5/5/5
f 8/8/8 7/7/7 5/5/5
f 11/11/11 10/10/10 9/9/9
f 12/12/12 11/11/11 9/9/9
f 15/15/15 14/14/14 13/13/13
f 16/16/16 15/15/15 13/13/13
f 19/19/19 18/18/18 17/17/17
f 20/20/20 19/19/19 17/17/17
f 23/23/23 22/22/22 21/21/21
f 24/24/24 23/23/23 21/21/21
f 27/27/27 26/26/26 25/25/25
f 28/28/28 27/27/27 25/25/25
f 31/31/31 30/30/30 29/29/29
f 32/32/32 31/31/31 29/29/29
f 35/35/35 34/34/34 33/33/33
f 36/36/36 35/35/35 33/33/33
f 39/39/39 38/38/38 37/37/37
f 40/40/40 39/39/39 37/37/37
f 43/43/43 42/42/42 41/41/41
f 44/44/44 43/43/43 41/41/41
f 47/47/47 46/46/46 45/45/45
f 48/48/48 47/47/47 45/45/45
f 51/51/51 50/50/50 49/49/49
f 52/52/52 51/51/51 49/49/49
