g _Combined_Vis48_0
v 0.5000018 0.9999999 -0.5000085
v 0.500003 1 0.4999917
v -0.499996 1 0.4999949
v -0.4999992 0.9999999 -0.5000052
v 0.500003 1 0.4999917
v 0.5000018 0 0.4999981
v -0.4999971 0 0.5000013
v -0.499996 1 0.4999949
v 0.5000018 0 0.4999981
v 0.5000018 -1 0.4999981
v -0.4999971 -1 0.5000013
v -0.4999971 0 0.5000013
v 0.5000008 0 -0.5000033
v 0.5000008 -1 -0.5000013
v 0.5000018 -1 0.4999981
v 0.5000018 0 0.4999981
v 0.5000018 0.9999999 -0.5000085
v 0.5000008 0 -0.5000033
v 0.5000018 0 0.4999981
v 0.500003 1 0.4999917
v -0.4999992 0.9999999 -0.5000052
v -0.4999971 0 -0.4999968
v 0.5000008 0 -0.5000033
v 0.5000018 0.9999999 -0.5000085
v -0.4999971 0 -0.4999968
v -0.4999971 -1 -0.4999968
v 0.5000008 -1 -0.5000013
v 0.5000008 0 -0.5000033
v -0.4999971 0 0.5000013
v -0.4999971 -1 0.5000013
v -0.4999971 -1 -0.4999968
v -0.4999971 0 -0.4999968
v -0.499996 1 0.4999949
v -0.4999971 0 0.5000013
v -0.4999971 0 -0.4999968
v -0.4999992 0.9999999 -0.5000052
vt 0.46875 0.328125
vt 0.46875 0.265625
vt 0.34375 0.265625
vt 0.34375 0.328125
vt 0.96875 0.171875
vt 0.96875 0.109375
vt 0.84375 0.109375
vt 0.84375 0.171875
vt 0.96875 0.171875
vt 0.96875 0.109375
vt 0.84375 0.109375
vt 0.84375 0.171875
vt 0.96875 0.171875
vt 0.96875 0.109375
vt 0.84375 0.109375
vt 0.84375 0.171875
vt 0.96875 0.171875
vt 0.96875 0.109375
vt 0.84375 0.109375
vt 0.84375 0.171875
vt 0.96875 0.171875
vt 0.96875 0.109375
vt 0.84375 0.109375
vt 0.84375 0.171875
vt 0.96875 0.171875
vt 0.96875 0.109375
vt 0.84375 0.109375
vt 0.84375 0.171875
vt 0.96875 0.171875
vt 0.96875 0.109375
vt 0.84375 0.109375
vt 0.84375 0.171875
vt 0.96875 0.171875
vt 0.96875 0.109375
vt 0.84375 0.109375
vt 0.84375 0.171875
vn 0 1 -1.192093E-07
vn 0 1 -1.192093E-07
vn 0 1 -1.192093E-07
vn 0 1 -1.192093E-07
vn 3.218651E-06 0 1
vn 3.218651E-06 0 1
vn 3.218651E-06 0 1
vn 3.218651E-06 0 1
vn 3.218651E-06 0 1
vn 3.218651E-06 0 1
vn 3.218651E-06 0 1
vn 3.218651E-06 0 1
vn 1 0 -3.21865E-06
vn 1 0 -3.21865E-06
vn 1 0 -3.21865E-06
vn 1 0 -3.21865E-06
vn 1 0 -3.21865E-06
vn 1 0 -3.21865E-06
vn 1 0 -3.21865E-06
vn 1 0 -3.21865E-06
vn -3.218651E-06 0 -1
vn -3.218651E-06 0 -1
vn -3.218651E-06 0 -1
vn -3.218651E-06 0 -1
vn -3.218651E-06 0 -1
vn -3.218651E-06 0 -1
vn -3.218651E-06 0 -1
vn -3.218651E-06 0 -1
vn -1 0 3.039836E-06
vn -1 0 3.039836E-06
vn -1 0 3.039836E-06
vn -1 0 3.039836E-06
vn -1 0 3.039836E-06
vn -1 0 3.039836E-06
vn -1 0 3.039836E-06
vn -1 0 3.039836E-06
g _Combined_Vis48_0_0
f 3/3/3 2/2/2 1/1/1
f 4/4/4 3/3/3 1/1/1
f 7/7/7 6/6/6 5/5/5
f 8/8/8 7/7/7 5/5/5
f 11/11/11 10/10/10 9/9/9
f 12/12/12 11/11/11 9/9/9
f 15/15/15 14/14/14 13/13/13
f 16/16/16 15/15/15 13/13/13
f 19/19/19 18/18/18 17/17/17
f 20/20/20 19/19/19 17/17/17
f 23/23/23 22/22/22 21/21/21
f 24/24/24 23/23/23 21/21/21
f 27/27/27 26/26/26 25/25/25
f 28/28/28 27/27/27 25/25/25
f 31/31/31 30/30/30 29/29/29
f 32/32/32 31/31/31 29/29/29
f 35/35/35 34/34/34 33/33/33
f 36/36/36 35/35/35 33/33/33
