g _Combined_Vis4_0
v 17.10983 -30.53843 -24.50001
v 15.50001 -30.5 -24.50001
v 17.50001 -30.5 -24.50001
v 16.73464 -30.65224 -24.50001
v 16.38887 -30.83706 -24.50001
v 16.08579 -31.08578 -24.50001
v 15.83707 -31.38886 -24.50001
v 15.65225 -31.73463 -24.50001
v 15.53844 -32.10982 -24.50001
v 15.50001 -32.5 -24.50001
v 15.50001 -32.5 -25.50001
v 15.50001 -32.5 -24.50001
v 15.53844 -32.10982 -24.50001
v 15.53844 -32.10982 -25.50001
v 15.65225 -31.73463 -24.50001
v 15.65225 -31.73463 -25.50001
v 15.83707 -31.38886 -24.50001
v 15.83707 -31.38886 -25.50001
v 16.08579 -31.08578 -24.50001
v 16.08579 -31.08578 -25.50001
v 16.38887 -30.83706 -24.50001
v 16.38887 -30.83706 -25.50001
v 16.73464 -30.65224 -24.50001
v 16.73464 -30.65224 -25.50001
v 17.10983 -30.53843 -24.50001
v 17.10983 -30.53843 -25.50001
v 17.50001 -30.5 -24.50001
v 17.50001 -30.5 -25.50001
v 17.50001 -30.5 -25.50001
v 15.50001 -30.5 -25.50001
v 17.10983 -30.53843 -25.50001
v 16.73464 -30.65224 -25.50001
v 16.38887 -30.83706 -25.50001
v 16.08579 -31.08578 -25.50001
v 15.83707 -31.38886 -25.50001
v 15.65225 -31.73463 -25.50001
v 15.53844 -32.10982 -25.50001
v 15.50001 -32.5 -25.50001
v 15.50001 -30.5 -25.50001
v 16.50001 -30.5 -25.50001
v 16.50001 -29.5 -25.50001
v 15.50001 -29.5 -25.50001
v 16.50001 -29.5 -25.50001
v 16.50001 -29.5 -24.50001
v 15.50001 -29.5 -24.50001
v 15.50001 -29.5 -25.50001
v 16.50001 -30.5 -25.50001
v 17.50001 -30.5 -25.50001
v 17.50001 -29.5 -25.50001
v 16.50001 -29.5 -25.50001
v 17.50001 -29.5 -25.50001
v 17.50001 -29.5 -24.50001
v 16.50001 -29.5 -24.50001
v 16.50001 -29.5 -25.50001
v 17.50001 -29.5 -25.50001
v 17.50001 -30.5 -25.50001
v 17.50001 -30.5 -24.50001
v 17.50001 -29.5 -24.50001
vt 0.9565789 0.3112633
vt 0.9062721 0.3124642
vt 0.9687721 0.3124642
vt 0.9448543 0.3077067
vt 0.9340489 0.3019311
vt 0.9245779 0.2941585
vt 0.9168052 0.2846874
vt 0.9110296 0.273882
vt 0.907473 0.2621574
vt 0.9062721 0.2499643
vt 0.8440674 0.3125213
vt 0.9062499 0.3125214
vt 0.9062499 0.2968989
vt 0.8440674 0.2968988
vt 0.9062499 0.2812764
vt 0.8440674 0.2812763
vt 0.90625 0.2656539
vt 0.8440675 0.2656538
vt 0.90625 0.2500314
vt 0.8440675 0.2500313
vt 0.90625 0.2344089
vt 0.8440676 0.2344088
vt 0.9062501 0.2187864
vt 0.8440676 0.2187863
vt 0.9062501 0.2031638
vt 0.8440676 0.2031638
vt 0.9062501 0.1875413
vt 0.8440676 0.1875413
vt 0.968772 0.2499673
vt 0.9062721 0.2499673
vt 0.9565789 0.2487664
vt 0.9448543 0.2452098
vt 0.9340489 0.2394342
vt 0.9245778 0.2316616
vt 0.9168052 0.2221905
vt 0.9110296 0.2113851
vt 0.907473 0.1996605
vt 0.9062721 0.1874674
vt 0.96875 0.3125
vt 0.96875 0.1875
vt 0.84375 0.1875
vt 0.84375 0.3125
vt 0.96875 0.3125
vt 0.96875 0.1875
vt 0.84375 0.1875
vt 0.84375 0.3125
vt 0.96875 0.3125
vt 0.96875 0.1875
vt 0.84375 0.1875
vt 0.84375 0.3125
vt 0.96875 0.3125
vt 0.96875 0.1875
vt 0.84375 0.1875
vt 0.84375 0.3125
vt 0.96875 0.3125
vt 0.96875 0.1875
vt 0.84375 0.1875
vt 0.84375 0.3125
vn -1.839479E-16 -1.037745E-15 1
vn -1.839479E-16 -1.037745E-15 1
vn -1.839479E-16 -1.037745E-15 1
vn -1.839479E-16 -1.037745E-15 1
vn -1.839479E-16 -1.037745E-15 1
vn -1.839479E-16 -1.037745E-15 1
vn -1.839479E-16 -1.037745E-15 1
vn -1.839479E-16 -1.037745E-15 1
vn -1.839479E-16 -1.037745E-15 1
vn -1.839479E-16 -1.037745E-15 1
vn 1 -2.269326E-15 -1.839479E-16
vn 1 -2.269326E-15 -1.839479E-16
vn 0.9807853 -0.1950905 2.204084E-17
vn 0.9807853 -0.1950905 2.204084E-17
vn 0.9238793 -0.3826838 2.271827E-16
vn 0.9238793 -0.3826838 2.271827E-16
vn 0.8314694 -0.5555707 4.235938E-16
vn 0.8314694 -0.5555707 4.235938E-16
vn 0.7071066 -0.7071069 6.037261E-16
vn 0.7071066 -0.7071069 6.037261E-16
vn 0.5555698 -0.8314699 7.60658E-16
vn 0.5555698 -0.8314699 7.60658E-16
vn 0.3826825 -0.9238799 8.883584E-16
vn 0.3826826 -0.9238799 8.883583E-16
vn 0.1950894 -0.9807855 9.819192E-16
vn 0.1950894 -0.9807855 9.819192E-16
vn 2.269327E-15 -1 1.037745E-15
vn 2.269327E-15 -1 1.037745E-15
vn 1.839479E-16 1.037745E-15 -1
vn 1.839479E-16 1.037745E-15 -1
vn 1.839479E-16 1.037745E-15 -1
vn 1.839479E-16 1.037745E-15 -1
vn 1.839479E-16 1.037745E-15 -1
vn 1.839479E-16 1.037745E-15 -1
vn 1.839479E-16 1.037745E-15 -1
vn 1.839479E-16 1.037745E-15 -1
vn 1.839479E-16 1.037745E-15 -1
vn 1.839479E-16 1.037745E-15 -1
vn 8.742277E-08 1.555206E-15 -1
vn 8.742277E-08 1.555206E-15 -1
vn 8.742277E-08 1.555206E-15 -1
vn 8.742277E-08 1.555206E-15 -1
vn -1.297003E-15 1 -1.192093E-07
vn -1.297003E-15 1 -1.192093E-07
vn -1.297003E-15 1 -1.192093E-07
vn -1.297003E-15 1 -1.192093E-07
vn 8.742277E-08 1.555206E-15 -1
vn 8.742277E-08 1.555206E-15 -1
vn 8.742277E-08 1.555206E-15 -1
vn 8.742277E-08 1.555206E-15 -1
vn -1.297003E-15 1 -1.192093E-07
vn -1.297003E-15 1 -1.192093E-07
vn -1.297003E-15 1 -1.192093E-07
vn -1.297003E-15 1 -1.192093E-07
vn 1 -4.929708E-16 -1.192093E-07
vn 1 -4.929708E-16 -1.192093E-07
vn 1 -4.929708E-16 -1.192093E-07
vn 1 -4.929708E-16 -1.192093E-07
g _Combined_Vis4_0_0
f 3/3/3 2/2/2 1/1/1
f 1/1/1 2/2/2 4/4/4
f 4/4/4 2/2/2 5/5/5
f 5/5/5 2/2/2 6/6/6
f 6/6/6 2/2/2 7/7/7
f 7/7/7 2/2/2 8/8/8
f 8/8/8 2/2/2 9/9/9
f 9/9/9 2/2/2 10/10/10
f 13/13/13 12/12/12 11/11/11
f 14/14/14 13/13/13 11/11/11
f 15/15/15 13/13/13 14/14/14
f 16/16/16 15/15/15 14/14/14
f 17/17/17 15/15/15 16/16/16
f 18/18/18 17/17/17 16/16/16
f 19/19/19 17/17/17 18/18/18
f 20/20/20 19/19/19 18/18/18
f 21/21/21 19/19/19 20/20/20
f 22/22/22 21/21/21 20/20/20
f 23/23/23 21/21/21 22/22/22
f 24/24/24 23/23/23 22/22/22
f 25/25/25 23/23/23 24/24/24
f 26/26/26 25/25/25 24/24/24
f 27/27/27 25/25/25 26/26/26
f 28/28/28 27/27/27 26/26/26
f 31/31/31 30/30/30 29/29/29
f 32/32/32 30/30/30 31/31/31
f 33/33/33 30/30/30 32/32/32
f 34/34/34 30/30/30 33/33/33
f 35/35/35 30/30/30 34/34/34
f 36/36/36 30/30/30 35/35/35
f 37/37/37 30/30/30 36/36/36
f 38/38/38 30/30/30 37/37/37
f 41/41/41 40/40/40 39/39/39
f 42/42/42 41/41/41 39/39/39
f 45/45/45 44/44/44 43/43/43
f 46/46/46 45/45/45 43/43/43
f 49/49/49 48/48/48 47/47/47
f 50/50/50 49/49/49 47/47/47
f 53/53/53 52/52/52 51/51/51
f 54/54/54 53/53/53 51/51/51
f 57/57/57 56/56/56 55/55/55
f 58/58/58 57/57/57 55/55/55
