g _Combined_AutoVis12_0
v -137 5 35.5
v -137 5 34.5
v -136 5 34.5
v -136 5 35.5
v -136 5 34.5
v -136 4 34.5
v -136 4 35.5
v -136 5 35.5
v -136.75 4.875 35.5
v -136.75 4.875 35.375
v -136.875 4.75 35.375
v -136.875 4.75 35.5
v -136.25 4.125 35.5
v -136.25 4.125 35.375
v -136.125 4.25 35.375
v -136.125 4.25 35.5
v -136.125 4.75 35.5
v -136.125 4.75 35.375
v -136.25 4.875 35.375
v -136.25 4.875 35.5
v -136.25 4.875 35.5
v -136.25 4.875 35.375
v -136.75 4.875 35.375
v -136.75 4.875 35.5
v -136.875 4.25 35.5
v -136.875 4.25 35.375
v -136.75 4.125 35.375
v -136.75 4.125 35.5
v -136.125 4.25 35.5
v -136.125 4.25 35.375
v -136.125 4.75 35.375
v -136.125 4.75 35.5
v -136.75 4.125 35.5
v -136.75 4.125 35.375
v -136.25 4.125 35.375
v -136.25 4.125 35.5
v -136.875 4.75 35.5
v -136.875 4.75 35.375
v -136.875 4.25 35.375
v -136.875 4.25 35.5
v -136.25 4.875 35.5
v -136 5 35.5
v -136.125 4.75 35.5
v -136.75 4.875 35.5
v -136 4 35.5
v -136.125 4.25 35.5
v -136.25 4.125 35.5
v -137 5 35.5
v -136.875 4.75 35.5
v -136.875 4.25 35.5
v -137 4 35.5
v -136.75 4.125 35.5
vt 0.75 0.15625
vt 0.75 0.03125
vt 0.625 0.03125
vt 0.625 0.15625
vt 0.75 0.15625
vt 0.75 0.03125
vt 0.625 0.03125
vt 0.625 0.15625
vt 0.7071875 0.09837937
vt 0.7071875 0.08853562
vt 0.7170312 0.08853562
vt 0.7170312 0.09837937
vt 0.6678125 0.09837937
vt 0.6678125 0.08853562
vt 0.6579688 0.08853562
vt 0.6579688 0.09837937
vt 0.6579688 0.09837937
vt 0.6579688 0.08853562
vt 0.6678125 0.08853562
vt 0.6678125 0.09837937
vt 0.6678125 0.09837937
vt 0.6678125 0.08853562
vt 0.7071875 0.08853562
vt 0.7071875 0.09837937
vt 0.7170312 0.09837937
vt 0.7170312 0.08853562
vt 0.7071875 0.08853562
vt 0.7071875 0.09837937
vt 0.7071875 0.09837937
vt 0.7071875 0.08853562
vt 0.6678125 0.08853562
vt 0.6678125 0.09837937
vt 0.7071875 0.09837937
vt 0.7071875 0.08853562
vt 0.6678125 0.08853562
vt 0.6678125 0.09837937
vt 0.6678125 0.09837937
vt 0.6678125 0.08853562
vt 0.7071875 0.08853562
vt 0.7071875 0.09837937
vt 0.65625 0.046875
vt 0.625 0.03125
vt 0.640625 0.0625
vt 0.71875 0.046875
vt 0.625 0.15625
vt 0.640625 0.125
vt 0.65625 0.140625
vt 0.75 0.03125
vt 0.734375 0.0625
vt 0.734375 0.125
vt 0.75 0.15625
vt 0.71875 0.140625
vn 0 1 -1.192093E-07
vn 0 1 -1.192093E-07
vn 0 1 -1.192093E-07
vn 0 1 -1.192093E-07
vn 1 0 -1.192093E-07
vn 1 0 -1.192093E-07
vn 1 0 -1.192093E-07
vn 1 0 -1.192093E-07
vn 0.7071068 -0.7071068 -4.214685E-08
vn 0.7071068 -0.7071068 -4.214685E-08
vn 0.7071068 -0.7071068 -4.214685E-08
vn 0.7071068 -0.7071068 -4.214685E-08
vn -0.7071068 0.7071068 4.214685E-08
vn -0.7071068 0.7071068 4.214685E-08
vn -0.7071068 0.7071068 4.214685E-08
vn -0.7071068 0.7071068 4.214685E-08
vn -0.7071068 -0.7071068 -4.214685E-08
vn -0.7071068 -0.7071068 -4.214685E-08
vn -0.7071068 -0.7071068 -4.214685E-08
vn -0.7071068 -0.7071068 -4.214685E-08
vn 0 -1 -5.960464E-08
vn 0 -1 -5.960464E-08
vn 0 -1 -5.960464E-08
vn 0 -1 -5.960464E-08
vn 0.7071068 0.7071068 4.214685E-08
vn 0.7071068 0.7071068 4.214685E-08
vn 0.7071068 0.7071068 4.214685E-08
vn 0.7071068 0.7071068 4.214685E-08
vn -1 0 0
vn -1 0 0
vn -1 0 0
vn -1 0 0
vn 0 1 5.960464E-08
vn 0 1 5.960464E-08
vn 0 1 5.960464E-08
vn 0 1 5.960464E-08
vn 1 0 0
vn 1 0 0
vn 1 0 0
vn 1 0 0
vn 0 -5.960464E-08 1
vn 0 -5.960464E-08 1
vn 0 -5.960464E-08 1
vn 0 -5.960464E-08 1
vn 0 -5.960464E-08 1
vn 0 -5.960464E-08 1
vn 0 -5.960464E-08 1
vn 0 -5.960464E-08 1
vn 0 -5.960464E-08 1
vn 0 -5.960464E-08 1
vn 0 -5.960464E-08 1
vn 0 -5.960464E-08 1
g _Combined_AutoVis12_0_0
f 3/3/3 2/2/2 1/1/1
f 4/4/4 3/3/3 1/1/1
f 7/7/7 6/6/6 5/5/5
f 8/8/8 7/7/7 5/5/5
f 11/11/11 10/10/10 9/9/9
f 12/12/12 11/11/11 9/9/9
f 15/15/15 14/14/14 13/13/13
f 16/16/16 15/15/15 13/13/13
f 19/19/19 18/18/18 17/17/17
f 20/20/20 19/19/19 17/17/17
f 23/23/23 22/22/22 21/21/21
f 24/24/24 23/23/23 21/21/21
f 27/27/27 26/26/26 25/25/25
f 28/28/28 27/27/27 25/25/25
f 31/31/31 30/30/30 29/29/29
f 32/32/32 31/31/31 29/29/29
f 35/35/35 34/34/34 33/33/33
f 36/36/36 35/35/35 33/33/33
f 39/39/39 38/38/38 37/37/37
f 40/40/40 39/39/39 37/37/37
f 43/43/43 42/42/42 41/41/41
f 41/41/41 42/42/42 44/44/44
f 42/42/42 43/43/43 45/45/45
f 43/43/43 46/46/46 45/45/45
f 45/45/45 46/46/46 47/47/47
f 42/42/42 48/48/48 44/44/44
f 44/44/44 48/48/48 49/49/49
f 49/49/49 48/48/48 50/50/50
f 45/45/45 47/47/47 51/51/51
f 48/48/48 51/51/51 50/50/50
f 47/47/47 52/52/52 51/51/51
f 50/50/50 51/51/51 52/52/52
