g _Combined_Vis36_0
v -0.5000147 1.500004 -0.5000015
v -0.5000127 0.5000035 -0.5000015
v 0.4999868 0.5000035 -0.5000015
v 0.4999868 1.500004 -0.5000015
v 0.4999868 1.500004 -0.5000015
v 0.4999868 0.5000035 -0.5000015
v 0.4999864 0.5000187 0.4999986
v 0.4999865 1.500019 0.4999985
v -0.5000147 1.500004 -0.5000015
v 0.4999868 1.500004 -0.5000015
v 0.4999865 1.500019 0.4999985
v -0.5000138 1.500003 0.4999985
v -0.5000127 0.5000035 -0.5000015
v -0.5000128 -0.4999995 -0.5000015
v 0.4999867 -0.4999995 -0.5000015
v 0.4999868 0.5000035 -0.5000015
v 0.4999868 0.5000035 -0.5000015
v 0.4999867 -0.4999995 -0.5000015
v 0.5000741 -0.4999995 0.4999987
v 0.4999864 0.5000187 0.4999986
v 0.5000945 -1.499984 -0.5000014
v 0.4999867 -0.4999995 -0.5000015
v -0.5000128 -0.4999995 -0.5000015
v -0.499907 -1.499984 -0.5000014
v 0.5000399 -1.499991 0.4999997
v 0.5000741 -0.4999995 0.4999987
v 0.4999867 -0.4999995 -0.5000015
v 0.5000945 -1.499984 -0.5000014
v -0.5000138 1.500003 0.4999985
v -0.5000136 0.500013 0.4999974
v -0.5000127 0.5000035 -0.5000015
v -0.5000147 1.500004 -0.5000015
v 0.4999865 1.500019 0.4999985
v 0.4999864 0.5000187 0.4999986
v -0.5000136 0.500013 0.4999974
v -0.5000138 1.500003 0.4999985
v 0.4999864 0.5000187 0.4999986
v 0.5000741 -0.4999995 0.4999987
v -0.5000139 -0.4999976 0.4999985
v -0.5000136 0.500013 0.4999974
v 0.5000741 -0.4999995 0.4999987
v 0.5000399 -1.499991 0.4999997
v -0.5000064 -1.499997 0.5000062
v -0.5000139 -0.4999976 0.4999985
v -0.499907 -1.499984 -0.5000014
v -0.5000128 -0.4999995 -0.5000015
v -0.5000139 -0.4999976 0.4999985
v -0.5000064 -1.499997 0.5000062
v -0.5000136 0.500013 0.4999974
v -0.5000139 -0.4999976 0.4999985
v -0.5000128 -0.4999995 -0.5000015
v -0.5000127 0.5000035 -0.5000015
vt 0.34375 0.609375
vt 0.34375 0.546875
vt 0.21875 0.546875
vt 0.21875 0.609375
vt 0.34375 0.609375
vt 0.34375 0.546875
vt 0.21875 0.546875
vt 0.21875 0.609375
vt 0.53125 0.703125
vt 0.53125 0.640625
vt 0.40625 0.640625
vt 0.40625 0.703125
vt 0.71875 0.578125
vt 0.71875 0.515625
vt 0.59375 0.515625
vt 0.59375 0.578125
vt 0.71875 0.578125
vt 0.71875 0.515625
vt 0.59375 0.515625
vt 0.59375 0.578125
vt 0.71875 0.578125
vt 0.71875 0.515625
vt 0.59375 0.515625
vt 0.59375 0.578125
vt 0.71875 0.578125
vt 0.71875 0.515625
vt 0.59375 0.515625
vt 0.59375 0.578125
vt 0.34375 0.609375
vt 0.34375 0.546875
vt 0.21875 0.546875
vt 0.21875 0.609375
vt 0.90625 0.296875
vt 0.90625 0.234375
vt 0.78125 0.234375
vt 0.78125 0.296875
vt 0.90625 0.296875
vt 0.90625 0.234375
vt 0.78125 0.234375
vt 0.78125 0.296875
vt 0.90625 0.296875
vt 0.90625 0.234375
vt 0.78125 0.234375
vt 0.78125 0.296875
vt 0.71875 0.578125
vt 0.71875 0.515625
vt 0.59375 0.515625
vt 0.59375 0.578125
vt 0.71875 0.578125
vt 0.71875 0.515625
vt 0.59375 0.515625
vt 0.59375 0.578125
vn -9.369253E-14 8.749242E-15 -1
vn -9.369253E-14 8.749242E-15 -1
vn -9.369253E-14 8.749242E-15 -1
vn -9.369253E-14 8.749242E-15 -1
vn 1 -1.193587E-07 1.78814E-07
vn 1 -1.193587E-07 1.78814E-07
vn 1 -1.193587E-07 1.78814E-07
vn 1 -1.193587E-07 1.78814E-07
vn -3.070167E-14 1 -2.625899E-14
vn -3.070167E-14 1 -2.625899E-14
vn -3.070167E-14 1 -2.625899E-14
vn -3.070167E-14 1 -2.625899E-14
vn -9.369253E-14 8.749242E-15 -1
vn -9.369253E-14 8.749242E-15 -1
vn -9.369253E-14 8.749242E-15 -1
vn -9.369253E-14 8.749242E-15 -1
vn 1 -2.026602E-07 5.960472E-08
vn 1 -2.026602E-07 5.960472E-08
vn 1 -2.026602E-07 5.960472E-08
vn 1 -2.026602E-07 5.960472E-08
vn -7.948168E-14 1.643814E-15 -1
vn -7.948168E-14 1.643814E-15 -1
vn -7.948168E-14 1.643814E-15 -1
vn -7.948168E-14 1.643814E-15 -1
vn 1 4.214685E-07 1.78814E-07
vn 1 4.214685E-07 1.78814E-07
vn 1 4.214685E-07 1.78814E-07
vn 1 4.214685E-07 1.78814E-07
vn -1 -6.206735E-08 -1.192093E-07
vn -1 -6.206735E-08 -1.192093E-07
vn -1 -6.206735E-08 -1.192093E-07
vn -1 -6.206735E-08 -1.192093E-07
vn 9.369253E-14 -8.749242E-15 1
vn 9.369253E-14 -8.749242E-15 1
vn 9.369253E-14 -8.749242E-15 1
vn 9.369253E-14 -8.749242E-15 1
vn 9.369253E-14 -8.749242E-15 1
vn 9.369253E-14 -8.749242E-15 1
vn 9.369253E-14 -8.749242E-15 1
vn 9.369253E-14 -8.749242E-15 1
vn 9.369253E-14 -8.749242E-15 1
vn 9.369253E-14 -8.749242E-15 1
vn 9.369253E-14 -8.749242E-15 1
vn 9.369253E-14 -8.749242E-15 1
vn -1 -1.475139E-07 5.960451E-08
vn -1 -1.475139E-07 5.960451E-08
vn -1 -1.475139E-07 5.960451E-08
vn -1 -1.475139E-07 5.960451E-08
vn -1 -1.056433E-07 5.96045E-08
vn -1 -1.056433E-07 5.96045E-08
vn -1 -1.056433E-07 5.96045E-08
vn -1 -1.056433E-07 5.96045E-08
g _Combined_Vis36_0_0
f 3/3/3 2/2/2 1/1/1
f 4/4/4 3/3/3 1/1/1
f 7/7/7 6/6/6 5/5/5
f 8/8/8 7/7/7 5/5/5
f 11/11/11 10/10/10 9/9/9
f 12/12/12 11/11/11 9/9/9
f 15/15/15 14/14/14 13/13/13
f 16/16/16 15/15/15 13/13/13
f 19/19/19 18/18/18 17/17/17
f 20/20/20 19/19/19 17/17/17
f 23/23/23 22/22/22 21/21/21
f 24/24/24 23/23/23 21/21/21
f 27/27/27 26/26/26 25/25/25
f 28/28/28 27/27/27 25/25/25
f 31/31/31 30/30/30 29/29/29
f 32/32/32 31/31/31 29/29/29
f 35/35/35 34/34/34 33/33/33
f 36/36/36 35/35/35 33/33/33
f 39/39/39 38/38/38 37/37/37
f 40/40/40 39/39/39 37/37/37
f 43/43/43 42/42/42 41/41/41
f 44/44/44 43/43/43 41/41/41
f 47/47/47 46/46/46 45/45/45
f 48/48/48 47/47/47 45/45/45
f 51/51/51 50/50/50 49/49/49
f 52/52/52 51/51/51 49/49/49
