g _Combined_AutoVis40_1
v -116 -0.4999927 -102.5
v -116 -0.4999907 -101.5
v -116 0.5000088 -101.5
v -116 0.5000088 -102.5
v -119 0.5000082 -101.5
v -119 1.500009 -101.5
v -118 1.500009 -101.5
v -118 0.5000083 -101.5
v -117 0.5000085 -102.5
v -117 1.500009 -102.5
v -118 1.500009 -102.5
v -118 0.5000082 -102.5
v -118 -0.499992 -101.5
v -118 0.5000083 -101.5
v -117 0.5000086 -101.5
v -117 -0.4999918 -101.5
v -117 -0.4999917 -102.5
v -117 0.5000085 -102.5
v -118 0.5000082 -102.5
v -118 -0.499992 -102.5
v -117 -0.4999918 -101.5
v -117 0.5000086 -101.5
v -116 0.5000088 -101.5
v -116 -0.4999907 -101.5
v -116 1.500009 -102.5
v -116 2.50001 -102.5
v -117 2.500009 -102.5
v -117 1.500009 -102.5
v -118 0.5000082 -102.5
v -118 1.500009 -102.5
v -119 1.500009 -102.5
v -119 0.500008 -102.5
v -118 1.500009 -101.5
v -118 2.500009 -101.5
v -117 2.500009 -101.5
v -117 1.500009 -101.5
v -118 1.500009 -102.5
v -118 2.500009 -102.5
v -119 2.500009 -102.5
v -119 1.500009 -102.5
v -116 -0.4999927 -102.5
v -116 0.5000088 -102.5
v -117 0.5000085 -102.5
v -117 -0.4999917 -102.5
v -117 1.500009 -101.5
v -117 2.500009 -101.5
v -116 2.500009 -101.5
v -116 1.500009 -101.5
v -119 -0.4999921 -101.5
v -119 0.5000082 -101.5
v -118 0.5000083 -101.5
v -118 -0.499992 -101.5
v -117 1.500009 -102.5
v -117 2.500009 -102.5
v -118 2.500009 -102.5
v -118 1.500009 -102.5
v -116 0.5000088 -102.5
v -116 1.500009 -102.5
v -117 1.500009 -102.5
v -117 0.5000085 -102.5
v -117 0.5000086 -101.5
v -117 1.500009 -101.5
v -116 1.500009 -101.5
v -116 0.5000088 -101.5
v -118 -0.499992 -102.5
v -118 0.5000082 -102.5
v -119 0.500008 -102.5
v -119 -0.4999922 -102.5
v -118 -0.499992 -101.5
v -117 -0.4999918 -101.5
v -117 -0.4999917 -102.5
v -118 -0.499992 -102.5
v -116 -0.4999927 -102.5
v -117 -0.4999917 -102.5
v -117 -0.4999918 -101.5
v -116 -0.4999907 -101.5
v -119 -0.4999921 -101.5
v -118 -0.499992 -101.5
v -118 -0.499992 -102.5
v -119 -0.4999922 -102.5
v -119 -0.4999921 -101.5
v -119 -0.4999922 -102.5
v -119 0.500008 -102.5
v -119 0.5000082 -101.5
v -119 0.5000082 -101.5
v -119 0.500008 -102.5
v -119 1.500009 -102.5
v -119 1.500009 -101.5
v -119 1.500009 -101.5
v -119 1.500009 -102.5
v -119 2.500009 -102.5
v -119 2.500009 -101.5
v -116 1.500009 -102.5
v -116 1.500009 -101.5
v -116 2.500009 -101.5
v -116 2.50001 -102.5
v -116 2.500009 -101.5
v -117 2.500009 -101.5
v -117 2.500009 -102.5
v -116 2.50001 -102.5
v -116 0.5000088 -102.5
v -116 0.5000088 -101.5
v -116 1.500009 -101.5
v -116 1.500009 -102.5
v -118 2.500009 -102.5
v -117 2.500009 -102.5
v -117 2.500009 -101.5
v -118 2.500009 -102.5
v -117 2.500009 -101.5
v -118 2.500009 -101.5
v -118 2.500009 -102.5
v -117 2.500009 -102.5
v -117 2.500009 -101.5
v -118 2.500009 -102.5
v -117 2.500009 -101.5
v -118 2.500009 -101.5
v -119 2.500009 -102.5
v -118 2.500009 -102.5
v -118 2.500009 -101.5
v -119 2.500009 -102.5
v -118 2.500009 -101.5
v -119 2.500009 -101.5
v -119 2.500009 -102.5
v -118 2.500009 -102.5
v -118 2.500009 -101.5
v -119 2.500009 -102.5
v -118 2.500009 -101.5
v -119 2.500009 -101.5
v -118 0.5000083 -101.5
v -118 1.500009 -101.5
v -117 1.500009 -101.5
v -117 0.5000086 -101.5
v -119 1.500009 -101.5
v -119 2.500009 -101.5
v -118 2.500009 -101.5
v -118 1.500009 -101.5
vt 0.59375 0.203125
vt 0.59375 0.078125
vt 0.34375 0.078125
vt 0.34375 0.203125
vt 0.59375 0.203125
vt 0.59375 0.078125
vt 0.34375 0.078125
vt 0.34375 0.203125
vt 0.59375 0.203125
vt 0.59375 0.078125
vt 0.34375 0.078125
vt 0.34375 0.203125
vt 0.59375 0.203125
vt 0.59375 0.078125
vt 0.34375 0.078125
vt 0.34375 0.203125
vt 0.59375 0.203125
vt 0.59375 0.078125
vt 0.34375 0.078125
vt 0.34375 0.203125
vt 0.59375 0.203125
vt 0.59375 0.078125
vt 0.34375 0.078125
vt 0.34375 0.203125
vt 0.59375 0.203125
vt 0.59375 0.078125
vt 0.34375 0.078125
vt 0.34375 0.203125
vt 0.59375 0.203125
vt 0.59375 0.078125
vt 0.34375 0.078125
vt 0.34375 0.203125
vt 0.59375 0.203125
vt 0.59375 0.078125
vt 0.34375 0.078125
vt 0.34375 0.203125
vt 0.59375 0.203125
vt 0.59375 0.078125
vt 0.34375 0.078125
vt 0.34375 0.203125
vt 0.59375 0.203125
vt 0.59375 0.078125
vt 0.34375 0.078125
vt 0.34375 0.203125
vt 0.59375 0.203125
vt 0.59375 0.078125
vt 0.34375 0.078125
vt 0.34375 0.203125
vt 0.59375 0.203125
vt 0.59375 0.078125
vt 0.34375 0.078125
vt 0.34375 0.203125
vt 0.59375 0.203125
vt 0.59375 0.078125
vt 0.34375 0.078125
vt 0.34375 0.203125
vt 0.59375 0.203125
vt 0.59375 0.078125
vt 0.34375 0.078125
vt 0.34375 0.203125
vt 0.59375 0.203125
vt 0.59375 0.078125
vt 0.34375 0.078125
vt 0.34375 0.203125
vt 0.59375 0.203125
vt 0.59375 0.078125
vt 0.34375 0.078125
vt 0.34375 0.203125
vt 0.59375 0.203125
vt 0.59375 0.078125
vt 0.34375 0.078125
vt 0.34375 0.203125
vt 0.59375 0.203125
vt 0.59375 0.078125
vt 0.34375 0.078125
vt 0.34375 0.203125
vt 0.59375 0.203125
vt 0.59375 0.078125
vt 0.34375 0.078125
vt 0.34375 0.203125
vt 0.59375 0.203125
vt 0.59375 0.078125
vt 0.34375 0.078125
vt 0.34375 0.203125
vt 0.59375 0.203125
vt 0.59375 0.078125
vt 0.34375 0.078125
vt 0.34375 0.203125
vt 0.59375 0.203125
vt 0.59375 0.078125
vt 0.34375 0.078125
vt 0.34375 0.203125
vt 0.59375 0.203125
vt 0.59375 0.078125
vt 0.34375 0.078125
vt 0.34375 0.203125
vt 0.59375 0.203125
vt 0.59375 0.078125
vt 0.34375 0.078125
vt 0.34375 0.203125
vt 0.59375 0.203125
vt 0.59375 0.078125
vt 0.34375 0.078125
vt 0.34375 0.203125
vt 0.59375 0.203125
vt 0.59375 0.078125
vt 0.34375 0.078125
vt 0.59375 0.203125
vt 0.34375 0.078125
vt 0.34375 0.203125
vt 0.59375 0.203125
vt 0.59375 0.078125
vt 0.34375 0.078125
vt 0.59375 0.203125
vt 0.34375 0.078125
vt 0.34375 0.203125
vt 0.59375 0.203125
vt 0.59375 0.078125
vt 0.34375 0.078125
vt 0.59375 0.203125
vt 0.34375 0.078125
vt 0.34375 0.203125
vt 0.59375 0.203125
vt 0.59375 0.078125
vt 0.34375 0.078125
vt 0.59375 0.203125
vt 0.34375 0.078125
vt 0.34375 0.203125
vt 0.59375 0.203125
vt 0.59375 0.078125
vt 0.34375 0.078125
vt 0.34375 0.203125
vt 0.59375 0.203125
vt 0.59375 0.078125
vt 0.34375 0.078125
vt 0.34375 0.203125
vn 1 2.384186E-07 -1.042161E-14
vn 1 2.384186E-07 -1.042161E-14
vn 1 2.384186E-07 -1.042161E-14
vn 1 2.384186E-07 -1.042161E-14
vn -1.04216E-14 1.04216E-14 1
vn -1.04216E-14 1.04216E-14 1
vn -1.04216E-14 1.04216E-14 1
vn -1.04216E-14 1.04216E-14 1
vn 8.742274E-08 7.105421E-15 -1
vn 8.742274E-08 7.105421E-15 -1
vn 8.742274E-08 7.105421E-15 -1
vn 8.742274E-08 7.105421E-15 -1
vn -1.04216E-14 1.04216E-14 1
vn -1.04216E-14 1.04216E-14 1
vn -1.04216E-14 1.04216E-14 1
vn -1.04216E-14 1.04216E-14 1
vn 8.742274E-08 7.105421E-15 -1
vn 8.742274E-08 7.105421E-15 -1
vn 8.742274E-08 7.105421E-15 -1
vn 8.742274E-08 7.105421E-15 -1
vn -1.04216E-14 1.04216E-14 1
vn -1.04216E-14 1.04216E-14 1
vn -1.04216E-14 1.04216E-14 1
vn -1.04216E-14 1.04216E-14 1
vn 8.742274E-08 7.105421E-15 -1
vn 8.742274E-08 7.105421E-15 -1
vn 8.742274E-08 7.105421E-15 -1
vn 8.742274E-08 7.105421E-15 -1
vn 8.742274E-08 7.105421E-15 -1
vn 8.742274E-08 7.105421E-15 -1
vn 8.742274E-08 7.105421E-15 -1
vn 8.742274E-08 7.105421E-15 -1
vn -1.04216E-14 1.04216E-14 1
vn -1.04216E-14 1.04216E-14 1
vn -1.04216E-14 1.04216E-14 1
vn -1.04216E-14 1.04216E-14 1
vn 8.742274E-08 7.105421E-15 -1
vn 8.742274E-08 7.105421E-15 -1
vn 8.742274E-08 7.105421E-15 -1
vn 8.742274E-08 7.105421E-15 -1
vn 8.742274E-08 7.105421E-15 -1
vn 8.742274E-08 7.105421E-15 -1
vn 8.742274E-08 7.105421E-15 -1
vn 8.742274E-08 7.105421E-15 -1
vn -1.04216E-14 1.04216E-14 1
vn -1.04216E-14 1.04216E-14 1
vn -1.04216E-14 1.04216E-14 1
vn -1.04216E-14 1.04216E-14 1
vn -1.04216E-14 1.04216E-14 1
vn -1.04216E-14 1.04216E-14 1
vn -1.04216E-14 1.04216E-14 1
vn -1.04216E-14 1.04216E-14 1
vn 8.742274E-08 7.105421E-15 -1
vn 8.742274E-08 7.105421E-15 -1
vn 8.742274E-08 7.105421E-15 -1
vn 8.742274E-08 7.105421E-15 -1
vn 8.742274E-08 7.105421E-15 -1
vn 8.742274E-08 7.105421E-15 -1
vn 8.742274E-08 7.105421E-15 -1
vn 8.742274E-08 7.105421E-15 -1
vn -1.04216E-14 1.04216E-14 1
vn -1.04216E-14 1.04216E-14 1
vn -1.04216E-14 1.04216E-14 1
vn -1.04216E-14 1.04216E-14 1
vn 8.742274E-08 7.105421E-15 -1
vn 8.742274E-08 7.105421E-15 -1
vn 8.742274E-08 7.105421E-15 -1
vn 8.742274E-08 7.105421E-15 -1
vn -2.384185E-07 -1 -1.042161E-14
vn -2.384185E-07 -1 -1.042161E-14
vn -2.384185E-07 -1 -1.042161E-14
vn -2.384185E-07 -1 -1.042161E-14
vn -2.384185E-07 -1 -1.042161E-14
vn -2.384185E-07 -1 -1.042161E-14
vn -2.384185E-07 -1 -1.042161E-14
vn -2.384185E-07 -1 -1.042161E-14
vn -2.384185E-07 -1 -1.042161E-14
vn -2.384185E-07 -1 -1.042161E-14
vn -2.384185E-07 -1 -1.042161E-14
vn -2.384185E-07 -1 -1.042161E-14
vn -1 -2.384186E-07 1.042161E-14
vn -1 -2.384186E-07 1.042161E-14
vn -1 -2.384186E-07 1.042161E-14
vn -1 -2.384186E-07 1.042161E-14
vn -1 -2.384186E-07 1.042161E-14
vn -1 -2.384186E-07 1.042161E-14
vn -1 -2.384186E-07 1.042161E-14
vn -1 -2.384186E-07 1.042161E-14
vn -1 -2.384186E-07 1.042161E-14
vn -1 -2.384186E-07 1.042161E-14
vn -1 -2.384186E-07 1.042161E-14
vn -1 -2.384186E-07 1.042161E-14
vn 1 2.384186E-07 -1.042161E-14
vn 1 2.384186E-07 -1.042161E-14
vn 1 2.384186E-07 -1.042161E-14
vn 1 2.384186E-07 -1.042161E-14
vn 2.384185E-07 1 1.042161E-14
vn 2.384185E-07 1 1.042161E-14
vn 2.384185E-07 1 1.042161E-14
vn 2.384185E-07 1 1.042161E-14
vn 1 2.384186E-07 -1.042161E-14
vn 1 2.384186E-07 -1.042161E-14
vn 1 2.384186E-07 -1.042161E-14
vn 1 2.384186E-07 -1.042161E-14
vn 2.384185E-07 1 1.042161E-14
vn 2.384185E-07 1 1.042161E-14
vn 2.384185E-07 1 1.042161E-14
vn 2.384185E-07 1 1.042161E-14
vn 2.384185E-07 1 1.042161E-14
vn 2.384185E-07 1 1.042161E-14
vn 2.384185E-07 1 1.042161E-14
vn 2.384185E-07 1 1.042161E-14
vn 2.384185E-07 1 1.042161E-14
vn 2.384185E-07 1 1.042161E-14
vn 2.384185E-07 1 1.042161E-14
vn 2.384185E-07 1 1.042161E-14
vn 2.384185E-07 1 1.042161E-14
vn 2.384185E-07 1 1.042161E-14
vn 2.384185E-07 1 1.042161E-14
vn 2.384185E-07 1 1.042161E-14
vn 2.384185E-07 1 1.042161E-14
vn 2.384185E-07 1 1.042161E-14
vn 2.384185E-07 1 1.042161E-14
vn 2.384185E-07 1 1.042161E-14
vn 2.384185E-07 1 1.042161E-14
vn 2.384185E-07 1 1.042161E-14
vn 2.384185E-07 1 1.042161E-14
vn 2.384185E-07 1 1.042161E-14
vn -1.04216E-14 1.04216E-14 1
vn -1.04216E-14 1.04216E-14 1
vn -1.04216E-14 1.04216E-14 1
vn -1.04216E-14 1.04216E-14 1
vn -1.04216E-14 1.04216E-14 1
vn -1.04216E-14 1.04216E-14 1
vn -1.04216E-14 1.04216E-14 1
vn -1.04216E-14 1.04216E-14 1
g _Combined_AutoVis40_1_0
f 3/3/3 2/2/2 1/1/1
f 4/4/4 3/3/3 1/1/1
f 7/7/7 6/6/6 5/5/5
f 8/8/8 7/7/7 5/5/5
f 11/11/11 10/10/10 9/9/9
f 12/12/12 11/11/11 9/9/9
f 15/15/15 14/14/14 13/13/13
f 16/16/16 15/15/15 13/13/13
f 19/19/19 18/18/18 17/17/17
f 20/20/20 19/19/19 17/17/17
f 23/23/23 22/22/22 21/21/21
f 24/24/24 23/23/23 21/21/21
f 27/27/27 26/26/26 25/25/25
f 28/28/28 27/27/27 25/25/25
f 31/31/31 30/30/30 29/29/29
f 32/32/32 31/31/31 29/29/29
f 35/35/35 34/34/34 33/33/33
f 36/36/36 35/35/35 33/33/33
f 39/39/39 38/38/38 37/37/37
f 40/40/40 39/39/39 37/37/37
f 43/43/43 42/42/42 41/41/41
f 44/44/44 43/43/43 41/41/41
f 47/47/47 46/46/46 45/45/45
f 48/48/48 47/47/47 45/45/45
f 51/51/51 50/50/50 49/49/49
f 52/52/52 51/51/51 49/49/49
f 55/55/55 54/54/54 53/53/53
f 56/56/56 55/55/55 53/53/53
f 59/59/59 58/58/58 57/57/57
f 60/60/60 59/59/59 57/57/57
f 63/63/63 62/62/62 61/61/61
f 64/64/64 63/63/63 61/61/61
f 67/67/67 66/66/66 65/65/65
f 68/68/68 67/67/67 65/65/65
f 71/71/71 70/70/70 69/69/69
f 72/72/72 71/71/71 69/69/69
f 75/75/75 74/74/74 73/73/73
f 76/76/76 75/75/75 73/73/73
f 79/79/79 78/78/78 77/77/77
f 80/80/80 79/79/79 77/77/77
f 83/83/83 82/82/82 81/81/81
f 84/84/84 83/83/83 81/81/81
f 87/87/87 86/86/86 85/85/85
f 88/88/88 87/87/87 85/85/85
f 91/91/91 90/90/90 89/89/89
f 92/92/92 91/91/91 89/89/89
f 95/95/95 94/94/94 93/93/93
f 96/96/96 95/95/95 93/93/93
f 99/99/99 98/98/98 97/97/97
f 100/100/100 99/99/99 97/97/97
f 103/103/103 102/102/102 101/101/101
f 104/104/104 103/103/103 101/101/101
f 107/107/107 106/106/106 105/105/105
f 110/110/110 109/109/109 108/108/108
f 113/113/113 112/112/112 111/111/111
f 116/116/116 115/115/115 114/114/114
f 119/119/119 118/118/118 117/117/117
f 122/122/122 121/121/121 120/120/120
f 125/125/125 124/124/124 123/123/123
f 128/128/128 127/127/127 126/126/126
f 131/131/131 130/130/130 129/129/129
f 132/132/132 131/131/131 129/129/129
f 135/135/135 134/134/134 133/133/133
f 136/136/136 135/135/135 133/133/133
