g _Combined_VisReflection17_0
v 0.2500001 0.5 -0.125
v 0.2500001 1.5 -0.125
v 0.2500001 1.5 -0.2500001
v 0.2500001 0.5 -0.2500001
v -0.6875001 -0.375 -0.06250015
v -0.6875001 -0.375 0.5624999
v -0.6875001 0.5 0.5624999
v -0.6875001 0.5 -0.06250015
v -0.6875001 1.4375 0.5624999
v -0.6875001 1.4375 -0.06250015
v -0.6875001 1.4375 0.5624999
v 0.125 1.5 -0.1250001
v -0.6875001 1.4375 -0.06250015
v 0.1249999 1.5 0.625
v 0.2500001 1.5 -0.125
v 0.25 1.5 0.6250001
v 0.25 0.5 0.6250001
v 0.2499999 0.5 0.7500001
v 0.2499999 1.5 0.7500001
v 0.25 1.5 0.6250001
v -0.6875001 -0.375 -0.06250015
v 0.125 -0.375 -0.1250001
v 0.1249999 -0.375 0.625
v -0.6875001 -0.375 0.5624999
v 0.25 0.5 0.6250001
v 0.25 1.5 0.6250001
v 0.1249999 1.5 0.625
v 0.1249999 0.5 0.625
v 0.1249999 0 0.625
v 0.25 0 0.6250001
v 0.1249999 0.5 0.625
v 0.1249999 1.5 0.625
v -0.6875001 1.4375 0.5624999
v -0.6875001 0.5 0.5624999
v 0.1249999 -0.375 0.625
v -0.6875001 -0.375 0.5624999
v 0.125 0 -0.1250001
v 0.2500001 0 -0.125
v 0.25 -0.01840997 -0.008904041
v 0.125 -0.01840997 -0.008904056
v 0.25 -0.07167494 0.09563398
v 0.125 -0.07167494 0.09563397
v 0.25 -0.154637 0.178596
v 0.125 -0.154637 0.178596
v 0.25 -0.2591749 0.231861
v 0.125 -0.2591749 0.231861
v 0.25 -0.375 0.25
v 0.125 -0.375 0.25
v 0.125 -0.2591749 0.268139
v 0.125 -0.375 0.25
v 0.25 -0.375 0.25
v 0.25 -0.2591749 0.268139
v 0.125 -0.154637 0.321404
v 0.25 -0.154637 0.321404
v 0.125 -0.07167494 0.404366
v 0.25 -0.07167494 0.404366
v 0.125 -0.01840997 0.508904
v 0.25 -0.01840997 0.508904
v 0.1249999 0 0.625
v 0.25 0 0.6250001
v 0.125 0.5 -0.1250001
v 0.125 -0.375 -0.1250001
v -0.6875001 -0.375 -0.06250015
v -0.6875001 0.5 -0.06250015
v 0.2500001 0.5 -0.125
v 0.125 1.5 -0.1250001
v 0.2500001 1.5 -0.125
v 0.125 0.5 -0.1250001
v 0.125 0 -0.1250001
v 0.2500001 0 -0.125
v 0.125 1.5 -0.1250001
v 0.125 0.5 -0.1250001
v -0.6875001 0.5 -0.06250015
v -0.6875001 1.4375 -0.06250015
v 0.2500001 0 -0.2500001
v 0.2500001 0.5 -0.125
v 0.2500001 0.5 -0.2500001
v 0.2500001 0 -0.125
v 0.2500001 -0.5 -0.2500001
v 0.25 -0.01840997 -0.008904041
v 0.25 -0.07167494 0.09563398
v 0.25 -0.154637 0.178596
v 0.25 -0.2591749 0.231861
v 0.25 -0.375 0.25
v 0.2499999 -0.5 0.7500001
v 0.25 -0.2591749 0.268139
v 0.25 -0.154637 0.321404
v 0.25 -0.07167494 0.404366
v 0.25 -0.01840997 0.508904
v 0.25 0 0.6250001
v 0.2499999 0 0.7500001
v 0.25 0.5 0.6250001
v 0.2499999 0.5 0.7500001
v -0.750001 -0.5 -0.25
v -0.749999 -1.5 -0.25
v 0.25 -1.5 -0.25
v 0.2500001 -0.5 -0.2500001
v 0.2500001 -0.5 -0.2500001
v 0.25 -1.5 -0.25
v 0.2500001 -1.5 0.7500001
v 0.2499999 -0.5 0.7500001
v -0.750001 0.5 -0.25
v -0.750001 -0.5 -0.25
v 0.2500001 -0.5 -0.2500001
v 0.2500001 0.5 -0.2500001
v -0.750001 1.5 -0.25
v -0.750001 0.5 -0.25
v 0.2500001 0.5 -0.2500001
v 0.2500001 1.5 -0.2500001
v -0.750001 2.5 -0.25
v -0.750001 1.5 -0.25
v 0.2500001 1.5 -0.2500001
v 0.25 2.5 -0.25
v 0.25 2.5 -0.25
v 0.2500001 1.5 -0.2500001
v 0.2499999 1.5 0.7500001
v 0.2500001 2.5 0.7500001
vt 0.60977 0.9218922
vt 0.6095092 0.8594193
vt 0.5939752 0.8594193
vt 0.5943005 0.9218922
vt 0.7890625 0.9179688
vt 0.8359375 0.9179688
vt 0.8359375 0.8886719
vt 0.7890625 0.8886719
vt 0.8359375 0.8613281
vt 0.7890625 0.8613281
vt 0.6835938 0.8613281
vt 0.6289063 0.9179688
vt 0.6289063 0.8613281
vt 0.6835938 0.9179688
vt 0.6289063 0.9199219
vt 0.6835938 0.9199219
vt 0.702586 0.9218922
vt 0.7105615 0.9218922
vt 0.710727 0.8594193
vt 0.7027133 0.8594193
vt 0.8347303 0.9260429
vt 0.7424182 0.9260429
vt 0.7424182 0.9826835
vt 0.8347303 0.9826835
vt 0.7216527 0.9555385
vt 0.7216228 0.9244676
vt 0.7293828 0.9244676
vt 0.729344 0.9555385
vt 0.7293053 0.9708133
vt 0.721683 0.9708133
vt 0.7424182 0.9553397
vt 0.7424182 0.9260429
vt 0.8347303 0.9260429
vt 0.8347303 0.9553397
vt 0.7424182 0.9826835
vt 0.8347303 0.9826835
vt 0.7293053 0.9708133
vt 0.721683 0.9708133
vt 0.721683 0.9713745
vt 0.7293053 0.9713745
vt 0.721683 0.9729985
vt 0.7293053 0.9729985
vt 0.721683 0.9755279
vt 0.7293053 0.9755279
vt 0.721683 0.9787151
vt 0.7293053 0.9787151
vt 0.721683 0.9822465
vt 0.7293053 0.9822465
vt 0.7293053 0.9787151
vt 0.7293053 0.9822465
vt 0.721683 0.9822465
vt 0.721683 0.9787151
vt 0.7293053 0.9755279
vt 0.721683 0.9755279
vt 0.7293053 0.9729985
vt 0.721683 0.9729985
vt 0.7293053 0.9713745
vt 0.721683 0.9713745
vt 0.7293053 0.9708133
vt 0.721683 0.9708133
vt 0.7424182 0.9260429
vt 0.7424182 0.9553397
vt 0.8347303 0.9553397
vt 0.8347303 0.9260429
vt 0.7216527 0.9555385
vt 0.7293828 0.9244676
vt 0.7216228 0.9244676
vt 0.729344 0.9555385
vt 0.7293053 0.9708133
vt 0.721683 0.9708133
vt 0.7424182 0.9553397
vt 0.7424182 0.9826835
vt 0.8347303 0.9826835
vt 0.8347303 0.9553397
vt 0.7105615 0.9530385
vt 0.702586 0.9218922
vt 0.7105615 0.9218922
vt 0.7024587 0.9530385
vt 0.7105615 0.9838479
vt 0.6881512 0.954173
vt 0.6752682 0.957455
vt 0.6650442 0.962567
vt 0.65848 0.9690086
vt 0.6562448 0.9761456
vt 0.594626 0.9838479
vt 0.6540092 0.9690086
vt 0.647445 0.962567
vt 0.637221 0.957455
vt 0.624338 0.9541728
vt 0.6100305 0.9530385
vt 0.594626 0.9530385
vt 0.60977 0.9218922
vt 0.5943005 0.9218922
vt 0.34375 0.328125
vt 0.34375 0.265625
vt 0.21875 0.265625
vt 0.21875 0.328125
vt 0.34375 0.328125
vt 0.34375 0.265625
vt 0.21875 0.265625
vt 0.21875 0.328125
vt 0.34375 0.328125
vt 0.34375 0.265625
vt 0.21875 0.265625
vt 0.21875 0.328125
vt 0.34375 0.328125
vt 0.34375 0.265625
vt 0.21875 0.265625
vt 0.21875 0.328125
vt 0.34375 0.328125
vt 0.34375 0.265625
vt 0.21875 0.265625
vt 0.21875 0.328125
vt 0.34375 0.328125
vt 0.34375 0.265625
vt 0.21875 0.265625
vt 0.21875 0.328125
vn 1 0 1.192093E-07
vn 1 0 1.192093E-07
vn 1 0 1.192093E-07
vn 1 0 1.192093E-07
vn 1 0 1.192093E-07
vn 1 0 1.192093E-07
vn 1 0 1.192093E-07
vn 1 0 1.192093E-07
vn 1 0 1.192093E-07
vn 1 0 1.192093E-07
vn 0.07669417 -0.9970547 9.142656E-09
vn 0.03741575 -0.9992998 4.460305E-09
vn 0.07669417 -0.9970547 9.142656E-09
vn 0.03741575 -0.9992998 4.460305E-09
vn 0 -1 0
vn 0 -1 0
vn 1 0 1.192093E-07
vn 1 0 1.192093E-07
vn 1 0 1.192093E-07
vn 1 0 1.192093E-07
vn 0 1 0
vn 0 1 0
vn 0 1 0
vn 0 1 0
vn 1.192093E-07 0 -1
vn 1.192093E-07 0 -1
vn 0.03741587 0 -0.9992998
vn 0.03836291 0 -0.9992639
vn 1.192093E-07 0 -1
vn 1.192093E-07 0 -1
vn 0.03836291 0 -0.9992639
vn 0.03741587 0 -0.9992998
vn 0.07669429 0 -0.9970547
vn 0.07669429 0 -0.9970547
vn 0.07669429 0 -0.9970547
vn 0.07669429 0 -0.9970547
vn -1.866747E-08 0.987663 0.1565941
vn -1.866747E-08 0.987663 0.1565941
vn -3.684708E-08 0.9510309 0.3090957
vn -3.684708E-08 0.9510309 0.3090957
vn -7.006728E-08 0.8090303 0.587767
vn -7.006728E-08 0.8090303 0.587767
vn -9.644391E-08 0.587767 0.8090303
vn -9.644391E-08 0.587767 0.8090303
vn -1.134072E-07 0.3081778 0.9513288
vn -1.134072E-07 0.3081778 0.9513288
vn -1.177742E-07 0.1547009 0.9879614
vn -1.177742E-07 0.1547009 0.9879614
vn 1.134072E-07 0.3081778 -0.9513288
vn 1.177742E-07 0.1547009 -0.9879614
vn 1.177742E-07 0.1547009 -0.9879614
vn 1.134072E-07 0.3081778 -0.9513288
vn 9.644391E-08 0.587767 -0.8090303
vn 9.644391E-08 0.587767 -0.8090303
vn 7.006728E-08 0.8090303 -0.587767
vn 7.006728E-08 0.8090303 -0.587767
vn 3.684708E-08 0.9510309 -0.3090957
vn 3.684708E-08 0.9510309 -0.3090957
vn 1.866747E-08 0.987663 -0.1565941
vn 1.866747E-08 0.987663 -0.1565941
vn 0.03836267 0 0.9992639
vn 0.07669405 0 0.9970547
vn 0.07669405 0 0.9970547
vn 0.07669405 0 0.9970547
vn -1.192093E-07 0 1
vn 0.03741563 0 0.9992998
vn -1.192093E-07 0 1
vn 0.03836267 0 0.9992639
vn -1.192093E-07 0 1
vn -1.192093E-07 0 1
vn 0.03741563 0 0.9992998
vn 0.03836267 0 0.9992639
vn 0.07669405 0 0.9970547
vn 0.07669405 0 0.9970547
vn 1 0 1.192093E-07
vn 1 0 1.192093E-07
vn 1 0 1.192093E-07
vn 1 0 1.192093E-07
vn 1 0 1.192093E-07
vn 1 0 1.192093E-07
vn 1 0 1.192093E-07
vn 1 0 1.192093E-07
vn 1 0 1.192093E-07
vn 1 0 1.192093E-07
vn 1 0 1.192093E-07
vn 1 0 1.192093E-07
vn 1 0 1.192093E-07
vn 1 0 1.192093E-07
vn 1 0 1.192093E-07
vn 1 0 1.192093E-07
vn 1 0 1.192093E-07
vn 1 0 1.192093E-07
vn 1 0 1.192093E-07
vn 8.742278E-08 0 -1
vn 8.742278E-08 0 -1
vn 8.742278E-08 0 -1
vn 8.742278E-08 0 -1
vn 1 0 -1.192093E-07
vn 1 0 -1.192093E-07
vn 1 0 -1.192093E-07
vn 1 0 -1.192093E-07
vn 8.742278E-08 0 -1
vn 8.742278E-08 0 -1
vn 8.742278E-08 0 -1
vn 8.742278E-08 0 -1
vn 8.742278E-08 0 -1
vn 8.742278E-08 0 -1
vn 8.742278E-08 0 -1
vn 8.742278E-08 0 -1
vn 0 0 -1
vn 0 0 -1
vn 0 0 -1
vn 0 0 -1
vn 1 0 -1.192093E-07
vn 1 0 -1.192093E-07
vn 1 0 -1.192093E-07
vn 1 0 -1.192093E-07
g _Combined_VisReflection17_0_0
f 3/3/3 2/2/2 1/1/1
f 4/4/4 3/3/3 1/1/1
f 7/7/7 6/6/6 5/5/5
f 8/8/8 7/7/7 5/5/5
f 9/9/9 7/7/7 8/8/8
f 10/10/10 9/9/9 8/8/8
f 13/13/13 12/12/12 11/11/11
f 12/12/12 14/14/14 11/11/11
f 12/12/12 15/15/15 14/14/14
f 15/15/15 16/16/16 14/14/14
f 19/19/19 18/18/18 17/17/17
f 20/20/20 19/19/19 17/17/17
f 23/23/23 22/22/22 21/21/21
f 24/24/24 23/23/23 21/21/21
f 27/27/27 26/26/26 25/25/25
f 28/28/28 27/27/27 25/25/25
f 29/29/29 28/28/28 25/25/25
f 30/30/30 29/29/29 25/25/25
f 33/33/33 32/32/32 31/31/31
f 34/34/34 33/33/33 31/31/31
f 34/34/34 31/31/31 35/35/35
f 36/36/36 34/34/34 35/35/35
f 39/39/39 38/38/38 37/37/37
f 40/40/40 39/39/39 37/37/37
f 41/41/41 39/39/39 40/40/40
f 42/42/42 41/41/41 40/40/40
f 43/43/43 41/41/41 42/42/42
f 44/44/44 43/43/43 42/42/42
f 45/45/45 43/43/43 44/44/44
f 46/46/46 45/45/45 44/44/44
f 47/47/47 45/45/45 46/46/46
f 48/48/48 47/47/47 46/46/46
f 51/51/51 50/50/50 49/49/49
f 52/52/52 51/51/51 49/49/49
f 52/52/52 49/49/49 53/53/53
f 54/54/54 52/52/52 53/53/53
f 54/54/54 53/53/53 55/55/55
f 56/56/56 54/54/54 55/55/55
f 56/56/56 55/55/55 57/57/57
f 58/58/58 56/56/56 57/57/57
f 58/58/58 57/57/57 59/59/59
f 60/60/60 58/58/58 59/59/59
f 63/63/63 62/62/62 61/61/61
f 64/64/64 63/63/63 61/61/61
f 67/67/67 66/66/66 65/65/65
f 66/66/66 68/68/68 65/65/65
f 68/68/68 69/69/69 65/65/65
f 69/69/69 70/70/70 65/65/65
f 73/73/73 72/72/72 71/71/71
f 74/74/74 73/73/73 71/71/71
f 77/77/77 76/76/76 75/75/75
f 76/76/76 78/78/78 75/75/75
f 78/78/78 79/79/79 75/75/75
f 78/78/78 80/80/80 79/79/79
f 80/80/80 81/81/81 79/79/79
f 79/79/79 81/81/81 82/82/82
f 83/83/83 79/79/79 82/82/82
f 83/83/83 84/84/84 79/79/79
f 79/79/79 84/84/84 85/85/85
f 84/84/84 86/86/86 85/85/85
f 85/85/85 86/86/86 87/87/87
f 88/88/88 85/85/85 87/87/87
f 88/88/88 89/89/89 85/85/85
f 89/89/89 90/90/90 85/85/85
f 85/85/85 90/90/90 91/91/91
f 91/91/91 90/90/90 92/92/92
f 93/93/93 91/91/91 92/92/92
f 96/96/96 95/95/95 94/94/94
f 97/97/97 96/96/96 94/94/94
f 100/100/100 99/99/99 98/98/98
f 101/101/101 100/100/100 98/98/98
f 104/104/104 103/103/103 102/102/102
f 105/105/105 104/104/104 102/102/102
f 108/108/108 107/107/107 106/106/106
f 109/109/109 108/108/108 106/106/106
f 112/112/112 111/111/111 110/110/110
f 113/113/113 112/112/112 110/110/110
f 116/116/116 115/115/115 114/114/114
f 117/117/117 116/116/116 114/114/114
