g _Combined_Vis26_2
v -4.491127 27 -2.5
v -4.491127 27 -3
v -4.491127 26 -2.5
v -4.758873 27 -2.5
v -4.758873 26 -2.5
v -4.758873 27 -3
v -4.491127 26 -2.5
v -4.491127 27 -3
v -4.758873 27 -3
v -4.758873 26 -2.5
v -5.5 27 -3.5
v -5.5 27 -3
v -5.5 26 -3.5
v -4.5 27 -3.5
v -4.5 26 -3.5
v -4.5 27 -3
v -5.5 26 -3.5
v -5.5 27 -3
v -4.5 27 -3
v -4.5 26 -3.5
v -4.5 24 -2.75
v -4.5 24.125 -2.75
v -4.5625 24.125 -2.75
v -4.5625 24 -2.75
v -4.5 23.5 -2.5
v -4.5 23.625 -2.75
v -4.5 23.5 -2.75
v -4.5 23.75 -2.75
v -4.5 23.75 -3.25
v -4.5 23.625 -3.25
v -4.5 23.875 -2.75
v -4.5 23.5 -3.5
v -4.5 23.5 -3.25
v -4.5 23.875 -3.25
v -4.5 24.5 -3.5
v -4.5 24 -2.75
v -4.5 24.5 -2.500001
v -4.5 24 -3.25
v -4.5 24.125 -3.25
v -4.5 24.125 -2.75
v -4.5 24.25 -3.25
v -4.5 24.25 -2.75
v -4.5 24.375 -3.25
v -4.5 24.375 -2.75
v -4.5 23.625 -2.75
v -4.5 23.625 -3.25
v -4.5625 23.625 -3.25
v -4.5625 23.625 -2.75
v -4.5 23.875 -3.25
v -4.5 23.75 -3.25
v -4.5625 23.75 -3.25
v -4.5625 23.875 -3.25
v -4.5 24 -3.25
v -4.5 24 -2.75
v -4.5625 24 -2.75
v -4.5625 24 -3.25
v -4.5 24.125 -2.75
v -4.5 24.125 -3.25
v -4.5625 24.125 -3.25
v -4.5625 24.125 -2.75
v -4.5 23.75 -3.25
v -4.5 23.75 -2.75
v -4.5625 23.75 -2.75
v -4.5625 23.75 -3.25
v -4.5 23.875 -2.75
v -4.5 23.875 -3.25
v -4.5625 23.875 -3.25
v -4.5625 23.875 -2.75
v -4.5 24.125 -3.25
v -4.5 24 -3.25
v -4.5625 24 -3.25
v -4.5625 24.125 -3.25
v -4.5 24.375 -2.75
v -4.5 24.375 -3.25
v -4.5625 24.375 -3.25
v -4.5625 24.375 -2.75
v -4.5 23.5 -2.75
v -4.5 23.625 -2.75
v -4.5625 23.625 -2.75
v -4.5625 23.5 -2.75
v -4.5 24.25 -2.75
v -4.5 24.375 -2.75
v -4.5625 24.375 -2.75
v -4.5625 24.25 -2.75
v -4.5 24.375 -3.25
v -4.5 24.25 -3.25
v -4.5625 24.25 -3.25
v -4.5625 24.375 -3.25
v -4.5 23.75 -2.75
v -4.5 23.875 -2.75
v -4.5625 23.875 -2.75
v -4.5625 23.75 -2.75
v -4.5625 23.5 -2.75
v -4.5625 23.625 -2.75
v -4.5625 23.625 -3.25
v -4.5625 23.5 -3.25
v -4.5625 24.25 -2.75
v -4.5625 24.375 -2.75
v -4.5625 24.375 -3.25
v -4.5625 24.25 -3.25
v -4.5625 23.75 -2.75
v -4.5625 23.875 -2.75
v -4.5625 23.875 -3.25
v -4.5625 23.75 -3.25
v -4.5625 24 -2.75
v -4.5625 24.125 -2.75
v -4.5625 24.125 -3.25
v -4.5625 24 -3.25
v -4.5 24.25 -3.25
v -4.5 24.25 -2.75
v -4.5625 24.25 -2.75
v -4.5625 24.25 -3.25
v -4.5 23.625 -3.25
v -4.5 23.5 -3.25
v -4.5625 23.5 -3.25
v -4.5625 23.625 -3.25
v -4.5 23.5 -3.25
v -4.5 23.5 -2.75
v -4.5625 23.5 -2.75
v -4.5625 23.5 -3.25
v -4.5 24.5 -3.5
v -4.5 25.5 -3.500001
v -4.5 25.5 -4.5
v -4.5 24.5 -4.5
v -4.5 25.5 -3.500001
v -4.5 26.5 -3.500001
v -4.5 26.5 -4.5
v -4.5 25.5 -4.5
v -4.5 26.5 -3.500001
v -4.5 27.5 -3.500001
v -4.5 27.5 -4.5
v -4.5 26.5 -4.5
v -4.5 27 -2.499999
v -4.5 28 -2.500001
v -4.5 28 -3.5
v -4.5 27 -3.5
v -5.5 24.25 -2.25
v -4.5 24.25 -2.25
v -4.5 25.25 -2.25
v -5.5 25.25 -2.25
v -5.5 25.25 -2.25
v -4.5 25.25 -2.25
v -4.5 26.25 -2.25
v -5.5 26.25 -2.25
v 2.499999 16.5 -3.5
v 2.500001 14.5 -3.5
v 3.5 14.5 -3.5
v 3.5 16.5 -3.5
v 5.500001 14.5 -3.5
v 5.499999 16.5 -3.5
v 4.5 16.5 -3.5
v 4.5 14.5 -3.5
v 4.500001 12.5 -3.5
v 4.5 16.5 -3.5
v 3.5 16.5 -3.5
v 3.5 12.5 -3.5
vt 0.703125 0.2109374
vt 0.703125 0.1796875
vt 0.7656249 0.2109374
vt 0.6406251 0.2109375
vt 0.703125 0.2109374
vt 0.640625 0.1796875
vt 0.7290039 0.2109375
vt 0.640625 0.2109375
vt 0.640625 0.2421875
vt 0.7290039 0.2421875
vt 0.703125 0.2109374
vt 0.703125 0.1796875
vt 0.7656249 0.2109374
vt 0.6406251 0.2109375
vt 0.703125 0.2109374
vt 0.640625 0.1796875
vt 0.7290039 0.2109375
vt 0.640625 0.2109375
vt 0.640625 0.2421875
vt 0.7290039 0.2421875
vt 0.7404644 0.3061984
vt 0.7404644 0.2985127
vt 0.7481501 0.2985127
vt 0.7481501 0.3061984
vt 0.722678 0.3203125
vt 0.7109375 0.3125
vt 0.7109375 0.3203125
vt 0.7109375 0.3046875
vt 0.6640625 0.3046875
vt 0.6640625 0.3125
vt 0.7109375 0.296875
vt 0.640625 0.3203125
vt 0.6640625 0.3203125
vt 0.6640625 0.296875
vt 0.640625 0.2578125
vt 0.7109375 0.2890625
vt 0.722678 0.2578125
vt 0.6640625 0.2890625
vt 0.6640625 0.28125
vt 0.7109375 0.28125
vt 0.6640625 0.2734375
vt 0.7109375 0.2734375
vt 0.6640625 0.265625
vt 0.7109375 0.265625
vt 0.75 0.3203125
vt 0.75 0.2882749
vt 0.7580094 0.2882749
vt 0.7580094 0.3203125
vt 0.7404644 0.2985136
vt 0.7404644 0.3061993
vt 0.7481501 0.3061993
vt 0.7481501 0.2985136
vt 0.75 0.2882749
vt 0.75 0.3203125
vt 0.7580094 0.3203125
vt 0.7580094 0.2882749
vt 0.75 0.3203125
vt 0.75 0.2882749
vt 0.7580094 0.2882749
vt 0.7580094 0.3203125
vt 0.75 0.2882749
vt 0.75 0.3203125
vt 0.7580094 0.3203125
vt 0.7580094 0.2882749
vt 0.75 0.3203125
vt 0.75 0.2882749
vt 0.7580094 0.2882749
vt 0.7580094 0.3203125
vt 0.7404644 0.2985128
vt 0.7404644 0.3061984
vt 0.7481501 0.3061984
vt 0.7481501 0.2985128
vt 0.75 0.3203125
vt 0.75 0.2882749
vt 0.7580094 0.2882749
vt 0.7580094 0.3203125
vt 0.7404644 0.3062076
vt 0.7404644 0.2985219
vt 0.7481501 0.2985219
vt 0.7481501 0.3062076
vt 0.7404644 0.3061982
vt 0.7404644 0.2985126
vt 0.7481501 0.2985126
vt 0.7481501 0.3061982
vt 0.7404644 0.2985126
vt 0.7404644 0.3061982
vt 0.7481501 0.3061982
vt 0.7481501 0.2985126
vt 0.7404644 0.3061993
vt 0.7404644 0.2985136
vt 0.7481501 0.2985136
vt 0.7481501 0.3061993
vt 0.7578125 0.2578125
vt 0.7421875 0.2578125
vt 0.7421875 0.28125
vt 0.7578125 0.28125
vt 0.7578125 0.2578125
vt 0.7421875 0.2578125
vt 0.7421875 0.28125
vt 0.7578125 0.28125
vt 0.7578125 0.2578125
vt 0.7421875 0.2578125
vt 0.7421875 0.28125
vt 0.7578125 0.28125
vt 0.7578125 0.2578125
vt 0.7421875 0.2578125
vt 0.7421875 0.28125
vt 0.7578125 0.28125
vt 0.75 0.2882749
vt 0.75 0.3203125
vt 0.7580094 0.3203125
vt 0.7580094 0.2882749
vt 0.7404644 0.2985219
vt 0.7404644 0.3062076
vt 0.7481501 0.3062076
vt 0.7481501 0.2985219
vt 0.75 0.2882749
vt 0.75 0.3203125
vt 0.7580094 0.3203125
vt 0.7580094 0.2882749
vt 0.765625 0.2421875
vt 0.765625 0.1796875
vt 0.640625 0.1796875
vt 0.640625 0.2421875
vt 0.765625 0.2421875
vt 0.765625 0.1796875
vt 0.640625 0.1796875
vt 0.640625 0.2421875
vt 0.765625 0.2421875
vt 0.765625 0.1796875
vt 0.640625 0.1796875
vt 0.640625 0.2421875
vt 0.765625 0.2421875
vt 0.765625 0.1796875
vt 0.640625 0.1796875
vt 0.640625 0.2421875
vt 0.765625 0.2421875
vt 0.765625 0.1796875
vt 0.640625 0.1796875
vt 0.640625 0.2421875
vt 0.765625 0.2421875
vt 0.765625 0.1796875
vt 0.640625 0.1796875
vt 0.640625 0.2421875
vt 0.296875 0.4296875
vt 0.296875 0.3671875
vt 0.171875 0.3671875
vt 0.171875 0.4296875
vt 0.296875 0.4296875
vt 0.296875 0.3671875
vt 0.171875 0.3671875
vt 0.171875 0.4296875
vt 0.296875 0.4296875
vt 0.296875 0.3671875
vt 0.171875 0.3671875
vt 0.171875 0.4296875
vn 1 0 1.192093E-07
vn 1 0 1.192093E-07
vn 1 0 1.192093E-07
vn -1 0 -1.192093E-07
vn -1 0 -1.192093E-07
vn -1 0 -1.192093E-07
vn 1.06624E-07 -0.4472136 -0.8944272
vn 1.06624E-07 -0.4472136 -0.8944272
vn 1.06624E-07 -0.4472136 -0.8944272
vn 1.06624E-07 -0.4472136 -0.8944272
vn -1 0 1.192093E-07
vn -1 0 1.192093E-07
vn -1 0 1.192093E-07
vn 1 0 -1.192093E-07
vn 1 0 -1.192093E-07
vn 1 0 -1.192093E-07
vn 1.06624E-07 -0.4472136 0.8944272
vn 1.06624E-07 -0.4472136 0.8944272
vn 1.06624E-07 -0.4472136 0.8944272
vn 1.06624E-07 -0.4472136 0.8944272
vn -1.192093E-07 0 -1
vn -1.192093E-07 0 -1
vn -1.192093E-07 0 -1
vn -1.192093E-07 0 -1
vn 1 0 -1.192093E-07
vn 1 0 -1.192093E-07
vn 1 0 -1.192093E-07
vn 1 0 -1.192093E-07
vn 1 0 -1.192093E-07
vn 1 0 -1.192093E-07
vn 1 0 -1.192093E-07
vn 1 0 -1.192093E-07
vn 1 0 -1.192093E-07
vn 1 0 -1.192093E-07
vn 1 0 -1.192093E-07
vn 1 0 -1.192093E-07
vn 1 0 -1.192093E-07
vn 1 0 -1.192093E-07
vn 1 0 -1.192093E-07
vn 1 0 -1.192093E-07
vn 1 0 -1.192093E-07
vn 1 0 -1.192093E-07
vn 1 0 -1.192093E-07
vn 1 0 -1.192093E-07
vn 0 -1 0
vn 0 -1 0
vn 0 -1 0
vn 0 -1 0
vn 1.192093E-07 0 1
vn 1.192093E-07 0 1
vn 1.192093E-07 0 1
vn 1.192093E-07 0 1
vn 0 1 0
vn 0 1 0
vn 0 1 0
vn 0 1 0
vn 0 -1 0
vn 0 -1 0
vn 0 -1 0
vn 0 -1 0
vn 0 1 0
vn 0 1 0
vn 0 1 0
vn 0 1 0
vn 0 -1 0
vn 0 -1 0
vn 0 -1 0
vn 0 -1 0
vn 1.192093E-07 0 1
vn 1.192093E-07 0 1
vn 1.192093E-07 0 1
vn 1.192093E-07 0 1
vn 0 -1 0
vn 0 -1 0
vn 0 -1 0
vn 0 -1 0
vn -1.192093E-07 0 -1
vn -1.192093E-07 0 -1
vn -1.192093E-07 0 -1
vn -1.192093E-07 0 -1
vn -1.192093E-07 0 -1
vn -1.192093E-07 0 -1
vn -1.192093E-07 0 -1
vn -1.192093E-07 0 -1
vn 1.192093E-07 0 1
vn 1.192093E-07 0 1
vn 1.192093E-07 0 1
vn 1.192093E-07 0 1
vn -1.192093E-07 0 -1
vn -1.192093E-07 0 -1
vn -1.192093E-07 0 -1
vn -1.192093E-07 0 -1
vn 1 0 -1.192093E-07
vn 1 0 -1.192093E-07
vn 1 0 -1.192093E-07
vn 1 0 -1.192093E-07
vn 1 0 -1.192093E-07
vn 1 0 -1.192093E-07
vn 1 0 -1.192093E-07
vn 1 0 -1.192093E-07
vn 1 0 -1.192093E-07
vn 1 0 -1.192093E-07
vn 1 0 -1.192093E-07
vn 1 0 -1.192093E-07
vn 1 0 -1.192093E-07
vn 1 0 -1.192093E-07
vn 1 0 -1.192093E-07
vn 1 0 -1.192093E-07
vn 0 1 0
vn 0 1 0
vn 0 1 0
vn 0 1 0
vn 1.192093E-07 0 1
vn 1.192093E-07 0 1
vn 1.192093E-07 0 1
vn 1.192093E-07 0 1
vn 0 1 0
vn 0 1 0
vn 0 1 0
vn 0 1 0
vn 1 1.421085E-14 5.960464E-08
vn 1 1.421085E-14 5.960464E-08
vn 1 1.421085E-14 5.960464E-08
vn 1 1.421085E-14 5.960464E-08
vn 1 0 -1.192093E-07
vn 1 0 -1.192093E-07
vn 1 0 -1.192093E-07
vn 1 0 -1.192093E-07
vn 1 0 -1.192093E-07
vn 1 0 -1.192093E-07
vn 1 0 -1.192093E-07
vn 1 0 -1.192093E-07
vn 1 0 -1.192093E-07
vn 1 0 -1.192093E-07
vn 1 0 -1.192093E-07
vn 1 0 -1.192093E-07
vn 8.742277E-08 0 -1
vn 8.742277E-08 0 -1
vn 8.742277E-08 0 -1
vn 8.742277E-08 0 -1
vn 8.742277E-08 0 -1
vn 8.742277E-08 0 -1
vn 8.742277E-08 0 -1
vn 8.742277E-08 0 -1
vn 0 0 -1
vn 0 0 -1
vn 0 0 -1
vn 0 0 -1
vn -6.290182E-16 -8.742278E-08 -1
vn -6.290182E-16 -8.742278E-08 -1
vn -6.290182E-16 -8.742278E-08 -1
vn -6.290182E-16 -8.742278E-08 -1
vn 0 0 -1
vn 0 0 -1
vn 0 0 -1
vn 0 0 -1
g _Combined_Vis26_2_0
f 3/3/3 2/2/2 1/1/1
f 6/6/6 5/5/5 4/4/4
f 9/9/9 8/8/8 7/7/7
f 10/10/10 9/9/9 7/7/7
f 13/13/13 12/12/12 11/11/11
f 16/16/16 15/15/15 14/14/14
f 19/19/19 18/18/18 17/17/17
f 20/20/20 19/19/19 17/17/17
f 23/23/23 22/22/22 21/21/21
f 24/24/24 23/23/23 21/21/21
f 27/27/27 26/26/26 25/25/25
f 26/26/26 28/28/28 25/25/25
f 29/29/29 28/28/28 26/26/26
f 30/30/30 29/29/29 26/26/26
f 28/28/28 31/31/31 25/25/25
f 32/32/32 29/29/29 30/30/30
f 32/32/32 30/30/30 33/33/33
f 32/32/32 34/34/34 29/29/29
f 32/32/32 35/35/35 34/34/34
f 31/31/31 36/36/36 25/25/25
f 36/36/36 37/37/37 25/25/25
f 34/34/34 38/38/38 31/31/31
f 38/38/38 36/36/36 31/31/31
f 35/35/35 38/38/38 34/34/34
f 35/35/35 39/39/39 38/38/38
f 36/36/36 40/40/40 37/37/37
f 39/39/39 41/41/41 40/40/40
f 35/35/35 41/41/41 39/39/39
f 41/41/41 42/42/42 40/40/40
f 40/40/40 42/42/42 37/37/37
f 35/35/35 43/43/43 41/41/41
f 42/42/42 44/44/44 37/37/37
f 43/43/43 35/35/35 44/44/44
f 35/35/35 37/37/37 44/44/44
f 47/47/47 46/46/46 45/45/45
f 48/48/48 47/47/47 45/45/45
f 51/51/51 50/50/50 49/49/49
f 52/52/52 51/51/51 49/49/49
f 55/55/55 54/54/54 53/53/53
f 56/56/56 55/55/55 53/53/53
f 59/59/59 58/58/58 57/57/57
f 60/60/60 59/59/59 57/57/57
f 63/63/63 62/62/62 61/61/61
f 64/64/64 63/63/63 61/61/61
f 67/67/67 66/66/66 65/65/65
f 68/68/68 67/67/67 65/65/65
f 71/71/71 70/70/70 69/69/69
f 72/72/72 71/71/71 69/69/69
f 75/75/75 74/74/74 73/73/73
f 76/76/76 75/75/75 73/73/73
f 79/79/79 78/78/78 77/77/77
f 80/80/80 79/79/79 77/77/77
f 83/83/83 82/82/82 81/81/81
f 84/84/84 83/83/83 81/81/81
f 87/87/87 86/86/86 85/85/85
f 88/88/88 87/87/87 85/85/85
f 91/91/91 90/90/90 89/89/89
f 92/92/92 91/91/91 89/89/89
f 95/95/95 94/94/94 93/93/93
f 96/96/96 95/95/95 93/93/93
f 99/99/99 98/98/98 97/97/97
f 100/100/100 99/99/99 97/97/97
f 103/103/103 102/102/102 101/101/101
f 104/104/104 103/103/103 101/101/101
f 107/107/107 106/106/106 105/105/105
f 108/108/108 107/107/107 105/105/105
f 111/111/111 110/110/110 109/109/109
f 112/112/112 111/111/111 109/109/109
f 115/115/115 114/114/114 113/113/113
f 116/116/116 115/115/115 113/113/113
f 119/119/119 118/118/118 117/117/117
f 120/120/120 119/119/119 117/117/117
f 123/123/123 122/122/122 121/121/121
f 124/124/124 123/123/123 121/121/121
f 127/127/127 126/126/126 125/125/125
f 128/128/128 127/127/127 125/125/125
f 131/131/131 130/130/130 129/129/129
f 132/132/132 131/131/131 129/129/129
f 135/135/135 134/134/134 133/133/133
f 136/136/136 135/135/135 133/133/133
f 139/139/139 138/138/138 137/137/137
f 140/140/140 139/139/139 137/137/137
f 143/143/143 142/142/142 141/141/141
f 144/144/144 143/143/143 141/141/141
f 147/147/147 146/146/146 145/145/145
f 148/148/148 147/147/147 145/145/145
f 151/151/151 150/150/150 149/149/149
f 152/152/152 151/151/151 149/149/149
f 155/155/155 154/154/154 153/153/153
f 156/156/156 155/155/155 153/153/153
