g _Combined_AutoVis53_0
v -103.5 13.5 3.000002
v -103.5 12.5 3.000002
v -103 13 2.000001
v -103.5 12.5 3.000002
v -102.5 12.5 3.000002
v -103 13 2.000001
v -102.5 12.5 3.000002
v -102.5 13.5 3.000002
v -103 13 2.000001
v -103 13 2.000001
v -102.5 13.5 3.000002
v -103.5 13.5 3.000002
v -103.5 13.5 3.000002
v -102.5 13.5 3.000002
v -102.5 12.5 3.000002
v -103.5 12.5 3.000002
v -103.5 10.5 3.250002
v -102.5 10.5 3.250002
v -102.5 10.5 3.000002
v -103.5 10.5 3.000001
v -102.5 11.5 4.000002
v -102.5 11.25 4.000002
v -103.5 11.25 4.000002
v -103.5 11.5 4.000002
v -103.5 10.5 3.250002
v -103.5 10.5 3.000001
v -103.5 11.5 3.000001
v -103.5 10.78543 3.307092
v -103.5 11.02875 3.469672
v -103.5 11.19133 3.71299
v -103.5 11.25 4.000002
v -103.5 11.5 4.000002
v -102.5 10.5 3.250002
v -102.5 11.5 3.000002
v -102.5 10.5 3.000002
v -102.5 10.78543 3.307092
v -102.5 11.02875 3.469672
v -102.5 11.19133 3.71299
v -102.5 11.25 4.000002
v -102.5 11.5 4.000002
v -102.5 11.25 4.000002
v -103.5 11.19133 3.71299
v -103.5 11.25 4.000002
v -102.5 11.19133 3.71299
v -103.5 11.02875 3.469672
v -102.5 11.02875 3.469672
v -103.5 10.78543 3.307092
v -102.5 10.78543 3.307092
v -103.5 10.5 3.250002
v -102.5 10.5 3.250002
v -102.5 10.5 1.750001
v -103.5 10.5 1.750001
v -103.5 10.5 2.000001
v -102.5 10.5 2.000001
v -103.5 11.5 1
v -103.5 11.25 1.000001
v -102.5 11.25 1.000001
v -102.5 11.5 1.000001
v -102.5 10.5 1.750001
v -102.5 10.5 2.000001
v -102.5 11.5 2.000001
v -102.5 10.78543 1.692911
v -102.5 11.02875 1.530331
v -102.5 11.19133 1.287013
v -102.5 11.25 1.000001
v -102.5 11.5 1.000001
v -103.5 10.5 1.750001
v -103.5 11.5 2.000001
v -103.5 10.5 2.000001
v -103.5 10.78543 1.692911
v -103.5 11.02875 1.530331
v -103.5 11.19133 1.287013
v -103.5 11.25 1.000001
v -103.5 11.5 1
v -103.5 11.25 1.000001
v -102.5 11.19133 1.287013
v -102.5 11.25 1.000001
v -103.5 11.19133 1.287013
v -102.5 11.02875 1.530331
v -103.5 11.02875 1.530331
v -102.5 10.78543 1.692911
v -103.5 10.78543 1.692911
v -102.5 10.5 1.750001
v -103.5 10.5 1.750001
v -103.5 10.5 3.000001
v -103.5 10.5 2.000001
v -103.5 11.5 2.000001
v -103.5 11.5 3.000001
v -102.5 12.5 4.000002
v -103.5 12.5 4.000002
v -103.5 13.5 4.000002
v -102.5 13.5 4.000002
v -102.5 11.5 4.000002
v -103.5 11.5 4.000002
v -103.5 12.5 4.000002
v -102.5 12.5 4.000002
v -103.5 11.5 4.000002
v -103.5 11.5 3.000001
v -103.5 12.5 3.000002
v -103.5 12.5 4.000002
v -103.5 12.5 4.000002
v -103.5 12.5 3.000002
v -103.5 13.5 3.000002
v -103.5 13.5 4.000002
v -102.5 13.5 4.000002
v -103.5 13.5 4.000002
v -103.5 13.5 3.000002
v -102.5 13.5 3.000002
v -102.5 10.5 2.000001
v -102.5 10.5 3.000002
v -102.5 11.5 3.000002
v -102.5 10.5 2.000001
v -102.5 11.5 3.000002
v -102.5 11.5 2.000001
v -102.5 10.5 2.000001
v -102.5 10.5 3.000002
v -102.5 11.5 3.000002
v -102.5 10.5 2.000001
v -102.5 11.5 3.000002
v -102.5 11.5 2.000001
v -102.5 12.5 3.000002
v -102.5 12.5 4.000002
v -102.5 13.5 4.000002
v -102.5 12.5 3.000002
v -102.5 13.5 4.000002
v -102.5 13.5 3.000002
v -102.5 12.5 3.000002
v -102.5 12.5 4.000002
v -102.5 13.5 4.000002
v -102.5 12.5 3.000002
v -102.5 13.5 4.000002
v -102.5 13.5 3.000002
v -103.5 12.5 3.000002
v -103.5 11.5 3.000001
v -102.5 11.5 3.000002
v -102.5 12.5 3.000002
v -102.5 11.5 3.000002
v -102.5 11.5 4.000002
v -102.5 12.5 4.000002
v -102.5 11.5 3.000002
v -102.5 12.5 4.000002
v -102.5 12.5 3.000002
v -102.5 11.5 3.000002
v -102.5 11.5 4.000002
v -102.5 12.5 4.000002
v -102.5 11.5 3.000002
v -102.5 12.5 4.000002
v -102.5 12.5 3.000002
v -102.5 11.5 3.000002
v -103.5 11.5 3.000001
v -103.5 11.5 2.000001
v -102.5 11.5 2.000001
v -102.5 11.5 2.000001
v -103.5 11.5 2.000001
v -103.5 11.5 1
v -102.5 11.5 1.000001
vt 0.59375 0.078125
vt 0.34375 0.078125
vt 0.46875 0.203125
vt 0.59375 0.078125
vt 0.34375 0.078125
vt 0.46875 0.203125
vt 0.34375 0.078125
vt 0.59375 0.078125
vt 0.46875 0.203125
vt 0.46875 0.203125
vt 0.34375 0.078125
vt 0.59375 0.078125
vt 0.59375 0.203125
vt 0.53125 0.203125
vt 0.53125 0.171875
vt 0.59375 0.171875
vt 0.4986723 0.07795719
vt 0.4986723 0.1402364
vt 0.4674936 0.1402364
vt 0.4674936 0.07795719
vt 0.4987516 0.07795729
vt 0.4674155 0.07795729
vt 0.4674155 0.1402365
vt 0.4987516 0.1402365
vt 0.4068489 0.07855328
vt 0.3447921 0.07855328
vt 0.3447921 0.2025112
vt 0.4209247 0.1139352
vt 0.4612307 0.1440963
vt 0.521553 0.1642493
vt 0.5927078 0.1713261
vt 0.5927078 0.2025112
vt 0.4068489 0.07855328
vt 0.3447921 0.2025112
vt 0.3447922 0.07855328
vt 0.4209247 0.1139352
vt 0.4612307 0.1440963
vt 0.521553 0.1642493
vt 0.5927079 0.1713261
vt 0.5927079 0.2025112
vt 0.5926062 0.1406711
vt 0.5308909 0.1250274
vt 0.5308909 0.140671
vt 0.5926062 0.1250275
vt 0.5308909 0.1093839
vt 0.5926062 0.1093839
vt 0.5308909 0.09374026
vt 0.5926062 0.09374025
vt 0.5308909 0.07818265
vt 0.5926062 0.07818263
vt 0.4986723 0.07795719
vt 0.4986723 0.1402364
vt 0.4674936 0.1402364
vt 0.4674936 0.07795719
vt 0.4987516 0.07795729
vt 0.4674155 0.07795729
vt 0.4674155 0.1402365
vt 0.4987516 0.1402365
vt 0.4068489 0.07855328
vt 0.3447921 0.07855328
vt 0.3447921 0.2025112
vt 0.4209247 0.1139352
vt 0.4612307 0.1440963
vt 0.521553 0.1642493
vt 0.5927078 0.1713261
vt 0.5927078 0.2025112
vt 0.4068489 0.07855328
vt 0.3447921 0.2025112
vt 0.3447922 0.07855328
vt 0.4209247 0.1139352
vt 0.4612307 0.1440963
vt 0.521553 0.1642493
vt 0.5927079 0.1713261
vt 0.5927079 0.2025112
vt 0.5926062 0.1406711
vt 0.5308909 0.1250274
vt 0.5308909 0.140671
vt 0.5926062 0.1250275
vt 0.5308909 0.1093839
vt 0.5926062 0.1093839
vt 0.5308909 0.09374026
vt 0.5926062 0.09374025
vt 0.5308909 0.07818265
vt 0.5926062 0.07818263
vt 0.59375 0.203125
vt 0.59375 0.078125
vt 0.34375 0.078125
vt 0.34375 0.203125
vt 0.59375 0.203125
vt 0.59375 0.078125
vt 0.34375 0.078125
vt 0.34375 0.203125
vt 0.59375 0.203125
vt 0.59375 0.078125
vt 0.34375 0.078125
vt 0.34375 0.203125
vt 0.59375 0.203125
vt 0.59375 0.078125
vt 0.34375 0.078125
vt 0.34375 0.203125
vt 0.59375 0.203125
vt 0.59375 0.078125
vt 0.34375 0.078125
vt 0.34375 0.203125
vt 0.59375 0.203125
vt 0.59375 0.078125
vt 0.34375 0.078125
vt 0.34375 0.203125
vt 0.59375 0.203125
vt 0.59375 0.078125
vt 0.34375 0.078125
vt 0.59375 0.203125
vt 0.34375 0.078125
vt 0.34375 0.203125
vt 0.59375 0.203125
vt 0.59375 0.078125
vt 0.34375 0.078125
vt 0.59375 0.203125
vt 0.34375 0.078125
vt 0.34375 0.203125
vt 0.59375 0.203125
vt 0.59375 0.078125
vt 0.34375 0.078125
vt 0.59375 0.203125
vt 0.34375 0.078125
vt 0.34375 0.203125
vt 0.59375 0.203125
vt 0.59375 0.078125
vt 0.34375 0.078125
vt 0.59375 0.203125
vt 0.34375 0.078125
vt 0.34375 0.203125
vt 0.59375 0.203125
vt 0.59375 0.078125
vt 0.34375 0.078125
vt 0.34375 0.203125
vt 0.59375 0.203125
vt 0.59375 0.078125
vt 0.34375 0.078125
vt 0.59375 0.203125
vt 0.34375 0.078125
vt 0.34375 0.203125
vt 0.59375 0.203125
vt 0.59375 0.078125
vt 0.34375 0.078125
vt 0.59375 0.203125
vt 0.34375 0.078125
vt 0.34375 0.203125
vt 0.59375 0.203125
vt 0.59375 0.078125
vt 0.34375 0.078125
vt 0.34375 0.203125
vt 0.59375 0.203125
vt 0.59375 0.078125
vt 0.34375 0.078125
vt 0.34375 0.203125
vn -0.8944333 0 -0.4472015
vn -0.8944333 0 -0.4472015
vn -0.8944333 0 -0.4472015
vn 3.909558E-08 -0.8944333 -0.4472014
vn 3.909558E-08 -0.8944333 -0.4472014
vn 3.909558E-08 -0.8944333 -0.4472014
vn 0.8944333 0 -0.4472013
vn 0.8944333 0 -0.4472013
vn 0.8944333 0 -0.4472013
vn 3.909558E-08 0.8944333 -0.4472014
vn 3.909558E-08 0.8944333 -0.4472014
vn 3.909558E-08 0.8944333 -0.4472014
vn -8.742276E-08 0 1
vn -8.742276E-08 0 1
vn -8.742276E-08 0 1
vn -8.742276E-08 0 1
vn 0 -1 0
vn 0 -1 0
vn 0 -1 0
vn 0 -1 0
vn 0 0 1
vn 0 0 1
vn 0 0 1
vn 0 0 1
vn -1 0 0
vn -1 0 0
vn -1 0 0
vn -1 0 0
vn -1 0 0
vn -1 0 0
vn -1 0 0
vn -1 0 0
vn 1 0 0
vn 1 0 0
vn 1 0 0
vn 1 0 0
vn 1 0 0
vn 1 0 0
vn 1 0 0
vn 1 0 0
vn 0 -0.979741 0.2002685
vn 0 -0.9228657 0.385122
vn 0 -0.979741 0.2002685
vn 0 -0.9228656 0.3851221
vn 0 -0.707107 0.7071065
vn 0 -0.7071069 0.7071066
vn 0 -0.3831721 0.923677
vn 0 -0.3831721 0.923677
vn 0 -0.1961277 0.9805784
vn 0 -0.1961277 0.9805784
vn 0 -1 0
vn 0 -1 0
vn 0 -1 0
vn 0 -1 0
vn 0 0 -1
vn 0 0 -1
vn 0 0 -1
vn 0 0 -1
vn 1 0 0
vn 1 0 0
vn 1 0 0
vn 1 0 0
vn 1 0 0
vn 1 0 0
vn 1 0 0
vn 1 0 0
vn -1 0 0
vn -1 0 0
vn -1 0 0
vn -1 0 0
vn -1 0 0
vn -1 0 0
vn -1 0 0
vn -1 0 0
vn 0 -0.979741 -0.2002685
vn 0 -0.9228657 -0.385122
vn 0 -0.979741 -0.2002685
vn 0 -0.9228656 -0.3851221
vn 0 -0.707107 -0.7071065
vn 0 -0.7071069 -0.7071066
vn 0 -0.3831721 -0.923677
vn 0 -0.3831721 -0.923677
vn 0 -0.1961277 -0.9805784
vn 0 -0.1961277 -0.9805784
vn -1 0 0
vn -1 0 0
vn -1 0 0
vn -1 0 0
vn 0 0 1
vn 0 0 1
vn 0 0 1
vn 0 0 1
vn 0 0 1
vn 0 0 1
vn 0 0 1
vn 0 0 1
vn -1 0 0
vn -1 0 0
vn -1 0 0
vn -1 0 0
vn -1 0 0
vn -1 0 0
vn -1 0 0
vn -1 0 0
vn 0 1 0
vn 0 1 0
vn 0 1 0
vn 0 1 0
vn 1 0 0
vn 1 0 0
vn 1 0 0
vn 1 0 0
vn 1 0 0
vn 1 0 0
vn 1 0 0
vn 1 0 0
vn 1 0 0
vn 1 0 0
vn 1 0 0
vn 1 0 0
vn 1 0 0
vn 1 0 0
vn 1 0 0
vn 1 0 0
vn 1 0 0
vn 1 0 0
vn 1 0 0
vn 1 0 0
vn 1 0 0
vn 1 0 0
vn 1 0 0
vn 1 0 0
vn 8.742276E-08 0 -1
vn 8.742276E-08 0 -1
vn 8.742276E-08 0 -1
vn 8.742276E-08 0 -1
vn 1 0 0
vn 1 0 0
vn 1 0 0
vn 1 0 0
vn 1 0 0
vn 1 0 0
vn 1 0 0
vn 1 0 0
vn 1 0 0
vn 1 0 0
vn 1 0 0
vn 1 0 0
vn 0 1 0
vn 0 1 0
vn 0 1 0
vn 0 1 0
vn 0 1 0
vn 0 1 0
vn 0 1 0
vn 0 1 0
g _Combined_AutoVis53_0_0
f 3/3/3 2/2/2 1/1/1
f 6/6/6 5/5/5 4/4/4
f 9/9/9 8/8/8 7/7/7
f 12/12/12 11/11/11 10/10/10
f 15/15/15 14/14/14 13/13/13
f 16/16/16 15/15/15 13/13/13
f 19/19/19 18/18/18 17/17/17
f 20/20/20 19/19/19 17/17/17
f 23/23/23 22/22/22 21/21/21
f 24/24/24 23/23/23 21/21/21
f 27/27/27 26/26/26 25/25/25
f 28/28/28 27/27/27 25/25/25
f 28/28/28 29/29/29 27/27/27
f 30/30/30 27/27/27 29/29/29
f 27/27/27 30/30/30 31/31/31
f 32/32/32 27/27/27 31/31/31
f 35/35/35 34/34/34 33/33/33
f 34/34/34 36/36/36 33/33/33
f 36/36/36 34/34/34 37/37/37
f 38/38/38 37/37/37 34/34/34
f 39/39/39 38/38/38 34/34/34
f 40/40/40 39/39/39 34/34/34
f 43/43/43 42/42/42 41/41/41
f 42/42/42 44/44/44 41/41/41
f 44/44/44 42/42/42 45/45/45
f 46/46/46 44/44/44 45/45/45
f 46/46/46 45/45/45 47/47/47
f 48/48/48 46/46/46 47/47/47
f 48/48/48 47/47/47 49/49/49
f 50/50/50 48/48/48 49/49/49
f 53/53/53 52/52/52 51/51/51
f 54/54/54 53/53/53 51/51/51
f 57/57/57 56/56/56 55/55/55
f 58/58/58 57/57/57 55/55/55
f 61/61/61 60/60/60 59/59/59
f 62/62/62 61/61/61 59/59/59
f 62/62/62 63/63/63 61/61/61
f 64/64/64 61/61/61 63/63/63
f 61/61/61 64/64/64 65/65/65
f 66/66/66 61/61/61 65/65/65
f 69/69/69 68/68/68 67/67/67
f 68/68/68 70/70/70 67/67/67
f 70/70/70 68/68/68 71/71/71
f 72/72/72 71/71/71 68/68/68
f 73/73/73 72/72/72 68/68/68
f 74/74/74 73/73/73 68/68/68
f 77/77/77 76/76/76 75/75/75
f 76/76/76 78/78/78 75/75/75
f 78/78/78 76/76/76 79/79/79
f 80/80/80 78/78/78 79/79/79
f 80/80/80 79/79/79 81/81/81
f 82/82/82 80/80/80 81/81/81
f 82/82/82 81/81/81 83/83/83
f 84/84/84 82/82/82 83/83/83
f 87/87/87 86/86/86 85/85/85
f 88/88/88 87/87/87 85/85/85
f 91/91/91 90/90/90 89/89/89
f 92/92/92 91/91/91 89/89/89
f 95/95/95 94/94/94 93/93/93
f 96/96/96 95/95/95 93/93/93
f 99/99/99 98/98/98 97/97/97
f 100/100/100 99/99/99 97/97/97
f 103/103/103 102/102/102 101/101/101
f 104/104/104 103/103/103 101/101/101
f 107/107/107 106/106/106 105/105/105
f 108/108/108 107/107/107 105/105/105
f 111/111/111 110/110/110 109/109/109
f 114/114/114 113/113/113 112/112/112
f 117/117/117 116/116/116 115/115/115
f 120/120/120 119/119/119 118/118/118
f 123/123/123 122/122/122 121/121/121
f 126/126/126 125/125/125 124/124/124
f 129/129/129 128/128/128 127/127/127
f 132/132/132 131/131/131 130/130/130
f 135/135/135 134/134/134 133/133/133
f 136/136/136 135/135/135 133/133/133
f 139/139/139 138/138/138 137/137/137
f 142/142/142 141/141/141 140/140/140
f 145/145/145 144/144/144 143/143/143
f 148/148/148 147/147/147 146/146/146
f 151/151/151 150/150/150 149/149/149
f 152/152/152 151/151/151 149/149/149
f 155/155/155 154/154/154 153/153/153
f 156/156/156 155/155/155 153/153/153
