g _CombinedVis4_0
v 0.5 0.25 -0.5
v 0.4999997 -0.7500001 -0.5000001
v 0.5000002 0.25 0.5000001
v 0.25 0.2500001 -0.499999
v 0.2500002 0.249999 0.5000011
v 0.2499997 -0.7499999 -0.5000001
v 0.5000002 0.25 0.5000001
v 0.4999997 -0.7500001 -0.5000001
v 0.2499997 -0.7499999 -0.5000001
v 0.2500002 0.249999 0.5000011
v -0.25 0.25 -0.5
v -0.25 -0.75 -0.5
v -0.25 0.25 0.5
v -0.5 0.25 -0.499999
v -0.5 0.249999 0.500001
v -0.5 -0.75 -0.5
v -0.25 0.25 0.5
v -0.25 -0.75 -0.5
v -0.5 -0.75 -0.5
v -0.5 0.249999 0.500001
v -0.5 0.4999999 -0.5000001
v -0.5 0.5000001 0.5000001
v -0.5 0.249999 0.500001
v -0.5 0.25 -0.499999
v 0.499999 0.5000001 0.5000001
v 0.500001 0.4999999 -0.5000001
v 0.5 0.25 -0.5
v 0.5000002 0.25 0.5000001
v -0.5 0.5000001 0.5000001
v 0.499999 0.5000001 0.5000001
v 0.5000002 0.25 0.5000001
v -0.5 0.249999 0.500001
v 0.500001 0.4999999 -0.5000001
v -0.5 0.4999999 -0.5000001
v -0.5 0.25 -0.499999
v 0.5 0.25 -0.5
v 0.5 0.25 -0.5
v -0.5 0.25 -0.499999
v -0.5 0.249999 0.500001
v 0.5000002 0.25 0.5000001
vt 0.859375 0.4765624
vt 0.859375 0.4140625
vt 0.9843748 0.4765624
vt 0.7343752 0.4765625
vt 0.859375 0.4765624
vt 0.734375 0.4140625
vt 0.9111328 0.4765625
vt 0.734375 0.4765625
vt 0.734375 0.5390625
vt 0.9111328 0.5390625
vt 0.859375 0.4765624
vt 0.859375 0.4140625
vt 0.9843748 0.4765624
vt 0.7343752 0.4765625
vt 0.859375 0.4765624
vt 0.734375 0.4140625
vt 0.9111328 0.4765625
vt 0.734375 0.4765625
vt 0.734375 0.5390625
vt 0.9111328 0.5390625
vt 0.734375 0.6796875
vt 0.984375 0.6796875
vt 0.984375 0.6484375
vt 0.734375 0.6484375
vt 0.734375 0.6796875
vt 0.984375 0.6796875
vt 0.984375 0.6484375
vt 0.734375 0.6484375
vt 0.734375 0.6796875
vt 0.984375 0.6796875
vt 0.984375 0.6484375
vt 0.734375 0.6484375
vt 0.734375 0.6796875
vt 0.984375 0.6796875
vt 0.984375 0.6484375
vt 0.734375 0.6484375
vt 0.921875 0.6484375
vt 0.734375 0.6484375
vt 0.734375 0.5546875
vt 0.921875 0.5546875
vn 1 -3.874302E-07 -1.192093E-07
vn 1 -3.874302E-07 -1.192093E-07
vn 1 -3.874302E-07 -1.192093E-07
vn -1 3.874302E-07 1.192093E-07
vn -1 3.874302E-07 1.192093E-07
vn -1 3.874302E-07 1.192093E-07
vn -8.429371E-08 -0.7071068 0.7071068
vn -8.429371E-08 -0.7071068 0.7071068
vn -8.429371E-08 -0.7071068 0.7071068
vn -8.429371E-08 -0.7071068 0.7071068
vn 1 0 0
vn 1 0 0
vn 1 0 0
vn -1 0 0
vn -1 0 0
vn -1 0 0
vn 0 -0.7071068 0.7071068
vn 0 -0.7071068 0.7071068
vn 0 -0.7071068 0.7071068
vn 0 -0.7071068 0.7071068
vn -1 0 0
vn -1 0 0
vn -1 0 0
vn -1 0 0
vn 1 0 0
vn 1 0 0
vn 1 0 0
vn 1 0 0
vn 0 1.192093E-07 1
vn 0 1.192093E-07 1
vn 0 1.192093E-07 1
vn 0 1.192093E-07 1
vn 0 -1.192093E-07 -1
vn 0 -1.192093E-07 -1
vn 0 -1.192093E-07 -1
vn 0 -1.192093E-07 -1
vn 0 -1 1.192093E-07
vn 0 -1 1.192093E-07
vn 0 -1 1.192093E-07
vn 0 -1 1.192093E-07
g _CombinedVis4_0_0
f 3/3/3 2/2/2 1/1/1
f 6/6/6 5/5/5 4/4/4
f 9/9/9 8/8/8 7/7/7
f 10/10/10 9/9/9 7/7/7
f 13/13/13 12/12/12 11/11/11
f 16/16/16 15/15/15 14/14/14
f 19/19/19 18/18/18 17/17/17
f 20/20/20 19/19/19 17/17/17
f 23/23/23 22/22/22 21/21/21
f 24/24/24 23/23/23 21/21/21
f 27/27/27 26/26/26 25/25/25
f 28/28/28 27/27/27 25/25/25
f 31/31/31 30/30/30 29/29/29
f 32/32/32 31/31/31 29/29/29
f 35/35/35 34/34/34 33/33/33
f 36/36/36 35/35/35 33/33/33
f 39/39/39 38/38/38 37/37/37
f 40/40/40 39/39/39 37/37/37
