g _Combined_WaterVis12_0
v -0.3750189 -1.185158E-05 0.8750754
v -0.3750189 -1.185158E-05 0.5000752
v 0.3749814 -1.185158E-05 0.5000752
v 0.3749814 -1.185158E-05 0.5625752
v -0.3750189 -1.185158E-05 1.375076
v 0.3749814 -1.185158E-05 0.6250753
v 0.1249813 -1.185158E-05 1.375076
v 0.4374815 -1.185158E-05 0.6250753
v 0.4999815 -1.185158E-05 1.375076
v 0.4999815 -1.185158E-05 0.6250753
v -0.07289877 0.04999915 1.097249
v -1.873574E-05 0.04999915 0.9029024
v 0.0728613 0.04999915 1.097249
v 0.3749161 -4.104351E-07 -0.5000625
v 0.3749814 -1.185158E-05 0.5000752
v -0.3750189 -1.185158E-05 0.5000752
v -0.3750843 -4.104351E-07 -0.5000623
v 0.07279602 0.05001059 -0.0972352
v -8.398604E-05 0.05001059 0.0971109
v -0.07296406 0.05001059 -0.09723517
v 0.4999815 -1.185158E-05 0.6250753
v 1.499997 -5.463709E-07 0.6249947
v 1.499997 -5.463709E-07 1.374995
v 0.4999815 -1.185158E-05 1.375076
v 0.9028237 0.05001045 0.9271148
v 1.09717 0.05001045 0.9999949
v 0.9028237 0.05001045 1.072875
v 1.499997 -5.463709E-07 0.6249947
v 2.499997 -6.852562E-07 0.6250058
v 2.499997 -6.852561E-07 1.375006
v 1.499997 -5.463709E-07 1.374995
v 1.902824 0.05001032 0.9271259
v 2.09717 0.05001032 1.000006
v 1.902824 0.05001032 1.072886
v 0.3749196 -4.133961E-07 -1.500063
v 0.3749161 -4.104351E-07 -0.5000625
v -0.3750843 -4.104351E-07 -0.5000623
v -0.3750808 -4.133961E-07 -1.500063
v 0.07279943 0.05001059 -1.097235
v -8.060595E-05 0.05001059 -0.9028893
v -0.07296064 0.05001059 -1.097235
vt 0.125 0.749914
vt 0.125 0.999885
vt 0.875 0.999885
vt 0.875 0.749914
vt 0.125 0.499942
vt 0.875 0.499942
vt 0.125 0.249971
vt 0.875 0.249971
vt 0.125 0
vt 0.875 0
vt 0 0.999885
vt 0 0.999885
vt 0 0.999885
vt 0.875 0.999885
vt 0.875 0
vt 0.125 0
vt 0.125 0.999885
vt 0 0
vt 0 0
vt 0 0
vt 0.875 0.999885
vt 0.875 0
vt 0.125 0
vt 0.125 0.999885
vt 0 0
vt 0 0
vt 0 0
vt 0.875 0.999885
vt 0.875 0
vt 0.125 0
vt 0.125 0.999885
vt 0 0
vt 0 0
vt 0 0
vt 0.875 0.999885
vt 0.875 0
vt 0.125 0
vt 0.125 0.999885
vt 0 0
vt 0 0
vt 0 0
vn -4.900828E-14 1 2.402115E-14
vn -4.900828E-14 1 2.402115E-14
vn -4.900828E-14 1 2.402115E-14
vn -4.900828E-14 1 2.402115E-14
vn -4.900828E-14 1 2.402115E-14
vn -4.900828E-14 1 2.402115E-14
vn -4.900828E-14 1 2.402115E-14
vn -4.900828E-14 1 2.402115E-14
vn -4.900828E-14 1 2.402115E-14
vn -4.900828E-14 1 2.402115E-14
vn -4.900828E-14 1 2.402115E-14
vn -4.900828E-14 1 2.402115E-14
vn -4.900828E-14 1 2.402115E-14
vn -4.900835E-14 1 8.033935E-15
vn -4.900835E-14 1 8.033935E-15
vn -4.900835E-14 1 8.033935E-15
vn -4.900835E-14 1 8.033935E-15
vn -4.900835E-14 1 8.033935E-15
vn -4.900835E-14 1 8.033935E-15
vn -4.900835E-14 1 8.033935E-15
vn -6.321915E-14 1 2.069054E-14
vn -6.321915E-14 1 2.069054E-14
vn -6.321915E-14 1 2.069054E-14
vn -6.321915E-14 1 2.069054E-14
vn -6.321915E-14 1 2.069054E-14
vn -6.321915E-14 1 2.069054E-14
vn -6.321915E-14 1 2.069054E-14
vn -6.321915E-14 1 2.069054E-14
vn -6.321915E-14 1 2.069054E-14
vn -6.321915E-14 1 2.069054E-14
vn -6.321915E-14 1 2.069054E-14
vn -6.321915E-14 1 2.069054E-14
vn -6.321915E-14 1 2.069054E-14
vn -6.321915E-14 1 2.069054E-14
vn -4.900828E-14 1 2.402115E-14
vn -4.900828E-14 1 2.402115E-14
vn -4.900828E-14 1 2.402115E-14
vn -4.900828E-14 1 2.402115E-14
vn -4.900828E-14 1 2.402115E-14
vn -4.900828E-14 1 2.402115E-14
vn -4.900828E-14 1 2.402115E-14
g _Combined_WaterVis12_0_0
f 3/3/3 2/2/2 1/1/1
f 4/4/4 3/3/3 1/1/1
f 4/4/4 1/1/1 5/5/5
f 6/6/6 4/4/4 5/5/5
f 6/6/6 5/5/5 7/7/7
f 8/8/8 6/6/6 7/7/7
f 8/8/8 7/7/7 9/9/9
f 10/10/10 8/8/8 9/9/9
f 13/13/13 12/12/12 11/11/11
f 16/16/16 15/15/15 14/14/14
f 17/17/17 16/16/16 14/14/14
f 20/20/20 19/19/19 18/18/18
f 23/23/23 22/22/22 21/21/21
f 24/24/24 23/23/23 21/21/21
f 27/27/27 26/26/26 25/25/25
f 30/30/30 29/29/29 28/28/28
f 31/31/31 30/30/30 28/28/28
f 34/34/34 33/33/33 32/32/32
f 37/37/37 36/36/36 35/35/35
f 38/38/38 37/37/37 35/35/35
f 41/41/41 40/40/40 39/39/39
