g _Combined_Vis49_0
v -0.750001 -0.5000001 -0.2500017
v -0.750001 0.5000002 -0.2499996
v -0.7500009 0.5000001 0.7499998
v -0.7500009 -0.5000002 0.7499997
v 0.2500002 0.5 0.7499996
v 0.2499982 -0.5 0.7499996
v -0.7500009 -0.5000002 0.7499997
v -0.7500009 0.5000001 0.7499998
v -0.750001 0.5000002 -0.2499996
v -0.750001 -0.5000001 -0.2500017
v 0.2499993 -0.5 -0.2500005
v 0.2499993 0.5 -0.2500005
v 0.2499993 0.5 -0.2500005
v 0.2499993 -0.5 -0.2500005
v 0.2499982 -0.5 0.7499996
v 0.2500002 0.5 0.7499996
v -0.7500009 0.5000001 0.7499998
v -0.750001 0.5000002 -0.2499996
v 0.2499993 0.5 -0.2500005
v 0.2500002 0.5 0.7499996
vt 0.71875 0.453125
vt 0.71875 0.390625
vt 0.59375 0.390625
vt 0.59375 0.453125
vt 0.71875 0.453125
vt 0.71875 0.390625
vt 0.59375 0.390625
vt 0.59375 0.453125
vt 0.34375 0.328125
vt 0.34375 0.265625
vt 0.21875 0.265625
vt 0.21875 0.328125
vt 0.34375 0.328125
vt 0.34375 0.265625
vt 0.21875 0.265625
vt 0.21875 0.328125
vt 0.34375 0.328125
vt 0.34375 0.265625
vt 0.21875 0.265625
vt 0.21875 0.328125
vn -1 0 -1.192093E-07
vn -1 0 -1.192093E-07
vn -1 0 -1.192093E-07
vn -1 0 -1.192093E-07
vn 0 0 1
vn 0 0 1
vn 0 0 1
vn 0 0 1
vn 8.742277E-08 0 -1
vn 8.742277E-08 0 -1
vn 8.742277E-08 0 -1
vn 8.742277E-08 0 -1
vn 1 0 -1.192093E-07
vn 1 0 -1.192093E-07
vn 1 0 -1.192093E-07
vn 1 0 -1.192093E-07
vn 0 1 -1.192093E-07
vn 0 1 -1.192093E-07
vn 0 1 -1.192093E-07
vn 0 1 -1.192093E-07
g _Combined_Vis49_0_0
f 3/3/3 2/2/2 1/1/1
f 4/4/4 3/3/3 1/1/1
f 7/7/7 6/6/6 5/5/5
f 8/8/8 7/7/7 5/5/5
f 11/11/11 10/10/10 9/9/9
f 12/12/12 11/11/11 9/9/9
f 15/15/15 14/14/14 13/13/13
f 16/16/16 15/15/15 13/13/13
f 19/19/19 18/18/18 17/17/17
f 20/20/20 19/19/19 17/17/17
