g _Combined_Vis14_0
v 0.2499938 -2.5 -0.5000008
v 0.2499937 -2.5 0.4999994
v 0.4999936 -2.5 0.4999995
v 0.499994 -2.5 -0.5000007
v -0.5000067 -1.5 0.4999989
v -0.5000066 -1.75 0.499999
v -0.5000062 -1.75 -0.5000012
v -0.5000061 -1.5 -0.5000014
v 0.2499938 -2.5 -0.5000008
v 0.499994 -2.5 -0.5000007
v 0.4999941 -1.5 -0.5000008
v 0.1929033 -2.214565 -0.5000008
v 0.0303236 -1.971247 -0.5000009
v -0.212994 -1.808668 -0.5000011
v -0.5000062 -1.75 -0.5000012
v -0.5000061 -1.5 -0.5000014
v 0.2499937 -2.5 0.4999994
v 0.4999937 -1.5 0.4999992
v 0.4999936 -2.5 0.4999995
v 0.1929032 -2.214565 0.4999993
v 0.03032351 -1.971247 0.4999992
v -0.2129941 -1.808668 0.4999991
v -0.5000066 -1.75 0.499999
v -0.5000067 -1.5 0.4999989
v -0.5000066 -1.75 0.499999
v -0.212994 -1.808668 -0.5000011
v -0.5000062 -1.75 -0.5000012
v -0.2129941 -1.808668 0.4999991
v 0.0303236 -1.971247 -0.5000009
v 0.03032351 -1.971247 0.4999992
v 0.1929033 -2.214565 -0.5000008
v 0.1929032 -2.214565 0.4999993
v 0.2499938 -2.5 -0.5000008
v 0.2499937 -2.5 0.4999994
v -0.5000063 0 -0.1250009
v -0.2500063 0 -0.1250009
v -0.2500063 -0.875 -0.1250009
v -0.5000063 -0.875 -0.1250009
v -0.5000063 -0.875 -0.1250009
v -0.2500063 -0.875 -0.1250009
v -0.2500063 -0.875 0.1249992
v -0.5000063 -0.875 0.1249991
v -0.5000063 -0.875 0.1249991
v -0.2500063 -0.875 0.1249992
v -0.2500063 0 0.1249992
v -0.5000063 0 0.1249991
v -0.5000063 0 0.1249991
v -0.2500063 0 0.1249992
v -0.2500063 0.125 -8.467359E-07
v -0.5000063 0.125 -8.765383E-07
v -0.5000063 0.125 -8.765383E-07
v -0.2500063 0.125 -8.467359E-07
v -0.2500063 0 -0.1250009
v -0.5000063 0 -0.1250009
v -0.2500063 0 0.1249992
v -0.2500063 0 -0.1250009
v -0.2500063 0.125 -8.467359E-07
v -0.2500063 -0.875 -0.1250009
v -0.2500063 -0.875 0.1249992
v -0.5000063 -0.875 0.1249991
v -0.5000064 -0.5 0.4999992
v -0.5000067 -1.5 0.4999989
v -0.5000061 -1.5 -0.5000014
v -0.5000063 0 0.1249991
v -0.5000063 -0.875 -0.1250009
v -0.5000064 0.5 0.4999992
v -0.5000063 -0.5 -0.500001
v -0.5000063 0.125 -8.765383E-07
v -0.5000063 0 -0.1250009
v -0.5000063 0.5 -0.500001
v 0.3749937 1.75 -0.1250008
v 0.3749937 1.75 -0.3750008
v 0.4999937 1.75 -0.5000008
v 0.4999937 1.75 -0.1250008
v 0.4999937 1.75 -0.5000008
v 0.3749937 1.75 -0.3750008
v 0.1249937 1.75 -0.3750008
v 0.1249937 1.75 -0.5000008
v 0.1249937 1.5 0.4999992
v 0.1249937 1.5 0.3749992
v 0.1249937 1.75 0.3749992
v 0.1249937 1.75 0.4999992
v 0.4999937 1.5 0.4999992
v 0.1249937 1.5 0.4999992
v 0.1249937 1.75 0.4999992
v 0.4999937 1.75 0.4999992
v 0.3749937 1.5 -0.3750008
v 0.1249937 1.5 -0.3750008
v 0.1249937 1.75 -0.3750008
v 0.3749937 1.75 -0.3750008
v 0.1249937 1.5 -0.3750008
v 0.1249937 1.5 -0.5000008
v 0.1249937 1.75 -0.5000008
v 0.1249937 1.75 -0.3750008
v 0.4999937 1.75 0.4999992
v 0.3749937 1.75 0.3749992
v 0.3749937 1.75 0.1249992
v 0.4999937 1.75 0.1249992
v 0.1249937 1.5 -0.5000008
v 0.4999937 1.5 -0.5000008
v 0.4999937 1.75 -0.5000008
v 0.1249937 1.75 -0.5000008
v -0.1250063 1.5 0.4999992
v -0.5000063 1.5 0.4999992
v -0.5000063 1.75 0.4999992
v -0.1250063 1.75 0.4999992
v -0.5000063 1.75 -0.5000008
v -0.3750063 1.75 -0.3750008
v -0.3750063 1.75 -0.1250008
v -0.5000063 1.75 -0.1250008
v -0.1250063 1.5 0.3749992
v -0.1250063 1.5 0.4999992
v -0.1250063 1.75 0.4999992
v -0.1250063 1.75 0.3749992
v -0.3750063 1.5 0.3749992
v -0.1250063 1.5 0.3749992
v -0.1250063 1.75 0.3749992
v -0.3750063 1.75 0.3749992
v -0.5000063 1.5 -0.5000008
v -0.1250063 1.5 -0.5000008
v -0.1250063 1.75 -0.5000008
v -0.5000063 1.75 -0.5000008
v -0.1250063 1.5 -0.5000008
v -0.1250063 1.5 -0.3750008
v -0.1250063 1.75 -0.3750008
v -0.1250063 1.75 -0.5000008
v -0.5000063 1.75 0.4999992
v -0.3750063 1.75 0.3749992
v -0.1250063 1.75 0.3749992
v -0.1250063 1.75 0.4999992
v -0.3750063 1.75 0.1249992
v -0.3750063 1.75 0.3749992
v -0.5000063 1.75 0.4999992
v -0.5000063 1.75 0.1249992
v -0.1250063 1.5 -0.3750008
v -0.3750063 1.5 -0.3750008
v -0.3750063 1.75 -0.3750008
v -0.1250063 1.75 -0.3750008
v -0.5000063 1.5 -0.1250008
v -0.5000063 1.5 -0.5000008
v -0.5000063 1.75 -0.5000008
v -0.5000063 1.75 -0.1250008
v -0.3750063 1.5 -0.1250008
v -0.5000063 1.5 -0.1250008
v -0.5000063 1.75 -0.1250008
v -0.3750063 1.75 -0.1250008
v -0.3750063 1.5 -0.3750008
v -0.3750063 1.5 -0.1250008
v -0.3750063 1.75 -0.1250008
v -0.3750063 1.75 -0.3750008
v -0.5000063 1.5 0.4999992
v -0.5000063 1.5 0.1249992
v -0.5000063 1.75 0.1249992
v -0.5000063 1.75 0.4999992
v -0.5000063 1.5 0.1249992
v -0.3750063 1.5 0.1249992
v -0.3750063 1.75 0.1249992
v -0.5000063 1.75 0.1249992
v -0.3750063 1.5 0.1249992
v -0.3750063 1.5 0.3749992
v -0.3750063 1.75 0.3749992
v -0.3750063 1.75 0.1249992
v -0.1250063 1.75 -0.3750008
v -0.3750063 1.75 -0.3750008
v -0.5000063 1.75 -0.5000008
v -0.1250063 1.75 -0.5000008
v 0.1249937 1.5 0.3749992
v 0.3749937 1.5 0.3749992
v 0.3749937 1.75 0.3749992
v 0.1249937 1.75 0.3749992
v 0.4999937 1.5 0.1249992
v 0.4999937 1.5 0.4999992
v 0.4999937 1.75 0.4999992
v 0.4999937 1.75 0.1249992
v 0.3749937 1.5 0.1249992
v 0.4999937 1.5 0.1249992
v 0.4999937 1.75 0.1249992
v 0.3749937 1.75 0.1249992
v 0.3749937 1.5 0.3749992
v 0.3749937 1.5 0.1249992
v 0.3749937 1.75 0.1249992
v 0.3749937 1.75 0.3749992
v 0.4999937 1.5 -0.5000008
v 0.4999937 1.5 -0.1250008
v 0.4999937 1.75 -0.1250008
v 0.4999937 1.75 -0.5000008
v 0.4999937 1.5 -0.1250008
v 0.3749937 1.5 -0.1250008
v 0.3749937 1.75 -0.1250008
v 0.4999937 1.75 -0.1250008
v 0.3749937 1.5 -0.1250008
v 0.3749937 1.5 -0.3750008
v 0.3749937 1.75 -0.3750008
v 0.3749937 1.75 -0.1250008
v 0.1249937 1.75 0.3749992
v 0.3749937 1.75 0.3749992
v 0.4999937 1.75 0.4999992
v 0.1249937 1.75 0.4999992
v -0.5000063 1.5 -0.5000008
v 0.4999937 1.5 -0.5000008
v 0.4999937 1.5 0.4999992
v -0.5000063 1.5 0.4999992
v 0.4999937 -1.5 0.4999992
v 0.4999941 -1.5 -0.5000008
v 0.499994 -2.5 -0.5000007
v 0.4999936 -2.5 0.4999995
v 0.4999937 -0.499999 0.4999993
v 0.4999937 -0.500001 -0.5000007
v 0.4999941 -1.5 -0.5000008
v 0.4999937 -1.5 0.4999992
v 0.4999937 0.500001 0.4999993
v 0.4999937 0.499999 -0.5000007
v 0.4999937 -0.500001 -0.5000007
v 0.4999937 -0.499999 0.4999993
v 0.4999937 1.5 0.4999992
v 0.4999937 1.5 -0.5000008
v 0.4999937 0.499999 -0.5000007
v 0.4999937 0.500001 0.4999993
v -0.5000063 -0.5 -0.500001
v -0.5000061 -1.5 -0.5000014
v 0.4999941 -1.5 -0.5000008
v 0.4999937 -0.500001 -0.5000007
v -0.5000063 0.5 -0.500001
v -0.5000063 -0.5 -0.500001
v 0.4999937 -0.500001 -0.5000007
v 0.4999937 0.499999 -0.5000007
v -0.5000063 1.5 -0.5000008
v -0.5000063 0.5 -0.500001
v 0.4999937 0.499999 -0.5000007
v 0.4999937 1.5 -0.5000008
v -0.5000063 1.5 0.4999992
v -0.5000064 0.5 0.4999992
v -0.5000063 0.5 -0.500001
v -0.5000063 1.5 -0.5000008
v 0.4999937 -0.499999 0.4999993
v 0.4999937 -1.5 0.4999992
v -0.5000067 -1.5 0.4999989
v -0.5000064 -0.5 0.4999992
v 0.4999937 0.500001 0.4999993
v 0.4999937 -0.499999 0.4999993
v -0.5000064 -0.5 0.4999992
v -0.5000064 0.5 0.4999992
v 0.4999937 1.5 0.4999992
v 0.4999937 0.500001 0.4999993
v -0.5000064 0.5 0.4999992
v -0.5000063 1.5 0.4999992
vt 0.5618361 0.3983536
vt 0.5618361 0.4294932
vt 0.5462468 0.4294932
vt 0.5462468 0.3983536
vt 0.5618758 0.3983536
vt 0.5462078 0.3983536
vt 0.5462077 0.4294932
vt 0.5618758 0.4294932
vt 0.5159245 0.3986516
vt 0.4848961 0.3986516
vt 0.484896 0.4606306
vt 0.5229623 0.4163426
vt 0.5431154 0.4314232
vt 0.5732765 0.4414997
vt 0.6088539 0.4450381
vt 0.6088539 0.4606306
vt 0.5159245 0.3986516
vt 0.4848961 0.4606306
vt 0.4848961 0.3986516
vt 0.5229623 0.4163426
vt 0.5431154 0.4314232
vt 0.5732765 0.4414997
vt 0.6088539 0.4450381
vt 0.6088539 0.4606306
vt 0.6088031 0.4297105
vt 0.5779455 0.4218887
vt 0.5779454 0.4297105
vt 0.6088031 0.4218887
vt 0.5779454 0.4140669
vt 0.6088031 0.4140669
vt 0.5779454 0.4062451
vt 0.6088031 0.4062451
vt 0.5779454 0.3984663
vt 0.6088031 0.3984663
vt 0.9768031 0.9076131
vt 0.9611781 0.9076131
vt 0.9611781 0.8802693
vt 0.9768031 0.8802693
vt 0.9610609 0.8760276
vt 0.9610609 0.8682151
vt 0.9766859 0.8682151
vt 0.9766859 0.8760276
vt 0.9768031 0.9076131
vt 0.9611781 0.9076131
vt 0.9611781 0.8802693
vt 0.9768031 0.8802693
vt 0.9768031 0.9076131
vt 0.9611781 0.9076131
vt 0.9611781 0.9115193
vt 0.9768031 0.9115193
vt 0.9768031 0.9115193
vt 0.9611781 0.9115193
vt 0.9611781 0.9076131
vt 0.9768031 0.9076131
vt 0.9474936 0.908452
vt 0.9318685 0.908452
vt 0.939681 0.9123582
vt 0.9318685 0.8811082
vt 0.9474935 0.8811082
vt 0.8973337 0.8720054
vt 0.9174598 0.8828125
vt 0.9174598 0.8539935
vt 0.8637902 0.8539935
vt 0.8973337 0.897222
vt 0.8839163 0.8720054
vt 0.9174598 0.9116315
vt 0.8637902 0.8828125
vt 0.890625 0.9008244
vt 0.8839163 0.897222
vt 0.8637902 0.9116315
vt 0.609375 0.4453125
vt 0.609375 0.4140625
vt 0.578125 0.3984375
vt 0.578125 0.4453125
vt 0.578125 0.4453125
vt 0.609375 0.4296875
vt 0.609375 0.3984375
vt 0.578125 0.3984375
vt 0.609375 0.4453125
vt 0.578125 0.4453125
vt 0.578125 0.4609375
vt 0.609375 0.4609375
vt 0.578125 0.3984375
vt 0.484375 0.3984375
vt 0.484375 0.4296875
vt 0.578125 0.4296875
vt 0.515625 0.4609375
vt 0.578125 0.4609375
vt 0.578125 0.4296875
vt 0.515625 0.4296875
vt 0.578125 0.4609375
vt 0.609375 0.4609375
vt 0.609375 0.4453125
vt 0.578125 0.4453125
vt 0.578125 0.4453125
vt 0.609375 0.4296875
vt 0.609375 0.3984375
vt 0.578125 0.3984375
vt 0.578125 0.3984375
vt 0.484375 0.3984375
vt 0.484375 0.4296875
vt 0.578125 0.4296875
vt 0.578125 0.3984375
vt 0.484375 0.3984375
vt 0.484375 0.4296875
vt 0.578125 0.4296875
vt 0.578125 0.4453125
vt 0.609375 0.4296875
vt 0.609375 0.3984375
vt 0.578125 0.3984375
vt 0.578125 0.4609375
vt 0.609375 0.4609375
vt 0.609375 0.4453125
vt 0.578125 0.4453125
vt 0.515625 0.4609375
vt 0.578125 0.4609375
vt 0.578125 0.4296875
vt 0.515625 0.4296875
vt 0.578125 0.3984375
vt 0.484375 0.3984375
vt 0.484375 0.4296875
vt 0.578125 0.4296875
vt 0.609375 0.4453125
vt 0.578125 0.4453125
vt 0.578125 0.4609375
vt 0.609375 0.4609375
vt 0.578125 0.4453125
vt 0.609375 0.4296875
vt 0.609375 0.3984375
vt 0.578125 0.3984375
vt 0.609375 0.4453125
vt 0.609375 0.4140625
vt 0.578125 0.3984375
vt 0.578125 0.4453125
vt 0.484375 0.4609375
vt 0.546875 0.4609375
vt 0.546875 0.4296875
vt 0.484375 0.4296875
vt 0.578125 0.3984375
vt 0.484375 0.3984375
vt 0.484375 0.4296875
vt 0.578125 0.4296875
vt 0.578125 0.4609375
vt 0.609375 0.4609375
vt 0.609375 0.4453125
vt 0.578125 0.4453125
vt 0.515625 0.4609375
vt 0.578125 0.4609375
vt 0.578125 0.4296875
vt 0.515625 0.4296875
vt 0.578125 0.3984375
vt 0.484375 0.3984375
vt 0.484375 0.4296875
vt 0.578125 0.4296875
vt 0.609375 0.4453125
vt 0.578125 0.4453125
vt 0.578125 0.4609375
vt 0.609375 0.4609375
vt 0.484375 0.4609375
vt 0.546875 0.4609375
vt 0.546875 0.4296875
vt 0.484375 0.4296875
vt 0.609375 0.4453125
vt 0.609375 0.4140625
vt 0.578125 0.3984375
vt 0.578125 0.4453125
vt 0.484375 0.4609375
vt 0.546875 0.4609375
vt 0.546875 0.4296875
vt 0.484375 0.4296875
vt 0.578125 0.3984375
vt 0.484375 0.3984375
vt 0.484375 0.4296875
vt 0.578125 0.4296875
vt 0.578125 0.4609375
vt 0.609375 0.4609375
vt 0.609375 0.4453125
vt 0.578125 0.4453125
vt 0.515625 0.4609375
vt 0.578125 0.4609375
vt 0.578125 0.4296875
vt 0.515625 0.4296875
vt 0.578125 0.3984375
vt 0.484375 0.3984375
vt 0.484375 0.4296875
vt 0.578125 0.4296875
vt 0.609375 0.4453125
vt 0.578125 0.4453125
vt 0.578125 0.4609375
vt 0.609375 0.4609375
vt 0.484375 0.4609375
vt 0.546875 0.4609375
vt 0.546875 0.4296875
vt 0.484375 0.4296875
vt 0.609375 0.4453125
vt 0.609375 0.4140625
vt 0.578125 0.3984375
vt 0.578125 0.4453125
vt 0.609375 0.4609375
vt 0.609375 0.3984375
vt 0.484375 0.3984375
vt 0.484375 0.4609375
vt 0.609375 0.4609375
vt 0.609375 0.3984375
vt 0.484375 0.3984375
vt 0.484375 0.4609375
vt 0.609375 0.4609375
vt 0.609375 0.3984375
vt 0.484375 0.3984375
vt 0.484375 0.4609375
vt 0.609375 0.4609375
vt 0.609375 0.3984375
vt 0.484375 0.3984375
vt 0.484375 0.4609375
vt 0.609375 0.4609375
vt 0.609375 0.3984375
vt 0.484375 0.3984375
vt 0.484375 0.4609375
vt 0.609375 0.4609375
vt 0.609375 0.3984375
vt 0.484375 0.3984375
vt 0.484375 0.4609375
vt 0.609375 0.4609375
vt 0.609375 0.3984375
vt 0.484375 0.3984375
vt 0.484375 0.4609375
vt 0.609375 0.4609375
vt 0.609375 0.3984375
vt 0.484375 0.3984375
vt 0.484375 0.4609375
vt 0.734375 0.7734375
vt 0.734375 0.7109375
vt 0.609375 0.7109375
vt 0.609375 0.7734375
vt 0.609375 0.4609375
vt 0.609375 0.3984375
vt 0.484375 0.3984375
vt 0.484375 0.4609375
vt 0.609375 0.4609375
vt 0.609375 0.3984375
vt 0.484375 0.3984375
vt 0.484375 0.4609375
vt 0.609375 0.4609375
vt 0.609375 0.3984375
vt 0.484375 0.3984375
vt 0.484375 0.4609375
vn 0 -1 1.192093E-07
vn 0 -1 1.192093E-07
vn 0 -1 1.192093E-07
vn 0 -1 1.192093E-07
vn -1 0 -8.742276E-08
vn -1 0 -8.742276E-08
vn -1 0 -8.742276E-08
vn -1 0 -8.742276E-08
vn 8.742278E-08 1.192093E-07 -1
vn 8.742278E-08 1.192093E-07 -1
vn 8.742278E-08 1.192093E-07 -1
vn 8.742278E-08 1.192093E-07 -1
vn 8.742278E-08 1.192093E-07 -1
vn 8.742278E-08 1.192093E-07 -1
vn 8.742278E-08 1.192093E-07 -1
vn 8.742278E-08 1.192093E-07 -1
vn -8.742278E-08 -1.192093E-07 1
vn -8.742278E-08 -1.192093E-07 1
vn -8.742278E-08 -1.192093E-07 1
vn -8.742278E-08 -1.192093E-07 1
vn -8.742278E-08 -1.192093E-07 1
vn -8.742278E-08 -1.192093E-07 1
vn -8.742278E-08 -1.192093E-07 1
vn -8.742278E-08 -1.192093E-07 1
vn -0.2002685 -0.979741 9.928619E-08
vn -0.385122 -0.9228657 7.634572E-08
vn -0.2002685 -0.979741 9.928619E-08
vn -0.3851221 -0.9228656 7.634571E-08
vn -0.7071065 -0.707107 2.247651E-08
vn -0.7071066 -0.7071069 2.247649E-08
vn -0.923677 -0.3831721 -3.507272E-08
vn -0.923677 -0.3831721 -3.507273E-08
vn -0.9805784 -0.1961277 -6.234464E-08
vn -0.9805784 -0.1961277 -6.234464E-08
vn -1.192093E-07 0 1
vn -1.192093E-07 0 1
vn -1.192093E-07 0 1
vn -1.192093E-07 0 1
vn 0 1 0
vn 0 1 0
vn 0 1 0
vn 0 1 0
vn 1.192093E-07 0 -1
vn 1.192093E-07 0 -1
vn 1.192093E-07 0 -1
vn 1.192093E-07 0 -1
vn 8.429369E-08 -0.7071068 -0.7071068
vn 8.429369E-08 -0.7071068 -0.7071068
vn 8.429369E-08 -0.7071068 -0.7071068
vn 8.429369E-08 -0.7071068 -0.7071068
vn -8.429369E-08 -0.7071068 0.7071068
vn -8.429369E-08 -0.7071068 0.7071068
vn -8.429369E-08 -0.7071068 0.7071068
vn -8.429369E-08 -0.7071068 0.7071068
vn -1 0 -1.192093E-07
vn -1 0 -1.192093E-07
vn -1 0 -1.192093E-07
vn -1 0 -1.192093E-07
vn -1 0 -1.192093E-07
vn -1 0 -1.192093E-07
vn -1 0 -1.192093E-07
vn -1 0 -1.192093E-07
vn -1 0 -1.192093E-07
vn -1 0 -1.192093E-07
vn -1 0 -1.192093E-07
vn -1 0 -1.192093E-07
vn -1 0 -1.192093E-07
vn -1 0 -1.192093E-07
vn -1 0 -1.192093E-07
vn -1 0 -1.192093E-07
vn 0 1 0
vn 0 1 0
vn 0 1 0
vn 0 1 0
vn 0 1 0
vn 0 1 0
vn 0 1 0
vn 0 1 0
vn -1 0 0
vn -1 0 0
vn -1 0 0
vn -1 0 0
vn 0 0 1
vn 0 0 1
vn 0 0 1
vn 0 0 1
vn 0 0 1
vn 0 0 1
vn 0 0 1
vn 0 0 1
vn -1 0 0
vn -1 0 0
vn -1 0 0
vn -1 0 0
vn 0 1 0
vn 0 1 0
vn 0 1 0
vn 0 1 0
vn 0 0 -1
vn 0 0 -1
vn 0 0 -1
vn 0 0 -1
vn 0 0 1
vn 0 0 1
vn 0 0 1
vn 0 0 1
vn 0 1 0
vn 0 1 0
vn 0 1 0
vn 0 1 0
vn 1 0 0
vn 1 0 0
vn 1 0 0
vn 1 0 0
vn 0 0 -1
vn 0 0 -1
vn 0 0 -1
vn 0 0 -1
vn 0 0 -1
vn 0 0 -1
vn 0 0 -1
vn 0 0 -1
vn 1 0 0
vn 1 0 0
vn 1 0 0
vn 1 0 0
vn 0 1 0
vn 0 1 0
vn 0 1 0
vn 0 1 0
vn 0 1 0
vn 0 1 0
vn 0 1 0
vn 0 1 0
vn 0 0 1
vn 0 0 1
vn 0 0 1
vn 0 0 1
vn -1 0 0
vn -1 0 0
vn -1 0 0
vn -1 0 0
vn 0 0 1
vn 0 0 1
vn 0 0 1
vn 0 0 1
vn 1 0 0
vn 1 0 0
vn 1 0 0
vn 1 0 0
vn -1 0 0
vn -1 0 0
vn -1 0 0
vn -1 0 0
vn 0 0 -1
vn 0 0 -1
vn 0 0 -1
vn 0 0 -1
vn 1 0 0
vn 1 0 0
vn 1 0 0
vn 1 0 0
vn 0 1 0
vn 0 1 0
vn 0 1 0
vn 0 1 0
vn 0 0 -1
vn 0 0 -1
vn 0 0 -1
vn 0 0 -1
vn 1 0 0
vn 1 0 0
vn 1 0 0
vn 1 0 0
vn 0 0 -1
vn 0 0 -1
vn 0 0 -1
vn 0 0 -1
vn -1 0 0
vn -1 0 0
vn -1 0 0
vn -1 0 0
vn 1 0 0
vn 1 0 0
vn 1 0 0
vn 1 0 0
vn 0 0 1
vn 0 0 1
vn 0 0 1
vn 0 0 1
vn -1 0 0
vn -1 0 0
vn -1 0 0
vn -1 0 0
vn 0 1 0
vn 0 1 0
vn 0 1 0
vn 0 1 0
vn 0 1 0
vn 0 1 0
vn 0 1 0
vn 0 1 0
vn 1 0 0
vn 1 0 0
vn 1 0 0
vn 1 0 0
vn 1 0 0
vn 1 0 0
vn 1 0 0
vn 1 0 0
vn 1 0 0
vn 1 0 0
vn 1 0 0
vn 1 0 0
vn 1 0 0
vn 1 0 0
vn 1 0 0
vn 1 0 0
vn 8.742278E-08 0 -1
vn 8.742278E-08 0 -1
vn 8.742278E-08 0 -1
vn 8.742278E-08 0 -1
vn 8.742278E-08 0 -1
vn 8.742278E-08 0 -1
vn 8.742278E-08 0 -1
vn 8.742278E-08 0 -1
vn 8.742278E-08 0 -1
vn 8.742278E-08 0 -1
vn 8.742278E-08 0 -1
vn 8.742278E-08 0 -1
vn -1 0 -1.192093E-07
vn -1 0 -1.192093E-07
vn -1 0 -1.192093E-07
vn -1 0 -1.192093E-07
vn 0 0 1
vn 0 0 1
vn 0 0 1
vn 0 0 1
vn 0 0 1
vn 0 0 1
vn 0 0 1
vn 0 0 1
vn 0 0 1
vn 0 0 1
vn 0 0 1
vn 0 0 1
g _Combined_Vis14_0_0
f 3/3/3 2/2/2 1/1/1
f 4/4/4 3/3/3 1/1/1
f 7/7/7 6/6/6 5/5/5
f 8/8/8 7/7/7 5/5/5
f 11/11/11 10/10/10 9/9/9
f 12/12/12 11/11/11 9/9/9
f 12/12/12 13/13/13 11/11/11
f 14/14/14 11/11/11 13/13/13
f 11/11/11 14/14/14 15/15/15
f 16/16/16 11/11/11 15/15/15
f 19/19/19 18/18/18 17/17/17
f 18/18/18 20/20/20 17/17/17
f 20/20/20 18/18/18 21/21/21
f 22/22/22 21/21/21 18/18/18
f 23/23/23 22/22/22 18/18/18
f 24/24/24 23/23/23 18/18/18
f 27/27/27 26/26/26 25/25/25
f 26/26/26 28/28/28 25/25/25
f 28/28/28 26/26/26 29/29/29
f 30/30/30 28/28/28 29/29/29
f 30/30/30 29/29/29 31/31/31
f 32/32/32 30/30/30 31/31/31
f 32/32/32 31/31/31 33/33/33
f 34/34/34 32/32/32 33/33/33
f 37/37/37 36/36/36 35/35/35
f 38/38/38 37/37/37 35/35/35
f 41/41/41 40/40/40 39/39/39
f 42/42/42 41/41/41 39/39/39
f 45/45/45 44/44/44 43/43/43
f 46/46/46 45/45/45 43/43/43
f 49/49/49 48/48/48 47/47/47
f 50/50/50 49/49/49 47/47/47
f 53/53/53 52/52/52 51/51/51
f 54/54/54 53/53/53 51/51/51
f 57/57/57 56/56/56 55/55/55
f 56/56/56 58/58/58 55/55/55
f 58/58/58 59/59/59 55/55/55
f 62/62/62 61/61/61 60/60/60
f 63/63/63 62/62/62 60/60/60
f 60/60/60 61/61/61 64/64/64
f 65/65/65 63/63/63 60/60/60
f 64/64/64 61/61/61 66/66/66
f 65/65/65 67/67/67 63/63/63
f 64/64/64 66/66/66 68/68/68
f 69/69/69 67/67/67 65/65/65
f 66/66/66 70/70/70 68/68/68
f 70/70/70 67/67/67 69/69/69
f 68/68/68 70/70/70 69/69/69
f 73/73/73 72/72/72 71/71/71
f 74/74/74 73/73/73 71/71/71
f 77/77/77 76/76/76 75/75/75
f 78/78/78 77/77/77 75/75/75
f 81/81/81 80/80/80 79/79/79
f 82/82/82 81/81/81 79/79/79
f 85/85/85 84/84/84 83/83/83
f 86/86/86 85/85/85 83/83/83
f 89/89/89 88/88/88 87/87/87
f 90/90/90 89/89/89 87/87/87
f 93/93/93 92/92/92 91/91/91
f 94/94/94 93/93/93 91/91/91
f 97/97/97 96/96/96 95/95/95
f 98/98/98 97/97/97 95/95/95
f 101/101/101 100/100/100 99/99/99
f 102/102/102 101/101/101 99/99/99
f 105/105/105 104/104/104 103/103/103
f 106/106/106 105/105/105 103/103/103
f 109/109/109 108/108/108 107/107/107
f 110/110/110 109/109/109 107/107/107
f 113/113/113 112/112/112 111/111/111
f 114/114/114 113/113/113 111/111/111
f 117/117/117 116/116/116 115/115/115
f 118/118/118 117/117/117 115/115/115
f 121/121/121 120/120/120 119/119/119
f 122/122/122 121/121/121 119/119/119
f 125/125/125 124/124/124 123/123/123
f 126/126/126 125/125/125 123/123/123
f 129/129/129 128/128/128 127/127/127
f 130/130/130 129/129/129 127/127/127
f 133/133/133 132/132/132 131/131/131
f 134/134/134 133/133/133 131/131/131
f 137/137/137 136/136/136 135/135/135
f 138/138/138 137/137/137 135/135/135
f 141/141/141 140/140/140 139/139/139
f 142/142/142 141/141/141 139/139/139
f 145/145/145 144/144/144 143/143/143
f 146/146/146 145/145/145 143/143/143
f 149/149/149 148/148/148 147/147/147
f 150/150/150 149/149/149 147/147/147
f 153/153/153 152/152/152 151/151/151
f 154/154/154 153/153/153 151/151/151
f 157/157/157 156/156/156 155/155/155
f 158/158/158 157/157/157 155/155/155
f 161/161/161 160/160/160 159/159/159
f 162/162/162 161/161/161 159/159/159
f 165/165/165 164/164/164 163/163/163
f 166/166/166 165/165/165 163/163/163
f 169/169/169 168/168/168 167/167/167
f 170/170/170 169/169/169 167/167/167
f 173/173/173 172/172/172 171/171/171
f 174/174/174 173/173/173 171/171/171
f 177/177/177 176/176/176 175/175/175
f 178/178/178 177/177/177 175/175/175
f 181/181/181 180/180/180 179/179/179
f 182/182/182 181/181/181 179/179/179
f 185/185/185 184/184/184 183/183/183
f 186/186/186 185/185/185 183/183/183
f 189/189/189 188/188/188 187/187/187
f 190/190/190 189/189/189 187/187/187
f 193/193/193 192/192/192 191/191/191
f 194/194/194 193/193/193 191/191/191
f 197/197/197 196/196/196 195/195/195
f 198/198/198 197/197/197 195/195/195
f 201/201/201 200/200/200 199/199/199
f 202/202/202 201/201/201 199/199/199
f 205/205/205 204/204/204 203/203/203
f 206/206/206 205/205/205 203/203/203
f 209/209/209 208/208/208 207/207/207
f 210/210/210 209/209/209 207/207/207
f 213/213/213 212/212/212 211/211/211
f 214/214/214 213/213/213 211/211/211
f 217/217/217 216/216/216 215/215/215
f 218/218/218 217/217/217 215/215/215
f 221/221/221 220/220/220 219/219/219
f 222/222/222 221/221/221 219/219/219
f 225/225/225 224/224/224 223/223/223
f 226/226/226 225/225/225 223/223/223
f 229/229/229 228/228/228 227/227/227
f 230/230/230 229/229/229 227/227/227
f 233/233/233 232/232/232 231/231/231
f 234/234/234 233/233/233 231/231/231
f 237/237/237 236/236/236 235/235/235
f 238/238/238 237/237/237 235/235/235
f 241/241/241 240/240/240 239/239/239
f 242/242/242 241/241/241 239/239/239
f 245/245/245 244/244/244 243/243/243
f 246/246/246 245/245/245 243/243/243
