g _Combined_AutoVis20_0
v -190.75 31 -9.499997
v -190.75 31 -10.5
v -191 31 -10.5
v -191 31 -9.499997
v -190 32 -10.5
v -190 31.75 -10.5
v -190 31.75 -9.499997
v -190 32 -9.499996
v -190.75 31 -9.499997
v -191 31 -9.499997
v -191 32 -9.499997
v -190.6929 31.28543 -9.499997
v -190.5303 31.52875 -9.499997
v -190.287 31.69133 -9.499997
v -190 31.75 -9.499997
v -190 32 -9.499996
v -190.75 31 -10.5
v -191 32 -10.5
v -191 31 -10.5
v -190.6929 31.28543 -10.5
v -190.5303 31.52875 -10.5
v -190.287 31.69133 -10.5
v -190 31.75 -10.5
v -190 32 -10.5
v -190 31.75 -10.5
v -190.287 31.69133 -9.499997
v -190 31.75 -9.499997
v -190.287 31.69133 -10.5
v -190.5303 31.52875 -9.499997
v -190.5303 31.52875 -10.5
v -190.6929 31.28543 -9.499997
v -190.6929 31.28543 -10.5
v -190.75 31 -9.499997
v -190.75 31 -10.5
v -189.75 32 -9.499997
v -189.75 32 -10.5
v -190 32 -10.5
v -190 32 -9.499996
v -189 33 -10.5
v -189 32.75 -10.5
v -189 32.75 -9.499997
v -189 33 -9.499996
v -189.75 32 -9.499997
v -190 32 -9.499996
v -190 33 -9.499997
v -189.6929 32.28543 -9.499997
v -189.5303 32.52875 -9.499997
v -189.287 32.69133 -9.499997
v -189 32.75 -9.499997
v -189 33 -9.499996
v -189.75 32 -10.5
v -190 33 -10.5
v -190 32 -10.5
v -189.6929 32.28543 -10.5
v -189.5303 32.52875 -10.5
v -189.287 32.69133 -10.5
v -189 32.75 -10.5
v -189 33 -10.5
v -189 32.75 -10.5
v -189.287 32.69133 -9.499997
v -189 32.75 -9.499997
v -189.287 32.69133 -10.5
v -189.5303 32.52875 -9.499997
v -189.5303 32.52875 -10.5
v -189.6929 32.28543 -9.499997
v -189.6929 32.28543 -10.5
v -189.75 32 -9.499997
v -189.75 32 -10.5
v -190 33 -10.5
v -189 33 -10.5
v -189 33 -9.499996
v -190 33 -9.499997
v -189 28 -10.5
v -189 27 -10.5
v -189 27 -9.499997
v -189 28 -9.499997
v -190 28 -10.5
v -190 27 -10.5
v -189 27 -10.5
v -189 28 -10.5
v -191 28 -10.5
v -191 27 -10.5
v -190 27 -10.5
v -190 28 -10.5
v -192 28 -10.5
v -192 27 -10.5
v -191 27 -10.5
v -191 28 -10.5
v -189 28 -9.499997
v -189 27 -9.499997
v -190 27 -9.499997
v -190 28 -9.499997
v -190 28 -9.499997
v -190 27 -9.499997
v -191 27 -9.499997
v -191 28 -9.499997
v -191 28 -9.499997
v -191 27 -9.499997
v -192 27 -9.499997
v -192 28 -9.499997
v -191 31 -9.499997
v -191 31 -10.5
v -191 30 -10.5
v -191 30 -9.499997
v -192 28 -9.499997
v -192 28 -10.5
v -192 29 -10.5
v -192 29 -9.499997
v -192 29 -9.499997
v -192 29 -10.5
v -192 30 -10.5
v -192 30 -9.499997
v -191 29 -9.499997
v -191 28 -9.499997
v -192 28 -9.499997
v -192 29 -9.499997
v -191 30 -9.499997
v -191 29 -9.499997
v -192 29 -9.499997
v -192 30 -9.499997
v -191 33 -9.499997
v -191 32 -9.499997
v -192 32 -9.499997
v -192 33 -9.499997
v -192 32 -9.499997
v -192 32 -10.5
v -192 33 -10.5
v -192 33 -9.499997
v -191 32 -9.499997
v -191 31 -9.499997
v -192 31 -9.499997
v -192 32 -9.499997
v -191 29 -9.499997
v -191 29 -10.5
v -191 28 -10.5
v -191 28 -9.499997
v -191 30 -9.499997
v -191 30 -10.5
v -191 29 -10.5
v -191 29 -9.499997
v -192 29 -10.5
v -192 28 -10.5
v -191 28 -10.5
v -191 29 -10.5
v -192 30 -10.5
v -192 29 -10.5
v -191 29 -10.5
v -191 30 -10.5
v -192 31 -10.5
v -192 30 -10.5
v -191 30 -10.5
v -191 31 -10.5
v -192 32 -10.5
v -192 31 -10.5
v -191 31 -10.5
v -191 32 -10.5
v -191 33 -10.5
v -191 32 -10.5
v -190 32 -10.5
v -190 33 -10.5
v -192 33 -10.5
v -191 33 -10.5
v -191 33 -9.499997
v -192 33 -9.499997
v -191 33 -10.5
v -190 33 -10.5
v -190 33 -9.499997
v -191 33 -9.499997
v -191 28 -10.5
v -190 28 -10.5
v -190 28 -9.499997
v -191 28 -9.499997
v -190 28 -10.5
v -189 28 -10.5
v -189 28 -9.499997
v -190 28 -9.499997
v -192 30 -9.499997
v -192 30 -10.5
v -192 31 -10.5
v -192 31 -9.499997
v -192 31 -9.499997
v -192 31 -10.5
v -192 32 -10.5
v -192 32 -9.499997
v -191 31 -9.499997
v -191 30 -9.499997
v -192 30 -9.499997
v -192 31 -9.499997
v -192 33 -10.5
v -192 32 -10.5
v -191 32 -10.5
v -191 33 -10.5
v -190 33 -9.499997
v -190 32 -9.499996
v -191 32 -9.499997
v -191 33 -9.499997
vt 0.4055861 0.3983536
vt 0.4055861 0.4294932
vt 0.3899968 0.4294932
vt 0.3899968 0.3983536
vt 0.4056258 0.3983536
vt 0.3899578 0.3983536
vt 0.3899577 0.4294932
vt 0.4056258 0.4294932
vt 0.3596745 0.3986516
vt 0.3286461 0.3986516
vt 0.328646 0.4606306
vt 0.3667124 0.4163426
vt 0.3868654 0.4314232
vt 0.4170265 0.4414997
vt 0.4526039 0.4450381
vt 0.4526039 0.4606306
vt 0.3596745 0.3986516
vt 0.3286461 0.4606306
vt 0.3286461 0.3986516
vt 0.3667124 0.4163426
vt 0.3868654 0.4314232
vt 0.4170265 0.4414997
vt 0.452604 0.4450381
vt 0.452604 0.4606306
vt 0.4525531 0.4297105
vt 0.4216954 0.4218887
vt 0.4216954 0.4297105
vt 0.4525531 0.4218887
vt 0.4216954 0.4140669
vt 0.4525531 0.4140669
vt 0.4216954 0.4062451
vt 0.4525531 0.4062451
vt 0.4216954 0.3984663
vt 0.4525531 0.3984663
vt 0.4055861 0.3983536
vt 0.4055861 0.4294932
vt 0.3899968 0.4294932
vt 0.3899968 0.3983536
vt 0.4056258 0.3983536
vt 0.3899578 0.3983536
vt 0.3899577 0.4294932
vt 0.4056258 0.4294932
vt 0.3596745 0.3986516
vt 0.3286461 0.3986516
vt 0.328646 0.4606306
vt 0.3667124 0.4163426
vt 0.3868654 0.4314232
vt 0.4170265 0.4414997
vt 0.4526039 0.4450381
vt 0.4526039 0.4606306
vt 0.3596745 0.3986516
vt 0.3286461 0.4606306
vt 0.3286461 0.3986516
vt 0.3667124 0.4163426
vt 0.3868654 0.4314232
vt 0.4170265 0.4414997
vt 0.452604 0.4450381
vt 0.452604 0.4606306
vt 0.4525531 0.4297105
vt 0.4216954 0.4218887
vt 0.4216954 0.4297105
vt 0.4525531 0.4218887
vt 0.4216954 0.4140669
vt 0.4525531 0.4140669
vt 0.4216954 0.4062451
vt 0.4525531 0.4062451
vt 0.4216954 0.3984663
vt 0.4525531 0.3984663
vt 0.890625 0.7578125
vt 0.890625 0.6953125
vt 0.765625 0.6953125
vt 0.765625 0.7578125
vt 0.453125 0.4609375
vt 0.453125 0.3984375
vt 0.328125 0.3984375
vt 0.328125 0.4609375
vt 0.453125 0.4609375
vt 0.453125 0.3984375
vt 0.328125 0.3984375
vt 0.328125 0.4609375
vt 0.453125 0.4609375
vt 0.453125 0.3984375
vt 0.328125 0.3984375
vt 0.328125 0.4609375
vt 0.453125 0.4609375
vt 0.453125 0.3984375
vt 0.328125 0.3984375
vt 0.328125 0.4609375
vt 0.453125 0.4609375
vt 0.453125 0.3984375
vt 0.328125 0.3984375
vt 0.328125 0.4609375
vt 0.453125 0.4609375
vt 0.453125 0.3984375
vt 0.328125 0.3984375
vt 0.328125 0.4609375
vt 0.453125 0.4609375
vt 0.453125 0.3984375
vt 0.328125 0.3984375
vt 0.328125 0.4609375
vt 0.453125 0.4609375
vt 0.453125 0.3984375
vt 0.328125 0.3984375
vt 0.328125 0.4609375
vt 0.453125 0.4609375
vt 0.453125 0.3984375
vt 0.328125 0.3984375
vt 0.328125 0.4609375
vt 0.453125 0.4609375
vt 0.453125 0.3984375
vt 0.328125 0.3984375
vt 0.328125 0.4609375
vt 0.453125 0.4609375
vt 0.453125 0.3984375
vt 0.328125 0.3984375
vt 0.328125 0.4609375
vt 0.453125 0.4609375
vt 0.453125 0.3984375
vt 0.328125 0.3984375
vt 0.328125 0.4609375
vt 0.453125 0.4609375
vt 0.453125 0.3984375
vt 0.328125 0.3984375
vt 0.328125 0.4609375
vt 0.453125 0.4609375
vt 0.453125 0.3984375
vt 0.328125 0.3984375
vt 0.328125 0.4609375
vt 0.453125 0.4609375
vt 0.453125 0.3984375
vt 0.328125 0.3984375
vt 0.328125 0.4609375
vt 0.453125 0.4609375
vt 0.453125 0.3984375
vt 0.328125 0.3984375
vt 0.328125 0.4609375
vt 0.453125 0.4609375
vt 0.453125 0.3984375
vt 0.328125 0.3984375
vt 0.328125 0.4609375
vt 0.453125 0.4609375
vt 0.453125 0.3984375
vt 0.328125 0.3984375
vt 0.328125 0.4609375
vt 0.453125 0.4609375
vt 0.453125 0.3984375
vt 0.328125 0.3984375
vt 0.328125 0.4609375
vt 0.453125 0.4609375
vt 0.453125 0.3984375
vt 0.328125 0.3984375
vt 0.328125 0.4609375
vt 0.453125 0.4609375
vt 0.453125 0.3984375
vt 0.328125 0.3984375
vt 0.328125 0.4609375
vt 0.453125 0.4609375
vt 0.453125 0.3984375
vt 0.328125 0.3984375
vt 0.328125 0.4609375
vt 0.890625 0.7578125
vt 0.890625 0.6953125
vt 0.765625 0.6953125
vt 0.765625 0.7578125
vt 0.890625 0.7578125
vt 0.890625 0.6953125
vt 0.765625 0.6953125
vt 0.765625 0.7578125
vt 0.890625 0.7578125
vt 0.890625 0.6953125
vt 0.765625 0.6953125
vt 0.765625 0.7578125
vt 0.890625 0.7578125
vt 0.890625 0.6953125
vt 0.765625 0.6953125
vt 0.765625 0.7578125
vt 0.453125 0.4609375
vt 0.453125 0.3984375
vt 0.328125 0.3984375
vt 0.328125 0.4609375
vt 0.453125 0.4609375
vt 0.453125 0.3984375
vt 0.328125 0.3984375
vt 0.328125 0.4609375
vt 0.453125 0.4609375
vt 0.453125 0.3984375
vt 0.328125 0.3984375
vt 0.328125 0.4609375
vt 0.453125 0.4609375
vt 0.453125 0.3984375
vt 0.328125 0.3984375
vt 0.328125 0.4609375
vt 0.453125 0.4609375
vt 0.453125 0.3984375
vt 0.328125 0.3984375
vt 0.328125 0.4609375
vn 0 -1 1.192093E-07
vn 0 -1 1.192093E-07
vn 0 -1 1.192093E-07
vn 0 -1 1.192093E-07
vn 1 0 0
vn 1 0 0
vn 1 0 0
vn 1 0 0
vn 9.948538E-15 1.192092E-07 1
vn 9.948538E-15 1.192092E-07 1
vn 9.948538E-15 1.192092E-07 1
vn 9.948538E-15 1.192092E-07 1
vn 9.948538E-15 1.192092E-07 1
vn 9.948538E-15 1.192092E-07 1
vn 9.948538E-15 1.192092E-07 1
vn 9.948538E-15 1.192092E-07 1
vn -9.948538E-15 -1.192092E-07 -1
vn -9.948538E-15 -1.192092E-07 -1
vn -9.948538E-15 -1.192092E-07 -1
vn -9.948538E-15 -1.192092E-07 -1
vn -9.948538E-15 -1.192092E-07 -1
vn -9.948538E-15 -1.192092E-07 -1
vn -9.948538E-15 -1.192092E-07 -1
vn -9.948538E-15 -1.192092E-07 -1
vn 0.2002685 -0.979741 1.167943E-07
vn 0.385122 -0.9228657 1.100142E-07
vn 0.2002685 -0.979741 1.167943E-07
vn 0.3851221 -0.9228656 1.100142E-07
vn 0.7071065 -0.707107 8.429375E-08
vn 0.7071066 -0.7071069 8.429375E-08
vn 0.923677 -0.3831721 4.567769E-08
vn 0.923677 -0.3831721 4.567769E-08
vn 0.9805784 -0.1961277 2.338025E-08
vn 0.9805784 -0.1961277 2.338025E-08
vn 0 -1 1.192093E-07
vn 0 -1 1.192093E-07
vn 0 -1 1.192093E-07
vn 0 -1 1.192093E-07
vn 1 0 0
vn 1 0 0
vn 1 0 0
vn 1 0 0
vn 9.948538E-15 1.192092E-07 1
vn 9.948538E-15 1.192092E-07 1
vn 9.948538E-15 1.192092E-07 1
vn 9.948538E-15 1.192092E-07 1
vn 9.948538E-15 1.192092E-07 1
vn 9.948538E-15 1.192092E-07 1
vn 9.948538E-15 1.192092E-07 1
vn 9.948538E-15 1.192092E-07 1
vn -9.948538E-15 -1.192092E-07 -1
vn -9.948538E-15 -1.192092E-07 -1
vn -9.948538E-15 -1.192092E-07 -1
vn -9.948538E-15 -1.192092E-07 -1
vn -9.948538E-15 -1.192092E-07 -1
vn -9.948538E-15 -1.192092E-07 -1
vn -9.948538E-15 -1.192092E-07 -1
vn -9.948538E-15 -1.192092E-07 -1
vn 0.2002685 -0.979741 1.167943E-07
vn 0.385122 -0.9228657 1.100142E-07
vn 0.2002685 -0.979741 1.167943E-07
vn 0.3851221 -0.9228656 1.100142E-07
vn 0.7071065 -0.707107 8.429375E-08
vn 0.7071066 -0.7071069 8.429375E-08
vn 0.923677 -0.3831721 4.567769E-08
vn 0.923677 -0.3831721 4.567769E-08
vn 0.9805784 -0.1961277 2.338025E-08
vn 0.9805784 -0.1961277 2.338025E-08
vn 0 1 0
vn 0 1 0
vn 0 1 0
vn 0 1 0
vn 1 0 -1.192093E-07
vn 1 0 -1.192093E-07
vn 1 0 -1.192093E-07
vn 1 0 -1.192093E-07
vn 8.742276E-08 0 -1
vn 8.742276E-08 0 -1
vn 8.742276E-08 0 -1
vn 8.742276E-08 0 -1
vn 8.742276E-08 0 -1
vn 8.742276E-08 0 -1
vn 8.742276E-08 0 -1
vn 8.742276E-08 0 -1
vn 8.742276E-08 0 -1
vn 8.742276E-08 0 -1
vn 8.742276E-08 0 -1
vn 8.742276E-08 0 -1
vn 0 0 1
vn 0 0 1
vn 0 0 1
vn 0 0 1
vn 0 0 1
vn 0 0 1
vn 0 0 1
vn 0 0 1
vn 0 0 1
vn 0 0 1
vn 0 0 1
vn 0 0 1
vn 1 0 0
vn 1 0 0
vn 1 0 0
vn 1 0 0
vn -1 0 0
vn -1 0 0
vn -1 0 0
vn -1 0 0
vn -1 0 0
vn -1 0 0
vn -1 0 0
vn -1 0 0
vn 0 0 1
vn 0 0 1
vn 0 0 1
vn 0 0 1
vn 0 0 1
vn 0 0 1
vn 0 0 1
vn 0 0 1
vn 0 0 1
vn 0 0 1
vn 0 0 1
vn 0 0 1
vn -1 0 0
vn -1 0 0
vn -1 0 0
vn -1 0 0
vn 0 0 1
vn 0 0 1
vn 0 0 1
vn 0 0 1
vn 1 0 0
vn 1 0 0
vn 1 0 0
vn 1 0 0
vn 1 0 0
vn 1 0 0
vn 1 0 0
vn 1 0 0
vn 8.742276E-08 0 -1
vn 8.742276E-08 0 -1
vn 8.742276E-08 0 -1
vn 8.742276E-08 0 -1
vn 8.742276E-08 0 -1
vn 8.742276E-08 0 -1
vn 8.742276E-08 0 -1
vn 8.742276E-08 0 -1
vn 8.742276E-08 0 -1
vn 8.742276E-08 0 -1
vn 8.742276E-08 0 -1
vn 8.742276E-08 0 -1
vn 8.742276E-08 0 -1
vn 8.742276E-08 0 -1
vn 8.742276E-08 0 -1
vn 8.742276E-08 0 -1
vn 8.742276E-08 0 -1
vn 8.742276E-08 0 -1
vn 8.742276E-08 0 -1
vn 8.742276E-08 0 -1
vn 0 1 0
vn 0 1 0
vn 0 1 0
vn 0 1 0
vn 0 1 0
vn 0 1 0
vn 0 1 0
vn 0 1 0
vn 0 1 0
vn 0 1 0
vn 0 1 0
vn 0 1 0
vn 0 1 0
vn 0 1 0
vn 0 1 0
vn 0 1 0
vn -1 0 0
vn -1 0 0
vn -1 0 0
vn -1 0 0
vn -1 0 0
vn -1 0 0
vn -1 0 0
vn -1 0 0
vn 0 0 1
vn 0 0 1
vn 0 0 1
vn 0 0 1
vn 8.742276E-08 0 -1
vn 8.742276E-08 0 -1
vn 8.742276E-08 0 -1
vn 8.742276E-08 0 -1
vn 0 0 1
vn 0 0 1
vn 0 0 1
vn 0 0 1
g _Combined_AutoVis20_0_0
f 3/3/3 2/2/2 1/1/1
f 4/4/4 3/3/3 1/1/1
f 7/7/7 6/6/6 5/5/5
f 8/8/8 7/7/7 5/5/5
f 11/11/11 10/10/10 9/9/9
f 12/12/12 11/11/11 9/9/9
f 12/12/12 13/13/13 11/11/11
f 14/14/14 11/11/11 13/13/13
f 11/11/11 14/14/14 15/15/15
f 16/16/16 11/11/11 15/15/15
f 19/19/19 18/18/18 17/17/17
f 18/18/18 20/20/20 17/17/17
f 20/20/20 18/18/18 21/21/21
f 22/22/22 21/21/21 18/18/18
f 23/23/23 22/22/22 18/18/18
f 24/24/24 23/23/23 18/18/18
f 27/27/27 26/26/26 25/25/25
f 26/26/26 28/28/28 25/25/25
f 28/28/28 26/26/26 29/29/29
f 30/30/30 28/28/28 29/29/29
f 30/30/30 29/29/29 31/31/31
f 32/32/32 30/30/30 31/31/31
f 32/32/32 31/31/31 33/33/33
f 34/34/34 32/32/32 33/33/33
f 37/37/37 36/36/36 35/35/35
f 38/38/38 37/37/37 35/35/35
f 41/41/41 40/40/40 39/39/39
f 42/42/42 41/41/41 39/39/39
f 45/45/45 44/44/44 43/43/43
f 46/46/46 45/45/45 43/43/43
f 46/46/46 47/47/47 45/45/45
f 48/48/48 45/45/45 47/47/47
f 45/45/45 48/48/48 49/49/49
f 50/50/50 45/45/45 49/49/49
f 53/53/53 52/52/52 51/51/51
f 52/52/52 54/54/54 51/51/51
f 54/54/54 52/52/52 55/55/55
f 56/56/56 55/55/55 52/52/52
f 57/57/57 56/56/56 52/52/52
f 58/58/58 57/57/57 52/52/52
f 61/61/61 60/60/60 59/59/59
f 60/60/60 62/62/62 59/59/59
f 62/62/62 60/60/60 63/63/63
f 64/64/64 62/62/62 63/63/63
f 64/64/64 63/63/63 65/65/65
f 66/66/66 64/64/64 65/65/65
f 66/66/66 65/65/65 67/67/67
f 68/68/68 66/66/66 67/67/67
f 71/71/71 70/70/70 69/69/69
f 72/72/72 71/71/71 69/69/69
f 75/75/75 74/74/74 73/73/73
f 76/76/76 75/75/75 73/73/73
f 79/79/79 78/78/78 77/77/77
f 80/80/80 79/79/79 77/77/77
f 83/83/83 82/82/82 81/81/81
f 84/84/84 83/83/83 81/81/81
f 87/87/87 86/86/86 85/85/85
f 88/88/88 87/87/87 85/85/85
f 91/91/91 90/90/90 89/89/89
f 92/92/92 91/91/91 89/89/89
f 95/95/95 94/94/94 93/93/93
f 96/96/96 95/95/95 93/93/93
f 99/99/99 98/98/98 97/97/97
f 100/100/100 99/99/99 97/97/97
f 103/103/103 102/102/102 101/101/101
f 104/104/104 103/103/103 101/101/101
f 107/107/107 106/106/106 105/105/105
f 108/108/108 107/107/107 105/105/105
f 111/111/111 110/110/110 109/109/109
f 112/112/112 111/111/111 109/109/109
f 115/115/115 114/114/114 113/113/113
f 116/116/116 115/115/115 113/113/113
f 119/119/119 118/118/118 117/117/117
f 120/120/120 119/119/119 117/117/117
f 123/123/123 122/122/122 121/121/121
f 124/124/124 123/123/123 121/121/121
f 127/127/127 126/126/126 125/125/125
f 128/128/128 127/127/127 125/125/125
f 131/131/131 130/130/130 129/129/129
f 132/132/132 131/131/131 129/129/129
f 135/135/135 134/134/134 133/133/133
f 136/136/136 135/135/135 133/133/133
f 139/139/139 138/138/138 137/137/137
f 140/140/140 139/139/139 137/137/137
f 143/143/143 142/142/142 141/141/141
f 144/144/144 143/143/143 141/141/141
f 147/147/147 146/146/146 145/145/145
f 148/148/148 147/147/147 145/145/145
f 151/151/151 150/150/150 149/149/149
f 152/152/152 151/151/151 149/149/149
f 155/155/155 154/154/154 153/153/153
f 156/156/156 155/155/155 153/153/153
f 159/159/159 158/158/158 157/157/157
f 160/160/160 159/159/159 157/157/157
f 163/163/163 162/162/162 161/161/161
f 164/164/164 163/163/163 161/161/161
f 167/167/167 166/166/166 165/165/165
f 168/168/168 167/167/167 165/165/165
f 171/171/171 170/170/170 169/169/169
f 172/172/172 171/171/171 169/169/169
f 175/175/175 174/174/174 173/173/173
f 176/176/176 175/175/175 173/173/173
f 179/179/179 178/178/178 177/177/177
f 180/180/180 179/179/179 177/177/177
f 183/183/183 182/182/182 181/181/181
f 184/184/184 183/183/183 181/181/181
f 187/187/187 186/186/186 185/185/185
f 188/188/188 187/187/187 185/185/185
f 191/191/191 190/190/190 189/189/189
f 192/192/192 191/191/191 189/189/189
f 195/195/195 194/194/194 193/193/193
f 196/196/196 195/195/195 193/193/193
