g _Combined_Vis0_0
v -0.4993952 -1.375212 -0.2501857
v -0.4993959 -1.500212 -0.1251856
v -0.499395 -1.500212 -0.5001858
v -0.4993948 -1.250212 -0.2501857
v -0.4993952 -1.375212 -0.2501857
v -0.4993945 -1.250212 -0.3751858
v -0.4993922 -0.500212 -0.3751858
v -0.4993919 -0.500212 -0.5001858
v -0.4993888 0.4997882 -0.5001858
v -0.4993891 0.4997882 -0.3751858
v -0.4993941 -0.500212 0.3748147
v -0.499391 0.4997882 0.3748147
v -0.4993913 0.4997882 0.4998148
v -0.4993944 -0.500212 0.4998148
v -0.4993975 -1.500212 0.4998148
v -0.4993964 -1.250212 0.3748147
v -0.4993961 -1.250212 0.2498146
v -0.4993964 -1.250212 0.3748147
v -0.4993965 -1.375212 0.2498146
v -0.4993966 -1.500212 0.1248146
v 0.4381035 -1.500215 0.3123173
v 0.4381043 -1.500215 -0.0001828383
v 0.4381066 -0.5002149 0.3123173
v 0.4381051 -1.500215 -0.312683
v 0.4381082 -0.5002149 -0.312683
v 0.4381111 0.4372853 -0.312683
v 0.4381095 0.4372853 0.3123173
v 0.4381035 -1.500215 0.3123173
v -0.3743972 -1.500213 0.374815
v -0.3743952 -1.500213 -0.3751854
v 0.4381051 -1.500215 -0.312683
v 0.4381111 0.4372853 -0.312683
v -0.3743909 0.4997878 0.374815
v 0.4381095 0.4372853 0.3123173
v -0.374389 0.4997878 -0.3751854
v -0.499391 0.4997882 0.3748147
v -0.4993891 0.4997882 -0.3751858
v -0.4993941 -0.500212 0.3748147
v -0.3743909 0.4997878 0.374815
v -0.499391 0.4997882 0.3748147
v -0.374394 -0.5002124 0.374815
v -0.3743964 -1.250213 0.374815
v -0.4993964 -1.250212 0.3748147
v -0.374394 -0.5002124 0.374815
v -0.3743972 -1.500213 0.374815
v 0.4381035 -1.500215 0.3123173
v 0.4381066 -0.5002149 0.3123173
v -0.4993922 -0.500212 -0.3751858
v -0.3743944 -1.250213 -0.3751854
v -0.4993945 -1.250212 -0.3751858
v -0.3743921 -0.5002124 -0.3751854
v -0.374389 0.4997878 -0.3751854
v -0.4993891 0.4997882 -0.3751858
v -0.3743909 0.4997878 0.374815
v -0.374394 -0.5002124 0.374815
v 0.4381066 -0.5002149 0.3123173
v 0.4381095 0.4372853 0.3123173
v -0.3743921 -0.5002124 -0.3751854
v -0.374389 0.4997878 -0.3751854
v 0.4381111 0.4372853 -0.312683
v 0.4381082 -0.5002149 -0.312683
v -0.3743952 -1.500213 -0.3751854
v 0.4381051 -1.500215 -0.312683
v -0.3743944 -1.250213 -0.3751854
v -0.3743948 -1.250213 -0.2501853
v -0.4993948 -1.250212 -0.2501857
v -0.4993945 -1.250212 -0.3751858
v -0.3743948 -1.250213 -0.2501853
v -0.3743952 -1.375213 -0.2501853
v -0.4993952 -1.375212 -0.2501857
v -0.4993948 -1.250212 -0.2501857
v -0.4993964 -1.250212 0.3748147
v -0.4993961 -1.250212 0.2498146
v -0.3743961 -1.250213 0.249815
v -0.3743964 -1.250213 0.374815
v -0.4993961 -1.250212 0.2498146
v -0.4993965 -1.375212 0.2498146
v -0.3743964 -1.375213 0.249815
v -0.3743961 -1.250213 0.249815
v -0.4993965 -1.375212 0.2498146
v -0.4993966 -1.500212 0.1248146
v -0.3743965 -1.500213 0.1248149
v -0.3743964 -1.375213 0.249815
v -0.4993959 -1.500212 -0.1251856
v -0.3743959 -1.500213 -0.1251852
v -0.3743965 -1.500213 0.1248149
v -0.4993966 -1.500212 0.1248146
v -0.3743952 -1.375213 -0.2501853
v -0.3743959 -1.500213 -0.1251852
v -0.4993959 -1.500212 -0.1251856
v -0.4993952 -1.375212 -0.2501857
v 0.5006044 -1.500213 -0.5001962
v 0.5006024 -0.5002134 -0.5001962
v -0.4993919 -0.500212 -0.5001858
v -0.499395 -1.500212 -0.5001858
v -0.4993919 -0.500212 -0.5001858
v 0.5006024 -0.5002134 -0.5001962
v 0.500562 0.4998402 -0.5002044
v -0.4993888 0.4997882 -0.5001858
v 0.5006086 -1.500214 0.4998212
v 0.5006061 -0.5002132 0.4998194
v 0.5006024 -0.5002134 -0.5001962
v 0.5006044 -1.500213 -0.5001962
v 0.5006024 -0.5002134 -0.5001962
v 0.5006061 -0.5002132 0.4998194
v 0.5006146 0.4998555 0.499826
v 0.500562 0.4998402 -0.5002044
v 0.5006061 -0.5002132 0.4998194
v -0.4993944 -0.500212 0.4998148
v -0.4993913 0.4997882 0.4998148
v 0.5006146 0.4998555 0.499826
v -0.4993975 -1.500212 0.4998148
v -0.4993944 -0.500212 0.4998148
v 0.5006061 -0.5002132 0.4998194
v 0.5006086 -1.500214 0.4998212
v 0.500562 0.4998402 -0.5002044
v 0.5006146 0.4998555 0.499826
v 0.5006073 1.499787 0.4998208
v 0.5006073 1.499787 -0.5001796
v 0.5006146 0.4998555 0.499826
v -0.4993913 0.4997882 0.4998148
v -0.4993782 1.499787 0.4998333
v 0.5006073 1.499787 0.4998208
v -0.4993913 0.4997882 0.4998148
v -0.4993888 0.4997882 -0.5001858
v -0.4994149 1.499787 -0.5001907
v -0.4993782 1.499787 0.4998333
v -0.4993888 0.4997882 -0.5001858
v 0.500562 0.4998402 -0.5002044
v 0.5006073 1.499787 -0.5001796
v -0.4994149 1.499787 -0.5001907
v 0.3756103 1.499786 -0.250185
v 0.3756101 1.374786 -0.2501847
v 0.25061 1.374786 -0.3751847
v 0.2506102 1.499786 -0.375185
v -0.3743899 1.499788 0.2498155
v -0.37439 1.374788 0.2498158
v -0.2493899 1.374788 0.3748158
v -0.2493898 1.499788 0.3748156
v 0.2506104 1.499787 0.3748154
v 0.2506103 1.374787 0.3748156
v 0.3756103 1.374787 0.2498156
v 0.3756104 1.499787 0.2498153
v 0.3756104 1.499787 0.2498153
v 0.3756103 1.374787 0.2498156
v 0.3756101 1.374786 -0.2501847
v 0.3756103 1.499786 -0.250185
v -0.2493901 1.499786 -0.3751848
v -0.2493902 1.374786 -0.3751845
v -0.3743902 1.374786 -0.2501844
v -0.3743901 1.499786 -0.2501847
v -0.2493898 1.499788 0.3748156
v -0.2493899 1.374788 0.3748158
v 0.2506103 1.374787 0.3748156
v 0.2506104 1.499787 0.3748154
v -0.3743901 1.499786 -0.2501847
v -0.3743902 1.374786 -0.2501844
v -0.37439 1.374788 0.2498158
v -0.3743899 1.499788 0.2498155
v 0.2506102 1.499786 -0.375185
v 0.25061 1.374786 -0.3751847
v -0.2493902 1.374786 -0.3751845
v -0.2493901 1.499786 -0.3751848
v 0.3756104 1.499787 0.2498153
v 0.5006073 1.499787 0.4998208
v 0.2506104 1.499787 0.3748154
v 0.3756103 1.499786 -0.250185
v -0.4993782 1.499787 0.4998333
v -0.2493898 1.499788 0.3748156
v -0.3743899 1.499788 0.2498155
v 0.5006073 1.499787 -0.5001796
v 0.2506102 1.499786 -0.375185
v -0.2493901 1.499786 -0.3751848
v -0.4994149 1.499787 -0.5001907
v -0.3743901 1.499786 -0.2501847
vt 0.4375 0.390625
vt 0.421875 0.40625
vt 0.4609375 0.40625
vt 0.4375 0.3710938
vt 0.4375 0.390625
vt 0.453125 0.3710938
vt 0.453125 0.28125
vt 0.4609375 0.28125
vt 0.4609375 0.15625
vt 0.453125 0.15625
vt 0.359375 0.28125
vt 0.359375 0.15625
vt 0.34375 0.15625
vt 0.34375 0.28125
vt 0.34375 0.40625
vt 0.359375 0.3710938
vt 0.375 0.3710938
vt 0.359375 0.3710938
vt 0.375 0.390625
vt 0.390625 0.40625
vt 0.5390625 0.2734375
vt 0.5625 0.2734375
vt 0.5390625 0.2148438
vt 0.5859375 0.2734375
vt 0.5859375 0.2148438
vt 0.5859375 0.1601563
vt 0.5390625 0.1601563
vt 0.5859375 0.2890625
vt 0.5 0.2890625
vt 0.5 0.4023438
vt 0.5859375 0.4023438
vt 0.4335938 0.1601563
vt 0.3789063 0.2734375
vt 0.3789063 0.1601563
vt 0.4335938 0.2734375
vt 0.3789063 0.2773438
vt 0.4335938 0.2773438
vt 0.4570313 0.34375
vt 0.4648438 0.2851563
vt 0.4570313 0.2851563
vt 0.4648438 0.34375
vt 0.4648438 0.3710938
vt 0.4570313 0.3710938
vt 0.5 0.2890625
vt 0.5 0.3476563
vt 0.5859375 0.3476563
vt 0.5859375 0.2890625
vt 0.4570313 0.34375
vt 0.4648438 0.3710938
vt 0.4570313 0.3710938
vt 0.4648438 0.34375
vt 0.4648438 0.2851563
vt 0.4570313 0.2851563
vt 0.5 0.3476563
vt 0.5 0.4023438
vt 0.5859375 0.4023438
vt 0.5859375 0.3476563
vt 0.5 0.3476563
vt 0.5 0.2890625
vt 0.5859375 0.2890625
vt 0.5859375 0.3476563
vt 0.5 0.4023438
vt 0.5859375 0.4023438
vt 0.4648438 0.3710938
vt 0.4648438 0.3710938
vt 0.4570313 0.3710938
vt 0.4570313 0.3710938
vt 0.4648438 0.3710938
vt 0.4648438 0.3867188
vt 0.4570313 0.3867188
vt 0.4570313 0.3710938
vt 0.4570313 0.3710938
vt 0.4570313 0.3710938
vt 0.4648438 0.3710938
vt 0.4648438 0.3710938
vt 0.4570313 0.3710938
vt 0.4570313 0.3867188
vt 0.4648438 0.3867188
vt 0.4648438 0.3710938
vt 0.4570313 0.3867188
vt 0.4570313 0.3867188
vt 0.4648438 0.3867188
vt 0.4648438 0.3867188
vt 0.4570313 0.4023438
vt 0.4648438 0.4023438
vt 0.4648438 0.4023438
vt 0.4570313 0.4023438
vt 0.4648438 0.3867188
vt 0.4648438 0.3867188
vt 0.4570313 0.3867188
vt 0.4570313 0.3867188
vt 0.90625 0.59375
vt 0.90625 0.46875
vt 0.78125 0.46875
vt 0.78125 0.59375
vt 0.78125 0.21875
vt 0.78125 0.09375
vt 0.65625 0.09375
vt 0.65625 0.21875
vt 0.90625 0.59375
vt 0.90625 0.46875
vt 0.78125 0.46875
vt 0.78125 0.59375
vt 0.78125 0.21875
vt 0.78125 0.09375
vt 0.65625 0.09375
vt 0.65625 0.21875
vt 0.78125 0.21875
vt 0.78125 0.09375
vt 0.65625 0.09375
vt 0.65625 0.21875
vt 0.90625 0.59375
vt 0.90625 0.46875
vt 0.78125 0.46875
vt 0.78125 0.59375
vt 0.90625 0.78125
vt 0.90625 0.65625
vt 0.78125 0.65625
vt 0.78125 0.78125
vt 0.90625 0.78125
vt 0.90625 0.65625
vt 0.78125 0.65625
vt 0.78125 0.78125
vt 0.90625 0.78125
vt 0.90625 0.65625
vt 0.78125 0.65625
vt 0.78125 0.78125
vt 0.90625 0.78125
vt 0.90625 0.65625
vt 0.78125 0.65625
vt 0.78125 0.78125
vt 0.7384375 0.1608794
vt 0.7384375 0.1510356
vt 0.7482812 0.1510356
vt 0.7482812 0.1608794
vt 0.6990625 0.1608794
vt 0.6990625 0.1510356
vt 0.6892188 0.1510356
vt 0.6892188 0.1608794
vt 0.6892188 0.1608794
vt 0.6892188 0.1510356
vt 0.6990625 0.1510356
vt 0.6990625 0.1608794
vt 0.6990625 0.1608794
vt 0.6990625 0.1510356
vt 0.7384375 0.1510356
vt 0.7384375 0.1608794
vt 0.7482812 0.1608794
vt 0.7482812 0.1510356
vt 0.7384375 0.1510356
vt 0.7384375 0.1608794
vt 0.7384375 0.1608794
vt 0.7384375 0.1510356
vt 0.6990625 0.1510356
vt 0.6990625 0.1608794
vt 0.7384375 0.1608794
vt 0.7384375 0.1510356
vt 0.6990625 0.1510356
vt 0.6990625 0.1608794
vt 0.6990625 0.1608794
vt 0.6990625 0.1510356
vt 0.7384375 0.1510356
vt 0.7384375 0.1608794
vt 0.6875 0.109375
vt 0.65625 0.09375
vt 0.671875 0.125
vt 0.75 0.109375
vt 0.65625 0.21875
vt 0.671875 0.1875
vt 0.6875 0.203125
vt 0.78125 0.09375
vt 0.765625 0.125
vt 0.765625 0.1875
vt 0.78125 0.21875
vt 0.75 0.203125
vn -1 3.118865E-06 -2.861022E-06
vn -1 3.118865E-06 -2.861022E-06
vn -1 3.118865E-06 -2.861022E-06
vn -1 3.118865E-06 -2.861022E-06
vn -1 3.118865E-06 -2.861022E-06
vn -1 3.118865E-06 -2.861022E-06
vn -1 3.118865E-06 -2.861022E-06
vn -1 3.118865E-06 -2.861022E-06
vn -1 3.118865E-06 -2.861022E-06
vn -1 3.118865E-06 -2.861022E-06
vn -1 3.118865E-06 -2.861022E-06
vn -1 3.118865E-06 -2.861022E-06
vn -1 3.118865E-06 -2.861022E-06
vn -1 3.118865E-06 -2.861022E-06
vn -1 3.118865E-06 -2.861022E-06
vn -1 3.118865E-06 -2.861022E-06
vn -1 3.118865E-06 -2.861022E-06
vn -1 3.118865E-06 -2.861022E-06
vn -1 3.118865E-06 -2.861022E-06
vn -1 3.118865E-06 -2.861022E-06
vn -1 3.118865E-06 -2.861022E-06
vn -1 3.118865E-06 -2.861022E-06
vn -1 3.118865E-06 -2.861022E-06
vn -1 3.118865E-06 -2.861022E-06
vn -1 3.118865E-06 -2.861022E-06
vn -1 3.118865E-06 -2.861022E-06
vn -1 3.118865E-06 -2.861022E-06
vn 3.118868E-06 1 4.219282E-12
vn 3.118868E-06 1 4.219282E-12
vn 3.118868E-06 1 4.219282E-12
vn 3.118868E-06 1 4.219282E-12
vn -0.07669728 -0.9970545 -2.194279E-07
vn -0.03741887 -0.9992996 -1.070515E-07
vn -0.07669728 -0.9970545 -2.194279E-07
vn -0.03741887 -0.9992996 -1.070515E-07
vn -3.118868E-06 -1 -4.219282E-12
vn -3.118868E-06 -1 -4.219282E-12
vn 2.562999E-06 -4.222939E-12 -1
vn -0.03741319 1.166905E-07 -0.9992999
vn 2.562999E-06 -4.222939E-12 -1
vn -0.03836023 1.196442E-07 -0.999264
vn 2.562999E-06 -4.222939E-12 -1
vn 2.562999E-06 -4.222939E-12 -1
vn -0.03836023 1.196442E-07 -0.999264
vn -0.07669161 2.391945E-07 -0.9970548
vn -0.07669161 2.391945E-07 -0.9970548
vn -0.07669161 2.391945E-07 -0.9970548
vn -2.562999E-06 4.222939E-12 1
vn -2.562999E-06 4.222939E-12 1
vn -2.562999E-06 4.222939E-12 1
vn -0.03836535 1.196526E-07 0.9992638
vn -0.03741832 1.166989E-07 0.9992997
vn -2.562999E-06 4.222939E-12 1
vn -0.03741319 1.166905E-07 -0.9992999
vn -0.03836023 1.196442E-07 -0.999264
vn -0.07669161 2.391945E-07 -0.9970548
vn -0.07669161 2.391945E-07 -0.9970548
vn -0.03836535 1.196526E-07 0.9992638
vn -0.03741832 1.166989E-07 0.9992997
vn -0.07669672 2.39203E-07 0.9970545
vn -0.07669672 2.39203E-07 0.9970545
vn -0.07669672 2.39203E-07 0.9970545
vn -0.07669672 2.39203E-07 0.9970545
vn 3.118868E-06 1 4.219282E-12
vn 3.118868E-06 1 4.219282E-12
vn 3.118868E-06 1 4.219282E-12
vn 3.118868E-06 1 4.219282E-12
vn -2.562999E-06 4.222939E-12 1
vn -2.562999E-06 4.222939E-12 1
vn -2.562999E-06 4.222939E-12 1
vn -2.562999E-06 4.222939E-12 1
vn 3.118868E-06 1 4.219282E-12
vn 3.118868E-06 1 4.219282E-12
vn 3.118868E-06 1 4.219282E-12
vn 3.118868E-06 1 4.219282E-12
vn 2.562999E-06 -4.222939E-12 -1
vn 2.562999E-06 -4.222939E-12 -1
vn 2.562999E-06 -4.222939E-12 -1
vn 2.562999E-06 -4.222939E-12 -1
vn 4.017686E-06 0.7071068 -0.7071068
vn 4.017686E-06 0.7071068 -0.7071068
vn 4.017686E-06 0.7071068 -0.7071068
vn 4.017686E-06 0.7071068 -0.7071068
vn 3.118868E-06 1 4.219282E-12
vn 3.118868E-06 1 4.219282E-12
vn 3.118868E-06 1 4.219282E-12
vn 3.118868E-06 1 4.219282E-12
vn 3.930589E-07 0.7071068 0.7071068
vn 3.930589E-07 0.7071068 0.7071068
vn 3.930589E-07 0.7071068 0.7071068
vn 3.930589E-07 0.7071068 0.7071068
vn 7.7844E-07 5.344934E-08 -1
vn 7.7844E-07 5.344934E-08 -1
vn 7.7844E-07 5.344934E-08 -1
vn 7.7844E-07 5.344934E-08 -1
vn 7.152555E-07 3.100628E-08 -1
vn 7.152555E-07 3.100628E-08 -1
vn 7.152555E-07 3.100628E-08 -1
vn 7.152555E-07 3.100628E-08 -1
vn 1 2.507736E-06 -1.192093E-07
vn 1 2.507736E-06 -1.192093E-07
vn 1 2.507736E-06 -1.192093E-07
vn 1 2.507736E-06 -1.192093E-07
vn 1 3.388109E-14 7.152555E-07
vn 1 3.388109E-14 7.152555E-07
vn 1 3.388109E-14 7.152555E-07
vn 1 3.388109E-14 7.152555E-07
vn -1.192093E-07 1.686559E-14 1
vn -1.192093E-07 1.686559E-14 1
vn -1.192093E-07 1.686559E-14 1
vn -1.192093E-07 1.686559E-14 1
vn -4.132742E-08 -3.225796E-08 1
vn -4.132742E-08 -3.225796E-08 1
vn -4.132742E-08 -3.225796E-08 1
vn -4.132742E-08 -3.225796E-08 1
vn 1 3.349299E-14 2.710655E-15
vn 1 3.349299E-14 2.710655E-15
vn 1 3.349299E-14 2.710655E-15
vn 1 3.349299E-14 2.710655E-15
vn 3.428139E-07 7.059007E-07 1
vn 3.428139E-07 7.059007E-07 1
vn 3.428139E-07 7.059007E-07 1
vn 3.428139E-07 7.059007E-07 1
vn -1 3.039835E-06 -4.768372E-07
vn -1 3.039835E-06 -4.768372E-07
vn -1 3.039835E-06 -4.768372E-07
vn -1 3.039835E-06 -4.768372E-07
vn 8.038476E-07 -1.429933E-06 -1
vn 8.038476E-07 -1.429933E-06 -1
vn 8.038476E-07 -1.429933E-06 -1
vn 8.038476E-07 -1.429933E-06 -1
vn -0.7071065 2.254855E-06 0.707107
vn -0.7071065 2.254855E-06 0.707107
vn -0.7071065 2.254855E-06 0.707107
vn -0.7071065 2.254855E-06 0.707107
vn 0.7071065 -2.254855E-06 -0.707107
vn 0.7071065 -2.254855E-06 -0.707107
vn 0.7071065 -2.254855E-06 -0.707107
vn 0.7071065 -2.254855E-06 -0.707107
vn -0.707107 -7.375695E-07 -0.7071065
vn -0.707107 -7.375695E-07 -0.7071065
vn -0.707107 -7.375695E-07 -0.7071065
vn -0.707107 -7.375695E-07 -0.7071065
vn -1 1.072883E-06 3.278255E-07
vn -1 1.072883E-06 3.278255E-07
vn -1 1.072883E-06 3.278255E-07
vn -1 1.072883E-06 3.278255E-07
vn 0.707107 7.375695E-07 0.7071065
vn 0.707107 7.375695E-07 0.7071065
vn 0.707107 7.375695E-07 0.7071065
vn 0.707107 7.375695E-07 0.7071065
vn -3.576276E-07 -2.115964E-06 -1
vn -3.576276E-07 -2.115964E-06 -1
vn -3.576276E-07 -2.115964E-06 -1
vn -3.576276E-07 -2.115964E-06 -1
vn 1 -1.072883E-06 -3.278255E-07
vn 1 -1.072883E-06 -3.278255E-07
vn 1 -1.072883E-06 -3.278255E-07
vn 1 -1.072883E-06 -3.278255E-07
vn 3.576276E-07 2.115964E-06 1
vn 3.576276E-07 2.115964E-06 1
vn 3.576276E-07 2.115964E-06 1
vn 3.576276E-07 2.115964E-06 1
vn 1.072884E-06 1 -2.145768E-06
vn 1.072884E-06 1 -2.145768E-06
vn 1.072884E-06 1 -2.145768E-06
vn 1.072884E-06 1 -2.145768E-06
vn 1.072884E-06 1 -2.145768E-06
vn 1.072884E-06 1 -2.145768E-06
vn 1.072884E-06 1 -2.145768E-06
vn 1.072884E-06 1 -2.145768E-06
vn 1.072884E-06 1 -2.145768E-06
vn 1.072884E-06 1 -2.145768E-06
vn 1.072884E-06 1 -2.145768E-06
vn 1.072884E-06 1 -2.145768E-06
g _Combined_Vis0_0_0
f 3/3/3 2/2/2 1/1/1
f 5/5/5 4/4/4 3/3/3
f 4/4/4 6/6/6 3/3/3
f 6/6/6 7/7/7 3/3/3
f 7/7/7 8/8/8 3/3/3
f 9/9/9 8/8/8 7/7/7
f 10/10/10 9/9/9 7/7/7
f 13/13/13 12/12/12 11/11/11
f 14/14/14 13/13/13 11/11/11
f 14/14/14 11/11/11 15/15/15
f 11/11/11 16/16/16 15/15/15
f 18/18/18 17/17/17 15/15/15
f 17/17/17 19/19/19 15/15/15
f 19/19/19 20/20/20 15/15/15
f 23/23/23 22/22/22 21/21/21
f 24/24/24 22/22/22 23/23/23
f 25/25/25 24/24/24 23/23/23
f 26/26/26 25/25/25 23/23/23
f 27/27/27 26/26/26 23/23/23
f 30/30/30 29/29/29 28/28/28
f 31/31/31 30/30/30 28/28/28
f 34/34/34 33/33/33 32/32/32
f 33/33/33 35/35/35 32/32/32
f 33/33/33 36/36/36 35/35/35
f 36/36/36 37/37/37 35/35/35
f 40/40/40 39/39/39 38/38/38
f 39/39/39 41/41/41 38/38/38
f 41/41/41 42/42/42 38/38/38
f 42/42/42 43/43/43 38/38/38
f 46/46/46 45/45/45 44/44/44
f 47/47/47 46/46/46 44/44/44
f 50/50/50 49/49/49 48/48/48
f 49/49/49 51/51/51 48/48/48
f 51/51/51 52/52/52 48/48/48
f 52/52/52 53/53/53 48/48/48
f 56/56/56 55/55/55 54/54/54
f 57/57/57 56/56/56 54/54/54
f 60/60/60 59/59/59 58/58/58
f 61/61/61 60/60/60 58/58/58
f 61/61/61 58/58/58 62/62/62
f 63/63/63 61/61/61 62/62/62
f 66/66/66 65/65/65 64/64/64
f 67/67/67 66/66/66 64/64/64
f 70/70/70 69/69/69 68/68/68
f 71/71/71 70/70/70 68/68/68
f 74/74/74 73/73/73 72/72/72
f 75/75/75 74/74/74 72/72/72
f 78/78/78 77/77/77 76/76/76
f 79/79/79 78/78/78 76/76/76
f 82/82/82 81/81/81 80/80/80
f 83/83/83 82/82/82 80/80/80
f 86/86/86 85/85/85 84/84/84
f 87/87/87 86/86/86 84/84/84
f 90/90/90 89/89/89 88/88/88
f 91/91/91 90/90/90 88/88/88
f 94/94/94 93/93/93 92/92/92
f 95/95/95 94/94/94 92/92/92
f 98/98/98 97/97/97 96/96/96
f 99/99/99 98/98/98 96/96/96
f 102/102/102 101/101/101 100/100/100
f 103/103/103 102/102/102 100/100/100
f 106/106/106 105/105/105 104/104/104
f 107/107/107 106/106/106 104/104/104
f 110/110/110 109/109/109 108/108/108
f 111/111/111 110/110/110 108/108/108
f 114/114/114 113/113/113 112/112/112
f 115/115/115 114/114/114 112/112/112
f 118/118/118 117/117/117 116/116/116
f 119/119/119 118/118/118 116/116/116
f 122/122/122 121/121/121 120/120/120
f 123/123/123 122/122/122 120/120/120
f 126/126/126 125/125/125 124/124/124
f 127/127/127 126/126/126 124/124/124
f 130/130/130 129/129/129 128/128/128
f 131/131/131 130/130/130 128/128/128
f 134/134/134 133/133/133 132/132/132
f 135/135/135 134/134/134 132/132/132
f 138/138/138 137/137/137 136/136/136
f 139/139/139 138/138/138 136/136/136
f 142/142/142 141/141/141 140/140/140
f 143/143/143 142/142/142 140/140/140
f 146/146/146 145/145/145 144/144/144
f 147/147/147 146/146/146 144/144/144
f 150/150/150 149/149/149 148/148/148
f 151/151/151 150/150/150 148/148/148
f 154/154/154 153/153/153 152/152/152
f 155/155/155 154/154/154 152/152/152
f 158/158/158 157/157/157 156/156/156
f 159/159/159 158/158/158 156/156/156
f 162/162/162 161/161/161 160/160/160
f 163/163/163 162/162/162 160/160/160
f 166/166/166 165/165/165 164/164/164
f 164/164/164 165/165/165 167/167/167
f 165/165/165 166/166/166 168/168/168
f 166/166/166 169/169/169 168/168/168
f 168/168/168 169/169/169 170/170/170
f 165/165/165 171/171/171 167/167/167
f 167/167/167 171/171/171 172/172/172
f 172/172/172 171/171/171 173/173/173
f 168/168/168 170/170/170 174/174/174
f 171/171/171 174/174/174 173/173/173
f 170/170/170 175/175/175 174/174/174
f 173/173/173 174/174/174 175/175/175
