g _Combined_Vis7_0
v -32.00054 -0.8999951 28.50005
v -31.75054 -0.9999956 28.50005
v -32.00054 -0.9999951 28.43786
v -31.50054 4.98132E-06 27.8421
v -31.56981 5.217194E-06 27.50005
v -31.50054 -0.142831 27.50005
v -32.00054 -0.9999948 27.50005
v -31.56981 5.217194E-06 27.50005
v -32.00054 5.923212E-06 27.50005
v -31.50054 -0.9999956 27.50005
v -31.50054 -0.142831 27.50005
v -31.50054 -0.9999959 28.50005
v -32.00054 5.565584E-06 28.50006
v -31.50054 4.746019E-06 28.50005
v -31.75054 -0.9999956 28.50005
v -32.00054 -0.8999951 28.50005
v -31.50054 -0.9999956 27.50005
v -32.00054 -0.9999948 27.50005
v -31.50054 -0.9999959 28.50005
v -32.00054 -0.9999951 28.43786
v -31.75054 -0.9999956 28.50005
v -32.00054 5.923212E-06 27.50005
v -32.00054 -0.9999951 28.43786
v -32.00054 -0.9999948 27.50005
v -32.00054 5.565584E-06 28.50006
v -32.00054 -0.8999951 28.50005
v -31.56981 5.217194E-06 27.50005
v -32.00054 5.565584E-06 28.50006
v -32.00054 5.923212E-06 27.50005
v -31.50054 4.98132E-06 27.8421
v -31.50054 4.746019E-06 28.50005
v -31.50054 -0.9999956 27.50005
v -31.50054 4.98132E-06 27.8421
v -31.50054 -0.142831 27.50005
v -31.50054 -0.9999959 28.50005
v -31.50054 4.746019E-06 28.50005
v -35.0002 -9.739399E-05 27.5003
v -36.0002 -9.745359E-05 27.5003
v -36.0002 -1.000099 27.5003
v -35.0002 -1.000099 27.5003
v -34.0002 -9.733438E-05 27.5003
v -34.0002 -1.000099 27.5003
v -33.0002 -9.727478E-05 27.50031
v -33.0002 -1.000097 27.50031
v -32.00054 5.923212E-06 27.50005
v -32.00054 -0.9999948 27.50005
v -32.00054 -0.9999948 27.50005
v -33.0002 -1.000097 27.50031
v -33.00034 -0.9999263 28.50028
v -32.00034 -0.9999266 28.50028
v -32.00054 5.565584E-06 28.50006
v -32.00054 5.923212E-06 27.50005
v -32.00054 -0.9999948 27.50005
v -32.00034 -0.9999266 28.50028
v -36.0002 -9.745359E-05 27.5003
v -41.00016 7.474422E-05 27.50027
v -41.00016 -0.9999251 27.50027
v -36.0002 -1.000099 27.5003
vt 0.6999661 0.6775543
vt 0.6741586 0.6787549
vt 0.6990944 0.6836491
vt 0.6978073 0.6978376
vt 0.6776082 0.6890067
vt 0.675975 0.7008724
vt 0.734375 0.640625
vt 0.703125 0.6675455
vt 0.703125 0.640625
vt 0.734375 0.671875
vt 0.7075886 0.671875
vt 0.734375 0.671875
vt 0.703125 0.640625
vt 0.703125 0.671875
vt 0.734375 0.65625
vt 0.73125 0.640625
vt 0.703125 0.671875
vt 0.703125 0.640625
vt 0.671875 0.671875
vt 0.6738184 0.640625
vt 0.671875 0.65625
vt 0.734375 0.671875
vt 0.703125 0.7011815
vt 0.703125 0.671875
vt 0.734375 0.703125
vt 0.70625 0.703125
vt 0.703125 0.6675455
vt 0.671875 0.640625
vt 0.703125 0.640625
vt 0.6924359 0.671875
vt 0.671875 0.671875
vt 0.734375 0.703125
vt 0.703125 0.6924359
vt 0.7075886 0.703125
vt 0.734375 0.671875
vt 0.703125 0.671875
vt 0.171875 0.609375
vt 0.171875 0.484375
vt 0.296875 0.484375
vt 0.296875 0.609375
vt 0.171875 0.734375
vt 0.296875 0.734375
vt 0.171875 0.859375
vt 0.2968749 0.859375
vt 0.171875 0.984375
vt 0.2968749 0.984375
vt 0.734375 0.703125
vt 0.734375 0.640625
vt 0.671875 0.640625
vt 0.671875 0.703125
vt 0.734375 0.703125
vt 0.734375 0.640625
vt 0.671875 0.640625
vt 0.671875 0.703125
vt 0.734375 0.703125
vt 0.734375 0.640625
vt 0.671875 0.640625
vt 0.671875 0.703125
vn -0.2066396 -0.5166935 0.8308597
vn -0.2066396 -0.5166935 0.8308597
vn -0.2066396 -0.5166935 0.8308597
vn 0.8851983 0.4292913 -0.1792568
vn 0.8851983 0.4292913 -0.1792568
vn 0.8851983 0.4292913 -0.1792568
vn -3.188848E-06 3.57628E-07 -1
vn -3.188848E-06 3.57628E-07 -1
vn -3.188848E-06 3.57628E-07 -1
vn -3.188848E-06 3.57628E-07 -1
vn -3.188848E-06 3.57628E-07 -1
vn 3.188848E-06 -3.57628E-07 1
vn 3.188848E-06 -3.57628E-07 1
vn 3.188848E-06 -3.57628E-07 1
vn 3.188848E-06 -3.57628E-07 1
vn 3.188848E-06 -3.57628E-07 1
vn -1.668929E-06 -1 -3.576278E-07
vn -1.668929E-06 -1 -3.576278E-07
vn -1.668929E-06 -1 -3.576278E-07
vn -1.668929E-06 -1 -3.576278E-07
vn -1.668929E-06 -1 -3.576278E-07
vn -1 1.639129E-06 3.218652E-06
vn -1 1.639129E-06 3.218652E-06
vn -1 1.639129E-06 3.218652E-06
vn -1 1.639129E-06 3.218652E-06
vn -1 1.639129E-06 3.218652E-06
vn 1.668929E-06 1 3.576278E-07
vn 1.668929E-06 1 3.576278E-07
vn 1.668929E-06 1 3.576278E-07
vn 1.668929E-06 1 3.576278E-07
vn 1.668929E-06 1 3.576278E-07
vn 1 -1.639129E-06 -3.218652E-06
vn 1 -1.639129E-06 -3.218652E-06
vn 1 -1.639129E-06 -3.218652E-06
vn 1 -1.639129E-06 -3.218652E-06
vn 1 -1.639129E-06 -3.218652E-06
vn -1.937151E-06 -2.384187E-07 -1
vn -1.937151E-06 -2.384187E-07 -1
vn -1.937151E-06 -2.384187E-07 -1
vn -1.937151E-06 -2.384187E-07 -1
vn -1.937151E-06 -2.384187E-07 -1
vn -1.937151E-06 -2.384187E-07 -1
vn -1.937151E-06 -2.384187E-07 -1
vn -1.937151E-06 -2.384187E-07 -1
vn -1.937151E-06 -2.384187E-07 -1
vn -1.937151E-06 -2.384187E-07 -1
vn -1.192093E-07 -1 -1.192092E-07
vn -1.192093E-07 -1 -1.192092E-07
vn -1.192093E-07 -1 -1.192092E-07
vn -1.192093E-07 -1 -1.192092E-07
vn 1 -1.788139E-07 -2.384187E-07
vn 1 -1.788139E-07 -2.384187E-07
vn 1 -1.788139E-07 -2.384187E-07
vn 1 -1.788139E-07 -2.384187E-07
vn 3.517007E-14 0 -1
vn 3.517007E-14 0 -1
vn 3.517007E-14 0 -1
vn 3.517007E-14 0 -1
g _Combined_Vis7_0_0
f 3/3/3 2/2/2 1/1/1
f 6/6/6 5/5/5 4/4/4
f 9/9/9 8/8/8 7/7/7
f 7/7/7 8/8/8 10/10/10
f 10/10/10 8/8/8 11/11/11
f 14/14/14 13/13/13 12/12/12
f 13/13/13 15/15/15 12/12/12
f 16/16/16 15/15/15 13/13/13
f 19/19/19 18/18/18 17/17/17
f 20/20/20 18/18/18 19/19/19
f 21/21/21 20/20/20 19/19/19
f 24/24/24 23/23/23 22/22/22
f 22/22/22 23/23/23 25/25/25
f 23/23/23 26/26/26 25/25/25
f 29/29/29 28/28/28 27/27/27
f 27/27/27 28/28/28 30/30/30
f 30/30/30 28/28/28 31/31/31
f 34/34/34 33/33/33 32/32/32
f 32/32/32 33/33/33 35/35/35
f 33/33/33 36/36/36 35/35/35
f 39/39/39 38/38/38 37/37/37
f 40/40/40 39/39/39 37/37/37
f 40/40/40 37/37/37 41/41/41
f 42/42/42 40/40/40 41/41/41
f 42/42/42 41/41/41 43/43/43
f 44/44/44 42/42/42 43/43/43
f 43/43/43 45/45/45 44/44/44
f 45/45/45 46/46/46 44/44/44
f 49/49/49 48/48/48 47/47/47
f 50/50/50 49/49/49 47/47/47
f 53/53/53 52/52/52 51/51/51
f 54/54/54 53/53/53 51/51/51
f 57/57/57 56/56/56 55/55/55
f 58/58/58 57/57/57 55/55/55
