g _Combined_Vis4_0
v -6.500001 -8.499999 1.5
v -6.000001 -8.499999 1.5
v -7.000001 -8.499999 1.5
v -6.125001 -8.124999 1.375
v -6.125001 -8.499999 1.375
v -6.125001 -8.499999 0.9999999
v -6.125001 -8.124999 0.6249999
v -6.125001 -8.499999 0.9999999
v -6.125001 -8.499999 0.6249999
v -6.875001 -8.124999 1.375
v -6.875001 -8.499999 1.375
v -6.500001 -8.499999 1.375
v -6.875001 -8.499999 0.625
v -6.875001 -8.499999 1.375
v -6.875001 -8.499999 1
v -6.125001 -8.124999 0.6249999
v -6.125001 -8.499999 0.6249999
v -6.500001 -8.499999 0.6249999
v -6.125001 -8.124999 1.375
v -6.500001 -8.499999 1.375
v -6.125001 -8.499999 1.375
v -6.875001 -8.124999 0.625
v -6.500001 -8.499999 0.6249999
v -6.875001 -8.499999 0.625
v -7.000001 -8.499999 1
v -7.000001 -8.499999 1.5
v -7.000001 -8.499999 0.5
v -6.875001 -8.124999 1.375
v -6.875001 -8.499999 1
v -6.875001 -8.499999 1.375
v -6.875001 -8.124999 0.625
v -6.875001 -8.499999 0.625
v -6.875001 -8.499999 1
v -6.125001 -8.499999 1.375
v -6.500001 -8.499999 1.375
v -6.875001 -8.499999 0.625
v -6.500001 -8.499999 0.6249999
v -6.125001 -8.499999 0.6249999
v -6.500001 -8.499999 0.4999999
v -7.000001 -8.499999 0.5
v -6.000001 -8.499999 0.4999999
v -6.125001 -8.499999 0.9999999
v -6.125001 -8.499999 1.375
v -6.125001 -8.499999 0.6249999
v -6.000001 -8.499999 0.9999999
v -6.000001 -8.499999 0.4999999
v -6.000001 -8.499999 1.5
v -6.000001 -7.499999 1.375
v -6.125001 -8.124999 1.375
v -6.000001 -8.124999 1.375
v -6.125001 -7.499999 1.375
v -6.125001 -6.499999 1.375
v -6.000001 -6.499999 1.375
v -6.125001 -8.124999 1.375
v -6.125001 -8.499999 0.9999999
v -6.000001 -8.499999 0.9999999
v -6.000001 -8.124999 1.375
v -6.000001 -7.499999 0.6249999
v -6.000001 -8.124999 0.6249999
v -6.125001 -8.124999 0.6249999
v -6.125001 -7.499999 0.6249999
v -6.125001 -6.499999 0.6249999
v -6.000001 -6.499999 0.6249999
v -6.125001 -8.124999 0.6249999
v -6.000001 -8.124999 0.6249999
v -6.000001 -8.499999 0.9999999
v -6.125001 -8.499999 0.9999999
v -7.000001 -7.499999 0.625
v -6.875001 -8.124999 0.625
v -7.000001 -8.124999 0.625
v -6.875001 -7.499999 0.625
v -6.875001 -6.499999 0.625
v -7.000001 -6.499999 0.625
v -6.875001 -7.499999 1.5
v -6.875001 -8.124999 1.375
v -6.875001 -8.124999 1.5
v -6.875001 -7.499999 1.375
v -6.875001 -6.499999 1.375
v -6.875001 -6.499999 1.5
v -6.125001 -8.124999 1.375
v -6.125001 -8.124999 1.5
v -6.500001 -8.499999 1.5
v -6.500001 -8.499999 1.375
v -6.875001 -8.124999 1.375
v -7.000001 -8.124999 1.375
v -7.000001 -8.499999 1
v -6.875001 -8.499999 1
v -6.125001 -7.499999 0.4999999
v -6.125001 -8.124999 0.6249999
v -6.125001 -8.124999 0.4999999
v -6.125001 -7.499999 0.6249999
v -6.125001 -6.499999 0.6249999
v -6.125001 -6.499999 0.4999999
v -6.875001 -8.124999 0.625
v -6.875001 -8.124999 0.5
v -6.500001 -8.499999 0.4999999
v -6.500001 -8.499999 0.6249999
v -6.125001 -7.499999 1.5
v -6.125001 -8.124999 1.5
v -6.125001 -8.124999 1.375
v -6.125001 -7.499999 1.375
v -6.125001 -6.499999 1.375
v -6.125001 -6.499999 1.5
v -6.875001 -8.124999 1.375
v -6.500001 -8.499999 1.375
v -6.500001 -8.499999 1.5
v -6.875001 -8.124999 1.5
v -7.000001 -7.499999 1.375
v -7.000001 -8.124999 1.375
v -6.875001 -8.124999 1.375
v -6.875001 -7.499999 1.375
v -6.875001 -6.499999 1.375
v -7.000001 -6.499999 1.375
v -6.875001 -7.499999 0.5
v -6.875001 -8.124999 0.5
v -6.875001 -8.124999 0.625
v -6.875001 -7.499999 0.625
v -6.875001 -6.499999 0.625
v -6.875001 -6.499999 0.5
v -6.125001 -8.124999 0.6249999
v -6.500001 -8.499999 0.6249999
v -6.500001 -8.499999 0.4999999
v -6.125001 -8.124999 0.4999999
v -6.875001 -8.124999 0.625
v -6.875001 -8.499999 1
v -7.000001 -8.499999 1
v -7.000001 -8.124999 0.625
v -6.125001 -7.499999 1.5
v -6.125001 -6.499999 1.5
v -6.000001 -6.499999 1.5
v -6.000001 -7.499999 1.5
v -6.000001 -8.499999 1.5
v -6.125001 -8.124999 1.5
v -6.500001 -8.499999 1.5
v -6.000001 -7.499999 1.375
v -6.000001 -6.499999 1.5
v -6.000001 -6.499999 1.375
v -6.000001 -7.499999 1.5
v -6.000001 -8.499999 1.5
v -6.000001 -8.124999 1.375
v -6.000001 -8.499999 0.9999999
v -6.000001 -7.499999 0.6249999
v -6.000001 -6.499999 0.6249999
v -6.000001 -6.499999 0.4999999
v -6.000001 -7.499999 0.4999999
v -6.000001 -8.499999 0.4999999
v -6.000001 -8.124999 0.6249999
v -6.000001 -8.499999 0.9999999
v -7.000001 -8.499999 1
v -7.000001 -8.499999 0.5
v -7.000001 -8.124999 0.625
v -7.000001 -7.499999 0.625
v -7.000001 -7.499999 0.5
v -7.000001 -6.499999 0.5
v -7.000001 -6.499999 0.625
v -6.125001 -7.499999 0.4999999
v -6.000001 -6.499999 0.4999999
v -6.125001 -6.499999 0.4999999
v -6.000001 -7.499999 0.4999999
v -6.000001 -8.499999 0.4999999
v -6.125001 -8.124999 0.4999999
v -6.500001 -8.499999 0.4999999
v -7.000001 -7.499999 1.375
v -7.000001 -6.499999 1.375
v -7.000001 -6.499999 1.5
v -7.000001 -7.499999 1.5
v -7.000001 -8.499999 1.5
v -7.000001 -8.124999 1.375
v -7.000001 -8.499999 1
v -6.875001 -7.499999 0.5
v -6.875001 -6.499999 0.5
v -7.000001 -6.499999 0.5
v -7.000001 -7.499999 0.5
v -7.000001 -8.499999 0.5
v -6.875001 -8.124999 0.5
v -6.500001 -8.499999 0.4999999
v -6.875001 -7.499999 1.5
v -7.000001 -6.499999 1.5
v -6.875001 -6.499999 1.5
v -7.000001 -7.499999 1.5
v -7.000001 -8.499999 1.5
v -6.875001 -8.124999 1.5
v -6.500001 -8.499999 1.5
v -7.000001 -6.499999 0.625
v -7.000001 -6.499999 0.5
v -7.000001 -4.499999 0.5
v -7.000001 -4.499999 0.625
v -6.875001 -6.499999 1.5
v -7.000001 -6.499999 1.5
v -7.000001 -4.499999 1.5
v -6.875001 -4.499999 1.5
v -7.000001 -6.499999 1.375
v -7.000001 -4.499999 1.375
v -7.000001 -4.499999 1.5
v -7.000001 -6.499999 1.5
v -6.125001 -6.499999 1.5
v -6.125001 -4.499999 1.5
v -6.000001 -4.499999 1.5
v -6.000001 -6.499999 1.5
v -6.000001 -6.499999 0.6249999
v -6.000001 -4.499999 0.6249999
v -6.000001 -4.499999 0.4999999
v -6.000001 -6.499999 0.4999999
v -6.000001 -6.499999 1.375
v -6.000001 -6.499999 1.5
v -6.000001 -4.499999 1.5
v -6.000001 -4.499999 1.375
v -6.875001 -6.499999 0.5
v -6.875001 -4.499999 0.5
v -7.000001 -4.499999 0.5
v -7.000001 -6.499999 0.5
v -6.125001 -6.499999 0.4999999
v -6.000001 -6.499999 0.4999999
v -6.000001 -4.499999 0.4999999
v -6.125001 -4.499999 0.4999999
v -7.000001 -6.499999 1.375
v -6.875001 -6.499999 1.375
v -6.875001 -4.499999 1.375
v -7.000001 -4.499999 1.375
v -6.125001 -6.499999 1.5
v -6.125001 -6.499999 1.375
v -6.125001 -4.499999 1.375
v -6.125001 -4.499999 1.5
v -6.000001 -6.499999 1.375
v -6.000001 -4.499999 1.375
v -6.125001 -4.499999 1.375
v -6.125001 -6.499999 1.375
v -6.125001 -4.499999 0.6249999
v -6.125001 -6.499999 0.6249999
v -6.125001 -6.499999 0.4999999
v -6.125001 -4.499999 0.4999999
v -6.875001 -6.499999 1.5
v -6.875001 -4.499999 1.5
v -6.875001 -4.499999 1.375
v -6.875001 -6.499999 1.375
v -6.875001 -6.499999 0.5
v -6.875001 -6.499999 0.625
v -6.875001 -4.499999 0.625
v -6.875001 -4.499999 0.5
v -7.000001 -6.499999 0.625
v -7.000001 -4.499999 0.625
v -6.875001 -4.499999 0.625
v -6.875001 -6.499999 0.625
v -6.000001 -6.499999 0.6249999
v -6.125001 -6.499999 0.6249999
v -6.125001 -4.499999 0.6249999
v -6.000001 -4.499999 0.6249999
v -2.000001 -8.5 1.500001
v -7.000001 -8.499999 1.5
v -7.000001 -8.499999 0.5
v -2.000001 -8.5 0.4999997
vt 0.6796875 0.0859375
vt 0.6640625 0.0234375
vt 0.6953125 0.0859375
vt 0.7226563 0.07421875
vt 0.7226563 0.0859375
vt 0.7109375 0.0859375
vt 0.6992188 0.07421875
vt 0.7109375 0.0859375
vt 0.6992188 0.0859375
vt 0.7226563 0.07421875
vt 0.7226563 0.0859375
vt 0.7109375 0.0859375
vt 0.7109375 0.0859375
vt 0.6640625 0.0234375
vt 0.7226563 0.0859375
vt 0.6992188 0.07421875
vt 0.6992188 0.0859375
vt 0.7109375 0.0859375
vt 0.6992188 0.07421875
vt 0.7109375 0.0859375
vt 0.6992188 0.0859375
vt 0.7226563 0.07421875
vt 0.7109375 0.0859375
vt 0.7226563 0.0859375
vt 0.6796875 0.0859375
vt 0.6640625 0.0234375
vt 0.6640625 0.0859375
vt 0.7226563 0.07421875
vt 0.7109375 0.0859375
vt 0.7226563 0.0859375
vt 0.6992188 0.07421875
vt 0.6992188 0.0859375
vt 0.7109375 0.0859375
vt 0.6992188 0.0859375
vt 0.7109375 0.0859375
vt 0.7226563 0.0859375
vt 0.7109375 0.0859375
vt 0.6640625 0.0234375
vt 0.6796875 0.0859375
vt 0.6640625 0.0234375
vt 0.6640625 0.0859375
vt 0.6992188 0.0859375
vt 0.7109375 0.0859375
vt 0.6640625 0.0234375
vt 0.6796875 0.0859375
vt 0.6640625 0.0234375
vt 0.6953125 0.0859375
vt 0.6953125 0.0546875
vt 0.6992188 0.07421875
vt 0.6953125 0.07421875
vt 0.6992188 0.0546875
vt 0.6992188 0.0234375
vt 0.6953125 0.0234375
vt 0.6992188 0.07421875
vt 0.6992188 0.0859375
vt 0.6953125 0.0859375
vt 0.6953125 0.07421875
vt 0.6953125 0.0546875
vt 0.6953125 0.07421875
vt 0.6992188 0.07421875
vt 0.6992188 0.0546875
vt 0.6992188 0.0234375
vt 0.6953125 0.0234375
vt 0.6992188 0.07421875
vt 0.6953125 0.07421875
vt 0.6953125 0.0859375
vt 0.6992188 0.0859375
vt 0.7265625 0.0546875
vt 0.7226563 0.07421875
vt 0.7265625 0.07421875
vt 0.7226563 0.0546875
vt 0.7226563 0.0234375
vt 0.7265625 0.0234375
vt 0.7265625 0.0546875
vt 0.7226563 0.07421875
vt 0.7265625 0.07421875
vt 0.7226563 0.0546875
vt 0.7226563 0.0234375
vt 0.7265625 0.0234375
vt 0.7226563 0.07421875
vt 0.7265625 0.07421875
vt 0.7265625 0.0859375
vt 0.7226563 0.0859375
vt 0.7226563 0.07421875
vt 0.7265625 0.07421875
vt 0.7265625 0.0859375
vt 0.7226563 0.0859375
vt 0.6953125 0.0546875
vt 0.6992188 0.07421875
vt 0.6953125 0.07421875
vt 0.6992188 0.0546875
vt 0.6992188 0.0234375
vt 0.6953125 0.0234375
vt 0.6992188 0.07421875
vt 0.6953125 0.07421875
vt 0.6953125 0.0859375
vt 0.6992188 0.0859375
vt 0.7265625 0.0546875
vt 0.7265625 0.07421875
vt 0.7226563 0.07421875
vt 0.7226563 0.0546875
vt 0.7226563 0.0234375
vt 0.7265625 0.0234375
vt 0.7226563 0.07421875
vt 0.7226563 0.0859375
vt 0.7265625 0.0859375
vt 0.7265625 0.07421875
vt 0.7265625 0.0546875
vt 0.7265625 0.07421875
vt 0.7226563 0.07421875
vt 0.7226563 0.0546875
vt 0.7226563 0.0234375
vt 0.7265625 0.0234375
vt 0.6953125 0.0546875
vt 0.6953125 0.07421875
vt 0.6992188 0.07421875
vt 0.6992188 0.0546875
vt 0.6992188 0.0234375
vt 0.6953125 0.0234375
vt 0.6992188 0.07421875
vt 0.6992188 0.0859375
vt 0.6953125 0.0859375
vt 0.6953125 0.07421875
vt 0.7226563 0.07421875
vt 0.7226563 0.0859375
vt 0.7265625 0.0859375
vt 0.7265625 0.07421875
vt 0.6679688 0.0546875
vt 0.6679688 0.0234375
vt 0.6640625 0.0234375
vt 0.6640625 0.0546875
vt 0.6640625 0.0859375
vt 0.6679688 0.07421875
vt 0.6796875 0.0859375
vt 0.6914063 0.0546875
vt 0.6953125 0.0234375
vt 0.6914063 0.0234375
vt 0.6953125 0.0546875
vt 0.6953125 0.0859375
vt 0.6914063 0.07421875
vt 0.6796875 0.0859375
vt 0.6679688 0.0546875
vt 0.6679688 0.0234375
vt 0.6640625 0.0234375
vt 0.6640625 0.0546875
vt 0.6640625 0.0859375
vt 0.6679688 0.07421875
vt 0.6796875 0.0859375
vt 0.6796875 0.0859375
vt 0.6640625 0.0859375
vt 0.6679688 0.07421875
vt 0.6679688 0.0546875
vt 0.6640625 0.0546875
vt 0.6640625 0.0234375
vt 0.6679688 0.0234375
vt 0.6679688 0.0546875
vt 0.6640625 0.0234375
vt 0.6679688 0.0234375
vt 0.6640625 0.0546875
vt 0.6640625 0.0859375
vt 0.6679688 0.07421875
vt 0.6796875 0.0859375
vt 0.6914063 0.0546875
vt 0.6914063 0.0234375
vt 0.6953125 0.0234375
vt 0.6953125 0.0546875
vt 0.6953125 0.0859375
vt 0.6914063 0.07421875
vt 0.6796875 0.0859375
vt 0.6914063 0.0546875
vt 0.6914063 0.0234375
vt 0.6953125 0.0234375
vt 0.6953125 0.0546875
vt 0.6953125 0.0859375
vt 0.6914063 0.07421875
vt 0.6796875 0.0859375
vt 0.6914063 0.0546875
vt 0.6953125 0.0234375
vt 0.6914063 0.0234375
vt 0.6953125 0.0546875
vt 0.6953125 0.0859375
vt 0.6914063 0.07421875
vt 0.6796875 0.0859375
vt 0.671875 0.0859375
vt 0.6640625 0.0859375
vt 0.6640625 0.0234375
vt 0.671875 0.0234375
vt 0.7265625 0.0859375
vt 0.7265625 0.0859375
vt 0.7265625 0.0234375
vt 0.7265625 0.0234375
vt 0.71875 0.0859375
vt 0.71875 0.0234375
vt 0.7265625 0.0234375
vt 0.7265625 0.0859375
vt 0.7265625 0.0859375
vt 0.7265625 0.0234375
vt 0.7265625 0.0234375
vt 0.7265625 0.0859375
vt 0.671875 0.0859375
vt 0.671875 0.0234375
vt 0.6640625 0.0234375
vt 0.6640625 0.0859375
vt 0.71875 0.0859375
vt 0.7265625 0.0859375
vt 0.7265625 0.0234375
vt 0.71875 0.0234375
vt 0.6640625 0.0859375
vt 0.6640625 0.0234375
vt 0.6640625 0.0234375
vt 0.6640625 0.0859375
vt 0.6640625 0.0859375
vt 0.6640625 0.0859375
vt 0.6640625 0.0234375
vt 0.6640625 0.0234375
vt 0.71875 0.0859375
vt 0.71875 0.0859375
vt 0.71875 0.0234375
vt 0.71875 0.0234375
vt 0.7265625 0.0859375
vt 0.71875 0.0859375
vt 0.71875 0.0234375
vt 0.7265625 0.0234375
vt 0.71875 0.0859375
vt 0.71875 0.0234375
vt 0.71875 0.0234375
vt 0.71875 0.0859375
vt 0.671875 0.0234375
vt 0.671875 0.0859375
vt 0.6640625 0.0859375
vt 0.6640625 0.0234375
vt 0.7265625 0.0859375
vt 0.7265625 0.0234375
vt 0.71875 0.0234375
vt 0.71875 0.0859375
vt 0.6640625 0.0859375
vt 0.671875 0.0859375
vt 0.671875 0.0234375
vt 0.6640625 0.0234375
vt 0.671875 0.0859375
vt 0.671875 0.0234375
vt 0.671875 0.0234375
vt 0.671875 0.0859375
vt 0.671875 0.0859375
vt 0.671875 0.0859375
vt 0.671875 0.0234375
vt 0.671875 0.0234375
vt 0.7265625 0.0859375
vt 0.7265625 0.0234375
vt 0.6640625 0.0234375
vt 0.6640625 0.0859375
vn 1 0 -1.192093E-07
vn 1 0 -1.192093E-07
vn 1 0 -1.192093E-07
vn -1 0 1.192093E-07
vn -1 0 1.192093E-07
vn -1 0 1.192093E-07
vn -1 0 1.192093E-07
vn -1 0 1.192093E-07
vn -1 0 1.192093E-07
vn 1.192093E-07 0 -1
vn 1.192093E-07 0 -1
vn 1.192093E-07 0 -1
vn 1 0 -1.192093E-07
vn 1 0 -1.192093E-07
vn 1 0 -1.192093E-07
vn -1.192093E-07 0 1
vn -1.192093E-07 0 1
vn -1.192093E-07 0 1
vn 1.192093E-07 0 -1
vn 1.192093E-07 0 -1
vn 1.192093E-07 0 -1
vn -1.192093E-07 0 1
vn -1.192093E-07 0 1
vn -1.192093E-07 0 1
vn 0 1 0
vn 0 1 0
vn 0 1 0
vn 1 0 -1.192093E-07
vn 1 0 -1.192093E-07
vn 1 0 -1.192093E-07
vn 1 0 -1.192093E-07
vn 1 0 -1.192093E-07
vn 1 0 -1.192093E-07
vn 1 0 -1.192093E-07
vn 1 0 -1.192093E-07
vn 0 -1 0
vn 0 -1 0
vn 0 -1 0
vn 0 1 0
vn 0 1 0
vn 0 1 0
vn -0.9363293 0.3511231 1.116191E-07
vn -0.9363293 0.3511231 1.116191E-07
vn -0.9363293 0.3511231 1.116191E-07
vn 0.7525766 -0.6585047 -8.971411E-08
vn 0.7525766 -0.6585047 -8.971411E-08
vn 0.7525766 -0.6585047 -8.971411E-08
vn 1.192093E-07 0 -1
vn 1.192093E-07 0 -1
vn 1.192093E-07 0 -1
vn 1.192093E-07 0 -1
vn 1.192093E-07 0 -1
vn 1.192093E-07 0 -1
vn 8.429369E-08 0.7071068 -0.7071068
vn 8.429369E-08 0.7071068 -0.7071068
vn 8.429369E-08 0.7071068 -0.7071068
vn 8.429369E-08 0.7071068 -0.7071068
vn -1.192093E-07 0 1
vn -1.192093E-07 0 1
vn -1.192093E-07 0 1
vn -1.192093E-07 0 1
vn -1.192093E-07 0 1
vn -1.192093E-07 0 1
vn -8.429369E-08 0.7071068 0.7071068
vn -8.429369E-08 0.7071068 0.7071068
vn -8.429369E-08 0.7071068 0.7071068
vn -8.429369E-08 0.7071068 0.7071068
vn -1.192093E-07 0 1
vn -1.192093E-07 0 1
vn -1.192093E-07 0 1
vn -1.192093E-07 0 1
vn -1.192093E-07 0 1
vn -1.192093E-07 0 1
vn 1 0 -1.192093E-07
vn 1 0 -1.192093E-07
vn 1 0 -1.192093E-07
vn 1 0 -1.192093E-07
vn 1 0 -1.192093E-07
vn 1 0 -1.192093E-07
vn -0.7071068 0.7071068 8.429369E-08
vn -0.7071068 0.7071068 8.429369E-08
vn -0.7071068 0.7071068 8.429369E-08
vn -0.7071068 0.7071068 8.429369E-08
vn 8.429369E-08 0.7071068 -0.7071068
vn 8.429369E-08 0.7071068 -0.7071068
vn 8.429369E-08 0.7071068 -0.7071068
vn 8.429369E-08 0.7071068 -0.7071068
vn -1 0 1.192093E-07
vn -1 0 1.192093E-07
vn -1 0 1.192093E-07
vn -1 0 1.192093E-07
vn -1 0 1.192093E-07
vn -1 0 1.192093E-07
vn 0.7071063 0.7071073 -8.429363E-08
vn 0.7071063 0.7071073 -8.429363E-08
vn 0.7071063 0.7071073 -8.429363E-08
vn 0.7071063 0.7071073 -8.429363E-08
vn -1 0 1.192093E-07
vn -1 0 1.192093E-07
vn -1 0 1.192093E-07
vn -1 0 1.192093E-07
vn -1 0 1.192093E-07
vn -1 0 1.192093E-07
vn 0.7071063 0.7071073 -8.429363E-08
vn 0.7071063 0.7071073 -8.429363E-08
vn 0.7071063 0.7071073 -8.429363E-08
vn 0.7071063 0.7071073 -8.429363E-08
vn 1.192093E-07 0 -1
vn 1.192093E-07 0 -1
vn 1.192093E-07 0 -1
vn 1.192093E-07 0 -1
vn 1.192093E-07 0 -1
vn 1.192093E-07 0 -1
vn 1 0 -1.192093E-07
vn 1 0 -1.192093E-07
vn 1 0 -1.192093E-07
vn 1 0 -1.192093E-07
vn 1 0 -1.192093E-07
vn 1 0 -1.192093E-07
vn -0.7071068 0.7071068 8.429369E-08
vn -0.7071068 0.7071068 8.429369E-08
vn -0.7071068 0.7071068 8.429369E-08
vn -0.7071068 0.7071068 8.429369E-08
vn -8.429369E-08 0.7071068 0.7071068
vn -8.429369E-08 0.7071068 0.7071068
vn -8.429369E-08 0.7071068 0.7071068
vn -8.429369E-08 0.7071068 0.7071068
vn -1.192093E-07 0 1
vn -1.192093E-07 0 1
vn -1.192093E-07 0 1
vn -1.192093E-07 0 1
vn -1.192093E-07 0 1
vn -1.192093E-07 0 1
vn -1.192093E-07 0 1
vn 1 0 -1.192093E-07
vn 1 0 -1.192093E-07
vn 1 0 -1.192093E-07
vn 1 0 -1.192093E-07
vn 1 0 -1.192093E-07
vn 1 0 -1.192093E-07
vn 1 0 -1.192093E-07
vn 1 0 -1.192093E-07
vn 1 0 -1.192093E-07
vn 1 0 -1.192093E-07
vn 1 0 -1.192093E-07
vn 1 0 -1.192093E-07
vn 1 0 -1.192093E-07
vn 1 0 -1.192093E-07
vn -1 0 1.192093E-07
vn -1 0 1.192093E-07
vn -1 0 1.192093E-07
vn -1 0 1.192093E-07
vn -1 0 1.192093E-07
vn -1 0 1.192093E-07
vn -1 0 1.192093E-07
vn 1.192093E-07 0 -1
vn 1.192093E-07 0 -1
vn 1.192093E-07 0 -1
vn 1.192093E-07 0 -1
vn 1.192093E-07 0 -1
vn 1.192093E-07 0 -1
vn 1.192093E-07 0 -1
vn -1 0 1.192093E-07
vn -1 0 1.192093E-07
vn -1 0 1.192093E-07
vn -1 0 1.192093E-07
vn -1 0 1.192093E-07
vn -1 0 1.192093E-07
vn -1 0 1.192093E-07
vn 1.192093E-07 0 -1
vn 1.192093E-07 0 -1
vn 1.192093E-07 0 -1
vn 1.192093E-07 0 -1
vn 1.192093E-07 0 -1
vn 1.192093E-07 0 -1
vn 1.192093E-07 0 -1
vn -1.192093E-07 0 1
vn -1.192093E-07 0 1
vn -1.192093E-07 0 1
vn -1.192093E-07 0 1
vn -1.192093E-07 0 1
vn -1.192093E-07 0 1
vn -1.192093E-07 0 1
vn -1 0 1.192093E-07
vn -1 0 1.192093E-07
vn -1 0 1.192093E-07
vn -1 0 1.192093E-07
vn -1.192093E-07 0 1
vn -1.192093E-07 0 1
vn -1.192093E-07 0 1
vn -1.192093E-07 0 1
vn -1 0 1.192093E-07
vn -1 0 1.192093E-07
vn -1 0 1.192093E-07
vn -1 0 1.192093E-07
vn -1.192093E-07 0 1
vn -1.192093E-07 0 1
vn -1.192093E-07 0 1
vn -1.192093E-07 0 1
vn 1 0 -1.192093E-07
vn 1 0 -1.192093E-07
vn 1 0 -1.192093E-07
vn 1 0 -1.192093E-07
vn 1 0 -1.192093E-07
vn 1 0 -1.192093E-07
vn 1 0 -1.192093E-07
vn 1 0 -1.192093E-07
vn 1.192093E-07 0 -1
vn 1.192093E-07 0 -1
vn 1.192093E-07 0 -1
vn 1.192093E-07 0 -1
vn 1.192093E-07 0 -1
vn 1.192093E-07 0 -1
vn 1.192093E-07 0 -1
vn 1.192093E-07 0 -1
vn 1.192093E-07 0 -1
vn 1.192093E-07 0 -1
vn 1.192093E-07 0 -1
vn 1.192093E-07 0 -1
vn -1 0 1.192093E-07
vn -1 0 1.192093E-07
vn -1 0 1.192093E-07
vn -1 0 1.192093E-07
vn 1.192093E-07 0 -1
vn 1.192093E-07 0 -1
vn 1.192093E-07 0 -1
vn 1.192093E-07 0 -1
vn -1 0 1.192093E-07
vn -1 0 1.192093E-07
vn -1 0 1.192093E-07
vn -1 0 1.192093E-07
vn 1 0 -1.192093E-07
vn 1 0 -1.192093E-07
vn 1 0 -1.192093E-07
vn 1 0 -1.192093E-07
vn 1 0 -1.192093E-07
vn 1 0 -1.192093E-07
vn 1 0 -1.192093E-07
vn 1 0 -1.192093E-07
vn -1.192093E-07 0 1
vn -1.192093E-07 0 1
vn -1.192093E-07 0 1
vn -1.192093E-07 0 1
vn -1.192093E-07 0 1
vn -1.192093E-07 0 1
vn -1.192093E-07 0 1
vn -1.192093E-07 0 1
vn 2.980232E-08 1 0
vn 2.980232E-08 1 0
vn 2.980232E-08 1 0
vn 2.980232E-08 1 0
g _Combined_Vis4_0_0
f 3/3/3 2/2/2 1/1/1
f 6/6/6 5/5/5 4/4/4
f 9/9/9 8/8/8 7/7/7
f 12/12/12 11/11/11 10/10/10
f 15/15/15 14/14/14 13/13/13
f 18/18/18 17/17/17 16/16/16
f 21/21/21 20/20/20 19/19/19
f 24/24/24 23/23/23 22/22/22
f 27/27/27 26/26/26 25/25/25
f 30/30/30 29/29/29 28/28/28
f 33/33/33 32/32/32 31/31/31
f 14/14/14 35/35/35 34/34/34
f 38/38/38 37/37/37 36/36/36
f 41/41/41 40/40/40 39/39/39
f 44/44/44 43/43/43 42/42/42
f 47/47/47 46/46/46 45/45/45
f 50/50/50 49/49/49 48/48/48
f 49/49/49 51/51/51 48/48/48
f 51/51/51 52/52/52 48/48/48
f 52/52/52 53/53/53 48/48/48
f 56/56/56 55/55/55 54/54/54
f 57/57/57 56/56/56 54/54/54
f 60/60/60 59/59/59 58/58/58
f 61/61/61 60/60/60 58/58/58
f 62/62/62 61/61/61 58/58/58
f 63/63/63 62/62/62 58/58/58
f 66/66/66 65/65/65 64/64/64
f 67/67/67 66/66/66 64/64/64
f 70/70/70 69/69/69 68/68/68
f 69/69/69 71/71/71 68/68/68
f 71/71/71 72/72/72 68/68/68
f 72/72/72 73/73/73 68/68/68
f 76/76/76 75/75/75 74/74/74
f 75/75/75 77/77/77 74/74/74
f 77/77/77 78/78/78 74/74/74
f 78/78/78 79/79/79 74/74/74
f 82/82/82 81/81/81 80/80/80
f 83/83/83 82/82/82 80/80/80
f 86/86/86 85/85/85 84/84/84
f 87/87/87 86/86/86 84/84/84
f 90/90/90 89/89/89 88/88/88
f 89/89/89 91/91/91 88/88/88
f 91/91/91 92/92/92 88/88/88
f 92/92/92 93/93/93 88/88/88
f 96/96/96 95/95/95 94/94/94
f 97/97/97 96/96/96 94/94/94
f 100/100/100 99/99/99 98/98/98
f 101/101/101 100/100/100 98/98/98
f 102/102/102 101/101/101 98/98/98
f 103/103/103 102/102/102 98/98/98
f 106/106/106 105/105/105 104/104/104
f 107/107/107 106/106/106 104/104/104
f 110/110/110 109/109/109 108/108/108
f 111/111/111 110/110/110 108/108/108
f 112/112/112 111/111/111 108/108/108
f 113/113/113 112/112/112 108/108/108
f 116/116/116 115/115/115 114/114/114
f 117/117/117 116/116/116 114/114/114
f 118/118/118 117/117/117 114/114/114
f 119/119/119 118/118/118 114/114/114
f 122/122/122 121/121/121 120/120/120
f 123/123/123 122/122/122 120/120/120
f 126/126/126 125/125/125 124/124/124
f 127/127/127 126/126/126 124/124/124
f 130/130/130 129/129/129 128/128/128
f 131/131/131 130/130/130 128/128/128
f 131/131/131 128/128/128 132/132/132
f 128/128/128 133/133/133 132/132/132
f 132/132/132 133/133/133 134/134/134
f 137/137/137 136/136/136 135/135/135
f 136/136/136 138/138/138 135/135/135
f 135/135/135 138/138/138 139/139/139
f 140/140/140 135/135/135 139/139/139
f 140/140/140 139/139/139 141/141/141
f 144/144/144 143/143/143 142/142/142
f 145/145/145 144/144/144 142/142/142
f 145/145/145 142/142/142 146/146/146
f 142/142/142 147/147/147 146/146/146
f 146/146/146 147/147/147 148/148/148
f 151/151/151 150/150/150 149/149/149
f 151/151/151 152/152/152 150/150/150
f 152/152/152 153/153/153 150/150/150
f 154/154/154 153/153/153 152/152/152
f 155/155/155 154/154/154 152/152/152
f 158/158/158 157/157/157 156/156/156
f 157/157/157 159/159/159 156/156/156
f 156/156/156 159/159/159 160/160/160
f 161/161/161 156/156/156 160/160/160
f 161/161/161 160/160/160 162/162/162
f 165/165/165 164/164/164 163/163/163
f 166/166/166 165/165/165 163/163/163
f 166/166/166 163/163/163 167/167/167
f 163/163/163 168/168/168 167/167/167
f 167/167/167 168/168/168 169/169/169
f 172/172/172 171/171/171 170/170/170
f 173/173/173 172/172/172 170/170/170
f 173/173/173 170/170/170 174/174/174
f 170/170/170 175/175/175 174/174/174
f 174/174/174 175/175/175 176/176/176
f 179/179/179 178/178/178 177/177/177
f 178/178/178 180/180/180 177/177/177
f 177/177/177 180/180/180 181/181/181
f 182/182/182 177/177/177 181/181/181
f 182/182/182 181/181/181 183/183/183
f 186/186/186 185/185/185 184/184/184
f 187/187/187 186/186/186 184/184/184
f 190/190/190 189/189/189 188/188/188
f 191/191/191 190/190/190 188/188/188
f 194/194/194 193/193/193 192/192/192
f 195/195/195 194/194/194 192/192/192
f 198/198/198 197/197/197 196/196/196
f 199/199/199 198/198/198 196/196/196
f 202/202/202 201/201/201 200/200/200
f 203/203/203 202/202/202 200/200/200
f 206/206/206 205/205/205 204/204/204
f 207/207/207 206/206/206 204/204/204
f 210/210/210 209/209/209 208/208/208
f 211/211/211 210/210/210 208/208/208
f 214/214/214 213/213/213 212/212/212
f 215/215/215 214/214/214 212/212/212
f 218/218/218 217/217/217 216/216/216
f 219/219/219 218/218/218 216/216/216
f 222/222/222 221/221/221 220/220/220
f 223/223/223 222/222/222 220/220/220
f 226/226/226 225/225/225 224/224/224
f 227/227/227 226/226/226 224/224/224
f 230/230/230 229/229/229 228/228/228
f 231/231/231 230/230/230 228/228/228
f 234/234/234 233/233/233 232/232/232
f 235/235/235 234/234/234 232/232/232
f 238/238/238 237/237/237 236/236/236
f 239/239/239 238/238/238 236/236/236
f 242/242/242 241/241/241 240/240/240
f 243/243/243 242/242/242 240/240/240
f 246/246/246 245/245/245 244/244/244
f 247/247/247 246/246/246 244/244/244
f 250/250/250 249/249/249 248/248/248
f 251/251/251 250/250/250 248/248/248
