g _Combined_Vis60_0
v -0.2500001 0.2 0.2500001
v -0.2500001 -5.960464E-08 -0.25
v -0.3121911 -6.701839E-08 0.2500001
v -0.9079478 2 -0.7500001
v -1.25 2 -0.6114551
v -1.25 1.714328 -0.7500002
v -1.25 -1.788139E-07 0.2500001
v -1.25 2 -0.6114551
v -1.25 2 0.2500001
v -1.25 -1.788139E-07 -0.7500002
v -1.25 1.714328 -0.7500002
v -0.25 -5.960464E-08 -0.7500001
v -0.2499999 2 0.2500001
v -0.2499998 2 -0.7500001
v -0.2500001 -5.960464E-08 -0.25
v -0.2500001 0.2 0.2500001
v -1.25 -1.788139E-07 -0.7500002
v -1.25 -1.788139E-07 0.2500001
v -0.25 -5.960464E-08 -0.7500001
v -0.3121911 -6.701839E-08 0.2500001
v -0.2500001 -5.960464E-08 -0.25
v -1.25 2 0.2500001
v -0.3121911 -6.701839E-08 0.2500001
v -1.25 -1.788139E-07 0.2500001
v -0.2499999 2 0.2500001
v -0.2500001 0.2 0.2500001
v -1.25 2 -0.6114551
v -0.2499999 2 0.2500001
v -1.25 2 0.2500001
v -0.9079478 2 -0.7500001
v -0.2499998 2 -0.7500001
v -1.25 -1.788139E-07 -0.7500002
v -0.9079478 2 -0.7500001
v -1.25 1.714328 -0.7500002
v -0.25 -5.960464E-08 -0.7500001
v -0.2499998 2 -0.7500001
v -1.123471 2.874997 0.25
v -1.123471 2.874997 -0.75
v -0.998471 2.874997 -0.75
v -0.998471 2.874997 0.25
v -0.873471 2.749997 0.25
v -0.998471 2.749997 0.25
v -0.998471 2.749997 -0.75
v -0.873471 2.749997 -0.75
v -0.873471 2.624997 -0.75
v -0.748471 2.624997 -0.75
v -0.748471 2.624997 0.25
v -0.873471 2.624997 0.25
v -0.623471 2.499997 0.25
v -0.748471 2.499997 0.25
v -0.748471 2.499997 -0.75
v -0.623471 2.499997 -0.75
v -1.250003 2.999997 0.25
v -1.250003 2.999997 -0.75
v -1.123471 2.999997 -0.75
v -1.123471 2.999997 0.25
v -0.623471 2.374997 -0.75
v -0.498471 2.374997 -0.75
v -0.498471 2.374997 0.25
v -0.623471 2.374997 0.25
v -0.373471 2.249997 0.25
v -0.498471 2.249997 0.25
v -0.498471 2.249997 -0.75
v -0.373471 2.249997 -0.75
v -0.373471 2.124997 -0.75
v -0.250001 2.124997 -0.75
v -0.250002 2.124997 0.25
v -0.373471 2.124997 0.25
v -0.250002 2.124997 0.25
v -0.2499999 2 0.2500001
v -1.25 2 0.2500001
v -0.373471 2.124997 0.25
v -0.373471 2.249997 0.25
v -0.498471 2.249997 0.25
v -0.498471 2.374997 0.25
v -0.623471 2.374997 0.25
v -0.623471 2.499997 0.25
v -0.748471 2.499997 0.25
v -0.748471 2.624997 0.25
v -0.873471 2.624997 0.25
v -0.873471 2.749997 0.25
v -0.998471 2.749997 0.25
v -0.998471 2.874997 0.25
v -1.123471 2.874997 0.25
v -1.123471 2.999997 0.25
v -1.250003 2.999997 0.25
v -0.373471 2.124997 0.25
v -0.373471 2.249997 0.25
v -0.373471 2.249997 -0.75
v -0.373471 2.124997 -0.75
v -0.873471 2.624997 -0.75
v -0.748471 2.499997 -0.75
v -0.748471 2.624997 -0.75
v -1.250003 1.999997 -0.75
v -0.998471 2.749997 -0.75
v -0.873471 2.749997 -0.75
v -0.623471 2.374997 -0.75
v -0.623471 2.499997 -0.75
v -1.123471 2.874997 -0.75
v -0.998471 2.874997 -0.75
v -1.250003 2.999997 -0.75
v -1.123471 2.999997 -0.75
v -0.498471 2.249997 -0.75
v -0.498471 2.374997 -0.75
v -0.373471 2.124997 -0.75
v -0.373471 2.249997 -0.75
v -0.2499998 2 -0.7500001
v -0.250001 2.124997 -0.75
v -0.498471 2.374997 -0.75
v -0.498471 2.249997 -0.75
v -0.498471 2.249997 0.25
v -0.498471 2.374997 0.25
v -0.623471 2.499997 -0.75
v -0.623471 2.374997 -0.75
v -0.623471 2.374997 0.25
v -0.623471 2.499997 0.25
v -0.748471 2.624997 -0.75
v -0.748471 2.499997 -0.75
v -0.748471 2.499997 0.25
v -0.748471 2.624997 0.25
v -0.873471 2.749997 -0.75
v -0.873471 2.624997 -0.75
v -0.873471 2.624997 0.25
v -0.873471 2.749997 0.25
v -0.998471 2.874997 -0.75
v -0.998471 2.749997 -0.75
v -0.998471 2.749997 0.25
v -0.998471 2.874997 0.25
v -1.123471 2.999997 0.25
v -1.123471 2.999997 -0.75
v -1.123471 2.874997 -0.75
v -1.123471 2.874997 0.25
v -0.250001 2.124997 -0.75
v -0.2499998 2 -0.7500001
v -0.2499999 2 0.2500001
v -0.250002 2.124997 0.25
v -0.2499999 2 0.2500001
v 0.75 2 0.250001
v 0.75 2 1.25
v -0.25 2 1.25
v -0.2499998 2 -0.7500001
v 0.75 2 -0.749999
v 0.75 2 0.250001
v -0.2499999 2 0.2500001
vt 0.8999321 0.1676086
vt 0.8483171 0.1700099
vt 0.8981889 0.1797981
vt 0.8956146 0.2081751
vt 0.8552164 0.1905135
vt 0.8519499 0.2142449
vt 0.96875 0.09375
vt 0.90625 0.147591
vt 0.90625 0.09375
vt 0.96875 0.15625
vt 0.9151772 0.15625
vt 0.96875 0.15625
vt 0.90625 0.09375
vt 0.90625 0.15625
vt 0.96875 0.125
vt 0.9625 0.09375
vt 0.90625 0.15625
vt 0.90625 0.09375
vt 0.84375 0.15625
vt 0.8476369 0.09375
vt 0.84375 0.125
vt 0.96875 0.15625
vt 0.90625 0.2148631
vt 0.90625 0.15625
vt 0.96875 0.21875
vt 0.9125 0.21875
vt 0.90625 0.147591
vt 0.84375 0.09375
vt 0.90625 0.09375
vt 0.8848717 0.15625
vt 0.84375 0.15625
vt 0.96875 0.21875
vt 0.90625 0.1973718
vt 0.9151772 0.21875
vt 0.96875 0.15625
vt 0.90625 0.15625
vt 0.90625 0.1062457
vt 0.84375 0.1062457
vt 0.84375 0.1125419
vt 0.90625 0.1125419
vt 0.90625 0.118838
vt 0.90625 0.1125419
vt 0.84375 0.1125419
vt 0.84375 0.118838
vt 0.84375 0.118838
vt 0.84375 0.1251342
vt 0.90625 0.1251342
vt 0.90625 0.118838
vt 0.90625 0.1314304
vt 0.90625 0.1251342
vt 0.84375 0.1251342
vt 0.84375 0.1314304
vt 0.90625 0.0999495
vt 0.84375 0.0999495
vt 0.84375 0.1062457
vt 0.90625 0.1062457
vt 0.84375 0.1314304
vt 0.84375 0.1377265
vt 0.90625 0.1377265
vt 0.90625 0.1314304
vt 0.90625 0.1440227
vt 0.90625 0.1377265
vt 0.84375 0.1377265
vt 0.84375 0.1440227
vt 0.84375 0.1440227
vt 0.84375 0.1503189
vt 0.90625 0.1503189
vt 0.90625 0.1440227
vt 0.96875 0.1640625
vt 0.96875 0.15625
vt 0.90625 0.15625
vt 0.9609375 0.1640625
vt 0.9609375 0.171875
vt 0.953125 0.171875
vt 0.953125 0.1796875
vt 0.9453125 0.1796875
vt 0.9453125 0.1875
vt 0.9375 0.1875
vt 0.9375 0.1953125
vt 0.9296875 0.1953125
vt 0.9296875 0.203125
vt 0.921875 0.203125
vt 0.921875 0.2109375
vt 0.9140625 0.2109375
vt 0.9140625 0.21875
vt 0.90625 0.21875
vt 0.90625 0.1062457
vt 0.90625 0.1125419
vt 0.96875 0.1125419
vt 0.96875 0.1062457
vt 0.9296875 0.1953125
vt 0.9375 0.1875
vt 0.9375 0.1953125
vt 0.90625 0.15625
vt 0.921875 0.203125
vt 0.9296875 0.203125
vt 0.9453125 0.1796875
vt 0.9453125 0.1875
vt 0.9140625 0.2109375
vt 0.921875 0.2109375
vt 0.90625 0.21875
vt 0.9140625 0.21875
vt 0.953125 0.171875
vt 0.953125 0.1796875
vt 0.9609375 0.1640625
vt 0.9609375 0.171875
vt 0.96875 0.15625
vt 0.96875 0.1640625
vt 0.96875 0.118838
vt 0.96875 0.1125419
vt 0.90625 0.1125419
vt 0.90625 0.118838
vt 0.96875 0.1251342
vt 0.96875 0.118838
vt 0.90625 0.118838
vt 0.90625 0.1251342
vt 0.96875 0.1314304
vt 0.96875 0.1251342
vt 0.90625 0.1251342
vt 0.90625 0.1314304
vt 0.96875 0.1377265
vt 0.96875 0.1314304
vt 0.90625 0.1314304
vt 0.90625 0.1377265
vt 0.96875 0.1440227
vt 0.96875 0.1377265
vt 0.90625 0.1377265
vt 0.90625 0.1440227
vt 0.90625 0.1503189
vt 0.96875 0.1503189
vt 0.96875 0.1440227
vt 0.90625 0.1440227
vt 0.96875 0.1062457
vt 0.96875 0.0999495
vt 0.90625 0.0999495
vt 0.90625 0.1062457
vt 0.71875 0.78125
vt 0.71875 0.65625
vt 0.59375 0.65625
vt 0.59375 0.78125
vt 0.71875 0.78125
vt 0.71875 0.65625
vt 0.59375 0.65625
vt 0.59375 0.78125
vn 0.9482414 -0.2948454 0.1179177
vn 0.9482414 -0.2948454 0.1179177
vn 0.9482414 -0.2948454 0.1179177
vn -0.3423854 0.4099866 -0.8453894
vn -0.3423854 0.4099866 -0.8453894
vn -0.3423854 0.4099866 -0.8453894
vn -1 -1.192093E-07 -8.742278E-08
vn -1 -1.192093E-07 -8.742278E-08
vn -1 -1.192093E-07 -8.742278E-08
vn -1 -1.192093E-07 -8.742278E-08
vn -1 -1.192093E-07 -8.742278E-08
vn 1 1.192093E-07 8.742278E-08
vn 1 1.192093E-07 8.742278E-08
vn 1 1.192093E-07 8.742278E-08
vn 1 1.192093E-07 8.742278E-08
vn 1 1.192093E-07 8.742278E-08
vn -1.192093E-07 -1 0
vn -1.192093E-07 -1 0
vn -1.192093E-07 -1 0
vn -1.192093E-07 -1 0
vn -1.192093E-07 -1 0
vn -8.742277E-08 0 1
vn -8.742277E-08 0 1
vn -8.742277E-08 0 1
vn -8.742277E-08 0 1
vn -8.742277E-08 0 1
vn 1.192093E-07 1 0
vn 1.192093E-07 1 0
vn 1.192093E-07 1 0
vn 1.192093E-07 1 0
vn 1.192093E-07 1 0
vn 8.742277E-08 0 -1
vn 8.742277E-08 0 -1
vn 8.742277E-08 0 -1
vn 8.742277E-08 0 -1
vn 8.742277E-08 0 -1
vn 0 1 0
vn 0 1 0
vn 0 1 0
vn 0 1 0
vn 0 1 0
vn 0 1 0
vn 0 1 0
vn 0 1 0
vn 0 1 0
vn 0 1 0
vn 0 1 0
vn 0 1 0
vn 0 1 0
vn 0 1 0
vn 0 1 0
vn 0 1 0
vn 0 1 0
vn 0 1 0
vn 0 1 0
vn 0 1 0
vn 0 1 0
vn 0 1 0
vn 0 1 0
vn 0 1 0
vn 0 1 0
vn 0 1 0
vn 0 1 0
vn 0 1 0
vn 0 1 0
vn 0 1 0
vn 0 1 0
vn 0 1 0
vn 0 0 1
vn 0 0 1
vn 0 0 1
vn 0 0 1
vn 0 0 1
vn 0 0 1
vn 0 0 1
vn 0 0 1
vn 0 0 1
vn 0 0 1
vn 0 0 1
vn 0 0 1
vn 0 0 1
vn 0 0 1
vn 0 0 1
vn 0 0 1
vn 0 0 1
vn 0 0 1
vn 1 0 0
vn 1 0 0
vn 1 0 0
vn 1 0 0
vn 0 0 -1
vn 0 0 -1
vn 0 0 -1
vn 0 0 -1
vn 0 0 -1
vn 0 0 -1
vn 0 0 -1
vn 0 0 -1
vn 0 0 -1
vn 0 0 -1
vn 0 0 -1
vn 0 0 -1
vn 0 0 -1
vn 0 0 -1
vn 0 0 -1
vn 0 0 -1
vn 0 0 -1
vn 0 0 -1
vn 1 0 0
vn 1 0 0
vn 1 0 0
vn 1 0 0
vn 1 0 0
vn 1 0 0
vn 1 0 0
vn 1 0 0
vn 1 0 0
vn 1 0 0
vn 1 0 0
vn 1 0 0
vn 1 0 0
vn 1 0 0
vn 1 0 0
vn 1 0 0
vn 1 0 0
vn 1 0 0
vn 1 0 0
vn 1 0 0
vn 1 0 0
vn 1 0 0
vn 1 0 0
vn 1 0 0
vn 1 0 0
vn 1 0 0
vn 1 0 0
vn 1 0 0
vn 0 1 0
vn 0 1 0
vn 0 1 0
vn 0 1 0
vn 0 1 0
vn 0 1 0
vn 0 1 0
vn 0 1 0
g _Combined_Vis60_0_0
f 3/3/3 2/2/2 1/1/1
f 6/6/6 5/5/5 4/4/4
f 9/9/9 8/8/8 7/7/7
f 7/7/7 8/8/8 10/10/10
f 10/10/10 8/8/8 11/11/11
f 14/14/14 13/13/13 12/12/12
f 13/13/13 15/15/15 12/12/12
f 16/16/16 15/15/15 13/13/13
f 19/19/19 18/18/18 17/17/17
f 20/20/20 18/18/18 19/19/19
f 21/21/21 20/20/20 19/19/19
f 24/24/24 23/23/23 22/22/22
f 22/22/22 23/23/23 25/25/25
f 23/23/23 26/26/26 25/25/25
f 29/29/29 28/28/28 27/27/27
f 27/27/27 28/28/28 30/30/30
f 30/30/30 28/28/28 31/31/31
f 34/34/34 33/33/33 32/32/32
f 32/32/32 33/33/33 35/35/35
f 33/33/33 36/36/36 35/35/35
f 39/39/39 38/38/38 37/37/37
f 40/40/40 39/39/39 37/37/37
f 43/43/43 42/42/42 41/41/41
f 44/44/44 43/43/43 41/41/41
f 47/47/47 46/46/46 45/45/45
f 48/48/48 47/47/47 45/45/45
f 51/51/51 50/50/50 49/49/49
f 52/52/52 51/51/51 49/49/49
f 55/55/55 54/54/54 53/53/53
f 56/56/56 55/55/55 53/53/53
f 59/59/59 58/58/58 57/57/57
f 60/60/60 59/59/59 57/57/57
f 63/63/63 62/62/62 61/61/61
f 64/64/64 63/63/63 61/61/61
f 67/67/67 66/66/66 65/65/65
f 68/68/68 67/67/67 65/65/65
f 71/71/71 70/70/70 69/69/69
f 72/72/72 71/71/71 69/69/69
f 71/71/71 72/72/72 73/73/73
f 74/74/74 71/71/71 73/73/73
f 71/71/71 74/74/74 75/75/75
f 76/76/76 71/71/71 75/75/75
f 71/71/71 76/76/76 77/77/77
f 78/78/78 71/71/71 77/77/77
f 71/71/71 78/78/78 79/79/79
f 80/80/80 71/71/71 79/79/79
f 71/71/71 80/80/80 81/81/81
f 82/82/82 71/71/71 81/81/81
f 71/71/71 82/82/82 83/83/83
f 84/84/84 71/71/71 83/83/83
f 71/71/71 84/84/84 85/85/85
f 86/86/86 71/71/71 85/85/85
f 89/89/89 88/88/88 87/87/87
f 90/90/90 89/89/89 87/87/87
f 93/93/93 92/92/92 91/91/91
f 92/92/92 94/94/94 91/91/91
f 91/91/91 94/94/94 95/95/95
f 96/96/96 91/91/91 95/95/95
f 97/97/97 94/94/94 92/92/92
f 98/98/98 97/97/97 92/92/92
f 95/95/95 94/94/94 99/99/99
f 100/100/100 95/95/95 99/99/99
f 99/99/99 94/94/94 101/101/101
f 102/102/102 99/99/99 101/101/101
f 103/103/103 94/94/94 97/97/97
f 104/104/104 103/103/103 97/97/97
f 94/94/94 103/103/103 105/105/105
f 103/103/103 106/106/106 105/105/105
f 107/107/107 94/94/94 105/105/105
f 108/108/108 107/107/107 105/105/105
f 111/111/111 110/110/110 109/109/109
f 112/112/112 111/111/111 109/109/109
f 115/115/115 114/114/114 113/113/113
f 116/116/116 115/115/115 113/113/113
f 119/119/119 118/118/118 117/117/117
f 120/120/120 119/119/119 117/117/117
f 123/123/123 122/122/122 121/121/121
f 124/124/124 123/123/123 121/121/121
f 127/127/127 126/126/126 125/125/125
f 128/128/128 127/127/127 125/125/125
f 131/131/131 130/130/130 129/129/129
f 132/132/132 131/131/131 129/129/129
f 135/135/135 134/134/134 133/133/133
f 136/136/136 135/135/135 133/133/133
f 139/139/139 138/138/138 137/137/137
f 140/140/140 139/139/139 137/137/137
f 143/143/143 142/142/142 141/141/141
f 144/144/144 143/143/143 141/141/141
