g _Combined_Vis9_0
v -0.7500001 -0.2500011 -0.25
v 0.25 -0.249999 -0.25
v 0.2500001 0.7500001 -0.25
v -0.75 0.75 -0.25
v 0.2500001 0.7500001 -0.25
v 0.25 0.750001 0.75
v 0.25 1.75 0.75
v 0.25 1.75 -0.25
v 0.2500001 0.7500001 -0.25
v 0.25 1.75 -0.25
v -0.7500001 1.75 -0.25
v -0.75 0.75 -0.25
v 0.25 0.750001 0.75
v 0.2500001 0.7500001 -0.25
v 0.25 -0.249999 -0.25
v 0.25 -0.25 0.75
v -0.7500001 1.75 -0.25
v 0.25 1.75 -0.25
v 0.25 1.75 0.75
v -0.75 1.75 0.75
v -0.750001 -1.25 -0.25
v -0.749999 -2.25 -0.25
v 0.25 -2.25 -0.25
v 0.25 -1.25 -0.25
v 0.25 -1.25 -0.25
v 0.25 -2.25 -0.25
v 0.2500001 -2.25 0.7500001
v 0.2500001 -1.25 0.7500001
v 0.25 -1.25 -0.25
v 0.25 -0.249999 -0.25
v -0.7500001 -0.2500011 -0.25
v -0.750001 -1.25 -0.25
v 0.25 -0.25 0.75
v 0.25 -0.249999 -0.25
v 0.25 -1.25 -0.25
v 0.2500001 -1.25 0.7500001
vt 0.609375 0.828125
vt 0.609375 0.703125
vt 0.484375 0.703125
vt 0.484375 0.828125
vt 0.921875 0.203125
vt 0.921875 0.078125
vt 0.796875 0.078125
vt 0.796875 0.203125
vt 0.921875 0.203125
vt 0.921875 0.078125
vt 0.796875 0.078125
vt 0.796875 0.203125
vt 0.921875 0.203125
vt 0.921875 0.078125
vt 0.796875 0.078125
vt 0.796875 0.203125
vt 0.421875 0.671875
vt 0.421875 0.546875
vt 0.296875 0.546875
vt 0.296875 0.671875
vt 0.609375 0.984375
vt 0.609375 0.859375
vt 0.484375 0.859375
vt 0.484375 0.984375
vt 0.609375 0.984375
vt 0.609375 0.859375
vt 0.484375 0.859375
vt 0.484375 0.984375
vt 0.921875 0.203125
vt 0.921875 0.078125
vt 0.796875 0.078125
vt 0.796875 0.203125
vt 0.921875 0.203125
vt 0.921875 0.078125
vt 0.796875 0.078125
vt 0.796875 0.203125
vn 8.742277E-08 0 -1
vn 8.742277E-08 0 -1
vn 8.742277E-08 0 -1
vn 8.742277E-08 0 -1
vn 1 0 0
vn 1 0 0
vn 1 0 0
vn 1 0 0
vn 8.742278E-08 0 -1
vn 8.742278E-08 0 -1
vn 8.742278E-08 0 -1
vn 8.742278E-08 0 -1
vn 1 0 0
vn 1 0 0
vn 1 0 0
vn 1 0 0
vn 0 1 0
vn 0 1 0
vn 0 1 0
vn 0 1 0
vn 8.742278E-08 0 -1
vn 8.742278E-08 0 -1
vn 8.742278E-08 0 -1
vn 8.742278E-08 0 -1
vn 1 0 -1.192093E-07
vn 1 0 -1.192093E-07
vn 1 0 -1.192093E-07
vn 1 0 -1.192093E-07
vn 8.742278E-08 0 -1
vn 8.742278E-08 0 -1
vn 8.742278E-08 0 -1
vn 8.742278E-08 0 -1
vn 1 0 0
vn 1 0 0
vn 1 0 0
vn 1 0 0
g _Combined_Vis9_0_0
f 3/3/3 2/2/2 1/1/1
f 4/4/4 3/3/3 1/1/1
f 7/7/7 6/6/6 5/5/5
f 8/8/8 7/7/7 5/5/5
f 11/11/11 10/10/10 9/9/9
f 12/12/12 11/11/11 9/9/9
f 15/15/15 14/14/14 13/13/13
f 16/16/16 15/15/15 13/13/13
f 19/19/19 18/18/18 17/17/17
f 20/20/20 19/19/19 17/17/17
f 23/23/23 22/22/22 21/21/21
f 24/24/24 23/23/23 21/21/21
f 27/27/27 26/26/26 25/25/25
f 28/28/28 27/27/27 25/25/25
f 31/31/31 30/30/30 29/29/29
f 32/32/32 31/31/31 29/29/29
f 35/35/35 34/34/34 33/33/33
f 36/36/36 35/35/35 33/33/33
