g _Combined_Vis9_0
v 19.68001 -36.5 -18.60001
v 19.60001 -36.5 -19.00001
v 19.60001 -36.43781 -18.60001
v 20.40001 -35.84205 -19.40001
v 20.40001 -35.5 -19.28917
v 20.28574 -35.5 -19.40001
v 19.60001 -35.5 -18.60001
v 20.40001 -35.5 -19.28917
v 20.40001 -35.5 -18.60001
v 19.60001 -35.5 -19.40001
v 20.28574 -35.5 -19.40001
v 19.60001 -36.5 -19.40001
v 20.40001 -36.5 -18.60001
v 20.40001 -36.5 -19.40001
v 19.60001 -36.5 -19.00001
v 19.68001 -36.5 -18.60001
v 19.60001 -35.5 -19.40001
v 19.60001 -35.5 -18.60001
v 19.60001 -36.5 -19.40001
v 19.60001 -36.43781 -18.60001
v 19.60001 -36.5 -19.00001
v 20.40001 -35.5 -18.60001
v 19.60001 -36.43781 -18.60001
v 19.60001 -35.5 -18.60001
v 20.40001 -36.5 -18.60001
v 19.68001 -36.5 -18.60001
v 20.40001 -35.5 -19.28917
v 20.40001 -36.5 -18.60001
v 20.40001 -35.5 -18.60001
v 20.40001 -35.84205 -19.40001
v 20.40001 -36.5 -19.40001
v 19.60001 -35.5 -19.40001
v 20.40001 -35.84205 -19.40001
v 20.28574 -35.5 -19.40001
v 19.60001 -36.5 -19.40001
v 20.40001 -36.5 -19.40001
v 19.32001 -36.5 -18.4
v 19.40001 -36.5 -18
v 19.40001 -36.43781 -18.4
v 18.60001 -35.84205 -17.6
v 18.60001 -35.5 -17.71084
v 18.71427 -35.5 -17.6
v 19.40001 -35.5 -18.4
v 18.60001 -35.5 -17.71084
v 18.60001 -35.5 -18.4
v 19.40001 -35.5 -17.6
v 18.71427 -35.5 -17.6
v 19.40001 -36.5 -17.6
v 18.60001 -36.5 -18.4
v 18.60001 -36.5 -17.6
v 19.40001 -36.5 -18
v 19.32001 -36.5 -18.4
v 19.40001 -35.5 -17.6
v 19.40001 -35.5 -18.4
v 19.40001 -36.5 -17.6
v 19.40001 -36.43781 -18.4
v 19.40001 -36.5 -18
v 18.60001 -35.5 -18.4
v 19.40001 -36.43781 -18.4
v 19.40001 -35.5 -18.4
v 18.60001 -36.5 -18.4
v 19.32001 -36.5 -18.4
v 18.60001 -35.5 -17.71084
v 18.60001 -36.5 -18.4
v 18.60001 -35.5 -18.4
v 18.60001 -35.84205 -17.6
v 18.60001 -36.5 -17.6
v 19.40001 -35.5 -17.6
v 18.60001 -35.84205 -17.6
v 18.71427 -35.5 -17.6
v 19.40001 -36.5 -17.6
v 18.60001 -36.5 -17.6
vt 0.8999321 0.1676086
vt 0.8483171 0.1700099
vt 0.8981889 0.1797981
vt 0.8956146 0.2081751
vt 0.8552164 0.1905135
vt 0.8519499 0.2142449
vt 0.96875 0.09375
vt 0.90625 0.147591
vt 0.90625 0.09375
vt 0.96875 0.15625
vt 0.9151772 0.15625
vt 0.96875 0.15625
vt 0.90625 0.09375
vt 0.90625 0.15625
vt 0.96875 0.125
vt 0.9625 0.09375
vt 0.90625 0.15625
vt 0.90625 0.09375
vt 0.84375 0.15625
vt 0.8476369 0.09375
vt 0.84375 0.125
vt 0.96875 0.15625
vt 0.90625 0.2148631
vt 0.90625 0.15625
vt 0.96875 0.21875
vt 0.9125 0.21875
vt 0.90625 0.147591
vt 0.84375 0.09375
vt 0.90625 0.09375
vt 0.8848717 0.15625
vt 0.84375 0.15625
vt 0.96875 0.21875
vt 0.90625 0.1973718
vt 0.9151772 0.21875
vt 0.96875 0.15625
vt 0.90625 0.15625
vt 0.8999321 0.1676086
vt 0.8483171 0.1700099
vt 0.8981889 0.1797981
vt 0.8956146 0.2081751
vt 0.8552164 0.1905135
vt 0.8519499 0.2142449
vt 0.96875 0.09375
vt 0.90625 0.147591
vt 0.90625 0.09375
vt 0.96875 0.15625
vt 0.9151772 0.15625
vt 0.96875 0.15625
vt 0.90625 0.09375
vt 0.90625 0.15625
vt 0.96875 0.125
vt 0.9625 0.09375
vt 0.90625 0.15625
vt 0.90625 0.09375
vt 0.84375 0.15625
vt 0.8476369 0.09375
vt 0.84375 0.125
vt 0.96875 0.15625
vt 0.90625 0.2148631
vt 0.90625 0.15625
vt 0.96875 0.21875
vt 0.9125 0.21875
vt 0.90625 0.147591
vt 0.84375 0.09375
vt 0.90625 0.09375
vt 0.8848717 0.15625
vt 0.84375 0.15625
vt 0.96875 0.21875
vt 0.90625 0.1973718
vt 0.9151772 0.21875
vt 0.96875 0.15625
vt 0.90625 0.15625
vn -0.609159 -0.7836373 0.1218106
vn -0.609159 -0.7836373 0.1218106
vn -0.609159 -0.7836373 0.1218106
vn 0.6781353 0.226528 -0.6991549
vn 0.6781353 0.226528 -0.6991549
vn 0.6781353 0.226528 -0.6991549
vn 0 1 0
vn 0 1 0
vn 0 1 0
vn 0 1 0
vn 0 1 0
vn 0 -1 0
vn 0 -1 0
vn 0 -1 0
vn 0 -1 0
vn 0 -1 0
vn -1 0 8.881784E-15
vn -1 0 8.881784E-15
vn -1 0 8.881784E-15
vn -1 0 8.881784E-15
vn -1 0 8.881784E-15
vn 8.881784E-15 0 1
vn 8.881784E-15 0 1
vn 8.881784E-15 0 1
vn 8.881784E-15 0 1
vn 8.881784E-15 0 1
vn 1 0 -8.881784E-15
vn 1 0 -8.881784E-15
vn 1 0 -8.881784E-15
vn 1 0 -8.881784E-15
vn 1 0 -8.881784E-15
vn -8.881784E-15 0 -1
vn -8.881784E-15 0 -1
vn -8.881784E-15 0 -1
vn -8.881784E-15 0 -1
vn -8.881784E-15 0 -1
vn 0.609159 -0.7836373 -0.1218106
vn 0.609159 -0.7836373 -0.1218106
vn 0.609159 -0.7836373 -0.1218106
vn -0.6781353 0.226528 0.6991549
vn -0.6781353 0.226528 0.6991549
vn -0.6781353 0.226528 0.6991549
vn 0 1 0
vn 0 1 0
vn 0 1 0
vn 0 1 0
vn 0 1 0
vn 0 -1 0
vn 0 -1 0
vn 0 -1 0
vn 0 -1 0
vn 0 -1 0
vn 1 0 -8.881784E-15
vn 1 0 -8.881784E-15
vn 1 0 -8.881784E-15
vn 1 0 -8.881784E-15
vn 1 0 -8.881784E-15
vn -8.881784E-15 0 -1
vn -8.881784E-15 0 -1
vn -8.881784E-15 0 -1
vn -8.881784E-15 0 -1
vn -8.881784E-15 0 -1
vn -1 0 8.881784E-15
vn -1 0 8.881784E-15
vn -1 0 8.881784E-15
vn -1 0 8.881784E-15
vn -1 0 8.881784E-15
vn 8.881784E-15 0 1
vn 8.881784E-15 0 1
vn 8.881784E-15 0 1
vn 8.881784E-15 0 1
vn 8.881784E-15 0 1
g _Combined_Vis9_0_0
f 3/3/3 2/2/2 1/1/1
f 6/6/6 5/5/5 4/4/4
f 9/9/9 8/8/8 7/7/7
f 7/7/7 8/8/8 10/10/10
f 10/10/10 8/8/8 11/11/11
f 14/14/14 13/13/13 12/12/12
f 13/13/13 15/15/15 12/12/12
f 16/16/16 15/15/15 13/13/13
f 19/19/19 18/18/18 17/17/17
f 20/20/20 18/18/18 19/19/19
f 21/21/21 20/20/20 19/19/19
f 24/24/24 23/23/23 22/22/22
f 22/22/22 23/23/23 25/25/25
f 23/23/23 26/26/26 25/25/25
f 29/29/29 28/28/28 27/27/27
f 27/27/27 28/28/28 30/30/30
f 30/30/30 28/28/28 31/31/31
f 34/34/34 33/33/33 32/32/32
f 32/32/32 33/33/33 35/35/35
f 33/33/33 36/36/36 35/35/35
f 39/39/39 38/38/38 37/37/37
f 42/42/42 41/41/41 40/40/40
f 45/45/45 44/44/44 43/43/43
f 43/43/43 44/44/44 46/46/46
f 46/46/46 44/44/44 47/47/47
f 50/50/50 49/49/49 48/48/48
f 49/49/49 51/51/51 48/48/48
f 52/52/52 51/51/51 49/49/49
f 55/55/55 54/54/54 53/53/53
f 56/56/56 54/54/54 55/55/55
f 57/57/57 56/56/56 55/55/55
f 60/60/60 59/59/59 58/58/58
f 58/58/58 59/59/59 61/61/61
f 59/59/59 62/62/62 61/61/61
f 65/65/65 64/64/64 63/63/63
f 63/63/63 64/64/64 66/66/66
f 66/66/66 64/64/64 67/67/67
f 70/70/70 69/69/69 68/68/68
f 68/68/68 69/69/69 71/71/71
f 69/69/69 72/72/72 71/71/71
