g _Combined_Vis27_0
v 73.60982 1.211571 77.00002
v 73 1.25 77.00002
v 74 1.25 77.00002
v 73.23463 1.09776 77.00002
v 72 1.25 77.00002
v 72.88886 0.9129403 77.00002
v 72.58578 0.6642146 77.00002
v 72.33706 0.3611414 77.00002
v 72.15224 0.01536763 77.00002
v 72 0.2500003 77.00002
v 72.03843 -0.3598188 77.00002
v 72 -0.7499998 77.00002
v 72 -0.7500007 76.00002
v 72 -0.7499998 77.00002
v 72.03843 -0.3598188 77.00002
v 72.03843 -0.3598192 76.00002
v 72.15224 0.01536763 77.00002
v 72.15224 0.0153674 76.00002
v 72.33706 0.3611414 77.00002
v 72.33706 0.361141 76.00002
v 72.58578 0.6642146 77.00002
v 72.58578 0.6642141 76.00002
v 72.58578 0.6642141 76.00002
v 72.58578 0.6642146 77.00002
v 72.88886 0.9129403 77.00002
v 72.88886 0.9129401 76.00002
v 73.23463 1.09776 77.00002
v 73.23463 1.09776 76.00002
v 73.60982 1.211571 77.00002
v 73.60982 1.211571 76.00002
v 74 1.25 77.00002
v 74 1.25 76.00002
v 74 1.25 76.00002
v 73 1.25 76.00002
v 73.60982 1.211571 76.00002
v 73.23463 1.09776 76.00002
v 72 1.25 76.00002
v 72.88886 0.9129401 76.00002
v 72.58578 0.6642141 76.00002
v 72.33706 0.361141 76.00002
v 72.15224 0.0153674 76.00002
v 72 0.2499998 76.00002
v 72.03843 -0.3598192 76.00002
v 72 -0.7500007 76.00002
v 71 -0.7500005 76.00002
v 71 -2.750001 76.00002
v 72 -2.750001 76.00002
v 72 -0.7500007 76.00002
v 73 1.5 76.00002
v 73 1.25 76.00002
v 74 1.25 76.00002
v 74 1.5 76.00002
v 74 1.5 76.00002
v 74 1.25 76.00002
v 74 1.25 77.00002
v 74 1.500001 77.00002
v 72 -0.7500007 76.00002
v 72 -2.750001 76.00002
v 72 -2.750001 77.00002
v 72 -0.7499998 77.00002
v 72 -6.750003 76.00002
v 72 -7.750003 76.00002
v 72 -7.750004 77.00002
v 72 -6.750003 77.00002
v 72 -2.750001 76.00002
v 72 -3.750002 76.00002
v 72 -3.750002 77.00002
v 72 -2.750001 77.00002
v 72 -12.75001 76.00002
v 72 -14.75001 76.00002
v 72 -14.75001 77.00002
v 72 -12.75001 77.00002
v 72 -8.750004 77.00003
v 72 -7.750004 77.00002
v 72 -7.750003 76.00002
v 72 -8.750004 76.00003
v 72 -4.750003 77.00002
v 72 -3.750002 77.00002
v 72 -3.750002 76.00002
v 72 -4.750003 76.00002
v 72 -4.750003 76.00002
v 72 -6.750003 76.00002
v 72 -6.750003 77.00002
v 72 -4.750003 77.00002
v 72 -8.750004 76.00003
v 72 -10.75 76.00002
v 72 -10.75001 77.00002
v 72 -8.750004 77.00003
v 72 -11.75001 77.00002
v 72 -10.75001 77.00002
v 72 -10.75 76.00002
v 72 -11.75001 76.00002
v 72 -11.75001 76.00002
v 72 -12.75001 76.00002
v 72 -12.75001 77.00002
v 72 -11.75001 77.00002
v 71 -12.75001 76.00002
v 71 -14.75001 76.00002
v 72 -14.75001 76.00002
v 72 -12.75001 76.00002
v 71 -11.75 76.00002
v 71 -12.75001 76.00002
v 72 -12.75001 76.00002
v 72 -11.75001 76.00002
v 72 -11.75001 76.00002
v 72 -10.75 76.00002
v 71 -10.75001 76.00002
v 71 -11.75 76.00002
v 71 -6.750004 76.00002
v 71 -7.750004 76.00002
v 72 -7.750003 76.00002
v 72 -6.750003 76.00002
v 72 -8.750004 76.00003
v 72 -7.750003 76.00002
v 71 -7.750004 76.00002
v 71 -8.750003 76.00002
v 71 -8.750003 76.00002
v 71 -10.75001 76.00002
v 72 -10.75 76.00002
v 72 -8.750004 76.00003
v 71 -4.750003 76.00002
v 71 -6.750004 76.00002
v 72 -6.750003 76.00002
v 72 -4.750003 76.00002
v 72 -4.750003 76.00002
v 72 -3.750002 76.00002
v 71 -3.750002 76.00002
v 71 -4.750003 76.00002
v 71 -2.750001 76.00002
v 71 -3.750002 76.00002
v 72 -3.750002 76.00002
v 72 -2.750001 76.00002
v 71 1.25 76.00002
v 71 0.2499998 76.00002
v 72 0.2499998 76.00002
v 72 1.25 76.00002
v 72 1.5 76.00002
v 73 1.5 76.00002
v 73 1.5 77.00002
v 72 1.5 77.00002
v 73 1.5 76.00002
v 74 1.5 76.00002
v 74 1.500001 77.00002
v 73 1.5 77.00002
v 72 -0.7500007 76.00002
v 72 0.2499998 76.00002
v 71 0.2499998 76.00002
v 71 -0.7500005 76.00002
v 72 1.5 76.00002
v 72 1.25 76.00002
v 73 1.25 76.00002
v 73 1.5 76.00002
v 71 1.5 76.00002
v 71 1.25 76.00002
v 72 1.25 76.00002
v 72 1.5 76.00002
v 71.75 1.5 76.87502
v 71.75 1.375 76.87502
v 71.875 1.375 76.75002
v 71.875 1.5 76.75002
v 71.25 1.5 76.12502
v 71.25 1.375 76.12502
v 71.125 1.375 76.25002
v 71.125 1.5 76.25002
v 71.125 1.5 76.75002
v 71.125 1.375 76.75002
v 71.25 1.375 76.87502
v 71.25 1.5 76.87502
v 71.25 1.5 76.87502
v 71.25 1.375 76.87502
v 71.75 1.375 76.87502
v 71.75 1.5 76.87502
v 71.875 1.5 76.25002
v 71.875 1.375 76.25002
v 71.75 1.375 76.12502
v 71.75 1.5 76.12502
v 71.125 1.5 76.25002
v 71.125 1.375 76.25002
v 71.125 1.375 76.75002
v 71.125 1.5 76.75002
v 71.75 1.5 76.12502
v 71.75 1.375 76.12502
v 71.25 1.375 76.12502
v 71.25 1.5 76.12502
v 71.875 1.5 76.75002
v 71.875 1.375 76.75002
v 71.875 1.375 76.25002
v 71.875 1.5 76.25002
v 71.25 1.5 76.87502
v 71 1.5 77.00002
v 71.125 1.5 76.75002
v 71.75 1.5 76.87502
v 71 1.5 76.00002
v 71.125 1.5 76.25002
v 71.25 1.5 76.12502
v 72 1.5 77.00002
v 71.875 1.5 76.75002
v 71.875 1.5 76.25002
v 72 1.5 76.00002
v 71.75 1.5 76.12502
vt 0.1440789 0.1087567
vt 0.1250221 0.1093571
vt 0.156272 0.1093571
vt 0.1323543 0.1069784
vt 0.09377205 0.1093571
vt 0.1215489 0.1040906
vt 0.1120779 0.1002042
vt 0.1043052 0.09546871
vt 0.09852959 0.09006599
vt 0.09377205 0.09373213
vt 0.09497298 0.08420371
vt 0.09377205 0.07810713
vt 0.03156738 0.1093856
vt 0.09374993 0.1093857
vt 0.09374994 0.1015744
vt 0.0315674 0.1015744
vt 0.09374996 0.09376319
vt 0.03156741 0.09376314
vt 0.09374999 0.08595195
vt 0.03156745 0.08595188
vt 0.09375 0.07814072
vt 0.03156751 0.07814063
vt 0.03156751 0.07814063
vt 0.09375 0.07814072
vt 0.09375001 0.07032944
vt 0.03156756 0.07032938
vt 0.09375004 0.06251819
vt 0.0315676 0.06251814
vt 0.09375004 0.05470691
vt 0.03156761 0.0547069
vt 0.09375004 0.04689567
vt 0.03156763 0.04689566
vt 0.156272 0.07810867
vt 0.125022 0.07810867
vt 0.1440789 0.07750821
vt 0.1323543 0.07572992
vt 0.09377205 0.07810867
vt 0.1215489 0.07284211
vt 0.1120779 0.06895578
vt 0.1043052 0.06422025
vt 0.09852958 0.05881754
vt 0.09377205 0.06248368
vt 0.09497297 0.05295525
vt 0.09377204 0.04685868
vt 0.15625 0.109375
vt 0.15625 0.046875
vt 0.03125 0.046875
vt 0.03125 0.109375
vt 0.15625 0.109375
vt 0.15625 0.046875
vt 0.03125 0.046875
vt 0.03125 0.109375
vt 0.15625 0.109375
vt 0.15625 0.046875
vt 0.03125 0.046875
vt 0.03125 0.109375
vt 0.15625 0.109375
vt 0.15625 0.046875
vt 0.03125 0.046875
vt 0.03125 0.109375
vt 0.15625 0.109375
vt 0.15625 0.046875
vt 0.03125 0.046875
vt 0.03125 0.109375
vt 0.15625 0.109375
vt 0.15625 0.046875
vt 0.03125 0.046875
vt 0.03125 0.109375
vt 0.15625 0.109375
vt 0.15625 0.046875
vt 0.03125 0.046875
vt 0.03125 0.109375
vt 0.15625 0.109375
vt 0.15625 0.046875
vt 0.03125 0.046875
vt 0.03125 0.109375
vt 0.15625 0.109375
vt 0.15625 0.046875
vt 0.03125 0.046875
vt 0.03125 0.109375
vt 0.15625 0.109375
vt 0.15625 0.046875
vt 0.03125 0.046875
vt 0.03125 0.109375
vt 0.15625 0.109375
vt 0.15625 0.046875
vt 0.03125 0.046875
vt 0.03125 0.109375
vt 0.15625 0.109375
vt 0.15625 0.046875
vt 0.03125 0.046875
vt 0.03125 0.109375
vt 0.15625 0.109375
vt 0.15625 0.046875
vt 0.03125 0.046875
vt 0.03125 0.109375
vt 0.15625 0.109375
vt 0.15625 0.046875
vt 0.03125 0.046875
vt 0.03125 0.109375
vt 0.34375 0.515625
vt 0.34375 0.453125
vt 0.21875 0.453125
vt 0.21875 0.515625
vt 0.34375 0.515625
vt 0.34375 0.453125
vt 0.21875 0.453125
vt 0.21875 0.515625
vt 0.34375 0.515625
vt 0.34375 0.453125
vt 0.21875 0.453125
vt 0.21875 0.515625
vt 0.34375 0.515625
vt 0.34375 0.453125
vt 0.21875 0.453125
vt 0.21875 0.515625
vt 0.15625 0.109375
vt 0.15625 0.046875
vt 0.03125 0.046875
vt 0.03125 0.109375
vt 0.15625 0.109375
vt 0.15625 0.046875
vt 0.03125 0.046875
vt 0.03125 0.109375
vt 0.34375 0.515625
vt 0.34375 0.453125
vt 0.21875 0.453125
vt 0.21875 0.515625
vt 0.34375 0.515625
vt 0.34375 0.453125
vt 0.21875 0.453125
vt 0.21875 0.515625
vt 0.34375 0.515625
vt 0.34375 0.453125
vt 0.21875 0.453125
vt 0.21875 0.515625
vt 0.71875 0.671875
vt 0.71875 0.609375
vt 0.59375 0.609375
vt 0.59375 0.671875
vt 0.71875 0.671875
vt 0.71875 0.609375
vt 0.59375 0.609375
vt 0.59375 0.671875
vt 0.34375 0.515625
vt 0.34375 0.453125
vt 0.21875 0.453125
vt 0.21875 0.515625
vt 0.15625 0.109375
vt 0.15625 0.046875
vt 0.03125 0.046875
vt 0.03125 0.109375
vt 0.15625 0.109375
vt 0.15625 0.046875
vt 0.03125 0.046875
vt 0.03125 0.109375
vt 0.1134375 0.08043969
vt 0.1134375 0.07551781
vt 0.1232812 0.07551781
vt 0.1232812 0.08043969
vt 0.0740625 0.08043969
vt 0.0740625 0.07551781
vt 0.06421874 0.07551781
vt 0.06421874 0.08043969
vt 0.06421874 0.08043969
vt 0.06421874 0.07551781
vt 0.0740625 0.07551781
vt 0.0740625 0.08043969
vt 0.0740625 0.08043969
vt 0.0740625 0.07551781
vt 0.1134375 0.07551781
vt 0.1134375 0.08043969
vt 0.1232812 0.08043969
vt 0.1232812 0.07551781
vt 0.1134375 0.07551781
vt 0.1134375 0.08043969
vt 0.1134375 0.08043969
vt 0.1134375 0.07551781
vt 0.0740625 0.07551781
vt 0.0740625 0.08043969
vt 0.1134375 0.08043969
vt 0.1134375 0.07551781
vt 0.0740625 0.07551781
vt 0.0740625 0.08043969
vt 0.0740625 0.08043969
vt 0.0740625 0.07551781
vt 0.1134375 0.07551781
vt 0.1134375 0.08043969
vt 0.0625 0.0546875
vt 0.03125 0.046875
vt 0.046875 0.0625
vt 0.125 0.0546875
vt 0.03125 0.109375
vt 0.046875 0.09375
vt 0.0625 0.1015625
vt 0.15625 0.046875
vt 0.140625 0.0625
vt 0.140625 0.09375
vt 0.15625 0.109375
vt 0.125 0.1015625
vn 0 -4.26325E-13 1
vn 0 -4.26325E-13 1
vn 0 -4.26325E-13 1
vn 0 -4.26325E-13 1
vn 0 -4.26325E-13 1
vn 0 -4.26325E-13 1
vn 0 -4.26325E-13 1
vn 0 -4.26325E-13 1
vn 0 -4.26325E-13 1
vn 0 -4.26325E-13 1
vn 0 -4.26325E-13 1
vn 0 -4.26325E-13 1
vn 1 0 0
vn 1 0 0
vn 0.9807853 -0.1950905 -8.317197E-14
vn 0.9807853 -0.1950905 -8.317195E-14
vn 0.9238793 -0.3826838 -1.631477E-13
vn 0.9238793 -0.3826838 -1.631477E-13
vn 0.8314694 -0.5555707 -2.368537E-13
vn 0.8314694 -0.5555706 -2.368536E-13
vn 0.7071066 -0.7071069 -3.014574E-13
vn 0.7071066 -0.7071069 -3.014573E-13
vn 0.7071066 -0.7071069 -3.014573E-13
vn 0.7071066 -0.7071069 -3.014574E-13
vn 0.5555698 -0.8314699 -3.544764E-13
vn 0.5555698 -0.83147 -3.544764E-13
vn 0.3826825 -0.9238799 -3.938731E-13
vn 0.3826826 -0.9238799 -3.938731E-13
vn 0.1950894 -0.9807855 -4.181334E-13
vn 0.1950894 -0.9807854 -4.181334E-13
vn 0 -1 -4.26325E-13
vn 0 -1 -4.26325E-13
vn 0 4.26325E-13 -1
vn 0 4.26325E-13 -1
vn 0 4.26325E-13 -1
vn 0 4.26325E-13 -1
vn 0 4.26325E-13 -1
vn 0 4.26325E-13 -1
vn 0 4.26325E-13 -1
vn 0 4.26325E-13 -1
vn 0 4.26325E-13 -1
vn 0 4.26325E-13 -1
vn 0 4.26325E-13 -1
vn 0 4.26325E-13 -1
vn 8.742273E-08 4.26325E-13 -1
vn 8.742273E-08 4.26325E-13 -1
vn 8.742273E-08 4.26325E-13 -1
vn 8.742273E-08 4.26325E-13 -1
vn 8.742273E-08 4.26325E-13 -1
vn 8.742273E-08 4.26325E-13 -1
vn 8.742273E-08 4.26325E-13 -1
vn 8.742273E-08 4.26325E-13 -1
vn 1 5.082192E-20 -1.192093E-07
vn 1 5.082192E-20 -1.192093E-07
vn 1 5.082192E-20 -1.192093E-07
vn 1 5.082192E-20 -1.192093E-07
vn 1 5.082192E-20 -1.192093E-07
vn 1 5.082192E-20 -1.192093E-07
vn 1 5.082192E-20 -1.192093E-07
vn 1 5.082192E-20 -1.192093E-07
vn 1 5.082192E-20 -1.192093E-07
vn 1 5.082192E-20 -1.192093E-07
vn 1 5.082192E-20 -1.192093E-07
vn 1 5.082192E-20 -1.192093E-07
vn 1 5.082192E-20 -1.192093E-07
vn 1 5.082192E-20 -1.192093E-07
vn 1 5.082192E-20 -1.192093E-07
vn 1 5.082192E-20 -1.192093E-07
vn 1 5.082192E-20 -1.192093E-07
vn 1 5.082192E-20 -1.192093E-07
vn 1 5.082192E-20 -1.192093E-07
vn 1 5.082192E-20 -1.192093E-07
vn 1 5.082192E-20 -1.192093E-07
vn 1 5.082192E-20 -1.192093E-07
vn 1 5.082192E-20 -1.192093E-07
vn 1 5.082192E-20 -1.192093E-07
vn 1 5.082192E-20 -1.192093E-07
vn 1 5.082192E-20 -1.192093E-07
vn 1 5.082192E-20 -1.192093E-07
vn 1 5.082192E-20 -1.192093E-07
vn 1 5.082192E-20 -1.192093E-07
vn 1 5.082192E-20 -1.192093E-07
vn 1 5.082192E-20 -1.192093E-07
vn 1 5.082192E-20 -1.192093E-07
vn 1 5.082192E-20 -1.192093E-07
vn 1 5.082192E-20 -1.192093E-07
vn 1 5.082192E-20 -1.192093E-07
vn 1 5.082192E-20 -1.192093E-07
vn 1 5.082192E-20 -1.192093E-07
vn 1 5.082192E-20 -1.192093E-07
vn 1 5.082192E-20 -1.192093E-07
vn 1 5.082192E-20 -1.192093E-07
vn 1 5.082192E-20 -1.192093E-07
vn 1 5.082192E-20 -1.192093E-07
vn 1 5.082192E-20 -1.192093E-07
vn 1 5.082192E-20 -1.192093E-07
vn 8.742273E-08 4.26325E-13 -1
vn 8.742273E-08 4.26325E-13 -1
vn 8.742273E-08 4.26325E-13 -1
vn 8.742273E-08 4.26325E-13 -1
vn 8.742273E-08 4.26325E-13 -1
vn 8.742273E-08 4.26325E-13 -1
vn 8.742273E-08 4.26325E-13 -1
vn 8.742273E-08 4.26325E-13 -1
vn 8.742273E-08 4.26325E-13 -1
vn 8.742273E-08 4.26325E-13 -1
vn 8.742273E-08 4.26325E-13 -1
vn 8.742273E-08 4.26325E-13 -1
vn 8.742273E-08 4.26325E-13 -1
vn 8.742273E-08 4.26325E-13 -1
vn 8.742273E-08 4.26325E-13 -1
vn 8.742273E-08 4.26325E-13 -1
vn 8.742273E-08 4.26325E-13 -1
vn 8.742273E-08 4.26325E-13 -1
vn 8.742273E-08 4.26325E-13 -1
vn 8.742273E-08 4.26325E-13 -1
vn 8.742273E-08 4.26325E-13 -1
vn 8.742273E-08 4.26325E-13 -1
vn 8.742273E-08 4.26325E-13 -1
vn 8.742273E-08 4.26325E-13 -1
vn 8.742273E-08 4.26325E-13 -1
vn 8.742273E-08 4.26325E-13 -1
vn 8.742273E-08 4.26325E-13 -1
vn 8.742273E-08 4.26325E-13 -1
vn 8.742273E-08 4.26325E-13 -1
vn 8.742273E-08 4.26325E-13 -1
vn 8.742273E-08 4.26325E-13 -1
vn 8.742273E-08 4.26325E-13 -1
vn 8.742273E-08 4.26325E-13 -1
vn 8.742273E-08 4.26325E-13 -1
vn 8.742273E-08 4.26325E-13 -1
vn 8.742273E-08 4.26325E-13 -1
vn 8.742273E-08 4.26325E-13 -1
vn 8.742273E-08 4.26325E-13 -1
vn 8.742273E-08 4.26325E-13 -1
vn 8.742273E-08 4.26325E-13 -1
vn 0 1 4.26325E-13
vn 0 1 4.26325E-13
vn 0 1 4.26325E-13
vn 0 1 4.26325E-13
vn 0 1 4.26325E-13
vn 0 1 4.26325E-13
vn 0 1 4.26325E-13
vn 0 1 4.26325E-13
vn 8.742273E-08 4.26325E-13 -1
vn 8.742273E-08 4.26325E-13 -1
vn 8.742273E-08 4.26325E-13 -1
vn 8.742273E-08 4.26325E-13 -1
vn 8.742273E-08 4.26325E-13 -1
vn 8.742273E-08 4.26325E-13 -1
vn 8.742273E-08 4.26325E-13 -1
vn 8.742273E-08 4.26325E-13 -1
vn 8.742273E-08 4.26325E-13 -1
vn 8.742273E-08 4.26325E-13 -1
vn 8.742273E-08 4.26325E-13 -1
vn 8.742273E-08 4.26325E-13 -1
vn -0.7071068 -8.429362E-08 -0.7071068
vn -0.7071068 -8.429362E-08 -0.7071068
vn -0.7071068 -8.429362E-08 -0.7071068
vn -0.7071068 -8.429362E-08 -0.7071068
vn 0.7071068 8.429362E-08 0.7071068
vn 0.7071068 8.429362E-08 0.7071068
vn 0.7071068 8.429362E-08 0.7071068
vn 0.7071068 8.429362E-08 0.7071068
vn 0.7071068 -8.429362E-08 -0.7071068
vn 0.7071068 -8.429362E-08 -0.7071068
vn 0.7071068 -8.429362E-08 -0.7071068
vn 0.7071068 -8.429362E-08 -0.7071068
vn 0 -1.192092E-07 -1
vn 0 -1.192092E-07 -1
vn 0 -1.192092E-07 -1
vn 0 -1.192092E-07 -1
vn -0.7071068 8.429362E-08 0.7071068
vn -0.7071068 8.429362E-08 0.7071068
vn -0.7071068 8.429362E-08 0.7071068
vn -0.7071068 8.429362E-08 0.7071068
vn 1 0 0
vn 1 0 0
vn 1 0 0
vn 1 0 0
vn 0 1.192092E-07 1
vn 0 1.192092E-07 1
vn 0 1.192092E-07 1
vn 0 1.192092E-07 1
vn -1 0 0
vn -1 0 0
vn -1 0 0
vn -1 0 0
vn 0 1 -1.192092E-07
vn 0 1 -1.192092E-07
vn 0 1 -1.192092E-07
vn 0 1 -1.192092E-07
vn 0 1 -1.192092E-07
vn 0 1 -1.192092E-07
vn 0 1 -1.192092E-07
vn 0 1 -1.192092E-07
vn 0 1 -1.192092E-07
vn 0 1 -1.192092E-07
vn 0 1 -1.192092E-07
vn 0 1 -1.192092E-07
g _Combined_Vis27_0_0
f 3/3/3 2/2/2 1/1/1
f 1/1/1 2/2/2 4/4/4
f 4/4/4 2/2/2 5/5/5
f 4/4/4 5/5/5 6/6/6
f 6/6/6 5/5/5 7/7/7
f 7/7/7 5/5/5 8/8/8
f 8/8/8 5/5/5 9/9/9
f 9/9/9 5/5/5 10/10/10
f 9/9/9 10/10/10 11/11/11
f 11/11/11 10/10/10 12/12/12
f 15/15/15 14/14/14 13/13/13
f 16/16/16 15/15/15 13/13/13
f 17/17/17 15/15/15 16/16/16
f 18/18/18 17/17/17 16/16/16
f 19/19/19 17/17/17 18/18/18
f 20/20/20 19/19/19 18/18/18
f 21/21/21 19/19/19 20/20/20
f 22/22/22 21/21/21 20/20/20
f 25/25/25 24/24/24 23/23/23
f 26/26/26 25/25/25 23/23/23
f 27/27/27 25/25/25 26/26/26
f 28/28/28 27/27/27 26/26/26
f 29/29/29 27/27/27 28/28/28
f 30/30/30 29/29/29 28/28/28
f 31/31/31 29/29/29 30/30/30
f 32/32/32 31/31/31 30/30/30
f 35/35/35 34/34/34 33/33/33
f 36/36/36 34/34/34 35/35/35
f 37/37/37 34/34/34 36/36/36
f 38/38/38 37/37/37 36/36/36
f 39/39/39 37/37/37 38/38/38
f 40/40/40 37/37/37 39/39/39
f 41/41/41 37/37/37 40/40/40
f 42/42/42 37/37/37 41/41/41
f 43/43/43 42/42/42 41/41/41
f 44/44/44 42/42/42 43/43/43
f 47/47/47 46/46/46 45/45/45
f 48/48/48 47/47/47 45/45/45
f 51/51/51 50/50/50 49/49/49
f 52/52/52 51/51/51 49/49/49
f 55/55/55 54/54/54 53/53/53
f 56/56/56 55/55/55 53/53/53
f 59/59/59 58/58/58 57/57/57
f 60/60/60 59/59/59 57/57/57
f 63/63/63 62/62/62 61/61/61
f 64/64/64 63/63/63 61/61/61
f 67/67/67 66/66/66 65/65/65
f 68/68/68 67/67/67 65/65/65
f 71/71/71 70/70/70 69/69/69
f 72/72/72 71/71/71 69/69/69
f 75/75/75 74/74/74 73/73/73
f 76/76/76 75/75/75 73/73/73
f 79/79/79 78/78/78 77/77/77
f 80/80/80 79/79/79 77/77/77
f 83/83/83 82/82/82 81/81/81
f 84/84/84 83/83/83 81/81/81
f 87/87/87 86/86/86 85/85/85
f 88/88/88 87/87/87 85/85/85
f 91/91/91 90/90/90 89/89/89
f 92/92/92 91/91/91 89/89/89
f 95/95/95 94/94/94 93/93/93
f 96/96/96 95/95/95 93/93/93
f 99/99/99 98/98/98 97/97/97
f 100/100/100 99/99/99 97/97/97
f 103/103/103 102/102/102 101/101/101
f 104/104/104 103/103/103 101/101/101
f 107/107/107 106/106/106 105/105/105
f 108/108/108 107/107/107 105/105/105
f 111/111/111 110/110/110 109/109/109
f 112/112/112 111/111/111 109/109/109
f 115/115/115 114/114/114 113/113/113
f 116/116/116 115/115/115 113/113/113
f 119/119/119 118/118/118 117/117/117
f 120/120/120 119/119/119 117/117/117
f 123/123/123 122/122/122 121/121/121
f 124/124/124 123/123/123 121/121/121
f 127/127/127 126/126/126 125/125/125
f 128/128/128 127/127/127 125/125/125
f 131/131/131 130/130/130 129/129/129
f 132/132/132 131/131/131 129/129/129
f 135/135/135 134/134/134 133/133/133
f 136/136/136 135/135/135 133/133/133
f 139/139/139 138/138/138 137/137/137
f 140/140/140 139/139/139 137/137/137
f 143/143/143 142/142/142 141/141/141
f 144/144/144 143/143/143 141/141/141
f 147/147/147 146/146/146 145/145/145
f 148/148/148 147/147/147 145/145/145
f 151/151/151 150/150/150 149/149/149
f 152/152/152 151/151/151 149/149/149
f 155/155/155 154/154/154 153/153/153
f 156/156/156 155/155/155 153/153/153
f 159/159/159 158/158/158 157/157/157
f 160/160/160 159/159/159 157/157/157
f 163/163/163 162/162/162 161/161/161
f 164/164/164 163/163/163 161/161/161
f 167/167/167 166/166/166 165/165/165
f 168/168/168 167/167/167 165/165/165
f 171/171/171 170/170/170 169/169/169
f 172/172/172 171/171/171 169/169/169
f 175/175/175 174/174/174 173/173/173
f 176/176/176 175/175/175 173/173/173
f 179/179/179 178/178/178 177/177/177
f 180/180/180 179/179/179 177/177/177
f 183/183/183 182/182/182 181/181/181
f 184/184/184 183/183/183 181/181/181
f 187/187/187 186/186/186 185/185/185
f 188/188/188 187/187/187 185/185/185
f 191/191/191 190/190/190 189/189/189
f 189/189/189 190/190/190 192/192/192
f 190/190/190 191/191/191 193/193/193
f 191/191/191 194/194/194 193/193/193
f 193/193/193 194/194/194 195/195/195
f 190/190/190 196/196/196 192/192/192
f 192/192/192 196/196/196 197/197/197
f 197/197/197 196/196/196 198/198/198
f 193/193/193 195/195/195 199/199/199
f 196/196/196 199/199/199 198/198/198
f 195/195/195 200/200/200 199/199/199
f 198/198/198 199/199/199 200/200/200
