g _Combined_Vis40_0
v 17.40003 -36.5 -10.68001
v 17.00003 -36.5 -10.60001
v 17.40003 -36.43781 -10.60001
v 16.60003 -35.84205 -11.40001
v 16.71087 -35.5 -11.40001
v 16.60003 -35.5 -11.28574
v 17.40003 -35.5 -10.60001
v 16.71087 -35.5 -11.40001
v 17.40003 -35.5 -11.40001
v 16.60003 -35.5 -10.60001
v 16.60003 -35.5 -11.28574
v 16.60003 -36.5 -10.60001
v 17.40003 -36.5 -11.40001
v 16.60003 -36.5 -11.40001
v 17.00003 -36.5 -10.60001
v 17.40003 -36.5 -10.68001
v 16.60003 -35.5 -10.60001
v 17.40003 -35.5 -10.60001
v 16.60003 -36.5 -10.60001
v 17.40003 -36.43781 -10.60001
v 17.00003 -36.5 -10.60001
v 17.40003 -35.5 -11.40001
v 17.40003 -36.43781 -10.60001
v 17.40003 -35.5 -10.60001
v 17.40003 -36.5 -11.40001
v 17.40003 -36.5 -10.68001
v 16.71087 -35.5 -11.40001
v 17.40003 -36.5 -11.40001
v 17.40003 -35.5 -11.40001
v 16.60003 -35.84205 -11.40001
v 16.60003 -36.5 -11.40001
v 16.60003 -35.5 -10.60001
v 16.60003 -35.84205 -11.40001
v 16.60003 -35.5 -11.28574
v 16.60003 -36.5 -10.60001
v 16.60003 -36.5 -11.40001
v 17.40004 -36.5 -11.68002
v 17.00004 -36.5 -11.60002
v 17.40004 -36.43781 -11.60002
v 16.60004 -35.84205 -12.40002
v 16.71087 -35.5 -12.40002
v 16.60004 -35.5 -12.28575
v 17.40004 -35.5 -11.60002
v 16.71087 -35.5 -12.40002
v 17.40004 -35.5 -12.40002
v 16.60004 -35.5 -11.60002
v 16.60004 -35.5 -12.28575
v 16.60004 -36.5 -11.60002
v 17.40004 -36.5 -12.40002
v 16.60004 -36.5 -12.40002
v 17.00004 -36.5 -11.60002
v 17.40004 -36.5 -11.68002
v 16.60004 -35.5 -11.60002
v 17.40004 -35.5 -11.60002
v 16.60004 -36.5 -11.60002
v 17.40004 -36.43781 -11.60002
v 17.00004 -36.5 -11.60002
v 17.40004 -35.5 -12.40002
v 17.40004 -36.43781 -11.60002
v 17.40004 -35.5 -11.60002
v 17.40004 -36.5 -12.40002
v 17.40004 -36.5 -11.68002
v 16.71087 -35.5 -12.40002
v 17.40004 -36.5 -12.40002
v 17.40004 -35.5 -12.40002
v 16.60004 -35.84205 -12.40002
v 16.60004 -36.5 -12.40002
v 16.60004 -35.5 -11.60002
v 16.60004 -35.84205 -12.40002
v 16.60004 -35.5 -12.28575
v 16.60004 -36.5 -11.60002
v 16.60004 -36.5 -12.40002
v 18.5 -36.5 -10.6
v 18.5 -37 -10.5
v 18.43781 -36.5 -10.5
v 17.84206 -37.5 -11.5
v 17.5 -37.36145 -11.5
v 17.5 -37.5 -11.35717
v 17.5 -36.5 -10.5
v 17.5 -37.36145 -11.5
v 17.5 -36.5 -11.5
v 17.5 -37.5 -10.5
v 17.5 -37.5 -11.35717
v 18.5 -37.5 -10.5
v 18.5 -36.5 -11.5
v 18.5 -37.5 -11.5
v 18.5 -37 -10.5
v 18.5 -36.5 -10.6
v 17.5 -37.5 -10.5
v 17.5 -36.5 -10.5
v 18.5 -37.5 -10.5
v 18.43781 -36.5 -10.5
v 18.5 -37 -10.5
v 17.5 -36.5 -11.5
v 18.43781 -36.5 -10.5
v 17.5 -36.5 -10.5
v 18.5 -36.5 -11.5
v 18.5 -36.5 -10.6
v 17.5 -37.36145 -11.5
v 18.5 -36.5 -11.5
v 17.5 -36.5 -11.5
v 17.84206 -37.5 -11.5
v 18.5 -37.5 -11.5
v 17.5 -37.5 -10.5
v 17.84206 -37.5 -11.5
v 17.5 -37.5 -11.35717
v 18.5 -37.5 -10.5
v 18.5 -37.5 -11.5
vt 0.8999321 0.1676086
vt 0.8483171 0.1700099
vt 0.8981889 0.1797981
vt 0.8956146 0.2081751
vt 0.8552164 0.1905135
vt 0.8519499 0.2142449
vt 0.96875 0.09375
vt 0.90625 0.147591
vt 0.90625 0.09375
vt 0.96875 0.15625
vt 0.9151772 0.15625
vt 0.96875 0.15625
vt 0.90625 0.09375
vt 0.90625 0.15625
vt 0.96875 0.125
vt 0.9625 0.09375
vt 0.90625 0.15625
vt 0.90625 0.09375
vt 0.84375 0.15625
vt 0.8476369 0.09375
vt 0.84375 0.125
vt 0.96875 0.15625
vt 0.90625 0.2148631
vt 0.90625 0.15625
vt 0.96875 0.21875
vt 0.9125 0.21875
vt 0.90625 0.147591
vt 0.84375 0.09375
vt 0.90625 0.09375
vt 0.8848717 0.15625
vt 0.84375 0.15625
vt 0.96875 0.21875
vt 0.90625 0.1973718
vt 0.9151772 0.21875
vt 0.96875 0.15625
vt 0.90625 0.15625
vt 0.8999321 0.1676086
vt 0.8483171 0.1700099
vt 0.8981889 0.1797981
vt 0.8956146 0.2081751
vt 0.8552164 0.1905135
vt 0.8519499 0.2142449
vt 0.96875 0.09375
vt 0.90625 0.147591
vt 0.90625 0.09375
vt 0.96875 0.15625
vt 0.9151772 0.15625
vt 0.96875 0.15625
vt 0.90625 0.09375
vt 0.90625 0.15625
vt 0.96875 0.125
vt 0.9625 0.09375
vt 0.90625 0.15625
vt 0.90625 0.09375
vt 0.84375 0.15625
vt 0.8476369 0.09375
vt 0.84375 0.125
vt 0.96875 0.15625
vt 0.90625 0.2148631
vt 0.90625 0.15625
vt 0.96875 0.21875
vt 0.9125 0.21875
vt 0.90625 0.147591
vt 0.84375 0.09375
vt 0.90625 0.09375
vt 0.8848717 0.15625
vt 0.84375 0.15625
vt 0.96875 0.21875
vt 0.90625 0.1973718
vt 0.9151772 0.21875
vt 0.96875 0.15625
vt 0.90625 0.15625
vt 0.8999321 0.1676086
vt 0.8483171 0.1700099
vt 0.8981889 0.1797981
vt 0.8956146 0.2081751
vt 0.8552164 0.1905135
vt 0.8519499 0.2142449
vt 0.96875 0.09375
vt 0.90625 0.147591
vt 0.90625 0.09375
vt 0.96875 0.15625
vt 0.9151772 0.15625
vt 0.96875 0.15625
vt 0.90625 0.09375
vt 0.90625 0.15625
vt 0.96875 0.125
vt 0.9625 0.09375
vt 0.90625 0.15625
vt 0.90625 0.09375
vt 0.84375 0.15625
vt 0.8476369 0.09375
vt 0.84375 0.125
vt 0.96875 0.15625
vt 0.90625 0.2148631
vt 0.90625 0.15625
vt 0.96875 0.21875
vt 0.9125 0.21875
vt 0.90625 0.147591
vt 0.84375 0.09375
vt 0.90625 0.09375
vt 0.8848717 0.15625
vt 0.84375 0.15625
vt 0.96875 0.21875
vt 0.90625 0.1973718
vt 0.9151772 0.21875
vt 0.96875 0.15625
vt 0.90625 0.15625
vn 0.1218105 -0.7836373 0.609159
vn 0.1218105 -0.7836373 0.609159
vn 0.1218105 -0.7836373 0.609159
vn -0.6991548 0.226528 -0.6781355
vn -0.6991548 0.226528 -0.6781355
vn -0.6991548 0.226528 -0.6781355
vn 0 1 0
vn 0 1 0
vn 0 1 0
vn 0 1 0
vn 0 1 0
vn 0 -1 0
vn 0 -1 0
vn 0 -1 0
vn 0 -1 0
vn 0 -1 0
vn -1.192093E-07 0 1
vn -1.192093E-07 0 1
vn -1.192093E-07 0 1
vn -1.192093E-07 0 1
vn -1.192093E-07 0 1
vn 1 0 1.192093E-07
vn 1 0 1.192093E-07
vn 1 0 1.192093E-07
vn 1 0 1.192093E-07
vn 1 0 1.192093E-07
vn 1.192093E-07 0 -1
vn 1.192093E-07 0 -1
vn 1.192093E-07 0 -1
vn 1.192093E-07 0 -1
vn 1.192093E-07 0 -1
vn -1 0 -1.192093E-07
vn -1 0 -1.192093E-07
vn -1 0 -1.192093E-07
vn -1 0 -1.192093E-07
vn -1 0 -1.192093E-07
vn 0.1218104 -0.7836377 0.6091586
vn 0.1218104 -0.7836377 0.6091586
vn 0.1218104 -0.7836377 0.6091586
vn -0.6991547 0.2265283 -0.6781354
vn -0.6991547 0.2265283 -0.6781354
vn -0.6991547 0.2265283 -0.6781354
vn 0 1 0
vn 0 1 0
vn 0 1 0
vn 0 1 0
vn 0 1 0
vn 0 -1 0
vn 0 -1 0
vn 0 -1 0
vn 0 -1 0
vn 0 -1 0
vn -1.192093E-07 0 1
vn -1.192093E-07 0 1
vn -1.192093E-07 0 1
vn -1.192093E-07 0 1
vn -1.192093E-07 0 1
vn 1 0 1.192093E-07
vn 1 0 1.192093E-07
vn 1 0 1.192093E-07
vn 1 0 1.192093E-07
vn 1 0 1.192093E-07
vn 1.192093E-07 0 -1
vn 1.192093E-07 0 -1
vn 1.192093E-07 0 -1
vn 1.192093E-07 0 -1
vn 1.192093E-07 0 -1
vn -1 0 -1.192093E-07
vn -1 0 -1.192093E-07
vn -1 0 -1.192093E-07
vn -1 0 -1.192093E-07
vn -1 0 -1.192093E-07
vn 0.8444922 0.1050161 0.525171
vn 0.8444922 0.1050161 0.525171
vn 0.8444922 0.1050161 0.525171
vn -0.27916 -0.6892777 -0.6685551
vn -0.27916 -0.6892777 -0.6685551
vn -0.27916 -0.6892777 -0.6685551
vn -1 -2.384185E-07 5.066395E-07
vn -1 -2.384185E-07 5.066395E-07
vn -1 -2.384185E-07 5.066395E-07
vn -1 -2.384185E-07 5.066395E-07
vn -1 -2.384185E-07 5.066395E-07
vn 1 2.384185E-07 -5.066395E-07
vn 1 2.384185E-07 -5.066395E-07
vn 1 2.384185E-07 -5.066395E-07
vn 1 2.384185E-07 -5.066395E-07
vn 1 2.384185E-07 -5.066395E-07
vn 5.364418E-07 -1.788138E-07 1
vn 5.364418E-07 -1.788138E-07 1
vn 5.364418E-07 -1.788138E-07 1
vn 5.364418E-07 -1.788138E-07 1
vn 5.364418E-07 -1.788138E-07 1
vn -2.68221E-07 1 2.384187E-07
vn -2.68221E-07 1 2.384187E-07
vn -2.68221E-07 1 2.384187E-07
vn -2.68221E-07 1 2.384187E-07
vn -2.68221E-07 1 2.384187E-07
vn -5.364418E-07 1.788138E-07 -1
vn -5.364418E-07 1.788138E-07 -1
vn -5.364418E-07 1.788138E-07 -1
vn -5.364418E-07 1.788138E-07 -1
vn -5.364418E-07 1.788138E-07 -1
vn 2.68221E-07 -1 -2.384187E-07
vn 2.68221E-07 -1 -2.384187E-07
vn 2.68221E-07 -1 -2.384187E-07
vn 2.68221E-07 -1 -2.384187E-07
vn 2.68221E-07 -1 -2.384187E-07
g _Combined_Vis40_0_0
f 3/3/3 2/2/2 1/1/1
f 6/6/6 5/5/5 4/4/4
f 9/9/9 8/8/8 7/7/7
f 7/7/7 8/8/8 10/10/10
f 10/10/10 8/8/8 11/11/11
f 14/14/14 13/13/13 12/12/12
f 13/13/13 15/15/15 12/12/12
f 16/16/16 15/15/15 13/13/13
f 19/19/19 18/18/18 17/17/17
f 20/20/20 18/18/18 19/19/19
f 21/21/21 20/20/20 19/19/19
f 24/24/24 23/23/23 22/22/22
f 22/22/22 23/23/23 25/25/25
f 23/23/23 26/26/26 25/25/25
f 29/29/29 28/28/28 27/27/27
f 27/27/27 28/28/28 30/30/30
f 30/30/30 28/28/28 31/31/31
f 34/34/34 33/33/33 32/32/32
f 32/32/32 33/33/33 35/35/35
f 33/33/33 36/36/36 35/35/35
f 39/39/39 38/38/38 37/37/37
f 42/42/42 41/41/41 40/40/40
f 45/45/45 44/44/44 43/43/43
f 43/43/43 44/44/44 46/46/46
f 46/46/46 44/44/44 47/47/47
f 50/50/50 49/49/49 48/48/48
f 49/49/49 51/51/51 48/48/48
f 52/52/52 51/51/51 49/49/49
f 55/55/55 54/54/54 53/53/53
f 56/56/56 54/54/54 55/55/55
f 57/57/57 56/56/56 55/55/55
f 60/60/60 59/59/59 58/58/58
f 58/58/58 59/59/59 61/61/61
f 59/59/59 62/62/62 61/61/61
f 65/65/65 64/64/64 63/63/63
f 63/63/63 64/64/64 66/66/66
f 66/66/66 64/64/64 67/67/67
f 70/70/70 69/69/69 68/68/68
f 68/68/68 69/69/69 71/71/71
f 69/69/69 72/72/72 71/71/71
f 75/75/75 74/74/74 73/73/73
f 78/78/78 77/77/77 76/76/76
f 81/81/81 80/80/80 79/79/79
f 79/79/79 80/80/80 82/82/82
f 82/82/82 80/80/80 83/83/83
f 86/86/86 85/85/85 84/84/84
f 85/85/85 87/87/87 84/84/84
f 88/88/88 87/87/87 85/85/85
f 91/91/91 90/90/90 89/89/89
f 92/92/92 90/90/90 91/91/91
f 93/93/93 92/92/92 91/91/91
f 96/96/96 95/95/95 94/94/94
f 94/94/94 95/95/95 97/97/97
f 95/95/95 98/98/98 97/97/97
f 101/101/101 100/100/100 99/99/99
f 99/99/99 100/100/100 102/102/102
f 102/102/102 100/100/100 103/103/103
f 106/106/106 105/105/105 104/104/104
f 104/104/104 105/105/105 107/107/107
f 105/105/105 108/108/108 107/107/107
