g _Combined_Vis27_0
v -1.500014 3.895164E-05 -0.4999785
v -1.500012 -0.9999613 -0.499982
v -0.5000126 -0.9999611 -0.4999776
v -0.5000126 3.907084E-05 -0.499974
v 0.4999315 1.000037 0.500021
v 0.4999294 3.652786E-05 0.5000213
v -0.50007 3.654743E-05 0.5000212
v -0.50007 1.000037 0.5000209
v -0.50007 3.654743E-05 0.5000212
v -0.500071 -0.9999628 0.5000228
v -1.50007 -0.9999628 0.5000227
v -1.50007 3.74415E-05 0.5000224
v -1.50007 3.74415E-05 0.5000224
v -1.50007 -0.9999628 0.5000227
v -2.500086 -0.9999629 0.5000234
v -2.500086 3.735209E-05 0.500023
v 1.499932 3.664707E-05 0.5000229
v 1.49993 -0.9999636 0.5000232
v 0.4999305 -0.9999636 0.5000231
v 0.4999294 3.652786E-05 0.5000213
v 0.4999294 3.652786E-05 0.5000213
v 0.4999305 -0.9999636 0.5000231
v -0.500071 -0.9999628 0.5000228
v -0.50007 3.654743E-05 0.5000212
v 2.499899 4.093349E-05 0.500016
v 2.499899 3.899634E-05 -0.4999842
v 2.499899 -0.9999602 -0.4999839
v 2.499899 -0.9999603 0.5000163
v -1.500012 -0.9999613 -0.499982
v -1.50007 -0.9999628 0.5000227
v -0.500071 -0.9999628 0.5000228
v -0.5000126 -0.9999611 -0.4999776
v 0.499897 -0.9999557 -0.4999819
v 0.4999305 -0.9999636 0.5000231
v 1.49993 -0.9999636 0.5000232
v 1.499899 -0.9999555 -0.4999817
v 1.499899 -0.9999555 -0.4999817
v 1.49993 -0.9999636 0.5000232
v 2.499899 -0.9999603 0.5000163
v 2.499899 -0.9999602 -0.4999839
v -2.500104 -0.9999549 -0.4999832
v -2.500086 -0.9999629 0.5000234
v -1.50007 -0.9999628 0.5000227
v -1.500012 -0.9999613 -0.499982
v -0.5000126 -0.9999611 -0.4999776
v -0.500071 -0.9999628 0.5000228
v 0.4999305 -0.9999636 0.5000231
v 0.499897 -0.9999557 -0.4999819
v -0.50007 1.000037 0.5000209
v -0.50007 3.654743E-05 0.5000212
v -0.5000126 3.907084E-05 -0.499974
v -0.5001022 1.000038 -0.4999876
v -0.5001026 2.00005 0.5000125
v -0.50007 1.000037 0.5000209
v -0.5001022 1.000038 -0.4999876
v -0.5001023 2.00005 -0.4999889
v -2.500086 3.735209E-05 0.500023
v -2.500086 -0.9999629 0.5000234
v -2.500104 -0.9999549 -0.4999832
v -2.500118 4.531443E-05 -0.4999869
v -0.5000126 3.907084E-05 -0.499974
v -0.5000126 -0.9999611 -0.4999776
v 0.499897 -0.9999557 -0.4999819
v 0.4999878 3.916025E-05 -0.4999748
v -1.50007 3.74415E-05 0.5000224
v -2.500086 3.735209E-05 0.500023
v -2.500118 4.531443E-05 -0.4999869
v -1.500014 3.895164E-05 -0.4999785
v -2.500118 4.531443E-05 -0.4999869
v -2.500104 -0.9999549 -0.4999832
v -1.500012 -0.9999613 -0.499982
v -1.500014 3.895164E-05 -0.4999785
v 0.4999873 2.000036 0.5000242
v -0.5001026 2.00005 0.5000125
v -0.5001023 2.00005 -0.4999889
v 0.4999918 2.00004 -0.4999771
v 0.4999918 1.000039 -0.499981
v 0.4999315 1.000037 0.500021
v 0.4999873 2.000036 0.5000242
v 0.4999918 2.00004 -0.4999771
v -0.5001023 2.00005 -0.4999889
v -0.5001022 1.000038 -0.4999876
v 0.4999918 1.000039 -0.499981
v 0.4999918 2.00004 -0.4999771
v 0.4999878 3.916025E-05 -0.4999748
v 0.4999294 3.652786E-05 0.5000213
v 0.4999315 1.000037 0.500021
v 0.4999918 1.000039 -0.499981
v -0.5001022 1.000038 -0.4999876
v -0.5000126 3.907084E-05 -0.499974
v 0.4999878 3.916025E-05 -0.4999748
v 0.4999918 1.000039 -0.499981
v 2.499899 4.093349E-05 0.500016
v 1.499932 3.664707E-05 0.5000229
v 1.499992 3.910512E-05 -0.4999811
v 2.499899 3.899634E-05 -0.4999842
v 1.499992 3.910512E-05 -0.4999811
v 1.499899 -0.9999555 -0.4999817
v 2.499899 -0.9999602 -0.4999839
v 2.499899 3.899634E-05 -0.4999842
v 1.499932 3.664707E-05 0.5000229
v 0.4999294 3.652786E-05 0.5000213
v 0.4999878 3.916025E-05 -0.4999748
v 1.499992 3.910512E-05 -0.4999811
v 0.4999878 3.916025E-05 -0.4999748
v 0.499897 -0.9999557 -0.4999819
v 1.499899 -0.9999555 -0.4999817
v 1.499992 3.910512E-05 -0.4999811
v -0.50007 3.654743E-05 0.5000212
v -1.50007 3.74415E-05 0.5000224
v -1.500014 3.895164E-05 -0.4999785
v -0.5000126 3.907084E-05 -0.499974
v 2.499899 4.093349E-05 0.500016
v 2.499899 -0.9999603 0.5000163
v 1.49993 -0.9999636 0.5000232
v 1.499932 3.664707E-05 0.5000229
v 0.4999873 2.000036 0.5000242
v 0.4999315 1.000037 0.500021
v -0.50007 1.000037 0.5000209
v -0.5001026 2.00005 0.5000125
vt 0.84375 0.515625
vt 0.84375 0.390625
vt 0.59375 0.390625
vt 0.59375 0.515625
vt 0.84375 0.515625
vt 0.84375 0.390625
vt 0.59375 0.390625
vt 0.59375 0.515625
vt 0.84375 0.515625
vt 0.84375 0.390625
vt 0.59375 0.390625
vt 0.59375 0.515625
vt 0.84375 0.515625
vt 0.84375 0.390625
vt 0.59375 0.390625
vt 0.59375 0.515625
vt 0.84375 0.515625
vt 0.84375 0.390625
vt 0.59375 0.390625
vt 0.59375 0.515625
vt 0.84375 0.515625
vt 0.84375 0.390625
vt 0.59375 0.390625
vt 0.59375 0.515625
vt 0.78125 0.359375
vt 0.78125 0.234375
vt 0.53125 0.234375
vt 0.53125 0.359375
vt 0.84375 0.515625
vt 0.84375 0.390625
vt 0.59375 0.390625
vt 0.59375 0.515625
vt 0.84375 0.515625
vt 0.84375 0.390625
vt 0.59375 0.390625
vt 0.59375 0.515625
vt 0.84375 0.515625
vt 0.84375 0.390625
vt 0.59375 0.390625
vt 0.59375 0.515625
vt 0.84375 0.515625
vt 0.84375 0.390625
vt 0.59375 0.390625
vt 0.59375 0.515625
vt 0.84375 0.515625
vt 0.84375 0.390625
vt 0.59375 0.390625
vt 0.59375 0.515625
vt 0.84375 0.515625
vt 0.84375 0.390625
vt 0.59375 0.390625
vt 0.59375 0.515625
vt 0.84375 0.515625
vt 0.84375 0.390625
vt 0.59375 0.390625
vt 0.59375 0.515625
vt 0.78125 0.359375
vt 0.78125 0.234375
vt 0.53125 0.234375
vt 0.53125 0.359375
vt 0.78125 0.359375
vt 0.78125 0.234375
vt 0.53125 0.234375
vt 0.53125 0.359375
vt 0.84375 0.515625
vt 0.84375 0.390625
vt 0.59375 0.390625
vt 0.59375 0.515625
vt 0.84375 0.515625
vt 0.84375 0.390625
vt 0.59375 0.390625
vt 0.59375 0.515625
vt 0.78125 0.359375
vt 0.78125 0.234375
vt 0.53125 0.234375
vt 0.53125 0.359375
vt 0.84375 0.515625
vt 0.84375 0.390625
vt 0.59375 0.390625
vt 0.59375 0.515625
vt 0.84375 0.515625
vt 0.84375 0.390625
vt 0.59375 0.390625
vt 0.59375 0.515625
vt 0.84375 0.515625
vt 0.84375 0.390625
vt 0.59375 0.390625
vt 0.59375 0.515625
vt 0.84375 0.515625
vt 0.84375 0.390625
vt 0.59375 0.390625
vt 0.59375 0.515625
vt 0.84375 0.515625
vt 0.84375 0.390625
vt 0.59375 0.390625
vt 0.59375 0.515625
vt 0.84375 0.515625
vt 0.84375 0.390625
vt 0.59375 0.390625
vt 0.59375 0.515625
vt 0.84375 0.515625
vt 0.84375 0.390625
vt 0.59375 0.390625
vt 0.59375 0.515625
vt 0.84375 0.515625
vt 0.84375 0.390625
vt 0.59375 0.390625
vt 0.59375 0.515625
vt 0.84375 0.515625
vt 0.84375 0.390625
vt 0.59375 0.390625
vt 0.59375 0.515625
vt 0.84375 0.515625
vt 0.84375 0.390625
vt 0.59375 0.390625
vt 0.59375 0.515625
vt 0.84375 0.515625
vt 0.84375 0.390625
vt 0.59375 0.390625
vt 0.59375 0.515625
vn 4.380941E-06 3.993512E-06 -1
vn 4.380941E-06 3.993512E-06 -1
vn 4.380941E-06 3.993512E-06 -1
vn 4.380941E-06 3.993512E-06 -1
vn -5.960468E-08 -4.002909E-08 1
vn -5.960468E-08 -4.002909E-08 1
vn -5.960468E-08 -4.002909E-08 1
vn -5.960468E-08 -4.002909E-08 1
vn -5.960468E-08 -4.002909E-08 1
vn -5.960468E-08 -4.002909E-08 1
vn -5.960468E-08 -4.002909E-08 1
vn -5.960468E-08 -4.002909E-08 1
vn -5.960468E-08 -4.002909E-08 1
vn -5.960468E-08 -4.002909E-08 1
vn -5.960468E-08 -4.002909E-08 1
vn -5.960468E-08 -4.002909E-08 1
vn -5.960468E-08 -4.002909E-08 1
vn -5.960468E-08 -4.002909E-08 1
vn -5.960468E-08 -4.002909E-08 1
vn -5.960468E-08 -4.002909E-08 1
vn -5.960468E-08 -4.002909E-08 1
vn -5.960468E-08 -4.002909E-08 1
vn -5.960468E-08 -4.002909E-08 1
vn -5.960468E-08 -4.002909E-08 1
vn 1 2.682314E-07 1.490121E-07
vn 1 2.682314E-07 1.490121E-07
vn 1 2.682314E-07 1.490121E-07
vn 1 2.682314E-07 1.490121E-07
vn 5.959399E-08 -1 8.940722E-08
vn 5.959399E-08 -1 8.940722E-08
vn 5.959399E-08 -1 8.940722E-08
vn 5.959399E-08 -1 8.940722E-08
vn 5.959399E-08 -1 8.940722E-08
vn 5.959399E-08 -1 8.940722E-08
vn 5.959399E-08 -1 8.940722E-08
vn 5.959399E-08 -1 8.940722E-08
vn 5.959399E-08 -1 8.940722E-08
vn 5.959399E-08 -1 8.940722E-08
vn 5.959399E-08 -1 8.940722E-08
vn 5.959399E-08 -1 8.940722E-08
vn 5.959399E-08 -1 8.940722E-08
vn 5.959399E-08 -1 8.940722E-08
vn 5.959399E-08 -1 8.940722E-08
vn 5.959399E-08 -1 8.940722E-08
vn 5.959399E-08 -1 8.940722E-08
vn 5.959399E-08 -1 8.940722E-08
vn 5.959399E-08 -1 8.940722E-08
vn 5.959399E-08 -1 8.940722E-08
vn -1 -8.941747E-08 -3.874303E-07
vn -1 -8.941747E-08 -3.874303E-07
vn -1 -8.941747E-08 -3.874303E-07
vn -1 -8.941747E-08 -3.874303E-07
vn -1 -8.941747E-08 -3.874303E-07
vn -1 -8.941747E-08 -3.874303E-07
vn -1 -8.941747E-08 -3.874303E-07
vn -1 -8.941747E-08 -3.874303E-07
vn -1 -8.941747E-08 -3.874303E-07
vn -1 -8.941747E-08 -3.874303E-07
vn -1 -8.941747E-08 -3.874303E-07
vn -1 -8.941747E-08 -3.874303E-07
vn 4.380941E-06 3.993512E-06 -1
vn 4.380941E-06 3.993512E-06 -1
vn 4.380941E-06 3.993512E-06 -1
vn 4.380941E-06 3.993512E-06 -1
vn 2.981308E-08 1 3.486871E-06
vn 2.981308E-08 1 3.486871E-06
vn 2.981308E-08 1 3.486871E-06
vn 2.981308E-08 1 3.486871E-06
vn 4.380941E-06 3.993512E-06 -1
vn 4.380941E-06 3.993512E-06 -1
vn 4.380941E-06 3.993512E-06 -1
vn 4.380941E-06 3.993512E-06 -1
vn 2.981308E-08 1 3.486871E-06
vn 2.981308E-08 1 3.486871E-06
vn 2.981308E-08 1 3.486871E-06
vn 2.981308E-08 1 3.486871E-06
vn 1 1.788236E-07 4.321335E-06
vn 1 1.788236E-07 4.321335E-06
vn 1 1.788236E-07 4.321335E-06
vn 1 1.788236E-07 4.321335E-06
vn 4.380941E-06 3.993512E-06 -1
vn 4.380941E-06 3.993512E-06 -1
vn 4.380941E-06 3.993512E-06 -1
vn 4.380941E-06 3.993512E-06 -1
vn 1 1.788236E-07 4.321335E-06
vn 1 1.788236E-07 4.321335E-06
vn 1 1.788236E-07 4.321335E-06
vn 1 1.788236E-07 4.321335E-06
vn 4.380941E-06 3.993512E-06 -1
vn 4.380941E-06 3.993512E-06 -1
vn 4.380941E-06 3.993512E-06 -1
vn 4.380941E-06 3.993512E-06 -1
vn 2.981308E-08 1 3.486871E-06
vn 2.981308E-08 1 3.486871E-06
vn 2.981308E-08 1 3.486871E-06
vn 2.981308E-08 1 3.486871E-06
vn 4.380941E-06 3.993512E-06 -1
vn 4.380941E-06 3.993512E-06 -1
vn 4.380941E-06 3.993512E-06 -1
vn 4.380941E-06 3.993512E-06 -1
vn 2.981308E-08 1 3.486871E-06
vn 2.981308E-08 1 3.486871E-06
vn 2.981308E-08 1 3.486871E-06
vn 2.981308E-08 1 3.486871E-06
vn 4.380941E-06 3.993512E-06 -1
vn 4.380941E-06 3.993512E-06 -1
vn 4.380941E-06 3.993512E-06 -1
vn 4.380941E-06 3.993512E-06 -1
vn 2.981308E-08 1 3.486871E-06
vn 2.981308E-08 1 3.486871E-06
vn 2.981308E-08 1 3.486871E-06
vn 2.981308E-08 1 3.486871E-06
vn -5.960468E-08 -4.002909E-08 1
vn -5.960468E-08 -4.002909E-08 1
vn -5.960468E-08 -4.002909E-08 1
vn -5.960468E-08 -4.002909E-08 1
vn -5.960468E-08 -4.002909E-08 1
vn -5.960468E-08 -4.002909E-08 1
vn -5.960468E-08 -4.002909E-08 1
vn -5.960468E-08 -4.002909E-08 1
g _Combined_Vis27_0_0
f 3/3/3 2/2/2 1/1/1
f 4/4/4 3/3/3 1/1/1
f 7/7/7 6/6/6 5/5/5
f 8/8/8 7/7/7 5/5/5
f 11/11/11 10/10/10 9/9/9
f 12/12/12 11/11/11 9/9/9
f 15/15/15 14/14/14 13/13/13
f 16/16/16 15/15/15 13/13/13
f 19/19/19 18/18/18 17/17/17
f 20/20/20 19/19/19 17/17/17
f 23/23/23 22/22/22 21/21/21
f 24/24/24 23/23/23 21/21/21
f 27/27/27 26/26/26 25/25/25
f 28/28/28 27/27/27 25/25/25
f 31/31/31 30/30/30 29/29/29
f 32/32/32 31/31/31 29/29/29
f 35/35/35 34/34/34 33/33/33
f 36/36/36 35/35/35 33/33/33
f 39/39/39 38/38/38 37/37/37
f 40/40/40 39/39/39 37/37/37
f 43/43/43 42/42/42 41/41/41
f 44/44/44 43/43/43 41/41/41
f 47/47/47 46/46/46 45/45/45
f 48/48/48 47/47/47 45/45/45
f 51/51/51 50/50/50 49/49/49
f 52/52/52 51/51/51 49/49/49
f 55/55/55 54/54/54 53/53/53
f 56/56/56 55/55/55 53/53/53
f 59/59/59 58/58/58 57/57/57
f 60/60/60 59/59/59 57/57/57
f 63/63/63 62/62/62 61/61/61
f 64/64/64 63/63/63 61/61/61
f 67/67/67 66/66/66 65/65/65
f 68/68/68 67/67/67 65/65/65
f 71/71/71 70/70/70 69/69/69
f 72/72/72 71/71/71 69/69/69
f 75/75/75 74/74/74 73/73/73
f 76/76/76 75/75/75 73/73/73
f 79/79/79 78/78/78 77/77/77
f 80/80/80 79/79/79 77/77/77
f 83/83/83 82/82/82 81/81/81
f 84/84/84 83/83/83 81/81/81
f 87/87/87 86/86/86 85/85/85
f 88/88/88 87/87/87 85/85/85
f 91/91/91 90/90/90 89/89/89
f 92/92/92 91/91/91 89/89/89
f 95/95/95 94/94/94 93/93/93
f 96/96/96 95/95/95 93/93/93
f 99/99/99 98/98/98 97/97/97
f 100/100/100 99/99/99 97/97/97
f 103/103/103 102/102/102 101/101/101
f 104/104/104 103/103/103 101/101/101
f 107/107/107 106/106/106 105/105/105
f 108/108/108 107/107/107 105/105/105
f 111/111/111 110/110/110 109/109/109
f 112/112/112 111/111/111 109/109/109
f 115/115/115 114/114/114 113/113/113
f 116/116/116 115/115/115 113/113/113
f 119/119/119 118/118/118 117/117/117
f 120/120/120 119/119/119 117/117/117
