g _CombinedVis20_1
v -14.23537 7.439499 17.20412
v -14.23537 7.376999 17.20412
v -14.23537 7.376999 15.20412
v -14.23537 7.439499 15.20412
v -14.23537 7.376999 17.20412
v -14.17287 7.376999 17.20412
v -14.17287 7.376999 15.20412
v -14.23537 7.376999 15.20412
v -14.17287 7.376999 17.20412
v -14.17287 7.439499 17.20412
v -14.17287 7.439499 15.20412
v -14.17287 7.376999 15.20412
v -14.23537 7.439499 15.20412
v -14.17287 7.439499 15.20412
v -14.17287 7.439499 17.20412
v -14.23537 7.439499 17.20412
v -14.23537 7.439499 15.20412
v -14.23537 7.376999 15.20412
v -14.17287 7.376999 15.20412
v -14.17287 7.439499 15.20412
v -16.20412 7.439499 17.17287
v -16.20412 7.376999 17.17287
v -14.20412 7.376999 17.17287
v -14.20412 7.439499 17.17287
v -16.20412 7.376999 17.17287
v -16.20412 7.376999 17.23537
v -14.20412 7.376999 17.23537
v -14.20412 7.376999 17.17287
v -16.20412 7.376999 17.23537
v -16.20412 7.439499 17.23537
v -14.20412 7.439499 17.23537
v -14.20412 7.376999 17.23537
v -14.20412 7.439499 17.17287
v -14.20412 7.439499 17.23537
v -16.20412 7.439499 17.23537
v -16.20412 7.439499 17.17287
v -14.20412 7.439499 17.17287
v -14.20412 7.376999 17.17287
v -14.20412 7.376999 17.23537
v -14.20412 7.439499 17.23537
vt 0.2498 0.0002
vt 0.0002 0.0002
vt 0.0002 0.998602
vt 0.2498 0.998602
vt 0.4998 0.0002
vt 0.2502 0.0002
vt 0.2502 0.998602
vt 0.4998 0.998602
vt 0.7498 0.0002
vt 0.5002 0.0002
vt 0.5002 0.998602
vt 0.7498 0.998602
vt 0.7502 0.998602
vt 0.9998 0.998602
vt 0.9998 0.0002
vt 0.7502 0.0002
vt 0.9998 0.998602
vt 0.2498 0.998602
vt 0.4998 0.998602
vt 0.7498 0.998602
vt 0.2498 0.0002
vt 0.0002 0.0002
vt 0.0002 0.998602
vt 0.2498 0.998602
vt 0.4998 0.0002
vt 0.2502 0.0002
vt 0.2502 0.998602
vt 0.4998 0.998602
vt 0.7498 0.0002
vt 0.5002 0.0002
vt 0.5002 0.998602
vt 0.7498 0.998602
vt 0.7502 0.998602
vt 0.9998 0.998602
vt 0.9998 0.0002
vt 0.7502 0.0002
vt 0.9998 0.998602
vt 0.2498 0.998602
vt 0.4998 0.998602
vt 0.7498 0.998602
vn -1 0 -2.980232E-07
vn -1 0 -2.980232E-07
vn -1 0 -2.980232E-07
vn -1 0 -2.980232E-07
vn 0 -1 0
vn 0 -1 0
vn 0 -1 0
vn 0 -1 0
vn 1 0 2.980232E-07
vn 1 0 2.980232E-07
vn 1 0 2.980232E-07
vn 1 0 2.980232E-07
vn 0 1 0
vn 0 1 0
vn 0 1 0
vn 0 1 0
vn 2.980232E-07 0 -1
vn 2.980232E-07 0 -1
vn 2.980232E-07 0 -1
vn 2.980232E-07 0 -1
vn -1.192093E-07 0 -1
vn -1.192093E-07 0 -1
vn -1.192093E-07 0 -1
vn -1.192093E-07 0 -1
vn 0 -1 0
vn 0 -1 0
vn 0 -1 0
vn 0 -1 0
vn 1.192093E-07 0 1
vn 1.192093E-07 0 1
vn 1.192093E-07 0 1
vn 1.192093E-07 0 1
vn 0 1 0
vn 0 1 0
vn 0 1 0
vn 0 1 0
vn 1 0 -1.192093E-07
vn 1 0 -1.192093E-07
vn 1 0 -1.192093E-07
vn 1 0 -1.192093E-07
g _CombinedVis20_1_0
f 3/3/3 2/2/2 1/1/1
f 4/4/4 3/3/3 1/1/1
f 7/7/7 6/6/6 5/5/5
f 8/8/8 7/7/7 5/5/5
f 11/11/11 10/10/10 9/9/9
f 12/12/12 11/11/11 9/9/9
f 15/15/15 14/14/14 13/13/13
f 16/16/16 15/15/15 13/13/13
f 19/19/19 18/18/18 17/17/17
f 20/20/20 19/19/19 17/17/17
f 23/23/23 22/22/22 21/21/21
f 24/24/24 23/23/23 21/21/21
f 27/27/27 26/26/26 25/25/25
f 28/28/28 27/27/27 25/25/25
f 31/31/31 30/30/30 29/29/29
f 32/32/32 31/31/31 29/29/29
f 35/35/35 34/34/34 33/33/33
f 36/36/36 35/35/35 33/33/33
f 39/39/39 38/38/38 37/37/37
f 40/40/40 39/39/39 37/37/37
