g _Combined_Vis45_0
v 38 1 76.625
v 37.75 1 76.625
v 37.75 0.125 76.625
v 38 0.125 76.625
v 38 0.125 76.625
v 37.75 0.125 76.625
v 37.75 0.125 76.375
v 38 0.125 76.375
v 38 0.125 76.375
v 37.75 0.125 76.375
v 37.75 1 76.375
v 38 1 76.375
v 38 1 76.375
v 37.75 1 76.375
v 37.75 1.125 76.5
v 38 1.125 76.5
v 38 1.125 76.5
v 37.75 1.125 76.5
v 37.75 1 76.625
v 38 1 76.625
v 37.75 1 76.375
v 37.75 1 76.625
v 37.75 1.125 76.5
v 37.75 0.125 76.625
v 37.75 0.125 76.375
v 38 0.125 76.375
v 38 0.5 76
v 38 -0.5 76
v 38 -0.5 77
v 38 1 76.375
v 38 0.125 76.625
v 38 1.5 76
v 38 0.5 77
v 38 1.125 76.5
v 38 1 76.625
v 38 1.5 77
v 38 -1.5 76
v 38 -2.5 76
v 38 -2.5 77
v 38 -1.5 77
v 37 -1.5 77
v 37 -2.5 77
v 37 -2.5 76
v 37 -1.5 76
v 37 -0.5 77
v 37 -1.5 77
v 37 -1.5 76
v 37 -0.5 76
v 37 0.5 77
v 37 -0.5 77
v 37 -0.5 76
v 37 0.5 76
v 37 1.5 77
v 37 0.5 77
v 37 0.5 76
v 37 1.5 76
v 37 -1.5 76
v 37 -2.5 76
v 38 -2.5 76
v 38 -1.5 76
v 37 -0.5 76
v 37 -1.5 76
v 38 -1.5 76
v 38 -0.5 76
v 37 0.5 76
v 37 -0.5 76
v 38 -0.5 76
v 38 0.5 76
v 38 3.500001 76
v 37 3.499999 76
v 37 2.5 76
v 38 2.5 76
v 38 3.500001 76
v 38 2.5 76
v 38 2.5 77
v 38 3.5 77
v 37 2.5 76
v 37 1.5 76
v 38 1.5 76
v 38 2.5 76
v 38 1.5 76
v 37 1.5 76
v 37 0.5 76
v 38 2.5 76
v 38 1.5 76
v 38 1.5 77
v 38 2.5 77
v 38 -0.5 76
v 38 -1.5 76
v 38 -1.5 77
v 38 -0.5 77
v 37 2.5 77
v 37 1.5 77
v 37 1.5 76
v 37 2.5 76
v 37 3.5 77
v 37 2.5 77
v 37 2.5 76
v 37 3.499999 76
v 37.875 3.5 76.25
v 37.875 3.375 76.25
v 37.75 3.375 76.125
v 37.75 3.5 76.125
v 37.125 3.5 76.75
v 37.125 3.375 76.75
v 37.25 3.375 76.875
v 37.25 3.5 76.875
v 37.75 3.5 76.875
v 37.75 3.375 76.875
v 37.875 3.375 76.75
v 37.875 3.5 76.75
v 37.875 3.5 76.75
v 37.875 3.375 76.75
v 37.875 3.375 76.25
v 37.875 3.5 76.25
v 37.25 3.5 76.125
v 37.25 3.375 76.125
v 37.125 3.375 76.25
v 37.125 3.5 76.25
v 37.25 3.5 76.875
v 37.25 3.375 76.875
v 37.75 3.375 76.875
v 37.75 3.5 76.875
v 37.125 3.5 76.25
v 37.125 3.375 76.25
v 37.125 3.375 76.75
v 37.125 3.5 76.75
v 37.75 3.5 76.125
v 37.75 3.375 76.125
v 37.25 3.375 76.125
v 37.25 3.5 76.125
v 37.875 3.5 76.75
v 38 3.5 77
v 37.75 3.5 76.875
v 37.875 3.5 76.25
v 37 3.5 77
v 37.25 3.5 76.875
v 37.125 3.5 76.75
v 38 3.500001 76
v 37.75 3.5 76.125
v 37.25 3.5 76.125
v 37 3.499999 76
v 37.125 3.5 76.25
vt 0.1486781 0.6966756
vt 0.1330531 0.6966756
vt 0.1330531 0.6693318
vt 0.1486781 0.6693318
vt 0.1329359 0.6650901
vt 0.1329359 0.6572776
vt 0.1485609 0.6572776
vt 0.1485609 0.6650901
vt 0.1486781 0.6966756
vt 0.1330531 0.6966756
vt 0.1330531 0.6693318
vt 0.1486781 0.6693318
vt 0.1486781 0.6966756
vt 0.1330531 0.6966756
vt 0.1330531 0.7005818
vt 0.1486781 0.7005818
vt 0.1486781 0.7005818
vt 0.1330531 0.7005818
vt 0.1330531 0.6966756
vt 0.1486781 0.6966756
vt 0.1193686 0.6975145
vt 0.1037435 0.6975145
vt 0.111556 0.7014207
vt 0.1037435 0.6701707
vt 0.1193685 0.6701707
vt 0.06920875 0.6610679
vt 0.08933488 0.671875
vt 0.08933488 0.643056
vt 0.03566512 0.643056
vt 0.06920875 0.6862845
vt 0.05579125 0.6610679
vt 0.08933488 0.700694
vt 0.03566512 0.671875
vt 0.0625 0.6898869
vt 0.05579125 0.6862845
vt 0.03566512 0.700694
vt 0.34375 0.234375
vt 0.34375 0.171875
vt 0.21875 0.171875
vt 0.21875 0.234375
vt 0.34375 0.234375
vt 0.34375 0.171875
vt 0.21875 0.171875
vt 0.21875 0.234375
vt 0.34375 0.234375
vt 0.34375 0.171875
vt 0.21875 0.171875
vt 0.21875 0.234375
vt 0.34375 0.234375
vt 0.34375 0.171875
vt 0.21875 0.171875
vt 0.21875 0.234375
vt 0.34375 0.234375
vt 0.34375 0.171875
vt 0.21875 0.171875
vt 0.21875 0.234375
vt 0.34375 0.234375
vt 0.34375 0.171875
vt 0.21875 0.171875
vt 0.21875 0.234375
vt 0.34375 0.234375
vt 0.34375 0.171875
vt 0.21875 0.171875
vt 0.21875 0.234375
vt 0.34375 0.234375
vt 0.34375 0.171875
vt 0.21875 0.171875
vt 0.21875 0.234375
vt 0.90625 0.671875
vt 0.90625 0.609375
vt 0.78125 0.609375
vt 0.78125 0.671875
vt 0.90625 0.671875
vt 0.90625 0.609375
vt 0.78125 0.609375
vt 0.78125 0.671875
vt 0.90625 0.484375
vt 0.90625 0.421875
vt 0.78125 0.421875
vt 0.78125 0.484375
vt 0.34375 0.234375
vt 0.34375 0.171875
vt 0.21875 0.171875
vt 0.90625 0.484375
vt 0.90625 0.421875
vt 0.78125 0.421875
vt 0.78125 0.484375
vt 0.34375 0.234375
vt 0.34375 0.171875
vt 0.21875 0.171875
vt 0.21875 0.234375
vt 0.90625 0.484375
vt 0.90625 0.421875
vt 0.78125 0.421875
vt 0.78125 0.484375
vt 0.90625 0.671875
vt 0.90625 0.609375
vt 0.78125 0.609375
vt 0.78125 0.671875
vt 0.3009375 0.2054397
vt 0.3009375 0.2005178
vt 0.3107812 0.2005178
vt 0.3107812 0.2054397
vt 0.2615625 0.2054397
vt 0.2615625 0.2005178
vt 0.2517188 0.2005178
vt 0.2517188 0.2054397
vt 0.2517188 0.2054397
vt 0.2517188 0.2005178
vt 0.2615625 0.2005178
vt 0.2615625 0.2054397
vt 0.2615625 0.2054397
vt 0.2615625 0.2005178
vt 0.3009375 0.2005178
vt 0.3009375 0.2054397
vt 0.3107812 0.2054397
vt 0.3107812 0.2005178
vt 0.3009375 0.2005178
vt 0.3009375 0.2054397
vt 0.3009375 0.2054397
vt 0.3009375 0.2005178
vt 0.2615625 0.2005178
vt 0.2615625 0.2054397
vt 0.3009375 0.2054397
vt 0.3009375 0.2005178
vt 0.2615625 0.2005178
vt 0.2615625 0.2054397
vt 0.2615625 0.2054397
vt 0.2615625 0.2005178
vt 0.3009375 0.2005178
vt 0.3009375 0.2054397
vt 0.25 0.1796875
vt 0.21875 0.171875
vt 0.234375 0.1875
vt 0.3125 0.1796875
vt 0.21875 0.234375
vt 0.234375 0.21875
vt 0.25 0.2265625
vt 0.34375 0.171875
vt 0.328125 0.1875
vt 0.328125 0.21875
vt 0.34375 0.234375
vt 0.3125 0.2265625
vn -1.192093E-07 0 -1
vn -1.192093E-07 0 -1
vn -1.192093E-07 0 -1
vn -1.192093E-07 0 -1
vn 0 1 0
vn 0 1 0
vn 0 1 0
vn 0 1 0
vn 1.192093E-07 0 1
vn 1.192093E-07 0 1
vn 1.192093E-07 0 1
vn 1.192093E-07 0 1
vn 8.429369E-08 -0.7071068 0.7071068
vn 8.429369E-08 -0.7071068 0.7071068
vn 8.429369E-08 -0.7071068 0.7071068
vn 8.429369E-08 -0.7071068 0.7071068
vn -8.429369E-08 -0.7071068 -0.7071068
vn -8.429369E-08 -0.7071068 -0.7071068
vn -8.429369E-08 -0.7071068 -0.7071068
vn -8.429369E-08 -0.7071068 -0.7071068
vn 1 0 -1.192093E-07
vn 1 0 -1.192093E-07
vn 1 0 -1.192093E-07
vn 1 0 -1.192093E-07
vn 1 0 -1.192093E-07
vn 1 0 -1.192093E-07
vn 1 0 -1.192093E-07
vn 1 0 -1.192093E-07
vn 1 0 -1.192093E-07
vn 1 0 -1.192093E-07
vn 1 0 -1.192093E-07
vn 1 0 -1.192093E-07
vn 1 0 -1.192093E-07
vn 1 0 -1.192093E-07
vn 1 0 -1.192093E-07
vn 1 0 -1.192093E-07
vn 1 0 -1.192093E-07
vn 1 0 -1.192093E-07
vn 1 0 -1.192093E-07
vn 1 0 -1.192093E-07
vn -1 0 -1.192093E-07
vn -1 0 -1.192093E-07
vn -1 0 -1.192093E-07
vn -1 0 -1.192093E-07
vn -1 0 -1.192093E-07
vn -1 0 -1.192093E-07
vn -1 0 -1.192093E-07
vn -1 0 -1.192093E-07
vn -1 0 -1.192093E-07
vn -1 0 -1.192093E-07
vn -1 0 -1.192093E-07
vn -1 0 -1.192093E-07
vn -1 0 -1.192093E-07
vn -1 0 -1.192093E-07
vn -1 0 -1.192093E-07
vn -1 0 -1.192093E-07
vn 8.742278E-08 0 -1
vn 8.742278E-08 0 -1
vn 8.742278E-08 0 -1
vn 8.742278E-08 0 -1
vn 8.742278E-08 0 -1
vn 8.742278E-08 0 -1
vn 8.742278E-08 0 -1
vn 8.742278E-08 0 -1
vn 8.742278E-08 0 -1
vn 8.742278E-08 0 -1
vn 8.742278E-08 0 -1
vn 8.742278E-08 0 -1
vn 8.742277E-08 0 -1
vn 8.742277E-08 0 -1
vn 8.742277E-08 0 -1
vn 8.742277E-08 0 -1
vn 1 0 -1.192093E-07
vn 1 0 -1.192093E-07
vn 1 0 -1.192093E-07
vn 1 0 -1.192093E-07
vn 8.742278E-08 0 -1
vn 8.742278E-08 0 -1
vn 8.742278E-08 0 -1
vn 8.742278E-08 0 -1
vn 8.742277E-08 0 -1
vn 8.742277E-08 0 -1
vn 8.742277E-08 0 -1
vn 1 0 -1.192093E-07
vn 1 0 -1.192093E-07
vn 1 0 -1.192093E-07
vn 1 0 -1.192093E-07
vn 1 0 -1.192093E-07
vn 1 0 -1.192093E-07
vn 1 0 -1.192093E-07
vn 1 0 -1.192093E-07
vn -1 0 -1.192093E-07
vn -1 0 -1.192093E-07
vn -1 0 -1.192093E-07
vn -1 0 -1.192093E-07
vn -1 0 -1.192093E-07
vn -1 0 -1.192093E-07
vn -1 0 -1.192093E-07
vn -1 0 -1.192093E-07
vn -0.7071068 0 0.7071068
vn -0.7071068 0 0.7071068
vn -0.7071068 0 0.7071068
vn -0.7071068 0 0.7071068
vn 0.7071068 0 -0.7071068
vn 0.7071068 0 -0.7071068
vn 0.7071068 0 -0.7071068
vn 0.7071068 0 -0.7071068
vn -0.7071068 0 -0.7071068
vn -0.7071068 0 -0.7071068
vn -0.7071068 0 -0.7071068
vn -0.7071068 0 -0.7071068
vn -1 0 0
vn -1 0 0
vn -1 0 0
vn -1 0 0
vn 0.7071068 0 0.7071068
vn 0.7071068 0 0.7071068
vn 0.7071068 0 0.7071068
vn 0.7071068 0 0.7071068
vn 0 0 -1
vn 0 0 -1
vn 0 0 -1
vn 0 0 -1
vn 1 0 0
vn 1 0 0
vn 1 0 0
vn 1 0 0
vn 0 0 1
vn 0 0 1
vn 0 0 1
vn 0 0 1
vn 0 1 0
vn 0 1 0
vn 0 1 0
vn 0 1 0
vn 0 1 0
vn 0 1 0
vn 0 1 0
vn 0 1 0
vn 0 1 0
vn 0 1 0
vn 0 1 0
vn 0 1 0
g _Combined_Vis45_0_0
f 3/3/3 2/2/2 1/1/1
f 4/4/4 3/3/3 1/1/1
f 7/7/7 6/6/6 5/5/5
f 8/8/8 7/7/7 5/5/5
f 11/11/11 10/10/10 9/9/9
f 12/12/12 11/11/11 9/9/9
f 15/15/15 14/14/14 13/13/13
f 16/16/16 15/15/15 13/13/13
f 19/19/19 18/18/18 17/17/17
f 20/20/20 19/19/19 17/17/17
f 23/23/23 22/22/22 21/21/21
f 22/22/22 24/24/24 21/21/21
f 24/24/24 25/25/25 21/21/21
f 28/28/28 27/27/27 26/26/26
f 29/29/29 28/28/28 26/26/26
f 26/26/26 27/27/27 30/30/30
f 31/31/31 29/29/29 26/26/26
f 30/30/30 27/27/27 32/32/32
f 31/31/31 33/33/33 29/29/29
f 30/30/30 32/32/32 34/34/34
f 35/35/35 33/33/33 31/31/31
f 32/32/32 36/36/36 34/34/34
f 36/36/36 33/33/33 35/35/35
f 34/34/34 36/36/36 35/35/35
f 39/39/39 38/38/38 37/37/37
f 40/40/40 39/39/39 37/37/37
f 43/43/43 42/42/42 41/41/41
f 44/44/44 43/43/43 41/41/41
f 47/47/47 46/46/46 45/45/45
f 48/48/48 47/47/47 45/45/45
f 51/51/51 50/50/50 49/49/49
f 52/52/52 51/51/51 49/49/49
f 55/55/55 54/54/54 53/53/53
f 56/56/56 55/55/55 53/53/53
f 59/59/59 58/58/58 57/57/57
f 60/60/60 59/59/59 57/57/57
f 63/63/63 62/62/62 61/61/61
f 64/64/64 63/63/63 61/61/61
f 67/67/67 66/66/66 65/65/65
f 68/68/68 67/67/67 65/65/65
f 71/71/71 70/70/70 69/69/69
f 72/72/72 71/71/71 69/69/69
f 75/75/75 74/74/74 73/73/73
f 76/76/76 75/75/75 73/73/73
f 79/79/79 78/78/78 77/77/77
f 80/80/80 79/79/79 77/77/77
f 83/83/83 82/82/82 81/81/81
f 68/68/68 83/83/83 81/81/81
f 86/86/86 85/85/85 84/84/84
f 87/87/87 86/86/86 84/84/84
f 90/90/90 89/89/89 88/88/88
f 91/91/91 90/90/90 88/88/88
f 94/94/94 93/93/93 92/92/92
f 95/95/95 94/94/94 92/92/92
f 98/98/98 97/97/97 96/96/96
f 99/99/99 98/98/98 96/96/96
f 102/102/102 101/101/101 100/100/100
f 103/103/103 102/102/102 100/100/100
f 106/106/106 105/105/105 104/104/104
f 107/107/107 106/106/106 104/104/104
f 110/110/110 109/109/109 108/108/108
f 111/111/111 110/110/110 108/108/108
f 114/114/114 113/113/113 112/112/112
f 115/115/115 114/114/114 112/112/112
f 118/118/118 117/117/117 116/116/116
f 119/119/119 118/118/118 116/116/116
f 122/122/122 121/121/121 120/120/120
f 123/123/123 122/122/122 120/120/120
f 126/126/126 125/125/125 124/124/124
f 127/127/127 126/126/126 124/124/124
f 130/130/130 129/129/129 128/128/128
f 131/131/131 130/130/130 128/128/128
f 134/134/134 133/133/133 132/132/132
f 132/132/132 133/133/133 135/135/135
f 133/133/133 134/134/134 136/136/136
f 134/134/134 137/137/137 136/136/136
f 136/136/136 137/137/137 138/138/138
f 133/133/133 139/139/139 135/135/135
f 135/135/135 139/139/139 140/140/140
f 140/140/140 139/139/139 141/141/141
f 136/136/136 138/138/138 142/142/142
f 139/139/139 142/142/142 141/141/141
f 138/138/138 143/143/143 142/142/142
f 141/141/141 142/142/142 143/143/143
