g _Combined_Vis20_0
v -99.5 -9.5 3
v -100.5 -9.5 3
v -99.5 -8.5 3
v -99.5 -9.499999 2
v -99.5 -8.499999 2
v -100.5 -9.5 2
v -99.5 -8.5 3
v -100.5 -9.5 3
v -100.5 -9.5 2
v -99.5 -8.499999 2
v -100.5 -9.5 3
v -100.5 -10.5 2.999999
v -100.5 -10.5 2
v -100.5 -9.5 2
v -99.5 -9.5 3
v -99.5 -9.499999 2
v -99.5 -10.5 2
v -99.5 -10.5 3
v -99.5 -9.5 3
v -99.5 -10.5 3
v -100.5 -10.5 2.999999
v -100.5 -9.5 3
v -100.5 -10.5 2.999999
v -100.5 -11.5 2.999999
v -100.5 -11.5 2
v -100.5 -10.5 2
v -99.5 -8.499999 2
v -99.5 -9.5 3
v -99.5 -8.5 3
v -99.5 -10.5 3
v -99.5 -10.5 2
v -99.5 -11.5 2
v -99.5 -11.5 3
v -99.5 -10.5 3
v -99.5 -11.5 3
v -100.5 -11.5 2.999999
v -100.5 -10.5 2.999999
v -100.5 -10.5 2
v -100.5 -11.5 2
v -99.5 -11.5 2
v -99.5 -10.5 2
v -100.5 -9.5 2
v -100.5 -10.5 2
v -99.5 -10.5 2
v -99.5 -9.499999 2
vt 0.828125 0.2968749
vt 0.828125 0.234375
vt 0.8906249 0.2968749
vt 0.7656251 0.296875
vt 0.828125 0.2968749
vt 0.765625 0.234375
vt 0.8540039 0.296875
vt 0.765625 0.296875
vt 0.765625 0.359375
vt 0.8540039 0.359375
vt 0.890625 0.359375
vt 0.890625 0.234375
vt 0.765625 0.234375
vt 0.765625 0.359375
vt 0.890625 0.359375
vt 0.890625 0.234375
vt 0.765625 0.234375
vt 0.765625 0.359375
vt 0.890625 0.359375
vt 0.890625 0.234375
vt 0.765625 0.234375
vt 0.765625 0.359375
vt 0.890625 0.359375
vt 0.890625 0.234375
vt 0.765625 0.234375
vt 0.765625 0.359375
vt 0.890625 0.359375
vt 0.765625 0.234375
vt 0.765625 0.359375
vt 0.890625 0.359375
vt 0.890625 0.234375
vt 0.765625 0.234375
vt 0.765625 0.359375
vt 0.890625 0.359375
vt 0.890625 0.234375
vt 0.765625 0.234375
vt 0.765625 0.359375
vt 0.890625 0.359375
vt 0.890625 0.234375
vt 0.765625 0.234375
vt 0.765625 0.359375
vt 0.765625 0.984375
vt 0.765625 0.859375
vt 0.640625 0.859375
vt 0.640625 0.984375
vn -8.742278E-08 0 1
vn -8.742278E-08 0 1
vn -8.742278E-08 0 1
vn 8.742278E-08 0 -1
vn 8.742278E-08 0 -1
vn 8.742278E-08 0 -1
vn -0.7071068 0.7071067 -6.181724E-08
vn -0.7071068 0.7071067 -6.181724E-08
vn -0.7071068 0.7071067 -6.181724E-08
vn -0.7071068 0.7071067 -6.181724E-08
vn -1 0 -1.192093E-07
vn -1 0 -1.192093E-07
vn -1 0 -1.192093E-07
vn -1 0 -1.192093E-07
vn 1 0 0
vn 1 0 0
vn 1 0 0
vn 1 0 0
vn 0 0 1
vn 0 0 1
vn 0 0 1
vn 0 0 1
vn -1 0 -1.192093E-07
vn -1 0 -1.192093E-07
vn -1 0 -1.192093E-07
vn -1 0 -1.192093E-07
vn 1 0 -1.192093E-07
vn 1 0 -1.192093E-07
vn 1 0 -1.192093E-07
vn 1 0 0
vn 1 0 0
vn 1 0 0
vn 1 0 0
vn 0 0 1
vn 0 0 1
vn 0 0 1
vn 0 0 1
vn 8.742278E-08 0 -1
vn 8.742278E-08 0 -1
vn 8.742278E-08 0 -1
vn 8.742278E-08 0 -1
vn 8.742278E-08 0 -1
vn 8.742278E-08 0 -1
vn 8.742278E-08 0 -1
vn 8.742278E-08 0 -1
g _Combined_Vis20_0_0
f 3/3/3 2/2/2 1/1/1
f 6/6/6 5/5/5 4/4/4
f 9/9/9 8/8/8 7/7/7
f 10/10/10 9/9/9 7/7/7
f 13/13/13 12/12/12 11/11/11
f 14/14/14 13/13/13 11/11/11
f 17/17/17 16/16/16 15/15/15
f 18/18/18 17/17/17 15/15/15
f 21/21/21 20/20/20 19/19/19
f 22/22/22 21/21/21 19/19/19
f 25/25/25 24/24/24 23/23/23
f 26/26/26 25/25/25 23/23/23
f 28/28/28 16/16/16 27/27/27
f 29/29/29 28/28/28 27/27/27
f 32/32/32 31/31/31 30/30/30
f 33/33/33 32/32/32 30/30/30
f 36/36/36 35/35/35 34/34/34
f 37/37/37 36/36/36 34/34/34
f 40/40/40 39/39/39 38/38/38
f 41/41/41 40/40/40 38/38/38
f 44/44/44 43/43/43 42/42/42
f 45/45/45 44/44/44 42/42/42
