g _Combined_Vis62_1
v -139.2642 8.329226 -145.9159
v -139.5534 8.372228 -145.8555
v -139.3168 8.229675 -145.6371
v -139.489 8.421848 -145.279
v -139.6753 8.421848 -145.526
v -139.6789 8.854908 -145.3372
v -138.9907 8.444784 -145.5869
v -139.2642 8.329226 -145.9159
v -139.276 8.229675 -145.5901
v -139.2116 8.421848 -145.3053
v -139.489 8.421848 -145.279
v -139.3632 8.854908 -145.2254
v -139.1239 9.672729 -145.2994
v -138.9899 9.672729 -145.7233
v -138.9946 8.881762 -145.3881
v -139.6789 8.854908 -145.3372
v -139.7567 8.854908 -145.7008
v -139.7491 9.690442 -145.5298
v -139.2639 10.53233 -145.3223
v -139.0303 10.53233 -145.6443
v -139.1239 9.672729 -145.2994
v -139.7567 8.854908 -145.7008
v -139.457 8.869171 -145.998
v -139.6794 9.684075 -145.8076
v -138.9907 8.444784 -145.5869
v -139.2116 8.421848 -145.3053
v -138.9946 8.881762 -145.3881
v -139.0386 8.900155 -145.8883
v -139.457 8.869171 -145.998
v -139.2642 8.329226 -145.9159
v -139.4968 9.69227 -145.2524
v -139.7491 9.690442 -145.5298
v -139.5255 10.53363 -145.3326
v -139.3947 11.37366 -145.4257
v -139.117 11.34965 -145.5225
v -139.2639 10.53233 -145.3223
v -139.5255 10.53363 -145.3326
v -139.3947 11.37366 -145.4257
v -139.2639 10.53233 -145.3223
v -139.5024 12.15933 -145.6011
v -139.2758 12.15781 -145.5181
v -139.3947 11.37366 -145.4257
v -139.6794 9.684075 -145.8076
v -139.2964 10.53233 -145.8571
v -139.6063 10.53233 -145.8367
v -139.3793 12.14849 -145.7548
v -139.2032 12.14636 -145.7015
v -139.3573 12.77097 -145.6217
v -139.6063 10.53233 -145.8367
v -139.2964 10.53233 -145.8571
v -139.5613 11.35218 -145.8078
v -139.117 11.34965 -145.5225
v -139.17 11.34116 -145.782
v -139.0303 10.53233 -145.6443
v -139.4066 8.229675 -145.5645
v -139.5534 8.372228 -145.8555
v -139.6753 8.421848 -145.526
v -139.276 8.229675 -145.5901
v -139.371 8.229675 -145.5173
v -139.3181 8.229675 -145.5224
v -139.6334 11.35218 -145.6058
v -139.5613 11.35218 -145.8078
v -139.3793 12.14849 -145.7548
v -139.6334 11.35218 -145.6058
v -139.5024 12.15933 -145.6011
v -139.3947 11.37366 -145.4257
v -139.3573 12.77097 -145.6217
v -139.2758 12.15781 -145.5181
v -139.5024 12.15933 -145.6011
v -139.276 8.229675 -145.5901
v -139.2116 8.421848 -145.3053
v -138.9907 8.444784 -145.5869
v -139.3181 8.229675 -145.5224
v -139.371 8.229675 -145.5173
v -139.2116 8.421848 -145.3053
v -139.489 8.421848 -145.279
v -138.9946 8.881762 -145.3881
v -139.0386 8.900155 -145.8883
v -138.9907 8.444784 -145.5869
v -139.6753 8.421848 -145.526
v -139.5534 8.372228 -145.8555
v -139.7567 8.854908 -145.7008
v -139.3168 8.229675 -145.6371
v -139.5534 8.372228 -145.8555
v -139.3833 8.229675 -145.6273
v -139.6789 8.854908 -145.3372
v -139.6753 8.421848 -145.526
v -139.7567 8.854908 -145.7008
v -139.1239 9.672729 -145.2994
v -139.0303 10.53233 -145.6443
v -138.9899 9.672729 -145.7233
v -139.4968 9.69227 -145.2524
v -139.6789 8.854908 -145.3372
v -139.7491 9.690442 -145.5298
v -139.276 8.229675 -145.5901
v -139.2642 8.329226 -145.9159
v -139.3168 8.229675 -145.6371
v -139.2964 10.53233 -145.8571
v -139.3477 9.672729 -145.9702
v -139.0303 10.53233 -145.6443
v -138.9946 8.881762 -145.3881
v -138.9899 9.672729 -145.7233
v -139.0386 8.900155 -145.8883
v -139.2642 8.329226 -145.9159
v -139.457 8.869171 -145.998
v -139.5534 8.372228 -145.8555
v -139.0386 8.900155 -145.8883
v -139.3477 9.672729 -145.9702
v -139.457 8.869171 -145.998
v -139.7567 8.854908 -145.7008
v -139.5534 8.372228 -145.8555
v -139.457 8.869171 -145.998
v -139.2639 10.53233 -145.3223
v -139.117 11.34965 -145.5225
v -139.0303 10.53233 -145.6443
v -139.117 11.34965 -145.5225
v -139.2032 12.14636 -145.7015
v -139.17 11.34116 -145.782
v -139.6334 11.35218 -145.6058
v -139.3947 11.37366 -145.4257
v -139.5255 10.53363 -145.3326
v -139.2639 10.53233 -145.3223
v -139.4968 9.69227 -145.2524
v -139.5255 10.53363 -145.3326
v -139.3947 11.37366 -145.4257
v -139.2758 12.15781 -145.5181
v -139.117 11.34965 -145.5225
v -139.3477 9.672729 -145.9702
v -139.2964 10.53233 -145.8571
v -139.6794 9.684075 -145.8076
v -139.0303 10.53233 -145.6443
v -139.17 11.34116 -145.782
v -139.2964 10.53233 -145.8571
v -139.3833 8.229675 -145.6273
v -139.5534 8.372228 -145.8555
v -139.4066 8.229675 -145.5645
v -139.3793 12.14849 -145.7548
v -139.17 11.34116 -145.782
v -139.2032 12.14636 -145.7015
v -139.3181 8.229675 -145.5224
v -139.2116 8.421848 -145.3053
v -139.276 8.229675 -145.5901
v -138.9907 8.444784 -145.5869
v -139.0386 8.900155 -145.8883
v -139.2642 8.329226 -145.9159
v -139.7086 10.52493 -145.6162
v -139.5613 11.35218 -145.8078
v -139.6334 11.35218 -145.6058
v -139.6794 9.684075 -145.8076
v -139.457 8.869171 -145.998
v -139.3477 9.672729 -145.9702
v -138.9899 9.672729 -145.7233
v -139.3477 9.672729 -145.9702
v -139.0386 8.900155 -145.8883
v -139.0303 10.53233 -145.6443
v -139.3632 8.854908 -145.2254
v -139.6789 8.854908 -145.3372
v -139.4968 9.69227 -145.2524
v -139.489 8.421848 -145.279
v -138.9946 8.881762 -145.3881
v -139.3632 8.854908 -145.2254
v -139.1239 9.672729 -145.2994
v -139.2116 8.421848 -145.3053
v -139.7491 9.690442 -145.5298
v -139.6794 9.684075 -145.8076
v -139.7086 10.52493 -145.6162
v -139.7567 8.854908 -145.7008
v -139.371 8.229675 -145.5173
v -139.4066 8.229675 -145.5645
v -139.489 8.421848 -145.279
v -139.6753 8.421848 -145.526
v -139.3168 8.229675 -145.6371
v -139.3833 8.229675 -145.6273
v -139.276 8.229675 -145.5901
v -139.4066 8.229675 -145.5645
v -139.2758 12.15781 -145.5181
v -139.2032 12.14636 -145.7015
v -139.117 11.34965 -145.5225
v -139.3573 12.77097 -145.6217
v -139.1239 9.672729 -145.2994
v -139.4968 9.69227 -145.2524
v -139.2639 10.53233 -145.3223
v -139.3632 8.854908 -145.2254
v -139.5024 12.15933 -145.6011
v -139.3793 12.14849 -145.7548
v -139.3573 12.77097 -145.6217
v -139.6334 11.35218 -145.6058
v -139.5613 11.35218 -145.8078
v -139.17 11.34116 -145.782
v -139.3793 12.14849 -145.7548
v -139.2964 10.53233 -145.8571
v -139.6063 10.53233 -145.8367
v -139.5613 11.35218 -145.8078
v -139.7086 10.52493 -145.6162
v -139.6794 9.684075 -145.8076
v -139.5255 10.53363 -145.3326
v -139.7491 9.690442 -145.5298
v -139.7086 10.52493 -145.6162
v -139.6334 11.35218 -145.6058
vt 0.54606 0.074597
vt 0.962016 0.088338
vt 0.551851 0
vt 0.54606 0.104194
vt 0.927316 0.104194
vt 0.540268 0.208389
vt 0.175425 0.088338
vt 0.54606 0.074597
vt 0.179672 0
vt 0.206444 0.135333
vt 0.54606 0.104194
vt 0.16491 0.208389
vt 0.171178 0.539539
vt 0.540268 0.561112
vt 0.171178 0.176677
vt 0.540268 0.208389
vt 0.961648 0.208389
vt 0.616368 0.608594
vt 0.258777 0.786115
vt 0.545568 0.812682
vt 0.171178 0.539539
vt 0.922508 0.63078
vt 0.961648 0.208389
vt 1 0.561112
vt 0.096723 0.088338
vt 0.206444 0.135333
vt 0.013775 0.176677
vt 0.540268 0.149195
vt 1 0.176677
vt 0.54606 0.074597
vt 0.105668 0.569705
vt 0.616368 0.608594
vt 0.197639 0.839363
vt 0.297402 0.865944
vt 0.466165 0.865434
vt 0.258777 0.786115
vt 0.13552 0.812682
vt 0.379961 0.971725
vt 0.297402 0.865944
vt 0.317835 0.908174
vt 0.402216 0.907919
vt 0.297402 0.865944
vt 0.980824 0.600127
vt 0.923 0.812682
vt 0.907257 0.812682
vt 0.674298 0.959414
vt 0.660579 0.911339
vt 0.565447 0.947104
vt 0.907257 0.812682
vt 0.923 0.812682
vt 0.78315 0.971725
vt 0.553182 0.86417
vt 0.755712 0.875574
vt 0.545568 0.812682
vt 0.892983 0
vt 0.962016 0.088338
vt 0.927316 0.104194
vt 0.179672 0
vt 0.551851 0
vt 0.247977 0.062277
vt 0.588678 0.943879
vt 0.764126 0.943879
vt 0.577062 0.97194
vt 0.379961 0.971725
vt 0.359114 0.961064
vt 0.297402 0.865944
vt 0.338267 0.950403
vt 0.402216 0.907919
vt 0.317835 0.908174
vt 0.179672 0
vt 0.206444 0.135333
vt 0.096723 0.088338
vt 0.247977 0.062277
vt 0.551851 0
vt 0.206444 0.135333
vt 0.54606 0.104194
vt 0.171178 0.176677
vt 0.540268 0.149195
vt 0.175425 0.088338
vt 0.927316 0.104194
vt 0.962016 0.088338
vt 0.961648 0.208389
vt 0.551851 0
vt 0.962016 0.088338
vt 0.924031 0
vt 0.540268 0.208389
vt 0.927316 0.104194
vt 0.961648 0.208389
vt 0.171178 0.539539
vt 0.545568 0.812682
vt 0.540268 0.561112
vt 0.105668 0.569705
vt 0.540268 0.208389
vt 0.616368 0.608594
vt 0.179672 0
vt 0.54606 0.074597
vt 0.551851 0
vt 0.923 0.812682
vt 1 0.561112
vt 0.545568 0.812682
vt 0.171178 0.176677
vt 0.540268 0.561112
vt 0.540268 0.149195
vt 0.54606 0.074597
vt 1 0.176677
vt 0.962016 0.088338
vt 0.540268 0.149195
vt 1 0.561112
vt 1 0.176677
vt 0.961648 0.208389
vt 0.962016 0.088338
vt 1 0.176677
vt 0.258777 0.786115
vt 0.466165 0.865434
vt 0.545568 0.812682
vt 0.553182 0.86417
vt 0.660579 0.911339
vt 0.755712 0.875574
vt 0.197639 0.839363
vt 0.379961 0.971725
vt 0.13552 0.812682
vt 0.13552 0.812682
vt 0.105668 0.569705
vt 0.197639 0.839363
vt 0.297402 0.865944
vt 0.402216 0.907919
vt 0.466165 0.865434
vt 1 0.561112
vt 0.923 0.812682
vt 0.980824 0.600127
vt 0.545568 0.812682
vt 0.755712 0.875574
vt 0.923 0.812682
vt 0.924031 0
vt 0.962016 0.088338
vt 0.892983 0
vt 0.674298 0.959414
vt 0.755712 0.875574
vt 0.660579 0.911339
vt 0.247977 0.062277
vt 0.206444 0.135333
vt 0.179672 0
vt 0.175425 0.088338
vt 0.540268 0.149195
vt 0.54606 0.074597
vt 0.622033 0.835801
vt 0.764126 0.943879
vt 0.588678 0.943879
vt 1 0.561112
vt 0.961648 0.208389
vt 1 0.176677
vt 0.540268 0.561112
vt 1 0.561112
vt 0.540268 0.149195
vt 0.545568 0.812682
vt 0.16491 0.208389
vt 0.540268 0.208389
vt 0.105668 0.569705
vt 0.54606 0.104194
vt 0.013775 0.176677
vt 0.16491 0.208389
vt 0 0.561112
vt 0.206444 0.135333
vt 0.616368 0.608594
vt 0.922508 0.63078
vt 0.622033 0.835801
vt 0.961648 0.208389
vt 0.551851 0
vt 0.892983 0
vt 0.54606 0.104194
vt 0.927316 0.104194
vt 0.551851 0
vt 0.924031 0
vt 0.551851 0
vt 0.892983 0
vt 0.559314 0.905637
vt 0.660579 0.911339
vt 0.553182 0.86417
vt 0.565447 0.947104
vt 0 0.561112
vt 0.105668 0.569705
vt 0.13552 0.812682
vt 0.16491 0.208389
vt 0.472704 0.985862
vt 0.577062 0.97194
vt 0.565447 1
vt 0.379961 0.971725
vt 0.78315 0.971725
vt 0.755712 0.875574
vt 0.674298 0.959414
vt 0.923 0.812682
vt 0.863415 0.809874
vt 0.764126 0.943879
vt 0.622033 0.835801
vt 0.922508 0.63078
vt 0.197639 0.839363
vt 0.616368 0.608594
vt 0.622033 0.835801
vt 0.588678 0.943879
vn -0.2109258 -0.9072785 -0.3638078
vn -0.2109258 -0.9072785 -0.3638078
vn -0.2109258 -0.9072785 -0.3638078
vn -0.7710264 -0.2598216 0.5813872
vn -0.7710264 -0.2598216 0.5813872
vn -0.7710264 -0.2598216 0.5813872
vn 0.5893155 -0.7783912 -0.2163662
vn 0.5893155 -0.7783912 -0.2163662
vn 0.5893155 -0.7783912 -0.2163662
vn 0.0935821 -0.1490438 0.9843924
vn 0.0935821 -0.1490438 0.9843924
vn 0.0935821 -0.1490438 0.9843924
vn 0.9464257 0.1211635 0.2993289
vn 0.9464257 0.1211635 0.2993289
vn 0.9464257 0.1211635 0.2993289
vn -0.9772907 -0.03389772 0.2091739
vn -0.9772907 -0.03389772 0.2091739
vn -0.9772907 -0.03389772 0.2091739
vn 0.8007591 0.1458316 0.5809629
vn 0.8007591 0.1458316 0.5809629
vn 0.8007591 0.1458316 0.5809629
vn -0.7031942 -0.02597551 -0.7105231
vn -0.7031942 -0.02597551 -0.7105231
vn -0.7031942 -0.02597551 -0.7105231
vn 0.7702629 -0.2583807 0.583039
vn 0.7702629 -0.2583807 0.583039
vn 0.7702629 -0.2583807 0.583039
vn 0.2570841 -0.05487298 -0.9648299
vn 0.2570841 -0.05487298 -0.9648299
vn 0.2570841 -0.05487298 -0.9648299
vn -0.7393218 0.03888625 0.6722286
vn -0.7393218 0.03888625 0.6722286
vn -0.7393218 0.03888625 0.6722286
vn 0.3372811 0.1663121 0.9265968
vn 0.3372811 0.1663121 0.9265968
vn 0.3372811 0.1663121 0.9265968
vn -0.0386788 0.1159632 0.9925001
vn -0.0386788 0.1159632 0.9925001
vn -0.0386788 0.1159632 0.9925001
vn -0.3387134 0.1605901 0.9270836
vn -0.3387134 0.1605901 0.9270836
vn -0.3387134 0.1605901 0.9270836
vn -0.06573488 -0.02848759 -0.9974304
vn -0.06573488 -0.02848759 -0.9974304
vn -0.06573488 -0.02848759 -0.9974304
vn 0.2863716 0.1906881 -0.9389512
vn 0.2863716 0.1906881 -0.9389512
vn 0.2863716 0.1906881 -0.9389512
vn -0.06571182 0.03871944 -0.9970871
vn -0.06571182 0.03871944 -0.9970871
vn -0.06571182 0.03871944 -0.9970871
vn 0.9702252 0.1331142 -0.2023453
vn 0.9702252 0.1331142 -0.2023453
vn 0.9702252 0.1331142 -0.2023453
vn -0.5879743 -0.8030849 -0.09664807
vn -0.5879743 -0.8030849 -0.09664807
vn -0.5879743 -0.8030849 -0.09664807
vn 0 -1 0
vn 0 -1 0
vn 0 -1 0
vn -0.9163153 0.2311561 -0.3270065
vn -0.9163153 0.2311561 -0.3270065
vn -0.9163153 0.2311561 -0.3270065
vn -0.6051246 0.09360234 0.7906092
vn -0.6051246 0.09360234 0.7906092
vn -0.6051246 0.09360234 0.7906092
vn -0.3412901 0.1122507 0.9332314
vn -0.3412901 0.1122507 0.9332314
vn -0.3412901 0.1122507 0.9332314
vn 0.5553586 -0.7422157 0.3750902
vn 0.5553586 -0.7422157 0.3750902
vn 0.5553586 -0.7422157 0.3750902
vn 0.0612851 -0.7620111 0.6446575
vn 0.0612851 -0.7620111 0.6446575
vn 0.0612851 -0.7620111 0.6446575
vn 0.0612851 -0.7620111 0.6446575
vn 0.995173 0.04790416 -0.08564933
vn 0.995173 0.04790416 -0.08564933
vn 0.995173 0.04790416 -0.08564933
vn -0.9110085 -0.2896489 -0.2935421
vn -0.9110085 -0.2896489 -0.2935421
vn -0.9110085 -0.2896489 -0.2935421
vn -0.07244164 -0.8692365 -0.4890606
vn -0.07244164 -0.8692365 -0.4890606
vn -0.07244164 -0.8692365 -0.4890606
vn -0.9730706 -0.09877711 0.2082707
vn -0.9730706 -0.09877711 0.2082707
vn -0.9730706 -0.09877711 0.2082707
vn 0.9533108 0.01709943 0.3015064
vn 0.9533108 0.01709943 0.3015064
vn 0.9533108 0.01709943 0.3015064
vn -0.7368909 0.09242235 0.669664
vn -0.7368909 0.09242235 0.669664
vn -0.7368909 0.09242235 0.669664
vn 0.3085432 -0.9127734 -0.2676676
vn 0.3085432 -0.9127734 -0.2676676
vn 0.3085432 -0.9127734 -0.2676676
vn 0.623287 0.06530703 -0.7792614
vn 0.623287 0.06530703 -0.7792614
vn 0.623287 0.06530703 -0.7792614
vn 0.9950704 -0.04372838 -0.08900955
vn 0.9950704 -0.04372838 -0.08900955
vn 0.9950704 -0.04372838 -0.08900955
vn -0.2314411 -0.2264652 -0.9461229
vn -0.2314411 -0.2264652 -0.9461229
vn -0.2314411 -0.2264652 -0.9461229
vn 0.2537349 -0.001005833 -0.9672733
vn 0.2537349 -0.001005833 -0.9672733
vn 0.2537349 -0.001005833 -0.9672733
vn -0.7008169 -0.06765135 -0.7101261
vn -0.7008169 -0.06765135 -0.7101261
vn -0.7008169 -0.06765135 -0.7101261
vn 0.8094112 -0.0016475 0.5872399
vn 0.8094112 -0.0016475 0.5872399
vn 0.8094112 -0.0016475 0.5872399
vn 0.9776252 0.06045854 -0.2014789
vn 0.9776252 0.06045854 -0.2014789
vn 0.9776252 0.06045854 -0.2014789
vn -0.6028481 0.1799713 0.7772931
vn -0.6028481 0.1799713 0.7772931
vn -0.6028481 0.1799713 0.7772931
vn -0.03888349 0.09353026 0.9948568
vn -0.03888349 0.09353026 0.9948568
vn -0.03888349 0.09353026 0.9948568
vn 0.3331218 0.06037081 0.9409491
vn 0.3331218 0.06037081 0.9409491
vn 0.3331218 0.06037081 0.9409491
vn -0.431522 0.142912 -0.8907104
vn -0.431522 0.142912 -0.8907104
vn -0.431522 0.142912 -0.8907104
vn 0.6244243 -0.02506263 -0.7806832
vn 0.6244243 -0.02506263 -0.7806832
vn 0.6244243 -0.02506263 -0.7806832
vn -0.4807829 -0.8585948 -0.1779404
vn -0.4807829 -0.8585948 -0.1779404
vn -0.4807829 -0.8585948 -0.1779404
vn 0.2890968 0.1070312 -0.9512978
vn 0.2890968 0.1070312 -0.9512978
vn 0.2890968 0.1070312 -0.9512978
vn 0.5812475 -0.7294549 0.3606201
vn 0.5812475 -0.7294549 0.3606201
vn 0.5812475 -0.7294549 0.3606201
vn 0.7841421 -0.2830799 -0.5522562
vn 0.7841421 -0.2830799 -0.5522562
vn 0.7841421 -0.2830799 -0.5522562
vn -0.9380413 0.08951318 -0.3347625
vn -0.9380413 0.08951318 -0.3347625
vn -0.9380413 0.08951318 -0.3347625
vn -0.4356962 0.0902739 -0.8955554
vn -0.4356962 0.0902739 -0.8955554
vn -0.4356962 0.0902739 -0.8955554
vn 0.5623793 0.1385919 -0.815182
vn 0.5623793 0.1385919 -0.815182
vn 0.5623793 0.1385919 -0.815182
vn 0.5649061 0.1018676 -0.8188431
vn -0.3338242 -0.02282177 0.9423591
vn -0.3338242 -0.02282177 0.9423591
vn -0.3338242 -0.02282177 0.9423591
vn -0.3338469 -0.01961414 0.9424232
vn 0.4058936 -0.03600357 0.9132109
vn 0.4058936 -0.03600357 0.9132109
vn 0.4058936 -0.03600357 0.9132109
vn 0.4054503 -0.02681424 0.9137237
vn -0.9696283 0.02181644 -0.2436083
vn -0.9696283 0.02181644 -0.2436083
vn -0.9696283 0.02181644 -0.2436083
vn -0.9679798 0.05880802 -0.2440424
vn -0.5019135 -0.7777191 0.3784652
vn -0.5019135 -0.7777191 0.3784652
vn -0.5019135 -0.7777191 0.3784652
vn -0.5019135 -0.7777191 0.3784652
vn 0 -1 0
vn 0 -1 0
vn 0 -1 0
vn 0 -1 0
vn 0.9185475 0.1785884 0.3526708
vn 0.9185475 0.1785884 0.3526708
vn 0.9185475 0.1785884 0.3526708
vn 0.9181063 0.1815412 0.3523118
vn 0.1273882 0.04708709 0.9907346
vn 0.1273882 0.04708709 0.9907346
vn 0.1273882 0.04708709 0.9907346
vn 0.1276291 0.05238742 0.9904374
vn -0.764784 0.160446 -0.6239892
vn -0.764784 0.160446 -0.6239892
vn -0.764784 0.160446 -0.6239892
vn -0.7695377 0.1284849 -0.6255424
vn 0.06720332 0.05102 -0.996434
vn 0.06720332 0.05102 -0.996434
vn 0.06720332 0.05102 -0.996434
vn 0.06792952 0.08173404 -0.9943365
vn -0.906022 0.06446297 -0.4182926
vn -0.906022 0.06446297 -0.4182926
vn -0.906022 0.06446297 -0.4182926
vn -0.9060522 0.06380035 -0.4183289
vn -0.8375568 0.09636123 0.5377854
vn -0.8375568 0.09636123 0.5377854
vn -0.8375568 0.09636123 0.5377854
vn -0.8390597 0.06952212 0.539579
g _Combined_Vis62_1_0
f 3/3/3 2/2/2 1/1/1
f 6/6/6 5/5/5 4/4/4
f 9/9/9 8/8/8 7/7/7
f 12/12/12 11/11/11 10/10/10
f 15/15/15 14/14/14 13/13/13
f 18/18/18 17/17/17 16/16/16
f 21/21/21 20/20/20 19/19/19
f 24/24/24 23/23/23 22/22/22
f 27/27/27 26/26/26 25/25/25
f 30/30/30 29/29/29 28/28/28
f 33/33/33 32/32/32 31/31/31
f 36/36/36 35/35/35 34/34/34
f 39/39/39 38/38/38 37/37/37
f 42/42/42 41/41/41 40/40/40
f 45/45/45 44/44/44 43/43/43
f 48/48/48 47/47/47 46/46/46
f 51/51/51 50/50/50 49/49/49
f 54/54/54 53/53/53 52/52/52
f 57/57/57 56/56/56 55/55/55
f 60/60/60 59/59/59 58/58/58
f 63/63/63 62/62/62 61/61/61
f 66/66/66 65/65/65 64/64/64
f 69/69/69 68/68/68 67/67/67
f 72/72/72 71/71/71 70/70/70
f 75/75/75 74/74/74 73/73/73
f 76/76/76 74/74/74 75/75/75
f 79/79/79 78/78/78 77/77/77
f 82/82/82 81/81/81 80/80/80
f 85/85/85 84/84/84 83/83/83
f 88/88/88 87/87/87 86/86/86
f 91/91/91 90/90/90 89/89/89
f 94/94/94 93/93/93 92/92/92
f 97/97/97 96/96/96 95/95/95
f 100/100/100 99/99/99 98/98/98
f 103/103/103 102/102/102 101/101/101
f 106/106/106 105/105/105 104/104/104
f 109/109/109 108/108/108 107/107/107
f 112/112/112 111/111/111 110/110/110
f 115/115/115 114/114/114 113/113/113
f 118/118/118 117/117/117 116/116/116
f 121/121/121 120/120/120 119/119/119
f 124/124/124 123/123/123 122/122/122
f 127/127/127 126/126/126 125/125/125
f 130/130/130 129/129/129 128/128/128
f 133/133/133 132/132/132 131/131/131
f 136/136/136 135/135/135 134/134/134
f 139/139/139 138/138/138 137/137/137
f 142/142/142 141/141/141 140/140/140
f 145/145/145 144/144/144 143/143/143
f 148/148/148 147/147/147 146/146/146
f 151/151/151 150/150/150 149/149/149
f 154/154/154 153/153/153 152/152/152
f 152/152/152 153/153/153 155/155/155
f 158/158/158 157/157/157 156/156/156
f 157/157/157 159/159/159 156/156/156
f 162/162/162 161/161/161 160/160/160
f 161/161/161 163/163/163 160/160/160
f 166/166/166 165/165/165 164/164/164
f 165/165/165 167/167/167 164/164/164
f 170/170/170 169/169/169 168/168/168
f 171/171/171 169/169/169 170/170/170
f 174/174/174 173/173/173 172/172/172
f 175/175/175 173/173/173 174/174/174
f 59/59/59 175/175/175 174/174/174
f 178/178/178 177/177/177 176/176/176
f 176/176/176 177/177/177 179/179/179
f 182/182/182 181/181/181 180/180/180
f 181/181/181 183/183/183 180/180/180
f 186/186/186 185/185/185 184/184/184
f 184/184/184 185/185/185 187/187/187
f 190/190/190 189/189/189 188/188/188
f 189/189/189 191/191/191 188/188/188
f 194/194/194 193/193/193 192/192/192
f 192/192/192 195/195/195 194/194/194
f 198/198/198 197/197/197 196/196/196
f 196/196/196 199/199/199 198/198/198
