g _Combined_Vis49_0
v 0.5000004 8.500002 0.5000027
v 0.5000002 8.500002 -0.4999974
v 0.5000002 7.500002 -0.4999974
v 0.5000004 7.500001 0.5000027
v 0.5000002 6.500001 -0.4999974
v 0.5000004 6.500001 0.5000027
v 0.5000002 5.500001 -0.4999974
v 0.5000004 5.500001 0.5000027
v 0.5000002 4.500001 -0.4999974
v 0.5000004 4.500001 0.5000027
v 0.5000002 3.500001 -0.4999974
v 0.5000004 3.500001 0.5000027
v 0.5000002 2.5 -0.4999974
v 0.5000004 2.5 0.5000027
v 0.5000002 1.5 -0.4999974
v 0.5000004 1.5 0.5000027
v 0.5000002 0.5 -0.4999974
v 0.5000004 0.5 0.5000027
v 0.5000004 16.50001 0.5000029
v 0.5000002 16.50001 -0.4999975
v 0.5000002 15.50001 -0.4999975
v 0.5000004 15.50001 0.5000029
v 0.5000002 14.50001 -0.4999975
v 0.5000004 14.50001 0.5000029
v 0.5000002 13.50001 -0.4999975
v 0.5000004 13.50001 0.5000029
v 0.5000002 12.50001 -0.4999975
v 0.5000004 12.50001 0.5000029
v 0.5000002 11.50001 -0.4999975
v 0.5000004 11.50001 0.5000029
v 0.5000002 10.50001 -0.4999975
v 0.5000004 10.50001 0.5000029
v 0.5000002 9.500007 -0.4999975
v 0.5000004 9.500007 0.5000029
v 0.5000002 8.500002 -0.4999974
v 0.5000004 8.500002 0.5000027
v 0.5219568 -0.2852633 -0.4580603
v 0.1085877 -0.3949824 -0.5005164
v 0.1085877 -0.4210324 -0.4201783
v 0.5219568 -0.2852633 -0.4580603
v 0.1085877 -0.4210324 -0.4201783
v 0.5219568 -0.3533344 -0.4057533
v 0.1085877 -0.4210324 -0.4201783
v 0.02195663 -0.5000545 -0.4201783
v 0.5219568 -0.5000545 -0.3624782
v 0.5219568 -0.3533344 -0.4057533
v -0.4780434 0.4999462 0.4994839
v 0.5219569 0.4999462 0.4994841
v 0.5219569 -0.4210324 0.4994841
v -0.4780434 -0.4210324 0.4994839
v -0.4780434 -0.5000545 0.4994839
v 0.5219569 -0.5000545 0.4994841
v 0.5219568 -0.2852633 -0.4580603
v 0.5219569 0.4999462 0.4994841
v 0.5219568 0.4999462 -0.5005163
v 0.5219568 -0.3533344 -0.4057533
v 0.5219569 -0.4210324 0.4994841
v 0.5219569 -0.5000545 0.4994841
v 0.5219568 -0.5000545 -0.3624782
v 0.02195662 -0.4698544 -0.5005164
v -0.4780436 -0.4210324 -0.5005154
v -0.4780436 -0.5000545 -0.4201774
v 0.02195663 -0.5000545 -0.4201783
v -0.4780434 -0.4210324 0.4994839
v -0.4780434 -0.5000545 0.4994839
v -0.4780436 -0.5000545 -0.4201774
v -0.4780434 0.4999462 0.4994839
v -0.4780436 0.4999462 -0.5005164
v -0.4780436 -0.4210324 -0.5005154
v 0.02195663 -0.5000545 -0.4201783
v -0.4780436 -0.5000545 -0.4201774
v -0.4780434 -0.5000545 0.4994839
v 0.5219568 -0.5000545 -0.3624782
v 0.5219569 -0.5000545 0.4994841
v 0.1085877 -0.3949824 -0.5005164
v 0.02195662 -0.4698544 -0.5005164
v 0.02195663 -0.5000545 -0.4201783
v 0.1085877 -0.4210324 -0.4201783
v 0.5219568 0.4999462 -0.5005163
v 0.1085877 -0.3949824 -0.5005164
v 0.5219568 -0.2852633 -0.4580603
v -0.4780436 0.4999462 -0.5005164
v -0.4780436 -0.4210324 -0.5005154
v 0.02195662 -0.4698544 -0.5005164
vt 0.484375 0.6015625
vt 0.453125 0.6015625
vt 0.453125 0.6171875
vt 0.484375 0.6171875
vt 0.453125 0.6328125
vt 0.484375 0.6328125
vt 0.453125 0.6484375
vt 0.484375 0.6484375
vt 0.453125 0.6640625
vt 0.484375 0.6640625
vt 0.453125 0.6796875
vt 0.484375 0.6796875
vt 0.453125 0.6953125
vt 0.484375 0.6953125
vt 0.453125 0.7109375
vt 0.484375 0.7109375
vt 0.453125 0.7265625
vt 0.484375 0.7265625
vt 0.484375 0.6015625
vt 0.453125 0.6015625
vt 0.453125 0.6171875
vt 0.484375 0.6171875
vt 0.453125 0.6328125
vt 0.484375 0.6328125
vt 0.453125 0.6484375
vt 0.484375 0.6484375
vt 0.453125 0.6640625
vt 0.484375 0.6640625
vt 0.453125 0.6796875
vt 0.484375 0.6796875
vt 0.453125 0.6953125
vt 0.484375 0.6953125
vt 0.453125 0.7109375
vt 0.484375 0.7109375
vt 0.453125 0.7265625
vt 0.484375 0.7265625
vt 0.7057199 0.2109638
vt 0.7030663 0.198046
vt 0.7080875 0.198046
vt 0.7057199 0.2109638
vt 0.7080875 0.198046
vt 0.708989 0.2109638
vt 0.6660156 0.237793
vt 0.6704101 0.2399902
vt 0.644043 0.2399902
vt 0.644043 0.236084
vt 0.6977539 0.2133789
vt 0.644043 0.2131348
vt 0.644043 0.237793
vt 0.6972656 0.237793
vt 0.6972656 0.2399902
vt 0.644043 0.2399902
vt 0.7104492 0.2338867
vt 0.7602539 0.2136231
vt 0.7084961 0.2136231
vt 0.7133789 0.2355957
vt 0.7602539 0.2373047
vt 0.7602539 0.2395019
vt 0.715332 0.2395019
vt 0.7030663 0.1953388
vt 0.7030663 0.1797138
vt 0.7080875 0.1797138
vt 0.7080875 0.1953388
vt 0.7602539 0.2373047
vt 0.7602539 0.2395019
vt 0.7124023 0.2395019
vt 0.7602539 0.2136231
vt 0.7084961 0.2136231
vt 0.7084961 0.2373047
vt 0.7080875 0.1953388
vt 0.7080875 0.1797138
vt 0.7655663 0.1797138
vt 0.7116938 0.2109638
vt 0.7655663 0.2109638
vt 0.7084961 0.2158203
vt 0.7084961 0.2136231
vt 0.7124023 0.2136231
vt 0.7124023 0.2158203
vt 0.644043 0.2131348
vt 0.6660156 0.2370606
vt 0.644043 0.2341309
vt 0.6977539 0.2133789
vt 0.6972656 0.237793
vt 0.6704101 0.2392578
vn 1 7.105428E-15 1.192093E-07
vn 1 7.105428E-15 1.192093E-07
vn 1 7.105428E-15 1.192093E-07
vn 1 7.105428E-15 1.192093E-07
vn 1 7.105428E-15 1.192093E-07
vn 1 7.105428E-15 1.192093E-07
vn 1 7.105428E-15 1.192093E-07
vn 1 7.105428E-15 1.192093E-07
vn 1 7.105428E-15 1.192093E-07
vn 1 7.105428E-15 1.192093E-07
vn 1 7.105428E-15 1.192093E-07
vn 1 7.105428E-15 1.192093E-07
vn 1 7.105428E-15 1.192093E-07
vn 1 7.105428E-15 1.192093E-07
vn 1 7.105428E-15 1.192093E-07
vn 1 7.105428E-15 1.192093E-07
vn 1 7.105428E-15 1.192093E-07
vn 1 7.105428E-15 1.192093E-07
vn 1 7.105427E-15 1.192093E-07
vn 1 7.105427E-15 1.192093E-07
vn 1 7.105427E-15 1.192093E-07
vn 1 7.105427E-15 1.192093E-07
vn 1 7.105427E-15 1.192093E-07
vn 1 7.105427E-15 1.192093E-07
vn 1 7.105427E-15 1.192093E-07
vn 1 7.105427E-15 1.192093E-07
vn 1 7.105427E-15 1.192093E-07
vn 1 7.105427E-15 1.192093E-07
vn 1 7.105427E-15 1.192093E-07
vn 1 7.105427E-15 1.192093E-07
vn 1 7.105427E-15 1.192093E-07
vn 1 7.105427E-15 1.192093E-07
vn 1 7.105427E-15 1.192093E-07
vn 1 7.105427E-15 1.192093E-07
vn 1 7.105427E-15 1.192093E-07
vn 1 7.105427E-15 1.192093E-07
vn 0.210038 -0.7973541 -0.5657831
vn 0.210038 -0.7973541 -0.5657831
vn 0.210038 -0.7973541 -0.5657831
vn 0.210038 -0.7973541 -0.5657831
vn 0.210038 -0.7973541 -0.5657831
vn 0.210038 -0.7973541 -0.5657831
vn 0.09308586 -0.221796 -0.9706398
vn 0.09308586 -0.221796 -0.9706398
vn 0.09308586 -0.221796 -0.9706398
vn 0.09308586 -0.221796 -0.9706398
vn 1.192093E-07 -1.042161E-14 1
vn 1.192093E-07 -1.042161E-14 1
vn 1.192093E-07 -1.042161E-14 1
vn 1.192093E-07 -1.042161E-14 1
vn 1.192093E-07 -1.042161E-14 1
vn 1.192093E-07 -1.042161E-14 1
vn 1 7.105427E-15 1.192093E-07
vn 1 7.105427E-15 1.192093E-07
vn 1 7.105427E-15 1.192093E-07
vn 1 7.105427E-15 1.192093E-07
vn 1 7.105427E-15 1.192093E-07
vn 1 7.105427E-15 1.192093E-07
vn 1 7.105427E-15 1.192093E-07
vn -0.04034407 -0.8263431 -0.5617201
vn -0.04034407 -0.8263431 -0.5617201
vn -0.04034407 -0.8263431 -0.5617201
vn -0.04034407 -0.8263431 -0.5617201
vn -1 -7.105427E-15 -1.192093E-07
vn -1 -7.105427E-15 -1.192093E-07
vn -1 -7.105427E-15 -1.192093E-07
vn -1 -7.105427E-15 -1.192093E-07
vn -1 -7.105427E-15 -1.192093E-07
vn -1 -7.105427E-15 -1.192093E-07
vn -2.131627E-14 -1 1.04216E-14
vn -2.131627E-14 -1 1.04216E-14
vn -2.131627E-14 -1 1.04216E-14
vn -2.131627E-14 -1 1.04216E-14
vn -2.131627E-14 -1 1.04216E-14
vn 0.64244 -0.723294 -0.2532129
vn 0.64244 -0.723294 -0.2532129
vn 0.64244 -0.723294 -0.2532129
vn 0.64244 -0.723294 -0.2532129
vn 0.03113787 -0.01438299 -0.9994116
vn -1.192093E-07 1.042161E-14 -1
vn 0.03113787 -0.01438299 -0.9994116
vn -1.192093E-07 1.042161E-14 -1
vn -1.192093E-07 1.042161E-14 -1
vn -1.192093E-07 1.042161E-14 -1
g _Combined_Vis49_0_0
f 3/3/3 2/2/2 1/1/1
f 4/4/4 3/3/3 1/1/1
f 5/5/5 3/3/3 4/4/4
f 6/6/6 5/5/5 4/4/4
f 7/7/7 5/5/5 6/6/6
f 8/8/8 7/7/7 6/6/6
f 9/9/9 7/7/7 8/8/8
f 10/10/10 9/9/9 8/8/8
f 11/11/11 9/9/9 10/10/10
f 12/12/12 11/11/11 10/10/10
f 13/13/13 11/11/11 12/12/12
f 14/14/14 13/13/13 12/12/12
f 15/15/15 13/13/13 14/14/14
f 16/16/16 15/15/15 14/14/14
f 17/17/17 15/15/15 16/16/16
f 18/18/18 17/17/17 16/16/16
f 21/21/21 20/20/20 19/19/19
f 22/22/22 21/21/21 19/19/19
f 23/23/23 21/21/21 22/22/22
f 24/24/24 23/23/23 22/22/22
f 25/25/25 23/23/23 24/24/24
f 26/26/26 25/25/25 24/24/24
f 27/27/27 25/25/25 26/26/26
f 28/28/28 27/27/27 26/26/26
f 29/29/29 27/27/27 28/28/28
f 30/30/30 29/29/29 28/28/28
f 31/31/31 29/29/29 30/30/30
f 32/32/32 31/31/31 30/30/30
f 33/33/33 31/31/31 32/32/32
f 34/34/34 33/33/33 32/32/32
f 35/35/35 33/33/33 34/34/34
f 36/36/36 35/35/35 34/34/34
f 39/39/39 38/38/38 37/37/37
f 42/42/42 41/41/41 40/40/40
f 45/45/45 44/44/44 43/43/43
f 46/46/46 45/45/45 43/43/43
f 49/49/49 48/48/48 47/47/47
f 50/50/50 49/49/49 47/47/47
f 50/50/50 51/51/51 49/49/49
f 51/51/51 52/52/52 49/49/49
f 55/55/55 54/54/54 53/53/53
f 54/54/54 56/56/56 53/53/53
f 54/54/54 57/57/57 56/56/56
f 57/57/57 58/58/58 56/56/56
f 58/58/58 59/59/59 56/56/56
f 62/62/62 61/61/61 60/60/60
f 63/63/63 62/62/62 60/60/60
f 66/66/66 65/65/65 64/64/64
f 66/66/66 64/64/64 67/67/67
f 66/66/66 67/67/67 68/68/68
f 69/69/69 66/66/66 68/68/68
f 72/72/72 71/71/71 70/70/70
f 72/72/72 70/70/70 73/73/73
f 74/74/74 72/72/72 73/73/73
f 77/77/77 76/76/76 75/75/75
f 78/78/78 77/77/77 75/75/75
f 81/81/81 80/80/80 79/79/79
f 80/80/80 82/82/82 79/79/79
f 80/80/80 83/83/83 82/82/82
f 80/80/80 84/84/84 83/83/83
