g _Combined_Vis32_0
v -0.1400001 0 0.3599998
v 0 0.13 0.4999999
v 0.1000001 0.13 0.6
v 0.1000001 0 0.6
v -0.1400001 0 -0.3600008
v 0.1000001 0 -0.600001
v 0.1000001 0.13 -0.600001
v 0 0.13 -0.5000009
v 0.1000001 0.52 0.6
v 0 0.13 -4.768372E-07
v 0 0.13 0.4999999
v 0.2000002 0.52 -4.768372E-07
v 0.1000001 0.9100001 0.6
v 0.2000002 0.9100001 -4.768372E-07
v 0 1.3 0.4999999
v 0.1000001 1.3 -4.768372E-07
v -0.2000002 1.56 0.2999998
v -0.1000001 1.56 -4.768372E-07
v -0.3512582 1.82 0.1487426
v -0.3000002 1.82 -4.768372E-07
v -0.4256293 2.21 0.07437059
v -0.4000003 2.21 -4.768372E-07
v -0.5000004 2.99 -4.768372E-07
v 0.1000001 0.13 -4.768372E-07
v 0.1000001 0.13 0.6
v 0 0.13 0.4999999
v 0 0.13 -4.768372E-07
v 0 0.13 -0.5000009
v 0.1000001 0.13 -0.600001
v 0.1000001 0 -4.768372E-07
v -0.1400001 0 0.3599998
v 0.1000001 0 0.6
v -0.04469303 0 -4.768372E-07
v -0.1400001 0 -0.3600008
v 0.1000001 0 -0.600001
v -0.1400001 0 0.3599998
v -0.07500006 0.52 0.4249999
v 0.1000001 0.52 0.6
v 0 0.13 0.4999999
v 0.1000001 0.9100001 0.6
v 0.1000001 0.52 0.6
v -0.07500006 0.52 0.4249999
v -0.07500006 0.9100001 0.4249999
v -0.07500006 0.9100001 0.4249999
v -0.1500001 1.3 0.3499998
v 0 1.3 0.4999999
v 0.1000001 0.9100001 0.6
v -0.2000002 1.56 0.2999998
v 0 1.3 0.4999999
v -0.1500001 1.3 0.3499998
v -0.3300003 1.56 0.1699997
v -0.4000003 1.82 -4.768372E-07
v -0.4500003 2.08 -4.768372E-07
v -0.4633063 2.08 0.03669355
v -0.4266123 1.82 0.07338759
v -0.2300002 1.56 -4.768372E-07
v -0.3300003 1.56 0.1699997
v -0.05000004 1.3 -4.768372E-07
v -0.1500001 1.3 0.3499998
v 0.02500002 0.9100001 -4.768372E-07
v -0.07500006 0.9100001 0.4249999
v 0.02500002 0.52 -4.768372E-07
v -0.07500006 0.52 0.4249999
v -0.04469303 0 -4.768372E-07
v -0.1400001 0 0.3599998
v -0.3512582 1.82 0.1487426
v -0.2000002 1.56 0.2999998
v -0.3300003 1.56 0.1699997
v -0.4266123 1.82 0.07338759
v -0.4266123 1.82 0.07338759
v -0.4633063 2.08 0.03669355
v -0.4256293 2.21 0.07437059
v -0.3512582 1.82 0.1487426
v -0.4633063 2.08 0.03669355
v -0.5000004 2.47 -4.768372E-07
v -0.5000004 2.99 -4.768372E-07
v -0.4256293 2.21 0.07437059
v 0.1000001 0 0.6
v 0.1000001 0.13 0.6
v 0.1000001 0.13 -4.768372E-07
v 0.1000001 0 -4.768372E-07
v -0.4500003 2.08 -4.768372E-07
v -0.5000004 2.47 -4.768372E-07
v -0.4633063 2.08 -0.03669451
v 0.1000001 0.52 -0.600001
v 0 0.13 -0.5000009
v 0.1000001 0.9100001 -0.600001
v 0 1.3 -0.5000009
v -0.2000002 1.56 -0.3000007
v -0.3512582 1.82 -0.1487436
v -0.4256293 2.21 -0.07437154
v -0.1400001 0 -0.3600008
v 0 0.13 -0.5000009
v 0.1000001 0.52 -0.600001
v -0.07500006 0.52 -0.4250008
v 0.1000001 0.9100001 -0.600001
v -0.07500006 0.9100001 -0.4250008
v -0.07500006 0.52 -0.4250008
v 0.1000001 0.52 -0.600001
v -0.07500006 0.9100001 -0.4250008
v 0.1000001 0.9100001 -0.600001
v 0 1.3 -0.5000009
v -0.1500001 1.3 -0.3500008
v -0.2000002 1.56 -0.3000007
v -0.3300003 1.56 -0.1700006
v -0.1500001 1.3 -0.3500008
v 0 1.3 -0.5000009
v -0.4266123 1.82 -0.07338854
v -0.3300003 1.56 -0.1700006
v -0.1500001 1.3 -0.3500008
v -0.07500006 0.9100001 -0.4250008
v -0.07500006 0.52 -0.4250008
v -0.1400001 0 -0.3600008
v -0.3512582 1.82 -0.1487436
v -0.4266123 1.82 -0.07338854
v -0.3300003 1.56 -0.1700006
v -0.2000002 1.56 -0.3000007
v -0.4266123 1.82 -0.07338854
v -0.3512582 1.82 -0.1487436
v -0.4256293 2.21 -0.07437154
v -0.4633063 2.08 -0.03669451
v -0.4633063 2.08 -0.03669451
v -0.4256293 2.21 -0.07437154
v -0.5000004 2.99 -4.768372E-07
v -0.5000004 2.47 -4.768372E-07
v 0.1000001 0 -0.600001
v 0.1000001 0.13 -0.600001
vt 0.0410395 0.266064
vt 0.03125 0.265625
vt 0.04981212 0.2685219
vt 0.0410395 0.2685219
vt 0.0410395 0.266064
vt 0.0410395 0.2685219
vt 0.04981212 0.2685219
vt 0.03125 0.265625
vt 0.03226675 0.2758955
vt 0.09367575 0.2685219
vt 0.04981212 0.2685219
vt 0.09367575 0.2758955
vt 0.03226675 0.283269
vt 0.09367575 0.283269
vt 0.0410395 0.2906426
vt 0.09367575 0.2906426
vt 0.05858488 0.2955583
vt 0.09367575 0.2955583
vt 0.07613038 0.300474
vt 0.09367575 0.300474
vt 0.084903 0.3078475
vt 0.09367575 0.3078475
vt 0.09367575 0.3176789
vt 0.09367575 0.2685219
vt 0.0410395 0.2685219
vt 0.04981212 0.2685219
vt 0.09367575 0.2685219
vt 0.04981212 0.2685219
vt 0.0410395 0.2685219
vt 0.09367575 0.266064
vt 0.0410395 0.266064
vt 0.0410395 0.266064
vt 0.09367575 0.266064
vt 0.0410395 0.266064
vt 0.0410395 0.266064
vt 0.03125 0.265625
vt 0.04981212 0.2685219
vt 0.03125 0.265625
vt 0.03226675 0.2758955
vt 0.03125 0.265625
vt 0.03226675 0.283269
vt 0.03125 0.265625
vt 0.03226675 0.2758955
vt 0.03125 0.265625
vt 0.03226675 0.283269
vt 0.03125 0.265625
vt 0.0410395 0.2906426
vt 0.03125 0.265625
vt 0.05858488 0.2955583
vt 0.03125 0.265625
vt 0.0410395 0.2906426
vt 0.09367575 0.300474
vt 0.09367575 0.3078475
vt 0.084903 0.3078475
vt 0.07613038 0.300474
vt 0.09367575 0.2955583
vt 0.05858488 0.2955583
vt 0.09367575 0.2906426
vt 0.0410395 0.2906426
vt 0.09367575 0.283269
vt 0.03226675 0.283269
vt 0.09367575 0.2758955
vt 0.03226675 0.2758955
vt 0.09367575 0.2685219
vt 0.04981212 0.2685219
vt 0.03125 0.265625
vt 0.07613038 0.300474
vt 0.03125 0.265625
vt 0.05858488 0.2955583
vt 0.03125 0.265625
vt 0.07613038 0.300474
vt 0.03125 0.265625
vt 0.084903 0.3078475
vt 0.03125 0.265625
vt 0.084903 0.3078475
vt 0.03125 0.265625
vt 0.09367575 0.3176789
vt 0.0410395 0.266064
vt 0.0410395 0.2685219
vt 0.09367575 0.2685219
vt 0.09367575 0.266064
vt 0.084903 0.3078475
vt 0.03125 0.265625
vt 0.084903 0.3078475
vt 0.03226675 0.2758955
vt 0.04981212 0.2685219
vt 0.03226675 0.283269
vt 0.0410395 0.2906426
vt 0.05858488 0.2955583
vt 0.07613038 0.300474
vt 0.084903 0.3078475
vt 0.03125 0.265625
vt 0.03226675 0.2758955
vt 0.03125 0.265625
vt 0.04981212 0.2685219
vt 0.03125 0.265625
vt 0.03226675 0.2758955
vt 0.03125 0.265625
vt 0.03226675 0.283269
vt 0.03125 0.265625
vt 0.0410395 0.2906426
vt 0.03125 0.265625
vt 0.03226675 0.283269
vt 0.03125 0.265625
vt 0.0410395 0.2906426
vt 0.03125 0.265625
vt 0.05858488 0.2955583
vt 0.07613038 0.300474
vt 0.05858488 0.2955583
vt 0.0410395 0.2906426
vt 0.03226675 0.283269
vt 0.03226675 0.2758955
vt 0.04981212 0.2685219
vt 0.03125 0.265625
vt 0.05858488 0.2955583
vt 0.03125 0.265625
vt 0.07613038 0.300474
vt 0.03125 0.265625
vt 0.084903 0.3078475
vt 0.03125 0.265625
vt 0.07613038 0.300474
vt 0.03125 0.265625
vt 0.09367575 0.3176789
vt 0.03125 0.265625
vt 0.084903 0.3078475
vt 0.0410395 0.266064
vt 0.0410395 0.2685219
vn -0.7071068 0 0.7071068
vn -0.7071068 0 0.7071068
vn -0.7071068 0 0.7071068
vn -0.7071068 0 0.7071068
vn -0.7071068 0 -0.7071068
vn -0.7071068 0 -0.7071068
vn -0.7071068 0 -0.7071068
vn -0.7071068 0 -0.7071068
vn 0.9761631 -0.1742658 0.1293717
vn 0.9296695 -0.3683948 0
vn 0.9263701 -0.3670812 0.08420158
vn 0.9829495 -0.1838758 0
vn 0.9775647 0.1247936 0.1696875
vn 0.9909761 0.1340386 0
vn 0.88723 0.4240063 0.1817736
vn 0.8867682 0.4622146 0
vn 0.7523251 0.6227718 0.2148541
vn 0.7715653 0.6361501 0
vn 0.8485347 0.4431742 0.2891116
vn 0.889578 0.4567832 0
vn 0.9297606 0.1813743 0.3203882
vn 0.9816811 0.1905315 0
vn 0.9918842 0.1271443 0
vn 0 1 0
vn 0 1 0
vn 0 1 0
vn 0 1 0
vn 0 1 0
vn 0 1 0
vn 0 -1 0
vn 0 -1 0
vn 0 -1 0
vn 0 -1 0
vn 0 -1 0
vn 0 -1 0
vn -0.7071068 0 0.7071068
vn -0.7071068 0 0.7071068
vn -0.7071068 0 0.7071068
vn -0.7071068 0 0.7071068
vn -0.7071068 0 0.7071068
vn -0.7071068 0 0.7071068
vn -0.7071068 0 0.7071068
vn -0.7071068 0 0.7071068
vn -0.7071068 0 0.7071068
vn -0.7071068 0 0.7071068
vn -0.7071068 0 0.7071068
vn -0.7071068 0 0.7071068
vn -0.7071068 0 0.7071068
vn -0.7071068 0 0.7071068
vn -0.7071068 0 0.7071068
vn -0.7071068 0 0.7071068
vn -0.9287227 -0.370775 0
vn -0.9872583 -0.159126 0
vn -0.929452 -0.1501223 -0.3370198
vn -0.8588076 -0.3444997 -0.3791693
vn -0.8060672 -0.5918241 0
vn -0.7612776 -0.5514869 -0.341055
vn -0.9073547 -0.420366 0
vn -0.8830744 -0.3850919 -0.2681116
vn -0.9944736 -0.1049866 0
vn -0.966315 -0.09863658 -0.2377105
vn -0.9974641 0.07117115 0
vn -0.9697567 0.06775328 -0.2344812
vn -0.9896414 0.1435616 0
vn -0.9609505 0.1393801 -0.239055
vn -0.7071068 0 0.7071068
vn -0.7071068 0 0.7071068
vn -0.7071068 0 0.7071068
vn -0.7071068 0 0.7071068
vn -0.7071068 0 0.7071068
vn -0.7071068 0 0.7071068
vn -0.7071068 0 0.7071068
vn -0.7071068 0 0.7071068
vn -0.7071068 0 0.7071068
vn -0.7071068 0 0.7071068
vn -0.7071068 0 0.7071068
vn -0.7071068 0 0.7071068
vn 1 0 0
vn 1 0 0
vn 1 0 0
vn 1 0 0
vn -0.9872583 -0.159126 0
vn -0.9918842 -0.1271443 0
vn -0.929452 -0.1501223 0.3370198
vn 0.9761631 -0.1742658 -0.1293717
vn 0.9263701 -0.3670812 -0.08420158
vn 0.9775647 0.1247936 -0.1696875
vn 0.88723 0.4240063 -0.1817736
vn 0.7523251 0.6227718 -0.2148541
vn 0.8485347 0.4431742 -0.2891116
vn 0.9297606 0.1813743 -0.3203882
vn -0.7071068 0 -0.7071068
vn -0.7071068 0 -0.7071068
vn -0.7071068 0 -0.7071068
vn -0.7071068 0 -0.7071068
vn -0.7071068 0 -0.7071068
vn -0.7071068 0 -0.7071068
vn -0.7071068 0 -0.7071068
vn -0.7071068 0 -0.7071068
vn -0.7071068 0 -0.7071068
vn -0.7071068 0 -0.7071068
vn -0.7071068 0 -0.7071068
vn -0.7071068 0 -0.7071068
vn -0.7071068 0 -0.7071068
vn -0.7071068 0 -0.7071068
vn -0.7071068 0 -0.7071068
vn -0.7071068 0 -0.7071068
vn -0.8588076 -0.3444997 0.3791693
vn -0.7612776 -0.5514869 0.341055
vn -0.8830744 -0.3850919 0.2681116
vn -0.966315 -0.09863658 0.2377105
vn -0.9697567 0.06775328 0.2344812
vn -0.9609505 0.1393801 0.239055
vn -0.7071068 0 -0.7071068
vn -0.7071068 0 -0.7071068
vn -0.7071068 0 -0.7071068
vn -0.7071068 0 -0.7071068
vn -0.7071068 0 -0.7071068
vn -0.7071068 0 -0.7071068
vn -0.7071068 0 -0.7071068
vn -0.7071068 0 -0.7071068
vn -0.7071068 0 -0.7071068
vn -0.7071068 0 -0.7071068
vn -0.7071068 0 -0.7071068
vn -0.7071068 0 -0.7071068
vn 1 0 0
vn 1 0 0
g _Combined_Vis32_0_0
f 3/3/3 2/2/2 1/1/1
f 4/4/4 3/3/3 1/1/1
f 7/7/7 6/6/6 5/5/5
f 8/8/8 7/7/7 5/5/5
f 11/11/11 10/10/10 9/9/9
f 10/10/10 12/12/12 9/9/9
f 9/9/9 12/12/12 13/13/13
f 12/12/12 14/14/14 13/13/13
f 15/15/15 13/13/13 14/14/14
f 16/16/16 15/15/15 14/14/14
f 17/17/17 15/15/15 16/16/16
f 18/18/18 17/17/17 16/16/16
f 19/19/19 17/17/17 18/18/18
f 20/20/20 19/19/19 18/18/18
f 21/21/21 19/19/19 20/20/20
f 22/22/22 21/21/21 20/20/20
f 21/21/21 22/22/22 23/23/23
f 26/26/26 25/25/25 24/24/24
f 27/27/27 26/26/26 24/24/24
f 28/28/28 27/27/27 24/24/24
f 29/29/29 28/28/28 24/24/24
f 32/32/32 31/31/31 30/30/30
f 31/31/31 33/33/33 30/30/30
f 33/33/33 34/34/34 30/30/30
f 34/34/34 35/35/35 30/30/30
f 38/38/38 37/37/37 36/36/36
f 39/39/39 38/38/38 36/36/36
f 42/42/42 41/41/41 40/40/40
f 43/43/43 42/42/42 40/40/40
f 46/46/46 45/45/45 44/44/44
f 47/47/47 46/46/46 44/44/44
f 50/50/50 49/49/49 48/48/48
f 51/51/51 50/50/50 48/48/48
f 54/54/54 53/53/53 52/52/52
f 55/55/55 54/54/54 52/52/52
f 55/55/55 52/52/52 56/56/56
f 57/57/57 55/55/55 56/56/56
f 57/57/57 56/56/56 58/58/58
f 59/59/59 57/57/57 58/58/58
f 59/59/59 58/58/58 60/60/60
f 61/61/61 59/59/59 60/60/60
f 61/61/61 60/60/60 62/62/62
f 63/63/63 61/61/61 62/62/62
f 63/63/63 62/62/62 64/64/64
f 65/65/65 63/63/63 64/64/64
f 68/68/68 67/67/67 66/66/66
f 69/69/69 68/68/68 66/66/66
f 72/72/72 71/71/71 70/70/70
f 73/73/73 72/72/72 70/70/70
f 76/76/76 75/75/75 74/74/74
f 77/77/77 76/76/76 74/74/74
f 80/80/80 79/79/79 78/78/78
f 81/81/81 80/80/80 78/78/78
f 54/54/54 83/83/83 82/82/82
f 83/83/83 84/84/84 82/82/82
f 86/86/86 85/85/85 10/10/10
f 85/85/85 12/12/12 10/10/10
f 85/85/85 87/87/87 12/12/12
f 87/87/87 14/14/14 12/12/12
f 87/87/87 88/88/88 14/14/14
f 88/88/88 16/16/16 14/14/14
f 88/88/88 89/89/89 16/16/16
f 89/89/89 18/18/18 16/16/16
f 89/89/89 90/90/90 18/18/18
f 90/90/90 20/20/20 18/18/18
f 90/90/90 91/91/91 20/20/20
f 91/91/91 22/22/22 20/20/20
f 22/22/22 91/91/91 23/23/23
f 94/94/94 93/93/93 92/92/92
f 95/95/95 94/94/94 92/92/92
f 98/98/98 97/97/97 96/96/96
f 99/99/99 98/98/98 96/96/96
f 102/102/102 101/101/101 100/100/100
f 103/103/103 102/102/102 100/100/100
f 106/106/106 105/105/105 104/104/104
f 107/107/107 106/106/106 104/104/104
f 53/53/53 84/84/84 52/52/52
f 84/84/84 108/108/108 52/52/52
f 52/52/52 108/108/108 56/56/56
f 108/108/108 109/109/109 56/56/56
f 56/56/56 109/109/109 58/58/58
f 109/109/109 110/110/110 58/58/58
f 58/58/58 110/110/110 60/60/60
f 110/110/110 111/111/111 60/60/60
f 60/60/60 111/111/111 62/62/62
f 111/111/111 112/112/112 62/62/62
f 62/62/62 112/112/112 64/64/64
f 112/112/112 113/113/113 64/64/64
f 116/116/116 115/115/115 114/114/114
f 117/117/117 116/116/116 114/114/114
f 120/120/120 119/119/119 118/118/118
f 121/121/121 120/120/120 118/118/118
f 124/124/124 123/123/123 122/122/122
f 125/125/125 124/124/124 122/122/122
f 80/80/80 81/81/81 126/126/126
f 127/127/127 80/80/80 126/126/126
