g _Combined_Steps7_0
v -116 17 66.00001
v -115 17 66.00001
v -115 17 67.00001
v -116 17 67.00001
v -116 19 68.00001
v -115 19 68.00001
v -115 19 69.00001
v -116 19 69.00001
vt 0.734375 0.7734375
vt 0.734375 0.7109375
vt 0.609375 0.7109375
vt 0.609375 0.7734375
vt 0.734375 0.7734375
vt 0.734375 0.7109375
vt 0.609375 0.7109375
vt 0.609375 0.7734375
vn 0 1 0
vn 0 1 0
vn 0 1 0
vn 0 1 0
vn 0 1 0
vn 0 1 0
vn 0 1 0
vn 0 1 0
g _Combined_Steps7_0_0
f 3/3/3 2/2/2 1/1/1
f 4/4/4 3/3/3 1/1/1
f 7/7/7 6/6/6 5/5/5
f 8/8/8 7/7/7 5/5/5
