g _Combined_VisBG_Chunk4-PCPORT59_1
v -30.53617 -0.5734053 50.04641
v -29.64874 -0.5674964 50.05363
v -29.64291 -1.442477 50.05297
v -30.53034 -1.448386 50.04575
v -30.53034 -1.448386 50.04575
v -30.52307 -1.447659 49.15158
v -30.5289 -0.5726781 49.15225
v -30.53617 -0.5734053 50.04641
v -30.52307 -1.447659 49.15158
v -29.63564 -1.44175 49.15881
v -29.64147 -0.5667692 49.15947
v -30.5289 -0.5726781 49.15225
v -29.64874 -0.5674964 50.05363
v -29.64147 -0.5667692 49.15947
v -29.63564 -1.44175 49.15881
v -29.64291 -1.442477 50.05297
v -30.52307 -1.447659 49.15158
v -30.53034 -1.448386 50.04575
v -29.64291 -1.442477 50.05297
v -29.63564 -1.44175 49.15881
v -29.64874 -0.5674964 50.05363
v -30.53617 -0.5734053 50.04641
v -30.5289 -0.5726781 49.15225
v -29.64147 -0.5667692 49.15947
v -29.70375 -0.5678202 49.9973
v -30.48025 -0.5729905 49.99097
v -30.48109 -0.4479933 49.99107
v -29.70458 -0.442823 49.99739
v -30.47389 -0.5723543 49.20858
v -29.69739 -0.567184 49.2149
v -29.69822 -0.4421868 49.215
v -30.47472 -0.4473571 49.20868
v -30.48025 -0.5729905 49.99097
v -30.47389 -0.5723543 49.20858
v -30.47472 -0.4473571 49.20868
v -30.48109 -0.4479933 49.99107
v -29.69739 -0.567184 49.2149
v -29.70375 -0.5678202 49.9973
v -29.70458 -0.442823 49.99739
v -29.69822 -0.4421868 49.215
v -29.69739 -0.567184 49.2149
v -30.47389 -0.5723543 49.20858
v -30.48025 -0.5729905 49.99097
v -29.70375 -0.5678202 49.9973
v -30.48109 -0.4479933 49.99107
v -30.47472 -0.4473571 49.20868
v -29.69822 -0.4421868 49.215
v -29.70458 -0.442823 49.99739
vt 0.5 0.71875
vt 0.75047 0.71875
vt 0.75047 0.5
vt 0.5 0.5
vt 0.5 0.5
vt 0.25 0.5
vt 0.25 0.71875
vt 0.5 0.71875
vt 0.25 0.5
vt 0 0.5
vt 0 0.71875
vt 0.25 0.71875
vt 0.5 0.71875
vt 0.25 0.71875
vt 0.25 0.5
vt 0.5 0.5
vt 0.872257 0.62858
vt 0.872257 0.747938
vt 0.752899 0.747938
vt 0.752899 0.62858
vt 0.877847 0.747212
vt 0.996171 0.747212
vt 0.996171 0.628887
vt 0.877847 0.628887
vt 0.547912 0.720249
vt 0.717387 0.720249
vt 0.717387 0.748496
vt 0.547912 0.748496
vt 0.717387 0.720249
vt 0.547912 0.720249
vt 0.547912 0.748496
vt 0.717387 0.748496
vt 0.457748 0.720788
vt 0.288271 0.720788
vt 0.288271 0.749035
vt 0.457748 0.749035
vt 0.288271 0.720788
vt 0.457748 0.720788
vt 0.457748 0.749035
vt 0.288271 0.749035
vt 0.753289 0.628679
vt 0.871161 0.628679
vt 0.871161 0.746551
vt 0.753289 0.746551
vt 0.870301 0.621835
vt 0.870301 0.508886
vt 0.757352 0.508886
vt 0.757352 0.621835
vn -0.008132326 -0.0008131265 0.9999666
vn -0.008132326 -0.0008131265 0.9999666
vn -0.008132326 -0.0008131265 0.9999666
vn -0.008132326 -0.0008131265 0.9999666
vn -0.9999447 -0.006658062 -0.008137563
vn -0.9999447 -0.006658062 -0.008137563
vn -0.9999447 -0.006658062 -0.008137563
vn -0.9999447 -0.006658062 -0.008137563
vn 0.008132326 0.0008131265 -0.9999666
vn 0.008132326 0.0008131265 -0.9999666
vn 0.008132326 0.0008131265 -0.9999666
vn 0.008132326 0.0008131265 -0.9999666
vn 0.9999447 0.006658062 0.008137563
vn 0.9999447 0.006658062 0.008137563
vn 0.9999447 0.006658062 0.008137563
vn 0.9999447 0.006658062 0.008137563
vn 0.006664456 -0.9999775 -0.0007589451
vn 0.006664456 -0.9999775 -0.0007589451
vn 0.006664456 -0.9999775 -0.0007589451
vn 0.006664456 -0.9999775 -0.0007589451
vn -0.006664456 0.9999775 0.0007589451
vn -0.006664456 0.9999775 0.0007589451
vn -0.006664456 0.9999775 0.0007589451
vn -0.006664456 0.9999775 0.0007589451
vn -0.008132326 -0.0008131265 0.9999666
vn -0.008132326 -0.0008131265 0.9999666
vn -0.008132326 -0.0008131265 0.9999666
vn -0.008132326 -0.0008131265 0.9999666
vn 0.008132326 0.0008131265 -0.9999666
vn 0.008132326 0.0008131265 -0.9999666
vn 0.008132326 0.0008131265 -0.9999666
vn 0.008132326 0.0008131265 -0.9999666
vn -0.9999447 -0.006658062 -0.008137563
vn -0.9999447 -0.006658062 -0.008137563
vn -0.9999447 -0.006658062 -0.008137563
vn -0.9999447 -0.006658062 -0.008137563
vn 0.9999447 0.006658062 0.008137563
vn 0.9999447 0.006658062 0.008137563
vn 0.9999447 0.006658062 0.008137563
vn 0.9999447 0.006658062 0.008137563
vn 0.006664456 -0.9999775 -0.0007589451
vn 0.006664456 -0.9999775 -0.0007589451
vn 0.006664456 -0.9999775 -0.0007589451
vn 0.006664456 -0.9999775 -0.0007589451
vn -0.006664456 0.9999775 0.0007589451
vn -0.006664456 0.9999775 0.0007589451
vn -0.006664456 0.9999775 0.0007589451
vn -0.006664456 0.9999775 0.0007589451
g _Combined_VisBG_Chunk4-PCPORT59_1_0
f 3/3/3 2/2/2 1/1/1
f 4/4/4 3/3/3 1/1/1
f 7/7/7 6/6/6 5/5/5
f 8/8/8 7/7/7 5/5/5
f 11/11/11 10/10/10 9/9/9
f 12/12/12 11/11/11 9/9/9
f 15/15/15 14/14/14 13/13/13
f 16/16/16 15/15/15 13/13/13
f 19/19/19 18/18/18 17/17/17
f 20/20/20 19/19/19 17/17/17
f 23/23/23 22/22/22 21/21/21
f 24/24/24 23/23/23 21/21/21
f 27/27/27 26/26/26 25/25/25
f 28/28/28 27/27/27 25/25/25
f 31/31/31 30/30/30 29/29/29
f 32/32/32 31/31/31 29/29/29
f 35/35/35 34/34/34 33/33/33
f 36/36/36 35/35/35 33/33/33
f 39/39/39 38/38/38 37/37/37
f 40/40/40 39/39/39 37/37/37
f 43/43/43 42/42/42 41/41/41
f 44/44/44 43/43/43 41/41/41
f 47/47/47 46/46/46 45/45/45
f 48/48/48 47/47/47 45/45/45
