g _Combined_Vis41_0
v 0.25 5 0.375
v -1.490116E-08 5 0.3750001
v -1.490116E-08 4.125 0.3750001
v 0.25 4.125 0.375
v 0.25 4.125 0.375
v -1.490116E-08 4.125 0.3750001
v -4.470348E-08 4.125 0.125
v 0.25 4.125 0.125
v 0.25 4.125 0.125
v -4.470348E-08 4.125 0.125
v -4.470348E-08 5 0.125
v 0.25 5 0.125
v 0.25 5 0.125
v -4.470348E-08 5 0.125
v -2.980232E-08 5.125 0.25
v 0.25 5.125 0.25
v 0.25 5.125 0.25
v -2.980232E-08 5.125 0.25
v -1.490116E-08 5 0.3750001
v 0.25 5 0.375
v -4.470348E-08 5 0.125
v -1.490116E-08 5 0.3750001
v -2.980232E-08 5.125 0.25
v -1.490116E-08 4.125 0.3750001
v -4.470348E-08 4.125 0.125
v 0.25 4.125 0.125
v 0.2499999 4.5 -0.2500001
v 0.2499999 3.5 -0.2500001
v 0.2500001 3.5 0.7500001
v 0.25 5 0.125
v 0.25 4.125 0.375
v 0.2499999 5.5 -0.2500001
v 0.2500001 4.5 0.7500001
v 0.25 5.125 0.25
v 0.25 5 0.375
v 0.2500001 5.5 0.7500001
v 0.25 -6.499999 0.75
v 0.25 -6.500001 -0.25
v 0.25 -7.5 -0.25
v 0.25 -7.5 0.75
v -0.750001 -4.5 -0.25
v -0.749999 -5.5 -0.25
v 0.25 -5.5 -0.25
v 0.25 -4.5 -0.25
v -0.750001 -3.5 -0.25
v -0.750001 -4.5 -0.25
v 0.25 -4.5 -0.25
v 0.25 -3.5 -0.25
v -0.750001 7.5 -0.25
v -0.749999 6.5 -0.25
v 0.25 6.5 -0.25
v 0.25 7.5 -0.25
v 0.25 7.500001 0.75
v 0.25 7.5 -0.25
v 0.25 6.5 -0.25
v 0.25 6.5 0.75
v -0.750001 7.5 -0.25
v 0.25 7.5 -0.25
v 0.25 7.500001 0.75
v -0.75 7.5 0.75
v -0.749999 6.5 -0.25
v -0.749999 5.5 -0.25
v 0.2499999 5.5 -0.2500001
v 0.25 6.5 -0.25
v 0.25 6.5 0.75
v 0.25 6.5 -0.25
v 0.2499999 5.5 -0.2500001
v 0.2500001 5.5 0.7500001
v -0.749999 5.5 -0.25
v -0.749999 4.5 -0.25
v 0.2499999 4.5 -0.2500001
v 0.2499999 5.5 -0.2500001
v -0.749999 4.5 -0.25
v -0.749999 3.5 -0.25
v 0.2499999 3.5 -0.2500001
v 0.2499999 4.5 -0.2500001
v -0.749999 3.5 -0.25
v -0.749999 2.5 -0.25
v 0.25 2.5 -0.25
v 0.2499999 3.5 -0.2500001
v -0.749999 2.5 -0.25
v -0.749999 1.5 -0.25
v 0.25 1.5 -0.25
v 0.25 2.5 -0.25
v -0.749999 1.5 -0.25
v -0.749999 0.5 -0.25
v 0.25 0.5 -0.25
v 0.25 1.5 -0.25
v -0.749999 0.5 -0.25
v -0.749999 -0.5 -0.25
v 0.25 -0.5 -0.25
v 0.25 0.5 -0.25
v -0.749999 -0.5 -0.25
v -0.749999 -1.5 -0.25
v 0.25 -1.5 -0.25
v 0.25 -0.5 -0.25
v -0.749999 -1.5 -0.25
v -0.749999 -2.5 -0.25
v 0.25 -2.5 -0.25
v 0.25 -1.5 -0.25
v -0.749999 -2.5 -0.25
v -0.750001 -3.5 -0.25
v 0.25 -3.5 -0.25
v 0.25 -2.5 -0.25
v 0.2500001 3.5 0.7500001
v 0.2499999 3.5 -0.2500001
v 0.25 2.5 -0.25
v 0.25 2.5 0.75
v 0.25 2.5 0.75
v 0.25 2.5 -0.25
v 0.25 1.5 -0.25
v 0.25 1.5 0.75
v 0.25 1.5 0.75
v 0.25 1.5 -0.25
v 0.25 0.5 -0.25
v 0.25 0.5 0.75
v 0.25 0.5 0.75
v 0.25 0.5 -0.25
v 0.25 -0.5 -0.25
v 0.25 -0.5 0.75
v 0.25 -0.5 0.75
v 0.25 -0.5 -0.25
v 0.25 -1.5 -0.25
v 0.25 -1.5 0.75
v 0.25 -1.5 0.75
v 0.25 -1.5 -0.25
v 0.25 -2.5 -0.25
v 0.25 -2.5 0.75
v 0.25 -2.5 0.75
v 0.25 -2.5 -0.25
v 0.25 -3.5 -0.25
v 0.25 -3.5 0.75
v 0.25 -3.5 0.75
v 0.25 -3.5 -0.25
v 0.25 -4.5 -0.25
v 0.25 -4.5 0.75
v 0.25 -4.5 0.75
v 0.25 -4.5 -0.25
v 0.25 -5.5 -0.25
v 0.25 -5.5 0.75
v 0.25 -5.5 0.75
v 0.25 -5.5 -0.25
v 0.25 -6.500001 -0.25
v 0.25 -6.499999 0.75
v -0.749999 -5.5 -0.25
v -0.749999 -6.5 -0.25
v 0.25 -6.500001 -0.25
v 0.25 -5.5 -0.25
v -0.749999 -6.5 -0.25
v -0.749999 -7.5 -0.25
v 0.25 -7.5 -0.25
v 0.25 -6.500001 -0.25
vt 0.9611781 0.2996013
vt 0.9455531 0.2996013
vt 0.9455531 0.2449138
vt 0.9611781 0.2449138
vt 0.9454359 0.2364303
vt 0.9454359 0.2208053
vt 0.9610609 0.2208053
vt 0.9610609 0.2364303
vt 0.9611781 0.2996013
vt 0.9455531 0.2996013
vt 0.9455531 0.2449138
vt 0.9611781 0.2449138
vt 0.9611781 0.2996013
vt 0.9455531 0.2996013
vt 0.9455531 0.3074138
vt 0.9611781 0.3074138
vt 0.9611781 0.3074138
vt 0.9455531 0.3074138
vt 0.9455531 0.2996013
vt 0.9611781 0.2996013
vt 0.9318686 0.301279
vt 0.9162435 0.301279
vt 0.924056 0.3090915
vt 0.9162435 0.2465915
vt 0.9318685 0.2465915
vt 0.8817087 0.2283857
vt 0.9018348 0.25
vt 0.9018348 0.192362
vt 0.8481652 0.192362
vt 0.8817087 0.278819
vt 0.8682913 0.2283857
vt 0.9018348 0.307638
vt 0.8481652 0.25
vt 0.875 0.2860237
vt 0.8682913 0.278819
vt 0.8481652 0.307638
vt 0.96875 0.3125
vt 0.96875 0.1875
vt 0.84375 0.1875
vt 0.84375 0.3125
vt 0.96875 0.3125
vt 0.96875 0.1875
vt 0.84375 0.1875
vt 0.84375 0.3125
vt 0.96875 0.3125
vt 0.96875 0.1875
vt 0.84375 0.1875
vt 0.84375 0.3125
vt 0.96875 0.3125
vt 0.96875 0.1875
vt 0.84375 0.1875
vt 0.84375 0.3125
vt 0.96875 0.3125
vt 0.96875 0.1875
vt 0.84375 0.1875
vt 0.84375 0.3125
vt 0.78125 0.3125
vt 0.78125 0.1875
vt 0.65625 0.1875
vt 0.65625 0.3125
vt 0.96875 0.3125
vt 0.96875 0.1875
vt 0.84375 0.1875
vt 0.84375 0.3125
vt 0.96875 0.3125
vt 0.96875 0.1875
vt 0.84375 0.1875
vt 0.84375 0.3125
vt 0.96875 0.3125
vt 0.96875 0.1875
vt 0.84375 0.1875
vt 0.84375 0.3125
vt 0.96875 0.3125
vt 0.96875 0.1875
vt 0.84375 0.1875
vt 0.84375 0.3125
vt 0.96875 0.3125
vt 0.96875 0.1875
vt 0.84375 0.1875
vt 0.84375 0.3125
vt 0.96875 0.3125
vt 0.96875 0.1875
vt 0.84375 0.1875
vt 0.84375 0.3125
vt 0.96875 0.3125
vt 0.96875 0.1875
vt 0.84375 0.1875
vt 0.84375 0.3125
vt 0.96875 0.3125
vt 0.96875 0.1875
vt 0.84375 0.1875
vt 0.84375 0.3125
vt 0.96875 0.3125
vt 0.96875 0.1875
vt 0.84375 0.1875
vt 0.84375 0.3125
vt 0.96875 0.3125
vt 0.96875 0.1875
vt 0.84375 0.1875
vt 0.84375 0.3125
vt 0.96875 0.3125
vt 0.96875 0.1875
vt 0.84375 0.1875
vt 0.84375 0.3125
vt 0.96875 0.3125
vt 0.96875 0.1875
vt 0.84375 0.1875
vt 0.84375 0.3125
vt 0.96875 0.3125
vt 0.96875 0.1875
vt 0.84375 0.1875
vt 0.84375 0.3125
vt 0.96875 0.3125
vt 0.96875 0.1875
vt 0.84375 0.1875
vt 0.84375 0.3125
vt 0.96875 0.3125
vt 0.96875 0.1875
vt 0.84375 0.1875
vt 0.84375 0.3125
vt 0.96875 0.3125
vt 0.96875 0.1875
vt 0.84375 0.1875
vt 0.84375 0.3125
vt 0.96875 0.3125
vt 0.96875 0.1875
vt 0.84375 0.1875
vt 0.84375 0.3125
vt 0.96875 0.3125
vt 0.96875 0.1875
vt 0.84375 0.1875
vt 0.84375 0.3125
vt 0.96875 0.3125
vt 0.96875 0.1875
vt 0.84375 0.1875
vt 0.84375 0.3125
vt 0.96875 0.3125
vt 0.96875 0.1875
vt 0.84375 0.1875
vt 0.84375 0.3125
vt 0.96875 0.3125
vt 0.96875 0.1875
vt 0.84375 0.1875
vt 0.84375 0.3125
vt 0.96875 0.3125
vt 0.96875 0.1875
vt 0.84375 0.1875
vt 0.84375 0.3125
vt 0.96875 0.3125
vt 0.96875 0.1875
vt 0.84375 0.1875
vt 0.84375 0.3125
vn -1.192093E-07 0 -1
vn -1.192093E-07 0 -1
vn -1.192093E-07 0 -1
vn -1.192093E-07 0 -1
vn 0 1 0
vn 0 1 0
vn 0 1 0
vn 0 1 0
vn 1.192093E-07 0 1
vn 1.192093E-07 0 1
vn 1.192093E-07 0 1
vn 1.192093E-07 0 1
vn 8.429369E-08 -0.7071068 0.7071068
vn 8.429369E-08 -0.7071068 0.7071068
vn 8.429369E-08 -0.7071068 0.7071068
vn 8.429369E-08 -0.7071068 0.7071068
vn -8.429369E-08 -0.7071068 -0.7071068
vn -8.429369E-08 -0.7071068 -0.7071068
vn -8.429369E-08 -0.7071068 -0.7071068
vn -8.429369E-08 -0.7071068 -0.7071068
vn 1 0 -1.192093E-07
vn 1 0 -1.192093E-07
vn 1 0 -1.192093E-07
vn 1 0 -1.192093E-07
vn 1 0 -1.192093E-07
vn 1 0 -1.192093E-07
vn 1 0 -1.192093E-07
vn 1 0 -1.192093E-07
vn 1 0 -1.192093E-07
vn 1 0 -1.192093E-07
vn 1 0 -1.192093E-07
vn 1 0 -1.192093E-07
vn 1 0 -1.192093E-07
vn 1 0 -1.192093E-07
vn 1 0 -1.192093E-07
vn 1 0 -1.192093E-07
vn 1 0 0
vn 1 0 0
vn 1 0 0
vn 1 0 0
vn 8.742278E-08 0 -1
vn 8.742278E-08 0 -1
vn 8.742278E-08 0 -1
vn 8.742278E-08 0 -1
vn 8.742278E-08 0 -1
vn 8.742278E-08 0 -1
vn 8.742278E-08 0 -1
vn 8.742278E-08 0 -1
vn 8.742278E-08 0 -1
vn 8.742278E-08 0 -1
vn 8.742278E-08 0 -1
vn 8.742278E-08 0 -1
vn 1 0 0
vn 1 0 0
vn 1 0 0
vn 1 0 0
vn 0 1 0
vn 0 1 0
vn 0 1 0
vn 0 1 0
vn 8.742278E-08 0 -1
vn 8.742278E-08 0 -1
vn 8.742278E-08 0 -1
vn 8.742278E-08 0 -1
vn 1 0 0
vn 1 0 0
vn 1 0 0
vn 1 0 0
vn 8.742278E-08 0 -1
vn 8.742278E-08 0 -1
vn 8.742278E-08 0 -1
vn 8.742278E-08 0 -1
vn 8.742278E-08 0 -1
vn 8.742278E-08 0 -1
vn 8.742278E-08 0 -1
vn 8.742278E-08 0 -1
vn 8.742278E-08 0 -1
vn 8.742278E-08 0 -1
vn 8.742278E-08 0 -1
vn 8.742278E-08 0 -1
vn 8.742278E-08 0 -1
vn 8.742278E-08 0 -1
vn 8.742278E-08 0 -1
vn 8.742278E-08 0 -1
vn 8.742278E-08 0 -1
vn 8.742278E-08 0 -1
vn 8.742278E-08 0 -1
vn 8.742278E-08 0 -1
vn 8.742278E-08 0 -1
vn 8.742278E-08 0 -1
vn 8.742278E-08 0 -1
vn 8.742278E-08 0 -1
vn 8.742278E-08 0 -1
vn 8.742278E-08 0 -1
vn 8.742278E-08 0 -1
vn 8.742278E-08 0 -1
vn 8.742278E-08 0 -1
vn 8.742278E-08 0 -1
vn 8.742278E-08 0 -1
vn 8.742278E-08 0 -1
vn 8.742278E-08 0 -1
vn 8.742278E-08 0 -1
vn 8.742278E-08 0 -1
vn 8.742278E-08 0 -1
vn 1 0 0
vn 1 0 0
vn 1 0 0
vn 1 0 0
vn 1 0 0
vn 1 0 0
vn 1 0 0
vn 1 0 0
vn 1 0 0
vn 1 0 0
vn 1 0 0
vn 1 0 0
vn 1 0 0
vn 1 0 0
vn 1 0 0
vn 1 0 0
vn 1 0 0
vn 1 0 0
vn 1 0 0
vn 1 0 0
vn 1 0 0
vn 1 0 0
vn 1 0 0
vn 1 0 0
vn 1 0 0
vn 1 0 0
vn 1 0 0
vn 1 0 0
vn 1 0 0
vn 1 0 0
vn 1 0 0
vn 1 0 0
vn 1 0 0
vn 1 0 0
vn 1 0 0
vn 1 0 0
vn 1 0 0
vn 1 0 0
vn 1 0 0
vn 1 0 0
vn 8.742278E-08 0 -1
vn 8.742278E-08 0 -1
vn 8.742278E-08 0 -1
vn 8.742278E-08 0 -1
vn 8.742278E-08 0 -1
vn 8.742278E-08 0 -1
vn 8.742278E-08 0 -1
vn 8.742278E-08 0 -1
g _Combined_Vis41_0_0
f 3/3/3 2/2/2 1/1/1
f 4/4/4 3/3/3 1/1/1
f 7/7/7 6/6/6 5/5/5
f 8/8/8 7/7/7 5/5/5
f 11/11/11 10/10/10 9/9/9
f 12/12/12 11/11/11 9/9/9
f 15/15/15 14/14/14 13/13/13
f 16/16/16 15/15/15 13/13/13
f 19/19/19 18/18/18 17/17/17
f 20/20/20 19/19/19 17/17/17
f 23/23/23 22/22/22 21/21/21
f 22/22/22 24/24/24 21/21/21
f 24/24/24 25/25/25 21/21/21
f 28/28/28 27/27/27 26/26/26
f 29/29/29 28/28/28 26/26/26
f 26/26/26 27/27/27 30/30/30
f 31/31/31 29/29/29 26/26/26
f 30/30/30 27/27/27 32/32/32
f 31/31/31 33/33/33 29/29/29
f 30/30/30 32/32/32 34/34/34
f 35/35/35 33/33/33 31/31/31
f 32/32/32 36/36/36 34/34/34
f 36/36/36 33/33/33 35/35/35
f 34/34/34 36/36/36 35/35/35
f 39/39/39 38/38/38 37/37/37
f 40/40/40 39/39/39 37/37/37
f 43/43/43 42/42/42 41/41/41
f 44/44/44 43/43/43 41/41/41
f 47/47/47 46/46/46 45/45/45
f 48/48/48 47/47/47 45/45/45
f 51/51/51 50/50/50 49/49/49
f 52/52/52 51/51/51 49/49/49
f 55/55/55 54/54/54 53/53/53
f 56/56/56 55/55/55 53/53/53
f 59/59/59 58/58/58 57/57/57
f 60/60/60 59/59/59 57/57/57
f 63/63/63 62/62/62 61/61/61
f 64/64/64 63/63/63 61/61/61
f 67/67/67 66/66/66 65/65/65
f 68/68/68 67/67/67 65/65/65
f 71/71/71 70/70/70 69/69/69
f 72/72/72 71/71/71 69/69/69
f 75/75/75 74/74/74 73/73/73
f 76/76/76 75/75/75 73/73/73
f 79/79/79 78/78/78 77/77/77
f 80/80/80 79/79/79 77/77/77
f 83/83/83 82/82/82 81/81/81
f 84/84/84 83/83/83 81/81/81
f 87/87/87 86/86/86 85/85/85
f 88/88/88 87/87/87 85/85/85
f 91/91/91 90/90/90 89/89/89
f 92/92/92 91/91/91 89/89/89
f 95/95/95 94/94/94 93/93/93
f 96/96/96 95/95/95 93/93/93
f 99/99/99 98/98/98 97/97/97
f 100/100/100 99/99/99 97/97/97
f 103/103/103 102/102/102 101/101/101
f 104/104/104 103/103/103 101/101/101
f 107/107/107 106/106/106 105/105/105
f 108/108/108 107/107/107 105/105/105
f 111/111/111 110/110/110 109/109/109
f 112/112/112 111/111/111 109/109/109
f 115/115/115 114/114/114 113/113/113
f 116/116/116 115/115/115 113/113/113
f 119/119/119 118/118/118 117/117/117
f 120/120/120 119/119/119 117/117/117
f 123/123/123 122/122/122 121/121/121
f 124/124/124 123/123/123 121/121/121
f 127/127/127 126/126/126 125/125/125
f 128/128/128 127/127/127 125/125/125
f 131/131/131 130/130/130 129/129/129
f 132/132/132 131/131/131 129/129/129
f 135/135/135 134/134/134 133/133/133
f 136/136/136 135/135/135 133/133/133
f 139/139/139 138/138/138 137/137/137
f 140/140/140 139/139/139 137/137/137
f 143/143/143 142/142/142 141/141/141
f 144/144/144 143/143/143 141/141/141
f 147/147/147 146/146/146 145/145/145
f 148/148/148 147/147/147 145/145/145
f 151/151/151 150/150/150 149/149/149
f 152/152/152 151/151/151 149/149/149
