g _Combined_Vis76_0
v 2.599992 -0.4999999 -0.4999997
v 2.499992 9.557923E-08 -0.4999997
v 2.499992 -0.4999999 -0.4378087
v 3.499993 0.4999999 0.1579483
v 3.499993 0.3614549 0.5000004
v 3.357157 0.4999999 0.5000005
v 2.499993 -0.5 0.5000005
v 3.499993 0.3614549 0.5000004
v 3.499993 -0.5000001 0.5000004
v 2.499993 0.5 0.5000006
v 3.357157 0.4999999 0.5000005
v 2.499992 0.5000001 -0.4999996
v 3.499993 -0.5 -0.4999999
v 3.499993 0.5 -0.4999998
v 2.499992 9.557923E-08 -0.4999997
v 2.599992 -0.4999999 -0.4999997
v 2.499993 0.5 0.5000006
v 2.499993 -0.5 0.5000005
v 2.499992 0.5000001 -0.4999996
v 2.499992 -0.4999999 -0.4378087
v 2.499992 9.557923E-08 -0.4999997
v 3.499993 -0.5000001 0.5000004
v 2.499992 -0.4999999 -0.4378087
v 2.499993 -0.5 0.5000005
v 3.499993 -0.5 -0.4999999
v 2.599992 -0.4999999 -0.4999997
v 3.499993 0.3614549 0.5000004
v 3.499993 -0.5 -0.4999999
v 3.499993 -0.5000001 0.5000004
v 3.499993 0.4999999 0.1579483
v 3.499993 0.5 -0.4999998
v 2.499993 0.5 0.5000006
v 3.499993 0.4999999 0.1579483
v 3.357157 0.4999999 0.5000005
v 2.499992 0.5000001 -0.4999996
v 3.499993 0.5 -0.4999998
v 3.499984 -0.5966454 0.4000002
v 3.499983 -0.09664533 0.5000001
v 3.562175 -0.5966453 0.5000002
v 4.157932 0.4033546 -0.5000002
v 4.499984 0.2648096 -0.5000001
v 4.499984 0.4033546 -0.3571641
v 4.499984 -0.5966452 0.5000002
v 4.499984 0.2648096 -0.5000001
v 4.499984 -0.5966454 -0.5000001
v 4.499984 0.4033547 0.5000001
v 4.499984 0.4033546 -0.3571641
v 3.499983 0.4033547 0.5000001
v 3.499984 -0.5966455 -0.5000001
v 3.499983 0.4033546 -0.5000002
v 3.499983 -0.09664533 0.5000001
v 3.499984 -0.5966454 0.4000002
v 4.499984 0.4033547 0.5000001
v 4.499984 -0.5966452 0.5000002
v 3.499983 0.4033547 0.5000001
v 3.562175 -0.5966453 0.5000002
v 3.499983 -0.09664533 0.5000001
v 4.499984 -0.5966454 -0.5000001
v 3.562175 -0.5966453 0.5000002
v 4.499984 -0.5966452 0.5000002
v 3.499984 -0.5966455 -0.5000001
v 3.499984 -0.5966454 0.4000002
v 4.499984 0.2648096 -0.5000001
v 3.499984 -0.5966455 -0.5000001
v 4.499984 -0.5966454 -0.5000001
v 4.157932 0.4033546 -0.5000002
v 3.499983 0.4033546 -0.5000002
v 4.499984 0.4033547 0.5000001
v 4.157932 0.4033546 -0.5000002
v 4.499984 0.4033546 -0.3571641
v 3.499983 0.4033547 0.5000001
v 3.499983 0.4033546 -0.5000002
v 2.4 -0.5782489 0.4922589
v 2.5 -0.07824896 0.4922588
v 2.5 -0.578249 0.4300678
v 1.5 0.4217511 -0.1656892
v 1.5 0.283206 -0.5077413
v 1.642836 0.421751 -0.5077413
v 2.5 -0.5782491 -0.5077414
v 1.5 0.283206 -0.5077413
v 1.5 -0.578249 -0.5077412
v 2.5 0.4217509 -0.5077415
v 1.642836 0.421751 -0.5077413
v 2.5 0.4217511 0.4922588
v 1.5 -0.5782489 0.4922591
v 1.5 0.4217511 0.4922589
v 2.5 -0.07824896 0.4922588
v 2.4 -0.5782489 0.4922589
v 2.5 0.4217509 -0.5077415
v 2.5 -0.5782491 -0.5077414
v 2.5 0.4217511 0.4922588
v 2.5 -0.578249 0.4300678
v 2.5 -0.07824896 0.4922588
v 1.5 -0.578249 -0.5077412
v 2.5 -0.578249 0.4300678
v 2.5 -0.5782491 -0.5077414
v 1.5 -0.5782489 0.4922591
v 2.4 -0.5782489 0.4922589
v 1.5 0.283206 -0.5077413
v 1.5 -0.5782489 0.4922591
v 1.5 -0.578249 -0.5077412
v 1.5 0.4217511 -0.1656892
v 1.5 0.4217511 0.4922589
v 2.5 0.4217509 -0.5077415
v 1.5 0.4217511 -0.1656892
v 1.642836 0.421751 -0.5077413
v 2.5 0.4217511 0.4922588
v 1.5 0.4217511 0.4922589
v 1.500001 -0.5 -0.400001
v 1.500001 0 -0.5000011
v 1.43781 -0.5 -0.500001
v 0.8420529 0.5 0.4999993
v 0.5000008 0.361455 0.4999994
v 0.5000008 0.5 0.3571633
v 0.5000006 -0.5 -0.5000009
v 0.5000008 0.361455 0.4999994
v 0.5000008 -0.5 0.4999994
v 0.5000006 0.5 -0.5000009
v 0.5000008 0.5 0.3571633
v 1.500001 0.5 -0.5000011
v 1.500001 -0.5 0.4999992
v 1.500001 0.5 0.4999992
v 1.500001 0 -0.5000011
v 1.500001 -0.5 -0.400001
v 0.5000006 0.5 -0.5000009
v 0.5000006 -0.5 -0.5000009
v 1.500001 0.5 -0.5000011
v 1.43781 -0.5 -0.500001
v 1.500001 0 -0.5000011
v 0.5000008 -0.5 0.4999994
v 1.43781 -0.5 -0.500001
v 0.5000006 -0.5 -0.5000009
v 1.500001 -0.5 0.4999992
v 1.500001 -0.5 -0.400001
v 0.5000008 0.361455 0.4999994
v 1.500001 -0.5 0.4999992
v 0.5000008 -0.5 0.4999994
v 0.8420529 0.5 0.4999993
v 1.500001 0.5 0.4999992
v 0.5000006 0.5 -0.5000009
v 0.8420529 0.5 0.4999993
v 0.5000008 0.5 0.3571633
v 1.500001 0.5 -0.5000011
v 1.500001 0.5 0.4999992
v 3.499993 -0.5000001 0.5000004
v 4.499968 -0.4999996 0.5000145
v 4.499968 -0.4999996 -0.4999847
v 3.499993 -0.5 -0.4999999
v 3.499993 -0.5000001 0.5000004
v 3.499969 0.5000001 0.5000173
v 4.499968 0.5000001 0.5000172
v 4.499968 -0.4999996 0.5000145
vt 0.4092392 0.3508422
vt 0.3060093 0.3556448
vt 0.4057527 0.3752213
vt 0.4006042 0.4319752
vt 0.3198077 0.396652
vt 0.3132747 0.4441147
vt 0.546875 0.203125
vt 0.421875 0.310807
vt 0.421875 0.203125
vt 0.546875 0.328125
vt 0.4397295 0.328125
vt 0.546875 0.328125
vt 0.421875 0.203125
vt 0.421875 0.328125
vt 0.546875 0.265625
vt 0.534375 0.203125
vt 0.421875 0.328125
vt 0.421875 0.203125
vt 0.296875 0.328125
vt 0.3046488 0.203125
vt 0.296875 0.265625
vt 0.546875 0.328125
vt 0.421875 0.4453512
vt 0.421875 0.328125
vt 0.546875 0.453125
vt 0.434375 0.453125
vt 0.421875 0.310807
vt 0.296875 0.203125
vt 0.421875 0.203125
vt 0.3791185 0.328125
vt 0.296875 0.328125
vt 0.546875 0.453125
vt 0.421875 0.4103685
vt 0.4397295 0.453125
vt 0.546875 0.328125
vt 0.421875 0.328125
vt 0.4092392 0.3508422
vt 0.3060093 0.3556448
vt 0.4057527 0.3752213
vt 0.4006042 0.4319752
vt 0.3198077 0.396652
vt 0.3132747 0.4441147
vt 0.546875 0.203125
vt 0.421875 0.310807
vt 0.421875 0.203125
vt 0.546875 0.328125
vt 0.4397295 0.328125
vt 0.546875 0.328125
vt 0.421875 0.203125
vt 0.421875 0.328125
vt 0.546875 0.265625
vt 0.534375 0.203125
vt 0.421875 0.328125
vt 0.421875 0.203125
vt 0.296875 0.328125
vt 0.3046488 0.203125
vt 0.296875 0.265625
vt 0.546875 0.328125
vt 0.421875 0.4453512
vt 0.421875 0.328125
vt 0.546875 0.453125
vt 0.434375 0.453125
vt 0.421875 0.310807
vt 0.296875 0.203125
vt 0.421875 0.203125
vt 0.3791185 0.328125
vt 0.296875 0.328125
vt 0.546875 0.453125
vt 0.421875 0.4103685
vt 0.4397295 0.453125
vt 0.546875 0.328125
vt 0.421875 0.328125
vt 0.4092392 0.3508422
vt 0.3060093 0.3556448
vt 0.4057527 0.3752213
vt 0.4006042 0.4319752
vt 0.3198077 0.396652
vt 0.3132747 0.4441147
vt 0.546875 0.203125
vt 0.421875 0.310807
vt 0.421875 0.203125
vt 0.546875 0.328125
vt 0.4397295 0.328125
vt 0.546875 0.328125
vt 0.421875 0.203125
vt 0.421875 0.328125
vt 0.546875 0.265625
vt 0.534375 0.203125
vt 0.421875 0.328125
vt 0.421875 0.203125
vt 0.296875 0.328125
vt 0.3046488 0.203125
vt 0.296875 0.265625
vt 0.546875 0.328125
vt 0.421875 0.4453512
vt 0.421875 0.328125
vt 0.546875 0.453125
vt 0.434375 0.453125
vt 0.421875 0.310807
vt 0.296875 0.203125
vt 0.421875 0.203125
vt 0.3791185 0.328125
vt 0.296875 0.328125
vt 0.546875 0.453125
vt 0.421875 0.4103685
vt 0.4397295 0.453125
vt 0.546875 0.328125
vt 0.421875 0.328125
vt 0.4092392 0.3508422
vt 0.3060093 0.3556448
vt 0.4057527 0.3752213
vt 0.4006042 0.4319752
vt 0.3198077 0.396652
vt 0.3132747 0.4441147
vt 0.546875 0.203125
vt 0.421875 0.310807
vt 0.421875 0.203125
vt 0.546875 0.328125
vt 0.4397295 0.328125
vt 0.546875 0.328125
vt 0.421875 0.203125
vt 0.421875 0.328125
vt 0.546875 0.265625
vt 0.534375 0.203125
vt 0.421875 0.328125
vt 0.421875 0.203125
vt 0.296875 0.328125
vt 0.3046488 0.203125
vt 0.296875 0.265625
vt 0.546875 0.328125
vt 0.421875 0.4453512
vt 0.421875 0.328125
vt 0.546875 0.453125
vt 0.434375 0.453125
vt 0.421875 0.310807
vt 0.296875 0.203125
vt 0.421875 0.203125
vt 0.3791185 0.328125
vt 0.296875 0.328125
vt 0.546875 0.453125
vt 0.421875 0.4103685
vt 0.4397295 0.453125
vt 0.546875 0.328125
vt 0.421875 0.328125
vt 0.734375 0.703125
vt 0.734375 0.640625
vt 0.671875 0.640625
vt 0.671875 0.703125
vt 0.734375 0.703125
vt 0.734375 0.640625
vt 0.671875 0.640625
vt 0.671875 0.703125
vn -0.5251715 -0.1050158 -0.8444919
vn -0.5251715 -0.1050158 -0.8444919
vn -0.5251715 -0.1050158 -0.8444919
vn 0.6685553 0.6892777 0.2791597
vn 0.6685553 0.6892777 0.2791597
vn 0.6685553 0.6892777 0.2791597
vn 1.562429E-07 -1.192093E-07 1
vn 1.562429E-07 -1.192093E-07 1
vn 1.562429E-07 -1.192093E-07 1
vn 1.562429E-07 -1.192093E-07 1
vn 1.562429E-07 -1.192093E-07 1
vn -1.562429E-07 1.192093E-07 -1
vn -1.562429E-07 1.192093E-07 -1
vn -1.562429E-07 1.192093E-07 -1
vn -1.562429E-07 1.192093E-07 -1
vn -1.562429E-07 1.192093E-07 -1
vn -1 7.194916E-08 1.562429E-07
vn -1 7.194916E-08 1.562429E-07
vn -1 7.194916E-08 1.562429E-07
vn -1 7.194916E-08 1.562429E-07
vn -1 7.194916E-08 1.562429E-07
vn -7.19492E-08 -1 -5.960466E-08
vn -7.19492E-08 -1 -5.960466E-08
vn -7.19492E-08 -1 -5.960466E-08
vn -7.19492E-08 -1 -5.960466E-08
vn -7.19492E-08 -1 -5.960466E-08
vn 1 -7.194916E-08 -1.562429E-07
vn 1 -7.194916E-08 -1.562429E-07
vn 1 -7.194916E-08 -1.562429E-07
vn 1 -7.194916E-08 -1.562429E-07
vn 1 -7.194916E-08 -1.562429E-07
vn 7.19492E-08 1 5.960466E-08
vn 7.19492E-08 1 5.960466E-08
vn 7.19492E-08 1 5.960466E-08
vn 7.19492E-08 1 5.960466E-08
vn 7.19492E-08 1 5.960466E-08
vn -0.844492 -0.105016 0.5251714
vn -0.844492 -0.105016 0.5251714
vn -0.844492 -0.105016 0.5251714
vn 0.2791598 0.6892777 -0.6685552
vn 0.2791598 0.6892777 -0.6685552
vn 0.2791598 0.6892777 -0.6685552
vn 1 5.960463E-08 2.980232E-08
vn 1 5.960463E-08 2.980232E-08
vn 1 5.960463E-08 2.980232E-08
vn 1 5.960463E-08 2.980232E-08
vn 1 5.960463E-08 2.980232E-08
vn -1 -5.960463E-08 -2.980232E-08
vn -1 -5.960463E-08 -2.980232E-08
vn -1 -5.960463E-08 -2.980232E-08
vn -1 -5.960463E-08 -2.980232E-08
vn -1 -5.960463E-08 -2.980232E-08
vn 0 1.192093E-07 1
vn 0 1.192093E-07 1
vn 0 1.192093E-07 1
vn 0 1.192093E-07 1
vn 0 1.192093E-07 1
vn 2.980233E-08 -1 1.192093E-07
vn 2.980233E-08 -1 1.192093E-07
vn 2.980233E-08 -1 1.192093E-07
vn 2.980233E-08 -1 1.192093E-07
vn 2.980233E-08 -1 1.192093E-07
vn 0 -1.192093E-07 -1
vn 0 -1.192093E-07 -1
vn 0 -1.192093E-07 -1
vn 0 -1.192093E-07 -1
vn 0 -1.192093E-07 -1
vn -2.980233E-08 1 -1.192093E-07
vn -2.980233E-08 1 -1.192093E-07
vn -2.980233E-08 1 -1.192093E-07
vn -2.980233E-08 1 -1.192093E-07
vn -2.980233E-08 1 -1.192093E-07
vn 0.5251715 -0.1050159 0.8444919
vn 0.5251715 -0.1050159 0.8444919
vn 0.5251715 -0.1050159 0.8444919
vn -0.6685551 0.6892778 -0.2791598
vn -0.6685551 0.6892778 -0.2791598
vn -0.6685551 0.6892778 -0.2791598
vn -1.80932E-07 -1.192093E-07 -1
vn -1.80932E-07 -1.192093E-07 -1
vn -1.80932E-07 -1.192093E-07 -1
vn -1.80932E-07 -1.192093E-07 -1
vn -1.80932E-07 -1.192093E-07 -1
vn 1.80932E-07 1.192093E-07 1
vn 1.80932E-07 1.192093E-07 1
vn 1.80932E-07 1.192093E-07 1
vn 1.80932E-07 1.192093E-07 1
vn 1.80932E-07 1.192093E-07 1
vn 1 -7.194917E-08 -1.809319E-07
vn 1 -7.194917E-08 -1.809319E-07
vn 1 -7.194917E-08 -1.809319E-07
vn 1 -7.194917E-08 -1.809319E-07
vn 1 -7.194917E-08 -1.809319E-07
vn -7.194919E-08 -1 1.192093E-07
vn -7.194919E-08 -1 1.192093E-07
vn -7.194919E-08 -1 1.192093E-07
vn -7.194919E-08 -1 1.192093E-07
vn -7.194919E-08 -1 1.192093E-07
vn -1 7.194917E-08 1.809319E-07
vn -1 7.194917E-08 1.809319E-07
vn -1 7.194917E-08 1.809319E-07
vn -1 7.194917E-08 1.809319E-07
vn -1 7.194917E-08 1.809319E-07
vn 7.194919E-08 1 -1.192093E-07
vn 7.194919E-08 1 -1.192093E-07
vn 7.194919E-08 1 -1.192093E-07
vn 7.194919E-08 1 -1.192093E-07
vn 7.194919E-08 1 -1.192093E-07
vn 0.8444918 -0.105016 -0.5251716
vn 0.8444918 -0.105016 -0.5251716
vn 0.8444918 -0.105016 -0.5251716
vn -0.2791596 0.6892778 0.6685552
vn -0.2791596 0.6892778 0.6685552
vn -0.2791596 0.6892778 0.6685552
vn -1 0 1.788139E-07
vn -1 0 1.788139E-07
vn -1 0 1.788139E-07
vn -1 0 1.788139E-07
vn -1 0 1.788139E-07
vn 1 0 -1.788139E-07
vn 1 0 -1.788139E-07
vn 1 0 -1.788139E-07
vn 1 0 -1.788139E-07
vn 1 0 -1.788139E-07
vn -2.384186E-07 0 -1
vn -2.384186E-07 0 -1
vn -2.384186E-07 0 -1
vn -2.384186E-07 0 -1
vn -2.384186E-07 0 -1
vn 0 -1 0
vn 0 -1 0
vn 0 -1 0
vn 0 -1 0
vn 0 -1 0
vn 2.384186E-07 0 1
vn 2.384186E-07 0 1
vn 2.384186E-07 0 1
vn 2.384186E-07 0 1
vn 2.384186E-07 0 1
vn 0 1 0
vn 0 1 0
vn 0 1 0
vn 0 1 0
vn 0 1 0
vn 0 -1 0
vn 0 -1 0
vn 0 -1 0
vn 0 -1 0
vn 1.957576E-08 -5.960463E-08 1
vn 1.957576E-08 -5.960463E-08 1
vn 1.957576E-08 -5.960463E-08 1
vn 1.957576E-08 -5.960463E-08 1
g _Combined_Vis76_0_0
f 3/3/3 2/2/2 1/1/1
f 6/6/6 5/5/5 4/4/4
f 9/9/9 8/8/8 7/7/7
f 7/7/7 8/8/8 10/10/10
f 10/10/10 8/8/8 11/11/11
f 14/14/14 13/13/13 12/12/12
f 13/13/13 15/15/15 12/12/12
f 16/16/16 15/15/15 13/13/13
f 19/19/19 18/18/18 17/17/17
f 20/20/20 18/18/18 19/19/19
f 21/21/21 20/20/20 19/19/19
f 24/24/24 23/23/23 22/22/22
f 22/22/22 23/23/23 25/25/25
f 23/23/23 26/26/26 25/25/25
f 29/29/29 28/28/28 27/27/27
f 27/27/27 28/28/28 30/30/30
f 30/30/30 28/28/28 31/31/31
f 34/34/34 33/33/33 32/32/32
f 32/32/32 33/33/33 35/35/35
f 33/33/33 36/36/36 35/35/35
f 39/39/39 38/38/38 37/37/37
f 42/42/42 41/41/41 40/40/40
f 45/45/45 44/44/44 43/43/43
f 43/43/43 44/44/44 46/46/46
f 46/46/46 44/44/44 47/47/47
f 50/50/50 49/49/49 48/48/48
f 49/49/49 51/51/51 48/48/48
f 52/52/52 51/51/51 49/49/49
f 55/55/55 54/54/54 53/53/53
f 56/56/56 54/54/54 55/55/55
f 57/57/57 56/56/56 55/55/55
f 60/60/60 59/59/59 58/58/58
f 58/58/58 59/59/59 61/61/61
f 59/59/59 62/62/62 61/61/61
f 65/65/65 64/64/64 63/63/63
f 63/63/63 64/64/64 66/66/66
f 66/66/66 64/64/64 67/67/67
f 70/70/70 69/69/69 68/68/68
f 68/68/68 69/69/69 71/71/71
f 69/69/69 72/72/72 71/71/71
f 75/75/75 74/74/74 73/73/73
f 78/78/78 77/77/77 76/76/76
f 81/81/81 80/80/80 79/79/79
f 79/79/79 80/80/80 82/82/82
f 82/82/82 80/80/80 83/83/83
f 86/86/86 85/85/85 84/84/84
f 85/85/85 87/87/87 84/84/84
f 88/88/88 87/87/87 85/85/85
f 91/91/91 90/90/90 89/89/89
f 92/92/92 90/90/90 91/91/91
f 93/93/93 92/92/92 91/91/91
f 96/96/96 95/95/95 94/94/94
f 94/94/94 95/95/95 97/97/97
f 95/95/95 98/98/98 97/97/97
f 101/101/101 100/100/100 99/99/99
f 99/99/99 100/100/100 102/102/102
f 102/102/102 100/100/100 103/103/103
f 106/106/106 105/105/105 104/104/104
f 104/104/104 105/105/105 107/107/107
f 105/105/105 108/108/108 107/107/107
f 111/111/111 110/110/110 109/109/109
f 114/114/114 113/113/113 112/112/112
f 117/117/117 116/116/116 115/115/115
f 115/115/115 116/116/116 118/118/118
f 118/118/118 116/116/116 119/119/119
f 122/122/122 121/121/121 120/120/120
f 121/121/121 123/123/123 120/120/120
f 124/124/124 123/123/123 121/121/121
f 127/127/127 126/126/126 125/125/125
f 128/128/128 126/126/126 127/127/127
f 129/129/129 128/128/128 127/127/127
f 132/132/132 131/131/131 130/130/130
f 130/130/130 131/131/131 133/133/133
f 131/131/131 134/134/134 133/133/133
f 137/137/137 136/136/136 135/135/135
f 135/135/135 136/136/136 138/138/138
f 138/138/138 136/136/136 139/139/139
f 142/142/142 141/141/141 140/140/140
f 140/140/140 141/141/141 143/143/143
f 141/141/141 144/144/144 143/143/143
f 147/147/147 146/146/146 145/145/145
f 148/148/148 147/147/147 145/145/145
f 151/151/151 150/150/150 149/149/149
f 152/152/152 151/151/151 149/149/149
