g _Combined_Vis15_0
v 0.4197961 1.29503 -0.420131
v -0.0002048635 1.715031 -0.8401319
v -0.0002048635 0.8750295 -0.8401313
v -0.0002047634 1.71503 -0.0001308854
v -0.0002046632 1.71503 0.8398701
v -0.4202057 1.295029 0.4198698
v -0.4202057 1.29503 -0.4201311
v -0.0002048635 0.8750295 -0.8401313
v -0.0002048635 1.715031 -0.8401319
v -0.8402066 0.03502791 -0.0001297839
v -0.0002047634 0.03502811 -0.0001296837
v -0.4202057 0.4550287 -0.4201305
v -0.0002047634 0.03502811 -0.0001296837
v -0.0002048635 0.03502851 -0.8401307
v -0.4202057 0.4550287 -0.4201305
v -0.8402066 1.71503 -0.0001309855
v -0.8402066 0.8750289 -0.0001303847
v -0.4202057 1.29503 -0.4201311
v -0.0002046632 0.8750287 0.8398707
v -0.0002046632 1.71503 0.8398701
v 0.4197962 1.29503 0.41987
v -0.4202057 0.4550287 -0.4201305
v -0.8402066 0.8750289 -0.0001303847
v -0.8402066 0.03502791 -0.0001297839
v 0.4197962 1.29503 0.41987
v 0.8397971 1.71503 -0.0001307852
v 0.8397971 0.8750293 -0.0001301844
v 0.4197961 0.4550289 -0.4201304
v -0.0002048635 0.8750295 -0.8401313
v -0.0002048635 0.03502851 -0.8401307
v 0.4197962 0.4550285 0.4198706
v 0.8397971 0.03502831 -0.0001295836
v -0.0002047634 0.03502811 -0.0001296837
v 0.4197962 0.4550285 0.4198706
v -0.0002047634 0.03502811 -0.0001296837
v -0.0002046632 0.03502771 0.8398713
v -0.0002048635 0.03502851 -0.8401307
v -0.0002048635 0.8750295 -0.8401313
v -0.4202057 0.4550287 -0.4201305
v -0.8402067 0.8750293 -0.8401313
v -0.0002048635 0.8750295 -0.8401313
v -0.4202057 1.29503 -0.4201311
v -0.4202057 0.4550283 0.4198705
v -0.8402066 0.8750289 -0.0001303847
v -0.8402066 0.8750285 0.8398706
v -0.4202057 0.4550287 -0.4201305
v -0.0002048635 0.8750295 -0.8401313
v -0.8402067 0.8750293 -0.8401313
v 0.8397971 1.71503 -0.0001307852
v -0.0002047634 1.71503 -0.0001308854
v 0.4197961 1.29503 -0.420131
v -0.8402066 0.03502791 -0.0001297839
v -0.8402066 0.8750289 -0.0001303847
v -0.4202057 0.4550283 0.4198705
v -0.0002046632 0.03502771 0.8398713
v -0.0002047634 0.03502811 -0.0001296837
v -0.4202057 0.4550283 0.4198705
v -0.0002046632 0.8750287 0.8398707
v 0.8397972 0.8750289 0.8398708
v 0.4197962 0.4550285 0.4198706
v -0.0002046632 1.71503 0.8398701
v -0.0002046632 0.8750287 0.8398707
v -0.4202057 1.295029 0.4198698
v -0.8402066 0.8750289 -0.0001303847
v -0.8402067 0.8750293 -0.8401313
v -0.4202057 1.29503 -0.4201311
v -0.0002047634 1.71503 -0.0001308854
v -0.8402066 1.71503 -0.0001309855
v -0.4202057 1.29503 -0.4201311
v 0.4197961 1.29503 -0.420131
v -0.0002048635 0.8750295 -0.8401313
v 0.839797 0.8750297 -0.8401312
v -0.0002048635 1.715031 -0.8401319
v -0.0002047634 1.71503 -0.0001308854
v -0.4202057 1.29503 -0.4201311
v 0.4197961 0.4550289 -0.4201304
v 0.8397971 0.8750293 -0.0001301844
v 0.839797 0.8750297 -0.8401312
v -0.8402066 0.8750285 0.8398706
v -0.0002046632 0.8750287 0.8398707
v -0.4202057 0.4550283 0.4198705
v 0.4197962 0.4550285 0.4198706
v 0.8397971 0.8750293 -0.0001301844
v 0.8397971 0.03502831 -0.0001295836
v -0.4202057 0.4550283 0.4198705
v -0.0002046632 0.8750287 0.8398707
v -0.0002046632 0.03502771 0.8398713
v -0.8402066 0.8750289 -0.0001303847
v -0.8402066 1.71503 -0.0001309855
v -0.4202057 1.295029 0.4198698
v 0.8397971 0.03502831 -0.0001295836
v 0.8397971 0.8750293 -0.0001301844
v 0.4197961 0.4550289 -0.4201304
v -0.0002047634 0.03502811 -0.0001296837
v 0.8397971 0.03502831 -0.0001295836
v 0.4197961 0.4550289 -0.4201304
v 0.4197961 1.29503 -0.420131
v 0.8397971 0.8750293 -0.0001301844
v 0.8397971 1.71503 -0.0001307852
v 0.4197962 1.29503 0.41987
v -0.0002047634 1.71503 -0.0001308854
v 0.8397971 1.71503 -0.0001307852
v -0.4202057 1.295029 0.4198698
v -0.8402066 1.71503 -0.0001309855
v -0.0002047634 1.71503 -0.0001308854
v 0.4197961 0.4550289 -0.4201304
v -0.0002048635 0.03502851 -0.8401307
v -0.0002047634 0.03502811 -0.0001296837
v -0.0002046632 0.03502771 0.8398713
v -0.0002046632 0.8750287 0.8398707
v 0.4197962 0.4550285 0.4198706
v 0.4197962 1.29503 0.41987
v -0.0002046632 1.71503 0.8398701
v -0.0002047634 1.71503 -0.0001308854
v 0.4197961 1.29503 -0.420131
v -0.0002047634 1.71503 -0.0001308854
v -0.0002048635 1.715031 -0.8401319
v -0.4202057 0.4550283 0.4198705
v -0.0002047634 0.03502811 -0.0001296837
v -0.8402066 0.03502791 -0.0001297839
v 0.8397971 0.8750293 -0.0001301844
v 0.8397972 0.8750289 0.8398708
v 0.4197962 1.29503 0.41987
v 0.8397972 0.8750289 0.8398708
v -0.0002046632 0.8750287 0.8398707
v 0.4197962 1.29503 0.41987
v -0.4202057 1.295029 0.4198698
v -0.0002046632 0.8750287 0.8398707
v -0.8402066 0.8750285 0.8398706
v 0.4197962 0.4550285 0.4198706
v 0.8397972 0.8750289 0.8398708
v 0.8397971 0.8750293 -0.0001301844
v 0.4197961 0.4550289 -0.4201304
v 0.839797 0.8750297 -0.8401312
v -0.0002048635 0.8750295 -0.8401313
v -0.4202057 0.4550287 -0.4201305
v -0.8402067 0.8750293 -0.8401313
v -0.8402066 0.8750289 -0.0001303847
v 0.839797 0.8750297 -0.8401312
v 0.8397971 0.8750293 -0.0001301844
v 0.4197961 1.29503 -0.420131
v -0.8402066 0.8750285 0.8398706
v -0.8402066 0.8750289 -0.0001303847
v -0.4202057 1.295029 0.4198698
vt 0.84375 0.28125
vt 0.84375 0.28125
vt 0.84375 0.28125
vt 0.84375 0.28125
vt 0.84375 0.28125
vt 0.84375 0.28125
vt 0.84375 0.28125
vt 0.84375 0.28125
vt 0.84375 0.28125
vt 0.84375 0.28125
vt 0.84375 0.28125
vt 0.84375 0.28125
vt 0.84375 0.28125
vt 0.84375 0.28125
vt 0.84375 0.28125
vt 0.84375 0.28125
vt 0.84375 0.28125
vt 0.84375 0.28125
vt 0.84375 0.28125
vt 0.84375 0.28125
vt 0.84375 0.28125
vt 0.84375 0.28125
vt 0.84375 0.28125
vt 0.84375 0.28125
vt 0.84375 0.28125
vt 0.84375 0.28125
vt 0.84375 0.28125
vt 0.84375 0.28125
vt 0.84375 0.28125
vt 0.84375 0.28125
vt 0.84375 0.28125
vt 0.84375 0.28125
vt 0.84375 0.28125
vt 0.84375 0.28125
vt 0.84375 0.28125
vt 0.84375 0.28125
vt 0.84375 0.28125
vt 0.84375 0.28125
vt 0.84375 0.28125
vt 0.84375 0.28125
vt 0.84375 0.28125
vt 0.84375 0.28125
vt 0.84375 0.28125
vt 0.84375 0.28125
vt 0.84375 0.28125
vt 0.84375 0.28125
vt 0.84375 0.28125
vt 0.84375 0.28125
vt 0.84375 0.28125
vt 0.84375 0.28125
vt 0.84375 0.28125
vt 0.84375 0.28125
vt 0.84375 0.28125
vt 0.84375 0.28125
vt 0.84375 0.28125
vt 0.84375 0.28125
vt 0.84375 0.28125
vt 0.84375 0.28125
vt 0.84375 0.28125
vt 0.84375 0.28125
vt 0.84375 0.28125
vt 0.84375 0.28125
vt 0.84375 0.28125
vt 0.84375 0.28125
vt 0.84375 0.28125
vt 0.84375 0.28125
vt 0.84375 0.28125
vt 0.84375 0.28125
vt 0.84375 0.28125
vt 0.84375 0.28125
vt 0.84375 0.28125
vt 0.84375 0.28125
vt 0.84375 0.28125
vt 0.84375 0.28125
vt 0.84375 0.28125
vt 0.84375 0.28125
vt 0.84375 0.28125
vt 0.84375 0.28125
vt 0.84375 0.28125
vt 0.84375 0.28125
vt 0.84375 0.28125
vt 0.84375 0.28125
vt 0.84375 0.28125
vt 0.84375 0.28125
vt 0.84375 0.28125
vt 0.84375 0.28125
vt 0.84375 0.28125
vt 0.84375 0.28125
vt 0.84375 0.28125
vt 0.84375 0.28125
vt 0.84375 0.28125
vt 0.84375 0.28125
vt 0.84375 0.28125
vt 0.84375 0.28125
vt 0.84375 0.28125
vt 0.84375 0.28125
vt 0.84375 0.28125
vt 0.84375 0.28125
vt 0.84375 0.28125
vt 0.84375 0.28125
vt 0.84375 0.28125
vt 0.84375 0.28125
vt 0.84375 0.28125
vt 0.84375 0.28125
vt 0.84375 0.28125
vt 0.84375 0.28125
vt 0.84375 0.28125
vt 0.84375 0.28125
vt 0.84375 0.28125
vt 0.84375 0.28125
vt 0.84375 0.28125
vt 0.84375 0.28125
vt 0.84375 0.28125
vt 0.84375 0.28125
vt 0.84375 0.28125
vt 0.84375 0.28125
vt 0.84375 0.28125
vt 0.84375 0.28125
vt 0.84375 0.28125
vt 0.84375 0.28125
vt 0.84375 0.28125
vt 0.84375 0.28125
vt 0.84375 0.28125
vt 0.84375 0.28125
vt 0.84375 0.28125
vt 0.84375 0.28125
vt 0.84375 0.28125
vt 0.84375 0.28125
vt 0.84375 0.28125
vt 0.84375 0.28125
vt 0.84375 0.28125
vt 0.84375 0.28125
vt 0.84375 0.28125
vt 0.84375 0.28125
vt 0.84375 0.28125
vt 0.84375 0.28125
vt 0.84375 0.28125
vt 0.84375 0.28125
vt 0.84375 0.28125
vt 0.84375 0.28125
vt 0.84375 0.28125
vt 0.84375 0.28125
vt 0.84375 0.28125
vt 0.84375 0.28125
vn 0.7071066 5.057623E-07 -0.707107
vn 0.7071066 5.057623E-07 -0.707107
vn 0.7071066 5.057623E-07 -0.707107
vn -0.7071066 0.7071069 -5.900559E-07
vn -0.7071066 0.7071069 -5.900559E-07
vn -0.7071066 0.7071069 -5.900559E-07
vn -0.7071065 1.685871E-07 -0.7071069
vn -0.7071065 1.685871E-07 -0.7071069
vn -0.7071065 1.685871E-07 -0.7071069
vn -8.429421E-08 -0.7071068 -0.7071067
vn -8.429421E-08 -0.7071068 -0.7071067
vn -8.429421E-08 -0.7071068 -0.7071067
vn -0.7071065 -0.7071071 4.214685E-07
vn -0.7071065 -0.7071071 4.214685E-07
vn -0.7071065 -0.7071071 4.214685E-07
vn -0.7071065 1.685871E-07 -0.7071069
vn -0.7071065 1.685871E-07 -0.7071069
vn -0.7071065 1.685871E-07 -0.7071069
vn 0.7071065 -1.685871E-07 0.7071069
vn 0.7071065 -1.685871E-07 0.7071069
vn 0.7071065 -1.685871E-07 0.7071069
vn -0.7071065 1.685871E-07 -0.7071069
vn -0.7071065 1.685871E-07 -0.7071069
vn -0.7071065 1.685871E-07 -0.7071069
vn 0.7071065 -1.685871E-07 0.7071069
vn 0.7071065 -1.685871E-07 0.7071069
vn 0.7071065 -1.685871E-07 0.7071069
vn 0.7071066 5.057623E-07 -0.707107
vn 0.7071066 5.057623E-07 -0.707107
vn 0.7071066 5.057623E-07 -0.707107
vn 8.429359E-08 -0.7071067 0.7071068
vn 8.429359E-08 -0.7071067 0.7071068
vn 8.429359E-08 -0.7071067 0.7071068
vn 0.7071066 -0.7071069 5.900559E-07
vn 0.7071066 -0.7071069 5.900559E-07
vn 0.7071066 -0.7071069 5.900559E-07
vn -0.7071071 1.685867E-07 -0.7071065
vn -0.7071071 1.685867E-07 -0.7071065
vn -0.7071071 1.685867E-07 -0.7071065
vn -8.429353E-08 0.7071072 -0.7071064
vn -8.429353E-08 0.7071072 -0.7071064
vn -8.429353E-08 0.7071072 -0.7071064
vn -0.7071065 -0.7071071 4.214685E-07
vn -0.7071065 -0.7071071 4.214685E-07
vn -0.7071065 -0.7071071 4.214685E-07
vn -8.429421E-08 -0.7071068 -0.7071067
vn -8.429421E-08 -0.7071068 -0.7071067
vn -8.429421E-08 -0.7071068 -0.7071067
vn -8.429365E-08 0.7071062 -0.7071074
vn -8.429365E-08 0.7071062 -0.7071074
vn -8.429365E-08 0.7071062 -0.7071074
vn -0.7071066 -5.057623E-07 0.707107
vn -0.7071066 -5.057623E-07 0.707107
vn -0.7071066 -5.057623E-07 0.707107
vn -0.7071065 -0.7071071 4.214685E-07
vn -0.7071065 -0.7071071 4.214685E-07
vn -0.7071065 -0.7071071 4.214685E-07
vn 8.429353E-08 -0.7071072 0.7071064
vn 8.429353E-08 -0.7071072 0.7071064
vn 8.429353E-08 -0.7071072 0.7071064
vn -0.7071066 -5.057623E-07 0.707107
vn -0.7071066 -5.057623E-07 0.707107
vn -0.7071066 -5.057623E-07 0.707107
vn -0.7071066 0.7071069 -5.900559E-07
vn -0.7071066 0.7071069 -5.900559E-07
vn -0.7071066 0.7071069 -5.900559E-07
vn -8.429359E-08 0.7071067 -0.7071068
vn -8.429359E-08 0.7071067 -0.7071068
vn -8.429359E-08 0.7071067 -0.7071068
vn -8.429359E-08 0.7071067 -0.7071068
vn -8.429359E-08 0.7071067 -0.7071068
vn -8.429359E-08 0.7071067 -0.7071068
vn -0.7071066 0.7071069 -5.900559E-07
vn -0.7071066 0.7071069 -5.900559E-07
vn -0.7071066 0.7071069 -5.900559E-07
vn 0.7071066 -0.7071069 5.900559E-07
vn 0.7071066 -0.7071069 5.900559E-07
vn 0.7071066 -0.7071069 5.900559E-07
vn 8.429359E-08 -0.7071067 0.7071068
vn 8.429359E-08 -0.7071067 0.7071068
vn 8.429359E-08 -0.7071067 0.7071068
vn 0.7071065 -1.685871E-07 0.7071069
vn 0.7071065 -1.685871E-07 0.7071069
vn 0.7071065 -1.685871E-07 0.7071069
vn -0.7071066 -5.057623E-07 0.707107
vn -0.7071066 -5.057623E-07 0.707107
vn -0.7071066 -5.057623E-07 0.707107
vn -0.7071066 -5.057623E-07 0.707107
vn -0.7071066 -5.057623E-07 0.707107
vn -0.7071066 -5.057623E-07 0.707107
vn 0.7071061 5.057624E-07 -0.7071075
vn 0.7071061 5.057624E-07 -0.7071075
vn 0.7071061 5.057624E-07 -0.7071075
vn -8.429421E-08 -0.7071068 -0.7071067
vn -8.429421E-08 -0.7071068 -0.7071067
vn -8.429421E-08 -0.7071068 -0.7071067
vn 0.7071066 5.057623E-07 -0.707107
vn 0.7071066 5.057623E-07 -0.707107
vn 0.7071066 5.057623E-07 -0.707107
vn 8.429421E-08 0.7071068 0.7071067
vn 8.429421E-08 0.7071068 0.7071067
vn 8.429421E-08 0.7071068 0.7071067
vn 8.429426E-08 0.7071063 0.7071072
vn 8.429426E-08 0.7071063 0.7071072
vn 8.429426E-08 0.7071063 0.7071072
vn 0.7071066 -0.7071069 5.900559E-07
vn 0.7071066 -0.7071069 5.900559E-07
vn 0.7071066 -0.7071069 5.900559E-07
vn 0.7071065 -1.685871E-07 0.7071069
vn 0.7071065 -1.685871E-07 0.7071069
vn 0.7071065 -1.685871E-07 0.7071069
vn 0.7071069 0.7071065 -4.214681E-07
vn 0.7071069 0.7071065 -4.214681E-07
vn 0.7071069 0.7071065 -4.214681E-07
vn 0.7071065 0.7071071 -4.214685E-07
vn 0.7071065 0.7071071 -4.214685E-07
vn 0.7071065 0.7071071 -4.214685E-07
vn 8.429359E-08 -0.7071067 0.7071068
vn 8.429359E-08 -0.7071067 0.7071068
vn 8.429359E-08 -0.7071067 0.7071068
vn 0.7071059 0.7071075 -4.214689E-07
vn 0.7071059 0.7071075 -4.214689E-07
vn 0.7071059 0.7071075 -4.214689E-07
vn 8.429421E-08 0.7071068 0.7071067
vn 8.429421E-08 0.7071068 0.7071067
vn 8.429421E-08 0.7071068 0.7071067
vn 8.429421E-08 0.7071068 0.7071067
vn 8.429421E-08 0.7071068 0.7071067
vn 8.429421E-08 0.7071068 0.7071067
vn 0.7071066 -0.7071069 5.900559E-07
vn 0.7071066 -0.7071069 5.900559E-07
vn 0.7071066 -0.7071069 5.900559E-07
vn -8.429426E-08 -0.7071063 -0.7071072
vn -8.429426E-08 -0.7071063 -0.7071072
vn -8.429426E-08 -0.7071063 -0.7071072
vn -0.7071069 -0.7071065 4.214681E-07
vn -0.7071069 -0.7071065 4.214681E-07
vn -0.7071069 -0.7071065 4.214681E-07
vn 0.7071059 0.7071075 -4.214689E-07
vn 0.7071059 0.7071075 -4.214689E-07
vn 0.7071059 0.7071075 -4.214689E-07
vn -0.7071066 0.7071069 -5.900559E-07
vn -0.7071066 0.7071069 -5.900559E-07
vn -0.7071066 0.7071069 -5.900559E-07
g _Combined_Vis15_0_0
f 3/3/3 2/2/2 1/1/1
f 6/6/6 5/5/5 4/4/4
f 9/9/9 8/8/8 7/7/7
f 12/12/12 11/11/11 10/10/10
f 15/15/15 14/14/14 13/13/13
f 18/18/18 17/17/17 16/16/16
f 21/21/21 20/20/20 19/19/19
f 24/24/24 23/23/23 22/22/22
f 27/27/27 26/26/26 25/25/25
f 30/30/30 29/29/29 28/28/28
f 33/33/33 32/32/32 31/31/31
f 36/36/36 35/35/35 34/34/34
f 39/39/39 38/38/38 37/37/37
f 42/42/42 41/41/41 40/40/40
f 45/45/45 44/44/44 43/43/43
f 48/48/48 47/47/47 46/46/46
f 51/51/51 50/50/50 49/49/49
f 54/54/54 53/53/53 52/52/52
f 57/57/57 56/56/56 55/55/55
f 60/60/60 59/59/59 58/58/58
f 63/63/63 62/62/62 61/61/61
f 66/66/66 65/65/65 64/64/64
f 69/69/69 68/68/68 67/67/67
f 72/72/72 71/71/71 70/70/70
f 75/75/75 74/74/74 73/73/73
f 78/78/78 77/77/77 76/76/76
f 81/81/81 80/80/80 79/79/79
f 84/84/84 83/83/83 82/82/82
f 87/87/87 86/86/86 85/85/85
f 90/90/90 89/89/89 88/88/88
f 93/93/93 92/92/92 91/91/91
f 96/96/96 95/95/95 94/94/94
f 99/99/99 98/98/98 97/97/97
f 102/102/102 101/101/101 100/100/100
f 105/105/105 104/104/104 103/103/103
f 108/108/108 107/107/107 106/106/106
f 111/111/111 110/110/110 109/109/109
f 114/114/114 113/113/113 112/112/112
f 117/117/117 116/116/116 115/115/115
f 120/120/120 119/119/119 118/118/118
f 123/123/123 122/122/122 121/121/121
f 126/126/126 125/125/125 124/124/124
f 129/129/129 128/128/128 127/127/127
f 132/132/132 131/131/131 130/130/130
f 135/135/135 134/134/134 133/133/133
f 138/138/138 137/137/137 136/136/136
f 141/141/141 140/140/140 139/139/139
f 144/144/144 143/143/143 142/142/142
