g _CombinedLessRain21_0
v -0.1723993 -0.1289222 3.558582E-06
v -0.1691204 -0.4376435 4.019056E-06
v -0.1756774 -0.4376434 4.017258E-06
v 0.2605697 -0.7292579 4.570957E-06
v 0.2638485 -1.03798 5.031432E-06
v 0.2572915 -1.03798 5.029634E-06
v 0.5767993 0.1588436 3.335584E-06
v 0.5800781 -0.1498777 3.796057E-06
v 0.5735201 -0.1498777 3.79426E-06
v -0.8564174 0.5660118 2.336564E-06
v -0.8531385 0.2572905 2.797037E-06
v -0.8596965 0.2572906 2.79524E-06
v -0.2145685 1.509922 1.107375E-06
v -0.2112896 1.308154 1.408634E-06
v -0.2178466 1.308154 1.406837E-06
v 0.5700093 2.297905 1.494324E-07
v 0.5732881 1.989184 6.099058E-07
v 0.5667312 1.989184 6.081083E-07
v -0.4192107 3.587501 -2.041489E-06
v -0.4159318 3.278779 -1.581014E-06
v -0.4224898 3.278779 -1.582812E-06
v 0.1674028 3.770002 -2.152356E-06
v 0.1706816 3.461281 -1.691882E-06
v 0.1641236 3.461281 -1.69368E-06
v -0.8885008 4.052783 -2.862773E-06
v -0.8852229 3.67186 -2.294818E-06
v -0.8917799 3.67186 -2.296615E-06
v 0.6627651 3.822145 -2.094183E-06
v 0.6660439 3.513423 -1.633709E-06
v 0.6594859 3.513423 -1.635506E-06
v -0.1976008 5.177875 -4.348229E-06
v -0.1943219 4.869153 -3.887756E-06
v -0.2008789 4.869153 -3.889553E-06
v 1.816312 -0.1289232 5.580604E-06
v 1.819591 -0.4376445 5.861553E-06
v 1.813034 -0.4376445 5.859471E-06
v 2.249282 -0.7292584 6.262413E-06
v 2.252561 -1.037981 6.543362E-06
v 2.246004 -1.037981 6.54128E-06
v 2.56551 0.1588439 5.55763E-06
v 2.568789 -0.1498774 5.838578E-06
v 2.562231 -0.1498774 5.836495E-06
v 1.132292 0.5660097 4.733298E-06
v 1.135572 0.2572884 5.014247E-06
v 1.129014 0.2572884 5.012164E-06
v 1.77414 1.509921 4.081326E-06
v 1.777419 1.308153 4.265304E-06
v 1.770862 1.308153 4.263221E-06
v 2.558716 2.297906 3.616056E-06
v 2.561996 1.989185 3.897005E-06
v 2.555439 1.989185 3.894923E-06
v 1.569494 3.5875 2.132663E-06
v 1.572773 3.278778 2.413612E-06
v 1.566215 3.278778 2.41153E-06
v 2.156107 3.770002 2.153494E-06
v 2.159386 3.461281 2.434443E-06
v 2.152828 3.461281 2.43236E-06
v 1.100203 4.052781 1.561769E-06
v 1.103481 3.671858 1.90818E-06
v 1.096924 3.671858 1.906098E-06
v 2.651469 3.822146 2.263536E-06
v 2.654749 3.513424 2.544485E-06
v 2.648191 3.513424 2.542402E-06
v 1.791101 5.177874 7.611034E-07
v 1.79438 4.869153 1.042052E-06
v 1.787823 4.869153 1.03997E-06
v -2.161107 -0.1289222 2.085202E-06
v -2.157828 -0.4376434 2.545676E-06
v -2.164385 -0.4376434 2.543878E-06
v -1.728138 -0.7292579 3.097577E-06
v -1.724859 -1.03798 3.558052E-06
v -1.731416 -1.03798 3.556254E-06
v -1.411908 0.1588436 1.862204E-06
v -1.408629 -0.1498777 2.322677E-06
v -1.415187 -0.1498777 2.32088E-06
v -2.845125 0.5660118 8.63184E-07
v -2.841846 0.2572906 1.323657E-06
v -2.848404 0.2572906 1.321859E-06
v -2.203276 1.509922 -3.660049E-07
v -2.199997 1.308154 -6.474606E-08
v -2.206554 1.308154 -6.654356E-08
v -1.418698 2.297905 -1.323948E-06
v -1.415419 1.989184 -8.634743E-07
v -1.421976 1.989184 -8.652718E-07
v -2.407918 3.587501 -3.514869E-06
v -2.404639 3.278779 -3.054394E-06
v -2.411197 3.278779 -3.056192E-06
v -1.821305 3.770002 -3.625736E-06
v -1.818026 3.461281 -3.165262E-06
v -1.824584 3.461281 -3.16706E-06
v -2.877208 4.052783 -4.336154E-06
v -2.87393 3.67186 -3.768198E-06
v -2.880487 3.67186 -3.769995E-06
v -1.325942 3.822145 -3.567563E-06
v -1.322664 3.513423 -3.107089E-06
v -1.329222 3.513423 -3.108886E-06
v -2.186308 5.177875 -5.821609E-06
v -2.183029 4.869153 -5.361136E-06
v -2.189586 4.869153 -5.362933E-06
vt 0 0
vt 0 0
vt 0 0
vt 0 0
vt 0 0
vt 0 0
vt 0 0
vt 0 0
vt 0 0
vt 0 0
vt 0 0
vt 0 0
vt 0 0
vt 0 0
vt 0 0
vt 0 0
vt 0 0
vt 0 0
vt 0 0
vt 0 0
vt 0 0
vt 0 0
vt 0 0
vt 0 0
vt 0 0
vt 0 0
vt 0 0
vt 0 0
vt 0 0
vt 0 0
vt 0 0
vt 0 0
vt 0 0
vt 0 0
vt 0 0
vt 0 0
vt 0 0
vt 0 0
vt 0 0
vt 0 0
vt 0 0
vt 0 0
vt 0 0
vt 0 0
vt 0 0
vt 0 0
vt 0 0
vt 0 0
vt 0 0
vt 0 0
vt 0 0
vt 0 0
vt 0 0
vt 0 0
vt 0 0
vt 0 0
vt 0 0
vt 0 0
vt 0 0
vt 0 0
vt 0 0
vt 0 0
vt 0 0
vt 0 0
vt 0 0
vt 0 0
vt 0 0
vt 0 0
vt 0 0
vt 0 0
vt 0 0
vt 0 0
vt 0 0
vt 0 0
vt 0 0
vt 0 0
vt 0 0
vt 0 0
vt 0 0
vt 0 0
vt 0 0
vt 0 0
vt 0 0
vt 0 0
vt 0 0
vt 0 0
vt 0 0
vt 0 0
vt 0 0
vt 0 0
vt 0 0
vt 0 0
vt 0 0
vt 0 0
vt 0 0
vt 0 0
vt 0 0
vt 0 0
vt 0 0
vn -5.362045E-07 9.253259E-07 1
vn -5.362045E-07 9.253259E-07 1
vn -5.362045E-07 9.253259E-07 1
vn -5.362045E-07 9.253259E-07 1
vn -5.362045E-07 9.253259E-07 1
vn -5.362045E-07 9.253259E-07 1
vn -5.362045E-07 9.253259E-07 1
vn -5.362045E-07 9.253259E-07 1
vn -5.362045E-07 9.253259E-07 1
vn -5.362045E-07 9.253259E-07 1
vn -5.362045E-07 9.253259E-07 1
vn -5.362045E-07 9.253259E-07 1
vn -5.362045E-07 9.253259E-07 1
vn -5.362045E-07 9.253259E-07 1
vn -5.362045E-07 9.253259E-07 1
vn -5.362045E-07 9.253259E-07 1
vn -5.362045E-07 9.253259E-07 1
vn -5.362045E-07 9.253259E-07 1
vn -5.362045E-07 9.253259E-07 1
vn -5.362045E-07 9.253259E-07 1
vn -5.362045E-07 9.253259E-07 1
vn -5.362045E-07 9.253259E-07 1
vn -5.362045E-07 9.253259E-07 1
vn -5.362045E-07 9.253259E-07 1
vn -5.362045E-07 9.253259E-07 1
vn -5.362045E-07 9.253259E-07 1
vn -5.362045E-07 9.253259E-07 1
vn -5.362045E-07 9.253259E-07 1
vn -5.362045E-07 9.253259E-07 1
vn -5.362045E-07 9.253259E-07 1
vn -5.362045E-07 9.253259E-07 1
vn -5.362045E-07 9.253259E-07 1
vn -5.362045E-07 9.253259E-07 1
vn -4.993576E-07 3.860202E-07 1
vn -4.993576E-07 3.860202E-07 1
vn -4.993576E-07 3.860202E-07 1
vn -4.993576E-07 3.860202E-07 1
vn -4.993576E-07 3.860202E-07 1
vn -4.993576E-07 3.860202E-07 1
vn -4.993576E-07 3.860202E-07 1
vn -4.993576E-07 3.860202E-07 1
vn -4.993576E-07 3.860202E-07 1
vn -4.993576E-07 3.860202E-07 1
vn -4.993576E-07 3.860202E-07 1
vn -4.993576E-07 3.860202E-07 1
vn -4.993576E-07 3.860202E-07 1
vn -4.993576E-07 3.860202E-07 1
vn -4.993576E-07 3.860202E-07 1
vn -4.993576E-07 3.860202E-07 1
vn -4.993576E-07 3.860202E-07 1
vn -4.993576E-07 3.860202E-07 1
vn -4.993576E-07 3.860202E-07 1
vn -4.993576E-07 3.860202E-07 1
vn -4.993576E-07 3.860202E-07 1
vn -4.993576E-07 3.860202E-07 1
vn -4.993576E-07 3.860202E-07 1
vn -4.993576E-07 3.860202E-07 1
vn -4.993576E-07 3.860202E-07 1
vn -4.993576E-07 3.860202E-07 1
vn -4.993576E-07 3.860202E-07 1
vn -4.993576E-07 3.860202E-07 1
vn -4.993576E-07 3.860202E-07 1
vn -4.993576E-07 3.860202E-07 1
vn -4.993576E-07 3.860202E-07 1
vn -4.993576E-07 3.860202E-07 1
vn -4.993576E-07 3.860202E-07 1
vn -5.362045E-07 9.253259E-07 1
vn -5.362045E-07 9.253259E-07 1
vn -5.362045E-07 9.253259E-07 1
vn -5.362045E-07 9.253259E-07 1
vn -5.362045E-07 9.253259E-07 1
vn -5.362045E-07 9.253259E-07 1
vn -5.362045E-07 9.253259E-07 1
vn -5.362045E-07 9.253259E-07 1
vn -5.362045E-07 9.253259E-07 1
vn -5.362045E-07 9.253259E-07 1
vn -5.362045E-07 9.253259E-07 1
vn -5.362045E-07 9.253259E-07 1
vn -5.362045E-07 9.253259E-07 1
vn -5.362045E-07 9.253259E-07 1
vn -5.362045E-07 9.253259E-07 1
vn -5.362045E-07 9.253259E-07 1
vn -5.362045E-07 9.253259E-07 1
vn -5.362045E-07 9.253259E-07 1
vn -5.362045E-07 9.253259E-07 1
vn -5.362045E-07 9.253259E-07 1
vn -5.362045E-07 9.253259E-07 1
vn -5.362045E-07 9.253259E-07 1
vn -5.362045E-07 9.253259E-07 1
vn -5.362045E-07 9.253259E-07 1
vn -5.362045E-07 9.253259E-07 1
vn -5.362045E-07 9.253259E-07 1
vn -5.362045E-07 9.253259E-07 1
vn -5.362045E-07 9.253259E-07 1
vn -5.362045E-07 9.253259E-07 1
vn -5.362045E-07 9.253259E-07 1
vn -5.362045E-07 9.253259E-07 1
vn -5.362045E-07 9.253259E-07 1
vn -5.362045E-07 9.253259E-07 1
g _CombinedLessRain21_0_0
f 3/3/3 2/2/2 1/1/1
f 6/6/6 5/5/5 4/4/4
f 9/9/9 8/8/8 7/7/7
f 12/12/12 11/11/11 10/10/10
f 15/15/15 14/14/14 13/13/13
f 18/18/18 17/17/17 16/16/16
f 21/21/21 20/20/20 19/19/19
f 24/24/24 23/23/23 22/22/22
f 27/27/27 26/26/26 25/25/25
f 30/30/30 29/29/29 28/28/28
f 33/33/33 32/32/32 31/31/31
f 36/36/36 35/35/35 34/34/34
f 39/39/39 38/38/38 37/37/37
f 42/42/42 41/41/41 40/40/40
f 45/45/45 44/44/44 43/43/43
f 48/48/48 47/47/47 46/46/46
f 51/51/51 50/50/50 49/49/49
f 54/54/54 53/53/53 52/52/52
f 57/57/57 56/56/56 55/55/55
f 60/60/60 59/59/59 58/58/58
f 63/63/63 62/62/62 61/61/61
f 66/66/66 65/65/65 64/64/64
f 69/69/69 68/68/68 67/67/67
f 72/72/72 71/71/71 70/70/70
f 75/75/75 74/74/74 73/73/73
f 78/78/78 77/77/77 76/76/76
f 81/81/81 80/80/80 79/79/79
f 84/84/84 83/83/83 82/82/82
f 87/87/87 86/86/86 85/85/85
f 90/90/90 89/89/89 88/88/88
f 93/93/93 92/92/92 91/91/91
f 96/96/96 95/95/95 94/94/94
f 99/99/99 98/98/98 97/97/97
