g _Combined_Vis16_0
v 1.25 1.375 -0.2500001
v 1.25 1.5 -0.125
v 1.25 1.5 -0.2500001
v 1.25 1.375 -0.125
v 1.25 0.5 -0.2500001
v 1.25 0.5 -0.125
v 1.25 1.5 0.6250001
v 1.25 1.375 0.6250001
v 1.25 1.5 0.7500001
v 1.25 1.375 0.7500001
v 1.25 0.5 0.6250001
v 1.25 0.5 0.7500001
v 1.25 1.375 -0.125
v 1.125 1.375 -0.125
v 1.125 1.375 0.6250001
v 1.25 1.375 0.6250001
v 1.125 0.5 -0.125
v 1.125 0.5 0.6250001
v 1.125 1.375 0.6250001
v 1.125 1.375 -0.125
v 1.25 0.5 -0.125
v 1.125 0.5 -0.125
v 1.125 1.375 -0.125
v 1.25 1.375 -0.125
v 1.25 1.375 0.6250001
v 1.125 1.375 0.6250001
v 1.125 0.5 0.6250001
v 1.25 0.5 0.6250001
v -0.75 1.5 -0.250001
v 0.25 1.5 -0.249999
v 0.25 1.5 0.75
v -0.75 1.5 0.75
v 0.25 -0.499999 -0.25
v -0.7500001 -0.5000009 -0.25
v -0.75 -1.5 -0.25
v 0.2500001 -1.5 -0.25
v 1.25 -0.499999 -0.25
v 0.25 -0.499999 -0.25
v 0.2500001 -1.5 -0.25
v 1.25 -1.5 -0.25
v 1.25 1.5 -0.2500001
v 0.25 1.5 -0.249999
v 0.25 0.5 -0.25
v 1.25 0.5 -0.2500001
v 0.25 1.5 0.75
v 1.25 1.5 -0.2500001
v 1.25 1.5 0.7500001
v 1.25 0.5 -0.2500001
v 0.25 0.5 -0.25
v 0.25 -0.499999 -0.25
v 1.25 -0.499999 -0.25
v -0.750001 0.5 -0.25
v -0.7500001 -0.5000009 -0.25
v 0.25 -0.499999 -0.25
v 0.25 0.5 -0.25
v -1.750001 0.5 -0.25
v -1.749999 -0.5 -0.25
v -0.7500001 -0.5000009 -0.25
v -0.750001 0.5 -0.25
v 1.25 0.5 -0.2500001
v 1.25 -0.499999 -0.25
v 1.25 -0.5 0.7500001
v 1.25 0.5 0.7500001
v 1.25 -0.499999 -0.25
v 1.25 -1.5 -0.25
v 1.25 -1.5 0.7500001
v 1.25 -0.5 0.7500001
v -0.75 1.5 -0.250001
v -1.75 1.499999 -0.25
v -1.750001 0.5 -0.25
v -0.750001 0.5 -0.25
v -1.750001 1.5 0.75
v -1.75 1.499999 -0.25
v -0.75 1.5 -0.250001
v 1.25 -1.5 -0.25
v 0.2500001 -1.5 -0.25
v 0.25 -2.5 -0.25
v 1.25 -2.5 -0.25
v 0.2500001 -1.5 -0.25
v -0.75 -1.5 -0.25
v -0.75 -2.5 -0.25
v 0.25 -2.5 -0.25
v -0.75 -1.5 -0.25
v -1.75 -1.500001 -0.25
v -1.75 -2.5 -0.25
v -0.75 -2.5 -0.25
v 1.25 -1.5 -0.25
v 1.25 -2.5 -0.25
v 1.25 -2.5 0.7500001
v 1.25 -1.5 0.7500001
v 0.25 1.5 -0.249999
v -0.75 1.5 -0.250001
v -0.750001 0.5 -0.25
v 0.25 0.5 -0.25
v -0.7500001 -0.5000009 -0.25
v -1.749999 -0.5 -0.25
v -1.75 -1.500001 -0.25
v -0.75 -1.5 -0.25
v 0.2499988 0.4999999 0.75
v 0.25 0.5 -0.25
v 1.25 0.5 -0.2500001
v 1.25 0.5 0.7500001
vt 0.703125 0.1875
vt 0.6953125 0.203125
vt 0.703125 0.203125
vt 0.6953125 0.1875
vt 0.703125 0.078125
vt 0.6953125 0.078125
vt 0.6484375 0.203125
vt 0.6484375 0.1875
vt 0.640625 0.203125
vt 0.640625 0.1875
vt 0.6484375 0.078125
vt 0.640625 0.078125
vt 0.765625 0.203125
vt 0.765625 0.1875
vt 0.71875 0.1875
vt 0.71875 0.203125
vt 0.6953125 0.078125
vt 0.6484375 0.078125
vt 0.6484375 0.1875
vt 0.6953125 0.1875
vt 0.7109375 0.078125
vt 0.71875 0.078125
vt 0.71875 0.1875
vt 0.7109375 0.1875
vt 0.703125 0.1875
vt 0.7109375 0.1875
vt 0.7109375 0.078125
vt 0.703125 0.078125
vt 0.140625 0.171875
vt 0.140625 0.046875
vt 0.015625 0.046875
vt 0.015625 0.171875
vt 0.859375 0.828125
vt 0.859375 0.703125
vt 0.734375 0.703125
vt 0.734375 0.828125
vt 0.859375 0.828125
vt 0.859375 0.703125
vt 0.734375 0.703125
vt 0.734375 0.828125
vt 0.765625 0.203125
vt 0.765625 0.078125
vt 0.640625 0.078125
vt 0.640625 0.203125
vt 0.140625 0.171875
vt 0.015625 0.046875
vt 0.015625 0.171875
vt 0.703125 0.453125
vt 0.703125 0.328125
vt 0.578125 0.328125
vt 0.578125 0.453125
vt 0.453125 0.171875
vt 0.453125 0.046875
vt 0.328125 0.046875
vt 0.328125 0.171875
vt 0.703125 0.453125
vt 0.703125 0.328125
vt 0.578125 0.328125
vt 0.578125 0.453125
vt 0.453125 0.171875
vt 0.453125 0.046875
vt 0.328125 0.046875
vt 0.328125 0.171875
vt 0.859375 0.828125
vt 0.859375 0.703125
vt 0.734375 0.703125
vt 0.734375 0.828125
vt 0.765625 0.203125
vt 0.765625 0.078125
vt 0.640625 0.078125
vt 0.640625 0.203125
vt 0.140625 0.171875
vt 0.140625 0.046875
vt 0.015625 0.046875
vt 0.859375 0.828125
vt 0.859375 0.703125
vt 0.734375 0.703125
vt 0.734375 0.828125
vt 0.859375 0.828125
vt 0.859375 0.703125
vt 0.734375 0.703125
vt 0.734375 0.828125
vt 0.859375 0.828125
vt 0.859375 0.703125
vt 0.734375 0.703125
vt 0.734375 0.828125
vt 0.859375 0.828125
vt 0.859375 0.703125
vt 0.734375 0.703125
vt 0.734375 0.828125
vt 0.765625 0.203125
vt 0.765625 0.078125
vt 0.640625 0.078125
vt 0.640625 0.203125
vt 0.859375 0.828125
vt 0.859375 0.703125
vt 0.734375 0.703125
vt 0.734375 0.828125
vt 0.140625 0.171875
vt 0.140625 0.046875
vt 0.015625 0.046875
vt 0.015625 0.171875
vn 1 0 -1.192093E-07
vn 1 0 -1.192093E-07
vn 1 0 -1.192093E-07
vn 1 0 -1.192093E-07
vn 1 0 -1.192093E-07
vn 1 0 -1.192093E-07
vn 1 0 -1.192093E-07
vn 1 0 -1.192093E-07
vn 1 0 -1.192093E-07
vn 1 0 -1.192093E-07
vn 1 0 -1.192093E-07
vn 1 0 -1.192093E-07
vn 0 -1 0
vn 0 -1 0
vn 0 -1 0
vn 0 -1 0
vn 1 0 -1.192093E-07
vn 1 0 -1.192093E-07
vn 1 0 -1.192093E-07
vn 1 0 -1.192093E-07
vn 1.192093E-07 0 1
vn 1.192093E-07 0 1
vn 1.192093E-07 0 1
vn 1.192093E-07 0 1
vn -1.192093E-07 0 -1
vn -1.192093E-07 0 -1
vn -1.192093E-07 0 -1
vn -1.192093E-07 0 -1
vn 0 1 0
vn 0 1 0
vn 0 1 0
vn 0 1 0
vn 8.742277E-08 0 -1
vn 8.742277E-08 0 -1
vn 8.742277E-08 0 -1
vn 8.742277E-08 0 -1
vn 8.742277E-08 0 -1
vn 8.742277E-08 0 -1
vn 8.742277E-08 0 -1
vn 8.742277E-08 0 -1
vn 8.742277E-08 0 -1
vn 8.742277E-08 0 -1
vn 8.742277E-08 0 -1
vn 8.742277E-08 0 -1
vn 0 1 -1.192093E-07
vn 0 1 -1.192093E-07
vn 0 1 -1.192093E-07
vn 8.742277E-08 0 -1
vn 8.742277E-08 0 -1
vn 8.742277E-08 0 -1
vn 8.742277E-08 0 -1
vn -6.290182E-16 -8.742278E-08 -1
vn -6.290182E-16 -8.742278E-08 -1
vn -6.290182E-16 -8.742278E-08 -1
vn -6.290182E-16 -8.742278E-08 -1
vn 8.742278E-08 0 -1
vn 8.742278E-08 0 -1
vn 8.742278E-08 0 -1
vn 8.742278E-08 0 -1
vn 1 0 -1.192093E-07
vn 1 0 -1.192093E-07
vn 1 0 -1.192093E-07
vn 1 0 -1.192093E-07
vn 1 0 -1.192093E-07
vn 1 0 -1.192093E-07
vn 1 0 -1.192093E-07
vn 1 0 -1.192093E-07
vn 8.742277E-08 0 -1
vn 8.742277E-08 0 -1
vn 8.742277E-08 0 -1
vn 8.742277E-08 0 -1
vn 0 1 -1.192093E-07
vn 0 1 -1.192093E-07
vn 0 1 -1.192093E-07
vn 8.742277E-08 0 -1
vn 8.742277E-08 0 -1
vn 8.742277E-08 0 -1
vn 8.742277E-08 0 -1
vn 8.742277E-08 0 -1
vn 8.742277E-08 0 -1
vn 8.742277E-08 0 -1
vn 8.742277E-08 0 -1
vn 8.742277E-08 0 -1
vn 8.742277E-08 0 -1
vn 8.742277E-08 0 -1
vn 8.742277E-08 0 -1
vn 1 0 -1.192093E-07
vn 1 0 -1.192093E-07
vn 1 0 -1.192093E-07
vn 1 0 -1.192093E-07
vn 8.742277E-08 0 -1
vn 8.742277E-08 0 -1
vn 8.742277E-08 0 -1
vn 8.742277E-08 0 -1
vn 8.742277E-08 0 -1
vn 8.742277E-08 0 -1
vn 8.742277E-08 0 -1
vn 8.742277E-08 0 -1
vn 0 1 -1.192093E-07
vn 0 1 -1.192093E-07
vn 0 1 -1.192093E-07
vn 0 1 -1.192093E-07
g _Combined_Vis16_0_0
f 3/3/3 2/2/2 1/1/1
f 2/2/2 4/4/4 1/1/1
f 1/1/1 4/4/4 5/5/5
f 4/4/4 6/6/6 5/5/5
f 2/2/2 7/7/7 4/4/4
f 7/7/7 8/8/8 4/4/4
f 8/8/8 7/7/7 9/9/9
f 10/10/10 8/8/8 9/9/9
f 8/8/8 10/10/10 11/11/11
f 10/10/10 12/12/12 11/11/11
f 15/15/15 14/14/14 13/13/13
f 16/16/16 15/15/15 13/13/13
f 19/19/19 18/18/18 17/17/17
f 20/20/20 19/19/19 17/17/17
f 23/23/23 22/22/22 21/21/21
f 24/24/24 23/23/23 21/21/21
f 27/27/27 26/26/26 25/25/25
f 28/28/28 27/27/27 25/25/25
f 31/31/31 30/30/30 29/29/29
f 32/32/32 31/31/31 29/29/29
f 35/35/35 34/34/34 33/33/33
f 36/36/36 35/35/35 33/33/33
f 39/39/39 38/38/38 37/37/37
f 40/40/40 39/39/39 37/37/37
f 43/43/43 42/42/42 41/41/41
f 44/44/44 43/43/43 41/41/41
f 46/46/46 30/30/30 45/45/45
f 47/47/47 46/46/46 45/45/45
f 50/50/50 49/49/49 48/48/48
f 51/51/51 50/50/50 48/48/48
f 54/54/54 53/53/53 52/52/52
f 55/55/55 54/54/54 52/52/52
f 58/58/58 57/57/57 56/56/56
f 59/59/59 58/58/58 56/56/56
f 62/62/62 61/61/61 60/60/60
f 63/63/63 62/62/62 60/60/60
f 66/66/66 65/65/65 64/64/64
f 67/67/67 66/66/66 64/64/64
f 70/70/70 69/69/69 68/68/68
f 71/71/71 70/70/70 68/68/68
f 74/74/74 73/73/73 72/72/72
f 32/32/32 74/74/74 72/72/72
f 77/77/77 76/76/76 75/75/75
f 78/78/78 77/77/77 75/75/75
f 81/81/81 80/80/80 79/79/79
f 82/82/82 81/81/81 79/79/79
f 85/85/85 84/84/84 83/83/83
f 86/86/86 85/85/85 83/83/83
f 89/89/89 88/88/88 87/87/87
f 90/90/90 89/89/89 87/87/87
f 93/93/93 92/92/92 91/91/91
f 94/94/94 93/93/93 91/91/91
f 97/97/97 96/96/96 95/95/95
f 98/98/98 97/97/97 95/95/95
f 101/101/101 100/100/100 99/99/99
f 102/102/102 101/101/101 99/99/99
