g _Combined_Vis43_1
v 161 6.50001 79.5188
v 162 6.50001 79.5188
v 162 9.50001 79.5188
v 161 9.50001 79.5188
v 161.964 6.5 79.5
v 161.964 6.5 80.5
v 161.964 9.5 80.5
v 161.964 9.5 79.5
v 161.0316 6.5 80.5188
v 161.0316 6.5 79.5188
v 161.0316 9.5 79.5188
v 161.0316 9.5 80.5188
vt 0.999999 0.000147
vt 1.1E-05 0.000147
vt 1.1E-05 0.999997
vt 0.999999 0.999997
vt 0.999999 0.000147
vt 1.1E-05 0.000147
vt 1.1E-05 0.999997
vt 0.999999 0.999997
vt 0.999999 0.000147
vt 1.1E-05 0.000147
vt 1.1E-05 0.999997
vt 0.999999 0.999997
vn 0 -1.192093E-07 -1
vn 0 -1.192093E-07 -1
vn 0 -1.192093E-07 -1
vn 0 -1.192093E-07 -1
vn 1 -4.768371E-07 -3.874301E-07
vn 1 -4.768371E-07 -3.874301E-07
vn 1 -4.768371E-07 -3.874301E-07
vn 1 -4.768371E-07 -3.874301E-07
vn -1 -4.768371E-07 -3.874301E-07
vn -1 -4.768371E-07 -3.874301E-07
vn -1 -4.768371E-07 -3.874301E-07
vn -1 -4.768371E-07 -3.874301E-07
g _Combined_Vis43_1_0
f 3/3/3 2/2/2 1/1/1
f 4/4/4 3/3/3 1/1/1
f 7/7/7 6/6/6 5/5/5
f 8/8/8 7/7/7 5/5/5
f 11/11/11 10/10/10 9/9/9
f 12/12/12 11/11/11 9/9/9
