g _Combined_AutoVis13_0
v -0.3734716 0.8749943 0.4999953
v -0.3734715 0.8749942 -0.5000054
v -0.2484715 0.8749943 -0.5000054
v -0.2484716 0.8749944 0.4999953
v -0.1234715 0.7499943 0.4999953
v -0.2484716 0.7499943 0.4999953
v -0.2484715 0.7499942 -0.5000054
v -0.1234715 0.7499942 -0.5000054
v -0.1234715 0.6249941 -0.5000054
v 0.001528564 0.6249941 -0.5000054
v 0.001528475 0.6249942 0.4999953
v -0.1234716 0.6249942 0.4999953
v 0.1265285 0.4999942 0.4999952
v 0.001528464 0.4999941 0.4999953
v 0.001528553 0.499994 -0.5000055
v 0.1265286 0.499994 -0.5000055
v -0.5000036 0.9999945 0.4999954
v -0.5000035 0.9999943 -0.5000054
v -0.3734715 0.9999943 -0.5000054
v -0.3734716 0.9999945 0.4999954
v 0.1265286 0.374994 -0.5000055
v 0.2515286 0.374994 -0.5000055
v 0.2515285 0.3749941 0.4999952
v 0.1265285 0.3749941 0.4999952
v 0.3765285 0.249994 0.4999952
v 0.2515285 0.249994 0.4999952
v 0.2515286 0.2499939 -0.5000055
v 0.3765286 0.2499939 -0.5000055
v 0.3765286 0.1249938 -0.5000055
v 0.4999986 0.1249938 -0.5000055
v 0.4999976 0.1249939 0.4999952
v 0.3765285 0.1249939 0.4999952
v 0.4999976 0.1249939 0.4999952
v 0.4999975 -6.154182E-06 0.4999951
v -0.5000037 -6.243588E-06 0.4999952
v 0.3765285 0.1249939 0.4999952
v 0.3765285 0.249994 0.4999952
v 0.2515285 0.249994 0.4999952
v 0.2515285 0.3749941 0.4999952
v 0.1265285 0.3749941 0.4999952
v 0.1265285 0.4999942 0.4999952
v 0.001528464 0.4999941 0.4999953
v 0.001528475 0.6249942 0.4999953
v -0.1234716 0.6249942 0.4999953
v -0.1234715 0.7499943 0.4999953
v -0.2484716 0.7499943 0.4999953
v -0.2484716 0.8749944 0.4999953
v -0.3734716 0.8749943 0.4999953
v -0.3734716 0.9999945 0.4999954
v -0.5000036 0.9999945 0.4999954
v 0.3765285 0.1249939 0.4999952
v 0.3765285 0.249994 0.4999952
v 0.3765286 0.2499939 -0.5000055
v 0.3765286 0.1249938 -0.5000055
v -0.1234715 0.6249941 -0.5000054
v 0.001528553 0.499994 -0.5000055
v 0.001528564 0.6249941 -0.5000054
v -0.5000036 -6.362798E-06 -0.5000055
v -0.2484715 0.7499942 -0.5000054
v -0.1234715 0.7499942 -0.5000054
v 0.1265286 0.374994 -0.5000055
v 0.1265286 0.499994 -0.5000055
v -0.3734715 0.8749942 -0.5000054
v -0.2484715 0.8749943 -0.5000054
v -0.5000035 0.9999943 -0.5000054
v -0.3734715 0.9999943 -0.5000054
v 0.2515286 0.2499939 -0.5000055
v 0.2515286 0.374994 -0.5000055
v 0.3765286 0.1249938 -0.5000055
v 0.3765286 0.2499939 -0.5000055
v 0.4999986 -6.273392E-06 -0.5000055
v 0.4999986 0.1249938 -0.5000055
v 0.2515286 0.374994 -0.5000055
v 0.2515286 0.2499939 -0.5000055
v 0.2515285 0.249994 0.4999952
v 0.2515285 0.3749941 0.4999952
v 0.1265286 0.499994 -0.5000055
v 0.1265286 0.374994 -0.5000055
v 0.1265285 0.3749941 0.4999952
v 0.1265285 0.4999942 0.4999952
v 0.001528564 0.6249941 -0.5000054
v 0.001528553 0.499994 -0.5000055
v 0.001528464 0.4999941 0.4999953
v 0.001528475 0.6249942 0.4999953
v -0.1234715 0.7499942 -0.5000054
v -0.1234715 0.6249941 -0.5000054
v -0.1234716 0.6249942 0.4999953
v -0.1234715 0.7499943 0.4999953
v -0.2484715 0.8749943 -0.5000054
v -0.2484715 0.7499942 -0.5000054
v -0.2484716 0.7499943 0.4999953
v -0.2484716 0.8749944 0.4999953
v -0.3734716 0.9999945 0.4999954
v -0.3734715 0.9999943 -0.5000054
v -0.3734715 0.8749942 -0.5000054
v -0.3734716 0.8749943 0.4999953
v 0.4999986 0.1249938 -0.5000055
v 0.4999986 -6.273392E-06 -0.5000055
v 0.4999975 -6.154182E-06 0.4999951
v 0.4999976 0.1249939 0.4999952
v 0.3734713 -0.8750005 0.4999875
v 0.3734714 -0.8750006 -0.5000132
v 0.2484714 -0.8750006 -0.5000132
v 0.2484713 -0.8750005 0.4999875
v 0.1234713 -0.7500004 0.4999875
v 0.2484713 -0.7500004 0.4999875
v 0.2484714 -0.7500005 -0.5000132
v 0.1234714 -0.7500005 -0.5000132
v 0.1234714 -0.6250004 -0.5000132
v -0.001528605 -0.6250004 -0.5000132
v -0.001528695 -0.6250003 0.4999875
v 0.1234713 -0.6250003 0.4999875
v -0.1265287 -0.5000002 0.4999876
v -0.001528673 -0.5000002 0.4999876
v -0.001528583 -0.5000004 -0.5000132
v -0.1265286 -0.5000004 -0.5000132
v 0.5000033 -1.000001 0.4999875
v 0.5000035 -1.000001 -0.5000132
v 0.3734714 -1.000001 -0.5000132
v 0.3734713 -1.000001 0.4999875
v -0.1265286 -0.3750003 -0.5000131
v -0.2515286 -0.3750003 -0.5000131
v -0.2515287 -0.3750001 0.4999876
v -0.1265287 -0.3750001 0.4999876
v -0.3765287 -0.25 0.4999876
v -0.2515287 -0.25 0.4999876
v -0.2515286 -0.2500001 -0.5000131
v -0.3765287 -0.2500001 -0.5000131
v -0.3765286 -0.1250001 -0.5000131
v -0.4999986 -0.1250001 -0.5000131
v -0.4999977 -0.1249999 0.4999877
v -0.3765287 -0.1249999 0.4999876
v -0.4999977 -0.1249999 0.4999877
v -0.5000037 -6.243588E-06 0.4999952
v 0.4999975 -6.154182E-06 0.4999951
v -0.3765287 -0.1249999 0.4999876
v -0.3765287 -0.25 0.4999876
v -0.2515287 -0.25 0.4999876
v -0.2515287 -0.3750001 0.4999876
v -0.1265287 -0.3750001 0.4999876
v -0.1265287 -0.5000002 0.4999876
v -0.001528673 -0.5000002 0.4999876
v -0.001528695 -0.6250003 0.4999875
v 0.1234713 -0.6250003 0.4999875
v 0.1234713 -0.7500004 0.4999875
v 0.2484713 -0.7500004 0.4999875
v 0.2484713 -0.8750005 0.4999875
v 0.3734713 -0.8750005 0.4999875
v 0.3734713 -1.000001 0.4999875
v 0.5000033 -1.000001 0.4999875
v -0.3765287 -0.1249999 0.4999876
v -0.3765287 -0.25 0.4999876
v -0.3765287 -0.2500001 -0.5000131
v -0.3765286 -0.1250001 -0.5000131
v 0.1234714 -0.6250004 -0.5000132
v -0.001528583 -0.5000004 -0.5000132
v -0.001528605 -0.6250004 -0.5000132
v 0.4999986 -6.273392E-06 -0.5000055
v 0.2484714 -0.7500005 -0.5000132
v 0.1234714 -0.7500005 -0.5000132
v -0.1265286 -0.3750003 -0.5000131
v -0.1265286 -0.5000004 -0.5000132
v 0.3734714 -0.8750006 -0.5000132
v 0.2484714 -0.8750006 -0.5000132
v 0.5000035 -1.000001 -0.5000132
v 0.3734714 -1.000001 -0.5000132
v -0.2515286 -0.2500001 -0.5000131
v -0.2515286 -0.3750003 -0.5000131
v -0.3765286 -0.1250001 -0.5000131
v -0.3765287 -0.2500001 -0.5000131
v -0.5000036 -6.362798E-06 -0.5000055
v -0.4999986 -0.1250001 -0.5000131
v -0.2515286 -0.3750003 -0.5000131
v -0.2515286 -0.2500001 -0.5000131
v -0.2515287 -0.25 0.4999876
v -0.2515287 -0.3750001 0.4999876
v -0.1265286 -0.5000004 -0.5000132
v -0.1265286 -0.3750003 -0.5000131
v -0.1265287 -0.3750001 0.4999876
v -0.1265287 -0.5000002 0.4999876
v -0.001528605 -0.6250004 -0.5000132
v -0.001528583 -0.5000004 -0.5000132
v -0.001528673 -0.5000002 0.4999876
v -0.001528695 -0.6250003 0.4999875
v 0.1234714 -0.7500005 -0.5000132
v 0.1234714 -0.6250004 -0.5000132
v 0.1234713 -0.6250003 0.4999875
v 0.1234713 -0.7500004 0.4999875
v 0.2484714 -0.8750006 -0.5000132
v 0.2484714 -0.7500005 -0.5000132
v 0.2484713 -0.7500004 0.4999875
v 0.2484713 -0.8750005 0.4999875
v 0.3734713 -1.000001 0.4999875
v 0.3734714 -1.000001 -0.5000132
v 0.3734714 -0.8750006 -0.5000132
v 0.3734713 -0.8750005 0.4999875
v -0.4999986 -0.1250001 -0.5000131
v -0.5000036 -6.362798E-06 -0.5000055
v -0.5000037 -6.243588E-06 0.4999952
v -0.4999977 -0.1249999 0.4999877
v 0.5000033 -1.000001 0.4999875
v 0.4999975 -6.154182E-06 0.4999951
v 0.4999986 -6.273392E-06 -0.5000055
v 0.5000035 -1.000001 -0.5000132
v -0.5000036 0.9999945 0.4999954
v -0.5000037 -6.243588E-06 0.4999952
v -0.5000036 -6.362798E-06 -0.5000055
v -0.5000035 0.9999943 -0.5000054
vt 0.703125 0.5593708
vt 0.640625 0.5593708
vt 0.640625 0.5656669
vt 0.703125 0.5656669
vt 0.703125 0.571963
vt 0.703125 0.5656669
vt 0.640625 0.5656669
vt 0.640625 0.571963
vt 0.640625 0.571963
vt 0.640625 0.5782592
vt 0.703125 0.5782592
vt 0.703125 0.571963
vt 0.703125 0.5845554
vt 0.703125 0.5782592
vt 0.640625 0.5782592
vt 0.640625 0.5845554
vt 0.703125 0.5530745
vt 0.640625 0.5530745
vt 0.640625 0.5593708
vt 0.703125 0.5593708
vt 0.640625 0.5845554
vt 0.640625 0.5908515
vt 0.703125 0.5908515
vt 0.703125 0.5845554
vt 0.703125 0.5971478
vt 0.703125 0.5908515
vt 0.640625 0.5908515
vt 0.640625 0.5971478
vt 0.640625 0.5971478
vt 0.640625 0.6034439
vt 0.703125 0.6034439
vt 0.703125 0.5971478
vt 0.765625 0.6171875
vt 0.765625 0.609375
vt 0.703125 0.609375
vt 0.7578125 0.6171875
vt 0.7578125 0.625
vt 0.75 0.625
vt 0.75 0.6328125
vt 0.7421875 0.6328125
vt 0.7421875 0.640625
vt 0.734375 0.640625
vt 0.734375 0.6484375
vt 0.7265625 0.6484375
vt 0.7265625 0.65625
vt 0.71875 0.65625
vt 0.71875 0.6640625
vt 0.7109375 0.6640625
vt 0.7109375 0.671875
vt 0.703125 0.671875
vt 0.703125 0.5593708
vt 0.703125 0.5656669
vt 0.765625 0.5656669
vt 0.765625 0.5593708
vt 0.7265625 0.6484375
vt 0.734375 0.640625
vt 0.734375 0.6484375
vt 0.703125 0.609375
vt 0.71875 0.65625
vt 0.7265625 0.65625
vt 0.7421875 0.6328125
vt 0.7421875 0.640625
vt 0.7109375 0.6640625
vt 0.71875 0.6640625
vt 0.703125 0.671875
vt 0.7109375 0.671875
vt 0.75 0.625
vt 0.75 0.6328125
vt 0.7578125 0.6171875
vt 0.7578125 0.625
vt 0.765625 0.609375
vt 0.765625 0.6171875
vt 0.765625 0.571963
vt 0.765625 0.5656669
vt 0.703125 0.5656669
vt 0.703125 0.571963
vt 0.765625 0.5782592
vt 0.765625 0.571963
vt 0.703125 0.571963
vt 0.703125 0.5782592
vt 0.765625 0.5845554
vt 0.765625 0.5782592
vt 0.703125 0.5782592
vt 0.703125 0.5845554
vt 0.765625 0.5908515
vt 0.765625 0.5845554
vt 0.703125 0.5845554
vt 0.703125 0.5908515
vt 0.765625 0.5971478
vt 0.765625 0.5908515
vt 0.703125 0.5908515
vt 0.703125 0.5971478
vt 0.703125 0.6034439
vt 0.765625 0.6034439
vt 0.765625 0.5971478
vt 0.703125 0.5971478
vt 0.765625 0.5593708
vt 0.765625 0.5530745
vt 0.703125 0.5530745
vt 0.703125 0.5593708
vt 0.703125 0.5593708
vt 0.640625 0.5593708
vt 0.640625 0.5656669
vt 0.703125 0.5656669
vt 0.703125 0.571963
vt 0.703125 0.5656669
vt 0.640625 0.5656669
vt 0.640625 0.571963
vt 0.640625 0.571963
vt 0.640625 0.5782592
vt 0.703125 0.5782592
vt 0.703125 0.571963
vt 0.703125 0.5845554
vt 0.703125 0.5782592
vt 0.640625 0.5782592
vt 0.640625 0.5845554
vt 0.703125 0.5530745
vt 0.640625 0.5530745
vt 0.640625 0.5593708
vt 0.703125 0.5593708
vt 0.640625 0.5845554
vt 0.640625 0.5908515
vt 0.703125 0.5908515
vt 0.703125 0.5845554
vt 0.703125 0.5971478
vt 0.703125 0.5908515
vt 0.640625 0.5908515
vt 0.640625 0.5971478
vt 0.640625 0.5971478
vt 0.640625 0.6034439
vt 0.703125 0.6034439
vt 0.703125 0.5971478
vt 0.765625 0.6171875
vt 0.765625 0.609375
vt 0.703125 0.609375
vt 0.7578125 0.6171875
vt 0.7578125 0.625
vt 0.75 0.625
vt 0.75 0.6328125
vt 0.7421875 0.6328125
vt 0.7421875 0.640625
vt 0.734375 0.640625
vt 0.734375 0.6484375
vt 0.7265625 0.6484375
vt 0.7265625 0.65625
vt 0.71875 0.65625
vt 0.71875 0.6640625
vt 0.7109375 0.6640625
vt 0.7109375 0.671875
vt 0.703125 0.671875
vt 0.703125 0.5593708
vt 0.703125 0.5656669
vt 0.765625 0.5656669
vt 0.765625 0.5593708
vt 0.7265625 0.6484375
vt 0.734375 0.640625
vt 0.734375 0.6484375
vt 0.703125 0.609375
vt 0.71875 0.65625
vt 0.7265625 0.65625
vt 0.7421875 0.6328125
vt 0.7421875 0.640625
vt 0.7109375 0.6640625
vt 0.71875 0.6640625
vt 0.703125 0.671875
vt 0.7109375 0.671875
vt 0.75 0.625
vt 0.75 0.6328125
vt 0.7578125 0.6171875
vt 0.7578125 0.625
vt 0.765625 0.609375
vt 0.765625 0.6171875
vt 0.765625 0.571963
vt 0.765625 0.5656669
vt 0.703125 0.5656669
vt 0.703125 0.571963
vt 0.765625 0.5782592
vt 0.765625 0.571963
vt 0.703125 0.571963
vt 0.703125 0.5782592
vt 0.765625 0.5845554
vt 0.765625 0.5782592
vt 0.703125 0.5782592
vt 0.703125 0.5845554
vt 0.765625 0.5908515
vt 0.765625 0.5845554
vt 0.703125 0.5845554
vt 0.703125 0.5908515
vt 0.765625 0.5971478
vt 0.765625 0.5908515
vt 0.703125 0.5908515
vt 0.703125 0.5971478
vt 0.703125 0.6034439
vt 0.765625 0.6034439
vt 0.765625 0.5971478
vt 0.703125 0.5971478
vt 0.765625 0.5593708
vt 0.765625 0.5530745
vt 0.703125 0.5530745
vt 0.703125 0.5593708
vt 0.890625 0.359375
vt 0.890625 0.234375
vt 0.765625 0.234375
vt 0.765625 0.359375
vt 0.578125 0.671875
vt 0.578125 0.546875
vt 0.453125 0.546875
vt 0.453125 0.671875
vn 8.940603E-08 1 1.192091E-07
vn 8.940603E-08 1 1.192091E-07
vn 8.940603E-08 1 1.192091E-07
vn 8.940603E-08 1 1.192091E-07
vn 8.940603E-08 1 1.192091E-07
vn 8.940603E-08 1 1.192091E-07
vn 8.940603E-08 1 1.192091E-07
vn 8.940603E-08 1 1.192091E-07
vn 8.940603E-08 1 1.192091E-07
vn 8.940603E-08 1 1.192091E-07
vn 8.940603E-08 1 1.192091E-07
vn 8.940603E-08 1 1.192091E-07
vn 8.940603E-08 1 1.192091E-07
vn 8.940603E-08 1 1.192091E-07
vn 8.940603E-08 1 1.192091E-07
vn 8.940603E-08 1 1.192091E-07
vn 8.940603E-08 1 1.192091E-07
vn 8.940603E-08 1 1.192091E-07
vn 8.940603E-08 1 1.192091E-07
vn 8.940603E-08 1 1.192091E-07
vn 8.940603E-08 1 1.192091E-07
vn 8.940603E-08 1 1.192091E-07
vn 8.940603E-08 1 1.192091E-07
vn 8.940603E-08 1 1.192091E-07
vn 8.940603E-08 1 1.192091E-07
vn 8.940603E-08 1 1.192091E-07
vn 8.940603E-08 1 1.192091E-07
vn 8.940603E-08 1 1.192091E-07
vn 8.940603E-08 1 1.192091E-07
vn 8.940603E-08 1 1.192091E-07
vn 8.940603E-08 1 1.192091E-07
vn 8.940603E-08 1 1.192091E-07
vn -8.94138E-08 1.192091E-07 1
vn -8.94138E-08 1.192091E-07 1
vn -8.94138E-08 1.192091E-07 1
vn -8.94138E-08 1.192091E-07 1
vn -8.94138E-08 1.192091E-07 1
vn -8.94138E-08 1.192091E-07 1
vn -8.94138E-08 1.192091E-07 1
vn -8.94138E-08 1.192091E-07 1
vn -8.94138E-08 1.192091E-07 1
vn -8.94138E-08 1.192091E-07 1
vn -8.94138E-08 1.192091E-07 1
vn -8.94138E-08 1.192091E-07 1
vn -8.94138E-08 1.192091E-07 1
vn -8.94138E-08 1.192091E-07 1
vn -8.94138E-08 1.192091E-07 1
vn -8.94138E-08 1.192091E-07 1
vn -8.94138E-08 1.192091E-07 1
vn -8.94138E-08 1.192091E-07 1
vn 1 8.940607E-08 -8.941382E-08
vn 1 8.940607E-08 -8.941382E-08
vn 1 8.940607E-08 -8.941382E-08
vn 1 8.940607E-08 -8.941382E-08
vn 8.94138E-08 -1.192091E-07 -1
vn 8.94138E-08 -1.192091E-07 -1
vn 8.94138E-08 -1.192091E-07 -1
vn 8.94138E-08 -1.192091E-07 -1
vn 8.94138E-08 -1.192091E-07 -1
vn 8.94138E-08 -1.192091E-07 -1
vn 8.94138E-08 -1.192091E-07 -1
vn 8.94138E-08 -1.192091E-07 -1
vn 8.94138E-08 -1.192091E-07 -1
vn 8.94138E-08 -1.192091E-07 -1
vn 8.94138E-08 -1.192091E-07 -1
vn 8.94138E-08 -1.192091E-07 -1
vn 8.94138E-08 -1.192091E-07 -1
vn 8.94138E-08 -1.192091E-07 -1
vn 8.94138E-08 -1.192091E-07 -1
vn 8.94138E-08 -1.192091E-07 -1
vn 8.94138E-08 -1.192091E-07 -1
vn 8.94138E-08 -1.192091E-07 -1
vn 1 8.940607E-08 -8.941382E-08
vn 1 8.940607E-08 -8.941382E-08
vn 1 8.940607E-08 -8.941382E-08
vn 1 8.940607E-08 -8.941382E-08
vn 1 8.940607E-08 -8.941382E-08
vn 1 8.940607E-08 -8.941382E-08
vn 1 8.940607E-08 -8.941382E-08
vn 1 8.940607E-08 -8.941382E-08
vn 1 8.940607E-08 -8.941382E-08
vn 1 8.940607E-08 -8.941382E-08
vn 1 8.940607E-08 -8.941382E-08
vn 1 8.940607E-08 -8.941382E-08
vn 1 8.940607E-08 -8.941382E-08
vn 1 8.940607E-08 -8.941382E-08
vn 1 8.940607E-08 -8.941382E-08
vn 1 8.940607E-08 -8.941382E-08
vn 1 8.940607E-08 -8.941382E-08
vn 1 8.940607E-08 -8.941382E-08
vn 1 8.940607E-08 -8.941382E-08
vn 1 8.940607E-08 -8.941382E-08
vn 1 8.940607E-08 -8.941382E-08
vn 1 8.940607E-08 -8.941382E-08
vn 1 8.940607E-08 -8.941382E-08
vn 1 8.940607E-08 -8.941382E-08
vn 1 8.940607E-08 -8.941382E-08
vn 1 8.940607E-08 -8.941382E-08
vn 1 8.940607E-08 -8.941382E-08
vn 1 8.940607E-08 -8.941382E-08
vn -1.768288E-07 -1 -1.192091E-07
vn -1.768288E-07 -1 -1.192091E-07
vn -1.768288E-07 -1 -1.192091E-07
vn -1.768288E-07 -1 -1.192091E-07
vn -1.768288E-07 -1 -1.192091E-07
vn -1.768288E-07 -1 -1.192091E-07
vn -1.768288E-07 -1 -1.192091E-07
vn -1.768288E-07 -1 -1.192091E-07
vn -1.768288E-07 -1 -1.192091E-07
vn -1.768288E-07 -1 -1.192091E-07
vn -1.768288E-07 -1 -1.192091E-07
vn -1.768288E-07 -1 -1.192091E-07
vn -1.768288E-07 -1 -1.192091E-07
vn -1.768288E-07 -1 -1.192091E-07
vn -1.768288E-07 -1 -1.192091E-07
vn -1.768288E-07 -1 -1.192091E-07
vn -1.768288E-07 -1 -1.192091E-07
vn -1.768288E-07 -1 -1.192091E-07
vn -1.768288E-07 -1 -1.192091E-07
vn -1.768288E-07 -1 -1.192091E-07
vn -1.768288E-07 -1 -1.192091E-07
vn -1.768288E-07 -1 -1.192091E-07
vn -1.768288E-07 -1 -1.192091E-07
vn -1.768288E-07 -1 -1.192091E-07
vn -1.768288E-07 -1 -1.192091E-07
vn -1.768288E-07 -1 -1.192091E-07
vn -1.768288E-07 -1 -1.192091E-07
vn -1.768288E-07 -1 -1.192091E-07
vn -1.768288E-07 -1 -1.192091E-07
vn -1.768288E-07 -1 -1.192091E-07
vn -1.768288E-07 -1 -1.192091E-07
vn -1.768288E-07 -1 -1.192091E-07
vn -8.94138E-08 1.192091E-07 1
vn -8.94138E-08 1.192091E-07 1
vn -8.94138E-08 1.192091E-07 1
vn -8.94138E-08 1.192091E-07 1
vn -8.94138E-08 1.192091E-07 1
vn -8.94138E-08 1.192091E-07 1
vn -8.94138E-08 1.192091E-07 1
vn -8.94138E-08 1.192091E-07 1
vn -8.94138E-08 1.192091E-07 1
vn -8.94138E-08 1.192091E-07 1
vn -8.94138E-08 1.192091E-07 1
vn -8.94138E-08 1.192091E-07 1
vn -8.94138E-08 1.192091E-07 1
vn -8.94138E-08 1.192091E-07 1
vn -8.94138E-08 1.192091E-07 1
vn -8.94138E-08 1.192091E-07 1
vn -8.94138E-08 1.192091E-07 1
vn -8.94138E-08 1.192091E-07 1
vn -1 -1.983271E-09 8.941383E-08
vn -1 -1.983271E-09 8.941383E-08
vn -1 -1.983271E-09 8.941383E-08
vn -1 -1.983271E-09 8.941383E-08
vn 8.94138E-08 -1.192091E-07 -1
vn 8.94138E-08 -1.192091E-07 -1
vn 8.94138E-08 -1.192091E-07 -1
vn 8.94138E-08 -1.192091E-07 -1
vn 8.94138E-08 -1.192091E-07 -1
vn 8.94138E-08 -1.192091E-07 -1
vn 8.94138E-08 -1.192091E-07 -1
vn 8.94138E-08 -1.192091E-07 -1
vn 8.94138E-08 -1.192091E-07 -1
vn 8.94138E-08 -1.192091E-07 -1
vn 8.94138E-08 -1.192091E-07 -1
vn 8.94138E-08 -1.192091E-07 -1
vn 8.94138E-08 -1.192091E-07 -1
vn 8.94138E-08 -1.192091E-07 -1
vn 8.94138E-08 -1.192091E-07 -1
vn 8.94138E-08 -1.192091E-07 -1
vn 8.94138E-08 -1.192091E-07 -1
vn 8.94138E-08 -1.192091E-07 -1
vn -1 -1.983271E-09 8.941383E-08
vn -1 -1.983271E-09 8.941383E-08
vn -1 -1.983271E-09 8.941383E-08
vn -1 -1.983271E-09 8.941383E-08
vn -1 -1.983271E-09 8.941383E-08
vn -1 -1.983271E-09 8.941383E-08
vn -1 -1.983271E-09 8.941383E-08
vn -1 -1.983271E-09 8.941383E-08
vn -1 -1.983271E-09 8.941383E-08
vn -1 -1.983271E-09 8.941383E-08
vn -1 -1.983271E-09 8.941383E-08
vn -1 -1.983271E-09 8.941383E-08
vn -1 -1.983271E-09 8.941383E-08
vn -1 -1.983271E-09 8.941383E-08
vn -1 -1.983271E-09 8.941383E-08
vn -1 -1.983271E-09 8.941383E-08
vn -1 -1.983271E-09 8.941383E-08
vn -1 -1.983271E-09 8.941383E-08
vn -1 -1.983271E-09 8.941383E-08
vn -1 -1.983271E-09 8.941383E-08
vn -1 -1.983271E-09 8.941383E-08
vn -1 -1.983271E-09 8.941383E-08
vn -1 -1.983271E-09 8.941383E-08
vn -1 -1.983271E-09 8.941383E-08
vn -1 -1.983271E-09 8.941383E-08
vn -1 -1.983271E-09 8.941383E-08
vn -1 -1.983271E-09 8.941383E-08
vn -1 -1.983271E-09 8.941383E-08
vn 1 8.9406E-08 -2.086232E-07
vn 1 8.9406E-08 -2.086232E-07
vn 1 8.9406E-08 -2.086232E-07
vn 1 8.9406E-08 -2.086232E-07
vn -1 -8.940607E-08 -2.979549E-08
vn -1 -8.940607E-08 -2.979549E-08
vn -1 -8.940607E-08 -2.979549E-08
vn -1 -8.940607E-08 -2.979549E-08
g _Combined_AutoVis13_0_0
f 3/3/3 2/2/2 1/1/1
f 4/4/4 3/3/3 1/1/1
f 7/7/7 6/6/6 5/5/5
f 8/8/8 7/7/7 5/5/5
f 11/11/11 10/10/10 9/9/9
f 12/12/12 11/11/11 9/9/9
f 15/15/15 14/14/14 13/13/13
f 16/16/16 15/15/15 13/13/13
f 19/19/19 18/18/18 17/17/17
f 20/20/20 19/19/19 17/17/17
f 23/23/23 22/22/22 21/21/21
f 24/24/24 23/23/23 21/21/21
f 27/27/27 26/26/26 25/25/25
f 28/28/28 27/27/27 25/25/25
f 31/31/31 30/30/30 29/29/29
f 32/32/32 31/31/31 29/29/29
f 35/35/35 34/34/34 33/33/33
f 36/36/36 35/35/35 33/33/33
f 35/35/35 36/36/36 37/37/37
f 38/38/38 35/35/35 37/37/37
f 35/35/35 38/38/38 39/39/39
f 40/40/40 35/35/35 39/39/39
f 35/35/35 40/40/40 41/41/41
f 42/42/42 35/35/35 41/41/41
f 35/35/35 42/42/42 43/43/43
f 44/44/44 35/35/35 43/43/43
f 35/35/35 44/44/44 45/45/45
f 46/46/46 35/35/35 45/45/45
f 35/35/35 46/46/46 47/47/47
f 48/48/48 35/35/35 47/47/47
f 35/35/35 48/48/48 49/49/49
f 50/50/50 35/35/35 49/49/49
f 53/53/53 52/52/52 51/51/51
f 54/54/54 53/53/53 51/51/51
f 57/57/57 56/56/56 55/55/55
f 56/56/56 58/58/58 55/55/55
f 55/55/55 58/58/58 59/59/59
f 60/60/60 55/55/55 59/59/59
f 61/61/61 58/58/58 56/56/56
f 62/62/62 61/61/61 56/56/56
f 59/59/59 58/58/58 63/63/63
f 64/64/64 59/59/59 63/63/63
f 63/63/63 58/58/58 65/65/65
f 66/66/66 63/63/63 65/65/65
f 67/67/67 58/58/58 61/61/61
f 68/68/68 67/67/67 61/61/61
f 58/58/58 67/67/67 69/69/69
f 67/67/67 70/70/70 69/69/69
f 71/71/71 58/58/58 69/69/69
f 72/72/72 71/71/71 69/69/69
f 75/75/75 74/74/74 73/73/73
f 76/76/76 75/75/75 73/73/73
f 79/79/79 78/78/78 77/77/77
f 80/80/80 79/79/79 77/77/77
f 83/83/83 82/82/82 81/81/81
f 84/84/84 83/83/83 81/81/81
f 87/87/87 86/86/86 85/85/85
f 88/88/88 87/87/87 85/85/85
f 91/91/91 90/90/90 89/89/89
f 92/92/92 91/91/91 89/89/89
f 95/95/95 94/94/94 93/93/93
f 96/96/96 95/95/95 93/93/93
f 99/99/99 98/98/98 97/97/97
f 100/100/100 99/99/99 97/97/97
f 103/103/103 102/102/102 101/101/101
f 104/104/104 103/103/103 101/101/101
f 107/107/107 106/106/106 105/105/105
f 108/108/108 107/107/107 105/105/105
f 111/111/111 110/110/110 109/109/109
f 112/112/112 111/111/111 109/109/109
f 115/115/115 114/114/114 113/113/113
f 116/116/116 115/115/115 113/113/113
f 119/119/119 118/118/118 117/117/117
f 120/120/120 119/119/119 117/117/117
f 123/123/123 122/122/122 121/121/121
f 124/124/124 123/123/123 121/121/121
f 127/127/127 126/126/126 125/125/125
f 128/128/128 127/127/127 125/125/125
f 131/131/131 130/130/130 129/129/129
f 132/132/132 131/131/131 129/129/129
f 135/135/135 134/134/134 133/133/133
f 136/136/136 135/135/135 133/133/133
f 135/135/135 136/136/136 137/137/137
f 138/138/138 135/135/135 137/137/137
f 135/135/135 138/138/138 139/139/139
f 140/140/140 135/135/135 139/139/139
f 135/135/135 140/140/140 141/141/141
f 142/142/142 135/135/135 141/141/141
f 135/135/135 142/142/142 143/143/143
f 144/144/144 135/135/135 143/143/143
f 135/135/135 144/144/144 145/145/145
f 146/146/146 135/135/135 145/145/145
f 135/135/135 146/146/146 147/147/147
f 148/148/148 135/135/135 147/147/147
f 135/135/135 148/148/148 149/149/149
f 150/150/150 135/135/135 149/149/149
f 153/153/153 152/152/152 151/151/151
f 154/154/154 153/153/153 151/151/151
f 157/157/157 156/156/156 155/155/155
f 156/156/156 158/158/158 155/155/155
f 155/155/155 158/158/158 159/159/159
f 160/160/160 155/155/155 159/159/159
f 161/161/161 158/158/158 156/156/156
f 162/162/162 161/161/161 156/156/156
f 159/159/159 158/158/158 163/163/163
f 164/164/164 159/159/159 163/163/163
f 163/163/163 158/158/158 165/165/165
f 166/166/166 163/163/163 165/165/165
f 167/167/167 158/158/158 161/161/161
f 168/168/168 167/167/167 161/161/161
f 158/158/158 167/167/167 169/169/169
f 167/167/167 170/170/170 169/169/169
f 171/171/171 158/158/158 169/169/169
f 172/172/172 171/171/171 169/169/169
f 175/175/175 174/174/174 173/173/173
f 176/176/176 175/175/175 173/173/173
f 179/179/179 178/178/178 177/177/177
f 180/180/180 179/179/179 177/177/177
f 183/183/183 182/182/182 181/181/181
f 184/184/184 183/183/183 181/181/181
f 187/187/187 186/186/186 185/185/185
f 188/188/188 187/187/187 185/185/185
f 191/191/191 190/190/190 189/189/189
f 192/192/192 191/191/191 189/189/189
f 195/195/195 194/194/194 193/193/193
f 196/196/196 195/195/195 193/193/193
f 199/199/199 198/198/198 197/197/197
f 200/200/200 199/199/199 197/197/197
f 203/203/203 202/202/202 201/201/201
f 204/204/204 203/203/203 201/201/201
f 207/207/207 206/206/206 205/205/205
f 208/208/208 207/207/207 205/205/205
