g _Combined_Vis36_0
v -105.6015 8.596181 -102.6619
v -105.6015 8.596141 -103.6619
v -105.6015 -11.40384 -103.6619
v -105.6015 -11.40384 -102.6619
v -105.6015 8.596141 -103.6619
v -106.6015 8.596141 -103.6619
v -106.6015 -11.40384 -103.6619
v -105.6015 -11.40384 -103.6619
v -106.6015 8.59618 -102.6619
v -105.6015 8.596181 -102.6619
v -105.6015 -11.40384 -102.6619
v -106.6015 -11.40384 -102.6619
v -106.6015 8.596141 -103.6619
v -106.6015 8.59618 -102.6619
v -106.6015 -11.40384 -102.6619
v -106.6015 -11.40384 -103.6619
vt 0.75 0.15625
vt 0.75 0.03125
vt 0.625 0.03125
vt 0.625 0.15625
vt 0.75 0.15625
vt 0.75 0.03125
vt 0.625 0.03125
vt 0.625 0.15625
vt 0.75 0.15625
vt 0.75 0.03125
vt 0.625 0.03125
vt 0.625 0.15625
vt 0.75 0.15625
vt 0.75 0.03125
vt 0.625 0.03125
vt 0.625 0.15625
vn 1 0 0
vn 1 0 0
vn 1 0 0
vn 1 0 0
vn 9.249479E-08 1.603863E-07 -1
vn 9.249479E-08 1.603863E-07 -1
vn 9.249479E-08 1.603863E-07 -1
vn 9.249479E-08 1.603863E-07 -1
vn -3.156848E-07 2.162714E-08 1
vn -3.156848E-07 2.162714E-08 1
vn -3.156848E-07 2.162714E-08 1
vn -3.156848E-07 2.162714E-08 1
vn -1 3.874302E-07 -1.192093E-07
vn -1 3.874302E-07 -1.192093E-07
vn -1 3.874302E-07 -1.192093E-07
vn -1 3.874302E-07 -1.192093E-07
g _Combined_Vis36_0_0
f 3/3/3 2/2/2 1/1/1
f 4/4/4 3/3/3 1/1/1
f 7/7/7 6/6/6 5/5/5
f 8/8/8 7/7/7 5/5/5
f 11/11/11 10/10/10 9/9/9
f 12/12/12 11/11/11 9/9/9
f 15/15/15 14/14/14 13/13/13
f 16/16/16 15/15/15 13/13/13
