g _Combined_Vis35_1
v -0.6300002 -3.411 -0.2799986
v -0.8300002 -3.161 -0.2799987
v -0.8300003 -3.411 -0.2178075
v 1.17 -2.911 0.3779489
v 1.17 -2.980273 0.720001
v 0.8843284 -2.911 0.720001
v -0.8300001 -3.411 0.7200016
v 1.17 -2.980273 0.720001
v 1.17 -3.411 0.7200012
v -0.83 -2.911 0.7200013
v 0.8843284 -2.911 0.720001
v -0.8300002 -2.911 -0.2799988
v 1.17 -3.411 -0.2799989
v 1.17 -2.911 -0.2799991
v -0.8300002 -3.161 -0.2799987
v -0.6300002 -3.411 -0.2799986
v -0.83 -2.911 0.7200013
v -0.8300001 -3.411 0.7200016
v -0.8300002 -2.911 -0.2799988
v -0.8300003 -3.411 -0.2178075
v -0.8300002 -3.161 -0.2799987
v 1.17 -3.411 0.7200012
v -0.8300003 -3.411 -0.2178075
v -0.8300001 -3.411 0.7200016
v 1.17 -3.411 -0.2799989
v -0.6300002 -3.411 -0.2799986
v 1.17 -2.980273 0.720001
v 1.17 -3.411 -0.2799989
v 1.17 -3.411 0.7200012
v 1.17 -2.911 0.3779489
v 1.17 -2.911 -0.2799991
v -0.83 -2.911 0.7200013
v 1.17 -2.911 0.3779489
v 0.8843284 -2.911 0.720001
v -0.8300002 -2.911 -0.2799988
v 1.17 -2.911 -0.2799991
vt 0.6999661 0.6775543
vt 0.6741586 0.6787549
vt 0.6990944 0.6836491
vt 0.6978073 0.6978376
vt 0.6776082 0.6890067
vt 0.675975 0.7008724
vt 0.734375 0.640625
vt 0.703125 0.6675455
vt 0.703125 0.640625
vt 0.734375 0.671875
vt 0.7075886 0.671875
vt 0.734375 0.671875
vt 0.703125 0.640625
vt 0.703125 0.671875
vt 0.734375 0.65625
vt 0.73125 0.640625
vt 0.703125 0.671875
vt 0.703125 0.640625
vt 0.671875 0.671875
vt 0.6738184 0.640625
vt 0.671875 0.65625
vt 0.734375 0.671875
vt 0.703125 0.7011815
vt 0.703125 0.671875
vt 0.734375 0.703125
vt 0.70625 0.703125
vt 0.703125 0.6675455
vt 0.671875 0.640625
vt 0.703125 0.640625
vt 0.6924359 0.671875
vt 0.671875 0.671875
vt 0.734375 0.703125
vt 0.703125 0.6924359
vt 0.7075886 0.703125
vt 0.734375 0.671875
vt 0.703125 0.671875
vn -0.288882 -0.2310653 -0.9290619
vn -0.288882 -0.2310653 -0.9290619
vn -0.288882 -0.2310653 -0.9290619
vn 0.23122 0.953547 0.1930944
vn 0.23122 0.953547 0.1930944
vn 0.23122 0.953547 0.1930944
vn 1.685874E-07 1.788139E-07 1
vn 1.685874E-07 1.788139E-07 1
vn 1.685874E-07 1.788139E-07 1
vn 1.685874E-07 1.788139E-07 1
vn 1.685874E-07 1.788139E-07 1
vn -1.685874E-07 -1.788139E-07 -1
vn -1.685874E-07 -1.788139E-07 -1
vn -1.685874E-07 -1.788139E-07 -1
vn -1.685874E-07 -1.788139E-07 -1
vn -1.685874E-07 -1.788139E-07 -1
vn -1 1.192093E-07 1.685873E-07
vn -1 1.192093E-07 1.685873E-07
vn -1 1.192093E-07 1.685873E-07
vn -1 1.192093E-07 1.685873E-07
vn -1 1.192093E-07 1.685873E-07
vn -1.192093E-07 -1 4.768371E-07
vn -1.192093E-07 -1 4.768371E-07
vn -1.192093E-07 -1 4.768371E-07
vn -1.192093E-07 -1 4.768371E-07
vn -1.192093E-07 -1 4.768371E-07
vn 1 -1.192093E-07 -1.685873E-07
vn 1 -1.192093E-07 -1.685873E-07
vn 1 -1.192093E-07 -1.685873E-07
vn 1 -1.192093E-07 -1.685873E-07
vn 1 -1.192093E-07 -1.685873E-07
vn 1.192093E-07 1 -4.768371E-07
vn 1.192093E-07 1 -4.768371E-07
vn 1.192093E-07 1 -4.768371E-07
vn 1.192093E-07 1 -4.768371E-07
vn 1.192093E-07 1 -4.768371E-07
g _Combined_Vis35_1_0
f 3/3/3 2/2/2 1/1/1
f 6/6/6 5/5/5 4/4/4
f 9/9/9 8/8/8 7/7/7
f 7/7/7 8/8/8 10/10/10
f 10/10/10 8/8/8 11/11/11
f 14/14/14 13/13/13 12/12/12
f 13/13/13 15/15/15 12/12/12
f 16/16/16 15/15/15 13/13/13
f 19/19/19 18/18/18 17/17/17
f 20/20/20 18/18/18 19/19/19
f 21/21/21 20/20/20 19/19/19
f 24/24/24 23/23/23 22/22/22
f 22/22/22 23/23/23 25/25/25
f 23/23/23 26/26/26 25/25/25
f 29/29/29 28/28/28 27/27/27
f 27/27/27 28/28/28 30/30/30
f 30/30/30 28/28/28 31/31/31
f 34/34/34 33/33/33 32/32/32
f 32/32/32 33/33/33 35/35/35
f 33/33/33 36/36/36 35/35/35
