g _Combined_Vis4_0
v -32.50006 5.877018E-05 27.60006
v -32.50006 -0.4999414 27.50006
v -32.43787 5.894899E-05 27.50006
v -31.84212 -0.9999436 28.50006
v -31.50006 -0.8613985 28.50006
v -31.50006 -0.9999433 28.35722
v -31.50006 5.894899E-05 27.50006
v -31.50006 -0.8613985 28.50006
v -31.50006 5.716085E-05 28.50006
v -31.50006 -0.9999418 27.50005
v -31.50006 -0.9999433 28.35722
v -32.50006 -0.9999418 27.50006
v -32.50006 5.716085E-05 28.50006
v -32.50006 -0.9999436 28.50006
v -32.50006 -0.4999414 27.50006
v -32.50006 5.877018E-05 27.60006
v -31.50006 -0.9999418 27.50005
v -31.50006 5.894899E-05 27.50006
v -32.50006 -0.9999418 27.50006
v -32.43787 5.894899E-05 27.50006
v -32.50006 -0.4999414 27.50006
v -31.50006 5.716085E-05 28.50006
v -32.43787 5.894899E-05 27.50006
v -31.50006 5.894899E-05 27.50006
v -32.50006 5.716085E-05 28.50006
v -32.50006 5.877018E-05 27.60006
v -31.50006 -0.8613985 28.50006
v -32.50006 5.716085E-05 28.50006
v -31.50006 5.716085E-05 28.50006
v -31.84212 -0.9999436 28.50006
v -32.50006 -0.9999436 28.50006
v -31.50006 -0.9999418 27.50005
v -31.84212 -0.9999436 28.50006
v -31.50006 -0.9999433 28.35722
v -32.50006 -0.9999418 27.50006
v -32.50006 -0.9999436 28.50006
v -36.50018 -6.359816E-05 27.50035
v -37.50018 -6.359816E-05 27.50035
v -37.50018 -1.000065 27.50035
v -36.50018 -1.000065 27.50035
v -35.50018 -6.359816E-05 27.50035
v -35.50018 -1.000065 27.50035
v -34.50018 -6.359816E-05 27.50036
v -34.50018 -1.000063 27.50036
v -33.50018 -6.359816E-05 27.50035
v -33.50018 -1.000063 27.50035
v -32.50001 -1.91927E-05 27.50001
v -33.50018 -6.359816E-05 27.50035
v -33.50018 -1.000063 27.50035
v -32.50006 -0.9999418 27.50006
v -32.50006 5.716085E-05 28.50006
v -32.50001 -1.91927E-05 27.50001
v -32.50006 -0.9999418 27.50006
v -32.50006 -0.9999436 28.50006
v -37.50018 -6.359816E-05 27.50035
v -42.50017 -4.023314E-05 27.50032
v -42.50017 -1.00004 27.50032
v -37.50018 -1.000065 27.50035
vt 0.6999661 0.6775543
vt 0.6741586 0.6787549
vt 0.6990944 0.6836491
vt 0.6978073 0.6978376
vt 0.6776082 0.6890067
vt 0.675975 0.7008724
vt 0.734375 0.640625
vt 0.703125 0.6675455
vt 0.703125 0.640625
vt 0.734375 0.671875
vt 0.7075886 0.671875
vt 0.734375 0.671875
vt 0.703125 0.640625
vt 0.703125 0.671875
vt 0.734375 0.65625
vt 0.73125 0.640625
vt 0.703125 0.671875
vt 0.703125 0.640625
vt 0.671875 0.671875
vt 0.6738184 0.640625
vt 0.671875 0.65625
vt 0.734375 0.671875
vt 0.703125 0.7011815
vt 0.703125 0.671875
vt 0.734375 0.703125
vt 0.70625 0.703125
vt 0.703125 0.6675455
vt 0.671875 0.640625
vt 0.703125 0.640625
vt 0.6924359 0.671875
vt 0.671875 0.671875
vt 0.734375 0.703125
vt 0.703125 0.6924359
vt 0.7075886 0.703125
vt 0.734375 0.671875
vt 0.703125 0.671875
vt 0.015625 0.609375
vt 0.015625 0.484375
vt 0.140625 0.484375
vt 0.140625 0.609375
vt 0.015625 0.734375
vt 0.140625 0.734375
vt 0.015625 0.859375
vt 0.1406249 0.859375
vt 0.015625 0.984375
vt 0.1406249 0.984375
vt 0.734375 0.703125
vt 0.734375 0.640625
vt 0.671875 0.640625
vt 0.671875 0.703125
vt 0.734375 0.703125
vt 0.734375 0.640625
vt 0.671875 0.640625
vt 0.671875 0.703125
vt 0.734375 0.703125
vt 0.734375 0.640625
vt 0.671875 0.640625
vt 0.671875 0.703125
vn -0.8444923 0.1050169 -0.5251707
vn -0.8444923 0.1050169 -0.5251707
vn -0.8444923 0.1050169 -0.5251707
vn 0.2791602 -0.689279 0.6685538
vn 0.2791602 -0.689279 0.6685538
vn 0.2791602 -0.689279 0.6685538
vn 1 8.526512E-14 -5.960466E-07
vn 1 8.526512E-14 -5.960466E-07
vn 1 8.526512E-14 -5.960466E-07
vn 1 8.526512E-14 -5.960466E-07
vn 1 8.526512E-14 -5.960466E-07
vn -1 -8.526512E-14 5.960466E-07
vn -1 -8.526512E-14 5.960466E-07
vn -1 -8.526512E-14 5.960466E-07
vn -1 -8.526512E-14 5.960466E-07
vn -1 -8.526512E-14 5.960466E-07
vn -5.960463E-07 1.78814E-06 -1
vn -5.960463E-07 1.78814E-06 -1
vn -5.960463E-07 1.78814E-06 -1
vn -5.960463E-07 1.78814E-06 -1
vn -5.960463E-07 1.78814E-06 -1
vn 9.947587E-14 1 1.788139E-06
vn 9.947587E-14 1 1.788139E-06
vn 9.947587E-14 1 1.788139E-06
vn 9.947587E-14 1 1.788139E-06
vn 9.947587E-14 1 1.788139E-06
vn 5.960463E-07 -1.78814E-06 1
vn 5.960463E-07 -1.78814E-06 1
vn 5.960463E-07 -1.78814E-06 1
vn 5.960463E-07 -1.78814E-06 1
vn 5.960463E-07 -1.78814E-06 1
vn -9.947587E-14 -1 -1.788139E-06
vn -9.947587E-14 -1 -1.788139E-06
vn -9.947587E-14 -1 -1.788139E-06
vn -9.947587E-14 -1 -1.788139E-06
vn -9.947587E-14 -1 -1.788139E-06
vn -1.66893E-06 -9.147952E-20 -1
vn -1.66893E-06 -9.147952E-20 -1
vn -1.66893E-06 -9.147952E-20 -1
vn -1.66893E-06 -9.147952E-20 -1
vn -1.66893E-06 -9.147952E-20 -1
vn -1.66893E-06 -9.147952E-20 -1
vn -1.66893E-06 -9.147952E-20 -1
vn -1.66893E-06 -9.147952E-20 -1
vn -1.66893E-06 -9.147952E-20 -1
vn -1.66893E-06 -9.147952E-20 -1
vn -8.429364E-08 -8.429365E-08 -1
vn -8.429364E-08 -8.429365E-08 -1
vn -8.429364E-08 -8.429365E-08 -1
vn -8.429364E-08 -8.429365E-08 -1
vn 1 -1.788139E-07 -2.384187E-07
vn 1 -1.788139E-07 -2.384187E-07
vn 1 -1.788139E-07 -2.384187E-07
vn 1 -1.788139E-07 -2.384187E-07
vn 3.517007E-14 0 -1
vn 3.517007E-14 0 -1
vn 3.517007E-14 0 -1
vn 3.517007E-14 0 -1
g _Combined_Vis4_0_0
f 3/3/3 2/2/2 1/1/1
f 6/6/6 5/5/5 4/4/4
f 9/9/9 8/8/8 7/7/7
f 7/7/7 8/8/8 10/10/10
f 10/10/10 8/8/8 11/11/11
f 14/14/14 13/13/13 12/12/12
f 13/13/13 15/15/15 12/12/12
f 16/16/16 15/15/15 13/13/13
f 19/19/19 18/18/18 17/17/17
f 20/20/20 18/18/18 19/19/19
f 21/21/21 20/20/20 19/19/19
f 24/24/24 23/23/23 22/22/22
f 22/22/22 23/23/23 25/25/25
f 23/23/23 26/26/26 25/25/25
f 29/29/29 28/28/28 27/27/27
f 27/27/27 28/28/28 30/30/30
f 30/30/30 28/28/28 31/31/31
f 34/34/34 33/33/33 32/32/32
f 32/32/32 33/33/33 35/35/35
f 33/33/33 36/36/36 35/35/35
f 39/39/39 38/38/38 37/37/37
f 40/40/40 39/39/39 37/37/37
f 40/40/40 37/37/37 41/41/41
f 42/42/42 40/40/40 41/41/41
f 42/42/42 41/41/41 43/43/43
f 44/44/44 42/42/42 43/43/43
f 43/43/43 45/45/45 44/44/44
f 45/45/45 46/46/46 44/44/44
f 49/49/49 48/48/48 47/47/47
f 50/50/50 49/49/49 47/47/47
f 53/53/53 52/52/52 51/51/51
f 54/54/54 53/53/53 51/51/51
f 57/57/57 56/56/56 55/55/55
f 58/58/58 57/57/57 55/55/55
