g _Combined_Vis12_0
v 0.2484221 -5.134088 2.384186E-07
v 0.1913319 -5.027926 0.5000002
v 0.2484221 -6.749999 0.5000002
v 0.2484221 -6.666699 0.2500002
v 0.02875251 -2.322233 -0.4999999
v 0.1913319 -5.027926 -0.06396845
v 0.1913319 -2.799993 -0.4999999
v 0.02875251 -3.568021 -0.3806903
v 0.1913319 -5.027926 -0.06396845
v 0.02875251 -2.322233 -0.4999999
v -0.2145651 -2.592543 -0.5
v 0.02875251 -3.568021 -0.3806903
v 0.02875251 -2.322233 -0.4999999
v -0.5 -2.251884 0.4999999
v -0.5 -2.251883 -0.5000001
v -0.5 -0.7500011 -0.5000001
v -0.5 -0.7499993 0.4999999
v 0.5 -6.666699 0.2500003
v 0.2484221 -6.666699 0.2500002
v 0.2484221 -6.749999 0.5000002
v 0.5 -6.749998 0.5000004
v -0.5 -2.251884 0.4999999
v -0.5 -0.7499993 0.4999999
v 0.5 -0.7499986 0.4999999
v -0.2145652 -2.592543 0.4999999
v 0.02875245 -3.568021 0.5
v 0.1913319 -5.027926 0.5000002
v 0.2484221 -6.749999 0.5000002
v 0.5 -6.749998 0.5000004
v -0.5 -2.251883 -0.5000001
v 0.5 -0.7500002 -0.5
v -0.5 -0.7500011 -0.5000001
v -0.2145651 -2.592543 -0.5
v 0.02875251 -2.322233 -0.4999999
v 0.1913319 -2.799993 -0.4999999
v 0.4146031 -4.461285 -0.4999998
v 0.5 -4.619432 -0.4999998
v 0.02875245 -3.568021 0.5
v 0.1913319 -5.027926 0.5000002
v 0.1913319 -5.027926 -0.06396845
v 0.02875251 -3.568021 -0.3806903
v -0.2145652 -2.592543 0.4999999
v -0.2145651 -2.592543 -0.5
v -0.5 -2.251884 0.4999999
v -0.5 -2.251883 -0.5000001
v 0.5 -4.619432 -0.4999998
v 0.5 -5.104059 -0.2499997
v 0.5 -5.009945 2.980232E-07
v 0.5 -0.7499986 0.4999999
v 0.5 -0.7500002 -0.5
v 0.5 -6.666699 0.2500003
v 0.5 -6.749998 0.5000004
v 0.5 -5.104059 -0.2499997
v 0.2484221 -5.134088 2.384186E-07
v 0.5 -5.009945 2.980232E-07
v 0.3295342 -5.104059 -0.2499998
v 0.5 -4.619432 -0.4999998
v 0.3295342 -5.104059 -0.2499998
v 0.5 -5.104059 -0.2499997
v 0.4146031 -4.461285 -0.4999998
v 0.5 -5.009945 2.980232E-07
v 0.2484221 -5.134088 2.384186E-07
v 0.2484221 -6.666699 0.2500002
v 0.5 -6.666699 0.2500003
v 0.4146031 -4.461285 -0.4999998
v 0.1913319 -2.799993 -0.4999999
v 0.1913319 -5.027926 -0.06396845
v 0.3295342 -5.104059 -0.2499998
v 0.3295342 -5.104059 -0.2499998
v 0.1913319 -5.027926 -0.06396845
v 0.2484221 -5.134088 2.384186E-07
v 0.1913319 -5.027926 0.5000002
v -0.5 1.25 -0.500001
v 0.5 1.25 -0.499999
v 0.5 1.25 0.5
v -0.5 1.25 0.5
v -0.5 1.25 -0.500001
v -0.499999 0.25 -0.5000001
v 0.5 0.25 -0.5
v 0.5 1.25 -0.499999
v 0.5 1.25 0.5
v 0.499999 0.25 0.5
v -0.5 0.25 0.5
v 0.5 1.25 0.5
v -0.5 0.25 0.5
v -0.5 1.25 0.5
v -0.499999 0.25 -0.5000001
v -0.5 -0.7500011 -0.5000001
v 0.5 -0.7500002 -0.5
v 0.5 0.25 -0.5
v 0.5 0.25 -0.5
v 0.5 -0.7500002 -0.5
v 0.5 -0.7499986 0.4999999
v 0.499999 0.25 0.5
v 0.5 1.25 -0.499999
v 0.5 0.25 -0.5
v 0.499999 0.25 0.5
v 0.5 1.25 0.5
v 0.5 1.25 0.5
v 0.499999 0.25 0.5
v -0.5 0.25 0.5
v 0.5 1.25 0.5
v -0.5 0.25 0.5
v -0.5 1.25 0.5
v 0.499999 0.25 0.5
v 0.5 -0.7499986 0.4999999
v -0.5 -0.7499993 0.4999999
v -0.5 0.25 0.5
v -0.5 0.25 0.5
v -0.5 -0.7499993 0.4999999
v -0.5 -0.7500011 -0.5000001
v -0.499999 0.25 -0.5000001
v -0.5 1.25 0.5
v -0.5 0.25 0.5
v -0.499999 0.25 -0.5000001
v -0.5 1.25 -0.500001
vt 0.890625 0.15625
vt 0.8754883 0.140625
vt 0.8754883 0.15625
vt 0.8828125 0.15625
vt 0.90625 0.125
vt 0.9003906 0.140625
vt 0.90625 0.140625
vt 0.9023438 0.125
vt 0.9003906 0.140625
vt 0.90625 0.125
vt 0.90625 0.109375
vt 0.9023438 0.125
vt 0.90625 0.125
vt 0.859375 0.09375
vt 0.859375 0.1557617
vt 0.84375 0.1557617
vt 0.84375 0.09375
vt 0.859375 0.1401367
vt 0.84375 0.1401367
vt 0.84375 0.1557617
vt 0.859375 0.1557617
vt 0.8595247 0.1564178
vt 0.8440105 0.1564178
vt 0.8440105 0.2183967
vt 0.8630437 0.1741087
vt 0.8731202 0.1891893
vt 0.8882008 0.1992658
vt 0.9059895 0.2028042
vt 0.9059895 0.2183967
vt 0.8595247 0.1564178
vt 0.8440105 0.2183967
vt 0.8440105 0.1564178
vt 0.8630437 0.1741087
vt 0.8731202 0.1891893
vt 0.8882008 0.1992658
vt 0.9059895 0.2028042
vt 0.9059895 0.2183967
vt 0.8754883 0.125
vt 0.8754883 0.140625
vt 0.9003906 0.140625
vt 0.9023438 0.125
vt 0.8754883 0.109375
vt 0.90625 0.109375
vt 0.8754883 0.09375
vt 0.90625 0.09375
vt 0.9467773 0.15625
vt 0.9516602 0.140625
vt 0.9506836 0.125
vt 0.90625 0.09375
vt 0.90625 0.15625
vt 0.9677734 0.109375
vt 0.96875 0.09375
vt 0.859375 0.109375
vt 0.84375 0.1245117
vt 0.859375 0.1245117
vt 0.84375 0.109375
vt 0.859375 0.09375
vt 0.84375 0.109375
vt 0.859375 0.109375
vt 0.84375 0.09375
vt 0.859375 0.1245117
vt 0.84375 0.1245117
vt 0.84375 0.1401367
vt 0.859375 0.1401367
vt 0.90625 0.15625
vt 0.90625 0.140625
vt 0.9003906 0.140625
vt 0.8984375 0.15625
vt 0.8984375 0.15625
vt 0.9003906 0.140625
vt 0.890625 0.15625
vt 0.8754883 0.140625
vt 0.71875 0.78125
vt 0.71875 0.65625
vt 0.59375 0.65625
vt 0.59375 0.78125
vt 0.96875 0.96875
vt 0.96875 0.84375
vt 0.84375 0.84375
vt 0.84375 0.96875
vt 0.96875 0.21875
vt 0.96875 0.09375
vt 0.84375 0.09375
vt 0.96875 0.21875
vt 0.84375 0.09375
vt 0.84375 0.21875
vt 0.96875 0.21875
vt 0.96875 0.09375
vt 0.84375 0.09375
vt 0.84375 0.21875
vt 0.96875 0.21875
vt 0.96875 0.09375
vt 0.84375 0.09375
vt 0.84375 0.21875
vt 0.96875 0.21875
vt 0.96875 0.09375
vt 0.84375 0.09375
vt 0.84375 0.21875
vt 0.96875 0.21875
vt 0.96875 0.09375
vt 0.84375 0.09375
vt 0.96875 0.21875
vt 0.84375 0.09375
vt 0.84375 0.21875
vt 0.96875 0.21875
vt 0.96875 0.09375
vt 0.84375 0.09375
vt 0.84375 0.21875
vt 0.96875 0.21875
vt 0.96875 0.09375
vt 0.84375 0.09375
vt 0.84375 0.21875
vt 0.96875 0.21875
vt 0.96875 0.09375
vt 0.84375 0.09375
vt 0.84375 0.21875
vn -0.996899 -0.02326094 -0.07517518
vn -0.996899 -0.02326094 -0.07517518
vn -0.996899 -0.02326094 -0.07517518
vn -0.996899 -0.02326094 -0.07517518
vn -0.4915264 -0.1672643 -0.8546488
vn -0.7676669 -0.1231402 -0.6289071
vn -0.6369658 -0.14809 -0.7565342
vn 0.7347509 -0.06466883 -0.6752473
vn 0.7347509 -0.06466883 -0.6752473
vn 0.7347509 -0.06466883 -0.6752473
vn 0.1053214 -0.094804 -0.9899089
vn 0.1053214 -0.094804 -0.9899089
vn 0.1053214 -0.094804 -0.9899089
vn -1 0 0
vn -1 0 0
vn -1 0 0
vn -1 0 0
vn 0 -0.9487224 -0.3161104
vn 0 -0.9487224 -0.3161104
vn 0 -0.9487224 -0.3161104
vn 0 -0.9487224 -0.3161104
vn 0 0 1
vn 0 0 1
vn 0 0 1
vn 0 0 1
vn 0 0 1
vn 0 0 1
vn 0 0 1
vn 0 0 1
vn 0 0 -1
vn 0 0 -1
vn 0 0 -1
vn 0 0 -1
vn 0 0 -1
vn 0 0 -1
vn 0 0 -1
vn 0 0 -1
vn -0.9863939 -0.1643989 0
vn -0.9938562 -0.1106789 0
vn -0.9938562 -0.1106789 0
vn -0.9807128 -0.1954544 0
vn -0.927717 -0.3732843 0
vn -0.9164975 -0.4000404 0
vn -0.766501 -0.6422431 0
vn -0.766501 -0.6422431 0
vn 1 0 0
vn 1 0 0
vn 1 0 0
vn 1 0 0
vn 1 0 0
vn 1 0 0
vn 1 0 0
vn -0.09970648 -0.6880735 -0.7187583
vn -0.7436488 -0.6668202 -0.04834466
vn 0.2782575 -0.9459853 0.1663868
vn -0.1353119 -0.783953 -0.6058947
vn -0.2344312 -0.3792818 -0.8950907
vn -0.1353119 -0.783953 -0.6058947
vn -0.09970648 -0.6880735 -0.7187583
vn -0.2344312 -0.3792818 -0.8950907
vn 0.03818559 -0.1547663 -0.9872128
vn 0.03818559 -0.1547663 -0.9872128
vn 0.03818559 -0.1547663 -0.9872128
vn 0.03818559 -0.1547663 -0.9872128
vn -0.8192711 -0.1101985 -0.5627176
vn -0.6369658 -0.14809 -0.7565342
vn -0.7676669 -0.1231402 -0.6289071
vn -0.8192711 -0.1101985 -0.5627176
vn -0.1353119 -0.783953 -0.6058947
vn -0.803404 -0.557714 -0.2085593
vn -0.7436488 -0.6668202 -0.04834466
vn -0.8807265 -0.4736251 0
vn 0 1 0
vn 0 1 0
vn 0 1 0
vn 0 1 0
vn 8.742278E-08 0 -1
vn 8.742278E-08 0 -1
vn 8.742278E-08 0 -1
vn 8.742278E-08 0 -1
vn 0 0 1
vn 0 0 1
vn 0 0 1
vn 0 0 1
vn 0 0 1
vn 0 0 1
vn 8.742278E-08 0 -1
vn 8.742278E-08 0 -1
vn 8.742278E-08 0 -1
vn 8.742278E-08 0 -1
vn 1 0 -1.192093E-07
vn 1 0 -1.192093E-07
vn 1 0 -1.192093E-07
vn 1 0 -1.192093E-07
vn 1 0 -1.192093E-07
vn 1 0 -1.192093E-07
vn 1 0 -1.192093E-07
vn 1 0 -1.192093E-07
vn 0 0 1
vn 0 0 1
vn 0 0 1
vn 0 0 1
vn 0 0 1
vn 0 0 1
vn 0 0 1
vn 0 0 1
vn 0 0 1
vn 0 0 1
vn -1 0 -1.192093E-07
vn -1 0 -1.192093E-07
vn -1 0 -1.192093E-07
vn -1 0 -1.192093E-07
vn -1 0 -1.192093E-07
vn -1 0 -1.192093E-07
vn -1 0 -1.192093E-07
vn -1 0 -1.192093E-07
g _Combined_Vis12_0_0
f 3/3/3 2/2/2 1/1/1
f 4/4/4 3/3/3 1/1/1
f 7/7/7 6/6/6 5/5/5
f 10/10/10 9/9/9 8/8/8
f 13/13/13 12/12/12 11/11/11
f 16/16/16 15/15/15 14/14/14
f 17/17/17 16/16/16 14/14/14
f 20/20/20 19/19/19 18/18/18
f 21/21/21 20/20/20 18/18/18
f 24/24/24 23/23/23 22/22/22
f 25/25/25 24/24/24 22/22/22
f 25/25/25 26/26/26 24/24/24
f 27/27/27 24/24/24 26/26/26
f 24/24/24 27/27/27 28/28/28
f 29/29/29 24/24/24 28/28/28
f 32/32/32 31/31/31 30/30/30
f 31/31/31 33/33/33 30/30/30
f 33/33/33 31/31/31 34/34/34
f 35/35/35 34/34/34 31/31/31
f 36/36/36 35/35/35 31/31/31
f 37/37/37 36/36/36 31/31/31
f 40/40/40 39/39/39 38/38/38
f 41/41/41 40/40/40 38/38/38
f 41/41/41 38/38/38 42/42/42
f 43/43/43 41/41/41 42/42/42
f 43/43/43 42/42/42 44/44/44
f 45/45/45 43/43/43 44/44/44
f 48/48/48 47/47/47 46/46/46
f 48/48/48 46/46/46 49/49/49
f 46/46/46 50/50/50 49/49/49
f 51/51/51 48/48/48 49/49/49
f 49/49/49 52/52/52 51/51/51
f 55/55/55 54/54/54 53/53/53
f 54/54/54 56/56/56 53/53/53
f 59/59/59 58/58/58 57/57/57
f 58/58/58 60/60/60 57/57/57
f 63/63/63 62/62/62 61/61/61
f 64/64/64 63/63/63 61/61/61
f 67/67/67 66/66/66 65/65/65
f 68/68/68 67/67/67 65/65/65
f 71/71/71 70/70/70 69/69/69
f 71/71/71 72/72/72 70/70/70
f 75/75/75 74/74/74 73/73/73
f 76/76/76 75/75/75 73/73/73
f 79/79/79 78/78/78 77/77/77
f 80/80/80 79/79/79 77/77/77
f 83/83/83 82/82/82 81/81/81
f 86/86/86 85/85/85 84/84/84
f 89/89/89 88/88/88 87/87/87
f 90/90/90 89/89/89 87/87/87
f 93/93/93 92/92/92 91/91/91
f 94/94/94 93/93/93 91/91/91
f 97/97/97 96/96/96 95/95/95
f 98/98/98 97/97/97 95/95/95
f 101/101/101 100/100/100 99/99/99
f 104/104/104 103/103/103 102/102/102
f 107/107/107 106/106/106 105/105/105
f 108/108/108 107/107/107 105/105/105
f 111/111/111 110/110/110 109/109/109
f 112/112/112 111/111/111 109/109/109
f 115/115/115 114/114/114 113/113/113
f 116/116/116 115/115/115 113/113/113
