g _Combined_WaterVis35_0
v -0.7500014 -2.000001 0.3750001
v -0.7500014 -4.000001 0.3750001
v -0.7500015 -4.000001 -0.375
v -0.7500015 -2.000001 -0.375
v -0.7500014 -1.000001 0.3750001
v -0.7500015 -1.000001 -0.375
v -0.7187514 -0.500001 0.3750001
v -0.7187515 -0.500001 -0.375
v -0.6250014 -0.125001 0.3750001
v -0.6250015 -0.125001 -0.375
v -0.5000014 -9.536743E-07 0.3750001
v -0.5000015 -9.536743E-07 -0.3750001
v -0.8000125 -1.611309 0.07288004
v -0.8000125 -2.388693 3.57641E-08
v -0.8000125 -1.611309 -0.07287997
v -0.749999 -6 0.3750001
v -0.749999 -7 0.3750001
v -0.7499991 -7 -0.375
v -0.7499991 -6 -0.375
v -0.8000101 -6.402827 0.07288004
v -0.8000101 -6.597173 3.57641E-08
v -0.8000101 -6.402827 -0.07287997
v 0.5000001 0 0.375
v -0.5000014 -9.536743E-07 0.3750001
v -0.5000015 -9.536743E-07 -0.3750001
v 0.5 0 -0.3750001
v 0.09717302 0.050011 0.07288
v -0.09717301 0.050011 1.158392E-08
v 0.097173 0.050011 -0.07288002
vt 0.875 0.499942
vt 0.875 0
vt 0.125 0
vt 0.125 0.499942
vt 0.875 0.749928
vt 0.125 0.749928
vt 0.875 0.8286
vt 0.125 0.8286
vt 0.875 0.9135
vt 0.125 0.9135
vt 0.875 0.999885
vt 0.125 0.999885
vt 0 0
vt 0 0
vt 0 0
vt 0.875 0.999885
vt 0.875 0
vt 0.125 0
vt 0.125 0.999885
vt 0 0
vt 0 0
vt 0 0
vt 0.875 0.999885
vt 0.875 0
vt 0.125 0
vt 0.125 0.999885
vt 0 0
vt 0 0
vt 0 0
vn -1 0 1.192093E-07
vn -1 0 1.192093E-07
vn -1 0 1.192093E-07
vn -1 0 1.192093E-07
vn -0.9995267 0.03076176 1.191529E-07
vn -0.9995267 0.03076176 1.191529E-07
vn -0.9901302 0.1401506 1.180327E-07
vn -0.9901302 0.1401506 1.180327E-07
vn -0.9147925 0.4039243 1.090517E-07
vn -0.9147925 0.4039243 1.090517E-07
vn -0.7071057 0.7071079 8.429355E-08
vn -0.7071057 0.7071079 8.429355E-08
vn -1 0 1.192093E-07
vn -1 0 1.192093E-07
vn -1 0 1.192093E-07
vn -1 0 1.192093E-07
vn -1 0 1.192093E-07
vn -1 0 1.192093E-07
vn -1 0 1.192093E-07
vn -1 0 1.192093E-07
vn -1 0 1.192093E-07
vn -1 0 1.192093E-07
vn 0 1 0
vn 0 1 0
vn 0 1 0
vn 0 1 0
vn 0 1 0
vn 0 1 0
vn 0 1 0
g _Combined_WaterVis35_0_0
f 3/3/3 2/2/2 1/1/1
f 4/4/4 3/3/3 1/1/1
f 4/4/4 1/1/1 5/5/5
f 6/6/6 4/4/4 5/5/5
f 6/6/6 5/5/5 7/7/7
f 8/8/8 6/6/6 7/7/7
f 8/8/8 7/7/7 9/9/9
f 10/10/10 8/8/8 9/9/9
f 10/10/10 9/9/9 11/11/11
f 12/12/12 10/10/10 11/11/11
f 15/15/15 14/14/14 13/13/13
f 18/18/18 17/17/17 16/16/16
f 19/19/19 18/18/18 16/16/16
f 22/22/22 21/21/21 20/20/20
f 25/25/25 24/24/24 23/23/23
f 26/26/26 25/25/25 23/23/23
f 29/29/29 28/28/28 27/27/27
