g _Combined_Vis8_0
v -105.2939 -16.02749 -100.9082
v -104.9809 -15.98145 -100.9615
v -104.9988 -15.7471 -101.0769
v -105.1758 -15.74429 -100.9615
v -104.9451 -15.91722 -100.9081
v -104.9988 -15.7471 -101.0769
v -104.9809 -15.98145 -100.9615
v -104.9809 -15.98145 -100.9615
v -105.0052 -16.07346 -100.9817
v -104.9353 -15.94806 -100.8775
v -104.8416 -15.77988 -100.7379
v -104.9988 -15.7471 -101.0769
v -104.9114 -15.55916 -100.9569
v -105.209 -15.87516 -100.7817
v -105.2939 -16.02749 -100.9082
v -105.1758 -15.74429 -100.9615
v -105.215 -15.54622 -100.7687
v -105.215 -15.65494 -100.6378
v -105.3046 -15.82376 -100.7794
v -105.3188 -15.74383 -100.8661
v -105.1758 -15.74429 -100.9615
v -104.9988 -15.7471 -101.0769
v -104.9114 -15.55916 -100.9569
v -105.1233 -15.5423 -100.835
v -105.3188 -15.74383 -100.8661
v -105.1758 -15.74429 -100.9615
v -105.1233 -15.5423 -100.835
v -105.215 -15.54622 -100.7687
v -105.1993 -15.90599 -100.7511
v -105.2841 -16.05832 -100.8776
v -105.2939 -16.02749 -100.9082
v -105.209 -15.87516 -100.7817
v -105.1752 -15.69744 -100.6133
v -105.1655 -15.72827 -100.5827
v -105.1993 -15.90599 -100.7511
v -105.209 -15.87516 -100.7817
v -104.8416 -15.77988 -100.7379
v -105.1752 -15.69744 -100.6133
v -105.215 -15.65494 -100.6378
v -105.1655 -15.72827 -100.5827
v -105.2939 -16.02749 -100.9082
v -105.2841 -16.05832 -100.8776
v -105.0052 -16.07346 -100.9817
v -104.9809 -15.98145 -100.9615
v -104.9353 -15.94806 -100.8775
v -105.0052 -16.07346 -100.9817
v -105.2841 -16.05832 -100.8776
v -105.1993 -15.90599 -100.7511
v -105.1233 -15.5423 -100.835
v -104.9114 -15.55916 -100.9569
v -105.215 -15.54622 -100.7687
v -105.215 -15.65494 -100.6378
v -105.1752 -15.69744 -100.6133
v -105.209 -15.87516 -100.7817
v -105.3046 -15.82376 -100.7794
v -105.1655 -15.72827 -100.5827
v -104.8416 -15.77988 -100.7379
v -105.3188 -15.74383 -100.8661
v -105.3046 -15.82376 -100.7794
v -105.209 -15.87516 -100.7817
v -105.1758 -15.74429 -100.9615
v -103.6869 -18.2174 -103.1394
v -103.727 -18.41801 -103.1551
v -103.6244 -18.471 -103.0338
v -103.6468 -18.34463 -102.9916
v -103.7577 -18.43844 -103.1102
v -103.6244 -18.471 -103.0338
v -103.727 -18.41801 -103.1551
v -103.727 -18.41801 -103.1551
v -103.7219 -18.39265 -103.2117
v -103.7818 -18.43254 -103.1241
v -103.8623 -18.48604 -103.0066
v -103.6244 -18.471 -103.0338
v -103.6894 -18.52828 -102.9074
v -103.7598 -18.26586 -103.0331
v -103.6869 -18.2174 -103.1394
v -103.6468 -18.34463 -102.9916
v -103.7211 -18.31489 -102.832
v -103.8111 -18.26935 -102.8729
v -103.7306 -18.2185 -102.9915
v -103.6664 -18.24175 -102.9582
v -103.6468 -18.34463 -102.9916
v -103.6244 -18.471 -103.0338
v -103.6894 -18.52828 -102.9074
v -103.705 -18.38259 -102.8518
v -103.6664 -18.24175 -102.9582
v -103.6468 -18.34463 -102.9916
v -103.705 -18.38259 -102.8518
v -103.7211 -18.31489 -102.832
v -103.7839 -18.25996 -103.0469
v -103.7111 -18.2115 -103.1533
v -103.6869 -18.2174 -103.1394
v -103.7598 -18.26586 -103.0331
v -103.8407 -18.28018 -102.8981
v -103.8648 -18.27428 -102.9119
v -103.7839 -18.25996 -103.0469
v -103.7598 -18.26586 -103.0331
v -103.8623 -18.48604 -103.0066
v -103.8407 -18.28018 -102.8981
v -103.8111 -18.26935 -102.8729
v -103.8648 -18.27428 -102.9119
v -103.6869 -18.2174 -103.1394
v -103.7111 -18.2115 -103.1533
v -103.7219 -18.39265 -103.2117
v -103.727 -18.41801 -103.1551
v -103.7818 -18.43254 -103.1241
v -103.7219 -18.39265 -103.2117
v -103.7111 -18.2115 -103.1533
v -103.7839 -18.25996 -103.0469
v -103.705 -18.38259 -102.8518
v -103.6894 -18.52828 -102.9074
v -103.7211 -18.31489 -102.832
v -103.8111 -18.26935 -102.8729
v -103.8407 -18.28018 -102.8981
v -103.7598 -18.26586 -103.0331
v -103.7306 -18.2185 -102.9915
v -103.8648 -18.27428 -102.9119
v -103.8623 -18.48604 -103.0066
v -103.6664 -18.24175 -102.9582
v -103.7306 -18.2185 -102.9915
v -103.7598 -18.26586 -103.0331
v -103.6468 -18.34463 -102.9916
v -103.7094 -15.43195 -101.4736
v -103.552 -15.35093 -101.3758
v -103.6311 -15.22221 -101.3092
v -103.7332 -15.30622 -101.3247
v -103.5556 -15.35705 -101.319
v -103.6311 -15.22221 -101.3092
v -103.552 -15.35093 -101.3758
v -103.552 -15.35093 -101.3758
v -103.5349 -15.36955 -101.4317
v -103.5419 -15.38149 -101.3207
v -103.5513 -15.3975 -101.172
v -103.6311 -15.22221 -101.3092
v -103.6492 -15.22255 -101.1593
v -103.7179 -15.44645 -101.3389
v -103.7094 -15.43195 -101.4736
v -103.7332 -15.30622 -101.3247
v -103.8267 -15.35898 -101.1852
v -103.7981 -15.46197 -101.1945
v -103.7862 -15.44458 -101.343
v -103.8153 -15.37582 -101.3374
v -103.7332 -15.30622 -101.3247
v -103.6311 -15.22221 -101.3092
v -103.6492 -15.22255 -101.1593
v -103.7752 -15.31039 -101.1768
v -103.8153 -15.37582 -101.3374
v -103.7332 -15.30622 -101.3247
v -103.7752 -15.31039 -101.1768
v -103.8267 -15.35898 -101.1852
v -103.7043 -15.47089 -101.3406
v -103.6957 -15.45639 -101.4754
v -103.7094 -15.43195 -101.4736
v -103.7179 -15.44645 -101.3389
v -103.7642 -15.48276 -101.1946
v -103.7505 -15.50719 -101.1964
v -103.7043 -15.47089 -101.3406
v -103.7179 -15.44645 -101.3389
v -103.5513 -15.3975 -101.172
v -103.7642 -15.48276 -101.1946
v -103.7981 -15.46197 -101.1945
v -103.7505 -15.50719 -101.1964
v -103.7094 -15.43195 -101.4736
v -103.6957 -15.45639 -101.4754
v -103.5349 -15.36955 -101.4317
v -103.552 -15.35093 -101.3758
v -103.5419 -15.38149 -101.3207
v -103.5349 -15.36955 -101.4317
v -103.6957 -15.45639 -101.4754
v -103.7043 -15.47089 -101.3406
v -103.7752 -15.31039 -101.1768
v -103.6492 -15.22255 -101.1593
v -103.8267 -15.35898 -101.1852
v -103.7981 -15.46197 -101.1945
v -103.7642 -15.48276 -101.1946
v -103.7179 -15.44645 -101.3389
v -103.7862 -15.44458 -101.343
v -103.7505 -15.50719 -101.1964
v -103.5513 -15.3975 -101.172
v -103.8153 -15.37582 -101.3374
v -103.7862 -15.44458 -101.343
v -103.7179 -15.44645 -101.3389
v -103.7332 -15.30622 -101.3247
v -105.0286 -16.40963 -102.5387
v -105.1763 -16.50583 -102.7425
v -105.0918 -16.6078 -102.6934
v -105.2263 -16.34247 -102.7272
v -105.1997 -16.25885 -102.662
v -105.2263 -16.34247 -102.7272
v -105.1997 -16.25885 -102.662
v -105.3839 -16.3309 -102.4945
v -105.398 -16.3752 -102.529
v -105.0286 -16.40963 -102.5387
v -105.0918 -16.6078 -102.6934
v -105.2635 -16.64053 -102.4952
v -105.2128 -16.48168 -102.3712
v -105.3311 -16.53973 -102.5262
v -105.2635 -16.64053 -102.4952
v -105.0918 -16.6078 -102.6934
v -105.1763 -16.50583 -102.7425
v -105.398 -16.3752 -102.529
v -105.3311 -16.53973 -102.5262
v -105.1763 -16.50583 -102.7425
v -105.2263 -16.34247 -102.7272
v -105.3311 -16.53973 -102.5262
v -105.2128 -16.48168 -102.3712
v -105.2635 -16.64053 -102.4952
v -105.398 -16.3752 -102.529
v -105.3839 -16.3309 -102.4945
v -105.1997 -16.25885 -102.662
v -105.0286 -16.40963 -102.5387
v -105.2128 -16.48168 -102.3712
v -105.3839 -16.3309 -102.4945
v -102.6679 -13.5631 -103.5985
v -102.7673 -13.88216 -103.2907
v -102.8138 -13.96527 -103.509
v -102.672 -13.65866 -103.1339
v -102.6105 -13.48896 -103.1716
v -102.672 -13.65866 -103.1339
v -102.6105 -13.48896 -103.1716
v -102.2025 -13.64317 -103.1997
v -102.2351 -13.73306 -103.1797
v -102.6679 -13.5631 -103.5985
v -102.8138 -13.96527 -103.509
v -102.3769 -14.03968 -103.5549
v -102.26 -13.71732 -103.6266
v -102.327 -13.94064 -103.3751
v -102.3769 -14.03968 -103.5549
v -102.8138 -13.96527 -103.509
v -102.7673 -13.88216 -103.2907
v -102.2351 -13.73306 -103.1797
v -102.327 -13.94064 -103.3751
v -102.7673 -13.88216 -103.2907
v -102.672 -13.65866 -103.1339
v -102.327 -13.94064 -103.3751
v -102.26 -13.71732 -103.6266
v -102.3769 -14.03968 -103.5549
v -102.2351 -13.73306 -103.1797
v -102.2025 -13.64317 -103.1997
v -102.6105 -13.48896 -103.1716
v -102.6679 -13.5631 -103.5985
v -102.26 -13.71732 -103.6266
v -102.2025 -13.64317 -103.1997
vt 0.34375 0.359375
vt 0.4375 0.375
vt 0.34375 0.359375
vt 0.375 0.40625
vt 0.375 0.40625
vt 0.375 0.40625
vt 0.34375 0.359375
vt 0.375 0.40625
vt 0.375 0.40625
vt 0.375 0.40625
vt 0.375 0.375
vt 0.4375 0.40625
vt 0.4375 0.375
vt 0.40625 0.40625
vt 0.375 0.40625
vt 0.34375 0.359375
vt 0.4375 0.375
vt 0.375 0.375
vt 0.375 0.40625
vt 0.4375 0.40625
vt 0.40625 0.40625
vt 0.375 0.40625
vt 0.375 0.375
vt 0.40625 0.375
vt 0.4375 0.40625
vt 0.40625 0.40625
vt 0.40625 0.375
vt 0.4375 0.375
vt 0.375 0.40625
vt 0.375 0.40625
vt 0.375 0.40625
vt 0.375 0.40625
vt 0.375 0.375
vt 0.375 0.375
vt 0.375 0.40625
vt 0.375 0.40625
vt 0.375 0.375
vt 0.4375 0.375
vt 0.4375 0.375
vt 0.4375 0.375
vt 0.4375 0.375
vt 0.4375 0.375
vt 0.40625 0.375
vt 0.40625 0.375
vt 0.375 0.40625
vt 0.375 0.40625
vt 0.4375 0.40625
vt 0.4375 0.40625
vt 0.40625 0.40625
vt 0.375 0.40625
vt 0.4375 0.40625
vt 0.375 0.375
vt 0.375 0.375
vt 0.375 0.40625
vt 0.375 0.40625
vt 0.4375 0.375
vt 0.375 0.375
vt 0.4375 0.40625
vt 0.4375 0.375
vt 0.4286406 0.375
vt 0.40625 0.40625
vt 0.34375 0.359375
vt 0.4375 0.375
vt 0.34375 0.359375
vt 0.375 0.40625
vt 0.375 0.40625
vt 0.375 0.40625
vt 0.34375 0.359375
vt 0.375 0.40625
vt 0.375 0.40625
vt 0.375 0.40625
vt 0.375 0.375
vt 0.4375 0.40625
vt 0.4375 0.375
vt 0.40625 0.40625
vt 0.375 0.40625
vt 0.34375 0.359375
vt 0.4375 0.375
vt 0.375 0.375
vt 0.375 0.40625
vt 0.4375 0.40625
vt 0.40625 0.40625
vt 0.375 0.40625
vt 0.375 0.375
vt 0.40625 0.375
vt 0.4375 0.40625
vt 0.40625 0.40625
vt 0.40625 0.375
vt 0.4375 0.375
vt 0.375 0.40625
vt 0.375 0.40625
vt 0.375 0.40625
vt 0.375 0.40625
vt 0.375 0.375
vt 0.375 0.375
vt 0.375 0.40625
vt 0.375 0.40625
vt 0.375 0.375
vt 0.4375 0.375
vt 0.4375 0.375
vt 0.4375 0.375
vt 0.4375 0.375
vt 0.4375 0.375
vt 0.40625 0.375
vt 0.40625 0.375
vt 0.375 0.40625
vt 0.375 0.40625
vt 0.4375 0.40625
vt 0.4375 0.40625
vt 0.40625 0.40625
vt 0.375 0.40625
vt 0.4375 0.40625
vt 0.375 0.375
vt 0.375 0.375
vt 0.375 0.40625
vt 0.375 0.40625
vt 0.4375 0.375
vt 0.375 0.375
vt 0.4375 0.40625
vt 0.4375 0.375
vt 0.4286406 0.375
vt 0.40625 0.40625
vt 0.34375 0.359375
vt 0.4375 0.375
vt 0.34375 0.359375
vt 0.375 0.40625
vt 0.375 0.40625
vt 0.375 0.40625
vt 0.34375 0.359375
vt 0.375 0.40625
vt 0.375 0.40625
vt 0.375 0.40625
vt 0.375 0.375
vt 0.4375 0.40625
vt 0.4375 0.375
vt 0.40625 0.40625
vt 0.375 0.40625
vt 0.34375 0.359375
vt 0.4375 0.375
vt 0.375 0.375
vt 0.375 0.40625
vt 0.4375 0.40625
vt 0.40625 0.40625
vt 0.375 0.40625
vt 0.375 0.375
vt 0.40625 0.375
vt 0.4375 0.40625
vt 0.40625 0.40625
vt 0.40625 0.375
vt 0.4375 0.375
vt 0.375 0.40625
vt 0.375 0.40625
vt 0.375 0.40625
vt 0.375 0.40625
vt 0.375 0.375
vt 0.375 0.375
vt 0.375 0.40625
vt 0.375 0.40625
vt 0.375 0.375
vt 0.4375 0.375
vt 0.4375 0.375
vt 0.4375 0.375
vt 0.4375 0.375
vt 0.4375 0.375
vt 0.40625 0.375
vt 0.40625 0.375
vt 0.375 0.40625
vt 0.375 0.40625
vt 0.4375 0.40625
vt 0.4375 0.40625
vt 0.40625 0.40625
vt 0.375 0.40625
vt 0.4375 0.40625
vt 0.375 0.375
vt 0.375 0.375
vt 0.375 0.40625
vt 0.375 0.40625
vt 0.4375 0.375
vt 0.375 0.375
vt 0.4375 0.40625
vt 0.4375 0.375
vt 0.4286406 0.375
vt 0.40625 0.40625
vt 0.375 0.375
vt 0.40625 0.40625
vt 0.375 0.40625
vt 0.4375 0.40625
vt 0.4375 0.375
vt 0.4375 0.375
vt 0.375 0.375
vt 0.375 0.40625
vt 0.4375 0.40625
vt 0.375 0.375
vt 0.4375 0.375
vt 0.4375 0.40625
vt 0.375 0.40625
vt 0.40625 0.40625
vt 0.375 0.40625
vt 0.375 0.375
vt 0.40625 0.375
vt 0.4375 0.40625
vt 0.40625 0.40625
vt 0.40625 0.375
vt 0.4375 0.375
vt 0.40625 0.40625
vt 0.40625 0.375
vt 0.375 0.40625
vt 0.4375 0.40625
vt 0.4375 0.375
vt 0.4375 0.375
vt 0.375 0.375
vt 0.375 0.40625
vt 0.4375 0.40625
vt 0.375 0.375
vt 0.40625 0.40625
vt 0.375 0.40625
vt 0.4375 0.40625
vt 0.4375 0.375
vt 0.4375 0.375
vt 0.375 0.375
vt 0.375 0.40625
vt 0.4375 0.40625
vt 0.375 0.375
vt 0.4375 0.375
vt 0.4375 0.40625
vt 0.375 0.40625
vt 0.40625 0.40625
vt 0.375 0.40625
vt 0.375 0.375
vt 0.40625 0.375
vt 0.4375 0.40625
vt 0.40625 0.40625
vt 0.40625 0.375
vt 0.4375 0.375
vt 0.40625 0.40625
vt 0.40625 0.375
vt 0.375 0.40625
vt 0.4375 0.40625
vt 0.4375 0.375
vt 0.4375 0.375
vt 0.375 0.375
vt 0.375 0.40625
vt 0.4375 0.40625
vn -0.2963443 -0.2439588 -0.9233981
vn -0.2963443 -0.2439588 -0.9233981
vn -0.2963443 -0.2439588 -0.9233981
vn -0.2963443 -0.2439588 -0.9233981
vn 0.8926608 -0.1422637 -0.4276889
vn 0.8926608 -0.1422637 -0.4276889
vn 0.8926608 -0.1422637 -0.4276889
vn 0.8926608 -0.1422637 -0.4276889
vn 0.8926608 -0.1422637 -0.4276889
vn 0.8926608 -0.1422637 -0.4276889
vn 0.8926608 -0.1422637 -0.4276889
vn 0.8926608 -0.1422637 -0.4276889
vn 0.8926608 -0.1422637 -0.4276889
vn -0.9071853 0.4017531 0.1249368
vn -0.9071853 0.4017531 0.1249368
vn -0.9071853 0.4017531 0.1249368
vn -0.9099005 0.2820975 0.3041413
vn -0.9099005 0.2820975 0.3041413
vn -0.9099005 0.2820975 0.3041413
vn -0.9099005 0.2820975 0.3041413
vn -0.3993647 0.5881572 -0.703263
vn -0.3993647 0.5881572 -0.703263
vn -0.3993647 0.5881572 -0.703263
vn -0.3993647 0.5881572 -0.703263
vn -0.4738916 0.564337 -0.6759812
vn -0.4738916 0.564337 -0.6759812
vn -0.4738916 0.564337 -0.6759812
vn -0.4738916 0.564337 -0.6759812
vn -0.8926608 0.1422637 0.4276889
vn -0.8926608 0.1422637 0.4276889
vn -0.8926608 0.1422637 0.4276889
vn -0.8926608 0.1422637 0.4276889
vn -0.9661079 -0.05507651 0.2521944
vn -0.9661079 -0.05507651 0.2521944
vn -0.9661079 -0.05507651 0.2521944
vn -0.9661079 -0.05507651 0.2521944
vn 0.394009 0.7071071 0.5871596
vn 0.394009 0.7071071 0.5871596
vn 0.394009 0.7071071 0.5871596
vn 0.394009 0.7071071 0.5871596
vn -0.2541189 -0.05138758 -0.9658068
vn -0.2541189 -0.05138758 -0.9658068
vn -0.2541189 -0.05138758 -0.9658068
vn -0.2541189 -0.05138758 -0.9658068
vn 0.2188889 -0.6926481 0.6872601
vn 0.2188889 -0.6926481 0.6872601
vn 0.2188889 -0.6926481 0.6872601
vn 0.2188889 -0.6926481 0.6872601
vn 0.394009 0.7071071 0.5871596
vn 0.394009 0.7071071 0.5871596
vn 0.394009 0.7071071 0.5871596
vn -0.4632187 -0.493395 0.7361996
vn -0.4632187 -0.493395 0.7361996
vn -0.4632187 -0.493395 0.7361996
vn -0.4632187 -0.493395 0.7361996
vn 0.2188889 -0.6926481 0.6872601
vn 0.2188889 -0.6926481 0.6872601
vn -0.394009 -0.7071071 -0.5871596
vn -0.394009 -0.7071071 -0.5871596
vn -0.394009 -0.7071071 -0.5871596
vn -0.394009 -0.7071071 -0.5871596
vn 0.8917819 0.03179438 -0.4513472
vn 0.8917819 0.03179438 -0.4513472
vn 0.8917819 0.03179438 -0.4513472
vn 0.8917819 0.03179438 -0.4513472
vn 0.01110164 -0.9128446 -0.4081563
vn 0.01110164 -0.9128446 -0.4081563
vn 0.01110164 -0.9128446 -0.4081563
vn 0.01110164 -0.9128446 -0.4081563
vn 0.01110164 -0.9128446 -0.4081563
vn 0.01110164 -0.9128446 -0.4081563
vn 0.01110164 -0.9128446 -0.4081563
vn 0.01110164 -0.9128446 -0.4081563
vn 0.01110164 -0.9128446 -0.4081563
vn 0.3215733 0.7591283 0.5659637
vn 0.3215733 0.7591283 0.5659637
vn 0.3215733 0.7591283 0.5659637
vn 0.1362064 0.8514803 0.5063882
vn 0.1362064 0.8514803 0.5063882
vn 0.1362064 0.8514803 0.5063882
vn 0.1362064 0.8514803 0.5063882
vn 0.9101568 -0.02121271 0.4137203
vn 0.9101568 -0.02121271 0.4137203
vn 0.9101568 -0.02121271 0.4137203
vn 0.9101568 -0.02121271 0.4137203
vn 0.9092246 0.06161901 0.4117206
vn 0.9092246 0.06161901 0.4117206
vn 0.9092246 0.06161901 0.4117206
vn 0.9092246 0.06161901 0.4117206
vn -0.01110164 0.9128446 0.4081563
vn -0.01110164 0.9128446 0.4081563
vn -0.01110164 0.9128446 0.4081563
vn -0.01110164 0.9128446 0.4081563
vn 0.1329256 0.9740638 0.1831135
vn 0.1329256 0.9740638 0.1831135
vn 0.1329256 0.9740638 0.1831135
vn 0.1329256 0.9740638 0.1831135
vn -0.5289068 -0.3517677 0.7723451
vn -0.5289068 -0.3517677 0.7723451
vn -0.5289068 -0.3517677 0.7723451
vn -0.5289068 -0.3517677 0.7723451
vn 0.9545283 -0.07093176 -0.289559
vn 0.9545283 -0.07093176 -0.289559
vn 0.9545283 -0.07093176 -0.289559
vn 0.9545283 -0.07093176 -0.289559
vn -0.8486071 0.2073023 -0.4867153
vn -0.8486071 0.2073023 -0.4867153
vn -0.8486071 0.2073023 -0.4867153
vn -0.8486071 0.2073023 -0.4867153
vn -0.5289068 -0.3517677 0.7723451
vn -0.5289068 -0.3517677 0.7723451
vn -0.5289068 -0.3517677 0.7723451
vn -0.5882058 0.7903892 -0.1711692
vn -0.5882058 0.7903892 -0.1711692
vn -0.5882058 0.7903892 -0.1711692
vn -0.5882058 0.7903892 -0.1711692
vn -0.8486071 0.2073023 -0.4867153
vn -0.8486071 0.2073023 -0.4867153
vn 0.5289068 0.3517677 -0.7723451
vn 0.5289068 0.3517677 -0.7723451
vn 0.5289068 0.3517677 -0.7723451
vn 0.5289068 0.3517677 -0.7723451
vn -0.06258412 0.6300172 -0.7740552
vn -0.06258412 0.6300172 -0.7740552
vn -0.06258412 0.6300172 -0.7740552
vn -0.06258412 0.6300172 -0.7740552
vn 0.8709298 0.4796809 0.1067125
vn 0.8709298 0.4796809 0.1067125
vn 0.8709298 0.4796809 0.1067125
vn 0.8709298 0.4796809 0.1067125
vn 0.8709298 0.4796809 0.1067125
vn 0.8709298 0.4796809 0.1067125
vn 0.8709298 0.4796809 0.1067125
vn 0.8709298 0.4796809 0.1067125
vn 0.8709298 0.4796809 0.1067125
vn -0.9921605 -0.1009807 -0.07362444
vn -0.9921605 -0.1009807 -0.07362444
vn -0.9921605 -0.1009807 -0.07362444
vn -0.9472936 -0.3117561 -0.07377636
vn -0.9472936 -0.3117561 -0.07377636
vn -0.9472936 -0.3117561 -0.07377636
vn -0.9472936 -0.3117561 -0.07377636
vn -0.588433 0.8014945 -0.1065503
vn -0.588433 0.8014945 -0.1065503
vn -0.588433 0.8014945 -0.1065503
vn -0.588433 0.8014945 -0.1065503
vn -0.6424607 0.752344 -0.1456802
vn -0.6424607 0.752344 -0.1456802
vn -0.6424607 0.752344 -0.1456802
vn -0.6424607 0.752344 -0.1456802
vn -0.8709298 -0.4796809 -0.1067125
vn -0.8709298 -0.4796809 -0.1067125
vn -0.8709298 -0.4796809 -0.1067125
vn -0.8709298 -0.4796809 -0.1067125
vn -0.821169 -0.4326644 -0.3721328
vn -0.821169 -0.4326644 -0.3721328
vn -0.821169 -0.4326644 -0.3721328
vn -0.821169 -0.4326644 -0.3721328
vn -0.06276657 -0.1067923 0.9922982
vn -0.06276657 -0.1067923 0.9922982
vn -0.06276657 -0.1067923 0.9922982
vn -0.06276657 -0.1067923 0.9922982
vn -0.1205571 0.7634979 -0.634458
vn -0.1205571 0.7634979 -0.634458
vn -0.1205571 0.7634979 -0.634458
vn -0.1205571 0.7634979 -0.634458
vn 0.4873815 -0.8709206 -0.0629014
vn 0.4873815 -0.8709206 -0.0629014
vn 0.4873815 -0.8709206 -0.0629014
vn 0.4873815 -0.8709206 -0.0629014
vn -0.06276657 -0.1067923 0.9922982
vn -0.06276657 -0.1067923 0.9922982
vn -0.06276657 -0.1067923 0.9922982
vn -0.2032549 -0.9551066 -0.2155433
vn -0.2032549 -0.9551066 -0.2155433
vn -0.2032549 -0.9551066 -0.2155433
vn -0.2032549 -0.9551066 -0.2155433
vn 0.4873815 -0.8709206 -0.0629014
vn 0.4873815 -0.8709206 -0.0629014
vn 0.06276657 0.1067923 -0.9922982
vn 0.06276657 0.1067923 -0.9922982
vn 0.06276657 0.1067923 -0.9922982
vn 0.06276657 0.1067923 -0.9922982
vn 0.7107616 0.2779635 -0.6461843
vn 0.7107616 0.2779635 -0.6461843
vn 0.7107616 0.2779635 -0.6461843
vn 0.7107616 0.2779635 -0.6461843
vn 0.7107616 0.2779635 -0.6461843
vn -0.6598892 0.5816523 -0.4756331
vn -0.6598892 0.5816523 -0.4756331
vn -0.6598892 0.5816523 -0.4756331
vn -0.6598892 0.5816523 -0.4756331
vn 0.6598892 -0.5816523 0.4756331
vn 0.6598892 -0.5816523 0.4756331
vn 0.6598892 -0.5816523 0.4756331
vn 0.6598892 -0.5816523 0.4756331
vn -0.5568158 -0.631136 -0.5400217
vn -0.5568158 -0.631136 -0.5400217
vn -0.5568158 -0.631136 -0.5400217
vn -0.5568158 -0.631136 -0.5400217
vn -0.7430804 -0.2415012 -0.6241063
vn -0.7430804 -0.2415012 -0.6241063
vn -0.7430804 -0.2415012 -0.6241063
vn -0.7430804 -0.2415012 -0.6241063
vn -0.7107616 -0.2779635 0.6461843
vn -0.7107616 -0.2779635 0.6461843
vn -0.7107616 -0.2779635 0.6461843
vn -0.7107616 -0.2779635 0.6461843
vn -0.7107616 -0.2779635 0.6461843
vn 0.2436453 0.7644721 0.5968412
vn 0.2436453 0.7644721 0.5968412
vn 0.2436453 0.7644721 0.5968412
vn 0.2436453 0.7644721 0.5968412
vn -0.9334679 0.3528411 0.06434892
vn -0.9334679 0.3528411 0.06434892
vn -0.9334679 0.3528411 0.06434892
vn -0.9334679 0.3528411 0.06434892
vn -0.9334679 0.3528411 0.06434892
vn 0.1314521 0.1696464 0.9766988
vn 0.1314521 0.1696464 0.9766988
vn 0.1314521 0.1696464 0.9766988
vn 0.1314521 0.1696464 0.9766988
vn -0.1314521 -0.1696464 -0.9766988
vn -0.1314521 -0.1696464 -0.9766988
vn -0.1314521 -0.1696464 -0.9766988
vn -0.1314521 -0.1696464 -0.9766988
vn -0.07256906 -0.9001727 0.4294448
vn -0.07256906 -0.9001727 0.4294448
vn -0.07256906 -0.9001727 0.4294448
vn -0.07256906 -0.9001727 0.4294448
vn 0.01790785 -0.6372671 0.7704349
vn 0.01790785 -0.6372671 0.7704349
vn 0.01790785 -0.6372671 0.7704349
vn 0.01790785 -0.6372671 0.7704349
vn 0.9334679 -0.3528411 -0.06434892
vn 0.9334679 -0.3528411 -0.06434892
vn 0.9334679 -0.3528411 -0.06434892
vn 0.9334679 -0.3528411 -0.06434892
vn 0.9334679 -0.3528411 -0.06434892
vn 0.333703 0.9201757 -0.2047413
vn 0.333703 0.9201757 -0.2047413
vn 0.333703 0.9201757 -0.2047413
vn 0.333703 0.9201757 -0.2047413
g _Combined_Vis8_0_0
f 3/3/3 2/2/2 1/1/1
f 4/4/4 3/3/3 1/1/1
f 7/7/7 6/6/6 5/5/5
f 9/9/9 8/8/8 5/5/5
f 10/10/10 9/9/9 5/5/5
f 11/11/11 10/10/10 5/5/5
f 5/5/5 12/12/12 11/11/11
f 12/12/12 13/13/13 11/11/11
f 16/16/16 15/15/15 14/14/14
f 19/19/19 18/18/18 17/17/17
f 20/20/20 19/19/19 17/17/17
f 23/23/23 22/22/22 21/21/21
f 24/24/24 23/23/23 21/21/21
f 27/27/27 26/26/26 25/25/25
f 28/28/28 27/27/27 25/25/25
f 31/31/31 30/30/30 29/29/29
f 32/32/32 31/31/31 29/29/29
f 35/35/35 34/34/34 33/33/33
f 36/36/36 35/35/35 33/33/33
f 39/39/39 38/38/38 37/37/37
f 38/38/38 40/40/40 37/37/37
f 43/43/43 42/42/42 41/41/41
f 44/44/44 43/43/43 41/41/41
f 47/47/47 46/46/46 45/45/45
f 48/48/48 47/47/47 45/45/45
f 50/50/50 49/49/49 37/37/37
f 37/37/37 49/49/49 51/51/51
f 39/39/39 37/37/37 51/51/51
f 54/54/54 53/53/53 52/52/52
f 55/55/55 54/54/54 52/52/52
f 45/45/45 57/57/57 56/56/56
f 48/48/48 45/45/45 56/56/56
f 60/60/60 59/59/59 58/58/58
f 61/61/61 60/60/60 58/58/58
f 64/64/64 63/63/63 62/62/62
f 65/65/65 64/64/64 62/62/62
f 68/68/68 67/67/67 66/66/66
f 70/70/70 69/69/69 66/66/66
f 71/71/71 70/70/70 66/66/66
f 72/72/72 71/71/71 66/66/66
f 66/66/66 73/73/73 72/72/72
f 73/73/73 74/74/74 72/72/72
f 77/77/77 76/76/76 75/75/75
f 80/80/80 79/79/79 78/78/78
f 81/81/81 80/80/80 78/78/78
f 84/84/84 83/83/83 82/82/82
f 85/85/85 84/84/84 82/82/82
f 88/88/88 87/87/87 86/86/86
f 89/89/89 88/88/88 86/86/86
f 92/92/92 91/91/91 90/90/90
f 93/93/93 92/92/92 90/90/90
f 96/96/96 95/95/95 94/94/94
f 97/97/97 96/96/96 94/94/94
f 100/100/100 99/99/99 98/98/98
f 99/99/99 101/101/101 98/98/98
f 104/104/104 103/103/103 102/102/102
f 105/105/105 104/104/104 102/102/102
f 108/108/108 107/107/107 106/106/106
f 109/109/109 108/108/108 106/106/106
f 111/111/111 110/110/110 98/98/98
f 98/98/98 110/110/110 112/112/112
f 100/100/100 98/98/98 112/112/112
f 115/115/115 114/114/114 113/113/113
f 116/116/116 115/115/115 113/113/113
f 106/106/106 118/118/118 117/117/117
f 109/109/109 106/106/106 117/117/117
f 121/121/121 120/120/120 119/119/119
f 122/122/122 121/121/121 119/119/119
f 125/125/125 124/124/124 123/123/123
f 126/126/126 125/125/125 123/123/123
f 129/129/129 128/128/128 127/127/127
f 131/131/131 130/130/130 127/127/127
f 132/132/132 131/131/131 127/127/127
f 133/133/133 132/132/132 127/127/127
f 127/127/127 134/134/134 133/133/133
f 134/134/134 135/135/135 133/133/133
f 138/138/138 137/137/137 136/136/136
f 141/141/141 140/140/140 139/139/139
f 142/142/142 141/141/141 139/139/139
f 145/145/145 144/144/144 143/143/143
f 146/146/146 145/145/145 143/143/143
f 149/149/149 148/148/148 147/147/147
f 150/150/150 149/149/149 147/147/147
f 153/153/153 152/152/152 151/151/151
f 154/154/154 153/153/153 151/151/151
f 157/157/157 156/156/156 155/155/155
f 158/158/158 157/157/157 155/155/155
f 161/161/161 160/160/160 159/159/159
f 160/160/160 162/162/162 159/159/159
f 165/165/165 164/164/164 163/163/163
f 166/166/166 165/165/165 163/163/163
f 169/169/169 168/168/168 167/167/167
f 170/170/170 169/169/169 167/167/167
f 172/172/172 171/171/171 159/159/159
f 159/159/159 171/171/171 173/173/173
f 161/161/161 159/159/159 173/173/173
f 176/176/176 175/175/175 174/174/174
f 177/177/177 176/176/176 174/174/174
f 167/167/167 179/179/179 178/178/178
f 170/170/170 167/167/167 178/178/178
f 182/182/182 181/181/181 180/180/180
f 183/183/183 182/182/182 180/180/180
f 186/186/186 185/185/185 184/184/184
f 184/184/184 185/185/185 187/187/187
f 188/188/188 184/184/184 187/187/187
f 191/191/191 190/190/190 189/189/189
f 192/192/192 191/191/191 189/189/189
f 195/195/195 194/194/194 193/193/193
f 196/196/196 195/195/195 193/193/193
f 199/199/199 198/198/198 197/197/197
f 200/200/200 199/199/199 197/197/197
f 203/203/203 202/202/202 201/201/201
f 204/204/204 203/203/203 201/201/201
f 207/207/207 206/206/206 205/205/205
f 205/205/205 206/206/206 208/208/208
f 206/206/206 209/209/209 208/208/208
f 212/212/212 211/211/211 210/210/210
f 213/213/213 212/212/212 210/210/210
f 216/216/216 215/215/215 214/214/214
f 214/214/214 215/215/215 217/217/217
f 218/218/218 214/214/214 217/217/217
f 221/221/221 220/220/220 219/219/219
f 222/222/222 221/221/221 219/219/219
f 225/225/225 224/224/224 223/223/223
f 226/226/226 225/225/225 223/223/223
f 229/229/229 228/228/228 227/227/227
f 230/230/230 229/229/229 227/227/227
f 233/233/233 232/232/232 231/231/231
f 234/234/234 233/233/233 231/231/231
f 237/237/237 236/236/236 235/235/235
f 235/235/235 236/236/236 238/238/238
f 236/236/236 239/239/239 238/238/238
f 242/242/242 241/241/241 240/240/240
f 243/243/243 242/242/242 240/240/240
