g _Combined_AutoVis3_0
v -0.5 16.00001 2.000015
v 0.5000001 16.00001 2.000017
v 0.5000001 16.00001 3.000016
v -0.5 16.00001 3.000016
v 0.5000001 16.00001 3.000016
v 0.4999986 15 3.000022
v -0.5000004 15 3.000022
v -0.5 16.00001 3.000016
v -0.5 16.00001 2.000015
v -0.4999988 15.00002 2.000018
v 0.5000001 15.00002 2.000018
v 0.5000001 16.00001 2.000017
v 0.5000001 16.00001 2.000017
v 0.5000001 15.00002 2.000018
v 0.4999986 15 3.000022
v 0.5000001 16.00001 3.000016
v -0.5 16.00001 3.000016
v -0.5000004 15 3.000022
v -0.4999988 15.00002 2.000018
v -0.5 16.00001 2.000015
v 0.5000001 15.00002 2.000018
v 0.4999999 13.99998 2.000017
v 0.5000001 13.99998 3.000016
v 0.4999986 15 3.000022
v 0.4999986 15 3.000022
v 0.5000001 13.99998 3.000016
v -0.5 13.99998 3.000022
v -0.5000004 15 3.000022
v -0.5000004 15 3.000022
v -0.5 13.99998 3.000022
v -0.4999999 13.99998 2.000017
v -0.4999988 15.00002 2.000018
v -0.4999988 15.00002 2.000018
v -0.4999999 13.99998 2.000017
v 0.4999999 13.99998 2.000017
v 0.5000001 15.00002 2.000018
vt 0.953125 0.8359375
vt 0.953125 0.7734375
vt 0.828125 0.7734375
vt 0.828125 0.8359375
vt 0.421875 0.4296875
vt 0.421875 0.3671875
vt 0.296875 0.3671875
vt 0.296875 0.4296875
vt 0.421875 0.4296875
vt 0.421875 0.3671875
vt 0.296875 0.3671875
vt 0.296875 0.4296875
vt 0.421875 0.4296875
vt 0.421875 0.3671875
vt 0.296875 0.3671875
vt 0.296875 0.4296875
vt 0.421875 0.4296875
vt 0.421875 0.3671875
vt 0.296875 0.3671875
vt 0.296875 0.4296875
vt 0.421875 0.4296875
vt 0.421875 0.3671875
vt 0.296875 0.3671875
vt 0.296875 0.4296875
vt 0.421875 0.4296875
vt 0.421875 0.3671875
vt 0.296875 0.3671875
vt 0.296875 0.4296875
vt 0.421875 0.4296875
vt 0.421875 0.3671875
vt 0.296875 0.3671875
vt 0.296875 0.4296875
vt 0.421875 0.4296875
vt 0.421875 0.3671875
vt 0.296875 0.3671875
vt 0.296875 0.4296875
vn 0 1 8.344683E-07
vn 0 1 8.344683E-07
vn 0 1 8.344683E-07
vn 0 1 8.344683E-07
vn -1.685873E-07 -8.940729E-07 1
vn -1.685873E-07 -8.940729E-07 1
vn -1.685873E-07 -8.940729E-07 1
vn -1.685873E-07 -8.940729E-07 1
vn 1.421085E-14 8.940729E-07 -1
vn 1.421085E-14 8.940729E-07 -1
vn 1.421085E-14 8.940729E-07 -1
vn 1.421085E-14 8.940729E-07 -1
vn 1 -2.84219E-14 5.960466E-08
vn 1 -2.84219E-14 5.960466E-08
vn 1 -2.84219E-14 5.960466E-08
vn 1 -2.84219E-14 5.960466E-08
vn -1 3.659185E-19 -1.192093E-07
vn -1 3.659185E-19 -1.192093E-07
vn -1 3.659185E-19 -1.192093E-07
vn -1 3.659185E-19 -1.192093E-07
vn 1 3.659185E-19 -1.192093E-07
vn 1 3.659185E-19 -1.192093E-07
vn 1 3.659185E-19 -1.192093E-07
vn 1 3.659185E-19 -1.192093E-07
vn 0 -1.072887E-06 1
vn 0 -1.072887E-06 1
vn 0 -1.072887E-06 1
vn 0 -1.072887E-06 1
vn -1 3.659185E-19 -1.192093E-07
vn -1 3.659185E-19 -1.192093E-07
vn -1 3.659185E-19 -1.192093E-07
vn -1 3.659185E-19 -1.192093E-07
vn 0 1.072887E-06 -1
vn 0 1.072887E-06 -1
vn 0 1.072887E-06 -1
vn 0 1.072887E-06 -1
g _Combined_AutoVis3_0_0
f 3/3/3 2/2/2 1/1/1
f 4/4/4 3/3/3 1/1/1
f 7/7/7 6/6/6 5/5/5
f 8/8/8 7/7/7 5/5/5
f 11/11/11 10/10/10 9/9/9
f 12/12/12 11/11/11 9/9/9
f 15/15/15 14/14/14 13/13/13
f 16/16/16 15/15/15 13/13/13
f 19/19/19 18/18/18 17/17/17
f 20/20/20 19/19/19 17/17/17
f 23/23/23 22/22/22 21/21/21
f 24/24/24 23/23/23 21/21/21
f 27/27/27 26/26/26 25/25/25
f 28/28/28 27/27/27 25/25/25
f 31/31/31 30/30/30 29/29/29
f 32/32/32 31/31/31 29/29/29
f 35/35/35 34/34/34 33/33/33
f 36/36/36 35/35/35 33/33/33
