g _Combined_Vis1_1
v -0.09997076 -2.499931 0.1000184
v 0.1000293 -2.499931 0.1000185
v 0.1000294 -2.499931 -0.09998164
v -0.09997074 -2.499931 -0.09998166
v 0.4836207 -1.876506 0.4836097
v 0.5000298 -1.599931 0.5000187
v 0.5000299 -1.599931 -0.4999818
v 0.4836208 -1.876506 -0.4835728
v 0.4836208 -1.876506 -0.4835728
v 0.5000299 -1.599931 -0.4999818
v -0.4999706 -1.599931 -0.4999819
v -0.4835617 -1.876506 -0.4835729
v -0.4835617 -1.876506 -0.4835729
v -0.4999706 -1.599931 -0.4999819
v -0.4999707 -1.599931 0.5000186
v -0.4835618 -1.876506 0.4836096
v -0.4835618 -1.876506 0.4836096
v -0.4999707 -1.599931 0.5000186
v 0.5000298 -1.599931 0.5000187
v 0.4836207 -1.876506 0.4836097
v -0.09997074 -2.499931 -0.09998166
v -0.2364707 -2.413018 -0.2364817
v -0.2364708 -2.413018 0.2365185
v -0.09997076 -2.499931 0.1000184
v -0.4289708 -2.108413 0.4290186
v -0.4835618 -1.876506 0.4836096
v 0.4836207 -1.876506 0.4836097
v 0.4290296 -2.108413 0.4290186
v 0.1000294 -2.499931 -0.09998164
v 0.2365295 -2.413018 -0.2364817
v -0.2364707 -2.413018 -0.2364817
v -0.09997074 -2.499931 -0.09998166
v 0.4290297 -2.108413 -0.4289818
v 0.4836208 -1.876506 -0.4835728
v -0.4835617 -1.876506 -0.4835729
v -0.4289707 -2.108413 -0.4289818
v 0.1000293 -2.499931 0.1000185
v 0.2365294 -2.413018 0.2365185
v 0.2365295 -2.413018 -0.2364817
v 0.1000294 -2.499931 -0.09998164
v -0.2364708 -2.413018 0.2365185
v -0.3299708 -2.286303 0.3300186
v 0.3300295 -2.286303 0.3300186
v 0.2365294 -2.413018 0.2365185
v -0.4289707 -2.108413 -0.4289818
v -0.4835617 -1.876506 -0.4835729
v -0.4835618 -1.876506 0.4836096
v -0.4289708 -2.108413 0.4290186
v 0.4290296 -2.108413 0.4290186
v 0.4836207 -1.876506 0.4836097
v 0.4836208 -1.876506 -0.4835728
v 0.4290297 -2.108413 -0.4289818
v -0.3299707 -2.286303 -0.3299818
v -0.4289707 -2.108413 -0.4289818
v -0.4289708 -2.108413 0.4290186
v -0.3299708 -2.286303 0.3300186
v 0.2365294 -2.413018 0.2365185
v 0.3300295 -2.286303 0.3300186
v 0.3300296 -2.286303 -0.3299817
v 0.2365295 -2.413018 -0.2364817
v 0.2365295 -2.413018 -0.2364817
v 0.3300296 -2.286303 -0.3299817
v -0.3299707 -2.286303 -0.3299818
v -0.2364707 -2.413018 -0.2364817
v -0.2364707 -2.413018 -0.2364817
v -0.3299707 -2.286303 -0.3299818
v -0.3299708 -2.286303 0.3300186
v -0.2364708 -2.413018 0.2365185
v 0.3300295 -2.286303 0.3300186
v 0.4290296 -2.108413 0.4290186
v 0.4290297 -2.108413 -0.4289818
v 0.3300296 -2.286303 -0.3299817
v 0.3300296 -2.286303 -0.3299817
v 0.4290297 -2.108413 -0.4289818
v -0.4289707 -2.108413 -0.4289818
v -0.3299707 -2.286303 -0.3299818
v -0.6210628 -1.599931 0.6016146
v -0.6210628 -1.499931 0.6016146
v 0.6211219 -1.499931 0.6016148
v 0.6211218 -1.599931 0.6016148
v -0.09997076 -2.499931 0.1000184
v -0.2364708 -2.413018 0.2365185
v 0.2365294 -2.413018 0.2365185
v 0.1000293 -2.499931 0.1000185
v -0.3299708 -2.286303 0.3300186
v -0.4289708 -2.108413 0.4290186
v 0.4290296 -2.108413 0.4290186
v 0.3300295 -2.286303 0.3300186
v 0.621122 -1.599931 -0.6015778
v 0.621122 -1.499931 -0.6015778
v -0.6210626 -1.499931 -0.6015779
v -0.6210626 -1.599931 -0.6015779
v -0.6210626 -1.599931 -0.6015779
v -0.6210626 -1.499931 -0.6015779
v -0.6210628 -1.499931 0.6016146
v -0.6210628 -1.599931 0.6016146
v 0.6211218 -1.599931 0.6016148
v 0.6211219 -1.499931 0.6016148
v 0.621122 -1.499931 -0.6015778
v 0.621122 -1.599931 -0.6015778
v -0.4999706 -1.499931 -0.4999819
v -0.6210626 -1.499931 -0.6015779
v 0.621122 -1.499931 -0.6015778
v 0.5000299 -1.499931 -0.4999818
v 0.6211219 -1.499931 0.6016148
v 0.5000298 -1.499931 0.5000187
v -0.6210628 -1.499931 0.6016146
v -0.4999707 -1.499931 0.5000186
v 0.5000299 -1.599931 -0.4999818
v 0.621122 -1.599931 -0.6015778
v -0.6210626 -1.599931 -0.6015779
v -0.4999706 -1.599931 -0.4999819
v 0.5000298 -1.599931 0.5000187
v -0.6210628 -1.599931 0.6016146
v 0.6211218 -1.599931 0.6016148
v -0.4999707 -1.599931 0.5000186
vt 0.65625 0.09375
vt 0.65625 0.09375
vt 0.65625 0.09375
vt 0.65625 0.09375
vt 0.65625 0.09375
vt 0.65625 0.09375
vt 0.65625 0.09375
vt 0.65625 0.09375
vt 0.65625 0.09375
vt 0.65625 0.09375
vt 0.65625 0.09375
vt 0.65625 0.09375
vt 0.65625 0.09375
vt 0.65625 0.09375
vt 0.65625 0.09375
vt 0.65625 0.09375
vt 0.65625 0.09375
vt 0.65625 0.09375
vt 0.65625 0.09375
vt 0.65625 0.09375
vt 0.65625 0.09375
vt 0.65625 0.09375
vt 0.65625 0.09375
vt 0.65625 0.09375
vt 0.65625 0.09375
vt 0.65625 0.09375
vt 0.65625 0.09375
vt 0.65625 0.09375
vt 0.65625 0.09375
vt 0.65625 0.09375
vt 0.65625 0.09375
vt 0.65625 0.09375
vt 0.65625 0.09375
vt 0.65625 0.09375
vt 0.65625 0.09375
vt 0.65625 0.09375
vt 0.65625 0.09375
vt 0.65625 0.09375
vt 0.65625 0.09375
vt 0.65625 0.09375
vt 0.65625 0.09375
vt 0.65625 0.09375
vt 0.65625 0.09375
vt 0.65625 0.09375
vt 0.65625 0.09375
vt 0.65625 0.09375
vt 0.65625 0.09375
vt 0.65625 0.09375
vt 0.65625 0.09375
vt 0.65625 0.09375
vt 0.65625 0.09375
vt 0.65625 0.09375
vt 0.65625 0.09375
vt 0.65625 0.09375
vt 0.65625 0.09375
vt 0.65625 0.09375
vt 0.65625 0.09375
vt 0.65625 0.09375
vt 0.65625 0.09375
vt 0.65625 0.09375
vt 0.65625 0.09375
vt 0.65625 0.09375
vt 0.65625 0.09375
vt 0.65625 0.09375
vt 0.65625 0.09375
vt 0.65625 0.09375
vt 0.65625 0.09375
vt 0.65625 0.09375
vt 0.65625 0.09375
vt 0.65625 0.09375
vt 0.65625 0.09375
vt 0.65625 0.09375
vt 0.65625 0.09375
vt 0.65625 0.09375
vt 0.65625 0.09375
vt 0.65625 0.09375
vt 0.65625 0.09375
vt 0.65625 0.09375
vt 0.65625 0.09375
vt 0.65625 0.09375
vt 0.65625 0.09375
vt 0.65625 0.09375
vt 0.65625 0.09375
vt 0.65625 0.09375
vt 0.65625 0.09375
vt 0.65625 0.09375
vt 0.65625 0.09375
vt 0.65625 0.09375
vt 0.65625 0.09375
vt 0.65625 0.09375
vt 0.65625 0.09375
vt 0.65625 0.09375
vt 0.65625 0.09375
vt 0.65625 0.09375
vt 0.65625 0.09375
vt 0.65625 0.09375
vt 0.65625 0.09375
vt 0.65625 0.09375
vt 0.65625 0.09375
vt 0.65625 0.09375
vt 0.65625 0.09375
vt 0.65625 0.09375
vt 0.65625 0.09375
vt 0.65625 0.09375
vt 0.65625 0.09375
vt 0.65625 0.09375
vt 0.65625 0.09375
vt 0.65625 0.09375
vt 0.65625 0.09375
vt 0.65625 0.09375
vt 0.65625 0.09375
vt 0.65625 0.09375
vt 0.65625 0.09375
vt 0.65625 0.09375
vt 0.65625 0.09375
vt 0.65625 0.09375
vn -3.258416E-07 -1 -6.84982E-14
vn -3.258416E-07 -1 -6.84982E-14
vn -3.258416E-07 -1 -6.84982E-14
vn -3.258416E-07 -1 -6.84982E-14
vn 0.9982457 -0.05920717 1.190002E-07
vn 0.9982457 -0.05920717 1.190002E-07
vn 0.9982457 -0.05920717 1.190002E-07
vn 0.9982457 -0.05920717 1.190002E-07
vn 9.970811E-08 -0.05920685 -0.9982457
vn 9.970811E-08 -0.05920685 -0.9982457
vn 9.970811E-08 -0.05920685 -0.9982457
vn 9.970811E-08 -0.05920685 -0.9982457
vn -0.9982458 -0.05920653 -1.190002E-07
vn -0.9982458 -0.05920653 -1.190002E-07
vn -0.9982458 -0.05920653 -1.190002E-07
vn -0.9982458 -0.05920653 -1.190002E-07
vn -1.382922E-07 -0.05920685 0.9982457
vn -1.382922E-07 -0.05920685 0.9982457
vn -1.382922E-07 -0.05920685 0.9982457
vn -1.382922E-07 -0.05920685 0.9982457
vn -0.5370831 -0.8435293 -6.402533E-08
vn -0.5370831 -0.8435293 -6.402533E-08
vn -0.5370831 -0.8435293 -6.402533E-08
vn -0.5370831 -0.8435293 -6.402533E-08
vn -1.906993E-07 -0.2291346 0.9733948
vn -1.906993E-07 -0.2291346 0.9733948
vn -1.906993E-07 -0.2291346 0.9733948
vn -1.906993E-07 -0.2291346 0.9733948
vn -2.108318E-07 -0.8435295 -0.5370829
vn -2.108318E-07 -0.8435295 -0.5370829
vn -2.108318E-07 -0.8435295 -0.5370829
vn -2.108318E-07 -0.8435295 -0.5370829
vn 4.137611E-08 -0.2291346 -0.9733948
vn 4.137611E-08 -0.2291346 -0.9733948
vn 4.137611E-08 -0.2291346 -0.9733948
vn 4.137611E-08 -0.2291346 -0.9733948
vn 0.5370826 -0.8435297 6.402522E-08
vn 0.5370826 -0.8435297 6.402522E-08
vn 0.5370826 -0.8435297 6.402522E-08
vn 0.5370826 -0.8435297 6.402522E-08
vn -2.893881E-07 -0.5937413 0.804656
vn -2.893881E-07 -0.5937413 0.804656
vn -2.893881E-07 -0.5937413 0.804656
vn -2.893881E-07 -0.5937413 0.804656
vn -0.9733948 -0.2291343 -1.160377E-07
vn -0.9733948 -0.2291343 -1.160377E-07
vn -0.9733948 -0.2291343 -1.160377E-07
vn -0.9733948 -0.2291343 -1.160377E-07
vn 0.9733947 -0.2291349 1.160377E-07
vn 0.9733947 -0.2291349 1.160377E-07
vn 0.9733947 -0.2291349 1.160377E-07
vn 0.9733947 -0.2291349 1.160377E-07
vn -0.8737959 -0.4862929 -1.041646E-07
vn -0.8737959 -0.4862929 -1.041646E-07
vn -0.8737959 -0.4862929 -1.041646E-07
vn -0.8737959 -0.4862929 -1.041646E-07
vn 0.8046558 -0.5937415 9.592245E-08
vn 0.8046558 -0.5937415 9.592245E-08
vn 0.8046558 -0.5937415 9.592245E-08
vn 0.8046558 -0.5937415 9.592245E-08
vn -9.754316E-08 -0.5937413 -0.804656
vn -9.754316E-08 -0.5937413 -0.804656
vn -9.754316E-08 -0.5937413 -0.804656
vn -9.754316E-08 -0.5937413 -0.804656
vn -0.8046562 -0.5937411 -9.592252E-08
vn -0.8046562 -0.5937411 -9.592252E-08
vn -0.8046562 -0.5937411 -9.592252E-08
vn -0.8046562 -0.5937411 -9.592252E-08
vn 0.8737955 -0.4862935 1.041645E-07
vn 0.8737955 -0.4862935 1.041645E-07
vn 0.8737955 -0.4862935 1.041645E-07
vn 0.8737955 -0.4862935 1.041645E-07
vn -5.429E-08 -0.4862932 -0.8737957
vn -5.429E-08 -0.4862932 -0.8737957
vn -5.429E-08 -0.4862932 -0.8737957
vn -5.429E-08 -0.4862932 -0.8737957
vn -1.192093E-07 2.654739E-15 1
vn -1.192093E-07 2.654739E-15 1
vn -1.192093E-07 2.654739E-15 1
vn -1.192093E-07 2.654739E-15 1
vn -3.388823E-07 -0.8435295 0.5370829
vn -3.388823E-07 -0.8435295 0.5370829
vn -3.388823E-07 -0.8435295 0.5370829
vn -3.388823E-07 -0.8435295 0.5370829
vn -2.626191E-07 -0.4862932 0.8737957
vn -2.626191E-07 -0.4862932 0.8737957
vn -2.626191E-07 -0.4862932 0.8737957
vn -2.626191E-07 -0.4862932 0.8737957
vn 1.192093E-07 -2.654739E-15 -1
vn 1.192093E-07 -2.654739E-15 -1
vn 1.192093E-07 -2.654739E-15 -1
vn 1.192093E-07 -2.654739E-15 -1
vn -1 3.258412E-07 -1.192093E-07
vn -1 3.258412E-07 -1.192093E-07
vn -1 3.258412E-07 -1.192093E-07
vn -1 3.258412E-07 -1.192093E-07
vn 1 -3.258412E-07 1.192093E-07
vn 1 -3.258412E-07 1.192093E-07
vn 1 -3.258412E-07 1.192093E-07
vn 1 -3.258412E-07 1.192093E-07
vn 3.258416E-07 1 6.84982E-14
vn 3.258416E-07 1 6.84982E-14
vn 3.258416E-07 1 6.84982E-14
vn 3.258416E-07 1 6.84982E-14
vn 3.258416E-07 1 6.84982E-14
vn 3.258416E-07 1 6.84982E-14
vn 3.258416E-07 1 6.84982E-14
vn 3.258416E-07 1 6.84982E-14
vn -3.258416E-07 -1 -6.84982E-14
vn -3.258416E-07 -1 -6.84982E-14
vn -3.258416E-07 -1 -6.84982E-14
vn -3.258416E-07 -1 -6.84982E-14
vn -3.258416E-07 -1 -6.84982E-14
vn -3.258416E-07 -1 -6.84982E-14
vn -3.258416E-07 -1 -6.84982E-14
vn -3.258416E-07 -1 -6.84982E-14
g _Combined_Vis1_1_0
f 3/3/3 2/2/2 1/1/1
f 4/4/4 3/3/3 1/1/1
f 7/7/7 6/6/6 5/5/5
f 8/8/8 7/7/7 5/5/5
f 11/11/11 10/10/10 9/9/9
f 12/12/12 11/11/11 9/9/9
f 15/15/15 14/14/14 13/13/13
f 16/16/16 15/15/15 13/13/13
f 19/19/19 18/18/18 17/17/17
f 20/20/20 19/19/19 17/17/17
f 23/23/23 22/22/22 21/21/21
f 24/24/24 23/23/23 21/21/21
f 27/27/27 26/26/26 25/25/25
f 28/28/28 27/27/27 25/25/25
f 31/31/31 30/30/30 29/29/29
f 32/32/32 31/31/31 29/29/29
f 35/35/35 34/34/34 33/33/33
f 36/36/36 35/35/35 33/33/33
f 39/39/39 38/38/38 37/37/37
f 40/40/40 39/39/39 37/37/37
f 43/43/43 42/42/42 41/41/41
f 44/44/44 43/43/43 41/41/41
f 47/47/47 46/46/46 45/45/45
f 48/48/48 47/47/47 45/45/45
f 51/51/51 50/50/50 49/49/49
f 52/52/52 51/51/51 49/49/49
f 55/55/55 54/54/54 53/53/53
f 56/56/56 55/55/55 53/53/53
f 59/59/59 58/58/58 57/57/57
f 60/60/60 59/59/59 57/57/57
f 63/63/63 62/62/62 61/61/61
f 64/64/64 63/63/63 61/61/61
f 67/67/67 66/66/66 65/65/65
f 68/68/68 67/67/67 65/65/65
f 71/71/71 70/70/70 69/69/69
f 72/72/72 71/71/71 69/69/69
f 75/75/75 74/74/74 73/73/73
f 76/76/76 75/75/75 73/73/73
f 79/79/79 78/78/78 77/77/77
f 80/80/80 79/79/79 77/77/77
f 83/83/83 82/82/82 81/81/81
f 84/84/84 83/83/83 81/81/81
f 87/87/87 86/86/86 85/85/85
f 88/88/88 87/87/87 85/85/85
f 91/91/91 90/90/90 89/89/89
f 92/92/92 91/91/91 89/89/89
f 95/95/95 94/94/94 93/93/93
f 96/96/96 95/95/95 93/93/93
f 99/99/99 98/98/98 97/97/97
f 100/100/100 99/99/99 97/97/97
f 103/103/103 102/102/102 101/101/101
f 104/104/104 103/103/103 101/101/101
f 105/105/105 103/103/103 104/104/104
f 106/106/106 105/105/105 104/104/104
f 106/106/106 104/104/104 101/101/101
f 107/107/107 105/105/105 106/106/106
f 102/102/102 107/107/107 108/108/108
f 101/101/101 102/102/102 108/108/108
f 108/108/108 107/107/107 106/106/106
f 108/108/108 106/106/106 101/101/101
f 111/111/111 110/110/110 109/109/109
f 112/112/112 111/111/111 109/109/109
f 109/109/109 110/110/110 113/113/113
f 114/114/114 111/111/111 112/112/112
f 110/110/110 115/115/115 113/113/113
f 116/116/116 114/114/114 112/112/112
f 113/113/113 115/115/115 116/116/116
f 115/115/115 114/114/114 116/116/116
