g _Combined_Vis71_0
v -41.60004 2.5 -7.5
v -41.50004 3 -7.5
v -41.50004 2.5 -7.562191
v -42.50004 3.5 -8.157949
v -42.50004 3.361455 -8.500001
v -42.3572 3.5 -8.500001
v -41.50004 2.5 -8.500001
v -42.50004 3.361455 -8.500001
v -42.50004 2.5 -8.500001
v -41.50004 3.5 -8.500001
v -42.3572 3.5 -8.500001
v -41.50004 3.5 -7.500001
v -42.50004 2.5 -7.5
v -42.50004 3.5 -7.500001
v -41.50004 3 -7.5
v -41.60004 2.5 -7.5
v -41.50004 3.5 -8.500001
v -41.50004 2.5 -8.500001
v -41.50004 3.5 -7.500001
v -41.50004 2.5 -7.562191
v -41.50004 3 -7.5
v -42.50004 2.5 -8.500001
v -41.50004 2.5 -7.562191
v -41.50004 2.5 -8.500001
v -42.50004 2.5 -7.5
v -41.60004 2.5 -7.5
v -42.50004 3.361455 -8.500001
v -42.50004 2.5 -7.5
v -42.50004 2.5 -8.500001
v -42.50004 3.5 -8.157949
v -42.50004 3.5 -7.500001
v -41.50004 3.5 -8.500001
v -42.50004 3.5 -8.157949
v -42.3572 3.5 -8.500001
v -41.50004 3.5 -7.500001
v -42.50004 3.5 -7.500001
v -42.50003 2.443276 -8.400013
v -42.50003 2.943276 -8.500012
v -42.56222 2.443276 -8.500012
v -43.15797 3.443276 -7.500012
v -43.50003 3.304732 -7.500012
v -43.50003 3.443276 -7.642848
v -43.50003 2.443276 -8.500012
v -43.50003 3.304732 -7.500012
v -43.50003 2.443276 -7.500012
v -43.50003 3.443276 -8.500012
v -43.50003 3.443276 -7.642848
v -42.50003 3.443276 -8.500012
v -42.50003 2.443276 -7.500012
v -42.50003 3.443276 -7.500012
v -42.50003 2.943276 -8.500012
v -42.50003 2.443276 -8.400013
v -43.50003 3.443276 -8.500012
v -43.50003 2.443276 -8.500012
v -42.50003 3.443276 -8.500012
v -42.56222 2.443276 -8.500012
v -42.50003 2.943276 -8.500012
v -43.50003 2.443276 -7.500012
v -42.56222 2.443276 -8.500012
v -43.50003 2.443276 -8.500012
v -42.50003 2.443276 -7.500012
v -42.50003 2.443276 -8.400013
v -43.50003 3.304732 -7.500012
v -42.50003 2.443276 -7.500012
v -43.50003 2.443276 -7.500012
v -43.15797 3.443276 -7.500012
v -42.50003 3.443276 -7.500012
v -43.50003 3.443276 -8.500012
v -43.15797 3.443276 -7.500012
v -43.50003 3.443276 -7.642848
v -42.50003 3.443276 -8.500012
v -42.50003 3.443276 -7.500012
v -43.60004 2.5 -7.500002
v -43.50004 3 -7.500002
v -43.50004 2.5 -7.562193
v -44.50004 3.5 -8.157951
v -44.50004 3.361455 -8.500003
v -44.3572 3.5 -8.500003
v -43.50004 2.5 -8.500003
v -44.50004 3.361455 -8.500003
v -44.50004 2.5 -8.500003
v -43.50004 3.5 -8.500003
v -44.3572 3.5 -8.500003
v -43.50004 3.5 -7.500003
v -44.50004 2.5 -7.500002
v -44.50004 3.5 -7.500003
v -43.50004 3 -7.500002
v -43.60004 2.5 -7.500002
v -43.50004 3.5 -8.500003
v -43.50004 2.5 -8.500003
v -43.50004 3.5 -7.500003
v -43.50004 2.5 -7.562193
v -43.50004 3 -7.500002
v -44.50004 2.5 -8.500003
v -43.50004 2.5 -7.562193
v -43.50004 2.5 -8.500003
v -44.50004 2.5 -7.500002
v -43.60004 2.5 -7.500002
v -44.50004 3.361455 -8.500003
v -44.50004 2.5 -7.500002
v -44.50004 2.5 -8.500003
v -44.50004 3.5 -8.157951
v -44.50004 3.5 -7.500003
v -43.50004 3.5 -8.500003
v -44.50004 3.5 -8.157951
v -44.3572 3.5 -8.500003
v -43.50004 3.5 -7.500003
v -44.50004 3.5 -7.500003
v -40.50004 3.5 -8.500001
v -40.50004 2.5 -8.499999
v -40.50004 2.5 -7.5
v -40.50004 3.5 -7.5
v -41.50004 2.5 -8.500001
v -40.50004 2.5 -8.499999
v -40.50004 3.5 -8.500001
v -41.50004 3.5 -8.500001
v -40.75004 3.5 -7.625
v -40.75004 3.375 -7.625
v -40.62504 3.375 -7.75
v -40.62504 3.5 -7.75
v -41.25004 3.5 -8.375
v -41.25004 3.375 -8.375
v -41.37504 3.375 -8.25
v -41.37504 3.5 -8.25
v -41.37504 3.5 -7.75
v -41.37504 3.375 -7.75
v -41.25004 3.375 -7.625
v -41.25004 3.5 -7.625
v -41.25004 3.5 -7.625
v -41.25004 3.375 -7.625
v -40.75004 3.375 -7.625
v -40.75004 3.5 -7.625
v -40.62504 3.5 -8.25
v -40.62504 3.375 -8.25
v -40.75004 3.375 -8.375
v -40.75004 3.5 -8.375
v -41.37504 3.5 -8.25
v -41.37504 3.375 -8.25
v -41.37504 3.375 -7.75
v -41.37504 3.5 -7.75
v -40.75004 3.5 -8.375
v -40.75004 3.375 -8.375
v -41.25004 3.375 -8.375
v -41.25004 3.5 -8.375
v -40.62504 3.5 -7.75
v -40.62504 3.375 -7.75
v -40.62504 3.375 -8.25
v -40.62504 3.5 -8.25
v -41.25004 3.5 -7.625
v -41.50004 3.5 -7.500001
v -41.37504 3.5 -7.75
v -40.75004 3.5 -7.625
v -41.50004 3.5 -8.500001
v -41.37504 3.5 -8.25
v -41.25004 3.5 -8.375
v -40.50004 3.5 -7.5
v -40.62504 3.5 -7.75
v -40.62504 3.5 -8.25
v -40.50004 3.5 -8.500001
v -40.75004 3.5 -8.375
vt 0.4092392 0.3508422
vt 0.3060093 0.3556448
vt 0.4057527 0.3752213
vt 0.4006042 0.4319752
vt 0.3198077 0.396652
vt 0.3132747 0.4441147
vt 0.546875 0.203125
vt 0.421875 0.310807
vt 0.421875 0.203125
vt 0.546875 0.328125
vt 0.4397295 0.328125
vt 0.546875 0.328125
vt 0.421875 0.203125
vt 0.421875 0.328125
vt 0.546875 0.265625
vt 0.534375 0.203125
vt 0.421875 0.328125
vt 0.421875 0.203125
vt 0.296875 0.328125
vt 0.3046488 0.203125
vt 0.296875 0.265625
vt 0.546875 0.328125
vt 0.421875 0.4453512
vt 0.421875 0.328125
vt 0.546875 0.453125
vt 0.434375 0.453125
vt 0.421875 0.310807
vt 0.296875 0.203125
vt 0.421875 0.203125
vt 0.3791185 0.328125
vt 0.296875 0.328125
vt 0.546875 0.453125
vt 0.421875 0.4103685
vt 0.4397295 0.453125
vt 0.546875 0.328125
vt 0.421875 0.328125
vt 0.4092392 0.3508422
vt 0.3060093 0.3556448
vt 0.4057527 0.3752213
vt 0.4006042 0.4319752
vt 0.3198077 0.396652
vt 0.3132747 0.4441147
vt 0.546875 0.203125
vt 0.421875 0.310807
vt 0.421875 0.203125
vt 0.546875 0.328125
vt 0.4397295 0.328125
vt 0.546875 0.328125
vt 0.421875 0.203125
vt 0.421875 0.328125
vt 0.546875 0.265625
vt 0.534375 0.203125
vt 0.421875 0.328125
vt 0.421875 0.203125
vt 0.296875 0.328125
vt 0.3046488 0.203125
vt 0.296875 0.265625
vt 0.546875 0.328125
vt 0.421875 0.4453512
vt 0.421875 0.328125
vt 0.546875 0.453125
vt 0.434375 0.453125
vt 0.421875 0.310807
vt 0.296875 0.203125
vt 0.421875 0.203125
vt 0.3791185 0.328125
vt 0.296875 0.328125
vt 0.546875 0.453125
vt 0.421875 0.4103685
vt 0.4397295 0.453125
vt 0.546875 0.328125
vt 0.421875 0.328125
vt 0.4092392 0.3508422
vt 0.3060093 0.3556448
vt 0.4057527 0.3752213
vt 0.4006042 0.4319752
vt 0.3198077 0.396652
vt 0.3132747 0.4441147
vt 0.546875 0.203125
vt 0.421875 0.310807
vt 0.421875 0.203125
vt 0.546875 0.328125
vt 0.4397295 0.328125
vt 0.546875 0.328125
vt 0.421875 0.203125
vt 0.421875 0.328125
vt 0.546875 0.265625
vt 0.534375 0.203125
vt 0.421875 0.328125
vt 0.421875 0.203125
vt 0.296875 0.328125
vt 0.3046488 0.203125
vt 0.296875 0.265625
vt 0.546875 0.328125
vt 0.421875 0.4453512
vt 0.421875 0.328125
vt 0.546875 0.453125
vt 0.434375 0.453125
vt 0.421875 0.310807
vt 0.296875 0.203125
vt 0.421875 0.203125
vt 0.3791185 0.328125
vt 0.296875 0.328125
vt 0.546875 0.453125
vt 0.421875 0.4103685
vt 0.4397295 0.453125
vt 0.546875 0.328125
vt 0.421875 0.328125
vt 0.734375 0.703125
vt 0.734375 0.640625
vt 0.671875 0.640625
vt 0.671875 0.703125
vt 0.734375 0.703125
vt 0.734375 0.640625
vt 0.671875 0.640625
vt 0.671875 0.703125
vt 0.7129688 0.6741897
vt 0.7129688 0.6692678
vt 0.7178906 0.6692678
vt 0.7178906 0.6741897
vt 0.6932812 0.6741897
vt 0.6932812 0.6692678
vt 0.6883594 0.6692678
vt 0.6883594 0.6741897
vt 0.6883594 0.6741897
vt 0.6883594 0.6692678
vt 0.6932812 0.6692678
vt 0.6932812 0.6741897
vt 0.6932812 0.6741897
vt 0.6932812 0.6692678
vt 0.7129688 0.6692678
vt 0.7129688 0.6741897
vt 0.7178906 0.6741897
vt 0.7178906 0.6692678
vt 0.7129688 0.6692678
vt 0.7129688 0.6741897
vt 0.7129688 0.6741897
vt 0.7129688 0.6692678
vt 0.6932812 0.6692678
vt 0.6932812 0.6741897
vt 0.7129688 0.6741897
vt 0.7129688 0.6692678
vt 0.6932812 0.6692678
vt 0.6932812 0.6741897
vt 0.6932812 0.6741897
vt 0.6932812 0.6692678
vt 0.7129688 0.6692678
vt 0.7129688 0.6741897
vt 0.6875 0.6484375
vt 0.671875 0.640625
vt 0.6796875 0.65625
vt 0.71875 0.6484375
vt 0.671875 0.703125
vt 0.6796875 0.6875
vt 0.6875 0.6953125
vt 0.734375 0.640625
vt 0.7265625 0.65625
vt 0.7265625 0.6875
vt 0.734375 0.703125
vt 0.71875 0.6953125
vn 0.5251714 -0.1050159 0.844492
vn 0.5251714 -0.1050159 0.844492
vn 0.5251714 -0.1050159 0.844492
vn -0.6685551 0.6892777 -0.2791599
vn -0.6685551 0.6892777 -0.2791599
vn -0.6685551 0.6892777 -0.2791599
vn 2.842169E-14 -1.192092E-07 -1
vn 2.842169E-14 -1.192092E-07 -1
vn 2.842169E-14 -1.192092E-07 -1
vn 2.842169E-14 -1.192092E-07 -1
vn 2.842169E-14 -1.192092E-07 -1
vn -2.842169E-14 1.192092E-07 1
vn -2.842169E-14 1.192092E-07 1
vn -2.842169E-14 1.192092E-07 1
vn -2.842169E-14 1.192092E-07 1
vn -2.842169E-14 1.192092E-07 1
vn 1 0 1.421083E-14
vn 1 0 1.421083E-14
vn 1 0 1.421083E-14
vn 1 0 1.421083E-14
vn 1 0 1.421083E-14
vn -1.694063E-21 -1 1.192093E-07
vn -1.694063E-21 -1 1.192093E-07
vn -1.694063E-21 -1 1.192093E-07
vn -1.694063E-21 -1 1.192093E-07
vn -1.694063E-21 -1 1.192093E-07
vn -1 0 -1.421083E-14
vn -1 0 -1.421083E-14
vn -1 0 -1.421083E-14
vn -1 0 -1.421083E-14
vn -1 0 -1.421083E-14
vn 1.694063E-21 1 -1.192093E-07
vn 1.694063E-21 1 -1.192093E-07
vn 1.694063E-21 1 -1.192093E-07
vn 1.694063E-21 1 -1.192093E-07
vn 1.694063E-21 1 -1.192093E-07
vn 0.844492 -0.1050161 -0.5251714
vn 0.844492 -0.1050161 -0.5251714
vn 0.844492 -0.1050161 -0.5251714
vn -0.2791597 0.6892779 0.6685551
vn -0.2791597 0.6892779 0.6685551
vn -0.2791597 0.6892779 0.6685551
vn -1 1.192092E-07 -1.421083E-14
vn -1 1.192092E-07 -1.421083E-14
vn -1 1.192092E-07 -1.421083E-14
vn -1 1.192092E-07 -1.421083E-14
vn -1 1.192092E-07 -1.421083E-14
vn 1 -1.192092E-07 1.421083E-14
vn 1 -1.192092E-07 1.421083E-14
vn 1 -1.192092E-07 1.421083E-14
vn 1 -1.192092E-07 1.421083E-14
vn 1 -1.192092E-07 1.421083E-14
vn 1.421083E-14 -1.192092E-07 -1
vn 1.421083E-14 -1.192092E-07 -1
vn 1.421083E-14 -1.192092E-07 -1
vn 1.421083E-14 -1.192092E-07 -1
vn 1.421083E-14 -1.192092E-07 -1
vn -1.192093E-07 -1 1.192093E-07
vn -1.192093E-07 -1 1.192093E-07
vn -1.192093E-07 -1 1.192093E-07
vn -1.192093E-07 -1 1.192093E-07
vn -1.192093E-07 -1 1.192093E-07
vn -1.421083E-14 1.192092E-07 1
vn -1.421083E-14 1.192092E-07 1
vn -1.421083E-14 1.192092E-07 1
vn -1.421083E-14 1.192092E-07 1
vn -1.421083E-14 1.192092E-07 1
vn 1.192093E-07 1 -1.192093E-07
vn 1.192093E-07 1 -1.192093E-07
vn 1.192093E-07 1 -1.192093E-07
vn 1.192093E-07 1 -1.192093E-07
vn 1.192093E-07 1 -1.192093E-07
vn 0.5251714 -0.1050159 0.844492
vn 0.5251714 -0.1050159 0.844492
vn 0.5251714 -0.1050159 0.844492
vn -0.6685551 0.6892777 -0.2791599
vn -0.6685551 0.6892777 -0.2791599
vn -0.6685551 0.6892777 -0.2791599
vn 2.842169E-14 -1.192092E-07 -1
vn 2.842169E-14 -1.192092E-07 -1
vn 2.842169E-14 -1.192092E-07 -1
vn 2.842169E-14 -1.192092E-07 -1
vn 2.842169E-14 -1.192092E-07 -1
vn -2.842169E-14 1.192092E-07 1
vn -2.842169E-14 1.192092E-07 1
vn -2.842169E-14 1.192092E-07 1
vn -2.842169E-14 1.192092E-07 1
vn -2.842169E-14 1.192092E-07 1
vn 1 0 1.421083E-14
vn 1 0 1.421083E-14
vn 1 0 1.421083E-14
vn 1 0 1.421083E-14
vn 1 0 1.421083E-14
vn -1.694063E-21 -1 1.192093E-07
vn -1.694063E-21 -1 1.192093E-07
vn -1.694063E-21 -1 1.192093E-07
vn -1.694063E-21 -1 1.192093E-07
vn -1.694063E-21 -1 1.192093E-07
vn -1 0 -1.421083E-14
vn -1 0 -1.421083E-14
vn -1 0 -1.421083E-14
vn -1 0 -1.421083E-14
vn -1 0 -1.421083E-14
vn 1.694063E-21 1 -1.192093E-07
vn 1.694063E-21 1 -1.192093E-07
vn 1.694063E-21 1 -1.192093E-07
vn 1.694063E-21 1 -1.192093E-07
vn 1.694063E-21 1 -1.192093E-07
vn 1 0 -1.192092E-07
vn 1 0 -1.192092E-07
vn 1 0 -1.192092E-07
vn 1 0 -1.192092E-07
vn 5.684339E-14 0 -1
vn 5.684339E-14 0 -1
vn 5.684339E-14 0 -1
vn 5.684339E-14 0 -1
vn -0.7071068 -8.429365E-08 -0.7071068
vn -0.7071068 -8.429365E-08 -0.7071068
vn -0.7071068 -8.429365E-08 -0.7071068
vn -0.7071068 -8.429365E-08 -0.7071068
vn 0.7071068 8.429365E-08 0.7071068
vn 0.7071068 8.429365E-08 0.7071068
vn 0.7071068 8.429365E-08 0.7071068
vn 0.7071068 8.429365E-08 0.7071068
vn 0.7071068 -8.429365E-08 -0.7071068
vn 0.7071068 -8.429365E-08 -0.7071068
vn 0.7071068 -8.429365E-08 -0.7071068
vn 0.7071068 -8.429365E-08 -0.7071068
vn 2.842169E-14 -1.192092E-07 -1
vn 2.842169E-14 -1.192092E-07 -1
vn 2.842169E-14 -1.192092E-07 -1
vn 2.842169E-14 -1.192092E-07 -1
vn -0.7071068 8.429365E-08 0.7071068
vn -0.7071068 8.429365E-08 0.7071068
vn -0.7071068 8.429365E-08 0.7071068
vn -0.7071068 8.429365E-08 0.7071068
vn 1 0 1.421083E-14
vn 1 0 1.421083E-14
vn 1 0 1.421083E-14
vn 1 0 1.421083E-14
vn -2.842169E-14 1.192092E-07 1
vn -2.842169E-14 1.192092E-07 1
vn -2.842169E-14 1.192092E-07 1
vn -2.842169E-14 1.192092E-07 1
vn -1 0 -1.421083E-14
vn -1 0 -1.421083E-14
vn -1 0 -1.421083E-14
vn -1 0 -1.421083E-14
vn 1.694063E-21 1 -1.192093E-07
vn 1.694063E-21 1 -1.192093E-07
vn 1.694063E-21 1 -1.192093E-07
vn 1.694063E-21 1 -1.192093E-07
vn 1.694063E-21 1 -1.192093E-07
vn 1.694063E-21 1 -1.192093E-07
vn 1.694063E-21 1 -1.192093E-07
vn 1.694063E-21 1 -1.192093E-07
vn 1.694063E-21 1 -1.192093E-07
vn 1.694063E-21 1 -1.192093E-07
vn 1.694063E-21 1 -1.192093E-07
vn 1.694063E-21 1 -1.192093E-07
g _Combined_Vis71_0_0
f 3/3/3 2/2/2 1/1/1
f 6/6/6 5/5/5 4/4/4
f 9/9/9 8/8/8 7/7/7
f 7/7/7 8/8/8 10/10/10
f 10/10/10 8/8/8 11/11/11
f 14/14/14 13/13/13 12/12/12
f 13/13/13 15/15/15 12/12/12
f 16/16/16 15/15/15 13/13/13
f 19/19/19 18/18/18 17/17/17
f 20/20/20 18/18/18 19/19/19
f 21/21/21 20/20/20 19/19/19
f 24/24/24 23/23/23 22/22/22
f 22/22/22 23/23/23 25/25/25
f 23/23/23 26/26/26 25/25/25
f 29/29/29 28/28/28 27/27/27
f 27/27/27 28/28/28 30/30/30
f 30/30/30 28/28/28 31/31/31
f 34/34/34 33/33/33 32/32/32
f 32/32/32 33/33/33 35/35/35
f 33/33/33 36/36/36 35/35/35
f 39/39/39 38/38/38 37/37/37
f 42/42/42 41/41/41 40/40/40
f 45/45/45 44/44/44 43/43/43
f 43/43/43 44/44/44 46/46/46
f 46/46/46 44/44/44 47/47/47
f 50/50/50 49/49/49 48/48/48
f 49/49/49 51/51/51 48/48/48
f 52/52/52 51/51/51 49/49/49
f 55/55/55 54/54/54 53/53/53
f 56/56/56 54/54/54 55/55/55
f 57/57/57 56/56/56 55/55/55
f 60/60/60 59/59/59 58/58/58
f 58/58/58 59/59/59 61/61/61
f 59/59/59 62/62/62 61/61/61
f 65/65/65 64/64/64 63/63/63
f 63/63/63 64/64/64 66/66/66
f 66/66/66 64/64/64 67/67/67
f 70/70/70 69/69/69 68/68/68
f 68/68/68 69/69/69 71/71/71
f 69/69/69 72/72/72 71/71/71
f 75/75/75 74/74/74 73/73/73
f 78/78/78 77/77/77 76/76/76
f 81/81/81 80/80/80 79/79/79
f 79/79/79 80/80/80 82/82/82
f 82/82/82 80/80/80 83/83/83
f 86/86/86 85/85/85 84/84/84
f 85/85/85 87/87/87 84/84/84
f 88/88/88 87/87/87 85/85/85
f 91/91/91 90/90/90 89/89/89
f 92/92/92 90/90/90 91/91/91
f 93/93/93 92/92/92 91/91/91
f 96/96/96 95/95/95 94/94/94
f 94/94/94 95/95/95 97/97/97
f 95/95/95 98/98/98 97/97/97
f 101/101/101 100/100/100 99/99/99
f 99/99/99 100/100/100 102/102/102
f 102/102/102 100/100/100 103/103/103
f 106/106/106 105/105/105 104/104/104
f 104/104/104 105/105/105 107/107/107
f 105/105/105 108/108/108 107/107/107
f 111/111/111 110/110/110 109/109/109
f 112/112/112 111/111/111 109/109/109
f 115/115/115 114/114/114 113/113/113
f 116/116/116 115/115/115 113/113/113
f 119/119/119 118/118/118 117/117/117
f 120/120/120 119/119/119 117/117/117
f 123/123/123 122/122/122 121/121/121
f 124/124/124 123/123/123 121/121/121
f 127/127/127 126/126/126 125/125/125
f 128/128/128 127/127/127 125/125/125
f 131/131/131 130/130/130 129/129/129
f 132/132/132 131/131/131 129/129/129
f 135/135/135 134/134/134 133/133/133
f 136/136/136 135/135/135 133/133/133
f 139/139/139 138/138/138 137/137/137
f 140/140/140 139/139/139 137/137/137
f 143/143/143 142/142/142 141/141/141
f 144/144/144 143/143/143 141/141/141
f 147/147/147 146/146/146 145/145/145
f 148/148/148 147/147/147 145/145/145
f 151/151/151 150/150/150 149/149/149
f 149/149/149 150/150/150 152/152/152
f 150/150/150 151/151/151 153/153/153
f 151/151/151 154/154/154 153/153/153
f 153/153/153 154/154/154 155/155/155
f 150/150/150 156/156/156 152/152/152
f 152/152/152 156/156/156 157/157/157
f 157/157/157 156/156/156 158/158/158
f 153/153/153 155/155/155 159/159/159
f 156/156/156 159/159/159 158/158/158
f 155/155/155 160/160/160 159/159/159
f 158/158/158 159/159/159 160/160/160
