g _Combined_Vis0_0
v 61 -8 70.5
v 61 -9 70.5
v 61 -9 71.5
v 61 -8 71.5
v 61 -13 70.5
v 61 -14 70.5
v 61 -14 71.5
v 61 -13 71.5
v 60 -13 70.5
v 60 -14 70.5
v 61 -14 70.5
v 61 -13 70.5
v 61 -15 70.5
v 61 -14 70.5
v 60 -14 70.5
v 60 -15 70.5
v 61 -15 71.5
v 61 -14 71.5
v 61 -14 70.5
v 61 -15 70.5
v 61 -13 71.5
v 61 -12 71.5
v 61 -12 70.5
v 61 -13 70.5
v 61 -13 70.5
v 61 -12 70.5
v 60 -12 70.5
v 60 -13 70.5
v 60 -11 70.5
v 60 -12 70.5
v 61 -12 70.5
v 61 -11 70.5
v 61 -24.99999 71.5
v 61 -25.00001 70.5
v 61 -35 70.5
v 61 -35 71.5
v 61 -11 70.5
v 61 -12 70.5
v 61 -12 71.5
v 61 -11 71.5
v 61 -11 70.5
v 61 -10 70.5
v 60 -10 70.5
v 60 -11 70.5
v 60 -9 70.5
v 60 -10 70.5
v 61 -10 70.5
v 61 -9 70.5
v 61 -9 70.5
v 61 -10 70.5
v 61 -10 71.5
v 61 -9 71.5
v 60 -8 70.5
v 60 -9 70.5
v 61 -9 70.5
v 61 -8 70.5
v 61 -15 70.5
v 60 -15 70.5
v 60 -25 70.5
v 61 -25.00001 70.5
v 61 -15 71.5
v 61 -15 70.5
v 61 -25.00001 70.5
v 61 -24.99999 71.5
v 61 -11 71.5
v 61 -10 71.5
v 61 -10 70.5
v 61 -11 70.5
v 61 -25.00001 70.5
v 60 -25 70.5
v 60 -35 70.5
v 61 -35 70.5
v 60.125 -8 71.25
v 60.125 -8.125 71.25
v 60.25 -8.125 71.375
v 60.25 -8 71.375
v 60.875 -8 70.75
v 60.875 -8.125 70.75
v 60.75 -8.125 70.625
v 60.75 -8 70.625
v 60.25 -8 70.625
v 60.25 -8.125 70.625
v 60.125 -8.125 70.75
v 60.125 -8 70.75
v 60.125 -8 70.75
v 60.125 -8.125 70.75
v 60.125 -8.125 71.25
v 60.125 -8 71.25
v 60.75 -8 71.375
v 60.75 -8.125 71.375
v 60.875 -8.125 71.25
v 60.875 -8 71.25
v 60.75 -8 70.625
v 60.75 -8.125 70.625
v 60.25 -8.125 70.625
v 60.25 -8 70.625
v 60.875 -8 71.25
v 60.875 -8.125 71.25
v 60.875 -8.125 70.75
v 60.875 -8 70.75
v 60.25 -8 71.375
v 60.25 -8.125 71.375
v 60.75 -8.125 71.375
v 60.75 -8 71.375
v 60.125 -8 70.75
v 60 -8 70.5
v 60.25 -8 70.625
v 60.125 -8 71.25
v 61 -8 70.5
v 60.75 -8 70.625
v 60.875 -8 70.75
v 60 -8 71.5
v 60.25 -8 71.375
v 60.75 -8 71.375
v 61 -8 71.5
v 60.875 -8 71.25
vt 0.53125 0.609375
vt 0.53125 0.546875
vt 0.40625 0.546875
vt 0.40625 0.609375
vt 0.34375 0.515625
vt 0.34375 0.453125
vt 0.21875 0.453125
vt 0.21875 0.515625
vt 0.34375 0.515625
vt 0.34375 0.453125
vt 0.21875 0.453125
vt 0.21875 0.515625
vt 0.34375 0.515625
vt 0.34375 0.453125
vt 0.21875 0.453125
vt 0.21875 0.515625
vt 0.34375 0.515625
vt 0.34375 0.453125
vt 0.21875 0.453125
vt 0.21875 0.515625
vt 0.34375 0.515625
vt 0.34375 0.453125
vt 0.21875 0.453125
vt 0.21875 0.515625
vt 0.34375 0.515625
vt 0.34375 0.453125
vt 0.21875 0.453125
vt 0.21875 0.515625
vt 0.34375 0.515625
vt 0.34375 0.453125
vt 0.21875 0.453125
vt 0.21875 0.515625
vt 0.15625 0.109375
vt 0.15625 0.046875
vt 0.03125 0.046875
vt 0.03125 0.109375
vt 0.34375 0.515625
vt 0.34375 0.453125
vt 0.21875 0.453125
vt 0.21875 0.515625
vt 0.34375 0.515625
vt 0.34375 0.453125
vt 0.21875 0.453125
vt 0.21875 0.515625
vt 0.34375 0.515625
vt 0.34375 0.453125
vt 0.21875 0.453125
vt 0.21875 0.515625
vt 0.34375 0.515625
vt 0.34375 0.453125
vt 0.21875 0.453125
vt 0.21875 0.515625
vt 0.53125 0.609375
vt 0.53125 0.546875
vt 0.40625 0.546875
vt 0.40625 0.609375
vt 0.15625 0.109375
vt 0.15625 0.046875
vt 0.03125 0.046875
vt 0.03125 0.109375
vt 0.15625 0.109375
vt 0.15625 0.046875
vt 0.03125 0.046875
vt 0.03125 0.109375
vt 0.34375 0.515625
vt 0.34375 0.453125
vt 0.21875 0.453125
vt 0.21875 0.515625
vt 0.15625 0.109375
vt 0.15625 0.046875
vt 0.03125 0.046875
vt 0.03125 0.109375
vt 0.1134375 0.08043969
vt 0.1134375 0.07551781
vt 0.1232812 0.07551781
vt 0.1232812 0.08043969
vt 0.0740625 0.08043969
vt 0.0740625 0.07551781
vt 0.06421874 0.07551781
vt 0.06421874 0.08043969
vt 0.06421874 0.08043969
vt 0.06421874 0.07551781
vt 0.0740625 0.07551781
vt 0.0740625 0.08043969
vt 0.0740625 0.08043969
vt 0.0740625 0.07551781
vt 0.1134375 0.07551781
vt 0.1134375 0.08043969
vt 0.1232812 0.08043969
vt 0.1232812 0.07551781
vt 0.1134375 0.07551781
vt 0.1134375 0.08043969
vt 0.1134375 0.08043969
vt 0.1134375 0.07551781
vt 0.0740625 0.07551781
vt 0.0740625 0.08043969
vt 0.1134375 0.08043969
vt 0.1134375 0.07551781
vt 0.0740625 0.07551781
vt 0.0740625 0.08043969
vt 0.0740625 0.08043969
vt 0.0740625 0.07551781
vt 0.1134375 0.07551781
vt 0.1134375 0.08043969
vt 0.0625 0.0546875
vt 0.03125 0.046875
vt 0.046875 0.0625
vt 0.125 0.0546875
vt 0.03125 0.109375
vt 0.046875 0.09375
vt 0.0625 0.1015625
vt 0.15625 0.046875
vt 0.140625 0.0625
vt 0.140625 0.09375
vt 0.15625 0.109375
vt 0.125 0.1015625
vn 1 -3.37597E-08 5.960464E-08
vn 1 -3.37597E-08 5.960464E-08
vn 1 -3.37597E-08 5.960464E-08
vn 1 -3.37597E-08 5.960464E-08
vn 1 0 -1.192093E-07
vn 1 0 -1.192093E-07
vn 1 0 -1.192093E-07
vn 1 0 -1.192093E-07
vn 0 0 -1
vn 0 0 -1
vn 0 0 -1
vn 0 0 -1
vn 0 0 -1
vn 0 0 -1
vn 0 0 -1
vn 0 0 -1
vn 1 0 -1.192093E-07
vn 1 0 -1.192093E-07
vn 1 0 -1.192093E-07
vn 1 0 -1.192093E-07
vn 1 -2.528811E-07 -3.576278E-07
vn 1 -2.528811E-07 -3.576278E-07
vn 1 -2.528811E-07 -3.576278E-07
vn 1 -2.528811E-07 -3.576278E-07
vn 0 0 -1
vn 0 0 -1
vn 0 0 -1
vn 0 0 -1
vn 0 0 -1
vn 0 0 -1
vn 0 0 -1
vn 0 0 -1
vn 1 0 0
vn 1 0 0
vn 1 0 0
vn 1 0 0
vn 1 0 -1.192093E-07
vn 1 0 -1.192093E-07
vn 1 0 -1.192093E-07
vn 1 0 -1.192093E-07
vn 0 0 -1
vn 0 0 -1
vn 0 0 -1
vn 0 0 -1
vn 0 0 -1
vn 0 0 -1
vn 0 0 -1
vn 0 0 -1
vn 1 0 -1.192093E-07
vn 1 0 -1.192093E-07
vn 1 0 -1.192093E-07
vn 1 0 -1.192093E-07
vn 0 0 -1
vn 0 0 -1
vn 0 0 -1
vn 0 0 -1
vn 0 0 -1
vn 0 0 -1
vn 0 0 -1
vn 0 0 -1
vn 1 0 0
vn 1 0 0
vn 1 0 0
vn 1 0 0
vn 1 -2.528811E-07 -3.576278E-07
vn 1 -2.528811E-07 -3.576278E-07
vn 1 -2.528811E-07 -3.576278E-07
vn 1 -2.528811E-07 -3.576278E-07
vn 0 0 -1
vn 0 0 -1
vn 0 0 -1
vn 0 0 -1
vn 0.7071068 -8.429369E-08 -0.7071068
vn 0.7071068 -8.429369E-08 -0.7071068
vn 0.7071068 -8.429369E-08 -0.7071068
vn 0.7071068 -8.429369E-08 -0.7071068
vn -0.7071068 8.429369E-08 0.7071068
vn -0.7071068 8.429369E-08 0.7071068
vn -0.7071068 8.429369E-08 0.7071068
vn -0.7071068 8.429369E-08 0.7071068
vn 0.7071068 -2.528811E-07 0.7071068
vn 0.7071068 -2.528811E-07 0.7071068
vn 0.7071068 -2.528811E-07 0.7071068
vn 0.7071068 -2.528811E-07 0.7071068
vn 1 -2.384186E-07 -1.192093E-07
vn 1 -2.384186E-07 -1.192093E-07
vn 1 -2.384186E-07 -1.192093E-07
vn 1 -2.384186E-07 -1.192093E-07
vn -0.7071068 2.528811E-07 -0.7071068
vn -0.7071068 2.528811E-07 -0.7071068
vn -0.7071068 2.528811E-07 -0.7071068
vn -0.7071068 2.528811E-07 -0.7071068
vn 0 -1.192093E-07 1
vn 0 -1.192093E-07 1
vn 0 -1.192093E-07 1
vn 0 -1.192093E-07 1
vn -1 2.384186E-07 1.192093E-07
vn -1 2.384186E-07 1.192093E-07
vn -1 2.384186E-07 1.192093E-07
vn -1 2.384186E-07 1.192093E-07
vn 0 1.192093E-07 -1
vn 0 1.192093E-07 -1
vn 0 1.192093E-07 -1
vn 0 1.192093E-07 -1
vn 1.192093E-07 1 0
vn 1.192093E-07 1 0
vn 1.192093E-07 1 0
vn 1.192093E-07 1 0
vn 1.192093E-07 1 0
vn 1.192093E-07 1 0
vn 1.192093E-07 1 0
vn 1.192093E-07 1 0
vn 1.192093E-07 1 0
vn 1.192093E-07 1 0
vn 1.192093E-07 1 0
vn 1.192093E-07 1 0
g _Combined_Vis0_0_0
f 3/3/3 2/2/2 1/1/1
f 4/4/4 3/3/3 1/1/1
f 7/7/7 6/6/6 5/5/5
f 8/8/8 7/7/7 5/5/5
f 11/11/11 10/10/10 9/9/9
f 12/12/12 11/11/11 9/9/9
f 15/15/15 14/14/14 13/13/13
f 16/16/16 15/15/15 13/13/13
f 19/19/19 18/18/18 17/17/17
f 20/20/20 19/19/19 17/17/17
f 23/23/23 22/22/22 21/21/21
f 24/24/24 23/23/23 21/21/21
f 27/27/27 26/26/26 25/25/25
f 28/28/28 27/27/27 25/25/25
f 31/31/31 30/30/30 29/29/29
f 32/32/32 31/31/31 29/29/29
f 35/35/35 34/34/34 33/33/33
f 36/36/36 35/35/35 33/33/33
f 39/39/39 38/38/38 37/37/37
f 40/40/40 39/39/39 37/37/37
f 43/43/43 42/42/42 41/41/41
f 44/44/44 43/43/43 41/41/41
f 47/47/47 46/46/46 45/45/45
f 48/48/48 47/47/47 45/45/45
f 51/51/51 50/50/50 49/49/49
f 52/52/52 51/51/51 49/49/49
f 55/55/55 54/54/54 53/53/53
f 56/56/56 55/55/55 53/53/53
f 59/59/59 58/58/58 57/57/57
f 60/60/60 59/59/59 57/57/57
f 63/63/63 62/62/62 61/61/61
f 64/64/64 63/63/63 61/61/61
f 67/67/67 66/66/66 65/65/65
f 68/68/68 67/67/67 65/65/65
f 71/71/71 70/70/70 69/69/69
f 72/72/72 71/71/71 69/69/69
f 75/75/75 74/74/74 73/73/73
f 76/76/76 75/75/75 73/73/73
f 79/79/79 78/78/78 77/77/77
f 80/80/80 79/79/79 77/77/77
f 83/83/83 82/82/82 81/81/81
f 84/84/84 83/83/83 81/81/81
f 87/87/87 86/86/86 85/85/85
f 88/88/88 87/87/87 85/85/85
f 91/91/91 90/90/90 89/89/89
f 92/92/92 91/91/91 89/89/89
f 95/95/95 94/94/94 93/93/93
f 96/96/96 95/95/95 93/93/93
f 99/99/99 98/98/98 97/97/97
f 100/100/100 99/99/99 97/97/97
f 103/103/103 102/102/102 101/101/101
f 104/104/104 103/103/103 101/101/101
f 107/107/107 106/106/106 105/105/105
f 105/105/105 106/106/106 108/108/108
f 106/106/106 107/107/107 109/109/109
f 107/107/107 110/110/110 109/109/109
f 109/109/109 110/110/110 111/111/111
f 106/106/106 112/112/112 108/108/108
f 108/108/108 112/112/112 113/113/113
f 113/113/113 112/112/112 114/114/114
f 109/109/109 111/111/111 115/115/115
f 112/112/112 115/115/115 114/114/114
f 111/111/111 116/116/116 115/115/115
f 114/114/114 115/115/115 116/116/116
