g _Combined_AutoVis67_0
v -0.5000151 -1.000001 -1.50001
v 0.4999855 -0.999999 -1.500009
v 0.4999856 1.192093E-07 -1.500009
v -0.500015 0 -1.50001
v -1.500014 1.013279E-06 1.499993
v -0.5000134 -8.940698E-07 1.499993
v -0.5000132 -1 1.499993
v -1.500014 -1 1.499993
v 0.4999871 1.013279E-06 1.499992
v 1.499988 -8.940698E-07 1.499992
v 1.499988 -1 1.499992
v 0.4999872 -1 1.499992
v 1.499988 0 0.4999899
v 1.499988 -1 0.4999919
v 1.499988 -1 1.499992
v 1.499988 -8.940698E-07 1.499992
v 1.499987 0 -1.500011
v 1.499987 -1 -1.500009
v 1.499986 -1 -0.5000097
v 1.499986 0 -0.5000097
v -1.500016 -1.000001 -1.500009
v -0.5000151 -1.000001 -1.50001
v -0.500015 0 -1.50001
v -1.500015 0 -1.500009
v 0.4999855 -0.999999 -1.500009
v 1.499987 -1 -1.500009
v 1.499987 0 -1.500011
v 0.4999856 1.192093E-07 -1.500009
v -0.5000297 -5.960464E-08 -0.5000249
v 0.4999709 5.960464E-08 -0.5000232
v 0.4999714 5.960464E-08 0.4999763
v -0.5000292 -5.960464E-08 0.4999767
v -1.500045 3.576279E-07 0.4999608
v -0.5000292 -5.960464E-08 0.4999767
v -0.5000134 -8.940698E-07 1.499993
v -1.500014 1.013279E-06 1.499993
v -1.500014 1.013279E-06 1.499993
v -1.500014 -1 1.499993
v -1.500013 -1 0.4999925
v -1.500045 3.576279E-07 0.4999608
v -0.5000292 -5.960464E-08 0.4999767
v 0.4999714 5.960464E-08 0.4999763
v 0.4999871 1.013279E-06 1.499992
v -0.5000134 -8.940698E-07 1.499993
v -1.500045 3.576279E-07 0.4999608
v -1.500013 -1 0.4999925
v -1.500014 -1 -0.500008
v -1.500014 0 -0.500008
v 1.499986 0 -0.5000097
v 1.499986 -1 -0.5000097
v 1.499988 -1 0.4999919
v 1.499988 0 0.4999899
v -0.500015 0 -1.50001
v -0.5000297 -5.960464E-08 -0.5000249
v -1.500014 0 -0.500008
v -1.500015 0 -1.500009
v 0.4999709 5.960464E-08 -0.5000232
v -0.5000297 -5.960464E-08 -0.5000249
v -0.500015 0 -1.50001
v 0.4999856 1.192093E-07 -1.500009
v 1.499986 0 -0.5000097
v 0.4999709 5.960464E-08 -0.5000232
v 0.4999856 1.192093E-07 -1.500009
v 1.499987 0 -1.500011
v -0.5000297 -5.960464E-08 -0.5000249
v -0.5000292 -5.960464E-08 0.4999767
v -1.500045 3.576279E-07 0.4999608
v -1.500014 0 -0.500008
v 0.4999714 5.960464E-08 0.4999763
v 0.4999709 5.960464E-08 -0.5000232
v 1.499986 0 -0.5000097
v 1.499988 0 0.4999899
v 0.4999871 1.013279E-06 1.499992
v 0.4999714 5.960464E-08 0.4999763
v 1.499988 0 0.4999899
v 1.499988 -8.940698E-07 1.499992
v -0.5000134 -8.940698E-07 1.499993
v 0.4999871 1.013279E-06 1.499992
v 0.4999872 -1 1.499992
v -0.5000132 -1 1.499993
v -1.500014 0 -0.500008
v -1.500014 -1 -0.500008
v -1.500016 -1.000001 -1.500009
v -1.500015 0 -1.500009
vt 0.75 0.15625
vt 0.75 0.03125
vt 0.625 0.03125
vt 0.625 0.15625
vt 0.75 0.15625
vt 0.75 0.03125
vt 0.625 0.03125
vt 0.625 0.15625
vt 0.75 0.15625
vt 0.75 0.03125
vt 0.625 0.03125
vt 0.625 0.15625
vt 0.75 0.15625
vt 0.75 0.03125
vt 0.625 0.03125
vt 0.625 0.15625
vt 0.75 0.15625
vt 0.75 0.03125
vt 0.625 0.03125
vt 0.625 0.15625
vt 0.75 0.15625
vt 0.75 0.03125
vt 0.625 0.03125
vt 0.625 0.15625
vt 0.75 0.15625
vt 0.75 0.03125
vt 0.625 0.03125
vt 0.625 0.15625
vt 0.96875 0.59375
vt 0.96875 0.46875
vt 0.84375 0.46875
vt 0.84375 0.59375
vt 0.375 0.34375
vt 0.375 0.21875
vt 0.25 0.21875
vt 0.25 0.34375
vt 0.75 0.15625
vt 0.75 0.03125
vt 0.625 0.03125
vt 0.625 0.15625
vt 0.96875 0.40625
vt 0.96875 0.28125
vt 0.84375 0.28125
vt 0.84375 0.40625
vt 0.75 0.15625
vt 0.75 0.03125
vt 0.625 0.03125
vt 0.625 0.15625
vt 0.75 0.15625
vt 0.75 0.03125
vt 0.625 0.03125
vt 0.625 0.15625
vt 0.375 0.34375
vt 0.375 0.21875
vt 0.25 0.21875
vt 0.25 0.34375
vt 0.96875 0.40625
vt 0.96875 0.28125
vt 0.84375 0.28125
vt 0.84375 0.40625
vt 0.375 0.34375
vt 0.375 0.21875
vt 0.25 0.21875
vt 0.25 0.34375
vt 0.96875 0.40625
vt 0.96875 0.28125
vt 0.84375 0.28125
vt 0.84375 0.40625
vt 0.96875 0.40625
vt 0.96875 0.28125
vt 0.84375 0.28125
vt 0.84375 0.40625
vt 0.375 0.34375
vt 0.375 0.21875
vt 0.25 0.21875
vt 0.25 0.34375
vt 0.75 0.15625
vt 0.75 0.03125
vt 0.625 0.03125
vt 0.625 0.15625
vt 0.75 0.15625
vt 0.75 0.03125
vt 0.625 0.03125
vt 0.625 0.15625
vn 9.343279E-07 0 -1
vn 9.343279E-07 0 -1
vn 9.343279E-07 0 -1
vn 9.343279E-07 0 -1
vn 3.258414E-07 0 1
vn 3.258414E-07 0 1
vn 3.258414E-07 0 1
vn 3.258414E-07 0 1
vn 3.258414E-07 0 1
vn 3.258414E-07 0 1
vn 3.258414E-07 0 1
vn 3.258414E-07 0 1
vn 1 0 1.072884E-06
vn 1 0 1.072884E-06
vn 1 0 1.072884E-06
vn 1 0 1.072884E-06
vn 1 0 1.072884E-06
vn 1 0 1.072884E-06
vn 1 0 1.072884E-06
vn 1 0 1.072884E-06
vn -3.258413E-07 0 -1
vn -3.258413E-07 0 -1
vn -3.258413E-07 0 -1
vn -3.258413E-07 0 -1
vn -3.258413E-07 0 -1
vn -3.258413E-07 0 -1
vn -3.258413E-07 0 -1
vn -3.258413E-07 0 -1
vn 4.96941E-21 1 -1.192093E-07
vn 4.96941E-21 1 -1.192093E-07
vn 4.96941E-21 1 -1.192093E-07
vn 4.96941E-21 1 -1.192093E-07
vn 7.450584E-07 1 -6.210653E-21
vn 7.450584E-07 1 -6.210653E-21
vn 7.450584E-07 1 -6.210653E-21
vn 7.450584E-07 1 -6.210653E-21
vn -1 0 -1.192093E-06
vn -1 0 -1.192093E-06
vn -1 0 -1.192093E-06
vn -1 0 -1.192093E-06
vn 7.450584E-07 1 -6.210653E-21
vn 7.450584E-07 1 -6.210653E-21
vn 7.450584E-07 1 -6.210653E-21
vn 7.450584E-07 1 -6.210653E-21
vn -1 0 -1.192093E-06
vn -1 0 -1.192093E-06
vn -1 0 -1.192093E-06
vn -1 0 -1.192093E-06
vn 1 0 8.940696E-07
vn 1 0 8.940696E-07
vn 1 0 8.940696E-07
vn 1 0 8.940696E-07
vn 4.96941E-21 1 -1.192093E-07
vn 4.96941E-21 1 -1.192093E-07
vn 4.96941E-21 1 -1.192093E-07
vn 4.96941E-21 1 -1.192093E-07
vn 6.25849E-07 1 -1.907349E-06
vn 6.25849E-07 1 -1.907349E-06
vn 6.25849E-07 1 -1.907349E-06
vn 6.25849E-07 1 -1.907349E-06
vn -8.642678E-07 1 -2.384187E-07
vn -8.642678E-07 1 -2.384187E-07
vn -8.642678E-07 1 -2.384187E-07
vn -8.642678E-07 1 -2.384187E-07
vn 4.96941E-21 1 -1.192093E-07
vn 4.96941E-21 1 -1.192093E-07
vn 4.96941E-21 1 -1.192093E-07
vn 4.96941E-21 1 -1.192093E-07
vn 8.914001E-07 1 -1.192093E-06
vn 8.914001E-07 1 -1.192093E-06
vn 8.914001E-07 1 -1.192093E-06
vn 8.914001E-07 1 -1.192093E-06
vn -1.460342E-06 1 -1.192094E-06
vn -1.460342E-06 1 -1.192094E-06
vn -1.460342E-06 1 -1.192094E-06
vn -1.460342E-06 1 -1.192094E-06
vn -9.343282E-07 0 1
vn -9.343282E-07 0 1
vn -9.343282E-07 0 1
vn -9.343282E-07 0 1
vn -1 0 -1.192093E-06
vn -1 0 -1.192093E-06
vn -1 0 -1.192093E-06
vn -1 0 -1.192093E-06
g _Combined_AutoVis67_0_0
f 3/3/3 2/2/2 1/1/1
f 4/4/4 3/3/3 1/1/1
f 7/7/7 6/6/6 5/5/5
f 8/8/8 7/7/7 5/5/5
f 11/11/11 10/10/10 9/9/9
f 12/12/12 11/11/11 9/9/9
f 15/15/15 14/14/14 13/13/13
f 16/16/16 15/15/15 13/13/13
f 19/19/19 18/18/18 17/17/17
f 20/20/20 19/19/19 17/17/17
f 23/23/23 22/22/22 21/21/21
f 24/24/24 23/23/23 21/21/21
f 27/27/27 26/26/26 25/25/25
f 28/28/28 27/27/27 25/25/25
f 31/31/31 30/30/30 29/29/29
f 32/32/32 31/31/31 29/29/29
f 35/35/35 34/34/34 33/33/33
f 36/36/36 35/35/35 33/33/33
f 39/39/39 38/38/38 37/37/37
f 40/40/40 39/39/39 37/37/37
f 43/43/43 42/42/42 41/41/41
f 44/44/44 43/43/43 41/41/41
f 47/47/47 46/46/46 45/45/45
f 48/48/48 47/47/47 45/45/45
f 51/51/51 50/50/50 49/49/49
f 52/52/52 51/51/51 49/49/49
f 55/55/55 54/54/54 53/53/53
f 56/56/56 55/55/55 53/53/53
f 59/59/59 58/58/58 57/57/57
f 60/60/60 59/59/59 57/57/57
f 63/63/63 62/62/62 61/61/61
f 64/64/64 63/63/63 61/61/61
f 67/67/67 66/66/66 65/65/65
f 68/68/68 67/67/67 65/65/65
f 71/71/71 70/70/70 69/69/69
f 72/72/72 71/71/71 69/69/69
f 75/75/75 74/74/74 73/73/73
f 76/76/76 75/75/75 73/73/73
f 79/79/79 78/78/78 77/77/77
f 80/80/80 79/79/79 77/77/77
f 83/83/83 82/82/82 81/81/81
f 84/84/84 83/83/83 81/81/81
