g _CombinedLessRain77_0
v -0.1724041 -0.1289178 3.39793E-07
v -0.1691253 -0.4376388 6.311329E-07
v -0.1756823 -0.4376388 6.276528E-07
v 0.2605646 -0.7292531 1.132747E-06
v 0.2638434 -1.037975 1.424088E-06
v 0.2572863 -1.037975 1.420608E-06
v 0.5767942 0.1588477 4.674949E-07
v 0.580073 -0.1498733 7.588348E-07
v 0.573515 -0.1498733 7.553541E-07
v -0.8564217 0.5660155 -6.751468E-07
v -0.8531429 0.2572946 -3.838069E-07
v -0.8597009 0.2572946 -3.872876E-07
v -0.214573 1.509925 -1.219926E-06
v -0.2112941 1.308157 -1.028915E-06
v -0.2178511 1.308157 -1.032395E-06
v 0.5700046 2.297908 -1.542681E-06
v 0.5732834 1.989186 -1.251341E-06
v 0.5667264 1.989186 -1.254821E-06
v -0.4192145 3.587502 -3.277439E-06
v -0.4159358 3.27878 -2.986098E-06
v -0.4224938 3.27878 -2.989579E-06
v 0.1673986 3.770003 -3.137286E-06
v 0.1706774 3.461282 -2.845946E-06
v 0.1641194 3.461282 -2.849426E-06
v -0.8885043 4.052783 -3.962982E-06
v -0.8852265 3.67186 -3.603913E-06
v -0.8917835 3.67186 -3.607393E-06
v 0.6627607 3.822146 -2.923281E-06
v 0.6660395 3.513424 -2.631941E-06
v 0.6594815 3.513424 -2.635422E-06
v -0.1976044 5.177874 -4.651686E-06
v -0.1943257 4.869153 -4.360346E-06
v -0.2008827 4.869153 -4.363826E-06
v 1.8163 -6.125465 1.18669E-05
v 1.819579 -6.434186 1.215824E-05
v 1.813022 -6.434186 1.215476E-05
v 2.249269 -6.725801 1.265985E-05
v 2.252548 -7.034522 1.295119E-05
v 2.245991 -7.034522 1.294771E-05
v 2.565498 -5.837699 1.19946E-05
v 2.568777 -6.14642 1.228594E-05
v 2.562219 -6.14642 1.228246E-05
v 1.132282 -5.430532 1.085196E-05
v 1.135561 -5.739253 1.11433E-05
v 1.129003 -5.739253 1.113982E-05
v 1.774131 -4.486622 1.030718E-05
v 1.77741 -4.68839 1.049819E-05
v 1.770853 -4.68839 1.049471E-05
v 2.558709 -3.69864 9.984425E-06
v 2.561988 -4.007361 1.027576E-05
v 2.555431 -4.007361 1.027228E-05
v 1.569489 -2.409045 8.249667E-06
v 1.572768 -2.717767 8.541007E-06
v 1.56621 -2.717767 8.537527E-06
v 2.156103 -2.226545 8.38982E-06
v 2.159381 -2.535266 8.681161E-06
v 2.152823 -2.535266 8.677679E-06
v 1.1002 -1.943764 7.564124E-06
v 1.103477 -2.324687 7.923193E-06
v 1.09692 -2.324687 7.919713E-06
v 2.651465 -2.174401 8.603824E-06
v 2.654744 -2.483123 8.895165E-06
v 2.648185 -2.483123 8.891684E-06
v 1.7911 -0.8186736 6.87542E-06
v 1.794378 -1.127395 7.16676E-06
v 1.787821 -1.127395 7.16328E-06
v -0.1724264 -6.125463 1.332162E-05
v -0.1691476 -6.434184 1.361296E-05
v -0.1757046 -6.434184 1.360948E-05
v 0.2605422 -6.725799 1.411457E-05
v 0.263821 -7.03452 1.440591E-05
v 0.257264 -7.03452 1.440243E-05
v 0.5767719 -5.837698 1.344932E-05
v 0.5800506 -6.146419 1.374066E-05
v 0.5734926 -6.146419 1.373718E-05
v -0.856444 -5.43053 1.230668E-05
v -0.8531652 -5.739251 1.259802E-05
v -0.8597232 -5.739251 1.259454E-05
v -0.2145953 -4.48662 1.17619E-05
v -0.2113164 -4.688388 1.195291E-05
v -0.2178734 -4.688388 1.194943E-05
v 0.5699823 -3.698638 1.143914E-05
v 0.5732611 -4.007359 1.173048E-05
v 0.5667042 -4.007359 1.1727E-05
v -0.4192369 -2.409044 9.704387E-06
v -0.4159581 -2.717766 9.995727E-06
v -0.4225161 -2.717766 9.992246E-06
v 0.1673763 -2.226543 9.84454E-06
v 0.1706551 -2.535264 1.013588E-05
v 0.1640971 -2.535264 1.01324E-05
v -0.8885266 -1.943762 9.018843E-06
v -0.8852489 -2.324685 9.377913E-06
v -0.8918059 -2.324685 9.374433E-06
v 0.6627384 -2.174399 1.005854E-05
v 0.6660172 -2.483121 1.034988E-05
v 0.6594592 -2.483121 1.03464E-05
v -0.1976268 -0.8186717 8.330139E-06
v -0.194348 -1.127393 8.62148E-06
v -0.200905 -1.127393 8.617999E-06
v 1.816305 -0.1289179 -1.331166E-07
v 1.819584 -0.4376389 1.408121E-10
v 1.813028 -0.4376389 -2.955864E-09
v 2.249275 -0.7292524 3.274816E-07
v 2.252554 -1.037974 4.607394E-07
v 2.245997 -1.037974 4.576427E-07
v 2.565503 0.1588489 9.793909E-08
v 2.568782 -0.1498721 2.311965E-07
v 2.562224 -0.1498721 2.280994E-07
v 1.132286 0.5660143 -7.526361E-07
v 1.135566 0.2572933 -6.193786E-07
v 1.129008 0.2572933 -6.224758E-07
v 1.774133 1.509925 -8.522077E-07
v 1.777413 1.308157 -7.645794E-07
v 1.770856 1.308157 -7.676761E-07
v 2.55871 2.297909 -8.178499E-07
v 2.561989 1.989188 -6.845925E-07
v 2.555432 1.989188 -6.876891E-07
v 1.569488 3.587502 -1.835206E-06
v 1.572768 3.27878 -1.701948E-06
v 1.56621 3.27878 -1.705045E-06
v 2.156101 3.770003 -1.636026E-06
v 2.15938 3.461282 -1.502768E-06
v 2.152822 3.461282 -1.505865E-06
v 1.100198 4.052782 -2.25534E-06
v 1.103476 3.671859 -2.09128E-06
v 1.096919 3.671859 -2.094376E-06
v 2.651463 3.822148 -1.424327E-06
v 2.654742 3.513426 -1.291069E-06
v 2.648185 3.513426 -1.294166E-06
v 1.791096 5.177874 -2.409043E-06
v 1.794375 4.869153 -2.275786E-06
v 1.787818 4.869153 -2.278882E-06
v -2.161113 -0.1289179 1.07272E-06
v -2.157834 -0.4376388 1.36406E-06
v -2.164391 -0.4376388 1.36058E-06
v -1.728144 -0.7292531 1.865675E-06
v -1.724866 -1.037975 2.157016E-06
v -1.731423 -1.037975 2.153535E-06
v -1.411915 0.1588476 1.200422E-06
v -1.408636 -0.1498734 1.491762E-06
v -1.415194 -0.1498734 1.488282E-06
v -2.845131 0.5660155 5.778065E-08
v -2.841852 0.2572945 3.491206E-07
v -2.84841 0.2572945 3.456398E-07
v -2.203282 1.509925 -4.869985E-07
v -2.200003 1.308157 -2.959872E-07
v -2.20656 1.308157 -2.994674E-07
v -1.418704 2.297907 -8.097537E-07
v -1.415426 1.989186 -5.184137E-07
v -1.421983 1.989186 -5.218939E-07
v -2.407923 3.587502 -2.544512E-06
v -2.404645 3.27878 -2.253171E-06
v -2.411203 3.27878 -2.256651E-06
v -1.82131 3.770003 -2.404358E-06
v -1.818032 3.461282 -2.113018E-06
v -1.82459 3.461282 -2.116499E-06
v -2.877213 4.052783 -3.230055E-06
v -2.873935 3.67186 -2.870985E-06
v -2.880492 3.67186 -2.874465E-06
v -1.325948 3.822146 -2.190354E-06
v -1.32267 3.513424 -1.899013E-06
v -1.329227 3.513424 -1.902494E-06
v -2.186313 5.177874 -3.918758E-06
v -2.183035 4.869153 -3.627419E-06
v -2.189592 4.869153 -3.630899E-06
v -2.161159 -6.125464 9.855348E-06
v -2.15788 -6.434185 1.014669E-05
v -2.164437 -6.434185 1.014321E-05
v -1.72819 -6.7258 1.06483E-05
v -1.724911 -7.034521 1.093964E-05
v -1.731468 -7.034521 1.093616E-05
v -1.41196 -5.837698 9.98305E-06
v -1.408682 -6.14642 1.027439E-05
v -1.41524 -6.14642 1.027091E-05
v -2.845176 -5.430531 8.840409E-06
v -2.841897 -5.739252 9.131749E-06
v -2.848455 -5.739252 9.128268E-06
v -2.203327 -4.486621 8.295629E-06
v -2.200049 -4.688389 8.486641E-06
v -2.206606 -4.688389 8.483161E-06
v -1.41875 -3.698639 7.972874E-06
v -1.415471 -4.00736 8.264215E-06
v -1.422028 -4.00736 8.260734E-06
v -2.407969 -2.409045 6.238116E-06
v -2.40469 -2.717767 6.529458E-06
v -2.411248 -2.717767 6.525977E-06
v -1.821356 -2.226544 6.37827E-06
v -1.818077 -2.535265 6.66961E-06
v -1.824635 -2.535265 6.666129E-06
v -2.877259 -1.943763 5.552574E-06
v -2.873981 -2.324686 5.911643E-06
v -2.880538 -2.324686 5.908163E-06
v -1.325994 -2.1744 6.592274E-06
v -1.322715 -2.483122 6.883615E-06
v -1.329273 -2.483122 6.880134E-06
v -2.186359 -0.8186727 4.863869E-06
v -2.18308 -1.127394 5.15521E-06
v -2.189637 -1.127394 5.15173E-06
vt 0 0
vt 0 0
vt 0 0
vt 0 0
vt 0 0
vt 0 0
vt 0 0
vt 0 0
vt 0 0
vt 0 0
vt 0 0
vt 0 0
vt 0 0
vt 0 0
vt 0 0
vt 0 0
vt 0 0
vt 0 0
vt 0 0
vt 0 0
vt 0 0
vt 0 0
vt 0 0
vt 0 0
vt 0 0
vt 0 0
vt 0 0
vt 0 0
vt 0 0
vt 0 0
vt 0 0
vt 0 0
vt 0 0
vt 0 0
vt 0 0
vt 0 0
vt 0 0
vt 0 0
vt 0 0
vt 0 0
vt 0 0
vt 0 0
vt 0 0
vt 0 0
vt 0 0
vt 0 0
vt 0 0
vt 0 0
vt 0 0
vt 0 0
vt 0 0
vt 0 0
vt 0 0
vt 0 0
vt 0 0
vt 0 0
vt 0 0
vt 0 0
vt 0 0
vt 0 0
vt 0 0
vt 0 0
vt 0 0
vt 0 0
vt 0 0
vt 0 0
vt 0 0
vt 0 0
vt 0 0
vt 0 0
vt 0 0
vt 0 0
vt 0 0
vt 0 0
vt 0 0
vt 0 0
vt 0 0
vt 0 0
vt 0 0
vt 0 0
vt 0 0
vt 0 0
vt 0 0
vt 0 0
vt 0 0
vt 0 0
vt 0 0
vt 0 0
vt 0 0
vt 0 0
vt 0 0
vt 0 0
vt 0 0
vt 0 0
vt 0 0
vt 0 0
vt 0 0
vt 0 0
vt 0 0
vt 0 0
vt 0 0
vt 0 0
vt 0 0
vt 0 0
vt 0 0
vt 0 0
vt 0 0
vt 0 0
vt 0 0
vt 0 0
vt 0 0
vt 0 0
vt 0 0
vt 0 0
vt 0 0
vt 0 0
vt 0 0
vt 0 0
vt 0 0
vt 0 0
vt 0 0
vt 0 0
vt 0 0
vt 0 0
vt 0 0
vt 0 0
vt 0 0
vt 0 0
vt 0 0
vt 0 0
vt 0 0
vt 0 0
vt 0 0
vt 0 0
vt 0 0
vt 0 0
vt 0 0
vt 0 0
vt 0 0
vt 0 0
vt 0 0
vt 0 0
vt 0 0
vt 0 0
vt 0 0
vt 0 0
vt 0 0
vt 0 0
vt 0 0
vt 0 0
vt 0 0
vt 0 0
vt 0 0
vt 0 0
vt 0 0
vt 0 0
vt 0 0
vt 0 0
vt 0 0
vt 0 0
vt 0 0
vt 0 0
vt 0 0
vt 0 0
vt 0 0
vt 0 0
vt 0 0
vt 0 0
vt 0 0
vt 0 0
vt 0 0
vt 0 0
vt 0 0
vt 0 0
vt 0 0
vt 0 0
vt 0 0
vt 0 0
vt 0 0
vt 0 0
vt 0 0
vt 0 0
vt 0 0
vt 0 0
vt 0 0
vt 0 0
vt 0 0
vt 0 0
vt 0 0
vt 0 0
vt 0 0
vt 0 0
vt 0 0
vt 0 0
vt 0 0
vt 0 0
vt 0 0
vt 0 0
vn -4.620869E-07 1.007678E-06 1
vn -4.620869E-07 1.007678E-06 1
vn -4.620869E-07 1.007678E-06 1
vn -4.620869E-07 1.007678E-06 1
vn -4.620869E-07 1.007678E-06 1
vn -4.620869E-07 1.007678E-06 1
vn -4.620869E-07 1.007678E-06 1
vn -4.620869E-07 1.007678E-06 1
vn -4.620869E-07 1.007678E-06 1
vn -4.620869E-07 1.007678E-06 1
vn -4.620869E-07 1.007678E-06 1
vn -4.620869E-07 1.007678E-06 1
vn -4.620869E-07 1.007678E-06 1
vn -4.620869E-07 1.007678E-06 1
vn -4.620869E-07 1.007678E-06 1
vn -4.620869E-07 1.007678E-06 1
vn -4.620869E-07 1.007678E-06 1
vn -4.620869E-07 1.007678E-06 1
vn -4.620869E-07 1.007678E-06 1
vn -4.620869E-07 1.007678E-06 1
vn -4.620869E-07 1.007678E-06 1
vn -4.620869E-07 1.007678E-06 1
vn -4.620869E-07 1.007678E-06 1
vn -4.620869E-07 1.007678E-06 1
vn -4.620869E-07 1.007678E-06 1
vn -4.620869E-07 1.007678E-06 1
vn -4.620869E-07 1.007678E-06 1
vn -4.620869E-07 1.007678E-06 1
vn -4.620869E-07 1.007678E-06 1
vn -4.620869E-07 1.007678E-06 1
vn -4.620869E-07 1.007678E-06 1
vn -4.620869E-07 1.007678E-06 1
vn -4.620869E-07 1.007678E-06 1
vn -4.620869E-07 1.007678E-06 1
vn -4.620869E-07 1.007678E-06 1
vn -4.620869E-07 1.007678E-06 1
vn -4.620869E-07 1.007678E-06 1
vn -4.620869E-07 1.007678E-06 1
vn -4.620869E-07 1.007678E-06 1
vn -4.620869E-07 1.007678E-06 1
vn -4.620869E-07 1.007678E-06 1
vn -4.620869E-07 1.007678E-06 1
vn -4.620869E-07 1.007678E-06 1
vn -4.620869E-07 1.007678E-06 1
vn -4.620869E-07 1.007678E-06 1
vn -4.620869E-07 1.007678E-06 1
vn -4.620869E-07 1.007678E-06 1
vn -4.620869E-07 1.007678E-06 1
vn -4.620869E-07 1.007678E-06 1
vn -4.620869E-07 1.007678E-06 1
vn -4.620869E-07 1.007678E-06 1
vn -4.620869E-07 1.007678E-06 1
vn -4.620869E-07 1.007678E-06 1
vn -4.620869E-07 1.007678E-06 1
vn -4.620869E-07 1.007678E-06 1
vn -4.620869E-07 1.007678E-06 1
vn -4.620869E-07 1.007678E-06 1
vn -4.620869E-07 1.007678E-06 1
vn -4.620869E-07 1.007678E-06 1
vn -4.620869E-07 1.007678E-06 1
vn -4.620869E-07 1.007678E-06 1
vn -4.620869E-07 1.007678E-06 1
vn -4.620869E-07 1.007678E-06 1
vn -4.620869E-07 1.007678E-06 1
vn -4.620869E-07 1.007678E-06 1
vn -4.620869E-07 1.007678E-06 1
vn -4.620869E-07 1.007678E-06 1
vn -4.620869E-07 1.007678E-06 1
vn -4.620869E-07 1.007678E-06 1
vn -4.620869E-07 1.007678E-06 1
vn -4.620869E-07 1.007678E-06 1
vn -4.620869E-07 1.007678E-06 1
vn -4.620869E-07 1.007678E-06 1
vn -4.620869E-07 1.007678E-06 1
vn -4.620869E-07 1.007678E-06 1
vn -4.620869E-07 1.007678E-06 1
vn -4.620869E-07 1.007678E-06 1
vn -4.620869E-07 1.007678E-06 1
vn -4.620869E-07 1.007678E-06 1
vn -4.620869E-07 1.007678E-06 1
vn -4.620869E-07 1.007678E-06 1
vn -4.620869E-07 1.007678E-06 1
vn -4.620869E-07 1.007678E-06 1
vn -4.620869E-07 1.007678E-06 1
vn -4.620869E-07 1.007678E-06 1
vn -4.620869E-07 1.007678E-06 1
vn -4.620869E-07 1.007678E-06 1
vn -4.620869E-07 1.007678E-06 1
vn -4.620869E-07 1.007678E-06 1
vn -4.620869E-07 1.007678E-06 1
vn -4.620869E-07 1.007678E-06 1
vn -4.620869E-07 1.007678E-06 1
vn -4.620869E-07 1.007678E-06 1
vn -4.620869E-07 1.007678E-06 1
vn -4.620869E-07 1.007678E-06 1
vn -4.620869E-07 1.007678E-06 1
vn -4.620869E-07 1.007678E-06 1
vn -4.620869E-07 1.007678E-06 1
vn -4.620869E-07 1.007678E-06 1
vn -4.792645E-07 4.740351E-07 1
vn -4.792645E-07 4.740351E-07 1
vn -4.792645E-07 4.740351E-07 1
vn -4.792645E-07 4.740351E-07 1
vn -4.792645E-07 4.740351E-07 1
vn -4.792645E-07 4.740351E-07 1
vn -4.792645E-07 4.740351E-07 1
vn -4.792645E-07 4.740351E-07 1
vn -4.792645E-07 4.740351E-07 1
vn -4.792645E-07 4.740351E-07 1
vn -4.792645E-07 4.740351E-07 1
vn -4.792645E-07 4.740351E-07 1
vn -4.792645E-07 4.740351E-07 1
vn -4.792645E-07 4.740351E-07 1
vn -4.792645E-07 4.740351E-07 1
vn -4.792645E-07 4.740351E-07 1
vn -4.792645E-07 4.740351E-07 1
vn -4.792645E-07 4.740351E-07 1
vn -4.792645E-07 4.740351E-07 1
vn -4.792645E-07 4.740351E-07 1
vn -4.792645E-07 4.740351E-07 1
vn -4.792645E-07 4.740351E-07 1
vn -4.792645E-07 4.740351E-07 1
vn -4.792645E-07 4.740351E-07 1
vn -4.792645E-07 4.740351E-07 1
vn -4.792645E-07 4.740351E-07 1
vn -4.792645E-07 4.740351E-07 1
vn -4.792645E-07 4.740351E-07 1
vn -4.792645E-07 4.740351E-07 1
vn -4.792645E-07 4.740351E-07 1
vn -4.792645E-07 4.740351E-07 1
vn -4.792645E-07 4.740351E-07 1
vn -4.792645E-07 4.740351E-07 1
vn -4.620869E-07 1.007678E-06 1
vn -4.620869E-07 1.007678E-06 1
vn -4.620869E-07 1.007678E-06 1
vn -4.620869E-07 1.007678E-06 1
vn -4.620869E-07 1.007678E-06 1
vn -4.620869E-07 1.007678E-06 1
vn -4.620869E-07 1.007678E-06 1
vn -4.620869E-07 1.007678E-06 1
vn -4.620869E-07 1.007678E-06 1
vn -4.620869E-07 1.007678E-06 1
vn -4.620869E-07 1.007678E-06 1
vn -4.620869E-07 1.007678E-06 1
vn -4.620869E-07 1.007678E-06 1
vn -4.620869E-07 1.007678E-06 1
vn -4.620869E-07 1.007678E-06 1
vn -4.620869E-07 1.007678E-06 1
vn -4.620869E-07 1.007678E-06 1
vn -4.620869E-07 1.007678E-06 1
vn -4.620869E-07 1.007678E-06 1
vn -4.620869E-07 1.007678E-06 1
vn -4.620869E-07 1.007678E-06 1
vn -4.620869E-07 1.007678E-06 1
vn -4.620869E-07 1.007678E-06 1
vn -4.620869E-07 1.007678E-06 1
vn -4.620869E-07 1.007678E-06 1
vn -4.620869E-07 1.007678E-06 1
vn -4.620869E-07 1.007678E-06 1
vn -4.620869E-07 1.007678E-06 1
vn -4.620869E-07 1.007678E-06 1
vn -4.620869E-07 1.007678E-06 1
vn -4.620869E-07 1.007678E-06 1
vn -4.620869E-07 1.007678E-06 1
vn -4.620869E-07 1.007678E-06 1
vn -4.620869E-07 1.007678E-06 1
vn -4.620869E-07 1.007678E-06 1
vn -4.620869E-07 1.007678E-06 1
vn -4.620869E-07 1.007678E-06 1
vn -4.620869E-07 1.007678E-06 1
vn -4.620869E-07 1.007678E-06 1
vn -4.620869E-07 1.007678E-06 1
vn -4.620869E-07 1.007678E-06 1
vn -4.620869E-07 1.007678E-06 1
vn -4.620869E-07 1.007678E-06 1
vn -4.620869E-07 1.007678E-06 1
vn -4.620869E-07 1.007678E-06 1
vn -4.620869E-07 1.007678E-06 1
vn -4.620869E-07 1.007678E-06 1
vn -4.620869E-07 1.007678E-06 1
vn -4.620869E-07 1.007678E-06 1
vn -4.620869E-07 1.007678E-06 1
vn -4.620869E-07 1.007678E-06 1
vn -4.620869E-07 1.007678E-06 1
vn -4.620869E-07 1.007678E-06 1
vn -4.620869E-07 1.007678E-06 1
vn -4.620869E-07 1.007678E-06 1
vn -4.620869E-07 1.007678E-06 1
vn -4.620869E-07 1.007678E-06 1
vn -4.620869E-07 1.007678E-06 1
vn -4.620869E-07 1.007678E-06 1
vn -4.620869E-07 1.007678E-06 1
vn -4.620869E-07 1.007678E-06 1
vn -4.620869E-07 1.007678E-06 1
vn -4.620869E-07 1.007678E-06 1
vn -4.620869E-07 1.007678E-06 1
vn -4.620869E-07 1.007678E-06 1
vn -4.620869E-07 1.007678E-06 1
g _CombinedLessRain77_0_0
f 3/3/3 2/2/2 1/1/1
f 6/6/6 5/5/5 4/4/4
f 9/9/9 8/8/8 7/7/7
f 12/12/12 11/11/11 10/10/10
f 15/15/15 14/14/14 13/13/13
f 18/18/18 17/17/17 16/16/16
f 21/21/21 20/20/20 19/19/19
f 24/24/24 23/23/23 22/22/22
f 27/27/27 26/26/26 25/25/25
f 30/30/30 29/29/29 28/28/28
f 33/33/33 32/32/32 31/31/31
f 36/36/36 35/35/35 34/34/34
f 39/39/39 38/38/38 37/37/37
f 42/42/42 41/41/41 40/40/40
f 45/45/45 44/44/44 43/43/43
f 48/48/48 47/47/47 46/46/46
f 51/51/51 50/50/50 49/49/49
f 54/54/54 53/53/53 52/52/52
f 57/57/57 56/56/56 55/55/55
f 60/60/60 59/59/59 58/58/58
f 63/63/63 62/62/62 61/61/61
f 66/66/66 65/65/65 64/64/64
f 69/69/69 68/68/68 67/67/67
f 72/72/72 71/71/71 70/70/70
f 75/75/75 74/74/74 73/73/73
f 78/78/78 77/77/77 76/76/76
f 81/81/81 80/80/80 79/79/79
f 84/84/84 83/83/83 82/82/82
f 87/87/87 86/86/86 85/85/85
f 90/90/90 89/89/89 88/88/88
f 93/93/93 92/92/92 91/91/91
f 96/96/96 95/95/95 94/94/94
f 99/99/99 98/98/98 97/97/97
f 102/102/102 101/101/101 100/100/100
f 105/105/105 104/104/104 103/103/103
f 108/108/108 107/107/107 106/106/106
f 111/111/111 110/110/110 109/109/109
f 114/114/114 113/113/113 112/112/112
f 117/117/117 116/116/116 115/115/115
f 120/120/120 119/119/119 118/118/118
f 123/123/123 122/122/122 121/121/121
f 126/126/126 125/125/125 124/124/124
f 129/129/129 128/128/128 127/127/127
f 132/132/132 131/131/131 130/130/130
f 135/135/135 134/134/134 133/133/133
f 138/138/138 137/137/137 136/136/136
f 141/141/141 140/140/140 139/139/139
f 144/144/144 143/143/143 142/142/142
f 147/147/147 146/146/146 145/145/145
f 150/150/150 149/149/149 148/148/148
f 153/153/153 152/152/152 151/151/151
f 156/156/156 155/155/155 154/154/154
f 159/159/159 158/158/158 157/157/157
f 162/162/162 161/161/161 160/160/160
f 165/165/165 164/164/164 163/163/163
f 168/168/168 167/167/167 166/166/166
f 171/171/171 170/170/170 169/169/169
f 174/174/174 173/173/173 172/172/172
f 177/177/177 176/176/176 175/175/175
f 180/180/180 179/179/179 178/178/178
f 183/183/183 182/182/182 181/181/181
f 186/186/186 185/185/185 184/184/184
f 189/189/189 188/188/188 187/187/187
f 192/192/192 191/191/191 190/190/190
f 195/195/195 194/194/194 193/193/193
f 198/198/198 197/197/197 196/196/196
