g _Combined_Vis9_0
v -1.500001 0.4999997 -0.2500009
v -0.5000004 0.4999996 -0.2499987
v -0.5000002 0.4999997 0.7500003
v -1.5 0.4999998 0.7500001
v -1.500001 0.4999997 -0.2500009
v -1.5 -0.5000004 -0.25
v -0.5000005 -0.5000005 -0.2499998
v -0.5000004 0.4999996 -0.2499987
v 1.500001 0.5000008 0.7500007
v 1.500001 0.4999986 -0.2499993
v 1.500001 -0.5000004 -0.2499995
v 1.500001 -0.5000002 0.7500005
v 0.4999994 0.4999996 -0.2499996
v 0.5000015 -0.5000004 -0.2499997
v 1.500001 -0.5000004 -0.2499995
v 1.500001 0.4999986 -0.2499993
v -0.5000004 0.4999996 -0.2499987
v -0.5000005 -0.5000005 -0.2499998
v 0.5000015 -0.5000004 -0.2499997
v 0.4999994 0.4999996 -0.2499996
v -0.5000004 0.4999996 -0.2499987
v 0.4999994 0.4999996 -0.2499996
v 0.4999998 0.4999997 0.7500005
v -0.5000002 0.4999997 0.7500003
v 0.5000015 -0.5000004 -0.2499997
v 0.5000015 -0.5000002 0.7500004
v 1.500001 -0.5000002 0.7500005
v 1.500001 -0.5000004 -0.2499995
v -1.5 -0.5000004 -0.25
v -1.5 -0.5000002 0.75
v -0.5000002 -0.5000002 0.7500003
v -0.5000005 -0.5000005 -0.2499998
v 0.4999994 0.4999996 -0.2499996
v 1.500001 0.4999986 -0.2499993
v 1.500001 0.5000008 0.7500007
v 0.4999998 0.4999997 0.7500005
v -0.5000005 -0.5000005 -0.2499998
v -0.5000002 -0.5000002 0.7500003
v 0.5000015 -0.5000002 0.7500004
v 0.5000015 -0.5000004 -0.2499997
v -1.5 -0.5000002 0.75
v -1.5 -0.5000004 -0.25
v -1.500001 0.4999997 -0.2500009
v -1.5 0.4999998 0.7500001
vt 0.3984375 0.5859375
vt 0.3984375 0.4609375
vt 0.2734375 0.4609375
vt 0.2734375 0.5859375
vt 0.7265625 0.0859375
vt 0.7265625 0.0234375
vt 0.6640625 0.0234375
vt 0.6640625 0.0859375
vt 0.4140625 0.2265625
vt 0.4140625 0.1015625
vt 0.2890625 0.1015625
vt 0.2890625 0.2265625
vt 0.7265625 0.0859375
vt 0.7265625 0.0234375
vt 0.6640625 0.0234375
vt 0.6640625 0.0859375
vt 0.7265625 0.0859375
vt 0.7265625 0.0234375
vt 0.6640625 0.0234375
vt 0.6640625 0.0859375
vt 0.3984375 0.5859375
vt 0.3984375 0.4609375
vt 0.2734375 0.4609375
vt 0.2734375 0.5859375
vt 0.7265625 0.0859375
vt 0.7265625 0.0234375
vt 0.6640625 0.0234375
vt 0.6640625 0.0859375
vt 0.7265625 0.0859375
vt 0.7265625 0.0234375
vt 0.6640625 0.0234375
vt 0.6640625 0.0859375
vt 0.3984375 0.5859375
vt 0.3984375 0.4609375
vt 0.2734375 0.4609375
vt 0.2734375 0.5859375
vt 0.7265625 0.0859375
vt 0.7265625 0.0234375
vt 0.6640625 0.0234375
vt 0.6640625 0.0859375
vt 0.4140625 0.2265625
vt 0.4140625 0.1015625
vt 0.2890625 0.1015625
vt 0.2890625 0.2265625
vn -5.960456E-08 1 1.192093E-07
vn -5.960456E-08 1 1.192093E-07
vn -5.960456E-08 1 1.192093E-07
vn -5.960456E-08 1 1.192093E-07
vn -9.139114E-08 -1.192093E-07 -1
vn -9.139114E-08 -1.192093E-07 -1
vn -9.139114E-08 -1.192093E-07 -1
vn -9.139114E-08 -1.192093E-07 -1
vn 1 -5.960455E-08 1.788139E-07
vn 1 -5.960455E-08 1.788139E-07
vn 1 -5.960455E-08 1.788139E-07
vn 1 -5.960455E-08 1.788139E-07
vn -9.139114E-08 -1.192093E-07 -1
vn -9.139114E-08 -1.192093E-07 -1
vn -9.139114E-08 -1.192093E-07 -1
vn -9.139114E-08 -1.192093E-07 -1
vn -9.139114E-08 -1.192093E-07 -1
vn -9.139114E-08 -1.192093E-07 -1
vn -9.139114E-08 -1.192093E-07 -1
vn -9.139114E-08 -1.192093E-07 -1
vn -5.960456E-08 1 1.192093E-07
vn -5.960456E-08 1 1.192093E-07
vn -5.960456E-08 1 1.192093E-07
vn -5.960456E-08 1 1.192093E-07
vn 5.960454E-08 -1 -2.384186E-07
vn 5.960454E-08 -1 -2.384186E-07
vn 5.960454E-08 -1 -2.384186E-07
vn 5.960454E-08 -1 -2.384186E-07
vn 5.960454E-08 -1 -2.384186E-07
vn 5.960454E-08 -1 -2.384186E-07
vn 5.960454E-08 -1 -2.384186E-07
vn 5.960454E-08 -1 -2.384186E-07
vn -5.960456E-08 1 1.192093E-07
vn -5.960456E-08 1 1.192093E-07
vn -5.960456E-08 1 1.192093E-07
vn -5.960456E-08 1 1.192093E-07
vn 5.960454E-08 -1 -2.384186E-07
vn 5.960454E-08 -1 -2.384186E-07
vn 5.960454E-08 -1 -2.384186E-07
vn 5.960454E-08 -1 -2.384186E-07
vn -1 5.960455E-08 -1.788139E-07
vn -1 5.960455E-08 -1.788139E-07
vn -1 5.960455E-08 -1.788139E-07
vn -1 5.960455E-08 -1.788139E-07
g _Combined_Vis9_0_0
f 3/3/3 2/2/2 1/1/1
f 4/4/4 3/3/3 1/1/1
f 7/7/7 6/6/6 5/5/5
f 8/8/8 7/7/7 5/5/5
f 11/11/11 10/10/10 9/9/9
f 12/12/12 11/11/11 9/9/9
f 15/15/15 14/14/14 13/13/13
f 16/16/16 15/15/15 13/13/13
f 19/19/19 18/18/18 17/17/17
f 20/20/20 19/19/19 17/17/17
f 23/23/23 22/22/22 21/21/21
f 24/24/24 23/23/23 21/21/21
f 27/27/27 26/26/26 25/25/25
f 28/28/28 27/27/27 25/25/25
f 31/31/31 30/30/30 29/29/29
f 32/32/32 31/31/31 29/29/29
f 35/35/35 34/34/34 33/33/33
f 36/36/36 35/35/35 33/33/33
f 39/39/39 38/38/38 37/37/37
f 40/40/40 39/39/39 37/37/37
f 43/43/43 42/42/42 41/41/41
f 44/44/44 43/43/43 41/41/41
