g _Combined_Vis45_0
v 15.75 1 15.5
v 15.75 0.9999999 14.5
v 15.5 0.9999999 14.5
v 15.5 1 15.5
v 16.5 2 14.5
v 16.5 1.75 14.5
v 16.5 1.75 15.5
v 16.5 2 15.5
v 15.75 1 15.5
v 15.5 1 15.5
v 15.5 2 15.5
v 15.80709 1.285435 15.5
v 15.96967 1.528753 15.5
v 16.21299 1.691332 15.5
v 16.5 1.75 15.5
v 16.5 2 15.5
v 15.75 0.9999999 14.5
v 15.5 2 14.5
v 15.5 0.9999999 14.5
v 15.80709 1.285435 14.5
v 15.96967 1.528753 14.5
v 16.21299 1.691332 14.5
v 16.5 1.75 14.5
v 16.5 2 14.5
v 16.5 1.75 14.5
v 16.21299 1.691332 15.5
v 16.5 1.75 15.5
v 16.21299 1.691332 14.5
v 15.96967 1.528753 15.5
v 15.96967 1.528753 14.5
v 15.80709 1.285435 15.5
v 15.80709 1.285435 14.5
v 15.75 1 15.5
v 15.75 0.9999999 14.5
v 16.5 2 14.5
v 16.5 2 15.5
v 16.5 1.75 15.5
v 16.5 1.75 14.5
v 17.5 2 15.5
v 17.5 2 14.5
v 17.5 1.75 14.5
v 17.5 1.75 15.5
v 16.5 2 15.5
v 17.5 2 15.5
v 17.5 1.75 15.5
v 16.5 1.75 15.5
v 17.5 2 14.5
v 16.5 2 14.5
v 16.5 1.75 14.5
v 17.5 1.75 14.5
v 17.5 1.75 14.5
v 16.5 1.75 14.5
v 16.5 1.75 15.5
v 17.5 1.75 15.5
v 17.5 2 14.5
v 17.5 2 15.5
v 16.5 2 15.5
v 16.5 2 14.5
v 16.5 2 14.5
v 16.5 2 15.5
v 15.5 2 15.5
v 15.5 2 14.5
vt 0.3043556 0.1327706
vt 0.3043556 0.1483403
vt 0.2965609 0.1483403
vt 0.2965609 0.1327706
vt 0.3043754 0.1327706
vt 0.2965414 0.1327706
vt 0.2965414 0.1483404
vt 0.3043754 0.1483404
vt 0.2813997 0.1329196
vt 0.2658855 0.1329196
vt 0.2658855 0.163909
vt 0.2849187 0.141765
vt 0.2949952 0.1493053
vt 0.3100758 0.1543436
vt 0.3278645 0.1561128
vt 0.3278645 0.163909
vt 0.2813997 0.1329196
vt 0.2658855 0.163909
vt 0.2658855 0.1329196
vt 0.2849187 0.141765
vt 0.2949952 0.1493053
vt 0.3100758 0.1543436
vt 0.3278645 0.1561128
vt 0.3278645 0.163909
vt 0.327839 0.148449
vt 0.3124102 0.1445381
vt 0.3124102 0.148449
vt 0.327839 0.1445381
vt 0.3124102 0.1406272
vt 0.327839 0.1406272
vt 0.3124102 0.1367163
vt 0.327839 0.1367163
vt 0.3124102 0.1328269
vt 0.327839 0.1328269
vt 0.265625 0.1640625
vt 0.328125 0.1640625
vt 0.328125 0.15625
vt 0.265625 0.15625
vt 0.265625 0.1640625
vt 0.328125 0.1640625
vt 0.328125 0.15625
vt 0.265625 0.15625
vt 0.265625 0.1640625
vt 0.328125 0.1640625
vt 0.328125 0.15625
vt 0.265625 0.15625
vt 0.265625 0.1640625
vt 0.328125 0.1640625
vt 0.328125 0.15625
vt 0.265625 0.15625
vt 0.3125 0.15625
vt 0.265625 0.15625
vt 0.265625 0.1328125
vt 0.3125 0.1328125
vt 0.609375 0.4765625
vt 0.609375 0.4140625
vt 0.484375 0.4140625
vt 0.484375 0.4765625
vt 0.609375 0.4765625
vt 0.609375 0.4140625
vt 0.484375 0.4140625
vt 0.484375 0.4765625
vn 0 -1 1.192093E-07
vn 0 -1 1.192093E-07
vn 0 -1 1.192093E-07
vn 0 -1 1.192093E-07
vn 1 0 0
vn 1 0 0
vn 1 0 0
vn 1 0 0
vn 1.598721E-14 1.192093E-07 1
vn 1.598721E-14 1.192093E-07 1
vn 1.598721E-14 1.192093E-07 1
vn 1.598721E-14 1.192093E-07 1
vn 1.598721E-14 1.192093E-07 1
vn 1.598721E-14 1.192093E-07 1
vn 1.598721E-14 1.192093E-07 1
vn 1.598721E-14 1.192093E-07 1
vn -1.598721E-14 -1.192093E-07 -1
vn -1.598721E-14 -1.192093E-07 -1
vn -1.598721E-14 -1.192093E-07 -1
vn -1.598721E-14 -1.192093E-07 -1
vn -1.598721E-14 -1.192093E-07 -1
vn -1.598721E-14 -1.192093E-07 -1
vn -1.598721E-14 -1.192093E-07 -1
vn -1.598721E-14 -1.192093E-07 -1
vn 0.2002685 -0.979741 1.167942E-07
vn 0.385122 -0.9228657 1.100141E-07
vn 0.2002685 -0.979741 1.167942E-07
vn 0.3851221 -0.9228656 1.100141E-07
vn 0.7071065 -0.707107 8.429372E-08
vn 0.7071066 -0.7071069 8.429371E-08
vn 0.923677 -0.3831721 4.567767E-08
vn 0.923677 -0.3831721 4.567766E-08
vn 0.9805784 -0.1961277 2.338023E-08
vn 0.9805784 -0.1961277 2.338023E-08
vn -1 0 0
vn -1 0 0
vn -1 0 0
vn -1 0 0
vn 1 0 0
vn 1 0 0
vn 1 0 0
vn 1 0 0
vn 1.598721E-14 1.192093E-07 1
vn 1.598721E-14 1.192093E-07 1
vn 1.598721E-14 1.192093E-07 1
vn 1.598721E-14 1.192093E-07 1
vn -1.598721E-14 -1.192093E-07 -1
vn -1.598721E-14 -1.192093E-07 -1
vn -1.598721E-14 -1.192093E-07 -1
vn -1.598721E-14 -1.192093E-07 -1
vn 0 -1 1.192093E-07
vn 0 -1 1.192093E-07
vn 0 -1 1.192093E-07
vn 0 -1 1.192093E-07
vn 0 1 -3.576278E-07
vn 0 1 -3.576278E-07
vn 0 1 -3.576278E-07
vn 0 1 -3.576278E-07
vn 0 1 -1.192093E-07
vn 0 1 -1.192093E-07
vn 0 1 -1.192093E-07
vn 0 1 -1.192093E-07
g _Combined_Vis45_0_0
f 3/3/3 2/2/2 1/1/1
f 4/4/4 3/3/3 1/1/1
f 7/7/7 6/6/6 5/5/5
f 8/8/8 7/7/7 5/5/5
f 11/11/11 10/10/10 9/9/9
f 12/12/12 11/11/11 9/9/9
f 12/12/12 13/13/13 11/11/11
f 14/14/14 11/11/11 13/13/13
f 11/11/11 14/14/14 15/15/15
f 16/16/16 11/11/11 15/15/15
f 19/19/19 18/18/18 17/17/17
f 18/18/18 20/20/20 17/17/17
f 20/20/20 18/18/18 21/21/21
f 22/22/22 21/21/21 18/18/18
f 23/23/23 22/22/22 18/18/18
f 24/24/24 23/23/23 18/18/18
f 27/27/27 26/26/26 25/25/25
f 26/26/26 28/28/28 25/25/25
f 28/28/28 26/26/26 29/29/29
f 30/30/30 28/28/28 29/29/29
f 30/30/30 29/29/29 31/31/31
f 32/32/32 30/30/30 31/31/31
f 32/32/32 31/31/31 33/33/33
f 34/34/34 32/32/32 33/33/33
f 37/37/37 36/36/36 35/35/35
f 38/38/38 37/37/37 35/35/35
f 41/41/41 40/40/40 39/39/39
f 42/42/42 41/41/41 39/39/39
f 45/45/45 44/44/44 43/43/43
f 46/46/46 45/45/45 43/43/43
f 49/49/49 48/48/48 47/47/47
f 50/50/50 49/49/49 47/47/47
f 53/53/53 52/52/52 51/51/51
f 54/54/54 53/53/53 51/51/51
f 57/57/57 56/56/56 55/55/55
f 58/58/58 57/57/57 55/55/55
f 61/61/61 60/60/60 59/59/59
f 62/62/62 61/61/61 59/59/59
