g _Combined_Vis61_0
v -138.4995 6.5 -145.1245
v -138.4995 5.5 -145.1245
v -138.4995 5.5 -144.9995
v -138.4995 6.5 -144.9995
v -138.4995 7.0625 -144.9995
v -138.4995 7.0625 -145.1245
v -138.4995 7.5 -144.9995
v -138.4995 7.142344 -145.1531
v -138.4995 7.23559 -145.211
v -138.4995 7.310638 -145.2912
v -138.4995 7.355962 -145.3912
v -138.4995 7.375 -145.4995
v -138.4995 7.5 -145.4995
v -138.4995 7.5 -145.9995
v -138.4995 7.355962 -145.6079
v -138.4995 7.310638 -145.7079
v -138.4995 7.23559 -145.788
v -138.4995 7.142344 -145.846
v -138.4995 7.0625 -145.8745
v -138.4995 7.0625 -145.9995
v -138.4995 6.5 -145.8745
v -138.4995 6.5 -145.9995
v -138.4995 5.5 -145.9995
v -138.4995 5.5 -145.8745
v -139.437 7.375 -145.187
v -139.437 7.375 -145.812
v -139.437 6.5 -145.812
v -139.437 6.5 -145.187
v -139.437 5.5625 -145.812
v -139.437 5.5625 -145.187
v -139.437 5.5625 -145.812
v -138.6245 5.5 -145.1245
v -139.437 5.5625 -145.187
v -138.6245 5.5 -145.8745
v -138.4995 5.5 -145.1245
v -138.4995 5.5 -145.8745
v -138.6245 6.5 -145.1245
v -138.6245 7.375 -145.1245
v -139.437 7.375 -145.187
v -139.437 6.5 -145.187
v -138.6232 7.23559 -145.211
v -138.4995 7.142344 -145.1531
v -138.4995 7.23559 -145.211
v -138.6232 7.142344 -145.1531
v -138.4995 7.0625 -145.1245
v -138.6245 7.0625 -145.1245
v -138.4995 6.5 -145.1245
v -138.6245 6.5 -145.1245
v -138.6245 5.5 -145.1245
v -138.4995 5.5 -145.1245
v -138.6232 7.310638 -145.2912
v -138.6232 7.23559 -145.211
v -138.4995 7.23559 -145.211
v -138.4995 7.310638 -145.2912
v -138.6232 7.355962 -145.3912
v -138.4995 7.355962 -145.3912
v -138.6245 7.375 -145.4995
v -138.4995 7.375 -145.4995
v -138.6232 7.23559 -145.788
v -138.4995 7.23559 -145.788
v -138.4995 7.142344 -145.846
v -138.6232 7.142344 -145.846
v -138.4995 7.0625 -145.8745
v -138.6245 7.0625 -145.8745
v -138.4995 6.5 -145.8745
v -138.6245 6.5 -145.8745
v -138.6245 5.5 -145.8745
v -138.4995 5.5 -145.8745
v -138.6232 7.310638 -145.7079
v -138.4995 7.23559 -145.788
v -138.6232 7.23559 -145.788
v -138.4995 7.310638 -145.7079
v -138.6232 7.355962 -145.6079
v -138.4995 7.355962 -145.6079
v -139.437 7.375 -145.187
v -138.6245 7.375 -145.1245
v -138.6245 7.375 -145.8745
v -139.437 7.375 -145.812
v -138.6245 5.5 -145.1245
v -138.6245 6.5 -145.1245
v -139.437 6.5 -145.187
v -139.437 5.5625 -145.187
v -138.6245 6.5 -145.8745
v -138.6245 5.5 -145.8745
v -139.437 5.5625 -145.812
v -139.437 6.5 -145.812
v -138.6245 7.375 -145.8745
v -139.437 7.375 -145.812
v -138.4995 5.5 -145.9995
v -138.4995 6.5 -145.9995
v -139.4994 6.5 -145.9994
v -139.4994 5.5 -145.9994
v -138.4995 6.5 -145.9995
v -138.4995 7.5 -145.9995
v -139.4993 7.5 -145.9993
v -139.4994 6.5 -145.9994
v -139.4993 6.5 -144.9993
v -139.4993 7.5 -144.9993
v -138.4995 7.5 -144.9995
v -138.4995 6.5 -144.9995
v -139.4993 5.5 -144.9993
v -139.4993 6.5 -144.9993
v -138.4995 6.5 -144.9995
v -138.4995 5.5 -144.9995
v -139.4994 5.5 -145.9994
v -139.4994 6.5 -145.9994
v -139.4993 6.5 -144.9993
v -139.4993 5.5 -144.9993
v -139.4994 6.5 -145.9994
v -139.4993 7.5 -145.9993
v -139.4993 7.5 -144.9993
v -139.4993 6.5 -144.9993
v -139.4993 7.5 -144.9993
v -139.4993 8.5 -144.9993
v -138.4993 8.5 -144.9993
v -138.4995 7.5 -144.9995
v -138.4995 7.5 -144.9995
v -138.4993 8.5 -144.9993
v -138.4992 8.5 -145.9992
v -138.4995 7.5 -145.9995
v -139.4993 8.5 -144.9993
v -139.4989 8.5 -145.9989
v -138.4992 8.5 -145.9992
v -138.4993 8.5 -144.9993
vt 0.0627685 0.5774857
vt 0.0627685 0.4532138
vt 0.0317005 0.4532138
vt 0.0317005 0.5774857
vt 0.0317005 0.647389
vt 0.0627685 0.647389
vt 0.0317005 0.701758
vt 0.069863 0.6573113
vt 0.084272 0.668899
vt 0.104191 0.6782255
vt 0.129047 0.683858
vt 0.1559725 0.686224
vt 0.1559725 0.701758
vt 0.2652035 0.701758
vt 0.182898 0.683858
vt 0.207754 0.6782255
vt 0.227673 0.668899
vt 0.242082 0.6573113
vt 0.2491765 0.647389
vt 0.2652035 0.647389
vt 0.2491765 0.5774857
vt 0.265204 0.5774857
vt 0.265204 0.4532138
vt 0.2491765 0.4532138
vt 0.421875 0.5703125
vt 0.515625 0.5703125
vt 0.515625 0.5117188
vt 0.421875 0.5117188
vt 0.515625 0.4570313
vt 0.421875 0.4570313
vt 0.2109375 0.4570313
vt 0.1015625 0.5703125
vt 0.1015625 0.4570313
vt 0.2109375 0.5703125
vt 0.1015625 0.5742188
vt 0.2109375 0.5742188
vt 0.3549535 0.5864608
vt 0.3549535 0.6450545
vt 0.5132105 0.6450545
vt 0.5132105 0.5864608
vt 0.319507 0.6914757
vt 0.304155 0.685687
vt 0.304155 0.6914757
vt 0.319507 0.685687
vt 0.304155 0.6807302
vt 0.319675 0.6807302
vt 0.304155 0.6458098
vt 0.319675 0.6458098
vt 0.319675 0.5837287
vt 0.304155 0.5837287
vt 0.319507 0.6961347
vt 0.319507 0.6914757
vt 0.304155 0.6914757
vt 0.304155 0.6961347
vt 0.319507 0.6989485
vt 0.304155 0.6989485
vt 0.319675 0.7001305
vt 0.304155 0.7001305
vt 0.319507 0.6914757
vt 0.304155 0.6914757
vt 0.304155 0.685687
vt 0.319507 0.685687
vt 0.304155 0.6807302
vt 0.319675 0.6807302
vt 0.304155 0.6458098
vt 0.319675 0.6458098
vt 0.319675 0.5837287
vt 0.304155 0.5837287
vt 0.319507 0.6961347
vt 0.304155 0.6914757
vt 0.319507 0.6914757
vt 0.304155 0.6961347
vt 0.319507 0.6989485
vt 0.304155 0.6989485
vt 0.5132105 0.5864608
vt 0.3549535 0.5864608
vt 0.3549535 0.699742
vt 0.5132105 0.699742
vt 0.3549535 0.6450545
vt 0.3549535 0.699742
vt 0.5132105 0.699742
vt 0.5132105 0.6450545
vt 0.3549535 0.6450545
vt 0.3549535 0.5864608
vt 0.5132105 0.5864608
vt 0.5132105 0.6450545
vt 0.3549535 0.699742
vt 0.5132105 0.699742
vt 0.96875 0.171875
vt 0.96875 0.109375
vt 0.84375 0.109375
vt 0.84375 0.171875
vt 0.96875 0.171875
vt 0.96875 0.109375
vt 0.84375 0.109375
vt 0.84375 0.171875
vt 0.96875 0.171875
vt 0.96875 0.109375
vt 0.84375 0.109375
vt 0.84375 0.171875
vt 0.96875 0.171875
vt 0.96875 0.109375
vt 0.84375 0.109375
vt 0.84375 0.171875
vt 0.96875 0.171875
vt 0.96875 0.109375
vt 0.84375 0.109375
vt 0.84375 0.171875
vt 0.96875 0.171875
vt 0.96875 0.109375
vt 0.84375 0.109375
vt 0.84375 0.171875
vt 0.96875 0.171875
vt 0.96875 0.109375
vt 0.84375 0.109375
vt 0.84375 0.171875
vt 0.96875 0.171875
vt 0.96875 0.109375
vt 0.84375 0.109375
vt 0.84375 0.171875
vt 0.46875 0.328125
vt 0.46875 0.265625
vt 0.34375 0.265625
vt 0.34375 0.328125
vn 1 1.065813E-14 1.192094E-07
vn 1 1.065813E-14 1.192094E-07
vn 1 1.065813E-14 1.192094E-07
vn 1 1.065813E-14 1.192094E-07
vn 1 1.065813E-14 1.192094E-07
vn 1 1.065813E-14 1.192094E-07
vn 1 1.065813E-14 1.192094E-07
vn 1 1.065813E-14 1.192094E-07
vn 1 1.065813E-14 1.192094E-07
vn 1 1.065813E-14 1.192094E-07
vn 1 1.065813E-14 1.192094E-07
vn 1 1.065813E-14 1.192094E-07
vn 1 1.065813E-14 1.192094E-07
vn 1 1.065813E-14 1.192094E-07
vn 1 1.065813E-14 1.192094E-07
vn 1 1.065813E-14 1.192094E-07
vn 1 1.065813E-14 1.192094E-07
vn 1 1.065813E-14 1.192094E-07
vn 1 1.065813E-14 1.192094E-07
vn 1 1.065813E-14 1.192094E-07
vn 1 1.065813E-14 1.192094E-07
vn 1 1.065813E-14 1.192094E-07
vn 1 1.065813E-14 1.192094E-07
vn 1 1.065813E-14 1.192094E-07
vn 1 1.065813E-14 1.192094E-07
vn 1 1.065813E-14 1.192094E-07
vn 1 1.065813E-14 1.192094E-07
vn 1 1.065813E-14 1.192094E-07
vn 1 1.065813E-14 1.192094E-07
vn 1 1.065813E-14 1.192094E-07
vn 0.07669417 0.9970547 9.630801E-08
vn 0.03741575 0.9992998 9.182193E-08
vn 0.07669417 0.9970547 9.630801E-08
vn 0.03741575 0.9992998 9.182193E-08
vn -1.065811E-14 1 8.742283E-08
vn -1.065811E-14 1 8.742283E-08
vn 0.03836267 8.735838E-08 -0.9992639
vn 0.07669405 8.716525E-08 -0.9970547
vn 0.07669405 8.716525E-08 -0.9970547
vn 0.07669405 8.716525E-08 -0.9970547
vn -9.214977E-08 -0.6343938 -0.7730101
vn -1.073521E-07 -0.4347797 -0.9005369
vn -9.214977E-08 -0.6343938 -0.7730101
vn -1.073804E-07 -0.4342881 -0.9007741
vn -1.17457E-07 -0.1708143 -0.9853033
vn -1.174747E-07 -0.1699589 -0.9854512
vn -1.19209E-07 8.742273E-08 -1
vn 0.03836267 8.735838E-08 -0.9992639
vn 0.03741563 8.736152E-08 -0.9992998
vn -1.19209E-07 8.742273E-08 -1
vn -6.622933E-08 -0.8314676 -0.5555733
vn -9.214977E-08 -0.6343938 -0.7730101
vn -9.214977E-08 -0.6343938 -0.7730101
vn -6.622933E-08 -0.8314676 -0.5555733
vn -3.514127E-08 -0.9555629 -0.2947871
vn -3.519851E-08 -0.9554147 -0.2952673
vn 1.065811E-14 -1 -8.742283E-08
vn 1.065811E-14 -1 -8.742283E-08
vn 9.214978E-08 -0.6343939 0.77301
vn 9.214978E-08 -0.6343939 0.77301
vn 1.073521E-07 -0.4347799 0.9005368
vn 1.073804E-07 -0.4342882 0.9007739
vn 1.17457E-07 -0.1708145 0.9853032
vn 1.174747E-07 -0.1699591 0.9854511
vn 1.19209E-07 -8.742273E-08 1
vn 0.03836291 -8.735838E-08 0.9992639
vn 0.03741587 -8.736151E-08 0.9992998
vn 1.19209E-07 -8.742273E-08 1
vn 6.622935E-08 -0.8314677 0.5555732
vn 9.214978E-08 -0.6343939 0.77301
vn 9.214978E-08 -0.6343939 0.77301
vn 6.622935E-08 -0.8314677 0.5555732
vn 3.514129E-08 -0.955563 0.294787
vn 3.519853E-08 -0.9554147 0.2952672
vn 1.065811E-14 -1 -8.742283E-08
vn 1.065811E-14 -1 -8.742283E-08
vn 1.065811E-14 -1 -8.742283E-08
vn 1.065811E-14 -1 -8.742283E-08
vn 0.03741563 8.736152E-08 -0.9992998
vn 0.03836267 8.735838E-08 -0.9992639
vn 0.07669405 8.716525E-08 -0.9970547
vn 0.07669405 8.716525E-08 -0.9970547
vn 0.03836291 -8.735838E-08 0.9992639
vn 0.03741587 -8.736151E-08 0.9992998
vn 0.07669429 -8.716525E-08 0.9970547
vn 0.07669429 -8.716525E-08 0.9970547
vn 0.07669429 -8.716525E-08 0.9970547
vn 0.07669429 -8.716525E-08 0.9970547
vn 0 -3.863339E-15 -1
vn 0 -3.863339E-15 -1
vn 0 -3.863339E-15 -1
vn 0 -3.863339E-15 -1
vn 0 0 -1
vn 0 0 -1
vn 0 0 -1
vn 0 0 -1
vn 0 -3.863339E-15 1
vn 0 -3.863339E-15 1
vn 0 -3.863339E-15 1
vn 0 -3.863339E-15 1
vn 0 -3.863339E-15 1
vn 0 -3.863339E-15 1
vn 0 -3.863339E-15 1
vn 0 -3.863339E-15 1
vn -1 -1.065813E-14 -1.192094E-07
vn -1 -1.065813E-14 -1.192094E-07
vn -1 -1.065813E-14 -1.192094E-07
vn -1 -1.065813E-14 -1.192094E-07
vn -1 -1.065813E-14 -1.192094E-07
vn -1 -1.065813E-14 -1.192094E-07
vn -1 -1.065813E-14 -1.192094E-07
vn -1 -1.065813E-14 -1.192094E-07
vn 1.192092E-07 1.610546E-14 1
vn 1.192092E-07 1.610546E-14 1
vn 1.192092E-07 1.610546E-14 1
vn 1.192092E-07 1.610546E-14 1
vn 1 -7.105421E-15 -5.960459E-07
vn 1 -7.105421E-15 -5.960459E-07
vn 1 -7.105421E-15 -5.960459E-07
vn 1 -7.105421E-15 -5.960459E-07
vn 1.330515E-07 1 5.960469E-08
vn 1.330515E-07 1 5.960469E-08
vn 1.330515E-07 1 5.960469E-08
vn 1.330515E-07 1 5.960469E-08
g _Combined_Vis61_0_0
f 3/3/3 2/2/2 1/1/1
f 4/4/4 3/3/3 1/1/1
f 4/4/4 1/1/1 5/5/5
f 1/1/1 6/6/6 5/5/5
f 5/5/5 6/6/6 7/7/7
f 6/6/6 8/8/8 7/7/7
f 8/8/8 9/9/9 7/7/7
f 9/9/9 10/10/10 7/7/7
f 10/10/10 11/11/11 7/7/7
f 7/7/7 11/11/11 12/12/12
f 13/13/13 7/7/7 12/12/12
f 14/14/14 13/13/13 12/12/12
f 15/15/15 14/14/14 12/12/12
f 15/15/15 16/16/16 14/14/14
f 16/16/16 17/17/17 14/14/14
f 17/17/17 18/18/18 14/14/14
f 18/18/18 19/19/19 14/14/14
f 19/19/19 20/20/20 14/14/14
f 20/20/20 19/19/19 21/21/21
f 22/22/22 20/20/20 21/21/21
f 23/23/23 22/22/22 21/21/21
f 24/24/24 23/23/23 21/21/21
f 27/27/27 26/26/26 25/25/25
f 28/28/28 27/27/27 25/25/25
f 29/29/29 27/27/27 28/28/28
f 30/30/30 29/29/29 28/28/28
f 33/33/33 32/32/32 31/31/31
f 32/32/32 34/34/34 31/31/31
f 32/32/32 35/35/35 34/34/34
f 35/35/35 36/36/36 34/34/34
f 39/39/39 38/38/38 37/37/37
f 40/40/40 39/39/39 37/37/37
f 43/43/43 42/42/42 41/41/41
f 42/42/42 44/44/44 41/41/41
f 42/42/42 45/45/45 44/44/44
f 45/45/45 46/46/46 44/44/44
f 46/46/46 45/45/45 47/47/47
f 48/48/48 46/46/46 47/47/47
f 49/49/49 48/48/48 47/47/47
f 50/50/50 49/49/49 47/47/47
f 53/53/53 52/52/52 51/51/51
f 54/54/54 53/53/53 51/51/51
f 54/54/54 51/51/51 55/55/55
f 56/56/56 54/54/54 55/55/55
f 56/56/56 55/55/55 57/57/57
f 58/58/58 56/56/56 57/57/57
f 61/61/61 60/60/60 59/59/59
f 62/62/62 61/61/61 59/59/59
f 63/63/63 61/61/61 62/62/62
f 64/64/64 63/63/63 62/62/62
f 63/63/63 64/64/64 65/65/65
f 64/64/64 66/66/66 65/65/65
f 66/66/66 67/67/67 65/65/65
f 67/67/67 68/68/68 65/65/65
f 71/71/71 70/70/70 69/69/69
f 70/70/70 72/72/72 69/69/69
f 69/69/69 72/72/72 73/73/73
f 72/72/72 74/74/74 73/73/73
f 73/73/73 74/74/74 57/57/57
f 74/74/74 58/58/58 57/57/57
f 77/77/77 76/76/76 75/75/75
f 78/78/78 77/77/77 75/75/75
f 81/81/81 80/80/80 79/79/79
f 82/82/82 81/81/81 79/79/79
f 85/85/85 84/84/84 83/83/83
f 86/86/86 85/85/85 83/83/83
f 86/86/86 83/83/83 87/87/87
f 88/88/88 86/86/86 87/87/87
f 91/91/91 90/90/90 89/89/89
f 92/92/92 91/91/91 89/89/89
f 95/95/95 94/94/94 93/93/93
f 96/96/96 95/95/95 93/93/93
f 99/99/99 98/98/98 97/97/97
f 100/100/100 99/99/99 97/97/97
f 103/103/103 102/102/102 101/101/101
f 104/104/104 103/103/103 101/101/101
f 107/107/107 106/106/106 105/105/105
f 108/108/108 107/107/107 105/105/105
f 111/111/111 110/110/110 109/109/109
f 112/112/112 111/111/111 109/109/109
f 115/115/115 114/114/114 113/113/113
f 116/116/116 115/115/115 113/113/113
f 119/119/119 118/118/118 117/117/117
f 120/120/120 119/119/119 117/117/117
f 123/123/123 122/122/122 121/121/121
f 124/124/124 123/123/123 121/121/121
