g _Combined_Vis_Avoid_AO33_0
v -0.5 0 -1.013279E-06
v 0.5 0 1.013279E-06
v 0.5 0 1
v -0.5 0 1
v 0.5 0 1.013279E-06
v -0.5 0 -1.013279E-06
v -0.5 0 -1
v 0.5 0 -1
v -12.5 -5.960464E-08 -2
v -12.5 5.960464E-08 -0.9999999
v -13.5 5.960464E-08 -0.9999999
v -13.5 -5.960464E-08 -2
v -11.5 -5.960464E-08 -2
v -11.5 5.960464E-08 -0.9999999
v -12.5 5.960464E-08 -0.9999999
v -12.5 -5.960464E-08 -2
vt 0.140625 0.171875
vt 0.140625 0.046875
vt 0.015625 0.046875
vt 0.015625 0.171875
vt 0.140625 0.171875
vt 0.140625 0.046875
vt 0.015625 0.046875
vt 0.015625 0.171875
vt 0.140625 0.171875
vt 0.140625 0.046875
vt 0.015625 0.046875
vt 0.015625 0.171875
vt 0.140625 0.171875
vt 0.140625 0.046875
vt 0.015625 0.046875
vt 0.015625 0.171875
vn 0 1 0
vn 0 1 0
vn 0 1 0
vn 0 1 0
vn 0 1 0
vn 0 1 0
vn 0 1 0
vn 0 1 0
vn 0 1 -1.192093E-07
vn 0 1 -1.192093E-07
vn 0 1 -1.192093E-07
vn 0 1 -1.192093E-07
vn 0 1 -1.192093E-07
vn 0 1 -1.192093E-07
vn 0 1 -1.192093E-07
vn 0 1 -1.192093E-07
g _Combined_Vis_Avoid_AO33_0_0
f 3/3/3 2/2/2 1/1/1
f 4/4/4 3/3/3 1/1/1
f 7/7/7 6/6/6 5/5/5
f 8/8/8 7/7/7 5/5/5
f 11/11/11 10/10/10 9/9/9
f 12/12/12 11/11/11 9/9/9
f 15/15/15 14/14/14 13/13/13
f 16/16/16 15/15/15 13/13/13
