g _Combined_Vis12_1
v 0.5025657 -1.713006 -0.2683954
v 0.5025656 -1.713004 -0.4310384
v 0.5025657 -1.999999 -0.4310386
v 0.5025658 -1.722149 -0.2635074
v 0.5025657 -1.713006 -0.2683954
v 0.5025659 -1.782743 -0.2137805
v 0.5025659 -1.83247 -0.1531875
v 0.502566 -1.869421 -0.08405754
v 0.5025661 -1.892175 -0.009046565
v 0.5025662 -1.899858 0.06896143
v 0.5025662 -1.892175 0.1469694
v 0.5025667 -2 0.5689613
v 0.5025663 -1.869421 0.2219805
v 0.5025664 -1.83247 0.2911105
v 0.5025665 -1.782743 0.3517035
v 0.5025665 -1.72215 0.4014306
v 0.5025665 -1.713006 0.4063186
v 0.5025666 -1.713006 0.5689616
v 0.5025665 -1.713006 0.4063186
v 0.5025662 -1.713006 0.1930376
v 0.5025665 -1.72215 0.4014306
v 0.5025665 -1.713006 0.4063186
v 0.5025662 -1.713006 0.1930376
v 0.5025665 -1.782743 0.3517035
v 0.5025662 -1.713006 0.1930376
v 0.5025664 -1.83247 0.2911105
v 0.5025662 -1.713006 0.1930376
v 0.5025663 -1.869421 0.2219805
v 0.5025662 -1.713006 0.1930376
v 0.5025662 -1.728692 0.1636886
v 0.5025662 -1.742778 0.1172526
v 0.5025662 -1.892175 0.1469694
v 0.5025662 -1.899858 0.06896143
v 0.5025661 -1.747534 0.06896157
v 0.5025661 -1.892175 -0.009046565
v 0.5025661 -1.742778 0.02067057
v 0.502566 -1.728692 -0.02576542
v 0.502566 -1.869421 -0.08405754
v 0.502566 -1.713006 -0.0551134
v 0.502566 -1.713006 -0.0551134
v 0.5025659 -1.83247 -0.1531875
v 0.502566 -1.713006 -0.0551134
v 0.5025659 -1.782743 -0.2137805
v 0.502566 -1.713006 -0.0551134
v 0.5025658 -1.722149 -0.2635074
v 0.502566 -1.713006 -0.0551134
v 0.5025657 -1.713006 -0.2683954
v -0.4974337 -1.683834 0.2332737
v -0.4974335 -1.683835 0.4219127
v -0.4974335 -1.72215 0.4014316
v -0.4974336 -1.782743 0.3517046
v -0.4974337 -1.683834 0.2332737
v -0.4974337 -1.683834 0.2332737
v -0.4974336 -1.83247 0.2911115
v -0.4974338 -1.705818 0.2064846
v -0.4974337 -1.683834 0.2332737
v -0.4974337 -1.869421 0.2219805
v -0.4974338 -1.728692 0.1636896
v -0.4974338 -1.892175 0.1469705
v -0.4974338 -1.742778 0.1172536
v -0.4974339 -1.747534 0.0689626
v -0.4974338 -1.899858 0.06896246
v -0.4974339 -1.892175 -0.009045532
v -0.4974339 -1.742778 0.02067061
v -0.497434 -1.728692 -0.02576439
v -0.497434 -1.869421 -0.0840565
v -0.497434 -1.705817 -0.06856035
v -0.4974341 -1.83247 -0.1531865
v -0.497434 -1.683834 -0.09534734
v -0.4974342 -1.782743 -0.2137794
v -0.497434 -1.683834 -0.09534734
v -0.497434 -1.683834 -0.09534734
v -0.4974342 -1.72215 -0.2635074
v -0.4974343 -1.683834 -0.2839873
v -0.497434 -1.683834 -0.09534734
v 0.502566 -1.713006 -0.0551134
v 0.502566 -1.728692 -0.02576542
v 0.5025661 -1.742778 0.02067057
v 0.502566 -1.713006 -0.0551134
v 0.5025661 -1.747534 0.06896157
v 0.5025662 -1.742778 0.1172526
v 0.502566 -1.713006 -0.0551134
v 0.5025662 -1.728692 0.1636886
v 0.502566 -1.713006 -0.0551134
v 0.5025662 -1.713006 0.1930376
v -0.4974337 -1.683834 0.2332737
v -0.4974338 -1.705818 0.2064846
v -0.4974338 -1.728692 0.1636896
v -0.4974337 -1.683834 0.2332737
v -0.4974338 -1.742778 0.1172536
v -0.4974337 -1.683834 0.2332737
v -0.4974339 -1.747534 0.0689626
v -0.4974339 -1.742778 0.02067061
v -0.4974337 -1.683834 0.2332737
v -0.497434 -1.728692 -0.02576439
v -0.4974337 -1.683834 0.2332737
v -0.497434 -1.705817 -0.06856035
v -0.4974337 -1.683834 0.2332737
v -0.497434 -1.683834 -0.09534734
v 0.5025657 -1.999999 -0.4310386
v 0.5025656 -1.713004 -0.4310384
v 0.1521656 -1.815987 -0.4310381
v -0.4974343 -2 -0.4310376
v -0.4974344 -1.683834 -0.4310373
v 0.5025666 -1.713006 0.5689616
v 0.5025667 -2 0.5689613
v 0.1521667 -1.815987 0.5689619
v -0.4974333 -2 0.5689624
v -0.4974334 -1.683835 0.5689626
v 0.5025657 -1.713006 -0.2683954
v 0.1521656 -1.815987 -0.4310381
v 0.5025656 -1.713004 -0.4310384
v 0.502566 -1.713006 -0.0551134
v 0.5025662 -1.713006 0.1930376
v 0.1521667 -1.815987 0.5689619
v 0.5025665 -1.713006 0.4063186
v 0.5025666 -1.713006 0.5689616
v -0.497434 -1.683834 -0.09534734
v -0.4974343 -1.683834 -0.2839873
v -0.4974344 -1.683834 -0.4310373
v -0.4974337 -1.683834 0.2332737
v -0.4974335 -1.683835 0.4219127
v -0.4974334 -1.683835 0.5689626
v 0.5025657 -1.999999 -0.4310386
v -0.4974343 -2 -0.4310376
v -0.4974333 -2 0.5689624
v 0.5025667 -2 0.5689613
v -0.4974335 -1.72215 0.4014316
v -0.4974335 -1.683835 0.4219127
v -0.4974334 -1.683835 0.5689626
v -0.4974333 -2 0.5689624
v -0.4974336 -1.782743 0.3517046
v -0.4974336 -1.83247 0.2911115
v -0.4974337 -1.869421 0.2219805
v -0.4974338 -1.892175 0.1469705
v -0.4974338 -1.899858 0.06896246
v -0.4974339 -1.892175 -0.009045532
v -0.4974343 -2 -0.4310376
v -0.497434 -1.869421 -0.0840565
v -0.4974341 -1.83247 -0.1531865
v -0.4974342 -1.782743 -0.2137794
v -0.4974342 -1.72215 -0.2635074
v -0.4974344 -1.683834 -0.4310373
v -0.4974343 -1.683834 -0.2839873
vt 0.482979 0.821953
vt 0.5 0.821749
vt 0.5 0.75
vt 0.452485 0.823697
vt 0.453622 0.825824
vt 0.440915 0.8096
vt 0.426818 0.798031
vt 0.410735 0.789434
vt 0.393284 0.784141
vt 0.375135 0.782354
vt 0.356986 0.784142
vt 0.25 0.75
vt 0.339535 0.789436
vt 0.323452 0.798032
vt 0.309355 0.809601
vt 0.297785 0.823698
vt 0.282414 0.82426
vt 0.25 0.821748
vt 0.273052 0.822928
vt 0.77673 0.319891
vt 0.773569 0.317242
vt 0.772423 0.320009
vt 0.778818 0.320048
vt 0.786146 0.298423
vt 0.82231 0.321076
vt 0.802153 0.282418
vt 0.835107 0.322575
vt 0.820975 0.269843
vt 0.836381 0.322569
vt 0.846934 0.318414
vt 0.857872 0.313883
vt 0.841887 0.261182
vt 0.864087 0.256767
vt 0.869485 0.311574
vt 0.886722 0.256767
vt 0.881324 0.311574
vt 0.892937 0.313884
vt 0.908922 0.261182
vt 0.900438 0.316991
vt 0.904239 0.315959
vt 0.929835 0.269844
vt 0.91831 0.312161
vt 0.948657 0.282419
vt 0.936638 0.307621
vt 0.964664 0.298424
vt 0.960063 0.3022
vt 0.966327 0.300914
vt 0.973664 0.365894
vt 0.990146 0.372603
vt 0.990146 0.360057
vt 0.985729 0.337855
vt 0.937331 0.352536
vt 0.935562 0.351961
vt 0.977067 0.316941
vt 0.928495 0.342904
vt 0.931731 0.350716
vt 0.964491 0.298119
vt 0.921917 0.333059
vt 0.948484 0.282113
vt 0.913544 0.324687
vt 0.9037 0.318109
vt 0.929662 0.269536
vt 0.908748 0.260873
vt 0.892761 0.313578
vt 0.881148 0.311268
vt 0.886546 0.256458
vt 0.869309 0.311268
vt 0.86391 0.256458
vt 0.858044 0.310385
vt 0.841708 0.260874
vt 0.85639 0.309272
vt 0.845147 0.299857
vt 0.820795 0.269537
vt 0.810363 0.276507
vt 0.83255 0.291529
vt 0.363638 0.833815
vt 0.370234 0.826793
vt 0.360879 0.828654
vt 0.355266 0.83829
vt 0.352067 0.832304
vt 0.344136 0.837603
vt 0.346894 0.842764
vt 0.337391 0.844348
vt 0.339113 0.846924
vt 0.333757 0.849787
vt 0.360009 0.913007
vt 0.35206 0.918132
vt 0.360873 0.921782
vt 0.369093 0.912112
vt 0.370228 0.923643
vt 0.378539 0.911182
vt 0.379767 0.923643
vt 0.389122 0.921782
vt 0.387986 0.910251
vt 0.397934 0.918132
vt 0.39707 0.909356
vt 0.405865 0.912832
vt 0.405442 0.908532
vt 0.410682 0.908016
vt 0.5 0.75
vt 0.5 0.821749
vt 0.587585 0.796003
vt 0.749957 0.75
vt 0.749957 0.829042
vt 0.25 0.821749
vt 0.25 0.75
vt 0.1624 0.796003
vt 0 0.75
vt 0 0.829042
vt 0.460568 0.739997
vt 0.458926 0.740759
vt 0.460568 0.740759
vt 0.460568 0.738997
vt 0.460568 0.737834
vt 0.458926 0.736072
vt 0.460568 0.736834
vt 0.460568 0.736072
vt 0.455881 0.739186
vt 0.455881 0.74007
vt 0.455881 0.740759
vt 0.455881 0.737645
vt 0.455881 0.736761
vt 0.455881 0.736072
vt 0.749284 0.500818
vt 0.878369 0.500818
vt 0.878369 0.629903
vt 0.749284 0.629903
vt 0.297729 0.926989
vt 0.292965 0.918074
vt 0.285658 0.918818
vt 0.25 1
vt 0.309299 0.941086
vt 0.323396 0.952655
vt 0.339479 0.961251
vt 0.356931 0.966545
vt 0.375079 0.968332
vt 0.393228 0.966545
vt 0.5 1
vt 0.410679 0.961251
vt 0.426762 0.952654
vt 0.440859 0.941085
vt 0.452429 0.926988
vt 0.464486 0.918817
vt 0.457193 0.918074
vn 1 2.739554E-07 -1.032598E-06
vn 1 2.739554E-07 -1.032598E-06
vn 1 2.739554E-07 -1.032598E-06
vn 1 2.739554E-07 -1.032598E-06
vn 1 2.739554E-07 -1.032598E-06
vn 1 2.739554E-07 -1.032598E-06
vn 1 2.739554E-07 -1.032598E-06
vn 1 2.739554E-07 -1.032598E-06
vn 1 2.739554E-07 -1.032598E-06
vn 1 2.739554E-07 -1.032598E-06
vn 1 2.739554E-07 -1.032598E-06
vn 1 2.739554E-07 -1.032598E-06
vn 1 2.739554E-07 -1.032598E-06
vn 1 2.739554E-07 -1.032598E-06
vn 1 2.739554E-07 -1.032598E-06
vn 1 2.739554E-07 -1.032598E-06
vn 1 2.739554E-07 -1.032598E-06
vn 1 2.739554E-07 -1.032598E-06
vn 1 2.739554E-07 -1.032598E-06
vn 1 2.739554E-07 -1.032598E-06
vn 1 2.739554E-07 -1.032598E-06
vn 1 2.739554E-07 -1.032598E-06
vn 1 2.739554E-07 -1.032598E-06
vn 1 2.739554E-07 -1.032598E-06
vn 1 2.739554E-07 -1.032598E-06
vn 1 2.739554E-07 -1.032598E-06
vn 1 2.739554E-07 -1.032598E-06
vn 1 2.739554E-07 -1.032598E-06
vn 1 2.739554E-07 -1.032598E-06
vn 1 2.739554E-07 -1.032598E-06
vn 1 2.739554E-07 -1.032598E-06
vn 1 2.739554E-07 -1.032598E-06
vn 1 2.739554E-07 -1.032598E-06
vn 1 2.739554E-07 -1.032598E-06
vn 1 2.739554E-07 -1.032598E-06
vn 1 2.739554E-07 -1.032598E-06
vn 1 2.739554E-07 -1.032598E-06
vn 1 2.739554E-07 -1.032598E-06
vn 1 2.739554E-07 -1.032598E-06
vn 1 2.739554E-07 -1.032598E-06
vn 1 2.739554E-07 -1.032598E-06
vn 1 2.739554E-07 -1.032598E-06
vn 1 2.739554E-07 -1.032598E-06
vn 1 2.739554E-07 -1.032598E-06
vn 1 2.739554E-07 -1.032598E-06
vn 1 2.739554E-07 -1.032598E-06
vn 1 2.739554E-07 -1.032598E-06
vn -1 -2.739554E-07 1.032598E-06
vn -1 -2.739554E-07 1.032598E-06
vn -1 -2.739554E-07 1.032598E-06
vn -1 -2.739554E-07 1.032598E-06
vn -1 -2.739554E-07 1.032598E-06
vn -1 -2.739554E-07 1.032598E-06
vn -1 -2.739554E-07 1.032598E-06
vn -1 -2.739554E-07 1.032598E-06
vn -1 -2.739554E-07 1.032598E-06
vn -1 -2.739554E-07 1.032598E-06
vn -1 -2.739554E-07 1.032598E-06
vn -1 -2.739554E-07 1.032598E-06
vn -1 -2.739554E-07 1.032598E-06
vn -1 -2.739554E-07 1.032598E-06
vn -1 -2.739554E-07 1.032598E-06
vn -1 -2.739554E-07 1.032598E-06
vn -1 -2.739554E-07 1.032598E-06
vn -1 -2.739554E-07 1.032598E-06
vn -1 -2.739554E-07 1.032598E-06
vn -1 -2.739554E-07 1.032598E-06
vn -1 -2.739554E-07 1.032598E-06
vn -1 -2.739554E-07 1.032598E-06
vn -1 -2.739554E-07 1.032598E-06
vn -1 -2.739554E-07 1.032598E-06
vn -1 -2.739554E-07 1.032598E-06
vn -1 -2.739554E-07 1.032598E-06
vn -1 -2.739554E-07 1.032598E-06
vn -1 -2.739554E-07 1.032598E-06
vn 1 2.739554E-07 -1.032598E-06
vn 1 2.739554E-07 -1.032598E-06
vn 1 2.739554E-07 -1.032598E-06
vn 1 2.739554E-07 -1.032598E-06
vn 1 2.739554E-07 -1.032598E-06
vn 1 2.739554E-07 -1.032598E-06
vn 1 2.739554E-07 -1.032598E-06
vn 1 2.739554E-07 -1.032598E-06
vn 1 2.739554E-07 -1.032598E-06
vn 1 2.739554E-07 -1.032598E-06
vn -1 -2.739554E-07 1.032598E-06
vn -1 -2.739554E-07 1.032598E-06
vn -1 -2.739554E-07 1.032598E-06
vn -1 -2.739554E-07 1.032598E-06
vn -1 -2.739554E-07 1.032598E-06
vn -1 -2.739554E-07 1.032598E-06
vn -1 -2.739554E-07 1.032598E-06
vn -1 -2.739554E-07 1.032598E-06
vn -1 -2.739554E-07 1.032598E-06
vn -1 -2.739554E-07 1.032598E-06
vn -1 -2.739554E-07 1.032598E-06
vn -1 -2.739554E-07 1.032598E-06
vn -1 -2.739554E-07 1.032598E-06
vn -1 -2.739554E-07 1.032598E-06
vn -1.032598E-06 8.940697E-07 -1
vn -1.032598E-06 8.940697E-07 -1
vn -1.032598E-06 8.940697E-07 -1
vn -1.032598E-06 8.940697E-07 -1
vn -1.032598E-06 8.940697E-07 -1
vn 1.032598E-06 -8.940697E-07 1
vn 1.032598E-06 -8.940697E-07 1
vn 1.032598E-06 -8.940697E-07 1
vn 1.032598E-06 -8.940697E-07 1
vn 1.032598E-06 -8.940697E-07 1
vn -0.281965 0.9594247 1.148949E-06
vn -0.0425435 0.9990946 9.371902E-07
vn -0.281965 0.9594247 1.148949E-06
vn -0.281965 0.9594247 1.148949E-06
vn -0.281965 0.9594247 1.148949E-06
vn -0.0425435 0.9990946 9.371902E-07
vn -0.281965 0.9594247 1.148949E-06
vn -0.281965 0.9594247 1.148949E-06
vn 0.1993486 0.9799286 6.702772E-07
vn 0.1993486 0.9799286 6.702772E-07
vn 0.1993486 0.9799286 6.702772E-07
vn 0.1993486 0.9799286 6.702772E-07
vn 0.1993486 0.9799286 6.702772E-07
vn 0.1993486 0.9799286 6.702772E-07
vn 2.739544E-07 -1 -8.940697E-07
vn 2.739544E-07 -1 -8.940697E-07
vn 2.739544E-07 -1 -8.940697E-07
vn 2.739544E-07 -1 -8.940697E-07
vn -1 -2.739554E-07 1.032598E-06
vn -1 -2.739554E-07 1.032598E-06
vn -1 -2.739554E-07 1.032598E-06
vn -1 -2.739554E-07 1.032598E-06
vn -1 -2.739554E-07 1.032598E-06
vn -1 -2.739554E-07 1.032598E-06
vn -1 -2.739554E-07 1.032598E-06
vn -1 -2.739554E-07 1.032598E-06
vn -1 -2.739554E-07 1.032598E-06
vn -1 -2.739554E-07 1.032598E-06
vn -1 -2.739554E-07 1.032598E-06
vn -1 -2.739554E-07 1.032598E-06
vn -1 -2.739554E-07 1.032598E-06
vn -1 -2.739554E-07 1.032598E-06
vn -1 -2.739554E-07 1.032598E-06
vn -1 -2.739554E-07 1.032598E-06
vn -1 -2.739554E-07 1.032598E-06
g _Combined_Vis12_1_0
f 3/3/3 2/2/2 1/1/1
f 3/3/3 5/5/5 4/4/4
f 3/3/3 4/4/4 6/6/6
f 3/3/3 6/6/6 7/7/7
f 3/3/3 7/7/7 8/8/8
f 3/3/3 8/8/8 9/9/9
f 3/3/3 9/9/9 10/10/10
f 10/10/10 11/11/11 3/3/3
f 11/11/11 12/12/12 3/3/3
f 11/11/11 13/13/13 12/12/12
f 13/13/13 14/14/14 12/12/12
f 14/14/14 15/15/15 12/12/12
f 15/15/15 16/16/16 12/12/12
f 12/12/12 16/16/16 17/17/17
f 12/12/12 19/19/19 18/18/18
f 22/22/22 21/21/21 20/20/20
f 21/21/21 24/24/24 23/23/23
f 24/24/24 26/26/26 25/25/25
f 28/28/28 27/27/27 26/26/26
f 28/28/28 30/30/30 29/29/29
f 31/31/31 30/30/30 28/28/28
f 32/32/32 31/31/31 28/28/28
f 31/31/31 32/32/32 33/33/33
f 34/34/34 31/31/31 33/33/33
f 34/34/34 33/33/33 35/35/35
f 36/36/36 34/34/34 35/35/35
f 37/37/37 36/36/36 35/35/35
f 38/38/38 37/37/37 35/35/35
f 38/38/38 39/39/39 37/37/37
f 38/38/38 41/41/41 40/40/40
f 41/41/41 43/43/43 42/42/42
f 45/45/45 44/44/44 43/43/43
f 45/45/45 47/47/47 46/46/46
f 50/50/50 49/49/49 48/48/48
f 50/50/50 52/52/52 51/51/51
f 54/54/54 51/51/51 53/53/53
f 54/54/54 56/56/56 55/55/55
f 54/54/54 55/55/55 57/57/57
f 55/55/55 58/58/58 57/57/57
f 57/57/57 58/58/58 59/59/59
f 58/58/58 60/60/60 59/59/59
f 60/60/60 61/61/61 59/59/59
f 61/61/61 62/62/62 59/59/59
f 62/62/62 61/61/61 63/63/63
f 61/61/61 64/64/64 63/63/63
f 64/64/64 65/65/65 63/63/63
f 65/65/65 66/66/66 63/63/63
f 65/65/65 67/67/67 66/66/66
f 67/67/67 68/68/68 66/66/66
f 68/68/68 67/67/67 69/69/69
f 68/68/68 71/71/71 70/70/70
f 73/73/73 70/70/70 72/72/72
f 73/73/73 75/75/75 74/74/74
f 78/78/78 77/77/77 76/76/76
f 80/80/80 78/78/78 79/79/79
f 80/80/80 82/82/82 81/81/81
f 81/81/81 84/84/84 83/83/83
f 83/83/83 84/84/84 85/85/85
f 88/88/88 87/87/87 86/86/86
f 90/90/90 88/88/88 89/89/89
f 92/92/92 90/90/90 91/91/91
f 92/92/92 94/94/94 93/93/93
f 93/93/93 96/96/96 95/95/95
f 95/95/95 98/98/98 97/97/97
f 97/97/97 98/98/98 99/99/99
f 102/102/102 101/101/101 100/100/100
f 102/102/102 100/100/100 103/103/103
f 104/104/104 102/102/102 103/103/103
f 107/107/107 106/106/106 105/105/105
f 108/108/108 106/106/106 107/107/107
f 109/109/109 108/108/108 107/107/107
f 112/112/112 111/111/111 110/110/110
f 110/110/110 111/111/111 113/113/113
f 113/113/113 111/111/111 114/114/114
f 111/111/111 115/115/115 114/114/114
f 114/114/114 115/115/115 116/116/116
f 116/116/116 115/115/115 117/117/117
f 111/111/111 118/118/118 115/115/115
f 119/119/119 118/118/118 111/111/111
f 119/119/119 111/111/111 120/120/120
f 118/118/118 121/121/121 115/115/115
f 121/121/121 122/122/122 115/115/115
f 122/122/122 123/123/123 115/115/115
f 126/126/126 125/125/125 124/124/124
f 127/127/127 126/126/126 124/124/124
f 130/130/130 129/129/129 128/128/128
f 131/131/131 130/130/130 128/128/128
f 132/132/132 131/131/131 128/128/128
f 133/133/133 131/131/131 132/132/132
f 134/134/134 131/131/131 133/133/133
f 135/135/135 131/131/131 134/134/134
f 136/136/136 131/131/131 135/135/135
f 136/136/136 137/137/137 131/131/131
f 137/137/137 138/138/138 131/131/131
f 137/137/137 139/139/139 138/138/138
f 139/139/139 140/140/140 138/138/138
f 140/140/140 141/141/141 138/138/138
f 141/141/141 142/142/142 138/138/138
f 138/138/138 142/142/142 143/143/143
f 142/142/142 144/144/144 143/143/143
