g _Combined_Vis83_0
v 104.5 19 -1.5
v 105.5 19.00001 -1.5
v 105.5 20 -1.5
v 104.5 20 -1.5
v 105.5 20 -1.5
v 105.5 20 -0.5000001
v 104.5 20 -0.4999999
v 104.5 20 -1.5
v 104.5 19 -0.499999
v 105.5 19 -0.500001
v 105.5 19.00001 -1.5
v 104.5 19 -1.5
v 105.5 19.25 -0.625
v 105.375 19.25 -0.625
v 105.375 19.125 -0.75
v 105.5 19.125 -0.75
v 105.5 19.75 -1.375
v 105.375 19.75 -1.375
v 105.375 19.875 -1.25
v 105.5 19.875 -1.25
v 105.5 19.875 -0.7499999
v 105.375 19.875 -0.7499999
v 105.375 19.75 -0.6249999
v 105.5 19.75 -0.6249999
v 105.5 19.75 -0.6249999
v 105.375 19.75 -0.6249999
v 105.375 19.25 -0.625
v 105.5 19.25 -0.625
v 105.5 19.125 -1.25
v 105.375 19.125 -1.25
v 105.375 19.25 -1.375
v 105.5 19.25 -1.375
v 105.5 19.875 -1.25
v 105.375 19.875 -1.25
v 105.375 19.875 -0.7499999
v 105.5 19.875 -0.7499999
v 105.5 19.25 -1.375
v 105.375 19.25 -1.375
v 105.375 19.75 -1.375
v 105.5 19.75 -1.375
v 105.5 19.125 -0.75
v 105.375 19.125 -0.75
v 105.375 19.125 -1.25
v 105.5 19.125 -1.25
v 105.5 19.75 -0.6249999
v 105.5 20 -0.5000001
v 105.5 19.875 -0.7499999
v 105.5 19.25 -0.625
v 105.5 20 -1.5
v 105.5 19.875 -1.25
v 105.5 19.75 -1.375
v 105.5 19 -0.500001
v 105.5 19.125 -0.75
v 105.5 19.125 -1.25
v 105.5 19.00001 -1.5
v 105.5 19.25 -1.375
vt 0.96875 0.59375
vt 0.96875 0.46875
vt 0.84375 0.46875
vt 0.84375 0.59375
vt 0.96875 0.59375
vt 0.96875 0.46875
vt 0.84375 0.46875
vt 0.84375 0.59375
vt 0.96875 0.59375
vt 0.96875 0.46875
vt 0.84375 0.46875
vt 0.84375 0.59375
vt 0.7071875 0.09837937
vt 0.7071875 0.08853562
vt 0.7170312 0.08853562
vt 0.7170312 0.09837937
vt 0.6678125 0.09837937
vt 0.6678125 0.08853562
vt 0.6579688 0.08853562
vt 0.6579688 0.09837937
vt 0.6579688 0.09837937
vt 0.6579688 0.08853562
vt 0.6678125 0.08853562
vt 0.6678125 0.09837937
vt 0.6678125 0.09837937
vt 0.6678125 0.08853562
vt 0.7071875 0.08853562
vt 0.7071875 0.09837937
vt 0.7170312 0.09837937
vt 0.7170312 0.08853562
vt 0.7071875 0.08853562
vt 0.7071875 0.09837937
vt 0.7071875 0.09837937
vt 0.7071875 0.08853562
vt 0.6678125 0.08853562
vt 0.6678125 0.09837937
vt 0.7071875 0.09837937
vt 0.7071875 0.08853562
vt 0.6678125 0.08853562
vt 0.6678125 0.09837937
vt 0.6678125 0.09837937
vt 0.6678125 0.08853562
vt 0.7071875 0.08853562
vt 0.7071875 0.09837937
vt 0.65625 0.046875
vt 0.625 0.03125
vt 0.640625 0.0625
vt 0.71875 0.046875
vt 0.625 0.15625
vt 0.640625 0.125
vt 0.65625 0.140625
vt 0.75 0.03125
vt 0.734375 0.0625
vt 0.734375 0.125
vt 0.75 0.15625
vt 0.71875 0.140625
vn -2.528811E-07 2.980228E-08 -1
vn -2.528811E-07 2.980228E-08 -1
vn -2.528811E-07 2.980228E-08 -1
vn -2.528811E-07 2.980228E-08 -1
vn -1.14096E-07 1 5.960464E-08
vn -1.14096E-07 1 5.960464E-08
vn -1.14096E-07 1 5.960464E-08
vn -1.14096E-07 1 5.960464E-08
vn 2.980232E-07 -1 -2.384186E-07
vn 2.980232E-07 -1 -2.384186E-07
vn 2.980232E-07 -1 -2.384186E-07
vn 2.980232E-07 -1 -2.384186E-07
vn -8.429371E-08 0.7071068 -0.7071068
vn -8.429371E-08 0.7071068 -0.7071068
vn -8.429371E-08 0.7071068 -0.7071068
vn -8.429371E-08 0.7071068 -0.7071068
vn 8.429371E-08 -0.7071068 0.7071068
vn 8.429371E-08 -0.7071068 0.7071068
vn 8.429371E-08 -0.7071068 0.7071068
vn 8.429371E-08 -0.7071068 0.7071068
vn 3.371748E-07 -0.7071068 -0.7071068
vn 3.371748E-07 -0.7071068 -0.7071068
vn 3.371748E-07 -0.7071068 -0.7071068
vn 3.371748E-07 -0.7071068 -0.7071068
vn 1.788139E-07 0 -1
vn 1.788139E-07 0 -1
vn 1.788139E-07 0 -1
vn 1.788139E-07 0 -1
vn -3.371748E-07 0.7071068 0.7071068
vn -3.371748E-07 0.7071068 0.7071068
vn -3.371748E-07 0.7071068 0.7071068
vn -3.371748E-07 0.7071068 0.7071068
vn 2.980232E-07 -1 -5.960464E-08
vn 2.980232E-07 -1 -5.960464E-08
vn 2.980232E-07 -1 -5.960464E-08
vn 2.980232E-07 -1 -5.960464E-08
vn -1.788139E-07 0 1
vn -1.788139E-07 0 1
vn -1.788139E-07 0 1
vn -1.788139E-07 0 1
vn -2.980232E-07 1 5.960464E-08
vn -2.980232E-07 1 5.960464E-08
vn -2.980232E-07 1 5.960464E-08
vn -2.980232E-07 1 5.960464E-08
vn 1 3.874302E-07 1.192093E-07
vn 1 3.874302E-07 1.192093E-07
vn 1 3.874302E-07 1.192093E-07
vn 1 3.874302E-07 1.192093E-07
vn 1 3.874302E-07 1.192093E-07
vn 1 3.874302E-07 1.192093E-07
vn 1 3.874302E-07 1.192093E-07
vn 1 3.874302E-07 1.192093E-07
vn 1 3.874302E-07 1.192093E-07
vn 1 3.874302E-07 1.192093E-07
vn 1 3.874302E-07 1.192093E-07
vn 1 3.874302E-07 1.192093E-07
g _Combined_Vis83_0_0
f 3/3/3 2/2/2 1/1/1
f 4/4/4 3/3/3 1/1/1
f 7/7/7 6/6/6 5/5/5
f 8/8/8 7/7/7 5/5/5
f 11/11/11 10/10/10 9/9/9
f 12/12/12 11/11/11 9/9/9
f 15/15/15 14/14/14 13/13/13
f 16/16/16 15/15/15 13/13/13
f 19/19/19 18/18/18 17/17/17
f 20/20/20 19/19/19 17/17/17
f 23/23/23 22/22/22 21/21/21
f 24/24/24 23/23/23 21/21/21
f 27/27/27 26/26/26 25/25/25
f 28/28/28 27/27/27 25/25/25
f 31/31/31 30/30/30 29/29/29
f 32/32/32 31/31/31 29/29/29
f 35/35/35 34/34/34 33/33/33
f 36/36/36 35/35/35 33/33/33
f 39/39/39 38/38/38 37/37/37
f 40/40/40 39/39/39 37/37/37
f 43/43/43 42/42/42 41/41/41
f 44/44/44 43/43/43 41/41/41
f 47/47/47 46/46/46 45/45/45
f 45/45/45 46/46/46 48/48/48
f 46/46/46 47/47/47 49/49/49
f 47/47/47 50/50/50 49/49/49
f 49/49/49 50/50/50 51/51/51
f 46/46/46 52/52/52 48/48/48
f 48/48/48 52/52/52 53/53/53
f 53/53/53 52/52/52 54/54/54
f 49/49/49 51/51/51 55/55/55
f 52/52/52 55/55/55 54/54/54
f 51/51/51 56/56/56 55/55/55
f 54/54/54 55/55/55 56/56/56
