g _Combined_Vis47_0
v -0.4567834 8.5 -0.5000961
v -0.4567833 8.5 0.4999039
v -0.4567833 9.5 0.4999039
v -0.4567834 9.5 -0.5000961
v -0.4567833 10.5 0.4999039
v -0.4567834 10.5 -0.5000961
v -0.4567833 11.5 0.4999039
v -0.4567834 11.5 -0.5000961
v -0.4567833 12.5 0.4999039
v -0.4567834 12.5 -0.5000961
v -0.4567833 13.5 0.4999039
v -0.4567834 13.5 -0.5000961
v -0.4567833 14.5 0.4999039
v -0.4567834 14.5 -0.5000961
v -0.4567833 15.5 0.4999039
v -0.4567834 15.5 -0.5000961
v -0.4567833 16.5 0.4999039
v -0.4567834 16.5 -0.5000961
v -0.4567834 0.5 -0.5000963
v -0.4567833 0.5 0.499904
v -0.4567833 1.5 0.499904
v -0.4567834 1.5 -0.5000963
v -0.4567833 2.5 0.499904
v -0.4567834 2.5 -0.5000963
v -0.4567833 3.5 0.499904
v -0.4567834 3.5 -0.5000963
v -0.4567833 4.5 0.499904
v -0.4567834 4.5 -0.5000963
v -0.4567833 5.5 0.499904
v -0.4567834 5.5 -0.5000963
v -0.4567833 6.5 0.499904
v -0.4567834 6.5 -0.5000963
v -0.4567833 7.5 0.499904
v -0.4567834 7.5 -0.5000963
v -0.4567833 8.5 0.4999039
v -0.4567834 8.5 -0.5000961
v -0.4567834 16.5 -0.5000961
v -0.4567833 16.5 0.4999039
v -1.456784 16.5 0.4999043
v -1.456784 16.5 -0.5000958
v -1.456864 17.5 -0.5001162
v -1.456864 17.5 0.499884
v -1.456784 16.5 0.4999043
v -1.456784 16.5 -0.5000958
vt 0.953125 0.4921875
vt 0.828125 0.4921875
vt 0.828125 0.5546875
vt 0.953125 0.5546875
vt 0.828125 0.6171875
vt 0.953125 0.6171875
vt 0.828125 0.6796875
vt 0.953125 0.6796875
vt 0.828125 0.7421875
vt 0.953125 0.7421875
vt 0.828125 0.8046875
vt 0.953125 0.8046875
vt 0.828125 0.8671875
vt 0.953125 0.8671875
vt 0.828125 0.9296875
vt 0.953125 0.9296875
vt 0.828125 0.9921875
vt 0.953125 0.9921875
vt 0.484375 0.6015625
vt 0.453125 0.6015625
vt 0.453125 0.6171875
vt 0.484375 0.6171875
vt 0.453125 0.6328125
vt 0.484375 0.6328125
vt 0.453125 0.6484375
vt 0.484375 0.6484375
vt 0.453125 0.6640625
vt 0.484375 0.6640625
vt 0.453125 0.6796875
vt 0.484375 0.6796875
vt 0.453125 0.6953125
vt 0.484375 0.6953125
vt 0.453125 0.7109375
vt 0.484375 0.7109375
vt 0.453125 0.7265625
vt 0.484375 0.7265625
vt 0.453125 0.4296875
vt 0.453125 0.3671875
vt 0.328125 0.3671875
vt 0.328125 0.4296875
vt 0.453125 0.4296875
vt 0.453125 0.3671875
vt 0.328125 0.3671875
vt 0.328125 0.4296875
vn 1 0 -1.192093E-07
vn 1 0 -1.192093E-07
vn 1 0 -1.192093E-07
vn 1 0 -1.192093E-07
vn 1 0 -1.192093E-07
vn 1 0 -1.192093E-07
vn 1 0 -1.192093E-07
vn 1 0 -1.192093E-07
vn 1 0 -1.192093E-07
vn 1 0 -1.192093E-07
vn 1 0 -1.192093E-07
vn 1 0 -1.192093E-07
vn 1 0 -1.192093E-07
vn 1 0 -1.192093E-07
vn 1 0 -1.192093E-07
vn 1 0 -1.192093E-07
vn 1 0 -1.192093E-07
vn 1 0 -1.192093E-07
vn 1 0 -1.192093E-07
vn 1 0 -1.192093E-07
vn 1 0 -1.192093E-07
vn 1 0 -1.192093E-07
vn 1 0 -1.192093E-07
vn 1 0 -1.192093E-07
vn 1 0 -1.192093E-07
vn 1 0 -1.192093E-07
vn 1 0 -1.192093E-07
vn 1 0 -1.192093E-07
vn 1 0 -1.192093E-07
vn 1 0 -1.192093E-07
vn 1 0 -1.192093E-07
vn 1 0 -1.192093E-07
vn 1 0 -1.192093E-07
vn 1 0 -1.192093E-07
vn 1 0 -1.192093E-07
vn 1 0 -1.192093E-07
vn 0 1 -1.192093E-07
vn 0 1 -1.192093E-07
vn 0 1 -1.192093E-07
vn 0 1 -1.192093E-07
vn -1 -3.278255E-07 2.384186E-07
vn -1 -3.278255E-07 2.384186E-07
vn -1 -3.278255E-07 2.384186E-07
vn -1 -3.278255E-07 2.384186E-07
g _Combined_Vis47_0_0
f 3/3/3 2/2/2 1/1/1
f 4/4/4 3/3/3 1/1/1
f 5/5/5 3/3/3 4/4/4
f 6/6/6 5/5/5 4/4/4
f 7/7/7 5/5/5 6/6/6
f 8/8/8 7/7/7 6/6/6
f 9/9/9 7/7/7 8/8/8
f 10/10/10 9/9/9 8/8/8
f 11/11/11 9/9/9 10/10/10
f 12/12/12 11/11/11 10/10/10
f 13/13/13 11/11/11 12/12/12
f 14/14/14 13/13/13 12/12/12
f 15/15/15 13/13/13 14/14/14
f 16/16/16 15/15/15 14/14/14
f 17/17/17 15/15/15 16/16/16
f 18/18/18 17/17/17 16/16/16
f 21/21/21 20/20/20 19/19/19
f 22/22/22 21/21/21 19/19/19
f 23/23/23 21/21/21 22/22/22
f 24/24/24 23/23/23 22/22/22
f 25/25/25 23/23/23 24/24/24
f 26/26/26 25/25/25 24/24/24
f 27/27/27 25/25/25 26/26/26
f 28/28/28 27/27/27 26/26/26
f 29/29/29 27/27/27 28/28/28
f 30/30/30 29/29/29 28/28/28
f 31/31/31 29/29/29 30/30/30
f 32/32/32 31/31/31 30/30/30
f 33/33/33 31/31/31 32/32/32
f 34/34/34 33/33/33 32/32/32
f 35/35/35 33/33/33 34/34/34
f 36/36/36 35/35/35 34/34/34
f 39/39/39 38/38/38 37/37/37
f 40/40/40 39/39/39 37/37/37
f 43/43/43 42/42/42 41/41/41
f 44/44/44 43/43/43 41/41/41
