g _Combined_WaterVis46_0
v 0.3749999 -2 0.7499992
v 0.3749999 -4 0.7499992
v -0.3750001 -4 0.749999
v -0.3750001 -2 0.749999
v 0.3749999 -1 0.7499992
v -0.3750001 -1 0.749999
v 0.3749999 -0.5 0.7187492
v -0.3750001 -0.5 0.718749
v 0.375 -0.125 0.6249992
v -0.375 -0.125 0.624999
v 0.375 0 0.4999992
v -0.375 0 0.499999
v 0.07287991 -1.611308 0.8000101
v -8.941025E-08 -2.388692 0.8000101
v -0.07288009 -1.611308 0.8000101
v 0.3750002 0 -0.5000008
v 0.375 0 0.4999992
v -0.375 0 0.499999
v -0.3749998 0 -0.500001
v 0.07288012 0.050011 -0.09717387
v 6.044716E-08 0.050011 0.0971721
v -0.07287988 0.050011 -0.09717391
vt 0.875 0.499942
vt 0.875 0
vt 0.125 0
vt 0.125 0.499942
vt 0.875 0.749928
vt 0.125 0.749928
vt 0.875 0.8286
vt 0.125 0.8286
vt 0.875 0.9135
vt 0.125 0.9135
vt 0.875 0.999885
vt 0.125 0.999885
vt 0 0
vt 0 0
vt 0 0
vt 0.875 0.999885
vt 0.875 0
vt 0.125 0
vt 0.125 0.999885
vt 0 0
vt 0 0
vt 0 0
vn -2.980232E-07 0 1
vn -2.980232E-07 0 1
vn -2.980232E-07 0 1
vn -2.980232E-07 0 1
vn -2.978822E-07 0.03076176 0.9995267
vn -2.978822E-07 0.03076176 0.9995267
vn -2.950818E-07 0.1401506 0.9901302
vn -2.950818E-07 0.1401506 0.9901302
vn -2.726294E-07 0.4039243 0.9147925
vn -2.726294E-07 0.4039243 0.9147925
vn -2.107339E-07 0.7071079 0.7071057
vn -2.107339E-07 0.7071079 0.7071057
vn -2.980232E-07 0 1
vn -2.980232E-07 0 1
vn -2.980232E-07 0 1
vn 0 1 0
vn 0 1 0
vn 0 1 0
vn 0 1 0
vn 0 1 0
vn 0 1 0
vn 0 1 0
g _Combined_WaterVis46_0_0
f 3/3/3 2/2/2 1/1/1
f 4/4/4 3/3/3 1/1/1
f 4/4/4 1/1/1 5/5/5
f 6/6/6 4/4/4 5/5/5
f 6/6/6 5/5/5 7/7/7
f 8/8/8 6/6/6 7/7/7
f 8/8/8 7/7/7 9/9/9
f 10/10/10 8/8/8 9/9/9
f 10/10/10 9/9/9 11/11/11
f 12/12/12 10/10/10 11/11/11
f 15/15/15 14/14/14 13/13/13
f 18/18/18 17/17/17 16/16/16
f 19/19/19 18/18/18 16/16/16
f 22/22/22 21/21/21 20/20/20
