g _Combined_Vis26_0
v 78.60982 -2.788429 77
v 78 -2.75 77
v 79 -2.75 77
v 78.23463 -2.90224 77
v 77 -2.75 77
v 77.88886 -3.08706 77
v 77.58578 -3.335785 77
v 77.33706 -3.638858 77
v 77.15224 -3.984632 77
v 77 -3.75 77
v 77.03843 -4.359818 77
v 77 -4.749999 77
v 77 -4.75 76
v 77 -4.749999 77
v 77.03843 -4.359818 77
v 77.03843 -4.359818 76
v 77.15224 -3.984632 77
v 77.15224 -3.984632 76
v 77.33706 -3.638858 77
v 77.33706 -3.638859 76
v 77.58578 -3.335785 77
v 77.58578 -3.335786 76
v 77.58578 -3.335786 76
v 77.58578 -3.335785 77
v 77.88886 -3.08706 77
v 77.88886 -3.08706 76
v 78.23463 -2.90224 77
v 78.23463 -2.902241 76
v 78.60982 -2.788429 77
v 78.60982 -2.788429 76
v 79 -2.75 77
v 79 -2.75 76
v 79 -2.75 76
v 78 -2.75 76
v 78.60982 -2.788429 76
v 78.23463 -2.902241 76
v 77 -2.75 76
v 77.88886 -3.08706 76
v 77.58578 -3.335786 76
v 77.33706 -3.638859 76
v 77.15224 -3.984632 76
v 77 -3.75 76
v 77.03843 -4.359818 76
v 77 -4.75 76
v 74.39018 -2.788429 76
v 75 -2.75 76
v 74 -2.75 76
v 74.76537 -2.90224 76
v 76 -2.75 76
v 75.11114 -3.08706 76
v 75.41422 -3.335785 76
v 75.66294 -3.638858 76
v 75.84776 -3.984632 76
v 76 -3.75 76
v 75.96157 -4.359818 76
v 76 -4.749999 76
v 76 -4.75 77
v 76 -4.749999 76
v 75.96157 -4.359818 76
v 75.96157 -4.359819 77
v 75.84776 -3.984632 76
v 75.84776 -3.984632 77
v 75.66294 -3.638858 76
v 75.66294 -3.638859 77
v 75.41422 -3.335785 76
v 75.41422 -3.335786 77
v 75.41422 -3.335786 77
v 75.41422 -3.335785 76
v 75.11114 -3.08706 76
v 75.11114 -3.08706 77
v 74.76537 -2.90224 76
v 74.76537 -2.902241 77
v 74.39018 -2.788429 76
v 74.39018 -2.788429 77
v 74 -2.75 76
v 74 -2.75 77
v 74 -2.75 77
v 75 -2.75 77
v 74.39018 -2.788429 77
v 74.76537 -2.902241 77
v 76 -2.75 77
v 75.11114 -3.08706 77
v 75.41422 -3.335786 77
v 75.66294 -3.638859 77
v 75.84776 -3.984632 77
v 76 -3.75 77
v 75.96157 -4.359819 77
v 76 -4.75 77
v 76 -2.5 76
v 77 -2.5 76
v 77 -2.5 77
v 76 -2.5 77
v 79 -2.5 77
v 79 -2.5 76
v 79 -2.75 76
v 79 -2.75 77
v 79 -2.5 76
v 78 -2.5 76
v 78 -2.75 76
v 79 -2.75 76
v 77 -2.5 76
v 76 -2.5 76
v 76 -2.75 76
v 77 -2.75 76
v 78 -2.5 76
v 77 -2.5 76
v 77 -2.75 76
v 78 -2.75 76
v 76 -2.5 76
v 75 -2.5 76
v 75 -2.75 76
v 76 -2.75 76
v 77 -7.75 76
v 77 -17.75 76
v 77 -17.75 77
v 77 -7.75 77
v 75 -2.5 76
v 74 -2.5 76
v 74 -2.75 76
v 75 -2.75 76
v 76 -4.75 77
v 76 -5.75 77
v 76 -5.75 76
v 76 -4.749999 76
v 76 -5.75 77
v 76 -6.75 77
v 76 -6.75 76
v 76 -5.75 76
v 76 -6.75 77
v 76 -7.75 77
v 76 -7.75 76
v 76 -6.75 76
v 77 -6.75 76
v 77 -7.75 76
v 77 -7.75 77
v 77 -6.75 77
v 77 -4.75 76
v 77 -5.75 76
v 77 -5.75 77
v 77 -4.749999 77
v 74 -2.5 76
v 74 -2.5 77
v 74 -2.75 77
v 74 -2.75 76
v 76 -7.75 76
v 76 -17.75 76
v 77 -17.75 76
v 77 -7.75 76
v 76 -4.749999 76
v 76 -5.75 76
v 77 -5.75 76
v 77 -4.75 76
v 77 -7.75 76
v 77 -6.75 76
v 76 -6.75 76
v 76 -7.75 76
v 77 -4.75 76
v 77 -3.75 76
v 76 -3.75 76
v 76 -4.749999 76
v 76 -5.75 76
v 76 -6.75 76
v 77 -6.75 76
v 77 -5.75 76
v 75 -2.5 77
v 74 -2.5 77
v 74 -2.5 76
v 75 -2.5 76
v 78 -2.5 76
v 79 -2.5 76
v 79 -2.5 77
v 78 -2.5 77
v 76 -2.75 76
v 76 -3.75 76
v 77 -3.75 76
v 77 -2.75 76
v 76 -2.5 77
v 75 -2.5 77
v 75 -2.5 76
v 76 -2.5 76
v 77 -2.5 76
v 78 -2.5 76
v 78 -2.5 77
v 77 -2.5 77
v 77 -5.75 76
v 77 -6.75 76
v 77 -6.75 77
v 77 -5.75 77
v 76 -7.75 77
v 76 -17.75 77
v 76 -17.75 76
v 76 -7.75 76
vt 0.8940789 0.2962567
vt 0.8750221 0.2968571
vt 0.9062721 0.2968571
vt 0.8823543 0.2944784
vt 0.8437721 0.2968571
vt 0.8715489 0.2915906
vt 0.8620779 0.2877042
vt 0.8543052 0.2829687
vt 0.8485296 0.277566
vt 0.8437721 0.2812321
vt 0.844973 0.2717037
vt 0.8437721 0.2656071
vt 0.7815674 0.2968856
vt 0.8437499 0.2968857
vt 0.8437499 0.2890745
vt 0.7815674 0.2890744
vt 0.8437499 0.2812632
vt 0.7815674 0.2812631
vt 0.84375 0.273452
vt 0.7815675 0.2734519
vt 0.84375 0.2656407
vt 0.7815675 0.2656406
vt 0.7815675 0.2656406
vt 0.84375 0.2656407
vt 0.84375 0.2578295
vt 0.7815676 0.2578294
vt 0.8437501 0.2500182
vt 0.7815676 0.2500181
vt 0.8437501 0.2422069
vt 0.7815676 0.2422069
vt 0.8437501 0.2343957
vt 0.7815676 0.2343957
vt 0.906272 0.2656087
vt 0.8750221 0.2656087
vt 0.8940789 0.2650082
vt 0.8823543 0.2632299
vt 0.8437721 0.2656087
vt 0.8715489 0.2603421
vt 0.8620778 0.2564558
vt 0.8543052 0.2517202
vt 0.8485296 0.2463175
vt 0.8437721 0.2499837
vt 0.844973 0.2404553
vt 0.8437721 0.2343587
vt 0.8940789 0.2962567
vt 0.8750221 0.2968571
vt 0.9062721 0.2968571
vt 0.8823543 0.2944784
vt 0.8437721 0.2968571
vt 0.8715489 0.2915906
vt 0.8620779 0.2877042
vt 0.8543052 0.2829687
vt 0.8485296 0.277566
vt 0.8437721 0.2812321
vt 0.844973 0.2717037
vt 0.8437721 0.2656071
vt 0.7815674 0.2968856
vt 0.8437499 0.2968857
vt 0.8437499 0.2890745
vt 0.7815674 0.2890744
vt 0.8437499 0.2812632
vt 0.7815674 0.2812631
vt 0.84375 0.273452
vt 0.7815675 0.2734519
vt 0.84375 0.2656407
vt 0.7815675 0.2656406
vt 0.7815675 0.2656406
vt 0.84375 0.2656407
vt 0.84375 0.2578295
vt 0.7815676 0.2578294
vt 0.8437501 0.2500182
vt 0.7815676 0.2500181
vt 0.8437501 0.2422069
vt 0.7815676 0.2422069
vt 0.8437501 0.2343957
vt 0.7815676 0.2343957
vt 0.906272 0.2656087
vt 0.8750221 0.2656087
vt 0.8940789 0.2650082
vt 0.8823543 0.2632299
vt 0.8437721 0.2656087
vt 0.8715489 0.2603421
vt 0.8620778 0.2564558
vt 0.8543052 0.2517202
vt 0.8485296 0.2463175
vt 0.8437721 0.2499837
vt 0.844973 0.2404553
vt 0.8437721 0.2343587
vt 0.53125 0.703125
vt 0.53125 0.640625
vt 0.40625 0.640625
vt 0.40625 0.703125
vt 0.90625 0.296875
vt 0.90625 0.234375
vt 0.78125 0.234375
vt 0.78125 0.296875
vt 0.90625 0.296875
vt 0.90625 0.234375
vt 0.78125 0.234375
vt 0.78125 0.296875
vt 0.90625 0.296875
vt 0.90625 0.234375
vt 0.78125 0.234375
vt 0.78125 0.296875
vt 0.90625 0.296875
vt 0.90625 0.234375
vt 0.78125 0.234375
vt 0.78125 0.296875
vt 0.90625 0.296875
vt 0.90625 0.234375
vt 0.78125 0.234375
vt 0.78125 0.296875
vt 0.90625 0.296875
vt 0.90625 0.234375
vt 0.78125 0.234375
vt 0.78125 0.296875
vt 0.90625 0.296875
vt 0.90625 0.234375
vt 0.78125 0.234375
vt 0.78125 0.296875
vt 0.90625 0.296875
vt 0.90625 0.234375
vt 0.78125 0.234375
vt 0.78125 0.296875
vt 0.90625 0.296875
vt 0.90625 0.234375
vt 0.78125 0.234375
vt 0.78125 0.296875
vt 0.90625 0.296875
vt 0.90625 0.234375
vt 0.78125 0.234375
vt 0.78125 0.296875
vt 0.90625 0.296875
vt 0.90625 0.234375
vt 0.78125 0.234375
vt 0.78125 0.296875
vt 0.90625 0.296875
vt 0.90625 0.234375
vt 0.78125 0.234375
vt 0.78125 0.296875
vt 0.90625 0.296875
vt 0.90625 0.234375
vt 0.78125 0.234375
vt 0.78125 0.296875
vt 0.90625 0.296875
vt 0.90625 0.234375
vt 0.78125 0.234375
vt 0.78125 0.296875
vt 0.90625 0.296875
vt 0.90625 0.234375
vt 0.78125 0.234375
vt 0.78125 0.296875
vt 0.71875 0.578125
vt 0.71875 0.515625
vt 0.59375 0.515625
vt 0.59375 0.578125
vt 0.71875 0.578125
vt 0.71875 0.515625
vt 0.59375 0.515625
vt 0.59375 0.578125
vt 0.71875 0.578125
vt 0.71875 0.515625
vt 0.59375 0.515625
vt 0.59375 0.578125
vt 0.53125 0.703125
vt 0.53125 0.640625
vt 0.40625 0.640625
vt 0.40625 0.703125
vt 0.53125 0.703125
vt 0.53125 0.640625
vt 0.40625 0.640625
vt 0.40625 0.703125
vt 0.71875 0.578125
vt 0.71875 0.515625
vt 0.59375 0.515625
vt 0.59375 0.578125
vt 0.53125 0.703125
vt 0.53125 0.640625
vt 0.40625 0.640625
vt 0.40625 0.703125
vt 0.53125 0.703125
vt 0.53125 0.640625
vt 0.40625 0.640625
vt 0.40625 0.703125
vt 0.90625 0.296875
vt 0.90625 0.234375
vt 0.78125 0.234375
vt 0.78125 0.296875
vt 0.90625 0.296875
vt 0.90625 0.234375
vt 0.78125 0.234375
vt 0.78125 0.296875
vn -2.980232E-07 -1.053669E-08 1
vn -2.980232E-07 -1.053669E-08 1
vn -2.980232E-07 -1.053669E-08 1
vn -2.980232E-07 -1.053669E-08 1
vn -2.980232E-07 -1.053669E-08 1
vn -2.980232E-07 -1.053669E-08 1
vn -2.980232E-07 -1.053669E-08 1
vn -2.980232E-07 -1.053669E-08 1
vn -2.980232E-07 -1.053669E-08 1
vn -2.980232E-07 -1.053669E-08 1
vn -2.980232E-07 -1.053669E-08 1
vn -2.980232E-07 -1.053669E-08 1
vn 1 -7.375701E-08 2.980232E-07
vn 1 -7.375701E-08 2.980232E-07
vn 0.9807853 -0.1950906 2.902412E-07
vn 0.9807853 -0.1950905 2.902412E-07
vn 0.9238793 -0.3826839 2.713053E-07
vn 0.9238793 -0.3826839 2.713053E-07
vn 0.8314693 -0.5555707 2.419433E-07
vn 0.8314693 -0.5555707 2.419433E-07
vn 0.7071066 -0.707107 2.032836E-07
vn 0.7071066 -0.7071069 2.032836E-07
vn 0.7071066 -0.7071069 2.032836E-07
vn 0.7071066 -0.707107 2.032836E-07
vn 0.5555698 -0.83147 1.568118E-07
vn 0.5555697 -0.83147 1.568117E-07
vn 0.3826825 -0.9238799 1.043136E-07
vn 0.3826826 -0.9238799 1.043136E-07
vn 0.1950893 -0.9807855 4.780691E-08
vn 0.1950894 -0.9807855 4.780693E-08
vn -7.375701E-08 -1 -1.053671E-08
vn -7.375701E-08 -1 -1.053671E-08
vn 2.980232E-07 1.053669E-08 -1
vn 2.980232E-07 1.053669E-08 -1
vn 2.980232E-07 1.053669E-08 -1
vn 2.980232E-07 1.053669E-08 -1
vn 2.980232E-07 1.053669E-08 -1
vn 2.980232E-07 1.053669E-08 -1
vn 2.980232E-07 1.053669E-08 -1
vn 2.980232E-07 1.053669E-08 -1
vn 2.980232E-07 1.053669E-08 -1
vn 2.980232E-07 1.053669E-08 -1
vn 2.980232E-07 1.053669E-08 -1
vn 2.980232E-07 1.053669E-08 -1
vn 2.980232E-07 1.053671E-08 -1
vn 2.980232E-07 1.053671E-08 -1
vn 2.980232E-07 1.053671E-08 -1
vn 2.980232E-07 1.053671E-08 -1
vn 2.980232E-07 1.053671E-08 -1
vn 2.980232E-07 1.053671E-08 -1
vn 2.980232E-07 1.053671E-08 -1
vn 2.980232E-07 1.053671E-08 -1
vn 2.980232E-07 1.053671E-08 -1
vn 2.980232E-07 1.053671E-08 -1
vn 2.980232E-07 1.053671E-08 -1
vn 2.980232E-07 1.053671E-08 -1
vn -1 -7.3757E-08 -2.980232E-07
vn -1 -7.3757E-08 -2.980232E-07
vn -0.9807853 -0.1950906 -2.943524E-07
vn -0.9807853 -0.1950905 -2.943524E-07
vn -0.9238793 -0.3826839 -2.793697E-07
vn -0.9238793 -0.3826839 -2.793697E-07
vn -0.8314693 -0.5555707 -2.536511E-07
vn -0.8314693 -0.5555707 -2.536511E-07
vn -0.7071066 -0.707107 -2.181848E-07
vn -0.7071066 -0.7071069 -2.181848E-07
vn -0.7071066 -0.7071069 -2.181848E-07
vn -0.7071066 -0.707107 -2.181848E-07
vn -0.5555698 -0.83147 -1.743336E-07
vn -0.5555697 -0.83147 -1.743336E-07
vn -0.3826825 -0.9238799 -1.237829E-07
vn -0.3826826 -0.9238799 -1.237829E-07
vn -0.1950893 -0.9807855 -6.84754E-08
vn -0.1950894 -0.9807855 -6.847542E-08
vn 7.3757E-08 -1 -1.053669E-08
vn 7.3757E-08 -1 -1.053669E-08
vn -2.980232E-07 -1.053671E-08 1
vn -2.980232E-07 -1.053671E-08 1
vn -2.980232E-07 -1.053671E-08 1
vn -2.980232E-07 -1.053671E-08 1
vn -2.980232E-07 -1.053671E-08 1
vn -2.980232E-07 -1.053671E-08 1
vn -2.980232E-07 -1.053671E-08 1
vn -2.980232E-07 -1.053671E-08 1
vn -2.980232E-07 -1.053671E-08 1
vn -2.980232E-07 -1.053671E-08 1
vn -2.980232E-07 -1.053671E-08 1
vn -2.980232E-07 -1.053671E-08 1
vn 0 1 0
vn 0 1 0
vn 0 1 0
vn 0 1 0
vn 1 4.470348E-07 -4.768371E-07
vn 1 4.470348E-07 -4.768371E-07
vn 1 4.470348E-07 -4.768371E-07
vn 1 4.470348E-07 -4.768371E-07
vn 0 0 -1
vn 0 0 -1
vn 0 0 -1
vn 0 0 -1
vn 0 0 -1
vn 0 0 -1
vn 0 0 -1
vn 0 0 -1
vn 0 0 -1
vn 0 0 -1
vn 0 0 -1
vn 0 0 -1
vn 0 0 -1
vn 0 0 -1
vn 0 0 -1
vn 0 0 -1
vn 1 0 -1.192093E-07
vn 1 0 -1.192093E-07
vn 1 0 -1.192093E-07
vn 1 0 -1.192093E-07
vn 7.375698E-08 6.141245E-08 -1
vn 7.375698E-08 6.141245E-08 -1
vn 7.375698E-08 6.141245E-08 -1
vn 7.375698E-08 6.141245E-08 -1
vn -1 0 -4.768371E-07
vn -1 0 -4.768371E-07
vn -1 0 -4.768371E-07
vn -1 0 -4.768371E-07
vn -1 0 -4.768371E-07
vn -1 0 -4.768371E-07
vn -1 0 -4.768371E-07
vn -1 0 -4.768371E-07
vn -1 0 -4.768371E-07
vn -1 0 -4.768371E-07
vn -1 0 -4.768371E-07
vn -1 0 -4.768371E-07
vn 1 0 -1.192093E-07
vn 1 0 -1.192093E-07
vn 1 0 -1.192093E-07
vn 1 0 -1.192093E-07
vn 1 0 -1.192093E-07
vn 1 0 -1.192093E-07
vn 1 0 -1.192093E-07
vn 1 0 -1.192093E-07
vn -1 -4.470348E-07 -4.768371E-07
vn -1 -4.470348E-07 -4.768371E-07
vn -1 -4.470348E-07 -4.768371E-07
vn -1 -4.470348E-07 -4.768371E-07
vn 8.742278E-08 0 -1
vn 8.742278E-08 0 -1
vn 8.742278E-08 0 -1
vn 8.742278E-08 0 -1
vn 8.742278E-08 0 -1
vn 8.742278E-08 0 -1
vn 8.742278E-08 0 -1
vn 8.742278E-08 0 -1
vn 8.742278E-08 0 -1
vn 8.742278E-08 0 -1
vn 8.742278E-08 0 -1
vn 8.742278E-08 0 -1
vn 8.742278E-08 0 -1
vn 8.742278E-08 0 -1
vn 8.742278E-08 0 -1
vn 8.742278E-08 0 -1
vn 8.742278E-08 0 -1
vn 8.742278E-08 0 -1
vn 8.742278E-08 0 -1
vn 8.742278E-08 0 -1
vn 0 1 0
vn 0 1 0
vn 0 1 0
vn 0 1 0
vn 0 1 0
vn 0 1 0
vn 0 1 0
vn 0 1 0
vn 8.742278E-08 0 -1
vn 8.742278E-08 0 -1
vn 8.742278E-08 0 -1
vn 8.742278E-08 0 -1
vn 0 1 0
vn 0 1 0
vn 0 1 0
vn 0 1 0
vn 0 1 0
vn 0 1 0
vn 0 1 0
vn 0 1 0
vn 1 0 -1.192093E-07
vn 1 0 -1.192093E-07
vn 1 0 -1.192093E-07
vn 1 0 -1.192093E-07
vn -1 0 -1.192093E-07
vn -1 0 -1.192093E-07
vn -1 0 -1.192093E-07
vn -1 0 -1.192093E-07
g _Combined_Vis26_0_0
f 3/3/3 2/2/2 1/1/1
f 1/1/1 2/2/2 4/4/4
f 4/4/4 2/2/2 5/5/5
f 4/4/4 5/5/5 6/6/6
f 6/6/6 5/5/5 7/7/7
f 7/7/7 5/5/5 8/8/8
f 8/8/8 5/5/5 9/9/9
f 9/9/9 5/5/5 10/10/10
f 9/9/9 10/10/10 11/11/11
f 11/11/11 10/10/10 12/12/12
f 15/15/15 14/14/14 13/13/13
f 16/16/16 15/15/15 13/13/13
f 17/17/17 15/15/15 16/16/16
f 18/18/18 17/17/17 16/16/16
f 19/19/19 17/17/17 18/18/18
f 20/20/20 19/19/19 18/18/18
f 21/21/21 19/19/19 20/20/20
f 22/22/22 21/21/21 20/20/20
f 25/25/25 24/24/24 23/23/23
f 26/26/26 25/25/25 23/23/23
f 27/27/27 25/25/25 26/26/26
f 28/28/28 27/27/27 26/26/26
f 29/29/29 27/27/27 28/28/28
f 30/30/30 29/29/29 28/28/28
f 31/31/31 29/29/29 30/30/30
f 32/32/32 31/31/31 30/30/30
f 35/35/35 34/34/34 33/33/33
f 36/36/36 34/34/34 35/35/35
f 37/37/37 34/34/34 36/36/36
f 38/38/38 37/37/37 36/36/36
f 39/39/39 37/37/37 38/38/38
f 40/40/40 37/37/37 39/39/39
f 41/41/41 37/37/37 40/40/40
f 42/42/42 37/37/37 41/41/41
f 43/43/43 42/42/42 41/41/41
f 44/44/44 42/42/42 43/43/43
f 47/47/47 46/46/46 45/45/45
f 45/45/45 46/46/46 48/48/48
f 48/48/48 46/46/46 49/49/49
f 48/48/48 49/49/49 50/50/50
f 50/50/50 49/49/49 51/51/51
f 51/51/51 49/49/49 52/52/52
f 52/52/52 49/49/49 53/53/53
f 53/53/53 49/49/49 54/54/54
f 53/53/53 54/54/54 55/55/55
f 55/55/55 54/54/54 56/56/56
f 59/59/59 58/58/58 57/57/57
f 60/60/60 59/59/59 57/57/57
f 61/61/61 59/59/59 60/60/60
f 62/62/62 61/61/61 60/60/60
f 63/63/63 61/61/61 62/62/62
f 64/64/64 63/63/63 62/62/62
f 65/65/65 63/63/63 64/64/64
f 66/66/66 65/65/65 64/64/64
f 69/69/69 68/68/68 67/67/67
f 70/70/70 69/69/69 67/67/67
f 71/71/71 69/69/69 70/70/70
f 72/72/72 71/71/71 70/70/70
f 73/73/73 71/71/71 72/72/72
f 74/74/74 73/73/73 72/72/72
f 75/75/75 73/73/73 74/74/74
f 76/76/76 75/75/75 74/74/74
f 79/79/79 78/78/78 77/77/77
f 80/80/80 78/78/78 79/79/79
f 81/81/81 78/78/78 80/80/80
f 82/82/82 81/81/81 80/80/80
f 83/83/83 81/81/81 82/82/82
f 84/84/84 81/81/81 83/83/83
f 85/85/85 81/81/81 84/84/84
f 86/86/86 81/81/81 85/85/85
f 87/87/87 86/86/86 85/85/85
f 88/88/88 86/86/86 87/87/87
f 91/91/91 90/90/90 89/89/89
f 92/92/92 91/91/91 89/89/89
f 95/95/95 94/94/94 93/93/93
f 96/96/96 95/95/95 93/93/93
f 99/99/99 98/98/98 97/97/97
f 100/100/100 99/99/99 97/97/97
f 103/103/103 102/102/102 101/101/101
f 104/104/104 103/103/103 101/101/101
f 107/107/107 106/106/106 105/105/105
f 108/108/108 107/107/107 105/105/105
f 111/111/111 110/110/110 109/109/109
f 112/112/112 111/111/111 109/109/109
f 115/115/115 114/114/114 113/113/113
f 116/116/116 115/115/115 113/113/113
f 119/119/119 118/118/118 117/117/117
f 120/120/120 119/119/119 117/117/117
f 123/123/123 122/122/122 121/121/121
f 124/124/124 123/123/123 121/121/121
f 127/127/127 126/126/126 125/125/125
f 128/128/128 127/127/127 125/125/125
f 131/131/131 130/130/130 129/129/129
f 132/132/132 131/131/131 129/129/129
f 135/135/135 134/134/134 133/133/133
f 136/136/136 135/135/135 133/133/133
f 139/139/139 138/138/138 137/137/137
f 140/140/140 139/139/139 137/137/137
f 143/143/143 142/142/142 141/141/141
f 144/144/144 143/143/143 141/141/141
f 147/147/147 146/146/146 145/145/145
f 148/148/148 147/147/147 145/145/145
f 151/151/151 150/150/150 149/149/149
f 152/152/152 151/151/151 149/149/149
f 155/155/155 154/154/154 153/153/153
f 156/156/156 155/155/155 153/153/153
f 159/159/159 158/158/158 157/157/157
f 160/160/160 159/159/159 157/157/157
f 163/163/163 162/162/162 161/161/161
f 164/164/164 163/163/163 161/161/161
f 167/167/167 166/166/166 165/165/165
f 168/168/168 167/167/167 165/165/165
f 171/171/171 170/170/170 169/169/169
f 172/172/172 171/171/171 169/169/169
f 175/175/175 174/174/174 173/173/173
f 176/176/176 175/175/175 173/173/173
f 179/179/179 178/178/178 177/177/177
f 180/180/180 179/179/179 177/177/177
f 183/183/183 182/182/182 181/181/181
f 184/184/184 183/183/183 181/181/181
f 187/187/187 186/186/186 185/185/185
f 188/188/188 187/187/187 185/185/185
f 191/191/191 190/190/190 189/189/189
f 192/192/192 191/191/191 189/189/189
