g _CombinedVis44_0
v -0.4999205 0.3997841 0.5004779
v -0.4999203 0.4997841 0.0004776819
v -0.4377295 0.4997841 0.500478
v 0.1580283 -0.5002161 -0.4995223
v 0.5000804 -0.5002161 -0.3609771
v 0.5000804 -0.3573801 -0.4995222
v 0.50008 0.499784 0.5004783
v 0.5000804 -0.5002161 -0.3609771
v 0.5000801 -0.5002161 0.5004783
v 0.5000803 0.499784 -0.4995222
v 0.5000804 -0.3573801 -0.4995222
v -0.4999202 0.4997841 -0.4995226
v -0.4999204 -0.500216 0.5004779
v -0.49992 -0.500216 -0.4995226
v -0.4999203 0.4997841 0.0004776819
v -0.4999205 0.3997841 0.5004779
v 0.5000803 0.499784 -0.4995222
v 0.50008 0.499784 0.5004783
v -0.4999202 0.4997841 -0.4995226
v -0.4377295 0.4997841 0.500478
v -0.4999203 0.4997841 0.0004776819
v 0.5000801 -0.5002161 0.5004783
v -0.4377295 0.4997841 0.500478
v 0.50008 0.499784 0.5004783
v -0.4999204 -0.500216 0.5004779
v -0.4999205 0.3997841 0.5004779
v 0.5000804 -0.5002161 -0.3609771
v -0.4999204 -0.500216 0.5004779
v 0.5000801 -0.5002161 0.5004783
v 0.1580283 -0.5002161 -0.4995223
v -0.49992 -0.500216 -0.4995226
v 0.5000803 0.499784 -0.4995222
v 0.1580283 -0.5002161 -0.4995223
v 0.5000804 -0.3573801 -0.4995222
v -0.4999202 0.4997841 -0.4995226
v -0.49992 -0.500216 -0.4995226
v -0.4999202 -0.6002164 -0.4995223
v 7.995956E-05 -0.5002164 -0.4995223
v -0.4999202 -0.5002164 -0.4373313
v 0.5000802 -1.500217 0.1584259
v 0.3615351 -1.500217 0.500478
v 0.5000801 -1.357381 0.500478
v -0.4999204 -0.500216 0.5004779
v 0.3615351 -1.500217 0.500478
v -0.4999202 -1.500217 0.500478
v 0.5000801 -0.5002161 0.5004783
v 0.5000801 -1.357381 0.500478
v 0.5000801 -0.5002164 -0.4995223
v -0.4999201 -1.500216 -0.4995223
v 0.5000802 -1.500216 -0.4995223
v 7.995956E-05 -0.5002164 -0.4995223
v -0.4999202 -0.6002164 -0.4995223
v 0.5000801 -0.5002161 0.5004783
v -0.4999204 -0.500216 0.5004779
v 0.5000801 -0.5002164 -0.4995223
v -0.4999202 -0.5002164 -0.4373313
v 7.995956E-05 -0.5002164 -0.4995223
v -0.4999202 -1.500217 0.500478
v -0.4999202 -0.5002164 -0.4373313
v -0.4999204 -0.500216 0.5004779
v -0.4999201 -1.500216 -0.4995223
v -0.4999202 -0.6002164 -0.4995223
v 0.3615351 -1.500217 0.500478
v -0.4999201 -1.500216 -0.4995223
v -0.4999202 -1.500217 0.500478
v 0.5000802 -1.500217 0.1584259
v 0.5000802 -1.500216 -0.4995223
v 0.5000801 -0.5002161 0.5004783
v 0.5000802 -1.500217 0.1584259
v 0.5000801 -1.357381 0.500478
v 0.5000801 -0.5002164 -0.4995223
v 0.5000802 -1.500216 -0.4995223
v 0.5000801 -3.500216 -0.3995221
v 0.5000802 -3.000216 -0.4995221
v 0.4378891 -3.500216 -0.4995222
v -0.1578681 -2.500216 0.500478
v -0.4999202 -2.638762 0.5004779
v -0.4999202 -2.500216 0.3576418
v -0.4999201 -3.500216 -0.4995225
v -0.4999202 -2.638762 0.5004779
v -0.4999204 -3.500216 0.5004779
v -0.49992 -2.500216 -0.4995225
v -0.4999202 -2.500216 0.3576418
v 0.5000803 -2.500216 -0.4995221
v 0.5000799 -3.500216 0.5004782
v 0.50008 -2.500216 0.5004782
v 0.5000802 -3.000216 -0.4995221
v 0.5000801 -3.500216 -0.3995221
v -0.49992 -2.500216 -0.4995225
v -0.4999201 -3.500216 -0.4995225
v 0.5000803 -2.500216 -0.4995221
v 0.4378891 -3.500216 -0.4995222
v 0.5000802 -3.000216 -0.4995221
v -0.4999204 -3.500216 0.5004779
v 0.4378891 -3.500216 -0.4995222
v -0.4999201 -3.500216 -0.4995225
v 0.5000799 -3.500216 0.5004782
v 0.5000801 -3.500216 -0.3995221
v -0.4999202 -2.638762 0.5004779
v 0.5000799 -3.500216 0.5004782
v -0.4999204 -3.500216 0.5004779
v -0.1578681 -2.500216 0.500478
v 0.50008 -2.500216 0.5004782
v -0.49992 -2.500216 -0.4995225
v -0.1578681 -2.500216 0.500478
v -0.4999202 -2.500216 0.3576418
v 0.5000803 -2.500216 -0.4995221
v 0.5000803 -2.500216 -0.4995221
v 0.50008 -2.500216 0.5004782
v -0.1578681 -2.500216 0.500478
v 0.5000803 -1.600216 -0.4995221
v 0.50008 -1.500216 0.0004780191
v 0.4378892 -1.500216 -0.4995221
v -0.1578681 -2.500216 0.500478
v -0.4999203 -2.500216 0.3619328
v -0.4999203 -2.357381 0.5004778
v -0.4999201 -1.500216 -0.4995223
v -0.4999203 -2.500216 0.3619328
v -0.49992 -2.500216 -0.4995225
v -0.4999202 -1.500217 0.500478
v -0.4999203 -2.357381 0.5004778
v 0.5000799 -1.500216 0.5004781
v 0.5000803 -2.500216 -0.4995221
v 0.50008 -2.500216 0.5004782
v 0.50008 -1.500216 0.0004780191
v 0.5000803 -1.600216 -0.4995221
v -0.4999202 -1.500217 0.500478
v -0.4999201 -1.500216 -0.4995223
v 0.5000799 -1.500216 0.5004781
v 0.4378892 -1.500216 -0.4995221
v 0.50008 -1.500216 0.0004780191
v -0.49992 -2.500216 -0.4995225
v 0.4378892 -1.500216 -0.4995221
v -0.4999201 -1.500216 -0.4995223
v 0.5000803 -2.500216 -0.4995221
v 0.5000803 -1.600216 -0.4995221
v -0.4999203 -2.500216 0.3619328
v 0.5000803 -2.500216 -0.4995221
v -0.49992 -2.500216 -0.4995225
v -0.1578681 -2.500216 0.500478
v 0.50008 -2.500216 0.5004782
v 0.5000803 -2.500216 -0.4995221
v -0.1578681 -2.500216 0.500478
v -0.4999202 -1.500217 0.500478
v -0.1578681 -2.500216 0.500478
v -0.4999203 -2.357381 0.5004778
v 0.5000799 -1.500216 0.5004781
v 0.50008 -2.500216 0.5004782
v 0.5000802 -4.500216 -0.399522
v 0.5000802 -4.000216 -0.4995221
v 0.4378892 -4.500216 -0.4995221
v -0.1578683 -3.500216 0.5004779
v -0.4999203 -3.638761 0.5004778
v -0.4999203 -3.500216 0.3576417
v -0.49992 -4.500216 -0.4995225
v -0.4999203 -3.638761 0.5004778
v -0.4999203 -4.500216 0.5004778
v -0.4999201 -3.500216 -0.4995225
v -0.4999203 -3.500216 0.3576417
v 0.5000802 -3.500216 -0.4995221
v 0.5000799 -4.500216 0.5004782
v 0.5000799 -3.500216 0.5004782
v 0.5000802 -4.000216 -0.4995221
v 0.5000802 -4.500216 -0.399522
v -0.4999201 -3.500216 -0.4995225
v -0.49992 -4.500216 -0.4995225
v 0.5000802 -3.500216 -0.4995221
v 0.4378892 -4.500216 -0.4995221
v 0.5000802 -4.000216 -0.4995221
v -0.4999203 -4.500216 0.5004778
v 0.4378892 -4.500216 -0.4995221
v -0.49992 -4.500216 -0.4995225
v 0.5000799 -4.500216 0.5004782
v 0.5000802 -4.500216 -0.399522
v -0.4999203 -3.638761 0.5004778
v 0.5000799 -4.500216 0.5004782
v -0.4999203 -4.500216 0.5004778
v -0.1578683 -3.500216 0.5004779
v 0.5000799 -3.500216 0.5004782
v -0.4999201 -3.500216 -0.4995225
v -0.1578683 -3.500216 0.5004779
v -0.4999203 -3.500216 0.3576417
v 0.5000802 -3.500216 -0.4995221
v 0.5000799 -3.500216 0.5004782
v 0.5000802 -5.500216 -0.399522
v 0.5000802 -5.000216 -0.4995221
v 0.4378892 -5.500216 -0.4995221
v -0.1578683 -4.500216 0.5004779
v -0.4999203 -4.638761 0.5004778
v -0.4999203 -4.500216 0.3576417
v -0.49992 -5.500216 -0.4995225
v -0.4999203 -4.638761 0.5004778
v -0.4999203 -5.500216 0.5004778
v -0.49992 -4.500216 -0.4995225
v -0.4999203 -4.500216 0.3576417
v 0.5000802 -4.500216 -0.4995221
v 0.5000799 -5.500216 0.5004782
v 0.5000799 -4.500216 0.5004782
v 0.5000802 -5.000216 -0.4995221
v 0.5000802 -5.500216 -0.399522
v -0.49992 -4.500216 -0.4995225
v -0.49992 -5.500216 -0.4995225
v 0.5000802 -4.500216 -0.4995221
v 0.4378892 -5.500216 -0.4995221
v 0.5000802 -5.000216 -0.4995221
v -0.4999203 -5.500216 0.5004778
v 0.4378892 -5.500216 -0.4995221
v -0.49992 -5.500216 -0.4995225
v 0.5000799 -5.500216 0.5004782
v 0.5000802 -5.500216 -0.399522
v -0.4999203 -4.638761 0.5004778
v 0.5000799 -5.500216 0.5004782
v -0.4999203 -5.500216 0.5004778
v -0.1578683 -4.500216 0.5004779
v 0.5000799 -4.500216 0.5004782
v -0.49992 -4.500216 -0.4995225
v -0.1578683 -4.500216 0.5004779
v -0.4999203 -4.500216 0.3576417
v 0.5000802 -4.500216 -0.4995221
v 0.5000799 -4.500216 0.5004782
vt 0.2559785 0.7641845
vt 0.0495185 0.7737895
vt 0.2490055 0.8129425
vt 0.2387085 0.9264505
vt 0.0771155 0.855804
vt 0.0640495 0.9507295
vt 0.53125 0.46875
vt 0.28125 0.684114
vt 0.28125 0.46875
vt 0.53125 0.71875
vt 0.316959 0.71875
vt 0.53125 0.71875
vt 0.28125 0.46875
vt 0.28125 0.71875
vt 0.53125 0.59375
vt 0.50625 0.46875
vt 0.28125 0.71875
vt 0.28125 0.46875
vt 0.03125 0.71875
vt 0.0467975 0.46875
vt 0.03125 0.59375
vt 0.53125 0.71875
vt 0.28125 0.9532025
vt 0.28125 0.71875
vt 0.53125 0.96875
vt 0.30625 0.96875
vt 0.28125 0.684114
vt 0.03125 0.46875
vt 0.28125 0.46875
vt 0.195737 0.71875
vt 0.03125 0.71875
vt 0.53125 0.96875
vt 0.28125 0.883237
vt 0.316959 0.96875
vt 0.53125 0.71875
vt 0.28125 0.71875
vt 0.2559785 0.7641845
vt 0.0495185 0.7737895
vt 0.2490055 0.8129425
vt 0.2387085 0.9264505
vt 0.0771155 0.855804
vt 0.0640495 0.9507295
vt 0.53125 0.46875
vt 0.28125 0.684114
vt 0.28125 0.46875
vt 0.53125 0.71875
vt 0.316959 0.71875
vt 0.53125 0.71875
vt 0.28125 0.46875
vt 0.28125 0.71875
vt 0.53125 0.59375
vt 0.50625 0.46875
vt 0.28125 0.71875
vt 0.28125 0.46875
vt 0.03125 0.71875
vt 0.0467975 0.46875
vt 0.03125 0.59375
vt 0.53125 0.71875
vt 0.28125 0.9532025
vt 0.28125 0.71875
vt 0.53125 0.96875
vt 0.30625 0.96875
vt 0.28125 0.684114
vt 0.03125 0.46875
vt 0.28125 0.46875
vt 0.195737 0.71875
vt 0.03125 0.71875
vt 0.53125 0.96875
vt 0.28125 0.883237
vt 0.316959 0.96875
vt 0.53125 0.71875
vt 0.28125 0.71875
vt 0.2559785 0.7641845
vt 0.0495185 0.7737895
vt 0.2490055 0.8129425
vt 0.2387085 0.9264505
vt 0.0771155 0.855804
vt 0.0640495 0.9507295
vt 0.53125 0.46875
vt 0.28125 0.684114
vt 0.28125 0.46875
vt 0.53125 0.71875
vt 0.316959 0.71875
vt 0.53125 0.71875
vt 0.28125 0.46875
vt 0.28125 0.71875
vt 0.53125 0.59375
vt 0.50625 0.46875
vt 0.28125 0.71875
vt 0.28125 0.46875
vt 0.03125 0.71875
vt 0.0467975 0.46875
vt 0.03125 0.59375
vt 0.53125 0.71875
vt 0.28125 0.9532025
vt 0.28125 0.71875
vt 0.53125 0.96875
vt 0.30625 0.96875
vt 0.28125 0.684114
vt 0.03125 0.46875
vt 0.28125 0.46875
vt 0.195737 0.71875
vt 0.03125 0.71875
vt 0.53125 0.96875
vt 0.28125 0.883237
vt 0.316959 0.96875
vt 0.53125 0.71875
vt 0.53125 0.71875
vt 0.28125 0.71875
vt 0.28125 0.883237
vt 0.2559785 0.7641845
vt 0.0495185 0.7737895
vt 0.2490055 0.8129425
vt 0.2387085 0.9264505
vt 0.0771155 0.855804
vt 0.0640495 0.9507295
vt 0.53125 0.46875
vt 0.28125 0.684114
vt 0.28125 0.46875
vt 0.53125 0.71875
vt 0.316959 0.71875
vt 0.53125 0.71875
vt 0.28125 0.46875
vt 0.28125 0.71875
vt 0.53125 0.59375
vt 0.50625 0.46875
vt 0.28125 0.71875
vt 0.28125 0.46875
vt 0.03125 0.71875
vt 0.0467975 0.46875
vt 0.03125 0.59375
vt 0.53125 0.71875
vt 0.28125 0.9532025
vt 0.28125 0.71875
vt 0.53125 0.96875
vt 0.30625 0.96875
vt 0.28125 0.684114
vt 0.03125 0.46875
vt 0.28125 0.46875
vt 0.195737 0.71875
vt 0.03125 0.71875
vt 0.03125 0.46875
vt 0.195737 0.71875
vt 0.53125 0.96875
vt 0.28125 0.883237
vt 0.316959 0.96875
vt 0.53125 0.71875
vt 0.28125 0.71875
vt 0.2559785 0.7641845
vt 0.0495185 0.7737895
vt 0.2490055 0.8129425
vt 0.2387085 0.9264505
vt 0.0771155 0.855804
vt 0.0640495 0.9507295
vt 0.53125 0.46875
vt 0.28125 0.684114
vt 0.28125 0.46875
vt 0.53125 0.71875
vt 0.316959 0.71875
vt 0.53125 0.71875
vt 0.28125 0.46875
vt 0.28125 0.71875
vt 0.53125 0.59375
vt 0.50625 0.46875
vt 0.28125 0.71875
vt 0.28125 0.46875
vt 0.03125 0.71875
vt 0.0467975 0.46875
vt 0.03125 0.59375
vt 0.53125 0.71875
vt 0.28125 0.9532025
vt 0.28125 0.71875
vt 0.53125 0.96875
vt 0.30625 0.96875
vt 0.28125 0.684114
vt 0.03125 0.46875
vt 0.28125 0.46875
vt 0.195737 0.71875
vt 0.03125 0.71875
vt 0.53125 0.96875
vt 0.28125 0.883237
vt 0.316959 0.96875
vt 0.53125 0.71875
vt 0.28125 0.71875
vt 0.2559785 0.7641845
vt 0.0495185 0.7737895
vt 0.2490055 0.8129425
vt 0.2387085 0.9264505
vt 0.0771155 0.855804
vt 0.0640495 0.9507295
vt 0.53125 0.46875
vt 0.28125 0.684114
vt 0.28125 0.46875
vt 0.53125 0.71875
vt 0.316959 0.71875
vt 0.53125 0.71875
vt 0.28125 0.46875
vt 0.28125 0.71875
vt 0.53125 0.59375
vt 0.50625 0.46875
vt 0.28125 0.71875
vt 0.28125 0.46875
vt 0.03125 0.71875
vt 0.0467975 0.46875
vt 0.03125 0.59375
vt 0.53125 0.71875
vt 0.28125 0.9532025
vt 0.28125 0.71875
vt 0.53125 0.96875
vt 0.30625 0.96875
vt 0.28125 0.684114
vt 0.03125 0.46875
vt 0.28125 0.46875
vt 0.195737 0.71875
vt 0.03125 0.71875
vt 0.53125 0.96875
vt 0.28125 0.883237
vt 0.316959 0.96875
vt 0.53125 0.71875
vt 0.28125 0.71875
vn -0.844492 0.5251715 0.1050157
vn -0.844492 0.5251715 0.1050157
vn -0.844492 0.5251715 0.1050157
vn 0.2791601 -0.6685552 -0.6892776
vn 0.2791601 -0.6685552 -0.6892776
vn 0.2791601 -0.6685552 -0.6892776
vn 1 -1.192092E-07 3.371747E-07
vn 1 -1.192092E-07 3.371747E-07
vn 1 -1.192092E-07 3.371747E-07
vn 1 -1.192092E-07 3.371747E-07
vn 1 -1.192092E-07 3.371747E-07
vn -1 1.192092E-07 -3.371747E-07
vn -1 1.192092E-07 -3.371747E-07
vn -1 1.192092E-07 -3.371747E-07
vn -1 1.192092E-07 -3.371747E-07
vn -1 1.192092E-07 -3.371747E-07
vn -1.192093E-07 1 0
vn -1.192093E-07 1 0
vn -1.192093E-07 1 0
vn -1.192093E-07 1 0
vn -1.192093E-07 1 0
vn -3.371747E-07 0 1
vn -3.371747E-07 0 1
vn -3.371747E-07 0 1
vn -3.371747E-07 0 1
vn -3.371747E-07 0 1
vn 1.192093E-07 -1 0
vn 1.192093E-07 -1 0
vn 1.192093E-07 -1 0
vn 1.192093E-07 -1 0
vn 1.192093E-07 -1 0
vn 3.371747E-07 0 -1
vn 3.371747E-07 0 -1
vn 3.371747E-07 0 -1
vn 3.371747E-07 0 -1
vn 3.371747E-07 0 -1
vn -0.1050159 0.5251715 -0.8444918
vn -0.1050159 0.5251715 -0.8444918
vn -0.1050159 0.5251715 -0.8444918
vn 0.6892778 -0.6685551 0.2791598
vn 0.6892778 -0.6685551 0.2791598
vn 0.6892778 -0.6685551 0.2791598
vn -1.192093E-07 -1.192092E-07 1
vn -1.192093E-07 -1.192092E-07 1
vn -1.192093E-07 -1.192092E-07 1
vn -1.192093E-07 -1.192092E-07 1
vn -1.192093E-07 -1.192092E-07 1
vn 1.192093E-07 1.192092E-07 -1
vn 1.192093E-07 1.192092E-07 -1
vn 1.192093E-07 1.192092E-07 -1
vn 1.192093E-07 1.192092E-07 -1
vn 1.192093E-07 1.192092E-07 -1
vn -1.192093E-07 1 0
vn -1.192093E-07 1 0
vn -1.192093E-07 1 0
vn -1.192093E-07 1 0
vn -1.192093E-07 1 0
vn -1 0 7.105428E-15
vn -1 0 7.105428E-15
vn -1 0 7.105428E-15
vn -1 0 7.105428E-15
vn -1 0 7.105428E-15
vn 1.192093E-07 -1 0
vn 1.192093E-07 -1 0
vn 1.192093E-07 -1 0
vn 1.192093E-07 -1 0
vn 1.192093E-07 -1 0
vn 1 0 -7.105428E-15
vn 1 0 -7.105428E-15
vn 1 0 -7.105428E-15
vn 1 0 -7.105428E-15
vn 1 0 -7.105428E-15
vn 0.8444921 -0.105016 -0.5251712
vn 0.8444921 -0.105016 -0.5251712
vn 0.8444921 -0.105016 -0.5251712
vn -0.2791599 0.6892778 0.6685551
vn -0.2791599 0.6892778 0.6685551
vn -0.2791599 0.6892778 0.6685551
vn -1 5.960463E-08 -3.576279E-07
vn -1 5.960463E-08 -3.576279E-07
vn -1 5.960463E-08 -3.576279E-07
vn -1 5.960463E-08 -3.576279E-07
vn -1 5.960463E-08 -3.576279E-07
vn 1 -5.960463E-08 3.576279E-07
vn 1 -5.960463E-08 3.576279E-07
vn 1 -5.960463E-08 3.576279E-07
vn 1 -5.960463E-08 3.576279E-07
vn 1 -5.960463E-08 3.576279E-07
vn 2.384186E-07 5.960462E-08 -1
vn 2.384186E-07 5.960462E-08 -1
vn 2.384186E-07 5.960462E-08 -1
vn 2.384186E-07 5.960462E-08 -1
vn 2.384186E-07 5.960462E-08 -1
vn -1.490116E-07 -1 6.352747E-22
vn -1.490116E-07 -1 6.352747E-22
vn -1.490116E-07 -1 6.352747E-22
vn -1.490116E-07 -1 6.352747E-22
vn -1.490116E-07 -1 6.352747E-22
vn -2.384186E-07 -5.960462E-08 1
vn -2.384186E-07 -5.960462E-08 1
vn -2.384186E-07 -5.960462E-08 1
vn -2.384186E-07 -5.960462E-08 1
vn -2.384186E-07 -5.960462E-08 1
vn 1.490116E-07 1 -6.352747E-22
vn 1.490116E-07 1 -6.352747E-22
vn 1.490116E-07 1 -6.352747E-22
vn 1.490116E-07 1 -6.352747E-22
vn 1.490116E-07 1 -6.352747E-22
vn 1.490116E-07 1 -6.352747E-22
vn 1.490116E-07 1 -6.352747E-22
vn 0.844492 0.5251715 -0.1050157
vn 0.844492 0.5251715 -0.1050157
vn 0.844492 0.5251715 -0.1050157
vn -0.2791599 -0.6685552 0.6892776
vn -0.2791599 -0.6685552 0.6892776
vn -0.2791599 -0.6685552 0.6892776
vn -1 -1.192092E-07 -3.371746E-07
vn -1 -1.192092E-07 -3.371746E-07
vn -1 -1.192092E-07 -3.371746E-07
vn -1 -1.192092E-07 -3.371746E-07
vn -1 -1.192092E-07 -3.371746E-07
vn 1 1.192092E-07 3.371746E-07
vn 1 1.192092E-07 3.371746E-07
vn 1 1.192092E-07 3.371746E-07
vn 1 1.192092E-07 3.371746E-07
vn 1 1.192092E-07 3.371746E-07
vn -1.192093E-07 1 0
vn -1.192093E-07 1 0
vn -1.192093E-07 1 0
vn -1.192093E-07 1 0
vn -1.192093E-07 1 0
vn 3.371747E-07 0 -1
vn 3.371747E-07 0 -1
vn 3.371747E-07 0 -1
vn 3.371747E-07 0 -1
vn 3.371747E-07 0 -1
vn 1.192093E-07 -1 0
vn 1.192093E-07 -1 0
vn 1.192093E-07 -1 0
vn 1.192093E-07 -1 0
vn 1.192093E-07 -1 0
vn 1.192093E-07 -1 0
vn 1.192093E-07 -1 0
vn -3.371747E-07 0 1
vn -3.371747E-07 0 1
vn -3.371747E-07 0 1
vn -3.371747E-07 0 1
vn -3.371747E-07 0 1
vn 0.8444921 -0.105016 -0.525171
vn 0.8444921 -0.105016 -0.525171
vn 0.8444921 -0.105016 -0.525171
vn -0.27916 0.6892778 0.668555
vn -0.27916 0.6892778 0.668555
vn -0.27916 0.6892778 0.668555
vn -1 0 -4.172325E-07
vn -1 0 -4.172325E-07
vn -1 0 -4.172325E-07
vn -1 0 -4.172325E-07
vn -1 0 -4.172325E-07
vn 1 0 4.172325E-07
vn 1 0 4.172325E-07
vn 1 0 4.172325E-07
vn 1 0 4.172325E-07
vn 1 0 4.172325E-07
vn 3.576279E-07 0 -1
vn 3.576279E-07 0 -1
vn 3.576279E-07 0 -1
vn 3.576279E-07 0 -1
vn 3.576279E-07 0 -1
vn 0 -1 0
vn 0 -1 0
vn 0 -1 0
vn 0 -1 0
vn 0 -1 0
vn -3.576279E-07 0 1
vn -3.576279E-07 0 1
vn -3.576279E-07 0 1
vn -3.576279E-07 0 1
vn -3.576279E-07 0 1
vn 0 1 0
vn 0 1 0
vn 0 1 0
vn 0 1 0
vn 0 1 0
vn 0.8444921 -0.105016 -0.525171
vn 0.8444921 -0.105016 -0.525171
vn 0.8444921 -0.105016 -0.525171
vn -0.27916 0.6892778 0.668555
vn -0.27916 0.6892778 0.668555
vn -0.27916 0.6892778 0.668555
vn -1 0 -4.172325E-07
vn -1 0 -4.172325E-07
vn -1 0 -4.172325E-07
vn -1 0 -4.172325E-07
vn -1 0 -4.172325E-07
vn 1 0 4.172325E-07
vn 1 0 4.172325E-07
vn 1 0 4.172325E-07
vn 1 0 4.172325E-07
vn 1 0 4.172325E-07
vn 3.576279E-07 0 -1
vn 3.576279E-07 0 -1
vn 3.576279E-07 0 -1
vn 3.576279E-07 0 -1
vn 3.576279E-07 0 -1
vn 0 -1 0
vn 0 -1 0
vn 0 -1 0
vn 0 -1 0
vn 0 -1 0
vn -3.576279E-07 0 1
vn -3.576279E-07 0 1
vn -3.576279E-07 0 1
vn -3.576279E-07 0 1
vn -3.576279E-07 0 1
vn 0 1 0
vn 0 1 0
vn 0 1 0
vn 0 1 0
vn 0 1 0
g _CombinedVis44_0_0
f 3/3/3 2/2/2 1/1/1
f 6/6/6 5/5/5 4/4/4
f 9/9/9 8/8/8 7/7/7
f 7/7/7 8/8/8 10/10/10
f 10/10/10 8/8/8 11/11/11
f 14/14/14 13/13/13 12/12/12
f 13/13/13 15/15/15 12/12/12
f 16/16/16 15/15/15 13/13/13
f 19/19/19 18/18/18 17/17/17
f 20/20/20 18/18/18 19/19/19
f 21/21/21 20/20/20 19/19/19
f 24/24/24 23/23/23 22/22/22
f 22/22/22 23/23/23 25/25/25
f 23/23/23 26/26/26 25/25/25
f 29/29/29 28/28/28 27/27/27
f 27/27/27 28/28/28 30/30/30
f 30/30/30 28/28/28 31/31/31
f 34/34/34 33/33/33 32/32/32
f 32/32/32 33/33/33 35/35/35
f 33/33/33 36/36/36 35/35/35
f 39/39/39 38/38/38 37/37/37
f 42/42/42 41/41/41 40/40/40
f 45/45/45 44/44/44 43/43/43
f 43/43/43 44/44/44 46/46/46
f 46/46/46 44/44/44 47/47/47
f 50/50/50 49/49/49 48/48/48
f 49/49/49 51/51/51 48/48/48
f 52/52/52 51/51/51 49/49/49
f 55/55/55 54/54/54 53/53/53
f 56/56/56 54/54/54 55/55/55
f 57/57/57 56/56/56 55/55/55
f 60/60/60 59/59/59 58/58/58
f 58/58/58 59/59/59 61/61/61
f 59/59/59 62/62/62 61/61/61
f 65/65/65 64/64/64 63/63/63
f 63/63/63 64/64/64 66/66/66
f 66/66/66 64/64/64 67/67/67
f 70/70/70 69/69/69 68/68/68
f 68/68/68 69/69/69 71/71/71
f 69/69/69 72/72/72 71/71/71
f 75/75/75 74/74/74 73/73/73
f 78/78/78 77/77/77 76/76/76
f 81/81/81 80/80/80 79/79/79
f 79/79/79 80/80/80 82/82/82
f 82/82/82 80/80/80 83/83/83
f 86/86/86 85/85/85 84/84/84
f 85/85/85 87/87/87 84/84/84
f 88/88/88 87/87/87 85/85/85
f 91/91/91 90/90/90 89/89/89
f 92/92/92 90/90/90 91/91/91
f 93/93/93 92/92/92 91/91/91
f 96/96/96 95/95/95 94/94/94
f 94/94/94 95/95/95 97/97/97
f 95/95/95 98/98/98 97/97/97
f 101/101/101 100/100/100 99/99/99
f 99/99/99 100/100/100 102/102/102
f 102/102/102 100/100/100 103/103/103
f 106/106/106 105/105/105 104/104/104
f 104/104/104 105/105/105 107/107/107
f 110/110/110 109/109/109 108/108/108
f 113/113/113 112/112/112 111/111/111
f 116/116/116 115/115/115 114/114/114
f 119/119/119 118/118/118 117/117/117
f 117/117/117 118/118/118 120/120/120
f 120/120/120 118/118/118 121/121/121
f 124/124/124 123/123/123 122/122/122
f 123/123/123 125/125/125 122/122/122
f 126/126/126 125/125/125 123/123/123
f 129/129/129 128/128/128 127/127/127
f 130/130/130 128/128/128 129/129/129
f 131/131/131 130/130/130 129/129/129
f 134/134/134 133/133/133 132/132/132
f 132/132/132 133/133/133 135/135/135
f 133/133/133 136/136/136 135/135/135
f 139/139/139 138/138/138 137/137/137
f 137/137/137 138/138/138 140/140/140
f 143/143/143 142/142/142 141/141/141
f 146/146/146 145/145/145 144/144/144
f 144/144/144 145/145/145 147/147/147
f 145/145/145 148/148/148 147/147/147
f 151/151/151 150/150/150 149/149/149
f 154/154/154 153/153/153 152/152/152
f 157/157/157 156/156/156 155/155/155
f 155/155/155 156/156/156 158/158/158
f 158/158/158 156/156/156 159/159/159
f 162/162/162 161/161/161 160/160/160
f 161/161/161 163/163/163 160/160/160
f 164/164/164 163/163/163 161/161/161
f 167/167/167 166/166/166 165/165/165
f 168/168/168 166/166/166 167/167/167
f 169/169/169 168/168/168 167/167/167
f 172/172/172 171/171/171 170/170/170
f 170/170/170 171/171/171 173/173/173
f 171/171/171 174/174/174 173/173/173
f 177/177/177 176/176/176 175/175/175
f 175/175/175 176/176/176 178/178/178
f 178/178/178 176/176/176 179/179/179
f 182/182/182 181/181/181 180/180/180
f 180/180/180 181/181/181 183/183/183
f 181/181/181 184/184/184 183/183/183
f 187/187/187 186/186/186 185/185/185
f 190/190/190 189/189/189 188/188/188
f 193/193/193 192/192/192 191/191/191
f 191/191/191 192/192/192 194/194/194
f 194/194/194 192/192/192 195/195/195
f 198/198/198 197/197/197 196/196/196
f 197/197/197 199/199/199 196/196/196
f 200/200/200 199/199/199 197/197/197
f 203/203/203 202/202/202 201/201/201
f 204/204/204 202/202/202 203/203/203
f 205/205/205 204/204/204 203/203/203
f 208/208/208 207/207/207 206/206/206
f 206/206/206 207/207/207 209/209/209
f 207/207/207 210/210/210 209/209/209
f 213/213/213 212/212/212 211/211/211
f 211/211/211 212/212/212 214/214/214
f 214/214/214 212/212/212 215/215/215
f 218/218/218 217/217/217 216/216/216
f 216/216/216 217/217/217 219/219/219
f 217/217/217 220/220/220 219/219/219
