g _Combined_Vis73_0
v 3.499949 -6.5 -12.39998
v 3.499949 -7 -12.49998
v 3.56214 -6.5 -12.49998
v 4.157897 -7.5 -11.49998
v 4.499949 -7.361455 -11.49998
v 4.499949 -7.5 -11.64282
v 4.499949 -6.5 -12.49998
v 4.499949 -7.361455 -11.49998
v 4.499949 -6.5 -11.49998
v 4.499949 -7.5 -12.49998
v 4.499949 -7.5 -11.64282
v 3.499949 -7.5 -12.49998
v 3.499949 -6.5 -11.49998
v 3.49995 -7.5 -11.49998
v 3.499949 -7 -12.49998
v 3.499949 -6.5 -12.39998
v 4.499949 -7.5 -12.49998
v 4.499949 -6.5 -12.49998
v 3.499949 -7.5 -12.49998
v 3.56214 -6.5 -12.49998
v 3.499949 -7 -12.49998
v 4.499949 -6.5 -11.49998
v 3.56214 -6.5 -12.49998
v 4.499949 -6.5 -12.49998
v 3.499949 -6.5 -11.49998
v 3.499949 -6.5 -12.39998
v 4.499949 -7.361455 -11.49998
v 3.499949 -6.5 -11.49998
v 4.499949 -6.5 -11.49998
v 4.157897 -7.5 -11.49998
v 3.49995 -7.5 -11.49998
v 4.499949 -7.5 -12.49998
v 4.157897 -7.5 -11.49998
v 4.499949 -7.5 -11.64282
v 3.499949 -7.5 -12.49998
v 3.49995 -7.5 -11.49998
v 4.499952 -7.561947 -11.59999
v 4.499952 -7.061947 -11.49998
v 4.562143 -7.561947 -11.49998
v 5.1579 -6.561947 -12.49998
v 5.499952 -6.700492 -12.49998
v 5.499952 -6.561947 -12.35715
v 5.499952 -7.561947 -11.49998
v 5.499952 -6.700492 -12.49998
v 5.499952 -7.561947 -12.49998
v 5.499952 -6.561947 -11.49998
v 5.499952 -6.561947 -12.35715
v 4.499952 -6.561947 -11.49998
v 4.499952 -7.561947 -12.49998
v 4.499952 -6.561947 -12.49998
v 4.499952 -7.061947 -11.49998
v 4.499952 -7.561947 -11.59999
v 5.499952 -6.561947 -11.49998
v 5.499952 -7.561947 -11.49998
v 4.499952 -6.561947 -11.49998
v 4.562143 -7.561947 -11.49998
v 4.499952 -7.061947 -11.49998
v 5.499952 -7.561947 -12.49998
v 4.562143 -7.561947 -11.49998
v 5.499952 -7.561947 -11.49998
v 4.499952 -7.561947 -12.49998
v 4.499952 -7.561947 -11.59999
v 5.499952 -6.700492 -12.49998
v 4.499952 -7.561947 -12.49998
v 5.499952 -7.561947 -12.49998
v 5.1579 -6.561947 -12.49998
v 4.499952 -6.561947 -12.49998
v 5.499952 -6.561947 -11.49998
v 5.1579 -6.561947 -12.49998
v 5.499952 -6.561947 -12.35715
v 4.499952 -6.561947 -11.49998
v 4.499952 -6.561947 -12.49998
v 3.499949 -7.5 -12.49998
v 3.49995 -14.5 -12.49998
v 4.499949 -14.5 -12.49998
v 4.499949 -7.5 -12.49998
v 4.499949 -7.5 -12.49998
v 4.499949 -14.5 -12.49998
v 5.499949 -14.5 -12.49998
v 5.499949 -7.5 -12.49998
v 5.499949 -7.5 -12.49998
v 5.499949 -14.5 -12.49998
v 5.499949 -14.5 -11.49998
v 5.499949 -7.5 -11.49998
vt 0.4092392 0.3508422
vt 0.3060093 0.3556448
vt 0.4057527 0.3752213
vt 0.4006042 0.4319752
vt 0.3198077 0.396652
vt 0.3132747 0.4441147
vt 0.546875 0.203125
vt 0.421875 0.310807
vt 0.421875 0.203125
vt 0.546875 0.328125
vt 0.4397295 0.328125
vt 0.546875 0.328125
vt 0.421875 0.203125
vt 0.421875 0.328125
vt 0.546875 0.265625
vt 0.534375 0.203125
vt 0.421875 0.328125
vt 0.421875 0.203125
vt 0.296875 0.328125
vt 0.3046488 0.203125
vt 0.296875 0.265625
vt 0.546875 0.328125
vt 0.421875 0.4453512
vt 0.421875 0.328125
vt 0.546875 0.453125
vt 0.434375 0.453125
vt 0.421875 0.310807
vt 0.296875 0.203125
vt 0.421875 0.203125
vt 0.3791185 0.328125
vt 0.296875 0.328125
vt 0.546875 0.453125
vt 0.421875 0.4103685
vt 0.4397295 0.453125
vt 0.546875 0.328125
vt 0.421875 0.328125
vt 0.4092392 0.3508422
vt 0.3060093 0.3556448
vt 0.4057527 0.3752213
vt 0.4006042 0.4319752
vt 0.3198077 0.396652
vt 0.3132747 0.4441147
vt 0.546875 0.203125
vt 0.421875 0.310807
vt 0.421875 0.203125
vt 0.546875 0.328125
vt 0.4397295 0.328125
vt 0.546875 0.328125
vt 0.421875 0.203125
vt 0.421875 0.328125
vt 0.546875 0.265625
vt 0.534375 0.203125
vt 0.421875 0.328125
vt 0.421875 0.203125
vt 0.296875 0.328125
vt 0.3046488 0.203125
vt 0.296875 0.265625
vt 0.546875 0.328125
vt 0.421875 0.4453512
vt 0.421875 0.328125
vt 0.546875 0.453125
vt 0.434375 0.453125
vt 0.421875 0.310807
vt 0.296875 0.203125
vt 0.421875 0.203125
vt 0.3791185 0.328125
vt 0.296875 0.328125
vt 0.546875 0.453125
vt 0.421875 0.4103685
vt 0.4397295 0.453125
vt 0.546875 0.328125
vt 0.421875 0.328125
vt 0.734375 0.703125
vt 0.734375 0.640625
vt 0.671875 0.640625
vt 0.671875 0.703125
vt 0.734375 0.703125
vt 0.734375 0.640625
vt 0.671875 0.640625
vt 0.671875 0.703125
vt 0.734375 0.703125
vt 0.734375 0.640625
vt 0.671875 0.640625
vt 0.671875 0.703125
vn -0.8444921 0.105016 -0.5251712
vn -0.8444921 0.105016 -0.5251712
vn -0.8444921 0.105016 -0.5251712
vn 0.27916 -0.6892779 0.668555
vn 0.27916 -0.6892779 0.668555
vn 0.27916 -0.6892779 0.668555
vn 1 5.960464E-08 -2.384186E-07
vn 1 5.960464E-08 -2.384186E-07
vn 1 5.960464E-08 -2.384186E-07
vn 1 5.960464E-08 -2.384186E-07
vn 1 5.960464E-08 -2.384186E-07
vn -1 -5.960464E-08 2.384186E-07
vn -1 -5.960464E-08 2.384186E-07
vn -1 -5.960464E-08 2.384186E-07
vn -1 -5.960464E-08 2.384186E-07
vn -1 -5.960464E-08 2.384186E-07
vn -2.384186E-07 1.490116E-07 -1
vn -2.384186E-07 1.490116E-07 -1
vn -2.384186E-07 1.490116E-07 -1
vn -2.384186E-07 1.490116E-07 -1
vn -2.384186E-07 1.490116E-07 -1
vn -2.980232E-08 1 2.384186E-07
vn -2.980232E-08 1 2.384186E-07
vn -2.980232E-08 1 2.384186E-07
vn -2.980232E-08 1 2.384186E-07
vn -2.980232E-08 1 2.384186E-07
vn 2.384186E-07 -1.490116E-07 1
vn 2.384186E-07 -1.490116E-07 1
vn 2.384186E-07 -1.490116E-07 1
vn 2.384186E-07 -1.490116E-07 1
vn 2.384186E-07 -1.490116E-07 1
vn 2.980232E-08 -1 -2.384186E-07
vn 2.980232E-08 -1 -2.384186E-07
vn 2.980232E-08 -1 -2.384186E-07
vn 2.980232E-08 -1 -2.384186E-07
vn 2.980232E-08 -1 -2.384186E-07
vn -0.844492 -0.1050161 0.5251713
vn -0.844492 -0.1050161 0.5251713
vn -0.844492 -0.1050161 0.5251713
vn 0.2791598 0.6892778 -0.6685551
vn 0.2791598 0.6892778 -0.6685551
vn 0.2791598 0.6892778 -0.6685551
vn 1 1.192093E-07 5.960464E-08
vn 1 1.192093E-07 5.960464E-08
vn 1 1.192093E-07 5.960464E-08
vn 1 1.192093E-07 5.960464E-08
vn 1 1.192093E-07 5.960464E-08
vn -1 -1.192093E-07 -5.960464E-08
vn -1 -1.192093E-07 -5.960464E-08
vn -1 -1.192093E-07 -5.960464E-08
vn -1 -1.192093E-07 -5.960464E-08
vn -1 -1.192093E-07 -5.960464E-08
vn -1.192093E-07 -5.960464E-08 1
vn -1.192093E-07 -5.960464E-08 1
vn -1.192093E-07 -5.960464E-08 1
vn -1.192093E-07 -5.960464E-08 1
vn -1.192093E-07 -5.960464E-08 1
vn 1.788139E-07 -1 0
vn 1.788139E-07 -1 0
vn 1.788139E-07 -1 0
vn 1.788139E-07 -1 0
vn 1.788139E-07 -1 0
vn 1.192093E-07 5.960464E-08 -1
vn 1.192093E-07 5.960464E-08 -1
vn 1.192093E-07 5.960464E-08 -1
vn 1.192093E-07 5.960464E-08 -1
vn 1.192093E-07 5.960464E-08 -1
vn -1.788139E-07 1 0
vn -1.788139E-07 1 0
vn -1.788139E-07 1 0
vn -1.788139E-07 1 0
vn -1.788139E-07 1 0
vn 2.384186E-07 0 -1
vn 2.384186E-07 0 -1
vn 2.384186E-07 0 -1
vn 2.384186E-07 0 -1
vn 0 0 -1
vn 0 0 -1
vn 0 0 -1
vn 0 0 -1
vn 1 0 -3.576278E-07
vn 1 0 -3.576278E-07
vn 1 0 -3.576278E-07
vn 1 0 -3.576278E-07
g _Combined_Vis73_0_0
f 3/3/3 2/2/2 1/1/1
f 6/6/6 5/5/5 4/4/4
f 9/9/9 8/8/8 7/7/7
f 7/7/7 8/8/8 10/10/10
f 10/10/10 8/8/8 11/11/11
f 14/14/14 13/13/13 12/12/12
f 13/13/13 15/15/15 12/12/12
f 16/16/16 15/15/15 13/13/13
f 19/19/19 18/18/18 17/17/17
f 20/20/20 18/18/18 19/19/19
f 21/21/21 20/20/20 19/19/19
f 24/24/24 23/23/23 22/22/22
f 22/22/22 23/23/23 25/25/25
f 23/23/23 26/26/26 25/25/25
f 29/29/29 28/28/28 27/27/27
f 27/27/27 28/28/28 30/30/30
f 30/30/30 28/28/28 31/31/31
f 34/34/34 33/33/33 32/32/32
f 32/32/32 33/33/33 35/35/35
f 33/33/33 36/36/36 35/35/35
f 39/39/39 38/38/38 37/37/37
f 42/42/42 41/41/41 40/40/40
f 45/45/45 44/44/44 43/43/43
f 43/43/43 44/44/44 46/46/46
f 46/46/46 44/44/44 47/47/47
f 50/50/50 49/49/49 48/48/48
f 49/49/49 51/51/51 48/48/48
f 52/52/52 51/51/51 49/49/49
f 55/55/55 54/54/54 53/53/53
f 56/56/56 54/54/54 55/55/55
f 57/57/57 56/56/56 55/55/55
f 60/60/60 59/59/59 58/58/58
f 58/58/58 59/59/59 61/61/61
f 59/59/59 62/62/62 61/61/61
f 65/65/65 64/64/64 63/63/63
f 63/63/63 64/64/64 66/66/66
f 66/66/66 64/64/64 67/67/67
f 70/70/70 69/69/69 68/68/68
f 68/68/68 69/69/69 71/71/71
f 69/69/69 72/72/72 71/71/71
f 75/75/75 74/74/74 73/73/73
f 76/76/76 75/75/75 73/73/73
f 79/79/79 78/78/78 77/77/77
f 80/80/80 79/79/79 77/77/77
f 83/83/83 82/82/82 81/81/81
f 84/84/84 83/83/83 81/81/81
