g _CombinedLessRain36_0
v -0.1724043 -0.1289182 -2.018035E-06
v -0.1691255 -0.4376392 -1.701494E-06
v -0.1756825 -0.4376392 -1.704311E-06
v 0.2605644 -0.7292535 -1.219238E-06
v 0.2638432 -1.037975 -9.026966E-07
v 0.2572862 -1.037975 -9.055134E-07
v 0.576794 0.1588473 -1.989934E-06
v 0.5800728 -0.1498737 -1.673394E-06
v 0.5735148 -0.1498737 -1.676211E-06
v -0.8564219 0.5660152 -3.02124E-06
v -0.8531431 0.2572942 -2.704699E-06
v -0.8597011 0.2572942 -2.707517E-06
v -0.2145732 1.509925 -3.709024E-06
v -0.2112943 1.308157 -3.501657E-06
v -0.2178513 1.308157 -3.504474E-06
v 0.5700043 2.297907 -4.176329E-06
v 0.5732832 1.989186 -3.859789E-06
v 0.5667262 1.989186 -3.862606E-06
v -0.4192149 3.587502 -5.917653E-06
v -0.4159361 3.27878 -5.601112E-06
v -0.4224941 3.27878 -5.603929E-06
v 0.1673983 3.770003 -5.851945E-06
v 0.1706771 3.461282 -5.535405E-06
v 0.1641191 3.461282 -5.538222E-06
v -0.8885046 4.052783 -6.594194E-06
v -0.8852268 3.67186 -6.203953E-06
v -0.8917838 3.67186 -6.20677E-06
v 0.6627604 3.822146 -5.692373E-06
v 0.6660392 3.513424 -5.375832E-06
v 0.6594812 3.513424 -5.378649E-06
v -0.1976048 5.177874 -7.44585E-06
v -0.194326 4.869153 -7.12931E-06
v -0.200883 4.869153 -7.132126E-06
v 1.8163 -6.125465 1.141937E-05
v 1.819579 -6.434186 1.173591E-05
v 1.813022 -6.434186 1.173309E-05
v 2.249269 -6.725801 1.221816E-05
v 2.252548 -7.034523 1.25347E-05
v 2.245991 -7.034523 1.253189E-05
v 2.565499 -5.8377 1.144747E-05
v 2.568777 -6.146421 1.176401E-05
v 2.562219 -6.146421 1.176119E-05
v 1.132283 -5.430532 1.041616E-05
v 1.135561 -5.739253 1.07327E-05
v 1.129003 -5.739253 1.072988E-05
v 1.774131 -4.486622 9.728376E-06
v 1.77741 -4.688391 9.935743E-06
v 1.770853 -4.688391 9.932926E-06
v 2.558709 -3.69864 9.261071E-06
v 2.561988 -4.007361 9.577611E-06
v 2.555431 -4.007361 9.574795E-06
v 1.56949 -2.409045 7.519748E-06
v 1.572768 -2.717767 7.836289E-06
v 1.56621 -2.717767 7.833471E-06
v 2.156103 -2.226545 7.585455E-06
v 2.159382 -2.535266 7.901996E-06
v 2.152824 -2.535266 7.899178E-06
v 1.1002 -1.943764 6.843206E-06
v 1.103478 -2.324687 7.233447E-06
v 1.096921 -2.324687 7.230631E-06
v 2.651465 -2.174401 7.745027E-06
v 2.654744 -2.483123 8.061568E-06
v 2.648186 -2.483123 8.058751E-06
v 1.7911 -0.8186735 5.991551E-06
v 1.794379 -1.127395 6.308091E-06
v 1.787822 -1.127395 6.305274E-06
v -0.1724276 -6.125463 9.88884E-06
v -0.1691488 -6.434185 1.020538E-05
v -0.1757058 -6.434185 1.020256E-05
v 0.2605411 -6.725799 1.068764E-05
v 0.2638199 -7.034521 1.100418E-05
v 0.2572629 -7.034521 1.100136E-05
v 0.5767707 -5.837698 9.91694E-06
v 0.5800495 -6.146419 1.023348E-05
v 0.5734915 -6.146419 1.023066E-05
v -0.8564453 -5.43053 8.885635E-06
v -0.8531664 -5.739251 9.202176E-06
v -0.8597244 -5.739251 9.199358E-06
v -0.2145965 -4.48662 8.197851E-06
v -0.2113177 -4.688389 8.405217E-06
v -0.2178747 -4.688389 8.4024E-06
v 0.569981 -3.698638 7.730545E-06
v 0.5732599 -4.007359 8.047085E-06
v 0.5667029 -4.007359 8.044269E-06
v -0.4192382 -2.409044 5.989222E-06
v -0.4159594 -2.717766 6.305763E-06
v -0.4225174 -2.717766 6.302946E-06
v 0.167375 -2.226543 6.054929E-06
v 0.1706538 -2.535264 6.37147E-06
v 0.1640958 -2.535264 6.368653E-06
v -0.888528 -1.943762 5.312681E-06
v -0.8852502 -2.324685 5.702921E-06
v -0.8918072 -2.324685 5.700105E-06
v 0.6627371 -2.174399 6.214501E-06
v 0.6660159 -2.483121 6.531042E-06
v 0.6594579 -2.483121 6.528225E-06
v -0.1976281 -0.8186716 4.461025E-06
v -0.1943493 -1.127393 4.777565E-06
v -0.2009064 -1.127393 4.774748E-06
v 1.816303 -0.1289182 -3.185368E-06
v 1.819583 -0.4376392 -3.06934E-06
v 1.813026 -0.4376392 -3.072045E-06
v 2.249273 -0.7292528 -2.783702E-06
v 2.252553 -1.037975 -2.667673E-06
v 2.245996 -1.037975 -2.670379E-06
v 2.565501 0.1588486 -2.983093E-06
v 2.568781 -0.1498724 -2.867065E-06
v 2.562223 -0.1498724 -2.869771E-06
v 1.132285 0.566014 -3.72577E-06
v 1.135564 0.257293 -3.609742E-06
v 1.129006 0.257293 -3.612448E-06
v 1.774132 1.509925 -3.811521E-06
v 1.777411 1.308157 -3.735221E-06
v 1.770854 1.308157 -3.737927E-06
v 2.558708 2.297909 -3.780453E-06
v 2.561987 1.989188 -3.664425E-06
v 2.55543 1.989188 -3.667131E-06
v 1.569486 3.587502 -4.66769E-06
v 1.572766 3.27878 -4.551661E-06
v 1.566208 3.27878 -4.554367E-06
v 2.156099 3.770003 -4.493407E-06
v 2.159379 3.461282 -4.377379E-06
v 2.152821 3.461282 -4.380085E-06
v 1.100196 4.052782 -5.034178E-06
v 1.103474 3.671859 -4.89133E-06
v 1.096917 3.671859 -4.894036E-06
v 2.651461 3.822148 -4.308359E-06
v 2.654741 3.513426 -4.19233E-06
v 2.648183 3.513426 -4.195036E-06
v 1.791094 5.177874 -5.166987E-06
v 1.794373 4.869153 -5.050959E-06
v 1.787816 4.869153 -5.053665E-06
v -2.161112 -0.1289181 -1.470222E-06
v -2.157833 -0.4376391 -1.153682E-06
v -2.16439 -0.4376391 -1.156499E-06
v -1.728143 -0.7292534 -6.714253E-07
v -1.724864 -1.037975 -3.548841E-07
v -1.731421 -1.037975 -3.577008E-07
v -1.411913 0.1588474 -1.442122E-06
v -1.408635 -0.1498736 -1.125581E-06
v -1.415193 -0.1498736 -1.128398E-06
v -2.845129 0.5660154 -2.473427E-06
v -2.841851 0.2572943 -2.156887E-06
v -2.848408 0.2572943 -2.159704E-06
v -2.203281 1.509925 -3.161211E-06
v -2.200002 1.308157 -2.953845E-06
v -2.206559 1.308157 -2.956662E-06
v -1.418703 2.297908 -3.628517E-06
v -1.415424 1.989186 -3.311976E-06
v -1.421981 1.989186 -3.314793E-06
v -2.407922 3.587502 -5.36984E-06
v -2.404644 3.27878 -5.053299E-06
v -2.411201 3.27878 -5.056116E-06
v -1.821309 3.770003 -5.304133E-06
v -1.81803 3.461282 -4.987593E-06
v -1.824588 3.461282 -4.99041E-06
v -2.877212 4.052783 -6.046381E-06
v -2.873934 3.67186 -5.65614E-06
v -2.880491 3.67186 -5.658957E-06
v -1.325947 3.822146 -5.144561E-06
v -1.322668 3.513424 -4.82802E-06
v -1.329226 3.513424 -4.830837E-06
v -2.186312 5.177874 -6.898038E-06
v -2.183033 4.869153 -6.581497E-06
v -2.18959 4.869153 -6.584314E-06
v -2.16116 -6.125465 8.450746E-06
v -2.157881 -6.434186 8.767286E-06
v -2.164438 -6.434186 8.764469E-06
v -1.728191 -6.725801 9.249543E-06
v -1.724912 -7.034523 9.566084E-06
v -1.731469 -7.034523 9.563268E-06
v -1.411961 -5.8377 8.478846E-06
v -1.408682 -6.146421 8.795387E-06
v -1.41524 -6.146421 8.792569E-06
v -2.845177 -5.430532 7.447541E-06
v -2.841898 -5.739253 7.764082E-06
v -2.848456 -5.739253 7.761264E-06
v -2.203328 -4.486622 6.759757E-06
v -2.200049 -4.688391 6.967123E-06
v -2.206607 -4.688391 6.964307E-06
v -1.418751 -3.69864 6.292451E-06
v -1.415472 -4.007361 6.608991E-06
v -1.422029 -4.007361 6.606175E-06
v -2.40797 -2.409045 4.551128E-06
v -2.404691 -2.717767 4.867669E-06
v -2.411249 -2.717767 4.864852E-06
v -1.821357 -2.226545 4.616835E-06
v -1.818078 -2.535266 4.933376E-06
v -1.824636 -2.535266 4.930559E-06
v -2.87726 -1.943764 3.874587E-06
v -2.873982 -2.324687 4.264828E-06
v -2.880539 -2.324687 4.262011E-06
v -1.325995 -2.174401 4.776407E-06
v -1.322716 -2.483123 5.092948E-06
v -1.329274 -2.483123 5.090131E-06
v -2.18636 -0.8186735 3.022931E-06
v -2.183081 -1.127395 3.339471E-06
v -2.189638 -1.127395 3.336654E-06
vt 0 0
vt 0 0
vt 0 0
vt 0 0
vt 0 0
vt 0 0
vt 0 0
vt 0 0
vt 0 0
vt 0 0
vt 0 0
vt 0 0
vt 0 0
vt 0 0
vt 0 0
vt 0 0
vt 0 0
vt 0 0
vt 0 0
vt 0 0
vt 0 0
vt 0 0
vt 0 0
vt 0 0
vt 0 0
vt 0 0
vt 0 0
vt 0 0
vt 0 0
vt 0 0
vt 0 0
vt 0 0
vt 0 0
vt 0 0
vt 0 0
vt 0 0
vt 0 0
vt 0 0
vt 0 0
vt 0 0
vt 0 0
vt 0 0
vt 0 0
vt 0 0
vt 0 0
vt 0 0
vt 0 0
vt 0 0
vt 0 0
vt 0 0
vt 0 0
vt 0 0
vt 0 0
vt 0 0
vt 0 0
vt 0 0
vt 0 0
vt 0 0
vt 0 0
vt 0 0
vt 0 0
vt 0 0
vt 0 0
vt 0 0
vt 0 0
vt 0 0
vt 0 0
vt 0 0
vt 0 0
vt 0 0
vt 0 0
vt 0 0
vt 0 0
vt 0 0
vt 0 0
vt 0 0
vt 0 0
vt 0 0
vt 0 0
vt 0 0
vt 0 0
vt 0 0
vt 0 0
vt 0 0
vt 0 0
vt 0 0
vt 0 0
vt 0 0
vt 0 0
vt 0 0
vt 0 0
vt 0 0
vt 0 0
vt 0 0
vt 0 0
vt 0 0
vt 0 0
vt 0 0
vt 0 0
vt 0 0
vt 0 0
vt 0 0
vt 0 0
vt 0 0
vt 0 0
vt 0 0
vt 0 0
vt 0 0
vt 0 0
vt 0 0
vt 0 0
vt 0 0
vt 0 0
vt 0 0
vt 0 0
vt 0 0
vt 0 0
vt 0 0
vt 0 0
vt 0 0
vt 0 0
vt 0 0
vt 0 0
vt 0 0
vt 0 0
vt 0 0
vt 0 0
vt 0 0
vt 0 0
vt 0 0
vt 0 0
vt 0 0
vt 0 0
vt 0 0
vt 0 0
vt 0 0
vt 0 0
vt 0 0
vt 0 0
vt 0 0
vt 0 0
vt 0 0
vt 0 0
vt 0 0
vt 0 0
vt 0 0
vt 0 0
vt 0 0
vt 0 0
vt 0 0
vt 0 0
vt 0 0
vt 0 0
vt 0 0
vt 0 0
vt 0 0
vt 0 0
vt 0 0
vt 0 0
vt 0 0
vt 0 0
vt 0 0
vt 0 0
vt 0 0
vt 0 0
vt 0 0
vt 0 0
vt 0 0
vt 0 0
vt 0 0
vt 0 0
vt 0 0
vt 0 0
vt 0 0
vt 0 0
vt 0 0
vt 0 0
vt 0 0
vt 0 0
vt 0 0
vt 0 0
vt 0 0
vt 0 0
vt 0 0
vt 0 0
vt 0 0
vt 0 0
vt 0 0
vt 0 0
vt 0 0
vt 0 0
vt 0 0
vt 0 0
vt 0 0
vt 0 0
vt 0 0
vt 0 0
vt 0 0
vn -4.64745E-07 9.881818E-07 1
vn -4.64745E-07 9.881818E-07 1
vn -4.64745E-07 9.881818E-07 1
vn -4.64745E-07 9.881818E-07 1
vn -4.64745E-07 9.881818E-07 1
vn -4.64745E-07 9.881818E-07 1
vn -4.64745E-07 9.881818E-07 1
vn -4.64745E-07 9.881818E-07 1
vn -4.64745E-07 9.881818E-07 1
vn -4.64745E-07 9.881818E-07 1
vn -4.64745E-07 9.881818E-07 1
vn -4.64745E-07 9.881818E-07 1
vn -4.64745E-07 9.881818E-07 1
vn -4.64745E-07 9.881818E-07 1
vn -4.64745E-07 9.881818E-07 1
vn -4.64745E-07 9.881818E-07 1
vn -4.64745E-07 9.881818E-07 1
vn -4.64745E-07 9.881818E-07 1
vn -4.64745E-07 9.881818E-07 1
vn -4.64745E-07 9.881818E-07 1
vn -4.64745E-07 9.881818E-07 1
vn -4.64745E-07 9.881818E-07 1
vn -4.64745E-07 9.881818E-07 1
vn -4.64745E-07 9.881818E-07 1
vn -4.64745E-07 9.881818E-07 1
vn -4.64745E-07 9.881818E-07 1
vn -4.64745E-07 9.881818E-07 1
vn -4.64745E-07 9.881818E-07 1
vn -4.64745E-07 9.881818E-07 1
vn -4.64745E-07 9.881818E-07 1
vn -4.64745E-07 9.881818E-07 1
vn -4.64745E-07 9.881818E-07 1
vn -4.64745E-07 9.881818E-07 1
vn -4.64745E-07 9.881818E-07 1
vn -4.64745E-07 9.881818E-07 1
vn -4.64745E-07 9.881818E-07 1
vn -4.64745E-07 9.881818E-07 1
vn -4.64745E-07 9.881818E-07 1
vn -4.64745E-07 9.881818E-07 1
vn -4.64745E-07 9.881818E-07 1
vn -4.64745E-07 9.881818E-07 1
vn -4.64745E-07 9.881818E-07 1
vn -4.64745E-07 9.881818E-07 1
vn -4.64745E-07 9.881818E-07 1
vn -4.64745E-07 9.881818E-07 1
vn -4.64745E-07 9.881818E-07 1
vn -4.64745E-07 9.881818E-07 1
vn -4.64745E-07 9.881818E-07 1
vn -4.64745E-07 9.881818E-07 1
vn -4.64745E-07 9.881818E-07 1
vn -4.64745E-07 9.881818E-07 1
vn -4.64745E-07 9.881818E-07 1
vn -4.64745E-07 9.881818E-07 1
vn -4.64745E-07 9.881818E-07 1
vn -4.64745E-07 9.881818E-07 1
vn -4.64745E-07 9.881818E-07 1
vn -4.64745E-07 9.881818E-07 1
vn -4.64745E-07 9.881818E-07 1
vn -4.64745E-07 9.881818E-07 1
vn -4.64745E-07 9.881818E-07 1
vn -4.64745E-07 9.881818E-07 1
vn -4.64745E-07 9.881818E-07 1
vn -4.64745E-07 9.881818E-07 1
vn -4.64745E-07 9.881818E-07 1
vn -4.64745E-07 9.881818E-07 1
vn -4.64745E-07 9.881818E-07 1
vn -4.64745E-07 9.881818E-07 1
vn -4.64745E-07 9.881818E-07 1
vn -4.64745E-07 9.881818E-07 1
vn -4.64745E-07 9.881818E-07 1
vn -4.64745E-07 9.881818E-07 1
vn -4.64745E-07 9.881818E-07 1
vn -4.64745E-07 9.881818E-07 1
vn -4.64745E-07 9.881818E-07 1
vn -4.64745E-07 9.881818E-07 1
vn -4.64745E-07 9.881818E-07 1
vn -4.64745E-07 9.881818E-07 1
vn -4.64745E-07 9.881818E-07 1
vn -4.64745E-07 9.881818E-07 1
vn -4.64745E-07 9.881818E-07 1
vn -4.64745E-07 9.881818E-07 1
vn -4.64745E-07 9.881818E-07 1
vn -4.64745E-07 9.881818E-07 1
vn -4.64745E-07 9.881818E-07 1
vn -4.64745E-07 9.881818E-07 1
vn -4.64745E-07 9.881818E-07 1
vn -4.64745E-07 9.881818E-07 1
vn -4.64745E-07 9.881818E-07 1
vn -4.64745E-07 9.881818E-07 1
vn -4.64745E-07 9.881818E-07 1
vn -4.64745E-07 9.881818E-07 1
vn -4.64745E-07 9.881818E-07 1
vn -4.64745E-07 9.881818E-07 1
vn -4.64745E-07 9.881818E-07 1
vn -4.64745E-07 9.881818E-07 1
vn -4.64745E-07 9.881818E-07 1
vn -4.64745E-07 9.881818E-07 1
vn -4.64745E-07 9.881818E-07 1
vn -4.64745E-07 9.881818E-07 1
vn -4.869984E-07 4.692644E-07 1
vn -4.869984E-07 4.692644E-07 1
vn -4.869984E-07 4.692644E-07 1
vn -4.869984E-07 4.692644E-07 1
vn -4.869984E-07 4.692644E-07 1
vn -4.869984E-07 4.692644E-07 1
vn -4.869984E-07 4.692644E-07 1
vn -4.869984E-07 4.692644E-07 1
vn -4.869984E-07 4.692644E-07 1
vn -4.869984E-07 4.692644E-07 1
vn -4.869984E-07 4.692644E-07 1
vn -4.869984E-07 4.692644E-07 1
vn -4.869984E-07 4.692644E-07 1
vn -4.869984E-07 4.692644E-07 1
vn -4.869984E-07 4.692644E-07 1
vn -4.869984E-07 4.692644E-07 1
vn -4.869984E-07 4.692644E-07 1
vn -4.869984E-07 4.692644E-07 1
vn -4.869984E-07 4.692644E-07 1
vn -4.869984E-07 4.692644E-07 1
vn -4.869984E-07 4.692644E-07 1
vn -4.869984E-07 4.692644E-07 1
vn -4.869984E-07 4.692644E-07 1
vn -4.869984E-07 4.692644E-07 1
vn -4.869984E-07 4.692644E-07 1
vn -4.869984E-07 4.692644E-07 1
vn -4.869984E-07 4.692644E-07 1
vn -4.869984E-07 4.692644E-07 1
vn -4.869984E-07 4.692644E-07 1
vn -4.869984E-07 4.692644E-07 1
vn -4.869984E-07 4.692644E-07 1
vn -4.869984E-07 4.692644E-07 1
vn -4.869984E-07 4.692644E-07 1
vn -4.64745E-07 9.881818E-07 1
vn -4.64745E-07 9.881818E-07 1
vn -4.64745E-07 9.881818E-07 1
vn -4.64745E-07 9.881818E-07 1
vn -4.64745E-07 9.881818E-07 1
vn -4.64745E-07 9.881818E-07 1
vn -4.64745E-07 9.881818E-07 1
vn -4.64745E-07 9.881818E-07 1
vn -4.64745E-07 9.881818E-07 1
vn -4.64745E-07 9.881818E-07 1
vn -4.64745E-07 9.881818E-07 1
vn -4.64745E-07 9.881818E-07 1
vn -4.64745E-07 9.881818E-07 1
vn -4.64745E-07 9.881818E-07 1
vn -4.64745E-07 9.881818E-07 1
vn -4.64745E-07 9.881818E-07 1
vn -4.64745E-07 9.881818E-07 1
vn -4.64745E-07 9.881818E-07 1
vn -4.64745E-07 9.881818E-07 1
vn -4.64745E-07 9.881818E-07 1
vn -4.64745E-07 9.881818E-07 1
vn -4.64745E-07 9.881818E-07 1
vn -4.64745E-07 9.881818E-07 1
vn -4.64745E-07 9.881818E-07 1
vn -4.64745E-07 9.881818E-07 1
vn -4.64745E-07 9.881818E-07 1
vn -4.64745E-07 9.881818E-07 1
vn -4.64745E-07 9.881818E-07 1
vn -4.64745E-07 9.881818E-07 1
vn -4.64745E-07 9.881818E-07 1
vn -4.64745E-07 9.881818E-07 1
vn -4.64745E-07 9.881818E-07 1
vn -4.64745E-07 9.881818E-07 1
vn -4.64745E-07 9.881818E-07 1
vn -4.64745E-07 9.881818E-07 1
vn -4.64745E-07 9.881818E-07 1
vn -4.64745E-07 9.881818E-07 1
vn -4.64745E-07 9.881818E-07 1
vn -4.64745E-07 9.881818E-07 1
vn -4.64745E-07 9.881818E-07 1
vn -4.64745E-07 9.881818E-07 1
vn -4.64745E-07 9.881818E-07 1
vn -4.64745E-07 9.881818E-07 1
vn -4.64745E-07 9.881818E-07 1
vn -4.64745E-07 9.881818E-07 1
vn -4.64745E-07 9.881818E-07 1
vn -4.64745E-07 9.881818E-07 1
vn -4.64745E-07 9.881818E-07 1
vn -4.64745E-07 9.881818E-07 1
vn -4.64745E-07 9.881818E-07 1
vn -4.64745E-07 9.881818E-07 1
vn -4.64745E-07 9.881818E-07 1
vn -4.64745E-07 9.881818E-07 1
vn -4.64745E-07 9.881818E-07 1
vn -4.64745E-07 9.881818E-07 1
vn -4.64745E-07 9.881818E-07 1
vn -4.64745E-07 9.881818E-07 1
vn -4.64745E-07 9.881818E-07 1
vn -4.64745E-07 9.881818E-07 1
vn -4.64745E-07 9.881818E-07 1
vn -4.64745E-07 9.881818E-07 1
vn -4.64745E-07 9.881818E-07 1
vn -4.64745E-07 9.881818E-07 1
vn -4.64745E-07 9.881818E-07 1
vn -4.64745E-07 9.881818E-07 1
vn -4.64745E-07 9.881818E-07 1
g _CombinedLessRain36_0_0
f 3/3/3 2/2/2 1/1/1
f 6/6/6 5/5/5 4/4/4
f 9/9/9 8/8/8 7/7/7
f 12/12/12 11/11/11 10/10/10
f 15/15/15 14/14/14 13/13/13
f 18/18/18 17/17/17 16/16/16
f 21/21/21 20/20/20 19/19/19
f 24/24/24 23/23/23 22/22/22
f 27/27/27 26/26/26 25/25/25
f 30/30/30 29/29/29 28/28/28
f 33/33/33 32/32/32 31/31/31
f 36/36/36 35/35/35 34/34/34
f 39/39/39 38/38/38 37/37/37
f 42/42/42 41/41/41 40/40/40
f 45/45/45 44/44/44 43/43/43
f 48/48/48 47/47/47 46/46/46
f 51/51/51 50/50/50 49/49/49
f 54/54/54 53/53/53 52/52/52
f 57/57/57 56/56/56 55/55/55
f 60/60/60 59/59/59 58/58/58
f 63/63/63 62/62/62 61/61/61
f 66/66/66 65/65/65 64/64/64
f 69/69/69 68/68/68 67/67/67
f 72/72/72 71/71/71 70/70/70
f 75/75/75 74/74/74 73/73/73
f 78/78/78 77/77/77 76/76/76
f 81/81/81 80/80/80 79/79/79
f 84/84/84 83/83/83 82/82/82
f 87/87/87 86/86/86 85/85/85
f 90/90/90 89/89/89 88/88/88
f 93/93/93 92/92/92 91/91/91
f 96/96/96 95/95/95 94/94/94
f 99/99/99 98/98/98 97/97/97
f 102/102/102 101/101/101 100/100/100
f 105/105/105 104/104/104 103/103/103
f 108/108/108 107/107/107 106/106/106
f 111/111/111 110/110/110 109/109/109
f 114/114/114 113/113/113 112/112/112
f 117/117/117 116/116/116 115/115/115
f 120/120/120 119/119/119 118/118/118
f 123/123/123 122/122/122 121/121/121
f 126/126/126 125/125/125 124/124/124
f 129/129/129 128/128/128 127/127/127
f 132/132/132 131/131/131 130/130/130
f 135/135/135 134/134/134 133/133/133
f 138/138/138 137/137/137 136/136/136
f 141/141/141 140/140/140 139/139/139
f 144/144/144 143/143/143 142/142/142
f 147/147/147 146/146/146 145/145/145
f 150/150/150 149/149/149 148/148/148
f 153/153/153 152/152/152 151/151/151
f 156/156/156 155/155/155 154/154/154
f 159/159/159 158/158/158 157/157/157
f 162/162/162 161/161/161 160/160/160
f 165/165/165 164/164/164 163/163/163
f 168/168/168 167/167/167 166/166/166
f 171/171/171 170/170/170 169/169/169
f 174/174/174 173/173/173 172/172/172
f 177/177/177 176/176/176 175/175/175
f 180/180/180 179/179/179 178/178/178
f 183/183/183 182/182/182 181/181/181
f 186/186/186 185/185/185 184/184/184
f 189/189/189 188/188/188 187/187/187
f 192/192/192 191/191/191 190/190/190
f 195/195/195 194/194/194 193/193/193
f 198/198/198 197/197/197 196/196/196
