g _Combined_Vis16_0
v -2.5 -1.500001 1.5
v -1.5 -1.499999 1.5
v -1.5 -0.4999999 1.5
v -2.5 -0.5 1.5
v -1.5 -1.499999 1.5
v -1.5 -1.499999 2.5
v -1.5 -0.5 2.5
v -1.5 -0.4999999 1.5
v -1.5 -2.500001 1.5
v -1.5 -2.499999 2.5
v -1.5 -1.499999 2.5
v -1.5 -1.499999 1.5
v -2.5 -2.500001 1.5
v -1.5 -2.500001 1.5
v -1.5 -1.499999 1.5
v -2.5 -1.500001 1.5
vt 0.9296875 0.4453125
vt 0.9296875 0.3203125
vt 0.8046875 0.3203125
vt 0.8046875 0.4453125
vt 0.9296875 0.4453125
vt 0.9296875 0.3203125
vt 0.8046875 0.3203125
vt 0.8046875 0.4453125
vt 0.9296875 0.4453125
vt 0.9296875 0.3203125
vt 0.8046875 0.3203125
vt 0.8046875 0.4453125
vt 0.9296875 0.4453125
vt 0.9296875 0.3203125
vt 0.8046875 0.3203125
vt 0.8046875 0.4453125
vn 8.742277E-08 0 -1
vn 8.742277E-08 0 -1
vn 8.742277E-08 0 -1
vn 8.742277E-08 0 -1
vn 1 0 0
vn 1 0 0
vn 1 0 0
vn 1 0 0
vn 1 0 0
vn 1 0 0
vn 1 0 0
vn 1 0 0
vn 8.742277E-08 0 -1
vn 8.742277E-08 0 -1
vn 8.742277E-08 0 -1
vn 8.742277E-08 0 -1
g _Combined_Vis16_0_0
f 3/3/3 2/2/2 1/1/1
f 4/4/4 3/3/3 1/1/1
f 7/7/7 6/6/6 5/5/5
f 8/8/8 7/7/7 5/5/5
f 11/11/11 10/10/10 9/9/9
f 12/12/12 11/11/11 9/9/9
f 15/15/15 14/14/14 13/13/13
f 16/16/16 15/15/15 13/13/13
