g _Combined_AutoVis21_0
v -2.538429 -7.109821 2.5
v -2.5 -5.5 2.5
v -2.5 -7.500001 2.5
v -2.65224 -6.734634 2.5
v -2.83706 -6.38886 2.5
v -3.085785 -6.085787 2.5
v -3.388859 -5.837061 2.5
v -3.734632 -5.652241 2.5
v -4.109818 -5.538429 2.5
v -4.499999 -5.5 2.5
v -4.5 -5.499999 1.5
v -4.499999 -5.5 2.5
v -4.109818 -5.538429 2.5
v -4.109819 -5.538429 1.5
v -3.734632 -5.652241 2.5
v -3.734632 -5.65224 1.5
v -3.388859 -5.837061 2.5
v -3.388859 -5.83706 1.5
v -3.085785 -6.085787 2.5
v -3.085786 -6.085786 1.5
v -3.085786 -6.085786 1.5
v -3.085785 -6.085787 2.5
v -2.83706 -6.38886 2.5
v -2.83706 -6.38886 1.5
v -2.65224 -6.734634 2.5
v -2.652241 -6.734634 1.5
v -2.538429 -7.109821 2.5
v -2.53843 -7.10982 1.5
v -2.5 -7.500001 2.5
v -2.5 -7.500001 1.5
v -2.5 -7.500001 1.5
v -2.5 -5.5 1.5
v -2.53843 -7.10982 1.5
v -2.652241 -6.734634 1.5
v -2.83706 -6.38886 1.5
v -3.085786 -6.085786 1.5
v -3.388859 -5.83706 1.5
v -3.734632 -5.65224 1.5
v -4.109819 -5.538429 1.5
v -4.5 -5.499999 1.5
v -1.461571 -7.10982 1.5
v -1.5 -5.5 1.5
v -1.5 -7.500001 1.5
v -1.34776 -6.734634 1.5
v -1.16294 -6.38886 1.5
v -0.9142146 -6.085786 1.5
v -0.6111416 -5.837061 1.5
v -0.265368 -5.652241 1.5
v 0.1098182 -5.538429 1.5
v 0.499999 -5.499999 1.5
v 0.5 -5.499999 2.5
v 0.499999 -5.499999 1.5
v 0.1098182 -5.538429 1.5
v 0.1098187 -5.538428 2.5
v -0.265368 -5.652241 1.5
v -0.2653677 -5.65224 2.5
v -0.6111416 -5.837061 1.5
v -0.6111411 -5.83706 2.5
v -0.9142146 -6.085786 1.5
v -0.914214 -6.085786 2.5
v -0.914214 -6.085786 2.5
v -0.9142146 -6.085786 1.5
v -1.16294 -6.38886 1.5
v -1.16294 -6.38886 2.5
v -1.34776 -6.734634 1.5
v -1.347759 -6.734634 2.5
v -1.461571 -7.10982 1.5
v -1.46157 -7.10982 2.5
v -1.5 -7.500001 1.5
v -1.499999 -7.5 2.5
v -1.499999 -7.5 2.5
v -1.5 -5.5 2.5
v -1.46157 -7.10982 2.5
v -1.347759 -6.734634 2.5
v -1.16294 -6.38886 2.5
v -0.914214 -6.085786 2.5
v -0.6111411 -5.83706 2.5
v -0.2653677 -5.65224 2.5
v 0.1098187 -5.538428 2.5
v 0.5 -5.499999 2.5
v -3.5 -4.5 1.499999
v -2.5 -4.5 1.500001
v -2.5 -4.5 2.5
v -3.5 -4.5 2.5
v -2.5 -7.500001 2.5
v -1.499999 -7.5 2.5
v -1.5 -8.5 2.5
v -2.5 -8.5 2.5
v -2.5 -6.499999 2.5
v -1.5 -6.500001 2.5
v -1.499999 -7.5 2.5
v -2.5 -7.500001 2.5
v -2.5 -5.5 2.5
v -1.5 -5.5 2.5
v -1.5 -6.500001 2.5
v -2.5 -6.499999 2.5
v -1.5 -7.500001 1.5
v -2.5 -7.500001 1.5
v -2.5 -8.5 1.5
v -1.5 -8.5 1.5
v -1.5 -6.499999 1.5
v -2.5 -6.500001 1.5
v -2.5 -7.500001 1.5
v -1.5 -7.500001 1.5
v -1.5 -5.5 1.5
v -2.5 -5.5 1.5
v -2.5 -6.500001 1.5
v -1.5 -6.499999 1.5
v -4.5 -4.499999 1.5
v -4.5 -4.500001 2.5
v -4.499999 -5.5 2.5
v -4.5 -5.499999 1.5
v 0.4999999 -4.499999 2.5
v 0.5 -4.500001 1.5
v 0.499999 -5.499999 1.5
v 0.5 -5.499999 2.5
v -2.5 -4.5 2.5
v -1.5 -4.500001 2.5
v -1.5 -5.5 2.5
v -2.5 -5.5 2.5
v -1.499999 -7.5 2.5
v -1.5 -7.500001 1.5
v -1.5 -8.5 1.5
v -1.5 -8.5 2.5
v -1.5 -4.500001 2.5
v -0.5 -4.500001 2.5
v -0.4999999 -5.5 2.5
v -1.5 -5.5 2.5
v -3.5 -4.5 2.5
v -2.5 -4.5 2.5
v -2.5 -5.5 2.5
v -3.5 -5.5 2.5
v -4.5 -4.500001 2.5
v -3.5 -4.5 2.5
v -3.5 -5.5 2.5
v -4.499999 -5.5 2.5
v -3.5 -4.5 1.499999
v -4.5 -4.499999 1.5
v -4.5 -5.499999 1.5
v -3.5 -5.5 1.5
v -2.5 -4.5 1.500001
v -3.5 -4.5 1.499999
v -3.5 -5.5 1.5
v -2.5 -5.5 1.5
v 0.5 -4.500001 1.5
v -0.5000001 -4.500001 1.5
v -0.5 -5.5 1.5
v 0.499999 -5.499999 1.5
v -0.5000001 -4.500001 1.5
v -1.5 -4.500001 1.5
v -1.5 -5.5 1.5
v -0.5 -5.5 1.5
v -3.5 -4.5 2.5
v -4.5 -4.500001 2.5
v -4.5 -4.499999 1.5
v -3.5 -4.5 1.499999
v 0.4999999 -4.499999 2.5
v -0.5 -4.500001 2.5
v -0.5000001 -4.500001 1.5
v 0.5 -4.500001 1.5
v -1.5 -4.500001 1.5
v -2.5 -4.5 1.500001
v -2.5 -5.5 1.5
v -1.5 -5.5 1.5
v -2.5 -4.5 2.5
v -1.5 -4.500001 1.5
v -1.5 -4.500001 2.5
v -0.5 -4.500001 2.5
v -1.5 -4.500001 2.5
v -0.5000001 -4.500001 1.5
v -0.5 -4.500001 2.5
v 0.4999999 -4.499999 2.5
v 0.5 -5.499999 2.5
v -0.4999999 -5.5 2.5
v -2.5 -7.500001 1.5
v -2.5 -7.500001 2.5
v -2.5 -8.5 2.5
v -2.5 -8.5 1.5
vt 0.5972039 0.1790692
vt 0.5468971 0.1796696
vt 0.6093971 0.1796696
vt 0.5854793 0.1772909
vt 0.5746739 0.1744031
vt 0.5652029 0.1705167
vt 0.5574302 0.1657812
vt 0.5516546 0.1603785
vt 0.548098 0.1545162
vt 0.5468971 0.1484196
vt 0.4846924 0.1796981
vt 0.5468749 0.1796982
vt 0.5468749 0.1718869
vt 0.4846924 0.1718869
vt 0.5468749 0.1640757
vt 0.4846924 0.1640756
vt 0.546875 0.1562645
vt 0.4846925 0.1562644
vt 0.546875 0.1484532
vt 0.4846925 0.1484531
vt 0.4846925 0.1484531
vt 0.546875 0.1484532
vt 0.546875 0.1406419
vt 0.4846926 0.1406419
vt 0.5468751 0.1328307
vt 0.4846926 0.1328306
vt 0.5468751 0.1250194
vt 0.4846926 0.1250194
vt 0.5468751 0.1172082
vt 0.4846926 0.1172082
vt 0.609397 0.1484212
vt 0.5468971 0.1484212
vt 0.5972039 0.1478207
vt 0.5854793 0.1460424
vt 0.5746739 0.1431546
vt 0.5652028 0.1392683
vt 0.5574302 0.1345327
vt 0.5516546 0.12913
vt 0.548098 0.1232678
vt 0.5468971 0.1171712
vt 0.5972039 0.1790692
vt 0.5468971 0.1796696
vt 0.6093971 0.1796696
vt 0.5854793 0.1772909
vt 0.5746739 0.1744031
vt 0.5652029 0.1705167
vt 0.5574302 0.1657812
vt 0.5516546 0.1603785
vt 0.548098 0.1545162
vt 0.5468971 0.1484196
vt 0.4846924 0.1796981
vt 0.5468749 0.1796982
vt 0.5468749 0.1718869
vt 0.4846924 0.1718869
vt 0.5468749 0.1640757
vt 0.4846924 0.1640756
vt 0.546875 0.1562645
vt 0.4846925 0.1562644
vt 0.546875 0.1484532
vt 0.4846925 0.1484531
vt 0.4846925 0.1484531
vt 0.546875 0.1484532
vt 0.546875 0.1406419
vt 0.4846926 0.1406419
vt 0.5468751 0.1328307
vt 0.4846926 0.1328306
vt 0.5468751 0.1250194
vt 0.4846926 0.1250194
vt 0.5468751 0.1172082
vt 0.4846926 0.1172082
vt 0.609397 0.1484212
vt 0.5468971 0.1484212
vt 0.5972039 0.1478207
vt 0.5854793 0.1460424
vt 0.5746739 0.1431546
vt 0.5652028 0.1392683
vt 0.5574302 0.1345327
vt 0.5516546 0.12913
vt 0.548098 0.1232678
vt 0.5468971 0.1171712
vt 0.453125 0.5703125
vt 0.453125 0.5078125
vt 0.328125 0.5078125
vt 0.328125 0.5703125
vt 0.609375 0.1796875
vt 0.609375 0.1171875
vt 0.484375 0.1171875
vt 0.484375 0.1796875
vt 0.609375 0.1796875
vt 0.609375 0.1171875
vt 0.484375 0.1171875
vt 0.484375 0.1796875
vt 0.609375 0.1796875
vt 0.609375 0.1171875
vt 0.484375 0.1171875
vt 0.484375 0.1796875
vt 0.609375 0.1796875
vt 0.609375 0.1171875
vt 0.484375 0.1171875
vt 0.484375 0.1796875
vt 0.609375 0.1796875
vt 0.609375 0.1171875
vt 0.484375 0.1171875
vt 0.484375 0.1796875
vt 0.609375 0.1796875
vt 0.609375 0.1171875
vt 0.484375 0.1171875
vt 0.484375 0.1796875
vt 0.609375 0.1796875
vt 0.609375 0.1171875
vt 0.484375 0.1171875
vt 0.484375 0.1796875
vt 0.609375 0.1796875
vt 0.609375 0.1171875
vt 0.484375 0.1171875
vt 0.484375 0.1796875
vt 0.609375 0.1796875
vt 0.609375 0.1171875
vt 0.484375 0.1171875
vt 0.484375 0.1796875
vt 0.609375 0.1796875
vt 0.609375 0.1171875
vt 0.484375 0.1171875
vt 0.484375 0.1796875
vt 0.609375 0.1796875
vt 0.609375 0.1171875
vt 0.484375 0.1171875
vt 0.484375 0.1796875
vt 0.609375 0.1796875
vt 0.609375 0.1171875
vt 0.484375 0.1171875
vt 0.484375 0.1796875
vt 0.609375 0.1796875
vt 0.609375 0.1171875
vt 0.484375 0.1171875
vt 0.484375 0.1796875
vt 0.609375 0.1796875
vt 0.609375 0.1171875
vt 0.484375 0.1171875
vt 0.484375 0.1796875
vt 0.609375 0.1796875
vt 0.609375 0.1171875
vt 0.484375 0.1171875
vt 0.484375 0.1796875
vt 0.609375 0.1796875
vt 0.609375 0.1171875
vt 0.484375 0.1171875
vt 0.484375 0.1796875
vt 0.609375 0.1796875
vt 0.609375 0.1171875
vt 0.484375 0.1171875
vt 0.484375 0.1796875
vt 0.453125 0.5703125
vt 0.453125 0.5078125
vt 0.328125 0.5078125
vt 0.328125 0.5703125
vt 0.453125 0.5703125
vt 0.453125 0.5078125
vt 0.328125 0.5078125
vt 0.328125 0.5703125
vt 0.609375 0.1796875
vt 0.609375 0.1171875
vt 0.484375 0.1171875
vt 0.484375 0.1796875
vt 0.453125 0.5703125
vt 0.328125 0.5078125
vt 0.328125 0.5703125
vt 0.453125 0.5703125
vt 0.453125 0.5078125
vt 0.328125 0.5703125
vt 0.609375 0.1796875
vt 0.609375 0.1171875
vt 0.484375 0.1171875
vt 0.484375 0.1796875
vt 0.609375 0.1796875
vt 0.609375 0.1171875
vt 0.484375 0.1171875
vt 0.484375 0.1796875
vn 0 0 1
vn 0 0 1
vn 0 0 1
vn 0 0 1
vn 0 0 1
vn 0 0 1
vn 0 0 1
vn 0 0 1
vn 0 0 1
vn 0 0 1
vn -1.192093E-07 -1 0
vn -1.192093E-07 -1 0
vn -0.1950906 -0.9807853 0
vn -0.1950906 -0.9807853 0
vn -0.382684 -0.9238793 0
vn -0.382684 -0.9238793 0
vn -0.5555708 -0.8314693 0
vn -0.5555708 -0.8314693 0
vn -0.7071069 -0.7071066 0
vn -0.707107 -0.7071066 0
vn -0.707107 -0.7071066 0
vn -0.7071069 -0.7071066 0
vn -0.83147 -0.5555697 0
vn -0.83147 -0.5555697 0
vn -0.92388 -0.3826824 0
vn -0.92388 -0.3826825 0
vn -0.9807855 -0.1950893 0
vn -0.9807855 -0.1950893 0
vn -1 1.192093E-07 0
vn -1 1.192093E-07 0
vn 0 0 -1
vn 0 0 -1
vn 0 0 -1
vn 0 0 -1
vn 0 0 -1
vn 0 0 -1
vn 0 0 -1
vn 0 0 -1
vn 0 0 -1
vn 0 0 -1
vn 0 0 -1
vn 0 0 -1
vn 0 0 -1
vn 0 0 -1
vn 0 0 -1
vn 0 0 -1
vn 0 0 -1
vn 0 0 -1
vn 0 0 -1
vn 0 0 -1
vn 1.788139E-07 -1 0
vn 1.788139E-07 -1 0
vn 0.1950907 -0.9807852 0
vn 0.1950907 -0.9807852 0
vn 0.3826841 -0.9238793 0
vn 0.3826841 -0.9238793 0
vn 0.5555708 -0.8314692 0
vn 0.5555708 -0.8314692 0
vn 0.7071071 -0.7071065 0
vn 0.7071071 -0.7071064 0
vn 0.7071071 -0.7071064 0
vn 0.7071071 -0.7071065 0
vn 0.8314701 -0.5555695 0
vn 0.8314701 -0.5555696 0
vn 0.92388 -0.3826822 0
vn 0.92388 -0.3826823 0
vn 0.9807855 -0.195089 0
vn 0.9807855 -0.1950891 0
vn 1 3.576279E-07 0
vn 1 3.576279E-07 0
vn 0 0 1
vn 0 0 1
vn 0 0 1
vn 0 0 1
vn 0 0 1
vn 0 0 1
vn 0 0 1
vn 0 0 1
vn 0 0 1
vn 0 0 1
vn 5.960464E-08 1 0
vn 5.960464E-08 1 0
vn 5.960464E-08 1 0
vn 5.960464E-08 1 0
vn 0 0 1
vn 0 0 1
vn 0 0 1
vn 0 0 1
vn 0 0 1
vn 0 0 1
vn 0 0 1
vn 0 0 1
vn 0 0 1
vn 0 0 1
vn 0 0 1
vn 0 0 1
vn 0 0 -1
vn 0 0 -1
vn 0 0 -1
vn 0 0 -1
vn 0 0 -1
vn 0 0 -1
vn 0 0 -1
vn 0 0 -1
vn 0 0 -1
vn 0 0 -1
vn 0 0 -1
vn 0 0 -1
vn -1 0 0
vn -1 0 0
vn -1 0 0
vn -1 0 0
vn 1 0 0
vn 1 0 0
vn 1 0 0
vn 1 0 0
vn 0 0 1
vn 0 0 1
vn 0 0 1
vn 0 0 1
vn 1 0 0
vn 1 0 0
vn 1 0 0
vn 1 0 0
vn 0 0 1
vn 0 0 1
vn 0 0 1
vn 0 0 1
vn 0 0 1
vn 0 0 1
vn 0 0 1
vn 0 0 1
vn 0 0 1
vn 0 0 1
vn 0 0 1
vn 0 0 1
vn 0 0 -1
vn 0 0 -1
vn 0 0 -1
vn 0 0 -1
vn 0 0 -1
vn 0 0 -1
vn 0 0 -1
vn 0 0 -1
vn 0 0 -1
vn 0 0 -1
vn 0 0 -1
vn 0 0 -1
vn 0 0 -1
vn 0 0 -1
vn 0 0 -1
vn 0 0 -1
vn 0 1 0
vn 0 1 0
vn 0 1 0
vn 0 1 0
vn 0 1 0
vn 0 1 0
vn 0 1 0
vn 0 1 0
vn 0 0 -1
vn 0 0 -1
vn 0 0 -1
vn 0 0 -1
vn 0 1 -1.192093E-07
vn 0 1 -1.192093E-07
vn 0 1 -1.192093E-07
vn 0 1 0
vn 0 1 0
vn 0 1 0
vn 0 0 1
vn 0 0 1
vn 0 0 1
vn 0 0 1
vn -1 0 0
vn -1 0 0
vn -1 0 0
vn -1 0 0
g _Combined_AutoVis21_0_0
f 3/3/3 2/2/2 1/1/1
f 1/1/1 2/2/2 4/4/4
f 4/4/4 2/2/2 5/5/5
f 5/5/5 2/2/2 6/6/6
f 6/6/6 2/2/2 7/7/7
f 7/7/7 2/2/2 8/8/8
f 8/8/8 2/2/2 9/9/9
f 9/9/9 2/2/2 10/10/10
f 13/13/13 12/12/12 11/11/11
f 14/14/14 13/13/13 11/11/11
f 15/15/15 13/13/13 14/14/14
f 16/16/16 15/15/15 14/14/14
f 17/17/17 15/15/15 16/16/16
f 18/18/18 17/17/17 16/16/16
f 19/19/19 17/17/17 18/18/18
f 20/20/20 19/19/19 18/18/18
f 23/23/23 22/22/22 21/21/21
f 24/24/24 23/23/23 21/21/21
f 25/25/25 23/23/23 24/24/24
f 26/26/26 25/25/25 24/24/24
f 27/27/27 25/25/25 26/26/26
f 28/28/28 27/27/27 26/26/26
f 29/29/29 27/27/27 28/28/28
f 30/30/30 29/29/29 28/28/28
f 33/33/33 32/32/32 31/31/31
f 34/34/34 32/32/32 33/33/33
f 35/35/35 32/32/32 34/34/34
f 36/36/36 32/32/32 35/35/35
f 37/37/37 32/32/32 36/36/36
f 38/38/38 32/32/32 37/37/37
f 39/39/39 32/32/32 38/38/38
f 40/40/40 32/32/32 39/39/39
f 43/43/43 42/42/42 41/41/41
f 41/41/41 42/42/42 44/44/44
f 44/44/44 42/42/42 45/45/45
f 45/45/45 42/42/42 46/46/46
f 46/46/46 42/42/42 47/47/47
f 47/47/47 42/42/42 48/48/48
f 48/48/48 42/42/42 49/49/49
f 49/49/49 42/42/42 50/50/50
f 53/53/53 52/52/52 51/51/51
f 54/54/54 53/53/53 51/51/51
f 55/55/55 53/53/53 54/54/54
f 56/56/56 55/55/55 54/54/54
f 57/57/57 55/55/55 56/56/56
f 58/58/58 57/57/57 56/56/56
f 59/59/59 57/57/57 58/58/58
f 60/60/60 59/59/59 58/58/58
f 63/63/63 62/62/62 61/61/61
f 64/64/64 63/63/63 61/61/61
f 65/65/65 63/63/63 64/64/64
f 66/66/66 65/65/65 64/64/64
f 67/67/67 65/65/65 66/66/66
f 68/68/68 67/67/67 66/66/66
f 69/69/69 67/67/67 68/68/68
f 70/70/70 69/69/69 68/68/68
f 73/73/73 72/72/72 71/71/71
f 74/74/74 72/72/72 73/73/73
f 75/75/75 72/72/72 74/74/74
f 76/76/76 72/72/72 75/75/75
f 77/77/77 72/72/72 76/76/76
f 78/78/78 72/72/72 77/77/77
f 79/79/79 72/72/72 78/78/78
f 80/80/80 72/72/72 79/79/79
f 83/83/83 82/82/82 81/81/81
f 84/84/84 83/83/83 81/81/81
f 87/87/87 86/86/86 85/85/85
f 88/88/88 87/87/87 85/85/85
f 91/91/91 90/90/90 89/89/89
f 92/92/92 91/91/91 89/89/89
f 95/95/95 94/94/94 93/93/93
f 96/96/96 95/95/95 93/93/93
f 99/99/99 98/98/98 97/97/97
f 100/100/100 99/99/99 97/97/97
f 103/103/103 102/102/102 101/101/101
f 104/104/104 103/103/103 101/101/101
f 107/107/107 106/106/106 105/105/105
f 108/108/108 107/107/107 105/105/105
f 111/111/111 110/110/110 109/109/109
f 112/112/112 111/111/111 109/109/109
f 115/115/115 114/114/114 113/113/113
f 116/116/116 115/115/115 113/113/113
f 119/119/119 118/118/118 117/117/117
f 120/120/120 119/119/119 117/117/117
f 123/123/123 122/122/122 121/121/121
f 124/124/124 123/123/123 121/121/121
f 127/127/127 126/126/126 125/125/125
f 128/128/128 127/127/127 125/125/125
f 131/131/131 130/130/130 129/129/129
f 132/132/132 131/131/131 129/129/129
f 135/135/135 134/134/134 133/133/133
f 136/136/136 135/135/135 133/133/133
f 139/139/139 138/138/138 137/137/137
f 140/140/140 139/139/139 137/137/137
f 143/143/143 142/142/142 141/141/141
f 144/144/144 143/143/143 141/141/141
f 147/147/147 146/146/146 145/145/145
f 148/148/148 147/147/147 145/145/145
f 151/151/151 150/150/150 149/149/149
f 152/152/152 151/151/151 149/149/149
f 155/155/155 154/154/154 153/153/153
f 156/156/156 155/155/155 153/153/153
f 159/159/159 158/158/158 157/157/157
f 160/160/160 159/159/159 157/157/157
f 163/163/163 162/162/162 161/161/161
f 164/164/164 163/163/163 161/161/161
f 166/166/166 82/82/82 165/165/165
f 167/167/167 166/166/166 165/165/165
f 166/166/166 169/169/169 168/168/168
f 170/170/170 166/166/166 168/168/168
f 173/173/173 172/172/172 171/171/171
f 174/174/174 173/173/173 171/171/171
f 177/177/177 176/176/176 175/175/175
f 178/178/178 177/177/177 175/175/175
