g _Combined_WaterVis4_0
v 0.3749971 -1.99999 0.2500134
v 0.3749971 -3.999991 0.2500134
v -0.3750031 -3.999991 0.2500135
v -0.3750031 -1.99999 0.2500135
v 0.3749971 -0.99999 0.2500134
v -0.3750031 -0.99999 0.2500135
v 0.3749971 -0.4999897 0.2187634
v -0.3750031 -0.4999897 0.2187635
v 0.374997 -0.1249896 0.1250134
v -0.3750031 -0.1249896 0.1250135
v 0.374997 1.049042E-05 1.336655E-05
v -0.3750032 1.049042E-05 1.345596E-05
v 0.07287706 -1.611298 0.3000245
v -2.956267E-06 -2.388683 0.3000245
v -0.07288297 -1.611298 0.3000245
v 0.3749971 -3.999991 0.2500134
v 0.3749971 -8.000023 0.2500134
v -0.3750031 -8.000023 0.2500135
v -0.3750031 -3.999991 0.2500135
v 0.07287706 -5.61133 0.3000245
v -2.956268E-06 -6.388714 0.3000245
v -0.07288297 -5.61133 0.3000245
v 0.3749971 -8.000023 0.2500134
v 0.3749971 -12.00004 0.2500135
v -0.3750031 -12.00004 0.2500134
v -0.3750031 -8.000023 0.2500135
v 0.072877 -9.611342 0.3000245
v -3.009914E-06 -10.38873 0.3000245
v -0.07288302 -9.611342 0.3000245
v 0.3749971 -12.00004 0.2500135
v 0.3749971 -16.00006 0.2500135
v -0.3750031 -16.00006 0.2500134
v -0.3750031 -12.00004 0.2500134
v 0.072877 -13.61137 0.3000245
v -3.009914E-06 -14.38876 0.3000245
v -0.07288302 -13.61137 0.3000245
v 0.3749971 -16.00006 0.2500135
v 0.3749971 -20.00009 0.2500135
v -0.3750031 -20.00009 0.2500134
v -0.3750031 -16.00006 0.2500134
v 0.072877 -17.61139 0.3000245
v -3.009914E-06 -18.38878 0.3000245
v -0.07288302 -17.61139 0.3000245
vt 0.875 0.499942
vt 0.875 0
vt 0.125 0
vt 0.125 0.499942
vt 0.875 0.749928
vt 0.125 0.749928
vt 0.875 0.8286
vt 0.125 0.8286
vt 0.875 0.9135
vt 0.125 0.9135
vt 0.875 0.999885
vt 0.125 0.999885
vt 0 0
vt 0 0
vt 0 0
vt 0.875 0.999885
vt 0.875 0
vt 0.125 0
vt 0.125 0.999885
vt 0 0
vt 0 0
vt 0 0
vt 0.875 0.999885
vt 0.875 0
vt 0.125 0
vt 0.125 0.999885
vt 0 0
vt 0 0
vt 0 0
vt 0.875 0.999885
vt 0.875 0
vt 0.125 0
vt 0.125 0.999885
vt 0 0
vt 0 0
vt 0 0
vt 0.875 0.999885
vt 0.875 0
vt 0.125 0
vt 0.125 0.999885
vt 0 0
vt 0 0
vt 0 0
vn 4.768376E-07 5.133388E-15 1
vn 4.768376E-07 5.133388E-15 1
vn 4.768376E-07 5.133388E-15 1
vn 4.768376E-07 5.133388E-15 1
vn 4.766119E-07 0.03076176 0.9995267
vn 4.766119E-07 0.03076176 0.9995267
vn 4.721313E-07 0.1401506 0.9901302
vn 4.721313E-07 0.1401506 0.9901302
vn 4.362074E-07 0.4039243 0.9147925
vn 4.362074E-07 0.4039243 0.9147925
vn 3.371745E-07 0.7071079 0.7071057
vn 3.371745E-07 0.7071079 0.7071057
vn 4.768376E-07 5.133388E-15 1
vn 4.768376E-07 5.133388E-15 1
vn 4.768376E-07 5.133388E-15 1
vn 4.768376E-07 5.133388E-15 1
vn 4.768376E-07 5.133388E-15 1
vn 4.768376E-07 5.133388E-15 1
vn 4.768376E-07 5.133388E-15 1
vn 4.768376E-07 5.133388E-15 1
vn 4.768376E-07 5.133388E-15 1
vn 4.768376E-07 5.133388E-15 1
vn 2.980232E-07 -9.606739E-15 1
vn 2.980232E-07 -9.606739E-15 1
vn 2.980232E-07 -9.606739E-15 1
vn 2.980232E-07 -9.606739E-15 1
vn 2.980232E-07 -9.606739E-15 1
vn 2.980232E-07 -9.606739E-15 1
vn 2.980232E-07 -9.606739E-15 1
vn 2.980232E-07 -9.606739E-15 1
vn 2.980232E-07 -9.606739E-15 1
vn 2.980232E-07 -9.606739E-15 1
vn 2.980232E-07 -9.606739E-15 1
vn 2.980232E-07 -9.606739E-15 1
vn 2.980232E-07 -9.606739E-15 1
vn 2.980232E-07 -9.606739E-15 1
vn 2.980232E-07 -9.606739E-15 1
vn 2.980232E-07 -9.606739E-15 1
vn 2.980232E-07 -9.606739E-15 1
vn 2.980232E-07 -9.606739E-15 1
vn 2.980232E-07 -9.606739E-15 1
vn 2.980232E-07 -9.606739E-15 1
vn 2.980232E-07 -9.606739E-15 1
g _Combined_WaterVis4_0_0
f 3/3/3 2/2/2 1/1/1
f 4/4/4 3/3/3 1/1/1
f 4/4/4 1/1/1 5/5/5
f 6/6/6 4/4/4 5/5/5
f 6/6/6 5/5/5 7/7/7
f 8/8/8 6/6/6 7/7/7
f 8/8/8 7/7/7 9/9/9
f 10/10/10 8/8/8 9/9/9
f 10/10/10 9/9/9 11/11/11
f 12/12/12 10/10/10 11/11/11
f 15/15/15 14/14/14 13/13/13
f 18/18/18 17/17/17 16/16/16
f 19/19/19 18/18/18 16/16/16
f 22/22/22 21/21/21 20/20/20
f 25/25/25 24/24/24 23/23/23
f 26/26/26 25/25/25 23/23/23
f 29/29/29 28/28/28 27/27/27
f 32/32/32 31/31/31 30/30/30
f 33/33/33 32/32/32 30/30/30
f 36/36/36 35/35/35 34/34/34
f 39/39/39 38/38/38 37/37/37
f 40/40/40 39/39/39 37/37/37
f 43/43/43 42/42/42 41/41/41
