g BushB
v 0.156199 0.126479 -0.646747
v -0.422334 0.198149 -0.525812
v 0.050902 -0.039437 -0.089178
v -0.293573 0.280851 0.627198
v -0.666183 0.280851 0.133049
v -0.673269 1.002617 0.51072
v 0.703056 0.319077 0.011261
v 0.156199 0.126479 -0.646747
v 0.132442 -0.039437 0.004814
v 0.261378 0.280851 0.574441
v -0.293573 0.280851 0.627198
v -0.041831 1.002617 0.734402
v 0.436611 2.365651 0.586235
v 0.704752 2.365651 -0.261581
v 0.695211 1.047373 0.408928
v -0.673269 1.002617 0.51072
v -0.828923 1.002617 -0.21652
v -0.813656 2.395174 0.12561
v 0.156682 3.798321 0.540519
v 0.623911 3.798321 -0.103476
v 0.436611 2.365651 0.586235
v -0.828923 1.002617 -0.21652
v -0.229394 1.026388 -0.810908
v -0.674311 2.384563 -0.430163
v 0.703056 0.319077 0.011261
v 0.261378 0.280851 0.574441
v 0.695211 1.047373 0.408928
v 0.607341 1.078028 -0.59148
v -0.229394 1.026388 -0.810908
v 0.156199 0.126479 -0.646747
v -0.309143 2.398221 0.680267
v -0.813656 2.395174 0.12561
v -0.366517 3.800488 0.519826
v -0.104914 5.200542 0.333723
v 0.450457 5.160522 0.140188
v 0.156682 3.798321 0.540519
v -0.366517 3.800488 0.519826
v -0.104914 5.200542 0.333723
v 0.156682 3.798321 0.540519
v -0.320278 6.509982 -0.017148
v 0.132847 6.507456 0.148929
v -0.104914 5.200542 0.333723
v -0.674311 2.384563 -0.430163
v 0.09177 3.798321 -0.529105
v -0.528027 3.798321 -0.488258
v -0.074116 6.491922 -0.324426
v 0.278125 6.488376 -0.21786
v -0.030159 7.529383 -0.058187
v -0.528027 3.798321 -0.488258
v 0.09177 3.798321 -0.529105
v -0.438021 5.16474 -0.430516
v 0.450457 5.160522 0.140188
v 0.344535 5.146371 -0.378866
v 0.623911 3.798321 -0.103476
v -0.128591 -0.039437 0.056191
v -0.422334 0.198149 -0.525812
v -0.666183 0.280851 0.133049
v 0.132442 -0.039437 0.004814
v -0.05752 -0.039437 0.150445
v 0.048332 -0.039437 0.140382
v -0.582202 5.16474 -0.026502
v -0.438021 5.16474 -0.430516
v -0.074116 6.491922 -0.324426
v -0.582202 5.16474 -0.026502
v -0.320278 6.509982 -0.017148
v -0.104914 5.200542 0.333723
v -0.030159 7.529383 -0.058187
v 0.132847 6.507456 0.148929
v -0.320278 6.509982 -0.017148
v 0.132442 -0.039437 0.004814
v 0.261378 0.280851 0.574441
v 0.703056 0.319077 0.011261
v 0.048332 -0.039437 0.140382
v -0.05752 -0.039437 0.150445
v 0.261378 0.280851 0.574441
v -0.05752 -0.039437 0.150445
v -0.293573 0.280851 0.627198
v 0.695211 1.047373 0.408928
v 0.607341 1.078028 -0.59148
v 0.703056 0.319077 0.011261
v -0.666183 0.280851 0.133049
v -0.422334 0.198149 -0.525812
v -0.828923 1.002617 -0.21652
v 0.050902 -0.039437 -0.089178
v -0.422334 0.198149 -0.525812
v -0.082079 -0.039437 -0.06948
v -0.673269 1.002617 0.51072
v -0.666183 0.280851 0.133049
v -0.828923 1.002617 -0.21652
v 0.436611 2.365651 0.586235
v 0.623911 3.798321 -0.103476
v 0.704752 2.365651 -0.261581
v -0.309143 2.398221 0.680267
v -0.673269 1.002617 0.51072
v -0.813656 2.395174 0.12561
v 0.132442 -0.039437 0.004814
v 0.156199 0.126479 -0.646747
v 0.050902 -0.039437 -0.089178
v 0.09177 3.798321 -0.529105
v -0.010823 2.365651 -0.755244
v 0.623911 3.798321 -0.103476
v 0.695211 1.047373 0.408928
v 0.704752 2.365651 -0.261581
v 0.607341 1.078028 -0.59148
v 0.156199 0.126479 -0.646747
v -0.229394 1.026388 -0.810908
v -0.422334 0.198149 -0.525812
v 0.607341 1.078028 -0.59148
v -0.010823 2.365651 -0.755244
v -0.229394 1.026388 -0.810908
v -0.828923 1.002617 -0.21652
v -0.422334 0.198149 -0.525812
v -0.229394 1.026388 -0.810908
v 0.156682 3.798321 0.540519
v 0.450457 5.160522 0.140188
v 0.623911 3.798321 -0.103476
v 0.450457 5.160522 0.140188
v 0.278125 6.488376 -0.21786
v 0.344535 5.146371 -0.378866
v -0.582202 5.16474 -0.026502
v -0.104914 5.200542 0.333723
v -0.366517 3.800488 0.519826
v 0.156682 3.798321 0.540519
v -0.309143 2.398221 0.680267
v -0.366517 3.800488 0.519826
v -0.104914 5.200542 0.333723
v 0.132847 6.507456 0.148929
v 0.450457 5.160522 0.140188
v -0.010823 2.365651 -0.755244
v 0.09177 3.798321 -0.529105
v -0.674311 2.384563 -0.430163
v 0.623911 3.798321 -0.103476
v 0.344535 5.146371 -0.378866
v 0.09177 3.798321 -0.529105
v -0.082079 -0.039437 -0.06948
v -0.422334 0.198149 -0.525812
v -0.128591 -0.039437 0.056191
v -0.074116 6.491922 -0.324426
v 0.344535 5.146371 -0.378866
v 0.278125 6.488376 -0.21786
v 0.048332 -0.039437 0.140382
v 0.261378 0.280851 0.574441
v 0.132442 -0.039437 0.004814
v 0.703056 0.319077 0.011261
v 0.607341 1.078028 -0.59148
v 0.156199 0.126479 -0.646747
v -0.732664 3.785979 -0.047297
v -0.438021 5.16474 -0.430516
v -0.582202 5.16474 -0.026502
v -0.674311 2.384563 -0.430163
v -0.229394 1.026388 -0.810908
v -0.010823 2.365651 -0.755244
v 0.704752 2.365651 -0.261581
v -0.010823 2.365651 -0.755244
v 0.607341 1.078028 -0.59148
v 0.623911 3.798321 -0.103476
v -0.041831 1.002617 0.734402
v -0.673269 1.002617 0.51072
v -0.309143 2.398221 0.680267
v -0.293573 0.280851 0.627198
v 0.695211 1.047373 0.408928
v -0.041831 1.002617 0.734402
v 0.436611 2.365651 0.586235
v 0.261378 0.280851 0.574441
v -0.813656 2.395174 0.12561
v -0.674311 2.384563 -0.430163
v -0.732664 3.785979 -0.047297
v -0.828923 1.002617 -0.21652
v -0.05752 -0.039437 0.150445
v -0.128591 -0.039437 0.056191
v -0.293573 0.280851 0.627198
v -0.666183 0.280851 0.133049
v 0.050902 -0.039437 -0.089178
v -0.082079 -0.039437 -0.06948
v 0.132442 -0.039437 0.004814
v -0.128591 -0.039437 0.056191
v -0.05752 -0.039437 0.150445
v 0.132847 6.507456 0.148929
v 0.278125 6.488376 -0.21786
v 0.450457 5.160522 0.140188
v -0.030159 7.529383 -0.058187
v 0.436611 2.365651 0.586235
v -0.309143 2.398221 0.680267
v 0.156682 3.798321 0.540519
v -0.041831 1.002617 0.734402
v -0.320278 6.509982 -0.017148
v -0.074116 6.491922 -0.324426
v -0.030159 7.529383 -0.058187
v -0.582202 5.16474 -0.026502
v -0.438021 5.16474 -0.430516
v 0.344535 5.146371 -0.378866
v -0.074116 6.491922 -0.324426
v 0.09177 3.798321 -0.529105
v -0.528027 3.798321 -0.488258
v -0.438021 5.16474 -0.430516
v -0.732664 3.785979 -0.047297
v -0.674311 2.384563 -0.430163
v -0.366517 3.800488 0.519826
v -0.813656 2.395174 0.12561
v -0.732664 3.785979 -0.047297
v -0.582202 5.16474 -0.026502
vt 0.54606 0.074597
vt 0.962016 0.088338
vt 0.551851 0
vt 0.54606 0.104194
vt 0.927316 0.104194
vt 0.540268 0.208389
vt 0.175425 0.088338
vt 0.54606 0.074597
vt 0.179672 0
vt 0.206444 0.135333
vt 0.54606 0.104194
vt 0.16491 0.208389
vt 0.171178 0.539539
vt 0.540268 0.561112
vt 0.171178 0.176677
vt 0.540268 0.208389
vt 0.961648 0.208389
vt 0.616368 0.608594
vt 0.258777 0.786115
vt 0.545568 0.812682
vt 0.171178 0.539539
vt 0.922508 0.63078
vt 0.961648 0.208389
vt 1 0.561112
vt 0.096723 0.088338
vt 0.206444 0.135333
vt 0.013775 0.176677
vt 0.540268 0.149195
vt 1 0.176677
vt 0.54606 0.074597
vt 0.105668 0.569705
vt 0.616368 0.608594
vt 0.197639 0.839363
vt 0.297402 0.865944
vt 0.466165 0.865434
vt 0.258777 0.786115
vt 0.13552 0.812682
vt 0.379961 0.971725
vt 0.297402 0.865944
vt 0.317835 0.908174
vt 0.402216 0.907919
vt 0.297402 0.865944
vt 0.980824 0.600127
vt 0.923 0.812682
vt 0.907257 0.812682
vt 0.674298 0.959414
vt 0.660579 0.911339
vt 0.565447 0.947104
vt 0.907257 0.812682
vt 0.923 0.812682
vt 0.78315 0.971725
vt 0.553182 0.86417
vt 0.755712 0.875574
vt 0.545568 0.812682
vt 0.892983 0
vt 0.962016 0.088338
vt 0.927316 0.104194
vt 0.179672 0
vt 0.551851 0
vt 0.247977 0.062277
vt 0.588678 0.943879
vt 0.764126 0.943879
vt 0.577062 0.97194
vt 0.379961 0.971725
vt 0.359114 0.961064
vt 0.297402 0.865944
vt 0.338267 0.950403
vt 0.402216 0.907919
vt 0.317835 0.908174
vt 0.179672 0
vt 0.206444 0.135333
vt 0.096723 0.088338
vt 0.247977 0.062277
vt 0.551851 0
vt 0.206444 0.135333
vt 0.551851 0
vt 0.54606 0.104194
vt 0.171178 0.176677
vt 0.540268 0.149195
vt 0.175425 0.088338
vt 0.927316 0.104194
vt 0.962016 0.088338
vt 0.961648 0.208389
vt 0.551851 0
vt 0.962016 0.088338
vt 0.924031 0
vt 0.540268 0.208389
vt 0.927316 0.104194
vt 0.961648 0.208389
vt 0.171178 0.539539
vt 0.545568 0.812682
vt 0.540268 0.561112
vt 0.105668 0.569705
vt 0.540268 0.208389
vt 0.616368 0.608594
vt 0.179672 0
vt 0.54606 0.074597
vt 0.551851 0
vt 0.923 0.812682
vt 1 0.561112
vt 0.545568 0.812682
vt 0.171178 0.176677
vt 0.540268 0.561112
vt 0.540268 0.149195
vt 0.54606 0.074597
vt 1 0.176677
vt 0.962016 0.088338
vt 0.540268 0.149195
vt 1 0.561112
vt 1 0.176677
vt 0.961648 0.208389
vt 0.962016 0.088338
vt 1 0.176677
vt 0.258777 0.786115
vt 0.466165 0.865434
vt 0.545568 0.812682
vt 0.553182 0.86417
vt 0.660579 0.911339
vt 0.755712 0.875574
vt 0.197639 0.839363
vt 0.379961 0.971725
vt 0.13552 0.812682
vt 0.13552 0.812682
vt 0.105668 0.569705
vt 0.197639 0.839363
vt 0.297402 0.865944
vt 0.402216 0.907919
vt 0.466165 0.865434
vt 1 0.561112
vt 0.923 0.812682
vt 0.980824 0.600127
vt 0.545568 0.812682
vt 0.755712 0.875574
vt 0.923 0.812682
vt 0.924031 0
vt 0.962016 0.088338
vt 0.892983 0
vt 0.674298 0.959414
vt 0.755712 0.875574
vt 0.660579 0.911339
vt 0.247977 0.062277
vt 0.206444 0.135333
vt 0.179672 0
vt 0.175425 0.088338
vt 0.540268 0.149195
vt 0.54606 0.074597
vt 0.622033 0.835801
vt 0.764126 0.943879
vt 0.588678 0.943879
vt 1 0.561112
vt 0.961648 0.208389
vt 1 0.176677
vt 0.540268 0.561112
vt 1 0.561112
vt 0.540268 0.149195
vt 0.545568 0.812682
vt 0.16491 0.208389
vt 0.540268 0.208389
vt 0.105668 0.569705
vt 0.54606 0.104194
vt 0.013775 0.176677
vt 0.16491 0.208389
vt 0 0.561112
vt 0.206444 0.135333
vt 0.616368 0.608594
vt 0.922508 0.63078
vt 0.622033 0.835801
vt 0.961648 0.208389
vt 0.551851 0
vt 0.892983 0
vt 0.54606 0.104194
vt 0.927316 0.104194
vt 0.551851 0
vt 0.924031 0
vt 0.551851 0
vt 0.892983 0
vt 0.551851 0
vt 0.559314 0.905637
vt 0.660579 0.911339
vt 0.553182 0.86417
vt 0.565447 0.947104
vt 0 0.561112
vt 0.105668 0.569705
vt 0.13552 0.812682
vt 0.16491 0.208389
vt 0.472704 0.985862
vt 0.577062 0.97194
vt 0.565447 1
vt 0.379961 0.971725
vt 0.78315 0.971725
vt 0.755712 0.875574
vt 0.674298 0.959414
vt 0.923 0.812682
vt 0.863415 0.809874
vt 0.764126 0.943879
vt 0.622033 0.835801
vt 0.922508 0.63078
vt 0.197639 0.839363
vt 0.616368 0.608594
vt 0.622033 0.835801
vt 0.588678 0.943879
vn -0.180722 -0.9328319 -0.311712
vn -0.180722 -0.9328319 -0.311712
vn -0.180722 -0.9328319 -0.311712
vn -0.7598244 -0.3072562 0.5729403
vn -0.7598244 -0.3072562 0.5729403
vn -0.7598244 -0.3072562 0.5729403
vn 0.5236357 -0.8299667 -0.1922519
vn 0.5236357 -0.8299667 -0.1922519
vn 0.5236357 -0.8299667 -0.1922519
vn 0.09312796 -0.1779849 0.9796165
vn 0.09312796 -0.1779849 0.9796165
vn 0.09312796 -0.1779849 0.9796165
vn 0.9433838 0.144929 0.2983669
vn 0.9433838 0.144929 0.2983669
vn 0.9433838 0.144929 0.2983669
vn -0.9770438 -0.04066699 0.209121
vn -0.9770438 -0.04066699 0.209121
vn -0.9770438 -0.04066699 0.209121
vn 0.7970387 0.1741849 0.5782638
vn 0.7970387 0.1741849 0.5782638
vn 0.7970387 0.1741849 0.5782638
vn -0.7030898 -0.03116599 -0.7104177
vn -0.7030898 -0.03116599 -0.7104177
vn -0.7030898 -0.03116599 -0.7104177
vn 0.759193 -0.305601 0.57466
vn 0.759193 -0.305601 0.57466
vn 0.759193 -0.305601 0.57466
vn 0.2569141 -0.06580403 -0.9641914
vn 0.2569141 -0.06580403 -0.9641914
vn 0.2569141 -0.06580403 -0.9641914
vn -0.739076 0.046648 0.6720049
vn -0.739076 0.046648 0.6720049
vn -0.739076 0.046648 0.6720049
vn 0.3352471 0.1983711 0.9210093
vn 0.3352471 0.1983711 0.9210093
vn 0.3352471 0.1983711 0.9210093
vn -0.03856499 0.138746 0.9895768
vn -0.03856499 0.138746 0.9895768
vn -0.03856499 0.138746 0.9895768
vn -0.336808 0.191624 0.921868
vn -0.336808 0.191624 0.921868
vn -0.336808 0.191624 0.921868
vn -0.06572303 -0.03417901 -0.9972524
vn -0.06572303 -0.03417901 -0.9972524
vn -0.06572303 -0.03417901 -0.9972524
vn 0.284108 0.227017 -0.9315288
vn 0.284108 0.227017 -0.9315288
vn 0.284108 0.227017 -0.9315288
vn -0.06569003 0.04644802 -0.9967584
vn -0.06569003 0.04644802 -0.9967584
vn -0.06569003 0.04644802 -0.9967584
vn 0.966465 0.159118 -0.201561
vn 0.966465 0.159118 -0.201561
vn 0.966465 0.159118 -0.201561
vn -0.5189358 -0.8505467 -0.08529996
vn -0.5189358 -0.8505467 -0.08529996
vn -0.5189358 -0.8505467 -0.08529996
vn 0 -1 0
vn 0 -1 0
vn 0 -1 0
vn -0.9057299 0.274183 -0.323229
vn -0.9057299 0.274183 -0.323229
vn -0.9057299 0.274183 -0.323229
vn -0.6039617 0.1121069 0.7890896
vn -0.6039617 0.1121069 0.7890896
vn -0.6039617 0.1121069 0.7890896
vn -0.340348 0.134329 0.9306551
vn -0.340348 0.134329 0.9306551
vn -0.340348 0.134329 0.9306551
vn 0.4982469 -0.7990659 0.3365169
vn 0.4982469 -0.7990659 0.3365169
vn 0.4982469 -0.7990659 0.3365169
vn 0.05469498 -0.8160857 0.5753368
vn 0.05469498 -0.8160857 0.5753368
vn 0.05469498 -0.8160857 0.5753368
vn 0.05469498 -0.8160857 0.5753368
vn 0.05469498 -0.8160857 0.5753368
vn 0.994671 0.05745601 -0.08560601
vn 0.994671 0.05745601 -0.08560601
vn 0.994671 0.05745601 -0.08560601
vn -0.8946453 -0.3413357 -0.2882698
vn -0.8946453 -0.3413357 -0.2882698
vn -0.8946453 -0.3413357 -0.2882698
vn -0.06275699 -0.9036359 -0.4236789
vn -0.06275699 -0.9036359 -0.4236789
vn -0.06275699 -0.9036359 -0.4236789
vn -0.9709886 -0.118279 0.2078249
vn -0.9709886 -0.118279 0.2078249
vn -0.9709886 -0.118279 0.2078249
vn 0.9532494 0.02051801 0.3014871
vn 0.9532494 0.02051801 0.3014871
vn 0.9532494 0.02051801 0.3014871
vn -0.7355101 0.110699 0.6684091
vn -0.7355101 0.110699 0.6684091
vn -0.7355101 0.110699 0.6684091
vn 0.2639351 -0.9369693 -0.2289691
vn 0.2639351 -0.9369693 -0.2289691
vn 0.2639351 -0.9369693 -0.2289691
vn 0.6227031 0.07829502 -0.7785312
vn 0.6227031 0.07829502 -0.7785312
vn 0.6227031 0.07829502 -0.7785312
vn 0.994652 -0.05245201 -0.088972
vn 0.994652 -0.05245201 -0.088972
vn 0.994652 -0.05245201 -0.088972
vn -0.228873 -0.268743 -0.9356251
vn -0.228873 -0.268743 -0.9356251
vn -0.228873 -0.268743 -0.9356251
vn 0.253735 -0.001207 -0.9672729
vn 0.253735 -0.001207 -0.9672729
vn 0.253735 -0.001207 -0.9672729
vn -0.7001122 -0.08110002 -0.7094122
vn -0.7001122 -0.08110002 -0.7094122
vn -0.7001122 -0.08110002 -0.7094122
vn 0.8094106 -0.001976999 0.5872397
vn 0.8094106 -0.001976999 0.5872397
vn 0.8094106 -0.001976999 0.5872397
vn 0.97684 0.072492 -0.201317
vn 0.97684 0.072492 -0.201317
vn 0.97684 0.072492 -0.201317
vn -0.5985978 0.2144429 0.7718127
vn -0.5985978 0.2144429 0.7718127
vn -0.5985978 0.2144429 0.7718127
vn -0.03880899 0.112021 0.9929477
vn -0.03880899 0.112021 0.9929477
vn -0.03880899 0.112021 0.9929477
vn 0.3328548 0.07238697 0.9401956
vn 0.3328548 0.07238697 0.9401956
vn 0.3328548 0.07238697 0.9401956
vn -0.429596 0.170729 -0.886735
vn -0.429596 0.170729 -0.886735
vn -0.429596 0.170729 -0.886735
vn 0.6243382 -0.03007101 -0.7805753
vn 0.6243382 -0.03007101 -0.7805753
vn 0.6243382 -0.03007101 -0.7805753
vn -0.4177781 -0.8952952 -0.154622
vn -0.4177781 -0.8952952 -0.154622
vn -0.4177781 -0.8952952 -0.154622
vn 0.2883711 0.128115 -0.9489092
vn 0.2883711 0.128115 -0.9489092
vn 0.2883711 0.128115 -0.9489092
vn 0.5232162 -0.7879524 0.3246162
vn 0.5232162 -0.7879524 0.3246162
vn 0.5232162 -0.7879524 0.3246162
vn 0.7706733 -0.3338611 -0.5427703
vn 0.7706733 -0.3338611 -0.5427703
vn 0.7706733 -0.3338611 -0.5427703
vn -0.936392 0.107227 -0.334174
vn -0.936392 0.107227 -0.334174
vn -0.936392 0.107227 -0.334174
vn -0.4349171 0.108135 -0.8939541
vn -0.4349171 0.108135 -0.8939541
vn -0.4349171 0.108135 -0.8939541
vn 0.5600179 0.165612 -0.8117589
vn 0.5600179 0.165612 -0.8117589
vn 0.5600179 0.165612 -0.8117589
vn 0.563621 0.121963 -0.81698
vn -0.333786 -0.027383 0.9422511
vn -0.333786 -0.027383 0.9422511
vn -0.333786 -0.027383 0.9422511
vn -0.3338188 -0.02353499 0.9423434
vn 0.4057778 -0.04319198 0.9129507
vn 0.4057778 -0.04319198 0.9129507
vn 0.4057778 -0.04319198 0.9129507
vn 0.4053861 -0.03217201 0.9135792
vn -0.9695267 0.02617699 -0.2435829
vn -0.9695267 0.02617699 -0.2435829
vn -0.9695267 0.02617699 -0.2435829
vn -0.9672442 0.07051601 -0.243857
vn -0.4460559 -0.8294007 0.3363459
vn -0.4460559 -0.8294007 0.3363459
vn -0.4460559 -0.8294007 0.3363459
vn -0.4460559 -0.8294007 0.3363459
vn 0 -1 0
vn 0 -1 0
vn 0 -1 0
vn 0 -1 0
vn 0 -1 0
vn 0.9121694 0.2128181 0.3502222
vn 0.9121694 0.2128181 0.3502222
vn 0.9121694 0.2128181 0.3502222
vn 0.911521 0.216287 0.349785
vn 0.127326 0.05647698 0.9902517
vn 0.127326 0.05647698 0.9902517
vn 0.127326 0.05647698 0.9902517
vn 0.127552 0.06282701 0.98984
vn -0.760489 0.191454 -0.6204851
vn -0.760489 0.191454 -0.6204851
vn -0.760489 0.191454 -0.6204851
vn -0.766758 0.153625 -0.623283
vn 0.06716499 0.06118899 -0.9958638
vn 0.06716499 0.06118899 -0.9958638
vn 0.06716499 0.06118899 -0.9958638
vn 0.06783003 0.09793704 -0.9928784
vn -0.9051948 0.07728498 -0.4179109
vn -0.9051948 0.07728498 -0.4179109
vn -0.9051948 0.07728498 -0.4179109
vn -0.9052417 0.07649197 -0.4179549
vn -0.8358511 0.115398 0.5366901
vn -0.8358511 0.115398 0.5366901
vn -0.8358511 0.115398 0.5366901
vn -0.838169 0.083338 0.539006
g BushB_0
f 3/3/3 2/2/2 1/1/1
f 6/6/6 5/5/5 4/4/4
f 9/9/9 8/8/8 7/7/7
f 12/12/12 11/11/11 10/10/10
f 15/15/15 14/14/14 13/13/13
f 18/18/18 17/17/17 16/16/16
f 21/21/21 20/20/20 19/19/19
f 24/24/24 23/23/23 22/22/22
f 27/27/27 26/26/26 25/25/25
f 30/30/30 29/29/29 28/28/28
f 33/33/33 32/32/32 31/31/31
f 36/36/36 35/35/35 34/34/34
f 39/39/39 38/38/38 37/37/37
f 42/42/42 41/41/41 40/40/40
f 45/45/45 44/44/44 43/43/43
f 48/48/48 47/47/47 46/46/46
f 51/51/51 50/50/50 49/49/49
f 54/54/54 53/53/53 52/52/52
f 57/57/57 56/56/56 55/55/55
f 60/60/60 59/59/59 58/58/58
f 63/63/63 62/62/62 61/61/61
f 66/66/66 65/65/65 64/64/64
f 69/69/69 68/68/68 67/67/67
f 72/72/72 71/71/71 70/70/70
f 75/75/75 74/74/74 73/73/73
f 77/77/77 76/76/76 75/75/75
f 80/80/80 79/79/79 78/78/78
f 83/83/83 82/82/82 81/81/81
f 86/86/86 85/85/85 84/84/84
f 89/89/89 88/88/88 87/87/87
f 92/92/92 91/91/91 90/90/90
f 95/95/95 94/94/94 93/93/93
f 98/98/98 97/97/97 96/96/96
f 101/101/101 100/100/100 99/99/99
f 104/104/104 103/103/103 102/102/102
f 107/107/107 106/106/106 105/105/105
f 110/110/110 109/109/109 108/108/108
f 113/113/113 112/112/112 111/111/111
f 116/116/116 115/115/115 114/114/114
f 119/119/119 118/118/118 117/117/117
f 122/122/122 121/121/121 120/120/120
f 125/125/125 124/124/124 123/123/123
f 128/128/128 127/127/127 126/126/126
f 131/131/131 130/130/130 129/129/129
f 134/134/134 133/133/133 132/132/132
f 137/137/137 136/136/136 135/135/135
f 140/140/140 139/139/139 138/138/138
f 143/143/143 142/142/142 141/141/141
f 146/146/146 145/145/145 144/144/144
f 149/149/149 148/148/148 147/147/147
f 152/152/152 151/151/151 150/150/150
f 155/155/155 154/154/154 153/153/153
f 153/153/153 154/154/154 156/156/156
f 159/159/159 158/158/158 157/157/157
f 158/158/158 160/160/160 157/157/157
f 163/163/163 162/162/162 161/161/161
f 162/162/162 164/164/164 161/161/161
f 167/167/167 166/166/166 165/165/165
f 166/166/166 168/168/168 165/165/165
f 171/171/171 170/170/170 169/169/169
f 172/172/172 170/170/170 171/171/171
f 175/175/175 174/174/174 173/173/173
f 176/176/176 174/174/174 175/175/175
f 177/177/177 176/176/176 175/175/175
f 180/180/180 179/179/179 178/178/178
f 178/178/178 179/179/179 181/181/181
f 184/184/184 183/183/183 182/182/182
f 183/183/183 185/185/185 182/182/182
f 188/188/188 187/187/187 186/186/186
f 186/186/186 187/187/187 189/189/189
f 192/192/192 191/191/191 190/190/190
f 191/191/191 193/193/193 190/190/190
f 196/196/196 195/195/195 194/194/194
f 194/194/194 197/197/197 196/196/196
f 200/200/200 199/199/199 198/198/198
f 198/198/198 201/201/201 200/200/200
