g Combined Mesh (root: scene) 2
v -10.65444 -12.01094 9.947357
v 3.487687 -12.01094 -4.194799
v 33.38279 -12.01094 25.70023
v 19.24066 -12.01094 39.84239
v 17.62981 -12.01094 -18.33696
v 47.52491 -12.01094 11.55808
v -40.54954 -12.01094 -19.94768
v -26.40741 -12.01094 -34.08984
v -12.26529 -12.01094 -48.23199
v -82.10928 31.05738 10.39855
v -41.28429 -50.59229 -30.42611
v 29.42635 -50.59225 40.28449
v -11.3985 31.05742 81.10931
v -42.68942 -6.421375 -18.62898
v -40.23993 -11.32035 -21.07847
v 17.63515 -6.421374 41.69559
v 20.08452 -11.32035 39.24598
v -24.59949 -4.002905 5.928061
v -26.64077 0.07958031 7.969266
v -44.31842 0.07957268 -9.708397
v -42.27718 -4.002911 -11.74964
v -42.27718 -4.002911 -11.74964
v -44.31842 0.07957268 -9.708397
v -61.99608 0.07957649 -27.38607
v -59.95483 -4.002911 -29.42731
v 10.75585 -4.002909 41.28342
v 8.714577 0.07957458 43.32463
v -8.963075 0.07956696 25.64697
v -6.921834 -4.002918 23.60573
v 28.43352 -4.002909 58.9611
v 26.39224 0.07957649 61.0023
v 8.714577 0.07957458 43.32463
v 10.75585 -4.002909 41.28342
v -6.921815 -4.002913 23.60574
v -8.963094 0.07957172 25.64695
v -26.64075 0.079566 7.969291
v -24.59951 -4.002919 5.928051
vt 1 1
vt 1 0
vt 0 0
vt 0 1
vt 1 1
vt 0 1
vt 0 1
vt 0 0
vt 0 1
vt 0.2734375 0.07421875
vt 0.2734375 0.04296875
vt 0.2109375 0.04296875
vt 0.2109375 0.07421875
vt 0 1
vt 0 0
vt 1 1
vt 1 0
vt 1 1
vt 1 0
vt 0 0
vt 0 1
vt 1 1
vt 1 0
vt 0 0
vt 0 1
vt 1 1
vt 1 0
vt 0 0
vt 0 1
vt 1 1
vt 1 0
vt 0 0
vt 0 1
vt 1 1
vt 1 0
vt 0 0
vt 0 1
vn 5.960464E-08 1 -8.940697E-08
vn 5.960464E-08 1 -8.940697E-08
vn 5.960464E-08 1 -8.940697E-08
vn 5.960464E-08 1 -8.940697E-08
vn 5.960464E-08 1 -8.940697E-08
vn 5.960464E-08 1 -8.940697E-08
vn 5.960464E-08 1 -8.940697E-08
vn 5.960464E-08 1 -8.940697E-08
vn 5.960464E-08 1 -8.940697E-08
vn 0.5773501 0.5773502 -0.5773507
vn 0.5773501 0.5773502 -0.5773507
vn 0.5773501 0.5773502 -0.5773507
vn 0.5773501 0.5773502 -0.5773507
vn 0.5773505 0.5773501 -0.5773504
vn 0.5773505 0.5773501 -0.5773504
vn 0.5773505 0.5773501 -0.5773504
vn 0.5773505 0.5773501 -0.5773504
vn 0.5773506 0.5773499 -0.5773504
vn 0.5773506 0.5773499 -0.5773504
vn 0.5773506 0.5773499 -0.5773504
vn 0.5773506 0.5773499 -0.5773504
vn 0.5773506 0.5773499 -0.5773504
vn 0.5773506 0.5773499 -0.5773504
vn 0.5773506 0.5773499 -0.5773504
vn 0.5773506 0.5773499 -0.5773504
vn 0.5773506 0.5773499 -0.5773504
vn 0.5773506 0.5773499 -0.5773504
vn 0.5773506 0.5773499 -0.5773504
vn 0.5773506 0.5773499 -0.5773504
vn 0.5773506 0.5773499 -0.5773504
vn 0.5773506 0.5773499 -0.5773504
vn 0.5773506 0.5773499 -0.5773504
vn 0.5773506 0.5773499 -0.5773504
vn 0.5773505 0.5773499 -0.5773506
vn 0.5773505 0.5773499 -0.5773506
vn 0.5773505 0.5773499 -0.5773506
vn 0.5773505 0.5773499 -0.5773506
g Combined Mesh (root: scene) 2_0
f 3/3/3 2/2/2 1/1/1
f 4/4/4 3/3/3 1/1/1
f 6/6/6 5/5/5 2/2/2
f 3/3/3 6/6/6 2/2/2
f 2/2/2 8/8/8 7/7/7
f 1/1/1 2/2/2 7/7/7
f 5/5/5 9/9/9 8/8/8
f 2/2/2 5/5/5 8/8/8
g Combined Mesh (root: scene) 2_1
f 12/12/12 11/11/11 10/10/10
f 13/13/13 12/12/12 10/10/10
g Combined Mesh (root: scene) 2_2
f 16/16/16 15/15/15 14/14/14
f 16/16/16 17/17/17 15/15/15
g Combined Mesh (root: scene) 2_3
f 20/20/20 19/19/19 18/18/18
f 21/21/21 20/20/20 18/18/18
f 24/24/24 23/23/23 22/22/22
f 25/25/25 24/24/24 22/22/22
f 28/28/28 27/27/27 26/26/26
f 29/29/29 28/28/28 26/26/26
f 32/32/32 31/31/31 30/30/30
f 33/33/33 32/32/32 30/30/30
g Combined Mesh (root: scene) 2_4
f 36/36/36 35/35/35 34/34/34
f 37/37/37 36/36/36 34/34/34
