g Combined Mesh (root: scene) 3
v -2.999999 17.50001 90
v -2.999999 17.50001 97
v -3 27.50001 97
v -3 27.50001 90
v -4.000006 17.50001 97.5
v 3.999996 17.50001 97.5
v 3.999996 25.50001 97.5
v -4.000006 25.50001 97.5
v -9.000002 17.00001 88
v 6.000001 17.00001 88
v 6.000001 23.00001 88
v -9.000002 23.00001 88
v 6 17.00001 88
v 6 17.00001 98
v 6 23.00001 98
v 6 23.00001 88
vt 0.999999 0.000147
vt 1.1E-05 0.000147
vt 1.1E-05 0.999997
vt 0.999999 0.999997
vt 0.999999 0.000147
vt 1.1E-05 0.000147
vt 1.1E-05 0.999997
vt 0.999999 0.999997
vt 0.999999 0.000147
vt 1.1E-05 0.000147
vt 1.1E-05 0.999997
vt 0.999999 0.999997
vt 0.999999 0.000147
vt 1.1E-05 0.000147
vt 1.1E-05 0.999997
vt 0.999999 0.999997
vn 1 1.192093E-07 3.552714E-15
vn 1 1.192093E-07 3.552714E-15
vn 1 1.192093E-07 3.552714E-15
vn 1 1.192093E-07 3.552714E-15
vn 0 -1.192093E-07 -0.9999999
vn 0 -1.192093E-07 -0.9999999
vn 0 -1.192093E-07 -0.9999999
vn 0 -1.192093E-07 -0.9999999
vn 9.174427E-08 1.192093E-07 -1
vn 9.174427E-08 1.192093E-07 -1
vn 9.174427E-08 1.192093E-07 -1
vn 9.174427E-08 1.192093E-07 -1
vn 1 0 0
vn 1 0 0
vn 1 0 0
vn 1 0 0
g Combined Mesh (root: scene) 3_0
f 3/3/3 2/2/2 1/1/1
f 4/4/4 3/3/3 1/1/1
g Combined Mesh (root: scene) 3_1
f 7/7/7 6/6/6 5/5/5
f 8/8/8 7/7/7 5/5/5
g Combined Mesh (root: scene) 3_2
f 11/11/11 10/10/10 9/9/9
f 12/12/12 11/11/11 9/9/9
g Combined Mesh (root: scene) 3_3
f 15/15/15 14/14/14 13/13/13
f 16/16/16 15/15/15 13/13/13
