g CrowIdaEyes
v 0.141264 0.048147 0.898911
v 0.141267 -0.006403 0.891507
v 0.141264 -0.060469 0.899097
v 0.141267 0.09548 0.926097
v 0.141267 -0.107087 0.928769
v 0.141267 0.127895 0.974535
v 0.141267 -0.136505 0.976248
v 0.141267 0.136334 1.030283
v 0.141267 -0.148763 1.029544
v 0.141267 0.126774 1.084923
v 0.141267 -0.138504 1.086003
v 0.141267 0.093994 1.129557
v 0.141267 -0.106196 1.12919
v 0.141267 0.049359 1.162327
v 0.141267 -0.060031 1.160149
v 0.141267 -0.006442 1.170016
v -0.141244 0.048147 0.898911
v -0.141244 -0.060469 0.899097
v -0.141247 -0.006403 0.891507
v -0.141247 0.09548 0.926097
v -0.141247 -0.107087 0.928769
v -0.141247 0.127895 0.974535
v -0.141247 -0.136505 0.976248
v -0.141247 0.136334 1.030283
v -0.141247 -0.148763 1.029544
v -0.141247 0.126774 1.084923
v -0.141247 -0.138504 1.086003
v -0.141247 0.093994 1.129557
v -0.141247 -0.106196 1.12919
v -0.141247 0.049359 1.162327
v -0.141247 -0.060031 1.160149
v -0.141247 -0.006442 1.170016
vt 0.562663 0.351236
vt 0.500555 0.342806
vt 0.438998 0.351449
vt 0.616554 0.382189
vt 0.385921 0.385231
vt 0.653461 0.437339
vt 0.352427 0.439289
vt 0.663069 0.500811
vt 0.338471 0.49997
vt 0.652184 0.563022
vt 0.350151 0.564251
vt 0.614862 0.61384
vt 0.386934 0.613422
vt 0.564043 0.65115
vt 0.439496 0.648671
vt 0.50051 0.659905
vt 0.562663 0.351236
vt 0.438998 0.351449
vt 0.500555 0.342806
vt 0.616554 0.382189
vt 0.385921 0.385231
vt 0.653461 0.437339
vt 0.352427 0.439289
vt 0.663069 0.500811
vt 0.338471 0.49997
vt 0.652184 0.563022
vt 0.350151 0.564251
vt 0.614862 0.61384
vt 0.386934 0.613422
vt 0.564043 0.65115
vt 0.439496 0.648671
vt 0.50051 0.659905
vn 1 0 0.000386
vn 1 0 0.000386
vn 1 0 0.000386
vn 1 0 -0.000102
vn 1 0 -0.000102
vn 1 0 0
vn 1 0 0
vn 1 0 0
vn 1 0 0
vn 1 0 0
vn 1 0 0
vn 1 0 0
vn 1 0 0
vn 1 0 0
vn 1 0 0
vn 1 0 0
vn -1 0 0.000386
vn -1 0 0.000386
vn -1 0 0.000386
vn -1 0 -0.000102
vn -1 0 -0.000102
vn -1 0 0
vn -1 0 0
vn -1 0 0
vn -1 0 0
vn -1 0 0
vn -1 0 0
vn -1 0 0
vn -1 0 0
vn -1 0 0
vn -1 0 0
vn -1 0 0
g CrowIdaEyes_0
f 3/3/3 2/2/2 1/1/1
f 1/1/1 4/4/4 3/3/3
f 4/4/4 5/5/5 3/3/3
f 5/5/5 4/4/4 6/6/6
f 7/7/7 5/5/5 6/6/6
f 6/6/6 8/8/8 7/7/7
f 8/8/8 9/9/9 7/7/7
f 9/9/9 8/8/8 10/10/10
f 11/11/11 9/9/9 10/10/10
f 10/10/10 12/12/12 11/11/11
f 12/12/12 13/13/13 11/11/11
f 13/13/13 12/12/12 14/14/14
f 15/15/15 13/13/13 14/14/14
f 14/14/14 16/16/16 15/15/15
f 19/19/19 18/18/18 17/17/17
f 20/20/20 17/17/17 18/18/18
f 21/21/21 20/20/20 18/18/18
f 20/20/20 21/21/21 22/22/22
f 21/21/21 23/23/23 22/22/22
f 24/24/24 22/22/22 23/23/23
f 25/25/25 24/24/24 23/23/23
f 24/24/24 25/25/25 26/26/26
f 25/25/25 27/27/27 26/26/26
f 28/28/28 26/26/26 27/27/27
f 29/29/29 28/28/28 27/27/27
f 28/28/28 29/29/29 30/30/30
f 29/29/29 31/31/31 30/30/30
f 32/32/32 30/30/30 31/31/31
