g Crown
v -0.157548 -0.065259 1.473538
v -0.170529 0 1.639809
v -0.129977 -0.053838 1.473538
v 0.120582 0.120582 1.639809
v 0.157548 0.065259 1.473538
v 0.129977 0.053838 1.473538
v 0.065259 0.157548 1.473538
v 0.120582 0.120582 1.639809
v 0.053838 0.129977 1.473538
v 0.170529 0 1.639809
v 0.157548 -0.065259 1.473538
v 0.129977 -0.053838 1.473538
v 0.157548 0.065259 1.473538
v 0.170529 0 1.639809
v 0.129977 0.053838 1.473538
v 0.157548 -0.065259 1.473538
v 0.120582 -0.120582 1.639809
v 0.129977 -0.053838 1.473538
v 0.120582 -0.120582 1.639809
v 0.065259 -0.157548 1.473538
v 0.053838 -0.129977 1.473538
v 0.065259 -0.157548 1.473538
v 0 -0.170529 1.639809
v 0.053838 -0.129977 1.473538
v 0 -0.170529 1.639809
v -0.065259 -0.157548 1.473538
v -0.053838 -0.129977 1.473538
v -0.065259 -0.157548 1.473538
v -0.120582 -0.120582 1.639809
v -0.053838 -0.129977 1.473538
v -0.120582 -0.120582 1.639809
v -0.157548 -0.065259 1.473538
v -0.129977 -0.053838 1.473538
v 0 0.170529 1.639809
v 0.065259 0.157548 1.473538
v 0.053838 0.129977 1.473538
v -0.170529 0 1.639809
v -0.157548 0.065259 1.473538
v -0.129977 0.053838 1.473538
v -0.065259 0.157548 1.473538
v 0 0.170529 1.639809
v -0.053838 0.129977 1.473538
v -0.157548 0.065259 1.473538
v -0.120582 0.120582 1.639809
v -0.129977 0.053838 1.473538
v -0.120582 0.120582 1.639809
v -0.065259 0.157548 1.473538
v -0.053838 0.129977 1.473538
v 0 0.170529 1.418602
v 0.065259 0.157548 1.418602
v 0.065259 0.157548 1.473538
v 0 0.170529 1.639809
v 0.065259 0.157548 1.418602
v 0.120582 0.120582 1.418602
v 0.120582 0.120582 1.639809
v 0.065259 0.157548 1.473538
v 0.120582 0.120582 1.418602
v 0.157548 0.065259 1.418602
v 0.157548 0.065259 1.473538
v 0.120582 0.120582 1.639809
v 0.157548 0.065259 1.418602
v 0.170529 0 1.418602
v 0.170529 0 1.639809
v 0.157548 0.065259 1.473538
v 0.170529 0 1.418602
v 0.157548 -0.065259 1.418602
v 0.157548 -0.065259 1.473538
v 0.170529 0 1.639809
v 0.157548 -0.065259 1.418602
v 0.120582 -0.120582 1.418602
v 0.120582 -0.120582 1.639809
v 0.157548 -0.065259 1.473538
v 0.120582 -0.120582 1.418602
v 0.065259 -0.157548 1.418602
v 0.065259 -0.157548 1.473538
v 0.120582 -0.120582 1.639809
v 0.065259 -0.157548 1.418602
v 0 -0.170529 1.418602
v 0 -0.170529 1.639809
v 0.065259 -0.157548 1.473538
v 0 -0.170529 1.418602
v -0.065259 -0.157548 1.418602
v -0.065259 -0.157548 1.473538
v 0 -0.170529 1.639809
v -0.065259 -0.157548 1.418602
v -0.120582 -0.120582 1.418602
v -0.120582 -0.120582 1.639809
v -0.065259 -0.157548 1.473538
v -0.120582 -0.120582 1.418602
v -0.157548 -0.065259 1.418602
v -0.157548 -0.065259 1.473538
v -0.120582 -0.120582 1.639809
v -0.157548 -0.065259 1.418602
v -0.170529 0 1.418602
v -0.170529 0 1.639809
v -0.157548 -0.065259 1.473538
v -0.170529 0 1.418602
v -0.157548 0.065259 1.418602
v -0.157548 0.065259 1.473538
v -0.170529 0 1.639809
v -0.157548 0.065259 1.418602
v -0.120582 0.120582 1.418602
v -0.120582 0.120582 1.639809
v -0.157548 0.065259 1.473538
v -0.065259 0.157548 1.418602
v 0 0.170529 1.418602
v 0 0.170529 1.639809
v -0.065259 0.157548 1.473538
v -0.120582 0.120582 1.418602
v -0.065259 0.157548 1.418602
v -0.065259 0.157548 1.473538
v -0.120582 0.120582 1.639809
v 0.140687 0 1.418602
v 0.170529 0 1.639809
v 0.129977 -0.053838 1.473538
v 0.129977 -0.053838 1.418602
v -0.053838 0.129977 1.418602
v -0.053838 0.129977 1.473538
v 0 0.170529 1.639809
v 0 0.140686 1.418602
v 0.09948 -0.09948 1.418602
v 0.120582 -0.120582 1.639809
v 0.053838 -0.129977 1.473538
v 0.053838 -0.129977 1.418602
v -0.140687 0 1.418602
v -0.170529 0 1.639809
v -0.129977 0.053838 1.473538
v -0.129977 0.053838 1.418602
v 0.09948 0.09948 1.418602
v 0.120582 0.120582 1.639809
v 0.129977 0.053838 1.473538
v 0.129977 0.053838 1.418602
v -0.129977 -0.053838 1.418602
v -0.129977 -0.053838 1.473538
v -0.170529 0 1.639809
v -0.140687 0 1.418602
v 0 -0.140687 1.418602
v 0 -0.170529 1.639809
v -0.053838 -0.129977 1.473538
v -0.053838 -0.129977 1.418602
v 0.129977 0.053838 1.418602
v 0.129977 0.053838 1.473538
v 0.170529 0 1.639809
v 0.140687 0 1.418602
v -0.09948 -0.09948 1.418602
v -0.120582 -0.120582 1.639809
v -0.129977 -0.053838 1.473538
v -0.129977 -0.053838 1.418602
v 0.129977 -0.053838 1.418602
v 0.129977 -0.053838 1.473538
v 0.120582 -0.120582 1.639809
v 0.09948 -0.09948 1.418602
v 0 0.140686 1.418602
v 0 0.170529 1.639809
v 0.053838 0.129977 1.473538
v 0.053838 0.129977 1.418602
v 0.053838 -0.129977 1.418602
v 0.053838 -0.129977 1.473538
v 0 -0.170529 1.639809
v 0 -0.140687 1.418602
v 0.053838 0.129977 1.418602
v 0.053838 0.129977 1.473538
v 0.120582 0.120582 1.639809
v 0.09948 0.09948 1.418602
v -0.053838 -0.129977 1.418602
v -0.053838 -0.129977 1.473538
v -0.120582 -0.120582 1.639809
v -0.09948 -0.09948 1.418602
v -0.129977 0.053838 1.418602
v -0.129977 0.053838 1.473538
v -0.120582 0.120582 1.639809
v -0.09948 0.09948 1.418602
v -0.09948 0.09948 1.418602
v -0.120582 0.120582 1.639809
v -0.053838 0.129977 1.473538
v -0.053838 0.129977 1.418602
v 0 0.170529 1.418602
v -0.053838 0.129977 1.418602
v 0 0.140686 1.418602
v -0.065259 0.157548 1.418602
v 0.065259 0.157548 1.418602
v -0.09948 0.09948 1.418602
v 0.053838 0.129977 1.418602
v -0.120582 0.120582 1.418602
v 0.120582 0.120582 1.418602
v -0.129977 0.053838 1.418602
v 0.09948 0.09948 1.418602
v -0.157548 0.065259 1.418602
v 0.157548 0.065259 1.418602
v -0.140687 0 1.418602
v 0.129977 0.053838 1.418602
v -0.170529 0 1.418602
v 0.170529 0 1.418602
v -0.129977 -0.053838 1.418602
v 0.140687 0 1.418602
v -0.157548 -0.065259 1.418602
v 0.157548 -0.065259 1.418602
v -0.09948 -0.09948 1.418602
v 0.129977 -0.053838 1.418602
v -0.120582 -0.120582 1.418602
v 0.120582 -0.120582 1.418602
v -0.053838 -0.129977 1.418602
v 0.09948 -0.09948 1.418602
v -0.065259 -0.157548 1.418602
v 0.065259 -0.157548 1.418602
v 0 -0.140687 1.418602
v 0.053838 -0.129977 1.418602
v 0 -0.170529 1.418602
vt 0.345696 0.668762
vt 0.346346 0.670972
vt 0.34581 0.668762
vt 0.347337 0.670972
vt 0.346996 0.668762
vt 0.346882 0.668762
vt 0.347915 0.668762
vt 0.347547 0.670972
vt 0.347641 0.668762
vt 0.346346 0.670972
vt 0.345696 0.668762
vt 0.34581 0.668762
vt 0.346996 0.668762
vt 0.346346 0.670972
vt 0.346882 0.668762
vt 0.345696 0.668762
vt 0.345145 0.670972
vt 0.34581 0.668762
vt 0.345355 0.670972
vt 0.344777 0.668762
vt 0.345051 0.668762
vt 0.344777 0.668762
vt 0.344647 0.670972
vt 0.345051 0.668762
vt 0.344945 0.670972
vt 0.344777 0.668762
vt 0.345051 0.668762
vt 0.344777 0.668762
vt 0.345145 0.670972
vt 0.345051 0.668762
vt 0.345355 0.670972
vt 0.345696 0.668762
vt 0.34581 0.668762
vt 0.347747 0.670972
vt 0.347915 0.668762
vt 0.347641 0.668762
vt 0.346346 0.670972
vt 0.346996 0.668762
vt 0.346882 0.668762
vt 0.347915 0.668762
vt 0.348045 0.670972
vt 0.347641 0.668762
vt 0.346996 0.668762
vt 0.347547 0.670972
vt 0.346882 0.668762
vt 0.347337 0.670972
vt 0.347915 0.668762
vt 0.347641 0.668762
vt 0.348045 0.667575
vt 0.347915 0.667575
vt 0.347915 0.668762
vt 0.348045 0.670972
vt 0.347915 0.667575
vt 0.347547 0.667575
vt 0.347547 0.670972
vt 0.347915 0.668762
vt 0.347547 0.667575
vt 0.346996 0.667575
vt 0.346996 0.668762
vt 0.347547 0.670972
vt 0.346996 0.667575
vt 0.346346 0.667575
vt 0.346346 0.670972
vt 0.346996 0.668762
vt 0.346346 0.667575
vt 0.345696 0.667575
vt 0.345696 0.668762
vt 0.346346 0.670972
vt 0.345696 0.667575
vt 0.345145 0.667575
vt 0.345145 0.670972
vt 0.345696 0.668762
vt 0.345145 0.667575
vt 0.344777 0.667575
vt 0.344777 0.668762
vt 0.345145 0.670972
vt 0.344777 0.667575
vt 0.344647 0.667575
vt 0.344647 0.670972
vt 0.344777 0.668762
vt 0.344647 0.667575
vt 0.344777 0.667575
vt 0.344777 0.668762
vt 0.344647 0.670972
vt 0.344777 0.667575
vt 0.345145 0.667575
vt 0.345145 0.670972
vt 0.344777 0.668762
vt 0.345145 0.667575
vt 0.345696 0.667575
vt 0.345696 0.668762
vt 0.345145 0.670972
vt 0.345696 0.667575
vt 0.346346 0.667575
vt 0.346346 0.670972
vt 0.345696 0.668762
vt 0.346346 0.667575
vt 0.346996 0.667575
vt 0.346996 0.668762
vt 0.346346 0.670972
vt 0.346996 0.667575
vt 0.347547 0.667575
vt 0.347547 0.670972
vt 0.346996 0.668762
vt 0.347915 0.667575
vt 0.348045 0.667575
vt 0.348045 0.670972
vt 0.347915 0.668762
vt 0.347547 0.667575
vt 0.347915 0.667575
vt 0.347915 0.668762
vt 0.347547 0.670972
vt 0.346346 0.667575
vt 0.346346 0.670972
vt 0.34581 0.668762
vt 0.34581 0.667575
vt 0.347641 0.667575
vt 0.347641 0.668762
vt 0.347747 0.670972
vt 0.347747 0.667575
vt 0.345355 0.667575
vt 0.345355 0.670972
vt 0.345051 0.668762
vt 0.345051 0.667575
vt 0.346346 0.667575
vt 0.346346 0.670972
vt 0.346882 0.668762
vt 0.346882 0.667575
vt 0.347337 0.667575
vt 0.347337 0.670972
vt 0.346882 0.668762
vt 0.346882 0.667575
vt 0.34581 0.667575
vt 0.34581 0.668762
vt 0.346346 0.670972
vt 0.346346 0.667575
vt 0.344945 0.667575
vt 0.344945 0.670972
vt 0.345051 0.668762
vt 0.345051 0.667575
vt 0.346882 0.667575
vt 0.346882 0.668762
vt 0.346346 0.670972
vt 0.346346 0.667575
vt 0.345355 0.667575
vt 0.345355 0.670972
vt 0.34581 0.668762
vt 0.34581 0.667575
vt 0.34581 0.667575
vt 0.34581 0.668762
vt 0.345355 0.670972
vt 0.345355 0.667575
vt 0.347747 0.667575
vt 0.347747 0.670972
vt 0.347641 0.668762
vt 0.347641 0.667575
vt 0.345051 0.667575
vt 0.345051 0.668762
vt 0.344945 0.670972
vt 0.344945 0.667575
vt 0.347641 0.667575
vt 0.347641 0.668762
vt 0.347337 0.670972
vt 0.347337 0.667575
vt 0.345051 0.667575
vt 0.345051 0.668762
vt 0.345355 0.670972
vt 0.345355 0.667575
vt 0.346882 0.667575
vt 0.346882 0.668762
vt 0.347337 0.670972
vt 0.347337 0.667575
vt 0.347337 0.667575
vt 0.347337 0.670972
vt 0.347641 0.668762
vt 0.347641 0.667575
vt 0.348045 0.667575
vt 0.347641 0.667575
vt 0.347747 0.667575
vt 0.347915 0.667575
vt 0.347915 0.667575
vt 0.347337 0.667575
vt 0.347641 0.667575
vt 0.347547 0.667575
vt 0.347547 0.667575
vt 0.346882 0.667575
vt 0.347337 0.667575
vt 0.346996 0.667575
vt 0.346996 0.667575
vt 0.346346 0.667575
vt 0.346882 0.667575
vt 0.346346 0.667575
vt 0.346346 0.667575
vt 0.34581 0.667575
vt 0.346346 0.667575
vt 0.345696 0.667575
vt 0.345696 0.667575
vt 0.345355 0.667575
vt 0.34581 0.667575
vt 0.345145 0.667575
vt 0.345145 0.667575
vt 0.345051 0.667575
vt 0.345355 0.667575
vt 0.344777 0.667575
vt 0.344777 0.667575
vt 0.344945 0.667575
vt 0.345051 0.667575
vt 0.344647 0.667575
vn 0.3562289 -0.8600106 0.3653528
vn 0.3562289 -0.8600106 0.3653528
vn 0.3562289 -0.8600106 0.3653528
vn 0.356228 -0.860011 0.365353
vn 0.356228 -0.860011 0.365353
vn 0.356228 -0.860011 0.365353
vn -0.860011 0.356228 0.365353
vn -0.860011 0.356228 0.365353
vn -0.860011 0.356228 0.365353
vn -0.3562297 -0.8600103 0.3653527
vn -0.3562297 -0.8600103 0.3653527
vn -0.3562297 -0.8600103 0.3653527
vn -0.3562262 0.8600116 0.3653533
vn -0.3562262 0.8600116 0.3653533
vn -0.3562262 0.8600116 0.3653533
vn 0.356231 0.8600101 0.365352
vn 0.356231 0.8600101 0.365352
vn 0.356231 0.8600101 0.365352
vn -0.860011 -0.356228 0.365353
vn -0.860011 -0.356228 0.365353
vn -0.860011 -0.356228 0.365353
vn 0.8600103 0.3562291 0.3653531
vn 0.8600103 0.3562291 0.3653531
vn 0.8600103 0.3562291 0.3653531
vn -0.8600106 0.3562289 0.3653528
vn -0.8600106 0.3562289 0.3653528
vn -0.8600106 0.3562289 0.3653528
vn 0.860011 -0.356228 0.365353
vn 0.860011 -0.356228 0.365353
vn 0.860011 -0.356228 0.365353
vn -0.3562319 0.8600097 0.3653519
vn -0.3562319 0.8600097 0.3653519
vn -0.3562319 0.8600097 0.3653519
vn 0.8600106 -0.3562289 0.3653528
vn 0.8600106 -0.3562289 0.3653528
vn 0.8600106 -0.3562289 0.3653528
vn 0.3562259 0.8600118 0.3653529
vn 0.3562259 0.8600118 0.3653529
vn 0.3562259 0.8600118 0.3653529
vn -0.8600103 -0.3562291 0.3653531
vn -0.8600103 -0.3562291 0.3653531
vn -0.8600103 -0.3562291 0.3653531
vn -0.3562289 -0.8600106 0.3653528
vn -0.3562289 -0.8600106 0.3653528
vn -0.3562289 -0.8600106 0.3653528
vn 0.860011 0.356228 0.365353
vn 0.860011 0.356228 0.365353
vn 0.860011 0.356228 0.365353
vn 0.1950901 0.9807854 0
vn 0.1950901 0.9807854 0
vn 0.1950901 0.9807854 0
vn 0.1950901 0.9807854 0
vn 0.5555699 0.8314699 0
vn 0.5555699 0.8314699 0
vn 0.5555699 0.8314699 0
vn 0.5555699 0.8314699 0
vn 0.8314691 0.5555711 0
vn 0.8314691 0.5555711 0
vn 0.8314691 0.5555711 0
vn 0.8314691 0.5555711 0
vn 0.9807851 0.195091 0
vn 0.9807851 0.195091 0
vn 0.9807851 0.195091 0
vn 0.9807851 0.195091 0
vn 0.9807854 -0.1950901 0
vn 0.9807854 -0.1950901 0
vn 0.9807854 -0.1950901 0
vn 0.9807854 -0.1950901 0
vn 0.8314691 -0.5555711 0
vn 0.8314691 -0.5555711 0
vn 0.8314691 -0.5555711 0
vn 0.8314691 -0.5555711 0
vn 0.5555711 -0.8314691 0
vn 0.5555711 -0.8314691 0
vn 0.5555711 -0.8314691 0
vn 0.5555711 -0.8314691 0
vn 0.1950901 -0.9807854 0
vn 0.1950901 -0.9807854 0
vn 0.1950901 -0.9807854 0
vn 0.1950901 -0.9807854 0
vn -0.1950901 -0.9807854 0
vn -0.1950901 -0.9807854 0
vn -0.1950901 -0.9807854 0
vn -0.1950901 -0.9807854 0
vn -0.5555711 -0.8314691 0
vn -0.5555711 -0.8314691 0
vn -0.5555711 -0.8314691 0
vn -0.5555711 -0.8314691 0
vn -0.8314691 -0.5555711 0
vn -0.8314691 -0.5555711 0
vn -0.8314691 -0.5555711 0
vn -0.8314691 -0.5555711 0
vn -0.9807851 -0.195091 0
vn -0.9807851 -0.195091 0
vn -0.9807851 -0.195091 0
vn -0.9807851 -0.195091 0
vn -0.9807854 0.1950901 0
vn -0.9807854 0.1950901 0
vn -0.9807854 0.1950901 0
vn -0.9807854 0.1950901 0
vn -0.8314691 0.5555711 0
vn -0.8314691 0.5555711 0
vn -0.8314691 0.5555711 0
vn -0.8314691 0.5555711 0
vn -0.1950901 0.9807854 0
vn -0.1950901 0.9807854 0
vn -0.1950901 0.9807854 0
vn -0.1950901 0.9807854 0
vn -0.5555699 0.8314699 0
vn -0.5555699 0.8314699 0
vn -0.5555699 0.8314699 0
vn -0.5555699 0.8314699 0
vn -0.9503253 0.2938271 0.102701
vn -0.9503253 0.2938271 0.102701
vn -0.9503253 0.2938271 0.102701
vn -0.9503253 0.2938271 0.102701
vn 0.2938271 -0.9503253 0.102701
vn 0.2938271 -0.9503253 0.102701
vn 0.2938271 -0.9503253 0.102701
vn 0.2938271 -0.9503253 0.102701
vn -0.4642139 0.8797488 0.102701
vn -0.4642139 0.8797488 0.102701
vn -0.4642139 0.8797488 0.102701
vn -0.4642139 0.8797488 0.102701
vn 0.9503253 -0.2938271 0.102701
vn 0.9503253 -0.2938271 0.102701
vn 0.9503253 -0.2938271 0.102701
vn 0.9503253 -0.2938271 0.102701
vn -0.8797488 -0.4642139 0.102701
vn -0.8797488 -0.4642139 0.102701
vn -0.8797488 -0.4642139 0.102701
vn -0.8797488 -0.4642139 0.102701
vn 0.9503253 0.2938271 0.102701
vn 0.9503253 0.2938271 0.102701
vn 0.9503253 0.2938271 0.102701
vn 0.9503253 0.2938271 0.102701
vn 0.2938271 0.9503253 0.102701
vn 0.2938271 0.9503253 0.102701
vn 0.2938271 0.9503253 0.102701
vn 0.2938271 0.9503253 0.102701
vn -0.9503253 -0.2938271 0.102701
vn -0.9503253 -0.2938271 0.102701
vn -0.9503253 -0.2938271 0.102701
vn -0.9503253 -0.2938271 0.102701
vn 0.8797488 0.4642139 0.102701
vn 0.8797488 0.4642139 0.102701
vn 0.8797488 0.4642139 0.102701
vn 0.8797488 0.4642139 0.102701
vn -0.8797488 0.4642139 0.102701
vn -0.8797488 0.4642139 0.102701
vn -0.8797488 0.4642139 0.102701
vn -0.8797488 0.4642139 0.102701
vn -0.2938271 -0.9503253 0.102701
vn -0.2938271 -0.9503253 0.102701
vn -0.2938271 -0.9503253 0.102701
vn -0.2938271 -0.9503253 0.102701
vn -0.2938271 0.9503253 0.102701
vn -0.2938271 0.9503253 0.102701
vn -0.2938271 0.9503253 0.102701
vn -0.2938271 0.9503253 0.102701
vn -0.4642139 -0.8797488 0.102701
vn -0.4642139 -0.8797488 0.102701
vn -0.4642139 -0.8797488 0.102701
vn -0.4642139 -0.8797488 0.102701
vn 0.4642139 0.8797488 0.102701
vn 0.4642139 0.8797488 0.102701
vn 0.4642139 0.8797488 0.102701
vn 0.4642139 0.8797488 0.102701
vn 0.8797488 -0.4642139 0.102701
vn 0.8797488 -0.4642139 0.102701
vn 0.8797488 -0.4642139 0.102701
vn 0.8797488 -0.4642139 0.102701
vn 0.4642139 -0.8797488 0.102701
vn 0.4642139 -0.8797488 0.102701
vn 0.4642139 -0.8797488 0.102701
vn 0.4642139 -0.8797488 0.102701
vn 0 0 -1
vn 0 0 -1
vn 0 0 -1
vn 0 0 -1
vn 0 0 -1
vn 0 0 -1
vn 0 0 -1
vn 0 0 -1
vn 0 0 -1
vn 0 0 -1
vn 0 0 -1
vn 0 0 -1
vn 0 0 -1
vn 0 0 -1
vn 0 0 -1
vn 0 0 -1
vn 0 0 -1
vn 0 0 -1
vn 0 0 -1
vn 0 0 -1
vn 0 0 -1
vn 0 0 -1
vn 0 0 -1
vn 0 0 -1
vn 0 0 -1
vn 0 0 -1
vn 0 0 -1
vn 0 0 -1
vn 0 0 -1
vn 0 0 -1
vn 0 0 -1
vn 0 0 -1
g Crown_0
f 3/3/3 2/2/2 1/1/1
f 6/6/6 5/5/5 4/4/4
f 9/9/9 8/8/8 7/7/7
f 12/12/12 11/11/11 10/10/10
f 15/15/15 14/14/14 13/13/13
f 18/18/18 17/17/17 16/16/16
f 21/21/21 20/20/20 19/19/19
f 24/24/24 23/23/23 22/22/22
f 27/27/27 26/26/26 25/25/25
f 30/30/30 29/29/29 28/28/28
f 33/33/33 32/32/32 31/31/31
f 36/36/36 35/35/35 34/34/34
f 39/39/39 38/38/38 37/37/37
f 42/42/42 41/41/41 40/40/40
f 45/45/45 44/44/44 43/43/43
f 48/48/48 47/47/47 46/46/46
f 51/51/51 50/50/50 49/49/49
f 52/52/52 51/51/51 49/49/49
f 55/55/55 54/54/54 53/53/53
f 56/56/56 55/55/55 53/53/53
f 59/59/59 58/58/58 57/57/57
f 60/60/60 59/59/59 57/57/57
f 63/63/63 62/62/62 61/61/61
f 64/64/64 63/63/63 61/61/61
f 67/67/67 66/66/66 65/65/65
f 68/68/68 67/67/67 65/65/65
f 71/71/71 70/70/70 69/69/69
f 72/72/72 71/71/71 69/69/69
f 75/75/75 74/74/74 73/73/73
f 76/76/76 75/75/75 73/73/73
f 79/79/79 78/78/78 77/77/77
f 80/80/80 79/79/79 77/77/77
f 83/83/83 82/82/82 81/81/81
f 84/84/84 83/83/83 81/81/81
f 87/87/87 86/86/86 85/85/85
f 88/88/88 87/87/87 85/85/85
f 91/91/91 90/90/90 89/89/89
f 92/92/92 91/91/91 89/89/89
f 95/95/95 94/94/94 93/93/93
f 96/96/96 95/95/95 93/93/93
f 99/99/99 98/98/98 97/97/97
f 100/100/100 99/99/99 97/97/97
f 103/103/103 102/102/102 101/101/101
f 104/104/104 103/103/103 101/101/101
f 107/107/107 106/106/106 105/105/105
f 108/108/108 107/107/107 105/105/105
f 111/111/111 110/110/110 109/109/109
f 112/112/112 111/111/111 109/109/109
f 115/115/115 114/114/114 113/113/113
f 116/116/116 115/115/115 113/113/113
f 119/119/119 118/118/118 117/117/117
f 120/120/120 119/119/119 117/117/117
f 123/123/123 122/122/122 121/121/121
f 124/124/124 123/123/123 121/121/121
f 127/127/127 126/126/126 125/125/125
f 128/128/128 127/127/127 125/125/125
f 131/131/131 130/130/130 129/129/129
f 132/132/132 131/131/131 129/129/129
f 135/135/135 134/134/134 133/133/133
f 136/136/136 135/135/135 133/133/133
f 139/139/139 138/138/138 137/137/137
f 140/140/140 139/139/139 137/137/137
f 143/143/143 142/142/142 141/141/141
f 144/144/144 143/143/143 141/141/141
f 147/147/147 146/146/146 145/145/145
f 148/148/148 147/147/147 145/145/145
f 151/151/151 150/150/150 149/149/149
f 152/152/152 151/151/151 149/149/149
f 155/155/155 154/154/154 153/153/153
f 156/156/156 155/155/155 153/153/153
f 159/159/159 158/158/158 157/157/157
f 160/160/160 159/159/159 157/157/157
f 163/163/163 162/162/162 161/161/161
f 164/164/164 163/163/163 161/161/161
f 167/167/167 166/166/166 165/165/165
f 168/168/168 167/167/167 165/165/165
f 171/171/171 170/170/170 169/169/169
f 172/172/172 171/171/171 169/169/169
f 175/175/175 174/174/174 173/173/173
f 176/176/176 175/175/175 173/173/173
f 179/179/179 178/178/178 177/177/177
f 178/178/178 180/180/180 177/177/177
f 179/179/179 177/177/177 181/181/181
f 178/178/178 182/182/182 180/180/180
f 183/183/183 179/179/179 181/181/181
f 182/182/182 184/184/184 180/180/180
f 183/183/183 181/181/181 185/185/185
f 182/182/182 186/186/186 184/184/184
f 187/187/187 183/183/183 185/185/185
f 186/186/186 188/188/188 184/184/184
f 187/187/187 185/185/185 189/189/189
f 186/186/186 190/190/190 188/188/188
f 191/191/191 187/187/187 189/189/189
f 190/190/190 192/192/192 188/188/188
f 191/191/191 189/189/189 193/193/193
f 190/190/190 194/194/194 192/192/192
f 195/195/195 191/191/191 193/193/193
f 194/194/194 196/196/196 192/192/192
f 195/195/195 193/193/193 197/197/197
f 194/194/194 198/198/198 196/196/196
f 199/199/199 195/195/195 197/197/197
f 198/198/198 200/200/200 196/196/196
f 199/199/199 197/197/197 201/201/201
f 198/198/198 202/202/202 200/200/200
f 203/203/203 199/199/199 201/201/201
f 202/202/202 204/204/204 200/200/200
f 203/203/203 201/201/201 205/205/205
f 202/202/202 206/206/206 204/204/204
f 207/207/207 203/203/203 205/205/205
f 206/206/206 208/208/208 204/204/204
f 207/207/207 205/205/205 208/208/208
f 206/206/206 207/207/207 208/208/208
