g Crush_EightQuad_TopDetail
v 0.5 0 0
v -0.5 0 0
v -0.5 1 0
v 0.5 1 0
v -0.5 2 0
v 0.5 2 0
v -0.5 3 0
v 0.5 3 0
v -0.5 4 0
v 0.5 4 0
v -0.5 5 0
v 0.5 5 0
v -0.5 6 0
v 0.5 6 0
v -0.5 7 0
v 0.5 7 0
v -0.5 8 0
v 0.5 8 0
vt 0.953125 0.4921875
vt 0.828125 0.4921875
vt 0.828125 0.5546875
vt 0.953125 0.5546875
vt 0.828125 0.6171875
vt 0.953125 0.6171875
vt 0.828125 0.6796875
vt 0.953125 0.6796875
vt 0.828125 0.7421875
vt 0.953125 0.7421875
vt 0.828125 0.8046875
vt 0.953125 0.8046875
vt 0.828125 0.8671875
vt 0.953125 0.8671875
vt 0.828125 0.9296875
vt 0.953125 0.9296875
vt 0.828125 0.9921875
vt 0.953125 0.9921875
vn 0 0 1
vn 0 0 1
vn 0 0 1
vn 0 0 1
vn 0 0 1
vn 0 0 1
vn 0 0 1
vn 0 0 1
vn 0 0 1
vn 0 0 1
vn 0 0 1
vn 0 0 1
vn 0 0 1
vn 0 0 1
vn 0 0 1
vn 0 0 1
vn 0 0 1
vn 0 0 1
g Crush_EightQuad_TopDetail_0
f 3/3/3 2/2/2 1/1/1
f 4/4/4 3/3/3 1/1/1
f 5/5/5 3/3/3 4/4/4
f 6/6/6 5/5/5 4/4/4
f 7/7/7 5/5/5 6/6/6
f 8/8/8 7/7/7 6/6/6
f 9/9/9 7/7/7 8/8/8
f 10/10/10 9/9/9 8/8/8
f 11/11/11 9/9/9 10/10/10
f 12/12/12 11/11/11 10/10/10
f 13/13/13 11/11/11 12/12/12
f 14/14/14 13/13/13 12/12/12
f 15/15/15 13/13/13 14/14/14
f 16/16/16 15/15/15 14/14/14
f 17/17/17 15/15/15 16/16/16
f 18/18/18 17/17/17 16/16/16
