g Cube
v 0 -2.028204 0.074172
v -0.09789 -1.530395 -0.098281
v -0.09789 -1.530395 0.099729
v 0 1.402284 -0.427731
v -0.90212 0.073427 -0.40078
v -0.597348 0.379911 -1.346962
v 0 -2.028204 0.074172
v 0.09789 -1.530395 0.099729
v 0.09789 -1.530395 -0.098281
v 0 1.402284 -0.427731
v 0.597348 0.379911 -1.346962
v 0.90212 0.073427 -0.40078
v 0 1.78805 -0.812104
v -0.304762 1.497177 -0.487208
v -0.419833 0.650499 -0.547497
v 0 0.650498 -0.935847
v 0 1.788049 0.460542
v 0 0.650498 0.660052
v -0.419833 0.650499 0.229274
v -0.304762 1.497176 0.093218
v 0 0.650498 0.660052
v 0 -0.870588 0.566616
v -0.28534 -0.870587 0.199292
v -0.419833 0.650499 0.229274
v -0.419833 0.650499 -0.547497
v -0.304762 1.497177 -0.487208
v -0.304762 1.497176 0.093218
v -0.419833 0.650499 0.229274
v -0.304762 1.497177 -0.487208
v 0 2.642183 -0.34118
v 0 2.491857 -0.05281
v -0.304762 1.497176 0.093218
v 0 2.491856 -0.05281
v 0 2.491857 -0.05281
v 0 2.642183 -0.34118
v 0 2.642182 -0.34118
v 0 1.78805 -0.812104
v 0 2.642182 -0.34118
v 0 2.642183 -0.34118
v -0.304762 1.497177 -0.487208
v -0.304762 1.497176 0.093218
v 0 2.491857 -0.05281
v 0 2.491856 -0.05281
v 0 1.788049 0.460542
v -0.419833 0.650499 -0.547497
v -0.285339 -0.870587 -0.426592
v 0 -0.870588 -0.686035
v 0 0.650498 -0.935847
v -0.419833 0.650499 0.229274
v -0.28534 -0.870587 0.199292
v -0.285339 -0.870587 -0.426592
v -0.419833 0.650499 -0.547497
v 0 -3.004586 0.623037
v 0 -2.995961 0.036222
v 0 -2.028204 0.348628
v 0 -2.028204 0.074172
v 0 -2.028203 -0.409646
v 0 -3.034891 -0.664156
v 0 -0.870588 0.566616
v 0 -1.530395 0.430005
v -0.09789 -1.530395 0.099729
v -0.28534 -0.870587 0.199292
v 0 -1.530395 0.430005
v 0 -2.028204 0.348628
v 0 -2.028204 0.074172
v -0.09789 -1.530395 0.099729
v -0.285339 -0.870587 -0.426592
v -0.09789 -1.530395 -0.098281
v 0 -1.530395 -0.450424
v 0 -0.870588 -0.686035
v 0 -2.028203 -0.409646
v 0 -1.530395 -0.450424
v -0.09789 -1.530395 -0.098281
v 0 -2.028204 0.074172
v -0.28534 -0.870587 0.199292
v -0.09789 -1.530395 0.099729
v -0.09789 -1.530395 -0.098281
v -0.285339 -0.870587 -0.426592
v 0 -0.870588 0.566616
v 0 -0.989306 1.059162
v 0 0.037229 0.980064
v 0 0.650498 0.660052
v 0 1.78805 -0.812104
v 0 0.650498 -0.935847
v 0.419833 0.650499 -0.547497
v 0.304762 1.497177 -0.487208
v 0 1.788049 0.460542
v 0.304762 1.497176 0.093218
v 0.419833 0.650499 0.229274
v 0 0.650498 0.660052
v 0 0.650498 0.660052
v 0.419833 0.650499 0.229274
v 0.28534 -0.870587 0.199292
v 0 -0.870588 0.566616
v 0.419833 0.650499 -0.547497
v 0.419833 0.650499 0.229274
v 0.304762 1.497176 0.093218
v 0.304762 1.497177 -0.487208
v 0.304762 1.497177 -0.487208
v 0.304762 1.497176 0.093218
v 0 2.491857 -0.05281
v 0 2.642183 -0.34118
v 0 2.491856 -0.05281
v 0 2.642182 -0.34118
v 0 2.642183 -0.34118
v 0 2.491857 -0.05281
v 0 1.78805 -0.812104
v 0.304762 1.497177 -0.487208
v 0 2.642183 -0.34118
v 0 2.642182 -0.34118
v 0.304762 1.497176 0.093218
v 0 1.788049 0.460542
v 0 2.491856 -0.05281
v 0 2.491857 -0.05281
v 0.419833 0.650499 -0.547497
v 0 0.650498 -0.935847
v 0 -0.870588 -0.686035
v 0.285339 -0.870587 -0.426592
v 0.419833 0.650499 0.229274
v 0.419833 0.650499 -0.547497
v 0.285339 -0.870587 -0.426592
v 0.28534 -0.870587 0.199292
v 0 -3.004586 0.623037
v 0 -2.028204 0.348628
v 0 -2.995961 0.036222
v 0 -2.028204 0.074172
v 0 -2.028203 -0.409646
v 0 -3.034891 -0.664156
v 0 -0.870588 0.566616
v 0.28534 -0.870587 0.199292
v 0.09789 -1.530395 0.099729
v 0 -1.530395 0.430005
v 0 -1.530395 0.430005
v 0.09789 -1.530395 0.099729
v 0 -2.028204 0.074172
v 0 -2.028204 0.348628
v 0.285339 -0.870587 -0.426592
v 0 -0.870588 -0.686035
v 0 -1.530395 -0.450424
v 0.09789 -1.530395 -0.098281
v 0 -2.028203 -0.409646
v 0 -2.028204 0.074172
v 0.09789 -1.530395 -0.098281
v 0 -1.530395 -0.450424
v 0.28534 -0.870587 0.199292
v 0.285339 -0.870587 -0.426592
v 0.09789 -1.530395 -0.098281
v 0.09789 -1.530395 0.099729
v 0 -0.870588 0.566616
v 0 0.650498 0.660052
v 0 0.037229 0.980064
v 0 -0.989306 1.059162
vt 0 0
vt 0 0
vt 0 0
vt 0 0
vt 0 0
vt 0 0
vt 0 0
vt 0 0
vt 0 0
vt 0 0
vt 0 0
vt 0 0
vt 0 0
vt 0 0
vt 0 0
vt 0 0
vt 0 0
vt 0 0
vt 0 0
vt 0 0
vt 0 0
vt 0 0
vt 0 0
vt 0 0
vt 0 0
vt 0 0
vt 0 0
vt 0 0
vt 0 0
vt 0 0
vt 0 0
vt 0 0
vt 0 0
vt 0 0
vt 0 0
vt 0 0
vt 0 0
vt 0 0
vt 0 0
vt 0 0
vt 0 0
vt 0 0
vt 0 0
vt 0 0
vt 0 0
vt 0 0
vt 0 0
vt 0 0
vt 0 0
vt 0 0
vt 0 0
vt 0 0
vt 0 0
vt 0 0
vt 0 0
vt 0 0
vt 0 0
vt 0 0
vt 0 0
vt 0 0
vt 0 0
vt 0 0
vt 0 0
vt 0 0
vt 0 0
vt 0 0
vt 0 0
vt 0 0
vt 0 0
vt 0 0
vt 0 0
vt 0 0
vt 0 0
vt 0 0
vt 0 0
vt 0 0
vt 0 0
vt 0 0
vt 0 0
vt 0 0
vt 0 0
vt 0 0
vt 0 0
vt 0 0
vt 0 0
vt 0 0
vt 0 0
vt 0 0
vt 0 0
vt 0 0
vt 0 0
vt 0 0
vt 0 0
vt 0 0
vt 0 0
vt 0 0
vt 0 0
vt 0 0
vt 0 0
vt 0 0
vt 0 0
vt 0 0
vt 0 0
vt 0 0
vt 0 0
vt 0 0
vt 0 0
vt 0 0
vt 0 0
vt 0 0
vt 0 0
vt 0 0
vt 0 0
vt 0 0
vt 0 0
vt 0 0
vt 0 0
vt 0 0
vt 0 0
vt 0 0
vt 0 0
vt 0 0
vt 0 0
vt 0 0
vt 0 0
vt 0 0
vt 0 0
vt 0 0
vt 0 0
vt 0 0
vt 0 0
vt 0 0
vt 0 0
vt 0 0
vt 0 0
vt 0 0
vt 0 0
vt 0 0
vt 0 0
vt 0 0
vt 0 0
vt 0 0
vt 0 0
vt 0 0
vt 0 0
vt 0 0
vt 0 0
vt 0 0
vt 0 0
vt 0 0
vt 0 0
vt 0 0
vn -0.9812093 -0.1929461 0
vn -0.9812093 -0.1929461 0
vn -0.9812093 -0.1929461 0
vn -0.8251733 0.5584632 -0.08489903
vn -0.8251733 0.5584632 -0.08489903
vn -0.8251733 0.5584632 -0.08489903
vn 0.9812093 -0.1929461 0
vn 0.9812093 -0.1929461 0
vn 0.9812093 -0.1929461 0
vn 0.8251733 0.5584632 -0.08489903
vn 0.8251733 0.5584632 -0.08489903
vn 0.8251733 0.5584632 -0.08489903
vn -0.7187671 0.10542 -0.6872121
vn -0.7187671 0.10542 -0.6872121
vn -0.7187671 0.10542 -0.6872121
vn -0.7187671 0.10542 -0.6872121
vn -0.7586671 0.151166 0.633698
vn -0.7586671 0.151166 0.633698
vn -0.7586671 0.151166 0.633698
vn -0.7586671 0.151166 0.633698
vn -0.7480434 -0.05988503 0.6609424
vn -0.7480434 -0.05988503 0.6609424
vn -0.7480434 -0.05988503 0.6609424
vn -0.7480434 -0.05988503 0.6609424
vn -0.9908903 0.134671 0
vn -0.9908903 0.134671 0
vn -0.9908903 0.134671 0
vn -0.9908903 0.134671 0
vn -0.9606602 0.2736601 0.04735101
vn -0.9606602 0.2736601 0.04735101
vn -0.9606602 0.2736601 0.04735101
vn -0.9606602 0.2736601 0.04735101
vn 1 0 0
vn 1 0 0
vn 1 0 0
vn 1 0 0
vn -0.8126279 0.281382 -0.510353
vn -0.8126279 0.281382 -0.510353
vn -0.8126279 0.281382 -0.510353
vn -0.8126279 0.281382 -0.510353
vn -0.8380778 0.3214879 0.4407619
vn -0.8380778 0.3214879 0.4407619
vn -0.8380778 0.3214879 0.4407619
vn -0.8380778 0.3214879 0.4407619
vn -0.671719 -0.118802 -0.731218
vn -0.671719 -0.118802 -0.731218
vn -0.671719 -0.118802 -0.731218
vn -0.671719 -0.118802 -0.731218
vn -0.9961138 -0.08807598 0
vn -0.9961138 -0.08807598 0
vn -0.9961138 -0.08807598 0
vn -0.9961138 -0.08807598 0
vn -1 0 0
vn -1 0 0
vn -1 0 0
vn -1 0 0
vn -1 0 0
vn -1 0 0
vn -0.85763 -0.206146 0.471142
vn -0.85763 -0.206146 0.471142
vn -0.85763 -0.206146 0.471142
vn -0.85763 -0.206146 0.471142
vn -0.9807735 -0.1134819 0.1587609
vn -0.9807735 -0.1134819 0.1587609
vn -0.9807735 -0.1134819 0.1587609
vn -0.9807735 -0.1134819 0.1587609
vn -0.8004864 -0.3280592 -0.5015962
vn -0.8004864 -0.3280592 -0.5015962
vn -0.8004864 -0.3280592 -0.5015962
vn -0.8004864 -0.3280592 -0.5015962
vn -0.985837 -0.121652 -0.11544
vn -0.985837 -0.121652 -0.11544
vn -0.985837 -0.121652 -0.11544
vn -0.985837 -0.121652 -0.11544
vn -0.9619337 -0.2732829 0
vn -0.9619337 -0.2732829 0
vn -0.9619337 -0.2732829 0
vn -0.9619337 -0.2732829 0
vn 1 0 0
vn 1 0 0
vn 1 0 0
vn 1 0 0
vn 0.7187671 0.10542 -0.6872121
vn 0.7187671 0.10542 -0.6872121
vn 0.7187671 0.10542 -0.6872121
vn 0.7187671 0.10542 -0.6872121
vn 0.7586666 0.1511659 0.6336986
vn 0.7586666 0.1511659 0.6336986
vn 0.7586666 0.1511659 0.6336986
vn 0.7586666 0.1511659 0.6336986
vn 0.7480434 -0.05988503 0.6609424
vn 0.7480434 -0.05988503 0.6609424
vn 0.7480434 -0.05988503 0.6609424
vn 0.7480434 -0.05988503 0.6609424
vn 0.9908903 0.134671 0
vn 0.9908903 0.134671 0
vn 0.9908903 0.134671 0
vn 0.9908903 0.134671 0
vn 0.9606602 0.2736601 0.04735101
vn 0.9606602 0.2736601 0.04735101
vn 0.9606602 0.2736601 0.04735101
vn 0.9606602 0.2736601 0.04735101
vn -1 0 0
vn -1 0 0
vn -1 0 0
vn -1 0 0
vn 0.8126279 0.281382 -0.510353
vn 0.8126279 0.281382 -0.510353
vn 0.8126279 0.281382 -0.510353
vn 0.8126279 0.281382 -0.510353
vn 0.8380778 0.3214879 0.4407619
vn 0.8380778 0.3214879 0.4407619
vn 0.8380778 0.3214879 0.4407619
vn 0.8380778 0.3214879 0.4407619
vn 0.671719 -0.118802 -0.731218
vn 0.671719 -0.118802 -0.731218
vn 0.671719 -0.118802 -0.731218
vn 0.671719 -0.118802 -0.731218
vn 0.9961138 -0.08807598 0
vn 0.9961138 -0.08807598 0
vn 0.9961138 -0.08807598 0
vn 0.9961138 -0.08807598 0
vn 1 0 0
vn 1 0 0
vn 1 0 0
vn 1 0 0
vn 1 0 0
vn 1 0 0
vn 0.85763 -0.206146 0.471142
vn 0.85763 -0.206146 0.471142
vn 0.85763 -0.206146 0.471142
vn 0.85763 -0.206146 0.471142
vn 0.9807735 -0.1134819 0.1587609
vn 0.9807735 -0.1134819 0.1587609
vn 0.9807735 -0.1134819 0.1587609
vn 0.9807735 -0.1134819 0.1587609
vn 0.8004864 -0.3280592 -0.5015962
vn 0.8004864 -0.3280592 -0.5015962
vn 0.8004864 -0.3280592 -0.5015962
vn 0.8004864 -0.3280592 -0.5015962
vn 0.985837 -0.121652 -0.11544
vn 0.985837 -0.121652 -0.11544
vn 0.985837 -0.121652 -0.11544
vn 0.985837 -0.121652 -0.11544
vn 0.9619337 -0.2732829 0
vn 0.9619337 -0.2732829 0
vn 0.9619337 -0.2732829 0
vn 0.9619337 -0.2732829 0
vn -1 0 0
vn -1 0 0
vn -1 0 0
vn -1 0 0
g Cube_0
f 3/3/3 2/2/2 1/1/1
f 6/6/6 5/5/5 4/4/4
f 9/9/9 8/8/8 7/7/7
f 12/12/12 11/11/11 10/10/10
f 15/15/15 14/14/14 13/13/13
f 16/16/16 15/15/15 13/13/13
f 19/19/19 18/18/18 17/17/17
f 20/20/20 19/19/19 17/17/17
f 23/23/23 22/22/22 21/21/21
f 24/24/24 23/23/23 21/21/21
f 27/27/27 26/26/26 25/25/25
f 28/28/28 27/27/27 25/25/25
f 31/31/31 30/30/30 29/29/29
f 32/32/32 31/31/31 29/29/29
f 35/35/35 34/34/34 33/33/33
f 36/36/36 35/35/35 33/33/33
f 39/39/39 38/38/38 37/37/37
f 40/40/40 39/39/39 37/37/37
f 43/43/43 42/42/42 41/41/41
f 44/44/44 43/43/43 41/41/41
f 47/47/47 46/46/46 45/45/45
f 48/48/48 47/47/47 45/45/45
f 51/51/51 50/50/50 49/49/49
f 52/52/52 51/51/51 49/49/49
f 55/55/55 54/54/54 53/53/53
f 56/56/56 54/54/54 55/55/55
f 57/57/57 54/54/54 56/56/56
f 58/58/58 54/54/54 57/57/57
f 61/61/61 60/60/60 59/59/59
f 62/62/62 61/61/61 59/59/59
f 65/65/65 64/64/64 63/63/63
f 66/66/66 65/65/65 63/63/63
f 69/69/69 68/68/68 67/67/67
f 70/70/70 69/69/69 67/67/67
f 73/73/73 72/72/72 71/71/71
f 74/74/74 73/73/73 71/71/71
f 77/77/77 76/76/76 75/75/75
f 78/78/78 77/77/77 75/75/75
f 81/81/81 80/80/80 79/79/79
f 82/82/82 81/81/81 79/79/79
f 85/85/85 84/84/84 83/83/83
f 86/86/86 85/85/85 83/83/83
f 89/89/89 88/88/88 87/87/87
f 90/90/90 89/89/89 87/87/87
f 93/93/93 92/92/92 91/91/91
f 94/94/94 93/93/93 91/91/91
f 97/97/97 96/96/96 95/95/95
f 98/98/98 97/97/97 95/95/95
f 101/101/101 100/100/100 99/99/99
f 102/102/102 101/101/101 99/99/99
f 105/105/105 104/104/104 103/103/103
f 106/106/106 105/105/105 103/103/103
f 109/109/109 108/108/108 107/107/107
f 110/110/110 109/109/109 107/107/107
f 113/113/113 112/112/112 111/111/111
f 114/114/114 113/113/113 111/111/111
f 117/117/117 116/116/116 115/115/115
f 118/118/118 117/117/117 115/115/115
f 121/121/121 120/120/120 119/119/119
f 122/122/122 121/121/121 119/119/119
f 125/125/125 124/124/124 123/123/123
f 125/125/125 126/126/126 124/124/124
f 125/125/125 127/127/127 126/126/126
f 125/125/125 128/128/128 127/127/127
f 131/131/131 130/130/130 129/129/129
f 132/132/132 131/131/131 129/129/129
f 135/135/135 134/134/134 133/133/133
f 136/136/136 135/135/135 133/133/133
f 139/139/139 138/138/138 137/137/137
f 140/140/140 139/139/139 137/137/137
f 143/143/143 142/142/142 141/141/141
f 144/144/144 143/143/143 141/141/141
f 147/147/147 146/146/146 145/145/145
f 148/148/148 147/147/147 145/145/145
f 151/151/151 150/150/150 149/149/149
f 152/152/152 151/151/151 149/149/149
