g default
v 0.5 0.5 0.5
v -0.363741 0.5 0.5
v -0.5 0.5 0.5
v 0.5 0.5 0.5
v -0.184044 0.5 0.5
v 0.5 0.5 0.5
v -0.004348 0.5 0.5
v 0.5 0.5 0.5
v 0.175349 0.5 0.5
v 0.5 0.5 0.5
v 0.355046 0.5 0.5
v 0.175349 0.5 0.5
v -0.363741 0.405161 0.363674
v 0.175349 0.405226 0.363674
v 0.355046 0.405161 0.363674
v -0.363741 0.405161 0.363674
v -0.004348 0.405226 0.363674
v -0.363741 0.405161 0.363674
v -0.184044 0.405226 0.363674
v -0.004348 0.405226 0.363674
v -0.5 0.2 -0.35
v -0.5 -0.5 -0.35
v -0.5 -0.5 -0.5
v -0.5 0.2 -0.5
v -0.5 0.5 -0.35
v -0.5 0.5 -0.5
v -0.5 0.5 -0.171581
v -0.5 0.4 -0.171581
v -0.5 0.5 0.006837
v -0.5 0.4 0.006837
v -0.5 0.5 0.185256
v -0.5 0.4 0.185256
v -0.5 0.5 0.363674
v -0.5 0.2 0.363674
v -0.5 0.5 0.5
v -0.5 0.2 0.5
v -0.5 -0.5 0.363674
v -0.5 -0.5 0.5
v 0.355046 0.2 -0.5
v 0.355046 -0.5 -0.5
v 0.5 -0.5 -0.5
v 0.5 0.2 -0.5
v 0.355046 0.5 -0.5
v 0.5 0.5 -0.5
v 0.175349 0.5 -0.5
v 0.175349 0.4 -0.5
v -0.004348 0.5 -0.5
v -0.004348 0.4 -0.5
v -0.184044 0.5 -0.5
v -0.184044 0.4 -0.5
v -0.363741 0.5 -0.5
v -0.363741 0.2 -0.5
v -0.5 0.5 -0.5
v -0.5 0.2 -0.5
v -0.363741 -0.5 -0.5
v -0.5 -0.5 -0.5
v 0.5 0.2 0.363674
v 0.5 -0.5 0.363674
v 0.5 -0.5 0.5
v 0.5 0.2 0.5
v 0.5 0.5 0.363674
v 0.5 0.5 0.5
v 0.5 0.5 0.185256
v 0.5 0.4 0.185256
v 0.5 0.5 0.006837
v 0.5 0.4 0.006837
v 0.5 0.5 -0.171581
v 0.5 0.4 -0.171581
v 0.5 0.5 -0.35
v 0.5 0.2 -0.35
v 0.5 0.5 -0.5
v 0.5 0.2 -0.5
v 0.5 -0.5 -0.35
v 0.5 -0.5 -0.5
v -0.363741 0.2 0.5
v -0.363741 -0.5 0.5
v -0.5 -0.5 0.5
v -0.5 0.2 0.5
v -0.363741 0.5 0.5
v -0.5 0.5 0.5
v -0.184044 0.5 0.5
v -0.184044 0.4 0.5
v -0.004348 0.5 0.5
v -0.004348 0.4 0.5
v 0.175349 0.5 0.5
v 0.175349 0.4 0.5
v 0.355046 0.5 0.5
v 0.355046 0.2 0.5
v 0.5 0.5 0.5
v 0.5 0.2 0.5
v 0.355046 -0.5 0.5
v 0.5 -0.5 0.5
v 0.355046 -0.5 -0.35
v 0.5 -0.5 -0.35
v 0.5 -0.5 -0.5
v 0.355046 -0.5 -0.5
v 0.5 0.2 -0.35
v 0.5 -0.5 -0.35
v 0.355046 -0.5 -0.35
v 0.355046 0.2 -0.35
v -0.5 -0.5 -0.35
v -0.363741 -0.5 -0.35
v -0.363741 -0.5 -0.5
v -0.5 -0.5 -0.5
v 0.355046 -0.5 0.5
v 0.5 -0.5 0.5
v 0.5 -0.5 0.363674
v 0.355046 -0.5 0.363674
v -0.5 -0.5 0.5
v -0.363741 -0.5 0.5
v -0.363741 -0.5 0.363674
v -0.5 -0.5 0.363674
v 0.175349 0.4 -0.5
v 0.175349 0.4 -0.35
v 0.355046 0.2 -0.35
v 0.355046 0.2 -0.5
v 0.355046 0.2 0.363674
v 0.355046 0.2 0.5
v 0.355046 -0.5 0.5
v 0.355046 -0.5 0.363674
v 0.355046 0.2 0.363674
v 0.355046 -0.5 0.363674
v 0.5 -0.5 0.363674
v 0.5 0.2 0.363674
v -0.363741 0.2 0.363674
v -0.363741 -0.5 0.363674
v -0.363741 -0.5 0.5
v -0.363741 0.2 0.5
v -0.363741 0.2 -0.35
v -0.363741 -0.5 -0.35
v -0.5 -0.5 -0.35
v -0.5 0.2 -0.35
v -0.363741 0.2 0.363674
v -0.5 0.2 0.363674
v -0.5 -0.5 0.363674
v -0.363741 -0.5 0.363674
v -0.363741 -0.5 -0.5
v -0.363741 -0.5 -0.35
v -0.363741 0.2 -0.35
v -0.363741 0.2 -0.5
v 0.355046 -0.5 -0.5
v 0.355046 0.2 -0.5
v 0.355046 0.2 -0.35
v 0.355046 -0.5 -0.35
v -0.5 0.4 -0.171581
v -0.363741 0.4 -0.171581
v -0.363741 0.2 -0.35
v -0.5 0.2 -0.35
v 0.355046 0.4 -0.171581
v 0.5 0.4 -0.171581
v 0.5 0.2 -0.35
v 0.355046 0.2 -0.35
v -0.184044 0.4 0.5
v -0.184044 0.4 0.363674
v -0.363741 0.2 0.363674
v -0.363741 0.2 0.5
v 0.175349 0.4 0.5
v 0.175349 0.4 0.363674
v -0.004348 0.4 0.363674
v -0.004348 0.4 0.5
v -0.184044 0.4 0.363674
v -0.184044 0.4 0.5
v -0.5 0.4 0.185256
v -0.363741 0.4 0.185256
v -0.363741 0.4 0.006837
v -0.5 0.4 0.006837
v -0.363741 0.4 -0.171581
v -0.5 0.4 -0.171581
v 0.355046 0.4 0.185256
v 0.5 0.4 0.185256
v 0.5 0.4 0.006837
v 0.355046 0.4 0.006837
v 0.5 0.4 -0.171581
v 0.355046 0.4 -0.171581
v -0.184044 0.4 -0.5
v -0.184044 0.4 -0.35
v -0.004348 0.4 -0.35
v -0.004348 0.4 -0.5
v 0.175349 0.4 -0.35
v 0.175349 0.4 -0.5
v -0.5 0.2 0.363674
v -0.363741 0.2 0.363674
v -0.363741 0.4 0.185256
v -0.5 0.4 0.185256
v 0.355046 0.2 0.363674
v 0.5 0.2 0.363674
v 0.5 0.4 0.185256
v 0.355046 0.4 0.185256
v 0.355046 0.2 0.5
v 0.355046 0.2 0.363674
v 0.175349 0.4 0.363674
v 0.175349 0.4 0.5
v -0.363741 0.2 -0.5
v -0.363741 0.2 -0.35
v -0.184044 0.4 -0.35
v -0.184044 0.4 -0.5
v -0.5 0.5 -0.35
v -0.5 0.5 -0.5
v -0.363741 0.5 -0.5
v -0.184044 0.5 -0.5
v -0.004348 0.5 -0.5
v 0.175349 0.5 -0.5
v 0.355046 0.5 -0.5
v 0.5 0.5 -0.5
v 0.5 0.5 -0.35
v -0.5 0.5 -0.171581
v 0.5 0.5 -0.171581
v -0.5 0.5 0.006837
v 0.5 0.5 0.006837
v -0.5 0.5 0.185256
v 0.5 0.5 0.185256
v -0.5 0.5 0.363674
v 0.5 0.5 0.363674
v -0.5 0.5 0.5
v 0.5 0.5 0.5
v 0.355046 0.405226 -0.171581
v 0.355046 0.405161 -0.35
v 0.175349 0.405226 -0.35
v -0.004348 0.405226 -0.35
v -0.184044 0.405226 -0.35
v -0.363741 0.405161 -0.35
v -0.363741 0.405226 -0.171581
v 0.355046 0.405226 0.006837
v -0.363741 0.405226 0.006837
v 0.355046 0.405226 0.185256
v -0.363741 0.405226 0.185256
v 0.355046 0.405161 0.363674
v -0.363741 0.405161 0.363674
v 0.175349 0.4 -0.35
v 0.175349 0.405226 -0.35
v 0.355046 0.405161 -0.35
v 0.355046 0.2 -0.35
v -0.363741 0.4 -0.171581
v -0.363741 0.405226 -0.171581
v -0.363741 0.405161 -0.35
v -0.363741 0.2 -0.35
v 0.355046 0.4 0.185256
v 0.355046 0.405226 0.185256
v 0.355046 0.405161 0.363674
v 0.355046 0.2 0.363674
v -0.184044 0.4 0.363674
v -0.184044 0.405226 0.363674
v -0.363741 0.405161 0.363674
v -0.363741 0.2 0.363674
v 0.175349 0.4 0.363674
v 0.175349 0.405226 0.363674
v -0.004348 0.405226 0.363674
v -0.004348 0.4 0.363674
v -0.184044 0.4 -0.35
v -0.184044 0.405226 -0.35
v -0.004348 0.405226 -0.35
v -0.004348 0.4 -0.35
v 0.355046 0.4 -0.171581
v 0.355046 0.405226 -0.171581
v 0.355046 0.405226 0.006837
v 0.355046 0.4 0.006837
v -0.363741 0.4 0.185256
v -0.363741 0.405226 0.185256
v -0.363741 0.405226 0.006837
v -0.363741 0.4 0.006837
v -0.363741 0.2 0.363674
v -0.363741 0.405161 0.363674
v -0.363741 0.405226 0.185256
v -0.363741 0.4 0.185256
v -0.363741 0.4 0.006837
v -0.363741 0.405226 0.006837
v -0.363741 0.405226 -0.171581
v -0.363741 0.4 -0.171581
v -0.004348 0.4 0.363674
v -0.004348 0.405226 0.363674
v -0.184044 0.405226 0.363674
v -0.184044 0.4 0.363674
v 0.355046 0.4 0.006837
v 0.355046 0.405226 0.006837
v 0.355046 0.405226 0.185256
v 0.355046 0.4 0.185256
v 0.355046 0.2 -0.35
v 0.355046 0.405161 -0.35
v 0.355046 0.405226 -0.171581
v 0.355046 0.4 -0.171581
v -0.004348 0.4 -0.35
v -0.004348 0.405226 -0.35
v 0.175349 0.405226 -0.35
v 0.175349 0.4 -0.35
v 0.355046 0.2 0.363674
v 0.355046 0.405161 0.363674
v 0.175349 0.405226 0.363674
v 0.175349 0.4 0.363674
v -0.363741 0.2 -0.35
v -0.363741 0.405161 -0.35
v -0.184044 0.405226 -0.35
v -0.184044 0.4 -0.35
vt 0.24975 0.750265
vt 0.03404 0.750265
vt 1.1E-05 0.750265
vt 0.24975 0.750265
vt 0.078917 0.750265
vt 0.24975 0.750265
vt 0.123795 0.750265
vt 0.24975 0.750265
vt 0.168672 0.750265
vt 0.24975 0.750265
vt 0.213549 0.750265
vt 0.168672 0.750265
vt 0.340348 0.497289
vt 0.515772 0.497289
vt 0.574247 0.497289
vt 0.340348 0.497289
vt 0.457298 0.497289
vt 0.340348 0.497289
vt 0.398823 0.497289
vt 0.457298 0.497289
vt 0.537504 0.925104
vt 0.537504 0.750312
vt 0.500048 0.750312
vt 0.500048 0.925104
vt 0.537504 1.000015
vt 0.500048 1.000015
vt 0.582055 1.000015
vt 0.582055 0.975044
vt 0.626607 1.000015
vt 0.626607 0.975044
vt 0.671158 1.000015
vt 0.671158 0.975044
vt 0.71571 1.000015
vt 0.71571 0.925104
vt 0.749751 1.000015
vt 0.749751 0.925104
vt 0.71571 0.750312
vt 0.749751 0.750312
vt 0.286241 0.925009
vt 0.286241 0.750044
vt 0.25001 0.750044
vt 0.25001 0.925009
vt 0.286241 0.999995
vt 0.25001 0.999995
vt 0.331156 0.999995
vt 0.331156 0.975
vt 0.376072 0.999995
vt 0.376072 0.975
vt 0.420987 0.999995
vt 0.420987 0.975
vt 0.465903 0.999995
vt 0.465903 0.925009
vt 0.499961 0.999995
vt 0.499961 0.925009
vt 0.465903 0.750044
vt 0.499961 0.750044
vt 0.534076 0.925047
vt 0.534076 0.750362
vt 0.500056 0.750362
vt 0.500056 0.925047
vt 0.534076 0.999912
vt 0.500056 0.999912
vt 0.578601 0.999912
vt 0.578601 0.974957
vt 0.623125 0.999912
vt 0.623125 0.974957
vt 0.667649 0.999912
vt 0.667649 0.974957
vt 0.712174 0.999912
vt 0.712174 0.925047
vt 0.749606 0.999912
vt 0.749606 0.925047
vt 0.712174 0.750362
vt 0.749606 0.750362
vt 0.285251 0.925489
vt 0.285251 0.751523
vt 0.251387 0.751523
vt 0.251387 0.925489
vt 0.285251 1.000045
vt 0.251387 1.000045
vt 0.329909 1.000045
vt 0.329909 0.975193
vt 0.374568 1.000045
vt 0.374568 0.975193
vt 0.419227 1.000045
vt 0.419227 0.975193
vt 0.463885 1.000045
vt 0.463885 0.925489
vt 0.49991 1.000045
vt 0.49991 0.925489
vt 0.463885 0.751523
vt 0.49991 0.751523
vt 0.55156 0.336845
vt 0.584316 0.336845
vt 0.584316 0.302949
vt 0.55156 0.302949
vt 0.461543 0.924872
vt 0.461543 0.750036
vt 0.425338 0.750036
vt 0.425338 0.924872
vt 0.358341 0.336845
vt 0.389132 0.336845
vt 0.389132 0.302949
vt 0.358341 0.302949
vt 0.55156 0.528924
vt 0.584316 0.528924
vt 0.584316 0.498118
vt 0.55156 0.498118
vt 0.358341 0.528924
vt 0.389132 0.528924
vt 0.389132 0.498118
vt 0.358341 0.498118
vt 0.515772 0.216243
vt 0.515772 0.265055
vt 0.574247 0.265055
vt 0.574247 0.216243
vt 0.380222 0.923587
vt 0.413758 0.923587
vt 0.413758 0.751389
vt 0.380222 0.751389
vt 0.28632 0.922793
vt 0.28632 0.750552
vt 0.250116 0.750552
vt 0.250116 0.922793
vt 0.286425 0.926385
vt 0.286425 0.750813
vt 0.252232 0.750813
vt 0.252232 0.926385
vt 0.284091 0.924872
vt 0.284091 0.750036
vt 0.250058 0.750036
vt 0.250058 0.924872
vt 0.465849 0.924872
vt 0.499882 0.924872
vt 0.499882 0.750036
vt 0.465849 0.750036
vt 0.287636 0.751378
vt 0.251028 0.751378
vt 0.251028 0.922216
vt 0.287636 0.922216
vt 0.313763 0.751396
vt 0.313763 0.924566
vt 0.350871 0.924566
vt 0.350871 0.751396
vt 0.296009 0.323113
vt 0.340348 0.323113
vt 0.340348 0.265055
vt 0.296009 0.265055
vt 0.574247 0.323113
vt 0.621416 0.323113
vt 0.621416 0.265055
vt 0.574247 0.265055
vt 0.398823 0.541651
vt 0.398823 0.497289
vt 0.340348 0.497289
vt 0.340348 0.541651
vt 0.515772 0.541651
vt 0.515772 0.497289
vt 0.457298 0.497289
vt 0.457298 0.541651
vt 0.398823 0.497289
vt 0.398823 0.541651
vt 0.296009 0.439231
vt 0.340348 0.439231
vt 0.340348 0.381172
vt 0.296009 0.381172
vt 0.340348 0.323113
vt 0.296009 0.323113
vt 0.574247 0.439231
vt 0.621416 0.439231
vt 0.621416 0.381172
vt 0.574247 0.381172
vt 0.621416 0.323113
vt 0.574247 0.323113
vt 0.398823 0.216243
vt 0.398823 0.265055
vt 0.457298 0.265055
vt 0.457298 0.216243
vt 0.515772 0.265055
vt 0.515772 0.216243
vt 0.296009 0.497289
vt 0.340348 0.497289
vt 0.340348 0.439231
vt 0.296009 0.439231
vt 0.574247 0.497289
vt 0.621416 0.497289
vt 0.621416 0.439231
vt 0.574247 0.439231
vt 0.574247 0.541651
vt 0.574247 0.497289
vt 0.515772 0.497289
vt 0.515772 0.541651
vt 0.340348 0.216243
vt 0.340348 0.265055
vt 0.398823 0.265055
vt 0.398823 0.216243
vt 1.1E-05 0.962543
vt 1.1E-05 1.000003
vt 0.03404 1.000003
vt 0.078917 1.000003
vt 0.123795 1.000003
vt 0.168672 1.000003
vt 0.213549 1.000003
vt 0.24975 1.000003
vt 0.24975 0.962543
vt 1.1E-05 0.917985
vt 0.24975 0.917985
vt 1.1E-05 0.873427
vt 0.24975 0.873427
vt 1.1E-05 0.828869
vt 0.24975 0.828869
vt 1.1E-05 0.784311
vt 0.24975 0.784311
vt 1.1E-05 0.750265
vt 0.24975 0.750265
vt 0.574247 0.323113
vt 0.574247 0.265055
vt 0.515772 0.265055
vt 0.457298 0.265055
vt 0.398823 0.265055
vt 0.340348 0.265055
vt 0.340348 0.323113
vt 0.574247 0.381172
vt 0.340348 0.381172
vt 0.574247 0.439231
vt 0.340348 0.439231
vt 0.574247 0.497289
vt 0.340348 0.497289
vt 0.515772 0.597828
vt 0.515772 0.599529
vt 0.574247 0.599508
vt 0.574247 0.532747
vt 0.676887 0.597828
vt 0.676887 0.599529
vt 0.734946 0.599508
vt 0.734946 0.532747
vt 0.560769 0.597828
vt 0.560769 0.599529
vt 0.502711 0.599508
vt 0.502711 0.532747
vt 0.398823 0.597828
vt 0.398823 0.599529
vt 0.340348 0.599508
vt 0.340348 0.532747
vt 0.343215 0.711439
vt 0.342925 0.706787
vt 0.307305 0.706787
vt 0.307595 0.711439
vt 0.489688 0.705486
vt 0.489978 0.710137
vt 0.525598 0.710137
vt 0.525308 0.705485
vt 0.343215 0.723494
vt 0.342927 0.718859
vt 0.307434 0.718859
vt 0.307722 0.723494
vt 0.307434 0.712831
vt 0.307722 0.717466
vt 0.343215 0.717466
vt 0.342927 0.712831
vt 0.502711 0.532747
vt 0.502711 0.599508
vt 0.560769 0.599529
vt 0.560769 0.597828
vt 0.489816 0.723601
vt 0.490105 0.728236
vt 0.525598 0.728236
vt 0.525309 0.723601
vt 0.525598 0.716181
vt 0.525308 0.71153
vt 0.489688 0.71153
vt 0.489978 0.716181
vt 0.525598 0.722208
vt 0.525309 0.717574
vt 0.489816 0.717574
vt 0.490105 0.722208
vt 0.734946 0.532747
vt 0.734946 0.599508
vt 0.676887 0.599529
vt 0.676887 0.597828
vt 0.307305 0.700743
vt 0.307595 0.705394
vt 0.343215 0.705394
vt 0.342925 0.700743
vt 0.574247 0.532747
vt 0.574247 0.599508
vt 0.515772 0.599529
vt 0.515772 0.597828
vt 0.340348 0.532747
vt 0.340348 0.599508
vt 0.398823 0.599529
vt 0.398823 0.597828
vn 0 1 0
vn 0 1 0
vn 0 1 0
vn 0 1 0
vn 0 1 0
vn 0 1 0
vn 0 1 0
vn 0 1 0
vn 0 1 0
vn 0 1 0
vn 0 1 0
vn 0 1 0
vn 0 0 1
vn 0 0 1
vn 0 0 1
vn 0 0 1
vn 0 0 1
vn 0 0 1
vn 0 0 1
vn 0 0 1
vn -1 0 0
vn -1 0 0
vn -1 0 0
vn -1 0 0
vn -1 0 0
vn -1 0 0
vn -1 0 0
vn -1 0 0
vn -1 0 0
vn -1 0 0
vn -1 0 0
vn -1 0 0
vn -1 0 0
vn -1 0 0
vn -1 0 0
vn -1 0 0
vn -1 0 0
vn -1 0 0
vn 0 0 -1
vn 0 0 -1
vn 0 0 -1
vn 0 0 -1
vn 0 0 -1
vn 0 0 -1
vn 0 0 -1
vn 0 0 -1
vn 0 0 -1
vn 0 0 -1
vn 0 0 -1
vn 0 0 -1
vn 0 0 -1
vn 0 0 -1
vn 0 0 -1
vn 0 0 -1
vn 0 0 -1
vn 0 0 -1
vn 1 0 0
vn 1 0 0
vn 1 0 0
vn 1 0 0
vn 1 0 0
vn 1 0 0
vn 1 0 0
vn 1 0 0
vn 1 0 0
vn 1 0 0
vn 1 0 0
vn 1 0 0
vn 1 0 0
vn 1 0 0
vn 1 0 0
vn 1 0 0
vn 1 0 0
vn 1 0 0
vn 0 0 1
vn 0 0 1
vn 0 0 1
vn 0 0 1
vn 0 0 1
vn 0 0 1
vn 0 0 1
vn 0 0 1
vn 0 0 1
vn 0 0 1
vn 0 0 1
vn 0 0 1
vn 0 0 1
vn 0 0 1
vn 0 0 1
vn 0 0 1
vn 0 0 1
vn 0 0 1
vn 0 -1 0
vn 0 -1 0
vn 0 -1 0
vn 0 -1 0
vn 0 -0.3562161 0.9344035
vn 0 0 1
vn 0 0 1
vn 0 -0.2355829 0.9718542
vn 0 -1 0
vn 0 -1 0
vn 0 -1 0
vn 0 -1 0
vn 0 -1 0
vn 0 -1 0
vn 0 -1 0
vn 0 -1 0
vn 0 -1 0
vn 0 -1 0
vn 0 -1 0
vn 0 -1 0
vn -0.4072211 -0.9133296 0
vn -0.4072211 -0.9133296 0
vn -0.9715929 -0.2366584 0
vn -0.9337704 -0.3578727 0
vn -0.9715929 -0.2366584 0
vn -0.9337704 -0.3578727 0
vn -1 0 0
vn -1 0 0
vn 0 -0.2355821 -0.9718544
vn 0 0 -1
vn 0 0 -1
vn 0 -0.3562149 -0.9344041
vn 0.9715929 -0.2366584 0
vn 1 0 0
vn 1 0 0
vn 0.9337704 -0.3578727 0
vn 0 -0.2355829 0.9718542
vn 0 0 1
vn 0 0 1
vn 0 -0.3562161 0.9344035
vn 0 -0.2355821 -0.9718544
vn 0 -0.3562149 -0.9344041
vn 0 0 -1
vn 0 0 -1
vn 1 0 0
vn 1 0 0
vn 0.9715929 -0.2366584 0
vn 0.9337704 -0.3578727 0
vn -1 0 0
vn -0.9337704 -0.3578727 0
vn -0.9715929 -0.2366584 0
vn -1 0 0
vn 0 -0.9126059 0.4088403
vn 0 -0.9126059 0.4088403
vn 0 -0.2355829 0.9718542
vn 0 -0.3562161 0.9344035
vn 0 -0.9126059 0.4088403
vn 0 -0.9126059 0.4088403
vn 0 -0.3562161 0.9344035
vn 0 -0.2355829 0.9718542
vn 0.4072211 -0.9133296 0
vn 0.4072211 -0.9133296 0
vn 0.9715929 -0.2366584 0
vn 0.9337704 -0.3578727 0
vn -0.4072211 -0.9133296 0
vn -0.4072211 -0.9133296 0
vn 0 -1 0
vn 0 -1 0
vn 0.4072211 -0.9133296 0
vn 0.4072211 -0.9133296 0
vn 0 -0.9126054 -0.4088416
vn 0 -0.9126054 -0.4088416
vn 0 -1 0
vn 0 -1 0
vn 0 -0.9126059 0.4088403
vn 0 -0.9126059 0.4088403
vn 0 -0.9126054 -0.4088416
vn 0 -0.9126054 -0.4088416
vn 0 -1 0
vn 0 -1 0
vn 0 -0.9126059 0.4088403
vn 0 -0.9126059 0.4088403
vn 0.4072211 -0.9133296 0
vn 0.4072211 -0.9133296 0
vn 0 -1 0
vn 0 -1 0
vn -0.4072211 -0.9133296 0
vn -0.4072211 -0.9133296 0
vn 0 -0.3562149 -0.9344041
vn 0 -0.2355821 -0.9718544
vn 0 -0.9126054 -0.4088416
vn 0 -0.9126054 -0.4088416
vn 0 -0.2355821 -0.9718544
vn 0 -0.3562149 -0.9344041
vn 0 -0.9126054 -0.4088416
vn 0 -0.9126054 -0.4088416
vn -0.9337704 -0.3578727 0
vn -0.9715929 -0.2366584 0
vn -0.4072211 -0.9133296 0
vn -0.4072211 -0.9133296 0
vn 0.9337704 -0.3578727 0
vn 0.9715929 -0.2366584 0
vn 0.4072211 -0.9133296 0
vn 0.4072211 -0.9133296 0
vn 0 1 0
vn 0 1 0
vn 0 1 0
vn 0 1 0
vn 0 1 0
vn 0 1 0
vn 0 1 0
vn 0 1 0
vn 0 1 0
vn 0 1 0
vn 0 1 0
vn 0 1 0
vn 0 1 0
vn 0 1 0
vn 0 1 0
vn 0 1 0
vn 0 1 0
vn 0 1 0
vn 0 1 0
vn 0 -1 -6.071699E-05
vn -0.0003617136 -0.9999999 0.0003643046
vn -0.0001808568 -1 0.0001821523
vn 0 -1 0
vn 0.0001808568 -0.9999999 -0.0005464557
vn 0.0001808568 -1 -0.0003643034
vn 0 -1 0.0001214349
vn 0 -1 0
vn 0 -1 0
vn 0 -1 -0.0001214355
vn 0 -1 -0.0002428711
vn 0 -1 -0.0003643066
vn 0 -1 -0.0003643066
vn 0 0 1
vn 0 0 1
vn 0 0 1
vn 0 -0.2355829 0.9718542
vn 1 0 0
vn 1 0 0
vn 1 0 0
vn 0.9715929 -0.2366584 0
vn -1 0 0
vn -1 0 0
vn -1 0 0
vn -0.9715929 -0.2366584 0
vn 0 0 -1
vn 0 0 -1
vn 0 0 -1
vn 0 -0.2355821 -0.9718544
vn 0 0 -1
vn 0 0 -1
vn 0 0 -1
vn 0 0 -1
vn 0 0 1
vn 0 0 1
vn 0 0 1
vn 0 0 1
vn -1 0 0
vn -1 0 0
vn -1 0 0
vn -1 0 0
vn 1 0 0
vn 1 0 0
vn 1 0 0
vn 1 0 0
vn 0.9715929 -0.2366584 0
vn 1 0 0
vn 1 0 0
vn 1 0 0
vn 1 0 0
vn 1 0 0
vn 1 0 0
vn 1 0 0
vn 0 0 -1
vn 0 0 -1
vn 0 0 -1
vn 0 0 -1
vn -1 0 0
vn -1 0 0
vn -1 0 0
vn -1 0 0
vn -0.9715929 -0.2366584 0
vn -1 0 0
vn -1 0 0
vn -1 0 0
vn 0 0 1
vn 0 0 1
vn 0 0 1
vn 0 0 1
vn 0 -0.2355821 -0.9718544
vn 0 0 -1
vn 0 0 -1
vn 0 0 -1
vn 0 -0.2355829 0.9718542
vn 0 0 1
vn 0 0 1
vn 0 0 1
g default_0
f 3/3/3 2/2/2 1/1/1
f 2/2/2 5/5/5 4/4/4
f 5/5/5 7/7/7 6/6/6
f 7/7/7 9/9/9 8/8/8
f 12/12/12 11/11/11 10/10/10
f 15/15/15 14/14/14 13/13/13
f 14/14/14 17/17/17 16/16/16
f 20/20/20 19/19/19 18/18/18
f 23/23/23 22/22/22 21/21/21
f 24/24/24 23/23/23 21/21/21
f 24/24/24 21/21/21 25/25/25
f 26/26/26 24/24/24 25/25/25
f 27/27/27 25/25/25 21/21/21
f 28/28/28 27/27/27 21/21/21
f 29/29/29 27/27/27 28/28/28
f 30/30/30 29/29/29 28/28/28
f 31/31/31 29/29/29 30/30/30
f 32/32/32 31/31/31 30/30/30
f 33/33/33 31/31/31 32/32/32
f 34/34/34 33/33/33 32/32/32
f 33/33/33 34/34/34 35/35/35
f 34/34/34 36/36/36 35/35/35
f 34/34/34 37/37/37 36/36/36
f 37/37/37 38/38/38 36/36/36
f 41/41/41 40/40/40 39/39/39
f 42/42/42 41/41/41 39/39/39
f 42/42/42 39/39/39 43/43/43
f 44/44/44 42/42/42 43/43/43
f 45/45/45 43/43/43 39/39/39
f 46/46/46 45/45/45 39/39/39
f 47/47/47 45/45/45 46/46/46
f 48/48/48 47/47/47 46/46/46
f 49/49/49 47/47/47 48/48/48
f 50/50/50 49/49/49 48/48/48
f 51/51/51 49/49/49 50/50/50
f 52/52/52 51/51/51 50/50/50
f 51/51/51 52/52/52 53/53/53
f 52/52/52 54/54/54 53/53/53
f 52/52/52 55/55/55 54/54/54
f 55/55/55 56/56/56 54/54/54
f 59/59/59 58/58/58 57/57/57
f 60/60/60 59/59/59 57/57/57
f 60/60/60 57/57/57 61/61/61
f 62/62/62 60/60/60 61/61/61
f 63/63/63 61/61/61 57/57/57
f 64/64/64 63/63/63 57/57/57
f 65/65/65 63/63/63 64/64/64
f 66/66/66 65/65/65 64/64/64
f 67/67/67 65/65/65 66/66/66
f 68/68/68 67/67/67 66/66/66
f 69/69/69 67/67/67 68/68/68
f 70/70/70 69/69/69 68/68/68
f 69/69/69 70/70/70 71/71/71
f 70/70/70 72/72/72 71/71/71
f 70/70/70 73/73/73 72/72/72
f 73/73/73 74/74/74 72/72/72
f 77/77/77 76/76/76 75/75/75
f 78/78/78 77/77/77 75/75/75
f 78/78/78 75/75/75 79/79/79
f 80/80/80 78/78/78 79/79/79
f 81/81/81 79/79/79 75/75/75
f 82/82/82 81/81/81 75/75/75
f 83/83/83 81/81/81 82/82/82
f 84/84/84 83/83/83 82/82/82
f 85/85/85 83/83/83 84/84/84
f 86/86/86 85/85/85 84/84/84
f 87/87/87 85/85/85 86/86/86
f 88/88/88 87/87/87 86/86/86
f 87/87/87 88/88/88 89/89/89
f 88/88/88 90/90/90 89/89/89
f 88/88/88 91/91/91 90/90/90
f 91/91/91 92/92/92 90/90/90
f 95/95/95 94/94/94 93/93/93
f 96/96/96 95/95/95 93/93/93
f 99/99/99 98/98/98 97/97/97
f 100/100/100 99/99/99 97/97/97
f 103/103/103 102/102/102 101/101/101
f 104/104/104 103/103/103 101/101/101
f 107/107/107 106/106/106 105/105/105
f 108/108/108 107/107/107 105/105/105
f 111/111/111 110/110/110 109/109/109
f 112/112/112 111/111/111 109/109/109
f 115/115/115 114/114/114 113/113/113
f 116/116/116 115/115/115 113/113/113
f 119/119/119 118/118/118 117/117/117
f 120/120/120 119/119/119 117/117/117
f 123/123/123 122/122/122 121/121/121
f 124/124/124 123/123/123 121/121/121
f 127/127/127 126/126/126 125/125/125
f 128/128/128 127/127/127 125/125/125
f 131/131/131 130/130/130 129/129/129
f 132/132/132 131/131/131 129/129/129
f 135/135/135 134/134/134 133/133/133
f 136/136/136 135/135/135 133/133/133
f 139/139/139 138/138/138 137/137/137
f 140/140/140 139/139/139 137/137/137
f 143/143/143 142/142/142 141/141/141
f 144/144/144 143/143/143 141/141/141
f 147/147/147 146/146/146 145/145/145
f 148/148/148 147/147/147 145/145/145
f 151/151/151 150/150/150 149/149/149
f 152/152/152 151/151/151 149/149/149
f 155/155/155 154/154/154 153/153/153
f 156/156/156 155/155/155 153/153/153
f 159/159/159 158/158/158 157/157/157
f 160/160/160 159/159/159 157/157/157
f 161/161/161 159/159/159 160/160/160
f 162/162/162 161/161/161 160/160/160
f 165/165/165 164/164/164 163/163/163
f 166/166/166 165/165/165 163/163/163
f 167/167/167 165/165/165 166/166/166
f 168/168/168 167/167/167 166/166/166
f 171/171/171 170/170/170 169/169/169
f 172/172/172 171/171/171 169/169/169
f 173/173/173 171/171/171 172/172/172
f 174/174/174 173/173/173 172/172/172
f 177/177/177 176/176/176 175/175/175
f 178/178/178 177/177/177 175/175/175
f 179/179/179 177/177/177 178/178/178
f 180/180/180 179/179/179 178/178/178
f 183/183/183 182/182/182 181/181/181
f 184/184/184 183/183/183 181/181/181
f 187/187/187 186/186/186 185/185/185
f 188/188/188 187/187/187 185/185/185
f 191/191/191 190/190/190 189/189/189
f 192/192/192 191/191/191 189/189/189
f 195/195/195 194/194/194 193/193/193
f 196/196/196 195/195/195 193/193/193
f 199/199/199 198/198/198 197/197/197
f 197/197/197 200/200/200 199/199/199
f 197/197/197 201/201/201 200/200/200
f 197/197/197 202/202/202 201/201/201
f 197/197/197 203/203/203 202/202/202
f 197/197/197 204/204/204 203/203/203
f 197/197/197 205/205/205 204/204/204
f 197/197/197 206/206/206 205/205/205
f 206/206/206 207/207/207 205/205/205
f 206/206/206 208/208/208 207/207/207
f 208/208/208 209/209/209 207/207/207
f 208/208/208 210/210/210 209/209/209
f 210/210/210 211/211/211 209/209/209
f 210/210/210 212/212/212 211/211/211
f 212/212/212 213/213/213 211/211/211
f 212/212/212 214/214/214 213/213/213
f 214/214/214 215/215/215 213/213/213
f 218/218/218 217/217/217 216/216/216
f 216/216/216 219/219/219 218/218/218
f 216/216/216 220/220/220 219/219/219
f 216/216/216 221/221/221 220/220/220
f 216/216/216 222/222/222 221/221/221
f 216/216/216 223/223/223 222/222/222
f 223/223/223 224/224/224 222/222/222
f 223/223/223 225/225/225 224/224/224
f 225/225/225 226/226/226 224/224/224
f 225/225/225 227/227/227 226/226/226
f 227/227/227 228/228/228 226/226/226
f 231/231/231 230/230/230 229/229/229
f 232/232/232 231/231/231 229/229/229
f 235/235/235 234/234/234 233/233/233
f 236/236/236 235/235/235 233/233/233
f 239/239/239 238/238/238 237/237/237
f 240/240/240 239/239/239 237/237/237
f 243/243/243 242/242/242 241/241/241
f 244/244/244 243/243/243 241/241/241
f 247/247/247 246/246/246 245/245/245
f 248/248/248 247/247/247 245/245/245
f 251/251/251 250/250/250 249/249/249
f 252/252/252 251/251/251 249/249/249
f 255/255/255 254/254/254 253/253/253
f 256/256/256 255/255/255 253/253/253
f 259/259/259 258/258/258 257/257/257
f 260/260/260 259/259/259 257/257/257
f 263/263/263 262/262/262 261/261/261
f 264/264/264 263/263/263 261/261/261
f 267/267/267 266/266/266 265/265/265
f 268/268/268 267/267/267 265/265/265
f 271/271/271 270/270/270 269/269/269
f 272/272/272 271/271/271 269/269/269
f 275/275/275 274/274/274 273/273/273
f 276/276/276 275/275/275 273/273/273
f 279/279/279 278/278/278 277/277/277
f 280/280/280 279/279/279 277/277/277
f 283/283/283 282/282/282 281/281/281
f 284/284/284 283/283/283 281/281/281
f 287/287/287 286/286/286 285/285/285
f 288/288/288 287/287/287 285/285/285
f 291/291/291 290/290/290 289/289/289
f 292/292/292 291/291/291 289/289/289
