g Descent_LadderB_Plain
v -0.25 0 0
v -0.25 0.125 0
v -0.25 0.125 -0.0625
v -0.25 0.03125 -0.0625
v -0.5 -0.5 0
v -0.25 -0.375 0
v -0.25 -0.5 0
v -0.25 -0.25 0
v 0.25 -0.25 0
v 0.25 -0.375 0
v -0.25 -0.125 0
v 0.5 -0.5 0
v 0.25 -0.5 0
v 0.25 -0.125 0
v 0.5 0.499999 0
v -0.25 0 0
v -0.499999 0.5 0
v 0.25 -1E-06 0
v 0.25 0.124999 0
v -0.25 0.125 0
v 0.25 0.249999 0
v -0.25 0.25 0
v 0.25 0.374999 0
v -0.25 0.375 0
v -0.25 -0.375 0
v 0.25 -0.375 0
v 0.25 -0.375 -0.0625
v -0.25 -0.375 -0.0625
v 0.25 -0.125 0
v 0.25 -0.25 0
v 0.25 -0.21875 -0.0625
v 0.25 -0.125 -0.0625
v 0.25 -1E-06 0
v -0.25 0 0
v -0.25 0.03125 -0.0625
v 0.25 0.03125 -0.0625
v -0.25 0.125 0
v 0.25 0.124999 0
v 0.25 0.124999 -0.0625
v -0.25 0.125 -0.0625
v 0.25 -0.25 0
v -0.25 -0.25 0
v -0.25 -0.21875 -0.0625
v 0.25 -0.21875 -0.0625
v -0.25 -0.125 0
v 0.25 -0.125 0
v 0.25 -0.125 -0.0625
v -0.25 -0.125 -0.0625
v 0.25 0.124999 0
v 0.25 -1E-06 0
v 0.25 0.03125 -0.0625
v 0.25 0.124999 -0.0625
v -0.25 0.375 0
v 0.25 0.374999 0
v 0.25 0.374999 -0.0625
v -0.25 0.375 -0.0625
v -0.25 -0.5 0
v -0.25 -0.375 0
v -0.25 -0.375 -0.0625
v -0.25 -0.46875 -0.0625
v -0.25 0.25 0
v -0.25 0.375 0
v -0.25 0.375 -0.0625
v -0.25 0.28125 -0.0625
v 0.25 0.374999 0
v 0.25 0.249999 0
v 0.25 0.28125 -0.0625
v 0.25 0.374999 -0.0625
v -0.25 -0.25 0
v -0.25 -0.125 0
v -0.25 -0.125 -0.0625
v -0.25 -0.21875 -0.0625
v -0.25 -0.46875 -0.0625
v -0.25 -0.375 -0.0625
v 0.25 -0.375 -0.0625
v 0.25 -0.46875 -0.0625
v -0.25 0.28125 -0.0625
v -0.25 0.375 -0.0625
v 0.25 0.374999 -0.0625
v 0.25 0.28125 -0.0625
v -0.25 -0.21875 -0.0625
v -0.25 -0.125 -0.0625
v 0.25 -0.125 -0.0625
v 0.25 -0.21875 -0.0625
v -0.25 0.03125 -0.0625
v -0.25 0.125 -0.0625
v 0.25 0.124999 -0.0625
v 0.25 0.03125 -0.0625
v 0.25 0.249999 0
v -0.25 0.25 0
v -0.25 0.28125 -0.0625
v 0.25 0.28125 -0.0625
v 0.25 -0.375 0
v 0.25 -0.5 0
v 0.25 -0.46875 -0.0625
v 0.25 -0.375 -0.0625
v 0.25 -0.5 0
v -0.25 -0.5 0
v -0.25 -0.46875 -0.0625
v 0.25 -0.46875 -0.0625
vt 0.7139822 0.7436984
vt 0.7139822 0.7360127
vt 0.7178251 0.7360127
vt 0.7178251 0.7436984
vt 0.7049899 0.7578125
vt 0.6992188 0.75
vt 0.6992188 0.7578125
vt 0.6992188 0.7421875
vt 0.6757813 0.7421875
vt 0.6757813 0.75
vt 0.6992188 0.734375
vt 0.6640625 0.7578125
vt 0.6757813 0.7578125
vt 0.6757813 0.734375
vt 0.6640625 0.6953125
vt 0.6992188 0.7265625
vt 0.7049899 0.6953125
vt 0.6757813 0.7265625
vt 0.6757813 0.71875
vt 0.6992188 0.71875
vt 0.6757813 0.7109375
vt 0.6992188 0.7109375
vt 0.6757813 0.703125
vt 0.6992188 0.703125
vt 0.71875 0.7578125
vt 0.71875 0.7257749
vt 0.7227547 0.7257749
vt 0.7227547 0.7578125
vt 0.7139822 0.7360137
vt 0.7139822 0.7436993
vt 0.7178251 0.7436993
vt 0.7178251 0.7360137
vt 0.71875 0.7257749
vt 0.71875 0.7578125
vt 0.7227547 0.7578125
vt 0.7227547 0.7257749
vt 0.71875 0.7578125
vt 0.71875 0.7257749
vt 0.7227547 0.7257749
vt 0.7227547 0.7578125
vt 0.71875 0.7257749
vt 0.71875 0.7578125
vt 0.7227547 0.7578125
vt 0.7227547 0.7257749
vt 0.71875 0.7578125
vt 0.71875 0.7257749
vt 0.7227547 0.7257749
vt 0.7227547 0.7578125
vt 0.7139822 0.7360128
vt 0.7139822 0.7436984
vt 0.7178251 0.7436984
vt 0.7178251 0.7360128
vt 0.71875 0.7578125
vt 0.71875 0.7257749
vt 0.7227547 0.7257749
vt 0.7227547 0.7578125
vt 0.7139822 0.7437075
vt 0.7139822 0.7360219
vt 0.7178251 0.7360219
vt 0.7178251 0.7437075
vt 0.7139822 0.7436982
vt 0.7139822 0.7360126
vt 0.7178251 0.7360126
vt 0.7178251 0.7436982
vt 0.7139822 0.7360126
vt 0.7139822 0.7436982
vt 0.7178251 0.7436982
vt 0.7178251 0.7360126
vt 0.7139822 0.7436993
vt 0.7139822 0.7360135
vt 0.7178251 0.7360135
vt 0.7178251 0.7436993
vt 0.7226563 0.6953125
vt 0.7148438 0.6953125
vt 0.7148438 0.71875
vt 0.7226563 0.71875
vt 0.7226563 0.6953125
vt 0.7148438 0.6953125
vt 0.7148438 0.71875
vt 0.7226563 0.71875
vt 0.7226563 0.6953125
vt 0.7148438 0.6953125
vt 0.7148438 0.71875
vt 0.7226563 0.71875
vt 0.7226563 0.6953125
vt 0.7148438 0.6953125
vt 0.7148438 0.71875
vt 0.7226563 0.71875
vt 0.71875 0.7257749
vt 0.71875 0.7578125
vt 0.7227547 0.7578125
vt 0.7227547 0.7257749
vt 0.7139822 0.7360219
vt 0.7139822 0.7437075
vt 0.7178251 0.7437075
vt 0.7178251 0.7360219
vt 0.71875 0.7257749
vt 0.71875 0.7578125
vt 0.7227547 0.7578125
vt 0.7227547 0.7257749
vn 1 0 0
vn 1 0 0
vn 1 0 0
vn 1 0 0
vn 0 0 1
vn 0 0 1
vn 0 0 1
vn 0 0 1
vn 0 0 1
vn 0 0 1
vn 0 0 1
vn 0 0 1
vn 0 0 1
vn 0 0 1
vn 0 0 1
vn 0 0 1
vn 0 0 1
vn 0 0 1
vn 0 0 1
vn 0 0 1
vn 0 0 1
vn 0 0 1
vn 0 0 1
vn 0 0 1
vn 0 -1 0
vn 0 -1 0
vn 0 -1 0
vn 0 -1 0
vn -1 0 0
vn -1 0 0
vn -1 0 0
vn -1 0 0
vn 0 0.8944333 0.4472014
vn 0 0.8944333 0.4472014
vn 0 0.8944333 0.4472014
vn 0 0.8944333 0.4472014
vn 0 -1 0
vn 0 -1 0
vn 0 -1 0
vn 0 -1 0
vn 0 0.8944333 0.4472014
vn 0 0.8944333 0.4472014
vn 0 0.8944333 0.4472014
vn 0 0.8944333 0.4472014
vn 0 -1 0
vn 0 -1 0
vn 0 -1 0
vn 0 -1 0
vn -1 0 0
vn -1 0 0
vn -1 0 0
vn -1 0 0
vn 0 -1 0
vn 0 -1 0
vn 0 -1 0
vn 0 -1 0
vn 1 0 0
vn 1 0 0
vn 1 0 0
vn 1 0 0
vn 1 0 0
vn 1 0 0
vn 1 0 0
vn 1 0 0
vn -1 0 0
vn -1 0 0
vn -1 0 0
vn -1 0 0
vn 1 0 0
vn 1 0 0
vn 1 0 0
vn 1 0 0
vn 0 0 1
vn 0 0 1
vn 0 0 1
vn 0 0 1
vn 0 0 1
vn 0 0 1
vn 0 0 1
vn 0 0 1
vn 0 0 1
vn 0 0 1
vn 0 0 1
vn 0 0 1
vn 0 0 1
vn 0 0 1
vn 0 0 1
vn 0 0 1
vn 0 0.8944211 0.4472258
vn 0 0.8944211 0.4472258
vn 0 0.8944211 0.4472258
vn 0 0.8944211 0.4472258
vn -1 0 0
vn -1 0 0
vn -1 0 0
vn -1 0 0
vn 0 0.8944333 0.4472014
vn 0 0.8944333 0.4472014
vn 0 0.8944333 0.4472014
vn 0 0.8944333 0.4472014
g Descent_LadderB_Plain_0
f 3/3/3 2/2/2 1/1/1
f 4/4/4 3/3/3 1/1/1
f 7/7/7 6/6/6 5/5/5
f 6/6/6 8/8/8 5/5/5
f 9/9/9 8/8/8 6/6/6
f 10/10/10 9/9/9 6/6/6
f 8/8/8 11/11/11 5/5/5
f 12/12/12 9/9/9 10/10/10
f 12/12/12 10/10/10 13/13/13
f 12/12/12 14/14/14 9/9/9
f 12/12/12 15/15/15 14/14/14
f 11/11/11 16/16/16 5/5/5
f 16/16/16 17/17/17 5/5/5
f 14/14/14 18/18/18 11/11/11
f 18/18/18 16/16/16 11/11/11
f 15/15/15 18/18/18 14/14/14
f 15/15/15 19/19/19 18/18/18
f 16/16/16 20/20/20 17/17/17
f 19/19/19 21/21/21 20/20/20
f 15/15/15 21/21/21 19/19/19
f 21/21/21 22/22/22 20/20/20
f 20/20/20 22/22/22 17/17/17
f 15/15/15 23/23/23 21/21/21
f 22/22/22 24/24/24 17/17/17
f 23/23/23 15/15/15 24/24/24
f 15/15/15 17/17/17 24/24/24
f 27/27/27 26/26/26 25/25/25
f 28/28/28 27/27/27 25/25/25
f 31/31/31 30/30/30 29/29/29
f 32/32/32 31/31/31 29/29/29
f 35/35/35 34/34/34 33/33/33
f 36/36/36 35/35/35 33/33/33
f 39/39/39 38/38/38 37/37/37
f 40/40/40 39/39/39 37/37/37
f 43/43/43 42/42/42 41/41/41
f 44/44/44 43/43/43 41/41/41
f 47/47/47 46/46/46 45/45/45
f 48/48/48 47/47/47 45/45/45
f 51/51/51 50/50/50 49/49/49
f 52/52/52 51/51/51 49/49/49
f 55/55/55 54/54/54 53/53/53
f 56/56/56 55/55/55 53/53/53
f 59/59/59 58/58/58 57/57/57
f 60/60/60 59/59/59 57/57/57
f 63/63/63 62/62/62 61/61/61
f 64/64/64 63/63/63 61/61/61
f 67/67/67 66/66/66 65/65/65
f 68/68/68 67/67/67 65/65/65
f 71/71/71 70/70/70 69/69/69
f 72/72/72 71/71/71 69/69/69
f 75/75/75 74/74/74 73/73/73
f 76/76/76 75/75/75 73/73/73
f 79/79/79 78/78/78 77/77/77
f 80/80/80 79/79/79 77/77/77
f 83/83/83 82/82/82 81/81/81
f 84/84/84 83/83/83 81/81/81
f 87/87/87 86/86/86 85/85/85
f 88/88/88 87/87/87 85/85/85
f 91/91/91 90/90/90 89/89/89
f 92/92/92 91/91/91 89/89/89
f 95/95/95 94/94/94 93/93/93
f 96/96/96 95/95/95 93/93/93
f 99/99/99 98/98/98 97/97/97
f 100/100/100 99/99/99 97/97/97
