g Descent_Ramp_Plain
v 0.5 0.5 0
v -0.5 -0.5 1
v -0.5 0.5 1
v 0.5 -0.5 0
v 0.5 0.5 0
v -0.5 0.5 1
v -0.5 0.5 0
v 0.5 -0.5 0
v -0.5 -0.5 0
v -0.5 -0.5 1
vt 0.2480198 0.5601438
vt 0.03301675 0.4081137
vt 0.03301675 0.5601438
vt 0.2480198 0.4081137
vt 0.1247495 0.5635343
vt 0.03271375 0.65557
vt 0.03271375 0.5635343
vt 0.1249185 0.5637032
vt 0.03288275 0.5637032
vt 0.03288275 0.655739
vn 0.7071068 0 0.7071068
vn 0.7071068 0 0.7071068
vn 0.7071068 0 0.7071068
vn 0.7071068 0 0.7071068
vn 0 1 0
vn 0 1 0
vn 0 1 0
vn 0 -1 0
vn 0 -1 0
vn 0 -1 0
g Descent_Ramp_Plain_0
f 3/3/3 2/2/2 1/1/1
f 2/2/2 4/4/4 1/1/1
f 7/7/7 6/6/6 5/5/5
f 10/10/10 9/9/9 8/8/8
