g Descent_ArchD_Descent
v -0.375 1.875 0.375
v -0.375 1.875 0.125
v -0.375 1.625 0.375
v -0.375 1.875 -0.375
v -0.125 1.875 -0.375
v -0.375 1.625 -0.375
v 0.375 1.875 0.375
v 0.125 1.875 0.375
v 0.375 1.625 0.375
v -0.375 1.625 -0.375
v -0.375 1.875 -0.125
v -0.375 1.875 -0.375
v 0.375 1.625 0.375
v 0.375 1.875 0.125
v 0.375 1.875 0.375
v 0.375 1.875 -0.375
v 0.375 1.875 -0.125
v 0.375 1.625 -0.375
v 0.375 1.625 -0.375
v 0.125 1.875 -0.375
v 0.375 1.875 -0.375
v -0.375 1.625 0.375
v -0.125 1.875 0.375
v -0.375 1.875 0.375
v -0.5 1.875 0.125
v -0.5 1.625 0.375
v -0.375 1.625 0.375
v -0.375 1.875 0.125
v -0.5 1.875 -0.125
v -0.5 1.875 0.125
v -0.375 1.875 0.125
v -0.375 1.875 -0.125
v -0.5 0 0.5
v -0.5 0 0.375
v -0.5 1.625 0.375
v -0.5 2 0.5
v -0.5 1.875 0.125
v -0.5 2 -0.5
v -0.5 1.875 -0.125
v -0.5 1.625 -0.375
v -0.5 0 -0.375
v -0.5 0 -0.5
v -0.5 1.625 0.375
v -0.5 0 0.375
v -0.375 0 0.375
v -0.375 1.625 0.375
v 0.5 1.875 -0.125
v 0.5 1.625 -0.375
v 0.375 1.625 -0.375
v 0.375 1.875 -0.125
v 0.5 1.875 0.125
v 0.5 1.875 -0.125
v 0.375 1.875 -0.125
v 0.375 1.875 0.125
v 0.5 0 0.375
v 0.5 0 0.5
v 0.5 2 0.5
v 0.5 1.625 0.375
v 0.5 1.875 0.125
v 0.5 1.875 -0.125
v 0.5 2 -0.5
v 0.5 1.625 -0.375
v 0.5 0 -0.5
v 0.5 0 -0.375
v 0.5 1.625 -0.375
v 0.5 0 -0.375
v 0.375 0 -0.375
v 0.375 1.625 -0.375
v -0.125 1.875 -0.5
v -0.375 1.625 -0.5
v -0.375 1.625 -0.375
v -0.125 1.875 -0.375
v 0.125 1.875 -0.5
v -0.125 1.875 -0.5
v -0.125 1.875 -0.375
v 0.125 1.875 -0.375
v 0.125 1.875 0.5
v 0.375 1.625 0.5
v 0.375 1.625 0.375
v 0.125 1.875 0.375
v -0.125 1.875 0.5
v 0.125 1.875 0.5
v 0.125 1.875 0.375
v -0.125 1.875 0.375
v 0.375 1.625 0.5
v 0.375 0 0.5
v 0.375 0 0.375
v 0.375 1.625 0.375
v -0.5 0 -0.375
v -0.5 1.625 -0.375
v -0.375 1.625 -0.375
v -0.375 0 -0.375
v -0.5 1.625 -0.375
v -0.5 1.875 -0.125
v -0.375 1.875 -0.125
v -0.375 1.625 -0.375
v 0.5 0 0.375
v 0.5 1.625 0.375
v 0.375 1.625 0.375
v 0.375 0 0.375
v 0.5 1.625 0.375
v 0.5 1.875 0.125
v 0.375 1.875 0.125
v 0.375 1.625 0.375
v 0.375 0 -0.5
v 0.5 0 -0.5
v 0.5 2 -0.5
v 0.375 1.625 -0.5
v 0.125 1.875 -0.5
v -0.125 1.875 -0.5
v -0.5 2 -0.5
v -0.375 1.625 -0.5
v -0.5 0 -0.5
v -0.375 0 -0.5
v 0.375 0 -0.5
v 0.375 1.625 -0.5
v 0.375 1.625 -0.375
v 0.375 0 -0.375
v -0.375 1.625 -0.5
v -0.375 0 -0.5
v -0.375 0 -0.375
v -0.375 1.625 -0.375
v 0.375 1.625 -0.5
v 0.125 1.875 -0.5
v 0.125 1.875 -0.375
v 0.375 1.625 -0.375
v -0.375 0 0.5
v -0.5 0 0.5
v -0.5 2 0.5
v -0.375 1.625 0.5
v -0.125 1.875 0.5
v 0.125 1.875 0.5
v 0.5 2 0.5
v 0.375 1.625 0.5
v 0.5 0 0.5
v 0.375 0 0.5
v -0.375 0 0.5
v -0.375 1.625 0.5
v -0.375 1.625 0.375
v -0.375 0 0.375
v -0.375 1.625 0.5
v -0.125 1.875 0.5
v -0.125 1.875 0.375
v -0.375 1.625 0.375
v 0.125 1.875 -0.375
v 0.375 1.875 -0.125
v 0.375 1.875 -0.375
v -0.125 1.875 -0.375
v -0.375 1.875 -0.125
v -0.375 1.875 -0.375
v -0.375 1.875 0.125
v 0.375 1.875 0.125
v 0.125 1.875 0.375
v 0.375 1.875 0.375
v -0.125 1.875 0.375
v -0.375 1.875 0.375
vt 0.2226563 0.04882813
vt 0.2148438 0.04882813
vt 0.2226563 0.04113769
vt 0.2226563 0.04882813
vt 0.2148438 0.04882813
vt 0.2226563 0.04113769
vt 0.2226563 0.04882813
vt 0.2148438 0.04882813
vt 0.2226563 0.04113769
vt 0.1992188 0.04113769
vt 0.2070313 0.04882813
vt 0.1992188 0.04882813
vt 0.1992188 0.04113769
vt 0.2070313 0.04882813
vt 0.1992188 0.04882813
vt 0.2226563 0.04882813
vt 0.2148438 0.04882813
vt 0.2226563 0.04113769
vt 0.1992188 0.04113769
vt 0.2070313 0.04882813
vt 0.1992188 0.04882813
vt 0.1992188 0.04113769
vt 0.2070313 0.04882813
vt 0.1992188 0.04882813
vt 0.2148438 0.02734375
vt 0.2226563 0.02734375
vt 0.2226563 0.0234375
vt 0.2148438 0.0234375
vt 0.2070313 0.02734375
vt 0.2148438 0.02734375
vt 0.2148438 0.0234375
vt 0.2070313 0.0234375
vt 0.2265625 0.0234375
vt 0.2226563 0.0234375
vt 0.2226563 0.04882813
vt 0.2265625 0.0546875
vt 0.2148438 0.05273438
vt 0.1953125 0.0546875
vt 0.2070313 0.05273438
vt 0.1992188 0.04882813
vt 0.1992188 0.0234375
vt 0.1953125 0.0234375
vt 0.2226563 0.03515625
vt 0.1992188 0.03515625
vt 0.1992188 0.03125
vt 0.2226563 0.03125
vt 0.2148438 0.02734375
vt 0.2226563 0.02734375
vt 0.2226563 0.0234375
vt 0.2148438 0.0234375
vt 0.2070313 0.02734375
vt 0.2148438 0.02734375
vt 0.2148438 0.0234375
vt 0.2070313 0.0234375
vt 0.1992188 0.0234375
vt 0.1953125 0.0234375
vt 0.1953125 0.0546875
vt 0.1992188 0.04882813
vt 0.2070313 0.05273438
vt 0.2148438 0.05273438
vt 0.2265625 0.0546875
vt 0.2226563 0.04882813
vt 0.2265625 0.0234375
vt 0.2226563 0.0234375
vt 0.2226563 0.03515625
vt 0.1992188 0.03515625
vt 0.1992188 0.03125
vt 0.2226563 0.03125
vt 0.2148438 0.02734375
vt 0.2226563 0.02734375
vt 0.2226563 0.0234375
vt 0.2148438 0.0234375
vt 0.2070313 0.02734375
vt 0.2148438 0.02734375
vt 0.2148438 0.0234375
vt 0.2070313 0.0234375
vt 0.2148438 0.02734375
vt 0.2226563 0.02734375
vt 0.2226563 0.0234375
vt 0.2148438 0.0234375
vt 0.2070313 0.02734375
vt 0.2148438 0.02734375
vt 0.2148438 0.0234375
vt 0.2070313 0.0234375
vt 0.2226563 0.03515625
vt 0.1992188 0.03515625
vt 0.1992188 0.03125
vt 0.2226563 0.03125
vt 0.2226563 0.03515625
vt 0.1992188 0.03515625
vt 0.1992188 0.03125
vt 0.2226563 0.03125
vt 0.1992188 0.02734375
vt 0.2070313 0.02734375
vt 0.2070313 0.0234375
vt 0.1992188 0.0234375
vt 0.2226563 0.03515625
vt 0.1992188 0.03515625
vt 0.1992188 0.03125
vt 0.2226563 0.03125
vt 0.1992188 0.02734375
vt 0.2070313 0.02734375
vt 0.2070313 0.0234375
vt 0.1992188 0.0234375
vt 0.1992188 0.0234375
vt 0.1953125 0.0234375
vt 0.1953125 0.0546875
vt 0.1992188 0.04882813
vt 0.2070313 0.05273438
vt 0.2148438 0.05273438
vt 0.2265625 0.0546875
vt 0.2226563 0.04882813
vt 0.2265625 0.0234375
vt 0.2226563 0.0234375
vt 0.2226563 0.03515625
vt 0.1992188 0.03515625
vt 0.1992188 0.03125
vt 0.2226563 0.03125
vt 0.2226563 0.03515625
vt 0.1992188 0.03515625
vt 0.1992188 0.03125
vt 0.2226563 0.03125
vt 0.1992188 0.02734375
vt 0.2070313 0.02734375
vt 0.2070313 0.0234375
vt 0.1992188 0.0234375
vt 0.1992188 0.0234375
vt 0.1953125 0.0234375
vt 0.1953125 0.0546875
vt 0.1992188 0.04882813
vt 0.2070313 0.05273438
vt 0.2148438 0.05273438
vt 0.2265625 0.0546875
vt 0.2226563 0.04882813
vt 0.2265625 0.0234375
vt 0.2226563 0.0234375
vt 0.2226563 0.03515625
vt 0.1992188 0.03515625
vt 0.1992188 0.03125
vt 0.2226563 0.03125
vt 0.1992188 0.02734375
vt 0.2070313 0.02734375
vt 0.2070313 0.0234375
vt 0.1992188 0.0234375
vt 0.2124023 0.03686525
vt 0.215332 0.03979494
vt 0.215332 0.03686525
vt 0.2094727 0.03686525
vt 0.206543 0.03979494
vt 0.206543 0.03686525
vt 0.206543 0.04272462
vt 0.215332 0.04272462
vt 0.2124023 0.04565431
vt 0.215332 0.04565431
vt 0.2094727 0.04565431
vt 0.206543 0.04565431
vn 1 0 0
vn 1 0 0
vn 1 0 0
vn 0 0 1
vn 0 0 1
vn 0 0 1
vn 0 0 -1
vn 0 0 -1
vn 0 0 -1
vn 1 0 0
vn 1 0 0
vn 1 0 0
vn -1 0 0
vn -1 0 0
vn -1 0 0
vn -1 0 0
vn -1 0 0
vn -1 0 0
vn 0 0 1
vn 0 0 1
vn 0 0 1
vn 0 0 -1
vn 0 0 -1
vn 0 0 -1
vn 0 -0.7071068 -0.7071068
vn 0 -0.7071068 -0.7071068
vn 0 -0.7071068 -0.7071068
vn 0 -0.7071068 -0.7071068
vn 0 -1 0
vn 0 -1 0
vn 0 -1 0
vn 0 -1 0
vn -1 0 0
vn -1 0 0
vn -1 0 0
vn -1 0 0
vn -1 0 0
vn -1 0 0
vn -1 0 0
vn -1 0 0
vn -1 0 0
vn -1 0 0
vn 0 0 -1
vn 0 0 -1
vn 0 0 -1
vn 0 0 -1
vn 0 -0.7071068 0.7071068
vn 0 -0.7071068 0.7071068
vn 0 -0.7071068 0.7071068
vn 0 -0.7071068 0.7071068
vn 0 -1 0
vn 0 -1 0
vn 0 -1 0
vn 0 -1 0
vn 1 0 0
vn 1 0 0
vn 1 0 0
vn 1 0 0
vn 1 0 0
vn 1 0 0
vn 1 0 0
vn 1 0 0
vn 1 0 0
vn 1 0 0
vn 0 0 1
vn 0 0 1
vn 0 0 1
vn 0 0 1
vn 0.7071068 -0.7071068 0
vn 0.7071068 -0.7071068 0
vn 0.7071068 -0.7071068 0
vn 0.7071068 -0.7071068 0
vn 0 -1 0
vn 0 -1 0
vn 0 -1 0
vn 0 -1 0
vn -0.7071068 -0.7071068 0
vn -0.7071068 -0.7071068 0
vn -0.7071068 -0.7071068 0
vn -0.7071068 -0.7071068 0
vn 0 -1 0
vn 0 -1 0
vn 0 -1 0
vn 0 -1 0
vn -1 0 0
vn -1 0 0
vn -1 0 0
vn -1 0 0
vn 0 0 1
vn 0 0 1
vn 0 0 1
vn 0 0 1
vn 0 -0.7071068 0.7071068
vn 0 -0.7071068 0.7071068
vn 0 -0.7071068 0.7071068
vn 0 -0.7071068 0.7071068
vn 0 0 -1
vn 0 0 -1
vn 0 0 -1
vn 0 0 -1
vn 0 -0.7071068 -0.7071068
vn 0 -0.7071068 -0.7071068
vn 0 -0.7071068 -0.7071068
vn 0 -0.7071068 -0.7071068
vn 0 0 -1
vn 0 0 -1
vn 0 0 -1
vn 0 0 -1
vn 0 0 -1
vn 0 0 -1
vn 0 0 -1
vn 0 0 -1
vn 0 0 -1
vn 0 0 -1
vn -1 0 0
vn -1 0 0
vn -1 0 0
vn -1 0 0
vn 1 0 0
vn 1 0 0
vn 1 0 0
vn 1 0 0
vn -0.7071068 -0.7071068 0
vn -0.7071068 -0.7071068 0
vn -0.7071068 -0.7071068 0
vn -0.7071068 -0.7071068 0
vn 0 0 1
vn 0 0 1
vn 0 0 1
vn 0 0 1
vn 0 0 1
vn 0 0 1
vn 0 0 1
vn 0 0 1
vn 0 0 1
vn 0 0 1
vn 1 0 0
vn 1 0 0
vn 1 0 0
vn 1 0 0
vn 0.7071068 -0.7071068 0
vn 0.7071068 -0.7071068 0
vn 0.7071068 -0.7071068 0
vn 0.7071068 -0.7071068 0
vn 0 -1 0
vn 0 -1 0
vn 0 -1 0
vn 0 -1 0
vn 0 -1 0
vn 0 -1 0
vn 0 -1 0
vn 0 -1 0
vn 0 -1 0
vn 0 -1 0
vn 0 -1 0
vn 0 -1 0
g Descent_ArchD_Descent_0
f 3/3/3 2/2/2 1/1/1
f 6/6/6 5/5/5 4/4/4
f 9/9/9 8/8/8 7/7/7
f 12/12/12 11/11/11 10/10/10
f 15/15/15 14/14/14 13/13/13
f 18/18/18 17/17/17 16/16/16
f 21/21/21 20/20/20 19/19/19
f 24/24/24 23/23/23 22/22/22
f 27/27/27 26/26/26 25/25/25
f 28/28/28 27/27/27 25/25/25
f 31/31/31 30/30/30 29/29/29
f 32/32/32 31/31/31 29/29/29
f 35/35/35 34/34/34 33/33/33
f 36/36/36 35/35/35 33/33/33
f 37/37/37 35/35/35 36/36/36
f 36/36/36 38/38/38 37/37/37
f 38/38/38 39/39/39 37/37/37
f 39/39/39 38/38/38 40/40/40
f 41/41/41 40/40/40 38/38/38
f 42/42/42 41/41/41 38/38/38
f 45/45/45 44/44/44 43/43/43
f 46/46/46 45/45/45 43/43/43
f 49/49/49 48/48/48 47/47/47
f 50/50/50 49/49/49 47/47/47
f 53/53/53 52/52/52 51/51/51
f 54/54/54 53/53/53 51/51/51
f 57/57/57 56/56/56 55/55/55
f 58/58/58 57/57/57 55/55/55
f 59/59/59 57/57/57 58/58/58
f 57/57/57 59/59/59 60/60/60
f 61/61/61 57/57/57 60/60/60
f 60/60/60 62/62/62 61/61/61
f 61/61/61 62/62/62 63/63/63
f 62/62/62 64/64/64 63/63/63
f 67/67/67 66/66/66 65/65/65
f 68/68/68 67/67/67 65/65/65
f 71/71/71 70/70/70 69/69/69
f 72/72/72 71/71/71 69/69/69
f 75/75/75 74/74/74 73/73/73
f 76/76/76 75/75/75 73/73/73
f 79/79/79 78/78/78 77/77/77
f 80/80/80 79/79/79 77/77/77
f 83/83/83 82/82/82 81/81/81
f 84/84/84 83/83/83 81/81/81
f 87/87/87 86/86/86 85/85/85
f 88/88/88 87/87/87 85/85/85
f 91/91/91 90/90/90 89/89/89
f 92/92/92 91/91/91 89/89/89
f 95/95/95 94/94/94 93/93/93
f 96/96/96 95/95/95 93/93/93
f 99/99/99 98/98/98 97/97/97
f 100/100/100 99/99/99 97/97/97
f 103/103/103 102/102/102 101/101/101
f 104/104/104 103/103/103 101/101/101
f 107/107/107 106/106/106 105/105/105
f 108/108/108 107/107/107 105/105/105
f 109/109/109 107/107/107 108/108/108
f 107/107/107 109/109/109 110/110/110
f 111/111/111 107/107/107 110/110/110
f 110/110/110 112/112/112 111/111/111
f 111/111/111 112/112/112 113/113/113
f 112/112/112 114/114/114 113/113/113
f 117/117/117 116/116/116 115/115/115
f 118/118/118 117/117/117 115/115/115
f 121/121/121 120/120/120 119/119/119
f 122/122/122 121/121/121 119/119/119
f 125/125/125 124/124/124 123/123/123
f 126/126/126 125/125/125 123/123/123
f 129/129/129 128/128/128 127/127/127
f 130/130/130 129/129/129 127/127/127
f 131/131/131 129/129/129 130/130/130
f 129/129/129 131/131/131 132/132/132
f 133/133/133 129/129/129 132/132/132
f 132/132/132 134/134/134 133/133/133
f 133/133/133 134/134/134 135/135/135
f 134/134/134 136/136/136 135/135/135
f 139/139/139 138/138/138 137/137/137
f 140/140/140 139/139/139 137/137/137
f 143/143/143 142/142/142 141/141/141
f 144/144/144 143/143/143 141/141/141
f 147/147/147 146/146/146 145/145/145
f 145/145/145 146/146/146 148/148/148
f 146/146/146 149/149/149 148/148/148
f 150/150/150 148/148/148 149/149/149
f 149/149/149 146/146/146 151/151/151
f 146/146/146 152/152/152 151/151/151
f 151/151/151 152/152/152 153/153/153
f 154/154/154 153/153/153 152/152/152
f 155/155/155 151/151/151 153/153/153
f 156/156/156 151/151/151 155/155/155
