g DoorsARight
v 0.437573 2 2.6E-05
v 0.437573 1.75 2.6E-05
v 0.437573 2 0.125026
v 0.437573 1.875 0.250026
v 0.437573 1.75 0.250026
v 0.437573 1 0.250026
v 0.437573 1.75 0.375026
v 0.437573 1 2.6E-05
v 0.437573 1 0.375026
v 0.437573 0 0.250026
v 0.437573 0 2.6E-05
v 0.437573 0 0.375026
v 0.375073 2 2.6E-05
v 0.375073 2 0.125026
v 0.375073 1.75 2.6E-05
v 0.375073 1.875 0.250026
v 0.375073 1.75 0.250026
v 0.375073 1 0.250026
v 0.375073 1.75 0.375026
v 0.375073 1 2.6E-05
v 0.375073 1 0.375026
v 0.375073 0 0.250026
v 0.375073 0 2.6E-05
v 0.375073 0 0.375026
v 0.437573 0 0.250026
v 0.437573 0 2.6E-05
v 0.375073 0 2.6E-05
v 0.375073 0 0.250026
v 0.437573 0 0.375026
v 0.375073 0 0.375026
v 0.437573 2 2.6E-05
v 0.437573 2 0.125026
v 0.375073 2 0.125026
v 0.375073 2 2.6E-05
v 0.437573 0 2.6E-05
v 0.375073 1 2.6E-05
v 0.375073 0 2.6E-05
v 0.437573 1 2.6E-05
v 0.375073 1.75 2.6E-05
v 0.437573 1.75 2.6E-05
v 0.375073 2 2.6E-05
v 0.437573 2 2.6E-05
v 0.437573 1.75 0.375026
v 0.375073 1 0.375026
v 0.375073 1.75 0.375026
v 0.437573 1 0.375026
v 0.375073 0 0.375026
v 0.437573 0 0.375026
v 0.437573 1.875 0.250026
v 0.375073 1.875 0.250026
v 0.375073 1.75 0.250026
v 0.437573 1.75 0.250026
v 0.437573 1.75 0.250026
v 0.437573 1.75 0.375026
v 0.375073 1.75 0.375026
v 0.375073 1.75 0.250026
v 0.437573 2 0.125026
v 0.437573 1.875 0.250026
v 0.375073 1.875 0.250026
v 0.375073 2 0.125026
v 0.375073 1.75 0.250026
v 0.375073 1.875 0.250026
v 0.437573 1.875 0.250026
v 0.437573 1.75 0.250026
vt 0.990168 0.99391
vt 0.990169 0.870403
vt 0.743155 0.99391
vt 0.496141 0.932156
vt 0.496141 0.870403
vt 0.496142 0.499882
vt 0.249127 0.870403
vt 0.990169 0.499882
vt 0.249127 0.499882
vt 0.496142 0.005855
vt 0.99017 0.005855
vt 0.249128 0.005855
vt 0.990169 0.99391
vt 0.743155 0.99391
vt 0.990169 0.870403
vt 0.496141 0.932156
vt 0.496141 0.870403
vt 0.496142 0.499882
vt 0.249127 0.870403
vt 0.990169 0.499882
vt 0.249128 0.499882
vt 0.496142 0.005855
vt 0.99017 0.005855
vt 0.249128 0.005855
vt 0.230808 0.076861
vt 0.230808 0.076861
vt 0.065529 0.076861
vt 0.065529 0.076861
vt 0.230808 0.076861
vt 0.065529 0.076861
vt 0.230808 0.889671
vt 0.230808 0.889671
vt 0.065529 0.889671
vt 0.065529 0.889671
vt 0.230808 0.076861
vt 0.065529 0.483266
vt 0.065529 0.076861
vt 0.230808 0.483266
vt 0.065529 0.78807
vt 0.230808 0.78807
vt 0.065529 0.889671
vt 0.230808 0.889671
vt 0.230808 0.78807
vt 0.065529 0.483266
vt 0.065529 0.78807
vt 0.230808 0.483266
vt 0.065529 0.076861
vt 0.230808 0.076861
vt 0.230808 0.838871
vt 0.065529 0.838871
vt 0.065529 0.78807
vt 0.230808 0.78807
vt 0.230808 0.78807
vt 0.230808 0.78807
vt 0.065529 0.78807
vt 0.065529 0.78807
vt 0.230808 0.889671
vt 0.230808 0.838871
vt 0.065529 0.838871
vt 0.065529 0.889671
vt 0.065529 0.78807
vt 0.065529 0.838871
vt 0.230808 0.838871
vt 0.230808 0.78807
vn 1 0 0
vn 1 0 0
vn 1 0 0
vn 1 0 0
vn 1 0 0
vn 1 0 0
vn 1 0 0
vn 1 0 0
vn 1 0 0
vn 1 0 0
vn 1 0 0
vn 1 0 0
vn -1 0 0
vn -1 0 0
vn -1 0 0
vn -1 0 0
vn -1 0 0
vn -1 0 0
vn -1 0 0
vn -1 0 0
vn -1 0 0
vn -1 0 0
vn -1 0 0
vn -1 0 0
vn 0 -1 0
vn 0 -1 0
vn 0 -1 0
vn 0 -1 0
vn 0 -1 0
vn 0 -1 0
vn 0 1 0
vn 0 1 0
vn 0 1 0
vn 0 1 0
vn 0 0 -1
vn 0 0 -1
vn 0 0 -1
vn 0 0 -1
vn 0 0 -1
vn 0 0 -1
vn 0 0 -1
vn 0 0 -1
vn 0 0 1
vn 0 0 1
vn 0 0 1
vn 0 0 1
vn 0 0 1
vn 0 0 1
vn 0 0 -1
vn 0 0 -1
vn 0 0 -1
vn 0 0 -1
vn 0 1 0
vn 0 1 0
vn 0 1 0
vn 0 1 0
vn 0 0.7071068 0.7071068
vn 0 0.7071068 0.7071068
vn 0 0.7071068 0.7071068
vn 0 0.7071068 0.7071068
vn 0 0 1
vn 0 0 1
vn 0 0 1
vn 0 0 1
g DoorsARight_0
f 3/3/3 2/2/2 1/1/1
f 4/4/4 2/2/2 3/3/3
f 5/5/5 2/2/2 4/4/4
f 6/6/6 2/2/2 5/5/5
f 5/5/5 7/7/7 6/6/6
f 8/8/8 2/2/2 6/6/6
f 7/7/7 9/9/9 6/6/6
f 6/6/6 10/10/10 8/8/8
f 6/6/6 9/9/9 10/10/10
f 10/10/10 11/11/11 8/8/8
f 9/9/9 12/12/12 10/10/10
f 15/15/15 14/14/14 13/13/13
f 15/15/15 16/16/16 14/14/14
f 15/15/15 17/17/17 16/16/16
f 15/15/15 18/18/18 17/17/17
f 19/19/19 17/17/17 18/18/18
f 15/15/15 20/20/20 18/18/18
f 21/21/21 19/19/19 18/18/18
f 22/22/22 18/18/18 20/20/20
f 21/21/21 18/18/18 22/22/22
f 23/23/23 22/22/22 20/20/20
f 24/24/24 21/21/21 22/22/22
f 27/27/27 26/26/26 25/25/25
f 28/28/28 27/27/27 25/25/25
f 28/28/28 25/25/25 29/29/29
f 30/30/30 28/28/28 29/29/29
f 33/33/33 32/32/32 31/31/31
f 34/34/34 33/33/33 31/31/31
f 37/37/37 36/36/36 35/35/35
f 36/36/36 38/38/38 35/35/35
f 36/36/36 39/39/39 38/38/38
f 39/39/39 40/40/40 38/38/38
f 39/39/39 41/41/41 40/40/40
f 41/41/41 42/42/42 40/40/40
f 45/45/45 44/44/44 43/43/43
f 44/44/44 46/46/46 43/43/43
f 44/44/44 47/47/47 46/46/46
f 47/47/47 48/48/48 46/46/46
f 51/51/51 50/50/50 49/49/49
f 52/52/52 51/51/51 49/49/49
f 55/55/55 54/54/54 53/53/53
f 56/56/56 55/55/55 53/53/53
f 59/59/59 58/58/58 57/57/57
f 60/60/60 59/59/59 57/57/57
f 63/63/63 62/62/62 61/61/61
f 64/64/64 63/63/63 61/61/61
