g DoorsFRight
v 0.437764 0 0.374761
v 0.437764 0 -0.000239
v 0.375264 0 -0.000239
v 0.375264 0 0.374761
v 0.375191 1.856655 0.106074
v 0.375264 1.875 -0.000239
v 0.437764 1.875 -0.000239
v 0.437692 1.856655 0.106074
v 0.375264 0 -0.000239
v 0.375191 1.5625 0.374735
v 0.375264 0 0.374761
v 0.375191 1.645041 0.344732
v 0.375191 1.735581 0.287903
v 0.375191 1.810222 0.208706
v 0.375264 1.875 -0.000239
v 0.375191 1.856655 0.106074
v 0.375191 1.5625 0.374735
v 0.437691 1.5625 0.374735
v 0.437764 0 0.374761
v 0.375264 0 0.374761
v 0.375264 1.875 -0.000239
v 0.375264 0 -0.000239
v 0.437764 0 -0.000239
v 0.437764 1.875 -0.000239
v 0.437764 0 -0.000239
v 0.437692 1.856655 0.106074
v 0.437764 1.875 -0.000239
v 0.437691 1.810222 0.208706
v 0.437691 1.735581 0.287903
v 0.437691 1.645041 0.344732
v 0.437764 0 0.374761
v 0.437691 1.5625 0.374735
v 0.375191 1.5625 0.374735
v 0.375191 1.645041 0.344732
v 0.437691 1.645041 0.344732
v 0.437691 1.5625 0.374735
v 0.375191 1.645041 0.344732
v 0.375191 1.735581 0.287903
v 0.437691 1.735581 0.287903
v 0.437691 1.645041 0.344732
v 0.375191 1.735581 0.287903
v 0.375191 1.810222 0.208706
v 0.437691 1.810222 0.208706
v 0.437691 1.735581 0.287903
v 0.375191 1.810222 0.208706
v 0.375191 1.856655 0.106074
v 0.437692 1.856655 0.106074
v 0.437691 1.810222 0.208706
vt 0.235816 0.001559
vt 0.235816 0.001559
vt 0.001441 0.001559
vt 0.001441 0.001559
vt 0.001441 1.001559
vt 0.001441 1.001559
vt 0.235816 1.001559
vt 0.235816 1.001559
vt 0.996111 0.001682
vt 0.233952 0.829765
vt 0.233899 0.001682
vt 0.294933 0.873509
vt 0.410442 0.921493
vt 0.571416 0.96105
vt 0.996109 0.995381
vt 0.780021 0.985659
vt 0.001441 0.751559
vt 0.235816 0.751559
vt 0.235816 0.001559
vt 0.001441 0.001559
vt 0.001441 1.001559
vt 0.001441 0.001559
vt 0.235816 0.001559
vt 0.235816 1.001559
vt 0.996111 0.001682
vt 0.780021 0.985659
vt 0.996109 0.995381
vt 0.571416 0.96105
vt 0.410442 0.921493
vt 0.294933 0.873509
vt 0.233899 0.001682
vt 0.233952 0.829764
vt 0.001441 0.751559
vt 0.001441 0.751559
vt 0.235816 0.751559
vt 0.235816 0.751559
vt 0.001441 0.751559
vt 0.001441 0.876559
vt 0.235816 0.876559
vt 0.235816 0.751559
vt 0.001441 0.876559
vt 0.001441 0.876559
vt 0.235816 0.876559
vt 0.235816 0.876559
vt 0.001441 0.876559
vt 0.001441 1.001559
vt 0.235816 1.001559
vt 0.235816 0.876559
vn 0 -1 0
vn 0 -1 0
vn 0 -1 0
vn 0 -1 0
vn 0 0.9854367 0.170043
vn 0 0.9854367 0.170043
vn 0 0.9854367 0.170043
vn 0 0.9854367 0.170043
vn -1 -4.4E-05 0
vn -1 -4.4E-05 0
vn -1 -4.4E-05 0
vn -1 -4.4E-05 0
vn -1 -3.5E-05 -4.3E-05
vn -1 -3.5E-05 -4.3E-05
vn -1 -1.9E-05 -0.000353
vn -1 -1.9E-05 -0.000353
vn 0 1.7E-05 1
vn 0 1.7E-05 1
vn 0 1.7E-05 1
vn 0 1.7E-05 1
vn 0 0 -1
vn 0 0 -1
vn 0 0 -1
vn 0 0 -1
vn 1 1.9E-05 0.000353
vn 1 1.9E-05 0.000353
vn 1 1.9E-05 0.000353
vn 1 1.9E-05 0.000353
vn 1 3.5E-05 4.3E-05
vn 1 3.5E-05 4.3E-05
vn 1 4.4E-05 0
vn 1 4.4E-05 0
vn 0 0.341615 0.93984
vn 0 0.341615 0.93984
vn 0 0.341615 0.93984
vn 0 0.341615 0.93984
vn 0 0.5316249 0.8469799
vn 0 0.5316249 0.8469799
vn 0 0.5316249 0.8469799
vn 0 0.5316249 0.8469799
vn 0 0.7277308 0.6858628
vn 0 0.7277308 0.6858628
vn 0 0.7277308 0.6858628
vn 0 0.7277308 0.6858628
vn 0 0.911092 0.412203
vn 0 0.911092 0.412203
vn 0 0.911092 0.412203
vn 0 0.911092 0.412203
g DoorsFRight_0
f 3/3/3 2/2/2 1/1/1
f 4/4/4 3/3/3 1/1/1
f 7/7/7 6/6/6 5/5/5
f 8/8/8 7/7/7 5/5/5
f 11/11/11 10/10/10 9/9/9
f 10/10/10 12/12/12 9/9/9
f 12/12/12 13/13/13 9/9/9
f 13/13/13 14/14/14 9/9/9
f 9/9/9 14/14/14 15/15/15
f 14/14/14 16/16/16 15/15/15
f 19/19/19 18/18/18 17/17/17
f 20/20/20 19/19/19 17/17/17
f 23/23/23 22/22/22 21/21/21
f 24/24/24 23/23/23 21/21/21
f 27/27/27 26/26/26 25/25/25
f 26/26/26 28/28/28 25/25/25
f 28/28/28 29/29/29 25/25/25
f 29/29/29 30/30/30 25/25/25
f 25/25/25 30/30/30 31/31/31
f 30/30/30 32/32/32 31/31/31
f 35/35/35 34/34/34 33/33/33
f 36/36/36 35/35/35 33/33/33
f 39/39/39 38/38/38 37/37/37
f 40/40/40 39/39/39 37/37/37
f 43/43/43 42/42/42 41/41/41
f 44/44/44 43/43/43 41/41/41
f 47/47/47 46/46/46 45/45/45
f 48/48/48 47/47/47 45/45/45
