g DreidelBottom
v -2.5 2.5 -1
v -2.5 0 -1
v 0 0 -2
v 2.5 0 -1
v 2.5 2.5 -1
v 0 0 -2
v -2.5 -2.5 -1
v 0 0 -2
v -2.5 0 -1
v 2.5 0 -1
v 0 0 -2
v 2.5 -2.5 -1
v 0 0 0
v 2.5 2.5 0
v 2.5 0 0
v 0 2.5 0
v -2.5 0 0
v -2.5 2.5 0
v 2.5 0 0
v 2.5 2.5 0
v 2.5 2.5 -1
v 2.5 0 -1
v 2.5 2.5 0
v 0 2.5 0
v 0 2.5 -1
v 2.5 2.5 -1
v 0 2.5 0
v -2.5 2.5 0
v -2.5 2.5 -1
v 0 2.5 -1
v -2.5 2.5 0
v -2.5 0 0
v -2.5 0 -1
v -2.5 2.5 -1
v 0 0 -2
v 2.5 2.5 -1
v 0 2.5 -1
v -2.5 2.5 -1
v 0 0 0
v 2.5 0 0
v 2.5 -2.5 0
v 0 -2.5 0
v -2.5 0 0
v -2.5 -2.5 0
v 2.5 0 0
v 2.5 0 -1
v 2.5 -2.5 -1
v 2.5 -2.5 0
v 2.5 -2.5 0
v 2.5 -2.5 -1
v 0 -2.5 -1
v 0 -2.5 0
v 0 -2.5 0
v 0 -2.5 -1
v -2.5 -2.5 -1
v -2.5 -2.5 0
v -2.5 -2.5 0
v -2.5 -2.5 -1
v -2.5 0 -1
v -2.5 0 0
v 0 -2.5 -1
v 2.5 -2.5 -1
v 0 0 -2
v -2.5 -2.5 -1
vt 0.265625 0.171875
vt 0.265625 0.164062
vt 0.273438 0.164062
vt 0.265625 0.171875
vt 0.265625 0.179688
vt 0.257812 0.171875
vt 0.265625 0.171875
vt 0.273438 0.164062
vt 0.265625 0.164062
vt 0.265625 0.171875
vt 0.257812 0.171875
vt 0.265625 0.179688
vt 0.273438 0.171875
vt 0.285156 0.179688
vt 0.285156 0.171875
vt 0.273438 0.179688
vt 0.265625 0.171875
vt 0.265625 0.179688
vt 1 0.4375
vt 0.6875 0.4375
vt 0.6875 0.3125
vt 1 0.3125
vt 0.6875 0.4375
vt 1 0.4375
vt 1 0.3125
vt 0.6875 0.3125
vt 1 0.4375
vt 0.6875 0.4375
vt 0.6875 0.3125
vt 1 0.3125
vt 0.6875 0.4375
vt 1 0.4375
vt 1 0.3125
vt 0.6875 0.3125
vt 0.257812 0.164062
vt 0.265625 0.171875
vt 0.257812 0.171875
vt 0.246094 0.171875
vt 0.273438 0.171875
vt 0.285156 0.171875
vt 0.285156 0.179688
vt 0.273438 0.179688
vt 0.265625 0.171875
vt 0.265625 0.179688
vt 1 0.4375
vt 1 0.3125
vt 0.6875 0.3125
vt 0.6875 0.4375
vt 0.6875 0.4375
vt 0.6875 0.3125
vt 1 0.3125
vt 1 0.4375
vt 1 0.4375
vt 1 0.3125
vt 0.6875 0.3125
vt 0.6875 0.4375
vt 0.6875 0.4375
vt 0.6875 0.3125
vt 1 0.3125
vt 1 0.4375
vt 0.257812 0.171875
vt 0.265625 0.171875
vt 0.257812 0.164062
vt 0.246094 0.171875
vn -0.3713908 0 -0.9284766
vn -0.3713908 0 -0.9284766
vn -0.3713908 0 -0.9284766
vn 0.3713908 0 -0.9284766
vn 0.3713908 0 -0.9284766
vn 0.3713908 0 -0.9284766
vn -0.3713908 0 -0.9284766
vn -0.3713908 0 -0.9284766
vn -0.3713908 0 -0.9284766
vn 0.3713908 0 -0.9284766
vn 0.3713908 0 -0.9284766
vn 0.3713908 0 -0.9284766
vn 0 0 1
vn 0 0 1
vn 0 0 1
vn 0 0 1
vn 0 0 1
vn 0 0 1
vn 1 0 0
vn 1 0 0
vn 1 0 0
vn 1 0 0
vn 0 1 0
vn 0 1 0
vn 0 1 0
vn 0 1 0
vn 0 1 0
vn 0 1 0
vn 0 1 0
vn 0 1 0
vn -1 0 0
vn -1 0 0
vn -1 0 0
vn -1 0 0
vn 0 0.3713908 -0.9284766
vn 0 0.3713908 -0.9284766
vn 0 0.3713908 -0.9284766
vn 0 0.3713908 -0.9284766
vn 0 0 1
vn 0 0 1
vn 0 0 1
vn 0 0 1
vn 0 0 1
vn 0 0 1
vn 1 0 0
vn 1 0 0
vn 1 0 0
vn 1 0 0
vn 0 -1 0
vn 0 -1 0
vn 0 -1 0
vn 0 -1 0
vn 0 -1 0
vn 0 -1 0
vn 0 -1 0
vn 0 -1 0
vn -1 0 0
vn -1 0 0
vn -1 0 0
vn -1 0 0
vn 0 -0.3713908 -0.9284766
vn 0 -0.3713908 -0.9284766
vn 0 -0.3713908 -0.9284766
vn 0 -0.3713908 -0.9284766
g DreidelBottom_0
f 3/3/3 2/2/2 1/1/1
f 6/6/6 5/5/5 4/4/4
f 9/9/9 8/8/8 7/7/7
f 12/12/12 11/11/11 10/10/10
f 15/15/15 14/14/14 13/13/13
f 14/14/14 16/16/16 13/13/13
f 13/13/13 16/16/16 17/17/17
f 16/16/16 18/18/18 17/17/17
f 21/21/21 20/20/20 19/19/19
f 22/22/22 21/21/21 19/19/19
f 25/25/25 24/24/24 23/23/23
f 26/26/26 25/25/25 23/23/23
f 29/29/29 28/28/28 27/27/27
f 30/30/30 29/29/29 27/27/27
f 33/33/33 32/32/32 31/31/31
f 34/34/34 33/33/33 31/31/31
f 37/37/37 36/36/36 35/35/35
f 35/35/35 38/38/38 37/37/37
f 41/41/41 40/40/40 39/39/39
f 42/42/42 41/41/41 39/39/39
f 42/42/42 39/39/39 43/43/43
f 44/44/44 42/42/42 43/43/43
f 47/47/47 46/46/46 45/45/45
f 48/48/48 47/47/47 45/45/45
f 51/51/51 50/50/50 49/49/49
f 52/52/52 51/51/51 49/49/49
f 55/55/55 54/54/54 53/53/53
f 56/56/56 55/55/55 53/53/53
f 59/59/59 58/58/58 57/57/57
f 60/60/60 59/59/59 57/57/57
f 63/63/63 62/62/62 61/61/61
f 61/61/61 64/64/64 63/63/63
