g FishBig
v -0.015334 -0.144791 0.126978
v -0.043798 -0.043182 0.119056
v -0.003491 -0.04224 0.146919
v 0.015334 -0.144791 0.126978
v 0.043798 -0.043182 0.119056
v 0.026673 -0.14762 0.108174
v 0 0.238094 0.071394
v -0.024899 0.190392 0.100816
v -0.031971 0.189457 0.073174
v 0 0.238094 0.071394
v -0.006387 0.19097 0.117899
v -0.024899 0.190392 0.100816
v -0.006387 0.187944 0.028449
v 0 0.354189 -0.013538
v 0 0.238094 0.071394
v 0 0.238094 0.071394
v 0.024899 0.190392 0.100816
v 0.006387 0.19097 0.117899
v 0 0.238094 0.071394
v 0.031971 0.189457 0.073174
v 0.024899 0.190392 0.100816
v 0 0.238094 0.071394
v 0.024899 0.188522 0.045532
v 0.031971 0.189457 0.073174
v 0 0.238094 0.071394
v 0.006387 0.187944 0.028449
v 0.024899 0.188522 0.045532
v 0 0.238094 0.071394
v -0.024899 0.188522 0.045532
v -0.006387 0.187944 0.028449
v 0 0.238094 0.071394
v -0.031971 0.189457 0.073174
v -0.024899 0.188522 0.045532
v 0.035347 -0.148767 0.074268
v 0 -0.235189 0.074875
v 0.026673 -0.14762 0.108174
v -0.035347 -0.148767 0.074268
v 0 -0.235189 0.074875
v -0.026673 -0.149914 0.040362
v -0.026673 -0.14762 0.108174
v 0 -0.235189 0.074875
v -0.035347 -0.148767 0.074268
v -0.026673 -0.149914 0.040362
v 0 -0.235189 0.074875
v -0.014927 -0.150623 0.019408
v 0.026673 -0.14762 0.108174
v 0 -0.235189 0.074875
v 0.015334 -0.144791 0.126978
v -0.014927 -0.150623 0.019408
v 0 -0.235189 0.074875
v 0.014927 -0.150623 0.019408
v 0.015334 -0.144791 0.126978
v 0 -0.235189 0.074875
v -0.015334 -0.144791 0.126978
v 0.014927 -0.150623 0.019408
v 0 -0.235189 0.074875
v 0.026673 -0.149914 0.040362
v 0.026673 -0.149914 0.040362
v 0 -0.235189 0.074875
v 0.035347 -0.148767 0.074268
v -0.015334 -0.144791 0.126978
v 0 -0.235189 0.074875
v -0.026673 -0.14762 0.108174
v -0.026673 -0.14762 0.108174
v -0.043798 -0.043182 0.119056
v -0.015334 -0.144791 0.126978
v 0.003491 -0.04224 0.146919
v 0.043798 -0.043182 0.119056
v 0.015334 -0.144791 0.126978
v 0 0.238094 0.071394
v 0 0.354189 -0.013538
v 0.006387 0.187944 0.028449
v 0.006387 0.19097 0.117899
v 0 0.354226 0.148451
v 0 0.238094 0.071394
v -0.006387 0.19097 0.117899
v 0 0.354226 0.148451
v 0.006387 0.19097 0.117899
v 0 0.238094 0.071394
v 0 0.354226 0.148451
v -0.006387 0.19097 0.117899
v 0.006387 0.187944 0.028449
v 0 0.354189 -0.013538
v -0.006387 0.187944 0.028449
v -0.043798 0.027054 0.118223
v -0.003491 0.027997 0.146085
v -0.003491 -0.04224 0.146919
v -0.043798 -0.043182 0.119056
v -0.043798 0.027054 0.118223
v -0.024899 0.190392 0.100816
v -0.006387 0.19097 0.117899
v -0.003491 0.027997 0.146085
v -0.015334 -0.144791 0.126978
v -0.003491 -0.04224 0.146919
v 0.003491 -0.04224 0.146919
v 0.015334 -0.144791 0.126978
v -0.003491 0.027997 0.146085
v -0.006387 0.19097 0.117899
v 0.006387 0.19097 0.117899
v 0.003491 0.027997 0.146085
v 0.003491 -0.04224 0.146919
v 0.002089 0.024977 0.183201
v 0.003491 0.027997 0.146085
v 0.003107 -0.026909 0.183817
v 0.002694 0.026442 0.222427
v 0.002421 0.006101 0.215171
v 0.006387 0.19097 0.117899
v 0.024899 0.190392 0.100816
v 0.043798 0.027054 0.118223
v 0.003491 0.027997 0.146085
v 0.026673 -0.14762 0.108174
v 0.043798 -0.043182 0.119056
v 0.055331 -0.044707 0.073974
v 0.035347 -0.148767 0.074268
v 0.003491 0.027997 0.146085
v 0.043798 0.027054 0.118223
v 0.043798 -0.043182 0.119056
v 0.003491 -0.04224 0.146919
v 0.043798 0.027054 0.118223
v 0.055331 0.025529 0.073141
v 0.055331 -0.044707 0.073974
v 0.043798 -0.043182 0.119056
v 0.043798 0.027054 0.118223
v 0.024899 0.190392 0.100816
v 0.031971 0.189457 0.073174
v 0.055331 0.025529 0.073141
v 0.055331 0.025529 0.073141
v 0.031971 0.189457 0.073174
v 0.024899 0.188522 0.045532
v 0.043799 0.024004 0.028059
v 0.055331 -0.044707 0.073974
v 0.043799 -0.046232 0.028892
v 0.026673 -0.149914 0.040362
v 0.035347 -0.148767 0.074268
v 0.026673 -0.149914 0.040362
v 0.043799 -0.046232 0.028892
v 0.013606 -0.047175 0.001029
v 0.014927 -0.150623 0.019408
v 0.055331 0.025529 0.073141
v 0.043799 0.024004 0.028059
v 0.043799 -0.046232 0.028892
v 0.055331 -0.044707 0.073974
v 0.043799 0.024004 0.028059
v 0.013606 0.023062 0.000196
v 0.013606 -0.047175 0.001029
v 0.043799 -0.046232 0.028892
v 0.043799 0.024004 0.028059
v 0.024899 0.188522 0.045532
v 0.006387 0.187944 0.028449
v 0.013606 0.023062 0.000196
v 0.014927 -0.150623 0.019408
v 0.013606 -0.047175 0.001029
v -0.013606 -0.047175 0.001029
v -0.014927 -0.150623 0.019408
v 0.013606 0.023062 0.000196
v 0.006387 0.187944 0.028449
v -0.006387 0.187944 0.028449
v -0.013606 0.023062 0.000196
v -0.006387 0.187944 0.028449
v -0.024899 0.188522 0.045532
v -0.043799 0.024004 0.028059
v -0.013606 0.023062 0.000196
v 0.013606 0.023062 0.000196
v -0.013606 0.023062 0.000196
v -0.013606 -0.047175 0.001029
v 0.013606 -0.047175 0.001029
v -0.014927 -0.150623 0.019408
v -0.013606 -0.047175 0.001029
v -0.043799 -0.046232 0.028892
v -0.026673 -0.149914 0.040362
v -0.013606 0.023062 0.000196
v -0.043799 0.024004 0.028059
v -0.043799 -0.046232 0.028892
v -0.013606 -0.047175 0.001029
v -0.043799 0.024004 0.028059
v -0.024899 0.188522 0.045532
v -0.031971 0.189457 0.073174
v -0.055331 0.025529 0.073141
v -0.031971 0.189457 0.073174
v -0.024899 0.190392 0.100816
v -0.043798 0.027054 0.118223
v -0.055331 0.025529 0.073141
v -0.026673 -0.149914 0.040362
v -0.043799 -0.046232 0.028892
v -0.055331 -0.044707 0.073974
v -0.035347 -0.148767 0.074268
v -0.055331 0.025529 0.073141
v -0.043798 0.027054 0.118223
v -0.043798 -0.043182 0.119056
v -0.055331 -0.044707 0.073974
v -0.043799 0.024004 0.028059
v -0.055331 0.025529 0.073141
v -0.055331 -0.044707 0.073974
v -0.043799 -0.046232 0.028892
v -0.055331 -0.044707 0.073974
v -0.043798 -0.043182 0.119056
v -0.026673 -0.14762 0.108174
v -0.035347 -0.148767 0.074268
v 0.002089 0.024977 0.183201
v 0.002694 0.026442 0.222427
v -0.002694 0.026442 0.222427
v -0.002089 0.024977 0.183201
v -0.003491 0.027997 0.146085
v -0.003107 -0.026909 0.183817
v -0.003491 -0.04224 0.146919
v -0.002089 0.024977 0.183201
v -0.002421 0.006101 0.215171
v -0.002694 0.026442 0.222427
v 0.003491 0.027997 0.146085
v 0.002089 0.024977 0.183201
v -0.002089 0.024977 0.183201
v -0.003491 0.027997 0.146085
v -0.003491 -0.04224 0.146919
v -0.003107 -0.026909 0.183817
v 0.003107 -0.026909 0.183817
v 0.003491 -0.04224 0.146919
v -0.002694 0.026442 0.222427
v 0.002694 0.026442 0.222427
v 0.002421 0.006101 0.215171
v -0.002421 0.006101 0.215171
v -0.003107 -0.026909 0.183817
v -0.002421 0.006101 0.215171
v 0.002421 0.006101 0.215171
v 0.003107 -0.026909 0.183817
vt 0.030349 0.973088
vt 0.035425 0.972423
vt 0.035504 0.974762
vt 0.030349 0.973088
vt 0.035425 0.972423
vt 0.030112 0.971509
vt 0.045947 0.968421
vt 0.044979 0.970891
vt 0.044901 0.968571
vt 0.045947 0.968421
vt 0.045028 0.972326
vt 0.044979 0.970891
vt 0.044774 0.964816
vt 0.044774 0.964816
vt 0.045947 0.968421
vt 0.045947 0.968421
vt 0.044979 0.970891
vt 0.045028 0.972326
vt 0.045947 0.968421
vt 0.044901 0.968571
vt 0.044979 0.970891
vt 0.045947 0.968421
vt 0.044822 0.96625
vt 0.044901 0.968571
vt 0.045947 0.968421
vt 0.044774 0.964816
vt 0.044822 0.96625
vt 0.045947 0.968421
vt 0.044822 0.96625
vt 0.044774 0.964816
vt 0.045947 0.968421
vt 0.044901 0.968571
vt 0.044822 0.96625
vt 0.030015 0.968663
vt 0.026937 0.968714
vt 0.030112 0.971509
vt 0.030015 0.968663
vt 0.026937 0.968714
vt 0.029919 0.965816
vt 0.030112 0.971509
vt 0.026937 0.968714
vt 0.030015 0.968663
vt 0.029919 0.965816
vt 0.026937 0.968714
vt 0.02986 0.964057
vt 0.030112 0.971509
vt 0.026937 0.968714
vt 0.030349 0.973088
vt 0.02986 0.964057
vt 0.026937 0.968714
vt 0.02986 0.964057
vt 0.030349 0.973088
vt 0.026937 0.968714
vt 0.030349 0.973088
vt 0.02986 0.964057
vt 0.026937 0.968714
vt 0.029919 0.965816
vt 0.029919 0.965816
vt 0.026937 0.968714
vt 0.030015 0.968663
vt 0.030349 0.973088
vt 0.026937 0.968714
vt 0.030112 0.971509
vt 0.030112 0.971509
vt 0.035425 0.972423
vt 0.030349 0.973088
vt 0.035504 0.974762
vt 0.035425 0.972423
vt 0.030349 0.973088
vt 0.045947 0.968421
vt 0.045947 0.968421
vt 0.044774 0.964816
vt 0.045028 0.972326
vt 0.045028 0.972326
vt 0.045947 0.968421
vt 0.045028 0.972326
vt 0.045028 0.972326
vt 0.045028 0.972326
vt 0.045947 0.968421
vt 0.045947 0.968421
vt 0.045028 0.972326
vt 0.044774 0.964816
vt 0.044774 0.964816
vt 0.044774 0.964816
vt 0.041321 0.972353
vt 0.041401 0.974692
vt 0.035504 0.974762
vt 0.035425 0.972423
vt 0.041321 0.972353
vt 0.044979 0.970891
vt 0.045028 0.972326
vt 0.041401 0.974692
vt 0.030349 0.973088
vt 0.035504 0.974762
vt 0.035504 0.974762
vt 0.030349 0.973088
vt 0.041401 0.974692
vt 0.045028 0.972326
vt 0.045028 0.972326
vt 0.041401 0.974692
vt 0.035504 0.974762
vt 0.041147 0.977808
vt 0.041401 0.974692
vt 0.036791 0.977859
vt 0.040144 0.978817
vt 0.038343 0.979028
vt 0.045028 0.972326
vt 0.044979 0.970891
vt 0.041321 0.972353
vt 0.041401 0.974692
vt 0.030112 0.971509
vt 0.035425 0.972423
vt 0.035297 0.968638
vt 0.030015 0.968663
vt 0.041401 0.974692
vt 0.041321 0.972353
vt 0.035425 0.972423
vt 0.035504 0.974762
vt 0.041321 0.972353
vt 0.041193 0.968568
vt 0.035297 0.968638
vt 0.035425 0.972423
vt 0.041321 0.972353
vt 0.044979 0.970891
vt 0.044901 0.968571
vt 0.041193 0.968568
vt 0.041193 0.968568
vt 0.044901 0.968571
vt 0.044822 0.96625
vt 0.041065 0.964783
vt 0.035297 0.968638
vt 0.035169 0.964853
vt 0.029919 0.965816
vt 0.030015 0.968663
vt 0.029919 0.965816
vt 0.035169 0.964853
vt 0.03509 0.962514
vt 0.02986 0.964057
vt 0.041193 0.968568
vt 0.041065 0.964783
vt 0.035169 0.964853
vt 0.035297 0.968638
vt 0.041065 0.964783
vt 0.040986 0.962444
vt 0.03509 0.962514
vt 0.035169 0.964853
vt 0.041065 0.964783
vt 0.044822 0.96625
vt 0.044774 0.964816
vt 0.040986 0.962444
vt 0.02986 0.964057
vt 0.03509 0.962514
vt 0.03509 0.962514
vt 0.02986 0.964057
vt 0.040986 0.962444
vt 0.044774 0.964816
vt 0.044774 0.964816
vt 0.040986 0.962444
vt 0.044774 0.964816
vt 0.044822 0.96625
vt 0.041065 0.964783
vt 0.040986 0.962444
vt 0.040986 0.962444
vt 0.040986 0.962444
vt 0.03509 0.962514
vt 0.03509 0.962514
vt 0.02986 0.964057
vt 0.03509 0.962514
vt 0.035169 0.964853
vt 0.029919 0.965816
vt 0.040986 0.962444
vt 0.041065 0.964783
vt 0.035169 0.964853
vt 0.03509 0.962514
vt 0.041065 0.964783
vt 0.044822 0.96625
vt 0.044901 0.968571
vt 0.041193 0.968568
vt 0.044901 0.968571
vt 0.044979 0.970891
vt 0.041321 0.972353
vt 0.041193 0.968568
vt 0.029919 0.965816
vt 0.035169 0.964853
vt 0.035297 0.968638
vt 0.030015 0.968663
vt 0.041193 0.968568
vt 0.041321 0.972353
vt 0.035425 0.972423
vt 0.035297 0.968638
vt 0.041065 0.964783
vt 0.041193 0.968568
vt 0.035297 0.968638
vt 0.035169 0.964853
vt 0.035297 0.968638
vt 0.035425 0.972423
vt 0.030112 0.971509
vt 0.030015 0.968663
vt 0.041147 0.977808
vt 0.040144 0.978817
vt 0.040144 0.978817
vt 0.041147 0.977808
vt 0.041401 0.974692
vt 0.036791 0.977859
vt 0.035504 0.974762
vt 0.041147 0.977808
vt 0.038343 0.979028
vt 0.040144 0.978817
vt 0.041401 0.974692
vt 0.041147 0.977808
vt 0.041147 0.977808
vt 0.041401 0.974692
vt 0.035504 0.974762
vt 0.036791 0.977859
vt 0.036791 0.977859
vt 0.035504 0.974762
vt 0.040144 0.978817
vt 0.040144 0.978817
vt 0.038343 0.979028
vt 0.038343 0.979028
vt 0.036791 0.977859
vt 0.038343 0.979028
vt 0.038343 0.979028
vt 0.036791 0.977859
vn -0.5645989 -0.09423699 0.8199679
vn -0.5645989 -0.09423699 0.8199679
vn -0.5645989 -0.09423699 0.8199679
vn 0.8276862 -0.190717 0.5277901
vn 0.8276862 -0.190717 0.5277901
vn 0.8276862 -0.190717 0.5277901
vn -0.8170961 0.544075 0.190621
vn -0.8170961 0.544075 0.190621
vn -0.8170961 0.544075 0.190621
vn -0.5383857 0.6277668 0.5621828
vn -0.5383857 0.6277668 0.5621828
vn -0.5383857 0.6277668 0.5621828
vn -0.9950987 0.05838698 0.07980998
vn -0.9950987 0.05838698 0.07980998
vn -0.9950987 0.05838698 0.07980998
vn 0.5383857 0.6277668 0.5621828
vn 0.5383857 0.6277668 0.5621828
vn 0.5383857 0.6277668 0.5621828
vn 0.8170961 0.544075 0.190621
vn 0.8170961 0.544075 0.190621
vn 0.8170961 0.544075 0.190621
vn 0.8176033 0.5291243 -0.2270511
vn 0.8176033 0.5291243 -0.2270511
vn 0.8176033 0.5291243 -0.2270511
vn 0.5394427 0.5862687 -0.6043927
vn 0.5394427 0.5862687 -0.6043927
vn 0.5394427 0.5862687 -0.6043927
vn -0.5394427 0.5862687 -0.6043927
vn -0.5394427 0.5862687 -0.6043927
vn -0.5394427 0.5862687 -0.6043927
vn -0.8176033 0.5291243 -0.2270511
vn -0.8176033 0.5291243 -0.2270511
vn -0.8176033 0.5291243 -0.2270511
vn 0.8986014 -0.3658291 0.2422491
vn 0.8986014 -0.3658291 0.2422491
vn 0.8986014 -0.3658291 0.2422491
vn -0.9026969 -0.37074 -0.218381
vn -0.9026969 -0.37074 -0.218381
vn -0.9026969 -0.37074 -0.218381
vn -0.8986014 -0.3658291 0.2422491
vn -0.8986014 -0.3658291 0.2422491
vn -0.8986014 -0.3658291 0.2422491
vn -0.7961162 -0.4238321 -0.4319321
vn -0.7961162 -0.4238321 -0.4319321
vn -0.7961162 -0.4238321 -0.4319321
vn 0.7465339 -0.422758 0.513773
vn 0.7465339 -0.422758 0.513773
vn 0.7465339 -0.422758 0.513773
vn 0 -0.5484592 -0.8361773
vn 0 -0.5484592 -0.8361773
vn 0 -0.5484592 -0.8361773
vn 0 -0.4993641 0.8663923
vn 0 -0.4993641 0.8663923
vn 0 -0.4993641 0.8663923
vn 0.7961162 -0.4238321 -0.4319321
vn 0.7961162 -0.4238321 -0.4319321
vn 0.7961162 -0.4238321 -0.4319321
vn 0.9026969 -0.37074 -0.218381
vn 0.9026969 -0.37074 -0.218381
vn 0.9026969 -0.37074 -0.218381
vn -0.7465339 -0.422758 0.513773
vn -0.7465339 -0.422758 0.513773
vn -0.7465339 -0.422758 0.513773
vn -0.8276858 -0.1907169 0.5277908
vn -0.8276858 -0.1907169 0.5277908
vn -0.8276858 -0.1907169 0.5277908
vn 0.5645989 -0.09423699 0.8199679
vn 0.5645989 -0.09423699 0.8199679
vn 0.5645989 -0.09423699 0.8199679
vn 0.9950987 0.05838698 0.07980998
vn 0.9950987 0.05838698 0.07980998
vn 0.9950987 0.05838698 0.07980998
vn 0.9951786 0.05422698 -0.08172496
vn 0.9951786 0.05422698 -0.08172496
vn 0.9951786 0.05422698 -0.08172496
vn 0 -0.1839449 0.9829365
vn 0 -0.1839449 0.9829365
vn 0 -0.1839449 0.9829365
vn -0.9951786 0.05422698 -0.08172496
vn -0.9951786 0.05422698 -0.08172496
vn -0.9951786 0.05422698 -0.08172496
vn 0 -0.2448681 -0.9695565
vn 0 -0.2448681 -0.9695565
vn 0 -0.2448681 -0.9695565
vn -0.568748 0.009756 0.822454
vn -0.568748 0.009756 0.822454
vn -0.568748 0.009756 0.822454
vn -0.568748 0.009756 0.822454
vn -0.6035129 0.139294 0.7850919
vn -0.6035129 0.139294 0.7850919
vn -0.6035129 0.139294 0.7850919
vn -0.6035129 0.139294 0.7850919
vn 0 -0.1908701 0.9816154
vn 0 -0.1908701 0.9816154
vn 0 -0.1908701 0.9816154
vn 0 -0.1908701 0.9816154
vn 0 0.1704189 0.9853716
vn 0 0.1704189 0.9853716
vn 0 0.1704189 0.9853716
vn 0 0.1704189 0.9853716
vn 0.9997051 0.008608001 0.022702
vn 0.9997051 0.008608001 0.022702
vn 0.9997051 0.008608001 0.022702
vn 0.9997051 0.008608001 0.022702
vn 0.9999343 0.010707 -0.004084001
vn 0.9999343 0.010707 -0.004084001
vn 0.6035129 0.139294 0.7850919
vn 0.6035129 0.139294 0.7850919
vn 0.6035129 0.139294 0.7850919
vn 0.6035129 0.139294 0.7850919
vn 0.9511346 -0.1819579 0.2494679
vn 0.9511346 -0.1819579 0.2494679
vn 0.9511346 -0.1819579 0.2494679
vn 0.9511346 -0.1819579 0.2494679
vn 0.568748 0.009756 0.822454
vn 0.568748 0.009756 0.822454
vn 0.568748 0.009756 0.822454
vn 0.568748 0.009756 0.822454
vn 0.9688227 0.002939002 0.2477382
vn 0.9688227 0.002939002 0.2477382
vn 0.9688227 0.002939002 0.2477382
vn 0.9688227 0.002939002 0.2477382
vn 0.9607872 0.136869 0.241153
vn 0.9607872 0.136869 0.241153
vn 0.9607872 0.136869 0.241153
vn 0.9607872 0.136869 0.241153
vn 0.9585946 0.136656 -0.2498429
vn 0.9585946 0.136656 -0.2498429
vn 0.9585946 0.136656 -0.2498429
vn 0.9585946 0.136656 -0.2498429
vn 0.953766 -0.18384 -0.237767
vn 0.953766 -0.18384 -0.237767
vn 0.953766 -0.18384 -0.237767
vn 0.953766 -0.18384 -0.237767
vn 0.7524562 -0.149838 -0.6413722
vn 0.7524562 -0.149838 -0.6413722
vn 0.7524562 -0.149838 -0.6413722
vn 0.7524562 -0.149838 -0.6413722
vn 0.9688227 -0.002938999 -0.2477379
vn 0.9688227 -0.002938999 -0.2477379
vn 0.9688227 -0.002938999 -0.2477379
vn 0.9688227 -0.002938999 -0.2477379
vn 0.6782971 -0.008716001 -0.7347361
vn 0.6782971 -0.008716001 -0.7347361
vn 0.6782971 -0.008716001 -0.7347361
vn 0.6782971 -0.008716001 -0.7347361
vn 0.6674792 0.154054 -0.7285182
vn 0.6674792 0.154054 -0.7285182
vn 0.6674792 0.154054 -0.7285182
vn 0.6674792 0.154054 -0.7285182
vn 0 -0.1749151 -0.9845835
vn 0 -0.1749151 -0.9845835
vn 0 -0.1749151 -0.9845835
vn 0 -0.1749151 -0.9845835
vn 0 0.1688871 -0.9856354
vn 0 0.1688871 -0.9856354
vn 0 0.1688871 -0.9856354
vn 0 0.1688871 -0.9856354
vn -0.6674792 0.154054 -0.7285182
vn -0.6674792 0.154054 -0.7285182
vn -0.6674792 0.154054 -0.7285182
vn -0.6674792 0.154054 -0.7285182
vn 0 -0.011862 -0.9999297
vn 0 -0.011862 -0.9999297
vn 0 -0.011862 -0.9999297
vn 0 -0.011862 -0.9999297
vn -0.7524562 -0.149838 -0.6413722
vn -0.7524562 -0.149838 -0.6413722
vn -0.7524562 -0.149838 -0.6413722
vn -0.7524562 -0.149838 -0.6413722
vn -0.6782971 -0.008716001 -0.7347361
vn -0.6782971 -0.008716001 -0.7347361
vn -0.6782971 -0.008716001 -0.7347361
vn -0.6782971 -0.008716001 -0.7347361
vn -0.9585946 0.136656 -0.2498429
vn -0.9585946 0.136656 -0.2498429
vn -0.9585946 0.136656 -0.2498429
vn -0.9585946 0.136656 -0.2498429
vn -0.9607872 0.136869 0.241153
vn -0.9607872 0.136869 0.241153
vn -0.9607872 0.136869 0.241153
vn -0.9607872 0.136869 0.241153
vn -0.953766 -0.18384 -0.237767
vn -0.953766 -0.18384 -0.237767
vn -0.953766 -0.18384 -0.237767
vn -0.953766 -0.18384 -0.237767
vn -0.9688227 0.002939002 0.2477382
vn -0.9688227 0.002939002 0.2477382
vn -0.9688227 0.002939002 0.2477382
vn -0.9688227 0.002939002 0.2477382
vn -0.9688227 -0.002938999 -0.2477379
vn -0.9688227 -0.002938999 -0.2477379
vn -0.9688227 -0.002938999 -0.2477379
vn -0.9688227 -0.002938999 -0.2477379
vn -0.9511346 -0.1819579 0.2494679
vn -0.9511346 -0.1819579 0.2494679
vn -0.9511346 -0.1819579 0.2494679
vn -0.9511346 -0.1819579 0.2494679
vn 0 0.9993031 -0.037328
vn 0 0.9993031 -0.037328
vn 0 0.9993031 -0.037328
vn 0 0.9993031 -0.037328
vn -0.9997051 0.008608001 0.022702
vn -0.9997051 0.008608001 0.022702
vn -0.9997051 0.008608001 0.022702
vn -0.9997051 0.008608001 0.022702
vn -0.9999343 0.010707 -0.004084001
vn -0.9999343 0.010707 -0.004084001
vn 0 0.996707 0.081087
vn 0 0.996707 0.081087
vn 0 0.996707 0.081087
vn 0 0.996707 0.081087
vn 0 -0.9234616 0.3836909
vn 0 -0.9234616 0.3836909
vn 0 -0.9234616 0.3836909
vn 0 -0.9234616 0.3836909
vn 0 -0.3359779 0.9418698
vn 0 -0.3359779 0.9418698
vn 0 -0.3359779 0.9418698
vn 0 -0.3359779 0.9418698
vn 0 -0.6886899 0.7250559
vn 0 -0.6886899 0.7250559
vn 0 -0.6886899 0.7250559
vn 0 -0.6886899 0.7250559
g FishBig_0
f 3/3/3 2/2/2 1/1/1
f 6/6/6 5/5/5 4/4/4
f 9/9/9 8/8/8 7/7/7
f 12/12/12 11/11/11 10/10/10
f 15/15/15 14/14/14 13/13/13
f 18/18/18 17/17/17 16/16/16
f 21/21/21 20/20/20 19/19/19
f 24/24/24 23/23/23 22/22/22
f 27/27/27 26/26/26 25/25/25
f 30/30/30 29/29/29 28/28/28
f 33/33/33 32/32/32 31/31/31
f 36/36/36 35/35/35 34/34/34
f 39/39/39 38/38/38 37/37/37
f 42/42/42 41/41/41 40/40/40
f 45/45/45 44/44/44 43/43/43
f 48/48/48 47/47/47 46/46/46
f 51/51/51 50/50/50 49/49/49
f 54/54/54 53/53/53 52/52/52
f 57/57/57 56/56/56 55/55/55
f 60/60/60 59/59/59 58/58/58
f 63/63/63 62/62/62 61/61/61
f 66/66/66 65/65/65 64/64/64
f 69/69/69 68/68/68 67/67/67
f 72/72/72 71/71/71 70/70/70
f 75/75/75 74/74/74 73/73/73
f 78/78/78 77/77/77 76/76/76
f 81/81/81 80/80/80 79/79/79
f 84/84/84 83/83/83 82/82/82
f 87/87/87 86/86/86 85/85/85
f 88/88/88 87/87/87 85/85/85
f 91/91/91 90/90/90 89/89/89
f 92/92/92 91/91/91 89/89/89
f 95/95/95 94/94/94 93/93/93
f 96/96/96 95/95/95 93/93/93
f 99/99/99 98/98/98 97/97/97
f 100/100/100 99/99/99 97/97/97
f 103/103/103 102/102/102 101/101/101
f 102/102/102 104/104/104 101/101/101
f 102/102/102 105/105/105 104/104/104
f 105/105/105 106/106/106 104/104/104
f 109/109/109 108/108/108 107/107/107
f 110/110/110 109/109/109 107/107/107
f 113/113/113 112/112/112 111/111/111
f 114/114/114 113/113/113 111/111/111
f 117/117/117 116/116/116 115/115/115
f 118/118/118 117/117/117 115/115/115
f 121/121/121 120/120/120 119/119/119
f 122/122/122 121/121/121 119/119/119
f 125/125/125 124/124/124 123/123/123
f 126/126/126 125/125/125 123/123/123
f 129/129/129 128/128/128 127/127/127
f 130/130/130 129/129/129 127/127/127
f 133/133/133 132/132/132 131/131/131
f 134/134/134 133/133/133 131/131/131
f 137/137/137 136/136/136 135/135/135
f 138/138/138 137/137/137 135/135/135
f 141/141/141 140/140/140 139/139/139
f 142/142/142 141/141/141 139/139/139
f 145/145/145 144/144/144 143/143/143
f 146/146/146 145/145/145 143/143/143
f 149/149/149 148/148/148 147/147/147
f 150/150/150 149/149/149 147/147/147
f 153/153/153 152/152/152 151/151/151
f 154/154/154 153/153/153 151/151/151
f 157/157/157 156/156/156 155/155/155
f 158/158/158 157/157/157 155/155/155
f 161/161/161 160/160/160 159/159/159
f 162/162/162 161/161/161 159/159/159
f 165/165/165 164/164/164 163/163/163
f 166/166/166 165/165/165 163/163/163
f 169/169/169 168/168/168 167/167/167
f 170/170/170 169/169/169 167/167/167
f 173/173/173 172/172/172 171/171/171
f 174/174/174 173/173/173 171/171/171
f 177/177/177 176/176/176 175/175/175
f 178/178/178 177/177/177 175/175/175
f 181/181/181 180/180/180 179/179/179
f 182/182/182 181/181/181 179/179/179
f 185/185/185 184/184/184 183/183/183
f 186/186/186 185/185/185 183/183/183
f 189/189/189 188/188/188 187/187/187
f 190/190/190 189/189/189 187/187/187
f 193/193/193 192/192/192 191/191/191
f 194/194/194 193/193/193 191/191/191
f 197/197/197 196/196/196 195/195/195
f 198/198/198 197/197/197 195/195/195
f 201/201/201 200/200/200 199/199/199
f 202/202/202 201/201/201 199/199/199
f 205/205/205 204/204/204 203/203/203
f 204/204/204 206/206/206 203/203/203
f 204/204/204 207/207/207 206/206/206
f 207/207/207 208/208/208 206/206/206
f 211/211/211 210/210/210 209/209/209
f 212/212/212 211/211/211 209/209/209
f 215/215/215 214/214/214 213/213/213
f 216/216/216 215/215/215 213/213/213
f 219/219/219 218/218/218 217/217/217
f 220/220/220 219/219/219 217/217/217
f 223/223/223 222/222/222 221/221/221
f 224/224/224 223/223/223 221/221/221
