g Flower
v 0.054127 0.03125 0.016747
v 0.0625 0 0.016747
v 0.108253 0 0.0625
v -0.0625 0 0.233253
v -0.054127 0.03125 0.233253
v 0 0 0.25
v -0.03125 0.054127 0.233253
v 0 0 0.25
v 0 0.0625 0.233253
v 0 0 0.25
v 0.03125 0.054127 0.233253
v 0 0.108253 0.1875
v 0.054127 0.09375 0.1875
v 0.054127 0.03125 0.233253
v 0 0 0.25
v 0.09375 0.054127 0.1875
v 0.0625 0 0.233253
v 0 0 0.25
v 0.108253 0 0.1875
v 0.108253 0.0625 0.125
v 0.125 0 0.125
v 0 0 0
v 0.0625 0 0.016747
v 0.054127 0.03125 0.016747
v 0 0 0
v 0.03125 0.054127 0.016747
v 0 0.0625 0.016747
v 0.054127 0.09375 0.0625
v 0 0 0
v 0 0.108253 0.0625
v -0.03125 0.054127 0.016747
v -0.054127 0.09375 0.0625
v -0.054127 0.03125 0.016747
v 0 0 0
v -0.09375 0.054127 0.0625
v -0.0625 0 0.016747
v 0 0 0
v -0.108253 0 0.0625
v 0 0 0
v 0.054127 -0.03125 0.016747
v 0.0625 0 0.016747
v 0 0 0
v 0.03125 -0.054127 0.016747
v 0 0 0
v 0 -0.0625 0.016747
v -0.03125 -0.054127 0.016747
v 0 0 0
v -0.054127 -0.03125 0.016747
v -0.108253 0 0.0625
v -0.09375 -0.054127 0.0625
v -0.0625 0 0.016747
v 0 0 0
v 0 0 0.25
v -0.054127 -0.03125 0.233253
v -0.0625 0 0.233253
v -0.03125 -0.054127 0.233253
v 0 0 0.25
v 0 -0.0625 0.233253
v 0 0 0.25
v 0.03125 -0.054127 0.233253
v 0.054127 -0.09375 0.1875
v 0 -0.108253 0.1875
v 0.09375 -0.054127 0.1875
v 0.108253 -0.0625 0.125
v 0.0625 -0.108253 0.125
v 0.125 0 0.125
v 0.108253 0 0.1875
v 0.054127 -0.03125 0.233253
v 0 0 0.25
v 0.0625 0 0.233253
v 0 0 0.25
v -0.054127 0.09375 0.0625
v 0 0.108253 0.0625
v 0 0.125 0.125
v -0.0625 0.108253 0.125
v -0.09375 0.054127 0.0625
v 0 0.108253 0.1875
v -0.108253 0.0625 0.125
v -0.108253 0 0.0625
v -0.125 0 0.125
v -0.054127 0.09375 0.1875
v 0 0.0625 0.233253
v -0.03125 0.054127 0.233253
v -0.09375 0.054127 0.1875
v -0.108253 0 0.1875
v -0.054127 0.03125 0.233253
v -0.0625 0 0.233253
v 0 0.125 0.125
v 0.054127 0.09375 0.1875
v 0 0.108253 0.1875
v 0.0625 0.108253 0.125
v 0 0.108253 0.0625
v 0.09375 0.054127 0.1875
v 0.054127 0.09375 0.0625
v 0.108253 0.0625 0.125
v 0.09375 0.054127 0.0625
v 0.03125 0.054127 0.016747
v 0.125 0 0.125
v 0.054127 0.03125 0.016747
v 0.108253 0 0.0625
v 0.108253 0 0.0625
v 0.108253 -0.0625 0.125
v 0.125 0 0.125
v 0.09375 -0.054127 0.0625
v 0.0625 0 0.016747
v 0.0625 -0.108253 0.125
v 0.054127 -0.03125 0.016747
v 0.054127 -0.09375 0.0625
v 0 -0.125 0.125
v 0.03125 -0.054127 0.016747
v 0 -0.108253 0.0625
v 0 -0.0625 0.016747
v 0.0625 -0.108253 0.125
v 0 -0.108253 0.1875
v 0.054127 -0.09375 0.1875
v 0 -0.125 0.125
v -0.054127 -0.09375 0.1875
v -0.03125 -0.054127 0.233253
v 0 -0.0625 0.233253
v -0.054127 -0.03125 0.233253
v -0.0625 -0.108253 0.125
v 0 -0.108253 0.0625
v -0.09375 -0.054127 0.1875
v -0.0625 0 0.233253
v -0.108253 0 0.1875
v -0.108253 -0.0625 0.125
v -0.125 0 0.125
v -0.054127 -0.09375 0.0625
v 0 -0.0625 0.016747
v -0.03125 -0.054127 0.016747
v -0.09375 -0.054127 0.0625
v -0.108253 0 0.0625
v -0.054127 -0.03125 0.016747
vt 0.700602 0.098794
vt 0.733713 0.095198
vt 0.904802 0.266287
vt 0.266287 0.904802
vt 0.299396 0.901206
vt 0.5 0.967426
vt 0.38493 0.898612
vt 0.5 0.967426
vt 0.5 0.897673
vt 0.5 0.967426
vt 0.61507 0.898612
vt 0.5 0.726673
vt 0.6971 0.727591
vt 0.700602 0.901206
vt 0.5 0.967426
vt 0.845207 0.730138
vt 0.733713 0.904802
vt 0.5 0.967426
vt 0.904802 0.733713
vt 0.897673 0.5
vt 0.967426 0.5
vt 0.5 0.032575
vt 0.733713 0.095198
vt 0.700602 0.098794
vt 0.5 0.032575
vt 0.61507 0.101387
vt 0.5 0.102328
vt 0.6971 0.272409
vt 0.5 0.032575
vt 0.5 0.273327
vt 0.38493 0.101387
vt 0.3029 0.272409
vt 0.299396 0.098794
vt 0.5 0.032575
vt 0.154791 0.269861
vt 0.266287 0.095198
vt 0.5 0.032575
vt 0.095198 0.266287
vt 0.5 0.032575
vt 0.704232 0.091536
vt 0.733713 0.095198
vt 0.5 0.032575
vt 0.618698 0.088814
vt 0.5 0.032575
vt 0.5 0.087808
vt 0.381302 0.088814
vt 0.5 0.032575
vt 0.295768 0.091536
vt 0.095198 0.266287
vt 0.143902 0.262602
vt 0.266287 0.095198
vt 0.5 0.032575
vt 0.5 0.967426
vt 0.295768 0.908465
vt 0.266287 0.904802
vt 0.381302 0.911187
vt 0.5 0.967426
vt 0.5 0.912191
vt 0.5 0.967426
vt 0.618698 0.911187
vt 0.707995 0.740172
vt 0.5 0.741203
vt 0.856098 0.737398
vt 0.912191 0.5
vt 0.741203 0.5
vt 0.967426 0.5
vt 0.904802 0.733713
vt 0.704232 0.908465
vt 0.5 0.967426
vt 0.733713 0.904802
vt 0.5 0.967426
vt 0.3029 0.272409
vt 0.5 0.273327
vt 0.5 0.5
vt 0.273327 0.5
vt 0.154791 0.269861
vt 0.5 0.726673
vt 0.102328 0.5
vt 0.095198 0.266287
vt 0.032575 0.5
vt 0.3029 0.727591
vt 0.5 0.897673
vt 0.38493 0.898612
vt 0.154791 0.730138
vt 0.095198 0.733713
vt 0.299396 0.901206
vt 0.266287 0.904802
vt 0.5 0.5
vt 0.6971 0.727591
vt 0.5 0.726673
vt 0.726673 0.5
vt 0.5 0.273327
vt 0.845207 0.730138
vt 0.6971 0.272409
vt 0.897673 0.5
vt 0.845207 0.269861
vt 0.61507 0.101387
vt 0.967426 0.5
vt 0.700602 0.098794
vt 0.904802 0.266287
vt 0.904802 0.266287
vt 0.912191 0.5
vt 0.967426 0.5
vt 0.856098 0.262602
vt 0.733713 0.095198
vt 0.741203 0.5
vt 0.704232 0.091536
vt 0.707995 0.259828
vt 0.5 0.5
vt 0.618698 0.088814
vt 0.5 0.258797
vt 0.5 0.087808
vt 0.741203 0.5
vt 0.5 0.741203
vt 0.707995 0.740172
vt 0.5 0.5
vt 0.292005 0.740172
vt 0.381302 0.911187
vt 0.5 0.912191
vt 0.295768 0.908465
vt 0.258797 0.5
vt 0.5 0.258797
vt 0.143902 0.737398
vt 0.266287 0.904802
vt 0.095198 0.733713
vt 0.087808 0.5
vt 0.032575 0.5
vt 0.292005 0.259828
vt 0.5 0.087808
vt 0.381302 0.088814
vt 0.143902 0.262602
vt 0.095198 0.266287
vt 0.295768 0.091536
vn 0.459778 0.2654291 -0.8474382
vn 0.5309122 0 -0.8474268
vn 0.8759922 0 -0.4823252
vn -0.5308902 0 0.8474406
vn -0.459778 0.2654291 0.8474382
vn 0 0 1
vn -0.2654291 0.459778 0.8474382
vn 0 0 1
vn 0 0.5308902 0.8474406
vn 0 0 1
vn 0.2654291 0.459778 0.8474382
vn 0 0.8759922 0.4823252
vn 0.4379891 0.7586298 0.4823344
vn 0.459778 0.2654291 0.8474382
vn 0 0 1
vn 0.7586298 0.4379891 0.4823344
vn 0.5308902 0 0.8474406
vn 0 0 1
vn 0.8759922 0 0.4823252
vn 0.8660316 0.4999893 0
vn 1 0 0
vn 0 0 -1
vn 0.5309122 0 -0.8474268
vn 0.459778 0.2654291 -0.8474382
vn 0 0 -1
vn 0.2654291 0.459778 -0.8474382
vn 0 0.5308902 -0.8474406
vn 0.4379891 0.7586298 -0.4823344
vn 0 0 -1
vn 0 0.8759922 -0.4823252
vn -0.2654291 0.459778 -0.8474382
vn -0.4379891 0.7586298 -0.4823344
vn -0.4597743 0.2654575 -0.8474314
vn 0 0 -1
vn -0.7586298 0.4379891 -0.4823344
vn -0.5308902 0 -0.8474406
vn 0 0 -1
vn -0.8759922 0 -0.4823252
vn 0 0 -1
vn 0.459778 -0.2654291 -0.8474382
vn 0.5309122 0 -0.8474268
vn 0 0 -1
vn 0.2654291 -0.459778 -0.8474382
vn 0 0 -1
vn 0 -0.5308902 -0.8474406
vn -0.2654291 -0.459778 -0.8474382
vn 0 0 -1
vn -0.4597743 -0.2654575 -0.8474314
vn -0.8759922 0 -0.4823252
vn -0.7586298 -0.4379891 -0.4823344
vn -0.5308902 0 -0.8474406
vn 0 0 -1
vn 0 0 1
vn -0.459778 -0.2654291 0.8474382
vn -0.5308902 0 0.8474406
vn -0.2654291 -0.459778 0.8474382
vn 0 0 1
vn 0 -0.5308902 0.8474406
vn 0 0 1
vn 0.2654291 -0.459778 0.8474382
vn 0.4379891 -0.7586298 0.4823344
vn 0 -0.8759922 0.4823252
vn 0.7586298 -0.4379891 0.4823344
vn 0.8660316 -0.4999893 0
vn 0.4999893 -0.8660316 0
vn 1 0 0
vn 0.8759922 0 0.4823252
vn 0.459778 -0.2654291 0.8474382
vn 0 0 1
vn 0.5308902 0 0.8474406
vn 0 0 1
vn -0.4379891 0.7586298 -0.4823344
vn 0 0.8759922 -0.4823252
vn 0 1 0
vn -0.4999893 0.8660316 0
vn -0.7586298 0.4379891 -0.4823344
vn 0 0.8759922 0.4823252
vn -0.8660316 0.4999893 0
vn -0.8759922 0 -0.4823252
vn -1 0 0
vn -0.4379891 0.7586298 0.4823344
vn 0 0.5308902 0.8474406
vn -0.2654291 0.459778 0.8474382
vn -0.7586298 0.4379891 0.4823344
vn -0.8759922 0 0.4823252
vn -0.459778 0.2654291 0.8474382
vn -0.5308902 0 0.8474406
vn 0 1 0
vn 0.4379891 0.7586298 0.4823344
vn 0 0.8759922 0.4823252
vn 0.4999893 0.8660316 0
vn 0 0.8759922 -0.4823252
vn 0.7586298 0.4379891 0.4823344
vn 0.4379891 0.7586298 -0.4823344
vn 0.8660316 0.4999893 0
vn 0.7586298 0.4379891 -0.4823344
vn 0.2654291 0.459778 -0.8474382
vn 1 0 0
vn 0.459778 0.2654291 -0.8474382
vn 0.8759922 0 -0.4823252
vn 0.8759922 0 -0.4823252
vn 0.8660316 -0.4999893 0
vn 1 0 0
vn 0.7586298 -0.4379891 -0.4823344
vn 0.5309122 0 -0.8474268
vn 0.4999893 -0.8660316 0
vn 0.459778 -0.2654291 -0.8474382
vn 0.4379891 -0.7586298 -0.4823344
vn 0 -1 0
vn 0.2654291 -0.459778 -0.8474382
vn 0 -0.8759922 -0.4823252
vn 0 -0.5308902 -0.8474406
vn 0.4999893 -0.8660316 0
vn 0 -0.8759922 0.4823252
vn 0.4379891 -0.7586298 0.4823344
vn 0 -1 0
vn -0.4379891 -0.7586298 0.4823344
vn -0.2654291 -0.459778 0.8474382
vn 0 -0.5308902 0.8474406
vn -0.459778 -0.2654291 0.8474382
vn -0.4999893 -0.8660316 0
vn 0 -0.8759922 -0.4823252
vn -0.7586298 -0.4379891 0.4823344
vn -0.5308902 0 0.8474406
vn -0.8759922 0 0.4823252
vn -0.8660316 -0.4999893 0
vn -1 0 0
vn -0.4379891 -0.7586298 -0.4823344
vn 0 -0.5308902 -0.8474406
vn -0.2654291 -0.459778 -0.8474382
vn -0.7586298 -0.4379891 -0.4823344
vn -0.8759922 0 -0.4823252
vn -0.4597743 -0.2654575 -0.8474314
g Flower_0
f 3/3/3 2/2/2 1/1/1
f 6/6/6 5/5/5 4/4/4
f 8/8/8 7/7/7 5/5/5
f 10/10/10 9/9/9 7/7/7
f 10/10/10 11/11/11 9/9/9
f 9/9/9 11/11/11 12/12/12
f 11/11/11 13/13/13 12/12/12
f 11/11/11 14/14/14 13/13/13
f 15/15/15 14/14/14 11/11/11
f 14/14/14 16/16/16 13/13/13
f 14/14/14 17/17/17 16/16/16
f 18/18/18 17/17/17 14/14/14
f 17/17/17 19/19/19 16/16/16
f 16/16/16 19/19/19 20/20/20
f 19/19/19 21/21/21 20/20/20
f 24/24/24 23/23/23 22/22/22
f 26/26/26 24/24/24 25/25/25
f 28/28/28 26/26/26 27/27/27
f 27/27/27 26/26/26 29/29/29
f 30/30/30 28/28/28 27/27/27
f 31/31/31 27/27/27 29/29/29
f 30/30/30 27/27/27 31/31/31
f 32/32/32 30/30/30 31/31/31
f 32/32/32 31/31/31 33/33/33
f 33/33/33 31/31/31 34/34/34
f 35/35/35 32/32/32 33/33/33
f 35/35/35 33/33/33 36/36/36
f 36/36/36 33/33/33 37/37/37
f 38/38/38 35/35/35 36/36/36
f 41/41/41 40/40/40 39/39/39
f 40/40/40 43/43/43 42/42/42
f 43/43/43 45/45/45 44/44/44
f 45/45/45 46/46/46 44/44/44
f 46/46/46 48/48/48 47/47/47
f 50/50/50 49/49/49 48/48/48
f 49/49/49 51/51/51 48/48/48
f 48/48/48 51/51/51 52/52/52
f 55/55/55 54/54/54 53/53/53
f 57/57/57 54/54/54 56/56/56
f 59/59/59 56/56/56 58/58/58
f 59/59/59 58/58/58 60/60/60
f 60/60/60 58/58/58 61/61/61
f 58/58/58 62/62/62 61/61/61
f 60/60/60 61/61/61 63/63/63
f 63/63/63 61/61/61 64/64/64
f 61/61/61 65/65/65 64/64/64
f 63/63/63 64/64/64 66/66/66
f 67/67/67 63/63/63 66/66/66
f 68/68/68 60/60/60 63/63/63
f 68/68/68 63/63/63 67/67/67
f 69/69/69 60/60/60 68/68/68
f 70/70/70 68/68/68 67/67/67
f 71/71/71 68/68/68 70/70/70
f 74/74/74 73/73/73 72/72/72
f 75/75/75 74/74/74 72/72/72
f 75/75/75 72/72/72 76/76/76
f 77/77/77 74/74/74 75/75/75
f 78/78/78 75/75/75 76/76/76
f 78/78/78 76/76/76 79/79/79
f 80/80/80 78/78/78 79/79/79
f 81/81/81 77/77/77 75/75/75
f 81/81/81 75/75/75 78/78/78
f 82/82/82 77/77/77 81/81/81
f 83/83/83 82/82/82 81/81/81
f 84/84/84 78/78/78 80/80/80
f 84/84/84 81/81/81 78/78/78
f 83/83/83 81/81/81 84/84/84
f 85/85/85 84/84/84 80/80/80
f 86/86/86 83/83/83 84/84/84
f 86/86/86 84/84/84 85/85/85
f 87/87/87 86/86/86 85/85/85
f 90/90/90 89/89/89 88/88/88
f 89/89/89 91/91/91 88/88/88
f 88/88/88 91/91/91 92/92/92
f 89/89/89 93/93/93 91/91/91
f 91/91/91 94/94/94 92/92/92
f 93/93/93 95/95/95 91/91/91
f 91/91/91 95/95/95 94/94/94
f 95/95/95 96/96/96 94/94/94
f 94/94/94 96/96/96 97/97/97
f 95/95/95 98/98/98 96/96/96
f 96/96/96 99/99/99 97/97/97
f 98/98/98 100/100/100 96/96/96
f 96/96/96 100/100/100 99/99/99
f 103/103/103 102/102/102 101/101/101
f 102/102/102 104/104/104 101/101/101
f 101/101/101 104/104/104 105/105/105
f 102/102/102 106/106/106 104/104/104
f 104/104/104 107/107/107 105/105/105
f 106/106/106 108/108/108 104/104/104
f 104/104/104 108/108/108 107/107/107
f 106/106/106 109/109/109 108/108/108
f 108/108/108 110/110/110 107/107/107
f 109/109/109 111/111/111 108/108/108
f 108/108/108 111/111/111 110/110/110
f 111/111/111 112/112/112 110/110/110
f 115/115/115 114/114/114 113/113/113
f 114/114/114 116/116/116 113/113/113
f 114/114/114 117/117/117 116/116/116
f 118/118/118 117/117/117 114/114/114
f 119/119/119 118/118/118 114/114/114
f 118/118/118 120/120/120 117/117/117
f 117/117/117 121/121/121 116/116/116
f 116/116/116 121/121/121 122/122/122
f 120/120/120 123/123/123 117/117/117
f 117/117/117 123/123/123 121/121/121
f 123/123/123 120/120/120 124/124/124
f 125/125/125 123/123/123 124/124/124
f 123/123/123 125/125/125 126/126/126
f 123/123/123 126/126/126 121/121/121
f 125/125/125 127/127/127 126/126/126
f 121/121/121 128/128/128 122/122/122
f 121/121/121 126/126/126 128/128/128
f 122/122/122 128/128/128 129/129/129
f 128/128/128 130/130/130 129/129/129
f 126/126/126 127/127/127 131/131/131
f 126/126/126 131/131/131 128/128/128
f 128/128/128 131/131/131 130/130/130
f 127/127/127 132/132/132 131/131/131
f 131/131/131 133/133/133 130/130/130
