g GripNub
v 0.125 0.216506 -0.125
v 0.216506 0.125 -0.125
v 0.216506 0.125 0.125
v 0.125 0.216506 0.125
v 0 0.25 -0.125
v 0 0.25 0.125
v -0.125 0.216506 -0.125
v -0.125 0.216506 0.125
v 0.216506 0.125 -0.125
v 0.25 0 0.125
v 0.216506 0.125 0.125
v 0.25 0 -0.125
v 0.216506 -0.125 0.125
v 0.216506 -0.125 -0.125
v 0.125 -0.216506 0.125
v 0.125 -0.216506 -0.125
v 0.125 -0.216506 -0.125
v 0 -0.25 -0.125
v 0 -0.25 0.125
v 0.125 -0.216506 0.125
v 0 -0.25 -0.125
v -0.125 -0.216506 0.125
v 0 -0.25 0.125
v -0.125 -0.216506 -0.125
v -0.216506 -0.125 0.125
v -0.216506 -0.125 -0.125
v -0.216506 -0.125 -0.125
v -0.25 0 0.125
v -0.216506 -0.125 0.125
v -0.25 0 -0.125
v -0.216506 0.125 0.125
v -0.216506 0.125 -0.125
v -0.125 0.216506 0.125
v -0.125 0.216506 -0.125
v -0.216506 0.125 0.125
v -0.216506 -0.125 0.125
v -0.25 0 0.125
v -0.125 0.216506 0.125
v -0.125 -0.216506 0.125
v 0 0.25 0.125
v 0 -0.25 0.125
v 0.125 0.216506 0.125
v 0.125 -0.216506 0.125
v 0.216506 0.125 0.125
v 0.216506 -0.125 0.125
v 0.25 0 0.125
vt 0.216661 6.8E-05
vt 0.183333 6.8E-05
vt 0.183333 0.120792
vt 0.216662 0.120792
vt 0.24999 6.7E-05
vt 0.24999 0.120791
vt 0.283319 6.7E-05
vt 0.283319 0.120792
vt 0.183333 6.8E-05
vt 0.150004 0.120793
vt 0.183333 0.120792
vt 0.150004 6.9E-05
vt 0.116675 0.120793
vt 0.116675 6.9E-05
vt 0.083347 0.120794
vt 0.083346 7E-05
vt 0.083346 7E-05
vt 0.050018 7E-05
vt 0.050018 0.120794
vt 0.083347 0.120794
vt 0.449965 6.6E-05
vt 0.416636 0.120792
vt 0.449965 0.120792
vt 0.416636 6.6E-05
vt 0.383306 0.120792
vt 0.383306 6.6E-05
vt 0.383306 6.6E-05
vt 0.349977 0.120792
vt 0.383306 0.120792
vt 0.349977 6.6E-05
vt 0.316648 0.120792
vt 0.316648 6.7E-05
vt 0.283319 0.120792
vt 0.283319 6.7E-05
vt 0.010287 0.45551
vt 0.162629 0.150825
vt 0.066048 0.262348
vt 0.010286 0.678554
vt 0.274151 0.150825
vt 0.066048 0.871717
vt 0.370732 0.262348
vt 0.162629 0.983239
vt 0.426493 0.45551
vt 0.274151 0.983239
vt 0.426494 0.678555
vt 0.370732 0.871717
vn 0.4999893 0.8660316 0
vn 0.8660316 0.4999893 0
vn 0.8660316 0.4999893 0
vn 0.4999893 0.8660316 0
vn 0 1 0
vn 0 1 0
vn -0.4999893 0.8660316 0
vn -0.4999893 0.8660316 0
vn 0.8660316 0.4999893 0
vn 1 0 0
vn 0.8660316 0.4999893 0
vn 1 0 0
vn 0.8660316 -0.4999893 0
vn 0.8660316 -0.4999893 0
vn 0.4999893 -0.8660316 0
vn 0.4999893 -0.8660316 0
vn 0.4999893 -0.8660316 0
vn 0 -1 0
vn 0 -1 0
vn 0.4999893 -0.8660316 0
vn 0 -1 0
vn -0.4999893 -0.8660316 0
vn 0 -1 0
vn -0.4999893 -0.8660316 0
vn -0.8660316 -0.4999893 0
vn -0.8660316 -0.4999893 0
vn -0.8660316 -0.4999893 0
vn -1 0 0
vn -0.8660316 -0.4999893 0
vn -1 0 0
vn -0.8660316 0.4999893 0
vn -0.8660316 0.4999893 0
vn -0.4999893 0.8660316 0
vn -0.4999893 0.8660316 0
vn 0 0 1
vn 0 0 1
vn 0 0 1
vn 0 0 1
vn 0 0 1
vn 0 0 1
vn 0 0 1
vn 0 0 1
vn 0 0 1
vn 0 0 1
vn 0 0 1
vn 0 0 1
g GripNub_0
f 3/3/3 2/2/2 1/1/1
f 4/4/4 3/3/3 1/1/1
f 4/4/4 1/1/1 5/5/5
f 6/6/6 4/4/4 5/5/5
f 5/5/5 7/7/7 6/6/6
f 7/7/7 8/8/8 6/6/6
f 11/11/11 10/10/10 9/9/9
f 10/10/10 12/12/12 9/9/9
f 10/10/10 13/13/13 12/12/12
f 13/13/13 14/14/14 12/12/12
f 13/13/13 15/15/15 14/14/14
f 15/15/15 16/16/16 14/14/14
f 19/19/19 18/18/18 17/17/17
f 20/20/20 19/19/19 17/17/17
f 23/23/23 22/22/22 21/21/21
f 22/22/22 24/24/24 21/21/21
f 22/22/22 25/25/25 24/24/24
f 25/25/25 26/26/26 24/24/24
f 29/29/29 28/28/28 27/27/27
f 28/28/28 30/30/30 27/27/27
f 28/28/28 31/31/31 30/30/30
f 31/31/31 32/32/32 30/30/30
f 31/31/31 33/33/33 32/32/32
f 33/33/33 34/34/34 32/32/32
f 37/37/37 36/36/36 35/35/35
f 35/35/35 36/36/36 38/38/38
f 36/36/36 39/39/39 38/38/38
f 38/38/38 39/39/39 40/40/40
f 39/39/39 41/41/41 40/40/40
f 40/40/40 41/41/41 42/42/42
f 41/41/41 43/43/43 42/42/42
f 42/42/42 43/43/43 44/44/44
f 43/43/43 45/45/45 44/44/44
f 44/44/44 45/45/45 46/46/46
