g HoleboxGlowSingle
v -0.5 0.073159 0.367795
v -1 0.143506 0.346455
v -1 0.073158 0.367794
v -0.5 0.143506 0.346455
v -1 0.208338 0.311801
v -0.5 0.208339 0.311801
v -1 0.265165 0.265165
v -0.5 0.265165 0.265165
v -1 0.311801 0.208339
v -0.5 0.311801 0.208339
v -1 0.346455 0.143506
v -0.5 0.346455 0.143506
v -1 0.367794 0.073159
v -0.5 0.367794 0.073159
v -1 0.375 0
v -0.5 0.375 0
v -0.5 -0.375 0
v -0.5 -0.367795 0.073158
v -1 -0.367795 0.073158
v -1 -0.375 0
v -0.5 -0.367794 -0.073159
v -1 -0.367795 -0.073159
v -0.5 -0.346455 -0.143506
v -1 -0.346455 -0.143506
v -0.5 -0.311801 -0.208339
v -1 -0.311801 -0.208339
v -0.5 -0.265165 -0.265165
v -1 -0.265165 -0.265165
v -0.5 -0.208339 -0.311801
v -1 -0.208339 -0.311801
v -0.5 -0.143506 -0.346455
v -1 -0.143506 -0.346455
v -0.5 -0.073159 -0.367794
v -1 -0.073159 -0.367795
v -0.5 0 -0.375
v -1 0 -0.375
v -0.5 0.375 0
v -1 0.367794 -0.073159
v -1 0.375 0
v -0.5 0.367794 -0.073159
v -1 0.346455 -0.143506
v -0.5 0.346455 -0.143506
v -1 0.311801 -0.208339
v -0.5 0.311801 -0.208339
v -1 0.265165 -0.265165
v -0.5 0.265165 -0.265165
v -1 0.208339 -0.311801
v -0.5 0.208339 -0.311801
v -1 0.143506 -0.346455
v -0.5 0.143506 -0.346455
v -1 0.073159 -0.367795
v -0.5 0.073159 -0.367794
v -1 0 -0.375
v -0.5 0 -0.375
v -0.5 -0.367795 0.073158
v -1 -0.346455 0.143506
v -1 -0.367795 0.073158
v -0.5 -0.346455 0.143506
v -1 -0.311802 0.208338
v -0.5 -0.311801 0.208338
v -1 -0.265166 0.265165
v -0.5 -0.265165 0.265165
v -1 -0.208339 0.311801
v -0.5 -0.208339 0.311801
v -1 -0.143507 0.346455
v -0.5 -0.143507 0.346455
v -1 -0.073159 0.367794
v -0.5 -0.073159 0.367794
v -1 -1E-06 0.375
v -0.5 0 0.375
v -1 0.073158 0.367794
v -0.5 0.073159 0.367795
vt 0 0.03368
vt 0.03125 0.9708
vt 0 0.9708
vt 0.03125 0.03368
vt 0.0625 0.9708
vt 0.0625 0.03368
vt 0.09375 0.9708
vt 0.09375 0.03368
vt 0.125 0.9708
vt 0.125 0.03368
vt 0.15625 0.9708
vt 0.15625 0.03368
vt 0.1875 0.9708
vt 0.1875 0.03368
vt 0.21875 0.9708
vt 0.21875 0.03368
vt 0.71875 0.03368
vt 0.75 0.03368
vt 0.75 0.9708
vt 0.71875 0.9708
vt 0.6875 0.03368
vt 0.6875 0.9708
vt 0.65625 0.03368
vt 0.65625 0.9708
vt 0.625 0.03368
vt 0.625 0.9708
vt 0.59375 0.03368
vt 0.59375 0.9708
vt 0.5625 0.03368
vt 0.5625 0.9708
vt 0.53125 0.03368
vt 0.53125 0.9708
vt 0.5 0.03368
vt 0.5 0.9708
vt 0.46875 0.03368
vt 0.46875 0.9708
vt 0.21875 0.03368
vt 0.25 0.9708
vt 0.21875 0.9708
vt 0.25 0.03368
vt 0.28125 0.9708
vt 0.28125 0.03368
vt 0.3125 0.9708
vt 0.3125 0.03368
vt 0.34375 0.9708
vt 0.34375 0.03368
vt 0.375 0.9708
vt 0.375 0.03368
vt 0.40625 0.9708
vt 0.40625 0.03368
vt 0.4375 0.9708
vt 0.4375 0.03368
vt 0.46875 0.9708
vt 0.46875 0.03368
vt 0.75 0.03368
vt 0.78125 0.9708
vt 0.75 0.9708
vt 0.78125 0.03368
vt 0.8125 0.9708
vt 0.8125 0.03368
vt 0.84375 0.9708
vt 0.84375 0.03368
vt 0.875 0.9708
vt 0.875 0.03368
vt 0.90625 0.9708
vt 0.90625 0.03368
vt 0.9375 0.9708
vt 0.9375 0.03368
vt 0.96875 0.9708
vt 0.96875 0.03368
vt 1 0.9708
vt 1 0.03368
vn 0 -0.195077 -0.9807879
vn 0 -0.382682 -0.9238801
vn 0 -0.195077 -0.9807879
vn 0 -0.382682 -0.9238801
vn 0 -0.5555733 -0.8314674
vn 0 -0.5555733 -0.8314674
vn 0 -0.7071068 -0.7071068
vn 0 -0.7071068 -0.7071068
vn 0 -0.8314674 -0.5555733
vn 0 -0.8314674 -0.5555733
vn 0 -0.9238801 -0.382682
vn 0 -0.9238801 -0.382682
vn 0 -0.9807879 -0.195077
vn 0 -0.9807879 -0.195077
vn 0 -1 0
vn 0 -1 0
vn 0 1 0
vn 0 0.9807879 -0.195077
vn 0 0.9807879 -0.195077
vn 0 1 0
vn 0 0.9807879 0.195077
vn 0 0.9807879 0.195077
vn 0 0.9238801 0.382682
vn 0 0.9238801 0.382682
vn 0 0.8314674 0.5555733
vn 0 0.8314674 0.5555733
vn 0 0.7071068 0.7071068
vn 0 0.7071068 0.7071068
vn 0 0.5555733 0.8314674
vn 0 0.5555733 0.8314674
vn 0 0.382682 0.9238801
vn 0 0.382682 0.9238801
vn 0 0.195077 0.9807879
vn 0 0.195077 0.9807879
vn 0 0 1
vn 0 0 1
vn 0 -1 0
vn 0 -0.9807879 0.195077
vn 0 -1 0
vn 0 -0.9807879 0.195077
vn 0 -0.9238801 0.382682
vn 0 -0.9238801 0.382682
vn 0 -0.8314674 0.5555733
vn 0 -0.8314674 0.5555733
vn 0 -0.7071068 0.7071068
vn 0 -0.7071068 0.7071068
vn 0 -0.5555733 0.8314674
vn 0 -0.5555733 0.8314674
vn 0 -0.382682 0.9238801
vn 0 -0.382682 0.9238801
vn 0 -0.195077 0.9807879
vn 0 -0.195077 0.9807879
vn 0 0 1
vn 0 0 1
vn 0 0.9807879 -0.195077
vn 0 0.9238801 -0.382682
vn 0 0.9807879 -0.195077
vn 0 0.9238801 -0.382682
vn 0 0.8314674 -0.5555733
vn 0 0.8314674 -0.5555733
vn 0 0.7071068 -0.7071068
vn 0 0.7071068 -0.7071068
vn 0 0.5555733 -0.8314674
vn 0 0.5555733 -0.8314674
vn 0 0.382682 -0.9238801
vn 0 0.382682 -0.9238801
vn 0 0.195077 -0.9807879
vn 0 0.195077 -0.9807879
vn 0 0 -1
vn 0 0 -1
vn 0 -0.195077 -0.9807879
vn 0 -0.195077 -0.9807879
g HoleboxGlowSingle_0
f 3/3/3 2/2/2 1/1/1
f 2/2/2 4/4/4 1/1/1
f 2/2/2 5/5/5 4/4/4
f 5/5/5 6/6/6 4/4/4
f 5/5/5 7/7/7 6/6/6
f 7/7/7 8/8/8 6/6/6
f 7/7/7 9/9/9 8/8/8
f 9/9/9 10/10/10 8/8/8
f 9/9/9 11/11/11 10/10/10
f 11/11/11 12/12/12 10/10/10
f 11/11/11 13/13/13 12/12/12
f 13/13/13 14/14/14 12/12/12
f 13/13/13 15/15/15 14/14/14
f 15/15/15 16/16/16 14/14/14
f 19/19/19 18/18/18 17/17/17
f 20/20/20 19/19/19 17/17/17
f 20/20/20 17/17/17 21/21/21
f 22/22/22 20/20/20 21/21/21
f 22/22/22 21/21/21 23/23/23
f 24/24/24 22/22/22 23/23/23
f 24/24/24 23/23/23 25/25/25
f 26/26/26 24/24/24 25/25/25
f 26/26/26 25/25/25 27/27/27
f 28/28/28 26/26/26 27/27/27
f 28/28/28 27/27/27 29/29/29
f 30/30/30 28/28/28 29/29/29
f 30/30/30 29/29/29 31/31/31
f 32/32/32 30/30/30 31/31/31
f 32/32/32 31/31/31 33/33/33
f 34/34/34 32/32/32 33/33/33
f 34/34/34 33/33/33 35/35/35
f 36/36/36 34/34/34 35/35/35
f 39/39/39 38/38/38 37/37/37
f 38/38/38 40/40/40 37/37/37
f 38/38/38 41/41/41 40/40/40
f 41/41/41 42/42/42 40/40/40
f 41/41/41 43/43/43 42/42/42
f 43/43/43 44/44/44 42/42/42
f 43/43/43 45/45/45 44/44/44
f 45/45/45 46/46/46 44/44/44
f 45/45/45 47/47/47 46/46/46
f 47/47/47 48/48/48 46/46/46
f 47/47/47 49/49/49 48/48/48
f 49/49/49 50/50/50 48/48/48
f 49/49/49 51/51/51 50/50/50
f 51/51/51 52/52/52 50/50/50
f 51/51/51 53/53/53 52/52/52
f 53/53/53 54/54/54 52/52/52
f 57/57/57 56/56/56 55/55/55
f 56/56/56 58/58/58 55/55/55
f 56/56/56 59/59/59 58/58/58
f 59/59/59 60/60/60 58/58/58
f 59/59/59 61/61/61 60/60/60
f 61/61/61 62/62/62 60/60/60
f 61/61/61 63/63/63 62/62/62
f 63/63/63 64/64/64 62/62/62
f 63/63/63 65/65/65 64/64/64
f 65/65/65 66/66/66 64/64/64
f 65/65/65 67/67/67 66/66/66
f 67/67/67 68/68/68 66/66/66
f 67/67/67 69/69/69 68/68/68
f 69/69/69 70/70/70 68/68/68
f 69/69/69 71/71/71 70/70/70
f 71/71/71 72/72/72 70/70/70
