g Holebox
v -0.143506 0.346455 -0.5
v -0.5 0.5 -0.5
v -0.208338 0.311801 -0.5
v -0.073158 0.367795 -0.5
v -0.265165 0.265165 -0.5
v 0 0.375 -0.5
v -0.311801 0.208339 -0.5
v -0.346455 0.143507 -0.5
v -0.367794 0.073159 -0.5
v -0.375 0 -0.5
v 0.073159 0.367794 -0.5
v -0.367795 -0.073159 -0.5
v -0.5 -0.5 -0.5
v 0.5 0.5 -0.5
v 0.143506 0.346455 -0.5
v 0.208339 0.311801 -0.5
v -0.346455 -0.143506 -0.5
v 0.265165 0.265165 -0.5
v -0.311801 -0.208339 -0.5
v 0.311801 0.208339 -0.5
v -0.265165 -0.265165 -0.5
v 0.346455 0.143506 -0.5
v -0.208339 -0.311801 -0.5
v -0.143506 -0.346455 -0.5
v -0.073159 -0.367794 -0.5
v 0.5 -0.5 -0.5
v 0 -0.375 -0.5
v 0.073159 -0.367794 -0.5
v 0.367794 0.073159 -0.5
v 0.375 0 -0.5
v 0.367794 -0.073159 -0.5
v 0.143506 -0.346455 -0.5
v 0.346455 -0.143506 -0.5
v 0.208339 -0.311801 -0.5
v 0.311801 -0.208339 -0.5
v 0.265165 -0.265165 -0.5
v 0.499999 -0.5 0.5
v 0.5 -0.346455 0.143506
v 0.5 -0.367794 0.073159
v 0.5 -0.311801 0.208339
v 0.5 -0.265165 0.265165
v 0.5 -0.208339 0.311801
v 0.5 -0.143506 0.346455
v 0.5 -0.375 0
v 0.5 -0.073159 0.367795
v 0.5 0.499999 0.5
v 0.5 0 0.375
v 0.5 0.073159 0.367794
v 0.5 -0.5 -0.5
v 0.5 -0.367794 -0.073159
v 0.5 -0.346455 -0.143506
v 0.5 -0.311801 -0.208339
v 0.5 0.143507 0.346455
v 0.5 -0.265165 -0.265165
v 0.5 0.208339 0.311801
v 0.5 -0.208339 -0.311801
v 0.5 0.265165 0.265165
v 0.5 -0.143506 -0.346455
v 0.5 0.311801 0.208338
v 0.5 0.346455 0.143506
v 0.5 0.367795 0.073158
v 0.5 0.5 -0.5
v 0.5 0.375 0
v 0.5 0.367794 -0.073159
v 0.5 -0.073159 -0.367794
v 0.5 0 -0.375
v 0.5 0.073159 -0.367794
v 0.5 0.346455 -0.143506
v 0.5 0.143506 -0.346455
v 0.5 0.311801 -0.208339
v 0.5 0.208339 -0.311801
v 0.5 0.265165 -0.265165
v -0.5 -0.346455 0.143506
v -0.5 -0.5 0.5
v -0.5 -0.367794 0.073159
v -0.5 -0.311801 0.208339
v -0.5 -0.265165 0.265165
v -0.5 -0.208339 0.311801
v -0.5 -0.143506 0.346455
v -0.5 -0.073159 0.367795
v -0.5 0 0.375
v -0.5 -0.375 0
v -0.5 -0.5 -0.5
v -0.5 -0.367794 -0.073159
v -0.5 0.073159 0.367794
v -0.5 0.5 0.5
v -0.5 0.143507 0.346455
v -0.5 0.208339 0.311801
v -0.5 -0.346455 -0.143506
v -0.5 0.265165 0.265165
v -0.5 -0.311801 -0.208339
v -0.5 0.311801 0.208338
v -0.5 -0.265165 -0.265165
v -0.5 0.346455 0.143506
v -0.5 -0.208339 -0.311801
v -0.5 -0.143506 -0.346455
v -0.5 -0.073159 -0.367795
v -0.5 0.5 -0.5
v -0.5 0 -0.375
v -0.5 0.073159 -0.367794
v -0.5 0.367795 0.073158
v -0.5 0.375 0
v -0.5 0.367794 -0.073159
v -0.5 0.143506 -0.346455
v -0.5 0.346455 -0.143506
v -0.5 0.208339 -0.311801
v -0.5 0.311801 -0.208339
v -0.5 0.265165 -0.265165
v 0.5 0.499999 0.5
v 0.073159 0.367794 0.5
v 0 0.375 0.5
v 0.143506 0.346455 0.5
v 0.208339 0.311801 0.5
v 0.265165 0.265165 0.5
v 0.311801 0.208339 0.5
v 0.346455 0.143506 0.5
v -0.073158 0.367795 0.5
v 0.367794 0.073159 0.5
v -0.5 0.5 0.5
v -0.143506 0.346455 0.5
v -0.208338 0.311801 0.5
v 0.499999 -0.5 0.5
v 0.375 0 0.5
v 0.367794 -0.073159 0.5
v 0.346455 -0.143506 0.5
v 0.311801 -0.208339 0.5
v -0.265165 0.265165 0.5
v 0.265165 -0.265165 0.5
v -0.311801 0.208339 0.5
v 0.208339 -0.311801 0.5
v -0.346455 0.143507 0.5
v 0.143506 -0.346455 0.5
v -0.367794 0.073159 0.5
v -0.375 0 0.5
v -0.367795 -0.073159 0.5
v -0.5 -0.5 0.5
v 0.073159 -0.367794 0.5
v 0 -0.375 0.5
v -0.073159 -0.367794 0.5
v -0.346455 -0.143506 0.5
v -0.143506 -0.346455 0.5
v -0.311801 -0.208339 0.5
v -0.208339 -0.311801 0.5
v -0.265165 -0.265165 0.5
vt 0 0
vt 0 0
vt 0 0
vt 0 0
vt 0 0
vt 0 0
vt 0 0
vt 0 0
vt 0 0
vt 0 0
vt 0 0
vt 0 0
vt 0 0
vt 0 0
vt 0 0
vt 0 0
vt 0 0
vt 0 0
vt 0 0
vt 0 0
vt 0 0
vt 0 0
vt 0 0
vt 0 0
vt 0 0
vt 0 0
vt 0 0
vt 0 0
vt 0 0
vt 0 0
vt 0 0
vt 0 0
vt 0 0
vt 0 0
vt 0 0
vt 0 0
vt 0 0
vt 0 0
vt 0 0
vt 0 0
vt 0 0
vt 0 0
vt 0 0
vt 0 0
vt 0 0
vt 0 0
vt 0 0
vt 0 0
vt 0 0
vt 0 0
vt 0 0
vt 0 0
vt 0 0
vt 0 0
vt 0 0
vt 0 0
vt 0 0
vt 0 0
vt 0 0
vt 0 0
vt 0 0
vt 0 0
vt 0 0
vt 0 0
vt 0 0
vt 0 0
vt 0 0
vt 0 0
vt 0 0
vt 0 0
vt 0 0
vt 0 0
vt 0 0
vt 0 0
vt 0 0
vt 0 0
vt 0 0
vt 0 0
vt 0 0
vt 0 0
vt 0 0
vt 0 0
vt 0 0
vt 0 0
vt 0 0
vt 0 0
vt 0 0
vt 0 0
vt 0 0
vt 0 0
vt 0 0
vt 0 0
vt 0 0
vt 0 0
vt 0 0
vt 0 0
vt 0 0
vt 0 0
vt 0 0
vt 0 0
vt 0 0
vt 0 0
vt 0 0
vt 0 0
vt 0 0
vt 0 0
vt 0 0
vt 0 0
vt 0 0
vt 0 0
vt 0 0
vt 0 0
vt 0 0
vt 0 0
vt 0 0
vt 0 0
vt 0 0
vt 0 0
vt 0 0
vt 0 0
vt 0 0
vt 0 0
vt 0 0
vt 0 0
vt 0 0
vt 0 0
vt 0 0
vt 0 0
vt 0 0
vt 0 0
vt 0 0
vt 0 0
vt 0 0
vt 0 0
vt 0 0
vt 0 0
vt 0 0
vt 0 0
vt 0 0
vt 0 0
vt 0 0
vt 0 0
vt 0 0
vt 0 0
vn 0 0 -1
vn 0 0 -1
vn 0 0 -1
vn 0 0 -1
vn 0 0 -1
vn 0 0 -1
vn 0 0 -1
vn 0 0 -1
vn 0 0 -1
vn 0 0 -1
vn 0 0 -1
vn 0 0 -1
vn 0 0 -1
vn 0 0 -1
vn 0 0 -1
vn 0 0 -1
vn 0 0 -1
vn 0 0 -1
vn 0 0 -1
vn 0 0 -1
vn 0 0 -1
vn 0 0 -1
vn 0 0 -1
vn 0 0 -1
vn 0 0 -1
vn 0 0 -1
vn 0 0 -1
vn 0 0 -1
vn 0 0 -1
vn 0 0 -1
vn 0 0 -1
vn 0 0 -1
vn 0 0 -1
vn 0 0 -1
vn 0 0 -1
vn 0 0 -1
vn 1 0 0
vn 1 0 0
vn 1 0 0
vn 1 0 0
vn 1 0 0
vn 1 0 0
vn 1 0 0
vn 1 0 0
vn 1 0 0
vn 1 0 0
vn 1 0 0
vn 1 0 0
vn 1 0 0
vn 1 0 0
vn 1 0 0
vn 1 0 0
vn 1 0 0
vn 1 0 0
vn 1 0 0
vn 1 0 0
vn 1 0 0
vn 1 0 0
vn 1 0 0
vn 1 0 0
vn 1 0 0
vn 1 0 0
vn 1 0 0
vn 1 0 0
vn 1 0 0
vn 1 0 0
vn 1 0 0
vn 1 0 0
vn 1 0 0
vn 1 0 0
vn 1 0 0
vn 1 0 0
vn -1 0 0
vn -1 0 0
vn -1 0 0
vn -1 0 0
vn -1 0 0
vn -1 0 0
vn -1 0 0
vn -1 0 0
vn -1 0 0
vn -1 0 0
vn -1 0 0
vn -1 0 0
vn -1 0 0
vn -1 0 0
vn -1 0 0
vn -1 0 0
vn -1 0 0
vn -1 0 0
vn -1 0 0
vn -1 0 0
vn -1 0 0
vn -1 0 0
vn -1 0 0
vn -1 0 0
vn -1 0 0
vn -1 0 0
vn -1 0 0
vn -1 0 0
vn -1 0 0
vn -1 0 0
vn -1 0 0
vn -1 0 0
vn -1 0 0
vn -1 0 0
vn -1 0 0
vn -1 0 0
vn 0 0 1
vn 0 0 1
vn 0 0 1
vn 0 0 1
vn 0 0 1
vn 0 0 1
vn 0 0 1
vn 0 0 1
vn 0 0 1
vn 0 0 1
vn 0 0 1
vn 0 0 1
vn 0 0 1
vn 0 0 1
vn 0 0 1
vn 0 0 1
vn 0 0 1
vn 0 0 1
vn 0 0 1
vn 0 0 1
vn 0 0 1
vn 0 0 1
vn 0 0 1
vn 0 0 1
vn 0 0 1
vn 0 0 1
vn 0 0 1
vn 0 0 1
vn 0 0 1
vn 0 0 1
vn 0 0 1
vn 0 0 1
vn 0 0 1
vn 0 0 1
vn 0 0 1
vn 0 0 1
g Holebox_0
f 3/3/3 2/2/2 1/1/1
f 1/1/1 2/2/2 4/4/4
f 5/5/5 2/2/2 3/3/3
f 6/6/6 4/4/4 2/2/2
f 7/7/7 2/2/2 5/5/5
f 8/8/8 2/2/2 7/7/7
f 9/9/9 2/2/2 8/8/8
f 10/10/10 2/2/2 9/9/9
f 11/11/11 6/6/6 2/2/2
f 10/10/10 12/12/12 2/2/2
f 12/12/12 13/13/13 2/2/2
f 14/14/14 11/11/11 2/2/2
f 15/15/15 11/11/11 14/14/14
f 16/16/16 15/15/15 14/14/14
f 12/12/12 17/17/17 13/13/13
f 18/18/18 16/16/16 14/14/14
f 17/17/17 19/19/19 13/13/13
f 20/20/20 18/18/18 14/14/14
f 19/19/19 21/21/21 13/13/13
f 22/22/22 20/20/20 14/14/14
f 21/21/21 23/23/23 13/13/13
f 23/23/23 24/24/24 13/13/13
f 24/24/24 25/25/25 13/13/13
f 13/13/13 25/25/25 26/26/26
f 25/25/25 27/27/27 26/26/26
f 27/27/27 28/28/28 26/26/26
f 29/29/29 22/22/22 14/14/14
f 30/30/30 29/29/29 14/14/14
f 31/31/31 30/30/30 14/14/14
f 26/26/26 31/31/31 14/14/14
f 28/28/28 32/32/32 26/26/26
f 33/33/33 31/31/31 26/26/26
f 32/32/32 34/34/34 26/26/26
f 35/35/35 33/33/33 26/26/26
f 34/34/34 36/36/36 26/26/26
f 36/36/36 35/35/35 26/26/26
f 39/39/39 38/38/38 37/37/37
f 38/38/38 40/40/40 37/37/37
f 40/40/40 41/41/41 37/37/37
f 41/41/41 42/42/42 37/37/37
f 42/42/42 43/43/43 37/37/37
f 44/44/44 39/39/39 37/37/37
f 43/43/43 45/45/45 37/37/37
f 37/37/37 45/45/45 46/46/46
f 45/45/45 47/47/47 46/46/46
f 47/47/47 48/48/48 46/46/46
f 37/37/37 49/49/49 44/44/44
f 49/49/49 50/50/50 44/44/44
f 50/50/50 49/49/49 51/51/51
f 51/51/51 49/49/49 52/52/52
f 48/48/48 53/53/53 46/46/46
f 52/52/52 49/49/49 54/54/54
f 53/53/53 55/55/55 46/46/46
f 54/54/54 49/49/49 56/56/56
f 55/55/55 57/57/57 46/46/46
f 56/56/56 49/49/49 58/58/58
f 57/57/57 59/59/59 46/46/46
f 59/59/59 60/60/60 46/46/46
f 60/60/60 61/61/61 46/46/46
f 46/46/46 61/61/61 62/62/62
f 61/61/61 63/63/63 62/62/62
f 63/63/63 64/64/64 62/62/62
f 65/65/65 58/58/58 49/49/49
f 66/66/66 65/65/65 49/49/49
f 67/67/67 66/66/66 49/49/49
f 62/62/62 67/67/67 49/49/49
f 64/64/64 68/68/68 62/62/62
f 69/69/69 67/67/67 62/62/62
f 68/68/68 70/70/70 62/62/62
f 71/71/71 69/69/69 62/62/62
f 70/70/70 72/72/72 62/62/62
f 72/72/72 71/71/71 62/62/62
f 75/75/75 74/74/74 73/73/73
f 73/73/73 74/74/74 76/76/76
f 76/76/76 74/74/74 77/77/77
f 77/77/77 74/74/74 78/78/78
f 78/78/78 74/74/74 79/79/79
f 80/80/80 79/79/79 74/74/74
f 81/81/81 80/80/80 74/74/74
f 82/82/82 74/74/74 75/75/75
f 74/74/74 82/82/82 83/83/83
f 82/82/82 84/84/84 83/83/83
f 85/85/85 81/81/81 74/74/74
f 86/86/86 85/85/85 74/74/74
f 87/87/87 85/85/85 86/86/86
f 88/88/88 87/87/87 86/86/86
f 84/84/84 89/89/89 83/83/83
f 90/90/90 88/88/88 86/86/86
f 89/89/89 91/91/91 83/83/83
f 92/92/92 90/90/90 86/86/86
f 91/91/91 93/93/93 83/83/83
f 94/94/94 92/92/92 86/86/86
f 93/93/93 95/95/95 83/83/83
f 95/95/95 96/96/96 83/83/83
f 96/96/96 97/97/97 83/83/83
f 83/83/83 97/97/97 98/98/98
f 97/97/97 99/99/99 98/98/98
f 99/99/99 100/100/100 98/98/98
f 101/101/101 94/94/94 86/86/86
f 102/102/102 101/101/101 86/86/86
f 103/103/103 102/102/102 86/86/86
f 98/98/98 103/103/103 86/86/86
f 100/100/100 104/104/104 98/98/98
f 105/105/105 103/103/103 98/98/98
f 104/104/104 106/106/106 98/98/98
f 107/107/107 105/105/105 98/98/98
f 106/106/106 108/108/108 98/98/98
f 108/108/108 107/107/107 98/98/98
f 111/111/111 110/110/110 109/109/109
f 110/110/110 112/112/112 109/109/109
f 112/112/112 113/113/113 109/109/109
f 113/113/113 114/114/114 109/109/109
f 114/114/114 115/115/115 109/109/109
f 115/115/115 116/116/116 109/109/109
f 117/117/117 111/111/111 109/109/109
f 116/116/116 118/118/118 109/109/109
f 119/119/119 117/117/117 109/109/109
f 120/120/120 117/117/117 119/119/119
f 121/121/121 120/120/120 119/119/119
f 109/109/109 118/118/118 122/122/122
f 118/118/118 123/123/123 122/122/122
f 123/123/123 124/124/124 122/122/122
f 124/124/124 125/125/125 122/122/122
f 126/126/126 122/122/122 125/125/125
f 127/127/127 121/121/121 119/119/119
f 128/128/128 122/122/122 126/126/126
f 129/129/129 127/127/127 119/119/119
f 130/130/130 122/122/122 128/128/128
f 131/131/131 129/129/129 119/119/119
f 132/132/132 122/122/122 130/130/130
f 133/133/133 131/131/131 119/119/119
f 134/134/134 133/133/133 119/119/119
f 135/135/135 134/134/134 119/119/119
f 136/136/136 135/135/135 119/119/119
f 137/137/137 122/122/122 132/132/132
f 138/138/138 122/122/122 137/137/137
f 138/138/138 139/139/139 122/122/122
f 139/139/139 136/136/136 122/122/122
f 140/140/140 135/135/135 136/136/136
f 139/139/139 141/141/141 136/136/136
f 142/142/142 140/140/140 136/136/136
f 141/141/141 143/143/143 136/136/136
f 144/144/144 142/142/142 136/136/136
f 143/143/143 144/144/144 136/136/136
