g Icosohedron
v 0 0 -0.5
v -0.138193 -0.42532 -0.223607
v 0.3618 -0.26286 -0.223607
v 0.3618 -0.26286 -0.223607
v 0.3618 0.26286 -0.223607
v 0 0 -0.5
v 0 0 -0.5
v -0.447212 0 -0.223607
v -0.138193 -0.42532 -0.223607
v 0 0 -0.5
v -0.138193 0.42532 -0.223607
v -0.447212 0 -0.223607
v 0 0 -0.5
v 0.3618 0.26286 -0.223607
v -0.138193 0.42532 -0.223607
v 0.3618 -0.26286 -0.223607
v 0.447212 0 0.223607
v 0.3618 0.26286 -0.223607
v -0.138193 -0.42532 -0.223607
v 0.138193 -0.42532 0.223607
v 0.3618 -0.26286 -0.223607
v -0.447212 0 -0.223607
v -0.3618 -0.26286 0.223607
v -0.138193 -0.42532 -0.223607
v -0.138193 0.42532 -0.223607
v -0.3618 0.26286 0.223607
v -0.447212 0 -0.223607
v 0.3618 0.26286 -0.223607
v 0.138193 0.42532 0.223607
v -0.138193 0.42532 -0.223607
v 0.3618 -0.26286 -0.223607
v 0.138193 -0.42532 0.223607
v 0.447212 0 0.223607
v -0.138193 -0.42532 -0.223607
v -0.3618 -0.26286 0.223607
v 0.138193 -0.42532 0.223607
v -0.447212 0 -0.223607
v -0.3618 0.26286 0.223607
v -0.3618 -0.26286 0.223607
v -0.138193 0.42532 -0.223607
v 0.138193 0.42532 0.223607
v -0.3618 0.26286 0.223607
v 0.3618 0.26286 -0.223607
v 0.447212 0 0.223607
v 0.138193 0.42532 0.223607
v 0.138193 -0.42532 0.223607
v 0 0 0.5
v 0.447212 0 0.223607
v -0.3618 -0.26286 0.223607
v 0 0 0.5
v 0.138193 -0.42532 0.223607
v -0.3618 0.26286 0.223607
v 0 0 0.5
v -0.3618 -0.26286 0.223607
v 0.138193 0.42532 0.223607
v 0 0 0.5
v -0.3618 0.26286 0.223607
v 0.447212 0 0.223607
v 0 0 0.5
v 0.138193 0.42532 0.223607
vt 0 0
vt 0 0
vt 0 0
vt 0 0
vt 0 0
vt 0 0
vt 0 0
vt 0 0
vt 0 0
vt 0 0
vt 0 0
vt 0 0
vt 0 0
vt 0 0
vt 0 0
vt 0 0
vt 0 0
vt 0 0
vt 0 0
vt 0 0
vt 0 0
vt 0 0
vt 0 0
vt 0 0
vt 0 0
vt 0 0
vt 0 0
vt 0 0
vt 0 0
vt 0 0
vt 0 0
vt 0 0
vt 0 0
vt 0 0
vt 0 0
vt 0 0
vt 0 0
vt 0 0
vt 0 0
vt 0 0
vt 0 0
vt 0 0
vt 0 0
vt 0 0
vt 0 0
vt 0 0
vt 0 0
vt 0 0
vt 0 0
vt 0 0
vt 0 0
vt 0 0
vt 0 0
vt 0 0
vt 0 0
vt 0 0
vt 0 0
vt 0 0
vt 0 0
vt 0 0
vn 0.187597 -0.5773539 -0.7946508
vn 0.187597 -0.5773539 -0.7946508
vn 0.187597 -0.5773539 -0.7946508
vn 0.6070651 0 -0.7946521
vn 0.6070651 0 -0.7946521
vn 0.6070651 0 -0.7946521
vn -0.4911221 -0.3568291 -0.7946522
vn -0.4911221 -0.3568291 -0.7946522
vn -0.4911221 -0.3568291 -0.7946522
vn -0.4911221 0.3568291 -0.7946522
vn -0.4911221 0.3568291 -0.7946522
vn -0.4911221 0.3568291 -0.7946522
vn 0.187597 0.5773539 -0.7946508
vn 0.187597 0.5773539 -0.7946508
vn 0.187597 0.5773539 -0.7946508
vn 0.982246 0 -0.187597
vn 0.982246 0 -0.187597
vn 0.982246 0 -0.187597
vn 0.3035361 -0.9341713 -0.1875891
vn 0.3035361 -0.9341713 -0.1875891
vn 0.3035361 -0.9341713 -0.1875891
vn -0.7946493 -0.5773593 -0.1875871
vn -0.7946493 -0.5773593 -0.1875871
vn -0.7946493 -0.5773593 -0.1875871
vn -0.7946493 0.5773593 -0.1875871
vn -0.7946493 0.5773593 -0.1875871
vn -0.7946493 0.5773593 -0.1875871
vn 0.3035361 0.9341713 -0.1875891
vn 0.3035361 0.9341713 -0.1875891
vn 0.3035361 0.9341713 -0.1875891
vn 0.7946493 -0.5773593 0.1875871
vn 0.7946493 -0.5773593 0.1875871
vn 0.7946493 -0.5773593 0.1875871
vn -0.3035361 -0.9341713 0.1875891
vn -0.3035361 -0.9341713 0.1875891
vn -0.3035361 -0.9341713 0.1875891
vn -0.982246 0 0.187597
vn -0.982246 0 0.187597
vn -0.982246 0 0.187597
vn -0.3035361 0.9341713 0.1875891
vn -0.3035361 0.9341713 0.1875891
vn -0.3035361 0.9341713 0.1875891
vn 0.7946493 0.5773593 0.1875871
vn 0.7946493 0.5773593 0.1875871
vn 0.7946493 0.5773593 0.1875871
vn 0.4911221 -0.3568291 0.7946522
vn 0.4911221 -0.3568291 0.7946522
vn 0.4911221 -0.3568291 0.7946522
vn -0.187596 -0.577354 0.794651
vn -0.187596 -0.577354 0.794651
vn -0.187596 -0.577354 0.794651
vn -0.6070651 0 0.7946521
vn -0.6070651 0 0.7946521
vn -0.6070651 0 0.7946521
vn -0.187597 0.5773539 0.7946508
vn -0.187597 0.5773539 0.7946508
vn -0.187597 0.5773539 0.7946508
vn 0.4911221 0.3568291 0.7946522
vn 0.4911221 0.3568291 0.7946522
vn 0.4911221 0.3568291 0.7946522
g Icosohedron_0
f 3/3/3 2/2/2 1/1/1
f 6/6/6 5/5/5 4/4/4
f 9/9/9 8/8/8 7/7/7
f 12/12/12 11/11/11 10/10/10
f 15/15/15 14/14/14 13/13/13
f 18/18/18 17/17/17 16/16/16
f 21/21/21 20/20/20 19/19/19
f 24/24/24 23/23/23 22/22/22
f 27/27/27 26/26/26 25/25/25
f 30/30/30 29/29/29 28/28/28
f 33/33/33 32/32/32 31/31/31
f 36/36/36 35/35/35 34/34/34
f 39/39/39 38/38/38 37/37/37
f 42/42/42 41/41/41 40/40/40
f 45/45/45 44/44/44 43/43/43
f 48/48/48 47/47/47 46/46/46
f 51/51/51 50/50/50 49/49/49
f 54/54/54 53/53/53 52/52/52
f 57/57/57 56/56/56 55/55/55
f 60/60/60 59/59/59 58/58/58
