g Intro_Cylinder1x1_Plain
v 0.353553 0.353553 0
v 0.415735 0.277785 0
v 0.415735 0.277785 1
v 0.353553 0.353553 1
v 0.277785 0.415735 0
v 0.277785 0.415735 1
v 0.191342 0.46194 0
v 0.191342 0.46194 1
v 0.097545 0.490393 0
v 0.097545 0.490393 1
v 0 0.5 0
v 0 0.5 1
v -0.097544 0.490393 0
v -0.097544 0.490393 1
v 0.415735 0.277785 0
v 0.46194 0.191342 1
v 0.415735 0.277785 1
v 0.46194 0.191342 0
v 0.490393 0.097545 1
v 0.490393 0.097545 0
v 0.5 0 1
v 0.5 0 0
v 0.5 0 0
v 0.490393 -0.097545 1
v 0.5 0 1
v 0.490393 -0.097545 0
v 0.46194 -0.191342 1
v 0.46194 -0.191342 0
v 0.415735 -0.277785 1
v 0.415735 -0.277785 0
v 0.415735 -0.277785 0
v 0.353553 -0.353553 1
v 0.415735 -0.277785 1
v 0.353553 -0.353553 0
v 0.277785 -0.415735 1
v 0.277785 -0.415735 0
v 0.191342 -0.46194 1
v 0.191342 -0.46194 0
v 0.097545 -0.490393 1
v 0.097545 -0.490393 0
v 0 -0.5 1
v 0 -0.5 0
v -0.097545 -0.490393 1
v -0.097545 -0.490393 0
v -0.097545 -0.490393 0
v -0.191342 -0.46194 1
v -0.097545 -0.490393 1
v -0.191342 -0.46194 0
v -0.277785 -0.415735 1
v -0.277785 -0.415735 0
v -0.353554 -0.353553 1
v -0.353554 -0.353553 0
v -0.415735 -0.277785 1
v -0.415735 -0.277785 0
v -0.46194 -0.191341 1
v -0.46194 -0.191341 0
v -0.490393 -0.097545 1
v -0.490393 -0.097545 0
v -0.5 0 1
v -0.5 0 0
v -0.490393 0.097546 1
v -0.490393 0.097546 0
v -0.490393 0.097546 0
v -0.46194 0.191342 1
v -0.490393 0.097546 1
v -0.46194 0.191342 0
v -0.415734 0.277786 1
v -0.415734 0.277786 0
v -0.353553 0.353554 1
v -0.353553 0.353554 0
v -0.277785 0.415735 1
v -0.277785 0.415735 0
v -0.191341 0.46194 1
v -0.191341 0.46194 0
v -0.097544 0.490393 1
v -0.097544 0.490393 0
v 0.097545 0.490393 1
v -0.097544 0.490393 1
v 0 0.5 1
v -0.191341 0.46194 1
v 0.191342 0.46194 1
v -0.277785 0.415735 1
v 0.277785 0.415735 1
v -0.353553 0.353554 1
v 0.353553 0.353553 1
v -0.415734 0.277786 1
v 0.415735 0.277785 1
v -0.46194 0.191342 1
v 0.46194 0.191342 1
v -0.490393 0.097546 1
v 0.490393 0.097545 1
v -0.5 0 1
v 0.5 0 1
v -0.490393 -0.097545 1
v 0.490393 -0.097545 1
v -0.46194 -0.191341 1
v 0.46194 -0.191342 1
v -0.415735 -0.277785 1
v 0.415735 -0.277785 1
v -0.353554 -0.353553 1
v 0.353553 -0.353553 1
v -0.277785 -0.415735 1
v 0.277785 -0.415735 1
v -0.191342 -0.46194 1
v 0.191342 -0.46194 1
v -0.097545 -0.490393 1
v 0.097545 -0.490393 1
v 0 -0.5 1
v 0 0.5 0
v -0.097544 0.490393 0
v 0.097545 0.490393 0
v -0.191341 0.46194 0
v 0.191342 0.46194 0
v -0.277785 0.415735 0
v 0.277785 0.415735 0
v -0.353553 0.353554 0
v 0.353553 0.353553 0
v -0.415734 0.277786 0
v 0.415735 0.277785 0
v -0.46194 0.191342 0
v 0.46194 0.191342 0
v -0.490393 0.097546 0
v 0.490393 0.097545 0
v -0.5 0 0
v 0.5 0 0
v -0.490393 -0.097545 0
v 0.490393 -0.097545 0
v -0.46194 -0.191341 0
v 0.46194 -0.191342 0
v -0.415735 -0.277785 0
v 0.415735 -0.277785 0
v -0.353554 -0.353553 0
v 0.353553 -0.353553 0
v -0.277785 -0.415735 0
v 0.277785 -0.415735 0
v -0.191342 -0.46194 0
v 0.191342 -0.46194 0
v -0.097545 -0.490393 0
v 0.097545 -0.490393 0
v 0 -0.5 0
vt 0.6796995 0.3203278
vt 0.6757941 0.3203276
vt 0.6757936 0.3828125
vt 0.679699 0.3828125
vt 0.6836049 0.3203278
vt 0.6836044 0.3828125
vt 0.6875103 0.3203279
vt 0.6875098 0.3828126
vt 0.6914155 0.3203279
vt 0.6914151 0.3828126
vt 0.6953208 0.320328
vt 0.6953205 0.3828126
vt 0.6992261 0.320328
vt 0.6992259 0.3828126
vt 0.6757941 0.3203276
vt 0.6718882 0.3828125
vt 0.6757936 0.3828125
vt 0.6718888 0.3203276
vt 0.6679829 0.3828124
vt 0.6679834 0.3203275
vt 0.6640775 0.3828124
vt 0.664078 0.3203275
vt 0.7890475 0.3203285
vt 0.7851422 0.3828123
vt 0.7890475 0.3828123
vt 0.7851422 0.3203285
vt 0.781237 0.3828123
vt 0.781237 0.3203285
vt 0.7773318 0.3828124
vt 0.7773318 0.3203285
vt 0.7773318 0.3203285
vt 0.7734265 0.3828124
vt 0.7773318 0.3828124
vt 0.7734265 0.3203285
vt 0.7695212 0.3828124
vt 0.7695212 0.3203285
vt 0.765616 0.3828124
vt 0.765616 0.3203285
vt 0.7617108 0.3828124
vt 0.7617108 0.3203285
vt 0.7578053 0.3828125
vt 0.7578053 0.3203285
vt 0.7539001 0.3828125
vt 0.7539001 0.3203285
vt 0.7539001 0.3203285
vt 0.7499949 0.3828125
vt 0.7539001 0.3828125
vt 0.7499949 0.3203285
vt 0.7460896 0.3828125
vt 0.7460896 0.3203285
vt 0.7421843 0.3828125
vt 0.7421844 0.3203285
vt 0.738279 0.3828125
vt 0.7382791 0.3203285
vt 0.7343736 0.3828125
vt 0.7343739 0.3203284
vt 0.7304684 0.3828125
vt 0.7304686 0.3203284
vt 0.7265631 0.3828125
vt 0.7265633 0.3203284
vt 0.7226577 0.3828125
vt 0.722658 0.3203284
vt 0.722658 0.3203284
vt 0.7187525 0.3828125
vt 0.7226577 0.3828125
vt 0.7187527 0.3203282
vt 0.7148471 0.3828126
vt 0.7148474 0.3203282
vt 0.7109419 0.3828126
vt 0.7109421 0.3203281
vt 0.7070365 0.3828126
vt 0.7070367 0.3203281
vt 0.7031313 0.3828126
vt 0.7031315 0.3203281
vt 0.6992259 0.3828126
vt 0.6992261 0.320328
vt 0.7014091 0.444712
vt 0.689216 0.444712
vt 0.6953125 0.4453125
vt 0.6833536 0.4429337
vt 0.7072714 0.4429337
vt 0.677951 0.440046
vt 0.7126741 0.4400459
vt 0.6732155 0.4361596
vt 0.7174096 0.4361596
vt 0.6693291 0.4314241
vt 0.7212959 0.4314241
vt 0.6664413 0.4260214
vt 0.7241837 0.4260214
vt 0.664663 0.4201591
vt 0.725962 0.4201591
vt 0.6640625 0.4140625
vt 0.7265625 0.4140625
vt 0.664663 0.407966
vt 0.725962 0.4079659
vt 0.6664413 0.4021036
vt 0.7241837 0.4021036
vt 0.669329 0.396701
vt 0.7212959 0.3967009
vt 0.6732154 0.3919654
vt 0.7174096 0.3919654
vt 0.6779509 0.3880791
vt 0.7126741 0.3880791
vt 0.6833536 0.3851913
vt 0.7072714 0.3851913
vt 0.6892159 0.383413
vt 0.7014091 0.383413
vt 0.6953125 0.3828125
vt 0.7578125 0.4453125
vt 0.751716 0.444712
vt 0.7639091 0.444712
vt 0.7458536 0.4429337
vt 0.7697714 0.4429337
vt 0.740451 0.440046
vt 0.7751741 0.4400459
vt 0.7357155 0.4361596
vt 0.7799096 0.4361596
vt 0.7318291 0.4314241
vt 0.7837959 0.4314241
vt 0.7289413 0.4260214
vt 0.7866837 0.4260214
vt 0.727163 0.4201591
vt 0.788462 0.4201591
vt 0.7265625 0.4140625
vt 0.7890625 0.4140625
vt 0.727163 0.407966
vt 0.788462 0.4079659
vt 0.7289413 0.4021036
vt 0.7866837 0.4021036
vt 0.731829 0.396701
vt 0.7837959 0.3967009
vt 0.7357154 0.3919654
vt 0.7799096 0.3919654
vt 0.7404509 0.3880791
vt 0.7751741 0.3880791
vt 0.7458536 0.3851913
vt 0.7697714 0.3851913
vt 0.7517159 0.383413
vt 0.7639091 0.383413
vt 0.7578125 0.3828125
vn 0.7071068 0.7071068 0
vn 0.8314676 0.5555732 0
vn 0.8314676 0.5555732 0
vn 0.7071068 0.7071068 0
vn 0.5555732 0.8314676 0
vn 0.5555732 0.8314676 0
vn 0.3826815 0.9238803 0
vn 0.3826815 0.9238803 0
vn 0.1950772 0.9807879 0
vn 0.1950772 0.9807879 0
vn 0 1 0
vn 0 1 0
vn -0.1950772 0.9807879 0
vn -0.1950772 0.9807879 0
vn 0.8314676 0.5555732 0
vn 0.9238803 0.3826815 0
vn 0.8314676 0.5555732 0
vn 0.9238803 0.3826815 0
vn 0.9807879 0.1950772 0
vn 0.9807879 0.1950772 0
vn 1 0 0
vn 1 0 0
vn 1 0 0
vn 0.9807879 -0.1950772 0
vn 1 0 0
vn 0.9807879 -0.1950772 0
vn 0.9238803 -0.3826815 0
vn 0.9238803 -0.3826815 0
vn 0.8314676 -0.5555732 0
vn 0.8314676 -0.5555732 0
vn 0.8314676 -0.5555732 0
vn 0.7071068 -0.7071068 0
vn 0.8314676 -0.5555732 0
vn 0.7071068 -0.7071068 0
vn 0.5555732 -0.8314676 0
vn 0.5555732 -0.8314676 0
vn 0.3826815 -0.9238803 0
vn 0.3826815 -0.9238803 0
vn 0.1950772 -0.9807879 0
vn 0.1950772 -0.9807879 0
vn 0 -1 0
vn 0 -1 0
vn -0.1950772 -0.9807879 0
vn -0.1950772 -0.9807879 0
vn -0.1950772 -0.9807879 0
vn -0.3826815 -0.9238803 0
vn -0.1950772 -0.9807879 0
vn -0.3826815 -0.9238803 0
vn -0.5555732 -0.8314676 0
vn -0.5555732 -0.8314676 0
vn -0.7071068 -0.7071068 0
vn -0.7071068 -0.7071068 0
vn -0.8314676 -0.5555732 0
vn -0.8314676 -0.5555732 0
vn -0.9238803 -0.3826815 0
vn -0.9238803 -0.3826815 0
vn -0.9807879 -0.1950772 0
vn -0.9807879 -0.1950772 0
vn -1 0 0
vn -1 0 0
vn -0.9807879 0.1950772 0
vn -0.9807879 0.1950772 0
vn -0.9807879 0.1950772 0
vn -0.9238803 0.3826815 0
vn -0.9807879 0.1950772 0
vn -0.9238803 0.3826815 0
vn -0.8314676 0.5555732 0
vn -0.8314676 0.5555732 0
vn -0.7071068 0.7071068 0
vn -0.7071068 0.7071068 0
vn -0.5555732 0.8314676 0
vn -0.5555732 0.8314676 0
vn -0.3826815 0.9238803 0
vn -0.3826815 0.9238803 0
vn -0.1950772 0.9807879 0
vn -0.1950772 0.9807879 0
vn 0 0 1
vn 0 0 1
vn 0 0 1
vn 0 0 1
vn 0 0 1
vn 0 0 1
vn 0 0 1
vn 0 0 1
vn 0 0 1
vn 0 0 1
vn 0 0 1
vn 0 0 1
vn 0 0 1
vn 0 0 1
vn 0 0 1
vn 0 0 1
vn 0 0 1
vn 0 0 1
vn 0 0 1
vn 0 0 1
vn 0 0 1
vn 0 0 1
vn 0 0 1
vn 0 0 1
vn 0 0 1
vn 0 0 1
vn 0 0 1
vn 0 0 1
vn 0 0 1
vn 0 0 1
vn 0 0 1
vn 0 0 1
vn 0 0 -1
vn 0 0 -1
vn 0 0 -1
vn 0 0 -1
vn 0 0 -1
vn 0 0 -1
vn 0 0 -1
vn 0 0 -1
vn 0 0 -1
vn 0 0 -1
vn 0 0 -1
vn 0 0 -1
vn 0 0 -1
vn 0 0 -1
vn 0 0 -1
vn 0 0 -1
vn 0 0 -1
vn 0 0 -1
vn 0 0 -1
vn 0 0 -1
vn 0 0 -1
vn 0 0 -1
vn 0 0 -1
vn 0 0 -1
vn 0 0 -1
vn 0 0 -1
vn 0 0 -1
vn 0 0 -1
vn 0 0 -1
vn 0 0 -1
vn 0 0 -1
vn 0 0 -1
g Intro_Cylinder1x1_Plain_0
f 3/3/3 2/2/2 1/1/1
f 4/4/4 3/3/3 1/1/1
f 4/4/4 1/1/1 5/5/5
f 6/6/6 4/4/4 5/5/5
f 6/6/6 5/5/5 7/7/7
f 8/8/8 6/6/6 7/7/7
f 8/8/8 7/7/7 9/9/9
f 10/10/10 8/8/8 9/9/9
f 10/10/10 9/9/9 11/11/11
f 12/12/12 10/10/10 11/11/11
f 11/11/11 13/13/13 12/12/12
f 13/13/13 14/14/14 12/12/12
f 17/17/17 16/16/16 15/15/15
f 16/16/16 18/18/18 15/15/15
f 16/16/16 19/19/19 18/18/18
f 19/19/19 20/20/20 18/18/18
f 19/19/19 21/21/21 20/20/20
f 21/21/21 22/22/22 20/20/20
f 25/25/25 24/24/24 23/23/23
f 24/24/24 26/26/26 23/23/23
f 24/24/24 27/27/27 26/26/26
f 27/27/27 28/28/28 26/26/26
f 27/27/27 29/29/29 28/28/28
f 29/29/29 30/30/30 28/28/28
f 33/33/33 32/32/32 31/31/31
f 32/32/32 34/34/34 31/31/31
f 32/32/32 35/35/35 34/34/34
f 35/35/35 36/36/36 34/34/34
f 35/35/35 37/37/37 36/36/36
f 37/37/37 38/38/38 36/36/36
f 37/37/37 39/39/39 38/38/38
f 39/39/39 40/40/40 38/38/38
f 39/39/39 41/41/41 40/40/40
f 41/41/41 42/42/42 40/40/40
f 41/41/41 43/43/43 42/42/42
f 43/43/43 44/44/44 42/42/42
f 47/47/47 46/46/46 45/45/45
f 46/46/46 48/48/48 45/45/45
f 46/46/46 49/49/49 48/48/48
f 49/49/49 50/50/50 48/48/48
f 49/49/49 51/51/51 50/50/50
f 51/51/51 52/52/52 50/50/50
f 51/51/51 53/53/53 52/52/52
f 53/53/53 54/54/54 52/52/52
f 53/53/53 55/55/55 54/54/54
f 55/55/55 56/56/56 54/54/54
f 55/55/55 57/57/57 56/56/56
f 57/57/57 58/58/58 56/56/56
f 57/57/57 59/59/59 58/58/58
f 59/59/59 60/60/60 58/58/58
f 59/59/59 61/61/61 60/60/60
f 61/61/61 62/62/62 60/60/60
f 65/65/65 64/64/64 63/63/63
f 64/64/64 66/66/66 63/63/63
f 64/64/64 67/67/67 66/66/66
f 67/67/67 68/68/68 66/66/66
f 67/67/67 69/69/69 68/68/68
f 69/69/69 70/70/70 68/68/68
f 69/69/69 71/71/71 70/70/70
f 71/71/71 72/72/72 70/70/70
f 71/71/71 73/73/73 72/72/72
f 73/73/73 74/74/74 72/72/72
f 73/73/73 75/75/75 74/74/74
f 75/75/75 76/76/76 74/74/74
f 79/79/79 78/78/78 77/77/77
f 78/78/78 80/80/80 77/77/77
f 80/80/80 81/81/81 77/77/77
f 82/82/82 81/81/81 80/80/80
f 83/83/83 81/81/81 82/82/82
f 84/84/84 83/83/83 82/82/82
f 85/85/85 83/83/83 84/84/84
f 86/86/86 85/85/85 84/84/84
f 87/87/87 85/85/85 86/86/86
f 88/88/88 87/87/87 86/86/86
f 89/89/89 87/87/87 88/88/88
f 90/90/90 89/89/89 88/88/88
f 91/91/91 89/89/89 90/90/90
f 92/92/92 91/91/91 90/90/90
f 93/93/93 91/91/91 92/92/92
f 94/94/94 93/93/93 92/92/92
f 95/95/95 93/93/93 94/94/94
f 96/96/96 95/95/95 94/94/94
f 97/97/97 95/95/95 96/96/96
f 98/98/98 97/97/97 96/96/96
f 99/99/99 97/97/97 98/98/98
f 100/100/100 99/99/99 98/98/98
f 101/101/101 99/99/99 100/100/100
f 102/102/102 101/101/101 100/100/100
f 103/103/103 101/101/101 102/102/102
f 104/104/104 103/103/103 102/102/102
f 105/105/105 103/103/103 104/104/104
f 106/106/106 105/105/105 104/104/104
f 107/107/107 105/105/105 106/106/106
f 108/108/108 107/107/107 106/106/106
f 111/111/111 110/110/110 109/109/109
f 112/112/112 110/110/110 111/111/111
f 113/113/113 112/112/112 111/111/111
f 114/114/114 112/112/112 113/113/113
f 115/115/115 114/114/114 113/113/113
f 116/116/116 114/114/114 115/115/115
f 117/117/117 116/116/116 115/115/115
f 118/118/118 116/116/116 117/117/117
f 119/119/119 118/118/118 117/117/117
f 120/120/120 118/118/118 119/119/119
f 121/121/121 120/120/120 119/119/119
f 122/122/122 120/120/120 121/121/121
f 123/123/123 122/122/122 121/121/121
f 124/124/124 122/122/122 123/123/123
f 125/125/125 124/124/124 123/123/123
f 126/126/126 124/124/124 125/125/125
f 127/127/127 126/126/126 125/125/125
f 128/128/128 126/126/126 127/127/127
f 129/129/129 128/128/128 127/127/127
f 130/130/130 128/128/128 129/129/129
f 131/131/131 130/130/130 129/129/129
f 132/132/132 130/130/130 131/131/131
f 133/133/133 132/132/132 131/131/131
f 134/134/134 132/132/132 133/133/133
f 135/135/135 134/134/134 133/133/133
f 136/136/136 134/134/134 135/135/135
f 137/137/137 136/136/136 135/135/135
f 138/138/138 136/136/136 137/137/137
f 139/139/139 138/138/138 137/137/137
f 140/140/140 138/138/138 139/139/139
