g Intro_IntroHiddenWall_Plain
v 0 2 3
v 0 2.5 3
v 0 2.5 0
v 0 2 0
v 0 1.875 2.125
v 0 1.875 0
v 0 1.625 2.375
v 0 1.375 2.375
v -1E-06 1 3
v 0 1.125 2.125
v 0 1.125 0
v 0 1 0
v 0 0.875 2.125
v 0 0.875 0
v 0 0.625 2.375
v 0 0.375 2.375
v -1E-06 0 3
v 0 0.125 2.125
v 0 0.125 0
v 0 0 0
v 0 -0.125 2.125
v 0 -0.125 0
v 0 -0.375 2.375
v 0 -0.625 2.375
v -1E-06 -1 3
v 0 -0.875 2.125
v 0 -0.875 0
v 0 -1 0
v 0 -1.125 2.125
v 0 -1.125 0
v 0 -1.375 2.375
v 0 -1.625 2.375
v -1E-06 -2 3
v 0 -1.875 2.125
v 0 -1.875 0
v 0 -2 0
v -1E-06 -2.5 3
v 0 -2.5 0
v 0 -1.125 0
v -0.125 -1.125 0
v -0.125 -1.125 2.125
v 0 -1.125 2.125
v 0 -0.625 2.375
v -0.125 -0.625 2.375
v -0.125 -0.875 2.125
v 0 -0.875 2.125
v 0 1.875 0
v -0.125 1.875 0
v -0.125 1.875 2.125
v 0 1.875 2.125
v 0 1.875 2.125
v -0.125 1.875 2.125
v -0.125 1.625 2.375
v 0 1.625 2.375
v 0 -1.875 2.125
v -0.125 -1.875 2.125
v -0.125 -1.875 0
v 0 -1.875 0
v 0 0.875 0
v -0.125 0.875 0
v -0.125 0.875 2.125
v 0 0.875 2.125
v 0 -1.125 2.125
v -0.125 -1.125 2.125
v -0.125 -1.375 2.375
v 0 -1.375 2.375
v 0 -0.125 2.125
v -0.125 -0.125 2.125
v -0.125 -0.375 2.375
v 0 -0.375 2.375
v 0 1.125 2.125
v -0.125 1.125 2.125
v -0.125 1.125 0
v 0 1.125 0
v 0 -0.125 0
v -0.125 -0.125 0
v -0.125 -0.125 2.125
v 0 -0.125 2.125
v 0 1.375 2.375
v -0.125 1.375 2.375
v -0.125 1.125 2.125
v 0 1.125 2.125
v 0 -0.875 2.125
v -0.125 -0.875 2.125
v -0.125 -0.875 0
v 0 -0.875 0
v 0 -1.625 2.375
v -0.125 -1.625 2.375
v -0.125 -1.875 2.125
v 0 -1.875 2.125
v 0 0.875 2.125
v -0.125 0.875 2.125
v -0.125 0.625 2.375
v 0 0.625 2.375
v 0 1.625 2.375
v -0.125 1.625 2.375
v -0.125 1.375 2.375
v 0 1.375 2.375
v 0 0.125 2.125
v -0.125 0.125 2.125
v -0.125 0.125 0
v 0 0.125 0
v 0 -1.375 2.375
v -0.125 -1.375 2.375
v -0.125 -1.625 2.375
v 0 -1.625 2.375
v 0 0.375 2.375
v -0.125 0.375 2.375
v -0.125 0.125 2.125
v 0 0.125 2.125
v 0 0.625 2.375
v -0.125 0.625 2.375
v -0.125 0.375 2.375
v 0 0.375 2.375
v 0 -0.375 2.375
v -0.125 -0.375 2.375
v -0.125 -0.625 2.375
v 0 -0.625 2.375
v -0.125 0.4375 2
v -0.25 0.4375 2
v -0.250001 0.375 1.875
v -0.125001 0.375 1.875
v -0.25 0.375 0.875
v -0.125 0.375 0.875
v -0.125 -1.375 1.875
v -0.25 -1.4375 2
v -0.125 -1.4375 2
v -0.25 -1.375 1.875
v -0.125 -1.375 0.875
v -0.25 -1.375 0.875
v -0.25 -1.375 0.875
v -0.25 -1.4375 2
v -0.25 -1.375 1.875
v -0.25 -1.625 0.875
v -0.25 -1.5625 2
v -0.250001 -1.625 1.875
v -0.125 -1.625 0.875
v -0.25 -1.625 0.875
v -0.25 -1.375 0.875
v -0.125 -1.375 0.875
v -0.125 -1.5625 2
v -0.25 -1.5625 2
v -0.250001 -1.625 1.875
v -0.125001 -1.625 1.875
v -0.25 -1.625 0.875
v -0.125 -1.625 0.875
v -0.125 -1.4375 2
v -0.25 -1.4375 2
v -0.25 -1.5625 2
v -0.125 -1.5625 2
v -0.125 0.625 1.875
v -0.25 0.5625 2
v -0.125 0.5625 2
v -0.25 0.625 1.875
v -0.125 0.625 0.875
v -0.25 0.625 0.875
v -0.25 0.625 0.875
v -0.25 0.5625 2
v -0.25 0.625 1.875
v -0.25 0.375 0.875
v -0.25 0.4375 2
v -0.250001 0.375 1.875
v -0.125 0.375 0.875
v -0.25 0.375 0.875
v -0.25 0.625 0.875
v -0.125 0.625 0.875
v -0.125 0.5625 2
v -0.25 0.5625 2
v -0.25 0.4375 2
v -0.125 0.4375 2
v -0.125 -0.4375 2
v -0.25 -0.4375 2
v -0.25 -0.5625 2
v -0.125 -0.5625 2
v -0.125001 -0.625 1.875
v -0.25 -0.625 0.875
v -0.125 -0.625 0.875
v -0.250001 -0.625 1.875
v -0.125 -0.5625 2
v -0.25 -0.5625 2
v -0.125 -0.625 0.875
v -0.25 -0.625 0.875
v -0.25 -0.375 0.875
v -0.125 -0.375 0.875
v -0.125 -0.375 0.875
v -0.25 -0.375 0.875
v -0.25 -0.375 1.875
v -0.125 -0.375 1.875
v -0.25 -0.4375 2
v -0.125 -0.4375 2
v -0.25 -0.375 0.875
v -0.25 -0.4375 2
v -0.25 -0.375 1.875
v -0.25 -0.625 0.875
v -0.25 -0.5625 2
v -0.250001 -0.625 1.875
v -0.125 1.625 1.875
v -0.25 1.5625 2
v -0.125 1.5625 2
v -0.25 1.625 1.875
v -0.125 1.625 0.875
v -0.25 1.625 0.875
v -0.25 1.625 0.875
v -0.25 1.5625 2
v -0.25 1.625 1.875
v -0.25 1.375 0.875
v -0.25 1.4375 2
v -0.250001 1.375 1.875
v -0.125 1.375 0.875
v -0.25 1.375 0.875
v -0.25 1.625 0.875
v -0.125 1.625 0.875
v -0.125 1.4375 2
v -0.25 1.4375 2
v -0.250001 1.375 1.875
v -0.125001 1.375 1.875
v -0.25 1.375 0.875
v -0.125 1.375 0.875
v -0.125 1.5625 2
v -0.25 1.5625 2
v -0.25 1.4375 2
v -0.125 1.4375 2
v -0.125 1.4375 2
v -0.125 1.625 2.375
v -0.125 1.5625 2
v -0.125 1.625 1.875
v -0.125 1.375 2.375
v -0.125 1.875 2.125
v -0.125001 1.375 1.875
v -0.125 1.875 0
v -0.125 1.125 2.125
v -0.125 1.625 0.875
v -0.125 1.375 0.875
v -0.125 1.125 0
v -0.125 -1.5625 2
v -0.125 -1.375 2.375
v -0.125 -1.4375 2
v -0.125 -1.375 1.875
v -0.125 -1.625 2.375
v -0.125 -1.125 2.125
v -0.125001 -1.625 1.875
v -0.125 -1.125 0
v -0.125 -1.875 2.125
v -0.125 -1.375 0.875
v -0.125 -1.625 0.875
v -0.125 -1.875 0
v -0.125 0.4375 2
v -0.125 0.625 2.375
v -0.125 0.5625 2
v -0.125 0.625 1.875
v -0.125 0.375 2.375
v -0.125 0.875 2.125
v -0.125001 0.375 1.875
v -0.125 0.875 0
v -0.125 0.125 2.125
v -0.125 0.625 0.875
v -0.125 0.375 0.875
v -0.125 0.125 0
v -0.125 -0.375 2.375
v -0.125 -0.375 1.875
v -0.125 -0.4375 2
v -0.125 -0.5625 2
v -0.125 -0.125 2.125
v -0.125 -0.625 2.375
v -0.125 -0.125 0
v -0.125001 -0.625 1.875
v -0.125 -0.375 0.875
v -0.125 -0.875 2.125
v -0.125 -0.875 0
v -0.125 -0.625 0.875
vt 0.06347676 0.9921875
vt 0.0078125 0.9921875
vt 0.0078125 0.6171875
vt 0.06347676 0.6171875
vt 0.07519551 0.885254
vt 0.07519551 0.6171875
vt 0.1103518 0.9145509
vt 0.1367188 0.9145509
vt 0.1748045 0.9921875
vt 0.1630857 0.885254
vt 0.1630857 0.6171875
vt 0.1748045 0.6171875
vt 0.192383 0.885254
vt 0.192383 0.6171875
vt 0.21875 0.9145509
vt 0.245117 0.9145509
vt 0.2890625 0.9921875
vt 0.2744142 0.885254
vt 0.2744142 0.6171875
vt 0.2890625 0.6171875
vt 0.3037108 0.885254
vt 0.3037108 0.6171875
vt 0.3300785 0.9145509
vt 0.359375 0.9145509
vt 0.400391 0.9921875
vt 0.385742 0.885254
vt 0.385742 0.6171875
vt 0.400391 0.6171875
vt 0.4150392 0.885254
vt 0.4150392 0.6171875
vt 0.4414063 0.9145509
vt 0.4677733 0.9145509
vt 0.5146483 0.9921875
vt 0.5029295 0.885254
vt 0.5029295 0.6171875
vt 0.5146483 0.6171875
vt 0.5703125 0.9921875
vt 0.5703125 0.6171875
vt 0.734375 0.6171875
vt 0.7109375 0.6171875
vt 0.7109375 0.8046875
vt 0.734375 0.8046875
vt 0.734375 0.828125
vt 0.7109375 0.828125
vt 0.7109375 0.8046875
vt 0.734375 0.8046875
vt 0.734375 0.6171875
vt 0.7109375 0.6171875
vt 0.7109375 0.8046875
vt 0.734375 0.8046875
vt 0.734375 0.8046875
vt 0.7109375 0.8046875
vt 0.7109375 0.828125
vt 0.734375 0.828125
vt 0.734375 0.8046875
vt 0.7109375 0.8046875
vt 0.7109375 0.6171875
vt 0.734375 0.6171875
vt 0.734375 0.6171875
vt 0.7109375 0.6171875
vt 0.7109375 0.8046875
vt 0.734375 0.8046875
vt 0.734375 0.8046875
vt 0.7109375 0.8046875
vt 0.7109375 0.828125
vt 0.734375 0.828125
vt 0.734375 0.8046875
vt 0.7109375 0.8046875
vt 0.7109375 0.828125
vt 0.734375 0.828125
vt 0.734375 0.8046875
vt 0.7109375 0.8046875
vt 0.7109375 0.6171875
vt 0.734375 0.6171875
vt 0.734375 0.6171875
vt 0.7109375 0.6171875
vt 0.7109375 0.8046875
vt 0.734375 0.8046875
vt 0.734375 0.828125
vt 0.7109375 0.828125
vt 0.7109375 0.8046875
vt 0.734375 0.8046875
vt 0.734375 0.8046875
vt 0.7109375 0.8046875
vt 0.7109375 0.6171875
vt 0.734375 0.6171875
vt 0.734375 0.828125
vt 0.7109375 0.828125
vt 0.7109375 0.8046875
vt 0.734375 0.8046875
vt 0.734375 0.8046875
vt 0.7109375 0.8046875
vt 0.7109375 0.828125
vt 0.734375 0.828125
vt 0.734375 0.828125
vt 0.7109375 0.828125
vt 0.7109375 0.828125
vt 0.734375 0.828125
vt 0.734375 0.8046875
vt 0.7109375 0.8046875
vt 0.7109375 0.6171875
vt 0.734375 0.6171875
vt 0.734375 0.828125
vt 0.7109375 0.828125
vt 0.7109375 0.828125
vt 0.734375 0.828125
vt 0.734375 0.828125
vt 0.7109375 0.828125
vt 0.7109375 0.8046875
vt 0.734375 0.8046875
vt 0.734375 0.828125
vt 0.7109375 0.828125
vt 0.7109375 0.828125
vt 0.734375 0.828125
vt 0.734375 0.828125
vt 0.7109375 0.828125
vt 0.7109375 0.828125
vt 0.734375 0.828125
vt 0.6171875 0.828125
vt 0.59375 0.828125
vt 0.59375 0.8046875
vt 0.6171875 0.8046875
vt 0.59375 0.6171875
vt 0.6171875 0.6171875
vt 0.6171875 0.8046875
vt 0.59375 0.828125
vt 0.6171875 0.828125
vt 0.59375 0.8046875
vt 0.6171875 0.6171875
vt 0.59375 0.6171875
vt 0.6875 0.6171875
vt 0.6757813 0.828125
vt 0.6875 0.8046875
vt 0.640625 0.6171875
vt 0.6523438 0.828125
vt 0.640625 0.8046875
vt 0.6875 0.8632813
vt 0.6875 0.8398438
vt 0.640625 0.8398438
vt 0.640625 0.8632813
vt 0.6171875 0.828125
vt 0.59375 0.828125
vt 0.59375 0.8046875
vt 0.6171875 0.8046875
vt 0.59375 0.6171875
vt 0.6171875 0.6171875
vt 0.6171875 0.8164063
vt 0.59375 0.8164063
vt 0.59375 0.7929688
vt 0.6171875 0.7929688
vt 0.6171875 0.8046875
vt 0.59375 0.828125
vt 0.6171875 0.828125
vt 0.59375 0.8046875
vt 0.6171875 0.6171875
vt 0.59375 0.6171875
vt 0.6875 0.6171875
vt 0.6757813 0.828125
vt 0.6875 0.8046875
vt 0.640625 0.6171875
vt 0.6523438 0.828125
vt 0.640625 0.8046875
vt 0.6875 0.8632813
vt 0.6875 0.8398438
vt 0.640625 0.8398438
vt 0.640625 0.8632813
vt 0.6171875 0.8164063
vt 0.59375 0.8164063
vt 0.59375 0.7929688
vt 0.6171875 0.7929688
vt 0.6171875 0.8164063
vt 0.59375 0.8164063
vt 0.59375 0.7929688
vt 0.6171875 0.7929688
vt 0.6171875 0.8046875
vt 0.59375 0.6171875
vt 0.6171875 0.6171875
vt 0.59375 0.8046875
vt 0.6171875 0.828125
vt 0.59375 0.828125
vt 0.6875 0.8632813
vt 0.6875 0.8398438
vt 0.640625 0.8398438
vt 0.640625 0.8632813
vt 0.6171875 0.6171875
vt 0.59375 0.6171875
vt 0.59375 0.8046875
vt 0.6171875 0.8046875
vt 0.59375 0.828125
vt 0.6171875 0.828125
vt 0.6875 0.6171875
vt 0.6757813 0.828125
vt 0.6875 0.8046875
vt 0.640625 0.6171875
vt 0.6523438 0.828125
vt 0.640625 0.8046875
vt 0.6171875 0.8046875
vt 0.59375 0.828125
vt 0.6171875 0.828125
vt 0.59375 0.8046875
vt 0.6171875 0.6171875
vt 0.59375 0.6171875
vt 0.6875 0.6171875
vt 0.6757813 0.828125
vt 0.6875 0.8046875
vt 0.640625 0.6171875
vt 0.6523438 0.828125
vt 0.640625 0.8046875
vt 0.6875 0.8632813
vt 0.6875 0.8398438
vt 0.640625 0.8398438
vt 0.640625 0.8632813
vt 0.6171875 0.828125
vt 0.59375 0.828125
vt 0.59375 0.8046875
vt 0.6171875 0.8046875
vt 0.59375 0.6171875
vt 0.6171875 0.6171875
vt 0.6171875 0.8164063
vt 0.59375 0.8164063
vt 0.59375 0.7929688
vt 0.6171875 0.7929688
vt 0.1279295 0.885254
vt 0.1103518 0.9145509
vt 0.1162107 0.885254
vt 0.1103518 0.8662108
vt 0.1367188 0.9145509
vt 0.07519551 0.885254
vt 0.1367188 0.8662108
vt 0.07519551 0.6171875
vt 0.1630857 0.885254
vt 0.1103518 0.744629
vt 0.1367188 0.744629
vt 0.1630857 0.6171875
vt 0.4619142 0.885254
vt 0.4414063 0.9145509
vt 0.4501955 0.885254
vt 0.4414063 0.8662108
vt 0.4677733 0.9145509
vt 0.4150392 0.885254
vt 0.4677733 0.8662108
vt 0.4150392 0.6171875
vt 0.5029295 0.885254
vt 0.4414063 0.744629
vt 0.4677733 0.744629
vt 0.5029295 0.6171875
vt 0.239258 0.885254
vt 0.21875 0.9145509
vt 0.224609 0.885254
vt 0.21875 0.8662108
vt 0.245117 0.9145509
vt 0.192383 0.885254
vt 0.245117 0.8662108
vt 0.192383 0.6171875
vt 0.2744142 0.885254
vt 0.21875 0.744629
vt 0.245117 0.744629
vt 0.2744142 0.6171875
vt 0.3300785 0.9145509
vt 0.3300785 0.8662108
vt 0.338867 0.885254
vt 0.353516 0.885254
vt 0.3037108 0.885254
vt 0.359375 0.9145509
vt 0.3037108 0.6171875
vt 0.359375 0.8662108
vt 0.3300785 0.744629
vt 0.385742 0.885254
vt 0.385742 0.6171875
vt 0.359375 0.744629
vn 1 0 0
vn 1 0 0
vn 1 0 0
vn 1 0 0
vn 1 0 0
vn 1 0 0
vn 1 0 0
vn 1 0 0
vn 1 0 0
vn 1 0 0
vn 1 0 0
vn 1 0 0
vn 1 0 0
vn 1 0 0
vn 1 0 0
vn 1 0 0
vn 1 0 0
vn 1 0 0
vn 1 0 0
vn 1 0 0
vn 1 0 0
vn 1 0 0
vn 1 0 0
vn 1 0 0
vn 1 0 0
vn 1 0 0
vn 1 0 0
vn 1 0 0
vn 1 0 0
vn 1 0 0
vn 1 0 0
vn 1 0 0
vn 1 0 0
vn 1 0 0
vn 1 0 0
vn 1 0 0
vn 1 0 0
vn 1 0 0
vn 0 -1 0
vn 0 -1 0
vn 0 -1 0
vn 0 -1 0
vn 0 0.7071068 -0.7071068
vn 0 0.7071068 -0.7071068
vn 0 0.7071068 -0.7071068
vn 0 0.7071068 -0.7071068
vn 0 -1 0
vn 0 -1 0
vn 0 -1 0
vn 0 -1 0
vn 0 -0.7071068 -0.7071068
vn 0 -0.7071068 -0.7071068
vn 0 -0.7071068 -0.7071068
vn 0 -0.7071068 -0.7071068
vn 0 1 0
vn 0 1 0
vn 0 1 0
vn 0 1 0
vn 0 -1 0
vn 0 -1 0
vn 0 -1 0
vn 0 -1 0
vn 0 -0.7071068 -0.7071068
vn 0 -0.7071068 -0.7071068
vn 0 -0.7071068 -0.7071068
vn 0 -0.7071068 -0.7071068
vn 0 -0.7071068 -0.7071068
vn 0 -0.7071068 -0.7071068
vn 0 -0.7071068 -0.7071068
vn 0 -0.7071068 -0.7071068
vn 0 1 0
vn 0 1 0
vn 0 1 0
vn 0 1 0
vn 0 -1 0
vn 0 -1 0
vn 0 -1 0
vn 0 -1 0
vn 0 0.7071068 -0.7071068
vn 0 0.7071068 -0.7071068
vn 0 0.7071068 -0.7071068
vn 0 0.7071068 -0.7071068
vn 0 1 0
vn 0 1 0
vn 0 1 0
vn 0 1 0
vn 0 0.7071068 -0.7071068
vn 0 0.7071068 -0.7071068
vn 0 0.7071068 -0.7071068
vn 0 0.7071068 -0.7071068
vn 0 -0.7071068 -0.7071068
vn 0 -0.7071068 -0.7071068
vn 0 -0.7071068 -0.7071068
vn 0 -0.7071068 -0.7071068
vn 0 0 -1
vn 0 0 -1
vn 0 0 -1
vn 0 0 -1
vn 0 1 0
vn 0 1 0
vn 0 1 0
vn 0 1 0
vn 0 0 -1
vn 0 0 -1
vn 0 0 -1
vn 0 0 -1
vn 0 0.7071068 -0.7071068
vn 0 0.7071068 -0.7071068
vn 0 0.7071068 -0.7071068
vn 0 0.7071068 -0.7071068
vn 0 0 -1
vn 0 0 -1
vn 0 0 -1
vn 0 0 -1
vn 0 0 -1
vn 0 0 -1
vn 0 0 -1
vn 0 0 -1
vn 0 0.8944333 -0.4472014
vn 0 0.8944333 -0.4472014
vn 0 0.9732504 -0.2297469
vn 0 0.9732504 -0.2297469
vn 0 1 0
vn 0 1 0
vn 0 -0.9732504 -0.2297469
vn 0 -0.8944333 -0.4472014
vn 0 -0.8944333 -0.4472014
vn 0 -0.9732504 -0.2297469
vn 0 -1 0
vn 0 -1 0
vn 1 0 0
vn 1 0 0
vn 1 0 0
vn 1 0 0
vn 1 0 0
vn 1 0 0
vn 0 0 1
vn 0 0 1
vn 0 0 1
vn 0 0 1
vn 0 0.8944333 -0.4472014
vn 0 0.8944333 -0.4472014
vn 0 0.9732504 -0.2297469
vn 0 0.9732504 -0.2297469
vn 0 1 0
vn 0 1 0
vn 0 0 -1
vn 0 0 -1
vn 0 0 -1
vn 0 0 -1
vn 0 -0.9732504 -0.2297469
vn 0 -0.8944333 -0.4472014
vn 0 -0.8944333 -0.4472014
vn 0 -0.9732504 -0.2297469
vn 0 -1 0
vn 0 -1 0
vn 1 0 0
vn 1 0 0
vn 1 0 0
vn 1 0 0
vn 1 0 0
vn 1 0 0
vn 0 0 1
vn 0 0 1
vn 0 0 1
vn 0 0 1
vn 0 0 -1
vn 0 0 -1
vn 0 0 -1
vn 0 0 -1
vn 0 0 -1
vn 0 0 -1
vn 0 0 -1
vn 0 0 -1
vn 0 0.9732504 -0.2297469
vn 0 1 0
vn 0 1 0
vn 0 0.9732504 -0.2297469
vn 0 0.8944333 -0.4472014
vn 0 0.8944333 -0.4472014
vn 0 0 1
vn 0 0 1
vn 0 0 1
vn 0 0 1
vn 0 -1 0
vn 0 -1 0
vn 0 -0.9732504 -0.2297469
vn 0 -0.9732504 -0.2297469
vn 0 -0.8944333 -0.4472014
vn 0 -0.8944333 -0.4472014
vn 1 0 0
vn 1 0 0
vn 1 0 0
vn 1 0 0
vn 1 0 0
vn 1 0 0
vn 0 -0.9732504 -0.2297469
vn 0 -0.8944333 -0.4472014
vn 0 -0.8944333 -0.4472014
vn 0 -0.9732504 -0.2297469
vn 0 -1 0
vn 0 -1 0
vn 1 0 0
vn 1 0 0
vn 1 0 0
vn 1 0 0
vn 1 0 0
vn 1 0 0
vn 0 0 1
vn 0 0 1
vn 0 0 1
vn 0 0 1
vn 0 0.8944333 -0.4472014
vn 0 0.8944333 -0.4472014
vn 0 0.9732504 -0.2297469
vn 0 0.9732504 -0.2297469
vn 0 1 0
vn 0 1 0
vn 0 0 -1
vn 0 0 -1
vn 0 0 -1
vn 0 0 -1
vn 1 0 0
vn 1 0 0
vn 1 0 0
vn 1 0 0
vn 1 0 0
vn 1 0 0
vn 1 0 0
vn 1 0 0
vn 1 0 0
vn 1 0 0
vn 1 0 0
vn 1 0 0
vn 1 0 0
vn 1 0 0
vn 1 0 0
vn 1 0 0
vn 1 0 0
vn 1 0 0
vn 1 0 0
vn 1 0 0
vn 1 0 0
vn 1 0 0
vn 1 0 0
vn 1 0 0
vn 1 0 0
vn 1 0 0
vn 1 0 0
vn 1 0 0
vn 1 0 0
vn 1 0 0
vn 1 0 0
vn 1 0 0
vn 1 0 0
vn 1 0 0
vn 1 0 0
vn 1 0 0
vn 1 0 0
vn 1 0 0
vn 1 0 0
vn 1 0 0
vn 1 0 0
vn 1 0 0
vn 1 0 0
vn 1 0 0
vn 1 0 0
vn 1 0 0
vn 1 0 0
vn 1 0 0
g Intro_IntroHiddenWall_Plain_0
f 3/3/3 2/2/2 1/1/1
f 4/4/4 3/3/3 1/1/1
f 4/4/4 1/1/1 5/5/5
f 6/6/6 4/4/4 5/5/5
f 7/7/7 5/5/5 1/1/1
f 7/7/7 1/1/1 8/8/8
f 1/1/1 9/9/9 8/8/8
f 8/8/8 9/9/9 10/10/10
f 10/10/10 9/9/9 11/11/11
f 9/9/9 12/12/12 11/11/11
f 12/12/12 9/9/9 13/13/13
f 14/14/14 12/12/12 13/13/13
f 15/15/15 13/13/13 9/9/9
f 15/15/15 9/9/9 16/16/16
f 9/9/9 17/17/17 16/16/16
f 16/16/16 17/17/17 18/18/18
f 18/18/18 17/17/17 19/19/19
f 17/17/17 20/20/20 19/19/19
f 20/20/20 17/17/17 21/21/21
f 22/22/22 20/20/20 21/21/21
f 23/23/23 21/21/21 17/17/17
f 23/23/23 17/17/17 24/24/24
f 17/17/17 25/25/25 24/24/24
f 24/24/24 25/25/25 26/26/26
f 26/26/26 25/25/25 27/27/27
f 25/25/25 28/28/28 27/27/27
f 28/28/28 25/25/25 29/29/29
f 30/30/30 28/28/28 29/29/29
f 31/31/31 29/29/29 25/25/25
f 31/31/31 25/25/25 32/32/32
f 25/25/25 33/33/33 32/32/32
f 32/32/32 33/33/33 34/34/34
f 35/35/35 34/34/34 33/33/33
f 36/36/36 35/35/35 33/33/33
f 33/33/33 37/37/37 36/36/36
f 37/37/37 38/38/38 36/36/36
f 41/41/41 40/40/40 39/39/39
f 42/42/42 41/41/41 39/39/39
f 45/45/45 44/44/44 43/43/43
f 46/46/46 45/45/45 43/43/43
f 49/49/49 48/48/48 47/47/47
f 50/50/50 49/49/49 47/47/47
f 53/53/53 52/52/52 51/51/51
f 54/54/54 53/53/53 51/51/51
f 57/57/57 56/56/56 55/55/55
f 58/58/58 57/57/57 55/55/55
f 61/61/61 60/60/60 59/59/59
f 62/62/62 61/61/61 59/59/59
f 65/65/65 64/64/64 63/63/63
f 66/66/66 65/65/65 63/63/63
f 69/69/69 68/68/68 67/67/67
f 70/70/70 69/69/69 67/67/67
f 73/73/73 72/72/72 71/71/71
f 74/74/74 73/73/73 71/71/71
f 77/77/77 76/76/76 75/75/75
f 78/78/78 77/77/77 75/75/75
f 81/81/81 80/80/80 79/79/79
f 82/82/82 81/81/81 79/79/79
f 85/85/85 84/84/84 83/83/83
f 86/86/86 85/85/85 83/83/83
f 89/89/89 88/88/88 87/87/87
f 90/90/90 89/89/89 87/87/87
f 93/93/93 92/92/92 91/91/91
f 94/94/94 93/93/93 91/91/91
f 97/97/97 96/96/96 95/95/95
f 98/98/98 97/97/97 95/95/95
f 101/101/101 100/100/100 99/99/99
f 102/102/102 101/101/101 99/99/99
f 105/105/105 104/104/104 103/103/103
f 106/106/106 105/105/105 103/103/103
f 109/109/109 108/108/108 107/107/107
f 110/110/110 109/109/109 107/107/107
f 113/113/113 112/112/112 111/111/111
f 114/114/114 113/113/113 111/111/111
f 117/117/117 116/116/116 115/115/115
f 118/118/118 117/117/117 115/115/115
f 121/121/121 120/120/120 119/119/119
f 122/122/122 121/121/121 119/119/119
f 123/123/123 121/121/121 122/122/122
f 124/124/124 123/123/123 122/122/122
f 127/127/127 126/126/126 125/125/125
f 126/126/126 128/128/128 125/125/125
f 125/125/125 128/128/128 129/129/129
f 128/128/128 130/130/130 129/129/129
f 133/133/133 132/132/132 131/131/131
f 132/132/132 134/134/134 131/131/131
f 135/135/135 134/134/134 132/132/132
f 136/136/136 134/134/134 135/135/135
f 139/139/139 138/138/138 137/137/137
f 140/140/140 139/139/139 137/137/137
f 143/143/143 142/142/142 141/141/141
f 144/144/144 143/143/143 141/141/141
f 145/145/145 143/143/143 144/144/144
f 146/146/146 145/145/145 144/144/144
f 149/149/149 148/148/148 147/147/147
f 150/150/150 149/149/149 147/147/147
f 153/153/153 152/152/152 151/151/151
f 152/152/152 154/154/154 151/151/151
f 151/151/151 154/154/154 155/155/155
f 154/154/154 156/156/156 155/155/155
f 159/159/159 158/158/158 157/157/157
f 158/158/158 160/160/160 157/157/157
f 161/161/161 160/160/160 158/158/158
f 162/162/162 160/160/160 161/161/161
f 165/165/165 164/164/164 163/163/163
f 166/166/166 165/165/165 163/163/163
f 169/169/169 168/168/168 167/167/167
f 170/170/170 169/169/169 167/167/167
f 173/173/173 172/172/172 171/171/171
f 174/174/174 173/173/173 171/171/171
f 177/177/177 176/176/176 175/175/175
f 176/176/176 178/178/178 175/175/175
f 175/175/175 178/178/178 179/179/179
f 178/178/178 180/180/180 179/179/179
f 183/183/183 182/182/182 181/181/181
f 184/184/184 183/183/183 181/181/181
f 187/187/187 186/186/186 185/185/185
f 188/188/188 187/187/187 185/185/185
f 189/189/189 187/187/187 188/188/188
f 190/190/190 189/189/189 188/188/188
f 193/193/193 192/192/192 191/191/191
f 192/192/192 194/194/194 191/191/191
f 195/195/195 194/194/194 192/192/192
f 196/196/196 194/194/194 195/195/195
f 199/199/199 198/198/198 197/197/197
f 198/198/198 200/200/200 197/197/197
f 197/197/197 200/200/200 201/201/201
f 200/200/200 202/202/202 201/201/201
f 205/205/205 204/204/204 203/203/203
f 204/204/204 206/206/206 203/203/203
f 207/207/207 206/206/206 204/204/204
f 208/208/208 206/206/206 207/207/207
f 211/211/211 210/210/210 209/209/209
f 212/212/212 211/211/211 209/209/209
f 215/215/215 214/214/214 213/213/213
f 216/216/216 215/215/215 213/213/213
f 217/217/217 215/215/215 216/216/216
f 218/218/218 217/217/217 216/216/216
f 221/221/221 220/220/220 219/219/219
f 222/222/222 221/221/221 219/219/219
f 225/225/225 224/224/224 223/223/223
f 225/225/225 226/226/226 224/224/224
f 224/224/224 227/227/227 223/223/223
f 226/226/226 228/228/228 224/224/224
f 223/223/223 227/227/227 229/229/229
f 230/230/230 228/228/228 226/226/226
f 227/227/227 231/231/231 229/229/229
f 232/232/232 230/230/230 226/226/226
f 229/229/229 231/231/231 233/233/233
f 234/234/234 230/230/230 232/232/232
f 231/231/231 234/234/234 233/233/233
f 233/233/233 234/234/234 232/232/232
f 237/237/237 236/236/236 235/235/235
f 237/237/237 238/238/238 236/236/236
f 236/236/236 239/239/239 235/235/235
f 238/238/238 240/240/240 236/236/236
f 235/235/235 239/239/239 241/241/241
f 242/242/242 240/240/240 238/238/238
f 239/239/239 243/243/243 241/241/241
f 244/244/244 242/242/242 238/238/238
f 241/241/241 243/243/243 245/245/245
f 246/246/246 242/242/242 244/244/244
f 243/243/243 246/246/246 245/245/245
f 245/245/245 246/246/246 244/244/244
f 249/249/249 248/248/248 247/247/247
f 249/249/249 250/250/250 248/248/248
f 248/248/248 251/251/251 247/247/247
f 250/250/250 252/252/252 248/248/248
f 247/247/247 251/251/251 253/253/253
f 254/254/254 252/252/252 250/250/250
f 251/251/251 255/255/255 253/253/253
f 256/256/256 254/254/254 250/250/250
f 253/253/253 255/255/255 257/257/257
f 258/258/258 254/254/254 256/256/256
f 255/255/255 258/258/258 257/257/257
f 257/257/257 258/258/258 256/256/256
f 261/261/261 260/260/260 259/259/259
f 261/261/261 259/259/259 262/262/262
f 260/260/260 263/263/263 259/259/259
f 259/259/259 264/264/264 262/262/262
f 265/265/265 263/263/263 260/260/260
f 262/262/262 264/264/264 266/266/266
f 267/267/267 265/265/265 260/260/260
f 264/264/264 268/268/268 266/266/266
f 269/269/269 265/265/265 267/267/267
f 266/266/266 268/268/268 270/270/270
f 270/270/270 269/269/269 267/267/267
f 268/268/268 269/269/269 270/270/270
