g KeepWater
v -2.5625 0 -1.5625
v -3.5625 0 -1.5625
v -3.5625 0 -0.4375
v -2.5625 0 -0.4375
v -1.5 0 -1.5
v -1.5 0 -0.5
v -2.5625 0 0.5
v -1.5 0 0.5
v -2.5625 0 1.5
v -1.5 0 1.5
v -2.5625 0 2.5625
v -1.5 0 2.5625
v -0.5 0 2.5625
v -0.5 0 1.5
v 0.5 0 2.5625
v 0.5 0 1.5
v 1.5 0 2.5625
v 1.5 0 1.5
v -1.5 0 -2.5625
v -2.5625 0 -2.5625
v -0.5 0 -1.5
v -0.5625 0 -2.5625
v 0.5 0 -1.5
v 0.5625 0 -2.5625
v -0.5625 0 -3.5
v 1.5 0 -1.5
v 0.5625 0 -3.5
v -0.5625 0 -4.4375
v 0.5625 0 -4.4375
v 1.5 0 -2.5625
v 2.5625 0 -1.5
v 2.5625 0 -2.5625
v 1.5 0 -0.5
v 2.5625 0 -0.5
v 1.5 0 0.5
v 2.5625 0 0.5
v 2.5625 0 1.5
v 2.5625 0 2.5625
v -2.5 0.5 -1.5
v -3.5 0.5 -1.5
v -3.5 0.5 -0.5
v -2.5 0.5 -0.5
v -1.5 0.5 -1.5
v -1.5 0.5 -0.5
v -2.5 0.5 0.5
v -1.5 0.5 0.5
v -2.5 0.5 1.5
v -1.5 0.5 1.5
v -2.5 0.5 2.5
v -1.5 0.5 2.5
v -0.5 0.5 2.5
v -0.5 0.5 1.5
v 0.5 0.5 2.5
v 0.5 0.5 1.5
v 1.5 0.5 2.5
v 1.5 0.5 1.5
v -1.5 0.5 -2.5
v -2.5 0.5 -2.5
v -0.5 0.5 -1.5
v -0.5 0.5 -2.5
v 0.5 0.5 -1.5
v 0.5 0.5 -2.5
v -0.5 0.5 -3.5
v 1.5 0.5 -1.5
v 0.5 0.5 -3.5
v -0.5 0.5 -4.5
v 0.5 0.5 -4.5
v 1.5 0.5 -2.5
v 2.5 0.5 -1.5
v 2.5 0.5 -2.5
v 1.5 0.5 -0.5
v 2.5 0.5 -0.5
v 1.5 0.5 0.5
v 2.5 0.5 0.5
v 2.5 0.5 1.5
v 2.5 0.5 2.5
v -0.5625 0.0625 -4.4375
v -1.5 0.0625 -5
v -1.5 0.0625 -4.4375
v -2.5 0.0625 -4.4375
v -0.5 0.0625 -5
v -2.5 0.0625 -5
v 0.5625 0.0625 -4.4375
v -3.5 0.0625 -4.4375
v -3.5 0.0625 -5
v -4.4375 0.0625 -4.4375
v 0.5 0.0625 -5
v 1.5 0.0625 -4.4375
v 1.5 0.0625 -5
v 2.5 0.0625 -4.4375
v 2.5 0.0625 -5
v 3.5 0.0625 -5
v 3.5 0.0625 -4.4375
v 4.4375 0.0625 -4.4375
v -5 0.0625 -3.5
v -4.4375 0.0625 -3.5
v -5 0.0625 -2.5
v -4.4375 0.0625 -2.5
v -5 0.0625 -1.5
v -4.4375 0.0625 -1.5
v -5 0.0625 -0.5
v -4.4375 0.0625 -0.5
v -5 0.0625 0.5
v -4.4375 0.0625 0.5
v -5 0.0625 1.5
v -4.4375 0.0625 1.5
v -5 0.0625 2.5
v -4.4375 0.0625 2.5
v -5 0.0625 3.5
v -4.4375 0.0625 3.5
v -4.4375 0.0625 4.4375
v -3.5 0.0625 4.4375
v -3.5 0.0625 5
v -2.5 0.0625 4.4375
v -2.5 0.0625 5
v -1.5 0.0625 4.4375
v -1.5 0.0625 5
v -0.5 0.0625 5
v -0.5 0.0625 4.4375
v 0.5 0.0625 5
v 0.5 0.0625 4.4375
v 1.5 0.0625 5
v 1.5 0.0625 4.4375
v 2.5 0.0625 5
v 2.5 0.0625 4.4375
v 3.5 0.0625 4.4375
v 3.5 0.0625 5
v 4.4375 0.0625 4.4375
v 5 0.0625 3.5
v 4.4375 0.0625 3.5
v 5 0.0625 2.5
v 4.4375 0.0625 2.5
v 5 0.0625 1.5
v 4.4375 0.0625 1.5
v 5 0.0625 0.5
v 4.4375 0.0625 0.5
v 5 0.0625 -0.5
v 4.4375 0.0625 -0.5
v 5 0.0625 -1.5
v 4.4375 0.0625 -1.5
v 5 0.0625 -2.5
v 4.4375 0.0625 -2.5
v 5 0.0625 -3.5
v 4.4375 0.0625 -3.5
v -0.5 0.5625 -4.5
v -1.5 0.5625 -5
v -1.5 0.5625 -4.5
v -2.5 0.5625 -4.5
v -0.5 0.5625 -5
v -2.5 0.5625 -5
v 0.5 0.5625 -4.5
v -3.5 0.5625 -4.5
v -3.5 0.5625 -5
v -4.5 0.5625 -4.5
v 0.5 0.5625 -5
v 1.5 0.5625 -4.5
v 1.5 0.5625 -5
v 2.5 0.5625 -4.5
v 2.5 0.5625 -5
v 3.5 0.5625 -5
v 3.5 0.5625 -4.5
v 4.5 0.5625 -4.5
v -5 0.5625 -3.5
v -4.5 0.5625 -3.5
v -5 0.5625 -2.5
v -4.5 0.5625 -2.5
v -5 0.5625 -1.5
v -4.5 0.5625 -1.5
v -5 0.5625 -0.5
v -4.5 0.5625 -0.5
v -5 0.5625 0.5
v -4.5 0.5625 0.5
v -5 0.5625 1.5
v -4.5 0.5625 1.5
v -5 0.5625 2.5
v -4.5 0.5625 2.5
v -5 0.5625 3.5
v -4.5 0.5625 3.5
v -4.5 0.5625 4.5
v -3.5 0.5625 4.5
v -3.5 0.5625 5
v -2.5 0.5625 4.5
v -2.5 0.5625 5
v -1.5 0.5625 4.5
v -1.5 0.5625 5
v -0.5 0.5625 5
v -0.5 0.5625 4.5
v 0.5 0.5625 5
v 0.5 0.5625 4.5
v 1.5 0.5625 5
v 1.5 0.5625 4.5
v 2.5 0.5625 5
v 2.5 0.5625 4.5
v 3.5 0.5625 4.5
v 3.5 0.5625 5
v 4.5 0.5625 4.5
v 5 0.5625 3.5
v 4.5 0.5625 3.5
v 5 0.5625 2.5
v 4.5 0.5625 2.5
v 5 0.5625 1.5
v 4.5 0.5625 1.5
v 5 0.5625 0.5
v 4.5 0.5625 0.5
v 5 0.5625 -0.500001
v 4.5 0.5625 -0.5
v 5 0.5625 -1.5
v 4.5 0.5625 -1.5
v 5 0.5625 -2.5
v 4.5 0.5625 -2.5
v 5 0.5625 -3.5
v 4.5 0.5625 -3.5
vt 0.303898 0.382338
vt 0.225457 0.382339
vt 0.225457 0.460779
vt 0.303898 0.460779
vt 0.382339 0.382338
vt 0.382339 0.460779
vt 0.303898 0.53922
vt 0.382339 0.53922
vt 0.303898 0.617661
vt 0.382338 0.617661
vt 0.303898 0.696102
vt 0.382339 0.696102
vt 0.46078 0.696102
vt 0.460779 0.617661
vt 0.539221 0.696102
vt 0.53922 0.617661
vt 0.617661 0.696102
vt 0.617661 0.617661
vt 0.382338 0.303898
vt 0.303898 0.303898
vt 0.46078 0.382338
vt 0.460779 0.303898
vt 0.539221 0.382338
vt 0.53922 0.303898
vt 0.460779 0.225457
vt 0.617661 0.382338
vt 0.53922 0.225456
vt 0.460779 0.147016
vt 0.53922 0.147015
vt 0.617661 0.303897
vt 0.696102 0.382338
vt 0.696102 0.303897
vt 0.617661 0.460779
vt 0.696102 0.460779
vt 0.617661 0.53922
vt 0.696102 0.53922
vt 0.696102 0.617661
vt 0.696102 0.696102
vt 0.328497 0.397098
vt 0.259896 0.397098
vt 0.259896 0.465699
vt 0.328497 0.465699
vt 0.397098 0.397098
vt 0.397098 0.465699
vt 0.328497 0.534301
vt 0.397098 0.534301
vt 0.328497 0.602902
vt 0.397098 0.602902
vt 0.328497 0.671503
vt 0.397098 0.671503
vt 0.465699 0.671503
vt 0.465699 0.602902
vt 0.534301 0.671503
vt 0.534301 0.602902
vt 0.602902 0.671503
vt 0.602902 0.602902
vt 0.397098 0.328497
vt 0.328497 0.328497
vt 0.465699 0.397098
vt 0.465699 0.328497
vt 0.534301 0.397098
vt 0.534301 0.328497
vt 0.465699 0.259896
vt 0.602902 0.397098
vt 0.534301 0.259896
vt 0.465699 0.191295
vt 0.534301 0.191295
vt 0.602902 0.328497
vt 0.671503 0.397098
vt 0.671503 0.328497
vt 0.602902 0.465699
vt 0.671503 0.465699
vt 0.602902 0.534301
vt 0.671503 0.534301
vt 0.671503 0.602902
vt 0.671503 0.671503
vt 0.46147 0.153233
vt 0.384411 0.076173
vt 0.384411 0.153233
vt 0.307352 0.153233
vt 0.46147 0.076173
vt 0.307352 0.076173
vt 0.53853 0.153233
vt 0.230292 0.153233
vt 0.230292 0.076173
vt 0.153233 0.153233
vt 0.53853 0.076173
vt 0.615589 0.153233
vt 0.615589 0.076173
vt 0.692648 0.153233
vt 0.692648 0.076173
vt 0.769708 0.076173
vt 0.769708 0.153233
vt 0.846767 0.153233
vt 0.076173 0.230292
vt 0.153233 0.230292
vt 0.076173 0.307352
vt 0.153233 0.307352
vt 0.076173 0.384411
vt 0.153233 0.384411
vt 0.076173 0.46147
vt 0.153233 0.46147
vt 0.076173 0.53853
vt 0.153233 0.53853
vt 0.076173 0.615589
vt 0.153233 0.615589
vt 0.076173 0.692648
vt 0.153233 0.692648
vt 0.076173 0.769708
vt 0.153233 0.769708
vt 0.153233 0.846767
vt 0.230292 0.846767
vt 0.230292 0.923826
vt 0.307352 0.846767
vt 0.307352 0.923826
vt 0.384411 0.846767
vt 0.384411 0.923826
vt 0.46147 0.923826
vt 0.46147 0.846767
vt 0.53853 0.923826
vt 0.53853 0.846767
vt 0.615589 0.923826
vt 0.615589 0.846767
vt 0.692648 0.923826
vt 0.692648 0.846767
vt 0.769708 0.846767
vt 0.769708 0.923826
vt 0.846767 0.846767
vt 0.923826 0.769708
vt 0.846767 0.769708
vt 0.923826 0.692648
vt 0.846767 0.692648
vt 0.923826 0.615589
vt 0.846767 0.615589
vt 0.923826 0.53853
vt 0.846767 0.53853
vt 0.923826 0.46147
vt 0.846767 0.46147
vt 0.923826 0.384411
vt 0.846767 0.384411
vt 0.923826 0.307352
vt 0.846767 0.307352
vt 0.923826 0.230292
vt 0.846767 0.230292
vt 0.466229 0.196061
vt 0.398687 0.128518
vt 0.398687 0.196061
vt 0.331145 0.196061
vt 0.466229 0.128518
vt 0.331145 0.128518
vt 0.533771 0.196061
vt 0.263603 0.196061
vt 0.263603 0.128518
vt 0.196061 0.196061
vt 0.533771 0.128518
vt 0.601313 0.196061
vt 0.601313 0.128518
vt 0.668855 0.196061
vt 0.668855 0.128518
vt 0.736397 0.128518
vt 0.736397 0.196061
vt 0.803939 0.196061
vt 0.128518 0.263603
vt 0.196061 0.263603
vt 0.128518 0.331145
vt 0.196061 0.331145
vt 0.128518 0.398687
vt 0.196061 0.398687
vt 0.128518 0.466229
vt 0.196061 0.466229
vt 0.128518 0.533771
vt 0.196061 0.533771
vt 0.128518 0.601313
vt 0.196061 0.601313
vt 0.128518 0.668855
vt 0.196061 0.668855
vt 0.128518 0.736397
vt 0.196061 0.736397
vt 0.196061 0.803939
vt 0.263603 0.803939
vt 0.263603 0.871482
vt 0.331145 0.803939
vt 0.331145 0.871482
vt 0.398687 0.803939
vt 0.398687 0.871482
vt 0.466229 0.871482
vt 0.466229 0.803939
vt 0.533771 0.871482
vt 0.533771 0.803939
vt 0.601313 0.871482
vt 0.601313 0.803939
vt 0.668855 0.871482
vt 0.668855 0.803939
vt 0.736397 0.803939
vt 0.736397 0.871482
vt 0.803939 0.803939
vt 0.871482 0.736397
vt 0.803939 0.736397
vt 0.871482 0.668855
vt 0.803939 0.668855
vt 0.871482 0.601313
vt 0.803939 0.601313
vt 0.871482 0.533771
vt 0.803939 0.533771
vt 0.871482 0.466229
vt 0.803939 0.466229
vt 0.871482 0.398687
vt 0.803939 0.398687
vt 0.871482 0.331145
vt 0.803939 0.331145
vt 0.871482 0.263603
vt 0.803939 0.263603
vn 0 -1 0
vn 0 -1 0
vn 0 -1 0
vn 0 -1 0
vn 0 -1 0
vn 0 -1 0
vn 0 -1 0
vn 0 -1 0
vn 0 -1 0
vn 0 -1 0
vn 0 -1 0
vn 0 -1 0
vn 0 -1 0
vn 0 -1 0
vn 0 -1 0
vn 0 -1 0
vn 0 -1 0
vn 0 -1 0
vn 0 -1 0
vn 0 -1 0
vn 0 -1 0
vn 0 -1 0
vn 0 -1 0
vn 0 -1 0
vn 0 -1 0
vn 0 -1 0
vn 0 -1 0
vn 0 -1 0
vn 0 -1 0
vn 0 -1 0
vn 0 -1 0
vn 0 -1 0
vn 0 -1 0
vn 0 -1 0
vn 0 -1 0
vn 0 -1 0
vn 0 -1 0
vn 0 -1 0
vn 0 -1 0
vn 0 -1 0
vn 0 -1 0
vn 0 -1 0
vn 0 -1 0
vn 0 -1 0
vn 0 -1 0
vn 0 -1 0
vn 0 -1 0
vn 0 -1 0
vn 0 -1 0
vn 0 -1 0
vn 0 -1 0
vn 0 -1 0
vn 0 -1 0
vn 0 -1 0
vn 0 -1 0
vn 0 -1 0
vn 0 -1 0
vn 0 -1 0
vn 0 -1 0
vn 0 -1 0
vn 0 -1 0
vn 0 -1 0
vn 0 -1 0
vn 0 -1 0
vn 0 -1 0
vn 0 -1 0
vn 0 -1 0
vn 0 -1 0
vn 0 -1 0
vn 0 -1 0
vn 0 -1 0
vn 0 -1 0
vn 0 -1 0
vn 0 -1 0
vn 0 -1 0
vn 0 -1 0
vn 0 -1 0
vn 0 -1 0
vn 0 -1 0
vn 0 -1 0
vn 0 -1 0
vn 0 -1 0
vn 0 -1 0
vn 0 -1 0
vn 0 -1 0
vn 0 -1 0
vn 0 -1 0
vn 0 -1 0
vn 0 -1 0
vn 0 -1 0
vn 0 -1 0
vn 0 -1 0
vn 0 -1 0
vn 0 -1 0
vn 0 -1 0
vn 0 -1 0
vn 0 -1 0
vn 0 -1 0
vn 0 -1 0
vn 0 -1 0
vn 0 -1 0
vn 0 -1 0
vn 0 -1 0
vn 0 -1 0
vn 0 -1 0
vn 0 -1 0
vn 0 -1 0
vn 0 -1 0
vn 0 -1 0
vn 0 -1 0
vn 0 -1 0
vn 0 -1 0
vn 0 -1 0
vn 0 -1 0
vn 0 -1 0
vn 0 -1 0
vn 0 -1 0
vn 0 -1 0
vn 0 -1 0
vn 0 -1 0
vn 0 -1 0
vn 0 -1 0
vn 0 -1 0
vn 0 -1 0
vn 0 -1 0
vn 0 -1 0
vn 0 -1 0
vn 0 -1 0
vn 0 -1 0
vn 0 -1 0
vn 0 -1 0
vn 0 -1 0
vn 0 -1 0
vn 0 -1 0
vn 0 -1 0
vn 0 -1 0
vn 0 -1 0
vn 0 -1 0
vn 0 -1 0
vn 0 -1 0
vn 0 -1 0
vn 0 -1 0
vn 0 -1 0
vn 0 -1 0
vn 0 -1 0
vn 0 -1 0
vn 0 -1 0
vn 0 -1 0
vn 0 -1 0
vn 0 -1 0
vn 0 -1 0
vn 0 -1 0
vn 0 -1 0
vn 0 -1 0
vn 0 -1 0
vn 0 -1 0
vn 0 -1 0
vn 0 -1 0
vn 0 -1 0
vn 0 -1 0
vn 0 -1 0
vn 0 -1 0
vn 0 -1 0
vn 0 -1 0
vn 0 -1 0
vn 0 -1 0
vn 0 -1 0
vn 0 -1 0
vn 0 -1 0
vn 0 -1 0
vn 0 -1 0
vn 0 -1 0
vn 0 -1 0
vn 0 -1 0
vn 0 -1 0
vn 0 -1 0
vn 0 -1 0
vn 0 -1 0
vn 0 -1 0
vn 0 -1 0
vn 0 -1 0
vn 0 -1 0
vn 0 -1 0
vn 0 -1 0
vn 0 -1 0
vn 0 -1 0
vn 0 -1 0
vn 0 -1 0
vn 0 -1 0
vn 0 -1 0
vn 0 -1 0
vn 0 -1 0
vn 0 -1 0
vn 0 -1 0
vn 0 -1 0
vn 0 -1 0
vn 0 -1 0
vn 0 -1 0
vn 0 -1 0
vn 0 -1 0
vn 0 -1 0
vn 0 -1 0
vn 0 -1 0
vn 0 -1 0
vn 0 -1 0
vn 0 -1 0
vn 0 -1 0
vn 0 -1 0
vn 0 -1 0
vn 0 -1 0
vn 0 -1 0
vn 0 -1 0
g KeepWater_0
f 3/3/3 2/2/2 1/1/1
f 4/4/4 3/3/3 1/1/1
f 4/4/4 1/1/1 5/5/5
f 6/6/6 4/4/4 5/5/5
f 7/7/7 4/4/4 6/6/6
f 8/8/8 7/7/7 6/6/6
f 9/9/9 7/7/7 8/8/8
f 10/10/10 9/9/9 8/8/8
f 11/11/11 9/9/9 10/10/10
f 12/12/12 11/11/11 10/10/10
f 12/12/12 10/10/10 13/13/13
f 10/10/10 14/14/14 13/13/13
f 13/13/13 14/14/14 15/15/15
f 14/14/14 16/16/16 15/15/15
f 15/15/15 16/16/16 17/17/17
f 16/16/16 18/18/18 17/17/17
f 5/5/5 1/1/1 19/19/19
f 1/1/1 20/20/20 19/19/19
f 5/5/5 19/19/19 21/21/21
f 19/19/19 22/22/22 21/21/21
f 21/21/21 22/22/22 23/23/23
f 22/22/22 24/24/24 23/23/23
f 24/24/24 22/22/22 25/25/25
f 23/23/23 24/24/24 26/26/26
f 27/27/27 24/24/24 25/25/25
f 25/25/25 28/28/28 27/27/27
f 28/28/28 29/29/29 27/27/27
f 24/24/24 30/30/30 26/26/26
f 26/26/26 30/30/30 31/31/31
f 30/30/30 32/32/32 31/31/31
f 33/33/33 26/26/26 31/31/31
f 34/34/34 33/33/33 31/31/31
f 35/35/35 33/33/33 34/34/34
f 36/36/36 35/35/35 34/34/34
f 18/18/18 35/35/35 36/36/36
f 37/37/37 18/18/18 36/36/36
f 17/17/17 18/18/18 37/37/37
f 38/38/38 17/17/17 37/37/37
f 41/41/41 40/40/40 39/39/39
f 42/42/42 41/41/41 39/39/39
f 42/42/42 39/39/39 43/43/43
f 44/44/44 42/42/42 43/43/43
f 45/45/45 42/42/42 44/44/44
f 46/46/46 45/45/45 44/44/44
f 47/47/47 45/45/45 46/46/46
f 48/48/48 47/47/47 46/46/46
f 49/49/49 47/47/47 48/48/48
f 50/50/50 49/49/49 48/48/48
f 50/50/50 48/48/48 51/51/51
f 48/48/48 52/52/52 51/51/51
f 51/51/51 52/52/52 53/53/53
f 52/52/52 54/54/54 53/53/53
f 53/53/53 54/54/54 55/55/55
f 54/54/54 56/56/56 55/55/55
f 43/43/43 39/39/39 57/57/57
f 39/39/39 58/58/58 57/57/57
f 43/43/43 57/57/57 59/59/59
f 57/57/57 60/60/60 59/59/59
f 59/59/59 60/60/60 61/61/61
f 60/60/60 62/62/62 61/61/61
f 60/60/60 63/63/63 62/62/62
f 61/61/61 62/62/62 64/64/64
f 63/63/63 65/65/65 62/62/62
f 63/63/63 66/66/66 65/65/65
f 66/66/66 67/67/67 65/65/65
f 62/62/62 68/68/68 64/64/64
f 64/64/64 68/68/68 69/69/69
f 68/68/68 70/70/70 69/69/69
f 71/71/71 64/64/64 69/69/69
f 72/72/72 71/71/71 69/69/69
f 73/73/73 71/71/71 72/72/72
f 74/74/74 73/73/73 72/72/72
f 56/56/56 73/73/73 74/74/74
f 75/75/75 56/56/56 74/74/74
f 55/55/55 56/56/56 75/75/75
f 76/76/76 55/55/55 75/75/75
f 79/79/79 78/78/78 77/77/77
f 79/79/79 80/80/80 78/78/78
f 78/78/78 81/81/81 77/77/77
f 80/80/80 82/82/82 78/78/78
f 77/77/77 81/81/81 83/83/83
f 80/80/80 84/84/84 82/82/82
f 84/84/84 85/85/85 82/82/82
f 84/84/84 86/86/86 85/85/85
f 81/81/81 87/87/87 83/83/83
f 83/83/83 87/87/87 88/88/88
f 87/87/87 89/89/89 88/88/88
f 88/88/88 89/89/89 90/90/90
f 89/89/89 91/91/91 90/90/90
f 90/90/90 91/91/91 92/92/92
f 93/93/93 90/90/90 92/92/92
f 93/93/93 92/92/92 94/94/94
f 96/96/96 95/95/95 86/86/86
f 97/97/97 95/95/95 96/96/96
f 98/98/98 97/97/97 96/96/96
f 99/99/99 97/97/97 98/98/98
f 100/100/100 99/99/99 98/98/98
f 101/101/101 99/99/99 100/100/100
f 102/102/102 101/101/101 100/100/100
f 103/103/103 101/101/101 102/102/102
f 104/104/104 103/103/103 102/102/102
f 105/105/105 103/103/103 104/104/104
f 106/106/106 105/105/105 104/104/104
f 107/107/107 105/105/105 106/106/106
f 108/108/108 107/107/107 106/106/106
f 109/109/109 107/107/107 108/108/108
f 110/110/110 109/109/109 108/108/108
f 111/111/111 109/109/109 110/110/110
f 113/113/113 111/111/111 112/112/112
f 113/113/113 112/112/112 114/114/114
f 115/115/115 113/113/113 114/114/114
f 115/115/115 114/114/114 116/116/116
f 117/117/117 115/115/115 116/116/116
f 117/117/117 116/116/116 118/118/118
f 116/116/116 119/119/119 118/118/118
f 118/118/118 119/119/119 120/120/120
f 119/119/119 121/121/121 120/120/120
f 120/120/120 121/121/121 122/122/122
f 121/121/121 123/123/123 122/122/122
f 122/122/122 123/123/123 124/124/124
f 123/123/123 125/125/125 124/124/124
f 124/124/124 125/125/125 126/126/126
f 127/127/127 124/124/124 126/126/126
f 127/127/127 126/126/126 128/128/128
f 128/128/128 130/130/130 129/129/129
f 129/129/129 130/130/130 131/131/131
f 130/130/130 132/132/132 131/131/131
f 131/131/131 132/132/132 133/133/133
f 132/132/132 134/134/134 133/133/133
f 133/133/133 134/134/134 135/135/135
f 134/134/134 136/136/136 135/135/135
f 135/135/135 136/136/136 137/137/137
f 136/136/136 138/138/138 137/137/137
f 137/137/137 138/138/138 139/139/139
f 138/138/138 140/140/140 139/139/139
f 139/139/139 140/140/140 141/141/141
f 140/140/140 142/142/142 141/141/141
f 141/141/141 142/142/142 143/143/143
f 142/142/142 144/144/144 143/143/143
f 143/143/143 144/144/144 94/94/94
f 147/147/147 146/146/146 145/145/145
f 147/147/147 148/148/148 146/146/146
f 146/146/146 149/149/149 145/145/145
f 148/148/148 150/150/150 146/146/146
f 145/145/145 149/149/149 151/151/151
f 148/148/148 152/152/152 150/150/150
f 152/152/152 153/153/153 150/150/150
f 152/152/152 154/154/154 153/153/153
f 149/149/149 155/155/155 151/151/151
f 151/151/151 155/155/155 156/156/156
f 155/155/155 157/157/157 156/156/156
f 156/156/156 157/157/157 158/158/158
f 157/157/157 159/159/159 158/158/158
f 158/158/158 159/159/159 160/160/160
f 161/161/161 158/158/158 160/160/160
f 161/161/161 160/160/160 162/162/162
f 164/164/164 163/163/163 154/154/154
f 165/165/165 163/163/163 164/164/164
f 166/166/166 165/165/165 164/164/164
f 167/167/167 165/165/165 166/166/166
f 168/168/168 167/167/167 166/166/166
f 169/169/169 167/167/167 168/168/168
f 170/170/170 169/169/169 168/168/168
f 171/171/171 169/169/169 170/170/170
f 172/172/172 171/171/171 170/170/170
f 173/173/173 171/171/171 172/172/172
f 174/174/174 173/173/173 172/172/172
f 175/175/175 173/173/173 174/174/174
f 176/176/176 175/175/175 174/174/174
f 177/177/177 175/175/175 176/176/176
f 178/178/178 177/177/177 176/176/176
f 179/179/179 177/177/177 178/178/178
f 181/181/181 179/179/179 180/180/180
f 181/181/181 180/180/180 182/182/182
f 183/183/183 181/181/181 182/182/182
f 183/183/183 182/182/182 184/184/184
f 185/185/185 183/183/183 184/184/184
f 185/185/185 184/184/184 186/186/186
f 184/184/184 187/187/187 186/186/186
f 186/186/186 187/187/187 188/188/188
f 187/187/187 189/189/189 188/188/188
f 188/188/188 189/189/189 190/190/190
f 189/189/189 191/191/191 190/190/190
f 190/190/190 191/191/191 192/192/192
f 191/191/191 193/193/193 192/192/192
f 192/192/192 193/193/193 194/194/194
f 195/195/195 192/192/192 194/194/194
f 195/195/195 194/194/194 196/196/196
f 196/196/196 198/198/198 197/197/197
f 197/197/197 198/198/198 199/199/199
f 198/198/198 200/200/200 199/199/199
f 199/199/199 200/200/200 201/201/201
f 200/200/200 202/202/202 201/201/201
f 201/201/201 202/202/202 203/203/203
f 202/202/202 204/204/204 203/203/203
f 203/203/203 204/204/204 205/205/205
f 204/204/204 206/206/206 205/205/205
f 205/205/205 206/206/206 207/207/207
f 206/206/206 208/208/208 207/207/207
f 207/207/207 208/208/208 209/209/209
f 208/208/208 210/210/210 209/209/209
f 209/209/209 210/210/210 211/211/211
f 210/210/210 212/212/212 211/211/211
f 211/211/211 212/212/212 162/162/162
