g LilyPad
v 0.490393 0.097545 0
v 0.5 0 0
v 0.5 0 0.06125
v 0.490393 0.097545 0.06125
v 0.46194 0.191342 0
v 0.46194 0.191342 0.06125
v 0.415735 0.277785 0
v 0.415735 0.277785 0.06125
v 0.353553 0.353553 0
v 0.353553 0.353553 0.06125
v 0.277785 0.415735 0
v 0.277785 0.415735 0.06125
v 0.191342 0.46194 0
v 0.191342 0.46194 0.06125
v 0.097545 0.490393 0
v 0.097545 0.490393 0.06125
v 0 0.5 0
v 0 0.5 0.06125
v -0.097544 0.490393 0
v -0.097544 0.490393 0.06125
v -0.191341 0.46194 0
v -0.191341 0.46194 0.06125
v -0.277785 0.415735 0
v -0.277785 0.415735 0.06125
v -0.353553 0.353554 0
v -0.353553 0.353554 0.06125
v -0.415734 0.277786 0
v -0.415734 0.277786 0.06125
v -0.46194 0.191342 0
v -0.46194 0.191342 0.06125
v -0.490393 0.097546 0
v -0.490393 0.097546 0.06125
v 0.5 0 0
v 0.490393 -0.097545 0.06125
v 0.5 0 0.06125
v 0.490393 -0.097545 0
v 0.46194 -0.191342 0.06125
v 0.46194 -0.191342 0
v 0.415735 -0.277785 0.06125
v 0.415735 -0.277785 0
v 0.353553 -0.353553 0.06125
v 0.353553 -0.353553 0
v 0.277785 -0.415735 0.06125
v 0.277785 -0.415735 0
v 0.191342 -0.46194 0.06125
v 0.191342 -0.46194 0
v 0.097545 -0.490393 0.06125
v 0.097545 -0.490393 0
v 0 -0.5 0.06125
v 0 -0.5 0
v -0.097545 -0.490393 0.06125
v -0.097545 -0.490393 0
v -0.191342 -0.46194 0.06125
v -0.191342 -0.46194 0
v -0.277785 -0.415735 0.06125
v -0.277785 -0.415735 0
v -0.353554 -0.353553 0.06125
v -0.353554 -0.353553 0
v -0.415735 -0.277785 0.06125
v -0.415735 -0.277785 0
v -0.46194 -0.191341 0.06125
v -0.46194 -0.191341 0
v -0.490393 -0.097545 0.06125
v -0.490393 -0.097545 0
v 0.5 0 0
v 0.490393 -0.097545 0
v 0 0 0
v 0 -0.5 0
v -0.490393 -0.097545 0
v 0.46194 -0.191342 0
v -0.46194 -0.191341 0
v 0.415735 -0.277785 0
v -0.415735 -0.277785 0
v 0.353553 -0.353553 0
v -0.353554 -0.353553 0
v 0.277785 -0.415735 0
v -0.277785 -0.415735 0
v 0.191342 -0.46194 0
v 0.097545 -0.490393 0
v -0.191342 -0.46194 0
v -0.097545 -0.490393 0
v 0 0 0
v 0.490393 0.097545 0
v 0.5 0 0
v 0.46194 0.191342 0
v 0.415735 0.277785 0
v 0.353553 0.353553 0
v 0.277785 0.415735 0
v 0.191342 0.46194 0
v 0.097545 0.490393 0
v 0 0.5 0
v -0.097544 0.490393 0
v -0.191341 0.46194 0
v -0.277785 0.415735 0
v -0.353553 0.353554 0
v -0.415734 0.277786 0
v -0.46194 0.191342 0
v -0.490393 0.097546 0
v 0.490393 0.097545 0
v 0.5 0 0.06125
v 0.5 0 0
v 0.490393 0.097545 0.06125
v 0.46194 0.191342 0
v 0.46194 0.191342 0.06125
v 0.415735 0.277785 0
v 0.415735 0.277785 0.06125
v 0.353553 0.353553 0
v 0.353553 0.353553 0.06125
v 0.277785 0.415735 0
v 0.277785 0.415735 0.06125
v 0.191342 0.46194 0
v 0.191342 0.46194 0.06125
v 0.097545 0.490393 0
v 0.097545 0.490393 0.06125
v 0 0.5 0
v 0 0.5 0.06125
v -0.097544 0.490393 0
v -0.097544 0.490393 0.06125
v -0.191341 0.46194 0
v -0.191341 0.46194 0.06125
v -0.277785 0.415735 0
v -0.277785 0.415735 0.06125
v -0.353553 0.353554 0
v -0.353553 0.353554 0.06125
v -0.415734 0.277786 0
v -0.415734 0.277786 0.06125
v -0.46194 0.191342 0
v -0.46194 0.191342 0.06125
v -0.490393 0.097546 0
v -0.490393 0.097546 0.06125
v 0.5 0 0
v 0.5 0 0.06125
v 0.490393 -0.097545 0.06125
v 0.490393 -0.097545 0
v 0.46194 -0.191342 0.06125
v 0.46194 -0.191342 0
v 0.415735 -0.277785 0.06125
v 0.415735 -0.277785 0
v 0.353553 -0.353553 0.06125
v 0.353553 -0.353553 0
v 0.277785 -0.415735 0.06125
v 0.277785 -0.415735 0
v 0.191342 -0.46194 0.06125
v 0.191342 -0.46194 0
v 0.097545 -0.490393 0.06125
v 0.097545 -0.490393 0
v 0 -0.5 0.06125
v 0 -0.5 0
v -0.097545 -0.490393 0.06125
v -0.097545 -0.490393 0
v -0.191342 -0.46194 0.06125
v -0.191342 -0.46194 0
v -0.277785 -0.415735 0.06125
v -0.277785 -0.415735 0
v -0.353554 -0.353553 0.06125
v -0.353554 -0.353553 0
v -0.415735 -0.277785 0.06125
v -0.415735 -0.277785 0
v -0.46194 -0.191341 0.06125
v -0.46194 -0.191341 0
v -0.490393 -0.097545 0.06125
v -0.490393 -0.097545 0
vt 0.992188 0
vt 1 0
vt 1 0.125
vt 0.992188 0.125
vt 0.960938 0
vt 0.960938 0.125
vt 0.914062 0
vt 0.914062 0.125
vt 0.851562 0
vt 0.851562 0.125
vt 0.777344 0
vt 0.777344 0.125
vt 0.6875 0
vt 0.6875 0.125
vt 0.59375 0
vt 0.59375 0.125
vt 0.496094 0
vt 0.496094 0.125
vt 0.398438 0
vt 0.398438 0.125
vt 0.300781 0
vt 0.300781 0.125
vt 0.214844 0
vt 0.214844 0.125
vt 0.136719 0
vt 0.136719 0.125
vt 0.074219 0
vt 0.074219 0.125
vt 0.027344 0
vt 0.027344 0.125
vt 0 0
vt 0 0.125
vt 1 0
vt 0.992188 0.125
vt 1 0.125
vt 0.992188 0
vt 0.960938 0.125
vt 0.960938 0
vt 0.914062 0.125
vt 0.914062 0
vt 0.851562 0.125
vt 0.851562 0
vt 0.777344 0.125
vt 0.777344 0
vt 0.6875 0.125
vt 0.6875 0
vt 0.59375 0.125
vt 0.59375 0
vt 0.496094 0.125
vt 0.496094 0
vt 0.398438 0.125
vt 0.398438 0
vt 0.300781 0.125
vt 0.300781 0
vt 0.214844 0.125
vt 0.214844 0
vt 0.136719 0.125
vt 0.136719 0
vt 0.074219 0.125
vt 0.074219 0
vt 0.027344 0.125
vt 0.027344 0
vt 0 0.125
vt 0 0
vt 1.003906 0.5
vt 0.996094 0.597656
vt 0.5 0.5
vt 0.5 1
vt 0.003906 0.597656
vt 0.964844 0.691406
vt 0.03125 0.691406
vt 0.917969 0.777344
vt 0.078125 0.777344
vt 0.855469 0.855469
vt 0.140625 0.855469
vt 0.78125 0.914062
vt 0.21875 0.914062
vt 0.691406 0.960938
vt 0.597656 0.992188
vt 0.304688 0.960938
vt 0.402344 0.992188
vt 0.5 0.5
vt 0.9903 0.597545
vt 1.003906 0.5
vt 0.961571 0.691342
vt 0.914918 0.777785
vt 0.852133 0.853553
vt 0.77563 0.915735
vt 0.688348 0.96194
vt 0.593641 0.990393
vt 0.49515 1
vt 0.396659 0.990393
vt 0.301953 0.96194
vt 0.214671 0.915735
vt 0.138167 0.853554
vt 0.075383 0.777786
vt 0.028729 0.691342
vt 0 0.597546
vt 0.992188 0.25
vt 1 0.375
vt 1 0.25
vt 0.992188 0.375
vt 0.960938 0.25
vt 0.960938 0.375
vt 0.914062 0.25
vt 0.914062 0.375
vt 0.851562 0.25
vt 0.851562 0.375
vt 0.777344 0.25
vt 0.777344 0.375
vt 0.6875 0.25
vt 0.6875 0.375
vt 0.59375 0.25
vt 0.59375 0.375
vt 0.496094 0.25
vt 0.496094 0.375
vt 0.398438 0.25
vt 0.398438 0.375
vt 0.300781 0.25
vt 0.300781 0.375
vt 0.214844 0.25
vt 0.214844 0.375
vt 0.136719 0.25
vt 0.136719 0.375
vt 0.074219 0.25
vt 0.074219 0.375
vt 0.027344 0.25
vt 0.027344 0.375
vt 0 0.25
vt 0 0.375
vt 1 0.25
vt 1 0.375
vt 0.992188 0.375
vt 0.992188 0.25
vt 0.960938 0.375
vt 0.960938 0.25
vt 0.914062 0.375
vt 0.914062 0.25
vt 0.851562 0.375
vt 0.851562 0.25
vt 0.777344 0.375
vt 0.777344 0.25
vt 0.6875 0.375
vt 0.6875 0.25
vt 0.59375 0.375
vt 0.59375 0.25
vt 0.496094 0.375
vt 0.496094 0.25
vt 0.398438 0.375
vt 0.398438 0.25
vt 0.300781 0.375
vt 0.300781 0.25
vt 0.214844 0.375
vt 0.214844 0.25
vt 0.136719 0.375
vt 0.136719 0.25
vt 0.074219 0.375
vt 0.074219 0.25
vt 0.027344 0.375
vt 0.027344 0.25
vt 0 0.375
vt 0 0.25
vn 0.9807879 0.1950772 0
vn 1 0 0
vn 1 0 0
vn 0.9807879 0.1950772 0
vn 0.9238803 0.3826815 0
vn 0.9238803 0.3826815 0
vn 0.8314676 0.5555732 0
vn 0.8314676 0.5555732 0
vn 0.7071068 0.7071068 0
vn 0.7071068 0.7071068 0
vn 0.5555732 0.8314676 0
vn 0.5555732 0.8314676 0
vn 0.3826815 0.9238803 0
vn 0.3826815 0.9238803 0
vn 0.1950772 0.9807879 0
vn 0.1950772 0.9807879 0
vn 0 1 0
vn 0 1 0
vn -0.1950772 0.9807879 0
vn -0.1950772 0.9807879 0
vn -0.3826815 0.9238803 0
vn -0.3826815 0.9238803 0
vn -0.5555732 0.8314676 0
vn -0.5555732 0.8314676 0
vn -0.7071068 0.7071068 0
vn -0.7071068 0.7071068 0
vn -0.8314676 0.5555732 0
vn -0.8314676 0.5555732 0
vn -0.9238803 0.3826815 0
vn -0.9238803 0.3826815 0
vn -0.9569466 0.290264 0
vn -0.9569466 0.290264 0
vn 1 0 0
vn 0.9807879 -0.1950772 0
vn 1 0 0
vn 0.9807879 -0.1950772 0
vn 0.9238803 -0.3826815 0
vn 0.9238803 -0.3826815 0
vn 0.8314676 -0.5555732 0
vn 0.8314676 -0.5555732 0
vn 0.7071068 -0.7071068 0
vn 0.7071068 -0.7071068 0
vn 0.5555732 -0.8314676 0
vn 0.5555732 -0.8314676 0
vn 0.3826815 -0.9238803 0
vn 0.3826815 -0.9238803 0
vn 0.1950772 -0.9807879 0
vn 0.1950772 -0.9807879 0
vn 0 -1 0
vn 0 -1 0
vn -0.1950772 -0.9807879 0
vn -0.1950772 -0.9807879 0
vn -0.3826815 -0.9238803 0
vn -0.3826815 -0.9238803 0
vn -0.5555732 -0.8314676 0
vn -0.5555732 -0.8314676 0
vn -0.7071068 -0.7071068 0
vn -0.7071068 -0.7071068 0
vn -0.8314676 -0.5555732 0
vn -0.8314676 -0.5555732 0
vn -0.9238803 -0.3826815 0
vn -0.9238803 -0.3826815 0
vn -0.9569466 -0.290264 0
vn -0.9569466 -0.290264 0
vn 0 0 1
vn 0 0 1
vn 0 0 1
vn 0 0 1
vn 0 0 1
vn 0 0 1
vn 0 0 1
vn 0 0 1
vn 0 0 1
vn 0 0 1
vn 0 0 1
vn 0 0 1
vn 0 0 1
vn 0 0 1
vn 0 0 1
vn 0 0 1
vn 0 0 1
vn 0 0 1
vn 0 0 1
vn 0 0 1
vn 0 0 1
vn 0 0 1
vn 0 0 1
vn 0 0 1
vn 0 0 1
vn 0 0 1
vn 0 0 1
vn 0 0 1
vn 0 0 1
vn 0 0 1
vn 0 0 1
vn 0 0 1
vn 0 0 1
vn 0 0 1
vn -0.9807879 -0.1950772 0
vn -1 0 0
vn -1 0 0
vn -0.9807879 -0.1950772 0
vn -0.9238803 -0.3826815 0
vn -0.9238803 -0.3826815 0
vn -0.8314676 -0.5555732 0
vn -0.8314676 -0.5555732 0
vn -0.7071068 -0.7071068 0
vn -0.7071068 -0.7071068 0
vn -0.5555732 -0.8314676 0
vn -0.5555732 -0.8314676 0
vn -0.3826815 -0.9238803 0
vn -0.3826815 -0.9238803 0
vn -0.1950772 -0.9807879 0
vn -0.1950772 -0.9807879 0
vn 0 -1 0
vn 0 -1 0
vn 0.1950772 -0.9807879 0
vn 0.1950772 -0.9807879 0
vn 0.3826815 -0.9238803 0
vn 0.3826815 -0.9238803 0
vn 0.5555732 -0.8314676 0
vn 0.5555732 -0.8314676 0
vn 0.7071068 -0.7071068 0
vn 0.7071068 -0.7071068 0
vn 0.8314676 -0.5555732 0
vn 0.8314676 -0.5555732 0
vn 0.9238803 -0.3826815 0
vn 0.9238803 -0.3826815 0
vn 0.9569466 -0.290264 0
vn 0.9569466 -0.290264 0
vn -1 0 0
vn -1 0 0
vn -0.9807879 0.1950772 0
vn -0.9807879 0.1950772 0
vn -0.9238803 0.3826815 0
vn -0.9238803 0.3826815 0
vn -0.8314676 0.5555732 0
vn -0.8314676 0.5555732 0
vn -0.7071068 0.7071068 0
vn -0.7071068 0.7071068 0
vn -0.5555732 0.8314676 0
vn -0.5555732 0.8314676 0
vn -0.3826815 0.9238803 0
vn -0.3826815 0.9238803 0
vn -0.1950772 0.9807879 0
vn -0.1950772 0.9807879 0
vn 0 1 0
vn 0 1 0
vn 0.1950772 0.9807879 0
vn 0.1950772 0.9807879 0
vn 0.3826815 0.9238803 0
vn 0.3826815 0.9238803 0
vn 0.5555732 0.8314676 0
vn 0.5555732 0.8314676 0
vn 0.7071068 0.7071068 0
vn 0.7071068 0.7071068 0
vn 0.8314676 0.5555732 0
vn 0.8314676 0.5555732 0
vn 0.9238803 0.3826815 0
vn 0.9238803 0.3826815 0
vn 0.9569466 0.290264 0
vn 0.9569466 0.290264 0
g LilyPad_0
f 3/3/3 2/2/2 1/1/1
f 4/4/4 3/3/3 1/1/1
f 4/4/4 1/1/1 5/5/5
f 6/6/6 4/4/4 5/5/5
f 6/6/6 5/5/5 7/7/7
f 8/8/8 6/6/6 7/7/7
f 8/8/8 7/7/7 9/9/9
f 10/10/10 8/8/8 9/9/9
f 10/10/10 9/9/9 11/11/11
f 12/12/12 10/10/10 11/11/11
f 12/12/12 11/11/11 13/13/13
f 14/14/14 12/12/12 13/13/13
f 14/14/14 13/13/13 15/15/15
f 16/16/16 14/14/14 15/15/15
f 16/16/16 15/15/15 17/17/17
f 18/18/18 16/16/16 17/17/17
f 17/17/17 19/19/19 18/18/18
f 19/19/19 20/20/20 18/18/18
f 20/20/20 19/19/19 21/21/21
f 22/22/22 20/20/20 21/21/21
f 22/22/22 21/21/21 23/23/23
f 24/24/24 22/22/22 23/23/23
f 24/24/24 23/23/23 25/25/25
f 26/26/26 24/24/24 25/25/25
f 26/26/26 25/25/25 27/27/27
f 28/28/28 26/26/26 27/27/27
f 28/28/28 27/27/27 29/29/29
f 30/30/30 28/28/28 29/29/29
f 30/30/30 29/29/29 31/31/31
f 32/32/32 30/30/30 31/31/31
f 35/35/35 34/34/34 33/33/33
f 34/34/34 36/36/36 33/33/33
f 34/34/34 37/37/37 36/36/36
f 37/37/37 38/38/38 36/36/36
f 37/37/37 39/39/39 38/38/38
f 39/39/39 40/40/40 38/38/38
f 39/39/39 41/41/41 40/40/40
f 41/41/41 42/42/42 40/40/40
f 41/41/41 43/43/43 42/42/42
f 43/43/43 44/44/44 42/42/42
f 43/43/43 45/45/45 44/44/44
f 45/45/45 46/46/46 44/44/44
f 45/45/45 47/47/47 46/46/46
f 47/47/47 48/48/48 46/46/46
f 47/47/47 49/49/49 48/48/48
f 49/49/49 50/50/50 48/48/48
f 49/49/49 51/51/51 50/50/50
f 51/51/51 52/52/52 50/50/50
f 51/51/51 53/53/53 52/52/52
f 53/53/53 54/54/54 52/52/52
f 53/53/53 55/55/55 54/54/54
f 55/55/55 56/56/56 54/54/54
f 55/55/55 57/57/57 56/56/56
f 57/57/57 58/58/58 56/56/56
f 57/57/57 59/59/59 58/58/58
f 59/59/59 60/60/60 58/58/58
f 59/59/59 61/61/61 60/60/60
f 61/61/61 62/62/62 60/60/60
f 61/61/61 63/63/63 62/62/62
f 63/63/63 64/64/64 62/62/62
f 67/67/67 66/66/66 65/65/65
f 68/68/68 66/66/66 67/67/67
f 67/67/67 69/69/69 68/68/68
f 70/70/70 66/66/66 68/68/68
f 69/69/69 71/71/71 68/68/68
f 72/72/72 70/70/70 68/68/68
f 71/71/71 73/73/73 68/68/68
f 74/74/74 72/72/72 68/68/68
f 73/73/73 75/75/75 68/68/68
f 76/76/76 74/74/74 68/68/68
f 75/75/75 77/77/77 68/68/68
f 78/78/78 76/76/76 68/68/68
f 79/79/79 78/78/78 68/68/68
f 77/77/77 80/80/80 68/68/68
f 80/80/80 81/81/81 68/68/68
f 84/84/84 83/83/83 82/82/82
f 83/83/83 85/85/85 82/82/82
f 85/85/85 86/86/86 82/82/82
f 86/86/86 87/87/87 82/82/82
f 87/87/87 88/88/88 82/82/82
f 88/88/88 89/89/89 82/82/82
f 82/82/82 89/89/89 90/90/90
f 91/91/91 82/82/82 90/90/90
f 92/92/92 82/82/82 91/91/91
f 93/93/93 82/82/82 92/92/92
f 94/94/94 82/82/82 93/93/93
f 95/95/95 82/82/82 94/94/94
f 96/96/96 82/82/82 95/95/95
f 97/97/97 82/82/82 96/96/96
f 98/98/98 82/82/82 97/97/97
f 101/101/101 100/100/100 99/99/99
f 100/100/100 102/102/102 99/99/99
f 99/99/99 102/102/102 103/103/103
f 102/102/102 104/104/104 103/103/103
f 103/103/103 104/104/104 105/105/105
f 104/104/104 106/106/106 105/105/105
f 105/105/105 106/106/106 107/107/107
f 106/106/106 108/108/108 107/107/107
f 107/107/107 108/108/108 109/109/109
f 108/108/108 110/110/110 109/109/109
f 109/109/109 110/110/110 111/111/111
f 110/110/110 112/112/112 111/111/111
f 111/111/111 112/112/112 113/113/113
f 112/112/112 114/114/114 113/113/113
f 113/113/113 114/114/114 115/115/115
f 114/114/114 116/116/116 115/115/115
f 115/115/115 116/116/116 117/117/117
f 116/116/116 118/118/118 117/117/117
f 117/117/117 118/118/118 119/119/119
f 118/118/118 120/120/120 119/119/119
f 119/119/119 120/120/120 121/121/121
f 120/120/120 122/122/122 121/121/121
f 121/121/121 122/122/122 123/123/123
f 122/122/122 124/124/124 123/123/123
f 123/123/123 124/124/124 125/125/125
f 124/124/124 126/126/126 125/125/125
f 125/125/125 126/126/126 127/127/127
f 126/126/126 128/128/128 127/127/127
f 127/127/127 128/128/128 129/129/129
f 128/128/128 130/130/130 129/129/129
f 133/133/133 132/132/132 131/131/131
f 134/134/134 133/133/133 131/131/131
f 135/135/135 133/133/133 134/134/134
f 136/136/136 135/135/135 134/134/134
f 137/137/137 135/135/135 136/136/136
f 138/138/138 137/137/137 136/136/136
f 139/139/139 137/137/137 138/138/138
f 140/140/140 139/139/139 138/138/138
f 141/141/141 139/139/139 140/140/140
f 142/142/142 141/141/141 140/140/140
f 143/143/143 141/141/141 142/142/142
f 144/144/144 143/143/143 142/142/142
f 145/145/145 143/143/143 144/144/144
f 146/146/146 145/145/145 144/144/144
f 147/147/147 145/145/145 146/146/146
f 148/148/148 147/147/147 146/146/146
f 149/149/149 147/147/147 148/148/148
f 150/150/150 149/149/149 148/148/148
f 151/151/151 149/149/149 150/150/150
f 152/152/152 151/151/151 150/150/150
f 153/153/153 151/151/151 152/152/152
f 154/154/154 153/153/153 152/152/152
f 155/155/155 153/153/153 154/154/154
f 156/156/156 155/155/155 154/154/154
f 157/157/157 155/155/155 156/156/156
f 158/158/158 157/157/157 156/156/156
f 159/159/159 157/157/157 158/158/158
f 160/160/160 159/159/159 158/158/158
f 161/161/161 159/159/159 160/160/160
f 162/162/162 161/161/161 160/160/160
