g LogoPart3
v 2.126708 1.376166 0
v 3.002084 1.376167 0
v 3.002084 1.501189 0
v 2.126659 1.501189 0
v 1.688957 1.063601 0
v 1.626443 1.126122 0
v 1.626443 1.001079 0
v 1.501373 1.204253 0
v 1.626443 1.501189 0
v 1.501373 0.250882 0
v 1.626443 0.250882 0
v 1.001157 0.704123 0
v 1.001137 0.876036 0
v -5.251802 0.876036 0
v -5.752059 1.204253 0
v -5.251802 0.704123 0
v -5.877108 1.501189 0
v -5.877108 1.126189 0
v -5.877108 1.001189 0
v -5.939608 1.063689 0
v -5.877108 0.250882 0
v -5.752059 0.250882 0
v -0.124386 1.126122 0
v -0.124386 1.501189 0
v -0.249456 1.501189 0
v -0.124366 1.001079 0
v -0.06183 1.063601 0
v -0.249456 0.750993 0
v -0.124366 0.751013 0
v -0.249456 0.750993 0.125
v -0.124366 0.751013 0.125
v -0.124366 0.751013 0
v -0.249456 0.750993 0
v 2.126708 1.376166 0.125
v 2.126659 1.501189 0.125
v 3.002084 1.501189 0.125
v 3.002084 1.376167 0.125
v 1.688957 1.063601 0.125
v 1.626443 1.001079 0.125
v 1.626443 1.126122 0.125
v 1.501373 1.204253 0.125
v 1.626443 1.501189 0.125
v 1.501373 0.250882 0.125
v 1.626443 0.250882 0.125
v 1.001157 0.704123 0.125
v 1.001137 0.876036 0.125
v -0.124386 1.126122 0.125
v -0.249456 1.501189 0.125
v -0.124386 1.501189 0.125
v -0.124366 1.001079 0.125
v -0.06183 1.063601 0.125
v -0.249456 0.750993 0.125
v -0.124366 0.751013 0.125
v 1.688957 1.063601 0
v 1.626443 1.001079 0
v 1.626443 1.001079 0.125
v 1.688957 1.063601 0.125
v -0.124386 1.126122 0
v -0.124386 1.126122 0.125
v -0.124386 1.501189 0.125
v -0.124386 1.501189 0
v 1.626443 0.250882 0
v 1.501373 0.250882 0
v 1.501373 0.250882 0.125
v 1.626443 0.250882 0.125
v 2.126659 1.501189 0.125
v 2.126708 1.376166 0.125
v 2.126708 1.376166 0
v 2.126659 1.501189 0
v -0.124366 1.001079 0
v -0.124366 1.001079 0.125
v -0.06183 1.063601 0.125
v -0.06183 1.063601 0
v -0.06183 1.063601 0
v -0.06183 1.063601 0.125
v -0.124386 1.126122 0.125
v -0.124386 1.126122 0
v -2.187868 -0.749401 0.125
v -2.50052 -1.374554 0.125
v -2.625591 -1.374554 0.125
v -2.125332 -0.624357 0.125
v -2.000283 -0.124226 0.125
v -2.000283 -0.374292 0.125
v -2.000283 -0.624357 0.125
v -2.000284 -0.749401 0.125
v -0.124366 0.751013 0
v -0.124366 0.751013 0.125
v -0.124366 1.001079 0.125
v -0.124366 1.001079 0
v 1.626443 1.126122 0
v 1.688957 1.063601 0
v 1.688957 1.063601 0.125
v 1.626443 1.126122 0.125
v 2.126708 1.376166 0
v 2.126708 1.376166 0.125
v 3.002084 1.376167 0.125
v 3.002084 1.376167 0
v 3.002084 1.376167 0
v 3.002084 1.376167 0.125
v 3.002084 1.501189 0.125
v 3.002084 1.501189 0
v 3.002084 1.501189 0
v 3.002084 1.501189 0.125
v 2.126659 1.501189 0.125
v 2.126659 1.501189 0
v -5.251802 0.704123 0
v -5.752059 1.204253 0
v -5.752059 1.204253 0.125
v -5.251802 0.704123 0.125
v -0.249456 1.501189 0
v -0.249456 1.501189 0.125
v -0.249456 0.750993 0.125
v -0.249456 0.750993 0
v -0.124386 1.501189 0
v -0.124386 1.501189 0.125
v -0.249456 1.501189 0.125
v -0.249456 1.501189 0
v -5.877108 1.001189 0.125
v -5.752059 0.250882 0.125
v -5.877108 0.250882 0.125
v -5.752059 1.204253 0.125
v -5.877108 1.126189 0.125
v -5.939608 1.063689 0.125
v -5.877108 1.501189 0.125
v -5.251802 0.876036 0.125
v -5.251802 0.704123 0.125
v 1.626443 1.001079 0
v 1.626443 0.250882 0
v 1.626443 0.250882 0.125
v 1.626443 1.001079 0.125
v -2.187868 -0.749401 0
v -2.000284 -0.749401 0
v -2.000283 -0.624357 0
v -2.125332 -0.624357 0
v -2.625591 -1.374554 0
v -2.50052 -1.374554 0
v -2.000283 -0.124226 0
v -2.000283 -0.374292 0
v 5.440731 0.250882 0
v 5.440731 0.250882 0.125
v 5.440731 1.376166 0.125
v 5.440731 1.376166 0
v 5.315662 0.250882 0.125
v 5.315662 1.376166 0.125
v 5.440731 1.376166 0.125
v 5.440731 0.250882 0.125
v 5.315662 0.250882 0
v 5.440731 0.250882 0
v 5.440731 1.376166 0
v 5.315662 1.376166 0
v 1.626443 -1.374554 0.125
v 2.501847 -1.249532 0.125
v 2.501847 -1.374554 0.125
v 1.751492 -1.249532 0.125
v 1.626443 -0.624357 0.125
v 1.751492 -0.249269 0.125
v 1.626443 -0.499314 0.125
v 1.563887 -0.561856 0.125
v 1.626443 -0.124247 0.125
v 2.501847 -0.124247 0.125
v 2.501847 -0.249269 0.125
v -2.187868 -0.749401 0
v -2.50052 -1.374554 0
v -2.50052 -1.374554 0.125
v -2.187868 -0.749401 0.125
v -5.752059 1.204253 0
v -5.752059 0.250882 0
v -5.752059 0.250882 0.125
v -5.752059 1.204253 0.125
v 5.315662 1.376166 0
v 5.315662 1.376166 0.125
v 5.315662 0.250882 0.125
v 5.315662 0.250882 0
v 2.501847 -1.374554 0
v 2.501847 -1.374554 0.125
v 2.501847 -1.249532 0.125
v 2.501847 -1.249532 0
v 1.751492 -0.249269 0
v 1.751492 -0.249269 0.125
v 2.501847 -0.249269 0.125
v 2.501847 -0.249269 0
v 2.501847 -0.249269 0
v 2.501847 -0.249269 0.125
v 2.501847 -0.124247 0.125
v 2.501847 -0.124247 0
v 1.626443 -1.374554 0
v 1.626443 -1.374554 0.125
v 2.501847 -1.374554 0.125
v 2.501847 -1.374554 0
v 5.315662 0.250882 0
v 5.315662 0.250882 0.125
v 5.440731 0.250882 0.125
v 5.440731 0.250882 0
v -5.877108 1.501189 0
v -5.877108 1.501189 0.125
v -5.877108 1.126189 0.125
v -5.877108 1.126189 0
v 2.501847 -1.249532 0
v 2.501847 -1.249532 0.125
v 1.751492 -1.249532 0.125
v 1.751492 -1.249532 0
v -5.877108 1.501189 0
v -5.251802 0.876036 0
v -5.251802 0.876036 0.125
v -5.877108 1.501189 0.125
v -5.251802 0.876036 0.125
v -5.251802 0.876036 0
v -5.251802 0.704123 0
v -5.251802 0.704123 0.125
v -2.000283 -0.624357 0
v -2.000283 -0.624357 0.125
v -2.125332 -0.624357 0.125
v -2.125332 -0.624357 0
v 1.626443 -0.624357 0
v 1.626443 -0.499314 0
v 1.563887 -0.561856 0
v 1.751492 -0.249269 0
v 1.626443 -0.124247 0
v 2.501847 -0.124247 0
v 2.501847 -0.249269 0
v 1.751492 -1.249532 0
v 1.626443 -1.374554 0
v 2.501847 -1.249532 0
v 2.501847 -1.374554 0
v -2.000283 -0.124226 0
v -2.000283 -0.374292 0
v -2.000283 -0.374292 0.125
v -2.000283 -0.124226 0.125
v 1.626443 -0.624357 0
v 1.626443 -0.624357 0.125
v 1.626443 -1.374554 0.125
v 1.626443 -1.374554 0
v -5.877108 1.126189 0
v -5.877108 1.126189 0.125
v -5.939608 1.063689 0.125
v -5.939608 1.063689 0
v -2.000283 -0.374292 0.125
v -2.000283 -0.374292 0
v -2.125332 -0.624357 0
v -2.125332 -0.624357 0.125
v -2.000283 -0.624357 0
v -2.000284 -0.749401 0
v -2.000284 -0.749401 0.125
v -2.000283 -0.624357 0.125
v 1.751492 -0.249269 0
v 1.751492 -1.249532 0
v 1.751492 -1.249532 0.125
v 1.751492 -0.249269 0.125
v 1.001137 0.876036 0
v 1.626443 1.501189 0
v 1.626443 1.501189 0.125
v 1.001137 0.876036 0.125
v -5.752059 0.250882 0
v -5.877108 0.250882 0
v -5.877108 0.250882 0.125
v -5.752059 0.250882 0.125
v -2.187868 -0.749401 0
v -2.187868 -0.749401 0.125
v -2.000284 -0.749401 0.125
v -2.000284 -0.749401 0
v 1.563887 -0.561856 0
v 1.563887 -0.561856 0.125
v 1.626443 -0.624357 0.125
v 1.626443 -0.624357 0
v -2.625591 -1.374554 0
v -2.625591 -1.374554 0.125
v -2.50052 -1.374554 0.125
v -2.50052 -1.374554 0
v 1.626443 -0.499314 0
v 1.626443 -0.499314 0.125
v 1.563887 -0.561856 0.125
v 1.563887 -0.561856 0
v -5.939608 1.063689 0
v -5.939608 1.063689 0.125
v -5.877108 1.001189 0.125
v -5.877108 1.001189 0
v -2.000283 -0.124226 0
v -2.000283 -0.124226 0.125
v -2.625591 -1.374554 0.125
v -2.625591 -1.374554 0
v 1.501373 1.204253 0
v 1.001157 0.704123 0
v 1.001157 0.704123 0.125
v 1.501373 1.204253 0.125
v 2.501847 -0.124247 0
v 2.501847 -0.124247 0.125
v 1.626443 -0.124247 0.125
v 1.626443 -0.124247 0
v 1.001137 0.876036 0
v 1.001137 0.876036 0.125
v 1.001157 0.704123 0.125
v 1.001157 0.704123 0
v 1.626443 -0.124247 0
v 1.626443 -0.124247 0.125
v 1.626443 -0.499314 0.125
v 1.626443 -0.499314 0
v -5.877108 0.250882 0
v -5.877108 1.001189 0
v -5.877108 1.001189 0.125
v -5.877108 0.250882 0.125
v 1.626443 1.501189 0
v 1.626443 1.126122 0
v 1.626443 1.126122 0.125
v 1.626443 1.501189 0.125
v 1.501373 0.250882 0
v 1.501373 1.204253 0
v 1.501373 1.204253 0.125
v 1.501373 0.250882 0.125
vt 0 0
vt 0 0
vt 0 0
vt 0 0
vt 0 0
vt 0 0
vt 0 0
vt 0 0
vt 0 0
vt 0 0
vt 0 0
vt 0 0
vt 0 0
vt 0 0
vt 0 0
vt 0 0
vt 0 0
vt 0 0
vt 0 0
vt 0 0
vt 0 0
vt 0 0
vt 0 0
vt 0 0
vt 0 0
vt 0 0
vt 0 0
vt 0 0
vt 0 0
vt 0 0
vt 0 0
vt 0 0
vt 0 0
vt 0 0
vt 0 0
vt 0 0
vt 0 0
vt 0 0
vt 0 0
vt 0 0
vt 0 0
vt 0 0
vt 0 0
vt 0 0
vt 0 0
vt 0 0
vt 0 0
vt 0 0
vt 0 0
vt 0 0
vt 0 0
vt 0 0
vt 0 0
vt 0 0
vt 0 0
vt 0 0
vt 0 0
vt 0 0
vt 0 0
vt 0 0
vt 0 0
vt 0 0
vt 0 0
vt 0 0
vt 0 0
vt 0 0
vt 0 0
vt 0 0
vt 0 0
vt 0 0
vt 0 0
vt 0 0
vt 0 0
vt 0 0
vt 0 0
vt 0 0
vt 0 0
vt 0 0
vt 0 0
vt 0 0
vt 0 0
vt 0 0
vt 0 0
vt 0 0
vt 0 0
vt 0 0
vt 0 0
vt 0 0
vt 0 0
vt 0 0
vt 0 0
vt 0 0
vt 0 0
vt 0 0
vt 0 0
vt 0 0
vt 0 0
vt 0 0
vt 0 0
vt 0 0
vt 0 0
vt 0 0
vt 0 0
vt 0 0
vt 0 0
vt 0 0
vt 0 0
vt 0 0
vt 0 0
vt 0 0
vt 0 0
vt 0 0
vt 0 0
vt 0 0
vt 0 0
vt 0 0
vt 0 0
vt 0 0
vt 0 0
vt 0 0
vt 0 0
vt 0 0
vt 0 0
vt 0 0
vt 0 0
vt 0 0
vt 0 0
vt 0 0
vt 0 0
vt 0 0
vt 0 0
vt 0 0
vt 0 0
vt 0 0
vt 0 0
vt 0 0
vt 0 0
vt 0 0
vt 0 0
vt 0 0
vt 0 0
vt 0 0
vt 0 0
vt 0 0
vt 0 0
vt 0 0
vt 0 0
vt 0 0
vt 0 0
vt 0 0
vt 0 0
vt 0 0
vt 0 0
vt 0 0
vt 0 0
vt 0 0
vt 0 0
vt 0 0
vt 0 0
vt 0 0
vt 0 0
vt 0 0
vt 0 0
vt 0 0
vt 0 0
vt 0 0
vt 0 0
vt 0 0
vt 0 0
vt 0 0
vt 0 0
vt 0 0
vt 0 0
vt 0 0
vt 0 0
vt 0 0
vt 0 0
vt 0 0
vt 0 0
vt 0 0
vt 0 0
vt 0 0
vt 0 0
vt 0 0
vt 0 0
vt 0 0
vt 0 0
vt 0 0
vt 0 0
vt 0 0
vt 0 0
vt 0 0
vt 0 0
vt 0 0
vt 0 0
vt 0 0
vt 0 0
vt 0 0
vt 0 0
vt 0 0
vt 0 0
vt 0 0
vt 0 0
vt 0 0
vt 0 0
vt 0 0
vt 0 0
vt 0 0
vt 0 0
vt 0 0
vt 0 0
vt 0 0
vt 0 0
vt 0 0
vt 0 0
vt 0 0
vt 0 0
vt 0 0
vt 0 0
vt 0 0
vt 0 0
vt 0 0
vt 0 0
vt 0 0
vt 0 0
vt 0 0
vt 0 0
vt 0 0
vt 0 0
vt 0 0
vt 0 0
vt 0 0
vt 0 0
vt 0 0
vt 0 0
vt 0 0
vt 0 0
vt 0 0
vt 0 0
vt 0 0
vt 0 0
vt 0 0
vt 0 0
vt 0 0
vt 0 0
vt 0 0
vt 0 0
vt 0 0
vt 0 0
vt 0 0
vt 0 0
vt 0 0
vt 0 0
vt 0 0
vt 0 0
vt 0 0
vt 0 0
vt 0 0
vt 0 0
vt 0 0
vt 0 0
vt 0 0
vt 0 0
vt 0 0
vt 0 0
vt 0 0
vt 0 0
vt 0 0
vt 0 0
vt 0 0
vt 0 0
vt 0 0
vt 0 0
vt 0 0
vt 0 0
vt 0 0
vt 0 0
vt 0 0
vt 0 0
vt 0 0
vt 0 0
vt 0 0
vt 0 0
vt 0 0
vt 0 0
vt 0 0
vt 0 0
vt 0 0
vt 0 0
vt 0 0
vt 0 0
vt 0 0
vt 0 0
vt 0 0
vt 0 0
vt 0 0
vt 0 0
vt 0 0
vt 0 0
vt 0 0
vt 0 0
vt 0 0
vt 0 0
vt 0 0
vt 0 0
vt 0 0
vt 0 0
vt 0 0
vn 0 0 -1
vn 0 0 -1
vn 0 0 -1
vn 0 0 -1
vn 0 0 -1
vn 0 0 -1
vn 0 0 -1
vn 0 0 -1
vn 0 0 -1
vn 0 0 -1
vn 0 0 -1
vn 0 0 -1
vn 0 0 -1
vn 0 0 -1
vn 0 0 -1
vn 0 0 -1
vn 0 0 -1
vn 0 0 -1
vn 0 0 -1
vn 0 0 -1
vn 0 0 -1
vn 0 0 -1
vn 0 0 -1
vn 0 0 -1
vn 0 0 -1
vn 0 0 -1
vn 0 0 -1
vn 0 0 -1
vn 0 0 -1
vn 0.000153 -1 0
vn 0.000153 -1 0
vn 0.000153 -1 0
vn 0.000153 -1 0
vn 0 0 1
vn 0 0 1
vn 0 0 1
vn 0 0 1
vn 0 0 1
vn 0 0 1
vn 0 0 1
vn 0 0 1
vn 0 0 1
vn 0 0 1
vn 0 0 1
vn 0 0 1
vn 0 0 1
vn 0 0 1
vn 0 0 1
vn 0 0 1
vn 0 0 1
vn 0 0 1
vn 0 0 1
vn 0 0 1
vn 0.7071522 -0.7070612 0
vn 0.7071522 -0.7070612 0
vn 0.7071522 -0.7070612 0
vn 0.7071522 -0.7070612 0
vn 1 0 0
vn 1 0 0
vn 1 0 0
vn 1 0 0
vn 0 -1 0
vn 0 -1 0
vn 0 -1 0
vn 0 -1 0
vn -1 -0.0003660113 0
vn -1 -0.0003660113 0
vn -1 -0.0003660113 0
vn -1 -0.0003660113 0
vn 0.7070303 -0.7071833 0
vn 0.7070303 -0.7071833 0
vn 0.7070303 -0.7071833 0
vn 0.7070303 -0.7071833 0
vn 0.7069082 0.7073053 0
vn 0.7069082 0.7073053 0
vn 0.7069082 0.7073053 0
vn 0.7069082 0.7073053 0
vn 0 0 1
vn 0 0 1
vn 0 0 1
vn 0 0 1
vn 0 0 1
vn 0 0 1
vn 0 0 1
vn 0 0 1
vn 1 0 0
vn 1 0 0
vn 1 0 0
vn 1 0 0
vn 0.7071522 0.7070612 0
vn 0.7071522 0.7070612 0
vn 0.7071522 0.7070612 0
vn 0.7071522 0.7070612 0
vn 0 -1 0
vn 0 -1 0
vn 0 -1 0
vn 0 -1 0
vn 1 0 0
vn 1 0 0
vn 1 0 0
vn 1 0 0
vn 0 1 0
vn 0 1 0
vn 0 1 0
vn 0 1 0
vn -0.7070153 -0.7071983 0
vn -0.7070153 -0.7071983 0
vn -0.7070153 -0.7071983 0
vn -0.7070153 -0.7071983 0
vn -1 0 0
vn -1 0 0
vn -1 0 0
vn -1 0 0
vn 0 1 0
vn 0 1 0
vn 0 1 0
vn 0 1 0
vn 0 0 1
vn 0 0 1
vn 0 0 1
vn 0 0 1
vn 0 0 1
vn 0 0 1
vn 0 0 1
vn 0 0 1
vn 0 0 1
vn 1 0 0
vn 1 0 0
vn 1 0 0
vn 1 0 0
vn 0 0 -1
vn 0 0 -1
vn 0 0 -1
vn 0 0 -1
vn 0 0 -1
vn 0 0 -1
vn 0 0 -1
vn 0 0 -1
vn 1 0 0
vn 1 0 0
vn 1 0 0
vn 1 0 0
vn 0 0 1
vn 0 0 1
vn 0 0 1
vn 0 0 1
vn 0 0 -1
vn 0 0 -1
vn 0 0 -1
vn 0 0 -1
vn 0 0 1
vn 0 0 1
vn 0 0 1
vn 0 0 1
vn 0 0 1
vn 0 0 1
vn 0 0 1
vn 0 0 1
vn 0 0 1
vn 0 0 1
vn 0 0 1
vn 0.8943906 -0.4472868 0
vn 0.8943906 -0.4472868 0
vn 0.8943906 -0.4472868 0
vn 0.8943906 -0.4472868 0
vn 1 0 0
vn 1 0 0
vn 1 0 0
vn 1 0 0
vn -1 0 0
vn -1 0 0
vn -1 0 0
vn -1 0 0
vn 1 0 0
vn 1 0 0
vn 1 0 0
vn 1 0 0
vn 0 -1 0
vn 0 -1 0
vn 0 -1 0
vn 0 -1 0
vn 1 0 0
vn 1 0 0
vn 1 0 0
vn 1 0 0
vn 0 -1 0
vn 0 -1 0
vn 0 -1 0
vn 0 -1 0
vn 0 -1 0
vn 0 -1 0
vn 0 -1 0
vn 0 -1 0
vn -1 0 0
vn -1 0 0
vn -1 0 0
vn -1 0 0
vn 0 1 0
vn 0 1 0
vn 0 1 0
vn 0 1 0
vn 0.7070153 0.7071983 0
vn 0.7070153 0.7071983 0
vn 0.7070153 0.7071983 0
vn 0.7070153 0.7071983 0
vn 1 0 0
vn 1 0 0
vn 1 0 0
vn 1 0 0
vn 0 1 0
vn 0 1 0
vn 0 1 0
vn 0 1 0
vn 0 0 -1
vn 0 0 -1
vn 0 0 -1
vn 0 0 -1
vn 0 0 -1
vn 0 0 -1
vn 0 0 -1
vn 0 0 -1
vn 0 0 -1
vn 0 0 -1
vn 0 0 -1
vn 1 0 0
vn 1 0 0
vn 1 0 0
vn 1 0 0
vn -1 0 0
vn -1 0 0
vn -1 0 0
vn -1 0 0
vn -0.7071068 0.7071068 0
vn -0.7071068 0.7071068 0
vn -0.7071068 0.7071068 0
vn -0.7071068 0.7071068 0
vn 0.8944027 -0.4472628 0
vn 0.8944027 -0.4472628 0
vn 0.8944027 -0.4472628 0
vn 0.8944027 -0.4472628 0
vn 1 0 0
vn 1 0 0
vn 1 0 0
vn 1 0 0
vn 1 0 0
vn 1 0 0
vn 1 0 0
vn 1 0 0
vn -0.7070153 0.7071983 0
vn -0.7070153 0.7071983 0
vn -0.7070153 0.7071983 0
vn -0.7070153 0.7071983 0
vn 0 -1 0
vn 0 -1 0
vn 0 -1 0
vn 0 -1 0
vn 0 -1 0
vn 0 -1 0
vn 0 -1 0
vn 0 -1 0
vn -0.7068012 -0.7074122 0
vn -0.7068012 -0.7074122 0
vn -0.7068012 -0.7074122 0
vn -0.7068012 -0.7074122 0
vn 0 -1 0
vn 0 -1 0
vn 0 -1 0
vn 0 -1 0
vn -0.7070303 0.7071833 0
vn -0.7070303 0.7071833 0
vn -0.7070303 0.7071833 0
vn -0.7070303 0.7071833 0
vn -0.7071068 -0.7071068 0
vn -0.7071068 -0.7071068 0
vn -0.7071068 -0.7071068 0
vn -0.7071068 -0.7071068 0
vn -0.8943906 0.4472868 0
vn -0.8943906 0.4472868 0
vn -0.8943906 0.4472868 0
vn -0.8943906 0.4472868 0
vn 0.7070457 -0.7071677 0
vn 0.7070457 -0.7071677 0
vn 0.7070457 -0.7071677 0
vn 0.7070457 -0.7071677 0
vn 0 1 0
vn 0 1 0
vn 0 1 0
vn 0 1 0
vn -1 -9.2E-05 0
vn -1 -9.2E-05 0
vn -1 -9.2E-05 0
vn -1 -9.2E-05 0
vn -1 0 0
vn -1 0 0
vn -1 0 0
vn -1 0 0
vn -1 0 0
vn -1 0 0
vn -1 0 0
vn -1 0 0
vn 1 0 0
vn 1 0 0
vn 1 0 0
vn 1 0 0
vn -1 0 0
vn -1 0 0
vn -1 0 0
vn -1 0 0
g LogoPart3_0
f 3/3/3 2/2/2 1/1/1
f 4/4/4 3/3/3 1/1/1
f 7/7/7 6/6/6 5/5/5
f 6/6/6 7/7/7 8/8/8
f 8/8/8 9/9/9 6/6/6
f 8/8/8 7/7/7 10/10/10
f 7/7/7 11/11/11 10/10/10
f 9/9/9 8/8/8 12/12/12
f 13/13/13 9/9/9 12/12/12
f 16/16/16 15/15/15 14/14/14
f 15/15/15 17/17/17 14/14/14
f 15/15/15 18/18/18 17/17/17
f 19/19/19 18/18/18 15/15/15
f 18/18/18 19/19/19 20/20/20
f 21/21/21 19/19/19 15/15/15
f 22/22/22 21/21/21 15/15/15
f 25/25/25 24/24/24 23/23/23
f 25/25/25 23/23/23 26/26/26
f 23/23/23 27/27/27 26/26/26
f 28/28/28 25/25/25 26/26/26
f 28/28/28 26/26/26 29/29/29
f 32/32/32 31/31/31 30/30/30
f 33/33/33 32/32/32 30/30/30
f 36/36/36 35/35/35 34/34/34
f 37/37/37 36/36/36 34/34/34
f 40/40/40 39/39/39 38/38/38
f 39/39/39 40/40/40 41/41/41
f 42/42/42 41/41/41 40/40/40
f 39/39/39 41/41/41 43/43/43
f 44/44/44 39/39/39 43/43/43
f 41/41/41 42/42/42 45/45/45
f 42/42/42 46/46/46 45/45/45
f 49/49/49 48/48/48 47/47/47
f 47/47/47 48/48/48 50/50/50
f 51/51/51 47/47/47 50/50/50
f 48/48/48 52/52/52 50/50/50
f 50/50/50 52/52/52 53/53/53
f 56/56/56 55/55/55 54/54/54
f 57/57/57 56/56/56 54/54/54
f 60/60/60 59/59/59 58/58/58
f 61/61/61 60/60/60 58/58/58
f 64/64/64 63/63/63 62/62/62
f 65/65/65 64/64/64 62/62/62
f 68/68/68 67/67/67 66/66/66
f 69/69/69 68/68/68 66/66/66
f 72/72/72 71/71/71 70/70/70
f 73/73/73 72/72/72 70/70/70
f 76/76/76 75/75/75 74/74/74
f 77/77/77 76/76/76 74/74/74
f 80/80/80 79/79/79 78/78/78
f 78/78/78 81/81/81 80/80/80
f 81/81/81 82/82/82 80/80/80
f 83/83/83 82/82/82 81/81/81
f 84/84/84 81/81/81 78/78/78
f 85/85/85 84/84/84 78/78/78
f 88/88/88 87/87/87 86/86/86
f 89/89/89 88/88/88 86/86/86
f 92/92/92 91/91/91 90/90/90
f 93/93/93 92/92/92 90/90/90
f 96/96/96 95/95/95 94/94/94
f 97/97/97 96/96/96 94/94/94
f 100/100/100 99/99/99 98/98/98
f 101/101/101 100/100/100 98/98/98
f 104/104/104 103/103/103 102/102/102
f 105/105/105 104/104/104 102/102/102
f 108/108/108 107/107/107 106/106/106
f 109/109/109 108/108/108 106/106/106
f 112/112/112 111/111/111 110/110/110
f 113/113/113 112/112/112 110/110/110
f 116/116/116 115/115/115 114/114/114
f 117/117/117 116/116/116 114/114/114
f 120/120/120 119/119/119 118/118/118
f 119/119/119 121/121/121 118/118/118
f 118/118/118 121/121/121 122/122/122
f 123/123/123 118/118/118 122/122/122
f 121/121/121 124/124/124 122/122/122
f 124/124/124 121/121/121 125/125/125
f 121/121/121 126/126/126 125/125/125
f 129/129/129 128/128/128 127/127/127
f 130/130/130 129/129/129 127/127/127
f 133/133/133 132/132/132 131/131/131
f 134/134/134 133/133/133 131/131/131
f 134/134/134 131/131/131 135/135/135
f 135/135/135 131/131/131 136/136/136
f 137/137/137 134/134/134 135/135/135
f 138/138/138 134/134/134 137/137/137
f 141/141/141 140/140/140 139/139/139
f 142/142/142 141/141/141 139/139/139
f 145/145/145 144/144/144 143/143/143
f 146/146/146 145/145/145 143/143/143
f 149/149/149 148/148/148 147/147/147
f 150/150/150 149/149/149 147/147/147
f 153/153/153 152/152/152 151/151/151
f 152/152/152 154/154/154 151/151/151
f 154/154/154 155/155/155 151/151/151
f 155/155/155 154/154/154 156/156/156
f 157/157/157 155/155/155 156/156/156
f 157/157/157 158/158/158 155/155/155
f 156/156/156 159/159/159 157/157/157
f 160/160/160 159/159/159 156/156/156
f 161/161/161 160/160/160 156/156/156
f 164/164/164 163/163/163 162/162/162
f 165/165/165 164/164/164 162/162/162
f 168/168/168 167/167/167 166/166/166
f 169/169/169 168/168/168 166/166/166
f 172/172/172 171/171/171 170/170/170
f 173/173/173 172/172/172 170/170/170
f 176/176/176 175/175/175 174/174/174
f 177/177/177 176/176/176 174/174/174
f 180/180/180 179/179/179 178/178/178
f 181/181/181 180/180/180 178/178/178
f 184/184/184 183/183/183 182/182/182
f 185/185/185 184/184/184 182/182/182
f 188/188/188 187/187/187 186/186/186
f 189/189/189 188/188/188 186/186/186
f 192/192/192 191/191/191 190/190/190
f 193/193/193 192/192/192 190/190/190
f 196/196/196 195/195/195 194/194/194
f 197/197/197 196/196/196 194/194/194
f 200/200/200 199/199/199 198/198/198
f 201/201/201 200/200/200 198/198/198
f 204/204/204 203/203/203 202/202/202
f 205/205/205 204/204/204 202/202/202
f 208/208/208 207/207/207 206/206/206
f 209/209/209 208/208/208 206/206/206
f 212/212/212 211/211/211 210/210/210
f 213/213/213 212/212/212 210/210/210
f 216/216/216 215/215/215 214/214/214
f 214/214/214 215/215/215 217/217/217
f 218/218/218 217/217/217 215/215/215
f 218/218/218 219/219/219 217/217/217
f 219/219/219 220/220/220 217/217/217
f 221/221/221 214/214/214 217/217/217
f 214/214/214 221/221/221 222/222/222
f 221/221/221 223/223/223 222/222/222
f 223/223/223 224/224/224 222/222/222
f 227/227/227 226/226/226 225/225/225
f 228/228/228 227/227/227 225/225/225
f 231/231/231 230/230/230 229/229/229
f 232/232/232 231/231/231 229/229/229
f 235/235/235 234/234/234 233/233/233
f 236/236/236 235/235/235 233/233/233
f 239/239/239 238/238/238 237/237/237
f 240/240/240 239/239/239 237/237/237
f 243/243/243 242/242/242 241/241/241
f 244/244/244 243/243/243 241/241/241
f 247/247/247 246/246/246 245/245/245
f 248/248/248 247/247/247 245/245/245
f 251/251/251 250/250/250 249/249/249
f 252/252/252 251/251/251 249/249/249
f 255/255/255 254/254/254 253/253/253
f 256/256/256 255/255/255 253/253/253
f 259/259/259 258/258/258 257/257/257
f 260/260/260 259/259/259 257/257/257
f 263/263/263 262/262/262 261/261/261
f 264/264/264 263/263/263 261/261/261
f 267/267/267 266/266/266 265/265/265
f 268/268/268 267/267/267 265/265/265
f 271/271/271 270/270/270 269/269/269
f 272/272/272 271/271/271 269/269/269
f 275/275/275 274/274/274 273/273/273
f 276/276/276 275/275/275 273/273/273
f 279/279/279 278/278/278 277/277/277
f 280/280/280 279/279/279 277/277/277
f 283/283/283 282/282/282 281/281/281
f 284/284/284 283/283/283 281/281/281
f 287/287/287 286/286/286 285/285/285
f 288/288/288 287/287/287 285/285/285
f 291/291/291 290/290/290 289/289/289
f 292/292/292 291/291/291 289/289/289
f 295/295/295 294/294/294 293/293/293
f 296/296/296 295/295/295 293/293/293
f 299/299/299 298/298/298 297/297/297
f 300/300/300 299/299/299 297/297/297
f 303/303/303 302/302/302 301/301/301
f 304/304/304 303/303/303 301/301/301
f 307/307/307 306/306/306 305/305/305
f 308/308/308 307/307/307 305/305/305
