g LogoPart3
v 1.879354 -0.627102 0
v 2.294269 -0.209231 0
v 1.99917 -0.209231 0
v 1.879354 -0.327839 0
v 5.74469 -0.621264 0
v 5.74469 -0.327666 0
v 4.489774 0.920378 0
v 4.489774 0.62678 0
v 3.240638 -0.621264 0
v 3.240638 -0.327666 0
v -2.610294 0.008447 0
v -1.361158 1.550089 0
v -2.610294 0.302045 0
v -1.361158 1.256491 0
v -0.106242 0.008447 0
v -0.106242 0.302045 0
v -5.118837 -1.253181 0
v -4.911728 -1.253181 0
v -4.911728 -0.839746 0
v -5.118837 -1.048123 0
v -4.699308 -0.417117 0
v -4.492198 -0.002767 0
v -4.699308 -0.211314 0
v -4.492198 -0.626214 0
v -5.242802 -0.417096 0
v -5.536397 -0.626214 0
v -5.5364 -0.417096 0
v -4.494743 0.62454 0
v -4.494743 0.330942 0
v 1.879354 -0.627102 0.209683
v 1.879354 -0.327839 0.209683
v 1.99917 -0.209231 0.209683
v 2.294269 -0.209231 0.209683
v 5.74469 -0.621264 0.209683
v 4.489774 0.920378 0.209683
v 5.74469 -0.327666 0.209683
v 4.489774 0.62678 0.209683
v 3.240638 -0.621264 0.209683
v 3.240638 -0.327666 0.209683
v -2.610294 0.008447 0.209683
v -2.610294 0.302045 0.209683
v -1.361158 1.550089 0.209683
v -1.361158 1.256491 0.209683
v -0.106242 0.008447 0.209683
v -0.106242 0.302045 0.209683
v -5.118837 -1.253181 0.209683
v -5.118837 -1.048123 0.209683
v -4.911728 -0.839746 0.209683
v -4.911728 -1.253181 0.209683
v -4.699308 -0.417117 0.209683
v -4.699308 -0.211314 0.209683
v -4.492198 -0.002767 0.209683
v -4.492198 -0.626214 0.209683
v -5.242802 -0.417096 0.209683
v -5.536397 -0.626214 0.209683
v -5.5364 -0.417096 0.209683
v -4.494743 0.62454 0.209683
v -4.494743 0.330942 0.209683
v -4.494743 0.62454 0
v -4.494743 0.62454 0.209683
v -5.5364 -0.417096 0.209683
v -5.5364 -0.417096 0
v -4.911728 -1.253181 0
v -4.911728 -1.253181 0.209683
v -4.911728 -0.839746 0.209683
v -4.911728 -0.839746 0
v 2.294269 -0.209231 0
v 2.294269 -0.209231 0.209683
v 1.99917 -0.209231 0.209683
v 1.99917 -0.209231 0
v 3.240638 -0.327666 0
v 3.240638 -0.327666 0.209683
v 3.240638 -0.621264 0.209683
v 3.240638 -0.621264 0
v 1.77442 0.838454 0
v 1.77442 0.838454 0.209683
v 2.610495 0.838454 0.209683
v 2.610495 0.838454 0
v -1.361158 1.550089 0
v -1.361158 1.550089 0.209683
v -2.610294 0.302045 0.209683
v -2.610294 0.302045 0
v 5.74469 -0.327666 0
v 5.74469 -0.327666 0.209683
v 4.489774 0.920378 0.209683
v 4.489774 0.920378 0
v 1.879354 -0.327839 0
v 1.879354 -0.327839 0.209683
v 1.879354 -0.627102 0.209683
v 1.879354 -0.627102 0
v -5.118837 -1.048123 0
v -5.118837 -1.048123 0.209683
v -5.118837 -1.253181 0.209683
v -5.118837 -1.253181 0
v 2.610495 0.838454 0
v 2.610495 0.838454 0.209683
v 2.610495 -0.002773 0.209683
v 2.610495 -0.002773 0
v -4.699308 -0.417117 0
v -4.699308 -0.417117 0.209683
v -5.242802 -0.417096 0.209683
v -5.242802 -0.417096 0
v -2.610294 0.008447 0
v -2.610294 0.008447 0.209683
v -1.361158 1.256491 0.209683
v -1.361158 1.256491 0
v 4.489774 0.920378 0
v 4.489774 0.920378 0.209683
v 4.489774 0.62678 0.209683
v 4.489774 0.62678 0
v -0.106242 0.302045 0
v -0.106242 0.302045 0.209683
v -1.361158 1.550089 0.209683
v -1.361158 1.550089 0
v -4.494743 0.330942 0
v -4.494743 0.330942 0.209683
v -4.494743 0.62454 0.209683
v -4.494743 0.62454 0
v 1.879354 -0.627102 0
v 1.879354 -0.627102 0.209683
v 2.294269 -0.209231 0.209683
v 2.294269 -0.209231 0
v 2.610495 -0.002773 0
v 2.610495 -0.002773 0.209683
v 1.77442 -0.002773 0.209683
v 1.77442 -0.002773 0
v -5.242802 -0.417096 0
v -5.242802 -0.417096 0.209683
v -4.494743 0.330942 0.209683
v -4.494743 0.330942 0
v 5.74469 -0.621264 0
v 5.74469 -0.621264 0.209683
v 5.74469 -0.327666 0.209683
v 5.74469 -0.327666 0
v -5.5364 -0.417096 0
v -5.5364 -0.417096 0.209683
v -5.536397 -0.626214 0.209683
v -5.536397 -0.626214 0
v -1.361158 1.256491 0
v -1.361158 1.256491 0.209683
v -0.106242 0.008447 0.209683
v -0.106242 0.008447 0
v 1.567942 1.044932 0
v 1.567942 1.044932 0.209683
v 1.567942 -0.209251 0.209683
v 1.567942 -0.209251 0
v -4.492198 -0.002767 0
v -4.492198 -0.002767 0.209683
v -4.699308 -0.211314 0.209683
v -4.699308 -0.211314 0
v 3.240638 -0.621264 0
v 3.240638 -0.621264 0.209683
v 4.489774 0.62678 0.209683
v 4.489774 0.62678 0
v 2.816973 1.044932 0
v 2.816973 1.044932 0.209683
v 1.567942 1.044932 0.209683
v 1.567942 1.044932 0
v -4.492198 -0.626214 0
v -4.492198 -0.626214 0.209683
v -4.492198 -0.002767 0.209683
v -4.492198 -0.002767 0
v -5.118837 -1.253181 0
v -5.118837 -1.253181 0.209683
v -4.911728 -1.253181 0.209683
v -4.911728 -1.253181 0
v 4.489774 0.920378 0
v 4.489774 0.920378 0.209683
v 3.240638 -0.327666 0.209683
v 3.240638 -0.327666 0
v -1.361158 1.256491 0
v -1.361158 1.256491 0.209683
v -1.361158 1.550089 0.209683
v -1.361158 1.550089 0
v -0.106242 0.008447 0
v -0.106242 0.008447 0.209683
v -0.106242 0.302045 0.209683
v -0.106242 0.302045 0
v 2.816973 -0.209251 0
v 2.816973 -0.209251 0.209683
v 2.816973 1.044932 0.209683
v 2.816973 1.044932 0
v -4.699308 -0.211314 0
v -4.699308 -0.211314 0.209683
v -4.699308 -0.417117 0.209683
v -4.699308 -0.417117 0
v -4.911728 -0.839746 0
v -4.911728 -0.839746 0.209683
v -5.118837 -1.048123 0.209683
v -5.118837 -1.048123 0
v 1.99917 -0.209231 0
v 1.99917 -0.209231 0.209683
v 1.879354 -0.327839 0.209683
v 1.879354 -0.327839 0
v 4.489774 0.62678 0
v 4.489774 0.62678 0.209683
v 4.489774 0.920378 0.209683
v 4.489774 0.920378 0
v 1.77442 -0.002773 0
v 1.77442 -0.002773 0.209683
v 1.77442 0.838454 0.209683
v 1.77442 0.838454 0
v -5.536397 -0.626214 0
v -5.536397 -0.626214 0.209683
v -4.492198 -0.626214 0.209683
v -4.492198 -0.626214 0
v -2.610294 0.302045 0
v -2.610294 0.302045 0.209683
v -2.610294 0.008447 0.209683
v -2.610294 0.008447 0
v 4.489774 0.62678 0
v 4.489774 0.62678 0.209683
v 5.74469 -0.621264 0.209683
v 5.74469 -0.621264 0
v -1.361158 1.550089 0
v -1.361158 1.550089 0.209683
v -1.361158 1.256491 0.209683
v -1.361158 1.256491 0
v 1.567942 -0.209251 0
v 1.567942 -0.209251 0.209683
v 2.816973 -0.209251 0.209683
v 2.816973 -0.209251 0
v 1.77442 -0.002773 0
v 1.77442 0.838454 0
v 1.567942 1.044932 0
v 1.567942 -0.209251 0
v 2.816973 1.044932 0
v 2.610495 -0.002773 0
v 2.610495 0.838454 0
v 2.816973 -0.209251 0
v 1.77442 -0.002773 0.209683
v 1.567942 -0.209251 0.209683
v 1.567942 1.044932 0.209683
v 1.77442 0.838454 0.209683
v 2.610495 -0.002773 0.209683
v 2.816973 1.044932 0.209683
v 2.816973 -0.209251 0.209683
v 2.610495 0.838454 0.209683
vt 0 0
vt 0 0
vt 0 0
vt 0 0
vt 0 0
vt 0 0
vt 0 0
vt 0 0
vt 0 0
vt 0 0
vt 0 0
vt 0 0
vt 0 0
vt 0 0
vt 0 0
vt 0 0
vt 0 0
vt 0 0
vt 0 0
vt 0 0
vt 0 0
vt 0 0
vt 0 0
vt 0 0
vt 0 0
vt 0 0
vt 0 0
vt 0 0
vt 0 0
vt 0 0
vt 0 0
vt 0 0
vt 0 0
vt 0 0
vt 0 0
vt 0 0
vt 0 0
vt 0 0
vt 0 0
vt 0 0
vt 0 0
vt 0 0
vt 0 0
vt 0 0
vt 0 0
vt 0 0
vt 0 0
vt 0 0
vt 0 0
vt 0 0
vt 0 0
vt 0 0
vt 0 0
vt 0 0
vt 0 0
vt 0 0
vt 0 0
vt 0 0
vt 0 0
vt 0 0
vt 0 0
vt 0 0
vt 0 0
vt 0 0
vt 0 0
vt 0 0
vt 0 0
vt 0 0
vt 0 0
vt 0 0
vt 0 0
vt 0 0
vt 0 0
vt 0 0
vt 0 0
vt 0 0
vt 0 0
vt 0 0
vt 0 0
vt 0 0
vt 0 0
vt 0 0
vt 0 0
vt 0 0
vt 0 0
vt 0 0
vt 0 0
vt 0 0
vt 0 0
vt 0 0
vt 0 0
vt 0 0
vt 0 0
vt 0 0
vt 0 0
vt 0 0
vt 0 0
vt 0 0
vt 0 0
vt 0 0
vt 0 0
vt 0 0
vt 0 0
vt 0 0
vt 0 0
vt 0 0
vt 0 0
vt 0 0
vt 0 0
vt 0 0
vt 0 0
vt 0 0
vt 0 0
vt 0 0
vt 0 0
vt 0 0
vt 0 0
vt 0 0
vt 0 0
vt 0 0
vt 0 0
vt 0 0
vt 0 0
vt 0 0
vt 0 0
vt 0 0
vt 0 0
vt 0 0
vt 0 0
vt 0 0
vt 0 0
vt 0 0
vt 0 0
vt 0 0
vt 0 0
vt 0 0
vt 0 0
vt 0 0
vt 0 0
vt 0 0
vt 0 0
vt 0 0
vt 0 0
vt 0 0
vt 0 0
vt 0 0
vt 0 0
vt 0 0
vt 0 0
vt 0 0
vt 0 0
vt 0 0
vt 0 0
vt 0 0
vt 0 0
vt 0 0
vt 0 0
vt 0 0
vt 0 0
vt 0 0
vt 0 0
vt 0 0
vt 0 0
vt 0 0
vt 0 0
vt 0 0
vt 0 0
vt 0 0
vt 0 0
vt 0 0
vt 0 0
vt 0 0
vt 0 0
vt 0 0
vt 0 0
vt 0 0
vt 0 0
vt 0 0
vt 0 0
vt 0 0
vt 0 0
vt 0 0
vt 0 0
vt 0 0
vt 0 0
vt 0 0
vt 0 0
vt 0 0
vt 0 0
vt 0 0
vt 0 0
vt 0 0
vt 0 0
vt 0 0
vt 0 0
vt 0 0
vt 0 0
vt 0 0
vt 0 0
vt 0 0
vt 0 0
vt 0 0
vt 0 0
vt 0 0
vt 0 0
vt 0 0
vt 0 0
vt 0 0
vt 0 0
vt 0 0
vt 0 0
vt 0 0
vt 0 0
vt 0 0
vt 0 0
vt 0 0
vt 0 0
vt 0 0
vt 0 0
vt 0 0
vt 0 0
vt 0 0
vt 0 0
vt 0 0
vt 0 0
vt 0 0
vt 0 0
vt 0 0
vt 0 0
vt 0 0
vt 0 0
vt 0 0
vt 0 0
vt 0 0
vt 0 0
vt 0 0
vt 0 0
vt 0 0
vn 0 0 -1
vn 0 0 -1
vn 0 0 -1
vn 0 0 -1
vn 0 0 -1
vn 0 0 -1
vn 0 0 -1
vn 0 0 -1
vn 0 0 -1
vn 0 0 -1
vn 0 0 -1
vn 0 0 -1
vn 0 0 -1
vn 0 0 -1
vn 0 0 -1
vn 0 0 -1
vn 0 0 -1
vn 0 0 -1
vn 0 0 -1
vn 0 0 -1
vn 0 0 -1
vn 0 0 -1
vn 0 0 -1
vn 0 0 -1
vn 0 0 -1
vn 0 0 -1
vn 0 0 -1
vn 0 0 -1
vn 0 0 -1
vn 0 0 1
vn 0 0 1
vn 0 0 1
vn 0 0 1
vn 0 0 1
vn 0 0 1
vn 0 0 1
vn 0 0 1
vn 0 0 1
vn 0 0 1
vn 0 0 1
vn 0 0 1
vn 0 0 1
vn 0 0 1
vn 0 0 1
vn 0 0 1
vn 0 0 1
vn 0 0 1
vn 0 0 1
vn 0 0 1
vn 0 0 1
vn 0 0 1
vn 0 0 1
vn 0 0 1
vn 0 0 1
vn 0 0 1
vn 0 0 1
vn 0 0 1
vn 0 0 1
vn -0.7070997 0.7071137 0
vn -0.7070997 0.7071137 0
vn -0.7070997 0.7071137 0
vn -0.7070997 0.7071137 0
vn 1 0 0
vn 1 0 0
vn 1 0 0
vn 1 0 0
vn 0 1 0
vn 0 1 0
vn 0 1 0
vn 0 1 0
vn -1 0 0
vn -1 0 0
vn -1 0 0
vn -1 0 0
vn 0 -1 0
vn 0 -1 0
vn 0 -1 0
vn 0 -1 0
vn -0.7067972 0.7074162 0
vn -0.7067972 0.7074162 0
vn -0.7067972 0.7074162 0
vn -0.7067972 0.7074162 0
vn 0.7051626 0.7090456 0
vn 0.7051626 0.7090456 0
vn 0.7051626 0.7090456 0
vn 0.7051626 0.7090456 0
vn -1 0 0
vn -1 0 0
vn -1 0 0
vn -1 0 0
vn -1 0 0
vn -1 0 0
vn -1 0 0
vn -1 0 0
vn -1 0 0
vn -1 0 0
vn -1 0 0
vn -1 0 0
vn 3.9E-05 1 0
vn 3.9E-05 1 0
vn 3.9E-05 1 0
vn 3.9E-05 1 0
vn 0.7067972 -0.7074162 0
vn 0.7067972 -0.7074162 0
vn 0.7067972 -0.7074162 0
vn 0.7067972 -0.7074162 0
vn -1 0 0
vn -1 0 0
vn -1 0 0
vn -1 0 0
vn 0.7051631 0.7090451 0
vn 0.7051631 0.7090451 0
vn 0.7051631 0.7090451 0
vn 0.7051631 0.7090451 0
vn 1 0 0
vn 1 0 0
vn 1 0 0
vn 1 0 0
vn 0.7096123 -0.7045923 0
vn 0.7096123 -0.7045923 0
vn 0.7096123 -0.7045923 0
vn 0.7096123 -0.7045923 0
vn 0 1 0
vn 0 1 0
vn 0 1 0
vn 0 1 0
vn 0.7070972 -0.7071162 0
vn 0.7070972 -0.7071162 0
vn 0.7070972 -0.7071162 0
vn 0.7070972 -0.7071162 0
vn 1 0 0
vn 1 0 0
vn 1 0 0
vn 1 0 0
vn -1 -1.3E-05 0
vn -1 -1.3E-05 0
vn -1 -1.3E-05 0
vn -1 -1.3E-05 0
vn -0.7051631 -0.7090451 0
vn -0.7051631 -0.7090451 0
vn -0.7051631 -0.7090451 0
vn -0.7051631 -0.7090451 0
vn -1 0 0
vn -1 0 0
vn -1 0 0
vn -1 0 0
vn -0.709548 0.704657 0
vn -0.709548 0.704657 0
vn -0.709548 0.704657 0
vn -0.709548 0.704657 0
vn 0.7067972 -0.7074162 0
vn 0.7067972 -0.7074162 0
vn 0.7067972 -0.7074162 0
vn 0.7067972 -0.7074162 0
vn 0 1 0
vn 0 1 0
vn 0 1 0
vn 0 1 0
vn 1 0 0
vn 1 0 0
vn 1 0 0
vn 1 0 0
vn 0 -1 0
vn 0 -1 0
vn 0 -1 0
vn 0 -1 0
vn -0.7067972 0.7074162 0
vn -0.7067972 0.7074162 0
vn -0.7067972 0.7074162 0
vn -0.7067972 0.7074162 0
vn 1 0 0
vn 1 0 0
vn 1 0 0
vn 1 0 0
vn 1 0 0
vn 1 0 0
vn 1 0 0
vn 1 0 0
vn 1 0 0
vn 1 0 0
vn 1 0 0
vn 1 0 0
vn -1 0 0
vn -1 0 0
vn -1 0 0
vn -1 0 0
vn -0.709262 0.704945 0
vn -0.709262 0.704945 0
vn -0.709262 0.704945 0
vn -0.709262 0.704945 0
vn -0.7035132 0.7106822 0
vn -0.7035132 0.7106822 0
vn -0.7035132 0.7106822 0
vn -0.7035132 0.7106822 0
vn 1 0 0
vn 1 0 0
vn 1 0 0
vn 1 0 0
vn 1 0 0
vn 1 0 0
vn 1 0 0
vn 1 0 0
vn 0 -1 0
vn 0 -1 0
vn 0 -1 0
vn 0 -1 0
vn -1 0 0
vn -1 0 0
vn -1 0 0
vn -1 0 0
vn -0.7051626 -0.7090456 0
vn -0.7051626 -0.7090456 0
vn -0.7051626 -0.7090456 0
vn -0.7051626 -0.7090456 0
vn -1 0 0
vn -1 0 0
vn -1 0 0
vn -1 0 0
vn 0 -1 0
vn 0 -1 0
vn 0 -1 0
vn 0 -1 0
vn 0 0 -1
vn 0 0 -1
vn 0 0 -1
vn 0 0 -1
vn 0 0 -1
vn 0 0 -1
vn 0 0 -1
vn 0 0 -1
vn 0 0 1
vn 0 0 1
vn 0 0 1
vn 0 0 1
vn 0 0 1
vn 0 0 1
vn 0 0 1
vn 0 0 1
g LogoPart3_0
f 3/3/3 2/2/2 1/1/1
f 4/4/4 3/3/3 1/1/1
f 7/7/7 6/6/6 5/5/5
f 8/8/8 7/7/7 5/5/5
f 7/7/7 8/8/8 9/9/9
f 10/10/10 7/7/7 9/9/9
f 13/13/13 12/12/12 11/11/11
f 12/12/12 14/14/14 11/11/11
f 14/14/14 12/12/12 15/15/15
f 12/12/12 16/16/16 15/15/15
f 19/19/19 18/18/18 17/17/17
f 20/20/20 19/19/19 17/17/17
f 23/23/23 22/22/22 21/21/21
f 22/22/22 24/24/24 21/21/21
f 25/25/25 21/21/21 24/24/24
f 26/26/26 25/25/25 24/24/24
f 25/25/25 26/26/26 27/27/27
f 27/27/27 28/28/28 25/25/25
f 28/28/28 29/29/29 25/25/25
f 32/32/32 31/31/31 30/30/30
f 33/33/33 32/32/32 30/30/30
f 36/36/36 35/35/35 34/34/34
f 35/35/35 37/37/37 34/34/34
f 37/37/37 35/35/35 38/38/38
f 35/35/35 39/39/39 38/38/38
f 42/42/42 41/41/41 40/40/40
f 43/43/43 42/42/42 40/40/40
f 42/42/42 43/43/43 44/44/44
f 45/45/45 42/42/42 44/44/44
f 48/48/48 47/47/47 46/46/46
f 49/49/49 48/48/48 46/46/46
f 52/52/52 51/51/51 50/50/50
f 53/53/53 52/52/52 50/50/50
f 50/50/50 54/54/54 53/53/53
f 54/54/54 55/55/55 53/53/53
f 55/55/55 54/54/54 56/56/56
f 57/57/57 56/56/56 54/54/54
f 58/58/58 57/57/57 54/54/54
f 61/61/61 60/60/60 59/59/59
f 62/62/62 61/61/61 59/59/59
f 65/65/65 64/64/64 63/63/63
f 66/66/66 65/65/65 63/63/63
f 69/69/69 68/68/68 67/67/67
f 70/70/70 69/69/69 67/67/67
f 73/73/73 72/72/72 71/71/71
f 74/74/74 73/73/73 71/71/71
f 77/77/77 76/76/76 75/75/75
f 78/78/78 77/77/77 75/75/75
f 81/81/81 80/80/80 79/79/79
f 82/82/82 81/81/81 79/79/79
f 85/85/85 84/84/84 83/83/83
f 86/86/86 85/85/85 83/83/83
f 89/89/89 88/88/88 87/87/87
f 90/90/90 89/89/89 87/87/87
f 93/93/93 92/92/92 91/91/91
f 94/94/94 93/93/93 91/91/91
f 97/97/97 96/96/96 95/95/95
f 98/98/98 97/97/97 95/95/95
f 101/101/101 100/100/100 99/99/99
f 102/102/102 101/101/101 99/99/99
f 105/105/105 104/104/104 103/103/103
f 106/106/106 105/105/105 103/103/103
f 109/109/109 108/108/108 107/107/107
f 110/110/110 109/109/109 107/107/107
f 113/113/113 112/112/112 111/111/111
f 114/114/114 113/113/113 111/111/111
f 117/117/117 116/116/116 115/115/115
f 118/118/118 117/117/117 115/115/115
f 121/121/121 120/120/120 119/119/119
f 122/122/122 121/121/121 119/119/119
f 125/125/125 124/124/124 123/123/123
f 126/126/126 125/125/125 123/123/123
f 129/129/129 128/128/128 127/127/127
f 130/130/130 129/129/129 127/127/127
f 133/133/133 132/132/132 131/131/131
f 134/134/134 133/133/133 131/131/131
f 137/137/137 136/136/136 135/135/135
f 138/138/138 137/137/137 135/135/135
f 141/141/141 140/140/140 139/139/139
f 142/142/142 141/141/141 139/139/139
f 145/145/145 144/144/144 143/143/143
f 146/146/146 145/145/145 143/143/143
f 149/149/149 148/148/148 147/147/147
f 150/150/150 149/149/149 147/147/147
f 153/153/153 152/152/152 151/151/151
f 154/154/154 153/153/153 151/151/151
f 157/157/157 156/156/156 155/155/155
f 158/158/158 157/157/157 155/155/155
f 161/161/161 160/160/160 159/159/159
f 162/162/162 161/161/161 159/159/159
f 165/165/165 164/164/164 163/163/163
f 166/166/166 165/165/165 163/163/163
f 169/169/169 168/168/168 167/167/167
f 170/170/170 169/169/169 167/167/167
f 173/173/173 172/172/172 171/171/171
f 174/174/174 173/173/173 171/171/171
f 177/177/177 176/176/176 175/175/175
f 178/178/178 177/177/177 175/175/175
f 181/181/181 180/180/180 179/179/179
f 182/182/182 181/181/181 179/179/179
f 185/185/185 184/184/184 183/183/183
f 186/186/186 185/185/185 183/183/183
f 189/189/189 188/188/188 187/187/187
f 190/190/190 189/189/189 187/187/187
f 193/193/193 192/192/192 191/191/191
f 194/194/194 193/193/193 191/191/191
f 197/197/197 196/196/196 195/195/195
f 198/198/198 197/197/197 195/195/195
f 201/201/201 200/200/200 199/199/199
f 202/202/202 201/201/201 199/199/199
f 205/205/205 204/204/204 203/203/203
f 206/206/206 205/205/205 203/203/203
f 209/209/209 208/208/208 207/207/207
f 210/210/210 209/209/209 207/207/207
f 213/213/213 212/212/212 211/211/211
f 214/214/214 213/213/213 211/211/211
f 217/217/217 216/216/216 215/215/215
f 218/218/218 217/217/217 215/215/215
f 221/221/221 220/220/220 219/219/219
f 222/222/222 221/221/221 219/219/219
f 225/225/225 224/224/224 223/223/223
f 226/226/226 225/225/225 223/223/223
f 225/225/225 227/227/227 224/224/224
f 226/226/226 223/223/223 228/228/228
f 227/227/227 229/229/229 224/224/224
f 230/230/230 226/226/226 228/228/228
f 230/230/230 228/228/228 229/229/229
f 227/227/227 230/230/230 229/229/229
f 233/233/233 232/232/232 231/231/231
f 234/234/234 233/233/233 231/231/231
f 231/231/231 232/232/232 235/235/235
f 236/236/236 233/233/233 234/234/234
f 232/232/232 237/237/237 235/235/235
f 238/238/238 236/236/236 234/234/234
f 235/235/235 237/237/237 238/238/238
f 237/237/237 236/236/236 238/238/238
