g Lotus2
v -0.600956 0.960934 0.617371
v -0.960935 0.600955 0.617371
v -0.933771 0.93377 0.908581
v 0 0 0.149985
v -0.387395 0 0.149985
v 0 0.387395 0.149985
v -0.600956 0.960934 0.617371
v -0.933771 0.93377 0.908581
v -0.960935 0.600955 0.617371
v 0 0 0.149985
v 0 0.387395 0.149985
v -0.387395 0 0.149985
v 0.600956 0.960934 0.617371
v 0.933771 0.93377 0.908581
v 0.960935 0.600955 0.617371
v 0 0 0.149985
v 0 0.387395 0.149985
v 0.387395 0 0.149985
v 0.600956 0.960934 0.617371
v 0.960935 0.600955 0.617371
v 0.933771 0.93377 0.908581
v 0 0 0.149985
v 0.387395 0 0.149985
v 0 0.387395 0.149985
v -0.600956 -0.960934 0.617371
v -0.933771 -0.93377 0.908581
v -0.960935 -0.600955 0.617371
v 0 0 0.149985
v 0 -0.387395 0.149985
v -0.387395 0 0.149985
v -0.600956 -0.960934 0.617371
v -0.960935 -0.600955 0.617371
v -0.933771 -0.93377 0.908581
v 0 0 0.149985
v -0.387395 0 0.149985
v 0 -0.387395 0.149985
v 0.600956 -0.960934 0.617371
v 0.960935 -0.600955 0.617371
v 0.933771 -0.93377 0.908581
v 0 0 0.149985
v 0.387395 0 0.149985
v 0 -0.387395 0.149985
v 0.600956 -0.960934 0.617371
v 0.933771 -0.93377 0.908581
v 0.960935 -0.600955 0.617371
v 0 0 0.149985
v 0 -0.387395 0.149985
v 0.387395 0 0.149985
v 0 0.387395 0.149985
v -0.387395 0 0.149985
v -0.754547 0.293065 0.322629
v -0.293066 0.754547 0.322629
v -0.293066 0.754547 0.322629
v -0.754547 0.293065 0.322629
v -0.960935 0.600955 0.617371
v -0.600956 0.960934 0.617371
v 0 0.387395 0.149985
v -0.293066 0.754547 0.322629
v -0.754547 0.293065 0.322629
v -0.387395 0 0.149985
v -0.293066 0.754547 0.322629
v -0.600956 0.960934 0.617371
v -0.960935 0.600955 0.617371
v -0.754547 0.293065 0.322629
v 0 0.387395 0.149985
v 0.293066 0.754547 0.322629
v 0.754547 0.293065 0.322629
v 0.387395 0 0.149985
v 0.293066 0.754547 0.322629
v 0.600956 0.960934 0.617371
v 0.960935 0.600955 0.617371
v 0.754547 0.293065 0.322629
v 0 0.387395 0.149985
v 0.387395 0 0.149985
v 0.754547 0.293065 0.322629
v 0.293066 0.754547 0.322629
v 0.293066 0.754547 0.322629
v 0.754547 0.293065 0.322629
v 0.960935 0.600955 0.617371
v 0.600956 0.960934 0.617371
v 0 -0.387395 0.149985
v -0.293066 -0.754547 0.322629
v -0.754547 -0.293065 0.322629
v -0.387395 0 0.149985
v -0.293066 -0.754547 0.322629
v -0.600956 -0.960934 0.617371
v -0.960935 -0.600955 0.617371
v -0.754547 -0.293065 0.322629
v 0 -0.387395 0.149985
v -0.387395 0 0.149985
v -0.754547 -0.293065 0.322629
v -0.293066 -0.754547 0.322629
v -0.293066 -0.754547 0.322629
v -0.754547 -0.293065 0.322629
v -0.960935 -0.600955 0.617371
v -0.600956 -0.960934 0.617371
v 0 -0.387395 0.149985
v 0.387395 0 0.149985
v 0.754547 -0.293065 0.322629
v 0.293066 -0.754547 0.322629
v 0.293066 -0.754547 0.322629
v 0.754547 -0.293065 0.322629
v 0.960935 -0.600955 0.617371
v 0.600956 -0.960934 0.617371
v 0 -0.387395 0.149985
v 0.293066 -0.754547 0.322629
v 0.754547 -0.293065 0.322629
v 0.387395 0 0.149985
v 0.293066 -0.754547 0.322629
v 0.600956 -0.960934 0.617371
v 0.960935 -0.600955 0.617371
v 0.754547 -0.293065 0.322629
vt 0.163665 0.890025
vt 0.163666 0.109975
vt 0 0.5
vt 1 0.500001
vt 0.792564 0.080272
vt 0.792564 0.919729
vt 0.163665 0.890025
vt 0 0.5
vt 0.163666 0.109975
vt 1 0.500001
vt 0.792564 0.919729
vt 0.792564 0.080272
vt 0.163665 0.890025
vt 0 0.5
vt 0.163666 0.109975
vt 1 0.500001
vt 0.792564 0.919729
vt 0.792564 0.080272
vt 0.163665 0.890025
vt 0.163666 0.109975
vt 0 0.5
vt 1 0.500001
vt 0.792564 0.080272
vt 0.792564 0.919729
vt 0.163665 0.890025
vt 0 0.5
vt 0.163666 0.109975
vt 1 0.500001
vt 0.792564 0.919729
vt 0.792564 0.080272
vt 0.163665 0.890025
vt 0.163666 0.109975
vt 0 0.5
vt 1 0.500001
vt 0.792564 0.080272
vt 0.792564 0.919729
vt 0.163665 0.890025
vt 0.163666 0.109975
vt 0 0.5
vt 1 0.500001
vt 0.792564 0.080272
vt 0.792564 0.919729
vt 0.163665 0.890025
vt 0 0.5
vt 0.163666 0.109975
vt 1 0.500001
vt 0.792564 0.919729
vt 0.792564 0.080272
vt 0.792564 0.919729
vt 0.792564 0.080272
vt 0.439042 0
vt 0.439042 1
vt 0.439042 1
vt 0.439042 0
vt 0.163666 0.109975
vt 0.163665 0.890025
vt 0.792564 0.919729
vt 0.439042 1
vt 0.439042 0
vt 0.792564 0.080272
vt 0.439042 1
vt 0.163665 0.890025
vt 0.163666 0.109975
vt 0.439042 0
vt 0.792564 0.919729
vt 0.439042 1
vt 0.439042 0
vt 0.792564 0.080272
vt 0.439042 1
vt 0.163665 0.890025
vt 0.163666 0.109975
vt 0.439042 0
vt 0.792564 0.919729
vt 0.792564 0.080272
vt 0.439042 0
vt 0.439042 1
vt 0.439042 1
vt 0.439042 0
vt 0.163666 0.109975
vt 0.163665 0.890025
vt 0.792564 0.919729
vt 0.439042 1
vt 0.439042 0
vt 0.792564 0.080272
vt 0.439042 1
vt 0.163665 0.890025
vt 0.163666 0.109975
vt 0.439042 0
vt 0.792564 0.919729
vt 0.792564 0.080272
vt 0.439042 0
vt 0.439042 1
vt 0.439042 1
vt 0.439042 0
vt 0.163666 0.109975
vt 0.163665 0.890025
vt 0.792564 0.919729
vt 0.792564 0.080272
vt 0.439042 0
vt 0.439042 1
vt 0.439042 1
vt 0.439042 0
vt 0.163666 0.109975
vt 0.163665 0.890025
vt 0.792564 0.919729
vt 0.439042 1
vt 0.439042 0
vt 0.792564 0.080272
vt 0.439042 1
vt 0.163665 0.890025
vt 0.163666 0.109975
vt 0.439042 0
vn 0.567812 -0.56781 0.595971
vn 0.567812 -0.56781 0.595971
vn 0.567812 -0.56781 0.595971
vn 0 0 1
vn 0 0 1
vn 0 0 1
vn -0.567812 0.56781 -0.595971
vn -0.567812 0.56781 -0.595971
vn -0.567812 0.56781 -0.595971
vn 0 0 -1
vn 0 0 -1
vn 0 0 -1
vn -0.567812 -0.56781 0.595971
vn -0.567812 -0.56781 0.595971
vn -0.567812 -0.56781 0.595971
vn 0 0 1
vn 0 0 1
vn 0 0 1
vn 0.567812 0.56781 -0.595971
vn 0.567812 0.56781 -0.595971
vn 0.567812 0.56781 -0.595971
vn 0 0 -1
vn 0 0 -1
vn 0 0 -1
vn 0.567812 0.56781 0.595971
vn 0.567812 0.56781 0.595971
vn 0.567812 0.56781 0.595971
vn 0 0 1
vn 0 0 1
vn 0 0 1
vn -0.567812 -0.56781 -0.595971
vn -0.567812 -0.56781 -0.595971
vn -0.567812 -0.56781 -0.595971
vn 0 0 -1
vn 0 0 -1
vn 0 0 -1
vn -0.567812 0.56781 0.595971
vn -0.567812 0.56781 0.595971
vn -0.567812 0.56781 0.595971
vn 0 0 1
vn 0 0 1
vn 0 0 1
vn 0.567812 -0.56781 -0.595971
vn 0.567812 -0.56781 -0.595971
vn 0.567812 -0.56781 -0.595971
vn 0 0 -1
vn 0 0 -1
vn 0 0 -1
vn 0.245261 -0.245261 0.9379201
vn 0.245261 -0.245261 0.9379201
vn 0.245261 -0.245261 0.9379201
vn 0.245261 -0.245261 0.9379201
vn 0.4452391 -0.4452391 0.7768682
vn 0.4452391 -0.4452391 0.7768682
vn 0.4452391 -0.4452391 0.7768682
vn 0.4452391 -0.4452391 0.7768682
vn -0.245261 0.245261 -0.9379201
vn -0.245261 0.245261 -0.9379201
vn -0.245261 0.245261 -0.9379201
vn -0.245261 0.245261 -0.9379201
vn -0.4452391 0.4452391 -0.7768682
vn -0.4452391 0.4452391 -0.7768682
vn -0.4452391 0.4452391 -0.7768682
vn -0.4452391 0.4452391 -0.7768682
vn -0.245261 -0.245261 0.9379201
vn -0.245261 -0.245261 0.9379201
vn -0.245261 -0.245261 0.9379201
vn -0.245261 -0.245261 0.9379201
vn -0.4452391 -0.4452391 0.7768682
vn -0.4452391 -0.4452391 0.7768682
vn -0.4452391 -0.4452391 0.7768682
vn -0.4452391 -0.4452391 0.7768682
vn 0.245261 0.245261 -0.9379201
vn 0.245261 0.245261 -0.9379201
vn 0.245261 0.245261 -0.9379201
vn 0.245261 0.245261 -0.9379201
vn 0.4452391 0.4452391 -0.7768682
vn 0.4452391 0.4452391 -0.7768682
vn 0.4452391 0.4452391 -0.7768682
vn 0.4452391 0.4452391 -0.7768682
vn 0.245261 0.245261 0.9379201
vn 0.245261 0.245261 0.9379201
vn 0.245261 0.245261 0.9379201
vn 0.245261 0.245261 0.9379201
vn 0.4452391 0.4452391 0.7768682
vn 0.4452391 0.4452391 0.7768682
vn 0.4452391 0.4452391 0.7768682
vn 0.4452391 0.4452391 0.7768682
vn -0.245261 -0.245261 -0.9379201
vn -0.245261 -0.245261 -0.9379201
vn -0.245261 -0.245261 -0.9379201
vn -0.245261 -0.245261 -0.9379201
vn -0.4452391 -0.4452391 -0.7768682
vn -0.4452391 -0.4452391 -0.7768682
vn -0.4452391 -0.4452391 -0.7768682
vn -0.4452391 -0.4452391 -0.7768682
vn -0.245261 0.245261 0.9379201
vn -0.245261 0.245261 0.9379201
vn -0.245261 0.245261 0.9379201
vn -0.245261 0.245261 0.9379201
vn -0.4452391 0.4452391 0.7768682
vn -0.4452391 0.4452391 0.7768682
vn -0.4452391 0.4452391 0.7768682
vn -0.4452391 0.4452391 0.7768682
vn 0.245261 -0.245261 -0.9379201
vn 0.245261 -0.245261 -0.9379201
vn 0.245261 -0.245261 -0.9379201
vn 0.245261 -0.245261 -0.9379201
vn 0.4452391 -0.4452391 -0.7768682
vn 0.4452391 -0.4452391 -0.7768682
vn 0.4452391 -0.4452391 -0.7768682
vn 0.4452391 -0.4452391 -0.7768682
g Lotus2_0
f 3/3/3 2/2/2 1/1/1
f 6/6/6 5/5/5 4/4/4
f 9/9/9 8/8/8 7/7/7
f 12/12/12 11/11/11 10/10/10
f 15/15/15 14/14/14 13/13/13
f 18/18/18 17/17/17 16/16/16
f 21/21/21 20/20/20 19/19/19
f 24/24/24 23/23/23 22/22/22
f 27/27/27 26/26/26 25/25/25
f 30/30/30 29/29/29 28/28/28
f 33/33/33 32/32/32 31/31/31
f 36/36/36 35/35/35 34/34/34
f 39/39/39 38/38/38 37/37/37
f 42/42/42 41/41/41 40/40/40
f 45/45/45 44/44/44 43/43/43
f 48/48/48 47/47/47 46/46/46
f 51/51/51 50/50/50 49/49/49
f 52/52/52 51/51/51 49/49/49
f 55/55/55 54/54/54 53/53/53
f 56/56/56 55/55/55 53/53/53
f 59/59/59 58/58/58 57/57/57
f 60/60/60 59/59/59 57/57/57
f 63/63/63 62/62/62 61/61/61
f 64/64/64 63/63/63 61/61/61
f 67/67/67 66/66/66 65/65/65
f 68/68/68 67/67/67 65/65/65
f 71/71/71 70/70/70 69/69/69
f 72/72/72 71/71/71 69/69/69
f 75/75/75 74/74/74 73/73/73
f 76/76/76 75/75/75 73/73/73
f 79/79/79 78/78/78 77/77/77
f 80/80/80 79/79/79 77/77/77
f 83/83/83 82/82/82 81/81/81
f 84/84/84 83/83/83 81/81/81
f 87/87/87 86/86/86 85/85/85
f 88/88/88 87/87/87 85/85/85
f 91/91/91 90/90/90 89/89/89
f 92/92/92 91/91/91 89/89/89
f 95/95/95 94/94/94 93/93/93
f 96/96/96 95/95/95 93/93/93
f 99/99/99 98/98/98 97/97/97
f 100/100/100 99/99/99 97/97/97
f 103/103/103 102/102/102 101/101/101
f 104/104/104 103/103/103 101/101/101
f 107/107/107 106/106/106 105/105/105
f 108/108/108 107/107/107 105/105/105
f 111/111/111 110/110/110 109/109/109
f 112/112/112 111/111/111 109/109/109
