g NSided_RooftopB_Plain
v 0.375 -0.375 0
v 0.5 -0.5 0
v -0.5 -0.5 0
v -0.375 -0.375 0
v -0.375 -0.375 0
v -0.5 -0.5 0
v -0.5 0.5 0
v -0.375 0.375 0
v -0.375 0.375 0
v -0.5 0.5 0
v 0.5 0.5 0
v 0.375 0.375 0
v 0.375 0.375 0
v 0.5 0.5 0
v 0.5 -0.5 0
v 0.375 -0.375 0
v 0.375 -0.375 0.125
v 0.375 0.375 0.125
v 0.375 0.375 0
v 0.375 -0.375 0
v -0.375 0.375 0
v 0.375 0.375 0
v 0.375 0.375 0.125
v -0.375 0.375 0.125
v -0.375 -0.375 0
v -0.375 0.375 0
v -0.375 0.375 0.125
v -0.375 -0.375 0.125
v 0.375 -0.375 0
v -0.375 -0.375 0
v -0.375 -0.375 0.125
v 0.375 -0.375 0.125
v 0.375 0.375 0.125
v 0.375 -0.375 0.125
v 0.1875 -0.1875 0.5
v 0.1875 0.1875 0.5
v -0.375 0.375 0.125
v 0.375 0.375 0.125
v 0.1875 0.1875 0.5
v -0.1875 0.1875 0.5
v -0.1875 0.1875 0.5
v 0.1875 0.1875 0.5
v 0.1875 -0.1875 0.5
v -0.1875 -0.1875 0.5
v 0.375 -0.375 0.125
v -0.375 -0.375 0.125
v -0.1875 -0.1875 0.5
v 0.1875 -0.1875 0.5
v -0.375 -0.375 0.125
v -0.375 0.375 0.125
v -0.1875 0.1875 0.5
v -0.1875 -0.1875 0.5
vt 0.3168293 0.1384227
vt 0.3235176 0.1350785
vt 0.2700105 0.1350785
vt 0.2766989 0.1384227
vt 0.3168421 0.1383544
vt 0.3235305 0.1350102
vt 0.2700234 0.1350102
vt 0.2767118 0.1383544
vt 0.3166797 0.138397
vt 0.3233681 0.1350528
vt 0.2698609 0.1350528
vt 0.2765494 0.138397
vt 0.3168421 0.1383544
vt 0.3235305 0.1350102
vt 0.2700234 0.1350102
vt 0.2767118 0.1383544
vt 0.267673 0.1464768
vt 0.314548 0.1464768
vt 0.314548 0.1425706
vt 0.267673 0.1425706
vt 0.267673 0.1425706
vt 0.314548 0.1425706
vt 0.314548 0.1464768
vt 0.267673 0.1464768
vt 0.267673 0.1425706
vt 0.314548 0.1425706
vt 0.314548 0.1464768
vt 0.267673 0.1464768
vt 0.314548 0.1425706
vt 0.267673 0.1425706
vt 0.267673 0.1464768
vt 0.314548 0.1464768
vt 0.314548 0.1464768
vt 0.267673 0.1464768
vt 0.2793917 0.1581956
vt 0.3028293 0.1581956
vt 0.267673 0.1464768
vt 0.314548 0.1464768
vt 0.3028293 0.1581956
vt 0.2793917 0.1581956
vt 0.3093769 0.1622026
vt 0.3252847 0.1622026
vt 0.3252847 0.1542488
vt 0.3093769 0.1542488
vt 0.314548 0.1464768
vt 0.267673 0.1464768
vt 0.2793917 0.1581956
vt 0.3028293 0.1581956
vt 0.267673 0.1464768
vt 0.314548 0.1464768
vt 0.3028293 0.1581956
vt 0.2793917 0.1581956
vn 0 0 1
vn 0 0 1
vn 0 0 1
vn 0 0 1
vn 0 0 1
vn 0 0 1
vn 0 0 1
vn 0 0 1
vn 0 0 1
vn 0 0 1
vn 0 0 1
vn 0 0 1
vn 0 0 1
vn 0 0 1
vn 0 0 1
vn 0 0 1
vn 1 0 0
vn 1 0 0
vn 1 0 0
vn 1 0 0
vn 0 1 0
vn 0 1 0
vn 0 1 0
vn 0 1 0
vn -1 0 0
vn -1 0 0
vn -1 0 0
vn -1 0 0
vn 0 -1 0
vn 0 -1 0
vn 0 -1 0
vn 0 -1 0
vn 0.8944333 0 0.4472014
vn 0.8944333 0 0.4472014
vn 0.8944333 0 0.4472014
vn 0.8944333 0 0.4472014
vn 0 0.8944333 0.4472014
vn 0 0.8944333 0.4472014
vn 0 0.8944333 0.4472014
vn 0 0.8944333 0.4472014
vn 0 0 1
vn 0 0 1
vn 0 0 1
vn 0 0 1
vn 0 -0.8944333 0.4472014
vn 0 -0.8944333 0.4472014
vn 0 -0.8944333 0.4472014
vn 0 -0.8944333 0.4472014
vn -0.8944333 0 0.4472014
vn -0.8944333 0 0.4472014
vn -0.8944333 0 0.4472014
vn -0.8944333 0 0.4472014
g NSided_RooftopB_Plain_0
f 3/3/3 2/2/2 1/1/1
f 4/4/4 3/3/3 1/1/1
f 7/7/7 6/6/6 5/5/5
f 8/8/8 7/7/7 5/5/5
f 11/11/11 10/10/10 9/9/9
f 12/12/12 11/11/11 9/9/9
f 15/15/15 14/14/14 13/13/13
f 16/16/16 15/15/15 13/13/13
f 19/19/19 18/18/18 17/17/17
f 20/20/20 19/19/19 17/17/17
f 23/23/23 22/22/22 21/21/21
f 24/24/24 23/23/23 21/21/21
f 27/27/27 26/26/26 25/25/25
f 28/28/28 27/27/27 25/25/25
f 31/31/31 30/30/30 29/29/29
f 32/32/32 31/31/31 29/29/29
f 35/35/35 34/34/34 33/33/33
f 36/36/36 35/35/35 33/33/33
f 39/39/39 38/38/38 37/37/37
f 40/40/40 39/39/39 37/37/37
f 43/43/43 42/42/42 41/41/41
f 44/44/44 43/43/43 41/41/41
f 47/47/47 46/46/46 45/45/45
f 48/48/48 47/47/47 45/45/45
f 51/51/51 50/50/50 49/49/49
f 52/52/52 51/51/51 49/49/49
