g NSided_QuarterConcave_Plain
v 0.5 -0.162939 -0.388861
v -0.5 -0.347759 -0.734635
v 0.5 -0.347759 -0.734635
v -0.5 -0.162939 -0.388861
v 0.5 0.085787 -0.085788
v -0.5 0.085787 -0.085788
v 0.5 0.38886 0.162938
v -0.5 0.38886 0.162938
v 0.5 0.734634 0.347757
v -0.5 0.734634 0.347757
v 0.5 1.109821 0.461569
v -0.5 1.109821 0.461569
v 0.5 1.500002 0.499998
v -0.5 1.500002 0.499998
v -0.5 -0.461571 -1.109821
v 0.5 -0.461571 -1.109821
v -0.5 -0.5 -1.500002
v 0.5 -0.5 -1.500002
v 0.5 -0.5 0.5
v -0.5 -0.5 -1
v -0.5 -0.5 0.5
v 0.5 -0.5 -1
v 0.5 1 0.5
v -0.5 -0.5 0.5
v -0.5 1 0.5
v 0.5 -0.5 0.5
v -0.5 -0.461571 -1.109821
v -0.5 -0.347759 -0.734635
v -0.5 -0.5 -1
v -0.5 -0.5 0.5
v -0.5 -0.162939 -0.388861
v -0.5 0.085787 -0.085788
v -0.5 0.38886 0.162938
v -0.5 1 0.5
v -0.5 0.734634 0.347757
v -0.5 1.109821 0.461569
v -0.5 -0.5 -1.500002
v -0.5 1.500002 0.499998
v 0.5 0.085787 -0.085788
v 0.5 -0.162939 -0.388861
v 0.5 -0.5 0.5
v 0.5 0.38886 0.162938
v 0.5 0.734634 0.347757
v 0.5 1 0.5
v 0.5 1.109821 0.461569
v 0.5 1.500002 0.499998
v 0.5 -0.5 -1
v 0.5 -0.347759 -0.734635
v 0.5 -0.461571 -1.109821
v 0.5 -0.5 -1.500002
v -0.5 1.500002 0.499998
v 0.5 1 0.5
v -0.5 1 0.5
v 0.5 1.500002 0.499998
v 0.5 -0.5 -1.500002
v -0.5 -0.5 -1
v 0.5 -0.5 -1
v -0.5 -0.5 -1.500002
vt 0.953125 0.6894531
vt 0.9375 0.6835938
vt 0.953125 0.6835938
vt 0.9375 0.6894531
vt 0.953125 0.6953125
vt 0.9375 0.6953125
vt 0.953125 0.7011719
vt 0.9375 0.7011719
vt 0.953125 0.7070313
vt 0.9375 0.7070313
vt 0.953125 0.7128906
vt 0.9375 0.7128906
vt 0.953125 0.71875
vt 0.9375 0.71875
vt 0.9375 0.6777344
vt 0.953125 0.6777344
vt 0.9375 0.671875
vt 0.953125 0.671875
vt 0.921875 0.671875
vt 0.9375 0.71875
vt 0.9375 0.671875
vt 0.921875 0.71875
vt 0.9375 0.71875
vt 0.921875 0.671875
vt 0.921875 0.71875
vt 0.9375 0.671875
vt 0.8918259 0.6840681
vt 0.8953826 0.6957927
vt 0.890625 0.6875
vt 0.890625 0.734375
vt 0.9011582 0.7065981
vt 0.9089308 0.7160691
vt 0.9184019 0.7238418
vt 0.9375 0.734375
vt 0.9292073 0.7296174
vt 0.9409319 0.733174
vt 0.890625 0.671875
vt 0.953125 0.7343749
vt 0.9089308 0.7160691
vt 0.9011582 0.7065981
vt 0.890625 0.734375
vt 0.9184019 0.7238418
vt 0.9292073 0.7296174
vt 0.9375 0.734375
vt 0.9409319 0.733174
vt 0.953125 0.7343749
vt 0.890625 0.6875
vt 0.8953826 0.6957927
vt 0.8918259 0.6840681
vt 0.890625 0.671875
vt 0.90625 0.6875
vt 0.921875 0.671875
vt 0.90625 0.671875
vt 0.921875 0.6875
vt 0.90625 0.6875
vt 0.921875 0.671875
vt 0.90625 0.671875
vt 0.921875 0.6875
vn 0 0.8314676 -0.5555732
vn 0 0.9238803 -0.3826815
vn 0 0.9238803 -0.3826815
vn 0 0.8314676 -0.5555732
vn 0 0.7071068 -0.7071068
vn 0 0.7071068 -0.7071068
vn 0 0.5555732 -0.8314676
vn 0 0.5555732 -0.8314676
vn 0 0.3826815 -0.9238803
vn 0 0.3826815 -0.9238803
vn 0 0.1950772 -0.9807879
vn 0 0.1950772 -0.9807879
vn 0 0.0979958 -0.9951869
vn 0 0.0979958 -0.9951869
vn 0 0.9807879 -0.1950772
vn 0 0.9807879 -0.1950772
vn 0 0.9951869 -0.0979958
vn 0 0.9951869 -0.0979958
vn 0 -1 0
vn 0 -1 0
vn 0 -1 0
vn 0 -1 0
vn 0 0 1
vn 0 0 1
vn 0 0 1
vn 0 0 1
vn -1 0 0
vn -1 0 0
vn -1 0 0
vn -1 0 0
vn -1 0 0
vn -1 0 0
vn -1 0 0
vn -1 0 0
vn -1 0 0
vn -1 0 0
vn -1 0 0
vn -1 0 0
vn 1 0 0
vn 1 0 0
vn 1 0 0
vn 1 0 0
vn 1 0 0
vn 1 0 0
vn 1 0 0
vn 1 0 0
vn 1 0 0
vn 1 0 0
vn 1 0 0
vn 1 0 0
vn 0 0 1
vn 0 0 1
vn 0 0 1
vn 0 0 1
vn 0 -1 0
vn 0 -1 0
vn 0 -1 0
vn 0 -1 0
g NSided_QuarterConcave_Plain_0
f 3/3/3 2/2/2 1/1/1
f 2/2/2 4/4/4 1/1/1
f 1/1/1 4/4/4 5/5/5
f 4/4/4 6/6/6 5/5/5
f 5/5/5 6/6/6 7/7/7
f 6/6/6 8/8/8 7/7/7
f 7/7/7 8/8/8 9/9/9
f 8/8/8 10/10/10 9/9/9
f 9/9/9 10/10/10 11/11/11
f 10/10/10 12/12/12 11/11/11
f 11/11/11 12/12/12 13/13/13
f 12/12/12 14/14/14 13/13/13
f 15/15/15 2/2/2 3/3/3
f 16/16/16 15/15/15 3/3/3
f 17/17/17 15/15/15 16/16/16
f 18/18/18 17/17/17 16/16/16
f 21/21/21 20/20/20 19/19/19
f 20/20/20 22/22/22 19/19/19
f 25/25/25 24/24/24 23/23/23
f 24/24/24 26/26/26 23/23/23
f 29/29/29 28/28/28 27/27/27
f 29/29/29 30/30/30 28/28/28
f 30/30/30 31/31/31 28/28/28
f 30/30/30 32/32/32 31/31/31
f 30/30/30 33/33/33 32/32/32
f 30/30/30 34/34/34 33/33/33
f 34/34/34 35/35/35 33/33/33
f 34/34/34 36/36/36 35/35/35
f 29/29/29 27/27/27 37/37/37
f 34/34/34 38/38/38 36/36/36
f 41/41/41 40/40/40 39/39/39
f 41/41/41 39/39/39 42/42/42
f 41/41/41 42/42/42 43/43/43
f 44/44/44 41/41/41 43/43/43
f 44/44/44 43/43/43 45/45/45
f 44/44/44 45/45/45 46/46/46
f 41/41/41 47/47/47 40/40/40
f 47/47/47 48/48/48 40/40/40
f 47/47/47 49/49/49 48/48/48
f 47/47/47 50/50/50 49/49/49
f 53/53/53 52/52/52 51/51/51
f 52/52/52 54/54/54 51/51/51
f 57/57/57 56/56/56 55/55/55
f 56/56/56 58/58/58 55/55/55
