g PullRing
v -0.769561 0.75 -0.0625
v -0.482548 0.69291 -0.0625
v -0.482548 0.69291 0.0625
v -0.769561 0.75 0.0625
v -0.482548 0.69291 -0.0625
v -0.23923 0.53033 -0.0625
v -0.23923 0.53033 0.0625
v -0.482548 0.69291 0.0625
v -0.23923 0.53033 -0.0625
v -0.076651 0.287013 -0.0625
v -0.076651 0.287013 0.0625
v -0.23923 0.53033 0.0625
v -0.076651 0.287013 -0.0625
v -0.019561 0 -0.0625
v -0.019561 0 0.0625
v -0.076651 0.287013 0.0625
v -0.019561 0 -0.0625
v -0.076651 -0.287013 -0.0625
v -0.076651 -0.287013 0.0625
v -0.019561 0 0.0625
v -0.076651 -0.287013 -0.0625
v -0.23923 -0.53033 -0.0625
v -0.23923 -0.53033 0.0625
v -0.076651 -0.287013 0.0625
v -0.23923 -0.53033 -0.0625
v -0.482548 -0.69291 -0.0625
v -0.482548 -0.69291 0.0625
v -0.23923 -0.53033 0.0625
v -0.482548 -0.69291 -0.0625
v -0.76956 -0.75 -0.0625
v -0.76956 -0.75 0.0625
v -0.482548 -0.69291 0.0625
v -0.76956 -0.75 -0.0625
v -1.056573 -0.69291 -0.0625
v -1.056573 -0.69291 0.0625
v -0.76956 -0.75 0.0625
v -1.056573 -0.69291 -0.0625
v -1.299891 -0.53033 -0.0625
v -1.299891 -0.53033 0.0625
v -1.056573 -0.69291 0.0625
v -1.299891 -0.53033 -0.0625
v -1.46247 -0.287013 -0.0625
v -1.46247 -0.287013 0.0625
v -1.299891 -0.53033 0.0625
v -1.46247 -0.287013 -0.0625
v -1.51956 0 -0.0625
v -1.51956 0 0.0625
v -1.46247 -0.287013 0.0625
v -1.51956 0 -0.0625
v -1.46247 0.287013 -0.0625
v -1.46247 0.287013 0.0625
v -1.51956 0 0.0625
v -1.46247 0.287013 -0.0625
v -1.29989 0.53033 -0.0625
v -1.29989 0.53033 0.0625
v -1.46247 0.287013 0.0625
v -1.056573 0.69291 -0.0625
v -0.769561 0.75 -0.0625
v -0.769561 0.75 0.0625
v -1.056573 0.69291 0.0625
v -1.29989 0.53033 -0.0625
v -1.056573 0.69291 -0.0625
v -1.056573 0.69291 0.0625
v -1.29989 0.53033 0.0625
v -0.575665 0.468106 -0.0625
v -0.575665 0.468106 0.0625
v -0.411288 0.358273 0.0625
v -0.411288 0.358273 -0.0625
v -1.127833 0.358273 -0.0625
v -1.127833 0.358273 0.0625
v -0.963456 0.468106 0.0625
v -0.963456 0.468106 -0.0625
v -0.76956 -0.506674 -0.0625
v -0.76956 -0.506674 0.0625
v -0.963456 -0.468106 0.0625
v -0.963456 -0.468106 -0.0625
v -0.411288 0.358273 -0.0625
v -0.411288 0.358273 0.0625
v -0.301455 0.193896 0.0625
v -0.301455 0.193896 -0.0625
v -0.963456 0.468106 -0.0625
v -0.963456 0.468106 0.0625
v -0.769561 0.506674 0.0625
v -0.769561 0.506674 -0.0625
v -0.963456 -0.468106 -0.0625
v -0.963456 -0.468106 0.0625
v -1.127833 -0.358273 0.0625
v -1.127833 -0.358273 -0.0625
v -0.301455 0.193896 -0.0625
v -0.301455 0.193896 0.0625
v -0.262887 0 0.0625
v -0.262887 0 -0.0625
v -1.127833 -0.358273 -0.0625
v -1.127833 -0.358273 0.0625
v -1.237666 -0.193896 0.0625
v -1.237666 -0.193896 -0.0625
v -0.262887 0 -0.0625
v -0.262887 0 0.0625
v -0.301455 -0.193896 0.0625
v -0.301455 -0.193896 -0.0625
v -1.237666 -0.193896 -0.0625
v -1.237666 -0.193896 0.0625
v -1.276235 0 0.0625
v -1.276235 0 -0.0625
v -0.301455 -0.193896 -0.0625
v -0.301455 -0.193896 0.0625
v -0.411288 -0.358273 0.0625
v -0.411288 -0.358273 -0.0625
v -1.276235 0 -0.0625
v -1.276235 0 0.0625
v -1.237666 0.193896 0.0625
v -1.237666 0.193896 -0.0625
v -0.411288 -0.358273 -0.0625
v -0.411288 -0.358273 0.0625
v -0.575665 -0.468106 0.0625
v -0.575665 -0.468106 -0.0625
v -0.769561 0.506674 -0.0625
v -0.769561 0.506674 0.0625
v -0.575665 0.468106 0.0625
v -0.575665 0.468106 -0.0625
v -1.237666 0.193896 -0.0625
v -1.237666 0.193896 0.0625
v -1.127833 0.358273 0.0625
v -1.127833 0.358273 -0.0625
v -0.575665 -0.468106 -0.0625
v -0.575665 -0.468106 0.0625
v -0.76956 -0.506674 0.0625
v -0.76956 -0.506674 -0.0625
v -0.405813 -0.118072 0.075365
v -0.405813 -0.118072 -0.075365
v -0.405813 0.118072 -0.075365
v -0.405813 0.118072 0.075365
v 0.819507 0.118072 0.183573
v 0.819507 0.118072 -0.183573
v 0.819507 -0.118072 -0.183573
v 0.819507 -0.118072 0.183573
v -0.405813 0.118072 -0.075365
v -0.405813 -0.118072 -0.075365
v -0.292274 -0.118072 -0.183573
v -0.292274 0.118072 -0.183573
v -0.292274 -0.118072 -0.183573
v 0.819507 -0.118072 -0.183573
v 0.819507 0.118072 -0.183573
v -0.292274 0.118072 -0.183573
v 0.819507 0.118072 -0.183573
v -0.405813 0.118072 -0.075365
v -0.292274 0.118072 -0.183573
v -0.405813 0.118072 0.075365
v 0.819507 0.118072 0.183573
v -0.292274 0.118072 0.183573
v 0.819507 -0.118072 0.183573
v -0.292274 -0.118072 0.183573
v -0.292274 0.118072 0.183573
v 0.819507 0.118072 0.183573
v -0.405813 -0.118072 -0.075365
v 0.819507 -0.118072 -0.183573
v -0.292274 -0.118072 -0.183573
v 0.819507 -0.118072 0.183573
v -0.405813 -0.118072 0.075365
v -0.292274 -0.118072 0.183573
v -0.405813 -0.118072 0.075365
v -0.405813 0.118072 0.075365
v -0.292274 0.118072 0.183573
v -0.292274 -0.118072 0.183573
v -0.963456 0.468106 0.0625
v -1.29989 0.53033 0.0625
v -1.056573 0.69291 0.0625
v -1.127833 0.358273 0.0625
v -0.769561 0.506674 0.0625
v -1.46247 0.287013 0.0625
v -0.769561 0.75 0.0625
v -1.237666 0.193896 0.0625
v -0.575665 0.468106 0.0625
v -1.51956 0 0.0625
v -0.482548 0.69291 0.0625
v -1.276235 0 0.0625
v -0.411288 0.358273 0.0625
v -1.46247 -0.287013 0.0625
v -0.23923 0.53033 0.0625
v -1.237666 -0.193896 0.0625
v -0.301455 0.193896 0.0625
v -1.299891 -0.53033 0.0625
v -0.076651 0.287013 0.0625
v -1.127833 -0.358273 0.0625
v -0.262887 0 0.0625
v -1.056573 -0.69291 0.0625
v -0.019561 0 0.0625
v -0.963456 -0.468106 0.0625
v -0.301455 -0.193896 0.0625
v -0.76956 -0.75 0.0625
v -0.076651 -0.287013 0.0625
v -0.76956 -0.506674 0.0625
v -0.411288 -0.358273 0.0625
v -0.482548 -0.69291 0.0625
v -0.23923 -0.53033 0.0625
v -0.575665 -0.468106 0.0625
v -0.769561 0.75 -0.0625
v -0.769561 0.506674 -0.0625
v -0.575665 0.468106 -0.0625
v -0.482548 0.69291 -0.0625
v -1.056573 0.69291 -0.0625
v -0.411288 0.358273 -0.0625
v -0.963456 0.468106 -0.0625
v -0.23923 0.53033 -0.0625
v -1.29989 0.53033 -0.0625
v -0.301455 0.193896 -0.0625
v -1.127833 0.358273 -0.0625
v -0.076651 0.287013 -0.0625
v -1.46247 0.287013 -0.0625
v -0.262887 0 -0.0625
v -1.237666 0.193896 -0.0625
v -0.019561 0 -0.0625
v -1.51956 0 -0.0625
v -0.301455 -0.193896 -0.0625
v -1.276235 0 -0.0625
v -0.076651 -0.287013 -0.0625
v -1.46247 -0.287013 -0.0625
v -0.411288 -0.358273 -0.0625
v -1.237666 -0.193896 -0.0625
v -0.23923 -0.53033 -0.0625
v -1.299891 -0.53033 -0.0625
v -0.575665 -0.468106 -0.0625
v -1.127833 -0.358273 -0.0625
v -0.482548 -0.69291 -0.0625
v -1.056573 -0.69291 -0.0625
v -0.76956 -0.506674 -0.0625
v -0.963456 -0.468106 -0.0625
v -0.76956 -0.75 -0.0625
vt 0.600485 0.508374
vt 0.592836 0.508374
vt 0.592836 0.491626
vt 0.600485 0.491626
vt 0.592836 0.508374
vt 0.571054 0.508374
vt 0.571054 0.491626
vt 0.592836 0.491626
vt 0.571054 0.508374
vt 0.538454 0.508374
vt 0.538454 0.491626
vt 0.571054 0.491626
vt 0.538454 0.508374
vt 0.5 0.508374
vt 0.5 0.491626
vt 0.538454 0.491626
vt 0.5 0.508374
vt 0.461546 0.508374
vt 0.461546 0.491626
vt 0.5 0.491626
vt 0.461546 0.508374
vt 0.428946 0.508374
vt 0.428946 0.491626
vt 0.461546 0.491626
vt 0.428946 0.508374
vt 0.407164 0.508374
vt 0.407164 0.491626
vt 0.428946 0.491626
vt 0.407164 0.508374
vt 0.399515 0.508374
vt 0.399515 0.491626
vt 0.407164 0.491626
vt 0.399515 0.508374
vt 0.407164 0.508374
vt 0.407164 0.491626
vt 0.399515 0.491626
vt 0.407164 0.508374
vt 0.428946 0.508374
vt 0.428946 0.491626
vt 0.407164 0.491626
vt 0.428946 0.508374
vt 0.461546 0.508374
vt 0.461546 0.491626
vt 0.428946 0.491626
vt 0.461546 0.508374
vt 0.5 0.508374
vt 0.5 0.491626
vt 0.461546 0.491626
vt 0.5 0.508374
vt 0.538454 0.508374
vt 0.538454 0.491626
vt 0.5 0.491626
vt 0.538454 0.508374
vt 0.571054 0.508374
vt 0.571054 0.491626
vt 0.538454 0.491626
vt 0.592836 0.508374
vt 0.600485 0.508374
vt 0.600485 0.491626
vt 0.592836 0.491626
vt 0.571054 0.508374
vt 0.592836 0.508374
vt 0.592836 0.491626
vt 0.571054 0.491626
vt 0.562717 0.508374
vt 0.562717 0.491626
vt 0.548001 0.491626
vt 0.548001 0.508374
vt 0.548001 0.508374
vt 0.548001 0.491626
vt 0.562717 0.491626
vt 0.562717 0.508374
vt 0.432116 0.508374
vt 0.432116 0.491626
vt 0.437283 0.491626
vt 0.437283 0.508374
vt 0.548001 0.508374
vt 0.548001 0.491626
vt 0.525978 0.491626
vt 0.525978 0.508374
vt 0.562717 0.508374
vt 0.562717 0.491626
vt 0.567884 0.491626
vt 0.567884 0.508374
vt 0.437283 0.508374
vt 0.437283 0.491626
vt 0.451999 0.491626
vt 0.451999 0.508374
vt 0.525978 0.508374
vt 0.525978 0.491626
vt 0.5 0.491626
vt 0.5 0.508374
vt 0.451999 0.508374
vt 0.451999 0.491626
vt 0.474022 0.491626
vt 0.474022 0.508374
vt 0.5 0.508374
vt 0.5 0.491626
vt 0.474022 0.491626
vt 0.474022 0.508374
vt 0.474022 0.508374
vt 0.474022 0.491626
vt 0.5 0.491626
vt 0.5 0.508374
vt 0.474022 0.508374
vt 0.474022 0.491626
vt 0.451999 0.491626
vt 0.451999 0.508374
vt 0.5 0.508374
vt 0.5 0.491626
vt 0.525978 0.491626
vt 0.525978 0.508374
vt 0.451999 0.508374
vt 0.451999 0.491626
vt 0.437283 0.491626
vt 0.437283 0.508374
vt 0.567884 0.508374
vt 0.567884 0.491626
vt 0.562717 0.491626
vt 0.562717 0.508374
vt 0.525978 0.508374
vt 0.525978 0.491626
vt 0.548001 0.491626
vt 0.548001 0.508374
vt 0.437283 0.508374
vt 0.437283 0.491626
vt 0.432116 0.491626
vt 0.432116 0.508374
vt 0.041826 0.945473
vt 0.041826 0.934527
vt 0.058976 0.934527
vt 0.058976 0.945473
vt 0.058976 0.953332
vt 0.058976 0.926668
vt 0.041826 0.926668
vt 0.041826 0.953332
vt 0.020928 0.948575
vt 0.020928 0.931425
vt 0.029174 0.931425
vt 0.029174 0.948575
vt 0.029174 0.931425
vt 0.109919 0.931425
vt 0.109919 0.948575
vt 0.029174 0.948575
vt 0.951438 0.930205
vt 0.899409 0.9348
vt 0.90423 0.930205
vt 0.899409 0.9412
vt 0.951438 0.945795
vt 0.90423 0.945795
vt 0.109919 0.931425
vt 0.029174 0.931425
vt 0.029174 0.948575
vt 0.109919 0.948575
vt 0.899409 0.9348
vt 0.951438 0.930205
vt 0.90423 0.930205
vt 0.951438 0.945795
vt 0.899409 0.9412
vt 0.90423 0.945795
vt 0.020928 0.931425
vt 0.020928 0.948575
vt 0.029174 0.948575
vt 0.029174 0.931425
vt 0.370736 0.81207
vt 0.146447 0.853553
vt 0.308658 0.96194
vt 0.261152 0.738848
vt 0.5 0.837783
vt 0.03806 0.691342
vt 0.5 1
vt 0.18793 0.629264
vt 0.629264 0.81207
vt 0 0.5
vt 0.691342 0.96194
vt 0.162217 0.5
vt 0.738848 0.738848
vt 0.03806 0.308658
vt 0.853553 0.853553
vt 0.187929 0.370736
vt 0.81207 0.629264
vt 0.146447 0.146447
vt 0.96194 0.691342
vt 0.261152 0.261151
vt 0.837783 0.5
vt 0.308658 0.03806
vt 1 0.5
vt 0.370736 0.18793
vt 0.81207 0.370736
vt 0.5 0
vt 0.96194 0.308658
vt 0.5 0.162217
vt 0.738848 0.261152
vt 0.691342 0.03806
vt 0.853553 0.146447
vt 0.629264 0.18793
vt 0.5 1
vt 0.5 0.837783
vt 0.629264 0.81207
vt 0.691342 0.96194
vt 0.308658 0.96194
vt 0.738848 0.738848
vt 0.370736 0.81207
vt 0.853553 0.853553
vt 0.146447 0.853553
vt 0.81207 0.629264
vt 0.261152 0.738848
vt 0.96194 0.691342
vt 0.03806 0.691342
vt 0.837783 0.5
vt 0.18793 0.629264
vt 1 0.5
vt 0 0.5
vt 0.81207 0.370736
vt 0.162217 0.5
vt 0.96194 0.308658
vt 0.03806 0.308658
vt 0.738848 0.261152
vt 0.187929 0.370736
vt 0.853553 0.146447
vt 0.146447 0.146447
vt 0.629264 0.18793
vt 0.261152 0.261151
vt 0.691342 0.03806
vt 0.308658 0.03806
vt 0.5 0.162217
vt 0.370736 0.18793
vt 0.5 0
vn 0.1950901 0.9807854 0
vn 0.1950901 0.9807854 0
vn 0.1950901 0.9807854 0
vn 0.1950901 0.9807854 0
vn 0.5555699 0.8314699 0
vn 0.5555699 0.8314699 0
vn 0.5555699 0.8314699 0
vn 0.5555699 0.8314699 0
vn 0.8314699 0.5555699 0
vn 0.8314699 0.5555699 0
vn 0.8314699 0.5555699 0
vn 0.8314699 0.5555699 0
vn 0.9807854 0.1950901 0
vn 0.9807854 0.1950901 0
vn 0.9807854 0.1950901 0
vn 0.9807854 0.1950901 0
vn 0.9807854 -0.1950901 0
vn 0.9807854 -0.1950901 0
vn 0.9807854 -0.1950901 0
vn 0.9807854 -0.1950901 0
vn 0.8314699 -0.5555699 0
vn 0.8314699 -0.5555699 0
vn 0.8314699 -0.5555699 0
vn 0.8314699 -0.5555699 0
vn 0.5555699 -0.8314699 0
vn 0.5555699 -0.8314699 0
vn 0.5555699 -0.8314699 0
vn 0.5555699 -0.8314699 0
vn 0.195091 -0.9807851 0
vn 0.195091 -0.9807851 0
vn 0.195091 -0.9807851 0
vn 0.195091 -0.9807851 0
vn -0.1950901 -0.9807854 0
vn -0.1950901 -0.9807854 0
vn -0.1950901 -0.9807854 0
vn -0.1950901 -0.9807854 0
vn -0.5555699 -0.8314699 0
vn -0.5555699 -0.8314699 0
vn -0.5555699 -0.8314699 0
vn -0.5555699 -0.8314699 0
vn -0.8314695 -0.5555704 0
vn -0.8314695 -0.5555704 0
vn -0.8314695 -0.5555704 0
vn -0.8314695 -0.5555704 0
vn -0.9807854 -0.1950901 0
vn -0.9807854 -0.1950901 0
vn -0.9807854 -0.1950901 0
vn -0.9807854 -0.1950901 0
vn -0.9807854 0.1950901 0
vn -0.9807854 0.1950901 0
vn -0.9807854 0.1950901 0
vn -0.9807854 0.1950901 0
vn -0.8314691 0.5555711 0
vn -0.8314691 0.5555711 0
vn -0.8314691 0.5555711 0
vn -0.8314691 0.5555711 0
vn -0.1950901 0.9807854 0
vn -0.1950901 0.9807854 0
vn -0.1950901 0.9807854 0
vn -0.1950901 0.9807854 0
vn -0.5555699 0.8314699 0
vn -0.5555699 0.8314699 0
vn -0.5555699 0.8314699 0
vn -0.5555699 0.8314699 0
vn -0.5555699 -0.8314699 0
vn -0.5555699 -0.8314699 0
vn -0.5555699 -0.8314699 0
vn -0.5555699 -0.8314699 0
vn 0.5555699 -0.8314699 0
vn 0.5555699 -0.8314699 0
vn 0.5555699 -0.8314699 0
vn 0.5555699 -0.8314699 0
vn 0.1950901 0.9807854 0
vn 0.1950901 0.9807854 0
vn 0.1950901 0.9807854 0
vn 0.1950901 0.9807854 0
vn -0.8314699 -0.5555699 0
vn -0.8314699 -0.5555699 0
vn -0.8314699 -0.5555699 0
vn -0.8314699 -0.5555699 0
vn 0.1950901 -0.9807854 0
vn 0.1950901 -0.9807854 0
vn 0.1950901 -0.9807854 0
vn 0.1950901 -0.9807854 0
vn 0.5555699 0.8314699 0
vn 0.5555699 0.8314699 0
vn 0.5555699 0.8314699 0
vn 0.5555699 0.8314699 0
vn -0.9807854 -0.1950901 0
vn -0.9807854 -0.1950901 0
vn -0.9807854 -0.1950901 0
vn -0.9807854 -0.1950901 0
vn 0.8314699 0.5555699 0
vn 0.8314699 0.5555699 0
vn 0.8314699 0.5555699 0
vn 0.8314699 0.5555699 0
vn -0.9807854 0.1950901 0
vn -0.9807854 0.1950901 0
vn -0.9807854 0.1950901 0
vn -0.9807854 0.1950901 0
vn 0.9807851 0.195091 0
vn 0.9807851 0.195091 0
vn 0.9807851 0.195091 0
vn 0.9807851 0.195091 0
vn -0.8314695 0.5555704 0
vn -0.8314695 0.5555704 0
vn -0.8314695 0.5555704 0
vn -0.8314695 0.5555704 0
vn 0.9807851 -0.195091 0
vn 0.9807851 -0.195091 0
vn 0.9807851 -0.195091 0
vn 0.9807851 -0.195091 0
vn -0.5555699 0.8314699 0
vn -0.5555699 0.8314699 0
vn -0.5555699 0.8314699 0
vn -0.5555699 0.8314699 0
vn -0.195091 -0.9807851 0
vn -0.195091 -0.9807851 0
vn -0.195091 -0.9807851 0
vn -0.195091 -0.9807851 0
vn 0.8314699 -0.5555699 0
vn 0.8314699 -0.5555699 0
vn 0.8314699 -0.5555699 0
vn 0.8314699 -0.5555699 0
vn -0.195091 0.9807851 0
vn -0.195091 0.9807851 0
vn -0.195091 0.9807851 0
vn -0.195091 0.9807851 0
vn -1 0 0
vn -1 0 0
vn -1 0 0
vn -1 0 0
vn 1 0 0
vn 1 0 0
vn 1 0 0
vn 1 0 0
vn -0.6899132 0 -0.7238922
vn -0.6899132 0 -0.7238922
vn -0.6899132 0 -0.7238922
vn -0.6899132 0 -0.7238922
vn 0 0 -1
vn 0 0 -1
vn 0 0 -1
vn 0 0 -1
vn 0 1 0
vn 0 1 0
vn 0 1 0
vn 0 1 0
vn 0 1 0
vn 0 1 0
vn 0 0 1
vn 0 0 1
vn 0 0 1
vn 0 0 1
vn 0 -1 0
vn 0 -1 0
vn 0 -1 0
vn 0 -1 0
vn 0 -1 0
vn 0 -1 0
vn -0.6899132 0 0.7238922
vn -0.6899132 0 0.7238922
vn -0.6899132 0 0.7238922
vn -0.6899132 0 0.7238922
vn 0 0 1
vn 0 0 1
vn 0 0 1
vn 0 0 1
vn 0 0 1
vn 0 0 1
vn 0 0 1
vn 0 0 1
vn 0 0 1
vn 0 0 1
vn 0 0 1
vn 0 0 1
vn 0 0 1
vn 0 0 1
vn 0 0 1
vn 0 0 1
vn 0 0 1
vn 0 0 1
vn 0 0 1
vn 0 0 1
vn 0 0 1
vn 0 0 1
vn 0 0 1
vn 0 0 1
vn 0 0 1
vn 0 0 1
vn 0 0 1
vn 0 0 1
vn 0 0 1
vn 0 0 1
vn 0 0 1
vn 0 0 1
vn 0 0 -1
vn 0 0 -1
vn 0 0 -1
vn 0 0 -1
vn 0 0 -1
vn 0 0 -1
vn 0 0 -1
vn 0 0 -1
vn 0 0 -1
vn 0 0 -1
vn 0 0 -1
vn 0 0 -1
vn 0 0 -1
vn 0 0 -1
vn 0 0 -1
vn 0 0 -1
vn 0 0 -1
vn 0 0 -1
vn 0 0 -1
vn 0 0 -1
vn 0 0 -1
vn 0 0 -1
vn 0 0 -1
vn 0 0 -1
vn 0 0 -1
vn 0 0 -1
vn 0 0 -1
vn 0 0 -1
vn 0 0 -1
vn 0 0 -1
vn 0 0 -1
vn 0 0 -1
g PullRing_0
f 3/3/3 2/2/2 1/1/1
f 4/4/4 3/3/3 1/1/1
f 7/7/7 6/6/6 5/5/5
f 8/8/8 7/7/7 5/5/5
f 11/11/11 10/10/10 9/9/9
f 12/12/12 11/11/11 9/9/9
f 15/15/15 14/14/14 13/13/13
f 16/16/16 15/15/15 13/13/13
f 19/19/19 18/18/18 17/17/17
f 20/20/20 19/19/19 17/17/17
f 23/23/23 22/22/22 21/21/21
f 24/24/24 23/23/23 21/21/21
f 27/27/27 26/26/26 25/25/25
f 28/28/28 27/27/27 25/25/25
f 31/31/31 30/30/30 29/29/29
f 32/32/32 31/31/31 29/29/29
f 35/35/35 34/34/34 33/33/33
f 36/36/36 35/35/35 33/33/33
f 39/39/39 38/38/38 37/37/37
f 40/40/40 39/39/39 37/37/37
f 43/43/43 42/42/42 41/41/41
f 44/44/44 43/43/43 41/41/41
f 47/47/47 46/46/46 45/45/45
f 48/48/48 47/47/47 45/45/45
f 51/51/51 50/50/50 49/49/49
f 52/52/52 51/51/51 49/49/49
f 55/55/55 54/54/54 53/53/53
f 56/56/56 55/55/55 53/53/53
f 59/59/59 58/58/58 57/57/57
f 60/60/60 59/59/59 57/57/57
f 63/63/63 62/62/62 61/61/61
f 64/64/64 63/63/63 61/61/61
f 67/67/67 66/66/66 65/65/65
f 68/68/68 67/67/67 65/65/65
f 71/71/71 70/70/70 69/69/69
f 72/72/72 71/71/71 69/69/69
f 75/75/75 74/74/74 73/73/73
f 76/76/76 75/75/75 73/73/73
f 79/79/79 78/78/78 77/77/77
f 80/80/80 79/79/79 77/77/77
f 83/83/83 82/82/82 81/81/81
f 84/84/84 83/83/83 81/81/81
f 87/87/87 86/86/86 85/85/85
f 88/88/88 87/87/87 85/85/85
f 91/91/91 90/90/90 89/89/89
f 92/92/92 91/91/91 89/89/89
f 95/95/95 94/94/94 93/93/93
f 96/96/96 95/95/95 93/93/93
f 99/99/99 98/98/98 97/97/97
f 100/100/100 99/99/99 97/97/97
f 103/103/103 102/102/102 101/101/101
f 104/104/104 103/103/103 101/101/101
f 107/107/107 106/106/106 105/105/105
f 108/108/108 107/107/107 105/105/105
f 111/111/111 110/110/110 109/109/109
f 112/112/112 111/111/111 109/109/109
f 115/115/115 114/114/114 113/113/113
f 116/116/116 115/115/115 113/113/113
f 119/119/119 118/118/118 117/117/117
f 120/120/120 119/119/119 117/117/117
f 123/123/123 122/122/122 121/121/121
f 124/124/124 123/123/123 121/121/121
f 127/127/127 126/126/126 125/125/125
f 128/128/128 127/127/127 125/125/125
f 131/131/131 130/130/130 129/129/129
f 132/132/132 131/131/131 129/129/129
f 135/135/135 134/134/134 133/133/133
f 136/136/136 135/135/135 133/133/133
f 139/139/139 138/138/138 137/137/137
f 140/140/140 139/139/139 137/137/137
f 143/143/143 142/142/142 141/141/141
f 144/144/144 143/143/143 141/141/141
f 147/147/147 146/146/146 145/145/145
f 145/145/145 146/146/146 148/148/148
f 149/149/149 145/145/145 148/148/148
f 150/150/150 149/149/149 148/148/148
f 153/153/153 152/152/152 151/151/151
f 154/154/154 153/153/153 151/151/151
f 157/157/157 156/156/156 155/155/155
f 155/155/155 156/156/156 158/158/158
f 159/159/159 155/155/155 158/158/158
f 160/160/160 159/159/159 158/158/158
f 163/163/163 162/162/162 161/161/161
f 164/164/164 163/163/163 161/161/161
f 167/167/167 166/166/166 165/165/165
f 166/166/166 168/168/168 165/165/165
f 167/167/167 165/165/165 169/169/169
f 166/166/166 170/170/170 168/168/168
f 171/171/171 167/167/167 169/169/169
f 170/170/170 172/172/172 168/168/168
f 171/171/171 169/169/169 173/173/173
f 170/170/170 174/174/174 172/172/172
f 175/175/175 171/171/171 173/173/173
f 174/174/174 176/176/176 172/172/172
f 175/175/175 173/173/173 177/177/177
f 174/174/174 178/178/178 176/176/176
f 179/179/179 175/175/175 177/177/177
f 178/178/178 180/180/180 176/176/176
f 179/179/179 177/177/177 181/181/181
f 178/178/178 182/182/182 180/180/180
f 183/183/183 179/179/179 181/181/181
f 182/182/182 184/184/184 180/180/180
f 183/183/183 181/181/181 185/185/185
f 182/182/182 186/186/186 184/184/184
f 187/187/187 183/183/183 185/185/185
f 186/186/186 188/188/188 184/184/184
f 187/187/187 185/185/185 189/189/189
f 186/186/186 190/190/190 188/188/188
f 191/191/191 187/187/187 189/189/189
f 190/190/190 192/192/192 188/188/188
f 191/191/191 189/189/189 193/193/193
f 190/190/190 194/194/194 192/192/192
f 195/195/195 191/191/191 193/193/193
f 194/194/194 196/196/196 192/192/192
f 195/195/195 193/193/193 196/196/196
f 194/194/194 195/195/195 196/196/196
f 199/199/199 198/198/198 197/197/197
f 200/200/200 199/199/199 197/197/197
f 197/197/197 198/198/198 201/201/201
f 202/202/202 199/199/199 200/200/200
f 198/198/198 203/203/203 201/201/201
f 204/204/204 202/202/202 200/200/200
f 201/201/201 203/203/203 205/205/205
f 206/206/206 202/202/202 204/204/204
f 203/203/203 207/207/207 205/205/205
f 208/208/208 206/206/206 204/204/204
f 205/205/205 207/207/207 209/209/209
f 210/210/210 206/206/206 208/208/208
f 207/207/207 211/211/211 209/209/209
f 212/212/212 210/210/210 208/208/208
f 209/209/209 211/211/211 213/213/213
f 214/214/214 210/210/210 212/212/212
f 211/211/211 215/215/215 213/213/213
f 216/216/216 214/214/214 212/212/212
f 213/213/213 215/215/215 217/217/217
f 218/218/218 214/214/214 216/216/216
f 215/215/215 219/219/219 217/217/217
f 220/220/220 218/218/218 216/216/216
f 217/217/217 219/219/219 221/221/221
f 222/222/222 218/218/218 220/220/220
f 219/219/219 223/223/223 221/221/221
f 224/224/224 222/222/222 220/220/220
f 221/221/221 223/223/223 225/225/225
f 226/226/226 222/222/222 224/224/224
f 223/223/223 227/227/227 225/225/225
f 228/228/228 226/226/226 224/224/224
f 225/225/225 227/227/227 228/228/228
f 227/227/227 226/226/226 228/228/228
