g QuarterCurve
v 0.8049103 -0.01921436 0.4999999
v -1.776357E-15 2.980232E-08 0.5
v 1.000001 1.490116E-07 0.5
v 0.6173171 -0.07611999 0.4999999
v 0.4444301 -0.1685299 0.4999999
v 0.2928934 -0.2928927 0.4999999
v 0.1685306 -0.4444292 0.5000001
v 0.07612049 -0.617316 0.5
v 0.01921469 -0.8049091 0.5000002
v -1.192093E-07 -0.9999995 0.5000002
v -2.384186E-07 -1 -0.4999997
v -1.192093E-07 -0.9999995 0.5000002
v 0.01921469 -0.8049091 0.5000002
v 0.01921451 -0.8049093 -0.4999997
v 0.07612049 -0.617316 0.5
v 0.07612031 -0.6173161 -0.4999997
v 0.1685306 -0.4444292 0.5000001
v 0.1685304 -0.4444294 -0.4999998
v 0.2928934 -0.2928927 0.4999999
v 0.2928933 -0.2928929 -0.4999999
v 0.4444301 -0.1685299 0.4999999
v 0.4444299 -0.16853 -0.4999999
v 0.6173171 -0.07611999 0.4999999
v 0.6173169 -0.07612023 -0.4999999
v 0.8049103 -0.01921436 0.4999999
v 0.8049101 -0.01921472 -0.4999999
v 1.000001 1.490116E-07 0.5
v 1 -1.490116E-07 -0.5
v 1 -1.490116E-07 -0.5
v 1.776357E-15 -2.980232E-08 -0.5
v 0.8049101 -0.01921472 -0.4999999
v 0.6173169 -0.07612023 -0.4999999
v 0.4444299 -0.16853 -0.4999999
v 0.2928933 -0.2928929 -0.4999999
v 0.1685304 -0.4444294 -0.4999998
v 0.07612031 -0.6173161 -0.4999997
v 0.01921451 -0.8049093 -0.4999997
v -2.384186E-07 -1 -0.4999997
vt 0.9026312 0.9901066
vt 0.5001764 0.9997139
vt 1.000176 0.999714
vt 0.8088347 0.9616539
vt 0.7223913 0.915449
vt 0.646623 0.8532676
vt 0.5844417 0.7774993
vt 0.5382367 0.6910559
vt 0.5097839 0.5972593
vt 0.5001764 0.4997141
vt 0.002539019 1.00017
vt 0.4999994 1.000171
vt 0.4999995 0.875191
vt 0.002539228 0.8751903
vt 0.4999996 0.7502111
vt 0.002539317 0.7502102
vt 0.4999999 0.6252312
vt 0.002539586 0.62523
vt 0.5 0.5002515
vt 0.002540092 0.5002501
vt 0.5000001 0.3752711
vt 0.002540509 0.3752702
vt 0.5000004 0.250291
vt 0.002540778 0.2502903
vt 0.5000004 0.1253106
vt 0.002540897 0.1253104
vt 0.5000004 0.000330687
vt 0.002541016 0.0003306274
vt 1.000176 0.4997388
vt 0.5001764 0.4997388
vt 0.9026311 0.4901314
vt 0.8088346 0.4616787
vt 0.7223912 0.4154738
vt 0.6466229 0.3532924
vt 0.5844416 0.2775241
vt 0.5382366 0.1910807
vt 0.5097837 0.09728402
vt 0.5001763 -0.0002610981
vn 0 0 1
vn 0 0 1
vn 0 0 1
vn 0 0 1
vn 0 0 1
vn 0 0 1
vn 0 0 1
vn 0 0 1
vn 0 0 1
vn 0 0 1
vn 1 0 0
vn 1 0 0
vn 0.9807853 -0.1950905 0
vn 0.9807853 -0.1950905 0
vn 0.9238794 -0.3826839 0
vn 0.9238794 -0.3826839 0
vn 0.8314694 -0.5555707 0
vn 0.8314694 -0.5555707 0
vn 0.7071066 -0.7071069 0
vn 0.7071066 -0.7071069 0
vn 0.5555698 -0.8314699 0
vn 0.5555698 -0.8314699 0
vn 0.3826825 -0.9238799 0
vn 0.3826826 -0.9238799 0
vn 0.1950894 -0.9807854 0
vn 0.1950894 -0.9807854 0
vn 0 -1 0
vn 0 -1 0
vn 0 0 -1
vn 0 0 -1
vn 0 0 -1
vn 0 0 -1
vn 0 0 -1
vn 0 0 -1
vn 0 0 -1
vn 0 0 -1
vn 0 0 -1
vn 0 0 -1
g QuarterCurve_0
f 3/3/3 2/2/2 1/1/1
f 1/1/1 2/2/2 4/4/4
f 4/4/4 2/2/2 5/5/5
f 5/5/5 2/2/2 6/6/6
f 6/6/6 2/2/2 7/7/7
f 7/7/7 2/2/2 8/8/8
f 8/8/8 2/2/2 9/9/9
f 9/9/9 2/2/2 10/10/10
f 13/13/13 12/12/12 11/11/11
f 14/14/14 13/13/13 11/11/11
f 15/15/15 13/13/13 14/14/14
f 16/16/16 15/15/15 14/14/14
f 17/17/17 15/15/15 16/16/16
f 18/18/18 17/17/17 16/16/16
f 19/19/19 17/17/17 18/18/18
f 20/20/20 19/19/19 18/18/18
f 21/21/21 19/19/19 20/20/20
f 22/22/22 21/21/21 20/20/20
f 23/23/23 21/21/21 22/22/22
f 24/24/24 23/23/23 22/22/22
f 25/25/25 23/23/23 24/24/24
f 26/26/26 25/25/25 24/24/24
f 27/27/27 25/25/25 26/26/26
f 28/28/28 27/27/27 26/26/26
f 31/31/31 30/30/30 29/29/29
f 32/32/32 30/30/30 31/31/31
f 33/33/33 30/30/30 32/32/32
f 34/34/34 30/30/30 33/33/33
f 35/35/35 30/30/30 34/34/34
f 36/36/36 30/30/30 35/35/35
f 37/37/37 30/30/30 36/36/36
f 38/38/38 30/30/30 37/37/37
