g QuarterConvex
v -0.5 1.5 0.5000005
v 0.4999998 1.347759 -0.2653663
v 0.5 1.5 0.5000012
v -0.5 1.347759 -0.2653666
v 0.4999998 0.9142128 -0.9142129
v -0.5000002 0.9142131 -0.9142132
v 0.4999997 0.2653656 -1.347758
v -0.5000002 0.265366 -1.347759
v 0.4999997 -0.5000004 -1.499999
v -0.4999997 -0.5000002 -1.500001
v -0.4999999 -0.5000001 0.500001
v 0.5 -0.5000001 0.5000019
v 0.4999997 -0.5000004 -1.499999
v -0.4999997 -0.5000002 -1.500001
v -0.5000002 0.265366 -1.347759
v -0.4999999 -0.5000001 0.500001
v -0.4999997 -0.5000002 -1.500001
v -0.5000002 0.9142131 -0.9142132
v -0.5 1.347759 -0.2653666
v -0.5 1.5 0.5000005
v 0.4999998 1.347759 -0.2653663
v 0.5 -0.5000001 0.5000019
v 0.5 1.5 0.5000012
v 0.4999998 0.9142128 -0.9142129
v 0.4999997 0.2653656 -1.347758
v 0.4999997 -0.5000004 -1.499999
v 0.5 -0.5000001 0.5000019
v -0.4999999 -0.5000001 0.500001
v -0.5 1.5 0.5000005
v 0.5 1.5 0.5000012
vt 0 0.75
vt 0.1914063 1
vt 0 1
vt 0.1914063 0.75
vt 0.375 1
vt 0.375 0.75
vt 0.5703125 1
vt 0.5703125 0.75
vt 0.75 1
vt 0.75 0.75
vt 0.5 0.5
vt 0.5 0.75
vt 1 0.75
vt 1 0.5
vt 0.0390625 0.1914063
vt 0.5 0
vt 0 0
vt 0.1445313 0.3554688
vt 0.3085938 0.4609375
vt 0.5 0.5
vt 0.3085938 0.4609375
vt 0.5 0
vt 0.5 0.5
vt 0.1445313 0.3554688
vt 0.0390625 0.1914063
vt 0 0
vt 0.5 0.75
vt 0.5 0.5
vt 0 0.5
vt 0 0.75
vn 0 1 0
vn 0 0.9238794 -0.3826839
vn 0 1 0
vn 0 0.9238793 -0.3826839
vn 0 0.7071065 -0.707107
vn 0 0.7071064 -0.7071071
vn 0 0.3826837 -0.9238794
vn 0 0.3826838 -0.9238794
vn 0 0 -1
vn 1.117709E-05 0 -1
vn 0 -1 0
vn 0 -1 0
vn 0 -1 0
vn 0 -1 0
vn -1 0 0
vn -1 0 0
vn -1 0 0
vn -1 0 0
vn -1 0 0
vn -1 0 0
vn 1 0 0
vn 1 0 0
vn 1 0 0
vn 1 0 0
vn 1 0 0
vn 1 0 0
vn 0 0 1
vn 0 0 1
vn 0 0 1
vn 0 0 1
g QuarterConvex_0
f 3/3/3 2/2/2 1/1/1
f 2/2/2 4/4/4 1/1/1
f 2/2/2 5/5/5 4/4/4
f 5/5/5 6/6/6 4/4/4
f 5/5/5 7/7/7 6/6/6
f 7/7/7 8/8/8 6/6/6
f 7/7/7 9/9/9 8/8/8
f 9/9/9 10/10/10 8/8/8
f 13/13/13 12/12/12 11/11/11
f 14/14/14 13/13/13 11/11/11
f 17/17/17 16/16/16 15/15/15
f 15/15/15 16/16/16 18/18/18
f 18/18/18 16/16/16 19/19/19
f 16/16/16 20/20/20 19/19/19
f 23/23/23 22/22/22 21/21/21
f 21/21/21 22/22/22 24/24/24
f 24/24/24 22/22/22 25/25/25
f 25/25/25 22/22/22 26/26/26
f 29/29/29 28/28/28 27/27/27
f 30/30/30 29/29/29 27/27/27
