g Rebuild_Stairs_Plain
v -0.373471 0.374997 0.5
v -0.373471 0.374997 -0.5
v -0.248471 0.374997 -0.5
v -0.248471 0.374997 0.5
v -0.123471 0.249997 0.5
v -0.248471 0.249997 0.5
v -0.248471 0.249997 -0.5
v -0.123471 0.249997 -0.5
v -0.123471 0.124997 -0.5
v 0.001529 0.124997 -0.5
v 0.001529 0.124997 0.5
v -0.123471 0.124997 0.5
v 0.126529 -3E-06 0.5
v 0.001529 -3E-06 0.5
v 0.001529 -3E-06 -0.5
v 0.126529 -3E-06 -0.5
v -0.500003 0.499997 0.5
v -0.500003 0.499997 -0.5
v -0.373471 0.499997 -0.5
v -0.373471 0.499997 0.5
v 0.126529 -0.125003 -0.5
v 0.251529 -0.125003 -0.5
v 0.251529 -0.125003 0.5
v 0.126529 -0.125003 0.5
v 0.376529 -0.250003 0.5
v 0.251529 -0.250003 0.5
v 0.251529 -0.250003 -0.5
v 0.376529 -0.250003 -0.5
v 0.376529 -0.375003 -0.5
v 0.499999 -0.375003 -0.5
v 0.499998 -0.375003 0.5
v 0.376529 -0.375003 0.5
v 0.499998 -0.375003 0.5
v 0.499998 -0.500003 0.5
v -0.500003 -0.500003 0.5
v 0.376529 -0.375003 0.5
v 0.376529 -0.250003 0.5
v 0.251529 -0.250003 0.5
v 0.251529 -0.125003 0.5
v 0.126529 -0.125003 0.5
v 0.126529 -3E-06 0.5
v 0.001529 -3E-06 0.5
v 0.001529 0.124997 0.5
v -0.123471 0.124997 0.5
v -0.123471 0.249997 0.5
v -0.248471 0.249997 0.5
v -0.248471 0.374997 0.5
v -0.373471 0.374997 0.5
v -0.373471 0.499997 0.5
v -0.500003 0.499997 0.5
v 0.376529 -0.375003 0.5
v 0.376529 -0.250003 0.5
v 0.376529 -0.250003 -0.5
v 0.376529 -0.375003 -0.5
v -0.123471 0.124997 -0.5
v 0.001529 -3E-06 -0.5
v 0.001529 0.124997 -0.5
v -0.500003 -0.500003 -0.5
v -0.248471 0.249997 -0.5
v -0.123471 0.249997 -0.5
v 0.126529 -0.125003 -0.5
v 0.126529 -3E-06 -0.5
v -0.373471 0.374997 -0.5
v -0.248471 0.374997 -0.5
v -0.500003 0.499997 -0.5
v -0.373471 0.499997 -0.5
v 0.251529 -0.250003 -0.5
v 0.251529 -0.125003 -0.5
v 0.376529 -0.375003 -0.5
v 0.376529 -0.250003 -0.5
v 0.499999 -0.500003 -0.5
v 0.499999 -0.375003 -0.5
v 0.251529 -0.125003 -0.5
v 0.251529 -0.250003 -0.5
v 0.251529 -0.250003 0.5
v 0.251529 -0.125003 0.5
v 0.126529 -3E-06 -0.5
v 0.126529 -0.125003 -0.5
v 0.126529 -0.125003 0.5
v 0.126529 -3E-06 0.5
v 0.001529 0.124997 -0.5
v 0.001529 -3E-06 -0.5
v 0.001529 -3E-06 0.5
v 0.001529 0.124997 0.5
v -0.123471 0.249997 -0.5
v -0.123471 0.124997 -0.5
v -0.123471 0.124997 0.5
v -0.123471 0.249997 0.5
v -0.248471 0.374997 -0.5
v -0.248471 0.249997 -0.5
v -0.248471 0.249997 0.5
v -0.248471 0.374997 0.5
v -0.373471 0.499997 0.5
v -0.373471 0.499997 -0.5
v -0.373471 0.374997 -0.5
v -0.373471 0.374997 0.5
v 0.499999 -0.375003 -0.5
v 0.499999 -0.500003 -0.5
v 0.499998 -0.500003 0.5
v 0.499998 -0.375003 0.5
vt 0.90625 0.1999958
vt 0.84375 0.1999958
vt 0.84375 0.2062919
vt 0.90625 0.2062919
vt 0.90625 0.212588
vt 0.90625 0.2062919
vt 0.84375 0.2062919
vt 0.84375 0.212588
vt 0.84375 0.212588
vt 0.84375 0.2188842
vt 0.90625 0.2188842
vt 0.90625 0.212588
vt 0.90625 0.2251804
vt 0.90625 0.2188842
vt 0.84375 0.2188842
vt 0.84375 0.2251804
vt 0.90625 0.1936995
vt 0.84375 0.1936995
vt 0.84375 0.1999958
vt 0.90625 0.1999958
vt 0.84375 0.2251804
vt 0.84375 0.2314765
vt 0.90625 0.2314765
vt 0.90625 0.2251804
vt 0.90625 0.2377727
vt 0.90625 0.2314765
vt 0.84375 0.2314765
vt 0.84375 0.2377727
vt 0.84375 0.2377727
vt 0.84375 0.2440689
vt 0.90625 0.2440689
vt 0.90625 0.2377727
vt 0.96875 0.2578125
vt 0.96875 0.25
vt 0.90625 0.25
vt 0.9609375 0.2578125
vt 0.9609375 0.265625
vt 0.953125 0.265625
vt 0.953125 0.2734375
vt 0.9453125 0.2734375
vt 0.9453125 0.28125
vt 0.9375 0.28125
vt 0.9375 0.2890625
vt 0.9296875 0.2890625
vt 0.9296875 0.296875
vt 0.921875 0.296875
vt 0.921875 0.3046875
vt 0.9140625 0.3046875
vt 0.9140625 0.3125
vt 0.90625 0.3125
vt 0.90625 0.1999958
vt 0.90625 0.2062919
vt 0.96875 0.2062919
vt 0.96875 0.1999958
vt 0.9296875 0.2890625
vt 0.9375 0.28125
vt 0.9375 0.2890625
vt 0.90625 0.25
vt 0.921875 0.296875
vt 0.9296875 0.296875
vt 0.9453125 0.2734375
vt 0.9453125 0.28125
vt 0.9140625 0.3046875
vt 0.921875 0.3046875
vt 0.90625 0.3125
vt 0.9140625 0.3125
vt 0.953125 0.265625
vt 0.953125 0.2734375
vt 0.9609375 0.2578125
vt 0.9609375 0.265625
vt 0.96875 0.25
vt 0.96875 0.2578125
vt 0.96875 0.212588
vt 0.96875 0.2062919
vt 0.90625 0.2062919
vt 0.90625 0.212588
vt 0.96875 0.2188842
vt 0.96875 0.212588
vt 0.90625 0.212588
vt 0.90625 0.2188842
vt 0.96875 0.2251804
vt 0.96875 0.2188842
vt 0.90625 0.2188842
vt 0.90625 0.2251804
vt 0.96875 0.2314765
vt 0.96875 0.2251804
vt 0.90625 0.2251804
vt 0.90625 0.2314765
vt 0.96875 0.2377727
vt 0.96875 0.2314765
vt 0.90625 0.2314765
vt 0.90625 0.2377727
vt 0.90625 0.2440689
vt 0.96875 0.2440689
vt 0.96875 0.2377727
vt 0.90625 0.2377727
vt 0.96875 0.1999958
vt 0.96875 0.1936995
vt 0.90625 0.1936995
vt 0.90625 0.1999958
vn 0 1 0
vn 0 1 0
vn 0 1 0
vn 0 1 0
vn 0 1 0
vn 0 1 0
vn 0 1 0
vn 0 1 0
vn 0 1 0
vn 0 1 0
vn 0 1 0
vn 0 1 0
vn 0 1 0
vn 0 1 0
vn 0 1 0
vn 0 1 0
vn 0 1 0
vn 0 1 0
vn 0 1 0
vn 0 1 0
vn 0 1 0
vn 0 1 0
vn 0 1 0
vn 0 1 0
vn 0 1 0
vn 0 1 0
vn 0 1 0
vn 0 1 0
vn 0 1 0
vn 0 1 0
vn 0 1 0
vn 0 1 0
vn 0 0 1
vn 0 0 1
vn 0 0 1
vn 0 0 1
vn 0 0 1
vn 0 0 1
vn 0 0 1
vn 0 0 1
vn 0 0 1
vn 0 0 1
vn 0 0 1
vn 0 0 1
vn 0 0 1
vn 0 0 1
vn 0 0 1
vn 0 0 1
vn 0 0 1
vn 0 0 1
vn 1 0 0
vn 1 0 0
vn 1 0 0
vn 1 0 0
vn 0 0 -1
vn 0 0 -1
vn 0 0 -1
vn 0 0 -1
vn 0 0 -1
vn 0 0 -1
vn 0 0 -1
vn 0 0 -1
vn 0 0 -1
vn 0 0 -1
vn 0 0 -1
vn 0 0 -1
vn 0 0 -1
vn 0 0 -1
vn 0 0 -1
vn 0 0 -1
vn 0 0 -1
vn 0 0 -1
vn 1 0 0
vn 1 0 0
vn 1 0 0
vn 1 0 0
vn 1 0 0
vn 1 0 0
vn 1 0 0
vn 1 0 0
vn 1 0 0
vn 1 0 0
vn 1 0 0
vn 1 0 0
vn 1 0 0
vn 1 0 0
vn 1 0 0
vn 1 0 0
vn 1 0 0
vn 1 0 0
vn 1 0 0
vn 1 0 0
vn 1 0 0
vn 1 0 0
vn 1 0 0
vn 1 0 0
vn 1 0 0
vn 1 0 0
vn 1 0 0
vn 1 0 0
g Rebuild_Stairs_Plain_0
f 3/3/3 2/2/2 1/1/1
f 4/4/4 3/3/3 1/1/1
f 7/7/7 6/6/6 5/5/5
f 8/8/8 7/7/7 5/5/5
f 11/11/11 10/10/10 9/9/9
f 12/12/12 11/11/11 9/9/9
f 15/15/15 14/14/14 13/13/13
f 16/16/16 15/15/15 13/13/13
f 19/19/19 18/18/18 17/17/17
f 20/20/20 19/19/19 17/17/17
f 23/23/23 22/22/22 21/21/21
f 24/24/24 23/23/23 21/21/21
f 27/27/27 26/26/26 25/25/25
f 28/28/28 27/27/27 25/25/25
f 31/31/31 30/30/30 29/29/29
f 32/32/32 31/31/31 29/29/29
f 35/35/35 34/34/34 33/33/33
f 36/36/36 35/35/35 33/33/33
f 35/35/35 36/36/36 37/37/37
f 38/38/38 35/35/35 37/37/37
f 35/35/35 38/38/38 39/39/39
f 40/40/40 35/35/35 39/39/39
f 35/35/35 40/40/40 41/41/41
f 42/42/42 35/35/35 41/41/41
f 35/35/35 42/42/42 43/43/43
f 44/44/44 35/35/35 43/43/43
f 35/35/35 44/44/44 45/45/45
f 46/46/46 35/35/35 45/45/45
f 35/35/35 46/46/46 47/47/47
f 48/48/48 35/35/35 47/47/47
f 35/35/35 48/48/48 49/49/49
f 50/50/50 35/35/35 49/49/49
f 53/53/53 52/52/52 51/51/51
f 54/54/54 53/53/53 51/51/51
f 57/57/57 56/56/56 55/55/55
f 56/56/56 58/58/58 55/55/55
f 55/55/55 58/58/58 59/59/59
f 60/60/60 55/55/55 59/59/59
f 61/61/61 58/58/58 56/56/56
f 62/62/62 61/61/61 56/56/56
f 59/59/59 58/58/58 63/63/63
f 64/64/64 59/59/59 63/63/63
f 63/63/63 58/58/58 65/65/65
f 66/66/66 63/63/63 65/65/65
f 67/67/67 58/58/58 61/61/61
f 68/68/68 67/67/67 61/61/61
f 58/58/58 67/67/67 69/69/69
f 67/67/67 70/70/70 69/69/69
f 71/71/71 58/58/58 69/69/69
f 72/72/72 71/71/71 69/69/69
f 75/75/75 74/74/74 73/73/73
f 76/76/76 75/75/75 73/73/73
f 79/79/79 78/78/78 77/77/77
f 80/80/80 79/79/79 77/77/77
f 83/83/83 82/82/82 81/81/81
f 84/84/84 83/83/83 81/81/81
f 87/87/87 86/86/86 85/85/85
f 88/88/88 87/87/87 85/85/85
f 91/91/91 90/90/90 89/89/89
f 92/92/92 91/91/91 89/89/89
f 95/95/95 94/94/94 93/93/93
f 96/96/96 95/95/95 93/93/93
f 99/99/99 98/98/98 97/97/97
f 100/100/100 99/99/99 97/97/97
