g Reintro_DoorwayF_Plain
v -0.375 -1 0.5
v -0.375 0 0.5
v -0.5 0 0.5
v -0.5 -1 0.5
v -0.5 -1.5625 0.5
v -0.375 -1.5625 0.5
v -0.5 -2 0.5
v -0.346455 -1.642343 0.5
v -0.288483 -1.735589 0.5
v -0.208339 -1.810638 0.5
v -0.108332 -1.855962 0.5
v 0 -1.875 0.5
v 0 -2 0.5
v 0.5 -2 0.5
v 0.108332 -1.855962 0.5
v 0.208339 -1.810638 0.5
v 0.288483 -1.735589 0.5
v 0.346455 -1.642343 0.5
v 0.375 -1.5625 0.5
v 0.5 -1.5625 0.5
v 0.375 -1 0.5
v 0.5 -1 0.5
v 0.5 0 0.5
v 0.375 0 0.5
v -0.3125 -1.875 1.4375
v 0.3125 -1.875 1.4375
v 0.3125 -1 1.4375
v -0.3125 -1 1.4375
v 0.3125 -0.0625 1.4375
v -0.3125 -0.0625 1.4375
v 0.3125 -0.0625 1.4375
v -0.375 0 0.625
v -0.3125 -0.0625 1.4375
v 0.375 0 0.625
v -0.375 0 0.5
v 0.375 0 0.5
v -0.375 -1 0.625
v -0.375 -1.875 0.625
v -0.3125 -1.875 1.4375
v -0.3125 -1 1.4375
v -0.288483 -1.735589 0.623645
v -0.346455 -1.642343 0.5
v -0.288483 -1.735589 0.5
v -0.346455 -1.642343 0.623645
v -0.375 -1.5625 0.5
v -0.375 -1.5625 0.625
v -0.375 -1 0.5
v -0.375 -1 0.625
v -0.375 0 0.625
v -0.375 0 0.5
v -0.208339 -1.810638 0.623645
v -0.288483 -1.735589 0.623645
v -0.288483 -1.735589 0.5
v -0.208339 -1.810638 0.5
v -0.108332 -1.855962 0.623645
v -0.108332 -1.855962 0.5
v 0 -1.875 0.625
v 0 -1.875 0.5
v 0.288483 -1.735589 0.623645
v 0.288483 -1.735589 0.5
v 0.346455 -1.642343 0.5
v 0.346455 -1.642343 0.623645
v 0.375 -1.5625 0.5
v 0.375 -1.5625 0.625
v 0.375 -1 0.5
v 0.375 -1 0.625
v 0.375 0 0.625
v 0.375 0 0.5
v 0.208339 -1.810638 0.623645
v 0.288483 -1.735589 0.5
v 0.288483 -1.735589 0.623645
v 0.208339 -1.810638 0.5
v 0.108332 -1.855962 0.623645
v 0.108332 -1.855962 0.5
v 0 -1.875 0.625
v 0 -1.875 0.5
v -0.3125 -1.875 1.4375
v -0.375 -1.875 0.625
v 0.375 -1.875 0.625
v 0.3125 -1.875 1.4375
v -0.375 0 0.625
v -0.375 -1 0.625
v -0.3125 -1 1.4375
v -0.3125 -0.0625 1.4375
v 0.375 -1 0.625
v 0.375 0 0.625
v 0.3125 -0.0625 1.4375
v 0.3125 -1 1.4375
v 0.375 -1.875 0.625
v 0.3125 -1.875 1.4375
vt 0.04700925 0.2806107
vt 0.04700925 0.1563388
vt 0.03147525 0.1563388
vt 0.03147525 0.2806107
vt 0.03147525 0.350514
vt 0.04700925 0.350514
vt 0.03147525 0.404883
vt 0.0505565 0.3604363
vt 0.057761 0.372024
vt 0.0677205 0.3813505
vt 0.0801485 0.386983
vt 0.09361126 0.389349
vt 0.09361126 0.404883
vt 0.1482268 0.404883
vt 0.107074 0.386983
vt 0.119502 0.3813505
vt 0.1294615 0.372024
vt 0.136666 0.3604363
vt 0.1402133 0.350514
vt 0.1482268 0.350514
vt 0.1402133 0.2806107
vt 0.148227 0.2806107
vt 0.148227 0.1563388
vt 0.1402133 0.1563388
vt 0.2265625 0.2734375
vt 0.2734375 0.2734375
vt 0.2734375 0.2148438
vt 0.2265625 0.2148438
vt 0.2734375 0.1601563
vt 0.2265625 0.1601563
vt 0.1210938 0.1601563
vt 0.06640625 0.2734375
vt 0.06640625 0.1601563
vt 0.1210938 0.2734375
vt 0.06640625 0.2773438
vt 0.1210938 0.2773438
vt 0.1931017 0.2895858
vt 0.1931017 0.3481795
vt 0.2722303 0.3481795
vt 0.2722303 0.2895858
vt 0.1753785 0.3946007
vt 0.1677025 0.388812
vt 0.1677025 0.3946007
vt 0.1753785 0.388812
vt 0.1677025 0.3838553
vt 0.1754625 0.3838553
vt 0.1677025 0.3489348
vt 0.1754625 0.3489348
vt 0.1754625 0.2868537
vt 0.1677025 0.2868537
vt 0.1753785 0.3992597
vt 0.1753785 0.3946007
vt 0.1677025 0.3946007
vt 0.1677025 0.3992597
vt 0.1753785 0.4020735
vt 0.1677025 0.4020735
vt 0.1754625 0.4032555
vt 0.1677025 0.4032555
vt 0.1753785 0.3946007
vt 0.1677025 0.3946007
vt 0.1677025 0.388812
vt 0.1753785 0.388812
vt 0.1677025 0.3838553
vt 0.1754625 0.3838553
vt 0.1677025 0.3489348
vt 0.1754625 0.3489348
vt 0.1754625 0.2868537
vt 0.1677025 0.2868537
vt 0.1753785 0.3992597
vt 0.1677025 0.3946007
vt 0.1753785 0.3946007
vt 0.1677025 0.3992597
vt 0.1753785 0.4020735
vt 0.1677025 0.4020735
vt 0.1754625 0.4032555
vt 0.1677025 0.4032555
vt 0.2722303 0.2895858
vt 0.1931017 0.2895858
vt 0.1931017 0.402867
vt 0.2722303 0.402867
vt 0.1931017 0.3481795
vt 0.1931017 0.402867
vt 0.2722303 0.402867
vt 0.2722303 0.3481795
vt 0.1931017 0.3481795
vt 0.1931017 0.2895858
vt 0.2722303 0.2895858
vt 0.2722303 0.3481795
vt 0.1931017 0.402867
vt 0.2722303 0.402867
vn 0 0 -1
vn 0 0 -1
vn 0 0 -1
vn 0 0 -1
vn 0 0 -1
vn 0 0 -1
vn 0 0 -1
vn 0 0 -1
vn 0 0 -1
vn 0 0 -1
vn 0 0 -1
vn 0 0 -1
vn 0 0 -1
vn 0 0 -1
vn 0 0 -1
vn 0 0 -1
vn 0 0 -1
vn 0 0 -1
vn 0 0 -1
vn 0 0 -1
vn 0 0 -1
vn 0 0 -1
vn 0 0 -1
vn 0 0 -1
vn 0 0 -1
vn 0 0 -1
vn 0 0 -1
vn 0 0 -1
vn 0 0 -1
vn 0 0 -1
vn 0 -0.9970547 -0.07669417
vn 0 -0.9992998 -0.03741575
vn 0 -0.9970547 -0.07669417
vn 0 -0.9992998 -0.03741575
vn 0 -1 0
vn 0 -1 0
vn 0.9992638 0 -0.03836279
vn 0.9970547 0 -0.07669417
vn 0.9970547 0 -0.07669417
vn 0.9970547 0 -0.07669417
vn 0.7730101 0.6343938 0
vn 0.9005368 0.4347798 0
vn 0.7730101 0.6343938 0
vn 0.9007739 0.4342881 0
vn 0.9853033 0.1708144 0
vn 0.9854511 0.169959 0
vn 1 0 0
vn 0.9992638 0 -0.03836279
vn 0.9992998 0 -0.03741575
vn 1 0 0
vn 0.5555732 0.8314676 0
vn 0.7730101 0.6343938 0
vn 0.7730101 0.6343938 0
vn 0.5555732 0.8314676 0
vn 0.294787 0.9555629 0
vn 0.2952673 0.9554147 0
vn 0 1 0
vn 0 1 0
vn -0.7730101 0.6343938 0
vn -0.7730101 0.6343938 0
vn -0.9005368 0.4347798 0
vn -0.9007739 0.4342881 0
vn -0.9853033 0.1708144 0
vn -0.9854511 0.169959 0
vn -1 0 0
vn -0.9992638 0 -0.03836279
vn -0.9992998 0 -0.03741575
vn -1 0 0
vn -0.5555732 0.8314676 0
vn -0.7730101 0.6343938 0
vn -0.7730101 0.6343938 0
vn -0.5555732 0.8314676 0
vn -0.294787 0.9555629 0
vn -0.2952673 0.9554147 0
vn 0 1 0
vn 0 1 0
vn 0 1 0
vn 0 1 0
vn 0 1 0
vn 0 1 0
vn 0.9992998 0 -0.03741575
vn 0.9992638 0 -0.03836279
vn 0.9970547 0 -0.07669417
vn 0.9970547 0 -0.07669417
vn -0.9992638 0 -0.03836279
vn -0.9992998 0 -0.03741575
vn -0.9970547 0 -0.07669417
vn -0.9970547 0 -0.07669417
vn -0.9970547 0 -0.07669417
vn -0.9970547 0 -0.07669417
g Reintro_DoorwayF_Plain_0
f 3/3/3 2/2/2 1/1/1
f 4/4/4 3/3/3 1/1/1
f 4/4/4 1/1/1 5/5/5
f 1/1/1 6/6/6 5/5/5
f 5/5/5 6/6/6 7/7/7
f 6/6/6 8/8/8 7/7/7
f 8/8/8 9/9/9 7/7/7
f 9/9/9 10/10/10 7/7/7
f 10/10/10 11/11/11 7/7/7
f 7/7/7 11/11/11 12/12/12
f 13/13/13 7/7/7 12/12/12
f 14/14/14 13/13/13 12/12/12
f 15/15/15 14/14/14 12/12/12
f 15/15/15 16/16/16 14/14/14
f 16/16/16 17/17/17 14/14/14
f 17/17/17 18/18/18 14/14/14
f 18/18/18 19/19/19 14/14/14
f 19/19/19 20/20/20 14/14/14
f 20/20/20 19/19/19 21/21/21
f 22/22/22 20/20/20 21/21/21
f 23/23/23 22/22/22 21/21/21
f 24/24/24 23/23/23 21/21/21
f 27/27/27 26/26/26 25/25/25
f 28/28/28 27/27/27 25/25/25
f 29/29/29 27/27/27 28/28/28
f 30/30/30 29/29/29 28/28/28
f 33/33/33 32/32/32 31/31/31
f 32/32/32 34/34/34 31/31/31
f 32/32/32 35/35/35 34/34/34
f 35/35/35 36/36/36 34/34/34
f 39/39/39 38/38/38 37/37/37
f 40/40/40 39/39/39 37/37/37
f 43/43/43 42/42/42 41/41/41
f 42/42/42 44/44/44 41/41/41
f 42/42/42 45/45/45 44/44/44
f 45/45/45 46/46/46 44/44/44
f 46/46/46 45/45/45 47/47/47
f 48/48/48 46/46/46 47/47/47
f 49/49/49 48/48/48 47/47/47
f 50/50/50 49/49/49 47/47/47
f 53/53/53 52/52/52 51/51/51
f 54/54/54 53/53/53 51/51/51
f 54/54/54 51/51/51 55/55/55
f 56/56/56 54/54/54 55/55/55
f 56/56/56 55/55/55 57/57/57
f 58/58/58 56/56/56 57/57/57
f 61/61/61 60/60/60 59/59/59
f 62/62/62 61/61/61 59/59/59
f 63/63/63 61/61/61 62/62/62
f 64/64/64 63/63/63 62/62/62
f 63/63/63 64/64/64 65/65/65
f 64/64/64 66/66/66 65/65/65
f 66/66/66 67/67/67 65/65/65
f 67/67/67 68/68/68 65/65/65
f 71/71/71 70/70/70 69/69/69
f 70/70/70 72/72/72 69/69/69
f 69/69/69 72/72/72 73/73/73
f 72/72/72 74/74/74 73/73/73
f 73/73/73 74/74/74 75/75/75
f 74/74/74 76/76/76 75/75/75
f 79/79/79 78/78/78 77/77/77
f 80/80/80 79/79/79 77/77/77
f 83/83/83 82/82/82 81/81/81
f 84/84/84 83/83/83 81/81/81
f 87/87/87 86/86/86 85/85/85
f 88/88/88 87/87/87 85/85/85
f 88/88/88 85/85/85 89/89/89
f 90/90/90 88/88/88 89/89/89
