g RiverCorner
v -0.375 0 -0.125
v -0.375 0 -0.5
v 0.375 0 -0.5
v 0.375 0 -0.4375
v -0.375 0 0.375
v 0.375 0 -0.375
v 0.125 0 0.375
v 0.4375 0 -0.375
v 0.5 0 0.375
v 0.5 0 -0.375
v -0.07288 0.050011 0.097173
v 0 0.050011 -0.097173
v 0.07288 0.050011 0.097173
vt 0.125 0.749914
vt 0.125 0.999885
vt 0.875 0.999885
vt 0.875 0.749914
vt 0.125 0.499942
vt 0.875 0.499942
vt 0.125 0.249971
vt 0.875 0.249971
vt 0.125 0
vt 0.875 0
vt 0 0.999885
vt 0 0.999885
vt 0 0.999885
vn 0 1 0
vn 0 1 0
vn 0 1 0
vn 0 1 0
vn 0 1 0
vn 0 1 0
vn 0 1 0
vn 0 1 0
vn 0 1 0
vn 0 1 0
vn 0 1 0
vn 0 1 0
vn 0 1 0
g RiverCorner_0
f 3/3/3 2/2/2 1/1/1
f 4/4/4 3/3/3 1/1/1
f 4/4/4 1/1/1 5/5/5
f 6/6/6 4/4/4 5/5/5
f 6/6/6 5/5/5 7/7/7
f 8/8/8 6/6/6 7/7/7
f 8/8/8 7/7/7 9/9/9
f 10/10/10 8/8/8 9/9/9
g RiverCorner_1
f 13/13/13 12/12/12 11/11/11
