g RooftopA
v 0.1 0.1 2.3
v 0.1 -0.1 2.3
v 0 0 2.5
v 0.1 -0.1 2.3
v -0.1 -0.1 2.3
v 0 0 2.5
v 0.1 0.1 2.3
v 0 0 2.5
v -0.1 0.1 2.3
v -0.1 0.1 1.7
v 0 0 2.1
v -0.1 -0.1 1.7
v 0.1 0.1 1.7
v 0 0 2.1
v -0.1 0.1 1.7
v -0.6 -0.6 0
v 0.6 -0.6 0
v 0.6 0.6 0
v -0.6 -0.6 0
v 0.6 0.6 0
v -0.6 0.6 0
v -0.1 0.1 2.3
v 0 0 2.5
v -0.1 -0.1 2.3
v 0.1 0.1 1.7
v 0.1 -0.1 1.7
v 0 0 2.1
v 0.1 -0.1 1.7
v -0.1 -0.1 1.7
v 0 0 2.1
v 0 0 2.1
v -0.1 -0.1 2.3
v 0.1 -0.1 2.3
v 0 0 2.1
v 0.1 0.1 2.3
v -0.1 0.1 2.3
v 0 0 2.1
v 0.1 -0.1 2.3
v 0.1 0.1 2.3
v 0 0 2.1
v -0.1 0.1 2.3
v -0.1 -0.1 2.3
v -0.6 -0.6 0
v -0.6 -0.6 0.1
v 0.6 -0.6 0.1
v 0.6 -0.6 0
v -0.7 -0.7 0.4
v 0.7 -0.7 0.4
v 0.5 -0.5 0.1
v -0.5 -0.5 0.1
v 0.7 -0.7 0.7
v -0.7 -0.7 0.7
v -0.6 -0.6 1
v 0.6 -0.6 1
v -0.6 -0.6 0
v -0.6 0.6 0
v -0.6 0.6 0.1
v -0.6 -0.6 0.1
v 0.4 0.4 1.2
v 0.2 -0.2 1.4
v 0.2 0.2 1.4
v 0.4 -0.4 1.2
v 0.6 0.6 1
v 0.6 -0.6 1
v 0.4 -0.4 1.2
v -0.2 -0.2 1.4
v 0.2 -0.2 1.4
v -0.4 -0.4 1.2
v 0.6 -0.6 1
v -0.6 -0.6 1
v -0.6 0.6 0
v 0.6 0.6 0
v 0.6 0.6 0.1
v -0.6 0.6 0.1
v 0.6 -0.6 0
v 0.6 -0.6 0.1
v 0.6 0.6 0.1
v 0.6 0.6 0
v 0.5 0.5 0.1
v 0.7 0.7 0.4
v -0.7 0.7 0.4
v -0.5 0.5 0.1
v 0.7 0.7 0.7
v 0.6 0.6 1
v -0.6 0.6 1
v -0.7 0.7 0.7
v 0.7 0.7 0.7
v 0.7 -0.7 0.7
v 0.6 -0.6 1
v 0.6 0.6 1
v 0.5 0.5 0.1
v 0.5 -0.5 0.1
v 0.7 -0.7 0.4
v 0.7 0.7 0.4
v 0.6 0.6 0.1
v 0.5 0.5 0.1
v -0.5 0.5 0.1
v -0.6 0.6 0.1
v 0.6 -0.6 0.1
v -0.6 -0.6 0.1
v -0.5 -0.5 0.1
v 0.5 -0.5 0.1
v 0.4 0.4 1.2
v 0.2 0.2 1.4
v -0.2 0.2 1.4
v -0.4 0.4 1.2
v 0.6 0.6 1
v -0.6 0.6 1
v 0.2 -0.2 1.4
v -0.2 -0.2 1.4
v -0.1 -0.1 1.7
v 0.1 -0.1 1.7
v 0.7 -0.7 0.4
v -0.7 -0.7 0.4
v -0.7 -0.7 0.7
v 0.7 -0.7 0.7
v 0.2 0.2 1.4
v 0.1 0.1 1.7
v -0.1 0.1 1.7
v -0.2 0.2 1.4
v 0.7 0.7 0.4
v 0.7 0.7 0.7
v -0.7 0.7 0.7
v -0.7 0.7 0.4
v -0.5 0.5 0.1
v -0.7 0.7 0.4
v -0.7 -0.7 0.4
v -0.5 -0.5 0.1
v -0.7 0.7 0.7
v -0.6 0.6 1
v -0.6 -0.6 1
v -0.7 -0.7 0.7
v -0.6 0.6 0.1
v -0.5 0.5 0.1
v -0.5 -0.5 0.1
v -0.6 -0.6 0.1
v 0.6 0.6 0.1
v 0.6 -0.6 0.1
v 0.5 -0.5 0.1
v 0.5 0.5 0.1
v -0.4 0.4 1.2
v -0.2 0.2 1.4
v -0.2 -0.2 1.4
v -0.4 -0.4 1.2
v -0.6 0.6 1
v -0.6 -0.6 1
v 0.2 0.2 1.4
v 0.2 -0.2 1.4
v 0.1 -0.1 1.7
v 0.1 0.1 1.7
v 0.7 0.7 0.4
v 0.7 -0.7 0.4
v 0.7 -0.7 0.7
v 0.7 0.7 0.7
v -0.2 0.2 1.4
v -0.1 0.1 1.7
v -0.1 -0.1 1.7
v -0.2 -0.2 1.4
v -0.7 0.7 0.4
v -0.7 0.7 0.7
v -0.7 -0.7 0.7
v -0.7 -0.7 0.4
vt 0.568937 0.911229
vt 0.428923 0.911229
vt 0.49893 0.989685
vt 0.569588 0.911514
vt 0.429224 0.911514
vt 0.499406 0.990165
vt 0.569588 0.911514
vt 0.499406 0.990165
vt 0.429224 0.911514
vt 0.568937 0.675862
vt 0.49893 0.832773
vt 0.428923 0.675862
vt 0.569588 0.67556
vt 0.499406 0.832863
vt 0.429224 0.67556
vt 0.078886 0.008988
vt 0.920496 0.007025
vt 0.499406 0.007025
vt 0.078886 0.008988
vt 0.499406 0.007025
vt 0.918973 0.008988
vt 0.568937 0.911229
vt 0.49893 0.989685
vt 0.428923 0.911229
vt 0.568937 0.675862
vt 0.428923 0.675862
vt 0.49893 0.832773
vt 0.569588 0.67556
vt 0.429224 0.67556
vt 0.499406 0.832863
vt 0.499406 0.832863
vt 0.429224 0.911514
vt 0.569588 0.911514
vt 0.499406 0.832863
vt 0.569588 0.911514
vt 0.429224 0.911514
vt 0.49893 0.832773
vt 0.428923 0.911229
vt 0.568937 0.911229
vt 0.49893 0.832773
vt 0.568937 0.911229
vt 0.428923 0.911229
vt 0.078316 0.007025
vt 0.078316 0.046351
vt 0.920496 0.046351
vt 0.920496 0.007025
vt 0.008134 0.164328
vt 0.990678 0.164328
vt 0.850314 0.046351
vt 0.148497 0.046351
vt 0.990678 0.282305
vt 0.008134 0.282305
vt 0.078316 0.400281
vt 0.920496 0.400281
vt 0.078886 0.008988
vt 0.918973 0.008988
vt 0.918973 0.048216
vt 0.078886 0.048216
vt 0.778959 0.479723
vt 0.358915 0.558178
vt 0.638944 0.558178
vt 0.218901 0.479723
vt 0.918973 0.401267
vt 0.078886 0.401267
vt 0.780133 0.478933
vt 0.359043 0.557584
vt 0.639769 0.557584
vt 0.218679 0.478933
vt 0.920496 0.400281
vt 0.078316 0.400281
vt 0.078316 0.007025
vt 0.920496 0.007025
vt 0.920496 0.046351
vt 0.078316 0.046351
vt 0.078886 0.008988
vt 0.078886 0.048216
vt 0.918973 0.048216
vt 0.918973 0.008988
vt 0.850314 0.046351
vt 0.990678 0.164328
vt 0.008134 0.164328
vt 0.148497 0.046351
vt 0.990678 0.282305
vt 0.920496 0.400281
vt 0.078316 0.400281
vt 0.008134 0.282305
vt 0.988981 0.283583
vt 0.008879 0.283583
vt 0.078886 0.401267
vt 0.918973 0.401267
vt 0.848966 0.048216
vt 0.148894 0.048216
vt 0.008879 0.1659
vt 0.988981 0.1659
vt 0.920496 0.046351
vt 0.850314 0.046351
vt 0.148497 0.046351
vt 0.078316 0.046351
vt 0.920496 0.046351
vt 0.078316 0.046351
vt 0.148497 0.046351
vt 0.850314 0.046351
vt 0.780133 0.478933
vt 0.639769 0.557584
vt 0.359043 0.557584
vt 0.218679 0.478933
vt 0.920496 0.400281
vt 0.078316 0.400281
vt 0.639769 0.557584
vt 0.359043 0.557584
vt 0.429224 0.67556
vt 0.569588 0.67556
vt 0.990678 0.164328
vt 0.008134 0.164328
vt 0.008134 0.282305
vt 0.990678 0.282305
vt 0.639769 0.557584
vt 0.569588 0.67556
vt 0.429224 0.67556
vt 0.359043 0.557584
vt 0.990678 0.164328
vt 0.990678 0.282305
vt 0.008134 0.282305
vt 0.008134 0.164328
vt 0.848966 0.048216
vt 0.988981 0.1659
vt 0.008879 0.1659
vt 0.148894 0.048216
vt 0.988981 0.283583
vt 0.918973 0.401267
vt 0.078886 0.401267
vt 0.008879 0.283583
vt 0.918973 0.048216
vt 0.848966 0.048216
vt 0.148894 0.048216
vt 0.078886 0.048216
vt 0.918973 0.048216
vt 0.078886 0.048216
vt 0.148894 0.048216
vt 0.848966 0.048216
vt 0.778959 0.479723
vt 0.638944 0.558178
vt 0.358915 0.558178
vt 0.218901 0.479723
vt 0.918973 0.401267
vt 0.078886 0.401267
vt 0.638944 0.558178
vt 0.358915 0.558178
vt 0.428923 0.675862
vt 0.568937 0.675862
vt 0.988981 0.1659
vt 0.008879 0.1659
vt 0.008879 0.283583
vt 0.988981 0.283583
vt 0.638944 0.558178
vt 0.568937 0.675862
vt 0.428923 0.675862
vt 0.358915 0.558178
vt 0.988981 0.1659
vt 0.988981 0.283583
vt 0.008879 0.283583
vt 0.008879 0.1659
vn 0.8944333 0 0.4472014
vn 0.8944333 0 0.4472014
vn 0.8944333 0 0.4472014
vn 0 -0.8944333 0.4472014
vn 0 -0.8944333 0.4472014
vn 0 -0.8944333 0.4472014
vn 0 0.8944333 0.4472014
vn 0 0.8944333 0.4472014
vn 0 0.8944333 0.4472014
vn -0.9701425 0 0.2425356
vn -0.9701425 0 0.2425356
vn -0.9701425 0 0.2425356
vn 0 0.9701425 0.2425356
vn 0 0.9701425 0.2425356
vn 0 0.9701425 0.2425356
vn 0 0 -1
vn 0 0 -1
vn 0 0 -1
vn 0 0 -1
vn 0 0 -1
vn 0 0 -1
vn -0.8944333 0 0.4472014
vn -0.8944333 0 0.4472014
vn -0.8944333 0 0.4472014
vn 0.9701425 0 0.2425356
vn 0.9701425 0 0.2425356
vn 0.9701425 0 0.2425356
vn 0 -0.9701425 0.2425356
vn 0 -0.9701425 0.2425356
vn 0 -0.9701425 0.2425356
vn 0 -0.8944333 -0.4472014
vn 0 -0.8944333 -0.4472014
vn 0 -0.8944333 -0.4472014
vn 0 0.8944333 -0.4472014
vn 0 0.8944333 -0.4472014
vn 0 0.8944333 -0.4472014
vn 0.8944333 0 -0.4472014
vn 0.8944333 0 -0.4472014
vn 0.8944333 0 -0.4472014
vn -0.8944333 0 -0.4472014
vn -0.8944333 0 -0.4472014
vn -0.8944333 0 -0.4472014
vn 0 -1 0
vn 0 -1 0
vn 0 -1 0
vn 0 -1 0
vn 0 -0.832055 -0.5546932
vn 0 -0.832055 -0.5546932
vn 0 -0.832055 -0.5546932
vn 0 -0.832055 -0.5546932
vn 0 -0.9486893 0.3162094
vn 0 -0.9486893 0.3162094
vn 0 -0.9486893 0.3162094
vn 0 -0.9486893 0.3162094
vn -1 0 0
vn -1 0 0
vn -1 0 0
vn -1 0 0
vn 0.7071068 0 0.7071068
vn 0.7071068 0 0.7071068
vn 0.7071068 0 0.7071068
vn 0.7071068 0 0.7071068
vn 0.7071068 0 0.7071068
vn 0.7071068 0 0.7071068
vn 0 -0.7071068 0.7071068
vn 0 -0.7071068 0.7071068
vn 0 -0.7071068 0.7071068
vn 0 -0.7071068 0.7071068
vn 0 -0.7071068 0.7071068
vn 0 -0.7071068 0.7071068
vn 0 1 0
vn 0 1 0
vn 0 1 0
vn 0 1 0
vn 1 0 0
vn 1 0 0
vn 1 0 0
vn 1 0 0
vn 0 0.832055 -0.5546932
vn 0 0.832055 -0.5546932
vn 0 0.832055 -0.5546932
vn 0 0.832055 -0.5546932
vn 0 0.9486893 0.3162094
vn 0 0.9486893 0.3162094
vn 0 0.9486893 0.3162094
vn 0 0.9486893 0.3162094
vn 0.9486893 0 0.3162094
vn 0.9486893 0 0.3162094
vn 0.9486893 0 0.3162094
vn 0.9486893 0 0.3162094
vn 0.832055 0 -0.5546932
vn 0.832055 0 -0.5546932
vn 0.832055 0 -0.5546932
vn 0.832055 0 -0.5546932
vn 0 0 1
vn 0 0 1
vn 0 0 1
vn 0 0 1
vn 0 0 1
vn 0 0 1
vn 0 0 1
vn 0 0 1
vn 0 0.7071068 0.7071068
vn 0 0.7071068 0.7071068
vn 0 0.7071068 0.7071068
vn 0 0.7071068 0.7071068
vn 0 0.7071068 0.7071068
vn 0 0.7071068 0.7071068
vn 0 -0.9486893 0.3162094
vn 0 -0.9486893 0.3162094
vn 0 -0.9486893 0.3162094
vn 0 -0.9486893 0.3162094
vn 0 -1 0
vn 0 -1 0
vn 0 -1 0
vn 0 -1 0
vn 0 0.9486893 0.3162094
vn 0 0.9486893 0.3162094
vn 0 0.9486893 0.3162094
vn 0 0.9486893 0.3162094
vn 0 1 0
vn 0 1 0
vn 0 1 0
vn 0 1 0
vn -0.832055 0 -0.5546932
vn -0.832055 0 -0.5546932
vn -0.832055 0 -0.5546932
vn -0.832055 0 -0.5546932
vn -0.9486893 0 0.3162094
vn -0.9486893 0 0.3162094
vn -0.9486893 0 0.3162094
vn -0.9486893 0 0.3162094
vn 0 0 1
vn 0 0 1
vn 0 0 1
vn 0 0 1
vn 0 0 1
vn 0 0 1
vn 0 0 1
vn 0 0 1
vn -0.7071068 0 0.7071068
vn -0.7071068 0 0.7071068
vn -0.7071068 0 0.7071068
vn -0.7071068 0 0.7071068
vn -0.7071068 0 0.7071068
vn -0.7071068 0 0.7071068
vn 0.9486893 0 0.3162094
vn 0.9486893 0 0.3162094
vn 0.9486893 0 0.3162094
vn 0.9486893 0 0.3162094
vn 1 0 0
vn 1 0 0
vn 1 0 0
vn 1 0 0
vn -0.9486893 0 0.3162094
vn -0.9486893 0 0.3162094
vn -0.9486893 0 0.3162094
vn -0.9486893 0 0.3162094
vn -1 0 0
vn -1 0 0
vn -1 0 0
vn -1 0 0
g RooftopA_0
f 3/3/3 2/2/2 1/1/1
f 6/6/6 5/5/5 4/4/4
f 9/9/9 8/8/8 7/7/7
f 12/12/12 11/11/11 10/10/10
f 15/15/15 14/14/14 13/13/13
f 18/18/18 17/17/17 16/16/16
f 21/21/21 20/20/20 19/19/19
f 24/24/24 23/23/23 22/22/22
f 27/27/27 26/26/26 25/25/25
f 30/30/30 29/29/29 28/28/28
f 33/33/33 32/32/32 31/31/31
f 36/36/36 35/35/35 34/34/34
f 39/39/39 38/38/38 37/37/37
f 42/42/42 41/41/41 40/40/40
f 45/45/45 44/44/44 43/43/43
f 46/46/46 45/45/45 43/43/43
f 49/49/49 48/48/48 47/47/47
f 50/50/50 49/49/49 47/47/47
f 53/53/53 52/52/52 51/51/51
f 54/54/54 53/53/53 51/51/51
f 57/57/57 56/56/56 55/55/55
f 58/58/58 57/57/57 55/55/55
f 61/61/61 60/60/60 59/59/59
f 60/60/60 62/62/62 59/59/59
f 59/59/59 62/62/62 63/63/63
f 62/62/62 64/64/64 63/63/63
f 67/67/67 66/66/66 65/65/65
f 66/66/66 68/68/68 65/65/65
f 65/65/65 68/68/68 69/69/69
f 68/68/68 70/70/70 69/69/69
f 73/73/73 72/72/72 71/71/71
f 74/74/74 73/73/73 71/71/71
f 77/77/77 76/76/76 75/75/75
f 78/78/78 77/77/77 75/75/75
f 81/81/81 80/80/80 79/79/79
f 82/82/82 81/81/81 79/79/79
f 85/85/85 84/84/84 83/83/83
f 86/86/86 85/85/85 83/83/83
f 89/89/89 88/88/88 87/87/87
f 90/90/90 89/89/89 87/87/87
f 93/93/93 92/92/92 91/91/91
f 94/94/94 93/93/93 91/91/91
f 97/97/97 96/96/96 95/95/95
f 98/98/98 97/97/97 95/95/95
f 101/101/101 100/100/100 99/99/99
f 102/102/102 101/101/101 99/99/99
f 105/105/105 104/104/104 103/103/103
f 106/106/106 105/105/105 103/103/103
f 106/106/106 103/103/103 107/107/107
f 108/108/108 106/106/106 107/107/107
f 111/111/111 110/110/110 109/109/109
f 112/112/112 111/111/111 109/109/109
f 115/115/115 114/114/114 113/113/113
f 116/116/116 115/115/115 113/113/113
f 119/119/119 118/118/118 117/117/117
f 120/120/120 119/119/119 117/117/117
f 123/123/123 122/122/122 121/121/121
f 124/124/124 123/123/123 121/121/121
f 127/127/127 126/126/126 125/125/125
f 128/128/128 127/127/127 125/125/125
f 131/131/131 130/130/130 129/129/129
f 132/132/132 131/131/131 129/129/129
f 135/135/135 134/134/134 133/133/133
f 136/136/136 135/135/135 133/133/133
f 139/139/139 138/138/138 137/137/137
f 140/140/140 139/139/139 137/137/137
f 143/143/143 142/142/142 141/141/141
f 144/144/144 143/143/143 141/141/141
f 144/144/144 141/141/141 145/145/145
f 146/146/146 144/144/144 145/145/145
f 149/149/149 148/148/148 147/147/147
f 150/150/150 149/149/149 147/147/147
f 153/153/153 152/152/152 151/151/151
f 154/154/154 153/153/153 151/151/151
f 157/157/157 156/156/156 155/155/155
f 158/158/158 157/157/157 155/155/155
f 161/161/161 160/160/160 159/159/159
f 162/162/162 161/161/161 159/159/159
