g RotatorSquareArm
v 0.062682 -0.5 -0.125
v 1.125091 -0.5 -0.125
v 1.125091 -0.25 -0.125
v 0.062682 -0.25 -0.125
v 0.062682 -0.25 -0.125
v 1.125091 -0.25 -0.125
v 1.125091 -0.25 0.125
v 0.062682 -0.25 0.125
v 0.062682 -0.5 -0.125
v 0.062682 -0.5 0.125
v 1.125091 -0.5 0.125
v 1.125091 -0.5 -0.125
v 1.125091 -0.5 0.125
v 0.062682 -0.5 0.125
v 0.062682 -0.25 0.125
v 1.125091 -0.25 0.125
vt 0.486169 0.374394
vt 0.26248 0.374394
vt 0.26248 0.485907
vt 0.486169 0.485907
vt 0.486169 0.374175
vt 0.26248 0.374175
vt 0.26248 0.262662
vt 0.486169 0.262662
vt 0.486169 0.374175
vt 0.486169 0.262662
vt 0.26248 0.262662
vt 0.26248 0.374175
vt 0.26248 0.374394
vt 0.486169 0.374394
vt 0.486169 0.485907
vt 0.26248 0.485907
vn 0 0 -1
vn 0 0 -1
vn 0 0 -1
vn 0 0 -1
vn 0 1 0
vn 0 1 0
vn 0 1 0
vn 0 1 0
vn 0 -1 0
vn 0 -1 0
vn 0 -1 0
vn 0 -1 0
vn 0 0 1
vn 0 0 1
vn 0 0 1
vn 0 0 1
g RotatorSquareArm_0
f 3/3/3 2/2/2 1/1/1
f 4/4/4 3/3/3 1/1/1
f 7/7/7 6/6/6 5/5/5
f 8/8/8 7/7/7 5/5/5
f 11/11/11 10/10/10 9/9/9
f 12/12/12 11/11/11 9/9/9
f 15/15/15 14/14/14 13/13/13
f 16/16/16 15/15/15 13/13/13
