g standard_cube_01_003_cell_006
v -0.0009845899 0.00243475 -0.00354759
v -0.00053171 0.00242342 -0.00306087
v -0.00131973 0.00282541 -0.0035848
v 0.00280663 -0.00283958 0.00148678
v 0.00278784 -0.00283958 0.00257079
v 0.00286801 -0.00166902 0.00257079
v 0.00266031 -0.00083848 0.00257079
v 0.00138802 0.0008662799 0.00257079
v 0.00055789 0.00179542 -0.00184884
v 0.00055789 0.00179542 -0.00184884
v -0.00053171 0.00242342 -0.00306087
v -0.0009845899 0.00243475 -0.00354759
v 0.00173203 -0.00283958 -0.00013955
v 0.00256302 -0.00283958 0.00074104
v -0.0009845899 0.00243475 -0.00354759
v -0.0010049 0.00233442 -0.00355632
v 0.00173203 -0.00283958 -0.00013955
v 0.00256302 -0.00283958 0.00074104
v 0.00291784 -0.00125966 0.00096142
v 0.00281348 -0.00283958 0.00100714
v -0.00469473 0.00433818 -0.00428334
v -0.00131973 0.00282541 -0.0035848
v -0.00053171 0.00242342 -0.00306087
v -0.00469473 0.00433818 -0.00428334
v -0.00469473 0.00341549 -0.0043787
v -0.0009845899 0.00243475 -0.00354759
v -0.00131973 0.00282541 -0.0035848
v -0.00469473 0.00433818 -0.00428334
v -0.0009845899 0.00243475 -0.00354759
v -0.0009845899 0.00243475 -0.00354759
v -0.00469473 0.00341549 -0.0043787
v -0.0010049 0.00233442 -0.00355632
v 0.00266031 -0.00083848 0.00257079
v 0.00055789 0.00179542 -0.00184884
v 0.00291784 -0.00125966 0.00096142
v 0.00290119 -0.00116347 0.00257079
v -0.00053171 0.00242342 -0.00306087
v 0.00131831 0.00089646 0.00257079
v -0.00469473 0.00347788 0.00257079
v -0.00469473 0.00433818 -0.00428334
v -0.00469473 0.00341549 -0.0043787
v -0.00469473 -0.00283958 -0.00036271
v 0.00173203 -0.00283958 -0.00013955
v -0.0010049 0.00233442 -0.00355632
v -0.00469473 0.00347788 0.00257079
v -0.00469473 -0.00283958 0.00257079
v -0.00469473 -0.00283958 -0.00036271
v -0.00469473 0.00433818 -0.00428334
v -0.00469473 0.00341549 -0.0043787
v 0.00055789 0.00179542 -0.00184884
v 0.00138802 0.0008662799 0.00257079
v 0.00131831 0.00089646 0.00257079
v -0.00053171 0.00242342 -0.00306087
v 0.00290119 -0.00116347 0.00257079
v 0.00280663 -0.00283958 0.00148678
v 0.00286801 -0.00166902 0.00257079
v 0.00291784 -0.00125966 0.00096142
v 0.00281348 -0.00283958 0.00100714
v 0.00278784 -0.00283958 0.00257079
v -0.00469473 -0.00283958 -0.00036271
v -0.00469473 -0.00283958 0.00257079
v 0.00280663 -0.00283958 0.00148678
v 0.00281348 -0.00283958 0.00100714
v 0.00256302 -0.00283958 0.00074104
v 0.00173203 -0.00283958 -0.00013955
v 0.00131831 0.00089646 0.00257079
v -0.00469473 -0.00283958 0.00257079
v -0.00469473 0.00347788 0.00257079
v 0.00138802 0.0008662799 0.00257079
v 0.00266031 -0.00083848 0.00257079
v 0.00290119 -0.00116347 0.00257079
v 0.00286801 -0.00166902 0.00257079
v 0.00278784 -0.00283958 0.00257079
vt 5E-06 5E-06
vt 1.000008 1.000005
vt 1.000011 8E-06
vt 0.772533 0.772532
vt 0.773519 0.244525
vt 0.242383 0.242383
vt 0.100832 1E-06
vt 1.000001 0.899198
vt 1.000001 1E-06
vt 1E-06 -2E-06
vt 1.000002 1.000012
vt 1 5E-06
vt 0.999997 0.087144
vt 0.902233 -2E-06
vt 0.999998 0.999998
vt 0.999999 5.5E-05
vt 0.088684 2.5E-05
vt 0.902236 0.902233
vt 1.000001 -2E-06
vt 1 0.758787
vt 0.891815 0.891835
vt 0.999995 -1E-06
vt -5E-06 0
vt 0.88021 0.880206
vt 0.881409 0
vt 1E-06 -2E-06
vt -2.4E-05 -4E-06
vt 0.869879 0.869863
vt 1.000014 3E-06
vt 0.999985 0.999984
vt 0.999997 0.118588
vt 1.3E-05 1.3E-05
vt 0.10083 0.100831
vt 0.999998 1
vt 0.999998 0
vt 0.235444 0
vt 1 -1E-06
vt 0.080863 0
vt 0.982522 0.900576
vt 0.999999 0.891831
vt 0.119166 0
vt 0.91131 0.893158
vt 0.911317 0
vt 0 0
vt 0.657936 1.000002
vt 0.500001 1.000002
vt 0.500001 0.926664
vt 0.679443 0.828647
vt 0.656376 0.826263
vt 0.999998 5E-06
vt 0.100803 -1E-06
vt 0.080862 0.080866
vt 1 0.999997
vt 0.764555 0
vt 1 0.772533
vt 1.000001 0.242383
vt 1E-06 0
vt 0.758789 0.758788
vt 0.687063 0.749999
vt 0.500001 0.676663
vt 0.500001 0.749999
vt 0.687533 0.722899
vt 0.687704 0.710909
vt 0.681443 0.704256
vt 0.660828 0.682405
vt 0.650325 0.343406
vt 0.500001 0.250006
vt 0.500001 0.407941
vt 0.652068 0.342652
vt 0.683875 0.300033
vt 0.689897 0.291908
vt 0.689067 0.279269
vt 0.687063 0.250006
vn 0.6418848 0.4948703 -0.5857366
vn 0.6418848 0.4948703 -0.5857366
vn 0.6418848 0.4948703 -0.5857366
vn 0.9976937 -0.06619812 0.01499825
vn 0.9975138 -0.06831836 0.01729075
vn 0.9976352 -0.06690113 0.0157535
vn 0.8021226 0.5965919 -0.02602724
vn 0.8011689 0.5979252 -0.02477992
vn 0.8021226 0.5965919 -0.02602724
vn 0.7276644 -0.06099459 -0.683216
vn 0.7307673 -0.04649464 -0.6810414
vn 0.7229749 -0.0662508 -0.6876905
vn 0.7189441 -0.07611726 -0.6908875
vn 0.7260517 -0.06823942 -0.6842458
vn 0.7229749 -0.0662508 -0.6876905
vn 0.712207 -0.08352686 -0.6969824
vn 0.7189441 -0.07611726 -0.6908875
vn 0.7260517 -0.06823942 -0.6842458
vn 0.7265206 -0.06778163 -0.6837935
vn 0.7265206 -0.06778163 -0.6837935
vn 0.387024 0.9141877 0.120305
vn 0.3844538 0.9148234 0.1236668
vn 0.3895428 0.9132408 0.1193633
vn 0.2491811 0.1139545 -0.9617292
vn 0.2425341 0.09973301 -0.9650029
vn 0.2491811 0.1139545 -0.9617292
vn 0.255764 0.1281468 -0.9582083
vn 0.2491811 0.1139545 -0.9617292
vn 0.2491811 0.1139545 -0.9617292
vn 0.2281053 0.03847685 -0.9728759
vn 0.2281053 0.03847685 -0.9728759
vn 0.2281053 0.03847685 -0.9728759
vn 0.8021226 0.5965919 -0.02602724
vn 0.8021226 0.5965919 -0.02602724
vn 0.803073 0.5952562 -0.02727446
vn 0.803073 0.5952562 -0.02727446
vn 0.3895428 0.9132408 0.1193633
vn 0.3920805 0.9124334 0.1172095
vn 0.3895872 0.9135353 0.1169411
vn 0.387024 0.9141877 0.120305
vn 0.02922308 -0.5400273 -0.84114
vn 0.02922308 -0.5400273 -0.84114
vn 0.02922308 -0.5400273 -0.84114
vn 0.02922308 -0.5400273 -0.84114
vn -1 0 0
vn -1 0 0
vn -1 0 0
vn -1 0 0
vn -1 0 0
vn 0.3945709 0.9113249 0.117477
vn 0.3945709 0.9113249 0.117477
vn 0.3920805 0.9124334 0.1172095
vn 0.3895428 0.9132408 0.1193633
vn 0.9977518 -0.06549033 0.01422661
vn 0.9976937 -0.06619812 0.01499825
vn 0.9976352 -0.06690113 0.0157535
vn 0.9977512 -0.06549507 0.014243
vn 0.9977513 -0.06549309 0.01424894
vn 0 -1 0
vn 0 -1 0
vn 0 -1 0
vn 0 -1 0
vn 0 -1 0
vn 0 -1 0
vn 0 -1 0
vn 0 0 1
vn 0 0 1
vn 0 0 1
vn 0 0 1
vn 0 0 1
vn 0 0 1
vn 0 0 1
vn 0 0 1
g standard_cube_01_003_cell_006_0
f 3/3/3 2/2/2 1/1/1
f 6/6/6 5/5/5 4/4/4
f 9/9/9 8/8/8 7/7/7
f 12/12/12 11/11/11 10/10/10
f 10/10/10 14/14/14 13/13/13
f 15/15/15 10/10/10 13/13/13
f 15/15/15 17/17/17 16/16/16
f 10/10/10 19/19/19 18/18/18
f 19/19/19 20/20/20 18/18/18
f 23/23/23 22/22/22 21/21/21
f 26/26/26 25/25/25 24/24/24
f 29/29/29 28/28/28 27/27/27
f 32/32/32 31/31/31 30/30/30
f 35/35/35 34/34/34 33/33/33
f 36/36/36 35/35/35 33/33/33
f 39/39/39 38/38/38 37/37/37
f 40/40/40 39/39/39 37/37/37
f 43/43/43 42/42/42 41/41/41
f 44/44/44 43/43/43 41/41/41
f 47/47/47 46/46/46 45/45/45
f 48/48/48 47/47/47 45/45/45
f 49/49/49 47/47/47 48/48/48
f 52/52/52 51/51/51 50/50/50
f 53/53/53 52/52/52 50/50/50
f 56/56/56 55/55/55 54/54/54
f 54/54/54 55/55/55 57/57/57
f 55/55/55 58/58/58 57/57/57
f 61/61/61 60/60/60 59/59/59
f 60/60/60 62/62/62 59/59/59
f 63/63/63 62/62/62 60/60/60
f 64/64/64 63/63/63 60/60/60
f 65/65/65 64/64/64 60/60/60
f 68/68/68 67/67/67 66/66/66
f 66/66/66 67/67/67 69/69/69
f 69/69/69 67/67/67 70/70/70
f 70/70/70 67/67/67 71/71/71
f 67/67/67 72/72/72 71/71/71
f 73/73/73 72/72/72 67/67/67
