g Thief_RooftopK_Pink
v -0.5 0 0.125327
v -0.5 0.5 0.125
v -0.750106 0.310704 0.426605
v 0.5 0 0.125327
v 0.5 -0.5 0.125
v 0.750106 -0.310704 0.426605
v -0.750106 -0.310704 0.426605
v -0.5 -0.5 0.125
v -0.5 0 0.125327
v -0.750106 0.310704 0.426605
v -0.750106 -0.310704 0.426605
v -0.788846 0 0.72694
v 0.240148 -0.579768 1.075301
v 0 -0.380231 1.31971
v 0.103147 -0.249018 1.521182
v -0.240147 0.579768 1.075301
v 0 0.380231 1.31971
v -0.103147 0.249019 1.521182
v -0.310704 0.750106 0.426605
v -0.5 0.5 0.125
v 0 0.5 0.125327
v 0.5 0.5 0.125
v 0.310704 0.750106 0.426605
v -0.310704 0.750106 0.426605
v 0.557798 -0.557799 0.72694
v 0 -0.788846 0.72694
v 0.240148 -0.579768 1.075301
v 0.750106 0.310704 0.426605
v 0.750106 -0.310704 0.426605
v 0.788846 0 0.72694
v 0.5 0 0.125327
v 0.750106 0.310704 0.426605
v 0.5 0.5 0.125
v 0.750106 -0.310704 0.426605
v 0.750106 0.310704 0.426605
v -0.579768 -0.240148 1.075301
v -0.788846 0 0.72694
v -0.579768 0.240148 1.075301
v -0.579768 -0.240148 1.075301
v -0.579768 0.240148 1.075301
v -0.380231 0 1.31971
v -0.310704 0.750106 0.426605
v 0.310704 0.750106 0.426605
v 0 0.788846 0.72694
v 0 -0.5 0.125327
v 0.310704 -0.750106 0.426605
v 0.5 -0.5 0.125
v -0.5 -0.5 0.125
v -0.310704 -0.750106 0.426605
v 0.310704 -0.750106 0.426605
v 0 -0.788846 0.72694
v 0.310704 -0.750106 0.426605
v 0 -0.788846 0.72694
v 0.557798 -0.557799 0.72694
v 0.579768 -0.240148 1.075301
v 0.240148 -0.579768 1.075301
v 0.268864 -0.268864 1.31971
v -0.625 -0.625 0.125
v -0.5 0 0.125327
v -0.5 -0.5 0.125
v 0.625 -0.625 0.125
v 0 -0.5 0.125327
v 0.5 0 0.125327
v 0.5 -0.5 0.125
v -0.5 0 0.125327
v -0.625 0.625 0.125
v -0.5 0.5 0.125
v 0.5 0.5 0.125
v 0 0.5 0.125327
v 0.625 0.625 0.125
v 0.5 0 0.125327
v 0.625 -0.625 0.125
v 0 -0.5 0.125327
v 0.5 -0.5 0.125
v -0.625 0.625 0.125
v 0 0.5 0.125327
v -0.5 0.5 0.125
v 0 -0.380231 1.31971
v -0.240148 -0.579768 1.075301
v -0.268864 -0.268864 1.31971
v -0.103147 -0.249019 1.521182
v -0.103147 0.249019 1.521182
v 0 0.140669 1.74799
v -0.099468 0.099468 1.74799
v 0 0 2.438618
v 0.249018 0.103147 1.521182
v 0.140669 0 1.74799
v 0.099468 0.099468 1.74799
v 0 0 2.438618
v -0.249018 0.103147 1.521182
v -0.103147 0.249019 1.521182
v -0.099468 0.099468 1.74799
v -0.268864 0.268864 1.31971
v -0.240147 0.579768 1.075301
v 0.240148 -0.579768 1.075301
v -0.240148 -0.579768 1.075301
v 0 -0.380231 1.31971
v 0 -0.788846 0.72694
v -0.557798 -0.557799 0.72694
v -0.310704 -0.750106 0.426605
v 0 0.380231 1.31971
v 0.240148 0.579768 1.075301
v 0.268864 0.268864 1.31971
v 0.103147 0.249019 1.521182
v 0 0.140669 1.74799
v -0.103147 0.249019 1.521182
v 0.249018 -0.103147 1.521182
v 0.103147 -0.249018 1.521182
v 0.099468 -0.099468 1.74799
v 0.268864 -0.268864 1.31971
v 0.240148 -0.579768 1.075301
v -0.310704 -0.750106 0.426605
v -0.750106 -0.310704 0.426605
v -0.557798 -0.557799 0.72694
v -0.5 -0.5 0.125
v 0.140669 0 1.74799
v 0.099468 -0.099468 1.74799
v 0 0 2.438618
v 0.249018 -0.103147 1.521182
v 0.788846 0 0.72694
v 0.557798 -0.557799 0.72694
v 0.579768 -0.240148 1.075301
v 0.750106 -0.310704 0.426605
v 0.579768 0.240148 1.075301
v 0.788846 0 0.72694
v 0.579768 -0.240148 1.075301
v 0.380231 0 1.31971
v 0 0.788846 0.72694
v 0 0.380231 1.31971
v -0.240147 0.579768 1.075301
v 0.240148 0.579768 1.075301
v 0.557798 0.557799 0.72694
v 0.310704 0.750106 0.426605
v 0.268864 0.268864 1.31971
v 0.579768 0.240148 1.075301
v 0.380231 0 1.31971
v 0.249018 0.103147 1.521182
v 0.103147 0.249019 1.521182
v 0.099468 0.099468 1.74799
v 0.310704 0.750106 0.426605
v 0.750106 0.310704 0.426605
v 0.557798 0.557799 0.72694
v 0.5 0.5 0.125
v 0.240148 0.579768 1.075301
v 0.579768 0.240148 1.075301
v 0.268864 0.268864 1.31971
v 0.557798 0.557799 0.72694
v 0.788846 0 0.72694
v 0.750106 0.310704 0.426605
v 0.750106 -0.310704 0.426605
v 0.310704 -0.750106 0.426605
v 0.557798 -0.557799 0.72694
v 0.5 -0.5 0.125
v -0.140669 0 1.74799
v -0.099468 0.099468 1.74799
v 0 0 2.438618
v -0.249018 0.103147 1.521182
v 0.099468 -0.099468 1.74799
v 0 -0.140669 1.74799
v 0 0 2.438618
v 0.103147 -0.249018 1.521182
v 0.103147 0.249019 1.521182
v 0.099468 0.099468 1.74799
v 0 0.140669 1.74799
v 0 0 2.438618
v 0.103147 -0.249018 1.521182
v 0 -0.380231 1.31971
v -0.103147 -0.249019 1.521182
v 0 -0.140669 1.74799
v 0.380231 0 1.31971
v 0.579768 -0.240148 1.075301
v 0.268864 -0.268864 1.31971
v 0.249018 -0.103147 1.521182
v 0.249018 0.103147 1.521182
v 0.140669 0 1.74799
v -0.557798 -0.557799 0.72694
v -0.268864 -0.268864 1.31971
v -0.240148 -0.579768 1.075301
v -0.579768 -0.240148 1.075301
v -0.788846 0 0.72694
v -0.750106 -0.310704 0.426605
v -0.099468 -0.099468 1.74799
v 0 0 2.438618
v 0 -0.140669 1.74799
v -0.103147 -0.249019 1.521182
v -0.103147 -0.249019 1.521182
v -0.268864 -0.268864 1.31971
v -0.249018 -0.103147 1.521182
v -0.099468 -0.099468 1.74799
v -0.268864 -0.268864 1.31971
v -0.579768 -0.240148 1.075301
v -0.380231 0 1.31971
v -0.249018 -0.103147 1.521182
v -0.788846 0 0.72694
v -0.557798 0.557799 0.72694
v -0.579768 0.240148 1.075301
v -0.750106 0.310704 0.426605
v -0.750106 0.310704 0.426605
v -0.310704 0.750106 0.426605
v -0.557798 0.557799 0.72694
v -0.5 0.5 0.125
v -0.249018 -0.103147 1.521182
v -0.140669 0 1.74799
v -0.099468 -0.099468 1.74799
v 0 0 2.438618
v -0.380231 0 1.31971
v -0.579768 0.240148 1.075301
v -0.268864 0.268864 1.31971
v -0.249018 0.103147 1.521182
v -0.579768 0.240148 1.075301
v -0.240147 0.579768 1.075301
v -0.268864 0.268864 1.31971
v -0.557798 0.557799 0.72694
v 0 0.788846 0.72694
v -0.310704 0.750106 0.426605
v -0.380231 0 1.31971
v -0.249018 0.103147 1.521182
v -0.140669 0 1.74799
v -0.249018 -0.103147 1.521182
v -0.625 -0.625 0.125
v -0.625 -0.625 0
v -0.625 0.625 0
v -0.625 0.625 0.125
v 0.625 -0.625 0.125
v 0.625 -0.625 0
v -0.625 -0.625 0
v -0.625 -0.625 0.125
v -0.625 0.625 0.125
v -0.625 0.625 0
v 0.625 0.625 0
v 0.625 0.625 0.125
v -0.625 -0.625 0
v 0.625 -0.625 0
v 0.625 0.625 0
v -0.625 0.625 0
v 0.625 0.625 0.125
v 0.625 0.625 0
v 0.625 -0.625 0
v 0.625 -0.625 0.125
v -0.625 -0.625 0.125
v -0.625 0.625 0.125
v -0.5 0 0.125327
v 0.625 -0.625 0.125
v -0.5 -0.5 0.125
v 0.625 0.625 0.125
v 0.5 0.5 0.125
v 0.5 0 0.125327
vt 0.4541061 0.362591
vt 0.4541061 0.3625864
vt 0.4470419 0.3668458
vt 0.4823506 0.362591
vt 0.4823506 0.3625864
vt 0.4894149 0.3668458
vt 0.4470419 0.3668458
vt 0.4541061 0.3625864
vt 0.4541061 0.362591
vt 0.4470419 0.3668458
vt 0.4470419 0.3668458
vt 0.4459478 0.3710872
vt 0.43 0.3925892
vt 0.4305356 0.4040178
vt 0.4617856 0.4040178
vt 0.43 0.3925892
vt 0.4305356 0.4040178
vt 0.4617856 0.4040178
vt 0.4594526 0.3668458
vt 0.4541061 0.3625864
vt 0.4682284 0.362591
vt 0.4823506 0.3625864
vt 0.4770041 0.3668458
vt 0.4594526 0.3668458
vt 0.483626 0.3808668
vt 0.4678712 0.3808668
vt 0.4746541 0.384397
vt 0.4894149 0.3668458
vt 0.4894149 0.3668458
vt 0.490509 0.3710872
vt 0.4823506 0.362591
vt 0.4894149 0.3668458
vt 0.4823506 0.3625864
vt 0.4894149 0.3668458
vt 0.4894149 0.3668458
vt 0.4514959 0.384397
vt 0.4455906 0.3808668
vt 0.4514959 0.384397
vt 0.4514959 0.384397
vt 0.4514959 0.384397
vt 0.4571317 0.3868738
vt 0.4594526 0.3668458
vt 0.4770041 0.3668458
vt 0.4682284 0.3710872
vt 0.4682284 0.362591
vt 0.4770041 0.3668458
vt 0.4823506 0.3625864
vt 0.4541061 0.3625864
vt 0.4594526 0.3668458
vt 0.4770041 0.3668458
vt 0.4682284 0.3710872
vt 0.476647 0.3778233
vt 0.4678712 0.3808668
vt 0.483626 0.3808668
vt 0.4842465 0.384397
vt 0.4746541 0.384397
vt 0.4754652 0.3868738
vt 0.4502184 0.4141935
vt 0.4537489 0.4141981
vt 0.4537489 0.4141935
vt 0.4855241 0.4141935
vt 0.4678712 0.4141981
vt 0.4819935 0.4141981
vt 0.4819935 0.4141935
vt 0.4537489 0.4141981
vt 0.4502184 0.4141935
vt 0.4537489 0.4141935
vt 0.4819935 0.4141935
vt 0.4678712 0.4141981
vt 0.4855241 0.4141935
vt 0.4819935 0.4141981
vt 0.4855241 0.4141935
vt 0.4678712 0.4141981
vt 0.4819935 0.4141935
vt 0.4502184 0.4141935
vt 0.4678712 0.4141981
vt 0.4537489 0.4141935
vt 0.4617856 0.4040178
vt 0.4305356 0.4040178
vt 0.43 0.3925892
vt 0.4612499 0.3925892
vt 0.5199087 0.4087778
vt 0.5103388 0.41142
vt 0.5242187 0.4115031
vt 0.5103388 0.4185435
vt 0.4920152 0.4087778
vt 0.4824454 0.41142
vt 0.4963255 0.4115031
vt 0.4824454 0.4185435
vt 0.4925 0.3925892
vt 0.4617856 0.4040178
vt 0.4930356 0.4040178
vt 0.4612499 0.3925892
vt 0.43 0.3925892
vt 0.4746541 0.384397
vt 0.4610884 0.384397
vt 0.4678712 0.3868738
vt 0.4678712 0.3808668
vt 0.4521164 0.3808668
vt 0.4590955 0.3778233
vt 0.4612499 0.3925892
vt 0.43 0.3925892
vt 0.4305356 0.4040178
vt 0.4617856 0.4040178
vt 0.4930356 0.4040178
vt 0.4925 0.3925892
vt 0.4925 0.3925892
vt 0.4617856 0.4040178
vt 0.4930356 0.4040178
vt 0.4612499 0.3925892
vt 0.43 0.3925892
vt 0.4594526 0.3668458
vt 0.4470419 0.3668458
vt 0.4524736 0.3710872
vt 0.4541061 0.3625864
vt 0.4544854 0.4115031
vt 0.4406054 0.41142
vt 0.4406054 0.4185435
vt 0.4501754 0.4087778
vt 0.4901519 0.3808668
vt 0.483626 0.3808668
vt 0.4842465 0.384397
vt 0.4890576 0.3778233
vt 0.4842465 0.384397
vt 0.4901519 0.3808668
vt 0.4842465 0.384397
vt 0.4786108 0.3868738
vt 0.4678712 0.3808668
vt 0.4678712 0.3868738
vt 0.4610884 0.384397
vt 0.4746541 0.384397
vt 0.483626 0.3808668
vt 0.476647 0.3778233
vt 0.4612499 0.3925892
vt 0.43 0.3925892
vt 0.4305356 0.4040178
vt 0.4617856 0.4040178
vt 0.4925 0.3925892
vt 0.4930356 0.4040178
vt 0.4770041 0.3668458
vt 0.4894149 0.3668458
vt 0.4839831 0.3710872
vt 0.4823506 0.3625864
vt 0.4746541 0.384397
vt 0.4842465 0.384397
vt 0.4754652 0.3868738
vt 0.483626 0.3808668
vt 0.4901519 0.3808668
vt 0.4890576 0.3778233
vt 0.4894149 0.3668458
vt 0.4770041 0.3668458
vt 0.4839831 0.3710872
vt 0.4823506 0.3625864
vt 0.4684321 0.4115031
vt 0.454552 0.41142
vt 0.454552 0.4185435
vt 0.4641219 0.4087778
vt 0.5102721 0.4115031
vt 0.4963921 0.41142
vt 0.4963921 0.4185435
vt 0.5059619 0.4087778
vt 0.4362288 0.4087778
vt 0.4266586 0.41142
vt 0.4405388 0.4115031
vt 0.4266586 0.4185435
vt 0.4925 0.3925892
vt 0.4612499 0.3925892
vt 0.4617856 0.4040178
vt 0.4930356 0.4040178
vt 0.4612499 0.3925892
vt 0.43 0.3925892
vt 0.4305356 0.4040178
vt 0.4617856 0.4040178
vt 0.4925 0.3925892
vt 0.4930356 0.4040178
vt 0.4521164 0.3808668
vt 0.4602773 0.3868738
vt 0.4610884 0.384397
vt 0.4514959 0.384397
vt 0.4455906 0.3808668
vt 0.4466847 0.3778233
vt 0.4684988 0.41142
vt 0.4684989 0.4185435
vt 0.4823788 0.4115031
vt 0.4780686 0.4087778
vt 0.4612499 0.3926785
vt 0.4612499 0.3925892
vt 0.4612499 0.3926785
vt 0.4305356 0.4040178
vt 0.4612499 0.3926785
vt 0.4925 0.3925892
vt 0.4612499 0.3926785
vt 0.4612499 0.3925892
vt 0.4455906 0.3808668
vt 0.4521164 0.3808668
vt 0.4514959 0.384397
vt 0.4466847 0.3778233
vt 0.4470419 0.3668458
vt 0.4594526 0.3668458
vt 0.4524736 0.3710872
vt 0.4541061 0.3625864
vt 0.4222817 0.4087778
vt 0.412712 0.41142
vt 0.426592 0.4115031
vt 0.4127119 0.4185435
vt 0.4612499 0.3925892
vt 0.43 0.3925892
vt 0.4305356 0.4040178
vt 0.4617856 0.4040178
vt 0.4514959 0.384397
vt 0.4610884 0.384397
vt 0.4602773 0.3868738
vt 0.4521164 0.3808668
vt 0.4678712 0.3808668
vt 0.4590955 0.3778233
vt 0.4612499 0.3925892
vt 0.4617856 0.4040178
vt 0.4930356 0.4040178
vt 0.4925 0.3925892
vt 0.4502184 0.4141935
vt 0.4502184 0.4124282
vt 0.4502184 0.4124281
vt 0.4502184 0.4141935
vt 0.4855241 0.4141935
vt 0.4855241 0.4124282
vt 0.4502184 0.4124282
vt 0.4502184 0.4141935
vt 0.4502184 0.4141935
vt 0.4502184 0.4124281
vt 0.4855241 0.4124281
vt 0.4855241 0.4141935
vt 0.4502184 0.4124282
vt 0.4855241 0.4124282
vt 0.4855241 0.4124281
vt 0.4502184 0.4124281
vt 0.4855241 0.4141935
vt 0.4855241 0.4124281
vt 0.4855241 0.4124282
vt 0.4855241 0.4141935
vt 0.4502184 0.4141935
vt 0.4502184 0.4141935
vt 0.4537489 0.4141981
vt 0.4855241 0.4141935
vt 0.4537489 0.4141935
vt 0.4855241 0.4141935
vt 0.4819935 0.4141935
vt 0.4819935 0.4141981
vn -0.7695055 -0.0001525949 -0.6386401
vn -0.7696303 -0.0003967481 -0.6384897
vn -0.8580579 -0.0001525979 -0.5135529
vn 0.7695055 0.0001525949 -0.6386401
vn 0.7696303 0.0003967481 -0.6384897
vn 0.8580579 0.0001525979 -0.5135529
vn -0.8071158 -0.4493675 -0.3829268
vn -0.8048773 -0.4534206 -0.3828607
vn -0.7696303 0.0003967481 -0.6384897
vn -0.8580579 -0.0001525979 -0.5135529
vn -0.9764051 -0.1959036 -0.09085607
vn -0.9772053 -0.1963261 0.08078271
vn 0.08389764 -0.8030552 0.5899692
vn 0.1858632 -0.7694551 0.6110594
vn 0.5178465 -0.66153 0.5424143
vn -0.08389764 0.8030552 0.5899692
vn -0.1858632 0.7694551 0.6110594
vn -0.5178465 0.66153 0.5424143
vn -0.4493675 0.8071158 -0.3829268
vn -0.4534206 0.8048773 -0.3828607
vn 0.0003967481 0.7696303 -0.6384897
vn -0.0003967481 0.7696303 -0.6384897
vn -0.0001525979 0.8580579 -0.5135529
vn -0.1959036 0.9764051 -0.09085607
vn 0.4640149 -0.7911204 0.3985206
vn 0.1963261 -0.9772053 0.08078271
vn 0.5067676 -0.7289763 0.4601957
vn 0.9764051 0.1959036 -0.09085607
vn 0.8580579 0.0001525979 -0.5135529
vn 0.9772053 0.1963261 0.08078271
vn 0.7696303 -0.0003967481 -0.6384897
vn 0.8071158 0.4493675 -0.3829268
vn 0.8048773 0.4534206 -0.3828607
vn 0.8580579 0.0001525979 -0.5135529
vn 0.9764051 0.1959036 -0.09085607
vn -0.8030552 -0.08389764 0.5899692
vn -0.887523 0.231273 0.3985171
vn -0.8738015 0.157114 0.4602023
vn -0.8030552 -0.08389764 0.5899692
vn -0.8738015 0.157114 0.4602023
vn -0.7694551 -0.1858632 0.6110594
vn -0.1959036 0.9764051 -0.09085607
vn -0.0001525979 0.8580579 -0.5135529
vn -0.1963261 0.9772053 0.08078271
vn 0.0001525949 -0.7695055 -0.6386401
vn 0.4493675 -0.8071158 -0.3829268
vn 0.4534206 -0.8048773 -0.3828607
vn 0.0003967481 -0.7696303 -0.6384897
vn 0.0001525979 -0.8580579 -0.5135529
vn 0.1959036 -0.9764051 -0.09085607
vn 0.1963261 -0.9772053 0.08078271
vn 0.1959036 -0.9764051 -0.09085607
vn 0.1963261 -0.9772053 0.08078271
vn 0.4640149 -0.7911204 0.3985206
vn 0.6271741 -0.5085145 0.5899709
vn 0.5067676 -0.7289763 0.4601957
vn 0.675517 -0.4126532 0.61106
vn -0.0009155825 -0.0009155825 0.9999992
vn -0.0008545441 9.155829E-05 0.9999996
vn -0.001678567 -0.0001831164 0.9999986
vn 0.0001831166 -0.0001831166 1
vn 9.155829E-05 -0.0008545441 0.9999996
vn 0.0008545441 -9.155829E-05 0.9999996
vn -0.000640908 -0.000640908 0.9999996
vn -0.0008545441 9.155829E-05 0.9999996
vn -0.0001831166 0.0001831166 1
vn 0.000640908 0.000640908 0.9999996
vn 0.001678567 0.0001831164 0.9999986
vn -9.155829E-05 0.0008545441 0.9999996
vn 0.0009155825 0.0009155825 0.9999992
vn 0.0008545441 -9.155829E-05 0.9999996
vn 0.0001831166 -0.0001831166 1
vn 0.000640908 0.000640908 0.9999996
vn 0.000640908 0.000640908 0.9999996
vn -0.0001831166 0.0001831166 1
vn -0.000640908 -0.000640908 0.9999996
vn -0.000640908 -0.000640908 0.9999996
vn -0.2176322 -0.7734167 0.5953679
vn -0.5085145 -0.6271741 0.5899709
vn -0.4126532 -0.675517 0.61106
vn -0.1015989 -0.8339411 0.5424203
vn -0.04785429 0.8664434 0.4969765
vn -0.2840425 0.8771533 0.3871975
vn -0.3580225 0.8643691 0.3531089
vn -0.3760876 0.9079451 0.1849156
vn 0.8664434 0.04785429 0.4969765
vn 0.8771533 0.2840425 0.3871975
vn 0.8643691 0.3580225 0.3531089
vn 0.9079451 0.3760876 0.1849156
vn -0.6465152 0.5788239 0.496972
vn -0.5178465 0.66153 0.5424143
vn -0.821099 0.4193697 0.3872021
vn -0.392969 0.7007887 0.5953743
vn -0.08389764 0.8030552 0.5899692
vn 0.08389764 -0.8030552 0.5899692
vn -0.157114 -0.8738015 0.4602023
vn 0.1858632 -0.7694551 0.6110594
vn -0.231273 -0.887523 0.3985171
vn -0.5521545 -0.8298188 0.08078449
vn -0.5570394 -0.8276851 0.06814973
vn 0.2176322 0.7734167 0.5953679
vn 0.5085145 0.6271741 0.5899709
vn 0.4126532 0.675517 0.61106
vn 0.1015989 0.8339411 0.5424203
vn -0.2840425 0.8771533 0.3871975
vn -0.04785429 0.8664434 0.4969765
vn 0.6465152 -0.5788239 0.496972
vn 0.5178465 -0.66153 0.5424143
vn 0.821099 -0.4193697 0.3872021
vn 0.392969 -0.7007887 0.5953743
vn 0.08389764 -0.8030552 0.5899692
vn -0.5570394 -0.8276851 0.06814973
vn -0.8071158 -0.4493675 -0.3829268
vn -0.5521545 -0.8298188 0.08078449
vn -0.8048773 -0.4534206 -0.3828607
vn 0.8643691 -0.3580225 0.3531089
vn 0.821099 -0.4193697 0.3872021
vn 0.9079451 -0.3760876 0.1849156
vn 0.6465152 -0.5788239 0.496972
vn 0.887523 -0.231273 0.3985171
vn 0.8298188 -0.5521545 0.08078449
vn 0.8738015 -0.157114 0.4602023
vn 0.8276851 -0.5570394 0.06814973
vn 0.8030552 0.08389764 0.5899692
vn 0.887523 -0.231273 0.3985171
vn 0.8738015 -0.157114 0.4602023
vn 0.7694551 0.1858632 0.6110594
vn 0.231273 0.887523 0.3985171
vn -0.1858632 0.7694551 0.6110594
vn -0.08389764 0.8030552 0.5899692
vn 0.157114 0.8738015 0.4602023
vn 0.5521545 0.8298188 0.08078449
vn 0.5570394 0.8276851 0.06814973
vn 0.7007887 0.392969 0.5953743
vn 0.8030552 0.08389764 0.5899692
vn 0.7694551 0.1858632 0.6110594
vn 0.66153 0.5178465 0.5424143
vn 0.5788239 0.6465152 0.496972
vn 0.4193697 0.821099 0.3872021
vn 0.5570394 0.8276851 0.06814973
vn 0.8071158 0.4493675 -0.3829268
vn 0.5521545 0.8298188 0.08078449
vn 0.8048773 0.4534206 -0.3828607
vn 0.5085145 0.6271741 0.5899709
vn 0.7289763 0.5067676 0.4601957
vn 0.4126532 0.675517 0.61106
vn 0.7911204 0.4640149 0.3985206
vn 0.9772053 0.1963261 0.08078271
vn 0.9764051 0.1959036 -0.09085607
vn 0.8276851 -0.5570394 0.06814973
vn 0.4493675 -0.8071158 -0.3829268
vn 0.8298188 -0.5521545 0.08078449
vn 0.4534206 -0.8048773 -0.3828607
vn -0.8643691 0.3580225 0.3531089
vn -0.821099 0.4193697 0.3872021
vn -0.9079451 0.3760876 0.1849156
vn -0.6465152 0.5788239 0.496972
vn 0.3580225 -0.8643691 0.3531089
vn 0.2840425 -0.8771533 0.3871975
vn 0.3760876 -0.9079451 0.1849156
vn 0.04785429 -0.8664434 0.4969765
vn 0.5788239 0.6465152 0.496972
vn 0.4193697 0.821099 0.3872021
vn 0.3580225 0.8643691 0.3531089
vn 0.3760876 0.9079451 0.1849156
vn 0.04785429 -0.8664434 0.4969765
vn -0.2176322 -0.7734167 0.5953679
vn -0.1015989 -0.8339411 0.5424203
vn 0.2840425 -0.8771533 0.3871975
vn 0.7734167 -0.2176322 0.5953679
vn 0.6271741 -0.5085145 0.5899709
vn 0.675517 -0.4126532 0.61106
vn 0.8339411 -0.1015989 0.5424203
vn 0.8664434 0.04785429 0.4969765
vn 0.8771533 0.2840425 0.3871975
vn -0.7911204 -0.4640149 0.3985206
vn -0.4126532 -0.675517 0.61106
vn -0.5085145 -0.6271741 0.5899709
vn -0.7289763 -0.5067676 0.4601957
vn -0.9772053 -0.1963261 0.08078271
vn -0.9764051 -0.1959036 -0.09085607
vn -0.4193697 -0.821099 0.3872021
vn -0.3760876 -0.9079451 0.1849156
vn -0.3580225 -0.8643691 0.3531089
vn -0.5788239 -0.6465152 0.496972
vn -0.5788239 -0.6465152 0.496972
vn -0.7007887 -0.392969 0.5953743
vn -0.66153 -0.5178465 0.5424143
vn -0.4193697 -0.821099 0.3872021
vn -0.7007887 -0.392969 0.5953743
vn -0.8030552 -0.08389764 0.5899692
vn -0.7694551 -0.1858632 0.6110594
vn -0.66153 -0.5178465 0.5424143
vn -0.887523 0.231273 0.3985171
vn -0.8298188 0.5521545 0.08078449
vn -0.8738015 0.157114 0.4602023
vn -0.8276851 0.5570394 0.06814973
vn -0.8276851 0.5570394 0.06814973
vn -0.4493675 0.8071158 -0.3829268
vn -0.8298188 0.5521545 0.08078449
vn -0.4534206 0.8048773 -0.3828607
vn -0.8664434 -0.04785429 0.4969765
vn -0.8771533 -0.2840425 0.3871975
vn -0.8643691 -0.3580225 0.3531089
vn -0.9079451 -0.3760876 0.1849156
vn -0.7734167 0.2176322 0.5953679
vn -0.6271741 0.5085145 0.5899709
vn -0.675517 0.4126532 0.61106
vn -0.8339411 0.1015989 0.5424203
vn -0.6271741 0.5085145 0.5899709
vn -0.5067676 0.7289763 0.4601957
vn -0.675517 0.4126532 0.61106
vn -0.4640149 0.7911204 0.3985206
vn -0.1963261 0.9772053 0.08078271
vn -0.1959036 0.9764051 -0.09085607
vn -0.7734167 0.2176322 0.5953679
vn -0.8339411 0.1015989 0.5424203
vn -0.8771533 -0.2840425 0.3871975
vn -0.8664434 -0.04785429 0.4969765
vn -1 0 0
vn -1 0 0
vn -1 0 0
vn -1 0 0
vn 0 -1 0
vn 0 -1 0
vn 0 -1 0
vn 0 -1 0
vn 0 1 0
vn 0 1 0
vn 0 1 0
vn 0 1 0
vn 0 0 -1
vn 0 0 -1
vn 0 0 -1
vn 0 0 -1
vn 1 0 0
vn 1 0 0
vn 1 0 0
vn 1 0 0
vn -0.0009155825 -0.0009155825 0.9999992
vn -0.0001831166 0.0001831166 1
vn -0.0008545441 9.155829E-05 0.9999996
vn 0.0001831166 -0.0001831166 1
vn -0.0001831164 -0.001678567 0.9999986
vn 0.0009155825 0.0009155825 0.9999992
vn 0.0001831164 0.001678567 0.9999986
vn 0.0008545441 -9.155829E-05 0.9999996
g Thief_RooftopK_Pink_0
f 3/3/3 2/2/2 1/1/1
f 6/6/6 5/5/5 4/4/4
f 9/9/9 8/8/8 7/7/7
f 11/11/11 10/10/10 9/9/9
f 12/12/12 10/10/10 11/11/11
f 15/15/15 14/14/14 13/13/13
f 18/18/18 17/17/17 16/16/16
f 21/21/21 20/20/20 19/19/19
f 23/23/23 22/22/22 21/21/21
f 24/24/24 23/23/23 21/21/21
f 27/27/27 26/26/26 25/25/25
f 30/30/30 29/29/29 28/28/28
f 33/33/33 32/32/32 31/31/31
f 35/35/35 34/34/34 31/31/31
f 38/38/38 37/37/37 36/36/36
f 41/41/41 40/40/40 39/39/39
f 44/44/44 43/43/43 42/42/42
f 47/47/47 46/46/46 45/45/45
f 45/45/45 49/49/49 48/48/48
f 50/50/50 49/49/49 45/45/45
f 51/51/51 49/49/49 50/50/50
f 54/54/54 53/53/53 52/52/52
f 56/56/56 54/54/54 55/55/55
f 57/57/57 56/56/56 55/55/55
f 60/60/60 59/59/59 58/58/58
f 62/62/62 60/60/60 61/61/61
f 64/64/64 61/61/61 63/63/63
f 67/67/67 66/66/66 65/65/65
f 69/69/69 68/68/68 66/66/66
f 68/68/68 71/71/71 70/70/70
f 74/74/74 73/73/73 72/72/72
f 77/77/77 76/76/76 75/75/75
f 80/80/80 79/79/79 78/78/78
f 81/81/81 80/80/80 78/78/78
f 84/84/84 83/83/83 82/82/82
f 85/85/85 83/83/83 84/84/84
f 88/88/88 87/87/87 86/86/86
f 89/89/89 87/87/87 88/88/88
f 92/92/92 91/91/91 90/90/90
f 91/91/91 93/93/93 90/90/90
f 93/93/93 91/91/91 94/94/94
f 97/97/97 96/96/96 95/95/95
f 96/96/96 98/98/98 95/95/95
f 96/96/96 99/99/99 98/98/98
f 98/98/98 99/99/99 100/100/100
f 103/103/103 102/102/102 101/101/101
f 104/104/104 103/103/103 101/101/101
f 105/105/105 104/104/104 101/101/101
f 106/106/106 105/105/105 101/101/101
f 109/109/109 108/108/108 107/107/107
f 108/108/108 110/110/110 107/107/107
f 110/110/110 108/108/108 111/111/111
f 114/114/114 113/113/113 112/112/112
f 112/112/112 113/113/113 115/115/115
f 118/118/118 117/117/117 116/116/116
f 116/116/116 117/117/117 119/119/119
f 122/122/122 121/121/121 120/120/120
f 120/120/120 121/121/121 123/123/123
f 126/126/126 125/125/125 124/124/124
f 127/127/127 126/126/126 124/124/124
f 130/130/130 129/129/129 128/128/128
f 129/129/129 131/131/131 128/128/128
f 131/131/131 132/132/132 128/128/128
f 128/128/128 132/132/132 133/133/133
f 136/136/136 135/135/135 134/134/134
f 137/137/137 136/136/136 134/134/134
f 137/137/137 134/134/134 138/138/138
f 139/139/139 137/137/137 138/138/138
f 142/142/142 141/141/141 140/140/140
f 140/140/140 141/141/141 143/143/143
f 146/146/146 145/145/145 144/144/144
f 145/145/145 147/147/147 144/144/144
f 145/145/145 148/148/148 147/147/147
f 147/147/147 148/148/148 149/149/149
f 152/152/152 151/151/151 150/150/150
f 150/150/150 151/151/151 153/153/153
f 156/156/156 155/155/155 154/154/154
f 154/154/154 155/155/155 157/157/157
f 160/160/160 159/159/159 158/158/158
f 158/158/158 159/159/159 161/161/161
f 164/164/164 163/163/163 162/162/162
f 165/165/165 163/163/163 164/164/164
f 168/168/168 167/167/167 166/166/166
f 169/169/169 168/168/168 166/166/166
f 172/172/172 171/171/171 170/170/170
f 173/173/173 172/172/172 170/170/170
f 173/173/173 170/170/170 174/174/174
f 175/175/175 173/173/173 174/174/174
f 178/178/178 177/177/177 176/176/176
f 177/177/177 179/179/179 176/176/176
f 179/179/179 180/180/180 176/176/176
f 176/176/176 180/180/180 181/181/181
f 184/184/184 183/183/183 182/182/182
f 185/185/185 184/184/184 182/182/182
f 188/188/188 187/187/187 186/186/186
f 189/189/189 188/188/188 186/186/186
f 192/192/192 191/191/191 190/190/190
f 193/193/193 192/192/192 190/190/190
f 196/196/196 195/195/195 194/194/194
f 194/194/194 195/195/195 197/197/197
f 200/200/200 199/199/199 198/198/198
f 198/198/198 199/199/199 201/201/201
f 204/204/204 203/203/203 202/202/202
f 205/205/205 203/203/203 204/204/204
f 208/208/208 207/207/207 206/206/206
f 209/209/209 208/208/208 206/206/206
f 212/212/212 211/211/211 210/210/210
f 211/211/211 213/213/213 210/210/210
f 211/211/211 214/214/214 213/213/213
f 213/213/213 214/214/214 215/215/215
f 218/218/218 217/217/217 216/216/216
f 219/219/219 218/218/218 216/216/216
f 222/222/222 221/221/221 220/220/220
f 223/223/223 222/222/222 220/220/220
f 226/226/226 225/225/225 224/224/224
f 227/227/227 226/226/226 224/224/224
f 230/230/230 229/229/229 228/228/228
f 231/231/231 230/230/230 228/228/228
f 234/234/234 233/233/233 232/232/232
f 235/235/235 234/234/234 232/232/232
f 238/238/238 237/237/237 236/236/236
f 239/239/239 238/238/238 236/236/236
f 242/242/242 241/241/241 240/240/240
f 244/244/244 240/240/240 243/243/243
f 246/246/246 245/245/245 241/241/241
f 247/247/247 243/243/243 245/245/245
