g Totem_Cube3
v 0.5 -0.5 0.752213
v 0.095757 -0.5 0.875
v 0.5 -0.443199 0.875
v -0.389047 0.5 0.247467
v -0.5 0.373648 0.245858
v -0.5 0.5 0.247669
v 0.5 0.283386 0
v 0.5 0.5 0.09582
v 0.318237 0.5 0
v -0.5 0.5 0.374802
v -0.5 0.404702 0.375975
v -0.407732 0.5 0.37487
v -0.5 0.5 0.124733
v -0.5 0.345043 0.125999
v -0.371201 0.5 0.125791
v -0.438045 0.5 0.491261
v -0.5 0.421063 0.495536
v -0.5 0.5 0.491498
v -0.5 0.5 0.609665
v -0.5 0.421063 0.495536
v -0.438045 0.5 0.491261
v 0.5 -0.5 0.752213
v 0.5 -0.5 0
v -0.5 -0.5 0
v -0.5 -0.5 0.875
v 0.095757 -0.5 0.875
v -0.4375 0.4375 0.875
v 0.4375 0.4375 0.875
v 0.4375 0.4375 1
v -0.4375 0.4375 1
v 0.4375 0.4375 0.875
v 0.4375 -0.4375 0.875
v 0.4375 -0.4375 1
v 0.4375 0.4375 1
v -0.4375 -0.4375 0.875
v -0.4375 0.4375 0.875
v -0.4375 0.4375 1
v -0.4375 -0.4375 1
v 0.093112 -0.098185 1
v 0.141542 -0.098185 0.875
v 0.117375 -0.3125 0.875
v 0.068945 -0.3125 1
v 0.068945 -0.3125 1
v 0.117375 -0.3125 0.875
v 0.102341 -0.4375 0.875
v 0.05481 -0.4375 1
v 0.182184 -0.3125 1
v 0.230614 -0.3125 0.875
v 0.141542 -0.098185 0.875
v 0.093112 -0.098185 1
v -0.4375 -0.4375 1
v 0.068945 -0.3125 1
v 0.05481 -0.4375 1
v -0.3125 -0.3125 1
v -0.4375 0.4375 1
v -0.3125 0.3125 1
v 0.4375 0.4375 1
v 0.3125 0.3125 1
v 0.4375 -0.4375 1
v 0.3125 -0.3125 1
v 0.234055 -0.4375 1
v 0.182184 -0.3125 1
v 0.102341 -0.4375 0.875
v -0.4375 -0.4375 0.875
v -0.4375 -0.4375 1
v 0.05481 -0.4375 1
v -0.3125 0.3125 1
v 0.3125 0.3125 1
v 0.3125 -0.3125 1
v 0.093112 -0.098185 1
v 0.182184 -0.3125 1
v 0.068945 -0.3125 1
v -0.3125 -0.3125 1
v 0.234055 -0.4375 1
v 0.283046 -0.4375 0.875
v 0.230614 -0.3125 0.875
v 0.182184 -0.3125 1
v 0.4375 -0.4375 0.875
v 0.283046 -0.4375 0.875
v 0.234055 -0.4375 1
v 0.4375 -0.4375 1
v -0.5 0.5 0.875
v 0.5 0.5 0.875
v 0.5 -0.443199 0.875
v 0.095757 -0.5 0.875
v -0.5 -0.5 0.875
v -0.5 0.421063 0.495536
v -0.5 0.5 0.374802
v -0.5 0.5 0.491498
v -0.5 0.404702 0.375975
v -0.5 -0.5 0.875
v -0.5 0.5 0.609665
v -0.5 0.5 0.875
v -0.5 0.373648 0.245858
v -0.5 -0.5 0
v -0.5 0.345043 0.125999
v -0.5 0.314972 0
v -0.5 0.5 0.247669
v -0.5 0.5 0.124733
v -0.407732 0.5 0.37487
v -0.5 0.404702 0.375975
v -0.5 0.373648 0.245858
v -0.389047 0.5 0.247467
v -0.5 0.5 0.124733
v -0.389047 0.5 0.247467
v -0.5 0.5 0.247669
v -0.371201 0.5 0.125791
v 0.318237 0.5 0
v -0.352753 0.5 0
v 0.5 0.5 0.09582
v -0.407732 0.5 0.37487
v 0.5 0.5 0.875
v -0.438045 0.5 0.491261
v -0.5 0.5 0.374802
v -0.5 0.5 0.491498
v -0.5 0.5 0.609665
v -0.5 0.5 0.875
v -0.371201 0.5 0.125791
v -0.5 0.345043 0.125999
v -0.5 0.314972 0
v -0.352753 0.5 0
v -0.5 -0.5 0
v 0.5 -0.5 0
v 0.5 0.283386 0
v 0.318237 0.5 0
v -0.352753 0.5 0
v -0.5 0.314972 0
v 0.5 0.283386 0
v 0.5 -0.5 0
v 0.5 -0.5 0.752213
v 0.5 -0.443199 0.875
v 0.5 0.5 0.875
v 0.5 0.5 0.09582
vt 0.986236 0.981866
vt 0.97613 0.984936
vt 0.986236 0.984936
vt 0.873327 0.83726
vt 0.870168 0.836483
vt 0.873327 0.836529
vt 0.989136 0.968578
vt 0.989136 0.983587
vt 0.976541 0.983587
vt 0.362613 0.60935
vt 0.360231 0.609379
vt 0.362613 0.607876
vt 0.362613 0.603098
vt 0.358739 0.60313
vt 0.362613 0.601421
vt 0.889285 0.838106
vt 0.869551 0.829241
vt 0.889285 0.828231
vt 0.98219 0.984219
vt 0.980217 0.981366
vt 0.98219 0.982252
vt 0.25 0.688053
vt 0.25 0.5
vt 0 0.5
vt 0 0.71875
vt 0.148939 0.71875
vt 0.893969 0.648089
vt 0.984406 0.648089
vt 0.984406 0.722734
vt 0.893969 0.722734
vt 0.862629 0.642787
vt 0.768943 0.642787
vt 0.768943 0.733371
vt 0.862629 0.733371
vt 0.768943 0.642787
vt 0.862629 0.642787
vt 0.862629 0.733371
vt 0.768943 0.733371
vt 0.827871 0.652395
vt 0.813033 0.687123
vt 0.821357 0.715108
vt 0.836196 0.68038
vt 0.415272 0.100159
vt 0.415272 0.100159
vt 0.410058 0.097449
vt 0.410058 0.097449
vt 0.801499 0.680588
vt 0.78666 0.715315
vt 0.813033 0.687123
vt 0.827871 0.652395
vt 0.965493 0.98505
vt 0.975186 0.982428
vt 0.973294 0.981444
vt 0.969142 0.985222
vt 0.977171 0.99266
vt 0.977483 0.990657
vt 0.991036 0.98625
vt 0.987387 0.986079
vt 0.979357 0.978641
vt 0.979045 0.980644
vt 0.976134 0.980131
vt 0.97698 0.981598
vt 0.949765 0.648089
vt 0.893969 0.648089
vt 0.893969 0.722734
vt 0.944852 0.722734
vt 0.308419 0.142892
vt 0.406705 0.142892
vt 0.406705 0.044605
vt 0.372205 0.078308
vt 0.386212 0.044605
vt 0.368404 0.044605
vt 0.308419 0.044605
vt 0.417885 0.09383
vt 0.417885 0.09383
vt 0.420217 0.097873
vt 0.420217 0.097873
vt 0.984406 0.648089
vt 0.968442 0.648089
vt 0.963379 0.722734
vt 0.984406 0.722734
vt 0.91214 0.559655
vt 0.932775 0.559655
vt 0.932775 0.540192
vt 0.924433 0.53902
vt 0.91214 0.53902
vt 0.480266 0.623884
vt 0.5 0.5937
vt 0.5 0.622874
vt 0.476175 0.593994
vt 0.25 0.71875
vt 0.5 0.652416
vt 0.5 0.71875
vt 0.468412 0.561464
vt 0.25 0.5
vt 0.461261 0.5315
vt 0.453743 0.5
vt 0.5 0.561917
vt 0.5 0.531183
vt 0.987527 0.986307
vt 0.985144 0.98781
vt 0.984368 0.984558
vt 0.987527 0.985334
vt 0.75047 0.531183
vt 0.722679 0.561867
vt 0.75047 0.561917
vt 0.71821 0.531448
vt 0.545659 0.500179
vt 0.713589 0.5
vt 0.500145 0.524758
vt 0.727359 0.593717
vt 0.5 0.71875
vt 0.726763 0.622815
vt 0.75047 0.5937
vt 0.75047 0.622874
vt 0.75047 0.652416
vt 0.75047 0.71875
vt 0.987527 0.979852
vt 0.983653 0.981561
vt 0.982901 0.978411
vt 0.987527 0.978411
vt 0.752899 0.62858
vt 0.872257 0.62858
vt 0.872257 0.722084
vt 0.850563 0.747938
vt 0.770474 0.747938
vt 0.752899 0.725854
vt 0.445846 0.5
vt 0.25 0.5
vt 0.25 0.688053
vt 0.2642 0.71875
vt 0.5 0.71875
vt 0.5 0.523955
vn 0.126504 -0.900301 0.416479
vn 0.126504 -0.900301 0.416479
vn 0.126504 -0.900301 0.416479
vn 0.001824999 -0.01433299 0.9998956
vn 0.001824999 -0.01433299 0.9998956
vn 0.001824999 -0.01433299 0.9998956
vn 0.4342741 0.3644041 -0.8237813
vn 0.4342741 0.3644041 -0.8237813
vn 0.4342741 0.3644041 -0.8237813
vn 0.0007419999 -0.012317 -0.9999239
vn 0.0007419999 -0.012317 -0.9999239
vn 0.0007419999 -0.012317 -0.9999239
vn 0.008213999 -0.008166999 -0.9999329
vn 0.008213999 -0.008166999 -0.9999329
vn 0.008213999 -0.008166999 -0.9999329
vn 0.003828001 0.05107801 0.9986873
vn 0.003828001 0.05107801 0.9986873
vn 0.003828001 0.05107801 0.9986873
vn -0.7359843 0.5567962 -0.3851041
vn -0.7359843 0.5567962 -0.3851041
vn -0.7359843 0.5567962 -0.3851041
vn 0 -1 0
vn 0 -1 0
vn 0 -1 0
vn 0 -1 0
vn 0 -1 0
vn 0 1 0
vn 0 1 0
vn 0 1 0
vn 0 1 0
vn 1 0 0
vn 1 0 0
vn 1 0 0
vn 1 0 0
vn -1 0 0
vn -1 0 0
vn -1 0 0
vn -1 0 0
vn 0.927349 -0.104572 0.359289
vn 0.927349 -0.104572 0.359289
vn 0.927349 -0.104572 0.359289
vn 0.927349 -0.104572 0.359289
vn 0.9280972 -0.108288 0.3562431
vn 0.9280972 -0.108288 0.3562431
vn 0.9280972 -0.108288 0.3562431
vn 0.9280972 -0.108288 0.3562431
vn -0.869453 -0.361357 -0.336857
vn -0.869453 -0.361357 -0.336857
vn -0.869453 -0.361357 -0.336857
vn -0.869453 -0.361357 -0.336857
vn 0 0 1
vn 0 0 1
vn 0 0 1
vn 0 0 1
vn 0 0 1
vn 0 0 1
vn 0 0 1
vn 0 0 1
vn 0 0 1
vn 0 0 1
vn 0 0 1
vn 0 0 1
vn 0 -1 0
vn 0 -1 0
vn 0 -1 0
vn 0 -1 0
vn 0 0 1
vn 0 0 1
vn 0 0 1
vn 0 0 1
vn 0 0 1
vn 0 0 1
vn 0 0 1
vn -0.8684442 -0.3623221 -0.338419
vn -0.8684442 -0.3623221 -0.338419
vn -0.8684442 -0.3623221 -0.338419
vn -0.8684442 -0.3623221 -0.338419
vn 0 -1 0
vn 0 -1 0
vn 0 -1 0
vn 0 -1 0
vn 0 0 1
vn 0 0 1
vn 0 0 1
vn 0 0 1
vn 0 0 1
vn -1 0 0
vn -1 0 0
vn -1 0 0
vn -1 0 0
vn -1 0 0
vn -1 0 0
vn -1 0 0
vn -1 0 0
vn -1 0 0
vn -1 0 0
vn -1 0 0
vn -1 0 0
vn -1 0 0
vn -0.7303081 0.6698921 -0.133771
vn -0.7303081 0.6698921 -0.133771
vn -0.7303081 0.6698921 -0.133771
vn -0.7303081 0.6698921 -0.133771
vn 0 1 0
vn 0 1 0
vn 0 1 0
vn 0 1 0
vn 0 1 0
vn 0 1 0
vn 0 1 0
vn 0 1 0
vn 0 1 0
vn 0 1 0
vn 0 1 0
vn 0 1 0
vn 0 1 0
vn 0 1 0
vn -0.7696761 0.6248461 -0.131019
vn -0.7696761 0.6248461 -0.131019
vn -0.7696761 0.6248461 -0.131019
vn -0.7696761 0.6248461 -0.131019
vn 0 0 -1
vn 0 0 -1
vn 0 0 -1
vn 0 0 -1
vn 0 0 -1
vn 0 0 -1
vn 1 0 0
vn 1 0 0
vn 1 0 0
vn 1 0 0
vn 1 0 0
vn 1 0 0
g Totem_Cube3_0
f 3/3/3 2/2/2 1/1/1
f 6/6/6 5/5/5 4/4/4
f 9/9/9 8/8/8 7/7/7
f 12/12/12 11/11/11 10/10/10
f 15/15/15 14/14/14 13/13/13
f 18/18/18 17/17/17 16/16/16
f 21/21/21 20/20/20 19/19/19
f 24/24/24 23/23/23 22/22/22
f 22/22/22 25/25/25 24/24/24
f 22/22/22 26/26/26 25/25/25
f 29/29/29 28/28/28 27/27/27
f 30/30/30 29/29/29 27/27/27
f 33/33/33 32/32/32 31/31/31
f 34/34/34 33/33/33 31/31/31
f 37/37/37 36/36/36 35/35/35
f 38/38/38 37/37/37 35/35/35
f 41/41/41 40/40/40 39/39/39
f 42/42/42 41/41/41 39/39/39
f 45/45/45 44/44/44 43/43/43
f 46/46/46 45/45/45 43/43/43
f 49/49/49 48/48/48 47/47/47
f 50/50/50 49/49/49 47/47/47
f 53/53/53 52/52/52 51/51/51
f 52/52/52 54/54/54 51/51/51
f 51/51/51 54/54/54 55/55/55
f 54/54/54 56/56/56 55/55/55
f 55/55/55 56/56/56 57/57/57
f 56/56/56 58/58/58 57/57/57
f 57/57/57 58/58/58 59/59/59
f 58/58/58 60/60/60 59/59/59
f 59/59/59 60/60/60 61/61/61
f 60/60/60 62/62/62 61/61/61
f 65/65/65 64/64/64 63/63/63
f 66/66/66 65/65/65 63/63/63
f 69/69/69 68/68/68 67/67/67
f 67/67/67 70/70/70 69/69/69
f 70/70/70 71/71/71 69/69/69
f 67/67/67 72/72/72 70/70/70
f 67/67/67 73/73/73 72/72/72
f 76/76/76 75/75/75 74/74/74
f 77/77/77 76/76/76 74/74/74
f 80/80/80 79/79/79 78/78/78
f 81/81/81 80/80/80 78/78/78
f 84/84/84 83/83/83 82/82/82
f 82/82/82 85/85/85 84/84/84
f 82/82/82 86/86/86 85/85/85
f 89/89/89 88/88/88 87/87/87
f 88/88/88 90/90/90 87/87/87
f 90/90/90 91/91/91 87/87/87
f 87/87/87 91/91/91 92/92/92
f 92/92/92 91/91/91 93/93/93
f 90/90/90 94/94/94 91/91/91
f 94/94/94 95/95/95 91/91/91
f 94/94/94 96/96/96 95/95/95
f 95/95/95 96/96/96 97/97/97
f 96/96/96 94/94/94 98/98/98
f 99/99/99 96/96/96 98/98/98
f 102/102/102 101/101/101 100/100/100
f 103/103/103 102/102/102 100/100/100
f 106/106/106 105/105/105 104/104/104
f 105/105/105 107/107/107 104/104/104
f 108/108/108 107/107/107 105/105/105
f 109/109/109 107/107/107 108/108/108
f 110/110/110 108/108/108 105/105/105
f 110/110/110 105/105/105 111/111/111
f 112/112/112 110/110/110 111/111/111
f 113/113/113 112/112/112 111/111/111
f 113/113/113 111/111/111 114/114/114
f 115/115/115 113/113/113 114/114/114
f 113/113/113 116/116/116 112/112/112
f 116/116/116 117/117/117 112/112/112
f 120/120/120 119/119/119 118/118/118
f 121/121/121 120/120/120 118/118/118
f 124/124/124 123/123/123 122/122/122
f 122/122/122 125/125/125 124/124/124
f 122/122/122 126/126/126 125/125/125
f 122/122/122 127/127/127 126/126/126
f 130/130/130 129/129/129 128/128/128
f 128/128/128 131/131/131 130/130/130
f 128/128/128 132/132/132 131/131/131
f 128/128/128 133/133/133 132/132/132
