g Totem_Cube2
v -0.5 -0.439743 0.875
v 0.5 -0.5 0.875
v -0.5 -0.5 0.748291
v -0.4375 -0.4375 0.919815
v -0.4375 -0.364809 1
v 0.023743 -0.4375 1
v 0.5 0.5 0.55043
v 0.5 0.391556 0.875
v 0.375175 0.5 0.875
v -0.364075 -0.5 0
v -0.5 0.071045 0
v -0.5 -0.5 0.116455
v -0.5 0.5 0.875
v -0.5 0.5 0
v 0.5 0.5 0
v 0.5 0.5 0.55043
v 0.375175 0.5 0.875
v -0.5 -0.23097 0.341829
v -0.5 -0.176777 0.260723
v -0.5625 -0.176777 0.260723
v -0.5625 -0.23097 0.341829
v -0.5625 -0.23097 0.533171
v -0.5625 -0.25 0.4375
v -0.5625 -0.23097 0.341829
v -0.5625 -0.176777 0.614277
v -0.5625 -0.176777 0.260723
v -0.5625 -0.095671 0.66847
v -0.5625 -0.095671 0.20653
v -0.5625 0 0.6875
v -0.5625 0 0.1875
v -0.5625 0.095671 0.66847
v -0.5625 0.095671 0.20653
v -0.5625 0.176777 0.614277
v -0.5625 0.176777 0.260723
v -0.5625 0.23097 0.533171
v -0.5625 0.23097 0.341829
v -0.5625 0.25 0.4375
v -0.5 -0.23097 0.533171
v -0.5 -0.25 0.4375
v -0.5625 -0.25 0.4375
v -0.5625 -0.23097 0.533171
v -0.5 -0.176777 0.614277
v -0.5 -0.23097 0.533171
v -0.5625 -0.23097 0.533171
v -0.5625 -0.176777 0.614277
v -0.5 -0.095671 0.66847
v -0.5 -0.176777 0.614277
v -0.5625 -0.176777 0.614277
v -0.5625 -0.095671 0.66847
v -0.5 0 0.6875
v -0.5 -0.095671 0.66847
v -0.5625 -0.095671 0.66847
v -0.5625 0 0.6875
v -0.5 0.095671 0.66847
v -0.5 0 0.6875
v -0.5625 0 0.6875
v -0.5625 0.095671 0.66847
v -0.5 0.176777 0.614277
v -0.5 0.095671 0.66847
v -0.5625 0.095671 0.66847
v -0.5625 0.176777 0.614277
v -0.5 0.23097 0.533171
v -0.5 0.176777 0.614277
v -0.5625 0.176777 0.614277
v -0.5625 0.23097 0.533171
v -0.5 0.25 0.4375
v -0.5 0.23097 0.533171
v -0.5625 0.23097 0.533171
v -0.5625 0.25 0.4375
v -0.5 0.23097 0.341829
v -0.5 0.25 0.4375
v -0.5625 0.25 0.4375
v -0.5625 0.23097 0.341829
v 0.5625 -0.23097 0.341829
v 0.5625 -0.25 0.4375
v 0.5625 -0.23097 0.533171
v 0.5625 -0.176777 0.260723
v 0.5625 -0.176777 0.614277
v 0.5625 -0.095671 0.20653
v 0.5625 -0.095671 0.66847
v 0.5625 0 0.1875
v 0.5625 0 0.6875
v 0.5625 0.095671 0.20653
v 0.5625 0.095671 0.66847
v 0.5625 0.176777 0.260723
v 0.5625 0.176777 0.614277
v 0.5625 0.23097 0.341829
v 0.5625 0.23097 0.533171
v 0.5625 0.25 0.4375
v -0.5 0.176777 0.260723
v -0.5 0.23097 0.341829
v -0.5625 0.23097 0.341829
v -0.5625 0.176777 0.260723
v -0.5 -0.176777 0.260723
v -0.5 -0.095671 0.20653
v -0.5625 -0.095671 0.20653
v -0.5625 -0.176777 0.260723
v -0.5 0.095671 0.20653
v -0.5 0.176777 0.260723
v -0.5625 0.176777 0.260723
v -0.5625 0.095671 0.20653
v -0.5 -0.095671 0.20653
v -0.5 0 0.1875
v -0.5625 0 0.1875
v -0.5625 -0.095671 0.20653
v -0.5 0 0.1875
v -0.5 0.095671 0.20653
v -0.5625 0.095671 0.20653
v -0.5625 0 0.1875
v -0.5 -0.25 0.4375
v -0.5 -0.23097 0.341829
v -0.5625 -0.23097 0.341829
v -0.5625 -0.25 0.4375
v 0.5625 0.176777 0.260723
v 0.5625 0.23097 0.341829
v 0.5 0.23097 0.341829
v 0.5 0.176777 0.260723
v 0.5625 0.23097 0.341829
v 0.5625 0.25 0.4375
v 0.5 0.25 0.4375
v 0.5 0.23097 0.341829
v 0.5625 0.25 0.4375
v 0.5625 0.23097 0.533171
v 0.5 0.23097 0.533171
v 0.5 0.25 0.4375
v 0.5625 0.23097 0.533171
v 0.5625 0.176777 0.614277
v 0.5 0.176777 0.614277
v 0.5 0.23097 0.533171
v 0.5625 0.176777 0.614277
v 0.5625 0.095671 0.66847
v 0.5 0.095671 0.66847
v 0.5 0.176777 0.614277
v 0.5625 0.095671 0.66847
v 0.5625 0 0.6875
v 0.5 0 0.6875
v 0.5 0.095671 0.66847
v 0.5625 0 0.6875
v 0.5625 -0.095671 0.66847
v 0.5 -0.095671 0.66847
v 0.5 0 0.6875
v 0.5625 -0.095671 0.66847
v 0.5625 -0.176777 0.614277
v 0.5 -0.176777 0.614277
v 0.5 -0.095671 0.66847
v 0.5625 -0.176777 0.614277
v 0.5625 -0.23097 0.533171
v 0.5 -0.23097 0.533171
v 0.5 -0.176777 0.614277
v 0.5625 -0.23097 0.533171
v 0.5625 -0.25 0.4375
v 0.5 -0.25 0.4375
v 0.5 -0.23097 0.533171
v 0.5625 -0.23097 0.341829
v 0.5625 -0.176777 0.260723
v 0.5 -0.176777 0.260723
v 0.5 -0.23097 0.341829
v 0.5625 -0.176777 0.260723
v 0.5625 -0.095671 0.20653
v 0.5 -0.095671 0.20653
v 0.5 -0.176777 0.260723
v 0.5625 0.095671 0.20653
v 0.5625 0.176777 0.260723
v 0.5 0.176777 0.260723
v 0.5 0.095671 0.20653
v 0.5625 -0.095671 0.20653
v 0.5625 0 0.1875
v 0.5 0 0.1875
v 0.5 -0.095671 0.20653
v 0.5625 0 0.1875
v 0.5625 0.095671 0.20653
v 0.5 0.095671 0.20653
v 0.5 0 0.1875
v 0.5625 -0.25 0.4375
v 0.5625 -0.23097 0.341829
v 0.5 -0.23097 0.341829
v 0.5 -0.25 0.4375
v -0.364075 -0.5 0
v 0.5 -0.5 0
v 0.5 0.5 0
v -0.5 0.5 0
v -0.5 0.071045 0
v -0.4375 0.4375 0.875
v 0.4375 0.4375 0.875
v 0.4375 0.4375 1
v -0.4375 0.4375 1
v 0.4375 0.4375 0.875
v 0.4375 -0.4375 0.875
v 0.4375 -0.4375 1
v 0.4375 0.4375 1
v -0.4375 0.4375 0.875
v -0.4375 -0.4375 0.875
v 0.4375 -0.4375 0.875
v 0.4375 0.4375 0.875
v 0.3125 0.3125 1
v 0.3125 -0.3125 1
v -0.3125 -0.3125 1
v -0.3125 0.3125 1
v -0.4375 -0.364809 1
v -0.4375 -0.4375 0.919815
v -0.4375 -0.4375 0.875
v -0.4375 0.4375 0.875
v -0.4375 0.4375 1
v 0.4375 -0.4375 1
v 0.4375 -0.4375 0.875
v -0.4375 -0.4375 0.875
v -0.4375 -0.4375 0.919815
v 0.023743 -0.4375 1
v 0.5 0.5 0
v 0.5 -0.5 0
v 0.5 -0.5 0.875
v 0.5 0.391556 0.875
v 0.5 0.5 0.55043
v 0.375175 0.5 0.875
v 0.5 0.391556 0.875
v 0.5 -0.5 0.875
v -0.5 -0.439743 0.875
v -0.5 0.5 0.875
v -0.5 -0.439743 0.875
v -0.5 -0.5 0.748291
v -0.5 -0.5 0.116455
v -0.5 0.071045 0
v -0.5 0.5 0.875
v -0.5 0.5 0
v 0.5 -0.5 0.875
v 0.5 -0.5 0
v -0.364075 -0.5 0
v -0.5 -0.5 0.116455
v -0.5 -0.5 0.748291
v 0.023743 -0.4375 1
v -0.4375 -0.364809 1
v -0.3125 -0.3125 1
v -0.4375 0.4375 1
v 0.3125 -0.3125 1
v -0.3125 0.3125 1
v 0.4375 -0.4375 1
v 0.4375 0.4375 1
v 0.3125 0.3125 1
vt 0.968796 0.984805
vt 0.984426 0.983863
vt 0.968796 0.983863
vt 0.931082 0.538292
vt 0.932132 0.538174
vt 0.934902 0.535194
vt 0.988491 0.980864
vt 0.988491 0.982635
vt 0.989173 0.982635
vt 0.986822 0.966394
vt 0.9852 0.97321
vt 0.9852 0.966394
vt 0.750246 0.46875
vt 0.750246 0.25
vt 0.5 0.25
vt 0.5 0.387608
vt 0.531237 0.46875
vt 0.938183 0.202542
vt 0.938167 0.217964
vt 0.999268 0.217971
vt 0.999284 0.202548
vt 0.87466 0.101727
vt 0.887955 0.087304
vt 0.894719 0.068891
vt 0.856857 0.109965
vt 0.893921 0.049291
vt 0.837257 0.110762
vt 0.885684 0.031488
vt 0.818843 0.103998
vt 0.871261 0.018193
vt 0.80442 0.090703
vt 0.852848 0.011429
vt 0.796183 0.0729
vt 0.833248 0.012226
vt 0.795386 0.0533
vt 0.815445 0.020464
vt 0.80215 0.034887
vt 0.938215 0.171697
vt 0.9382 0.187119
vt 0.9993 0.187126
vt 0.999316 0.171704
vt 0.938232 0.156275
vt 0.938215 0.171697
vt 0.999316 0.171704
vt 0.999332 0.156281
vt 0.938248 0.140853
vt 0.938232 0.156275
vt 0.999332 0.156281
vt 0.999347 0.140859
vt 0.938264 0.125431
vt 0.938248 0.140853
vt 0.999347 0.140859
vt 0.999362 0.125438
vt 0.938283 0.11001
vt 0.938264 0.125431
vt 0.999362 0.125438
vt 0.999376 0.110017
vt 0.938301 0.09459
vt 0.938283 0.11001
vt 0.999376 0.110017
vt 0.999392 0.094597
vt 0.938318 0.079171
vt 0.938301 0.09459
vt 0.999392 0.094597
vt 0.999407 0.079178
vt 0.938335 0.063752
vt 0.938318 0.079171
vt 0.999407 0.079178
vt 0.999422 0.063759
vt 0.938351 0.048333
vt 0.938335 0.063752
vt 0.999422 0.063759
vt 0.999438 0.04834
vt 0.803254 0.033145
vt 0.795747 0.051268
vt 0.795747 0.070884
vt 0.817125 0.019274
vt 0.803254 0.089007
vt 0.835248 0.011767
vt 0.817125 0.102878
vt 0.854864 0.011767
vt 0.835248 0.110384
vt 0.872987 0.019274
vt 0.854864 0.110385
vt 0.886858 0.033145
vt 0.872987 0.102878
vt 0.894365 0.051268
vt 0.886858 0.089007
vt 0.894364 0.070884
vt 0.938368 0.032915
vt 0.938351 0.048333
vt 0.999438 0.04834
vt 0.999453 0.032921
vt 0.938167 0.217964
vt 0.93815 0.233386
vt 0.999252 0.233393
vt 0.999268 0.217971
vt 0.938384 0.017496
vt 0.938368 0.032915
vt 0.999453 0.032921
vt 0.999469 0.017503
vt 0.93815 0.233386
vt 0.938134 0.248809
vt 0.999235 0.248815
vt 0.999252 0.233393
vt 0.9384 0.002078
vt 0.938384 0.017496
vt 0.999469 0.017503
vt 0.999486 0.002084
vt 0.9382 0.187119
vt 0.938183 0.202542
vt 0.999284 0.202548
vt 0.9993 0.187126
vt 0.938133 0.032915
vt 0.938136 0.048333
vt 0.99922 0.048331
vt 0.999217 0.032913
vt 0.938136 0.048333
vt 0.938138 0.063751
vt 0.999224 0.063749
vt 0.99922 0.048331
vt 0.938138 0.063751
vt 0.93814 0.079169
vt 0.999228 0.079168
vt 0.999224 0.063749
vt 0.93814 0.079169
vt 0.938142 0.094588
vt 0.999231 0.094587
vt 0.999228 0.079168
vt 0.938142 0.094588
vt 0.938142 0.110007
vt 0.999235 0.110007
vt 0.999231 0.094587
vt 0.938142 0.110007
vt 0.93814 0.125428
vt 0.999237 0.125428
vt 0.999235 0.110007
vt 0.93814 0.125428
vt 0.938139 0.140849
vt 0.999238 0.14085
vt 0.999237 0.125428
vt 0.938139 0.140849
vt 0.938138 0.156272
vt 0.999239 0.156272
vt 0.999238 0.14085
vt 0.938138 0.156272
vt 0.938137 0.171694
vt 0.999239 0.171695
vt 0.999239 0.156272
vt 0.938137 0.171694
vt 0.938136 0.187117
vt 0.999239 0.187118
vt 0.999239 0.171695
vt 0.938135 0.20254
vt 0.938134 0.217963
vt 0.999238 0.217964
vt 0.999238 0.202541
vt 0.938134 0.217963
vt 0.938134 0.233386
vt 0.999237 0.233387
vt 0.999238 0.217964
vt 0.93813 0.017497
vt 0.938133 0.032915
vt 0.999217 0.032913
vt 0.999213 0.017496
vt 0.938134 0.233386
vt 0.938133 0.248809
vt 0.999237 0.24881
vt 0.999237 0.233387
vt 0.938127 0.002079
vt 0.93813 0.017497
vt 0.999213 0.017496
vt 0.99921 0.002078
vt 0.938136 0.187117
vt 0.938135 0.20254
vt 0.999238 0.202541
vt 0.999239 0.187118
vt 0.769123 0.62858
vt 0.872257 0.62858
vt 0.872257 0.747938
vt 0.752899 0.747938
vt 0.752899 0.696739
vt 0.894946 0.653924
vt 0.979345 0.653924
vt 0.979345 0.727964
vt 0.894946 0.727964
vt 0.858032 0.654088
vt 0.77899 0.654088
vt 0.77899 0.731314
vt 0.858032 0.731314
vt 0.753289 0.746551
vt 0.753289 0.628679
vt 0.871161 0.628679
vt 0.871161 0.746551
vt 0.430337 0.150658
vt 0.430337 0.061176
vt 0.340855 0.061176
vt 0.340855 0.150658
vt 0.785556 0.731314
vt 0.77899 0.681775
vt 0.77899 0.654088
vt 0.858032 0.654088
vt 0.858032 0.731314
vt 0.979345 0.727964
vt 0.979345 0.653924
vt 0.894946 0.653924
vt 0.894946 0.680469
vt 0.939435 0.727964
vt 0.5 0.25
vt 0.25 0.25
vt 0.25 0.46875
vt 0.472889 0.46875
vt 0.5 0.387608
vt 0.941403 0.56735
vt 0.943354 0.565655
vt 0.943354 0.551721
vt 0.927724 0.552662
vt 0.927724 0.56735
vt 0.265064 0.46875
vt 0.25 0.437073
vt 0.25 0.279114
vt 0.392761 0.25
vt 0.5 0.46875
vt 0.5 0.25
vt 0.25 0.46875
vt 0.25 0.25
vt 0.033981 0.25
vt 0 0.279114
vt 0 0.437073
vt 0.975973 0.983407
vt 0.973203 0.986388
vt 0.97478 0.986212
vt 0.983292 0.990329
vt 0.979956 0.982014
vt 0.982736 0.988943
vt 0.9794 0.980629
vt 0.990538 0.984452
vt 0.987912 0.984745
vn -0.05433702 -0.9017494 0.4288302
vn -0.05433702 -0.9017494 0.4288302
vn -0.05433702 -0.9017494 0.4288302
vn -0.115973 -0.7358802 0.6671062
vn -0.115973 -0.7358802 0.6671062
vn -0.115973 -0.7358802 0.6671062
vn 0.635921 0.731978 0.244566
vn 0.635921 0.731978 0.244566
vn 0.635921 0.731978 0.244566
vn -0.6429591 -0.153043 -0.7504541
vn -0.6429591 -0.153043 -0.7504541
vn -0.6429591 -0.153043 -0.7504541
vn 0 1 0
vn 0 1 0
vn 0 1 0
vn 0 1 0
vn 0 1 0
vn 0 -0.8314691 -0.5555711
vn 0 -0.8314691 -0.5555711
vn 0 -0.8314691 -0.5555711
vn 0 -0.8314691 -0.5555711
vn -1 0 0
vn -1 0 0
vn -1 0 0
vn -1 0 0
vn -1 0 0
vn -1 0 0
vn -1 0 0
vn -1 0 0
vn -1 0 0
vn -1 0 0
vn -1 0 0
vn -1 0 0
vn -1 0 0
vn -1 0 0
vn -1 0 0
vn -1 0 0
vn 0 -0.9807854 0.1950901
vn 0 -0.9807854 0.1950901
vn 0 -0.9807854 0.1950901
vn 0 -0.9807854 0.1950901
vn 0 -0.8314691 0.5555711
vn 0 -0.8314691 0.5555711
vn 0 -0.8314691 0.5555711
vn 0 -0.8314691 0.5555711
vn 0 -0.5555699 0.8314699
vn 0 -0.5555699 0.8314699
vn 0 -0.5555699 0.8314699
vn 0 -0.5555699 0.8314699
vn 0 -0.1950901 0.9807854
vn 0 -0.1950901 0.9807854
vn 0 -0.1950901 0.9807854
vn 0 -0.1950901 0.9807854
vn 0 0.1950901 0.9807854
vn 0 0.1950901 0.9807854
vn 0 0.1950901 0.9807854
vn 0 0.1950901 0.9807854
vn 0 0.5555711 0.8314691
vn 0 0.5555711 0.8314691
vn 0 0.5555711 0.8314691
vn 0 0.5555711 0.8314691
vn 0 0.8314691 0.5555711
vn 0 0.8314691 0.5555711
vn 0 0.8314691 0.5555711
vn 0 0.8314691 0.5555711
vn 0 0.9807851 0.195091
vn 0 0.9807851 0.195091
vn 0 0.9807851 0.195091
vn 0 0.9807851 0.195091
vn 0 0.9807851 -0.195091
vn 0 0.9807851 -0.195091
vn 0 0.9807851 -0.195091
vn 0 0.9807851 -0.195091
vn 1 0 0
vn 1 0 0
vn 1 0 0
vn 1 0 0
vn 1 0 0
vn 1 0 0
vn 1 0 0
vn 1 0 0
vn 1 0 0
vn 1 0 0
vn 1 0 0
vn 1 0 0
vn 1 0 0
vn 1 0 0
vn 1 0 0
vn 1 0 0
vn 0 0.8314695 -0.5555704
vn 0 0.8314695 -0.5555704
vn 0 0.8314695 -0.5555704
vn 0 0.8314695 -0.5555704
vn 0 -0.5555699 -0.8314699
vn 0 -0.5555699 -0.8314699
vn 0 -0.5555699 -0.8314699
vn 0 -0.5555699 -0.8314699
vn 0 0.5555711 -0.8314691
vn 0 0.5555711 -0.8314691
vn 0 0.5555711 -0.8314691
vn 0 0.5555711 -0.8314691
vn 0 -0.1950901 -0.9807854
vn 0 -0.1950901 -0.9807854
vn 0 -0.1950901 -0.9807854
vn 0 -0.1950901 -0.9807854
vn 0 0.1950901 -0.9807854
vn 0 0.1950901 -0.9807854
vn 0 0.1950901 -0.9807854
vn 0 0.1950901 -0.9807854
vn 0 -0.9807854 -0.1950901
vn 0 -0.9807854 -0.1950901
vn 0 -0.9807854 -0.1950901
vn 0 -0.9807854 -0.1950901
vn 0 0.8314691 -0.5555711
vn 0 0.8314691 -0.5555711
vn 0 0.8314691 -0.5555711
vn 0 0.8314691 -0.5555711
vn 0 0.9807851 -0.195091
vn 0 0.9807851 -0.195091
vn 0 0.9807851 -0.195091
vn 0 0.9807851 -0.195091
vn 0 0.9807851 0.195091
vn 0 0.9807851 0.195091
vn 0 0.9807851 0.195091
vn 0 0.9807851 0.195091
vn 0 0.8314691 0.5555711
vn 0 0.8314691 0.5555711
vn 0 0.8314691 0.5555711
vn 0 0.8314691 0.5555711
vn 0 0.5555711 0.8314691
vn 0 0.5555711 0.8314691
vn 0 0.5555711 0.8314691
vn 0 0.5555711 0.8314691
vn 0 0.1950901 0.9807854
vn 0 0.1950901 0.9807854
vn 0 0.1950901 0.9807854
vn 0 0.1950901 0.9807854
vn 0 -0.1950901 0.9807854
vn 0 -0.1950901 0.9807854
vn 0 -0.1950901 0.9807854
vn 0 -0.1950901 0.9807854
vn 0 -0.5555711 0.8314691
vn 0 -0.5555711 0.8314691
vn 0 -0.5555711 0.8314691
vn 0 -0.5555711 0.8314691
vn 0 -0.8314691 0.5555711
vn 0 -0.8314691 0.5555711
vn 0 -0.8314691 0.5555711
vn 0 -0.8314691 0.5555711
vn 0 -0.9807854 0.1950901
vn 0 -0.9807854 0.1950901
vn 0 -0.9807854 0.1950901
vn 0 -0.9807854 0.1950901
vn 0 -0.8314691 -0.5555711
vn 0 -0.8314691 -0.5555711
vn 0 -0.8314691 -0.5555711
vn 0 -0.8314691 -0.5555711
vn 0 -0.5555699 -0.8314699
vn 0 -0.5555699 -0.8314699
vn 0 -0.5555699 -0.8314699
vn 0 -0.5555699 -0.8314699
vn 0 0.5555711 -0.8314691
vn 0 0.5555711 -0.8314691
vn 0 0.5555711 -0.8314691
vn 0 0.5555711 -0.8314691
vn 0 -0.1950901 -0.9807854
vn 0 -0.1950901 -0.9807854
vn 0 -0.1950901 -0.9807854
vn 0 -0.1950901 -0.9807854
vn 0 0.1950901 -0.9807854
vn 0 0.1950901 -0.9807854
vn 0 0.1950901 -0.9807854
vn 0 0.1950901 -0.9807854
vn 0 -0.9807854 -0.1950901
vn 0 -0.9807854 -0.1950901
vn 0 -0.9807854 -0.1950901
vn 0 -0.9807854 -0.1950901
vn 0 0 -1
vn 0 0 -1
vn 0 0 -1
vn 0 0 -1
vn 0 0 -1
vn 0 1 0
vn 0 1 0
vn 0 1 0
vn 0 1 0
vn 1 0 0
vn 1 0 0
vn 1 0 0
vn 1 0 0
vn 0 0 -1
vn 0 0 -1
vn 0 0 -1
vn 0 0 -1
vn 0 0 1
vn 0 0 1
vn 0 0 1
vn 0 0 1
vn -1 0 0
vn -1 0 0
vn -1 0 0
vn -1 0 0
vn -1 0 0
vn 0 -1 0
vn 0 -1 0
vn 0 -1 0
vn 0 -1 0
vn 0 -1 0
vn 1 0 0
vn 1 0 0
vn 1 0 0
vn 1 0 0
vn 1 0 0
vn 0 0 1
vn 0 0 1
vn 0 0 1
vn 0 0 1
vn 0 0 1
vn -1 0 0
vn -1 0 0
vn -1 0 0
vn -1 0 0
vn -1 0 0
vn -1 0 0
vn 0 -1 0
vn 0 -1 0
vn 0 -1 0
vn 0 -1 0
vn 0 -1 0
vn 0 0 1
vn 0 0 1
vn 0 0 1
vn 0 0 1
vn 0 0 1
vn 0 0 1
vn 0 0 1
vn 0 0 1
vn 0 0 1
g Totem_Cube2_0
f 3/3/3 2/2/2 1/1/1
f 6/6/6 5/5/5 4/4/4
f 9/9/9 8/8/8 7/7/7
f 12/12/12 11/11/11 10/10/10
f 15/15/15 14/14/14 13/13/13
f 13/13/13 16/16/16 15/15/15
f 13/13/13 17/17/17 16/16/16
f 20/20/20 19/19/19 18/18/18
f 21/21/21 20/20/20 18/18/18
f 24/24/24 23/23/23 22/22/22
f 22/22/22 25/25/25 24/24/24
f 25/25/25 26/26/26 24/24/24
f 25/25/25 27/27/27 26/26/26
f 27/27/27 28/28/28 26/26/26
f 27/27/27 29/29/29 28/28/28
f 29/29/29 30/30/30 28/28/28
f 29/29/29 31/31/31 30/30/30
f 31/31/31 32/32/32 30/30/30
f 31/31/31 33/33/33 32/32/32
f 33/33/33 34/34/34 32/32/32
f 33/33/33 35/35/35 34/34/34
f 35/35/35 36/36/36 34/34/34
f 35/35/35 37/37/37 36/36/36
f 40/40/40 39/39/39 38/38/38
f 41/41/41 40/40/40 38/38/38
f 44/44/44 43/43/43 42/42/42
f 45/45/45 44/44/44 42/42/42
f 48/48/48 47/47/47 46/46/46
f 49/49/49 48/48/48 46/46/46
f 52/52/52 51/51/51 50/50/50
f 53/53/53 52/52/52 50/50/50
f 56/56/56 55/55/55 54/54/54
f 57/57/57 56/56/56 54/54/54
f 60/60/60 59/59/59 58/58/58
f 61/61/61 60/60/60 58/58/58
f 64/64/64 63/63/63 62/62/62
f 65/65/65 64/64/64 62/62/62
f 68/68/68 67/67/67 66/66/66
f 69/69/69 68/68/68 66/66/66
f 72/72/72 71/71/71 70/70/70
f 73/73/73 72/72/72 70/70/70
f 76/76/76 75/75/75 74/74/74
f 74/74/74 77/77/77 76/76/76
f 77/77/77 78/78/78 76/76/76
f 77/77/77 79/79/79 78/78/78
f 79/79/79 80/80/80 78/78/78
f 79/79/79 81/81/81 80/80/80
f 81/81/81 82/82/82 80/80/80
f 81/81/81 83/83/83 82/82/82
f 83/83/83 84/84/84 82/82/82
f 83/83/83 85/85/85 84/84/84
f 85/85/85 86/86/86 84/84/84
f 85/85/85 87/87/87 86/86/86
f 87/87/87 88/88/88 86/86/86
f 87/87/87 89/89/89 88/88/88
f 92/92/92 91/91/91 90/90/90
f 93/93/93 92/92/92 90/90/90
f 96/96/96 95/95/95 94/94/94
f 97/97/97 96/96/96 94/94/94
f 100/100/100 99/99/99 98/98/98
f 101/101/101 100/100/100 98/98/98
f 104/104/104 103/103/103 102/102/102
f 105/105/105 104/104/104 102/102/102
f 108/108/108 107/107/107 106/106/106
f 109/109/109 108/108/108 106/106/106
f 112/112/112 111/111/111 110/110/110
f 113/113/113 112/112/112 110/110/110
f 116/116/116 115/115/115 114/114/114
f 117/117/117 116/116/116 114/114/114
f 120/120/120 119/119/119 118/118/118
f 121/121/121 120/120/120 118/118/118
f 124/124/124 123/123/123 122/122/122
f 125/125/125 124/124/124 122/122/122
f 128/128/128 127/127/127 126/126/126
f 129/129/129 128/128/128 126/126/126
f 132/132/132 131/131/131 130/130/130
f 133/133/133 132/132/132 130/130/130
f 136/136/136 135/135/135 134/134/134
f 137/137/137 136/136/136 134/134/134
f 140/140/140 139/139/139 138/138/138
f 141/141/141 140/140/140 138/138/138
f 144/144/144 143/143/143 142/142/142
f 145/145/145 144/144/144 142/142/142
f 148/148/148 147/147/147 146/146/146
f 149/149/149 148/148/148 146/146/146
f 152/152/152 151/151/151 150/150/150
f 153/153/153 152/152/152 150/150/150
f 156/156/156 155/155/155 154/154/154
f 157/157/157 156/156/156 154/154/154
f 160/160/160 159/159/159 158/158/158
f 161/161/161 160/160/160 158/158/158
f 164/164/164 163/163/163 162/162/162
f 165/165/165 164/164/164 162/162/162
f 168/168/168 167/167/167 166/166/166
f 169/169/169 168/168/168 166/166/166
f 172/172/172 171/171/171 170/170/170
f 173/173/173 172/172/172 170/170/170
f 176/176/176 175/175/175 174/174/174
f 177/177/177 176/176/176 174/174/174
f 180/180/180 179/179/179 178/178/178
f 178/178/178 181/181/181 180/180/180
f 178/178/178 182/182/182 181/181/181
f 185/185/185 184/184/184 183/183/183
f 186/186/186 185/185/185 183/183/183
f 189/189/189 188/188/188 187/187/187
f 190/190/190 189/189/189 187/187/187
f 193/193/193 192/192/192 191/191/191
f 194/194/194 193/193/193 191/191/191
f 197/197/197 196/196/196 195/195/195
f 198/198/198 197/197/197 195/195/195
f 201/201/201 200/200/200 199/199/199
f 199/199/199 202/202/202 201/201/201
f 199/199/199 203/203/203 202/202/202
f 206/206/206 205/205/205 204/204/204
f 204/204/204 207/207/207 206/206/206
f 204/204/204 208/208/208 207/207/207
f 211/211/211 210/210/210 209/209/209
f 209/209/209 212/212/212 211/211/211
f 209/209/209 213/213/213 212/212/212
f 216/216/216 215/215/215 214/214/214
f 214/214/214 217/217/217 216/216/216
f 214/214/214 218/218/218 217/217/217
f 221/221/221 220/220/220 219/219/219
f 219/219/219 222/222/222 221/221/221
f 219/219/219 223/223/223 222/222/222
f 223/223/223 224/224/224 222/222/222
f 227/227/227 226/226/226 225/225/225
f 225/225/225 228/228/228 227/227/227
f 225/225/225 229/229/229 228/228/228
f 232/232/232 231/231/231 230/230/230
f 231/231/231 232/232/232 233/233/233
f 234/234/234 232/232/232 230/230/230
f 232/232/232 235/235/235 233/233/233
f 230/230/230 236/236/236 234/234/234
f 233/233/233 235/235/235 237/237/237
f 238/238/238 234/234/234 236/236/236
f 237/237/237 238/238/238 236/236/236
f 235/235/235 238/238/238 237/237/237
