g Tree01
v 0.064854 0.914775 -0.134418
v 0.148586 0.914775 0.04658
v -0.00464 0.914775 0.007594
v 0.312255 0.914775 0.039942
v 0.175905 0.914775 -0.2548
v 0.325908 0.914775 -0.325851
v 0.463475 0.914775 -0.028484
v 0.465418 0.914775 -0.352765
v 0.574276 0.914775 -0.117456
v 0.643045 0.914775 -0.286527
v -0.04356 0.27306 -0.021504
v -0.022343 0.593349 -0.017941
v -0.022343 0.593349 0.015564
v -0.04356 0.27306 -0.021504
v -0.022343 0.593349 0.015564
v -0.04356 0.313615 0.024732
v 0.04356 0.313615 0.024732
v 0.022343 0.593349 0.015564
v 0.022343 0.593349 -0.017941
v 0.04356 0.313615 0.024732
v 0.022343 0.593349 -0.017941
v 0.04356 0.27306 -0.021504
v 0.048733 0.16287 -0.013218
v 0.082033 -0.012084 -0.026395
v 0.067483 -0.011242 0.071243
v 0.048733 0.16287 -0.013218
v 0.067483 -0.011242 0.071243
v 0.048733 0.183634 0.045383
v -0.071939 -0.01787 -0.026395
v -0.048733 0.16287 -0.013218
v -0.048733 0.183634 0.045383
v -0.071939 -0.01787 -0.026395
v -0.048733 0.183634 0.045383
v -0.065326 -0.011242 0.071243
v 0.082033 -0.012084 -0.026395
v 0.048733 0.16287 -0.013218
v -0.048733 0.16287 -0.013218
v -0.071939 -0.01787 -0.026395
v -0.010638 0.894467 0.021791
v -0.010638 0.894467 0.000514
v 0.010639 0.894467 0.000514
v 0.010639 0.894467 0.021791
v -0.065326 -0.011242 0.071243
v 0.048733 0.183634 0.045383
v 0.067483 -0.011242 0.071243
v -0.048733 0.183634 0.045383
v 0.04356 0.313615 0.024732
v -0.04356 0.313615 0.024732
v -0.04356 0.313615 0.024732
v -0.022343 0.593349 0.015564
v 0.022343 0.593349 0.015564
v 0.04356 0.313615 0.024732
v 0.04356 0.27306 -0.021504
v 0.022343 0.593349 -0.017941
v -0.022343 0.593349 -0.017941
v -0.04356 0.27306 -0.021504
v -0.022343 0.593349 -0.017941
v -0.010638 0.894467 0.000514
v -0.010638 0.894467 0.021791
v -0.022343 0.593349 0.015564
v 0.022343 0.593349 -0.017941
v 0.010639 0.894467 0.000514
v -0.010638 0.894467 0.000514
v -0.022343 0.593349 -0.017941
v -0.048733 0.16287 -0.013218
v -0.04356 0.27306 -0.021504
v -0.04356 0.313615 0.024732
v -0.048733 0.183634 0.045383
v 0.048733 0.16287 -0.013218
v 0.04356 0.27306 -0.021504
v -0.04356 0.27306 -0.021504
v -0.048733 0.16287 -0.013218
v 0.048733 0.183634 0.045383
v 0.04356 0.313615 0.024732
v 0.04356 0.27306 -0.021504
v 0.048733 0.16287 -0.013218
v 0.022343 0.593349 0.015564
v 0.010639 0.894467 0.021791
v 0.010639 0.894467 0.000514
v 0.022343 0.593349 -0.017941
v -0.022343 0.593349 0.015564
v -0.010638 0.894467 0.021791
v 0.010639 0.894467 0.021791
v 0.022343 0.593349 0.015564
vt 0.16864 0.59093
vt 0.331075 0.590851
vt 0.24979 0.516176
vt 0.382215 0.682978
vt 0.117702 0.683104
vt 0.11656 0.784172
vt 0.38344 0.784044
vt 0.144451 0.868141
vt 0.355632 0.86804
vt 0.25 0.949321
vt 0.272125 0.389372
vt 0.277842 0.576018
vt 0.277842 0.576018
vt 0.272125 0.389372
vt 0.277842 0.576018
vt 0.272125 0.431062
vt 0.320267 0.431062
vt 0.31455 0.576018
vt 0.31455 0.576018
vt 0.320267 0.431062
vt 0.31455 0.576018
vt 0.320267 0.389372
vt 0.323125 0.357793
vt 0.336545 0.298622
vt 0.330098 0.318423
vt 0.323125 0.357793
vt 0.330098 0.318423
vt 0.323125 0.402853
vt 0.255791 0.298622
vt 0.266408 0.335526
vt 0.266408 0.362675
vt 0.255791 0.298622
vt 0.266408 0.362675
vt 0.26021 0.296003
vt 0.336545 0.298622
vt 0.325984 0.335526
vt 0.266408 0.335526
vt 0.255791 0.298622
vt 0.289277 0.871471
vt 0.289277 0.871471
vt 0.303115 0.871471
vt 0.303115 0.871471
vt 0.290147 0.362675
vt 0.323125 0.402853
vt 0.325984 0.362675
vt 0.269266 0.402853
vt 0.320267 0.431062
vt 0.272125 0.431062
vt 0.272125 0.431062
vt 0.277842 0.576018
vt 0.31455 0.576018
vt 0.320267 0.431062
vt 0.320267 0.389372
vt 0.31455 0.576018
vt 0.277842 0.576018
vt 0.272125 0.389372
vt 0.279583 0.610053
vt 0.289277 0.871471
vt 0.289277 0.871471
vt 0.279583 0.610053
vt 0.312808 0.610053
vt 0.303115 0.871471
vt 0.289277 0.871471
vt 0.279583 0.610053
vt 0.269266 0.357793
vt 0.272125 0.389372
vt 0.272125 0.431062
vt 0.269266 0.402853
vt 0.323125 0.357793
vt 0.320267 0.389372
vt 0.272125 0.389372
vt 0.269266 0.357793
vt 0.323125 0.402853
vt 0.320267 0.431062
vt 0.320267 0.389372
vt 0.323125 0.357793
vt 0.312808 0.610053
vt 0.303115 0.871471
vt 0.303115 0.871471
vt 0.312808 0.610053
vt 0.279583 0.610053
vt 0.289277 0.871471
vt 0.303115 0.871471
vt 0.312808 0.610053
vn 0 1 0
vn 0 1 0
vn 0 1 0
vn 0 1 0
vn 0 1 0
vn 0 1 0
vn 0 1 0
vn 0 1 0
vn 0 1 0
vn 0 1 0
vn -0.9968967 0.07016698 -0.03568699
vn -0.9968967 0.07016698 -0.03568699
vn -0.9968967 0.07016698 -0.03568699
vn -0.9968967 0.07016698 -0.03568699
vn -0.9968967 0.07016698 -0.03568699
vn -0.9968967 0.07016698 -0.03568699
vn 0.9968967 0.07016698 -0.03568599
vn 0.9968967 0.07016698 -0.03568599
vn 0.9968967 0.07016698 -0.03568599
vn 0.9968967 0.07016698 -0.03568599
vn 0.9968967 0.07016698 -0.03568599
vn 0.9968967 0.07016698 -0.03568599
vn 0.9872974 0.1414351 0.07238803
vn 0.9872974 0.1414351 0.07238803
vn 0.9872974 0.1414351 0.07238803
vn 0.9872974 0.1414351 0.07238803
vn 0.9872974 0.1414351 0.07238803
vn 0.9872974 0.1414351 0.07238803
vn -0.9940761 0.106121 0.023472
vn -0.9940761 0.106121 0.023472
vn -0.9940761 0.106121 0.023472
vn -0.9940761 0.106121 0.023472
vn -0.9940761 0.106121 0.023472
vn -0.9940761 0.106121 0.023472
vn -0.001699 0.07383898 -0.9972687
vn -0.001699 0.07383898 -0.9972687
vn -0.001699 0.07383898 -0.9972687
vn -0.001699 0.07383898 -0.9972687
vn 0 1 0
vn 0 1 0
vn 0 1 0
vn 0 1 0
vn 0 0.131546 0.99131
vn 0 0.131546 0.99131
vn 0 0.131546 0.99131
vn 0 0.131546 0.99131
vn 0 0.156914 0.9876123
vn 0 0.156914 0.9876123
vn 0 0.03275601 0.9994634
vn 0 0.03275601 0.9994634
vn 0 0.03275601 0.9994634
vn 0 0.03275601 0.9994634
vn 0 0.011124 -0.9999381
vn 0 0.011124 -0.9999381
vn 0 0.011124 -0.9999381
vn 0 0.011124 -0.9999381
vn -0.9992454 0.03884201 0
vn -0.9992454 0.03884201 0
vn -0.9992454 0.03884201 0
vn -0.9992454 0.03884201 0
vn 0 0.06117401 -0.9981272
vn 0 0.06117401 -0.9981272
vn 0 0.06117401 -0.9981272
vn 0 0.06117401 -0.9981272
vn -0.998915 0.040199 -0.023512
vn -0.998915 0.040199 -0.023512
vn -0.998915 0.040199 -0.023512
vn -0.998915 0.040199 -0.023512
vn 0 -0.07498 -0.9971851
vn 0 -0.07498 -0.9971851
vn 0 -0.07498 -0.9971851
vn 0 -0.07498 -0.9971851
vn 0.998915 0.040199 -0.023512
vn 0.998915 0.040199 -0.023512
vn 0.998915 0.040199 -0.023512
vn 0.998915 0.040199 -0.023512
vn 0.9992454 0.03884102 0
vn 0.9992454 0.03884102 0
vn 0.9992454 0.03884102 0
vn 0.9992454 0.03884102 0
vn 0 -0.020677 0.9997862
vn 0 -0.020677 0.9997862
vn 0 -0.020677 0.9997862
vn 0 -0.020677 0.9997862
g Tree01_0
f 3/3/3 2/2/2 1/1/1
f 2/2/2 4/4/4 1/1/1
f 4/4/4 5/5/5 1/1/1
f 6/6/6 5/5/5 4/4/4
f 7/7/7 6/6/6 4/4/4
f 8/8/8 6/6/6 7/7/7
f 9/9/9 8/8/8 7/7/7
f 10/10/10 8/8/8 9/9/9
g Tree01_1
f 13/13/13 12/12/12 11/11/11
f 16/16/16 15/15/15 14/14/14
f 19/19/19 18/18/18 17/17/17
f 22/22/22 21/21/21 20/20/20
f 25/25/25 24/24/24 23/23/23
f 28/28/28 27/27/27 26/26/26
f 31/31/31 30/30/30 29/29/29
f 34/34/34 33/33/33 32/32/32
f 37/37/37 36/36/36 35/35/35
f 38/38/38 37/37/37 35/35/35
f 41/41/41 40/40/40 39/39/39
f 42/42/42 41/41/41 39/39/39
f 45/45/45 44/44/44 43/43/43
f 44/44/44 46/46/46 43/43/43
f 44/44/44 47/47/47 46/46/46
f 47/47/47 48/48/48 46/46/46
f 51/51/51 50/50/50 49/49/49
f 52/52/52 51/51/51 49/49/49
f 55/55/55 54/54/54 53/53/53
f 56/56/56 55/55/55 53/53/53
f 59/59/59 58/58/58 57/57/57
f 60/60/60 59/59/59 57/57/57
f 63/63/63 62/62/62 61/61/61
f 64/64/64 63/63/63 61/61/61
f 67/67/67 66/66/66 65/65/65
f 68/68/68 67/67/67 65/65/65
f 71/71/71 70/70/70 69/69/69
f 72/72/72 71/71/71 69/69/69
f 75/75/75 74/74/74 73/73/73
f 76/76/76 75/75/75 73/73/73
f 79/79/79 78/78/78 77/77/77
f 80/80/80 79/79/79 77/77/77
f 83/83/83 82/82/82 81/81/81
f 84/84/84 83/83/83 81/81/81
