g Tree00
v 0.114841 0.584821 -0.021038
v 0.087046 0.584821 0.140865
v 0.001333 0.526885 0.04281
v 0.452453 0.584821 0.228546
v 0.488587 0.584821 0.018061
v 0.578115 0.516474 0.146005
v 0.201165 0.624391 0.212853
v 0.246427 0.62439 -0.050793
v 0.381379 0.624391 -0.028883
v 0.335716 0.62439 0.237113
v 0.335716 0.62439 0.237113
v 0.381379 0.624391 -0.028883
v 0.488587 0.584821 0.018061
v 0.452453 0.584821 0.228546
v 0.114841 0.584821 -0.021038
v 0.246427 0.62439 -0.050793
v 0.201165 0.624391 0.212853
v 0.087046 0.584821 0.140865
v -0.121617 0.20511 0.002381
v -0.06987 0.357689 0.005944
v -0.06987 0.357689 0.039448
v -0.121617 0.20511 0.002381
v -0.06987 0.357689 0.039448
v -0.121617 0.245665 0.048616
v -0.034497 0.245665 0.048616
v -0.025183 0.357689 0.039448
v -0.025183 0.357689 0.005944
v -0.034497 0.245665 0.048616
v -0.025183 0.357689 0.005944
v -0.034497 0.20511 0.002381
v -0.029324 0.09492 0.010666
v 0.082033 -0.012084 -0.026395
v 0.067483 -0.011242 0.071243
v -0.029324 0.09492 0.010666
v 0.067483 -0.011242 0.071243
v -0.029324 0.115684 0.069268
v -0.071939 -0.01787 -0.026395
v -0.12679 0.09492 0.010666
v -0.12679 0.115684 0.069268
v -0.071939 -0.01787 -0.026395
v -0.12679 0.115684 0.069268
v -0.065326 -0.011242 0.071243
v 0.082033 -0.012084 -0.026395
v -0.029324 0.09492 0.010666
v -0.12679 0.09492 0.010666
v -0.071939 -0.01787 -0.026395
v -0.010638 0.522799 0.045676
v -0.010638 0.522799 0.024399
v 0.010639 0.522799 0.024399
v 0.010639 0.522799 0.045676
v -0.065326 -0.011242 0.071243
v -0.12679 0.115684 0.069268
v -0.029324 0.115684 0.069268
v 0.067483 -0.011242 0.071243
v -0.121617 0.245665 0.048616
v -0.06987 0.357689 0.039448
v -0.025183 0.357689 0.039448
v -0.034497 0.245665 0.048616
v -0.034497 0.20511 0.002381
v -0.025183 0.357689 0.005944
v -0.06987 0.357689 0.005944
v -0.121617 0.20511 0.002381
v -0.06987 0.357689 0.005944
v -0.010638 0.522799 0.024399
v -0.010638 0.522799 0.045676
v -0.06987 0.357689 0.039448
v -0.025183 0.357689 0.005944
v 0.010639 0.522799 0.024399
v -0.010638 0.522799 0.024399
v -0.06987 0.357689 0.005944
v -0.12679 0.115684 0.069268
v -0.121617 0.245665 0.048616
v -0.034497 0.245665 0.048616
v -0.029324 0.115684 0.069268
v -0.12679 0.09492 0.010666
v -0.121617 0.20511 0.002381
v -0.121617 0.245665 0.048616
v -0.12679 0.115684 0.069268
v -0.029324 0.09492 0.010666
v -0.034497 0.20511 0.002381
v -0.121617 0.20511 0.002381
v -0.12679 0.09492 0.010666
v -0.029324 0.115684 0.069268
v -0.034497 0.245665 0.048616
v -0.034497 0.20511 0.002381
v -0.029324 0.09492 0.010666
v -0.025183 0.357689 0.039448
v 0.010639 0.522799 0.045676
v 0.010639 0.522799 0.024399
v -0.025183 0.357689 0.005944
v -0.06987 0.357689 0.039448
v -0.010638 0.522799 0.045676
v 0.010639 0.522799 0.045676
v -0.025183 0.357689 0.039448
vt 0.16864 0.59093
vt 0.331075 0.590851
vt 0.24979 0.516176
vt 0.355632 0.86804
vt 0.144451 0.868141
vt 0.25 0.949321
vt 0.382215 0.682978
vt 0.117702 0.683104
vt 0.11656 0.784172
vt 0.38344 0.784044
vt 0.38344 0.784044
vt 0.11656 0.784172
vt 0.144451 0.868141
vt 0.355632 0.86804
vt 0.16864 0.59093
vt 0.117702 0.683104
vt 0.382215 0.682978
vt 0.331075 0.590851
vt 0.272125 0.389372
vt 0.277842 0.576018
vt 0.277842 0.576018
vt 0.272125 0.389372
vt 0.277842 0.576018
vt 0.272125 0.431062
vt 0.320267 0.431062
vt 0.31455 0.576018
vt 0.31455 0.576018
vt 0.320267 0.431062
vt 0.31455 0.576018
vt 0.320267 0.389372
vt 0.323125 0.357793
vt 0.336545 0.298622
vt 0.330098 0.318423
vt 0.323125 0.357793
vt 0.330098 0.318423
vt 0.323125 0.402853
vt 0.255791 0.298622
vt 0.266408 0.335526
vt 0.266408 0.362675
vt 0.255791 0.298622
vt 0.266408 0.362675
vt 0.26021 0.296003
vt 0.336545 0.298622
vt 0.325984 0.335526
vt 0.266408 0.335526
vt 0.255791 0.298622
vt 0.289277 0.871471
vt 0.289277 0.871471
vt 0.303115 0.871471
vt 0.303115 0.871471
vt 0.290147 0.362675
vt 0.269266 0.402853
vt 0.323125 0.402853
vt 0.325984 0.362675
vt 0.272125 0.431062
vt 0.277842 0.576018
vt 0.31455 0.576018
vt 0.320267 0.431062
vt 0.320267 0.389372
vt 0.31455 0.576018
vt 0.277842 0.576018
vt 0.272125 0.389372
vt 0.279583 0.610053
vt 0.289277 0.871471
vt 0.289277 0.871471
vt 0.279583 0.610053
vt 0.312808 0.610053
vt 0.303115 0.871471
vt 0.289277 0.871471
vt 0.279583 0.610053
vt 0.269266 0.402853
vt 0.272125 0.431062
vt 0.320267 0.431062
vt 0.323125 0.402853
vt 0.269266 0.357793
vt 0.272125 0.389372
vt 0.272125 0.431062
vt 0.269266 0.402853
vt 0.323125 0.357793
vt 0.320267 0.389372
vt 0.272125 0.389372
vt 0.269266 0.357793
vt 0.323125 0.402853
vt 0.320267 0.431062
vt 0.320267 0.389372
vt 0.323125 0.357793
vt 0.312808 0.610053
vt 0.303115 0.871471
vt 0.303115 0.871471
vt 0.312808 0.610053
vt 0.279583 0.610053
vt 0.289277 0.871471
vt 0.303115 0.871471
vt 0.312808 0.610053
vn -0.4901512 0.8675663 -0.08414603
vn -0.4901512 0.8675663 -0.08414603
vn -0.4901512 0.8675663 -0.08414603
vn 0.5205458 0.8491446 0.08936197
vn 0.5205458 0.8491446 0.08936197
vn 0.5205458 0.8491446 0.08936197
vn 0 1 0
vn 0 1 0
vn 0 1 0
vn 0 1 0
vn 0.324183 0.9443559 0.05565299
vn 0.324183 0.9443559 0.05565299
vn 0.324183 0.9443559 0.05565299
vn 0.324183 0.9443559 0.05565299
vn -0.2981929 0.9531318 -0.05119299
vn -0.2981929 0.9531318 -0.05119299
vn -0.2981929 0.9531318 -0.05119299
vn -0.2981929 0.9531318 -0.05119299
vn -0.9172872 0.3549561 -0.1805281
vn -0.9172872 0.3549561 -0.1805281
vn -0.9172872 0.3549561 -0.1805281
vn -0.9172872 0.3549561 -0.1805281
vn -0.9172872 0.3549561 -0.1805281
vn -0.9172872 0.3549561 -0.1805281
vn 0.9969611 -0.069437 0.035315
vn 0.9969611 -0.069437 0.035315
vn 0.9969611 -0.069437 0.035315
vn 0.9969611 -0.069437 0.035315
vn 0.9969611 -0.069437 0.035315
vn 0.9969611 -0.069437 0.035315
vn 0.745159 0.666498 -0.02277
vn 0.745159 0.666498 -0.02277
vn 0.745159 0.666498 -0.02277
vn 0.745159 0.666498 -0.02277
vn 0.745159 0.666498 -0.02277
vn 0.745159 0.666498 -0.02277
vn -0.8868423 -0.4472871 0.115953
vn -0.8868423 -0.4472871 0.115953
vn -0.8868423 -0.4472871 0.115953
vn -0.8868423 -0.4472871 0.115953
vn -0.8868423 -0.4472871 0.115953
vn -0.8868423 -0.4472871 0.115953
vn -0.007238999 0.314624 -0.9491888
vn -0.007238999 0.314624 -0.9491888
vn -0.007238999 0.314624 -0.9491888
vn -0.007238999 0.314624 -0.9491888
vn 0 1 0
vn 0 1 0
vn 0 1 0
vn 0 1 0
vn 0 0.015563 0.9998789
vn 0 0.015563 0.9998789
vn 0 0.015563 0.9998789
vn 0 0.015563 0.9998789
vn 0 0.081566 0.9966679
vn 0 0.081566 0.9966679
vn 0 0.081566 0.9966679
vn 0 0.081566 0.9966679
vn 0 0.02334601 -0.9997274
vn 0 0.02334601 -0.9997274
vn 0 0.02334601 -0.9997274
vn 0 0.02334601 -0.9997274
vn -0.941265 0.337669 0
vn -0.941265 0.337669 0
vn -0.941265 0.337669 0
vn -0.941265 0.337669 0
vn 0 0.111083 -0.9938112
vn 0 0.111083 -0.9938112
vn 0 0.111083 -0.9938112
vn 0 0.111083 -0.9938112
vn 0 0.156914 0.9876123
vn 0 0.156914 0.9876123
vn 0 0.156914 0.9876123
vn 0 0.156914 0.9876123
vn -0.998915 0.040199 -0.023512
vn -0.998915 0.040199 -0.023512
vn -0.998915 0.040199 -0.023512
vn -0.998915 0.040199 -0.023512
vn 0 -0.07498 -0.9971851
vn 0 -0.07498 -0.9971851
vn 0 -0.07498 -0.9971851
vn 0 -0.07498 -0.9971851
vn 0.998915 0.040199 -0.023512
vn 0.998915 0.040199 -0.023512
vn 0.998915 0.040199 -0.023512
vn 0.998915 0.040199 -0.023512
vn 0.977264 -0.212026 0
vn 0.977264 -0.212026 0
vn 0.977264 -0.212026 0
vn 0.977264 -0.212026 0
vn 0 -0.03769102 0.9992894
vn 0 -0.03769102 0.9992894
vn 0 -0.03769102 0.9992894
vn 0 -0.03769102 0.9992894
g Tree00_0
f 3/3/3 2/2/2 1/1/1
f 6/6/6 5/5/5 4/4/4
f 9/9/9 8/8/8 7/7/7
f 10/10/10 9/9/9 7/7/7
f 13/13/13 12/12/12 11/11/11
f 14/14/14 13/13/13 11/11/11
f 17/17/17 16/16/16 15/15/15
f 18/18/18 17/17/17 15/15/15
g Tree00_1
f 21/21/21 20/20/20 19/19/19
f 24/24/24 23/23/23 22/22/22
f 27/27/27 26/26/26 25/25/25
f 30/30/30 29/29/29 28/28/28
f 33/33/33 32/32/32 31/31/31
f 36/36/36 35/35/35 34/34/34
f 39/39/39 38/38/38 37/37/37
f 42/42/42 41/41/41 40/40/40
f 45/45/45 44/44/44 43/43/43
f 46/46/46 45/45/45 43/43/43
f 49/49/49 48/48/48 47/47/47
f 50/50/50 49/49/49 47/47/47
f 53/53/53 52/52/52 51/51/51
f 54/54/54 53/53/53 51/51/51
f 57/57/57 56/56/56 55/55/55
f 58/58/58 57/57/57 55/55/55
f 61/61/61 60/60/60 59/59/59
f 62/62/62 61/61/61 59/59/59
f 65/65/65 64/64/64 63/63/63
f 66/66/66 65/65/65 63/63/63
f 69/69/69 68/68/68 67/67/67
f 70/70/70 69/69/69 67/67/67
f 73/73/73 72/72/72 71/71/71
f 74/74/74 73/73/73 71/71/71
f 77/77/77 76/76/76 75/75/75
f 78/78/78 77/77/77 75/75/75
f 81/81/81 80/80/80 79/79/79
f 82/82/82 81/81/81 79/79/79
f 85/85/85 84/84/84 83/83/83
f 86/86/86 85/85/85 83/83/83
f 89/89/89 88/88/88 87/87/87
f 90/90/90 89/89/89 87/87/87
f 93/93/93 92/92/92 91/91/91
f 94/94/94 93/93/93 91/91/91
