g TriPyramid
v 0 1 0
v -0.866025 -0.5 0
v 0.866025 -0.5 0
v -0.866025 -0.5 0
v 0 1 0
v 0 0 1.498912
v 0 1 0
v 0.866025 -0.5 0
v 0 0 1.498912
v 0.866025 -0.5 0
v -0.866025 -0.5 0
v 0 0 1.498912
vt 0 0
vt 0 0
vt 0 0
vt 0 0
vt 0 0
vt 0 0
vt 0 0
vt 0 0
vt 0 0
vt 0 0
vt 0 0
vt 0 0
vn 0 0 -1
vn 0 0 -1
vn 0 0 -1
vn -0.8215277 0.4743057 0.3164276
vn -0.8215277 0.4743057 0.3164276
vn -0.8215277 0.4743057 0.3164276
vn 0.8215277 0.4743057 0.3164276
vn 0.8215277 0.4743057 0.3164276
vn 0.8215277 0.4743057 0.3164276
vn 0 -0.9486192 0.31642
vn 0 -0.9486192 0.31642
vn 0 -0.9486192 0.31642
g TriPyramid_0
f 3/3/3 2/2/2 1/1/1
f 6/6/6 5/5/5 4/4/4
f 9/9/9 8/8/8 7/7/7
f 12/12/12 11/11/11 10/10/10
