g WallSide
v 0.5 0.5 1
v -0.5 0.5 1
v -0.5 0.5 0
v 0.5 0.5 0
v 0.5 0.5 1
v 0.5 0.375 1
v -0.5 0.375 1
v -0.5 0.5 1
v 0.5 0.375 0
v -0.5 0.375 0
v -0.5 0.375 1
v 0.5 0.375 1
vt 0.5 1
vt 0.000122 1
vt 0.000122 0.5
vt 0.5 0.5
vt 0.5625 0.5
vt 0.5 0.5
vt 0.5 0.003906
vt 0.5625 0.003906
vt 0 0.000122
vt 0.500893 0.000122
vt 0.500893 0.5
vt 0 0.5
vn 0 1 0
vn 0 1 0
vn 0 1 0
vn 0 1 0
vn 0 0 1
vn 0 0 1
vn 0 0 1
vn 0 0 1
vn 0 -1 0
vn 0 -1 0
vn 0 -1 0
vn 0 -1 0
g WallSide_0
f 3/3/3 2/2/2 1/1/1
f 4/4/4 3/3/3 1/1/1
f 7/7/7 6/6/6 5/5/5
f 8/8/8 7/7/7 5/5/5
f 11/11/11 10/10/10 9/9/9
f 12/12/12 11/11/11 9/9/9
