g Waterfall_GripRotate
v 0.5 8 -0.25
v 0 8 -0.25
v -0.5 8 -0.25
v -0.5 7 0.25
v -0.5 7.5 0.25
v 0.499999 7.5 0.25
v 0.499999 7 0.25
v -0.5 6.5 0.25
v 0.499999 6.5 0.25
v -0.5 6 0.25
v 0.499999 6 0.25
v -0.5 5.5 0.25
v 0.499999 5.5 0.25
v -0.5 5 0.25
v 0.499999 5 0.25
v -0.5 4.5 0.25
v 0.499999 4.5 0.25
v 0.5 4 0.25
v -0.5 4 0.25
v 0.5 3.5 0.25
v -0.5 3.5 0.25
v -0.5 3 0.25
v 0.499999 3.5 0.25
v 0.499999 3 0.25
v -0.5 2.5 0.25
v 0.499999 2.5 0.25
v -0.5 2 0.25
v 0.499999 2 0.25
v -0.5 1.5 0.25
v 0.499999 1.5 0.25
v -0.5 1 0.25
v 0.499999 1 0.25
v -0.5 0.5 0.25
v 0.499999 0.5 0.25
v 0.5 0 0.25
v -0.5 0 0.25
v 0.5 -0.5 0.25
v -0.5 -0.5 0.25
v -0.5 -1 0.25
v 0.499999 -0.5 0.25
v 0.499999 -1 0.25
v -0.5 -1.5 0.25
v 0.499999 -1.5 0.25
v -0.5 -2 0.25
v 0.499999 -2 0.25
v -0.5 -2.5 0.25
v 0.499999 -2.5 0.25
v -0.5 -3 0.25
v 0.499999 -3 0.25
v -0.5 -3.5 0.25
v 0.499999 -3.5 0.25
v 0.5 8 -0.5
v -0.5 8 -1
v 0.499999 8 -1
v -0.5 8 -0.5
v -0.5 8 -0.25
v 0.5 8 -0.25
v -0.5 8 0
v 0 8 -0.25
v 0.5 8 0
v 0.5 7.959628 0.09095
v -0.5 7.959627 0.09095
v 0.5 7.875 0.156612
v -0.5 7.875 0.156612
v 0.5 7.75 0.222273
v -0.5 7.75 0.222273
v 0.5 7.5 0.25
v -0.5 7.5 0.25
vt 0.5 0.09375
vt 0.375 0.09375
vt 0.25 0.09375
vt 0.25 0.96875
vt 0.25 1
vt 0.5 1
vt 0.5 0.96875
vt 0.25 0.9375
vt 0.5 0.9375
vt 0.25 0.90625
vt 0.5 0.90625
vt 0.25 0.875
vt 0.5 0.875
vt 0.25 0.84375
vt 0.5 0.84375
vt 0.25 0.8125
vt 0.5 0.8125
vt 0.5 0.78125
vt 0.25 0.78125
vt 0.5 0.75
vt 0.25 0.75
vt 0.25 0.71875
vt 0.5 0.75
vt 0.5 0.71875
vt 0.25 0.6875
vt 0.5 0.6875
vt 0.25 0.65625
vt 0.5 0.65625
vt 0.25 0.625
vt 0.5 0.625
vt 0.25 0.59375
vt 0.5 0.59375
vt 0.25 0.5625
vt 0.5 0.5625
vt 0.5 0.53125
vt 0.25 0.53125
vt 0.5 0.5
vt 0.25 0.5
vt 0.25 0.46875
vt 0.5 0.5
vt 0.5 0.46875
vt 0.25 0.4375
vt 0.5 0.4375
vt 0.25 0.40625
vt 0.5 0.40625
vt 0.25 0.375
vt 0.5 0.375
vt 0.25 0.34375
vt 0.5 0.34375
vt 0.25 0.3125
vt 0.5 0.3125
vt 0.5 0.125
vt 0.25 0.25
vt 0.5 0.25
vt 0.25 0.125
vt 0.25 0.09375
vt 0.5 0.09375
vt 0.25 0.0625
vt 0.375 0.09375
vt 0.5 0.0625
vt 0.5 0.046875
vt 0.25 0.046875
vt 0.5 0.03125
vt 0.25 0.03125
vt 0.5 0.015625
vt 0.25 0.015625
vt 0.5 0
vt 0.25 0
vn 0 1 0
vn 0 1 0
vn 0 1 0
vn 0 0 1
vn 0 0 1
vn 0 0 1
vn 0 0 1
vn 0 0 1
vn 0 0 1
vn 0 0 1
vn 0 0 1
vn 0 0 1
vn 0 0 1
vn 0 0 1
vn 0 0 1
vn 0 0 1
vn 0 0 1
vn 0 0 1
vn 0 0 1
vn 0 0 1
vn 0 0 1
vn 0 0 1
vn 0 0 1
vn 0 0 1
vn 0 0 1
vn 0 0 1
vn 0 0 1
vn 0 0 1
vn 0 0 1
vn 0 0 1
vn 0 0 1
vn 0 0 1
vn 0 0 1
vn 0 0 1
vn 0 0 1
vn 0 0 1
vn 0 0 1
vn 0 0 1
vn 0 0 1
vn 0 0 1
vn 0 0 1
vn 0 0 1
vn 0 0 1
vn 0 0 1
vn 0 0 1
vn 0 0 1
vn 0 0 1
vn 0 0 1
vn 0 0 1
vn 0 0 1
vn 0 0 1
vn 0 1 0
vn 0 1 0
vn 0 1 0
vn 0 1 0
vn 0 1 0
vn 0 1 0
vn 0 0.9782671 0.2073487
vn 0 1 0
vn 0 0.9782671 0.2073487
vn 0 0.7873235 0.6165401
vn 0 0.7873235 0.6165401
vn 0 0.5411043 0.8409556
vn 0 0.5411043 0.8409556
vn 0 0.292711 0.956201
vn 0 0.292711 0.956201
vn 0 0.1102341 0.9939057
vn 0 0.1102341 0.9939057
g Waterfall_GripRotate_0
f 3/3/3 2/2/2 1/1/1
f 6/6/6 5/5/5 4/4/4
f 7/7/7 6/6/6 4/4/4
f 7/7/7 4/4/4 8/8/8
f 9/9/9 7/7/7 8/8/8
f 9/9/9 8/8/8 10/10/10
f 11/11/11 9/9/9 10/10/10
f 11/11/11 10/10/10 12/12/12
f 13/13/13 11/11/11 12/12/12
f 13/13/13 12/12/12 14/14/14
f 15/15/15 13/13/13 14/14/14
f 15/15/15 14/14/14 16/16/16
f 17/17/17 15/15/15 16/16/16
f 17/17/17 16/16/16 18/18/18
f 16/16/16 19/19/19 18/18/18
f 18/18/18 19/19/19 20/20/20
f 19/19/19 21/21/21 20/20/20
f 23/23/23 21/21/21 22/22/22
f 24/24/24 23/23/23 22/22/22
f 24/24/24 22/22/22 25/25/25
f 26/26/26 24/24/24 25/25/25
f 26/26/26 25/25/25 27/27/27
f 28/28/28 26/26/26 27/27/27
f 28/28/28 27/27/27 29/29/29
f 30/30/30 28/28/28 29/29/29
f 30/30/30 29/29/29 31/31/31
f 32/32/32 30/30/30 31/31/31
f 32/32/32 31/31/31 33/33/33
f 34/34/34 32/32/32 33/33/33
f 34/34/34 33/33/33 35/35/35
f 33/33/33 36/36/36 35/35/35
f 35/35/35 36/36/36 37/37/37
f 36/36/36 38/38/38 37/37/37
f 40/40/40 38/38/38 39/39/39
f 41/41/41 40/40/40 39/39/39
f 41/41/41 39/39/39 42/42/42
f 43/43/43 41/41/41 42/42/42
f 43/43/43 42/42/42 44/44/44
f 45/45/45 43/43/43 44/44/44
f 45/45/45 44/44/44 46/46/46
f 47/47/47 45/45/45 46/46/46
f 47/47/47 46/46/46 48/48/48
f 49/49/49 47/47/47 48/48/48
f 49/49/49 48/48/48 50/50/50
f 51/51/51 49/49/49 50/50/50
f 54/54/54 53/53/53 52/52/52
f 53/53/53 55/55/55 52/52/52
f 52/52/52 55/55/55 56/56/56
f 56/56/56 57/57/57 52/52/52
f 59/59/59 56/56/56 58/58/58
f 58/58/58 57/57/57 59/59/59
f 58/58/58 60/60/60 57/57/57
f 60/60/60 58/58/58 61/61/61
f 58/58/58 62/62/62 61/61/61
f 61/61/61 62/62/62 63/63/63
f 62/62/62 64/64/64 63/63/63
f 63/63/63 64/64/64 65/65/65
f 64/64/64 66/66/66 65/65/65
f 65/65/65 66/66/66 67/67/67
f 66/66/66 68/68/68 67/67/67
