g WaterRipplePool_GripRotate
v -3.999999 0 -2.75
v -4 0 -4
v -2.88685 0 -3.06436
v -3.999999 0 -1.5
v -3.463754 0 -2.125
v -2.88685 0 -3.06436
v -3.68564 0 -1.397924
v -4 0 -0.750001
v -3.759602 0 -0.74334
v -4 0 0
v -3.789186 0 -1E-06
v -3.352141 0 -0.62167
v -3.362046 0 -1E-06
v -3.226406 0 -1.198962
v -2.989728 0 -1.8125
v -2.500388 0 -2.618729
v -2.944681 0 -0.500001
v -2.934905 0 -1E-06
v -2.767172 0 -1
v -2.394221 0 -0.437501
v -2.404952 0 -1E-06
v -2.515701 0 -1.5
v -2.124999 0 -3.389793
v -2.499999 0 -4
v -2.113927 0 -2.173097
v -1.499999 0 -4
v -1.741637 0 -0.354229
v -1.771145 0 -1E-06
v -2.305466 0 -0.876779
v -1.833953 0 -2.921972
v -1.375001 0 -3.733574
v -0.749999 0 -4
v -1.208953 0 -3.171381
v -0.625 0 -3.837121
v 1E-06 0 -3.999999
v 1E-06 0 -3.789186
v -0.5625 0 -3.237947
v 1E-06 0 -3.287496
v 1E-06 0 -2.785806
v -1.542906 0 -2.454152
v -1.042906 0 -2.609189
v -0.5 0 -2.638774
v 1E-06 0 -2.330403
v -1.83092 0 -1.78974
v -1.345271 0 -2.070795
v -0.907771 0 -2.150091
v -0.4375 0 -2.246242
v 0 0 -1.771145
v -2.142751 0 -1.23292
v -1.462176 0 -1.328484
v -1.084069 0 -1.593972
v -0.72984 0 -1.597331
v -0.354229 0 -1.751035
v -0.254099 0 -1.139999
v 0 0 -1.168857
v 0 0 -0.577778
v -1.671772 0 -0.912343
v -0.95535 0 -0.866922
v -0.718337 0 -1.030302
v -1.741637 0 -0.711818
v -1.07563 0 -0.639341
v -1.123742 0 -0.487479
v -0.463337 0 -0.419443
v -0.494308 0 -1.073846
v -0.35778 0 -0.489241
v 0 0 0
v -0.506071 0 -0.350552
v 0 0 0
v -0.256069 0 -0.549068
v 0 0 0
v -0.144445 0 -0.549067
v 0 0 0
v 0 0 0
v -0.531711 0 -0.257388
v 0 0 0
v -1.154814 0 -0.2541
v -1.168858 0 0
v -0.575869 0 -0.144445
v 0 0 0
v -0.577779 0 0
v 0 0 0
v -2.88685 0 -3.06436
v -4 0 -4
v -0.577779 0 0
v 0 0 0
v -0.549068 0 0.144445
v -1.14 0 0.2541
v -1.168858 0 0
v -1.771145 0 -1E-06
v -0.549068 0 0.256069
v 0 0 0
v -1.751034 0 0.354229
v -2.374041 0 0.4375
v -2.277891 0 0.907771
v -2.404952 0 -1E-06
v -2.894372 0 0.5
v -2.934905 0 -1E-06
v -3.362046 0 -1E-06
v -1.597331 0 0.72984
v -1.593971 0 1.084069
v -1.073846 0 0.494307
v -3.365746 0 0.5625
v -3.789186 0 -1E-06
v -0.489241 0 0.35778
v 0 0 0
v -1.030302 0 0.718337
v -0.419443 0 0.463337
v 0 0 0
v -2.864787 0 1.042907
v -3.837121 0 0.625
v -4 0 0
v -4 0 0.75
v -3.299181 0 1.208953
v -3.733574 0 1.375
v -4 0 1.5
v -3.676277 0 1.5
v -3.123525 0 1.5
v -2.489389 0 1.5
v -2.070795 0 1.345271
v -2.370925 0 1.5
v -1.98125 0 1.5
v -1.375796 0 1.5
v -1.328484 0 1.462177
v -1.253388 0 1.5
v -0.83368 0 1.5
v -0.866922 0 0.95535
v -0.63934 0 1.07563
v -0.624086 0 1.5
v -0.350552 0 0.506071
v 0 0 0
v -0.487479 0 1.123742
v -0.312998 0 1.5
v -0.257388 0 0.531711
v 0 0 0
v -0.254099 0 1.154814
v 0 0 1.5
v 0 0 1.168857
v -0.144444 0 0.575868
v 0 0 0
v 0 0 0.577778
v 0 0 0
v 0.577778 0 0
v 0 0 0
v 0.549068 0 -0.144445
v 1.000049 0 0
v 1.000038 0 -0.228128
v 0.549068 0 -0.256069
v 0 0 0
v 1.000027 0 -0.460795
v 0.489241 0 -0.35778
v 0 0 0
v 1.000015 0 -0.698154
v 0.419443 0 -0.463337
v 0 0 0
v 1.000012 0 -0.762278
v 0.866922 0 -0.95535
v 0.999995 0 -1.101473
v 0.639341 0 -1.07563
v 0.350552 0 -0.506071
v 0 0 0
v 0.912343 0 -1.671772
v 0.999969 0 -1.627638
v 0.999963 0 -1.764188
v 0.999946 0 -2.116343
v 0.876779 0 -2.172616
v 0.999926 0 -2.501273
v 0.999926 0 -2.501497
v 0.711818 0 -1.741637
v 0.487479 0 -1.123742
v 0.437501 0 -2.261371
v 0.257388 0 -0.531711
v 0 0 0
v 0.354229 0 -1.741637
v 0.2541 0 -1.154814
v 0.500001 0 -2.678979
v 0.999895 0 -3.136913
v 0 0 -1.771145
v 1E-06 0 -2.330403
v 0 0 -1.168857
v 1E-06 0 -2.785806
v 0.144444 0 -0.575868
v 0 0 0
v 0 0 -0.577778
v 0 0 0
v 0.62167 0 -3.21929
v 1E-06 0 -3.287496
v 0.999866 0 -3.730617
v 1E-06 0 -3.789186
v 0.74334 0 -3.759602
v 0.999853 0 -4
v 1E-06 0 -3.999999
v 0.750001 0 -4
v 0.531711 0 0.257388
v 0 0 0
v 0.575869 0 0.144445
v 1.00006 0 0.224788
v 1.000049 0 0
v 0.577778 0 0
v 0 0 0
v 1.000071 0 0.439414
v 0.506071 0 0.350552
v 0 0 0
v 1.000079 0 0.601033
v 0.463337 0 0.419443
v 0 0 0
v 1.000088 0 0.782275
v 0.955351 0 0.866922
v 0.718337 0 1.030302
v 1.000094 0 0.90767
v 1.000097 0 0.974817
v 1.000121 0 1.464591
v 1.000123 0 1.5
v 0.686048 0 1.5
v 0.35778 0 0.48924
v 0 0 0
v 0.494308 0 1.073846
v 0.313093 0 1.5
v 0.256069 0 0.549067
v 0 0 0
v 0.2541 0 1.139999
v 0 0 1.5
v 0 0 1.168857
v 0 0 0.577778
v 0.144445 0 0.549067
v 0 0 0
v 0 0 0
vt 0.374999 0
vt 0.499999 0
vt 0.499999 0.25
vt 0.249999 0
vt 0.374999 0.25
vt 0.499999 0.25
vt 0.249999 0.25
vt 0.124999 0
vt 0.124999 0.25
vt 0 0
vt 0 0.25
vt 0.124999 0.375
vt 0 0.375
vt 0.249999 0.375
vt 0.374999 0.375
vt 0.499999 0.375
vt 0.124999 0.5
vt 0 0.5
vt 0.249999 0.5
vt 0.124999 0.5625
vt 0 0.5625
vt 0.374999 0.5
vt 0.625 0.25
vt 0.625 0
vt 0.499999 0.5
vt 0.75 0
vt 0.124999 0.625
vt 0 0.625
vt 0.249999 0.5625
vt 0.624999 0.375
vt 0.75 0.25
vt 0.875 0
vt 0.749999 0.375
vt 0.875 0.25
vt 1 0
vt 1 0.25
vt 0.875 0.375
vt 1 0.375
vt 1 0.5
vt 0.624999 0.5
vt 0.749999 0.5
vt 0.874999 0.5
vt 1 0.5625
vt 0.499999 0.5625
vt 0.624999 0.5625
vt 0.749999 0.5625
vt 0.875 0.5625
vt 1 0.625
vt 0.374999 0.5625
vt 0.499999 0.625
vt 0.624999 0.625
vt 0.749999 0.625
vt 0.874999 0.625
vt 0.875 0.753125
vt 0.999999 0.753125
vt 1 0.88125
vt 0.374999 0.625
vt 0.499999 0.753125
vt 0.624999 0.753125
vt 0.249999 0.625
vt 0.374999 0.753125
vt 0.249999 0.753125
vt 0.499999 0.88125
vt 0.749999 0.753125
vt 0.625 0.88125
vt 0.499999 1
vt 0.374999 0.88125
vt 0.374999 1
vt 0.749999 0.88125
vt 0.624999 1
vt 0.874999 0.88125
vt 0.749999 1
vt 0.874999 1
vt 0.249999 0.88125
vt 0.249999 1
vt 0.124999 0.753125
vt 0 0.753125
vt 0.124999 0.88125
vt 0.124999 1
vt 0 0.88125
vt 0 1
vt 0.499999 0.25
vt 0.499999 0
vt 1 0.88125
vt 0.875 1
vt 0.874999 0.88125
vt 0.875 0.753125
vt 1 0.753125
vt 0.999999 0.625
vt 0.749999 0.88125
vt 0.749999 1
vt 0.875 0.625
vt 0.875 0.5625
vt 0.749999 0.5625
vt 0.999999 0.5625
vt 0.875 0.5
vt 1 0.5
vt 1 0.375
vt 0.749999 0.625
vt 0.624999 0.625
vt 0.75 0.753125
vt 0.875 0.375
vt 1 0.250001
vt 0.625 0.88125
vt 0.624999 1
vt 0.624999 0.753125
vt 0.499999 0.88125
vt 0.499999 1
vt 0.749999 0.5
vt 0.875 0.25
vt 1 0
vt 0.875 0
vt 0.749999 0.375
vt 0.749999 0.25
vt 0.75 0
vt 0.729166 0.25
vt 0.69179 0.375
vt 0.635726 0.5
vt 0.624999 0.5625
vt 0.624999 0.513569
vt 0.585174 0.5625
vt 0.499999 0.618589
vt 0.499999 0.625
vt 0.477442 0.625
vt 0.374999 0.661918
vt 0.499999 0.753125
vt 0.374999 0.753125
vt 0.249999 0.675105
vt 0.374999 0.88125
vt 0.375 1
vt 0.249999 0.753125
vt 0.124999 0.677758
vt 0.249999 0.88125
vt 0.249999 1
vt 0.124999 0.753125
vt 0 0.682681
vt 0 0.753125
vt 0.124999 0.88125
vt 0.124999 1
vt 0 0.88125
vt 0 1
vt 1 0.88125
vt 0.874999 1
vt 0.874999 0.88125
vt 1 0.789717
vt 0.875 0.783471
vt 0.749999 0.88125
vt 0.749999 1
vt 0.749999 0.771148
vt 0.624999 0.88125
vt 0.624999 1
vt 0.624999 0.760297
vt 0.499999 0.88125
vt 0.499999 1
vt 0.601825 0.753125
vt 0.499999 0.753125
vt 0.499999 0.716185
vt 0.374999 0.753125
vt 0.374999 0.88125
vt 0.374999 1
vt 0.374999 0.625
vt 0.40132 0.625
vt 0.374999 0.607918
vt 0.293229 0.5625
vt 0.249999 0.5625
vt 0.249999 0.500038
vt 0.249981 0.5
vt 0.249999 0.625
vt 0.249999 0.753125
vt 0.124999 0.5625
vt 0.249999 0.88125
vt 0.249999 1
vt 0.124999 0.625
vt 0.124999 0.753125
vt 0.124999 0.5
vt 0.206896 0.375
vt 0 0.625
vt 0 0.5625
vt 0 0.753125
vt 0 0.5
vt 0.124999 0.88125
vt 0.124999 1
vt 0 0.88125
vt 0 1
vt 0.124999 0.375
vt 0 0.375
vt 0.173986 0.25
vt 0 0.25
vt 0.124999 0.25
vt 0.166641 0
vt 0 0
vt 0.124999 0
vt 0.249999 0.88125
vt 0.124999 1
vt 0.124999 0.88125
vt 0.124999 0.787373
vt 0 0.789717
vt 0 0.88125
vt 0 1
vt 0.249999 0.779889
vt 0.374999 0.88125
vt 0.249999 1
vt 0.374999 0.770121
vt 0.499999 0.88125
vt 0.374999 1
vt 0.453506 0.753125
vt 0.499999 0.753125
vt 0.624999 0.753125
vt 0.499999 0.741814
vt 0.513762 0.731289
vt 0.624999 0.654409
vt 0.633519 0.646528
vt 0.749999 0.648822
vt 0.624999 0.88125
vt 0.499999 1
vt 0.749999 0.753125
vt 0.874999 0.677638
vt 0.749999 0.88125
vt 0.624999 1
vt 0.874999 0.753125
vt 1 0.682681
vt 1 0.753125
vt 1 0.88125
vt 0.874999 0.88125
vt 0.75 1
vt 0.875 1
vn 0 1 0
vn 0 1 0
vn 0 1 0
vn 0 1 0
vn 0 1 0
vn 0 1 0
vn 0 1 0
vn 0 1 0
vn 0 1 0
vn 0 1 0
vn 0 1 0
vn 0 1 0
vn 0 1 0
vn 0 1 0
vn 0 1 0
vn 0 1 0
vn 0 1 0
vn 0 1 0
vn 0 1 0
vn 0 1 0
vn 0 1 0
vn 0 1 0
vn 0 1 0
vn 0 1 0
vn 0 1 0
vn 0 1 0
vn 0 1 0
vn 0 1 0
vn 0 1 0
vn 0 1 0
vn 0 1 0
vn 0 1 0
vn 0 1 0
vn 0 1 0
vn 0 1 0
vn 0 1 0
vn 0 1 0
vn 0 1 0
vn 0 1 0
vn 0 1 0
vn 0 1 0
vn 0 1 0
vn 0 1 0
vn 0 1 0
vn 0 1 0
vn 0 1 0
vn 0 1 0
vn 0 1 0
vn 0 1 0
vn 0 1 0
vn 0 1 0
vn 0 1 0
vn 0 1 0
vn 0 1 0
vn 0 1 0
vn 0 1 0
vn 0 1 0
vn 0 1 0
vn 0 1 0
vn 0 1 0
vn 0 1 0
vn 0 1 0
vn 0 1 0
vn 0 1 0
vn 0 1 0
vn 0 1 0
vn 0 1 0
vn 0 1 0
vn 0 1 0
vn 0 1 0
vn 0 1 0
vn 0 1 0
vn 0 1 0
vn 0 1 0
vn 0 1 0
vn 0 1 0
vn 0 1 0
vn 0 1 0
vn 0 1 0
vn 0 1 0
vn 0 1 0
vn 0 1 0
vn 0 1 0
vn 0 1 0
vn 0 1 0
vn 0 1 0
vn 0 1 0
vn 0 1 0
vn 0 1 0
vn 0 1 0
vn 0 1 0
vn 0 1 0
vn 0 1 0
vn 0 1 0
vn 0 1 0
vn 0 1 0
vn 0 1 0
vn 0 1 0
vn 0 1 0
vn 0 1 0
vn 0 1 0
vn 0 1 0
vn 0 1 0
vn 0 1 0
vn 0 1 0
vn 0 1 0
vn 0 1 0
vn 0 1 0
vn 0 1 0
vn 0 1 0
vn 0 1 0
vn 0 1 0
vn 0 1 0
vn 0 1 0
vn 0 1 0
vn 0 1 0
vn 0 1 0
vn 0 1 0
vn 0 1 0
vn 0 1 0
vn 0 1 0
vn 0 1 0
vn 0 1 0
vn 0 1 0
vn 0 1 0
vn 0 1 0
vn 0 1 0
vn 0 1 0
vn 0 1 0
vn 0 1 0
vn 0 1 0
vn 0 1 0
vn 0 1 0
vn 0 1 0
vn 0 1 0
vn 0 1 0
vn 0 1 0
vn 0 1 0
vn 0 1 0
vn 0 1 0
vn 0 1 0
vn 0 1 0
vn 0 1 0
vn 0 1 0
vn 0 1 0
vn 0 1 0
vn 0 1 0
vn 0 1 0
vn 0 1 0
vn 0 1 0
vn 0 1 0
vn 0 1 0
vn 0 1 0
vn 0 1 0
vn 0 1 0
vn 0 1 0
vn 0 1 0
vn 0 1 0
vn 0 1 0
vn 0 1 0
vn 0 1 0
vn 0 1 0
vn 0 1 0
vn 0 1 0
vn 0 1 0
vn 0 1 0
vn 0 1 0
vn 0 1 0
vn 0 1 0
vn 0 1 0
vn 0 1 0
vn 0 1 0
vn 0 1 0
vn 0 1 0
vn 0 1 0
vn 0 1 0
vn 0 1 0
vn 0 1 0
vn 0 1 0
vn 0 1 0
vn 0 1 0
vn 0 1 0
vn 0 1 0
vn 0 1 0
vn 0 1 0
vn 0 1 0
vn 0 1 0
vn 0 1 0
vn 0 1 0
vn 0 1 0
vn 0 1 0
vn 0 1 0
vn 0 1 0
vn 0 1 0
vn 0 1 0
vn 0 1 0
vn 0 1 0
vn 0 1 0
vn 0 1 0
vn 0 1 0
vn 0 1 0
vn 0 1 0
vn 0 1 0
vn 0 1 0
vn 0 1 0
vn 0 1 0
vn 0 1 0
vn 0 1 0
vn 0 1 0
vn 0 1 0
vn 0 1 0
vn 0 1 0
vn 0 1 0
vn 0 1 0
vn 0 1 0
vn 0 1 0
vn 0 1 0
vn 0 1 0
vn 0 1 0
vn 0 1 0
vn 0 1 0
vn 0 1 0
vn 0 1 0
vn 0 1 0
vn 0 1 0
vn 0 1 0
g WaterRipplePool_GripRotate_0
f 3/3/3 2/2/2 1/1/1
f 5/5/5 1/1/1 4/4/4
f 5/5/5 6/6/6 1/1/1
f 7/7/7 5/5/5 4/4/4
f 7/7/7 4/4/4 8/8/8
f 9/9/9 7/7/7 8/8/8
f 9/9/9 8/8/8 10/10/10
f 11/11/11 9/9/9 10/10/10
f 12/12/12 9/9/9 11/11/11
f 13/13/13 12/12/12 11/11/11
f 14/14/14 7/7/7 9/9/9
f 12/12/12 14/14/14 9/9/9
f 15/15/15 5/5/5 7/7/7
f 14/14/14 15/15/15 7/7/7
f 16/16/16 6/6/6 5/5/5
f 15/15/15 16/16/16 5/5/5
f 17/17/17 12/12/12 13/13/13
f 18/18/18 17/17/17 13/13/13
f 19/19/19 14/14/14 12/12/12
f 17/17/17 19/19/19 12/12/12
f 20/20/20 17/17/17 18/18/18
f 17/17/17 20/20/20 19/19/19
f 21/21/21 20/20/20 18/18/18
f 22/22/22 15/15/15 14/14/14
f 19/19/19 22/22/22 14/14/14
f 6/6/6 16/16/16 23/23/23
f 6/6/6 23/23/23 24/24/24
f 25/25/25 16/16/16 15/15/15
f 22/22/22 25/25/25 15/15/15
f 24/24/24 23/23/23 26/26/26
f 27/27/27 20/20/20 21/21/21
f 28/28/28 27/27/27 21/21/21
f 20/20/20 29/29/29 19/19/19
f 19/19/19 29/29/29 22/22/22
f 16/16/16 25/25/25 30/30/30
f 16/16/16 30/30/30 23/23/23
f 23/23/23 31/31/31 26/26/26
f 26/26/26 31/31/31 32/32/32
f 30/30/30 33/33/33 23/23/23
f 33/33/33 31/31/31 23/23/23
f 31/31/31 34/34/34 32/32/32
f 31/31/31 33/33/33 34/34/34
f 32/32/32 34/34/34 35/35/35
f 34/34/34 36/36/36 35/35/35
f 34/34/34 37/37/37 36/36/36
f 33/33/33 37/37/37 34/34/34
f 37/37/37 38/38/38 36/36/36
f 39/39/39 38/38/38 37/37/37
f 25/25/25 40/40/40 30/30/30
f 30/30/30 40/40/40 33/33/33
f 33/33/33 41/41/41 37/37/37
f 40/40/40 41/41/41 33/33/33
f 42/42/42 39/39/39 37/37/37
f 41/41/41 42/42/42 37/37/37
f 43/43/43 39/39/39 42/42/42
f 25/25/25 44/44/44 40/40/40
f 44/44/44 25/25/25 22/22/22
f 40/40/40 45/45/45 41/41/41
f 44/44/44 45/45/45 40/40/40
f 41/41/41 46/46/46 42/42/42
f 45/45/45 46/46/46 41/41/41
f 47/47/47 43/43/43 42/42/42
f 46/46/46 47/47/47 42/42/42
f 48/48/48 43/43/43 47/47/47
f 49/49/49 44/44/44 22/22/22
f 29/29/29 49/49/49 22/22/22
f 44/44/44 50/50/50 45/45/45
f 50/50/50 44/44/44 49/49/49
f 45/45/45 51/51/51 46/46/46
f 50/50/50 51/51/51 45/45/45
f 46/46/46 52/52/52 47/47/47
f 51/51/51 52/52/52 46/46/46
f 53/53/53 48/48/48 47/47/47
f 52/52/52 53/53/53 47/47/47
f 53/53/53 54/54/54 48/48/48
f 54/54/54 53/53/53 52/52/52
f 54/54/54 55/55/55 48/48/48
f 56/56/56 55/55/55 54/54/54
f 57/57/57 49/49/49 29/29/29
f 57/57/57 50/50/50 49/49/49
f 50/50/50 58/58/58 51/51/51
f 58/58/58 50/50/50 57/57/57
f 51/51/51 59/59/59 52/52/52
f 58/58/58 59/59/59 51/51/51
f 60/60/60 57/57/57 29/29/29
f 60/60/60 29/29/29 20/20/20
f 27/27/27 60/60/60 20/20/20
f 61/61/61 58/58/58 57/57/57
f 61/61/61 57/57/57 60/60/60
f 62/62/62 60/60/60 27/27/27
f 62/62/62 61/61/61 60/60/60
f 63/63/63 58/58/58 61/61/61
f 58/58/58 63/63/63 59/59/59
f 59/59/59 64/64/64 52/52/52
f 64/64/64 54/54/54 52/52/52
f 59/59/59 65/65/65 64/64/64
f 63/63/63 65/65/65 59/59/59
f 63/63/63 66/66/66 65/65/65
f 67/67/67 63/63/63 61/61/61
f 67/67/67 61/61/61 62/62/62
f 67/67/67 68/68/68 63/63/63
f 65/65/65 69/69/69 64/64/64
f 64/64/64 69/69/69 54/54/54
f 65/65/65 70/70/70 69/69/69
f 69/69/69 71/71/71 54/54/54
f 69/69/69 72/72/72 71/71/71
f 71/71/71 56/56/56 54/54/54
f 71/71/71 73/73/73 56/56/56
f 74/74/74 67/67/67 62/62/62
f 74/74/74 75/75/75 67/67/67
f 74/74/74 62/62/62 76/76/76
f 76/76/76 62/62/62 27/27/27
f 76/76/76 27/27/27 28/28/28
f 77/77/77 76/76/76 28/28/28
f 78/78/78 74/74/74 76/76/76
f 78/78/78 76/76/76 77/77/77
f 78/78/78 79/79/79 74/74/74
f 80/80/80 78/78/78 77/77/77
f 80/80/80 81/81/81 78/78/78
f 83/83/83 82/82/82 24/24/24
f 86/86/86 85/85/85 84/84/84
f 86/86/86 84/84/84 87/87/87
f 84/84/84 88/88/88 87/87/87
f 87/87/87 88/88/88 89/89/89
f 90/90/90 86/86/86 87/87/87
f 90/90/90 91/91/91 86/86/86
f 92/92/92 87/87/87 89/89/89
f 92/92/92 89/89/89 93/93/93
f 92/92/92 93/93/93 94/94/94
f 89/89/89 95/95/95 93/93/93
f 93/93/93 95/95/95 96/96/96
f 94/94/94 93/93/93 96/96/96
f 95/95/95 97/97/97 96/96/96
f 96/96/96 97/97/97 98/98/98
f 87/87/87 92/92/92 99/99/99
f 99/99/99 92/92/92 94/94/94
f 100/100/100 99/99/99 94/94/94
f 101/101/101 90/90/90 87/87/87
f 101/101/101 87/87/87 99/99/99
f 102/102/102 96/96/96 98/98/98
f 102/102/102 98/98/98 103/103/103
f 104/104/104 90/90/90 101/101/101
f 104/104/104 105/105/105 90/90/90
f 106/106/106 101/101/101 99/99/99
f 106/106/106 104/104/104 101/101/101
f 100/100/100 106/106/106 99/99/99
f 107/107/107 104/104/104 106/106/106
f 107/107/107 108/108/108 104/104/104
f 109/109/109 94/94/94 96/96/96
f 109/109/109 96/96/96 102/102/102
f 110/110/110 102/102/102 103/103/103
f 110/110/110 103/103/103 111/111/111
f 112/112/112 110/110/110 111/111/111
f 113/113/113 102/102/102 110/110/110
f 113/113/113 109/109/109 102/102/102
f 114/114/114 110/110/110 112/112/112
f 114/114/114 113/113/113 110/110/110
f 115/115/115 114/114/114 112/112/112
f 114/114/114 115/115/115 116/116/116
f 113/113/113 114/114/114 116/116/116
f 117/117/117 113/113/113 116/116/116
f 109/109/109 113/113/113 117/117/117
f 118/118/118 109/109/109 117/117/117
f 109/109/109 118/118/118 94/94/94
f 94/94/94 118/118/118 119/119/119
f 118/118/118 120/120/120 119/119/119
f 119/119/119 120/120/120 121/121/121
f 119/119/119 100/100/100 94/94/94
f 119/119/119 121/121/121 100/100/100
f 121/121/121 122/122/122 100/100/100
f 122/122/122 123/123/123 100/100/100
f 123/123/123 122/122/122 124/124/124
f 123/123/123 124/124/124 125/125/125
f 123/123/123 126/126/126 100/100/100
f 126/126/126 123/123/123 125/125/125
f 126/126/126 106/106/106 100/100/100
f 126/126/126 107/107/107 106/106/106
f 127/127/127 126/126/126 125/125/125
f 107/107/107 126/126/126 127/127/127
f 127/127/127 125/125/125 128/128/128
f 129/129/129 107/107/107 127/127/127
f 129/129/129 130/130/130 107/107/107
f 131/131/131 127/127/127 128/128/128
f 129/129/129 127/127/127 131/131/131
f 131/131/131 128/128/128 132/132/132
f 133/133/133 129/129/129 131/131/131
f 133/133/133 134/134/134 129/129/129
f 135/135/135 131/131/131 132/132/132
f 133/133/133 131/131/131 135/135/135
f 135/135/135 132/132/132 136/136/136
f 137/137/137 135/135/135 136/136/136
f 138/138/138 133/133/133 135/135/135
f 138/138/138 135/135/135 137/137/137
f 138/138/138 139/139/139 133/133/133
f 140/140/140 138/138/138 137/137/137
f 140/140/140 141/141/141 138/138/138
f 144/144/144 143/143/143 142/142/142
f 142/142/142 145/145/145 144/144/144
f 145/145/145 146/146/146 144/144/144
f 144/144/144 146/146/146 147/147/147
f 147/147/147 148/148/148 144/144/144
f 146/146/146 149/149/149 147/147/147
f 147/147/147 149/149/149 150/150/150
f 150/150/150 151/151/151 147/147/147
f 149/149/149 152/152/152 150/150/150
f 150/150/150 152/152/152 153/153/153
f 153/153/153 154/154/154 150/150/150
f 153/153/153 152/152/152 155/155/155
f 156/156/156 153/153/153 155/155/155
f 156/156/156 155/155/155 157/157/157
f 153/153/153 156/156/156 158/158/158
f 156/156/156 157/157/157 158/158/158
f 159/159/159 153/153/153 158/158/158
f 159/159/159 160/160/160 153/153/153
f 158/158/158 157/157/157 161/161/161
f 157/157/157 162/162/162 161/161/161
f 161/161/161 162/162/162 163/163/163
f 161/161/161 163/163/163 164/164/164
f 165/165/165 161/161/161 164/164/164
f 165/165/165 164/164/164 166/166/166
f 165/165/165 166/166/166 167/167/167
f 158/158/158 161/161/161 168/168/168
f 168/168/168 161/161/161 165/165/165
f 159/159/159 158/158/158 169/169/169
f 169/169/169 158/158/158 168/168/168
f 170/170/170 165/165/165 167/167/167
f 168/168/168 165/165/165 170/170/170
f 171/171/171 159/159/159 169/169/169
f 171/171/171 172/172/172 159/159/159
f 169/169/169 168/168/168 173/173/173
f 173/173/173 168/168/168 170/170/170
f 171/171/171 169/169/169 174/174/174
f 174/174/174 169/169/169 173/173/173
f 175/175/175 170/170/170 167/167/167
f 175/175/175 167/167/167 176/176/176
f 177/177/177 173/173/173 170/170/170
f 174/174/174 173/173/173 177/177/177
f 178/178/178 177/177/177 170/170/170
f 178/178/178 170/170/170 175/175/175
f 179/179/179 174/174/174 177/177/177
f 180/180/180 178/178/178 175/175/175
f 181/181/181 171/171/171 174/174/174
f 181/181/181 174/174/174 179/179/179
f 181/181/181 182/182/182 171/171/171
f 183/183/183 181/181/181 179/179/179
f 183/183/183 184/184/184 181/181/181
f 185/185/185 175/175/175 176/176/176
f 180/180/180 175/175/175 185/185/185
f 186/186/186 180/180/180 185/185/185
f 185/185/185 176/176/176 187/187/187
f 186/186/186 185/185/185 188/188/188
f 189/189/189 185/185/185 187/187/187
f 185/185/185 189/189/189 188/188/188
f 189/189/189 187/187/187 190/190/190
f 188/188/188 189/189/189 191/191/191
f 192/192/192 189/189/189 190/190/190
f 189/189/189 192/192/192 191/191/191
f 195/195/195 194/194/194 193/193/193
f 195/195/195 193/193/193 196/196/196
f 195/195/195 196/196/196 197/197/197
f 198/198/198 195/195/195 197/197/197
f 198/198/198 199/199/199 195/195/195
f 193/193/193 200/200/200 196/196/196
f 193/193/193 201/201/201 200/200/200
f 193/193/193 202/202/202 201/201/201
f 201/201/201 203/203/203 200/200/200
f 201/201/201 204/204/204 203/203/203
f 201/201/201 205/205/205 204/204/204
f 204/204/204 206/206/206 203/203/203
f 207/207/207 206/206/206 204/204/204
f 207/207/207 204/204/204 208/208/208
f 207/207/207 209/209/209 206/206/206
f 207/207/207 210/210/210 209/209/209
f 207/207/207 208/208/208 210/210/210
f 208/208/208 211/211/211 210/210/210
f 212/212/212 211/211/211 208/208/208
f 213/213/213 212/212/212 208/208/208
f 204/204/204 214/214/214 208/208/208
f 204/204/204 215/215/215 214/214/214
f 216/216/216 213/213/213 208/208/208
f 208/208/208 214/214/214 216/216/216
f 217/217/217 213/213/213 216/216/216
f 214/214/214 218/218/218 216/216/216
f 214/214/214 219/219/219 218/218/218
f 220/220/220 217/217/217 216/216/216
f 216/216/216 218/218/218 220/220/220
f 221/221/221 217/217/217 220/220/220
f 222/222/222 221/221/221 220/220/220
f 223/223/223 222/222/222 220/220/220
f 218/218/218 224/224/224 220/220/220
f 224/224/224 223/223/223 220/220/220
f 218/218/218 225/225/225 224/224/224
f 224/224/224 226/226/226 223/223/223
