g Zen_RubbleB_Debris
v 0.147841 -0.523844 1.405764
v -0.5 -0.523844 0.881889
v -0.5 0.508847 0.5
v 0.147841 -0.523844 1.405764
v -0.5 0.508847 0.5
v -0.044844 0.346497 0.5
v -0.5 -0.523844 0.5
v -0.5 0.508847 0.5
v -0.5 -0.523844 0.881889
v -0.5 -0.523844 0.881889
v -0.500001 -0.711004 1.245691
v -0.500001 -0.711004 0.5
v -0.5 -0.711004 -0.5
v -0.5 0.508847 0.5
v -0.5 0.628829 -0.5
v 0.147841 -0.523844 0.5
v 0.147841 -0.523844 1.405764
v -0.044844 0.346497 0.5
v 0.274172 0.402221 -0.5
v 0.362911 -0.292712 -0.5
v 0.352963 -0.292713 0.5
v 0.324432 0.203781 0.5
v -0.044844 0.346497 0.5
v -0.5 0.508847 0.5
v -0.5 0.628829 -0.5
v 0.034086 0.520635 -0.5
v 0.324432 0.203781 0.5
v -0.044844 0.346497 0.5
v 0.034086 0.520635 -0.5
v 0.274172 0.402221 -0.5
v 0.147841 -0.711004 0.5
v 0.147841 -0.711004 1.405764
v 0.147841 -0.523844 1.405764
v 0.147841 -0.523844 0.5
v 0.294878 -0.523844 -0.5
v 0.294878 -0.711004 -0.5
v 0.147841 -0.711004 0.5
v 0.147841 -0.523844 0.5
v -0.5 -0.711004 -0.5
v 0.294878 -0.523844 -0.5
v 0.362911 -0.292712 -0.5
v 0.294878 -0.711004 -0.5
v 0.147841 -0.523844 1.405764
v 0.147841 -0.711004 1.405764
v -0.500001 -0.711004 1.245691
v -0.5 -0.523844 0.881889
v -0.500001 -0.711004 0.5
v -0.500001 -0.711004 1.245691
v 0.147841 -0.711004 1.405764
v 0.147841 -0.711004 0.5
v -0.5 -0.711004 -0.5
v 0.034086 0.520635 -0.5
v -0.5 0.628829 -0.5
v 0.274172 0.402221 -0.5
v 0.362911 -0.292712 -0.5
v 0.362911 -0.292712 -0.5
v 0.294878 -0.523844 -0.5
v 0.147841 -0.523844 0.5
v 0.352963 -0.292713 0.5
v 0.294878 -0.711004 -0.5
v -0.5 -0.711004 -0.5
v -0.500001 -0.711004 0.5
v 0.147841 -0.711004 0.5
v 0.324432 0.203781 0.5
v 0.352963 -0.292713 0.5
v 0.147841 -0.523844 0.5
v -0.044844 0.346497 0.5
vt 0.34375 0.359375
vt 0.4375 0.375
vt 0.34375 0.359375
vt 0.34375 0.359375
vt 0.34375 0.359375
vt 0.375 0.40625
vt 0.375 0.40625
vt 0.375 0.40625
vt 0.34375 0.359375
vt 0.375 0.40625
vt 0.375 0.40625
vt 0.375 0.40625
vt 0.375 0.375
vt 0.4375 0.40625
vt 0.4375 0.375
vt 0.40625 0.40625
vt 0.375 0.40625
vt 0.34375 0.359375
vt 0.4375 0.375
vt 0.375 0.375
vt 0.375 0.40625
vt 0.4375 0.40625
vt 0.40625 0.40625
vt 0.375 0.40625
vt 0.375 0.375
vt 0.40625 0.375
vt 0.4375 0.40625
vt 0.40625 0.40625
vt 0.40625 0.375
vt 0.4375 0.375
vt 0.375 0.40625
vt 0.375 0.40625
vt 0.375 0.40625
vt 0.375 0.40625
vt 0.375 0.375
vt 0.375 0.375
vt 0.375 0.40625
vt 0.375 0.40625
vt 0.375 0.375
vt 0.4375 0.375
vt 0.4375 0.375
vt 0.4375 0.375
vt 0.4375 0.375
vt 0.4375 0.375
vt 0.40625 0.375
vt 0.40625 0.375
vt 0.375 0.40625
vt 0.375 0.40625
vt 0.4375 0.40625
vt 0.4375 0.40625
vt 0.375 0.375
vt 0.40625 0.40625
vt 0.375 0.40625
vt 0.4375 0.40625
vt 0.4375 0.375
vt 0.375 0.375
vt 0.375 0.375
vt 0.375 0.40625
vt 0.375 0.40625
vt 0.4375 0.375
vt 0.375 0.375
vt 0.375 0.40625
vt 0.4375 0.40625
vt 0.4375 0.40625
vt 0.4375 0.375
vt 0.4286406 0.375
vt 0.40625 0.40625
vn -0.3058331 0.5121125 0.802625
vn -0.3058331 0.5121125 0.802625
vn -0.3058331 0.5121125 0.802625
vn -0.3058331 0.5121125 0.802625
vn -0.3058331 0.5121125 0.802625
vn -0.3058331 0.5121125 0.802625
vn -1 0 0
vn -1 0 0
vn -1 0 0
vn -1 0 0
vn -1 0 0
vn -1 0 0
vn -1 0 0
vn -1 0 0
vn -1 0 0
vn 0.9763634 0.2161355 0
vn 0.9763634 0.2161355 0
vn 0.9763634 0.2161355 0
vn 0.9951392 0.09793608 -0.01031549
vn 0.9951392 0.09793608 -0.01031549
vn 0.9951392 0.09793608 -0.01031549
vn 0.9951392 0.09793608 -0.01031549
vn 0.2607834 0.9535912 0.1505188
vn 0.2607834 0.9535912 0.1505188
vn 0.2607834 0.9535912 0.1505188
vn 0.2607834 0.9535912 0.1505188
vn 0.3878688 0.9051086 0.1741732
vn 0.3878688 0.9051086 0.1741732
vn 0.3878688 0.9051086 0.1741732
vn 0.3878688 0.9051086 0.1741732
vn 1 0 0
vn 1 0 0
vn 1 0 0
vn 1 0 0
vn 0.9893651 0 0.1454536
vn 0.9893651 0 0.1454536
vn 0.9893651 0 0.1454536
vn 0.9893651 0 0.1454536
vn 0 0 -1
vn 0 0 -1
vn 0 0 -1
vn 0 0 -1
vn -0.3540232 0.6518299 0.6706603
vn -0.3540232 0.6518299 0.6706603
vn -0.3540232 0.6518299 0.6706603
vn -0.3540232 0.6518299 0.6706603
vn 0 -1 0
vn 0 -1 0
vn 0 -1 0
vn 0 -1 0
vn 0 0 -1
vn 0 0 -1
vn 0 0 -1
vn 0 0 -1
vn 0 0 -1
vn 0.8589696 -0.5075688 0.06741744
vn 0.8589696 -0.5075688 0.06741744
vn 0.8589696 -0.5075688 0.06741744
vn 0.8589696 -0.5075688 0.06741744
vn 0 -1 0
vn 0 -1 0
vn 0 -1 0
vn 0 -1 0
vn 0 0 1
vn 0 0 1
vn 0 0 1
vn 0 0 1
g Zen_RubbleB_Debris_0
f 3/3/3 2/2/2 1/1/1
f 6/6/6 5/5/5 4/4/4
f 9/9/9 8/8/8 7/7/7
f 11/11/11 10/10/10 7/7/7
f 12/12/12 11/11/11 7/7/7
f 13/13/13 12/12/12 7/7/7
f 7/7/7 14/14/14 13/13/13
f 14/14/14 15/15/15 13/13/13
f 18/18/18 17/17/17 16/16/16
f 21/21/21 20/20/20 19/19/19
f 22/22/22 21/21/21 19/19/19
f 25/25/25 24/24/24 23/23/23
f 26/26/26 25/25/25 23/23/23
f 29/29/29 28/28/28 27/27/27
f 30/30/30 29/29/29 27/27/27
f 33/33/33 32/32/32 31/31/31
f 34/34/34 33/33/33 31/31/31
f 37/37/37 36/36/36 35/35/35
f 38/38/38 37/37/37 35/35/35
f 41/41/41 40/40/40 39/39/39
f 40/40/40 42/42/42 39/39/39
f 45/45/45 44/44/44 43/43/43
f 46/46/46 45/45/45 43/43/43
f 49/49/49 48/48/48 47/47/47
f 50/50/50 49/49/49 47/47/47
f 53/53/53 52/52/52 51/51/51
f 51/51/51 52/52/52 54/54/54
f 55/55/55 51/51/51 54/54/54
f 58/58/58 57/57/57 56/56/56
f 59/59/59 58/58/58 56/56/56
f 62/62/62 61/61/61 60/60/60
f 63/63/63 62/62/62 60/60/60
f 66/66/66 65/65/65 64/64/64
f 67/67/67 66/66/66 64/64/64
