g Zen_HoleboxSingle_Plain
v 0.5 0.499999 0
v 0.073159 0.367794 0
v 0 0.375 0
v 0.143506 0.346455 0
v 0.208339 0.311801 0
v 0.265165 0.265165 0
v 0.311801 0.208339 0
v 0.346455 0.143506 0
v -0.073158 0.367795 0
v 0.367794 0.073159 0
v -0.5 0.5 0
v -0.143506 0.346455 0
v -0.208338 0.311801 0
v 0.499999 -0.5 0
v 0.375 0 0
v 0.367794 -0.073159 0
v 0.346455 -0.143506 0
v 0.311801 -0.208339 0
v -0.265165 0.265165 0
v 0.265165 -0.265165 0
v -0.311801 0.208339 0
v 0.208339 -0.311801 0
v -0.346455 0.143507 0
v 0.143506 -0.346455 0
v -0.367794 0.073159 0
v -0.375 0 0
v -0.367795 -0.073159 0
v -0.5 -0.5 0
v 0.073159 -0.367794 0
v 0 -0.375 0
v -0.073159 -0.367794 0
v -0.346455 -0.143506 0
v -0.143506 -0.346455 0
v -0.311801 -0.208339 0
v -0.208339 -0.311801 0
v -0.265165 -0.265165 0
vt 0.34375 0.078125
vt 0.34375 0.078125
vt 0.34375 0.078125
vt 0.34375 0.078125
vt 0.34375 0.078125
vt 0.34375 0.078125
vt 0.34375 0.078125
vt 0.34375 0.078125
vt 0.34375 0.078125
vt 0.34375 0.078125
vt 0.34375 0.078125
vt 0.34375 0.078125
vt 0.34375 0.078125
vt 0.34375 0.078125
vt 0.34375 0.078125
vt 0.34375 0.078125
vt 0.34375 0.078125
vt 0.34375 0.078125
vt 0.34375 0.078125
vt 0.34375 0.078125
vt 0.34375 0.078125
vt 0.34375 0.078125
vt 0.34375 0.078125
vt 0.34375 0.078125
vt 0.34375 0.078125
vt 0.34375 0.078125
vt 0.34375 0.078125
vt 0.34375 0.078125
vt 0.34375 0.078125
vt 0.34375 0.078125
vt 0.34375 0.078125
vt 0.34375 0.078125
vt 0.34375 0.078125
vt 0.34375 0.078125
vt 0.34375 0.078125
vt 0.34375 0.078125
vn 0 0 1
vn 0 0 1
vn 0 0 1
vn 0 0 1
vn 0 0 1
vn 0 0 1
vn 0 0 1
vn 0 0 1
vn 0 0 1
vn 0 0 1
vn 0 0 1
vn 0 0 1
vn 0 0 1
vn 0 0 1
vn 0 0 1
vn 0 0 1
vn 0 0 1
vn 0 0 1
vn 0 0 1
vn 0 0 1
vn 0 0 1
vn 0 0 1
vn 0 0 1
vn 0 0 1
vn 0 0 1
vn 0 0 1
vn 0 0 1
vn 0 0 1
vn 0 0 1
vn 0 0 1
vn 0 0 1
vn 0 0 1
vn 0 0 1
vn 0 0 1
vn 0 0 1
vn 0 0 1
g Zen_HoleboxSingle_Plain_0
f 3/3/3 2/2/2 1/1/1
f 2/2/2 4/4/4 1/1/1
f 4/4/4 5/5/5 1/1/1
f 5/5/5 6/6/6 1/1/1
f 6/6/6 7/7/7 1/1/1
f 7/7/7 8/8/8 1/1/1
f 9/9/9 3/3/3 1/1/1
f 8/8/8 10/10/10 1/1/1
f 11/11/11 9/9/9 1/1/1
f 12/12/12 9/9/9 11/11/11
f 13/13/13 12/12/12 11/11/11
f 1/1/1 10/10/10 14/14/14
f 10/10/10 15/15/15 14/14/14
f 15/15/15 16/16/16 14/14/14
f 16/16/16 17/17/17 14/14/14
f 18/18/18 14/14/14 17/17/17
f 19/19/19 13/13/13 11/11/11
f 20/20/20 14/14/14 18/18/18
f 21/21/21 19/19/19 11/11/11
f 22/22/22 14/14/14 20/20/20
f 23/23/23 21/21/21 11/11/11
f 24/24/24 14/14/14 22/22/22
f 25/25/25 23/23/23 11/11/11
f 26/26/26 25/25/25 11/11/11
f 27/27/27 26/26/26 11/11/11
f 28/28/28 27/27/27 11/11/11
f 29/29/29 14/14/14 24/24/24
f 30/30/30 14/14/14 29/29/29
f 30/30/30 31/31/31 14/14/14
f 31/31/31 28/28/28 14/14/14
f 32/32/32 27/27/27 28/28/28
f 31/31/31 33/33/33 28/28/28
f 34/34/34 32/32/32 28/28/28
f 33/33/33 35/35/35 28/28/28
f 36/36/36 34/34/34 28/28/28
f 35/35/35 36/36/36 28/28/28
