g Zen_PressureSwitchSocket_Plain
v 0.25 -0.375 0
v 0.25 -0.375 -0.125
v 0.375 -0.25 -0.125
v 0.375 -0.25 0
v -0.25 0.375 0
v -0.25 0.375 -0.125
v -0.375 0.25 -0.125
v -0.375 0.25 0
v -0.375 -0.25 0
v -0.375 -0.25 -0.125
v -0.25 -0.375 -0.125
v -0.25 -0.375 0
v -0.25 -0.375 0
v -0.25 -0.375 -0.125
v 0.25 -0.375 -0.125
v 0.25 -0.375 0
v 0.375 0.25 0
v 0.375 0.25 -0.125
v 0.25 0.375 -0.125
v 0.25 0.375 0
v -0.375 0.25 0
v -0.375 0.25 -0.125
v -0.375 -0.25 -0.125
v -0.375 -0.25 0
v 0.25 0.375 0
v 0.25 0.375 -0.125
v -0.25 0.375 -0.125
v -0.25 0.375 0
v 0.375 -0.25 0
v 0.375 -0.25 -0.125
v 0.375 0.25 -0.125
v 0.375 0.25 0
v -0.25 -0.375 0
v -0.5 -0.5 0
v -0.375 -0.25 0
v 0.25 -0.375 0
v -0.5 0.5 0
v -0.375 0.25 0
v -0.25 0.375 0
v 0.5 -0.5 0
v 0.375 -0.25 0
v 0.375 0.25 0
v 0.5 0.5 0
v 0.25 0.375 0
vt 0.508125 0.1452544
vt 0.508125 0.1354106
vt 0.5278125 0.1354106
vt 0.5278125 0.1452544
vt 0.429375 0.1452544
vt 0.429375 0.1354106
vt 0.4096875 0.1354106
vt 0.4096875 0.1452544
vt 0.4096875 0.1452544
vt 0.4096875 0.1354106
vt 0.429375 0.1354106
vt 0.429375 0.1452544
vt 0.429375 0.1452544
vt 0.429375 0.1354106
vt 0.508125 0.1354106
vt 0.508125 0.1452544
vt 0.5278125 0.1452544
vt 0.5278125 0.1354106
vt 0.508125 0.1354106
vt 0.508125 0.1452544
vt 0.508125 0.1452544
vt 0.508125 0.1354106
vt 0.429375 0.1354106
vt 0.429375 0.1452544
vt 0.508125 0.1452544
vt 0.508125 0.1354106
vt 0.429375 0.1354106
vt 0.429375 0.1452544
vt 0.429375 0.1452544
vt 0.429375 0.1354106
vt 0.508125 0.1354106
vt 0.508125 0.1452544
vt 0.40625 0.09375
vt 0.34375 0.078125
vt 0.375 0.109375
vt 0.53125 0.09375
vt 0.34375 0.203125
vt 0.375 0.171875
vt 0.40625 0.1875
vt 0.59375 0.078125
vt 0.5625 0.109375
vt 0.5625 0.171875
vt 0.59375 0.203125
vt 0.53125 0.1875
vn -0.7071068 0.7071068 0
vn -0.7071068 0.7071068 0
vn -0.7071068 0.7071068 0
vn -0.7071068 0.7071068 0
vn 0.7071068 -0.7071068 0
vn 0.7071068 -0.7071068 0
vn 0.7071068 -0.7071068 0
vn 0.7071068 -0.7071068 0
vn 0.7071068 0.7071068 0
vn 0.7071068 0.7071068 0
vn 0.7071068 0.7071068 0
vn 0.7071068 0.7071068 0
vn 0 1 0
vn 0 1 0
vn 0 1 0
vn 0 1 0
vn -0.7071068 -0.7071068 0
vn -0.7071068 -0.7071068 0
vn -0.7071068 -0.7071068 0
vn -0.7071068 -0.7071068 0
vn 1 0 0
vn 1 0 0
vn 1 0 0
vn 1 0 0
vn 0 -1 0
vn 0 -1 0
vn 0 -1 0
vn 0 -1 0
vn -1 0 0
vn -1 0 0
vn -1 0 0
vn -1 0 0
vn 0 0 1
vn 0 0 1
vn 0 0 1
vn 0 0 1
vn 0 0 1
vn 0 0 1
vn 0 0 1
vn 0 0 1
vn 0 0 1
vn 0 0 1
vn 0 0 1
vn 0 0 1
g Zen_PressureSwitchSocket_Plain_0
f 3/3/3 2/2/2 1/1/1
f 4/4/4 3/3/3 1/1/1
f 7/7/7 6/6/6 5/5/5
f 8/8/8 7/7/7 5/5/5
f 11/11/11 10/10/10 9/9/9
f 12/12/12 11/11/11 9/9/9
f 15/15/15 14/14/14 13/13/13
f 16/16/16 15/15/15 13/13/13
f 19/19/19 18/18/18 17/17/17
f 20/20/20 19/19/19 17/17/17
f 23/23/23 22/22/22 21/21/21
f 24/24/24 23/23/23 21/21/21
f 27/27/27 26/26/26 25/25/25
f 28/28/28 27/27/27 25/25/25
f 31/31/31 30/30/30 29/29/29
f 32/32/32 31/31/31 29/29/29
f 35/35/35 34/34/34 33/33/33
f 33/33/33 34/34/34 36/36/36
f 34/34/34 35/35/35 37/37/37
f 35/35/35 38/38/38 37/37/37
f 37/37/37 38/38/38 39/39/39
f 34/34/34 40/40/40 36/36/36
f 36/36/36 40/40/40 41/41/41
f 41/41/41 40/40/40 42/42/42
f 37/37/37 39/39/39 43/43/43
f 40/40/40 43/43/43 42/42/42
f 39/39/39 44/44/44 43/43/43
f 42/42/42 43/43/43 44/44/44
