g Zen_Grip_Plain
v 0 0.25 0
v 0.125 0.216506 0.125
v 0 0.25 0.125
v 0.125 0.216506 0
v 0.216506 0.125 0.125
v 0.216506 0.125 0
v 0.25 0 0.125
v 0.25 0 0
v 0.216506 -0.125 0.125
v 0.216506 -0.125 0
v 0.125 -0.216506 0.125
v 0.125 -0.216506 0
v -0.125 0.216506 0
v -0.125 0.216506 0.125
v 0.125 -0.216506 0
v 0 -0.25 0.125
v 0.125 -0.216506 0.125
v 0 -0.25 0
v 0 -0.25 0
v -0.125 -0.216506 0.125
v 0 -0.25 0.125
v -0.125 -0.216506 0
v -0.216506 -0.125 0.125
v -0.216506 -0.125 0
v -0.25 0 0.125
v -0.25 0 0
v -0.216506 0.125 0.125
v -0.216506 0.125 0
v -0.125 0.216506 0.125
v -0.125 0.216506 0
v -0.216506 0.125 0.125
v -0.216506 -0.125 0.125
v -0.25 0 0.125
v -0.125 0.216506 0.125
v -0.125 -0.216506 0.125
v 0 0.25 0.125
v 0 -0.25 0.125
v 0.125 0.216506 0.125
v 0.125 -0.216506 0.125
v 0.216506 0.125 0.125
v 0.216506 -0.125 0.125
v 0.25 0 0.125
v 0 0.25 0
v -0.125 0.216506 0
v -0.5 0.5 0
v -0.216506 0.125 0
v 0.125 0.216506 0
v 0.5 0.5 0
v 0.216506 0.125 0
v 0.25 0 0
v 0.216506 -0.125 0
v 0.5 -0.5 0
v 0.125 -0.216506 0
v 0 -0.25 0
v -0.125 -0.216506 0
v -0.5 -0.5 0
v -0.216506 -0.125 0
v -0.25 0 0
vt 0.6406225 0.8593834
vt 0.6302072 0.874474
vt 0.6406225 0.8744739
vt 0.6302072 0.8593835
vt 0.619792 0.874474
vt 0.619792 0.8593835
vt 0.6093767 0.8744741
vt 0.6093767 0.8593836
vt 0.5989615 0.8744741
vt 0.5989615 0.8593836
vt 0.5885463 0.8744742
vt 0.5885463 0.8593838
vt 0.6510378 0.8593834
vt 0.6510378 0.874474
vt 0.5885463 0.8593838
vt 0.5781313 0.8744742
vt 0.5885463 0.8744742
vt 0.578131 0.8593838
vt 0.7031145 0.8593832
vt 0.6926993 0.874474
vt 0.7031145 0.874474
vt 0.6926993 0.8593832
vt 0.6822838 0.874474
vt 0.6822838 0.8593832
vt 0.6718685 0.874474
vt 0.6718685 0.8593832
vt 0.661453 0.874474
vt 0.661453 0.8593834
vt 0.6510378 0.874474
vt 0.6510378 0.8593834
vt 0.5806968 0.9163138
vt 0.6187822 0.8782281
vt 0.594637 0.8921685
vt 0.5806965 0.9441943
vt 0.6466628 0.8782281
vt 0.594637 0.9683396
vt 0.670808 0.8921685
vt 0.6187822 0.9822799
vt 0.6847482 0.9163138
vt 0.6466628 0.9822799
vt 0.6847485 0.9441944
vt 0.670808 0.9683396
vt 0.7656227 0.8901429
vt 0.750001 0.8943289
vt 0.7031353 0.859375
vt 0.738565 0.9057649
vt 0.7812448 0.8943288
vt 0.8281102 0.859375
vt 0.7926805 0.9057648
vt 0.7968665 0.9213866
vt 0.7926805 0.9370085
vt 0.8281102 0.984375
vt 0.7812448 0.9484445
vt 0.7656227 0.9526305
vt 0.750001 0.9484446
vt 0.7031353 0.9843751
vt 0.738565 0.9370086
vt 0.734379 0.9213867
vn 0 1 0
vn 0.4999893 0.8660316 0
vn 0 1 0
vn 0.4999893 0.8660316 0
vn 0.8660316 0.4999893 0
vn 0.8660316 0.4999893 0
vn 1 0 0
vn 1 0 0
vn 0.8660316 -0.4999893 0
vn 0.8660316 -0.4999893 0
vn 0.4999893 -0.8660316 0
vn 0.4999893 -0.8660316 0
vn -0.4999893 0.8660316 0
vn -0.4999893 0.8660316 0
vn 0.4999893 -0.8660316 0
vn 0 -1 0
vn 0.4999893 -0.8660316 0
vn 0 -1 0
vn 0 -1 0
vn -0.4999893 -0.8660316 0
vn 0 -1 0
vn -0.4999893 -0.8660316 0
vn -0.8660316 -0.4999893 0
vn -0.8660316 -0.4999893 0
vn -1 0 0
vn -1 0 0
vn -0.8660316 0.4999893 0
vn -0.8660316 0.4999893 0
vn -0.4999893 0.8660316 0
vn -0.4999893 0.8660316 0
vn 0 0 1
vn 0 0 1
vn 0 0 1
vn 0 0 1
vn 0 0 1
vn 0 0 1
vn 0 0 1
vn 0 0 1
vn 0 0 1
vn 0 0 1
vn 0 0 1
vn 0 0 1
vn 0 0 1
vn 0 0 1
vn 0 0 1
vn 0 0 1
vn 0 0 1
vn 0 0 1
vn 0 0 1
vn 0 0 1
vn 0 0 1
vn 0 0 1
vn 0 0 1
vn 0 0 1
vn 0 0 1
vn 0 0 1
vn 0 0 1
vn 0 0 1
g Zen_Grip_Plain_0
f 3/3/3 2/2/2 1/1/1
f 2/2/2 4/4/4 1/1/1
f 2/2/2 5/5/5 4/4/4
f 5/5/5 6/6/6 4/4/4
f 5/5/5 7/7/7 6/6/6
f 7/7/7 8/8/8 6/6/6
f 7/7/7 9/9/9 8/8/8
f 9/9/9 10/10/10 8/8/8
f 9/9/9 11/11/11 10/10/10
f 11/11/11 12/12/12 10/10/10
f 1/1/1 13/13/13 3/3/3
f 13/13/13 14/14/14 3/3/3
f 17/17/17 16/16/16 15/15/15
f 16/16/16 18/18/18 15/15/15
f 21/21/21 20/20/20 19/19/19
f 20/20/20 22/22/22 19/19/19
f 20/20/20 23/23/23 22/22/22
f 23/23/23 24/24/24 22/22/22
f 23/23/23 25/25/25 24/24/24
f 25/25/25 26/26/26 24/24/24
f 25/25/25 27/27/27 26/26/26
f 27/27/27 28/28/28 26/26/26
f 27/27/27 29/29/29 28/28/28
f 29/29/29 30/30/30 28/28/28
f 33/33/33 32/32/32 31/31/31
f 31/31/31 32/32/32 34/34/34
f 32/32/32 35/35/35 34/34/34
f 34/34/34 35/35/35 36/36/36
f 35/35/35 37/37/37 36/36/36
f 36/36/36 37/37/37 38/38/38
f 37/37/37 39/39/39 38/38/38
f 38/38/38 39/39/39 40/40/40
f 39/39/39 41/41/41 40/40/40
f 40/40/40 41/41/41 42/42/42
f 45/45/45 44/44/44 43/43/43
f 45/45/45 46/46/46 44/44/44
f 45/45/45 43/43/43 47/47/47
f 48/48/48 45/45/45 47/47/47
f 48/48/48 47/47/47 49/49/49
f 48/48/48 49/49/49 50/50/50
f 48/48/48 50/50/50 51/51/51
f 52/52/52 48/48/48 51/51/51
f 52/52/52 51/51/51 53/53/53
f 52/52/52 53/53/53 54/54/54
f 52/52/52 54/54/54 55/55/55
f 56/56/56 52/52/52 55/55/55
f 45/45/45 56/56/56 46/46/46
f 56/56/56 55/55/55 57/57/57
f 56/56/56 57/57/57 58/58/58
f 56/56/56 58/58/58 46/46/46
