g Zen_Spaceship_Plain
v 0.378063 0.023009 -0.03532
v 0.110278 -0.252227 -0.188088
v 0 -1.852515 -0.03532
v 0.110278 -0.252227 -0.188088
v 0 -0.252227 -0.188088
v 0 -1.852515 -0.03532
v 0 -1.852515 -0.03532
v 0 -0.085564 0.292479
v 0.378063 0.023009 -0.03532
v 0 0.699769 -0.137347
v 0.110278 0.121014 -0.354417
v 0.378063 0.023009 -0.03532
v 0.110278 0.121014 -0.354417
v 0.110278 -0.252227 -0.188088
v 0.378063 0.023009 -0.03532
v 0 -0.085564 0.292479
v 0 0.122773 0.047629
v 0.378063 0.023009 -0.03532
v 0.110278 0.121014 -0.354417
v 0 0.699769 -0.137347
v 0 0.121014 -0.354417
v 0.37089 0.019676 -0.032744
v 0.813692 -0.172804 -0.006934
v 0.345883 0.007064 0.035956
v 0.378063 0.023009 -0.03532
v 0 0.122773 0.047629
v 0 0.699769 -0.137347
v 0.358957 0.026512 -0.03707
v 0.755998 0.707478 -0.832228
v 0.574128 0.006526 -0.033069
v 0.383599 -0.549827 0.394956
v 0.358957 0.026512 -0.03707
v 0.574128 0.006526 -0.033069
v 0.383599 -0.549827 0.394956
v 0.429568 -0.304688 -0.207583
v 0.358957 0.026512 -0.03707
v 0.429568 -0.304688 -0.207583
v 0.755998 0.707478 -0.832228
v 0.358957 0.026512 -0.03707
v 0.813692 -0.172804 -0.006934
v 1.733258 1.412294 0.283688
v 0.345883 0.007064 0.035956
v 0.37089 0.019676 -0.032744
v 1.733258 1.412294 0.283688
v 0.813692 -0.172804 -0.006934
v 0.345883 0.007064 0.035956
v 1.733258 1.412294 0.283688
v 0.37089 0.019676 -0.032744
v -0.378063 0.023009 -0.03532
v 0 -1.852515 -0.03532
v -0.110278 -0.252227 -0.188088
v -0.110278 -0.252227 -0.188088
v 0 -1.852515 -0.03532
v 0 -0.252227 -0.188088
v 0 -1.852515 -0.03532
v -0.378063 0.023009 -0.03532
v 0 -0.085564 0.292479
v 0 -0.252227 -0.188088
v 0 0.699769 -0.137347
v 0 0.121014 -0.354417
v 0 0.699769 -0.137347
v -0.378063 0.023009 -0.03532
v -0.110278 0.121014 -0.354417
v -0.110278 0.121014 -0.354417
v -0.378063 0.023009 -0.03532
v -0.110278 -0.252227 -0.188088
v 0 -0.085564 0.292479
v -0.378063 0.023009 -0.03532
v 0 0.122773 0.047629
v -0.110278 0.121014 -0.354417
v 0 0.121014 -0.354417
v 0 0.699769 -0.137347
v -0.37089 0.019676 -0.032744
v -0.345883 0.007064 0.035956
v -0.813692 -0.172804 -0.006934
v -0.378063 0.023009 -0.03532
v 0 0.699769 -0.137347
v 0 0.122773 0.047629
v -0.358957 0.026512 -0.03707
v -0.574128 0.006526 -0.033069
v -0.755998 0.707478 -0.832228
v -0.383599 -0.549827 0.394956
v -0.574128 0.006526 -0.033069
v -0.358957 0.026512 -0.03707
v -0.383599 -0.549827 0.394956
v -0.358957 0.026512 -0.03707
v -0.429568 -0.304688 -0.207583
v -0.429568 -0.304688 -0.207583
v -0.358957 0.026512 -0.03707
v -0.755998 0.707478 -0.832228
v -0.813692 -0.172804 -0.006934
v -0.345883 0.007064 0.035956
v -1.733258 1.412294 0.283688
v -0.37089 0.019676 -0.032744
v -0.813692 -0.172804 -0.006934
v -1.733258 1.412294 0.283688
v -0.345883 0.007064 0.035956
v -0.37089 0.019676 -0.032744
v -1.733258 1.412294 0.283688
v 0.110278 -0.252227 -0.188088
v 0.110278 0.121014 -0.354417
v 0 0.121014 -0.354417
v 0 -0.252227 -0.188088
v 0.383599 -0.549827 0.394956
v 0.574128 0.006526 -0.033069
v 0.429568 -0.304688 -0.207583
v 0.755998 0.707478 -0.832228
v -0.110278 -0.252227 -0.188088
v 0 -0.252227 -0.188088
v 0 0.121014 -0.354417
v -0.110278 0.121014 -0.354417
v -0.383599 -0.549827 0.394956
v -0.429568 -0.304688 -0.207583
v -0.574128 0.006526 -0.033069
v -0.755998 0.707478 -0.832228
vt 0.3983178 0.3911832
vt 0.3919624 0.3879171
vt 0.389345 0.3689269
vt 0.3919624 0.3879171
vt 0.389345 0.3879171
vt 0.389345 0.3689269
vt 0.389345 0.3926603
vt 0.389345 0.4136282
vt 0.3983178 0.4149166
vt 0.405953 0.3892803
vt 0.3922171 0.3867044
vt 0.3898911 0.3904911
vt 0.3922171 0.3867044
vt 0.3833589 0.3886782
vt 0.3898911 0.3904911
vt 0.389345 0.3943809
vt 0.389345 0.3914754
vt 0.3983178 0.3904911
vt 0.3919624 0.3923462
vt 0.389345 0.3992141
vt 0.389345 0.3923462
vt 0.3981475 0.3905216
vt 0.4086567 0.3908279
vt 0.397554 0.3913369
vt 0.3983178 0.3911832
vt 0.389345 0.3923671
vt 0.389345 0.3992141
vt 0.3978644 0.3904702
vt 0.4072875 0.3810344
vt 0.402971 0.3905177
vt 0.3984491 0.3843856
vt 0.3978644 0.3912247
vt 0.402971 0.3909876
vt 0.3762957 0.395597
vt 0.3821138 0.3884469
vt 0.3899742 0.3904702
vt 0.3821138 0.3884469
vt 0.4061359 0.3810344
vt 0.3899742 0.3904702
vt 0.4086567 0.3888596
vt 0.4304811 0.4076694
vt 0.397554 0.390994
vt 0.3981475 0.3911437
vt 0.4304811 0.4076694
vt 0.4086567 0.3888596
vt 0.397554 0.3913369
vt 0.4304811 0.3942766
vt 0.3981475 0.3905216
vt 0.3983178 0.3911832
vt 0.389345 0.3689269
vt 0.3919624 0.3879171
vt 0.3919624 0.3879171
vt 0.389345 0.3689269
vt 0.389345 0.3879171
vt 0.389345 0.3926603
vt 0.3983178 0.4149166
vt 0.389345 0.4136282
vt 0.3833589 0.3886782
vt 0.405953 0.3892803
vt 0.3922171 0.3867044
vt 0.405953 0.3892803
vt 0.3898911 0.3904911
vt 0.3922171 0.3867044
vt 0.3922171 0.3867044
vt 0.3898911 0.3904911
vt 0.3833589 0.3886782
vt 0.389345 0.3943809
vt 0.3983178 0.3904911
vt 0.389345 0.3914754
vt 0.3919624 0.3923462
vt 0.389345 0.3923462
vt 0.389345 0.3992141
vt 0.3981475 0.3905216
vt 0.397554 0.3913369
vt 0.4086567 0.3908279
vt 0.3983178 0.3911832
vt 0.389345 0.3992141
vt 0.389345 0.3923671
vt 0.3978644 0.3904702
vt 0.402971 0.3905177
vt 0.4072875 0.3810344
vt 0.3984491 0.3843856
vt 0.402971 0.3909876
vt 0.3978644 0.3912247
vt 0.3762957 0.395597
vt 0.3899742 0.3904702
vt 0.3821138 0.3884469
vt 0.3821138 0.3884469
vt 0.3899742 0.3904702
vt 0.4061359 0.3810344
vt 0.4086567 0.3888596
vt 0.397554 0.390994
vt 0.4304811 0.4076694
vt 0.3981475 0.3911437
vt 0.4086567 0.3888596
vt 0.4304811 0.4076694
vt 0.397554 0.3913369
vt 0.3981475 0.3905216
vt 0.4304811 0.3942766
vt 0.3919624 0.3879171
vt 0.3919624 0.3923462
vt 0.389345 0.3923462
vt 0.389345 0.3879171
vt 0.3762957 0.395597
vt 0.3894999 0.3905177
vt 0.3821138 0.3884469
vt 0.4061359 0.3810344
vt 0.3919624 0.3879171
vt 0.389345 0.3879171
vt 0.389345 0.3923462
vt 0.3919624 0.3923462
vt 0.3762957 0.395597
vt 0.3821138 0.3884469
vt 0.3894999 0.3905177
vt 0.4061359 0.3810344
vn 0.5800745 -0.1169183 -0.8061287
vn 0.5800745 -0.1169183 -0.8061287
vn 0.5800745 -0.1169183 -0.8061287
vn 0 -0.0950064 -0.9954767
vn 0 -0.0950064 -0.9954767
vn 0 -0.0950064 -0.9954767
vn 0.67097 -0.1352316 0.7290484
vn 0.67097 -0.1352316 0.7290484
vn 0.67097 -0.1352316 0.7290484
vn 0.7680233 0.3479834 -0.5376316
vn 0.7680233 0.3479834 -0.5376316
vn 0.7680233 0.3479834 -0.5376316
vn 0.6847025 -0.2966484 -0.6657194
vn 0.6847025 -0.2966484 -0.6657194
vn 0.6847025 -0.2966484 -0.6657194
vn 0.324573 0.720378 0.61295
vn 0.324573 0.720378 0.61295
vn 0.324573 0.720378 0.61295
vn 0 0.3511502 -0.9363192
vn 0 0.3511502 -0.9363192
vn 0 0.3511502 -0.9363192
vn 0.3663233 0.8823743 0.2953354
vn 0.3663233 0.8823743 0.2953354
vn 0.3663233 0.8823743 0.2953354
vn 0.2780583 0.2932262 0.9147142
vn 0.2780583 0.2932262 0.9147142
vn 0.2780583 0.2932262 0.9147142
vn 0.05673427 0.7441375 0.6656129
vn 0.05673427 0.7441375 0.6656129
vn 0.05673427 0.7441375 0.6656129
vn 0.04089551 0.600401 0.7986527
vn 0.04089551 0.600401 0.7986527
vn 0.04089551 0.600401 0.7986527
vn -0.9811295 -0.1410595 -0.1322395
vn -0.9811295 -0.1410595 -0.1322395
vn -0.9811295 -0.1410595 -0.1322395
vn -0.9035482 0.0274977 -0.427603
vn -0.9035482 0.0274977 -0.427603
vn -0.9035482 0.0274977 -0.427603
vn -0.01699901 0.1898274 -0.9816703
vn -0.01699901 0.1898274 -0.9816703
vn -0.01699901 0.1898274 -0.9816703
vn -0.1087707 -0.1178655 0.9870545
vn -0.1087707 -0.1178655 0.9870545
vn -0.1087707 -0.1178655 0.9870545
vn 0.6952636 -0.7081428 0.1230544
vn 0.6952636 -0.7081428 0.1230544
vn 0.6952636 -0.7081428 0.1230544
vn -0.5800745 -0.1169183 -0.8061287
vn -0.5800745 -0.1169183 -0.8061287
vn -0.5800745 -0.1169183 -0.8061287
vn 0 -0.0950064 -0.9954767
vn 0 -0.0950064 -0.9954767
vn 0 -0.0950064 -0.9954767
vn -0.67097 -0.1352316 0.7290484
vn -0.67097 -0.1352316 0.7290484
vn -0.67097 -0.1352316 0.7290484
vn 1 0 0
vn 1 0 0
vn 1 0 0
vn -0.7680233 0.3479834 -0.5376316
vn -0.7680233 0.3479834 -0.5376316
vn -0.7680233 0.3479834 -0.5376316
vn -0.6847025 -0.2966484 -0.6657194
vn -0.6847025 -0.2966484 -0.6657194
vn -0.6847025 -0.2966484 -0.6657194
vn -0.324573 0.720378 0.61295
vn -0.324573 0.720378 0.61295
vn -0.324573 0.720378 0.61295
vn 0 0.3511502 -0.9363192
vn 0 0.3511502 -0.9363192
vn 0 0.3511502 -0.9363192
vn -0.3663233 0.8823743 0.2953354
vn -0.3663233 0.8823743 0.2953354
vn -0.3663233 0.8823743 0.2953354
vn -0.2780583 0.2932262 0.9147142
vn -0.2780583 0.2932262 0.9147142
vn -0.2780583 0.2932262 0.9147142
vn -0.05673427 0.7441375 0.6656129
vn -0.05673427 0.7441375 0.6656129
vn -0.05673427 0.7441375 0.6656129
vn -0.04089551 0.600401 0.7986527
vn -0.04089551 0.600401 0.7986527
vn -0.04089551 0.600401 0.7986527
vn 0.9811295 -0.1410595 -0.1322395
vn 0.9811295 -0.1410595 -0.1322395
vn 0.9811295 -0.1410595 -0.1322395
vn 0.9035482 0.0274977 -0.427603
vn 0.9035482 0.0274977 -0.427603
vn 0.9035482 0.0274977 -0.427603
vn 0.01699901 0.1898274 -0.9816703
vn 0.01699901 0.1898274 -0.9816703
vn 0.01699901 0.1898274 -0.9816703
vn 0.1087707 -0.1178655 0.9870545
vn 0.1087707 -0.1178655 0.9870545
vn 0.1087707 -0.1178655 0.9870545
vn -0.6952636 -0.7081428 0.1230544
vn -0.6952636 -0.7081428 0.1230544
vn -0.6952636 -0.7081428 0.1230544
vn 0 -0.4070359 -0.9134122
vn 0 -0.4070359 -0.9134122
vn 0 -0.4070359 -0.9134122
vn 0 -0.4070359 -0.9134122
vn 0.9209575 -0.3803955 -0.08447807
vn 0.9209575 -0.3803955 -0.08447807
vn 0.9209575 -0.3803955 -0.08447807
vn 0.9236945 -0.3665968 -0.1113341
vn 0 -0.4070359 -0.9134122
vn 0 -0.4070359 -0.9134122
vn 0 -0.4070359 -0.9134122
vn 0 -0.4070359 -0.9134122
vn -0.9209575 -0.3803955 -0.08447807
vn -0.9209575 -0.3803955 -0.08447807
vn -0.9209575 -0.3803955 -0.08447807
vn -0.9236945 -0.3665968 -0.1113341
g Zen_Spaceship_Plain_0
f 3/3/3 2/2/2 1/1/1
f 6/6/6 5/5/5 4/4/4
f 9/9/9 8/8/8 7/7/7
f 12/12/12 11/11/11 10/10/10
f 15/15/15 14/14/14 13/13/13
f 18/18/18 17/17/17 16/16/16
f 21/21/21 20/20/20 19/19/19
f 24/24/24 23/23/23 22/22/22
f 27/27/27 26/26/26 25/25/25
f 30/30/30 29/29/29 28/28/28
f 33/33/33 32/32/32 31/31/31
f 36/36/36 35/35/35 34/34/34
f 39/39/39 38/38/38 37/37/37
f 42/42/42 41/41/41 40/40/40
f 45/45/45 44/44/44 43/43/43
f 48/48/48 47/47/47 46/46/46
f 51/51/51 50/50/50 49/49/49
f 54/54/54 53/53/53 52/52/52
f 57/57/57 56/56/56 55/55/55
f 60/60/60 59/59/59 58/58/58
f 63/63/63 62/62/62 61/61/61
f 66/66/66 65/65/65 64/64/64
f 69/69/69 68/68/68 67/67/67
f 72/72/72 71/71/71 70/70/70
f 75/75/75 74/74/74 73/73/73
f 78/78/78 77/77/77 76/76/76
f 81/81/81 80/80/80 79/79/79
f 84/84/84 83/83/83 82/82/82
f 87/87/87 86/86/86 85/85/85
f 90/90/90 89/89/89 88/88/88
f 93/93/93 92/92/92 91/91/91
f 96/96/96 95/95/95 94/94/94
f 99/99/99 98/98/98 97/97/97
f 102/102/102 101/101/101 100/100/100
f 103/103/103 102/102/102 100/100/100
f 106/106/106 105/105/105 104/104/104
f 106/106/106 107/107/107 105/105/105
f 110/110/110 109/109/109 108/108/108
f 111/111/111 110/110/110 108/108/108
f 114/114/114 113/113/113 112/112/112
f 115/115/115 113/113/113 114/114/114
