g Zen_45_Plain
v 0 0 -0.5
v -1 0 -0.5
v 0 -1 -0.5
v 0 -1E-06 0.5
v -1E-06 -1.000001 0.5
v -1 0 0.5
v 0 -1 -0.5
v -1 0 -0.5
v -1 0 0.5
v -1E-06 -1.000001 0.5
vt 0.28125 0.5781248
vt 0.28125 0.453125
vt 0.5312495 0.5781248
vt 0.0312505 0.578125
vt 0.28125 0.5781248
vt 0.03125 0.453125
vt 0.3847655 0.578125
vt 0.03125 0.578125
vt 0.03125 0.703125
vt 0.3847655 0.703125
vn 0 0 -1
vn 0 0 -1
vn 0 0 -1
vn 0 0 1
vn 0 0 1
vn 0 0 1
vn -0.7071068 -0.7071068 0
vn -0.7071068 -0.7071068 0
vn -0.7071068 -0.7071068 0
vn -0.7071068 -0.7071068 0
g Zen_45_Plain_0
f 3/3/3 2/2/2 1/1/1
f 6/6/6 5/5/5 4/4/4
f 9/9/9 8/8/8 7/7/7
f 10/10/10 9/9/9 7/7/7
